<?xml version="1.0" encoding="UTF-8" standalone="no"?>
<!DOCTYPE svg PUBLIC "-//W3C//DTD SVG 1.1//EN"
 "http://www.w3.org/Graphics/SVG/1.1/DTD/svg11.dtd">
<!-- Generated by graphviz version 2.26.3 (20100126.1600)
 -->
<!-- Title: stxxl::mng_local::block_w_info&lt; Type, RawSize, NBids, void &gt; Pages: 1 -->
<svg width="1900pt" height="188pt"
 viewBox="0.00 0.00 1900.00 188.00" xmlns="http://www.w3.org/2000/svg" xmlns:xlink="http://www.w3.org/1999/xlink">
<g id="graph1" class="graph" transform="scale(1 1) rotate(0) translate(4 184)">
<title>stxxl::mng_local::block_w_info&lt; Type, RawSize, NBids, void &gt;</title>
<!-- Node1 -->
<g id="node1" class="node"><title>Node1</title>
<polygon fill="#bfbfbf" stroke="black" points="1762,-80.5 1762,-127.5 1892,-127.5 1892,-80.5 1762,-80.5"/>
<text text-anchor="start" x="1770" y="-114.5" font-family="Helvetica,sans-Serif" font-size="10.00">stxxl::mng_local::block</text>
<text text-anchor="start" x="1770" y="-101.5" font-family="Helvetica,sans-Serif" font-size="10.00">_w_info&lt; Type, RawSize,</text>
<text text-anchor="middle" x="1827" y="-88.5" font-family="Helvetica,sans-Serif" font-size="10.00"> NBids, void &gt;</text>
</g>
<!-- Node2 -->
<g id="node2" class="node"><title>Node2</title>
<a xlink:href="classstxxl_1_1mng__local_1_1block__w__bids.html" target="_top" xlink:title="stxxl::mng_local::block\l_w_bids\&lt; Type,((RawSize\l&#45;sizeof(BID\&lt; RawSize \&gt;)*NBids)\l/sizeof(Type)), RawSize, NBids \&gt;">
<polygon fill="none" stroke="black" points="1560,-74 1560,-134 1724,-134 1724,-74 1560,-74"/>
<text text-anchor="start" x="1568" y="-121" font-family="Helvetica,sans-Serif" font-size="10.00">stxxl::mng_local::block</text>
<text text-anchor="start" x="1568" y="-108" font-family="Helvetica,sans-Serif" font-size="10.00">_w_bids&lt; Type,((RawSize</text>
<text text-anchor="start" x="1568" y="-95" font-family="Helvetica,sans-Serif" font-size="10.00">&#45;sizeof(BID&lt; RawSize &gt;)*NBids)</text>
<text text-anchor="middle" x="1642" y="-82" font-family="Helvetica,sans-Serif" font-size="10.00">/sizeof(Type)), RawSize, NBids &gt;</text>
</a>
</g>
<!-- Node2&#45;&gt;Node1 -->
<g id="edge2" class="edge"><title>Node2&#45;&gt;Node1</title>
<path fill="none" stroke="midnightblue" d="M1734.33,-104C1743.67,-104 1753,-104 1761.96,-104"/>
<polygon fill="midnightblue" stroke="midnightblue" points="1734.22,-100.5 1724.22,-104 1734.22,-107.5 1734.22,-100.5"/>
</g>
<!-- Node3 -->
<g id="node4" class="node"><title>Node3</title>
<a xlink:href="classstxxl_1_1mng__local_1_1element__block.html" target="_top" xlink:title="Contains data elements for stxxl::typed_block , not intended for direct use. ">
<polygon fill="none" stroke="black" points="1070,-146 1070,-180 1198,-180 1198,-146 1070,-146"/>
<text text-anchor="start" x="1078" y="-167" font-family="Helvetica,sans-Serif" font-size="10.00">stxxl::mng_local::element</text>
<text text-anchor="middle" x="1134" y="-154" font-family="Helvetica,sans-Serif" font-size="10.00">_block&lt; Type, Size &gt;</text>
</a>
</g>
<!-- Node3&#45;&gt;Node2 -->
<g id="edge4" class="edge"><title>Node3&#45;&gt;Node2</title>
<path fill="none" stroke="midnightblue" d="M1208.2,-172.186C1291.03,-180.092 1428.37,-186.14 1542,-157 1560.75,-152.192 1579.87,-143.238 1596.31,-134.04"/>
<polygon fill="midnightblue" stroke="midnightblue" points="1208.42,-168.691 1198.12,-171.19 1207.73,-175.657 1208.42,-168.691"/>
</g>
<!-- Node12 -->
<g id="node24" class="node"><title>Node12</title>
<a xlink:href="classstxxl_1_1mng__local_1_1block__w__bids.html" target="_top" xlink:title="Contains BID references for stxxl::typed_block , not intended for direct use. ">
<polygon fill="none" stroke="black" points="1250,-95.5 1250,-142.5 1408,-142.5 1408,-95.5 1250,-95.5"/>
<text text-anchor="start" x="1258" y="-129.5" font-family="Helvetica,sans-Serif" font-size="10.00">stxxl::mng_local::block</text>
<text text-anchor="start" x="1258" y="-116.5" font-family="Helvetica,sans-Serif" font-size="10.00">_w_bids&lt; Type, Size, RawSize,</text>
<text text-anchor="middle" x="1329" y="-103.5" font-family="Helvetica,sans-Serif" font-size="10.00"> NBids &gt;</text>
</a>
</g>
<!-- Node3&#45;&gt;Node12 -->
<g id="edge28" class="edge"><title>Node3&#45;&gt;Node12</title>
<path fill="none" stroke="midnightblue" d="M1207.96,-146.311C1221.66,-143.22 1236.02,-139.981 1249.86,-136.856"/>
<polygon fill="midnightblue" stroke="midnightblue" points="1207.1,-142.916 1198.12,-148.532 1208.65,-149.745 1207.1,-142.916"/>
</g>
<!-- Node4 -->
<g id="node6" class="node"><title>Node4</title>
<a xlink:href="structstxxl_1_1BID.html" target="_top" xlink:title="stxxl::BID\&lt; raw_size \&gt;">
<polygon fill="none" stroke="black" points="1075,-69.5 1075,-90.5 1193,-90.5 1193,-69.5 1075,-69.5"/>
<text text-anchor="middle" x="1134" y="-77.5" font-family="Helvetica,sans-Serif" font-size="10.00">stxxl::BID&lt; raw_size &gt;</text>
</a>
</g>
<!-- Node4&#45;&gt;Node2 -->
<g id="edge6" class="edge"><title>Node4&#45;&gt;Node2</title>
<path fill="none" stroke="#9a32cd" stroke-dasharray="5,2" d="M1203.69,-75.1109C1218.94,-74.2317 1235.01,-73.4519 1250,-73 1320.19,-70.8841 1337.93,-68.3788 1408,-73 1458.7,-76.3441 1515.19,-83.7217 1559.96,-90.4409"/>
<polygon fill="#9a32cd" stroke="#9a32cd" points="1203.05,-71.6424 1193.28,-75.7325 1203.47,-78.6299 1203.05,-71.6424"/>
<text text-anchor="middle" x="1329" y="-77" font-family="Helvetica,sans-Serif" font-size="10.00"> ref</text>
</g>
<!-- Node4&#45;&gt;Node12 -->
<g id="edge30" class="edge"><title>Node4&#45;&gt;Node12</title>
<path fill="none" stroke="#9a32cd" stroke-dasharray="5,2" d="M1196.35,-92.4696C1213.41,-95.8818 1232.13,-99.6257 1249.99,-103.198"/>
<polygon fill="#9a32cd" stroke="#9a32cd" points="1197.01,-89.0318 1186.51,-90.5026 1195.63,-95.8959 1197.01,-89.0318"/>
<text text-anchor="middle" x="1224" y="-103" font-family="Helvetica,sans-Serif" font-size="10.00"> ref</text>
</g>
<!-- Node5 -->
<g id="node8" class="node"><title>Node5</title>
<a xlink:href="classstxxl_1_1file.html" target="_top" xlink:title="Defines interface of file. ">
<polygon fill="none" stroke="black" points="742,-73.5 742,-94.5 798,-94.5 798,-73.5 742,-73.5"/>
<text text-anchor="middle" x="770" y="-81.5" font-family="Helvetica,sans-Serif" font-size="10.00">stxxl::file</text>
</a>
</g>
<!-- Node5&#45;&gt;Node4 -->
<g id="edge8" class="edge"><title>Node5&#45;&gt;Node4</title>
<path fill="none" stroke="#9a32cd" stroke-dasharray="5,2" d="M808.211,-84.9584C862.441,-86.1312 964.833,-87.6551 1052,-85 1059.41,-84.7742 1067.2,-84.4338 1074.9,-84.0348"/>
<polygon fill="#9a32cd" stroke="#9a32cd" points="808.103,-81.4552 798.027,-84.7299 807.945,-88.4534 808.103,-81.4552"/>
<text text-anchor="middle" x="921" y="-90" font-family="Helvetica,sans-Serif" font-size="10.00"> storage</text>
</g>
<!-- Node11 -->
<g id="node21" class="node"><title>Node11</title>
<a xlink:href="structstxxl_1_1BID.html" target="_top" xlink:title="Block identifier class. ">
<polygon fill="none" stroke="black" points="870.5,-41.5 870.5,-62.5 971.5,-62.5 971.5,-41.5 870.5,-41.5"/>
<text text-anchor="middle" x="921" y="-49.5" font-family="Helvetica,sans-Serif" font-size="10.00">stxxl::BID&lt; SIZE &gt;</text>
</a>
</g>
<!-- Node5&#45;&gt;Node11 -->
<g id="edge24" class="edge"><title>Node5&#45;&gt;Node11</title>
<path fill="none" stroke="#9a32cd" stroke-dasharray="5,2" d="M807.949,-73.8874C810.669,-73.2282 813.373,-72.5921 816,-72 833.65,-68.0215 853.087,-64.1725 870.388,-60.9313"/>
<polygon fill="#9a32cd" stroke="#9a32cd" points="806.999,-70.5173 798.147,-76.3388 808.697,-77.3082 806.999,-70.5173"/>
<text text-anchor="middle" x="834" y="-76" font-family="Helvetica,sans-Serif" font-size="10.00"> storage</text>
</g>
<!-- Node6 -->
<g id="node10" class="node"><title>Node6</title>
<a xlink:href="classstxxl_1_1noncopyable.html" target="_top" xlink:title="stxxl::noncopyable">
<polygon fill="none" stroke="black" points="11,-78.5 11,-99.5 109,-99.5 109,-78.5 11,-78.5"/>
<text text-anchor="middle" x="60" y="-86.5" font-family="Helvetica,sans-Serif" font-size="10.00">stxxl::noncopyable</text>
</a>
</g>
<!-- Node6&#45;&gt;Node5 -->
<g id="edge10" class="edge"><title>Node6&#45;&gt;Node5</title>
<path fill="none" stroke="#8b1a1a" d="M119.28,-90.603C235.404,-93.3683 500.976,-97.8467 724,-88 729.766,-87.7454 735.927,-87.3176 741.806,-86.8342"/>
<polygon fill="#8b1a1a" stroke="#8b1a1a" points="119.261,-87.1016 109.179,-90.3577 119.091,-94.0995 119.261,-87.1016"/>
</g>
<!-- Node8 -->
<g id="node14" class="node"><title>Node8</title>
<a xlink:href="classstxxl_1_1mutex.html" target="_top" xlink:title="stxxl::mutex">
<polygon fill="none" stroke="black" points="274.5,-52.5 274.5,-73.5 345.5,-73.5 345.5,-52.5 274.5,-52.5"/>
<text text-anchor="middle" x="310" y="-60.5" font-family="Helvetica,sans-Serif" font-size="10.00">stxxl::mutex</text>
</a>
</g>
<!-- Node6&#45;&gt;Node8 -->
<g id="edge16" class="edge"><title>Node6&#45;&gt;Node8</title>
<path fill="none" stroke="#8b1a1a" d="M119.093,-82.8544C167.33,-77.8377 233.906,-70.9138 274.346,-66.708"/>
<polygon fill="#8b1a1a" stroke="#8b1a1a" points="118.678,-79.3785 109.094,-83.8943 119.402,-86.341 118.678,-79.3785"/>
</g>
<!-- Node7 -->
<g id="node12" class="node"><title>Node7</title>
<a xlink:href="classstxxl_1_1atomic__counted__object.html" target="_top" xlink:title="Provides reference counting abilities for use with counting_ptr with mutex locking. ">
<polygon fill="none" stroke="black" points="526.5,-40 526.5,-74 639.5,-74 639.5,-40 526.5,-40"/>
<text text-anchor="start" x="534.5" y="-61" font-family="Helvetica,sans-Serif" font-size="10.00">stxxl::atomic_counted</text>
<text text-anchor="middle" x="583" y="-48" font-family="Helvetica,sans-Serif" font-size="10.00">_object</text>
</a>
</g>
<!-- Node7&#45;&gt;Node5 -->
<g id="edge12" class="edge"><title>Node7&#45;&gt;Node5</title>
<path fill="none" stroke="#9a32cd" stroke-dasharray="5,2" d="M649.928,-64.6235C673.4,-67.5406 699.913,-71.1106 724,-75 729.784,-75.934 735.953,-77.0545 741.833,-78.1828"/>
<polygon fill="#9a32cd" stroke="#9a32cd" points="650.077,-61.1156 639.725,-63.3724 649.225,-68.0635 650.077,-61.1156"/>
<text text-anchor="middle" x="691" y="-79" font-family="Helvetica,sans-Serif" font-size="10.00"> m_request_ref</text>
</g>
<!-- Node8&#45;&gt;Node7 -->
<g id="edge14" class="edge"><title>Node8&#45;&gt;Node7</title>
<path fill="none" stroke="#9a32cd" stroke-dasharray="5,2" d="M355.875,-61.9918C402.83,-60.9598 475.885,-59.3542 526.403,-58.2439"/>
<polygon fill="#9a32cd" stroke="#9a32cd" points="355.611,-58.4966 345.69,-62.2156 355.765,-65.4949 355.611,-58.4966"/>
<text text-anchor="middle" x="448" y="-65" font-family="Helvetica,sans-Serif" font-size="10.00"> m_reference_count_mutex</text>
</g>
<!-- Node9 -->
<g id="node17" class="node"><title>Node9</title>
<a xlink:href="structstxxl_1_1choose__int__types.html" target="_top" xlink:title="stxxl::choose_int_types\l\&lt; my_pointer_size \&gt;">
<polygon fill="none" stroke="black" points="250,-0 250,-34 370,-34 370,-0 250,-0"/>
<text text-anchor="start" x="258" y="-21" font-family="Helvetica,sans-Serif" font-size="10.00">stxxl::choose_int_types</text>
<text text-anchor="middle" x="310" y="-8" font-family="Helvetica,sans-Serif" font-size="10.00">&lt; my_pointer_size &gt;</text>
</a>
</g>
<!-- Node9&#45;&gt;Node7 -->
<g id="edge18" class="edge"><title>Node9&#45;&gt;Node7</title>
<path fill="none" stroke="#9a32cd" stroke-dasharray="5,2" d="M380.835,-24.0304C418.686,-28.1786 466.011,-33.9908 508,-41 513.909,-41.9865 520.059,-43.1205 526.181,-44.3198"/>
<polygon fill="#9a32cd" stroke="#9a32cd" points="380.741,-20.4999 370.423,-22.9048 379.989,-27.4593 380.741,-20.4999"/>
<text text-anchor="middle" x="448" y="-45" font-family="Helvetica,sans-Serif" font-size="10.00"> m_reference_count</text>
</g>
<!-- Node10 -->
<g id="node19" class="node"><title>Node10</title>
<a xlink:href="structstxxl_1_1choose__int__types.html" target="_top" xlink:title="stxxl::choose_int_types\l\&lt; PtrSize \&gt;">
<polygon fill="none" stroke="black" points="0,-0 0,-34 120,-34 120,-0 0,-0"/>
<text text-anchor="start" x="8" y="-21" font-family="Helvetica,sans-Serif" font-size="10.00">stxxl::choose_int_types</text>
<text text-anchor="middle" x="60" y="-8" font-family="Helvetica,sans-Serif" font-size="10.00">&lt; PtrSize &gt;</text>
</a>
</g>
<!-- Node10&#45;&gt;Node9 -->
<g id="edge20" class="edge"><title>Node10&#45;&gt;Node9</title>
<path fill="none" stroke="orange" stroke-dasharray="5,2" d="M130.578,-17C168.196,-17 213.985,-17 249.89,-17"/>
<polygon fill="orange" stroke="orange" points="130.199,-13.5001 120.199,-17 130.199,-20.5001 130.199,-13.5001"/>
<text text-anchor="middle" x="185" y="-21" font-family="Helvetica,sans-Serif" font-size="10.00"> &lt; my_pointer_size &gt;</text>
</g>
<!-- Node11&#45;&gt;Node4 -->
<g id="edge22" class="edge"><title>Node11&#45;&gt;Node4</title>
<path fill="none" stroke="orange" stroke-dasharray="5,2" d="M981.834,-59.9969C1011.07,-63.8399 1045.97,-68.4273 1074.96,-72.2391"/>
<polygon fill="orange" stroke="orange" points="982.119,-56.5044 971.748,-58.6711 981.207,-63.4447 982.119,-56.5044"/>
<text text-anchor="middle" x="1021" y="-72" font-family="Helvetica,sans-Serif" font-size="10.00"> &lt; raw_size &gt;</text>
</g>
<!-- Node12&#45;&gt;Node2 -->
<g id="edge26" class="edge"><title>Node12&#45;&gt;Node2</title>
<path fill="none" stroke="orange" stroke-dasharray="5,2" d="M1418.22,-105.645C1420.84,-105.406 1423.44,-105.19 1426,-105 1470.13,-101.729 1519.47,-101.261 1559.84,-101.707"/>
<polygon fill="orange" stroke="orange" points="1417.64,-102.185 1408.04,-106.669 1418.34,-109.15 1417.64,-102.185"/>
<text text-anchor="start" x="1426.5" y="-148" font-family="Helvetica,sans-Serif" font-size="10.00"> &lt; Type,((RawSize&#45;sizeof</text>
<text text-anchor="start" x="1426.5" y="-135" font-family="Helvetica,sans-Serif" font-size="10.00">(BID&lt; RawSize &gt;)*NBids)</text>
<text text-anchor="start" x="1426.5" y="-122" font-family="Helvetica,sans-Serif" font-size="10.00">/sizeof(Type)), RawSize,</text>
<text text-anchor="middle" x="1484" y="-109" font-family="Helvetica,sans-Serif" font-size="10.00"> NBids &gt;</text>
</g>
</g>
</svg>
