<?xml version="1.0" encoding="UTF-8" standalone="no"?>
<!DOCTYPE svg PUBLIC "-//W3C//DTD SVG 1.1//EN"
 "http://www.w3.org/Graphics/SVG/1.1/DTD/svg11.dtd">
<!-- Generated by graphviz version 2.26.3 (20100126.1600)
 -->
<!-- Title: stxxl::array_of_sequences_iterator&lt; array_type, value_type, modulo &gt; Pages: 1 -->
<svg width="166pt" height="240pt"
 viewBox="0.00 0.00 166.00 240.00" xmlns="http://www.w3.org/2000/svg" xmlns:xlink="http://www.w3.org/1999/xlink">
<g id="graph1" class="graph" transform="scale(1 1) rotate(0) translate(4 236)">
<title>stxxl::array_of_sequences_iterator&lt; array_type, value_type, modulo &gt;</title>
<!-- Node1 -->
<g id="node1" class="node"><title>Node1</title>
<polygon fill="#bfbfbf" stroke="black" points="-0.5,-0.5 -0.5,-47.5 130.5,-47.5 130.5,-0.5 -0.5,-0.5"/>
<text text-anchor="start" x="7.5" y="-34.5" font-family="Helvetica,sans-Serif" font-size="10.00">stxxl::array_of_sequences</text>
<text text-anchor="start" x="7.5" y="-21.5" font-family="Helvetica,sans-Serif" font-size="10.00">_iterator&lt; array_type,</text>
<text text-anchor="middle" x="65" y="-8.5" font-family="Helvetica,sans-Serif" font-size="10.00"> value_type, modulo &gt;</text>
</g>
<!-- Node2 -->
<g id="node2" class="node"><title>Node2</title>
<a xlink:href="structstxxl_1_1choose__int__types.html" target="_top" xlink:title="stxxl::choose_int_types\l\&lt; my_pointer_size \&gt;">
<polygon fill="none" stroke="black" points="5,-111 5,-145 125,-145 125,-111 5,-111"/>
<text text-anchor="start" x="13" y="-132" font-family="Helvetica,sans-Serif" font-size="10.00">stxxl::choose_int_types</text>
<text text-anchor="middle" x="65" y="-119" font-family="Helvetica,sans-Serif" font-size="10.00">&lt; my_pointer_size &gt;</text>
</a>
</g>
<!-- Node2&#45;&gt;Node1 -->
<g id="edge2" class="edge"><title>Node2&#45;&gt;Node1</title>
<path fill="none" stroke="#9a32cd" stroke-dasharray="5,2" d="M65,-100.745C65,-84.315 65,-63.5865 65,-47.8149"/>
<polygon fill="#9a32cd" stroke="#9a32cd" points="61.5001,-100.826 65,-110.827 68.5001,-100.827 61.5001,-100.826"/>
<text text-anchor="middle" x="79" y="-83" font-family="Helvetica,sans-Serif" font-size="10.00"> offset</text>
<text text-anchor="middle" x="79" y="-70" font-family="Helvetica,sans-Serif" font-size="10.00">pos</text>
</g>
<!-- Node3 -->
<g id="node4" class="node"><title>Node3</title>
<a xlink:href="structstxxl_1_1choose__int__types.html" target="_top" xlink:title="stxxl::choose_int_types\l\&lt; PtrSize \&gt;">
<polygon fill="none" stroke="black" points="5,-197 5,-231 125,-231 125,-197 5,-197"/>
<text text-anchor="start" x="13" y="-218" font-family="Helvetica,sans-Serif" font-size="10.00">stxxl::choose_int_types</text>
<text text-anchor="middle" x="65" y="-205" font-family="Helvetica,sans-Serif" font-size="10.00">&lt; PtrSize &gt;</text>
</a>
</g>
<!-- Node3&#45;&gt;Node2 -->
<g id="edge4" class="edge"><title>Node3&#45;&gt;Node2</title>
<path fill="none" stroke="orange" stroke-dasharray="5,2" d="M65,-186.342C65,-172.774 65,-156.861 65,-145.084"/>
<polygon fill="orange" stroke="orange" points="61.5001,-186.597 65,-196.597 68.5001,-186.597 61.5001,-186.597"/>
<text text-anchor="middle" x="111.5" y="-168.5" font-family="Helvetica,sans-Serif" font-size="10.00"> &lt; my_pointer_size &gt;</text>
</g>
</g>
</svg>
