<?xml version="1.0" encoding="UTF-8" standalone="no"?>
<!DOCTYPE svg PUBLIC "-//W3C//DTD SVG 1.1//EN"
 "http://www.w3.org/Graphics/SVG/1.1/DTD/svg11.dtd">
<!-- Generated by graphviz version 2.26.3 (20100126.1600)
 -->
<!-- Title: stxxl::queue&lt; ValueType, BlockSize, AllocStr, SizeType &gt; Pages: 1 -->
<svg width="3286pt" height="687pt"
 viewBox="0.00 0.00 3286.00 687.31" xmlns="http://www.w3.org/2000/svg" xmlns:xlink="http://www.w3.org/1999/xlink">
<g id="graph1" class="graph" transform="scale(1 1) rotate(0) translate(4 683.314)">
<title>stxxl::queue&lt; ValueType, BlockSize, AllocStr, SizeType &gt;</title>
<!-- Node1 -->
<g id="node1" class="node"><title>Node1</title>
<polygon fill="#bfbfbf" stroke="black" points="3150,-270.5 3150,-317.5 3278,-317.5 3278,-270.5 3150,-270.5"/>
<text text-anchor="start" x="3158" y="-304.5" font-family="Helvetica,sans-Serif" font-size="10.00">stxxl::queue&lt; ValueType,</text>
<text text-anchor="start" x="3158" y="-291.5" font-family="Helvetica,sans-Serif" font-size="10.00"> BlockSize, AllocStr,</text>
<text text-anchor="middle" x="3214" y="-278.5" font-family="Helvetica,sans-Serif" font-size="10.00"> SizeType &gt;</text>
</g>
<!-- Node2 -->
<g id="node2" class="node"><title>Node2</title>
<a xlink:href="classstxxl_1_1noncopyable.html" target="_top" xlink:title="stxxl::noncopyable">
<polygon fill="none" stroke="black" points="28,-496.5 28,-517.5 126,-517.5 126,-496.5 28,-496.5"/>
<text text-anchor="middle" x="77" y="-504.5" font-family="Helvetica,sans-Serif" font-size="10.00">stxxl::noncopyable</text>
</a>
</g>
<!-- Node2&#45;&gt;Node1 -->
<g id="edge2" class="edge"><title>Node2&#45;&gt;Node1</title>
<path fill="none" stroke="#8b1a1a" d="M136.544,-505.123C299.706,-500.148 767.744,-487 1157,-487 1157,-487 1157,-487 2999,-487 3099.32,-487 3174.12,-369.202 3202.04,-317.666"/>
<polygon fill="#8b1a1a" stroke="#8b1a1a" points="136.13,-501.634 126.241,-505.439 136.344,-508.631 136.13,-501.634"/>
</g>
<!-- Node3 -->
<g id="node4" class="node"><title>Node3</title>
<a xlink:href="classstxxl_1_1read__write__pool.html" target="_top" xlink:title="Implements dynamically resizable buffered writing and prefetched reading pool. ">
<polygon fill="none" stroke="black" points="816,-301 816,-335 928,-335 928,-301 816,-301"/>
<text text-anchor="start" x="824" y="-322" font-family="Helvetica,sans-Serif" font-size="10.00">stxxl::read_write_pool</text>
<text text-anchor="middle" x="872" y="-309" font-family="Helvetica,sans-Serif" font-size="10.00">&lt; BlockType &gt;</text>
</a>
</g>
<!-- Node2&#45;&gt;Node3 -->
<g id="edge6" class="edge"><title>Node2&#45;&gt;Node3</title>
<path fill="none" stroke="#8b1a1a" d="M120.384,-493.453C136.516,-488.617 155.023,-483.305 172,-479 351.721,-433.424 399.324,-433.629 580,-392 677.269,-369.589 701.37,-363.023 798,-338 803.797,-336.499 809.843,-334.907 815.871,-333.304"/>
<polygon fill="#8b1a1a" stroke="#8b1a1a" points="119.239,-490.143 110.682,-496.39 121.267,-496.843 119.239,-490.143"/>
</g>
<!-- Node4 -->
<g id="node7" class="node"><title>Node4</title>
<a xlink:href="classstxxl_1_1prefetch__pool.html" target="_top" xlink:title="Implements dynamically resizable prefetching pool. ">
<polygon fill="none" stroke="black" points="605,-268 605,-302 707,-302 707,-268 605,-268"/>
<text text-anchor="start" x="613" y="-289" font-family="Helvetica,sans-Serif" font-size="10.00">stxxl::prefetch_pool</text>
<text text-anchor="middle" x="656" y="-276" font-family="Helvetica,sans-Serif" font-size="10.00">&lt; BlockType &gt;</text>
</a>
</g>
<!-- Node2&#45;&gt;Node4 -->
<g id="edge10" class="edge"><title>Node2&#45;&gt;Node4</title>
<path fill="none" stroke="#8b1a1a" d="M83.0256,-486.4C94.3089,-451.785 122.107,-382.46 172,-349 189.863,-337.021 483.735,-303.797 604.651,-290.553"/>
<polygon fill="#8b1a1a" stroke="#8b1a1a" points="79.5651,-485.741 79.9355,-496.33 86.2489,-487.822 79.5651,-485.741"/>
</g>
<!-- Node9 -->
<g id="node18" class="node"><title>Node9</title>
<a xlink:href="classstxxl_1_1write__pool.html" target="_top" xlink:title="Implements dynamically resizable buffered writing pool. ">
<polygon fill="none" stroke="black" points="473,-321 473,-355 567,-355 567,-321 473,-321"/>
<text text-anchor="start" x="481" y="-342" font-family="Helvetica,sans-Serif" font-size="10.00">stxxl::write_pool&lt;</text>
<text text-anchor="middle" x="520" y="-329" font-family="Helvetica,sans-Serif" font-size="10.00"> BlockType &gt;</text>
</a>
</g>
<!-- Node2&#45;&gt;Node9 -->
<g id="edge22" class="edge"><title>Node2&#45;&gt;Node9</title>
<path fill="none" stroke="#8b1a1a" d="M87.311,-487.135C102.18,-460.678 132.279,-414.592 172,-392 268.325,-337.212 402.696,-332.936 472.954,-335.11"/>
<polygon fill="#8b1a1a" stroke="#8b1a1a" points="84.0711,-485.767 82.3695,-496.225 90.2209,-489.111 84.0711,-485.767"/>
</g>
<!-- Node11 -->
<g id="node23" class="node"><title>Node11</title>
<a xlink:href="classstxxl_1_1singleton.html" target="_top" xlink:title="stxxl::singleton\&lt; block\l_manager \&gt;">
<polygon fill="none" stroke="black" points="598.5,-613 598.5,-647 713.5,-647 713.5,-613 598.5,-613"/>
<text text-anchor="start" x="606.5" y="-634" font-family="Helvetica,sans-Serif" font-size="10.00">stxxl::singleton&lt; block</text>
<text text-anchor="middle" x="656" y="-621" font-family="Helvetica,sans-Serif" font-size="10.00">_manager &gt;</text>
</a>
</g>
<!-- Node2&#45;&gt;Node11 -->
<g id="edge28" class="edge"><title>Node2&#45;&gt;Node11</title>
<path fill="none" stroke="#8b1a1a" d="M86.9303,-526.517C101.693,-553.475 132.036,-601.64 172,-627 305.918,-711.98 505.471,-673.279 601.072,-647.081"/>
<polygon fill="#8b1a1a" stroke="#8b1a1a" points="89.9898,-524.816 82.2074,-517.627 83.8079,-528.1 89.9898,-524.816"/>
</g>
<!-- Node12 -->
<g id="node26" class="node"><title>Node12</title>
<a xlink:href="classstxxl_1_1singleton.html" target="_top" xlink:title="stxxl::singleton\&lt; INSTANCE,\l destroy_on_exit \&gt;">
<polygon fill="none" stroke="black" points="296,-613 296,-647 442,-647 442,-613 296,-613"/>
<text text-anchor="start" x="304" y="-634" font-family="Helvetica,sans-Serif" font-size="10.00">stxxl::singleton&lt; INSTANCE,</text>
<text text-anchor="middle" x="369" y="-621" font-family="Helvetica,sans-Serif" font-size="10.00"> destroy_on_exit &gt;</text>
</a>
</g>
<!-- Node2&#45;&gt;Node12 -->
<g id="edge32" class="edge"><title>Node2&#45;&gt;Node12</title>
<path fill="none" stroke="#8b1a1a" d="M90.5017,-525.749C107.089,-547.236 137.33,-581.705 172,-599 210.107,-618.009 257.073,-625.908 295.588,-628.985"/>
<polygon fill="#8b1a1a" stroke="#8b1a1a" points="93.2508,-523.581 84.4475,-517.685 87.653,-527.784 93.2508,-523.581"/>
</g>
<!-- Node13 -->
<g id="node29" class="node"><title>Node13</title>
<a xlink:href="classstxxl_1_1file.html" target="_top" xlink:title="Defines interface of file. ">
<polygon fill="none" stroke="black" points="844,-442.5 844,-463.5 900,-463.5 900,-442.5 844,-442.5"/>
<text text-anchor="middle" x="872" y="-450.5" font-family="Helvetica,sans-Serif" font-size="10.00">stxxl::file</text>
</a>
</g>
<!-- Node2&#45;&gt;Node13 -->
<g id="edge36" class="edge"><title>Node2&#45;&gt;Node13</title>
<path fill="none" stroke="#8b1a1a" d="M136.388,-497.416C148.165,-495.751 160.455,-494.178 172,-493 432.359,-466.43 749.132,-456.276 843.921,-453.705"/>
<polygon fill="#8b1a1a" stroke="#8b1a1a" points="135.595,-493.994 126.202,-498.896 136.602,-500.922 135.595,-493.994"/>
</g>
<!-- Node15 -->
<g id="node34" class="node"><title>Node15</title>
<a xlink:href="classstxxl_1_1mutex.html" target="_top" xlink:title="stxxl::mutex">
<polygon fill="none" stroke="black" points="333.5,-535.5 333.5,-556.5 404.5,-556.5 404.5,-535.5 333.5,-535.5"/>
<text text-anchor="middle" x="369" y="-543.5" font-family="Helvetica,sans-Serif" font-size="10.00">stxxl::mutex</text>
</a>
</g>
<!-- Node2&#45;&gt;Node15 -->
<g id="edge42" class="edge"><title>Node2&#45;&gt;Node15</title>
<path fill="none" stroke="#8b1a1a" d="M136.464,-515.95C148.234,-517.669 160.503,-519.423 172,-521 228.358,-528.728 293.905,-536.88 333.383,-541.698"/>
<polygon fill="#8b1a1a" stroke="#8b1a1a" points="136.683,-512.445 126.28,-514.454 135.665,-519.371 136.683,-512.445"/>
</g>
<!-- Node16 -->
<g id="node38" class="node"><title>Node16</title>
<a xlink:href="classstxxl_1_1disk__allocator.html" target="_top" xlink:title="stxxl::disk_allocator">
<polygon fill="none" stroke="black" points="1000,-564.5 1000,-585.5 1104,-585.5 1104,-564.5 1000,-564.5"/>
<text text-anchor="middle" x="1052" y="-572.5" font-family="Helvetica,sans-Serif" font-size="10.00">stxxl::disk_allocator</text>
</a>
</g>
<!-- Node2&#45;&gt;Node16 -->
<g id="edge48" class="edge"><title>Node2&#45;&gt;Node16</title>
<path fill="none" stroke="#8b1a1a" d="M109.13,-521.504C162.123,-544.064 271.687,-585 369,-585 369,-585 369,-585 872,-585 915.035,-585 963.769,-582.115 999.664,-579.444"/>
<polygon fill="#8b1a1a" stroke="#8b1a1a" points="110.477,-518.273 99.9087,-517.519 107.7,-524.699 110.477,-518.273"/>
</g>
<!-- Node3&#45;&gt;Node1 -->
<g id="edge4" class="edge"><title>Node3&#45;&gt;Node1</title>
<path fill="none" stroke="#9a32cd" stroke-dasharray="5,2" d="M938.329,-304.887C972.198,-299.28 1014.14,-294 1052,-294 1052,-294 1052,-294 2999,-294 3049.58,-294 3106.85,-294 3149.56,-294"/>
<polygon fill="#9a32cd" stroke="#9a32cd" points="937.36,-301.502 928.09,-306.633 938.536,-308.402 937.36,-301.502"/>
<text text-anchor="middle" x="1982" y="-298" font-family="Helvetica,sans-Serif" font-size="10.00"> pool</text>
</g>
<!-- Node4&#45;&gt;Node3 -->
<g id="edge8" class="edge"><title>Node4&#45;&gt;Node3</title>
<path fill="none" stroke="#9a32cd" stroke-dasharray="5,2" d="M717.429,-294.385C748.395,-299.116 785.678,-304.812 815.87,-309.425"/>
<polygon fill="#9a32cd" stroke="#9a32cd" points="717.603,-290.871 707.189,-292.821 716.546,-297.791 717.603,-290.871"/>
<text text-anchor="middle" x="765" y="-310" font-family="Helvetica,sans-Serif" font-size="10.00"> p_pool</text>
</g>
<!-- Node5 -->
<g id="node10" class="node"><title>Node5</title>
<a xlink:href="structstxxl_1_1choose__int__types.html" target="_top" xlink:title="stxxl::choose_int_types\l\&lt; my_pointer_size \&gt;">
<polygon fill="none" stroke="black" points="309,-244 309,-278 429,-278 429,-244 309,-244"/>
<text text-anchor="start" x="317" y="-265" font-family="Helvetica,sans-Serif" font-size="10.00">stxxl::choose_int_types</text>
<text text-anchor="middle" x="369" y="-252" font-family="Helvetica,sans-Serif" font-size="10.00">&lt; my_pointer_size &gt;</text>
</a>
</g>
<!-- Node5&#45;&gt;Node1 -->
<g id="edge54" class="edge"><title>Node5&#45;&gt;Node1</title>
<path fill="none" stroke="#9a32cd" stroke-dasharray="5,2" d="M439.258,-252.982C497.298,-247.051 581.888,-240 656,-240 656,-240 656,-240 2999,-240 3052.5,-240 3111.28,-255.92 3153.85,-270.472"/>
<polygon fill="#9a32cd" stroke="#9a32cd" points="438.684,-249.523 429.099,-254.036 439.407,-256.485 438.684,-249.523"/>
<text text-anchor="middle" x="1775" y="-257" font-family="Helvetica,sans-Serif" font-size="10.00"> blocks2prefetch</text>
<text text-anchor="middle" x="1775" y="-244" font-family="Helvetica,sans-Serif" font-size="10.00">alloc_count</text>
</g>
<!-- Node5&#45;&gt;Node4 -->
<g id="edge12" class="edge"><title>Node5&#45;&gt;Node4</title>
<path fill="none" stroke="#9a32cd" stroke-dasharray="5,2" d="M439.153,-266.866C490.287,-271.142 558.415,-276.84 604.561,-280.698"/>
<polygon fill="#9a32cd" stroke="#9a32cd" points="439.422,-263.377 429.165,-266.031 438.838,-270.352 439.422,-263.377"/>
<text text-anchor="middle" x="520" y="-282" font-family="Helvetica,sans-Serif" font-size="10.00"> free_blocks_size</text>
</g>
<!-- Node14 -->
<g id="node32" class="node"><title>Node14</title>
<a xlink:href="classstxxl_1_1atomic__counted__object.html" target="_top" xlink:title="Provides reference counting abilities for use with counting_ptr with mutex locking. ">
<polygon fill="none" stroke="black" points="599.5,-407 599.5,-441 712.5,-441 712.5,-407 599.5,-407"/>
<text text-anchor="start" x="607.5" y="-428" font-family="Helvetica,sans-Serif" font-size="10.00">stxxl::atomic_counted</text>
<text text-anchor="middle" x="656" y="-415" font-family="Helvetica,sans-Serif" font-size="10.00">_object</text>
</a>
</g>
<!-- Node5&#45;&gt;Node14 -->
<g id="edge44" class="edge"><title>Node5&#45;&gt;Node14</title>
<path fill="none" stroke="#9a32cd" stroke-dasharray="5,2" d="M387.438,-286.081C404.233,-307.339 430.811,-337.273 460,-356 502.896,-383.52 558.253,-401.393 599.19,-411.875"/>
<polygon fill="#9a32cd" stroke="#9a32cd" points="390.169,-283.892 381.284,-278.121 384.631,-288.173 390.169,-283.892"/>
<text text-anchor="middle" x="520" y="-409" font-family="Helvetica,sans-Serif" font-size="10.00"> m_reference_count</text>
</g>
<!-- Node6 -->
<g id="node12" class="node"><title>Node6</title>
<a xlink:href="structstxxl_1_1choose__int__types.html" target="_top" xlink:title="stxxl::choose_int_types\l\&lt; PtrSize \&gt;">
<polygon fill="none" stroke="black" points="17,-244 17,-278 137,-278 137,-244 17,-244"/>
<text text-anchor="start" x="25" y="-265" font-family="Helvetica,sans-Serif" font-size="10.00">stxxl::choose_int_types</text>
<text text-anchor="middle" x="77" y="-252" font-family="Helvetica,sans-Serif" font-size="10.00">&lt; PtrSize &gt;</text>
</a>
</g>
<!-- Node6&#45;&gt;Node5 -->
<g id="edge14" class="edge"><title>Node6&#45;&gt;Node5</title>
<path fill="none" stroke="orange" stroke-dasharray="5,2" d="M147.426,-261C196.777,-261 262.035,-261 308.93,-261"/>
<polygon fill="orange" stroke="orange" points="147.149,-257.5 137.149,-261 147.149,-264.5 147.149,-257.5"/>
<text text-anchor="middle" x="225" y="-265" font-family="Helvetica,sans-Serif" font-size="10.00"> &lt; my_pointer_size &gt;</text>
</g>
<!-- Node7 -->
<g id="node14" class="node"><title>Node7</title>
<a xlink:href="structstxxl_1_1compat__hash__map.html" target="_top" xlink:title="stxxl::compat_hash\l_map\&lt; bid_type, busy\l_entry, bid_hash \&gt;">
<polygon fill="none" stroke="black" points="312.5,-178.5 312.5,-225.5 425.5,-225.5 425.5,-178.5 312.5,-178.5"/>
<text text-anchor="start" x="320.5" y="-212.5" font-family="Helvetica,sans-Serif" font-size="10.00">stxxl::compat_hash</text>
<text text-anchor="start" x="320.5" y="-199.5" font-family="Helvetica,sans-Serif" font-size="10.00">_map&lt; bid_type, busy</text>
<text text-anchor="middle" x="369" y="-186.5" font-family="Helvetica,sans-Serif" font-size="10.00">_entry, bid_hash &gt;</text>
</a>
</g>
<!-- Node7&#45;&gt;Node4 -->
<g id="edge16" class="edge"><title>Node7&#45;&gt;Node4</title>
<path fill="none" stroke="#9a32cd" stroke-dasharray="5,2" d="M435.632,-214.052C477.617,-222.482 532.646,-235.075 580,-251 593.975,-255.7 608.878,-262.052 621.752,-267.994"/>
<polygon fill="#9a32cd" stroke="#9a32cd" points="436.285,-210.614 425.796,-212.105 434.926,-217.48 436.285,-210.614"/>
<text text-anchor="middle" x="520" y="-255" font-family="Helvetica,sans-Serif" font-size="10.00"> busy_blocks</text>
</g>
<!-- Node8 -->
<g id="node16" class="node"><title>Node8</title>
<a xlink:href="structstxxl_1_1compat__hash__map.html" target="_top" xlink:title="stxxl::compat_hash\l_map\&lt; KeyType, MappedType,\l HashType \&gt;">
<polygon fill="none" stroke="black" points="0,-178.5 0,-225.5 154,-225.5 154,-178.5 0,-178.5"/>
<text text-anchor="start" x="8" y="-212.5" font-family="Helvetica,sans-Serif" font-size="10.00">stxxl::compat_hash</text>
<text text-anchor="start" x="8" y="-199.5" font-family="Helvetica,sans-Serif" font-size="10.00">_map&lt; KeyType, MappedType,</text>
<text text-anchor="middle" x="77" y="-186.5" font-family="Helvetica,sans-Serif" font-size="10.00"> HashType &gt;</text>
</a>
</g>
<!-- Node8&#45;&gt;Node7 -->
<g id="edge18" class="edge"><title>Node8&#45;&gt;Node7</title>
<path fill="none" stroke="orange" stroke-dasharray="5,2" d="M164.171,-202C212.128,-202 270.254,-202 312.317,-202"/>
<polygon fill="orange" stroke="orange" points="164.102,-198.5 154.102,-202 164.101,-205.5 164.102,-198.5"/>
<text text-anchor="start" x="172" y="-219" font-family="Helvetica,sans-Serif" font-size="10.00"> &lt; bid_type, busy_entry,</text>
<text text-anchor="middle" x="225" y="-206" font-family="Helvetica,sans-Serif" font-size="10.00"> bid_hash &gt;</text>
</g>
<!-- Node9&#45;&gt;Node3 -->
<g id="edge20" class="edge"><title>Node9&#45;&gt;Node3</title>
<path fill="none" stroke="#9a32cd" stroke-dasharray="5,2" d="M577.349,-335.133C633.568,-332.269 721.697,-327.636 798,-323 803.784,-322.649 809.821,-322.266 815.843,-321.875"/>
<polygon fill="#9a32cd" stroke="#9a32cd" points="577.042,-331.644 567.232,-335.647 577.397,-338.635 577.042,-331.644"/>
<text text-anchor="middle" x="656" y="-338" font-family="Helvetica,sans-Serif" font-size="10.00"> w_pool</text>
</g>
<!-- Node10 -->
<g id="node21" class="node"><title>Node10</title>
<a xlink:href="classstxxl_1_1block__manager.html" target="_top" xlink:title="Block manager class. ">
<polygon fill="none" stroke="black" points="1219,-550.5 1219,-571.5 1329,-571.5 1329,-550.5 1219,-550.5"/>
<text text-anchor="middle" x="1274" y="-558.5" font-family="Helvetica,sans-Serif" font-size="10.00">stxxl::block_manager</text>
</a>
</g>
<!-- Node10&#45;&gt;Node1 -->
<g id="edge24" class="edge"><title>Node10&#45;&gt;Node1</title>
<path fill="none" stroke="#9a32cd" stroke-dasharray="5,2" d="M1339.69,-551.395C1377.43,-546.68 1425.78,-542 1469,-542 1469,-542 1469,-542 2999,-542 3060.86,-542 3086.59,-542.997 3132,-501 3186.21,-450.873 3205.17,-360.317 3211.31,-317.563"/>
<polygon fill="#9a32cd" stroke="#9a32cd" points="1338.81,-547.979 1329.34,-552.722 1339.7,-554.922 1338.81,-547.979"/>
<text text-anchor="middle" x="2272" y="-546" font-family="Helvetica,sans-Serif" font-size="10.00"> bm</text>
</g>
<!-- Node11&#45;&gt;Node10 -->
<g id="edge26" class="edge"><title>Node11&#45;&gt;Node10</title>
<path fill="none" stroke="midnightblue" d="M723.745,-624.976C811.501,-618.407 969.215,-606.391 1104,-595 1143.13,-591.693 1153.5,-594.758 1192,-587 1210.3,-583.312 1230.28,-577.027 1245.94,-571.56"/>
<polygon fill="midnightblue" stroke="midnightblue" points="723.367,-621.495 713.656,-625.731 723.889,-628.475 723.367,-621.495"/>
</g>
<!-- Node12&#45;&gt;Node11 -->
<g id="edge30" class="edge"><title>Node12&#45;&gt;Node11</title>
<path fill="none" stroke="orange" stroke-dasharray="5,2" d="M452.299,-630C499.153,-630 556.464,-630 598.347,-630"/>
<polygon fill="orange" stroke="orange" points="452.165,-626.5 442.165,-630 452.165,-633.5 452.165,-626.5"/>
<text text-anchor="middle" x="520" y="-634" font-family="Helvetica,sans-Serif" font-size="10.00"> &lt; block_manager &gt;</text>
</g>
<!-- Node13&#45;&gt;Node10 -->
<g id="edge34" class="edge"><title>Node13&#45;&gt;Node10</title>
<path fill="none" stroke="#9a32cd" stroke-dasharray="5,2" d="M909.953,-463.196C986.251,-483.694 1157.51,-529.705 1234.82,-550.473"/>
<polygon fill="#9a32cd" stroke="#9a32cd" points="910.834,-459.809 900.268,-460.594 909.017,-466.569 910.834,-459.809"/>
<text text-anchor="middle" x="1052" y="-518" font-family="Helvetica,sans-Serif" font-size="10.00"> disk_files</text>
</g>
<!-- Node13&#45;&gt;Node16 -->
<g id="edge50" class="edge"><title>Node13&#45;&gt;Node16</title>
<path fill="none" stroke="#9a32cd" stroke-dasharray="5,2" d="M897.678,-469.142C920.666,-484.065 954.836,-507.433 982,-531 990.786,-538.623 990.603,-543.144 1000,-550 1007.69,-555.609 1016.83,-560.497 1025.29,-564.428"/>
<polygon fill="#9a32cd" stroke="#9a32cd" points="899.462,-466.128 889.157,-463.665 895.677,-472.016 899.462,-466.128"/>
<text text-anchor="middle" x="964" y="-535" font-family="Helvetica,sans-Serif" font-size="10.00"> storage</text>
</g>
<!-- Node23 -->
<g id="node56" class="node"><title>Node23</title>
<a xlink:href="structstxxl_1_1BID.html" target="_top" xlink:title="stxxl::BID\&lt; raw_size \&gt;">
<polygon fill="none" stroke="black" points="1215,-428.5 1215,-449.5 1333,-449.5 1333,-428.5 1215,-428.5"/>
<text text-anchor="middle" x="1274" y="-436.5" font-family="Helvetica,sans-Serif" font-size="10.00">stxxl::BID&lt; raw_size &gt;</text>
</a>
</g>
<!-- Node13&#45;&gt;Node23 -->
<g id="edge70" class="edge"><title>Node13&#45;&gt;Node23</title>
<path fill="none" stroke="#9a32cd" stroke-dasharray="5,2" d="M910.467,-451.66C980.913,-449.207 1131.07,-443.978 1214.68,-441.066"/>
<polygon fill="#9a32cd" stroke="#9a32cd" points="910.14,-448.17 900.268,-452.016 910.384,-455.165 910.14,-448.17"/>
<text text-anchor="middle" x="1052" y="-452" font-family="Helvetica,sans-Serif" font-size="10.00"> storage</text>
</g>
<!-- Node24 -->
<g id="node59" class="node"><title>Node24</title>
<a xlink:href="structstxxl_1_1BID.html" target="_top" xlink:title="Block identifier class. ">
<polygon fill="none" stroke="black" points="1001.5,-388.5 1001.5,-409.5 1102.5,-409.5 1102.5,-388.5 1001.5,-388.5"/>
<text text-anchor="middle" x="1052" y="-396.5" font-family="Helvetica,sans-Serif" font-size="10.00">stxxl::BID&lt; SIZE &gt;</text>
</a>
</g>
<!-- Node13&#45;&gt;Node24 -->
<g id="edge74" class="edge"><title>Node13&#45;&gt;Node24</title>
<path fill="none" stroke="#9a32cd" stroke-dasharray="5,2" d="M900.778,-437.786C914.213,-431.207 930.608,-423.907 946,-419 963.754,-413.341 983.72,-409.059 1001.5,-405.94"/>
<polygon fill="#9a32cd" stroke="#9a32cd" points="898.942,-434.792 891.574,-442.405 902.082,-441.048 898.942,-434.792"/>
<text text-anchor="middle" x="964" y="-423" font-family="Helvetica,sans-Serif" font-size="10.00"> storage</text>
</g>
<!-- Node14&#45;&gt;Node13 -->
<g id="edge38" class="edge"><title>Node14&#45;&gt;Node13</title>
<path fill="none" stroke="#9a32cd" stroke-dasharray="5,2" d="M722.679,-432.152C746.465,-435.14 773.444,-438.619 798,-442 813.183,-444.091 830.092,-446.591 843.909,-448.679"/>
<polygon fill="#9a32cd" stroke="#9a32cd" points="723.055,-428.672 712.698,-430.904 722.186,-435.618 723.055,-428.672"/>
<text text-anchor="middle" x="765" y="-446" font-family="Helvetica,sans-Serif" font-size="10.00"> m_request_ref</text>
</g>
<!-- Node15&#45;&gt;Node14 -->
<g id="edge40" class="edge"><title>Node15&#45;&gt;Node14</title>
<path fill="none" stroke="#9a32cd" stroke-dasharray="5,2" d="M403.063,-531.52C456.313,-508.885 559.045,-465.214 615.827,-441.077"/>
<polygon fill="#9a32cd" stroke="#9a32cd" points="401.552,-528.36 393.718,-535.493 404.29,-534.802 401.552,-528.36"/>
<text text-anchor="middle" x="520" y="-510" font-family="Helvetica,sans-Serif" font-size="10.00"> m_reference_count_mutex</text>
</g>
<!-- Node15&#45;&gt;Node16 -->
<g id="edge52" class="edge"><title>Node15&#45;&gt;Node16</title>
<path fill="none" stroke="#9a32cd" stroke-dasharray="5,2" d="M414.637,-546.694C493.05,-548.018 658.396,-551.378 798,-558 867.972,-561.319 948.666,-567.045 999.983,-570.925"/>
<polygon fill="#9a32cd" stroke="#9a32cd" points="414.668,-543.194 404.612,-546.528 414.552,-550.194 414.668,-543.194"/>
<text text-anchor="middle" x="765" y="-562" font-family="Helvetica,sans-Serif" font-size="10.00"> mutex</text>
</g>
<!-- Node16&#45;&gt;Node10 -->
<g id="edge46" class="edge"><title>Node16&#45;&gt;Node10</title>
<path fill="none" stroke="#9a32cd" stroke-dasharray="5,2" d="M1114.44,-571.063C1147.25,-568.993 1187.11,-566.479 1218.79,-564.482"/>
<polygon fill="#9a32cd" stroke="#9a32cd" points="1113.81,-567.595 1104.05,-571.718 1114.25,-574.581 1113.81,-567.595"/>
<text text-anchor="middle" x="1157" y="-574" font-family="Helvetica,sans-Serif" font-size="10.00"> disk_allocators</text>
</g>
<!-- Node17 -->
<g id="node44" class="node"><title>Node17</title>
<a xlink:href="classstxxl_1_1typed__block.html" target="_top" xlink:title="Block containing elements of fixed length. ">
<polygon fill="none" stroke="black" points="2936.5,-159.5 2936.5,-206.5 3061.5,-206.5 3061.5,-159.5 2936.5,-159.5"/>
<text text-anchor="start" x="2944.5" y="-193.5" font-family="Helvetica,sans-Serif" font-size="10.00">stxxl::typed_block</text>
<text text-anchor="start" x="2944.5" y="-180.5" font-family="Helvetica,sans-Serif" font-size="10.00">&lt; RawSize, Type, NRef,</text>
<text text-anchor="middle" x="2999" y="-167.5" font-family="Helvetica,sans-Serif" font-size="10.00"> MetaInfoType &gt;</text>
</a>
</g>
<!-- Node17&#45;&gt;Node1 -->
<g id="edge56" class="edge"><title>Node17&#45;&gt;Node1</title>
<path fill="none" stroke="#9a32cd" stroke-dasharray="5,2" d="M3071.94,-182.847C3092.3,-185.269 3113.82,-190.295 3132,-200 3162.19,-216.112 3186.35,-248.143 3200.42,-270.304"/>
<polygon fill="#9a32cd" stroke="#9a32cd" points="3072.03,-179.339 3061.73,-181.833 3071.34,-186.305 3072.03,-179.339"/>
<text text-anchor="middle" x="3106" y="-217" font-family="Helvetica,sans-Serif" font-size="10.00"> front_block</text>
<text text-anchor="middle" x="3106" y="-204" font-family="Helvetica,sans-Serif" font-size="10.00">back_block</text>
</g>
<!-- Node18 -->
<g id="node46" class="node"><title>Node18</title>
<a xlink:href="classstxxl_1_1mng__local_1_1expand__struct.html" target="_top" xlink:title="stxxl::mng_local::expand\l_struct\&lt; mng_local::block\l_w_info\&lt; Type, RawSize, NRef,\l MetaInfoType \&gt;, RawSize \&gt;">
<polygon fill="none" stroke="black" points="2738.5,-139 2738.5,-199 2897.5,-199 2897.5,-139 2738.5,-139"/>
<text text-anchor="start" x="2746.5" y="-186" font-family="Helvetica,sans-Serif" font-size="10.00">stxxl::mng_local::expand</text>
<text text-anchor="start" x="2746.5" y="-173" font-family="Helvetica,sans-Serif" font-size="10.00">_struct&lt; mng_local::block</text>
<text text-anchor="start" x="2746.5" y="-160" font-family="Helvetica,sans-Serif" font-size="10.00">_w_info&lt; Type, RawSize, NRef,</text>
<text text-anchor="middle" x="2818" y="-147" font-family="Helvetica,sans-Serif" font-size="10.00"> MetaInfoType &gt;, RawSize &gt;</text>
</a>
</g>
<!-- Node18&#45;&gt;Node17 -->
<g id="edge58" class="edge"><title>Node18&#45;&gt;Node17</title>
<path fill="none" stroke="midnightblue" d="M2907.74,-175.942C2917.45,-176.692 2927.17,-177.444 2936.45,-178.162"/>
<polygon fill="midnightblue" stroke="midnightblue" points="2907.89,-172.443 2897.65,-175.161 2907.35,-179.422 2907.89,-172.443"/>
</g>
<!-- Node19 -->
<g id="node48" class="node"><title>Node19</title>
<a xlink:href="classstxxl_1_1mng__local_1_1add__filler.html" target="_top" xlink:title="stxxl::mng_local::add\l_filler\&lt; mng_local::block\l_w_info\&lt; Type, RawSize,\l NRef, MetaInfoType \&gt;, RawSize\l&#45;sizeof(mng_local::block_w_info\l\&lt; Type, RawSize, NRef, MetaInfoType \&gt;)\&gt;">
<polygon fill="none" stroke="black" points="2382,-126 2382,-212 2588,-212 2588,-126 2382,-126"/>
<text text-anchor="start" x="2390" y="-199" font-family="Helvetica,sans-Serif" font-size="10.00">stxxl::mng_local::add</text>
<text text-anchor="start" x="2390" y="-186" font-family="Helvetica,sans-Serif" font-size="10.00">_filler&lt; mng_local::block</text>
<text text-anchor="start" x="2390" y="-173" font-family="Helvetica,sans-Serif" font-size="10.00">_w_info&lt; Type, RawSize,</text>
<text text-anchor="start" x="2390" y="-160" font-family="Helvetica,sans-Serif" font-size="10.00"> NRef, MetaInfoType &gt;, RawSize</text>
<text text-anchor="start" x="2390" y="-147" font-family="Helvetica,sans-Serif" font-size="10.00">&#45;sizeof(mng_local::block_w_info</text>
<text text-anchor="middle" x="2485" y="-134" font-family="Helvetica,sans-Serif" font-size="10.00">&lt; Type, RawSize, NRef, MetaInfoType &gt;)&gt;</text>
</a>
</g>
<!-- Node19&#45;&gt;Node18 -->
<g id="edge60" class="edge"><title>Node19&#45;&gt;Node18</title>
<path fill="none" stroke="midnightblue" d="M2598.12,-169C2644.22,-169 2696.42,-169 2738.39,-169"/>
<polygon fill="midnightblue" stroke="midnightblue" points="2598.08,-165.5 2588.08,-169 2598.08,-172.5 2598.08,-165.5"/>
</g>
<!-- Node20 -->
<g id="node50" class="node"><title>Node20</title>
<a xlink:href="classstxxl_1_1mng__local_1_1block__w__info.html" target="_top" xlink:title="stxxl::mng_local::block\l_w_info\&lt; Type, RawSize,\l NRef, MetaInfoType \&gt;">
<polygon fill="none" stroke="black" points="2207,-325.5 2207,-372.5 2337,-372.5 2337,-325.5 2207,-325.5"/>
<text text-anchor="start" x="2215" y="-359.5" font-family="Helvetica,sans-Serif" font-size="10.00">stxxl::mng_local::block</text>
<text text-anchor="start" x="2215" y="-346.5" font-family="Helvetica,sans-Serif" font-size="10.00">_w_info&lt; Type, RawSize,</text>
<text text-anchor="middle" x="2272" y="-333.5" font-family="Helvetica,sans-Serif" font-size="10.00"> NRef, MetaInfoType &gt;</text>
</a>
</g>
<!-- Node20&#45;&gt;Node19 -->
<g id="edge62" class="edge"><title>Node20&#45;&gt;Node19</title>
<path fill="none" stroke="midnightblue" d="M2307.79,-318.759C2342.31,-289.58 2394.94,-245.11 2433.88,-212.204"/>
<polygon fill="midnightblue" stroke="midnightblue" points="2305.22,-316.34 2299.85,-325.468 2309.74,-321.687 2305.22,-316.34"/>
</g>
<!-- Node21 -->
<g id="node52" class="node"><title>Node21</title>
<a xlink:href="classstxxl_1_1mng__local_1_1block__w__bids.html" target="_top" xlink:title="stxxl::mng_local::block\l_w_bids\&lt; Type,((RawSize\l&#45;sizeof(BID\&lt; RawSize \&gt;)*NBids\l&#45;sizeof(MetaInfoType))/sizeof\l(Type)), RawSize, NBids \&gt;">
<polygon fill="none" stroke="black" points="1696,-329.5 1696,-402.5 1854,-402.5 1854,-329.5 1696,-329.5"/>
<text text-anchor="start" x="1704" y="-389.5" font-family="Helvetica,sans-Serif" font-size="10.00">stxxl::mng_local::block</text>
<text text-anchor="start" x="1704" y="-376.5" font-family="Helvetica,sans-Serif" font-size="10.00">_w_bids&lt; Type,((RawSize</text>
<text text-anchor="start" x="1704" y="-363.5" font-family="Helvetica,sans-Serif" font-size="10.00">&#45;sizeof(BID&lt; RawSize &gt;)*NBids</text>
<text text-anchor="start" x="1704" y="-350.5" font-family="Helvetica,sans-Serif" font-size="10.00">&#45;sizeof(MetaInfoType))/sizeof</text>
<text text-anchor="middle" x="1775" y="-337.5" font-family="Helvetica,sans-Serif" font-size="10.00">(Type)), RawSize, NBids &gt;</text>
</a>
</g>
<!-- Node21&#45;&gt;Node20 -->
<g id="edge64" class="edge"><title>Node21&#45;&gt;Node20</title>
<path fill="none" stroke="midnightblue" d="M1864.22,-379.2C1947.17,-389.037 2073.86,-397.832 2182,-379 2190.92,-377.446 2200.17,-375.175 2209.18,-372.567"/>
<polygon fill="midnightblue" stroke="midnightblue" points="1864.42,-375.699 1854.07,-377.966 1863.57,-382.648 1864.42,-375.699"/>
</g>
<!-- Node26 -->
<g id="node66" class="node"><title>Node26</title>
<a xlink:href="classstxxl_1_1mng__local_1_1block__w__info.html" target="_top" xlink:title="Contains per block information for stxxl::typed_block , not intended for direct use. ">
<polygon fill="none" stroke="black" points="1917,-325.5 1917,-372.5 2047,-372.5 2047,-325.5 1917,-325.5"/>
<text text-anchor="start" x="1925" y="-359.5" font-family="Helvetica,sans-Serif" font-size="10.00">stxxl::mng_local::block</text>
<text text-anchor="start" x="1925" y="-346.5" font-family="Helvetica,sans-Serif" font-size="10.00">_w_info&lt; Type, RawSize,</text>
<text text-anchor="middle" x="1982" y="-333.5" font-family="Helvetica,sans-Serif" font-size="10.00"> NBids, MetaInfoType &gt;</text>
</a>
</g>
<!-- Node21&#45;&gt;Node26 -->
<g id="edge84" class="edge"><title>Node21&#45;&gt;Node26</title>
<path fill="none" stroke="midnightblue" d="M1864.41,-358.657C1881.97,-357.215 1900.09,-355.727 1916.68,-354.364"/>
<polygon fill="midnightblue" stroke="midnightblue" points="1863.82,-355.193 1854.14,-359.5 1864.4,-362.17 1863.82,-355.193"/>
</g>
<!-- Node22 -->
<g id="node54" class="node"><title>Node22</title>
<a xlink:href="classstxxl_1_1mng__local_1_1element__block.html" target="_top" xlink:title="Contains data elements for stxxl::typed_block , not intended for direct use. ">
<polygon fill="none" stroke="black" points="1210,-334 1210,-368 1338,-368 1338,-334 1210,-334"/>
<text text-anchor="start" x="1218" y="-355" font-family="Helvetica,sans-Serif" font-size="10.00">stxxl::mng_local::element</text>
<text text-anchor="middle" x="1274" y="-342" font-family="Helvetica,sans-Serif" font-size="10.00">_block&lt; Type, Size &gt;</text>
</a>
</g>
<!-- Node22&#45;&gt;Node21 -->
<g id="edge66" class="edge"><title>Node22&#45;&gt;Node21</title>
<path fill="none" stroke="midnightblue" d="M1348.26,-350.419C1403.39,-350.195 1480.4,-350.317 1548,-352 1605.82,-353.439 1620.28,-354.289 1678,-358 1683.82,-358.374 1689.83,-358.793 1695.88,-359.237"/>
<polygon fill="midnightblue" stroke="midnightblue" points="1348.22,-346.919 1338.23,-350.465 1348.25,-353.919 1348.22,-346.919"/>
</g>
<!-- Node25 -->
<g id="node62" class="node"><title>Node25</title>
<a xlink:href="classstxxl_1_1mng__local_1_1block__w__bids.html" target="_top" xlink:title="Contains BID references for stxxl::typed_block , not intended for direct use. ">
<polygon fill="none" stroke="black" points="1390,-361.5 1390,-408.5 1548,-408.5 1548,-361.5 1390,-361.5"/>
<text text-anchor="start" x="1398" y="-395.5" font-family="Helvetica,sans-Serif" font-size="10.00">stxxl::mng_local::block</text>
<text text-anchor="start" x="1398" y="-382.5" font-family="Helvetica,sans-Serif" font-size="10.00">_w_bids&lt; Type, Size, RawSize,</text>
<text text-anchor="middle" x="1469" y="-369.5" font-family="Helvetica,sans-Serif" font-size="10.00"> NBids &gt;</text>
</a>
</g>
<!-- Node22&#45;&gt;Node25 -->
<g id="edge78" class="edge"><title>Node22&#45;&gt;Node25</title>
<path fill="none" stroke="midnightblue" d="M1348.36,-363.965C1361.94,-366.333 1376.15,-368.811 1389.86,-371.202"/>
<polygon fill="midnightblue" stroke="midnightblue" points="1348.57,-360.45 1338.12,-362.18 1347.37,-367.346 1348.57,-360.45"/>
</g>
<!-- Node23&#45;&gt;Node21 -->
<g id="edge68" class="edge"><title>Node23&#45;&gt;Node21</title>
<path fill="none" stroke="#9a32cd" stroke-dasharray="5,2" d="M1343.18,-449.561C1425.21,-459.436 1565.04,-467.861 1678,-432 1697.41,-425.837 1716.46,-414.418 1732.47,-402.79"/>
<polygon fill="#9a32cd" stroke="#9a32cd" points="1343.58,-446.084 1333.23,-448.321 1342.72,-453.03 1343.58,-446.084"/>
<text text-anchor="middle" x="1469" y="-462" font-family="Helvetica,sans-Serif" font-size="10.00"> ref</text>
</g>
<!-- Node23&#45;&gt;Node25 -->
<g id="edge80" class="edge"><title>Node23&#45;&gt;Node25</title>
<path fill="none" stroke="#9a32cd" stroke-dasharray="5,2" d="M1321.78,-425.768C1342.29,-420.089 1366.8,-413.301 1389.89,-406.908"/>
<polygon fill="#9a32cd" stroke="#9a32cd" points="1320.76,-422.418 1312.06,-428.46 1322.63,-429.164 1320.76,-422.418"/>
<text text-anchor="middle" x="1364" y="-419" font-family="Helvetica,sans-Serif" font-size="10.00"> ref</text>
</g>
<!-- Node24&#45;&gt;Node23 -->
<g id="edge72" class="edge"><title>Node24&#45;&gt;Node23</title>
<path fill="none" stroke="orange" stroke-dasharray="5,2" d="M1112.7,-406.361C1137.39,-409.695 1166.15,-414.013 1192,-419 1205.81,-421.665 1220.8,-425.143 1234.13,-428.451"/>
<polygon fill="orange" stroke="orange" points="1113.12,-402.885 1102.74,-405.039 1112.2,-409.824 1113.12,-402.885"/>
<text text-anchor="middle" x="1157" y="-423" font-family="Helvetica,sans-Serif" font-size="10.00"> &lt; raw_size &gt;</text>
</g>
<!-- Node25&#45;&gt;Node21 -->
<g id="edge76" class="edge"><title>Node25&#45;&gt;Node21</title>
<path fill="none" stroke="orange" stroke-dasharray="5,2" d="M1558.3,-367.813C1560.89,-367.512 1563.46,-367.239 1566,-367 1608.81,-362.958 1656.77,-362.444 1695.94,-363.058"/>
<polygon fill="orange" stroke="orange" points="1557.72,-364.359 1548.24,-369.103 1558.61,-371.303 1557.72,-364.359"/>
<text text-anchor="start" x="1566" y="-423" font-family="Helvetica,sans-Serif" font-size="10.00"> &lt; Type,((RawSize&#45;sizeof</text>
<text text-anchor="start" x="1566" y="-410" font-family="Helvetica,sans-Serif" font-size="10.00">(BID&lt; RawSize &gt;)*NBids</text>
<text text-anchor="start" x="1566" y="-397" font-family="Helvetica,sans-Serif" font-size="10.00">&#45;sizeof(MetaInfoType))</text>
<text text-anchor="start" x="1566" y="-384" font-family="Helvetica,sans-Serif" font-size="10.00">/sizeof(Type)), RawSize,</text>
<text text-anchor="middle" x="1622" y="-371" font-family="Helvetica,sans-Serif" font-size="10.00"> NBids &gt;</text>
</g>
<!-- Node26&#45;&gt;Node20 -->
<g id="edge82" class="edge"><title>Node26&#45;&gt;Node20</title>
<path fill="none" stroke="orange" stroke-dasharray="5,2" d="M2057.08,-349C2103.49,-349 2162.46,-349 2206.89,-349"/>
<polygon fill="orange" stroke="orange" points="2057.08,-345.5 2047.08,-349 2057.08,-352.5 2057.08,-345.5"/>
<text text-anchor="start" x="2070" y="-366" font-family="Helvetica,sans-Serif" font-size="10.00"> &lt; Type, RawSize, NRef,</text>
<text text-anchor="middle" x="2126" y="-353" font-family="Helvetica,sans-Serif" font-size="10.00"> MetaInfoType &gt;</text>
</g>
<!-- Node27 -->
<g id="node69" class="node"><title>Node27</title>
<a xlink:href="classstxxl_1_1mng__local_1_1filler__struct.html" target="_top" xlink:title="stxxl::mng_local::filler\l_struct\&lt; FillSize \&gt;">
<polygon fill="none" stroke="black" points="1719,-54 1719,-88 1831,-88 1831,-54 1719,-54"/>
<text text-anchor="start" x="1727" y="-75" font-family="Helvetica,sans-Serif" font-size="10.00">stxxl::mng_local::filler</text>
<text text-anchor="middle" x="1775" y="-62" font-family="Helvetica,sans-Serif" font-size="10.00">_struct&lt; FillSize &gt;</text>
</a>
</g>
<!-- Node27&#45;&gt;Node19 -->
<g id="edge86" class="edge"><title>Node27&#45;&gt;Node19</title>
<path fill="none" stroke="#9a32cd" stroke-dasharray="5,2" d="M1836.22,-91.1059C1918.03,-116.819 2068.05,-159.942 2200,-176 2263.53,-183.732 2280.02,-177.587 2344,-176 2356.25,-175.696 2369.09,-175.244 2381.83,-174.713"/>
<polygon fill="#9a32cd" stroke="#9a32cd" points="1837.17,-87.7375 1826.58,-88.0594 1835.06,-94.4117 1837.17,-87.7375"/>
<text text-anchor="middle" x="2126" y="-178" font-family="Helvetica,sans-Serif" font-size="10.00"> filler</text>
</g>
<!-- Node29 -->
<g id="node73" class="node"><title>Node29</title>
<a xlink:href="classstxxl_1_1mng__local_1_1add__filler.html" target="_top" xlink:title="Contains per block filler for stxxl::typed_block , not intended for direct use. ">
<polygon fill="none" stroke="black" points="1912,-54 1912,-88 2052,-88 2052,-54 1912,-54"/>
<text text-anchor="start" x="1920" y="-75" font-family="Helvetica,sans-Serif" font-size="10.00">stxxl::mng_local::add</text>
<text text-anchor="middle" x="1982" y="-62" font-family="Helvetica,sans-Serif" font-size="10.00">_filler&lt; BaseType, FillSize &gt;</text>
</a>
</g>
<!-- Node27&#45;&gt;Node29 -->
<g id="edge92" class="edge"><title>Node27&#45;&gt;Node29</title>
<path fill="none" stroke="#9a32cd" stroke-dasharray="5,2" d="M1841.17,-71C1863.72,-71 1889.01,-71 1911.87,-71"/>
<polygon fill="#9a32cd" stroke="#9a32cd" points="1841.02,-67.5001 1831.02,-71 1841.02,-74.5001 1841.02,-67.5001"/>
<text text-anchor="middle" x="1883" y="-75" font-family="Helvetica,sans-Serif" font-size="10.00"> filler</text>
</g>
<!-- Node31 -->
<g id="node78" class="node"><title>Node31</title>
<a xlink:href="classstxxl_1_1mng__local_1_1add__filler.html" target="_top" xlink:title="stxxl::mng_local::add\l_filler\&lt; Type, RawSize\l&#45;sizeof(Type)\&gt;">
<polygon fill="none" stroke="black" points="2214,-0.5 2214,-47.5 2330,-47.5 2330,-0.5 2214,-0.5"/>
<text text-anchor="start" x="2222" y="-34.5" font-family="Helvetica,sans-Serif" font-size="10.00">stxxl::mng_local::add</text>
<text text-anchor="start" x="2222" y="-21.5" font-family="Helvetica,sans-Serif" font-size="10.00">_filler&lt; Type, RawSize</text>
<text text-anchor="middle" x="2272" y="-8.5" font-family="Helvetica,sans-Serif" font-size="10.00">&#45;sizeof(Type)&gt;</text>
</a>
</g>
<!-- Node27&#45;&gt;Node31 -->
<g id="edge98" class="edge"><title>Node27&#45;&gt;Node31</title>
<path fill="none" stroke="#9a32cd" stroke-dasharray="5,2" d="M1833.79,-50.9224C1857.76,-43.6191 1885.92,-36.1459 1912,-32 2017.42,-15.2417 2142.37,-17.2797 2213.89,-20.4954"/>
<polygon fill="#9a32cd" stroke="#9a32cd" points="1832.65,-47.6117 1824.14,-53.9222 1834.73,-54.2962 1832.65,-47.6117"/>
<text text-anchor="middle" x="1982" y="-36" font-family="Helvetica,sans-Serif" font-size="10.00"> filler</text>
</g>
<!-- Node28 -->
<g id="node71" class="node"><title>Node28</title>
<a xlink:href="classstxxl_1_1mng__local_1_1filler__struct.html" target="_top" xlink:title="stxxl::mng_local::filler\l_struct\&lt; Bytes \&gt;">
<polygon fill="none" stroke="black" points="1413,-54 1413,-88 1525,-88 1525,-54 1413,-54"/>
<text text-anchor="start" x="1421" y="-75" font-family="Helvetica,sans-Serif" font-size="10.00">stxxl::mng_local::filler</text>
<text text-anchor="middle" x="1469" y="-62" font-family="Helvetica,sans-Serif" font-size="10.00">_struct&lt; Bytes &gt;</text>
</a>
</g>
<!-- Node28&#45;&gt;Node27 -->
<g id="edge88" class="edge"><title>Node28&#45;&gt;Node27</title>
<path fill="none" stroke="orange" stroke-dasharray="5,2" d="M1535.44,-71C1590.27,-71 1667.22,-71 1718.97,-71"/>
<polygon fill="orange" stroke="orange" points="1535.13,-67.5001 1525.13,-71 1535.13,-74.5001 1535.13,-67.5001"/>
<text text-anchor="middle" x="1622" y="-75" font-family="Helvetica,sans-Serif" font-size="10.00"> &lt; FillSize &gt;</text>
</g>
<!-- Node29&#45;&gt;Node19 -->
<g id="edge90" class="edge"><title>Node29&#45;&gt;Node19</title>
<path fill="none" stroke="orange" stroke-dasharray="5,2" d="M2062.41,-73.3484C2152.59,-76.6253 2292.91,-83.8337 2344,-98 2367.37,-104.481 2391.44,-114.966 2412.92,-125.912"/>
<polygon fill="orange" stroke="orange" points="2062.33,-69.8436 2052.21,-72.9869 2062.08,-76.8392 2062.33,-69.8436"/>
<text text-anchor="start" x="2200.5" y="-167" font-family="Helvetica,sans-Serif" font-size="10.00"> &lt; mng_local::block</text>
<text text-anchor="start" x="2200.5" y="-154" font-family="Helvetica,sans-Serif" font-size="10.00">_w_info&lt; Type, RawSize,</text>
<text text-anchor="start" x="2200.5" y="-141" font-family="Helvetica,sans-Serif" font-size="10.00"> NRef, MetaInfoType &gt;,</text>
<text text-anchor="start" x="2200.5" y="-128" font-family="Helvetica,sans-Serif" font-size="10.00"> RawSize&#45;sizeof(mng_local</text>
<text text-anchor="start" x="2200.5" y="-115" font-family="Helvetica,sans-Serif" font-size="10.00">::block_w_info&lt; Type, RawSize,</text>
<text text-anchor="middle" x="2272" y="-102" font-family="Helvetica,sans-Serif" font-size="10.00"> NRef, MetaInfoType &gt;)&gt;</text>
</g>
<!-- Node29&#45;&gt;Node31 -->
<g id="edge100" class="edge"><title>Node29&#45;&gt;Node31</title>
<path fill="none" stroke="orange" stroke-dasharray="5,2" d="M2041.18,-51.0901C2050.73,-48.3838 2060.58,-45.8916 2070,-44 2117.85,-34.3896 2173.05,-29.324 2213.64,-26.6985"/>
<polygon fill="orange" stroke="orange" points="2039.96,-47.7982 2031.35,-53.9717 2041.93,-54.5151 2039.96,-47.7982"/>
<text text-anchor="start" x="2071.5" y="-61" font-family="Helvetica,sans-Serif" font-size="10.00"> &lt; Type, RawSize&#45;sizeof</text>
<text text-anchor="middle" x="2126" y="-48" font-family="Helvetica,sans-Serif" font-size="10.00">(Type)&gt;</text>
</g>
<!-- Node30 -->
<g id="node76" class="node"><title>Node30</title>
<a xlink:href="classstxxl_1_1mng__local_1_1expand__struct.html" target="_top" xlink:title="Helper to compute the size of the filler , not intended for direct use. ">
<polygon fill="none" stroke="black" points="2419,-49 2419,-83 2551,-83 2551,-49 2419,-49"/>
<text text-anchor="start" x="2427" y="-70" font-family="Helvetica,sans-Serif" font-size="10.00">stxxl::mng_local::expand</text>
<text text-anchor="middle" x="2485" y="-57" font-family="Helvetica,sans-Serif" font-size="10.00">_struct&lt; Type, RawSize &gt;</text>
</a>
</g>
<!-- Node30&#45;&gt;Node18 -->
<g id="edge94" class="edge"><title>Node30&#45;&gt;Node18</title>
<path fill="none" stroke="orange" stroke-dasharray="5,2" d="M2561.23,-74.9085C2608.07,-81.9209 2668.72,-93.801 2720,-113 2737.8,-119.665 2756.18,-129.319 2772.15,-138.74"/>
<polygon fill="orange" stroke="orange" points="2561.55,-71.4183 2551.15,-73.4425 2560.54,-78.3454 2561.55,-71.4183"/>
<text text-anchor="start" x="2606" y="-156" font-family="Helvetica,sans-Serif" font-size="10.00"> &lt; mng_local::block</text>
<text text-anchor="start" x="2606" y="-143" font-family="Helvetica,sans-Serif" font-size="10.00">_w_info&lt; Type, RawSize,</text>
<text text-anchor="start" x="2606" y="-130" font-family="Helvetica,sans-Serif" font-size="10.00"> NRef, MetaInfoType &gt;,</text>
<text text-anchor="middle" x="2663" y="-117" font-family="Helvetica,sans-Serif" font-size="10.00"> RawSize &gt;</text>
</g>
<!-- Node31&#45;&gt;Node30 -->
<g id="edge96" class="edge"><title>Node31&#45;&gt;Node30</title>
<path fill="none" stroke="midnightblue" d="M2340.07,-37.4218C2365.32,-42.4014 2393.9,-48.0375 2418.97,-52.9806"/>
<polygon fill="midnightblue" stroke="midnightblue" points="2340.69,-33.9775 2330.2,-35.4767 2339.34,-40.8452 2340.69,-33.9775"/>
</g>
</g>
</svg>
