<?xml version="1.0" encoding="UTF-8" standalone="no"?>
<!DOCTYPE svg PUBLIC "-//W3C//DTD SVG 1.1//EN"
 "http://www.w3.org/Graphics/SVG/1.1/DTD/svg11.dtd">
<!-- Generated by graphviz version 2.26.3 (20100126.1600)
 -->
<!-- Title: stxxl::priority_queue_local::int_merger&lt; ValueType, CompareType, MaxArity &gt; Pages: 1 -->
<svg width="1532pt" height="467pt"
 viewBox="0.00 0.00 1532.00 467.23" xmlns="http://www.w3.org/2000/svg" xmlns:xlink="http://www.w3.org/1999/xlink">
<g id="graph1" class="graph" transform="scale(1 1) rotate(0) translate(4 463.23)">
<title>stxxl::priority_queue_local::int_merger&lt; ValueType, CompareType, MaxArity &gt;</title>
<!-- Node1 -->
<g id="node1" class="node"><title>Node1</title>
<polygon fill="#bfbfbf" stroke="black" points="1372,-292.097 1372,-339.097 1524,-339.097 1524,-292.097 1372,-292.097"/>
<text text-anchor="start" x="1380" y="-326.097" font-family="Helvetica,sans-Serif" font-size="10.00">stxxl::priority_queue</text>
<text text-anchor="start" x="1380" y="-313.097" font-family="Helvetica,sans-Serif" font-size="10.00">_local::int_merger&lt; ValueType,</text>
<text text-anchor="middle" x="1448" y="-300.097" font-family="Helvetica,sans-Serif" font-size="10.00"> CompareType, MaxArity &gt;</text>
</g>
<!-- Node2 -->
<g id="node2" class="node"><title>Node2</title>
<a xlink:href="classstxxl_1_1noncopyable.html" target="_top" xlink:title="stxxl::noncopyable">
<polygon fill="none" stroke="black" points="609,-435.097 609,-456.097 707,-456.097 707,-435.097 609,-435.097"/>
<text text-anchor="middle" x="658" y="-443.097" font-family="Helvetica,sans-Serif" font-size="10.00">stxxl::noncopyable</text>
</a>
</g>
<!-- Node2&#45;&gt;Node1 -->
<g id="edge2" class="edge"><title>Node2&#45;&gt;Node1</title>
<path fill="none" stroke="#8b1a1a" d="M717.056,-453.603C731.713,-455.261 747.404,-456.758 762,-457.597 790.398,-459.23 797.596,-459.114 826,-457.597 900.987,-453.591 919.957,-452.12 994,-439.597 1132.77,-416.128 1290.34,-368.103 1378.58,-339.192"/>
<polygon fill="#8b1a1a" stroke="#8b1a1a" points="717.44,-450.124 707.1,-452.436 716.624,-457.077 717.44,-450.124"/>
</g>
<!-- Node5 -->
<g id="node8" class="node"><title>Node5</title>
<a xlink:href="classstxxl_1_1priority__queue__local_1_1loser__tree.html" target="_top" xlink:title="stxxl::priority_queue\l_local::loser_tree\&lt; self\l_type, CompareType, MaxArity \&gt;">
<polygon fill="none" stroke="black" points="1154,-292.097 1154,-339.097 1316,-339.097 1316,-292.097 1154,-292.097"/>
<text text-anchor="start" x="1162" y="-326.097" font-family="Helvetica,sans-Serif" font-size="10.00">stxxl::priority_queue</text>
<text text-anchor="start" x="1162" y="-313.097" font-family="Helvetica,sans-Serif" font-size="10.00">_local::loser_tree&lt; self</text>
<text text-anchor="middle" x="1235" y="-300.097" font-family="Helvetica,sans-Serif" font-size="10.00">_type, CompareType, MaxArity &gt;</text>
</a>
</g>
<!-- Node2&#45;&gt;Node5 -->
<g id="edge10" class="edge"><title>Node2&#45;&gt;Node5</title>
<path fill="none" stroke="#8b1a1a" d="M717.278,-436.33C809.093,-426.225 990.302,-407.317 1136,-358.597 1151.19,-353.518 1166.87,-346.312 1181.15,-339.179"/>
<polygon fill="#8b1a1a" stroke="#8b1a1a" points="716.622,-432.881 707.067,-437.46 717.392,-439.839 716.622,-432.881"/>
</g>
<!-- Node2&#45;&gt;Node5 -->
<g id="edge12" class="edge"><title>Node2&#45;&gt;Node5</title>
<path fill="none" stroke="#8b1a1a" d="M717.278,-447.786C809.093,-444.225 990.302,-425.317 1136,-376.597 1162.33,-367.793 1190.13,-352.599 1209.55,-339.333"/>
<polygon fill="#8b1a1a" stroke="#8b1a1a" points="716.944,-444.295 707.067,-448.13 717.18,-451.291 716.944,-444.295"/>
</g>
<!-- Node10 -->
<g id="node23" class="node"><title>Node10</title>
<a xlink:href="classstxxl_1_1priority__queue__local_1_1loser__tree.html" target="_top" xlink:title="Loser tree from Knuth, &quot;Sorting and Searching&quot;, Section 5.4.1. ">
<polygon fill="none" stroke="black" points="844.5,-292.097 844.5,-339.097 993.5,-339.097 993.5,-292.097 844.5,-292.097"/>
<text text-anchor="start" x="852.5" y="-326.097" font-family="Helvetica,sans-Serif" font-size="10.00">stxxl::priority_queue</text>
<text text-anchor="start" x="852.5" y="-313.097" font-family="Helvetica,sans-Serif" font-size="10.00">_local::loser_tree&lt; ValueType,</text>
<text text-anchor="middle" x="919" y="-300.097" font-family="Helvetica,sans-Serif" font-size="10.00"> CompareType, MaxArity &gt;</text>
</a>
</g>
<!-- Node2&#45;&gt;Node10 -->
<g id="edge30" class="edge"><title>Node2&#45;&gt;Node10</title>
<path fill="none" stroke="#8b1a1a" d="M676.736,-429.532C694.178,-419.06 720.887,-406.052 744,-394.597 781.478,-376.023 823.341,-354.983 856.723,-339.132"/>
<polygon fill="#8b1a1a" stroke="#8b1a1a" points="674.623,-426.729 668.081,-435.063 678.392,-432.627 674.623,-426.729"/>
</g>
<!-- Node2&#45;&gt;Node10 -->
<g id="edge32" class="edge"><title>Node2&#45;&gt;Node10</title>
<path fill="none" stroke="#8b1a1a" d="M706.227,-430.87C718.556,-425.143 731.78,-418.653 744,-412.597 793.514,-388.058 850.681,-359.215 885.834,-339.117"/>
<polygon fill="#8b1a1a" stroke="#8b1a1a" points="704.648,-427.743 697.005,-435.081 707.556,-434.111 704.648,-427.743"/>
</g>
<!-- Node3 -->
<g id="node4" class="node"><title>Node3</title>
<a xlink:href="structstxxl_1_1choose__int__types.html" target="_top" xlink:title="stxxl::choose_int_types\l\&lt; my_pointer_size \&gt;">
<polygon fill="none" stroke="black" points="268,-91.5972 268,-125.597 388,-125.597 388,-91.5972 268,-91.5972"/>
<text text-anchor="start" x="276" y="-112.597" font-family="Helvetica,sans-Serif" font-size="10.00">stxxl::choose_int_types</text>
<text text-anchor="middle" x="328" y="-99.5972" font-family="Helvetica,sans-Serif" font-size="10.00">&lt; my_pointer_size &gt;</text>
</a>
</g>
<!-- Node3&#45;&gt;Node1 -->
<g id="edge4" class="edge"><title>Node3&#45;&gt;Node1</title>
<path fill="none" stroke="#9a32cd" stroke-dasharray="5,2" d="M398.112,-100.87C464.847,-94.1892 568.14,-85.5972 658,-85.5972 658,-85.5972 658,-85.5972 1235,-85.5972 1346.57,-85.5972 1416.04,-233.085 1439.29,-291.849"/>
<polygon fill="#9a32cd" stroke="#9a32cd" points="397.725,-97.3915 388.13,-101.883 398.432,-104.356 397.725,-97.3915"/>
<text text-anchor="middle" x="919" y="-102.597" font-family="Helvetica,sans-Serif" font-size="10.00"> segment_size</text>
<text text-anchor="middle" x="919" y="-89.5972" font-family="Helvetica,sans-Serif" font-size="10.00">mem_cons_</text>
</g>
<!-- Node3&#45;&gt;Node5 -->
<g id="edge22" class="edge"><title>Node3&#45;&gt;Node5</title>
<path fill="none" stroke="#9a32cd" stroke-dasharray="5,2" d="M374.396,-87.5161C462.179,-50.2149 658.771,20.9995 826,-6.59716 903.795,-19.4351 927.508,-21.2212 994,-63.5972 1094.57,-127.691 1183.07,-242.369 1218.52,-291.825"/>
<polygon fill="#9a32cd" stroke="#9a32cd" points="372.794,-84.3952 364.99,-91.5611 375.559,-90.8258 372.794,-84.3952"/>
<text text-anchor="middle" x="794" y="-62.5972" font-family="Helvetica,sans-Serif" font-size="10.00"> segment_size</text>
<text text-anchor="middle" x="794" y="-49.5972" font-family="Helvetica,sans-Serif" font-size="10.00">mem_cons_</text>
<text text-anchor="middle" x="794" y="-36.5972" font-family="Helvetica,sans-Serif" font-size="10.00">k</text>
<text text-anchor="middle" x="794" y="-23.5972" font-family="Helvetica,sans-Serif" font-size="10.00">size_</text>
<text text-anchor="middle" x="794" y="-10.5972" font-family="Helvetica,sans-Serif" font-size="10.00">logK</text>
</g>
<!-- Node8 -->
<g id="node16" class="node"><title>Node8</title>
<a xlink:href="structstxxl_1_1priority__queue__local_1_1loser__tree_1_1Entry.html" target="_top" xlink:title="type of nodes in the loser tree ">
<polygon fill="none" stroke="black" points="576,-215.097 576,-262.097 740,-262.097 740,-215.097 576,-215.097"/>
<text text-anchor="start" x="584" y="-249.097" font-family="Helvetica,sans-Serif" font-size="10.00">stxxl::priority_queue</text>
<text text-anchor="start" x="584" y="-236.097" font-family="Helvetica,sans-Serif" font-size="10.00">_local::loser_tree&lt; ValueType,</text>
<text text-anchor="middle" x="658" y="-223.097" font-family="Helvetica,sans-Serif" font-size="10.00"> CompareType, MaxArity &gt;::Entry</text>
</a>
</g>
<!-- Node3&#45;&gt;Node8 -->
<g id="edge20" class="edge"><title>Node3&#45;&gt;Node8</title>
<path fill="none" stroke="#9a32cd" stroke-dasharray="5,2" d="M381.038,-129.491C440.369,-152.864 536.258,-190.638 598.207,-215.042"/>
<polygon fill="#9a32cd" stroke="#9a32cd" points="382.068,-126.135 371.481,-125.726 379.502,-132.648 382.068,-126.135"/>
<text text-anchor="middle" x="489" y="-199.597" font-family="Helvetica,sans-Serif" font-size="10.00"> index</text>
</g>
<!-- Node3&#45;&gt;Node10 -->
<g id="edge38" class="edge"><title>Node3&#45;&gt;Node10</title>
<path fill="none" stroke="#9a32cd" stroke-dasharray="5,2" d="M398.384,-106.805C501.351,-105.38 687.006,-107.698 744,-140.597 761.029,-150.427 828.583,-274.393 844,-286.597 846.408,-288.503 848.956,-290.296 851.602,-291.981"/>
<polygon fill="#9a32cd" stroke="#9a32cd" points="398.325,-103.306 388.38,-106.959 398.433,-110.305 398.325,-103.306"/>
<text text-anchor="middle" x="658" y="-196.597" font-family="Helvetica,sans-Serif" font-size="10.00"> segment_size</text>
<text text-anchor="middle" x="658" y="-183.597" font-family="Helvetica,sans-Serif" font-size="10.00">mem_cons_</text>
<text text-anchor="middle" x="658" y="-170.597" font-family="Helvetica,sans-Serif" font-size="10.00">k</text>
<text text-anchor="middle" x="658" y="-157.597" font-family="Helvetica,sans-Serif" font-size="10.00">size_</text>
<text text-anchor="middle" x="658" y="-144.597" font-family="Helvetica,sans-Serif" font-size="10.00">logK</text>
</g>
<!-- Node4 -->
<g id="node6" class="node"><title>Node4</title>
<a xlink:href="structstxxl_1_1choose__int__types.html" target="_top" xlink:title="stxxl::choose_int_types\l\&lt; PtrSize \&gt;">
<polygon fill="none" stroke="black" points="0,-91.5972 0,-125.597 120,-125.597 120,-91.5972 0,-91.5972"/>
<text text-anchor="start" x="8" y="-112.597" font-family="Helvetica,sans-Serif" font-size="10.00">stxxl::choose_int_types</text>
<text text-anchor="middle" x="60" y="-99.5972" font-family="Helvetica,sans-Serif" font-size="10.00">&lt; PtrSize &gt;</text>
</a>
</g>
<!-- Node4&#45;&gt;Node3 -->
<g id="edge6" class="edge"><title>Node4&#45;&gt;Node3</title>
<path fill="none" stroke="orange" stroke-dasharray="5,2" d="M130.18,-108.597C172.863,-108.597 226.818,-108.597 267.593,-108.597"/>
<polygon fill="orange" stroke="orange" points="130.144,-105.097 120.144,-108.597 130.144,-112.097 130.144,-105.097"/>
<text text-anchor="middle" x="185" y="-112.597" font-family="Helvetica,sans-Serif" font-size="10.00"> &lt; my_pointer_size &gt;</text>
</g>
<!-- Node5&#45;&gt;Node1 -->
<g id="edge8" class="edge"><title>Node5&#45;&gt;Node1</title>
<path fill="none" stroke="#9a32cd" stroke-dasharray="5,2" d="M1326.55,-315.597C1341.71,-315.597 1357.28,-315.597 1372,-315.597"/>
<polygon fill="#9a32cd" stroke="#9a32cd" points="1326.13,-312.097 1316.13,-315.597 1326.13,-319.097 1326.13,-312.097"/>
<text text-anchor="middle" x="1344" y="-319.597" font-family="Helvetica,sans-Serif" font-size="10.00"> tree</text>
</g>
<!-- Node6 -->
<g id="node12" class="node"><title>Node6</title>
<a xlink:href="classstxxl_1_1priority__queue__local_1_1internal__bounded__stack.html" target="_top" xlink:title="stxxl::priority_queue\l_local::internal_bounded\l_stack\&lt; unsigned_type, arity \&gt;">
<polygon fill="none" stroke="black" points="582,-347.097 582,-394.097 734,-394.097 734,-347.097 582,-347.097"/>
<text text-anchor="start" x="590" y="-381.097" font-family="Helvetica,sans-Serif" font-size="10.00">stxxl::priority_queue</text>
<text text-anchor="start" x="590" y="-368.097" font-family="Helvetica,sans-Serif" font-size="10.00">_local::internal_bounded</text>
<text text-anchor="middle" x="658" y="-355.097" font-family="Helvetica,sans-Serif" font-size="10.00">_stack&lt; unsigned_type, arity &gt;</text>
</a>
</g>
<!-- Node6&#45;&gt;Node5 -->
<g id="edge14" class="edge"><title>Node6&#45;&gt;Node5</title>
<path fill="none" stroke="#9a32cd" stroke-dasharray="5,2" d="M744.657,-372.324C840.965,-372.796 1000.75,-369.266 1136,-345.597 1145.46,-343.941 1155.3,-341.667 1164.93,-339.105"/>
<polygon fill="#9a32cd" stroke="#9a32cd" points="744.409,-368.822 734.387,-372.257 744.364,-375.822 744.409,-368.822"/>
<text text-anchor="middle" x="919" y="-374.597" font-family="Helvetica,sans-Serif" font-size="10.00"> free_slots</text>
</g>
<!-- Node6&#45;&gt;Node10 -->
<g id="edge34" class="edge"><title>Node6&#45;&gt;Node10</title>
<path fill="none" stroke="#9a32cd" stroke-dasharray="5,2" d="M744.244,-345.783C750.235,-344.295 756.197,-342.883 762,-341.597 788.704,-335.681 818.234,-330.452 844.41,-326.264"/>
<polygon fill="#9a32cd" stroke="#9a32cd" points="742.985,-342.491 734.156,-348.348 744.71,-349.275 742.985,-342.491"/>
<text text-anchor="middle" x="794" y="-345.597" font-family="Helvetica,sans-Serif" font-size="10.00"> free_slots</text>
</g>
<!-- Node7 -->
<g id="node14" class="node"><title>Node7</title>
<a xlink:href="classstxxl_1_1priority__queue__local_1_1internal__bounded__stack.html" target="_top" xlink:title="Similar to std::stack, with the following differences: ">
<polygon fill="none" stroke="black" points="250.5,-306.097 250.5,-353.097 405.5,-353.097 405.5,-306.097 250.5,-306.097"/>
<text text-anchor="start" x="258.5" y="-340.097" font-family="Helvetica,sans-Serif" font-size="10.00">stxxl::priority_queue</text>
<text text-anchor="start" x="258.5" y="-327.097" font-family="Helvetica,sans-Serif" font-size="10.00">_local::internal_bounded</text>
<text text-anchor="middle" x="328" y="-314.097" font-family="Helvetica,sans-Serif" font-size="10.00">_stack&lt; ValueType, MaxSize &gt;</text>
</a>
</g>
<!-- Node7&#45;&gt;Node6 -->
<g id="edge16" class="edge"><title>Node7&#45;&gt;Node6</title>
<path fill="none" stroke="orange" stroke-dasharray="5,2" d="M415.946,-340.524C467.648,-346.947 532.367,-354.988 581.873,-361.139"/>
<polygon fill="orange" stroke="orange" points="416.143,-337.021 405.788,-339.262 415.28,-343.968 416.143,-337.021"/>
<text text-anchor="middle" x="489" y="-360.597" font-family="Helvetica,sans-Serif" font-size="10.00"> &lt; unsigned_type, arity &gt;</text>
</g>
<!-- Node9 -->
<g id="node20" class="node"><title>Node9</title>
<a xlink:href="classstxxl_1_1priority__queue__local_1_1internal__bounded__stack.html" target="_top" xlink:title="stxxl::priority_queue\l_local::internal_bounded\l_stack\&lt; unsigned_type, MaxArity \&gt;">
<polygon fill="none" stroke="black" points="572,-281.097 572,-328.097 744,-328.097 744,-281.097 572,-281.097"/>
<text text-anchor="start" x="580" y="-315.097" font-family="Helvetica,sans-Serif" font-size="10.00">stxxl::priority_queue</text>
<text text-anchor="start" x="580" y="-302.097" font-family="Helvetica,sans-Serif" font-size="10.00">_local::internal_bounded</text>
<text text-anchor="middle" x="658" y="-289.097" font-family="Helvetica,sans-Serif" font-size="10.00">_stack&lt; unsigned_type, MaxArity &gt;</text>
</a>
</g>
<!-- Node7&#45;&gt;Node9 -->
<g id="edge26" class="edge"><title>Node7&#45;&gt;Node9</title>
<path fill="none" stroke="orange" stroke-dasharray="5,2" d="M415.903,-322.938C464.154,-319.282 523.751,-314.768 571.74,-311.132"/>
<polygon fill="orange" stroke="orange" points="415.495,-319.459 405.788,-323.704 416.023,-326.439 415.495,-319.459"/>
<text text-anchor="middle" x="489" y="-325.597" font-family="Helvetica,sans-Serif" font-size="10.00"> &lt; unsigned_type, MaxArity &gt;</text>
</g>
<!-- Node8&#45;&gt;Node5 -->
<g id="edge18" class="edge"><title>Node8&#45;&gt;Node5</title>
<path fill="none" stroke="#9a32cd" stroke-dasharray="5,2" d="M750.575,-231.311C848.559,-226.502 1006.61,-227.096 1136,-266.597 1156.18,-272.757 1177.29,-282.67 1194.81,-291.974"/>
<polygon fill="#9a32cd" stroke="#9a32cd" points="750.206,-227.825 740.401,-231.84 750.57,-234.816 750.206,-227.825"/>
<text text-anchor="middle" x="919" y="-241.597" font-family="Helvetica,sans-Serif" font-size="10.00"> entry</text>
</g>
<!-- Node8&#45;&gt;Node10 -->
<g id="edge36" class="edge"><title>Node8&#45;&gt;Node10</title>
<path fill="none" stroke="#9a32cd" stroke-dasharray="5,2" d="M749.886,-264.42C774.632,-271.492 801.368,-279.239 826,-286.597 831.996,-288.388 838.201,-290.267 844.43,-292.172"/>
<polygon fill="#9a32cd" stroke="#9a32cd" points="750.722,-261.019 740.146,-261.642 748.802,-267.751 750.722,-261.019"/>
<text text-anchor="middle" x="794" y="-290.597" font-family="Helvetica,sans-Serif" font-size="10.00"> entry</text>
</g>
<!-- Node9&#45;&gt;Node5 -->
<g id="edge24" class="edge"><title>Node9&#45;&gt;Node5</title>
<path fill="none" stroke="#9a32cd" stroke-dasharray="5,2" d="M754.151,-282.979C782.895,-277.473 814.588,-272.34 844,-269.597 910.379,-263.406 927.63,-263.32 994,-269.597 1047.75,-274.681 1107.35,-286.007 1153.84,-296.148"/>
<polygon fill="#9a32cd" stroke="#9a32cd" points="753.259,-279.587 744.115,-284.939 754.601,-286.457 753.259,-279.587"/>
<text text-anchor="middle" x="919" y="-273.597" font-family="Helvetica,sans-Serif" font-size="10.00"> free_slots</text>
</g>
<!-- Node9&#45;&gt;Node10 -->
<g id="edge40" class="edge"><title>Node9&#45;&gt;Node10</title>
<path fill="none" stroke="#9a32cd" stroke-dasharray="5,2" d="M754.647,-303.501C778.02,-303.698 802.916,-304.291 826,-305.597 831.999,-305.937 838.206,-306.387 844.437,-306.909"/>
<polygon fill="#9a32cd" stroke="#9a32cd" points="754.403,-300 744.382,-303.439 754.36,-306.999 754.403,-300"/>
<text text-anchor="middle" x="794" y="-309.597" font-family="Helvetica,sans-Serif" font-size="10.00"> free_slots</text>
</g>
<!-- Node10&#45;&gt;Node5 -->
<g id="edge28" class="edge"><title>Node10&#45;&gt;Node5</title>
<path fill="none" stroke="orange" stroke-dasharray="5,2" d="M1003.94,-315.597C1050.46,-315.597 1107.8,-315.597 1153.73,-315.597"/>
<polygon fill="orange" stroke="orange" points="1003.89,-312.097 993.888,-315.597 1003.89,-319.097 1003.89,-312.097"/>
<text text-anchor="start" x="1012.5" y="-332.597" font-family="Helvetica,sans-Serif" font-size="10.00"> &lt; self_type, CompareType,</text>
<text text-anchor="middle" x="1074" y="-319.597" font-family="Helvetica,sans-Serif" font-size="10.00"> MaxArity &gt;</text>
</g>
</g>
</svg>
