<?xml version="1.0" encoding="UTF-8" standalone="no"?>
<!DOCTYPE svg PUBLIC "-//W3C//DTD SVG 1.1//EN"
 "http://www.w3.org/Graphics/SVG/1.1/DTD/svg11.dtd">
<!-- Generated by graphviz version 2.26.3 (20100126.1600)
 -->
<!-- Title: stxxl::parallel::LoserTreePointerUnguardedBase&lt; ValueType, Comparator &gt; Pages: 1 -->
<svg width="508pt" height="122pt"
 viewBox="0.00 0.00 508.00 122.00" xmlns="http://www.w3.org/2000/svg" xmlns:xlink="http://www.w3.org/1999/xlink">
<g id="graph1" class="graph" transform="scale(1 1) rotate(0) translate(4 118)">
<title>stxxl::parallel::LoserTreePointerUnguardedBase&lt; ValueType, Comparator &gt;</title>
<!-- Node1 -->
<g id="node1" class="node"><title>Node1</title>
<polygon fill="#bfbfbf" stroke="black" points="134,-33.5 134,-80.5 310,-80.5 310,-33.5 134,-33.5"/>
<text text-anchor="start" x="142" y="-67.5" font-family="Helvetica,sans-Serif" font-size="10.00">stxxl::parallel::LoserTree</text>
<text text-anchor="start" x="142" y="-54.5" font-family="Helvetica,sans-Serif" font-size="10.00">PointerUnguardedBase&lt; ValueType,</text>
<text text-anchor="middle" x="222" y="-41.5" font-family="Helvetica,sans-Serif" font-size="10.00"> Comparator &gt;</text>
</g>
<!-- Node3 -->
<g id="node5" class="node"><title>Node3</title>
<a xlink:href="classstxxl_1_1parallel_1_1LoserTreePointerUnguarded.html" target="_top" xlink:title="stxxl::parallel::LoserTree\lPointerUnguarded\&lt; ValueType,\l Comparator \&gt;">
<polygon fill="none" stroke="black" points="346.5,-66.5 346.5,-113.5 499.5,-113.5 499.5,-66.5 346.5,-66.5"/>
<text text-anchor="start" x="354.5" y="-100.5" font-family="Helvetica,sans-Serif" font-size="10.00">stxxl::parallel::LoserTree</text>
<text text-anchor="start" x="354.5" y="-87.5" font-family="Helvetica,sans-Serif" font-size="10.00">PointerUnguarded&lt; ValueType,</text>
<text text-anchor="middle" x="423" y="-74.5" font-family="Helvetica,sans-Serif" font-size="10.00"> Comparator &gt;</text>
</a>
</g>
<!-- Node1&#45;&gt;Node3 -->
<g id="edge4" class="edge"><title>Node1&#45;&gt;Node3</title>
<path fill="none" stroke="midnightblue" d="M320.065,-73.1002C328.859,-74.544 337.677,-75.9918 346.251,-77.3994"/>
<polygon fill="midnightblue" stroke="midnightblue" points="320.596,-69.6407 310.162,-71.4743 319.462,-76.5482 320.596,-69.6407"/>
</g>
<!-- Node4 -->
<g id="node7" class="node"><title>Node4</title>
<a xlink:href="classstxxl_1_1parallel_1_1LoserTreePointerUnguarded_3_01true_00_01ValueType_00_01Comparator_01_4.html" target="_top" xlink:title="stxxl::parallel::LoserTree\lPointerUnguarded\&lt; true,\l ValueType, Comparator \&gt;">
<polygon fill="none" stroke="black" points="357,-0.5 357,-47.5 489,-47.5 489,-0.5 357,-0.5"/>
<text text-anchor="start" x="365" y="-34.5" font-family="Helvetica,sans-Serif" font-size="10.00">stxxl::parallel::LoserTree</text>
<text text-anchor="start" x="365" y="-21.5" font-family="Helvetica,sans-Serif" font-size="10.00">PointerUnguarded&lt; true,</text>
<text text-anchor="middle" x="423" y="-8.5" font-family="Helvetica,sans-Serif" font-size="10.00"> ValueType, Comparator &gt;</text>
</a>
</g>
<!-- Node1&#45;&gt;Node4 -->
<g id="edge6" class="edge"><title>Node1&#45;&gt;Node4</title>
<path fill="none" stroke="midnightblue" d="M320.147,-40.8863C332.629,-38.837 345.16,-36.7797 356.969,-34.841"/>
<polygon fill="midnightblue" stroke="midnightblue" points="319.462,-37.4518 310.162,-42.5257 320.596,-44.3593 319.462,-37.4518"/>
</g>
<!-- Node2 -->
<g id="node2" class="node"><title>Node2</title>
<a xlink:href="classstxxl_1_1noncopyable.html" target="_top" xlink:title="stxxl::noncopyable">
<polygon fill="none" stroke="black" points="0,-46.5 0,-67.5 98,-67.5 98,-46.5 0,-46.5"/>
<text text-anchor="middle" x="49" y="-54.5" font-family="Helvetica,sans-Serif" font-size="10.00">stxxl::noncopyable</text>
</a>
</g>
<!-- Node2&#45;&gt;Node1 -->
<g id="edge2" class="edge"><title>Node2&#45;&gt;Node1</title>
<path fill="none" stroke="#8b1a1a" d="M108.324,-57C116.561,-57 125.164,-57 133.79,-57"/>
<polygon fill="#8b1a1a" stroke="#8b1a1a" points="108.112,-53.5001 98.1121,-57 108.112,-60.5001 108.112,-53.5001"/>
</g>
</g>
</svg>
