<?xml version="1.0" encoding="UTF-8" standalone="no"?>
<!DOCTYPE svg PUBLIC "-//W3C//DTD SVG 1.1//EN"
 "http://www.w3.org/Graphics/SVG/1.1/DTD/svg11.dtd">
<!-- Generated by graphviz version 2.26.3 (20100126.1600)
 -->
<!-- Title: stxxl::matrix_iterator&lt; ValueType, BlockSideLength &gt; Pages: 1 -->
<svg width="328pt" height="122pt"
 viewBox="0.00 0.00 328.00 122.00" xmlns="http://www.w3.org/2000/svg" xmlns:xlink="http://www.w3.org/1999/xlink">
<g id="graph1" class="graph" transform="scale(1 1) rotate(0) translate(4 118)">
<title>stxxl::matrix_iterator&lt; ValueType, BlockSideLength &gt;</title>
<!-- Node1 -->
<g id="node1" class="node"><title>Node1</title>
<polygon fill="#bfbfbf" stroke="black" points="0.5,-40 0.5,-74 161.5,-74 161.5,-40 0.5,-40"/>
<text text-anchor="start" x="8.5" y="-61" font-family="Helvetica,sans-Serif" font-size="10.00">stxxl::matrix_iterator</text>
<text text-anchor="middle" x="81" y="-48" font-family="Helvetica,sans-Serif" font-size="10.00">&lt; ValueType, BlockSideLength &gt;</text>
</g>
<!-- Node2 -->
<g id="node3" class="node"><title>Node2</title>
<a xlink:href="classstxxl_1_1matrix__col__major__iterator.html" target="_top" xlink:title="column&#45;major iterator that points to single elements inside a matrix ">
<polygon fill="none" stroke="black" points="200,-66.5 200,-113.5 318,-113.5 318,-66.5 200,-66.5"/>
<text text-anchor="start" x="208" y="-100.5" font-family="Helvetica,sans-Serif" font-size="10.00">stxxl::matrix_col_major</text>
<text text-anchor="start" x="208" y="-87.5" font-family="Helvetica,sans-Serif" font-size="10.00">_iterator&lt; ValueType,</text>
<text text-anchor="middle" x="259" y="-74.5" font-family="Helvetica,sans-Serif" font-size="10.00"> BlockSideLength &gt;</text>
</a>
</g>
<!-- Node1&#45;&gt;Node2 -->
<g id="edge2" class="edge"><title>Node1&#45;&gt;Node2</title>
<path fill="none" stroke="midnightblue" d="M171.656,-73.8069C181.249,-75.5856 190.818,-77.3594 199.914,-79.0459"/>
<polygon fill="midnightblue" stroke="midnightblue" points="172.138,-70.3367 161.667,-71.9551 170.862,-77.2194 172.138,-70.3367"/>
</g>
<!-- Node3 -->
<g id="node5" class="node"><title>Node3</title>
<a xlink:href="classstxxl_1_1matrix__row__major__iterator.html" target="_top" xlink:title="row&#45;major iterator that points to single elements inside a matrix ">
<polygon fill="none" stroke="black" points="198.5,-0.5 198.5,-47.5 319.5,-47.5 319.5,-0.5 198.5,-0.5"/>
<text text-anchor="start" x="206.5" y="-34.5" font-family="Helvetica,sans-Serif" font-size="10.00">stxxl::matrix_row_major</text>
<text text-anchor="start" x="206.5" y="-21.5" font-family="Helvetica,sans-Serif" font-size="10.00">_iterator&lt; ValueType,</text>
<text text-anchor="middle" x="259" y="-8.5" font-family="Helvetica,sans-Serif" font-size="10.00"> BlockSideLength &gt;</text>
</a>
</g>
<!-- Node1&#45;&gt;Node3 -->
<g id="edge4" class="edge"><title>Node1&#45;&gt;Node3</title>
<path fill="none" stroke="midnightblue" d="M171.517,-40.2188C180.603,-38.5342 189.668,-36.8536 198.334,-35.2471"/>
<polygon fill="midnightblue" stroke="midnightblue" points="170.862,-36.7805 161.667,-42.0449 172.138,-43.6633 170.862,-36.7805"/>
</g>
</g>
</svg>
