<?xml version="1.0" encoding="UTF-8" standalone="no"?>
<!DOCTYPE svg PUBLIC "-//W3C//DTD SVG 1.1//EN"
 "http://www.w3.org/Graphics/SVG/1.1/DTD/svg11.dtd">
<!-- Generated by graphviz version 2.38.0 (20140413.2041)
 -->
<!-- Title: stxxl::block_scheduler_algorithm&lt; SwappableBlockType &gt; Pages: 1 -->
<svg width="534pt" height="230pt"
 viewBox="0.00 0.00 534.00 230.00" xmlns="http://www.w3.org/2000/svg" xmlns:xlink="http://www.w3.org/1999/xlink">
<g id="graph0" class="graph" transform="scale(1 1) rotate(0) translate(4 226)">
<title>stxxl::block_scheduler_algorithm&lt; SwappableBlockType &gt;</title>
<!-- Node1 -->
<g id="node1" class="node"><title>Node1</title>
<polygon fill="#bfbfbf" stroke="black" points="134,-96 134,-126 308,-126 308,-96 134,-96"/>
<text text-anchor="start" x="142" y="-114" font-family="Helvetica,sans-Serif" font-size="10.00">stxxl::block_scheduler</text>
<text text-anchor="middle" x="221" y="-103" font-family="Helvetica,sans-Serif" font-size="10.00">_algorithm&lt; SwappableBlockType &gt;</text>
</g>
<!-- Node3 -->
<g id="node3" class="node"><title>Node3</title>
<g id="a_node3"><a xlink:href="classstxxl_1_1block__scheduler__algorithm__offline__lfd.html" target="_top" xlink:title="Block scheduling algorithm caching via the longest forward distance policy (offline). ">
<polygon fill="none" stroke="black" points="370.5,-180.5 370.5,-221.5 499.5,-221.5 499.5,-180.5 370.5,-180.5"/>
<text text-anchor="start" x="378.5" y="-209.5" font-family="Helvetica,sans-Serif" font-size="10.00">stxxl::block_scheduler</text>
<text text-anchor="start" x="378.5" y="-198.5" font-family="Helvetica,sans-Serif" font-size="10.00">_algorithm_offline_lfd</text>
<text text-anchor="middle" x="435" y="-187.5" font-family="Helvetica,sans-Serif" font-size="10.00">&lt; SwappableBlockType &gt;</text>
</a>
</g>
</g>
<!-- Node1&#45;&gt;Node3 -->
<g id="edge2" class="edge"><title>Node1&#45;&gt;Node3</title>
<path fill="none" stroke="midnightblue" d="M259.151,-130.904C283.017,-143.281 314.891,-159.055 344,-171 352.38,-174.439 361.314,-177.785 370.176,-180.919"/>
<polygon fill="midnightblue" stroke="midnightblue" points="260.579,-127.702 250.095,-126.172 257.337,-133.906 260.579,-127.702"/>
</g>
<!-- Node4 -->
<g id="node4" class="node"><title>Node4</title>
<g id="a_node4"><a xlink:href="classstxxl_1_1block__scheduler__algorithm__offline__lru__prefetching.html" target="_top" xlink:title="Block scheduling algorithm caching via the least recently used policy (offline), and prefetching in a...">
<polygon fill="none" stroke="black" points="344,-120.5 344,-161.5 526,-161.5 526,-120.5 344,-120.5"/>
<text text-anchor="start" x="352" y="-149.5" font-family="Helvetica,sans-Serif" font-size="10.00">stxxl::block_scheduler</text>
<text text-anchor="start" x="352" y="-138.5" font-family="Helvetica,sans-Serif" font-size="10.00">_algorithm_offline_lru</text>
<text text-anchor="middle" x="435" y="-127.5" font-family="Helvetica,sans-Serif" font-size="10.00">_prefetching&lt; SwappableBlockType &gt;</text>
</a>
</g>
</g>
<!-- Node1&#45;&gt;Node4 -->
<g id="edge3" class="edge"><title>Node1&#45;&gt;Node4</title>
<path fill="none" stroke="midnightblue" d="M318.16,-124.608C326.665,-125.811 335.255,-127.027 343.709,-128.223"/>
<polygon fill="midnightblue" stroke="midnightblue" points="318.62,-121.138 308.229,-123.202 317.639,-128.069 318.62,-121.138"/>
</g>
<!-- Node5 -->
<g id="node5" class="node"><title>Node5</title>
<g id="a_node5"><a xlink:href="classstxxl_1_1block__scheduler__algorithm__online__lru.html" target="_top" xlink:title="Block scheduling algorithm caching via the least recently used policy (online). ">
<polygon fill="none" stroke="black" points="370.5,-60.5 370.5,-101.5 499.5,-101.5 499.5,-60.5 370.5,-60.5"/>
<text text-anchor="start" x="378.5" y="-89.5" font-family="Helvetica,sans-Serif" font-size="10.00">stxxl::block_scheduler</text>
<text text-anchor="start" x="378.5" y="-78.5" font-family="Helvetica,sans-Serif" font-size="10.00">_algorithm_online_lru</text>
<text text-anchor="middle" x="435" y="-67.5" font-family="Helvetica,sans-Serif" font-size="10.00">&lt; SwappableBlockType &gt;</text>
</a>
</g>
</g>
<!-- Node1&#45;&gt;Node5 -->
<g id="edge4" class="edge"><title>Node1&#45;&gt;Node5</title>
<path fill="none" stroke="midnightblue" d="M318.511,-97.3428C336.068,-94.8583 353.975,-92.3242 370.285,-90.0162"/>
<polygon fill="midnightblue" stroke="midnightblue" points="317.639,-93.9312 308.229,-98.7979 318.62,-100.862 317.639,-93.9312"/>
</g>
<!-- Node6 -->
<g id="node6" class="node"><title>Node6</title>
<g id="a_node6"><a xlink:href="classstxxl_1_1block__scheduler__algorithm__simulation.html" target="_top" xlink:title="Pseudo block scheduling algorithm only recording the request sequence. ">
<polygon fill="none" stroke="black" points="370.5,-0.5 370.5,-41.5 499.5,-41.5 499.5,-0.5 370.5,-0.5"/>
<text text-anchor="start" x="378.5" y="-29.5" font-family="Helvetica,sans-Serif" font-size="10.00">stxxl::block_scheduler</text>
<text text-anchor="start" x="378.5" y="-18.5" font-family="Helvetica,sans-Serif" font-size="10.00">_algorithm_simulation</text>
<text text-anchor="middle" x="435" y="-7.5" font-family="Helvetica,sans-Serif" font-size="10.00">&lt; SwappableBlockType &gt;</text>
</a>
</g>
</g>
<!-- Node1&#45;&gt;Node6 -->
<g id="edge5" class="edge"><title>Node1&#45;&gt;Node6</title>
<path fill="none" stroke="midnightblue" d="M259.151,-91.0956C283.017,-78.7193 314.891,-62.9453 344,-51 352.38,-47.561 361.314,-44.2149 370.176,-41.0806"/>
<polygon fill="midnightblue" stroke="midnightblue" points="257.337,-88.0944 250.095,-95.8278 260.579,-94.2984 257.337,-88.0944"/>
</g>
<!-- Node2 -->
<g id="node2" class="node"><title>Node2</title>
<g id="a_node2"><a xlink:href="classstxxl_1_1noncopyable.html" target="_top" xlink:title="stxxl::noncopyable">
<polygon fill="none" stroke="black" points="0,-101.5 0,-120.5 98,-120.5 98,-101.5 0,-101.5"/>
<text text-anchor="middle" x="49" y="-108.5" font-family="Helvetica,sans-Serif" font-size="10.00">stxxl::noncopyable</text>
</a>
</g>
</g>
<!-- Node2&#45;&gt;Node1 -->
<g id="edge1" class="edge"><title>Node2&#45;&gt;Node1</title>
<path fill="none" stroke="#8b1a1a" d="M108.478,-111C116.723,-111 125.337,-111 133.965,-111"/>
<polygon fill="#8b1a1a" stroke="#8b1a1a" points="108.26,-107.5 98.2605,-111 108.26,-114.5 108.26,-107.5"/>
</g>
</g>
</svg>
