<?xml version="1.0" encoding="UTF-8" standalone="no"?>
<!DOCTYPE svg PUBLIC "-//W3C//DTD SVG 1.1//EN"
 "http://www.w3.org/Graphics/SVG/1.1/DTD/svg11.dtd">
<!-- Generated by graphviz version 2.26.3 (20100126.1600)
 -->
<!-- Title: stxxl::block_scheduler&lt; SwappableBlockType &gt; Pages: 1 -->
<svg width="1456pt" height="334pt"
 viewBox="0.00 0.00 1456.00 334.00" xmlns="http://www.w3.org/2000/svg" xmlns:xlink="http://www.w3.org/1999/xlink">
<g id="graph1" class="graph" transform="scale(1 1) rotate(0) translate(4 330)">
<title>stxxl::block_scheduler&lt; SwappableBlockType &gt;</title>
<!-- Node1 -->
<g id="node1" class="node"><title>Node1</title>
<polygon fill="#bfbfbf" stroke="black" points="1318.5,-152 1318.5,-186 1447.5,-186 1447.5,-152 1318.5,-152"/>
<text text-anchor="start" x="1326.5" y="-173" font-family="Helvetica,sans-Serif" font-size="10.00">stxxl::block_scheduler</text>
<text text-anchor="middle" x="1383" y="-160" font-family="Helvetica,sans-Serif" font-size="10.00">&lt; SwappableBlockType &gt;</text>
</g>
<!-- Node2 -->
<g id="node2" class="node"><title>Node2</title>
<a xlink:href="classstxxl_1_1noncopyable.html" target="_top" xlink:title="stxxl::noncopyable">
<polygon fill="none" stroke="black" points="11,-204.5 11,-225.5 109,-225.5 109,-204.5 11,-204.5"/>
<text text-anchor="middle" x="60" y="-212.5" font-family="Helvetica,sans-Serif" font-size="10.00">stxxl::noncopyable</text>
</a>
</g>
<!-- Node2&#45;&gt;Node1 -->
<g id="edge2" class="edge"><title>Node2&#45;&gt;Node1</title>
<path fill="none" stroke="#8b1a1a" d="M81.2229,-231.943C96.3484,-243.371 117.546,-258.112 138,-268 215.578,-305.505 236.832,-326 323,-326 323,-326 323,-326 1209,-326 1291.8,-326 1352.91,-226.792 1374.49,-186.101"/>
<polygon fill="#8b1a1a" stroke="#8b1a1a" points="83.1276,-228.992 73.0705,-225.66 78.8542,-234.537 83.1276,-228.992"/>
</g>
<!-- Node4 -->
<g id="node6" class="node"><title>Node4</title>
<a xlink:href="classstxxl_1_1singleton.html" target="_top" xlink:title="stxxl::singleton\&lt; block\l_manager \&gt;">
<polygon fill="none" stroke="black" points="552.5,-226 552.5,-260 667.5,-260 667.5,-226 552.5,-226"/>
<text text-anchor="start" x="560.5" y="-247" font-family="Helvetica,sans-Serif" font-size="10.00">stxxl::singleton&lt; block</text>
<text text-anchor="middle" x="610" y="-234" font-family="Helvetica,sans-Serif" font-size="10.00">_manager &gt;</text>
</a>
</g>
<!-- Node2&#45;&gt;Node4 -->
<g id="edge8" class="edge"><title>Node2&#45;&gt;Node4</title>
<path fill="none" stroke="#8b1a1a" d="M96.3529,-229.072C134.082,-242.781 195.14,-262.481 250,-269 375.403,-283.902 408.996,-277.947 534,-260 540.022,-259.135 546.276,-258.049 552.493,-256.847"/>
<polygon fill="#8b1a1a" stroke="#8b1a1a" points="97.4117,-225.732 86.8184,-225.554 94.9885,-232.299 97.4117,-225.732"/>
</g>
<!-- Node5 -->
<g id="node9" class="node"><title>Node5</title>
<a xlink:href="classstxxl_1_1singleton.html" target="_top" xlink:title="stxxl::singleton\&lt; INSTANCE,\l destroy_on_exit \&gt;">
<polygon fill="none" stroke="black" points="250,-226 250,-260 396,-260 396,-226 250,-226"/>
<text text-anchor="start" x="258" y="-247" font-family="Helvetica,sans-Serif" font-size="10.00">stxxl::singleton&lt; INSTANCE,</text>
<text text-anchor="middle" x="323" y="-234" font-family="Helvetica,sans-Serif" font-size="10.00"> destroy_on_exit &gt;</text>
</a>
</g>
<!-- Node2&#45;&gt;Node5 -->
<g id="edge12" class="edge"><title>Node2&#45;&gt;Node5</title>
<path fill="none" stroke="#8b1a1a" d="M119.232,-221.306C157.943,-225.427 208.774,-230.839 249.983,-235.226"/>
<polygon fill="#8b1a1a" stroke="#8b1a1a" points="119.474,-217.812 109.16,-220.234 118.733,-224.773 119.474,-217.812"/>
</g>
<!-- Node6 -->
<g id="node12" class="node"><title>Node6</title>
<a xlink:href="classstxxl_1_1file.html" target="_top" xlink:title="Defines interface of file. ">
<polygon fill="none" stroke="black" points="770,-150.5 770,-171.5 826,-171.5 826,-150.5 770,-150.5"/>
<text text-anchor="middle" x="798" y="-158.5" font-family="Helvetica,sans-Serif" font-size="10.00">stxxl::file</text>
</a>
</g>
<!-- Node2&#45;&gt;Node6 -->
<g id="edge16" class="edge"><title>Node2&#45;&gt;Node6</title>
<path fill="none" stroke="#8b1a1a" d="M119.228,-216.283C239.514,-217.859 520.623,-216.289 752,-175 757.753,-173.973 763.799,-172.462 769.547,-170.806"/>
<polygon fill="#8b1a1a" stroke="#8b1a1a" points="119.175,-212.782 109.126,-216.138 119.074,-219.782 119.175,-212.782"/>
</g>
<!-- Node8 -->
<g id="node17" class="node"><title>Node8</title>
<a xlink:href="classstxxl_1_1mutex.html" target="_top" xlink:title="stxxl::mutex">
<polygon fill="none" stroke="black" points="287.5,-142.5 287.5,-163.5 358.5,-163.5 358.5,-142.5 287.5,-142.5"/>
<text text-anchor="middle" x="323" y="-150.5" font-family="Helvetica,sans-Serif" font-size="10.00">stxxl::mutex</text>
</a>
</g>
<!-- Node2&#45;&gt;Node8 -->
<g id="edge22" class="edge"><title>Node2&#45;&gt;Node8</title>
<path fill="none" stroke="#8b1a1a" d="M92.3204,-200.367C106.158,-194.574 122.64,-188.287 138,-184 188.972,-169.775 249.775,-161.118 287.39,-156.692"/>
<polygon fill="#8b1a1a" stroke="#8b1a1a" points="90.578,-197.306 82.7658,-204.463 93.3359,-203.74 90.578,-197.306"/>
</g>
<!-- Node11 -->
<g id="node24" class="node"><title>Node11</title>
<a xlink:href="classstxxl_1_1disk__allocator.html" target="_top" xlink:title="stxxl::disk_allocator">
<polygon fill="none" stroke="black" points="944,-104.5 944,-125.5 1048,-125.5 1048,-104.5 944,-104.5"/>
<text text-anchor="middle" x="996" y="-112.5" font-family="Helvetica,sans-Serif" font-size="10.00">stxxl::disk_allocator</text>
</a>
</g>
<!-- Node2&#45;&gt;Node11 -->
<g id="edge30" class="edge"><title>Node2&#45;&gt;Node11</title>
<path fill="none" stroke="#8b1a1a" d="M77.4652,-197.038C117.174,-158.225 218.884,-70 323,-70 323,-70 323,-70 798,-70 859.867,-70 929.963,-91.1489 967.93,-104.449"/>
<polygon fill="#8b1a1a" stroke="#8b1a1a" points="74.9871,-194.567 70.3678,-204.101 79.9249,-199.528 74.9871,-194.567"/>
</g>
<!-- Node3 -->
<g id="node4" class="node"><title>Node3</title>
<a xlink:href="classstxxl_1_1block__manager.html" target="_top" xlink:title="Block manager class. ">
<polygon fill="none" stroke="black" points="1154,-158.5 1154,-179.5 1264,-179.5 1264,-158.5 1154,-158.5"/>
<text text-anchor="middle" x="1209" y="-166.5" font-family="Helvetica,sans-Serif" font-size="10.00">stxxl::block_manager</text>
</a>
</g>
<!-- Node3&#45;&gt;Node1 -->
<g id="edge4" class="edge"><title>Node3&#45;&gt;Node1</title>
<path fill="none" stroke="#9a32cd" stroke-dasharray="5,2" d="M1274.34,-169C1288.71,-169 1303.93,-169 1318.27,-169"/>
<polygon fill="#9a32cd" stroke="#9a32cd" points="1274.05,-165.5 1264.05,-169 1274.05,-172.5 1274.05,-165.5"/>
<text text-anchor="middle" x="1291" y="-173" font-family="Helvetica,sans-Serif" font-size="10.00"> bm</text>
</g>
<!-- Node4&#45;&gt;Node3 -->
<g id="edge6" class="edge"><title>Node4&#45;&gt;Node3</title>
<path fill="none" stroke="midnightblue" d="M677.66,-235.561C777.883,-224.391 971.662,-202.218 1136,-180 1141.72,-179.227 1147.68,-178.386 1153.62,-177.525"/>
<polygon fill="midnightblue" stroke="midnightblue" points="677.221,-232.088 667.67,-236.673 677.996,-239.045 677.221,-232.088"/>
</g>
<!-- Node5&#45;&gt;Node4 -->
<g id="edge10" class="edge"><title>Node5&#45;&gt;Node4</title>
<path fill="none" stroke="orange" stroke-dasharray="5,2" d="M406.299,-243C453.153,-243 510.464,-243 552.347,-243"/>
<polygon fill="orange" stroke="orange" points="406.165,-239.5 396.165,-243 406.165,-246.5 406.165,-239.5"/>
<text text-anchor="middle" x="474" y="-247" font-family="Helvetica,sans-Serif" font-size="10.00"> &lt; block_manager &gt;</text>
</g>
<!-- Node6&#45;&gt;Node3 -->
<g id="edge14" class="edge"><title>Node6&#45;&gt;Node3</title>
<path fill="none" stroke="#9a32cd" stroke-dasharray="5,2" d="M836.404,-161.748C909.61,-163.172 1069.36,-166.282 1153.93,-167.928"/>
<polygon fill="#9a32cd" stroke="#9a32cd" points="836.316,-158.245 826.25,-161.55 836.18,-165.244 836.316,-158.245"/>
<text text-anchor="middle" x="996" y="-169" font-family="Helvetica,sans-Serif" font-size="10.00"> disk_files</text>
</g>
<!-- Node6&#45;&gt;Node11 -->
<g id="edge32" class="edge"><title>Node6&#45;&gt;Node11</title>
<path fill="none" stroke="#9a32cd" stroke-dasharray="5,2" d="M830.561,-146.542C835.024,-144.859 839.588,-143.287 844,-142 876.549,-132.508 914.045,-125.804 943.651,-121.451"/>
<polygon fill="#9a32cd" stroke="#9a32cd" points="829.041,-143.38 821.051,-150.338 831.636,-149.881 829.041,-143.38"/>
<text text-anchor="middle" x="885" y="-146" font-family="Helvetica,sans-Serif" font-size="10.00"> storage</text>
</g>
<!-- Node7 -->
<g id="node15" class="node"><title>Node7</title>
<a xlink:href="classstxxl_1_1atomic__counted__object.html" target="_top" xlink:title="Provides reference counting abilities for use with counting_ptr with mutex locking. ">
<polygon fill="none" stroke="black" points="553.5,-136 553.5,-170 666.5,-170 666.5,-136 553.5,-136"/>
<text text-anchor="start" x="561.5" y="-157" font-family="Helvetica,sans-Serif" font-size="10.00">stxxl::atomic_counted</text>
<text text-anchor="middle" x="610" y="-144" font-family="Helvetica,sans-Serif" font-size="10.00">_object</text>
</a>
</g>
<!-- Node7&#45;&gt;Node6 -->
<g id="edge18" class="edge"><title>Node7&#45;&gt;Node6</title>
<path fill="none" stroke="#9a32cd" stroke-dasharray="5,2" d="M676.841,-155.844C708.754,-157.202 745.236,-158.755 769.756,-159.798"/>
<polygon fill="#9a32cd" stroke="#9a32cd" points="676.801,-152.34 666.661,-155.411 676.503,-159.333 676.801,-152.34"/>
<text text-anchor="middle" x="719" y="-162" font-family="Helvetica,sans-Serif" font-size="10.00"> m_request_ref</text>
</g>
<!-- Node8&#45;&gt;Node7 -->
<g id="edge20" class="edge"><title>Node8&#45;&gt;Node7</title>
<path fill="none" stroke="#9a32cd" stroke-dasharray="5,2" d="M368.996,-153C419.167,-153 499.509,-153 553.484,-153"/>
<polygon fill="#9a32cd" stroke="#9a32cd" points="368.768,-149.5 358.768,-153 368.768,-156.5 368.768,-149.5"/>
<text text-anchor="middle" x="474" y="-157" font-family="Helvetica,sans-Serif" font-size="10.00"> m_reference_count_mutex</text>
</g>
<!-- Node8&#45;&gt;Node11 -->
<g id="edge34" class="edge"><title>Node8&#45;&gt;Node11</title>
<path fill="none" stroke="#9a32cd" stroke-dasharray="5,2" d="M368.596,-146.653C414.736,-140.506 488.175,-131.477 552,-127 693.537,-117.071 860.986,-115.216 943.98,-114.958"/>
<polygon fill="#9a32cd" stroke="#9a32cd" points="368.056,-143.194 358.612,-147.995 368.989,-150.131 368.056,-143.194"/>
<text text-anchor="middle" x="719" y="-124" font-family="Helvetica,sans-Serif" font-size="10.00"> mutex</text>
</g>
<!-- Node9 -->
<g id="node20" class="node"><title>Node9</title>
<a xlink:href="structstxxl_1_1choose__int__types.html" target="_top" xlink:title="stxxl::choose_int_types\l\&lt; my_pointer_size \&gt;">
<polygon fill="none" stroke="black" points="263,-0 263,-34 383,-34 383,-0 263,-0"/>
<text text-anchor="start" x="271" y="-21" font-family="Helvetica,sans-Serif" font-size="10.00">stxxl::choose_int_types</text>
<text text-anchor="middle" x="323" y="-8" font-family="Helvetica,sans-Serif" font-size="10.00">&lt; my_pointer_size &gt;</text>
</a>
</g>
<!-- Node9&#45;&gt;Node1 -->
<g id="edge36" class="edge"><title>Node9&#45;&gt;Node1</title>
<path fill="none" stroke="#9a32cd" stroke-dasharray="5,2" d="M393.348,-13.9456C451.44,-11.6862 536.057,-9 610,-9 610,-9 610,-9 1209,-9 1292.72,-9 1353.5,-110.602 1374.74,-151.877"/>
<polygon fill="#9a32cd" stroke="#9a32cd" points="393.033,-10.4552 383.179,-14.3472 393.309,-17.4497 393.033,-10.4552"/>
<text text-anchor="start" x="844" y="-26" font-family="Helvetica,sans-Serif" font-size="10.00"> remaining_internal</text>
<text text-anchor="middle" x="885" y="-13" font-family="Helvetica,sans-Serif" font-size="10.00">_blocks</text>
</g>
<!-- Node9&#45;&gt;Node7 -->
<g id="edge24" class="edge"><title>Node9&#45;&gt;Node7</title>
<path fill="none" stroke="#9a32cd" stroke-dasharray="5,2" d="M368.173,-38.4063C425.05,-65.3581 521.623,-111.121 573.864,-135.876"/>
<polygon fill="#9a32cd" stroke="#9a32cd" points="369.594,-35.2062 359.058,-34.0868 366.596,-41.5319 369.594,-35.2062"/>
<text text-anchor="middle" x="474" y="-121" font-family="Helvetica,sans-Serif" font-size="10.00"> m_reference_count</text>
</g>
<!-- Node10 -->
<g id="node22" class="node"><title>Node10</title>
<a xlink:href="structstxxl_1_1choose__int__types.html" target="_top" xlink:title="stxxl::choose_int_types\l\&lt; PtrSize \&gt;">
<polygon fill="none" stroke="black" points="0,-0 0,-34 120,-34 120,-0 0,-0"/>
<text text-anchor="start" x="8" y="-21" font-family="Helvetica,sans-Serif" font-size="10.00">stxxl::choose_int_types</text>
<text text-anchor="middle" x="60" y="-8" font-family="Helvetica,sans-Serif" font-size="10.00">&lt; PtrSize &gt;</text>
</a>
</g>
<!-- Node10&#45;&gt;Node9 -->
<g id="edge26" class="edge"><title>Node10&#45;&gt;Node9</title>
<path fill="none" stroke="orange" stroke-dasharray="5,2" d="M130.017,-17C171.397,-17 223.258,-17 262.795,-17"/>
<polygon fill="orange" stroke="orange" points="130.008,-13.5001 120.008,-17 130.008,-20.5001 130.008,-13.5001"/>
<text text-anchor="middle" x="185" y="-21" font-family="Helvetica,sans-Serif" font-size="10.00"> &lt; my_pointer_size &gt;</text>
</g>
<!-- Node11&#45;&gt;Node3 -->
<g id="edge28" class="edge"><title>Node11&#45;&gt;Node3</title>
<path fill="none" stroke="#9a32cd" stroke-dasharray="5,2" d="M1057.9,-124.687C1082.43,-129.109 1110.75,-134.947 1136,-142 1152.14,-146.508 1169.77,-152.983 1183.66,-158.463"/>
<polygon fill="#9a32cd" stroke="#9a32cd" points="1058.46,-121.23 1048,-122.941 1057.24,-128.124 1058.46,-121.23"/>
<text text-anchor="middle" x="1101" y="-146" font-family="Helvetica,sans-Serif" font-size="10.00"> disk_allocators</text>
</g>
</g>
</svg>
