<?xml version="1.0" encoding="UTF-8" standalone="no"?>
<!DOCTYPE svg PUBLIC "-//W3C//DTD SVG 1.1//EN"
 "http://www.w3.org/Graphics/SVG/1.1/DTD/svg11.dtd">
<!-- Generated by graphviz version 2.26.3 (20100126.1600)
 -->
<!-- Title: stxxl::stream::runs_creator&lt; from_sorted_sequences&lt; ValueType &gt;, CompareType, BlockSize, AllocStr &gt; Pages: 1 -->
<svg width="3510pt" height="465pt"
 viewBox="0.00 0.00 3510.00 465.00" xmlns="http://www.w3.org/2000/svg" xmlns:xlink="http://www.w3.org/1999/xlink">
<g id="graph1" class="graph" transform="scale(1 1) rotate(0) translate(4 461)">
<title>stxxl::stream::runs_creator&lt; from_sorted_sequences&lt; ValueType &gt;, CompareType, BlockSize, AllocStr &gt;</title>
<!-- Node1 -->
<g id="node1" class="node"><title>Node1</title>
<polygon fill="#bfbfbf" stroke="black" points="3356,-106.5 3356,-179.5 3502,-179.5 3502,-106.5 3356,-106.5"/>
<text text-anchor="start" x="3364" y="-166.5" font-family="Helvetica,sans-Serif" font-size="10.00">stxxl::stream::runs</text>
<text text-anchor="start" x="3364" y="-153.5" font-family="Helvetica,sans-Serif" font-size="10.00">_creator&lt; from_sorted</text>
<text text-anchor="start" x="3364" y="-140.5" font-family="Helvetica,sans-Serif" font-size="10.00">_sequences&lt; ValueType</text>
<text text-anchor="start" x="3364" y="-127.5" font-family="Helvetica,sans-Serif" font-size="10.00"> &gt;, CompareType, BlockSize,</text>
<text text-anchor="middle" x="3429" y="-114.5" font-family="Helvetica,sans-Serif" font-size="10.00"> AllocStr &gt;</text>
</g>
<!-- Node2 -->
<g id="node2" class="node"><title>Node2</title>
<a xlink:href="classstxxl_1_1noncopyable.html" target="_top" xlink:title="stxxl::noncopyable">
<polygon fill="none" stroke="black" points="11,-82.5 11,-103.5 109,-103.5 109,-82.5 11,-82.5"/>
<text text-anchor="middle" x="60" y="-90.5" font-family="Helvetica,sans-Serif" font-size="10.00">stxxl::noncopyable</text>
</a>
</g>
<!-- Node2&#45;&gt;Node1 -->
<g id="edge2" class="edge"><title>Node2&#45;&gt;Node1</title>
<path fill="none" stroke="#8b1a1a" d="M81.1328,-76.3307C96.2172,-65.1681 117.403,-50.9347 138,-42 210.191,-10.6847 231.309,-7.10543e-15 310,-0 310,-0 310,-0 3235,-0 3306.55,-0 3369.07,-63.8041 3402.7,-106.174"/>
<polygon fill="#8b1a1a" stroke="#8b1a1a" points="78.8656,-73.6573 73.007,-82.4849 83.0919,-79.2375 78.8656,-73.6573"/>
</g>
<!-- Node14 -->
<g id="node26" class="node"><title>Node14</title>
<a xlink:href="classstxxl_1_1file.html" target="_top" xlink:title="Defines interface of file. ">
<polygon fill="none" stroke="black" points="742,-101.5 742,-122.5 798,-122.5 798,-101.5 742,-101.5"/>
<text text-anchor="middle" x="770" y="-109.5" font-family="Helvetica,sans-Serif" font-size="10.00">stxxl::file</text>
</a>
</g>
<!-- Node2&#45;&gt;Node14 -->
<g id="edge28" class="edge"><title>Node2&#45;&gt;Node14</title>
<path fill="none" stroke="#8b1a1a" d="M119.175,-94.5835C264.884,-98.4828 636.788,-108.435 741.928,-111.249"/>
<polygon fill="#8b1a1a" stroke="#8b1a1a" points="119.171,-91.0823 109.081,-94.3134 118.984,-98.0798 119.171,-91.0823"/>
</g>
<!-- Node16 -->
<g id="node31" class="node"><title>Node16</title>
<a xlink:href="classstxxl_1_1mutex.html" target="_top" xlink:title="stxxl::mutex">
<polygon fill="none" stroke="black" points="274.5,-123.5 274.5,-144.5 345.5,-144.5 345.5,-123.5 274.5,-123.5"/>
<text text-anchor="middle" x="310" y="-131.5" font-family="Helvetica,sans-Serif" font-size="10.00">stxxl::mutex</text>
</a>
</g>
<!-- Node2&#45;&gt;Node16 -->
<g id="edge34" class="edge"><title>Node2&#45;&gt;Node16</title>
<path fill="none" stroke="#8b1a1a" d="M119.055,-103.74C125.446,-104.861 131.856,-105.967 138,-107 185.097,-114.922 239.577,-123.35 274.386,-128.642"/>
<polygon fill="#8b1a1a" stroke="#8b1a1a" points="119.526,-100.27 109.07,-101.976 118.308,-107.163 119.526,-100.27"/>
</g>
<!-- Node25 -->
<g id="node58" class="node"><title>Node25</title>
<a xlink:href="classstxxl_1_1buffered__writer.html" target="_top" xlink:title="stxxl::buffered_writer\l\&lt; stxxl::typed_block \&gt;">
<polygon fill="none" stroke="black" points="3178,-126 3178,-160 3292,-160 3292,-126 3178,-126"/>
<text text-anchor="start" x="3186" y="-147" font-family="Helvetica,sans-Serif" font-size="10.00">stxxl::buffered_writer</text>
<text text-anchor="middle" x="3235" y="-134" font-family="Helvetica,sans-Serif" font-size="10.00">&lt; stxxl::typed_block &gt;</text>
</a>
</g>
<!-- Node2&#45;&gt;Node25 -->
<g id="edge70" class="edge"><title>Node2&#45;&gt;Node25</title>
<path fill="none" stroke="#8b1a1a" d="M98.2771,-79.1611C146.842,-62.8685 233.499,-38 310,-38 310,-38 310,-38 2820,-38 2961.58,-38 3122.25,-96.1433 3195.2,-125.896"/>
<polygon fill="#8b1a1a" stroke="#8b1a1a" points="97.1319,-75.8537 88.7979,-82.3954 99.3924,-82.4787 97.1319,-75.8537"/>
</g>
<!-- Node26 -->
<g id="node63" class="node"><title>Node26</title>
<a xlink:href="classstxxl_1_1buffered__writer.html" target="_top" xlink:title="Encapsulates asynchronous buffered block writing engine. ">
<polygon fill="none" stroke="black" points="2891,-153 2891,-187 2999,-187 2999,-153 2891,-153"/>
<text text-anchor="start" x="2899" y="-174" font-family="Helvetica,sans-Serif" font-size="10.00">stxxl::buffered_writer</text>
<text text-anchor="middle" x="2945" y="-161" font-family="Helvetica,sans-Serif" font-size="10.00">&lt; BlockType &gt;</text>
</a>
</g>
<!-- Node2&#45;&gt;Node26 -->
<g id="edge78" class="edge"><title>Node2&#45;&gt;Node26</title>
<path fill="none" stroke="#8b1a1a" d="M67.4462,-113.336C91.7306,-175.691 174.934,-360 310,-360 310,-360 310,-360 2345,-360 2528.98,-360 2592.74,-412.852 2758,-332 2831.47,-296.053 2815.02,-242.957 2882,-196 2886.65,-192.74 2891.77,-189.788 2897.02,-187.143"/>
<polygon fill="#8b1a1a" stroke="#8b1a1a" points="70.6464,-111.904 63.8245,-103.797 64.1023,-114.389 70.6464,-111.904"/>
</g>
<!-- Node3 -->
<g id="node4" class="node"><title>Node3</title>
<a xlink:href="classstxxl_1_1counting__ptr.html" target="_top" xlink:title="stxxl::counting_ptr\l\&lt; sorted_runs_data_type \&gt;">
<polygon fill="none" stroke="black" points="3026,-15 3026,-49 3160,-49 3160,-15 3026,-15"/>
<text text-anchor="start" x="3034" y="-36" font-family="Helvetica,sans-Serif" font-size="10.00">stxxl::counting_ptr</text>
<text text-anchor="middle" x="3093" y="-23" font-family="Helvetica,sans-Serif" font-size="10.00">&lt; sorted_runs_data_type &gt;</text>
</a>
</g>
<!-- Node3&#45;&gt;Node1 -->
<g id="edge4" class="edge"><title>Node3&#45;&gt;Node1</title>
<path fill="none" stroke="#9a32cd" stroke-dasharray="5,2" d="M3157.77,-52.2784C3158.52,-52.5199 3159.26,-52.7605 3160,-53 3226.41,-74.5142 3301.75,-99.7967 3355.77,-118.078"/>
<polygon fill="#9a32cd" stroke="#9a32cd" points="3158.46,-48.826 3147.87,-49.1054 3156.33,-55.4917 3158.46,-48.826"/>
<text text-anchor="middle" x="3235" y="-100" font-family="Helvetica,sans-Serif" font-size="10.00"> result_</text>
</g>
<!-- Node4 -->
<g id="node6" class="node"><title>Node4</title>
<a xlink:href="classstxxl_1_1counting__ptr.html" target="_top" xlink:title="High&#45;performance smart pointer used as a wrapping reference counting pointer. ">
<polygon fill="none" stroke="black" points="2629.5,-105 2629.5,-139 2726.5,-139 2726.5,-105 2629.5,-105"/>
<text text-anchor="start" x="2637.5" y="-126" font-family="Helvetica,sans-Serif" font-size="10.00">stxxl::counting_ptr</text>
<text text-anchor="middle" x="2678" y="-113" font-family="Helvetica,sans-Serif" font-size="10.00">&lt; Type &gt;</text>
</a>
</g>
<!-- Node4&#45;&gt;Node3 -->
<g id="edge6" class="edge"><title>Node4&#45;&gt;Node3</title>
<path fill="none" stroke="orange" stroke-dasharray="5,2" d="M2723.36,-100.933C2739.67,-94.045 2758.39,-86.9109 2776,-82 2860.53,-58.4264 2961.03,-44.9337 3025.86,-38.0406"/>
<polygon fill="orange" stroke="orange" points="2721.86,-97.7685 2714.06,-104.941 2724.63,-104.197 2721.86,-97.7685"/>
<text text-anchor="start" x="2776" y="-99" font-family="Helvetica,sans-Serif" font-size="10.00"> &lt; sorted_runs_data</text>
<text text-anchor="middle" x="2820" y="-86" font-family="Helvetica,sans-Serif" font-size="10.00">_type &gt;</text>
</g>
<!-- Node4&#45;&gt;Node25 -->
<g id="edge72" class="edge"><title>Node4&#45;&gt;Node25</title>
<path fill="none" stroke="#9a32cd" stroke-dasharray="5,2" d="M2736.87,-123.152C2802.88,-124.55 2913.14,-127.2 3008,-131 3065.77,-133.314 3131.76,-136.91 3177.64,-139.562"/>
<polygon fill="#9a32cd" stroke="#9a32cd" points="2736.73,-119.648 2726.66,-122.938 2736.58,-126.647 2736.73,-119.648"/>
<text text-anchor="middle" x="2945" y="-135" font-family="Helvetica,sans-Serif" font-size="10.00"> write_reqs</text>
</g>
<!-- Node4&#45;&gt;Node26 -->
<g id="edge80" class="edge"><title>Node4&#45;&gt;Node26</title>
<path fill="none" stroke="#9a32cd" stroke-dasharray="5,2" d="M2736.76,-132.564C2782.67,-140.817 2845.97,-152.197 2890.7,-160.238"/>
<polygon fill="#9a32cd" stroke="#9a32cd" points="2737.12,-129.073 2726.66,-130.748 2735.88,-135.962 2737.12,-129.073"/>
<text text-anchor="middle" x="2820" y="-158" font-family="Helvetica,sans-Serif" font-size="10.00"> write_reqs</text>
</g>
<!-- Node5 -->
<g id="node8" class="node"><title>Node5</title>
<a xlink:href="structstxxl_1_1choose__int__types.html" target="_top" xlink:title="stxxl::choose_int_types\l\&lt; my_pointer_size \&gt;">
<polygon fill="none" stroke="black" points="250,-388 250,-422 370,-422 370,-388 250,-388"/>
<text text-anchor="start" x="258" y="-409" font-family="Helvetica,sans-Serif" font-size="10.00">stxxl::choose_int_types</text>
<text text-anchor="middle" x="310" y="-396" font-family="Helvetica,sans-Serif" font-size="10.00">&lt; my_pointer_size &gt;</text>
</a>
</g>
<!-- Node5&#45;&gt;Node1 -->
<g id="edge8" class="edge"><title>Node5&#45;&gt;Node1</title>
<path fill="none" stroke="#9a32cd" stroke-dasharray="5,2" d="M380.196,-405C435.337,-405 514.064,-405 583,-405 583,-405 583,-405 3235,-405 3345.79,-405 3400.58,-251.812 3420.23,-179.706"/>
<polygon fill="#9a32cd" stroke="#9a32cd" points="380.182,-401.5 370.182,-405 380.182,-408.5 380.182,-401.5"/>
<text text-anchor="middle" x="1741" y="-448" font-family="Helvetica,sans-Serif" font-size="10.00"> irun</text>
<text text-anchor="middle" x="1741" y="-435" font-family="Helvetica,sans-Serif" font-size="10.00">offset</text>
<text text-anchor="middle" x="1741" y="-422" font-family="Helvetica,sans-Serif" font-size="10.00">m_</text>
<text text-anchor="middle" x="1741" y="-409" font-family="Helvetica,sans-Serif" font-size="10.00">iblock</text>
</g>
<!-- Node15 -->
<g id="node29" class="node"><title>Node15</title>
<a xlink:href="classstxxl_1_1atomic__counted__object.html" target="_top" xlink:title="Provides reference counting abilities for use with counting_ptr with mutex locking. ">
<polygon fill="none" stroke="black" points="526.5,-121 526.5,-155 639.5,-155 639.5,-121 526.5,-121"/>
<text text-anchor="start" x="534.5" y="-142" font-family="Helvetica,sans-Serif" font-size="10.00">stxxl::atomic_counted</text>
<text text-anchor="middle" x="583" y="-129" font-family="Helvetica,sans-Serif" font-size="10.00">_object</text>
</a>
</g>
<!-- Node5&#45;&gt;Node15 -->
<g id="edge36" class="edge"><title>Node5&#45;&gt;Node15</title>
<path fill="none" stroke="#9a32cd" stroke-dasharray="5,2" d="M334.65,-380.891C389.007,-327.729 518.077,-201.496 565.3,-155.311"/>
<polygon fill="#9a32cd" stroke="#9a32cd" points="332.195,-378.397 327.493,-387.892 337.089,-383.402 332.195,-378.397"/>
<text text-anchor="middle" x="448" y="-330" font-family="Helvetica,sans-Serif" font-size="10.00"> m_reference_count</text>
</g>
<!-- Node6 -->
<g id="node10" class="node"><title>Node6</title>
<a xlink:href="structstxxl_1_1choose__int__types.html" target="_top" xlink:title="stxxl::choose_int_types\l\&lt; PtrSize \&gt;">
<polygon fill="none" stroke="black" points="0,-388 0,-422 120,-422 120,-388 0,-388"/>
<text text-anchor="start" x="8" y="-409" font-family="Helvetica,sans-Serif" font-size="10.00">stxxl::choose_int_types</text>
<text text-anchor="middle" x="60" y="-396" font-family="Helvetica,sans-Serif" font-size="10.00">&lt; PtrSize &gt;</text>
</a>
</g>
<!-- Node6&#45;&gt;Node5 -->
<g id="edge10" class="edge"><title>Node6&#45;&gt;Node5</title>
<path fill="none" stroke="orange" stroke-dasharray="5,2" d="M130.578,-405C168.196,-405 213.985,-405 249.89,-405"/>
<polygon fill="orange" stroke="orange" points="130.199,-401.5 120.199,-405 130.199,-408.5 130.199,-401.5"/>
<text text-anchor="middle" x="185" y="-409" font-family="Helvetica,sans-Serif" font-size="10.00"> &lt; my_pointer_size &gt;</text>
</g>
<!-- Node7 -->
<g id="node12" class="node"><title>Node7</title>
<a xlink:href="classstxxl_1_1typed__block.html" target="_top" xlink:title="Block containing elements of fixed length. ">
<polygon fill="none" stroke="black" points="2882.5,-205.5 2882.5,-252.5 3007.5,-252.5 3007.5,-205.5 2882.5,-205.5"/>
<text text-anchor="start" x="2890.5" y="-239.5" font-family="Helvetica,sans-Serif" font-size="10.00">stxxl::typed_block</text>
<text text-anchor="start" x="2890.5" y="-226.5" font-family="Helvetica,sans-Serif" font-size="10.00">&lt; RawSize, Type, NRef,</text>
<text text-anchor="middle" x="2945" y="-213.5" font-family="Helvetica,sans-Serif" font-size="10.00"> MetaInfoType &gt;</text>
</a>
</g>
<!-- Node7&#45;&gt;Node1 -->
<g id="edge12" class="edge"><title>Node7&#45;&gt;Node1</title>
<path fill="none" stroke="#9a32cd" stroke-dasharray="5,2" d="M3017.98,-225.385C3059.76,-222.609 3113.06,-217.871 3160,-210 3227.05,-198.759 3302,-179.525 3355.72,-164.541"/>
<polygon fill="#9a32cd" stroke="#9a32cd" points="3017.65,-221.899 3007.89,-226.032 3018.09,-228.885 3017.65,-221.899"/>
<text text-anchor="middle" x="3235" y="-210" font-family="Helvetica,sans-Serif" font-size="10.00"> cur_block</text>
</g>
<!-- Node7&#45;&gt;Node25 -->
<g id="edge74" class="edge"><title>Node7&#45;&gt;Node25</title>
<path fill="none" stroke="#9a32cd" stroke-dasharray="5,2" d="M3009.93,-202.053C3015.32,-200.213 3020.73,-198.498 3026,-197 3084.2,-180.47 3101.83,-189.654 3160,-173 3172.13,-169.526 3185.01,-164.786 3196.6,-160.101"/>
<polygon fill="#9a32cd" stroke="#9a32cd" points="3008.52,-198.839 3000.27,-205.483 3010.87,-205.436 3008.52,-198.839"/>
<text text-anchor="middle" x="3093" y="-201" font-family="Helvetica,sans-Serif" font-size="10.00"> write_buffers</text>
</g>
<!-- Node8 -->
<g id="node14" class="node"><title>Node8</title>
<a xlink:href="classstxxl_1_1mng__local_1_1expand__struct.html" target="_top" xlink:title="stxxl::mng_local::expand\l_struct\&lt; mng_local::block\l_w_info\&lt; Type, RawSize, NRef,\l MetaInfoType \&gt;, RawSize \&gt;">
<polygon fill="none" stroke="black" points="2598.5,-263 2598.5,-323 2757.5,-323 2757.5,-263 2598.5,-263"/>
<text text-anchor="start" x="2606.5" y="-310" font-family="Helvetica,sans-Serif" font-size="10.00">stxxl::mng_local::expand</text>
<text text-anchor="start" x="2606.5" y="-297" font-family="Helvetica,sans-Serif" font-size="10.00">_struct&lt; mng_local::block</text>
<text text-anchor="start" x="2606.5" y="-284" font-family="Helvetica,sans-Serif" font-size="10.00">_w_info&lt; Type, RawSize, NRef,</text>
<text text-anchor="middle" x="2678" y="-271" font-family="Helvetica,sans-Serif" font-size="10.00"> MetaInfoType &gt;, RawSize &gt;</text>
</a>
</g>
<!-- Node8&#45;&gt;Node7 -->
<g id="edge14" class="edge"><title>Node8&#45;&gt;Node7</title>
<path fill="none" stroke="midnightblue" d="M2767.69,-271.502C2805.26,-262.495 2848.05,-252.24 2882.17,-244.06"/>
<polygon fill="midnightblue" stroke="midnightblue" points="2766.66,-268.15 2757.75,-273.885 2768.29,-274.957 2766.66,-268.15"/>
</g>
<!-- Node9 -->
<g id="node16" class="node"><title>Node9</title>
<a xlink:href="classstxxl_1_1mng__local_1_1add__filler.html" target="_top" xlink:title="stxxl::mng_local::add\l_filler\&lt; mng_local::block\l_w_info\&lt; Type, RawSize,\l NRef, MetaInfoType \&gt;, RawSize\l&#45;sizeof(mng_local::block_w_info\l\&lt; Type, RawSize, NRef, MetaInfoType \&gt;)\&gt;">
<polygon fill="none" stroke="black" points="2242,-122 2242,-208 2448,-208 2448,-122 2242,-122"/>
<text text-anchor="start" x="2250" y="-195" font-family="Helvetica,sans-Serif" font-size="10.00">stxxl::mng_local::add</text>
<text text-anchor="start" x="2250" y="-182" font-family="Helvetica,sans-Serif" font-size="10.00">_filler&lt; mng_local::block</text>
<text text-anchor="start" x="2250" y="-169" font-family="Helvetica,sans-Serif" font-size="10.00">_w_info&lt; Type, RawSize,</text>
<text text-anchor="start" x="2250" y="-156" font-family="Helvetica,sans-Serif" font-size="10.00"> NRef, MetaInfoType &gt;, RawSize</text>
<text text-anchor="start" x="2250" y="-143" font-family="Helvetica,sans-Serif" font-size="10.00">&#45;sizeof(mng_local::block_w_info</text>
<text text-anchor="middle" x="2345" y="-130" font-family="Helvetica,sans-Serif" font-size="10.00">&lt; Type, RawSize, NRef, MetaInfoType &gt;)&gt;</text>
</a>
</g>
<!-- Node9&#45;&gt;Node8 -->
<g id="edge16" class="edge"><title>Node9&#45;&gt;Node8</title>
<path fill="none" stroke="midnightblue" d="M2457.64,-208.297C2504.34,-226.248 2557.38,-246.635 2599.72,-262.909"/>
<polygon fill="midnightblue" stroke="midnightblue" points="2458.67,-204.944 2448.08,-204.623 2456.16,-211.478 2458.67,-204.944"/>
</g>
<!-- Node10 -->
<g id="node18" class="node"><title>Node10</title>
<a xlink:href="classstxxl_1_1mng__local_1_1block__w__info.html" target="_top" xlink:title="stxxl::mng_local::block\l_w_info\&lt; Type, RawSize,\l NRef, MetaInfoType \&gt;">
<polygon fill="none" stroke="black" points="2067,-66.5 2067,-113.5 2197,-113.5 2197,-66.5 2067,-66.5"/>
<text text-anchor="start" x="2075" y="-100.5" font-family="Helvetica,sans-Serif" font-size="10.00">stxxl::mng_local::block</text>
<text text-anchor="start" x="2075" y="-87.5" font-family="Helvetica,sans-Serif" font-size="10.00">_w_info&lt; Type, RawSize,</text>
<text text-anchor="middle" x="2132" y="-74.5" font-family="Helvetica,sans-Serif" font-size="10.00"> NRef, MetaInfoType &gt;</text>
</a>
</g>
<!-- Node10&#45;&gt;Node9 -->
<g id="edge18" class="edge"><title>Node10&#45;&gt;Node9</title>
<path fill="none" stroke="midnightblue" d="M2206.53,-116.243C2217.97,-120.271 2229.95,-124.489 2241.87,-128.688"/>
<polygon fill="midnightblue" stroke="midnightblue" points="2207.66,-112.93 2197.06,-112.91 2205.33,-119.533 2207.66,-112.93"/>
</g>
<!-- Node11 -->
<g id="node20" class="node"><title>Node11</title>
<a xlink:href="classstxxl_1_1mng__local_1_1block__w__bids.html" target="_top" xlink:title="stxxl::mng_local::block\l_w_bids\&lt; Type,((RawSize\l&#45;sizeof(BID\&lt; RawSize \&gt;)*NBids\l&#45;sizeof(MetaInfoType))/sizeof\l(Type)), RawSize, NBids \&gt;">
<polygon fill="none" stroke="black" points="1552,-83.5 1552,-156.5 1710,-156.5 1710,-83.5 1552,-83.5"/>
<text text-anchor="start" x="1560" y="-143.5" font-family="Helvetica,sans-Serif" font-size="10.00">stxxl::mng_local::block</text>
<text text-anchor="start" x="1560" y="-130.5" font-family="Helvetica,sans-Serif" font-size="10.00">_w_bids&lt; Type,((RawSize</text>
<text text-anchor="start" x="1560" y="-117.5" font-family="Helvetica,sans-Serif" font-size="10.00">&#45;sizeof(BID&lt; RawSize &gt;)*NBids</text>
<text text-anchor="start" x="1560" y="-104.5" font-family="Helvetica,sans-Serif" font-size="10.00">&#45;sizeof(MetaInfoType))/sizeof</text>
<text text-anchor="middle" x="1631" y="-91.5" font-family="Helvetica,sans-Serif" font-size="10.00">(Type)), RawSize, NBids &gt;</text>
</a>
</g>
<!-- Node11&#45;&gt;Node10 -->
<g id="edge20" class="edge"><title>Node11&#45;&gt;Node10</title>
<path fill="none" stroke="midnightblue" d="M1720.11,-101.957C1737.27,-99.1209 1755.14,-96.6013 1772,-95 1874.67,-85.2493 1994.55,-85.9908 2066.79,-87.75"/>
<polygon fill="midnightblue" stroke="midnightblue" points="1719.38,-98.5307 1710.11,-103.658 1720.56,-105.432 1719.38,-98.5307"/>
</g>
<!-- Node19 -->
<g id="node42" class="node"><title>Node19</title>
<a xlink:href="classstxxl_1_1mng__local_1_1block__w__info.html" target="_top" xlink:title="Contains per block information for stxxl::typed_block , not intended for direct use. ">
<polygon fill="none" stroke="black" points="1777,-104.5 1777,-151.5 1907,-151.5 1907,-104.5 1777,-104.5"/>
<text text-anchor="start" x="1785" y="-138.5" font-family="Helvetica,sans-Serif" font-size="10.00">stxxl::mng_local::block</text>
<text text-anchor="start" x="1785" y="-125.5" font-family="Helvetica,sans-Serif" font-size="10.00">_w_info&lt; Type, RawSize,</text>
<text text-anchor="middle" x="1842" y="-112.5" font-family="Helvetica,sans-Serif" font-size="10.00"> NBids, MetaInfoType &gt;</text>
</a>
</g>
<!-- Node11&#45;&gt;Node19 -->
<g id="edge50" class="edge"><title>Node11&#45;&gt;Node19</title>
<path fill="none" stroke="midnightblue" d="M1720.32,-123.386C1739.29,-124.106 1758.98,-124.852 1776.85,-125.53"/>
<polygon fill="midnightblue" stroke="midnightblue" points="1720.29,-119.883 1710.17,-123.002 1720.03,-126.878 1720.29,-119.883"/>
</g>
<!-- Node12 -->
<g id="node22" class="node"><title>Node12</title>
<a xlink:href="classstxxl_1_1mng__local_1_1element__block.html" target="_top" xlink:title="Contains data elements for stxxl::typed_block , not intended for direct use. ">
<polygon fill="none" stroke="black" points="1066,-164 1066,-198 1194,-198 1194,-164 1066,-164"/>
<text text-anchor="start" x="1074" y="-185" font-family="Helvetica,sans-Serif" font-size="10.00">stxxl::mng_local::element</text>
<text text-anchor="middle" x="1130" y="-172" font-family="Helvetica,sans-Serif" font-size="10.00">_block&lt; Type, Size &gt;</text>
</a>
</g>
<!-- Node12&#45;&gt;Node11 -->
<g id="edge22" class="edge"><title>Node12&#45;&gt;Node11</title>
<path fill="none" stroke="midnightblue" d="M1204.39,-195.276C1286.95,-208.088 1423.15,-220.135 1534,-186 1553.66,-179.945 1572.91,-168.395 1589.01,-156.628"/>
<polygon fill="midnightblue" stroke="midnightblue" points="1204.78,-191.793 1194.35,-193.673 1203.67,-198.706 1204.78,-191.793"/>
</g>
<!-- Node18 -->
<g id="node38" class="node"><title>Node18</title>
<a xlink:href="classstxxl_1_1mng__local_1_1block__w__bids.html" target="_top" xlink:title="Contains BID references for stxxl::typed_block , not intended for direct use. ">
<polygon fill="none" stroke="black" points="1246,-118.5 1246,-165.5 1404,-165.5 1404,-118.5 1246,-118.5"/>
<text text-anchor="start" x="1254" y="-152.5" font-family="Helvetica,sans-Serif" font-size="10.00">stxxl::mng_local::block</text>
<text text-anchor="start" x="1254" y="-139.5" font-family="Helvetica,sans-Serif" font-size="10.00">_w_bids&lt; Type, Size, RawSize,</text>
<text text-anchor="middle" x="1325" y="-126.5" font-family="Helvetica,sans-Serif" font-size="10.00"> NBids &gt;</text>
</a>
</g>
<!-- Node12&#45;&gt;Node18 -->
<g id="edge44" class="edge"><title>Node12&#45;&gt;Node18</title>
<path fill="none" stroke="midnightblue" d="M1203.96,-166.208C1217.66,-163.468 1232.02,-160.596 1245.86,-157.827"/>
<polygon fill="midnightblue" stroke="midnightblue" points="1203.24,-162.783 1194.12,-168.176 1204.61,-169.647 1203.24,-162.783"/>
</g>
<!-- Node13 -->
<g id="node24" class="node"><title>Node13</title>
<a xlink:href="structstxxl_1_1BID.html" target="_top" xlink:title="stxxl::BID\&lt; raw_size \&gt;">
<polygon fill="none" stroke="black" points="1071,-105.5 1071,-126.5 1189,-126.5 1189,-105.5 1071,-105.5"/>
<text text-anchor="middle" x="1130" y="-113.5" font-family="Helvetica,sans-Serif" font-size="10.00">stxxl::BID&lt; raw_size &gt;</text>
</a>
</g>
<!-- Node13&#45;&gt;Node11 -->
<g id="edge24" class="edge"><title>Node13&#45;&gt;Node11</title>
<path fill="none" stroke="#9a32cd" stroke-dasharray="5,2" d="M1190.04,-103.642C1207.96,-100.497 1227.7,-97.5658 1246,-96 1351.59,-86.9637 1473.76,-98.2703 1551.66,-108.222"/>
<polygon fill="#9a32cd" stroke="#9a32cd" points="1189.22,-100.232 1180,-105.456 1190.47,-107.12 1189.22,-100.232"/>
<text text-anchor="middle" x="1325" y="-100" font-family="Helvetica,sans-Serif" font-size="10.00"> ref</text>
</g>
<!-- Node13&#45;&gt;Node18 -->
<g id="edge46" class="edge"><title>Node13&#45;&gt;Node18</title>
<path fill="none" stroke="#9a32cd" stroke-dasharray="5,2" d="M1199.26,-125.234C1214.28,-127.237 1230.27,-129.37 1245.65,-131.419"/>
<polygon fill="#9a32cd" stroke="#9a32cd" points="1199.41,-121.724 1189.04,-123.871 1198.49,-128.662 1199.41,-121.724"/>
<text text-anchor="middle" x="1220" y="-133" font-family="Helvetica,sans-Serif" font-size="10.00"> ref</text>
</g>
<!-- Node14&#45;&gt;Node13 -->
<g id="edge26" class="edge"><title>Node14&#45;&gt;Node13</title>
<path fill="none" stroke="#9a32cd" stroke-dasharray="5,2" d="M808.546,-108.194C827.103,-106.546 849.684,-104.811 870,-104 913.521,-102.262 924.474,-102.39 968,-104 1002.1,-105.261 1040.16,-108.011 1070.81,-110.561"/>
<polygon fill="#9a32cd" stroke="#9a32cd" points="808.052,-104.724 798.412,-109.12 808.689,-111.695 808.052,-104.724"/>
<text text-anchor="middle" x="919" y="-108" font-family="Helvetica,sans-Serif" font-size="10.00"> storage</text>
</g>
<!-- Node17 -->
<g id="node35" class="node"><title>Node17</title>
<a xlink:href="structstxxl_1_1BID.html" target="_top" xlink:title="Block identifier class. ">
<polygon fill="none" stroke="black" points="870,-126.5 870,-147.5 968,-147.5 968,-126.5 870,-126.5"/>
<text text-anchor="middle" x="919" y="-134.5" font-family="Helvetica,sans-Serif" font-size="10.00">stxxl::BID&lt; Size &gt;</text>
</a>
</g>
<!-- Node14&#45;&gt;Node17 -->
<g id="edge40" class="edge"><title>Node14&#45;&gt;Node17</title>
<path fill="none" stroke="#9a32cd" stroke-dasharray="5,2" d="M808.023,-118.38C826.863,-121.541 849.834,-125.395 869.98,-128.775"/>
<polygon fill="#9a32cd" stroke="#9a32cd" points="808.467,-114.905 798.026,-116.702 807.309,-121.809 808.467,-114.905"/>
<text text-anchor="middle" x="834" y="-129" font-family="Helvetica,sans-Serif" font-size="10.00"> storage</text>
</g>
<!-- Node15&#45;&gt;Node14 -->
<g id="edge30" class="edge"><title>Node15&#45;&gt;Node14</title>
<path fill="none" stroke="#9a32cd" stroke-dasharray="5,2" d="M649.733,-128.722C681.451,-124.312 717.657,-119.278 741.984,-115.895"/>
<polygon fill="#9a32cd" stroke="#9a32cd" points="649.036,-125.285 639.614,-130.129 650,-132.218 649.036,-125.285"/>
<text text-anchor="middle" x="691" y="-131" font-family="Helvetica,sans-Serif" font-size="10.00"> m_request_ref</text>
</g>
<!-- Node16&#45;&gt;Node15 -->
<g id="edge32" class="edge"><title>Node16&#45;&gt;Node15</title>
<path fill="none" stroke="#9a32cd" stroke-dasharray="5,2" d="M355.875,-134.672C402.83,-135.36 475.885,-136.431 526.403,-137.171"/>
<polygon fill="#9a32cd" stroke="#9a32cd" points="355.74,-131.17 345.69,-134.523 355.638,-138.169 355.74,-131.17"/>
<text text-anchor="middle" x="448" y="-140" font-family="Helvetica,sans-Serif" font-size="10.00"> m_reference_count_mutex</text>
</g>
<!-- Node17&#45;&gt;Node13 -->
<g id="edge38" class="edge"><title>Node17&#45;&gt;Node13</title>
<path fill="none" stroke="orange" stroke-dasharray="5,2" d="M978.194,-131.109C1007.18,-128.224 1041.98,-124.76 1070.95,-121.877"/>
<polygon fill="orange" stroke="orange" points="977.808,-127.63 968.204,-132.103 978.501,-134.595 977.808,-127.63"/>
<text text-anchor="middle" x="1017" y="-134" font-family="Helvetica,sans-Serif" font-size="10.00"> &lt; raw_size &gt;</text>
</g>
<!-- Node18&#45;&gt;Node11 -->
<g id="edge42" class="edge"><title>Node18&#45;&gt;Node11</title>
<path fill="none" stroke="orange" stroke-dasharray="5,2" d="M1414.27,-121.946C1416.87,-121.596 1419.45,-121.279 1422,-121 1464.74,-116.323 1512.7,-115.761 1551.88,-116.508"/>
<polygon fill="orange" stroke="orange" points="1413.56,-118.515 1404.18,-123.451 1414.59,-125.438 1413.56,-118.515"/>
<text text-anchor="start" x="1422" y="-177" font-family="Helvetica,sans-Serif" font-size="10.00"> &lt; Type,((RawSize&#45;sizeof</text>
<text text-anchor="start" x="1422" y="-164" font-family="Helvetica,sans-Serif" font-size="10.00">(BID&lt; RawSize &gt;)*NBids</text>
<text text-anchor="start" x="1422" y="-151" font-family="Helvetica,sans-Serif" font-size="10.00">&#45;sizeof(MetaInfoType))</text>
<text text-anchor="start" x="1422" y="-138" font-family="Helvetica,sans-Serif" font-size="10.00">/sizeof(Type)), RawSize,</text>
<text text-anchor="middle" x="1478" y="-125" font-family="Helvetica,sans-Serif" font-size="10.00"> NBids &gt;</text>
</g>
<!-- Node19&#45;&gt;Node10 -->
<g id="edge48" class="edge"><title>Node19&#45;&gt;Node10</title>
<path fill="none" stroke="orange" stroke-dasharray="5,2" d="M1917.31,-113.942C1921.6,-113.256 1925.85,-112.602 1930,-112 1975.56,-105.386 2027.16,-99.7982 2066.81,-95.9091"/>
<polygon fill="orange" stroke="orange" points="1916.57,-110.517 1907.27,-115.597 1917.71,-117.424 1916.57,-110.517"/>
<text text-anchor="start" x="1930" y="-129" font-family="Helvetica,sans-Serif" font-size="10.00"> &lt; Type, RawSize, NRef,</text>
<text text-anchor="middle" x="1986" y="-116" font-family="Helvetica,sans-Serif" font-size="10.00"> MetaInfoType &gt;</text>
</g>
<!-- Node20 -->
<g id="node45" class="node"><title>Node20</title>
<a xlink:href="classstxxl_1_1mng__local_1_1filler__struct.html" target="_top" xlink:title="stxxl::mng_local::filler\l_struct\&lt; FillSize \&gt;">
<polygon fill="none" stroke="black" points="1575,-233 1575,-267 1687,-267 1687,-233 1575,-233"/>
<text text-anchor="start" x="1583" y="-254" font-family="Helvetica,sans-Serif" font-size="10.00">stxxl::mng_local::filler</text>
<text text-anchor="middle" x="1631" y="-241" font-family="Helvetica,sans-Serif" font-size="10.00">_struct&lt; FillSize &gt;</text>
</a>
</g>
<!-- Node20&#45;&gt;Node9 -->
<g id="edge52" class="edge"><title>Node20&#45;&gt;Node9</title>
<path fill="none" stroke="#9a32cd" stroke-dasharray="5,2" d="M1696.79,-232.394C1757.04,-216.959 1848.89,-195.143 1930,-183 1987.31,-174.42 2002.13,-176.036 2060,-173 2120.18,-169.843 2187.58,-167.879 2241.72,-166.688"/>
<polygon fill="#9a32cd" stroke="#9a32cd" points="1695.84,-229.024 1687.03,-234.909 1697.59,-235.803 1695.84,-229.024"/>
<text text-anchor="middle" x="1986" y="-187" font-family="Helvetica,sans-Serif" font-size="10.00"> filler</text>
</g>
<!-- Node22 -->
<g id="node49" class="node"><title>Node22</title>
<a xlink:href="classstxxl_1_1mng__local_1_1add__filler.html" target="_top" xlink:title="Contains per block filler for stxxl::typed_block , not intended for direct use. ">
<polygon fill="none" stroke="black" points="1772,-233 1772,-267 1912,-267 1912,-233 1772,-233"/>
<text text-anchor="start" x="1780" y="-254" font-family="Helvetica,sans-Serif" font-size="10.00">stxxl::mng_local::add</text>
<text text-anchor="middle" x="1842" y="-241" font-family="Helvetica,sans-Serif" font-size="10.00">_filler&lt; BaseType, FillSize &gt;</text>
</a>
</g>
<!-- Node20&#45;&gt;Node22 -->
<g id="edge58" class="edge"><title>Node20&#45;&gt;Node22</title>
<path fill="none" stroke="#9a32cd" stroke-dasharray="5,2" d="M1697.56,-250C1721.24,-250 1747.96,-250 1771.93,-250"/>
<polygon fill="#9a32cd" stroke="#9a32cd" points="1697.27,-246.5 1687.27,-250 1697.27,-253.5 1697.27,-246.5"/>
<text text-anchor="middle" x="1741" y="-254" font-family="Helvetica,sans-Serif" font-size="10.00"> filler</text>
</g>
<!-- Node24 -->
<g id="node54" class="node"><title>Node24</title>
<a xlink:href="classstxxl_1_1mng__local_1_1add__filler.html" target="_top" xlink:title="stxxl::mng_local::add\l_filler\&lt; Type, RawSize\l&#45;sizeof(Type)\&gt;">
<polygon fill="none" stroke="black" points="2074,-284.5 2074,-331.5 2190,-331.5 2190,-284.5 2074,-284.5"/>
<text text-anchor="start" x="2082" y="-318.5" font-family="Helvetica,sans-Serif" font-size="10.00">stxxl::mng_local::add</text>
<text text-anchor="start" x="2082" y="-305.5" font-family="Helvetica,sans-Serif" font-size="10.00">_filler&lt; Type, RawSize</text>
<text text-anchor="middle" x="2132" y="-292.5" font-family="Helvetica,sans-Serif" font-size="10.00">&#45;sizeof(Type)&gt;</text>
</a>
</g>
<!-- Node20&#45;&gt;Node24 -->
<g id="edge64" class="edge"><title>Node20&#45;&gt;Node24</title>
<path fill="none" stroke="#9a32cd" stroke-dasharray="5,2" d="M1697,-263.231C1720.6,-267.68 1747.43,-272.418 1772,-276 1877.86,-291.433 2002.4,-300.503 2073.78,-304.84"/>
<polygon fill="#9a32cd" stroke="#9a32cd" points="1697.58,-259.778 1687.1,-261.346 1696.27,-266.654 1697.58,-259.778"/>
<text text-anchor="middle" x="1842" y="-296" font-family="Helvetica,sans-Serif" font-size="10.00"> filler</text>
</g>
<!-- Node21 -->
<g id="node47" class="node"><title>Node21</title>
<a xlink:href="classstxxl_1_1mng__local_1_1filler__struct.html" target="_top" xlink:title="stxxl::mng_local::filler\l_struct\&lt; Bytes \&gt;">
<polygon fill="none" stroke="black" points="1269,-233 1269,-267 1381,-267 1381,-233 1269,-233"/>
<text text-anchor="start" x="1277" y="-254" font-family="Helvetica,sans-Serif" font-size="10.00">stxxl::mng_local::filler</text>
<text text-anchor="middle" x="1325" y="-241" font-family="Helvetica,sans-Serif" font-size="10.00">_struct&lt; Bytes &gt;</text>
</a>
</g>
<!-- Node21&#45;&gt;Node20 -->
<g id="edge54" class="edge"><title>Node21&#45;&gt;Node20</title>
<path fill="none" stroke="orange" stroke-dasharray="5,2" d="M1391.44,-250C1446.27,-250 1523.22,-250 1574.97,-250"/>
<polygon fill="orange" stroke="orange" points="1391.13,-246.5 1381.13,-250 1391.13,-253.5 1391.13,-246.5"/>
<text text-anchor="middle" x="1478" y="-254" font-family="Helvetica,sans-Serif" font-size="10.00"> &lt; FillSize &gt;</text>
</g>
<!-- Node22&#45;&gt;Node9 -->
<g id="edge56" class="edge"><title>Node22&#45;&gt;Node9</title>
<path fill="none" stroke="orange" stroke-dasharray="5,2" d="M1912.78,-230.383C1955.2,-219.232 2010.36,-205.784 2060,-197 2119.94,-186.393 2187.62,-178.619 2241.99,-173.392"/>
<polygon fill="orange" stroke="orange" points="1911.88,-227.001 1903.11,-232.944 1913.67,-233.768 1911.88,-227.001"/>
<text text-anchor="start" x="2060.5" y="-266" font-family="Helvetica,sans-Serif" font-size="10.00"> &lt; mng_local::block</text>
<text text-anchor="start" x="2060.5" y="-253" font-family="Helvetica,sans-Serif" font-size="10.00">_w_info&lt; Type, RawSize,</text>
<text text-anchor="start" x="2060.5" y="-240" font-family="Helvetica,sans-Serif" font-size="10.00"> NRef, MetaInfoType &gt;,</text>
<text text-anchor="start" x="2060.5" y="-227" font-family="Helvetica,sans-Serif" font-size="10.00"> RawSize&#45;sizeof(mng_local</text>
<text text-anchor="start" x="2060.5" y="-214" font-family="Helvetica,sans-Serif" font-size="10.00">::block_w_info&lt; Type, RawSize,</text>
<text text-anchor="middle" x="2132" y="-201" font-family="Helvetica,sans-Serif" font-size="10.00"> NRef, MetaInfoType &gt;)&gt;</text>
</g>
<!-- Node22&#45;&gt;Node24 -->
<g id="edge66" class="edge"><title>Node22&#45;&gt;Node24</title>
<path fill="none" stroke="orange" stroke-dasharray="5,2" d="M1922.62,-250.587C1959.51,-252.444 2003.48,-256.913 2042,-267 2057.61,-271.089 2073.89,-277.703 2088.25,-284.436"/>
<polygon fill="orange" stroke="orange" points="1922.56,-247.081 1912.41,-250.13 1922.25,-254.074 1922.56,-247.081"/>
<text text-anchor="start" x="1931.5" y="-284" font-family="Helvetica,sans-Serif" font-size="10.00"> &lt; Type, RawSize&#45;sizeof</text>
<text text-anchor="middle" x="1986" y="-271" font-family="Helvetica,sans-Serif" font-size="10.00">(Type)&gt;</text>
</g>
<!-- Node23 -->
<g id="node52" class="node"><title>Node23</title>
<a xlink:href="classstxxl_1_1mng__local_1_1expand__struct.html" target="_top" xlink:title="Helper to compute the size of the filler , not intended for direct use. ">
<polygon fill="none" stroke="black" points="2279,-280 2279,-314 2411,-314 2411,-280 2279,-280"/>
<text text-anchor="start" x="2287" y="-301" font-family="Helvetica,sans-Serif" font-size="10.00">stxxl::mng_local::expand</text>
<text text-anchor="middle" x="2345" y="-288" font-family="Helvetica,sans-Serif" font-size="10.00">_struct&lt; Type, RawSize &gt;</text>
</a>
</g>
<!-- Node23&#45;&gt;Node8 -->
<g id="edge60" class="edge"><title>Node23&#45;&gt;Node8</title>
<path fill="none" stroke="orange" stroke-dasharray="5,2" d="M2421.38,-294.874C2436.18,-294.527 2451.57,-294.213 2466,-294 2509.79,-293.354 2558.68,-293.092 2598.47,-292.998"/>
<polygon fill="orange" stroke="orange" points="2421.16,-291.378 2411.25,-295.117 2421.33,-298.376 2421.16,-291.378"/>
<text text-anchor="start" x="2466" y="-337" font-family="Helvetica,sans-Serif" font-size="10.00"> &lt; mng_local::block</text>
<text text-anchor="start" x="2466" y="-324" font-family="Helvetica,sans-Serif" font-size="10.00">_w_info&lt; Type, RawSize,</text>
<text text-anchor="start" x="2466" y="-311" font-family="Helvetica,sans-Serif" font-size="10.00"> NRef, MetaInfoType &gt;,</text>
<text text-anchor="middle" x="2523" y="-298" font-family="Helvetica,sans-Serif" font-size="10.00"> RawSize &gt;</text>
</g>
<!-- Node24&#45;&gt;Node23 -->
<g id="edge62" class="edge"><title>Node24&#45;&gt;Node23</title>
<path fill="none" stroke="midnightblue" d="M2200.4,-304.467C2225.57,-303.168 2254.02,-301.699 2278.97,-300.41"/>
<polygon fill="midnightblue" stroke="midnightblue" points="2200.01,-300.983 2190.2,-304.994 2200.37,-307.974 2200.01,-300.983"/>
</g>
<!-- Node25&#45;&gt;Node1 -->
<g id="edge68" class="edge"><title>Node25&#45;&gt;Node1</title>
<path fill="none" stroke="#9a32cd" stroke-dasharray="5,2" d="M3302.63,-143C3319.77,-143 3338.27,-143 3355.67,-143"/>
<polygon fill="#9a32cd" stroke="#9a32cd" points="3302.16,-139.5 3292.16,-143 3302.16,-146.5 3302.16,-139.5"/>
<text text-anchor="middle" x="3324" y="-147" font-family="Helvetica,sans-Serif" font-size="10.00"> writer</text>
</g>
<!-- Node26&#45;&gt;Node25 -->
<g id="edge76" class="edge"><title>Node26&#45;&gt;Node25</title>
<path fill="none" stroke="orange" stroke-dasharray="5,2" d="M3009.47,-161.795C3015.06,-161.158 3020.63,-160.55 3026,-160 3077.24,-154.755 3135.69,-150.114 3177.72,-147.012"/>
<polygon fill="orange" stroke="orange" points="3008.96,-158.33 2999.43,-162.965 3009.77,-165.283 3008.96,-158.33"/>
<text text-anchor="middle" x="3093" y="-164" font-family="Helvetica,sans-Serif" font-size="10.00"> &lt; stxxl::typed_block &gt;</text>
</g>
</g>
</svg>
