<?xml version="1.0" encoding="UTF-8" standalone="no"?>
<!DOCTYPE svg PUBLIC "-//W3C//DTD SVG 1.1//EN"
 "http://www.w3.org/Graphics/SVG/1.1/DTD/svg11.dtd">
<!-- Generated by graphviz version 2.38.0 (20140413.2041)
 -->
<!-- Title: stxxl::disk_queued_file Pages: 1 -->
<svg width="502pt" height="306pt"
 viewBox="0.00 0.00 502.00 305.50" xmlns="http://www.w3.org/2000/svg" xmlns:xlink="http://www.w3.org/1999/xlink">
<g id="graph0" class="graph" transform="scale(1 1) rotate(0) translate(4 301.5)">
<title>stxxl::disk_queued_file</title>
<!-- Node1 -->
<g id="node1" class="node"><title>Node1</title>
<polygon fill="#bfbfbf" stroke="black" points="226,-133.5 226,-152.5 342,-152.5 342,-133.5 226,-133.5"/>
<text text-anchor="middle" x="284" y="-140.5" font-family="Helvetica,sans-Serif" font-size="10.00">stxxl::disk_queued_file</text>
</g>
<!-- Node4 -->
<g id="node4" class="node"><title>Node4</title>
<g id="a_node4"><a xlink:href="classstxxl_1_1fileperblock__file.html" target="_top" xlink:title="Implementation of file based on other files, dynamically allocate one file per block. Allows for dynamic disk space consumption. ">
<polygon fill="none" stroke="black" points="378,-267 378,-297 494,-297 494,-267 378,-267"/>
<text text-anchor="start" x="386" y="-285" font-family="Helvetica,sans-Serif" font-size="10.00">stxxl::fileperblock</text>
<text text-anchor="middle" x="436" y="-274" font-family="Helvetica,sans-Serif" font-size="10.00">_file&lt; base_file_type &gt;</text>
</a>
</g>
</g>
<!-- Node1&#45;&gt;Node4 -->
<g id="edge3" class="edge"><title>Node1&#45;&gt;Node4</title>
<path fill="none" stroke="midnightblue" d="M295.936,-161.235C311.479,-185.836 342.096,-229.71 378,-257 382.904,-260.727 388.449,-264.034 394.108,-266.923"/>
<polygon fill="midnightblue" stroke="midnightblue" points="298.798,-159.21 290.565,-152.541 292.843,-162.888 298.798,-159.21"/>
</g>
<!-- Node5 -->
<g id="node5" class="node"><title>Node5</title>
<g id="a_node5"><a xlink:href="classstxxl_1_1linuxaio__file.html" target="_top" xlink:title="Implementation of file based on the Linux kernel interface for asynchronous I/O. ">
<polygon fill="none" stroke="black" points="388.5,-228.5 388.5,-247.5 483.5,-247.5 483.5,-228.5 388.5,-228.5"/>
<text text-anchor="middle" x="436" y="-235.5" font-family="Helvetica,sans-Serif" font-size="10.00">stxxl::linuxaio_file</text>
</a>
</g>
</g>
<!-- Node1&#45;&gt;Node5 -->
<g id="edge4" class="edge"><title>Node1&#45;&gt;Node5</title>
<path fill="none" stroke="midnightblue" d="M301.67,-159.845C319.284,-176.824 348.54,-202.774 378,-219 384.761,-222.724 392.376,-225.883 399.787,-228.492"/>
<polygon fill="midnightblue" stroke="midnightblue" points="304.025,-157.252 294.438,-152.743 299.12,-162.247 304.025,-157.252"/>
</g>
<!-- Node6 -->
<g id="node6" class="node"><title>Node6</title>
<g id="a_node6"><a xlink:href="classstxxl_1_1mem__file.html" target="_top" xlink:title="Implementation of file based on new[] and memcpy. ">
<polygon fill="none" stroke="black" points="394.5,-190.5 394.5,-209.5 477.5,-209.5 477.5,-190.5 394.5,-190.5"/>
<text text-anchor="middle" x="436" y="-197.5" font-family="Helvetica,sans-Serif" font-size="10.00">stxxl::mem_file</text>
</a>
</g>
</g>
<!-- Node1&#45;&gt;Node6 -->
<g id="edge5" class="edge"><title>Node1&#45;&gt;Node6</title>
<path fill="none" stroke="midnightblue" d="M316.767,-156.589C334.643,-164.082 357.438,-173.382 378,-181 386.705,-184.225 396.247,-187.505 404.991,-190.41"/>
<polygon fill="midnightblue" stroke="midnightblue" points="317.962,-153.294 307.388,-152.634 315.242,-159.744 317.962,-153.294"/>
</g>
<!-- Node7 -->
<g id="node7" class="node"><title>Node7</title>
<g id="a_node7"><a xlink:href="classstxxl_1_1mmap__file.html" target="_top" xlink:title="Implementation of memory mapped access file. ">
<polygon fill="none" stroke="black" points="391.5,-152.5 391.5,-171.5 480.5,-171.5 480.5,-152.5 391.5,-152.5"/>
<text text-anchor="middle" x="436" y="-159.5" font-family="Helvetica,sans-Serif" font-size="10.00">stxxl::mmap_file</text>
</a>
</g>
</g>
<!-- Node1&#45;&gt;Node7 -->
<g id="edge6" class="edge"><title>Node1&#45;&gt;Node7</title>
<path fill="none" stroke="midnightblue" d="M352.144,-151.505C365.351,-153.178 378.886,-154.892 391.088,-156.438"/>
<polygon fill="midnightblue" stroke="midnightblue" points="352.497,-148.022 342.136,-150.237 351.617,-154.966 352.497,-148.022"/>
</g>
<!-- Node8 -->
<g id="node8" class="node"><title>Node8</title>
<g id="a_node8"><a xlink:href="classstxxl_1_1sim__disk__file.html" target="_top" xlink:title="Implementation of disk emulation. ">
<polygon fill="none" stroke="black" points="385.5,-114.5 385.5,-133.5 486.5,-133.5 486.5,-114.5 385.5,-114.5"/>
<text text-anchor="middle" x="436" y="-121.5" font-family="Helvetica,sans-Serif" font-size="10.00">stxxl::sim_disk_file</text>
</a>
</g>
</g>
<!-- Node1&#45;&gt;Node8 -->
<g id="edge7" class="edge"><title>Node1&#45;&gt;Node8</title>
<path fill="none" stroke="midnightblue" d="M352.271,-134.479C363.408,-133.068 374.774,-131.629 385.374,-130.286"/>
<polygon fill="midnightblue" stroke="midnightblue" points="351.617,-131.034 342.136,-135.763 352.497,-137.978 351.617,-131.034"/>
</g>
<!-- Node9 -->
<g id="node9" class="node"><title>Node9</title>
<g id="a_node9"><a xlink:href="classstxxl_1_1syscall__file.html" target="_top" xlink:title="Implementation of file based on UNIX syscalls. ">
<polygon fill="none" stroke="black" points="390,-76.5 390,-95.5 482,-95.5 482,-76.5 390,-76.5"/>
<text text-anchor="middle" x="436" y="-83.5" font-family="Helvetica,sans-Serif" font-size="10.00">stxxl::syscall_file</text>
</a>
</g>
</g>
<!-- Node1&#45;&gt;Node9 -->
<g id="edge8" class="edge"><title>Node1&#45;&gt;Node9</title>
<path fill="none" stroke="midnightblue" d="M316.767,-129.411C334.643,-121.918 357.438,-112.618 378,-105 386.705,-101.775 396.247,-98.4954 404.991,-95.5897"/>
<polygon fill="midnightblue" stroke="midnightblue" points="315.242,-126.256 307.388,-133.366 317.962,-132.706 315.242,-126.256"/>
</g>
<!-- Node10 -->
<g id="node10" class="node"><title>Node10</title>
<g id="a_node10"><a xlink:href="classstxxl_1_1wbtl__file.html" target="_top" xlink:title="Implementation of file based on buffered writes and block remapping via a translation layer...">
<polygon fill="none" stroke="black" points="396,-38.5 396,-57.5 476,-57.5 476,-38.5 396,-38.5"/>
<text text-anchor="middle" x="436" y="-45.5" font-family="Helvetica,sans-Serif" font-size="10.00">stxxl::wbtl_file</text>
</a>
</g>
</g>
<!-- Node1&#45;&gt;Node10 -->
<g id="edge9" class="edge"><title>Node1&#45;&gt;Node10</title>
<path fill="none" stroke="midnightblue" d="M301.67,-126.155C319.284,-109.176 348.54,-83.226 378,-67 384.761,-63.276 392.376,-60.1173 399.787,-57.5083"/>
<polygon fill="midnightblue" stroke="midnightblue" points="299.12,-123.753 294.438,-133.257 304.025,-128.748 299.12,-123.753"/>
</g>
<!-- Node11 -->
<g id="node11" class="node"><title>Node11</title>
<g id="a_node11"><a xlink:href="classstxxl_1_1wincall__file.html" target="_top" xlink:title="Implementation of file based on Windows native I/O calls. ">
<polygon fill="none" stroke="black" points="390,-0.5 390,-19.5 482,-19.5 482,-0.5 390,-0.5"/>
<text text-anchor="middle" x="436" y="-7.5" font-family="Helvetica,sans-Serif" font-size="10.00">stxxl::wincall_file</text>
</a>
</g>
</g>
<!-- Node1&#45;&gt;Node11 -->
<g id="edge10" class="edge"><title>Node1&#45;&gt;Node11</title>
<path fill="none" stroke="midnightblue" d="M295.586,-124.282C310.728,-99.1261 340.885,-54.6175 378,-29 383.58,-25.1485 390.001,-22.028 396.477,-19.5155"/>
<polygon fill="midnightblue" stroke="midnightblue" points="292.404,-122.79 290.368,-133.187 298.443,-126.328 292.404,-122.79"/>
</g>
<!-- Node2 -->
<g id="node2" class="node"><title>Node2</title>
<g id="a_node2"><a xlink:href="classstxxl_1_1file.html" target="_top" xlink:title="Defines interface of file. ">
<polygon fill="none" stroke="black" points="134,-133.5 134,-152.5 190,-152.5 190,-133.5 134,-133.5"/>
<text text-anchor="middle" x="162" y="-140.5" font-family="Helvetica,sans-Serif" font-size="10.00">stxxl::file</text>
</a>
</g>
</g>
<!-- Node2&#45;&gt;Node1 -->
<g id="edge1" class="edge"><title>Node2&#45;&gt;Node1</title>
<path fill="none" stroke="midnightblue" d="M200.456,-143C208.563,-143 217.313,-143 225.979,-143"/>
<polygon fill="midnightblue" stroke="midnightblue" points="200.23,-139.5 190.23,-143 200.23,-146.5 200.23,-139.5"/>
</g>
<!-- Node3 -->
<g id="node3" class="node"><title>Node3</title>
<g id="a_node3"><a xlink:href="classstxxl_1_1noncopyable.html" target="_top" xlink:title="stxxl::noncopyable">
<polygon fill="none" stroke="black" points="0,-133.5 0,-152.5 98,-152.5 98,-133.5 0,-133.5"/>
<text text-anchor="middle" x="49" y="-140.5" font-family="Helvetica,sans-Serif" font-size="10.00">stxxl::noncopyable</text>
</a>
</g>
</g>
<!-- Node3&#45;&gt;Node2 -->
<g id="edge2" class="edge"><title>Node3&#45;&gt;Node2</title>
<path fill="none" stroke="#8b1a1a" d="M108.195,-143C117.198,-143 126.107,-143 133.969,-143"/>
<polygon fill="#8b1a1a" stroke="#8b1a1a" points="108.041,-139.5 98.0406,-143 108.041,-146.5 108.041,-139.5"/>
</g>
</g>
</svg>
