<?xml version="1.0" encoding="UTF-8" standalone="no"?>
<!DOCTYPE svg PUBLIC "-//W3C//DTD SVG 1.1//EN"
 "http://www.w3.org/Graphics/SVG/1.1/DTD/svg11.dtd">
<!-- Generated by graphviz version 2.26.3 (20100126.1600)
 -->
<!-- Title: stxxl::stream::basic_runs_merger&lt; RunsType, CompareType, AllocStr &gt; Pages: 1 -->
<svg width="952pt" height="226pt"
 viewBox="0.00 0.00 952.00 226.00" xmlns="http://www.w3.org/2000/svg" xmlns:xlink="http://www.w3.org/1999/xlink">
<g id="graph1" class="graph" transform="scale(1 1) rotate(0) translate(4 222)">
<title>stxxl::stream::basic_runs_merger&lt; RunsType, CompareType, AllocStr &gt;</title>
<!-- Node1 -->
<g id="node1" class="node"><title>Node1</title>
<polygon fill="#bfbfbf" stroke="black" points="136.5,-92.5 136.5,-139.5 269.5,-139.5 269.5,-92.5 136.5,-92.5"/>
<text text-anchor="start" x="144.5" y="-126.5" font-family="Helvetica,sans-Serif" font-size="10.00">stxxl::stream::basic</text>
<text text-anchor="start" x="144.5" y="-113.5" font-family="Helvetica,sans-Serif" font-size="10.00">_runs_merger&lt; RunsType,</text>
<text text-anchor="middle" x="203" y="-100.5" font-family="Helvetica,sans-Serif" font-size="10.00"> CompareType, AllocStr &gt;</text>
</g>
<!-- Node3 -->
<g id="node5" class="node"><title>Node3</title>
<a xlink:href="classstxxl_1_1stream_1_1runs__merger.html" target="_top" xlink:title="Merges sorted runs. ">
<polygon fill="none" stroke="black" points="452,-92.5 452,-139.5 604,-139.5 604,-92.5 452,-92.5"/>
<text text-anchor="start" x="460" y="-126.5" font-family="Helvetica,sans-Serif" font-size="10.00">stxxl::stream::runs</text>
<text text-anchor="start" x="460" y="-113.5" font-family="Helvetica,sans-Serif" font-size="10.00">_merger&lt; RunsType, Compare</text>
<text text-anchor="middle" x="528" y="-100.5" font-family="Helvetica,sans-Serif" font-size="10.00">Type, AllocStr &gt;</text>
</a>
</g>
<!-- Node1&#45;&gt;Node3 -->
<g id="edge4" class="edge"><title>Node1&#45;&gt;Node3</title>
<path fill="none" stroke="midnightblue" d="M279.715,-116C331.667,-116 400.019,-116 451.852,-116"/>
<polygon fill="midnightblue" stroke="midnightblue" points="279.553,-112.5 269.553,-116 279.553,-119.5 279.553,-112.5"/>
</g>
<!-- Node6 -->
<g id="node11" class="node"><title>Node6</title>
<a xlink:href="classstxxl_1_1stream_1_1basic__runs__merger.html" target="_top" xlink:title="stxxl::stream::basic\l_runs_merger\&lt; sorted\l_runs_type, CompareType,\l AllocStr \&gt;">
<polygon fill="none" stroke="black" points="460.5,-158 460.5,-218 595.5,-218 595.5,-158 460.5,-158"/>
<text text-anchor="start" x="468.5" y="-205" font-family="Helvetica,sans-Serif" font-size="10.00">stxxl::stream::basic</text>
<text text-anchor="start" x="468.5" y="-192" font-family="Helvetica,sans-Serif" font-size="10.00">_runs_merger&lt; sorted</text>
<text text-anchor="start" x="468.5" y="-179" font-family="Helvetica,sans-Serif" font-size="10.00">_runs_type, CompareType,</text>
<text text-anchor="middle" x="528" y="-166" font-family="Helvetica,sans-Serif" font-size="10.00"> AllocStr &gt;</text>
</a>
</g>
<!-- Node1&#45;&gt;Node6 -->
<g id="edge10" class="edge"><title>Node1&#45;&gt;Node6</title>
<path fill="none" stroke="orange" stroke-dasharray="5,2" d="M279.578,-132.965C334.462,-145.124 407.702,-161.349 460.419,-173.028"/>
<polygon fill="orange" stroke="orange" points="280.073,-129.49 269.553,-130.744 278.559,-136.324 280.073,-129.49"/>
<text text-anchor="start" x="303.5" y="-183" font-family="Helvetica,sans-Serif" font-size="10.00"> &lt; sorted_runs_type,</text>
<text text-anchor="middle" x="361" y="-170" font-family="Helvetica,sans-Serif" font-size="10.00"> CompareType, AllocStr &gt;</text>
</g>
<!-- Node7 -->
<g id="node14" class="node"><title>Node7</title>
<a xlink:href="classstxxl_1_1stream_1_1basic__runs__merger.html" target="_top" xlink:title="stxxl::stream::basic\l_runs_merger\&lt; typename\l runs_creator_type::sorted\l_runs_type, cmp_type, alloc\l_strategy_type \&gt;">
<polygon fill="none" stroke="black" points="458,-0.5 458,-73.5 598,-73.5 598,-0.5 458,-0.5"/>
<text text-anchor="start" x="466" y="-60.5" font-family="Helvetica,sans-Serif" font-size="10.00">stxxl::stream::basic</text>
<text text-anchor="start" x="466" y="-47.5" font-family="Helvetica,sans-Serif" font-size="10.00">_runs_merger&lt; typename</text>
<text text-anchor="start" x="466" y="-34.5" font-family="Helvetica,sans-Serif" font-size="10.00"> runs_creator_type::sorted</text>
<text text-anchor="start" x="466" y="-21.5" font-family="Helvetica,sans-Serif" font-size="10.00">_runs_type, cmp_type, alloc</text>
<text text-anchor="middle" x="528" y="-8.5" font-family="Helvetica,sans-Serif" font-size="10.00">_strategy_type &gt;</text>
</a>
</g>
<!-- Node1&#45;&gt;Node7 -->
<g id="edge14" class="edge"><title>Node1&#45;&gt;Node7</title>
<path fill="none" stroke="orange" stroke-dasharray="5,2" d="M251.969,-87.901C263.494,-82.2342 275.94,-76.8447 288,-73 343.597,-55.2755 409.284,-46.1924 457.87,-41.5883"/>
<polygon fill="orange" stroke="orange" points="250.282,-84.8326 242.95,-92.481 253.451,-91.074 250.282,-84.8326"/>
<text text-anchor="start" x="288" y="-103" font-family="Helvetica,sans-Serif" font-size="10.00"> &lt; typename runs_creator</text>
<text text-anchor="start" x="288" y="-90" font-family="Helvetica,sans-Serif" font-size="10.00">_type::sorted_runs_type,</text>
<text text-anchor="middle" x="361" y="-77" font-family="Helvetica,sans-Serif" font-size="10.00"> cmp_type, alloc_strategy_type &gt;</text>
</g>
<!-- Node2 -->
<g id="node2" class="node"><title>Node2</title>
<a xlink:href="classstxxl_1_1noncopyable.html" target="_top" xlink:title="stxxl::noncopyable">
<polygon fill="none" stroke="black" points="0,-105.5 0,-126.5 98,-126.5 98,-105.5 0,-105.5"/>
<text text-anchor="middle" x="49" y="-113.5" font-family="Helvetica,sans-Serif" font-size="10.00">stxxl::noncopyable</text>
</a>
</g>
<!-- Node2&#45;&gt;Node1 -->
<g id="edge2" class="edge"><title>Node2&#45;&gt;Node1</title>
<path fill="none" stroke="#8b1a1a" d="M108.325,-116C117.496,-116 127.021,-116 136.34,-116"/>
<polygon fill="#8b1a1a" stroke="#8b1a1a" points="108.15,-112.5 98.15,-116 108.15,-119.5 108.15,-112.5"/>
</g>
<!-- Node4 -->
<g id="node7" class="node"><title>Node4</title>
<a xlink:href="classstxxl_1_1stream_1_1runs__merger.html" target="_top" xlink:title="stxxl::stream::runs\l_merger\&lt; sorted_runs\l_type, CompareType, AllocStr \&gt;">
<polygon fill="none" stroke="black" points="786,-134.5 786,-181.5 944,-181.5 944,-134.5 786,-134.5"/>
<text text-anchor="start" x="794" y="-168.5" font-family="Helvetica,sans-Serif" font-size="10.00">stxxl::stream::runs</text>
<text text-anchor="start" x="794" y="-155.5" font-family="Helvetica,sans-Serif" font-size="10.00">_merger&lt; sorted_runs</text>
<text text-anchor="middle" x="865" y="-142.5" font-family="Helvetica,sans-Serif" font-size="10.00">_type, CompareType, AllocStr &gt;</text>
</a>
</g>
<!-- Node3&#45;&gt;Node4 -->
<g id="edge6" class="edge"><title>Node3&#45;&gt;Node4</title>
<path fill="none" stroke="orange" stroke-dasharray="5,2" d="M614.209,-124.826C659.959,-129.73 717.094,-136.203 768,-143 773.827,-143.778 779.846,-144.619 785.898,-145.491"/>
<polygon fill="orange" stroke="orange" points="614.347,-121.321 604.032,-123.741 613.604,-128.281 614.347,-121.321"/>
<text text-anchor="start" x="637.5" y="-160" font-family="Helvetica,sans-Serif" font-size="10.00"> &lt; sorted_runs_type,</text>
<text text-anchor="middle" x="695" y="-147" font-family="Helvetica,sans-Serif" font-size="10.00"> CompareType, AllocStr &gt;</text>
</g>
<!-- Node5 -->
<g id="node9" class="node"><title>Node5</title>
<a xlink:href="classstxxl_1_1stream_1_1runs__merger.html" target="_top" xlink:title="stxxl::stream::runs\l_merger\&lt; typename runs\l_creator_type::sorted\l_runs_type, cmp_type, alloc\l_strategy_type \&gt;">
<polygon fill="none" stroke="black" points="795,-31.5 795,-104.5 935,-104.5 935,-31.5 795,-31.5"/>
<text text-anchor="start" x="803" y="-91.5" font-family="Helvetica,sans-Serif" font-size="10.00">stxxl::stream::runs</text>
<text text-anchor="start" x="803" y="-78.5" font-family="Helvetica,sans-Serif" font-size="10.00">_merger&lt; typename runs</text>
<text text-anchor="start" x="803" y="-65.5" font-family="Helvetica,sans-Serif" font-size="10.00">_creator_type::sorted</text>
<text text-anchor="start" x="803" y="-52.5" font-family="Helvetica,sans-Serif" font-size="10.00">_runs_type, cmp_type, alloc</text>
<text text-anchor="middle" x="865" y="-39.5" font-family="Helvetica,sans-Serif" font-size="10.00">_strategy_type &gt;</text>
</a>
</g>
<!-- Node3&#45;&gt;Node5 -->
<g id="edge8" class="edge"><title>Node3&#45;&gt;Node5</title>
<path fill="none" stroke="orange" stroke-dasharray="5,2" d="M596.944,-89.3858C605.292,-86.8826 613.775,-84.6641 622,-83 679.482,-71.3696 746.037,-67.9401 794.944,-67.2383"/>
<polygon fill="orange" stroke="orange" points="595.719,-86.1017 587.229,-92.4387 597.818,-92.7797 595.719,-86.1017"/>
<text text-anchor="start" x="622" y="-113" font-family="Helvetica,sans-Serif" font-size="10.00"> &lt; typename runs_creator</text>
<text text-anchor="start" x="622" y="-100" font-family="Helvetica,sans-Serif" font-size="10.00">_type::sorted_runs_type,</text>
<text text-anchor="middle" x="695" y="-87" font-family="Helvetica,sans-Serif" font-size="10.00"> cmp_type, alloc_strategy_type &gt;</text>
</g>
<!-- Node6&#45;&gt;Node4 -->
<g id="edge12" class="edge"><title>Node6&#45;&gt;Node4</title>
<path fill="none" stroke="midnightblue" d="M605.762,-184.935C652.812,-182.634 713.962,-178.855 768,-173 773.845,-172.367 779.876,-171.632 785.937,-170.834"/>
<polygon fill="midnightblue" stroke="midnightblue" points="605.463,-181.445 595.641,-185.417 605.796,-188.437 605.463,-181.445"/>
</g>
<!-- Node7&#45;&gt;Node5 -->
<g id="edge16" class="edge"><title>Node7&#45;&gt;Node5</title>
<path fill="none" stroke="midnightblue" d="M608.147,-44.3244C654.793,-48.593 714.725,-54.0867 768,-59 776.673,-59.7999 785.782,-60.6422 794.801,-61.4774"/>
<polygon fill="midnightblue" stroke="midnightblue" points="608.378,-40.8311 598.101,-43.4053 607.741,-47.802 608.378,-40.8311"/>
</g>
</g>
</svg>
