<?xml version="1.0" encoding="UTF-8" standalone="no"?>
<!DOCTYPE svg PUBLIC "-//W3C//DTD SVG 1.1//EN"
 "http://www.w3.org/Graphics/SVG/1.1/DTD/svg11.dtd">
<!-- Generated by graphviz version 2.26.3 (20100126.1600)
 -->
<!-- Title: stxxl::buf_istream&lt; BlockType, BIDIteratorType &gt; Pages: 1 -->
<svg width="1094pt" height="366pt"
 viewBox="0.00 0.00 1094.00 366.00" xmlns="http://www.w3.org/2000/svg" xmlns:xlink="http://www.w3.org/1999/xlink">
<g id="graph1" class="graph" transform="scale(1 1) rotate(0) translate(4 362)">
<title>stxxl::buf_istream&lt; BlockType, BIDIteratorType &gt;</title>
<!-- Node1 -->
<g id="node1" class="node"><title>Node1</title>
<polygon fill="#bfbfbf" stroke="black" points="928.5,-300 928.5,-334 1085.5,-334 1085.5,-300 928.5,-300"/>
<text text-anchor="start" x="936.5" y="-321" font-family="Helvetica,sans-Serif" font-size="10.00">stxxl::buf_istream</text>
<text text-anchor="middle" x="1007" y="-308" font-family="Helvetica,sans-Serif" font-size="10.00">&lt; BlockType, BIDIteratorType &gt;</text>
</g>
<!-- Node2 -->
<g id="node2" class="node"><title>Node2</title>
<a xlink:href="classstxxl_1_1noncopyable.html" target="_top" xlink:title="stxxl::noncopyable">
<polygon fill="none" stroke="black" points="6,-144.5 6,-165.5 104,-165.5 104,-144.5 6,-144.5"/>
<text text-anchor="middle" x="55" y="-152.5" font-family="Helvetica,sans-Serif" font-size="10.00">stxxl::noncopyable</text>
</a>
</g>
<!-- Node2&#45;&gt;Node1 -->
<g id="edge2" class="edge"><title>Node2&#45;&gt;Node1</title>
<path fill="none" stroke="#8b1a1a" d="M65.533,-174.355C94.7118,-225.082 181.953,-358 295,-358 295,-358 295,-358 780,-358 837.068,-358 900.939,-345.296 946.357,-334.032"/>
<polygon fill="#8b1a1a" stroke="#8b1a1a" points="68.5773,-172.628 60.6236,-165.628 62.4766,-176.06 68.5773,-172.628"/>
</g>
<!-- Node3 -->
<g id="node4" class="node"><title>Node3</title>
<a xlink:href="classstxxl_1_1block__prefetcher.html" target="_top" xlink:title="Encapsulates asynchronous prefetching engine. ">
<polygon fill="none" stroke="black" points="716.5,-187.5 716.5,-234.5 843.5,-234.5 843.5,-187.5 716.5,-187.5"/>
<text text-anchor="start" x="724.5" y="-221.5" font-family="Helvetica,sans-Serif" font-size="10.00">stxxl::block_prefetcher</text>
<text text-anchor="start" x="724.5" y="-208.5" font-family="Helvetica,sans-Serif" font-size="10.00">&lt; block_type, bid_iterator</text>
<text text-anchor="middle" x="780" y="-195.5" font-family="Helvetica,sans-Serif" font-size="10.00">_type &gt;</text>
</a>
</g>
<!-- Node2&#45;&gt;Node3 -->
<g id="edge6" class="edge"><title>Node2&#45;&gt;Node3</title>
<path fill="none" stroke="#8b1a1a" d="M114.387,-167.028C118.982,-167.763 123.56,-168.433 128,-169 342.626,-196.384 599.399,-206.278 716.35,-209.542"/>
<polygon fill="#8b1a1a" stroke="#8b1a1a" points="114.787,-163.546 104.343,-165.33 113.62,-170.448 114.787,-163.546"/>
</g>
<!-- Node6 -->
<g id="node11" class="node"><title>Node6</title>
<a xlink:href="classstxxl_1_1onoff__switch.html" target="_top" xlink:title="stxxl::onoff_switch">
<polygon fill="none" stroke="black" points="500.5,-123.5 500.5,-144.5 599.5,-144.5 599.5,-123.5 500.5,-123.5"/>
<text text-anchor="middle" x="550" y="-131.5" font-family="Helvetica,sans-Serif" font-size="10.00">stxxl::onoff_switch</text>
</a>
</g>
<!-- Node2&#45;&gt;Node6 -->
<g id="edge14" class="edge"><title>Node2&#45;&gt;Node6</title>
<path fill="none" stroke="#8b1a1a" d="M86.7682,-140.333C121.892,-125.081 180.586,-102.413 234,-95 337.197,-80.6779 366.106,-87.2671 468,-109 485.467,-112.725 504.576,-118.451 519.95,-123.484"/>
<polygon fill="#8b1a1a" stroke="#8b1a1a" points="85.2455,-137.18 77.5105,-144.42 88.0723,-143.584 85.2455,-137.18"/>
</g>
<!-- Node7 -->
<g id="node14" class="node"><title>Node7</title>
<a xlink:href="classstxxl_1_1mutex.html" target="_top" xlink:title="stxxl::mutex">
<polygon fill="none" stroke="black" points="259.5,-144.5 259.5,-165.5 330.5,-165.5 330.5,-144.5 259.5,-144.5"/>
<text text-anchor="middle" x="295" y="-152.5" font-family="Helvetica,sans-Serif" font-size="10.00">stxxl::mutex</text>
</a>
</g>
<!-- Node2&#45;&gt;Node7 -->
<g id="edge18" class="edge"><title>Node2&#45;&gt;Node7</title>
<path fill="none" stroke="#8b1a1a" d="M114.172,-155C159.627,-155 220.914,-155 259.183,-155"/>
<polygon fill="#8b1a1a" stroke="#8b1a1a" points="114.147,-151.5 104.147,-155 114.147,-158.5 114.147,-151.5"/>
</g>
<!-- Node8 -->
<g id="node17" class="node"><title>Node8</title>
<a xlink:href="classstxxl_1_1condition__variable.html" target="_top" xlink:title="stxxl::condition_variable">
<polygon fill="none" stroke="black" points="234,-104.5 234,-125.5 356,-125.5 356,-104.5 234,-104.5"/>
<text text-anchor="middle" x="295" y="-112.5" font-family="Helvetica,sans-Serif" font-size="10.00">stxxl::condition_variable</text>
</a>
</g>
<!-- Node2&#45;&gt;Node8 -->
<g id="edge22" class="edge"><title>Node2&#45;&gt;Node8</title>
<path fill="none" stroke="#8b1a1a" d="M114.138,-145.144C150.576,-139.071 197.198,-131.3 233.98,-125.17"/>
<polygon fill="#8b1a1a" stroke="#8b1a1a" points="113.435,-141.712 104.147,-146.809 114.586,-148.617 113.435,-141.712"/>
</g>
<!-- Node3&#45;&gt;Node1 -->
<g id="edge4" class="edge"><title>Node3&#45;&gt;Node1</title>
<path fill="none" stroke="#9a32cd" stroke-dasharray="5,2" d="M839.576,-238.819C881.12,-258.219 935.222,-283.483 970.517,-299.964"/>
<polygon fill="#9a32cd" stroke="#9a32cd" points="840.92,-235.585 830.379,-234.525 837.959,-241.927 840.92,-235.585"/>
<text text-anchor="middle" x="886" y="-274" font-family="Helvetica,sans-Serif" font-size="10.00"> prefetcher</text>
</g>
<!-- Node4 -->
<g id="node7" class="node"><title>Node4</title>
<a xlink:href="structstxxl_1_1choose__int__types.html" target="_top" xlink:title="stxxl::choose_int_types\l\&lt; my_pointer_size \&gt;">
<polygon fill="none" stroke="black" points="490,-285 490,-319 610,-319 610,-285 490,-285"/>
<text text-anchor="start" x="498" y="-306" font-family="Helvetica,sans-Serif" font-size="10.00">stxxl::choose_int_types</text>
<text text-anchor="middle" x="550" y="-293" font-family="Helvetica,sans-Serif" font-size="10.00">&lt; my_pointer_size &gt;</text>
</a>
</g>
<!-- Node4&#45;&gt;Node1 -->
<g id="edge32" class="edge"><title>Node4&#45;&gt;Node1</title>
<path fill="none" stroke="#9a32cd" stroke-dasharray="5,2" d="M620.328,-304.308C703.501,-307.038 841.566,-311.57 928.251,-314.415"/>
<polygon fill="#9a32cd" stroke="#9a32cd" points="620.324,-300.806 610.215,-303.976 620.094,-307.803 620.324,-300.806"/>
<text text-anchor="middle" x="780" y="-315" font-family="Helvetica,sans-Serif" font-size="10.00"> current_elem</text>
</g>
<!-- Node4&#45;&gt;Node3 -->
<g id="edge8" class="edge"><title>Node4&#45;&gt;Node3</title>
<path fill="none" stroke="#9a32cd" stroke-dasharray="5,2" d="M593.882,-280.695C606.115,-275.022 619.483,-269.067 632,-264 660.794,-252.344 668.746,-251.448 698,-241 703.996,-238.859 710.231,-236.612 716.467,-234.353"/>
<polygon fill="#9a32cd" stroke="#9a32cd" points="592.352,-277.546 584.781,-284.959 595.322,-283.885 592.352,-277.546"/>
<text text-anchor="middle" x="665" y="-294" font-family="Helvetica,sans-Serif" font-size="10.00"> seq_length</text>
<text text-anchor="middle" x="665" y="-281" font-family="Helvetica,sans-Serif" font-size="10.00">nextconsume</text>
<text text-anchor="middle" x="665" y="-268" font-family="Helvetica,sans-Serif" font-size="10.00">nextread</text>
</g>
<!-- Node5 -->
<g id="node9" class="node"><title>Node5</title>
<a xlink:href="structstxxl_1_1choose__int__types.html" target="_top" xlink:title="stxxl::choose_int_types\l\&lt; PtrSize \&gt;">
<polygon fill="none" stroke="black" points="235,-285 235,-319 355,-319 355,-285 235,-285"/>
<text text-anchor="start" x="243" y="-306" font-family="Helvetica,sans-Serif" font-size="10.00">stxxl::choose_int_types</text>
<text text-anchor="middle" x="295" y="-293" font-family="Helvetica,sans-Serif" font-size="10.00">&lt; PtrSize &gt;</text>
</a>
</g>
<!-- Node5&#45;&gt;Node4 -->
<g id="edge10" class="edge"><title>Node5&#45;&gt;Node4</title>
<path fill="none" stroke="orange" stroke-dasharray="5,2" d="M365.354,-302C404.432,-302 452.541,-302 489.854,-302"/>
<polygon fill="orange" stroke="orange" points="365.109,-298.5 355.109,-302 365.109,-305.5 365.109,-298.5"/>
<text text-anchor="middle" x="421" y="-306" font-family="Helvetica,sans-Serif" font-size="10.00"> &lt; my_pointer_size &gt;</text>
</g>
<!-- Node6&#45;&gt;Node3 -->
<g id="edge12" class="edge"><title>Node6&#45;&gt;Node3</title>
<path fill="none" stroke="#9a32cd" stroke-dasharray="5,2" d="M609.488,-143.419C636.938,-148.734 669.65,-156.46 698,-167 712.689,-172.461 728.019,-180.101 741.396,-187.484"/>
<polygon fill="#9a32cd" stroke="#9a32cd" points="610.105,-139.974 599.631,-141.569 608.814,-146.854 610.105,-139.974"/>
<text text-anchor="middle" x="665" y="-171" font-family="Helvetica,sans-Serif" font-size="10.00"> completed</text>
</g>
<!-- Node7&#45;&gt;Node6 -->
<g id="edge16" class="edge"><title>Node7&#45;&gt;Node6</title>
<path fill="none" stroke="#9a32cd" stroke-dasharray="5,2" d="M340.761,-151.231C385.619,-147.537 453.813,-141.921 500.056,-138.113"/>
<polygon fill="#9a32cd" stroke="#9a32cd" points="340.404,-147.749 330.725,-152.058 340.979,-154.725 340.404,-147.749"/>
<text text-anchor="middle" x="421" y="-152" font-family="Helvetica,sans-Serif" font-size="10.00"> m_mutex</text>
</g>
<!-- Node8&#45;&gt;Node6 -->
<g id="edge20" class="edge"><title>Node8&#45;&gt;Node6</title>
<path fill="none" stroke="#9a32cd" stroke-dasharray="5,2" d="M366.374,-113.433C397.641,-113.469 434.719,-114.492 468,-118 479.54,-119.216 491.875,-121.235 503.382,-123.436"/>
<polygon fill="#9a32cd" stroke="#9a32cd" points="365.999,-109.933 356.007,-113.456 366.015,-116.933 365.999,-109.933"/>
<text text-anchor="middle" x="421" y="-122" font-family="Helvetica,sans-Serif" font-size="10.00"> m_cond</text>
</g>
<!-- Node9 -->
<g id="node20" class="node"><title>Node9</title>
<a xlink:href="classstxxl_1_1counting__ptr.html" target="_top" xlink:title="High&#45;performance smart pointer used as a wrapping reference counting pointer. ">
<polygon fill="none" stroke="black" points="501.5,-222 501.5,-256 598.5,-256 598.5,-222 501.5,-222"/>
<text text-anchor="start" x="509.5" y="-243" font-family="Helvetica,sans-Serif" font-size="10.00">stxxl::counting_ptr</text>
<text text-anchor="middle" x="550" y="-230" font-family="Helvetica,sans-Serif" font-size="10.00">&lt; Type &gt;</text>
</a>
</g>
<!-- Node9&#45;&gt;Node3 -->
<g id="edge24" class="edge"><title>Node9&#45;&gt;Node3</title>
<path fill="none" stroke="#9a32cd" stroke-dasharray="5,2" d="M608.466,-231.019C616.373,-229.98 624.383,-228.948 632,-228 659.59,-224.565 690.106,-221.017 716.226,-218.057"/>
<polygon fill="#9a32cd" stroke="#9a32cd" points="607.997,-227.55 598.543,-232.333 608.916,-234.49 607.997,-227.55"/>
<text text-anchor="middle" x="665" y="-232" font-family="Helvetica,sans-Serif" font-size="10.00"> read_reqs</text>
</g>
<!-- Node10 -->
<g id="node22" class="node"><title>Node10</title>
<a xlink:href="classstxxl_1_1completion__handler.html" target="_top" xlink:title="Completion handler class (Loki&#45;style). ">
<polygon fill="none" stroke="black" points="486,-63.5 486,-84.5 614,-84.5 614,-63.5 486,-63.5"/>
<text text-anchor="middle" x="550" y="-71.5" font-family="Helvetica,sans-Serif" font-size="10.00">stxxl::completion_handler</text>
</a>
</g>
<!-- Node10&#45;&gt;Node3 -->
<g id="edge26" class="edge"><title>Node10&#45;&gt;Node3</title>
<path fill="none" stroke="#9a32cd" stroke-dasharray="5,2" d="M599.566,-87.5315C629.496,-97.0179 667.6,-111.5 698,-131 722.107,-146.463 745.039,-169.843 760.49,-187.34"/>
<polygon fill="#9a32cd" stroke="#9a32cd" points="600.339,-84.1073 589.751,-84.5058 598.276,-90.7967 600.339,-84.1073"/>
<text text-anchor="middle" x="665" y="-135" font-family="Helvetica,sans-Serif" font-size="10.00"> do_after_fetch</text>
</g>
<!-- Node11 -->
<g id="node24" class="node"><title>Node11</title>
<a xlink:href="structstxxl_1_1compat__unique__ptr.html" target="_top" xlink:title="stxxl::compat_unique\l_ptr\&lt; stxxl::completion\l_handler_impl \&gt;">
<polygon fill="none" stroke="black" points="237,-0.5 237,-47.5 353,-47.5 353,-0.5 237,-0.5"/>
<text text-anchor="start" x="245" y="-34.5" font-family="Helvetica,sans-Serif" font-size="10.00">stxxl::compat_unique</text>
<text text-anchor="start" x="245" y="-21.5" font-family="Helvetica,sans-Serif" font-size="10.00">_ptr&lt; stxxl::completion</text>
<text text-anchor="middle" x="295" y="-8.5" font-family="Helvetica,sans-Serif" font-size="10.00">_handler_impl &gt;</text>
</a>
</g>
<!-- Node11&#45;&gt;Node10 -->
<g id="edge28" class="edge"><title>Node11&#45;&gt;Node10</title>
<path fill="none" stroke="#9a32cd" stroke-dasharray="5,2" d="M363.219,-31.4219C395.236,-35.5256 433.792,-41.3605 468,-49 485.14,-52.8278 503.901,-58.4384 519.147,-63.375"/>
<polygon fill="#9a32cd" stroke="#9a32cd" points="363.425,-27.9204 353.068,-30.1503 362.555,-34.8661 363.425,-27.9204"/>
<text text-anchor="middle" x="421" y="-53" font-family="Helvetica,sans-Serif" font-size="10.00"> sp_impl_</text>
</g>
<!-- Node12 -->
<g id="node26" class="node"><title>Node12</title>
<a xlink:href="structstxxl_1_1compat__unique__ptr.html" target="_top" xlink:title="stxxl::compat_unique\l_ptr\&lt; Type \&gt;">
<polygon fill="none" stroke="black" points="0,-7 0,-41 110,-41 110,-7 0,-7"/>
<text text-anchor="start" x="8" y="-28" font-family="Helvetica,sans-Serif" font-size="10.00">stxxl::compat_unique</text>
<text text-anchor="middle" x="55" y="-15" font-family="Helvetica,sans-Serif" font-size="10.00">_ptr&lt; Type &gt;</text>
</a>
</g>
<!-- Node12&#45;&gt;Node11 -->
<g id="edge30" class="edge"><title>Node12&#45;&gt;Node11</title>
<path fill="none" stroke="orange" stroke-dasharray="5,2" d="M120.096,-24C156.538,-24 201.593,-24 236.848,-24"/>
<polygon fill="orange" stroke="orange" points="120.061,-20.5001 110.061,-24 120.061,-27.5001 120.061,-20.5001"/>
<text text-anchor="start" x="128.5" y="-41" font-family="Helvetica,sans-Serif" font-size="10.00"> &lt; stxxl::completion</text>
<text text-anchor="middle" x="172" y="-28" font-family="Helvetica,sans-Serif" font-size="10.00">_handler_impl &gt;</text>
</g>
</g>
</svg>
