<?xml version="1.0" encoding="UTF-8" standalone="no"?>
<!DOCTYPE svg PUBLIC "-//W3C//DTD SVG 1.1//EN"
 "http://www.w3.org/Graphics/SVG/1.1/DTD/svg11.dtd">
<!-- Generated by graphviz version 2.38.0 (20140413.2041)
 -->
<!-- Title: stxxl::buffered_writer&lt; BlockType &gt; Pages: 1 -->
<svg width="248pt" height="174pt"
 viewBox="0.00 0.00 248.00 174.00" xmlns="http://www.w3.org/2000/svg" xmlns:xlink="http://www.w3.org/1999/xlink">
<g id="graph0" class="graph" transform="scale(1 1) rotate(0) translate(4 170)">
<title>stxxl::buffered_writer&lt; BlockType &gt;</title>
<!-- Node1 -->
<g id="node1" class="node"><title>Node1</title>
<polygon fill="#bfbfbf" stroke="black" points="67,-78.5 67,-108.5 175,-108.5 175,-78.5 67,-78.5"/>
<text text-anchor="start" x="75" y="-96.5" font-family="Helvetica,sans-Serif" font-size="10.00">stxxl::buffered_writer</text>
<text text-anchor="middle" x="121" y="-85.5" font-family="Helvetica,sans-Serif" font-size="10.00">&lt; BlockType &gt;</text>
</g>
<!-- Node3 -->
<g id="node3" class="node"><title>Node3</title>
<g id="a_node3"><a xlink:href="classstxxl_1_1buffered__writer.html" target="_top" xlink:title="stxxl::buffered_writer\l\&lt; stxxl::typed_block \&gt;">
<polygon fill="none" stroke="black" points="0,-0.5 0,-30.5 114,-30.5 114,-0.5 0,-0.5"/>
<text text-anchor="start" x="8" y="-18.5" font-family="Helvetica,sans-Serif" font-size="10.00">stxxl::buffered_writer</text>
<text text-anchor="middle" x="57" y="-7.5" font-family="Helvetica,sans-Serif" font-size="10.00">&lt; stxxl::typed_block &gt;</text>
</a>
</g>
</g>
<!-- Node1&#45;&gt;Node3 -->
<g id="edge2" class="edge"><title>Node1&#45;&gt;Node3</title>
<path fill="none" stroke="orange" stroke-dasharray="5,2" d="M75.4393,-72.7648C70.6562,-69.12 66.3331,-64.8871 63,-60 57.1581,-51.4344 55.8299,-39.6929 55.8683,-30.5673"/>
<polygon fill="orange" stroke="orange" points="73.567,-75.723 83.8297,-78.3551 77.4484,-69.8976 73.567,-75.723"/>
<text text-anchor="middle" x="113.5" y="-52" font-family="Helvetica,sans-Serif" font-size="10.00"> &lt; stxxl::typed_block &gt;</text>
</g>
<!-- Node4 -->
<g id="node4" class="node"><title>Node4</title>
<g id="a_node4"><a xlink:href="classstxxl_1_1buffered__writer.html" target="_top" xlink:title="stxxl::buffered_writer\l\&lt; block_type \&gt;">
<polygon fill="none" stroke="black" points="132,-0.5 132,-30.5 240,-30.5 240,-0.5 132,-0.5"/>
<text text-anchor="start" x="140" y="-18.5" font-family="Helvetica,sans-Serif" font-size="10.00">stxxl::buffered_writer</text>
<text text-anchor="middle" x="186" y="-7.5" font-family="Helvetica,sans-Serif" font-size="10.00">&lt; block_type &gt;</text>
</a>
</g>
</g>
<!-- Node1&#45;&gt;Node4 -->
<g id="edge3" class="edge"><title>Node1&#45;&gt;Node4</title>
<path fill="none" stroke="orange" stroke-dasharray="5,2" d="M151.691,-72.0967C156.126,-68.3835 160.401,-64.3091 164,-60 171.27,-51.2966 176.957,-39.7861 180.726,-30.7919"/>
<polygon fill="orange" stroke="orange" points="149.385,-69.4568 143.646,-78.3627 153.686,-74.9795 149.385,-69.4568"/>
<text text-anchor="middle" x="205.5" y="-52" font-family="Helvetica,sans-Serif" font-size="10.00"> &lt; block_type &gt;</text>
</g>
<!-- Node2 -->
<g id="node2" class="node"><title>Node2</title>
<g id="a_node2"><a xlink:href="classstxxl_1_1noncopyable.html" target="_top" xlink:title="stxxl::noncopyable">
<polygon fill="none" stroke="black" points="72,-146.5 72,-165.5 170,-165.5 170,-146.5 72,-146.5"/>
<text text-anchor="middle" x="121" y="-153.5" font-family="Helvetica,sans-Serif" font-size="10.00">stxxl::noncopyable</text>
</a>
</g>
</g>
<!-- Node2&#45;&gt;Node1 -->
<g id="edge1" class="edge"><title>Node2&#45;&gt;Node1</title>
<path fill="none" stroke="#8b1a1a" d="M121,-136.215C121,-127.356 121,-116.958 121,-108.759"/>
<polygon fill="#8b1a1a" stroke="#8b1a1a" points="117.5,-136.332 121,-146.332 124.5,-136.332 117.5,-136.332"/>
</g>
</g>
</svg>
