<?xml version="1.0" encoding="UTF-8" standalone="no"?>
<!DOCTYPE svg PUBLIC "-//W3C//DTD SVG 1.1//EN"
 "http://www.w3.org/Graphics/SVG/1.1/DTD/svg11.dtd">
<!-- Generated by graphviz version 2.38.0 (20140413.2041)
 -->
<!-- Title: stxxl::hash_map::hash_map_iterator&lt; HashMap &gt; Pages: 1 -->
<svg width="277pt" height="363pt"
 viewBox="0.00 0.00 277.00 363.00" xmlns="http://www.w3.org/2000/svg" xmlns:xlink="http://www.w3.org/1999/xlink">
<g id="graph0" class="graph" transform="scale(1 1) rotate(0) translate(4 359)">
<title>stxxl::hash_map::hash_map_iterator&lt; HashMap &gt;</title>
<!-- Node1 -->
<g id="node1" class="node"><title>Node1</title>
<polygon fill="#bfbfbf" stroke="black" points="21,-0.5 21,-30.5 157,-30.5 157,-0.5 21,-0.5"/>
<text text-anchor="start" x="29" y="-18.5" font-family="Helvetica,sans-Serif" font-size="10.00">stxxl::hash_map::hash</text>
<text text-anchor="middle" x="89" y="-7.5" font-family="Helvetica,sans-Serif" font-size="10.00">_map_iterator&lt; HashMap &gt;</text>
</g>
<!-- Node2 -->
<g id="node2" class="node"><title>Node2</title>
<g id="a_node2"><a xlink:href="classstxxl_1_1hash__map_1_1hash__map__iterator__base.html" target="_top" xlink:title="stxxl::hash_map::hash\l_map_iterator_base\&lt; HashMap \&gt;">
<polygon fill="none" stroke="black" points="8,-68.5 8,-98.5 170,-98.5 170,-68.5 8,-68.5"/>
<text text-anchor="start" x="16" y="-86.5" font-family="Helvetica,sans-Serif" font-size="10.00">stxxl::hash_map::hash</text>
<text text-anchor="middle" x="89" y="-75.5" font-family="Helvetica,sans-Serif" font-size="10.00">_map_iterator_base&lt; HashMap &gt;</text>
</a>
</g>
</g>
<!-- Node2&#45;&gt;Node1 -->
<g id="edge1" class="edge"><title>Node2&#45;&gt;Node1</title>
<path fill="none" stroke="midnightblue" d="M89,-58.0322C89,-48.8606 89,-38.7449 89,-30.7931"/>
<polygon fill="midnightblue" stroke="midnightblue" points="85.5001,-58.1789 89,-68.179 92.5001,-58.179 85.5001,-58.1789"/>
</g>
<!-- Node3 -->
<g id="node3" class="node"><title>Node3</title>
<g id="a_node3"><a xlink:href="classstxxl_1_1hash__map_1_1buffered__reader.html" target="_top" xlink:title="Used to scan external memory with prefetching. ">
<polygon fill="none" stroke="black" points="5,-146.5 5,-176.5 173,-176.5 173,-146.5 5,-146.5"/>
<text text-anchor="start" x="13" y="-164.5" font-family="Helvetica,sans-Serif" font-size="10.00">stxxl::hash_map::buffered</text>
<text text-anchor="middle" x="89" y="-153.5" font-family="Helvetica,sans-Serif" font-size="10.00">_reader&lt; CacheType, BidIterator &gt;</text>
</a>
</g>
</g>
<!-- Node3&#45;&gt;Node2 -->
<g id="edge2" class="edge"><title>Node3&#45;&gt;Node2</title>
<path fill="none" stroke="#9a32cd" stroke-dasharray="5,2" d="M89,-136.09C89,-123.757 89,-109.224 89,-98.7309"/>
<polygon fill="#9a32cd" stroke="#9a32cd" points="85.5001,-136.205 89,-146.205 92.5001,-136.205 85.5001,-136.205"/>
<text text-anchor="middle" x="107" y="-120" font-family="Helvetica,sans-Serif" font-size="10.00"> reader_</text>
</g>
<!-- Node4 -->
<g id="node4" class="node"><title>Node4</title>
<g id="a_node4"><a xlink:href="classstxxl_1_1noncopyable.html" target="_top" xlink:title="stxxl::noncopyable">
<polygon fill="none" stroke="black" points="0,-252 0,-271 98,-271 98,-252 0,-252"/>
<text text-anchor="middle" x="49" y="-259" font-family="Helvetica,sans-Serif" font-size="10.00">stxxl::noncopyable</text>
</a>
</g>
</g>
<!-- Node4&#45;&gt;Node3 -->
<g id="edge3" class="edge"><title>Node4&#45;&gt;Node3</title>
<path fill="none" stroke="#8b1a1a" d="M56.3532,-242.485C64.1,-223.505 76.1395,-194.008 83.2297,-176.637"/>
<polygon fill="#8b1a1a" stroke="#8b1a1a" points="53.0883,-241.222 52.5497,-251.803 59.5692,-243.867 53.0883,-241.222"/>
</g>
<!-- Node5 -->
<g id="node5" class="node"><title>Node5</title>
<g id="a_node5"><a xlink:href="structstxxl_1_1choose__int__types.html" target="_top" xlink:title="stxxl::choose_int_types\l\&lt; my_pointer_size \&gt;">
<polygon fill="none" stroke="black" points="116,-246.5 116,-276.5 236,-276.5 236,-246.5 116,-246.5"/>
<text text-anchor="start" x="124" y="-264.5" font-family="Helvetica,sans-Serif" font-size="10.00">stxxl::choose_int_types</text>
<text text-anchor="middle" x="176" y="-253.5" font-family="Helvetica,sans-Serif" font-size="10.00">&lt; my_pointer_size &gt;</text>
</a>
</g>
</g>
<!-- Node5&#45;&gt;Node3 -->
<g id="edge4" class="edge"><title>Node5&#45;&gt;Node3</title>
<path fill="none" stroke="#9a32cd" stroke-dasharray="5,2" d="M156.796,-238.868C139.935,-219.875 115.903,-192.805 101.442,-176.515"/>
<polygon fill="#9a32cd" stroke="#9a32cd" points="154.279,-241.304 163.535,-246.459 159.514,-236.657 154.279,-241.304"/>
<text text-anchor="middle" x="183" y="-220" font-family="Helvetica,sans-Serif" font-size="10.00"> prefetch_pages_</text>
<text text-anchor="middle" x="183" y="-209" font-family="Helvetica,sans-Serif" font-size="10.00">i_value_</text>
<text text-anchor="middle" x="183" y="-198" font-family="Helvetica,sans-Serif" font-size="10.00">page_size_</text>
</g>
<!-- Node6 -->
<g id="node6" class="node"><title>Node6</title>
<g id="a_node6"><a xlink:href="structstxxl_1_1choose__int__types.html" target="_top" xlink:title="stxxl::choose_int_types\l\&lt; PtrSize \&gt;">
<polygon fill="none" stroke="black" points="116,-324.5 116,-354.5 236,-354.5 236,-324.5 116,-324.5"/>
<text text-anchor="start" x="124" y="-342.5" font-family="Helvetica,sans-Serif" font-size="10.00">stxxl::choose_int_types</text>
<text text-anchor="middle" x="176" y="-331.5" font-family="Helvetica,sans-Serif" font-size="10.00">&lt; PtrSize &gt;</text>
</a>
</g>
</g>
<!-- Node6&#45;&gt;Node5 -->
<g id="edge5" class="edge"><title>Node6&#45;&gt;Node5</title>
<path fill="none" stroke="orange" stroke-dasharray="5,2" d="M176,-314.09C176,-301.757 176,-287.224 176,-276.731"/>
<polygon fill="orange" stroke="orange" points="172.5,-314.205 176,-324.205 179.5,-314.205 172.5,-314.205"/>
<text text-anchor="middle" x="222.5" y="-298" font-family="Helvetica,sans-Serif" font-size="10.00"> &lt; my_pointer_size &gt;</text>
</g>
</g>
</svg>
