<?xml version="1.0" encoding="UTF-8" standalone="no"?>
<!DOCTYPE svg PUBLIC "-//W3C//DTD SVG 1.1//EN"
 "http://www.w3.org/Graphics/SVG/1.1/DTD/svg11.dtd">
<!-- Generated by graphviz version 2.38.0 (20140413.2041)
 -->
<!-- Title: stxxl::atomic_counted_object Pages: 1 -->
<svg width="292pt" height="195pt"
 viewBox="0.00 0.00 292.00 195.00" xmlns="http://www.w3.org/2000/svg" xmlns:xlink="http://www.w3.org/1999/xlink">
<g id="graph0" class="graph" transform="scale(1 1) rotate(0) translate(4 191)">
<title>stxxl::atomic_counted_object</title>
<!-- Node1 -->
<g id="node1" class="node"><title>Node1</title>
<polygon fill="#bfbfbf" stroke="black" points="63.5,-0.5 63.5,-30.5 176.5,-30.5 176.5,-0.5 63.5,-0.5"/>
<text text-anchor="start" x="71.5" y="-18.5" font-family="Helvetica,sans-Serif" font-size="10.00">stxxl::atomic_counted</text>
<text text-anchor="middle" x="120" y="-7.5" font-family="Helvetica,sans-Serif" font-size="10.00">_object</text>
</g>
<!-- Node2 -->
<g id="node2" class="node"><title>Node2</title>
<g id="a_node2"><a xlink:href="classstxxl_1_1mutex.html" target="_top" xlink:title="stxxl::mutex">
<polygon fill="none" stroke="black" points="13.5,-84 13.5,-103 84.5,-103 84.5,-84 13.5,-84"/>
<text text-anchor="middle" x="49" y="-91" font-family="Helvetica,sans-Serif" font-size="10.00">stxxl::mutex</text>
</a>
</g>
</g>
<!-- Node2&#45;&gt;Node1 -->
<g id="edge1" class="edge"><title>Node2&#45;&gt;Node1</title>
<path fill="none" stroke="#9a32cd" stroke-dasharray="5,2" d="M45.2073,-73.5757C44.5858,-65.4135 45.3355,-56.1264 50,-49 55.1365,-41.1524 62.6977,-35.1665 70.9736,-30.611"/>
<polygon fill="#9a32cd" stroke="#9a32cd" points="41.7756,-74.3013 46.6659,-83.7 48.7041,-73.3031 41.7756,-74.3013"/>
<text text-anchor="middle" x="109.5" y="-52" font-family="Helvetica,sans-Serif" font-size="10.00"> m_reference_count_mutex</text>
</g>
<!-- Node3 -->
<g id="node3" class="node"><title>Node3</title>
<g id="a_node3"><a xlink:href="classstxxl_1_1noncopyable.html" target="_top" xlink:title="stxxl::noncopyable">
<polygon fill="none" stroke="black" points="0,-162 0,-181 98,-181 98,-162 0,-162"/>
<text text-anchor="middle" x="49" y="-169" font-family="Helvetica,sans-Serif" font-size="10.00">stxxl::noncopyable</text>
</a>
</g>
</g>
<!-- Node3&#45;&gt;Node2 -->
<g id="edge2" class="edge"><title>Node3&#45;&gt;Node2</title>
<path fill="none" stroke="#8b1a1a" d="M49,-151.724C49,-136.197 49,-114.858 49,-103.116"/>
<polygon fill="#8b1a1a" stroke="#8b1a1a" points="45.5001,-151.782 49,-161.782 52.5001,-151.782 45.5001,-151.782"/>
</g>
<!-- Node4 -->
<g id="node4" class="node"><title>Node4</title>
<g id="a_node4"><a xlink:href="structstxxl_1_1choose__int__types.html" target="_top" xlink:title="stxxl::choose_int_types\l\&lt; my_pointer_size \&gt;">
<polygon fill="none" stroke="black" points="131,-78.5 131,-108.5 251,-108.5 251,-78.5 131,-78.5"/>
<text text-anchor="start" x="139" y="-96.5" font-family="Helvetica,sans-Serif" font-size="10.00">stxxl::choose_int_types</text>
<text text-anchor="middle" x="191" y="-85.5" font-family="Helvetica,sans-Serif" font-size="10.00">&lt; my_pointer_size &gt;</text>
</a>
</g>
</g>
<!-- Node4&#45;&gt;Node1 -->
<g id="edge3" class="edge"><title>Node4&#45;&gt;Node1</title>
<path fill="none" stroke="#9a32cd" stroke-dasharray="5,2" d="M181.782,-68.8397C178.411,-61.9752 174.138,-54.7795 169,-49 162.693,-41.9048 154.501,-35.6756 146.627,-30.6195"/>
<polygon fill="#9a32cd" stroke="#9a32cd" points="178.801,-70.7494 186.071,-78.4567 185.194,-67.8982 178.801,-70.7494"/>
<text text-anchor="middle" x="220.5" y="-52" font-family="Helvetica,sans-Serif" font-size="10.00"> m_reference_count</text>
</g>
<!-- Node5 -->
<g id="node5" class="node"><title>Node5</title>
<g id="a_node5"><a xlink:href="structstxxl_1_1choose__int__types.html" target="_top" xlink:title="stxxl::choose_int_types\l\&lt; PtrSize \&gt;">
<polygon fill="none" stroke="black" points="131,-156.5 131,-186.5 251,-186.5 251,-156.5 131,-156.5"/>
<text text-anchor="start" x="139" y="-174.5" font-family="Helvetica,sans-Serif" font-size="10.00">stxxl::choose_int_types</text>
<text text-anchor="middle" x="191" y="-163.5" font-family="Helvetica,sans-Serif" font-size="10.00">&lt; PtrSize &gt;</text>
</a>
</g>
</g>
<!-- Node5&#45;&gt;Node4 -->
<g id="edge4" class="edge"><title>Node5&#45;&gt;Node4</title>
<path fill="none" stroke="orange" stroke-dasharray="5,2" d="M191,-146.09C191,-133.757 191,-119.224 191,-108.731"/>
<polygon fill="orange" stroke="orange" points="187.5,-146.205 191,-156.205 194.5,-146.205 187.5,-146.205"/>
<text text-anchor="middle" x="237.5" y="-130" font-family="Helvetica,sans-Serif" font-size="10.00"> &lt; my_pointer_size &gt;</text>
</g>
</g>
</svg>
