<?xml version="1.0" encoding="UTF-8" standalone="no"?>
<!DOCTYPE svg PUBLIC "-//W3C//DTD SVG 1.1//EN"
 "http://www.w3.org/Graphics/SVG/1.1/DTD/svg11.dtd">
<!-- Generated by graphviz version 2.26.3 (20100126.1600)
 -->
<!-- Title: stxxl::simple_vector&lt; ValueType &gt; Pages: 1 -->
<svg width="952pt" height="322pt"
 viewBox="0.00 0.00 952.00 322.00" xmlns="http://www.w3.org/2000/svg" xmlns:xlink="http://www.w3.org/1999/xlink">
<g id="graph1" class="graph" transform="scale(1 1) rotate(0) translate(4 318)">
<title>stxxl::simple_vector&lt; ValueType &gt;</title>
<!-- Node1 -->
<g id="node1" class="node"><title>Node1</title>
<polygon fill="#bfbfbf" stroke="black" points="136,-150 136,-184 240,-184 240,-150 136,-150"/>
<text text-anchor="start" x="144" y="-171" font-family="Helvetica,sans-Serif" font-size="10.00">stxxl::simple_vector</text>
<text text-anchor="middle" x="188" y="-158" font-family="Helvetica,sans-Serif" font-size="10.00">&lt; ValueType &gt;</text>
</g>
<!-- Node3 -->
<g id="node5" class="node"><title>Node3</title>
<a xlink:href="classstxxl_1_1simple__vector.html" target="_top" xlink:title="stxxl::simple_vector\l\&lt; bid_type \&gt;">
<polygon fill="none" stroke="black" points="384,-280 384,-314 488,-314 488,-280 384,-280"/>
<text text-anchor="start" x="392" y="-301" font-family="Helvetica,sans-Serif" font-size="10.00">stxxl::simple_vector</text>
<text text-anchor="middle" x="436" y="-288" font-family="Helvetica,sans-Serif" font-size="10.00">&lt; bid_type &gt;</text>
</a>
</g>
<!-- Node1&#45;&gt;Node3 -->
<g id="edge4" class="edge"><title>Node1&#45;&gt;Node3</title>
<path fill="none" stroke="orange" stroke-dasharray="5,2" d="M204.817,-192.664C217.489,-210.086 236.35,-232.354 258,-246 296.345,-270.168 346.449,-283.185 383.726,-290.003"/>
<polygon fill="orange" stroke="orange" points="207.388,-190.234 198.773,-184.067 201.661,-194.26 207.388,-190.234"/>
<text text-anchor="middle" x="309" y="-289" font-family="Helvetica,sans-Serif" font-size="10.00"> &lt; bid_type &gt;</text>
</g>
<!-- Node4 -->
<g id="node7" class="node"><title>Node4</title>
<a xlink:href="classstxxl_1_1simple__vector.html" target="_top" xlink:title="stxxl::simple_vector\l\&lt; stxxl::typed_block \&gt;">
<polygon fill="none" stroke="black" points="379,-228 379,-262 493,-262 493,-228 379,-228"/>
<text text-anchor="start" x="387" y="-249" font-family="Helvetica,sans-Serif" font-size="10.00">stxxl::simple_vector</text>
<text text-anchor="middle" x="436" y="-236" font-family="Helvetica,sans-Serif" font-size="10.00">&lt; stxxl::typed_block &gt;</text>
</a>
</g>
<!-- Node1&#45;&gt;Node4 -->
<g id="edge6" class="edge"><title>Node1&#45;&gt;Node4</title>
<path fill="none" stroke="orange" stroke-dasharray="5,2" d="M228.649,-188.518C238.12,-193.031 248.281,-197.483 258,-201 297.511,-215.3 343.601,-226.551 378.981,-234.096"/>
<polygon fill="orange" stroke="orange" points="229.97,-185.268 219.45,-184.017 226.894,-191.556 229.97,-185.268"/>
<text text-anchor="middle" x="309" y="-233" font-family="Helvetica,sans-Serif" font-size="10.00"> &lt; stxxl::typed_block &gt;</text>
</g>
<!-- Node5 -->
<g id="node9" class="node"><title>Node5</title>
<a xlink:href="classstxxl_1_1simple__vector.html" target="_top" xlink:title="stxxl::simple_vector\l\&lt; list_type::iterator \&gt;">
<polygon fill="none" stroke="black" points="382.5,-176 382.5,-210 489.5,-210 489.5,-176 382.5,-176"/>
<text text-anchor="start" x="390.5" y="-197" font-family="Helvetica,sans-Serif" font-size="10.00">stxxl::simple_vector</text>
<text text-anchor="middle" x="436" y="-184" font-family="Helvetica,sans-Serif" font-size="10.00">&lt; list_type::iterator &gt;</text>
</a>
</g>
<!-- Node1&#45;&gt;Node5 -->
<g id="edge8" class="edge"><title>Node1&#45;&gt;Node5</title>
<path fill="none" stroke="orange" stroke-dasharray="5,2" d="M250.371,-173.539C291.087,-177.807 343.689,-183.322 382.497,-187.391"/>
<polygon fill="orange" stroke="orange" points="250.602,-170.044 240.291,-172.482 249.872,-177.006 250.602,-170.044"/>
<text text-anchor="middle" x="309" y="-188" font-family="Helvetica,sans-Serif" font-size="10.00"> &lt; list_type::iterator &gt;</text>
</g>
<!-- Node6 -->
<g id="node11" class="node"><title>Node6</title>
<a xlink:href="classstxxl_1_1simple__vector.html" target="_top" xlink:title="stxxl::simple_vector\l\&lt; int_type \&gt;">
<polygon fill="none" stroke="black" points="384,-124 384,-158 488,-158 488,-124 384,-124"/>
<text text-anchor="start" x="392" y="-145" font-family="Helvetica,sans-Serif" font-size="10.00">stxxl::simple_vector</text>
<text text-anchor="middle" x="436" y="-132" font-family="Helvetica,sans-Serif" font-size="10.00">&lt; int_type &gt;</text>
</a>
</g>
<!-- Node1&#45;&gt;Node6 -->
<g id="edge10" class="edge"><title>Node1&#45;&gt;Node6</title>
<path fill="none" stroke="orange" stroke-dasharray="5,2" d="M250.355,-157.923C252.936,-157.601 255.493,-157.292 258,-157 300.223,-152.09 348.232,-147.853 383.742,-144.975"/>
<polygon fill="orange" stroke="orange" points="249.797,-154.466 240.328,-159.22 250.695,-161.408 249.797,-154.466"/>
<text text-anchor="middle" x="309" y="-161" font-family="Helvetica,sans-Serif" font-size="10.00"> &lt; int_type &gt;</text>
</g>
<!-- Node7 -->
<g id="node13" class="node"><title>Node7</title>
<a xlink:href="classstxxl_1_1simple__vector.html" target="_top" xlink:title="stxxl::simple_vector\l\&lt; stxxl::counting_ptr \&gt;">
<polygon fill="none" stroke="black" points="378.5,-72 378.5,-106 493.5,-106 493.5,-72 378.5,-72"/>
<text text-anchor="start" x="386.5" y="-93" font-family="Helvetica,sans-Serif" font-size="10.00">stxxl::simple_vector</text>
<text text-anchor="middle" x="436" y="-80" font-family="Helvetica,sans-Serif" font-size="10.00">&lt; stxxl::counting_ptr &gt;</text>
</a>
</g>
<!-- Node1&#45;&gt;Node7 -->
<g id="edge12" class="edge"><title>Node1&#45;&gt;Node7</title>
<path fill="none" stroke="orange" stroke-dasharray="5,2" d="M226.232,-145.218C236.342,-140.05 247.398,-134.91 258,-131 297.173,-116.551 343.069,-105.864 378.445,-98.8867"/>
<polygon fill="orange" stroke="orange" points="224.476,-142.187 217.252,-149.937 227.732,-148.383 224.476,-142.187"/>
<text text-anchor="middle" x="309" y="-135" font-family="Helvetica,sans-Serif" font-size="10.00"> &lt; stxxl::counting_ptr &gt;</text>
</g>
<!-- Node8 -->
<g id="node15" class="node"><title>Node8</title>
<a xlink:href="classstxxl_1_1simple__vector.html" target="_top" xlink:title="stxxl::simple_vector\l\&lt; BID\&lt; BlockSize \&gt; \&gt;">
<polygon fill="none" stroke="black" points="379,-20 379,-54 493,-54 493,-20 379,-20"/>
<text text-anchor="start" x="387" y="-41" font-family="Helvetica,sans-Serif" font-size="10.00">stxxl::simple_vector</text>
<text text-anchor="middle" x="436" y="-28" font-family="Helvetica,sans-Serif" font-size="10.00">&lt; BID&lt; BlockSize &gt; &gt;</text>
</a>
</g>
<!-- Node1&#45;&gt;Node8 -->
<g id="edge14" class="edge"><title>Node1&#45;&gt;Node8</title>
<path fill="none" stroke="orange" stroke-dasharray="5,2" d="M204.726,-140.971C217.355,-123.31 236.203,-100.754 258,-87 294.647,-63.8754 342.144,-51.2354 378.855,-44.4529"/>
<polygon fill="orange" stroke="orange" points="201.509,-139.471 198.706,-149.688 207.269,-143.449 201.509,-139.471"/>
<text text-anchor="middle" x="309" y="-91" font-family="Helvetica,sans-Serif" font-size="10.00"> &lt; BID&lt; BlockSize &gt; &gt;</text>
</g>
<!-- Node2 -->
<g id="node2" class="node"><title>Node2</title>
<a xlink:href="classstxxl_1_1noncopyable.html" target="_top" xlink:title="stxxl::noncopyable">
<polygon fill="none" stroke="black" points="0,-156.5 0,-177.5 98,-177.5 98,-156.5 0,-156.5"/>
<text text-anchor="middle" x="49" y="-164.5" font-family="Helvetica,sans-Serif" font-size="10.00">stxxl::noncopyable</text>
</a>
</g>
<!-- Node2&#45;&gt;Node1 -->
<g id="edge2" class="edge"><title>Node2&#45;&gt;Node1</title>
<path fill="none" stroke="#8b1a1a" d="M108.181,-167C117.315,-167 126.693,-167 135.664,-167"/>
<polygon fill="#8b1a1a" stroke="#8b1a1a" points="108.006,-163.5 98.0062,-167 108.006,-170.5 108.006,-163.5"/>
</g>
<!-- Node9 -->
<g id="node17" class="node"><title>Node9</title>
<a xlink:href="classstxxl_1_1BIDArray.html" target="_top" xlink:title="stxxl::BIDArray\&lt; block\l_type::raw_size \&gt;">
<polygon fill="none" stroke="black" points="828,-16 828,-50 944,-50 944,-16 828,-16"/>
<text text-anchor="start" x="836" y="-37" font-family="Helvetica,sans-Serif" font-size="10.00">stxxl::BIDArray&lt; block</text>
<text text-anchor="middle" x="886" y="-24" font-family="Helvetica,sans-Serif" font-size="10.00">_type::raw_size &gt;</text>
</a>
</g>
<!-- Node8&#45;&gt;Node9 -->
<g id="edge16" class="edge"><title>Node8&#45;&gt;Node9</title>
<path fill="none" stroke="midnightblue" d="M503.262,-37.5642C578.138,-38.019 702.74,-38.2596 810,-36 815.809,-35.8776 821.866,-35.7087 827.914,-35.5128"/>
<polygon fill="midnightblue" stroke="midnightblue" points="503.056,-34.063 493.034,-37.4989 503.011,-41.0628 503.056,-34.063"/>
</g>
<!-- Node10 -->
<g id="node19" class="node"><title>Node10</title>
<a xlink:href="classstxxl_1_1BIDArray.html" target="_top" xlink:title="stxxl::BIDArray\&lt; BlockSize \&gt;">
<polygon fill="none" stroke="black" points="532,-0.5 532,-21.5 678,-21.5 678,-0.5 532,-0.5"/>
<text text-anchor="middle" x="605" y="-8.5" font-family="Helvetica,sans-Serif" font-size="10.00">stxxl::BIDArray&lt; BlockSize &gt;</text>
</a>
</g>
<!-- Node8&#45;&gt;Node10 -->
<g id="edge18" class="edge"><title>Node8&#45;&gt;Node10</title>
<path fill="none" stroke="midnightblue" d="M503.207,-26.6605C514.237,-24.9635 525.678,-23.2034 536.733,-21.5026"/>
<polygon fill="midnightblue" stroke="midnightblue" points="502.567,-23.2176 493.216,-28.1976 503.632,-30.1362 502.567,-23.2176"/>
</g>
<!-- Node10&#45;&gt;Node9 -->
<g id="edge20" class="edge"><title>Node10&#45;&gt;Node9</title>
<path fill="none" stroke="orange" stroke-dasharray="5,2" d="M688.459,-14.5151C725.703,-16.4366 770.097,-19.2119 810,-23 815.829,-23.5534 821.9,-24.212 827.957,-24.9232"/>
<polygon fill="orange" stroke="orange" points="688.317,-11.0036 678.154,-13.9956 687.965,-17.9947 688.317,-11.0036"/>
<text text-anchor="middle" x="753" y="-27" font-family="Helvetica,sans-Serif" font-size="10.00"> &lt; block_type::raw_size &gt;</text>
</g>
</g>
</svg>
