<?xml version="1.0" encoding="UTF-8" standalone="no"?>
<!DOCTYPE svg PUBLIC "-//W3C//DTD SVG 1.1//EN"
 "http://www.w3.org/Graphics/SVG/1.1/DTD/svg11.dtd">
<!-- Generated by graphviz version 2.26.3 (20100126.1600)
 -->
<!-- Title: stxxl::wfs_file_base Pages: 1 -->
<svg width="341pt" height="348pt"
 viewBox="0.00 0.00 341.00 348.00" xmlns="http://www.w3.org/2000/svg" xmlns:xlink="http://www.w3.org/1999/xlink">
<g id="graph1" class="graph" transform="scale(1 1) rotate(0) translate(4 344)">
<title>stxxl::wfs_file_base</title>
<!-- Node1 -->
<g id="node1" class="node"><title>Node1</title>
<polygon fill="#bfbfbf" stroke="black" points="33,-0.5 33,-21.5 137,-21.5 137,-0.5 33,-0.5"/>
<text text-anchor="middle" x="85" y="-8.5" font-family="Helvetica,sans-Serif" font-size="10.00">stxxl::wfs_file_base</text>
</g>
<!-- Node2 -->
<g id="node2" class="node"><title>Node2</title>
<a xlink:href="classstxxl_1_1file.html" target="_top" xlink:title="Defines interface of file. ">
<polygon fill="none" stroke="black" points="93,-60.5 93,-81.5 149,-81.5 149,-60.5 93,-60.5"/>
<text text-anchor="middle" x="121" y="-68.5" font-family="Helvetica,sans-Serif" font-size="10.00">stxxl::file</text>
</a>
</g>
<!-- Node2&#45;&gt;Node1 -->
<g id="edge2" class="edge"><title>Node2&#45;&gt;Node1</title>
<path fill="none" stroke="midnightblue" d="M109.28,-51.4668C103.329,-41.5483 96.3308,-29.8846 91.3804,-21.6339"/>
<polygon fill="midnightblue" stroke="midnightblue" points="106.418,-53.499 114.564,-60.2732 112.42,-49.8975 106.418,-53.499"/>
</g>
<!-- Node3 -->
<g id="node4" class="node"><title>Node3</title>
<a xlink:href="classstxxl_1_1noncopyable.html" target="_top" xlink:title="stxxl::noncopyable">
<polygon fill="none" stroke="black" points="0,-311.5 0,-332.5 98,-332.5 98,-311.5 0,-311.5"/>
<text text-anchor="middle" x="49" y="-319.5" font-family="Helvetica,sans-Serif" font-size="10.00">stxxl::noncopyable</text>
</a>
</g>
<!-- Node3&#45;&gt;Node2 -->
<g id="edge4" class="edge"><title>Node3&#45;&gt;Node2</title>
<path fill="none" stroke="#8b1a1a" d="M46.3547,-301.248C44.1471,-280.174 41.9542,-246.654 46,-218 53.6305,-163.958 48.3835,-144.488 80,-100 85.2527,-92.609 93.0041,-86.437 100.357,-81.7134"/>
<polygon fill="#8b1a1a" stroke="#8b1a1a" points="42.8914,-301.769 47.5103,-311.304 49.8457,-300.97 42.8914,-301.769"/>
</g>
<!-- Node5 -->
<g id="node8" class="node"><title>Node5</title>
<a xlink:href="classstxxl_1_1mutex.html" target="_top" xlink:title="stxxl::mutex">
<polygon fill="none" stroke="black" points="54.5,-225.5 54.5,-246.5 125.5,-246.5 125.5,-225.5 54.5,-225.5"/>
<text text-anchor="middle" x="90" y="-233.5" font-family="Helvetica,sans-Serif" font-size="10.00">stxxl::mutex</text>
</a>
</g>
<!-- Node3&#45;&gt;Node5 -->
<g id="edge10" class="edge"><title>Node3&#45;&gt;Node5</title>
<path fill="none" stroke="#8b1a1a" d="M58.4235,-302.234C66.6694,-284.937 78.3324,-260.474 84.9315,-246.632"/>
<polygon fill="#8b1a1a" stroke="#8b1a1a" points="55.1715,-300.922 54.0274,-311.455 61.4902,-303.934 55.1715,-300.922"/>
</g>
<!-- Node4 -->
<g id="node6" class="node"><title>Node4</title>
<a xlink:href="classstxxl_1_1atomic__counted__object.html" target="_top" xlink:title="Provides reference counting abilities for use with counting_ptr with mutex locking. ">
<polygon fill="none" stroke="black" points="92.5,-133 92.5,-167 205.5,-167 205.5,-133 92.5,-133"/>
<text text-anchor="start" x="100.5" y="-154" font-family="Helvetica,sans-Serif" font-size="10.00">stxxl::atomic_counted</text>
<text text-anchor="middle" x="149" y="-141" font-family="Helvetica,sans-Serif" font-size="10.00">_object</text>
</a>
</g>
<!-- Node4&#45;&gt;Node2 -->
<g id="edge6" class="edge"><title>Node4&#45;&gt;Node2</title>
<path fill="none" stroke="#9a32cd" stroke-dasharray="5,2" d="M139.444,-123.038C134.396,-108.796 128.488,-92.1269 124.745,-81.5672"/>
<polygon fill="#9a32cd" stroke="#9a32cd" points="136.285,-124.602 142.924,-132.858 142.883,-122.263 136.285,-124.602"/>
<text text-anchor="middle" x="169" y="-104.5" font-family="Helvetica,sans-Serif" font-size="10.00"> m_request_ref</text>
</g>
<!-- Node5&#45;&gt;Node1 -->
<g id="edge16" class="edge"><title>Node5&#45;&gt;Node1</title>
<path fill="none" stroke="#9a32cd" stroke-dasharray="5,2" d="M87.6983,-215.311C86.3188,-201.853 84.7005,-183.91 84,-168 81.8885,-120.046 83.5103,-107.998 84,-60 84.1354,-46.7271 84.4771,-31.435 84.7234,-21.5133"/>
<polygon fill="#9a32cd" stroke="#9a32cd" points="84.2354,-215.846 88.7756,-225.418 91.1959,-215.104 84.2354,-215.846"/>
<text text-anchor="middle" x="106" y="-104.5" font-family="Helvetica,sans-Serif" font-size="10.00"> fd_mutex</text>
</g>
<!-- Node5&#45;&gt;Node4 -->
<g id="edge8" class="edge"><title>Node5&#45;&gt;Node4</title>
<path fill="none" stroke="#9a32cd" stroke-dasharray="5,2" d="M90.2608,-215.014C91.2257,-205.542 93.5912,-194.581 99,-186 103.677,-178.58 110.488,-172.22 117.586,-167.002"/>
<polygon fill="#9a32cd" stroke="#9a32cd" points="86.7541,-215.031 89.673,-225.216 93.7425,-215.434 86.7541,-215.031"/>
<text text-anchor="middle" x="158.5" y="-190.5" font-family="Helvetica,sans-Serif" font-size="10.00"> m_reference_count_mutex</text>
</g>
<!-- Node6 -->
<g id="node11" class="node"><title>Node6</title>
<a xlink:href="structstxxl_1_1choose__int__types.html" target="_top" xlink:title="stxxl::choose_int_types\l\&lt; my_pointer_size \&gt;">
<polygon fill="none" stroke="black" points="180,-219 180,-253 300,-253 300,-219 180,-219"/>
<text text-anchor="start" x="188" y="-240" font-family="Helvetica,sans-Serif" font-size="10.00">stxxl::choose_int_types</text>
<text text-anchor="middle" x="240" y="-227" font-family="Helvetica,sans-Serif" font-size="10.00">&lt; my_pointer_size &gt;</text>
</a>
</g>
<!-- Node6&#45;&gt;Node4 -->
<g id="edge12" class="edge"><title>Node6&#45;&gt;Node4</title>
<path fill="none" stroke="#9a32cd" stroke-dasharray="5,2" d="M232.021,-209.053C228.66,-200.952 224.081,-192.499 218,-186 210.891,-178.403 201.817,-172.12 192.602,-167.046"/>
<polygon fill="#9a32cd" stroke="#9a32cd" points="228.798,-210.429 235.536,-218.605 235.367,-208.012 228.798,-210.429"/>
<text text-anchor="middle" x="270.5" y="-190.5" font-family="Helvetica,sans-Serif" font-size="10.00"> m_reference_count</text>
</g>
<!-- Node7 -->
<g id="node13" class="node"><title>Node7</title>
<a xlink:href="structstxxl_1_1choose__int__types.html" target="_top" xlink:title="stxxl::choose_int_types\l\&lt; PtrSize \&gt;">
<polygon fill="none" stroke="black" points="180,-305 180,-339 300,-339 300,-305 180,-305"/>
<text text-anchor="start" x="188" y="-326" font-family="Helvetica,sans-Serif" font-size="10.00">stxxl::choose_int_types</text>
<text text-anchor="middle" x="240" y="-313" font-family="Helvetica,sans-Serif" font-size="10.00">&lt; PtrSize &gt;</text>
</a>
</g>
<!-- Node7&#45;&gt;Node6 -->
<g id="edge14" class="edge"><title>Node7&#45;&gt;Node6</title>
<path fill="none" stroke="orange" stroke-dasharray="5,2" d="M240,-294.342C240,-280.774 240,-264.861 240,-253.084"/>
<polygon fill="orange" stroke="orange" points="236.5,-294.597 240,-304.597 243.5,-294.597 236.5,-294.597"/>
<text text-anchor="middle" x="286.5" y="-276.5" font-family="Helvetica,sans-Serif" font-size="10.00"> &lt; my_pointer_size &gt;</text>
</g>
</g>
</svg>
