<?xml version="1.0" encoding="UTF-8" standalone="no"?>
<!DOCTYPE svg PUBLIC "-//W3C//DTD SVG 1.1//EN"
 "http://www.w3.org/Graphics/SVG/1.1/DTD/svg11.dtd">
<!-- Generated by graphviz version 2.38.0 (20140413.2041)
 -->
<!-- Title: stxxl::block_scheduler_algorithm_online_lru&lt; SwappableBlockType &gt; Pages: 1 -->
<svg width="2031pt" height="449pt"
 viewBox="0.00 0.00 2031.00 449.00" xmlns="http://www.w3.org/2000/svg" xmlns:xlink="http://www.w3.org/1999/xlink">
<g id="graph0" class="graph" transform="scale(1 1) rotate(0) translate(4 445)">
<title>stxxl::block_scheduler_algorithm_online_lru&lt; SwappableBlockType &gt;</title>
<!-- Node1 -->
<g id="node1" class="node"><title>Node1</title>
<polygon fill="#bfbfbf" stroke="black" points="1894,-30.5 1894,-71.5 2023,-71.5 2023,-30.5 1894,-30.5"/>
<text text-anchor="start" x="1902" y="-59.5" font-family="Helvetica,sans-Serif" font-size="10.00">stxxl::block_scheduler</text>
<text text-anchor="start" x="1902" y="-48.5" font-family="Helvetica,sans-Serif" font-size="10.00">_algorithm_online_lru</text>
<text text-anchor="middle" x="1958.5" y="-37.5" font-family="Helvetica,sans-Serif" font-size="10.00">&lt; SwappableBlockType &gt;</text>
</g>
<!-- Node2 -->
<g id="node2" class="node"><title>Node2</title>
<g id="a_node2"><a xlink:href="classstxxl_1_1block__scheduler__algorithm.html" target="_top" xlink:title="Interface of a block scheduling algorithm. ">
<polygon fill="none" stroke="black" points="1608,-60 1608,-90 1782,-90 1782,-60 1608,-60"/>
<text text-anchor="start" x="1616" y="-78" font-family="Helvetica,sans-Serif" font-size="10.00">stxxl::block_scheduler</text>
<text text-anchor="middle" x="1695" y="-67" font-family="Helvetica,sans-Serif" font-size="10.00">_algorithm&lt; SwappableBlockType &gt;</text>
</a>
</g>
</g>
<!-- Node2&#45;&gt;Node1 -->
<g id="edge1" class="edge"><title>Node2&#45;&gt;Node1</title>
<path fill="none" stroke="midnightblue" d="M1792.68,-66.1265C1826.36,-63.0361 1863.27,-59.6485 1893.61,-56.8639"/>
<polygon fill="midnightblue" stroke="midnightblue" points="1791.99,-62.6756 1782.35,-67.075 1792.63,-69.6463 1791.99,-62.6756"/>
</g>
<!-- Node3 -->
<g id="node3" class="node"><title>Node3</title>
<g id="a_node3"><a xlink:href="classstxxl_1_1noncopyable.html" target="_top" xlink:title="stxxl::noncopyable">
<polygon fill="none" stroke="black" points="11,-186.5 11,-205.5 109,-205.5 109,-186.5 11,-186.5"/>
<text text-anchor="middle" x="60" y="-193.5" font-family="Helvetica,sans-Serif" font-size="10.00">stxxl::noncopyable</text>
</a>
</g>
</g>
<!-- Node3&#45;&gt;Node2 -->
<g id="edge2" class="edge"><title>Node3&#45;&gt;Node2</title>
<path fill="none" stroke="#8b1a1a" d="M74.2868,-178.047C88.2464,-160.45 111.787,-134.131 138,-119 210.922,-76.9072 236.802,-70 321,-70 321,-70 321,-70 1378.5,-70 1456.15,-70 1544.54,-71.533 1607.97,-72.9013"/>
<polygon fill="#8b1a1a" stroke="#8b1a1a" points="71.223,-176.289 67.8968,-186.349 76.77,-180.559 71.223,-176.289"/>
</g>
<!-- Node4 -->
<g id="node4" class="node"><title>Node4</title>
<g id="a_node4"><a xlink:href="classstxxl_1_1block__scheduler.html" target="_top" xlink:title="Schedules swapping of blocks and provides blocks for temporary storage. ">
<polygon fill="none" stroke="black" points="1313,-140 1313,-170 1442,-170 1442,-140 1313,-140"/>
<text text-anchor="start" x="1321" y="-158" font-family="Helvetica,sans-Serif" font-size="10.00">stxxl::block_scheduler</text>
<text text-anchor="middle" x="1377.5" y="-147" font-family="Helvetica,sans-Serif" font-size="10.00">&lt; SwappableBlockType &gt;</text>
</a>
</g>
</g>
<!-- Node3&#45;&gt;Node4 -->
<g id="edge4" class="edge"><title>Node3&#45;&gt;Node4</title>
<path fill="none" stroke="#8b1a1a" d="M85.889,-181.463C131.109,-156.467 230.463,-108 321,-108 321,-108 321,-108 1206,-108 1254.97,-108 1309.11,-126.245 1342.96,-140"/>
<polygon fill="#8b1a1a" stroke="#8b1a1a" points="84.0845,-178.462 77.0839,-186.415 87.5158,-184.564 84.0845,-178.462"/>
</g>
<!-- Node6 -->
<g id="node6" class="node"><title>Node6</title>
<g id="a_node6"><a xlink:href="classstxxl_1_1singleton.html" target="_top" xlink:title="stxxl::singleton\&lt; block\l_manager \&gt;">
<polygon fill="none" stroke="black" points="550,-175 550,-205 665,-205 665,-175 550,-175"/>
<text text-anchor="start" x="558" y="-193" font-family="Helvetica,sans-Serif" font-size="10.00">stxxl::singleton&lt; block</text>
<text text-anchor="middle" x="607.5" y="-182" font-family="Helvetica,sans-Serif" font-size="10.00">_manager &gt;</text>
</a>
</g>
</g>
<!-- Node3&#45;&gt;Node6 -->
<g id="edge7" class="edge"><title>Node3&#45;&gt;Node6</title>
<path fill="none" stroke="#8b1a1a" d="M119.553,-195.356C225.007,-194.196 445.55,-191.77 549.708,-190.625"/>
<polygon fill="#8b1a1a" stroke="#8b1a1a" points="119.37,-191.858 109.409,-195.468 119.447,-198.857 119.37,-191.858"/>
</g>
<!-- Node7 -->
<g id="node7" class="node"><title>Node7</title>
<g id="a_node7"><a xlink:href="classstxxl_1_1singleton.html" target="_top" xlink:title="stxxl::singleton\&lt; INSTANCE,\l destroy_on_exit \&gt;">
<polygon fill="none" stroke="black" points="249,-137 249,-167 395,-167 395,-137 249,-137"/>
<text text-anchor="start" x="257" y="-155" font-family="Helvetica,sans-Serif" font-size="10.00">stxxl::singleton&lt; INSTANCE,</text>
<text text-anchor="middle" x="322" y="-144" font-family="Helvetica,sans-Serif" font-size="10.00"> destroy_on_exit &gt;</text>
</a>
</g>
</g>
<!-- Node3&#45;&gt;Node7 -->
<g id="edge9" class="edge"><title>Node3&#45;&gt;Node7</title>
<path fill="none" stroke="#8b1a1a" d="M119.028,-185.338C125.427,-184.196 131.85,-183.063 138,-182 174.483,-175.693 215.117,-168.999 248.811,-163.538"/>
<polygon fill="#8b1a1a" stroke="#8b1a1a" points="118.258,-181.92 109.035,-187.134 119.496,-188.81 118.258,-181.92"/>
</g>
<!-- Node8 -->
<g id="node8" class="node"><title>Node8</title>
<g id="a_node8"><a xlink:href="classstxxl_1_1file.html" target="_top" xlink:title="Defines interface of file. ">
<polygon fill="none" stroke="black" points="767,-321.5 767,-340.5 823,-340.5 823,-321.5 767,-321.5"/>
<text text-anchor="middle" x="795" y="-328.5" font-family="Helvetica,sans-Serif" font-size="10.00">stxxl::file</text>
</a>
</g>
</g>
<!-- Node3&#45;&gt;Node8 -->
<g id="edge11" class="edge"><title>Node3&#45;&gt;Node8</title>
<path fill="none" stroke="#8b1a1a" d="M73.7615,-214.23C87.4514,-232.27 110.915,-259.136 138,-273 182.489,-295.771 199.653,-283.087 249,-291 321.868,-302.684 339.548,-309.854 413,-317 545.088,-329.85 703.981,-331.159 766.667,-331.123"/>
<polygon fill="#8b1a1a" stroke="#8b1a1a" points="76.2586,-211.716 67.5261,-205.717 70.6113,-215.852 76.2586,-211.716"/>
</g>
<!-- Node10 -->
<g id="node10" class="node"><title>Node10</title>
<g id="a_node10"><a xlink:href="classstxxl_1_1mutex.html" target="_top" xlink:title="stxxl::mutex">
<polygon fill="none" stroke="black" points="286.5,-262.5 286.5,-281.5 357.5,-281.5 357.5,-262.5 286.5,-262.5"/>
<text text-anchor="middle" x="322" y="-269.5" font-family="Helvetica,sans-Serif" font-size="10.00">stxxl::mutex</text>
</a>
</g>
</g>
<!-- Node3&#45;&gt;Node10 -->
<g id="edge14" class="edge"><title>Node3&#45;&gt;Node10</title>
<path fill="none" stroke="#8b1a1a" d="M79.4005,-212.065C94.1935,-224.033 116.059,-239.687 138,-248 187.291,-266.676 248.797,-271.261 286.468,-272.151"/>
<polygon fill="#8b1a1a" stroke="#8b1a1a" points="81.4823,-209.243 71.5608,-205.527 76.9991,-214.619 81.4823,-209.243"/>
</g>
<!-- Node13 -->
<g id="node13" class="node"><title>Node13</title>
<g id="a_node13"><a xlink:href="classstxxl_1_1disk__allocator.html" target="_top" xlink:title="stxxl::disk_allocator">
<polygon fill="none" stroke="black" points="941,-253.5 941,-272.5 1045,-272.5 1045,-253.5 941,-253.5"/>
<text text-anchor="middle" x="993" y="-260.5" font-family="Helvetica,sans-Serif" font-size="10.00">stxxl::disk_allocator</text>
</a>
</g>
</g>
<!-- Node3&#45;&gt;Node13 -->
<g id="edge18" class="edge"><title>Node3&#45;&gt;Node13</title>
<path fill="none" stroke="#8b1a1a" d="M111.255,-207.763C163.393,-218.923 247.44,-234 321,-234 321,-234 321,-234 796,-234 850.177,-234 911.88,-244.977 951.341,-253.424"/>
<polygon fill="#8b1a1a" stroke="#8b1a1a" points="111.781,-204.296 101.265,-205.589 110.292,-211.136 111.781,-204.296"/>
</g>
<!-- Node4&#45;&gt;Node2 -->
<g id="edge3" class="edge"><title>Node4&#45;&gt;Node2</title>
<path fill="none" stroke="#9a32cd" stroke-dasharray="5,2" d="M1447.67,-137.461C1503.61,-123.277 1581.53,-103.519 1634.66,-90.0478"/>
<polygon fill="#9a32cd" stroke="#9a32cd" points="1446.68,-134.102 1437.84,-139.953 1448.4,-140.887 1446.68,-134.102"/>
<text text-anchor="middle" x="1525" y="-137" font-family="Helvetica,sans-Serif" font-size="10.00"> bs</text>
</g>
<!-- Node5 -->
<g id="node5" class="node"><title>Node5</title>
<g id="a_node5"><a xlink:href="classstxxl_1_1block__manager.html" target="_top" xlink:title="Block manager class. ">
<polygon fill="none" stroke="black" points="1150,-221.5 1150,-240.5 1260,-240.5 1260,-221.5 1150,-221.5"/>
<text text-anchor="middle" x="1205" y="-228.5" font-family="Helvetica,sans-Serif" font-size="10.00">stxxl::block_manager</text>
</a>
</g>
</g>
<!-- Node5&#45;&gt;Node4 -->
<g id="edge5" class="edge"><title>Node5&#45;&gt;Node4</title>
<path fill="none" stroke="#9a32cd" stroke-dasharray="5,2" d="M1237.11,-217.135C1266.99,-203.814 1312.02,-183.742 1342.76,-170.041"/>
<polygon fill="#9a32cd" stroke="#9a32cd" points="1235.3,-214.106 1227.59,-221.375 1238.15,-220.5 1235.3,-214.106"/>
<text text-anchor="middle" x="1286.5" y="-201" font-family="Helvetica,sans-Serif" font-size="10.00"> bm</text>
</g>
<!-- Node6&#45;&gt;Node5 -->
<g id="edge6" class="edge"><title>Node6&#45;&gt;Node5</title>
<path fill="none" stroke="midnightblue" d="M675.13,-194.587C794.09,-202.778 1040.77,-219.762 1149.97,-227.28"/>
<polygon fill="midnightblue" stroke="midnightblue" points="675.277,-191.089 665.06,-193.894 674.796,-198.073 675.277,-191.089"/>
</g>
<!-- Node7&#45;&gt;Node6 -->
<g id="edge8" class="edge"><title>Node7&#45;&gt;Node6</title>
<path fill="none" stroke="orange" stroke-dasharray="5,2" d="M405.578,-156.469C444.171,-159.333 490.632,-163.891 532,-171 538.446,-172.108 545.154,-173.488 551.787,-174.995"/>
<polygon fill="orange" stroke="orange" points="405.654,-152.965 395.43,-155.741 405.154,-159.947 405.654,-152.965"/>
<text text-anchor="middle" x="472.5" y="-174" font-family="Helvetica,sans-Serif" font-size="10.00"> &lt; block_manager &gt;</text>
</g>
<!-- Node8&#45;&gt;Node5 -->
<g id="edge10" class="edge"><title>Node8&#45;&gt;Node5</title>
<path fill="none" stroke="#9a32cd" stroke-dasharray="5,2" d="M833.684,-328.09C859.044,-325.827 893.17,-322.191 923,-317 1017.1,-300.624 1042.26,-299.681 1132,-267 1151.83,-259.779 1173.32,-248.552 1187.61,-240.556"/>
<polygon fill="#9a32cd" stroke="#9a32cd" points="833.053,-324.631 823.39,-328.976 833.654,-331.605 833.053,-324.631"/>
<text text-anchor="middle" x="993" y="-317" font-family="Helvetica,sans-Serif" font-size="10.00"> disk_files</text>
</g>
<!-- Node8&#45;&gt;Node13 -->
<g id="edge19" class="edge"><title>Node8&#45;&gt;Node13</title>
<path fill="none" stroke="#9a32cd" stroke-dasharray="5,2" d="M820.404,-316.087C826.944,-312.469 834.114,-308.833 841,-306 876.005,-291.6 886.6,-293.38 923,-283 934.874,-279.614 947.883,-275.856 959.374,-272.52"/>
<polygon fill="#9a32cd" stroke="#9a32cd" points="818.303,-313.257 811.38,-321.277 821.793,-319.325 818.303,-313.257"/>
<text text-anchor="middle" x="882" y="-309" font-family="Helvetica,sans-Serif" font-size="10.00"> storage</text>
</g>
<!-- Node9 -->
<g id="node9" class="node"><title>Node9</title>
<g id="a_node9"><a xlink:href="classstxxl_1_1atomic__counted__object.html" target="_top" xlink:title="Provides reference counting abilities for use with counting_ptr with mutex locking. ">
<polygon fill="none" stroke="black" points="551,-360 551,-390 664,-390 664,-360 551,-360"/>
<text text-anchor="start" x="559" y="-378" font-family="Helvetica,sans-Serif" font-size="10.00">stxxl::atomic_counted</text>
<text text-anchor="middle" x="607.5" y="-367" font-family="Helvetica,sans-Serif" font-size="10.00">_object</text>
</a>
</g>
</g>
<!-- Node9&#45;&gt;Node8 -->
<g id="edge12" class="edge"><title>Node9&#45;&gt;Node8</title>
<path fill="none" stroke="#9a32cd" stroke-dasharray="5,2" d="M674.11,-362.284C697.82,-357.349 724.72,-351.355 749,-345 754.857,-343.467 761.088,-341.65 766.988,-339.842"/>
<polygon fill="#9a32cd" stroke="#9a32cd" points="673.251,-358.888 664.162,-364.332 674.662,-365.744 673.251,-358.888"/>
<text text-anchor="middle" x="716" y="-363" font-family="Helvetica,sans-Serif" font-size="10.00"> m_request_ref</text>
</g>
<!-- Node10&#45;&gt;Node9 -->
<g id="edge13" class="edge"><title>Node10&#45;&gt;Node9</title>
<path fill="none" stroke="#9a32cd" stroke-dasharray="5,2" d="M358.739,-284.984C411.313,-304.085 509.276,-339.677 564.973,-359.913"/>
<polygon fill="#9a32cd" stroke="#9a32cd" points="359.757,-281.631 349.163,-281.505 357.367,-288.21 359.757,-281.631"/>
<text text-anchor="middle" x="472.5" y="-350" font-family="Helvetica,sans-Serif" font-size="10.00"> m_reference_count_mutex</text>
</g>
<!-- Node10&#45;&gt;Node13 -->
<g id="edge20" class="edge"><title>Node10&#45;&gt;Node13</title>
<path fill="none" stroke="#9a32cd" stroke-dasharray="5,2" d="M367.825,-271.397C487.574,-269.786 814.421,-265.389 940.989,-263.686"/>
<polygon fill="#9a32cd" stroke="#9a32cd" points="367.512,-267.901 357.56,-271.535 367.606,-274.9 367.512,-267.901"/>
<text text-anchor="middle" x="716" y="-271" font-family="Helvetica,sans-Serif" font-size="10.00"> mutex</text>
</g>
<!-- Node11 -->
<g id="node11" class="node"><title>Node11</title>
<g id="a_node11"><a xlink:href="structstxxl_1_1choose__int__types.html" target="_top" xlink:title="stxxl::choose_int_types\l\&lt; my_pointer_size \&gt;">
<polygon fill="none" stroke="black" points="262,-360 262,-390 382,-390 382,-360 262,-360"/>
<text text-anchor="start" x="270" y="-378" font-family="Helvetica,sans-Serif" font-size="10.00">stxxl::choose_int_types</text>
<text text-anchor="middle" x="322" y="-367" font-family="Helvetica,sans-Serif" font-size="10.00">&lt; my_pointer_size &gt;</text>
</a>
</g>
</g>
<!-- Node11&#45;&gt;Node4 -->
<g id="edge21" class="edge"><title>Node11&#45;&gt;Node4</title>
<path fill="none" stroke="#9a32cd" stroke-dasharray="5,2" d="M392.041,-391.799C449.162,-404.226 532.613,-419 606.5,-419 606.5,-419 606.5,-419 1206,-419 1325.22,-419 1365.13,-226.679 1374.27,-170.335"/>
<polygon fill="#9a32cd" stroke="#9a32cd" points="392.565,-388.331 382.045,-389.59 391.054,-395.166 392.565,-388.331"/>
<text text-anchor="start" x="841" y="-433" font-family="Helvetica,sans-Serif" font-size="10.00"> remaining_internal</text>
<text text-anchor="middle" x="882" y="-422" font-family="Helvetica,sans-Serif" font-size="10.00">_blocks</text>
</g>
<!-- Node11&#45;&gt;Node9 -->
<g id="edge15" class="edge"><title>Node11&#45;&gt;Node9</title>
<path fill="none" stroke="#9a32cd" stroke-dasharray="5,2" d="M392.241,-375C441.004,-375 505.434,-375 550.863,-375"/>
<polygon fill="#9a32cd" stroke="#9a32cd" points="392.086,-371.5 382.086,-375 392.086,-378.5 392.086,-371.5"/>
<text text-anchor="middle" x="472.5" y="-378" font-family="Helvetica,sans-Serif" font-size="10.00"> m_reference_count</text>
</g>
<!-- Node12 -->
<g id="node12" class="node"><title>Node12</title>
<g id="a_node12"><a xlink:href="structstxxl_1_1choose__int__types.html" target="_top" xlink:title="stxxl::choose_int_types\l\&lt; PtrSize \&gt;">
<polygon fill="none" stroke="black" points="0,-360 0,-390 120,-390 120,-360 0,-360"/>
<text text-anchor="start" x="8" y="-378" font-family="Helvetica,sans-Serif" font-size="10.00">stxxl::choose_int_types</text>
<text text-anchor="middle" x="60" y="-367" font-family="Helvetica,sans-Serif" font-size="10.00">&lt; PtrSize &gt;</text>
</a>
</g>
</g>
<!-- Node12&#45;&gt;Node11 -->
<g id="edge16" class="edge"><title>Node12&#45;&gt;Node11</title>
<path fill="none" stroke="orange" stroke-dasharray="5,2" d="M130.515,-375C171.531,-375 222.884,-375 261.931,-375"/>
<polygon fill="orange" stroke="orange" points="130.323,-371.5 120.323,-375 130.323,-378.5 130.323,-371.5"/>
<text text-anchor="middle" x="184.5" y="-378" font-family="Helvetica,sans-Serif" font-size="10.00"> &lt; my_pointer_size &gt;</text>
</g>
<!-- Node13&#45;&gt;Node5 -->
<g id="edge17" class="edge"><title>Node13&#45;&gt;Node5</title>
<path fill="none" stroke="#9a32cd" stroke-dasharray="5,2" d="M1055.02,-253.702C1084.97,-249.139 1120.74,-243.687 1149.73,-239.27"/>
<polygon fill="#9a32cd" stroke="#9a32cd" points="1054.46,-250.246 1045.1,-255.213 1055.52,-257.166 1054.46,-250.246"/>
<text text-anchor="middle" x="1097.5" y="-255" font-family="Helvetica,sans-Serif" font-size="10.00"> disk_allocators</text>
</g>
<!-- Node14 -->
<g id="node14" class="node"><title>Node14</title>
<g id="a_node14"><a xlink:href="classstxxl_1_1addressable__fifo__queue.html" target="_top" xlink:title="stxxl::addressable\l_fifo_queue\&lt; swappable\l_block_identifier_type \&gt;">
<polygon fill="none" stroke="black" points="1634,-0.5 1634,-41.5 1756,-41.5 1756,-0.5 1634,-0.5"/>
<text text-anchor="start" x="1642" y="-29.5" font-family="Helvetica,sans-Serif" font-size="10.00">stxxl::addressable</text>
<text text-anchor="start" x="1642" y="-18.5" font-family="Helvetica,sans-Serif" font-size="10.00">_fifo_queue&lt; swappable</text>
<text text-anchor="middle" x="1695" y="-7.5" font-family="Helvetica,sans-Serif" font-size="10.00">_block_identifier_type &gt;</text>
</a>
</g>
</g>
<!-- Node14&#45;&gt;Node1 -->
<g id="edge22" class="edge"><title>Node14&#45;&gt;Node1</title>
<path fill="none" stroke="#9a32cd" stroke-dasharray="5,2" d="M1766.46,-29.0829C1806.14,-33.6357 1855.31,-39.277 1893.83,-43.696"/>
<polygon fill="#9a32cd" stroke="#9a32cd" points="1766.66,-25.5829 1756.32,-27.9203 1765.86,-32.5373 1766.66,-25.5829"/>
<text text-anchor="middle" x="1838" y="-45" font-family="Helvetica,sans-Serif" font-size="10.00"> evictable_blocks</text>
</g>
<!-- Node15 -->
<g id="node15" class="node"><title>Node15</title>
<g id="a_node15"><a xlink:href="classstxxl_1_1addressable__fifo__queue.html" target="_top" xlink:title="An internal fifo queue that allows removing elements addressed with (a copy of) themselves. ">
<polygon fill="none" stroke="black" points="1315.5,-6 1315.5,-36 1439.5,-36 1439.5,-6 1315.5,-6"/>
<text text-anchor="start" x="1323.5" y="-24" font-family="Helvetica,sans-Serif" font-size="10.00">stxxl::addressable</text>
<text text-anchor="middle" x="1377.5" y="-13" font-family="Helvetica,sans-Serif" font-size="10.00">_fifo_queue&lt; KeyType &gt;</text>
</a>
</g>
</g>
<!-- Node15&#45;&gt;Node14 -->
<g id="edge23" class="edge"><title>Node15&#45;&gt;Node14</title>
<path fill="none" stroke="orange" stroke-dasharray="5,2" d="M1449.81,-21C1505.27,-21 1581.34,-21 1633.77,-21"/>
<polygon fill="orange" stroke="orange" points="1449.71,-17.5001 1439.71,-21 1449.71,-24.5001 1449.71,-17.5001"/>
<text text-anchor="start" x="1460" y="-35" font-family="Helvetica,sans-Serif" font-size="10.00"> &lt; swappable_block_identifier</text>
<text text-anchor="middle" x="1525" y="-24" font-family="Helvetica,sans-Serif" font-size="10.00">_type &gt;</text>
</g>
</g>
</svg>
