<?xml version="1.0" encoding="UTF-8" standalone="no"?>
<!DOCTYPE svg PUBLIC "-//W3C//DTD SVG 1.1//EN"
 "http://www.w3.org/Graphics/SVG/1.1/DTD/svg11.dtd">
<!-- Generated by graphviz version 2.26.3 (20100126.1600)
 -->
<!-- Title: stxxl::sim_disk_file Pages: 1 -->
<svg width="382pt" height="204pt"
 viewBox="0.00 0.00 382.00 204.00" xmlns="http://www.w3.org/2000/svg" xmlns:xlink="http://www.w3.org/1999/xlink">
<g id="graph1" class="graph" transform="scale(1 1) rotate(0) translate(4 200)">
<title>stxxl::sim_disk_file</title>
<!-- Node1 -->
<g id="node1" class="node"><title>Node1</title>
<polygon fill="#bfbfbf" stroke="black" points="125.5,-0.5 125.5,-21.5 226.5,-21.5 226.5,-0.5 125.5,-0.5"/>
<text text-anchor="middle" x="176" y="-8.5" font-family="Helvetica,sans-Serif" font-size="10.00">stxxl::sim_disk_file</text>
</g>
<!-- Node2 -->
<g id="node2" class="node"><title>Node2</title>
<a xlink:href="classstxxl_1_1ufs__file__base.html" target="_top" xlink:title="Base for UNIX file system implementations. ">
<polygon fill="none" stroke="black" points="-0.5,-58.5 -0.5,-79.5 100.5,-79.5 100.5,-58.5 -0.5,-58.5"/>
<text text-anchor="middle" x="50" y="-66.5" font-family="Helvetica,sans-Serif" font-size="10.00">stxxl::ufs_file_base</text>
</a>
</g>
<!-- Node2&#45;&gt;Node1 -->
<g id="edge2" class="edge"><title>Node2&#45;&gt;Node1</title>
<path fill="none" stroke="midnightblue" d="M82.1379,-54.2064C104.243,-44.031 133.08,-30.7567 152.926,-21.6212"/>
<polygon fill="midnightblue" stroke="midnightblue" points="80.4379,-51.1358 72.8176,-58.4966 83.365,-57.4945 80.4379,-51.1358"/>
</g>
<!-- Node3 -->
<g id="node4" class="node"><title>Node3</title>
<a xlink:href="classstxxl_1_1file.html" target="_top" xlink:title="Defines interface of file. ">
<polygon fill="none" stroke="black" points="148,-116.5 148,-137.5 204,-137.5 204,-116.5 148,-116.5"/>
<text text-anchor="middle" x="176" y="-124.5" font-family="Helvetica,sans-Serif" font-size="10.00">stxxl::file</text>
</a>
</g>
<!-- Node3&#45;&gt;Node2 -->
<g id="edge4" class="edge"><title>Node3&#45;&gt;Node2</title>
<path fill="none" stroke="midnightblue" d="M143.862,-112.206C121.757,-102.031 92.9197,-88.7567 73.0737,-79.6212"/>
<polygon fill="midnightblue" stroke="midnightblue" points="142.635,-115.494 153.182,-116.497 145.562,-109.136 142.635,-115.494"/>
</g>
<!-- Node5 -->
<g id="node8" class="node"><title>Node5</title>
<a xlink:href="classstxxl_1_1disk__queued__file.html" target="_top" xlink:title="Implementation of some file methods based on serving_request. ">
<polygon fill="none" stroke="black" points="118,-58.5 118,-79.5 234,-79.5 234,-58.5 118,-58.5"/>
<text text-anchor="middle" x="176" y="-66.5" font-family="Helvetica,sans-Serif" font-size="10.00">stxxl::disk_queued_file</text>
</a>
</g>
<!-- Node3&#45;&gt;Node5 -->
<g id="edge10" class="edge"><title>Node3&#45;&gt;Node5</title>
<path fill="none" stroke="midnightblue" d="M176,-106.191C176,-97.1684 176,-86.9941 176,-79.5707"/>
<polygon fill="midnightblue" stroke="midnightblue" points="172.5,-106.362 176,-116.362 179.5,-106.362 172.5,-106.362"/>
</g>
<!-- Node4 -->
<g id="node6" class="node"><title>Node4</title>
<a xlink:href="classstxxl_1_1noncopyable.html" target="_top" xlink:title="stxxl::noncopyable">
<polygon fill="none" stroke="black" points="188,-174.5 188,-195.5 286,-195.5 286,-174.5 188,-174.5"/>
<text text-anchor="middle" x="237" y="-182.5" font-family="Helvetica,sans-Serif" font-size="10.00">stxxl::noncopyable</text>
</a>
</g>
<!-- Node4&#45;&gt;Node3 -->
<g id="edge6" class="edge"><title>Node4&#45;&gt;Node3</title>
<path fill="none" stroke="#8b1a1a" d="M218.495,-167.405C208.255,-157.668 195.869,-145.891 187.117,-137.571"/>
<polygon fill="#8b1a1a" stroke="#8b1a1a" points="216.153,-170.008 225.812,-174.362 220.976,-164.935 216.153,-170.008"/>
</g>
<!-- Node7 -->
<g id="node13" class="node"><title>Node7</title>
<a xlink:href="classstxxl_1_1simdisk__geometry.html" target="_top" xlink:title="stxxl::simdisk_geometry">
<polygon fill="none" stroke="black" points="236.5,-116.5 236.5,-137.5 359.5,-137.5 359.5,-116.5 236.5,-116.5"/>
<text text-anchor="middle" x="298" y="-124.5" font-family="Helvetica,sans-Serif" font-size="10.00">stxxl::simdisk_geometry</text>
</a>
</g>
<!-- Node4&#45;&gt;Node7 -->
<g id="edge16" class="edge"><title>Node4&#45;&gt;Node7</title>
<path fill="none" stroke="#8b1a1a" d="M255.505,-167.405C265.745,-157.668 278.131,-145.891 286.883,-137.571"/>
<polygon fill="#8b1a1a" stroke="#8b1a1a" points="253.024,-164.935 248.188,-174.362 257.847,-170.008 253.024,-164.935"/>
</g>
<!-- Node5&#45;&gt;Node1 -->
<g id="edge8" class="edge"><title>Node5&#45;&gt;Node1</title>
<path fill="none" stroke="midnightblue" d="M176,-48.1906C176,-39.1684 176,-28.9941 176,-21.5707"/>
<polygon fill="midnightblue" stroke="midnightblue" points="172.5,-48.3619 176,-58.3619 179.5,-48.3619 172.5,-48.3619"/>
</g>
<!-- Node6 -->
<g id="node11" class="node"><title>Node6</title>
<a xlink:href="classstxxl_1_1IC35L080AVVA07.html" target="_top" xlink:title="stxxl::IC35L080AVVA07">
<polygon fill="none" stroke="black" points="251.5,-58.5 251.5,-79.5 374.5,-79.5 374.5,-58.5 251.5,-58.5"/>
<text text-anchor="middle" x="313" y="-66.5" font-family="Helvetica,sans-Serif" font-size="10.00">stxxl::IC35L080AVVA07</text>
</a>
</g>
<!-- Node6&#45;&gt;Node1 -->
<g id="edge12" class="edge"><title>Node6&#45;&gt;Node1</title>
<path fill="none" stroke="midnightblue" d="M278.701,-54.4794C254.585,-44.2695 222.86,-30.8386 201.088,-21.6212"/>
<polygon fill="midnightblue" stroke="midnightblue" points="277.617,-57.821 288.19,-58.4966 280.346,-51.3749 277.617,-57.821"/>
</g>
<!-- Node7&#45;&gt;Node6 -->
<g id="edge14" class="edge"><title>Node7&#45;&gt;Node6</title>
<path fill="none" stroke="midnightblue" d="M303.305,-106.488C305.657,-97.3924 308.325,-87.0756 310.266,-79.5707"/>
<polygon fill="midnightblue" stroke="midnightblue" points="299.867,-105.804 300.751,-116.362 306.644,-107.557 299.867,-105.804"/>
</g>
</g>
</svg>
