<?xml version="1.0" encoding="UTF-8" standalone="no"?>
<!DOCTYPE svg PUBLIC "-//W3C//DTD SVG 1.1//EN"
 "http://www.w3.org/Graphics/SVG/1.1/DTD/svg11.dtd">
<!-- Generated by graphviz version 2.26.3 (20100126.1600)
 -->
<!-- Title: stxxl::sim_disk_file Pages: 1 -->
<svg width="518pt" height="416pt"
 viewBox="0.00 0.00 518.00 416.00" xmlns="http://www.w3.org/2000/svg" xmlns:xlink="http://www.w3.org/1999/xlink">
<g id="graph1" class="graph" transform="scale(1 1) rotate(0) translate(4 412)">
<title>stxxl::sim_disk_file</title>
<!-- Node1 -->
<g id="node1" class="node"><title>Node1</title>
<polygon fill="#bfbfbf" stroke="black" points="293.5,-0.5 293.5,-21.5 394.5,-21.5 394.5,-0.5 293.5,-0.5"/>
<text text-anchor="middle" x="344" y="-8.5" font-family="Helvetica,sans-Serif" font-size="10.00">stxxl::sim_disk_file</text>
</g>
<!-- Node2 -->
<g id="node2" class="node"><title>Node2</title>
<a xlink:href="classstxxl_1_1ufs__file__base.html" target="_top" xlink:title="Base for UNIX file system implementations. ">
<polygon fill="none" stroke="black" points="293.5,-60.5 293.5,-81.5 394.5,-81.5 394.5,-60.5 293.5,-60.5"/>
<text text-anchor="middle" x="344" y="-68.5" font-family="Helvetica,sans-Serif" font-size="10.00">stxxl::ufs_file_base</text>
</a>
</g>
<!-- Node2&#45;&gt;Node1 -->
<g id="edge2" class="edge"><title>Node2&#45;&gt;Node1</title>
<path fill="none" stroke="midnightblue" d="M344,-50.2312C344,-40.5922 344,-29.5444 344,-21.6339"/>
<polygon fill="midnightblue" stroke="midnightblue" points="340.5,-50.2732 344,-60.2732 347.5,-50.2732 340.5,-50.2732"/>
</g>
<!-- Node3 -->
<g id="node4" class="node"><title>Node3</title>
<a xlink:href="classstxxl_1_1file.html" target="_top" xlink:title="Defines interface of file. ">
<polygon fill="none" stroke="black" points="217,-120.5 217,-141.5 273,-141.5 273,-120.5 217,-120.5"/>
<text text-anchor="middle" x="245" y="-128.5" font-family="Helvetica,sans-Serif" font-size="10.00">stxxl::file</text>
</a>
</g>
<!-- Node3&#45;&gt;Node2 -->
<g id="edge4" class="edge"><title>Node3&#45;&gt;Node2</title>
<path fill="none" stroke="midnightblue" d="M271.304,-115.058C288.747,-104.486 311.156,-90.9053 326.454,-81.6339"/>
<polygon fill="midnightblue" stroke="midnightblue" points="269.437,-112.097 262.699,-120.273 273.065,-118.083 269.437,-112.097"/>
</g>
<!-- Node9 -->
<g id="node18" class="node"><title>Node9</title>
<a xlink:href="classstxxl_1_1disk__queued__file.html" target="_top" xlink:title="Implementation of some file methods based on serving_request. ">
<polygon fill="none" stroke="black" points="160,-60.5 160,-81.5 276,-81.5 276,-60.5 160,-60.5"/>
<text text-anchor="middle" x="218" y="-68.5" font-family="Helvetica,sans-Serif" font-size="10.00">stxxl::disk_queued_file</text>
</a>
</g>
<!-- Node3&#45;&gt;Node9 -->
<g id="edge22" class="edge"><title>Node3&#45;&gt;Node9</title>
<path fill="none" stroke="midnightblue" d="M235.933,-110.851C231.531,-101.069 226.422,-89.7145 222.785,-81.6339"/>
<polygon fill="midnightblue" stroke="midnightblue" points="232.878,-112.59 240.173,-120.273 239.261,-109.718 232.878,-112.59"/>
</g>
<!-- Node4 -->
<g id="node6" class="node"><title>Node4</title>
<a xlink:href="classstxxl_1_1noncopyable.html" target="_top" xlink:title="stxxl::noncopyable">
<polygon fill="none" stroke="black" points="216,-379.5 216,-400.5 314,-400.5 314,-379.5 216,-379.5"/>
<text text-anchor="middle" x="265" y="-387.5" font-family="Helvetica,sans-Serif" font-size="10.00">stxxl::noncopyable</text>
</a>
</g>
<!-- Node4&#45;&gt;Node3 -->
<g id="edge6" class="edge"><title>Node4&#45;&gt;Node3</title>
<path fill="none" stroke="#8b1a1a" d="M250.73,-370.788C231.093,-342.865 197.027,-288.636 187,-236 184.006,-220.283 181.521,-215.033 187,-200 195.895,-175.593 217.642,-153.826 231.833,-141.538"/>
<polygon fill="#8b1a1a" stroke="#8b1a1a" points="248.104,-373.131 256.781,-379.209 253.788,-369.046 248.104,-373.131"/>
</g>
<!-- Node6 -->
<g id="node10" class="node"><title>Node6</title>
<a xlink:href="classstxxl_1_1mutex.html" target="_top" xlink:title="stxxl::mutex">
<polygon fill="none" stroke="black" points="229.5,-293.5 229.5,-314.5 300.5,-314.5 300.5,-293.5 229.5,-293.5"/>
<text text-anchor="middle" x="265" y="-301.5" font-family="Helvetica,sans-Serif" font-size="10.00">stxxl::mutex</text>
</a>
</g>
<!-- Node4&#45;&gt;Node6 -->
<g id="edge12" class="edge"><title>Node4&#45;&gt;Node6</title>
<path fill="none" stroke="#8b1a1a" d="M265,-369.256C265,-352.026 265,-328.215 265,-314.632"/>
<polygon fill="#8b1a1a" stroke="#8b1a1a" points="261.5,-369.455 265,-379.455 268.5,-369.455 261.5,-369.455"/>
</g>
<!-- Node11 -->
<g id="node23" class="node"><title>Node11</title>
<a xlink:href="classstxxl_1_1simdisk__geometry.html" target="_top" xlink:title="stxxl::simdisk_geometry">
<polygon fill="none" stroke="black" points="334.5,-293.5 334.5,-314.5 457.5,-314.5 457.5,-293.5 334.5,-293.5"/>
<text text-anchor="middle" x="396" y="-301.5" font-family="Helvetica,sans-Serif" font-size="10.00">stxxl::simdisk_geometry</text>
</a>
</g>
<!-- Node4&#45;&gt;Node11 -->
<g id="edge28" class="edge"><title>Node4&#45;&gt;Node11</title>
<path fill="none" stroke="#8b1a1a" d="M289.739,-373.759C316.153,-356.419 357.243,-329.444 379.805,-314.632"/>
<polygon fill="#8b1a1a" stroke="#8b1a1a" points="287.502,-371.041 281.063,-379.455 291.344,-376.893 287.502,-371.041"/>
</g>
<!-- Node5 -->
<g id="node8" class="node"><title>Node5</title>
<a xlink:href="classstxxl_1_1atomic__counted__object.html" target="_top" xlink:title="Provides reference counting abilities for use with counting_ptr with mutex locking. ">
<polygon fill="none" stroke="black" points="195.5,-201 195.5,-235 308.5,-235 308.5,-201 195.5,-201"/>
<text text-anchor="start" x="203.5" y="-222" font-family="Helvetica,sans-Serif" font-size="10.00">stxxl::atomic_counted</text>
<text text-anchor="middle" x="252" y="-209" font-family="Helvetica,sans-Serif" font-size="10.00">_object</text>
</a>
</g>
<!-- Node5&#45;&gt;Node3 -->
<g id="edge8" class="edge"><title>Node5&#45;&gt;Node3</title>
<path fill="none" stroke="#9a32cd" stroke-dasharray="5,2" d="M249.79,-190.538C248.453,-173.92 246.824,-153.67 245.852,-141.584"/>
<polygon fill="#9a32cd" stroke="#9a32cd" points="246.326,-191.125 250.617,-200.812 253.304,-190.563 246.326,-191.125"/>
<text text-anchor="middle" x="282" y="-168.5" font-family="Helvetica,sans-Serif" font-size="10.00"> m_request_ref</text>
</g>
<!-- Node6&#45;&gt;Node2 -->
<g id="edge18" class="edge"><title>Node6&#45;&gt;Node2</title>
<path fill="none" stroke="#9a32cd" stroke-dasharray="5,2" d="M303.007,-288.475C311.56,-283.219 319.673,-276.472 325,-268 350.661,-227.192 330.353,-207.981 335,-160 337.74,-131.712 341.162,-98.3879 342.89,-81.6829"/>
<polygon fill="#9a32cd" stroke="#9a32cd" points="301.101,-285.529 294.033,-293.421 304.48,-291.659 301.101,-285.529"/>
<text text-anchor="middle" x="357" y="-168.5" font-family="Helvetica,sans-Serif" font-size="10.00"> fd_mutex</text>
</g>
<!-- Node6&#45;&gt;Node5 -->
<g id="edge10" class="edge"><title>Node6&#45;&gt;Node5</title>
<path fill="none" stroke="#9a32cd" stroke-dasharray="5,2" d="M226.847,-288.537C218.532,-283.298 210.795,-276.543 206,-268 199.13,-255.76 208.586,-244.095 220.675,-235.116"/>
<polygon fill="#9a32cd" stroke="#9a32cd" points="225.188,-291.62 235.622,-293.459 228.613,-285.515 225.188,-291.62"/>
<text text-anchor="middle" x="265.5" y="-258.5" font-family="Helvetica,sans-Serif" font-size="10.00"> m_reference_count_mutex</text>
</g>
<!-- Node7 -->
<g id="node13" class="node"><title>Node7</title>
<a xlink:href="structstxxl_1_1choose__int__types.html" target="_top" xlink:title="stxxl::choose_int_types\l\&lt; my_pointer_size \&gt;">
<polygon fill="none" stroke="black" points="1,-287 1,-321 121,-321 121,-287 1,-287"/>
<text text-anchor="start" x="9" y="-308" font-family="Helvetica,sans-Serif" font-size="10.00">stxxl::choose_int_types</text>
<text text-anchor="middle" x="61" y="-295" font-family="Helvetica,sans-Serif" font-size="10.00">&lt; my_pointer_size &gt;</text>
</a>
</g>
<!-- Node7&#45;&gt;Node5 -->
<g id="edge14" class="edge"><title>Node7&#45;&gt;Node5</title>
<path fill="none" stroke="#9a32cd" stroke-dasharray="5,2" d="M81.6389,-279.353C90.4528,-270.207 101.384,-260.492 113,-254 138.242,-239.893 169.149,-231.179 195.403,-225.867"/>
<polygon fill="#9a32cd" stroke="#9a32cd" points="78.9641,-277.091 74.7647,-286.818 84.1134,-281.833 78.9641,-277.091"/>
<text text-anchor="middle" x="156.5" y="-258.5" font-family="Helvetica,sans-Serif" font-size="10.00"> m_reference_count</text>
</g>
<!-- Node8 -->
<g id="node15" class="node"><title>Node8</title>
<a xlink:href="structstxxl_1_1choose__int__types.html" target="_top" xlink:title="stxxl::choose_int_types\l\&lt; PtrSize \&gt;">
<polygon fill="none" stroke="black" points="0,-373 0,-407 120,-407 120,-373 0,-373"/>
<text text-anchor="start" x="8" y="-394" font-family="Helvetica,sans-Serif" font-size="10.00">stxxl::choose_int_types</text>
<text text-anchor="middle" x="60" y="-381" font-family="Helvetica,sans-Serif" font-size="10.00">&lt; PtrSize &gt;</text>
</a>
</g>
<!-- Node8&#45;&gt;Node7 -->
<g id="edge16" class="edge"><title>Node8&#45;&gt;Node7</title>
<path fill="none" stroke="orange" stroke-dasharray="5,2" d="M60.3216,-362.342C60.4794,-348.774 60.6644,-332.861 60.8013,-321.084"/>
<polygon fill="orange" stroke="orange" points="56.819,-362.557 60.2024,-372.597 63.8185,-362.638 56.819,-362.557"/>
<text text-anchor="middle" x="107.5" y="-344.5" font-family="Helvetica,sans-Serif" font-size="10.00"> &lt; my_pointer_size &gt;</text>
</g>
<!-- Node9&#45;&gt;Node1 -->
<g id="edge20" class="edge"><title>Node9&#45;&gt;Node1</title>
<path fill="none" stroke="midnightblue" d="M249.361,-56.0663C271.799,-45.3814 301.469,-31.2528 321.562,-21.6846"/>
<polygon fill="midnightblue" stroke="midnightblue" points="247.76,-52.9519 240.236,-60.4113 250.77,-59.2719 247.76,-52.9519"/>
</g>
<!-- Node10 -->
<g id="node21" class="node"><title>Node10</title>
<a xlink:href="classstxxl_1_1IC35L080AVVA07.html" target="_top" xlink:title="stxxl::IC35L080AVVA07">
<polygon fill="none" stroke="black" points="387.5,-160.5 387.5,-181.5 510.5,-181.5 510.5,-160.5 387.5,-160.5"/>
<text text-anchor="middle" x="449" y="-168.5" font-family="Helvetica,sans-Serif" font-size="10.00">stxxl::IC35L080AVVA07</text>
</a>
</g>
<!-- Node10&#45;&gt;Node1 -->
<g id="edge24" class="edge"><title>Node10&#45;&gt;Node1</title>
<path fill="none" stroke="midnightblue" d="M443.74,-150.448C437.025,-126.953 423.732,-88.1196 403,-60 391.385,-44.2458 373.655,-30.4277 360.663,-21.5168"/>
<polygon fill="midnightblue" stroke="midnightblue" points="440.433,-151.625 446.438,-160.353 447.186,-149.785 440.433,-151.625"/>
</g>
<!-- Node11&#45;&gt;Node10 -->
<g id="edge26" class="edge"><title>Node11&#45;&gt;Node10</title>
<path fill="none" stroke="midnightblue" d="M404.098,-283.679C415.515,-255.029 435.932,-203.793 444.751,-181.663"/>
<polygon fill="midnightblue" stroke="midnightblue" points="400.788,-282.531 400.337,-293.116 407.29,-285.122 400.788,-282.531"/>
</g>
</g>
</svg>
