<?xml version="1.0" encoding="UTF-8" standalone="no"?>
<!DOCTYPE svg PUBLIC "-//W3C//DTD SVG 1.1//EN"
 "http://www.w3.org/Graphics/SVG/1.1/DTD/svg11.dtd">
<!-- Generated by graphviz version 2.26.3 (20100126.1600)
 -->
<!-- Title: stxxl::winner_tree&lt; Comparator &gt; Pages: 1 -->
<svg width="470pt" height="334pt"
 viewBox="0.00 0.00 470.00 334.00" xmlns="http://www.w3.org/2000/svg" xmlns:xlink="http://www.w3.org/1999/xlink">
<g id="graph1" class="graph" transform="scale(1 1) rotate(0) translate(4 330)">
<title>stxxl::winner_tree&lt; Comparator &gt;</title>
<!-- Node1 -->
<g id="node1" class="node"><title>Node1</title>
<polygon fill="#bfbfbf" stroke="black" points="0,-139 0,-173 94,-173 94,-139 0,-139"/>
<text text-anchor="start" x="8" y="-160" font-family="Helvetica,sans-Serif" font-size="10.00">stxxl::winner_tree</text>
<text text-anchor="middle" x="47" y="-147" font-family="Helvetica,sans-Serif" font-size="10.00">&lt; Comparator &gt;</text>
</g>
<!-- Node2 -->
<g id="node3" class="node"><title>Node2</title>
<a xlink:href="classstxxl_1_1winner__tree.html" target="_top" xlink:title="stxxl::winner_tree\l\&lt; stxxl::ppq_local::\lminima_tree::ia_comp \&gt;">
<polygon fill="none" stroke="black" points="314,-264.5 314,-311.5 436,-311.5 436,-264.5 314,-264.5"/>
<text text-anchor="start" x="322" y="-298.5" font-family="Helvetica,sans-Serif" font-size="10.00">stxxl::winner_tree</text>
<text text-anchor="start" x="322" y="-285.5" font-family="Helvetica,sans-Serif" font-size="10.00">&lt; stxxl::ppq_local::</text>
<text text-anchor="middle" x="375" y="-272.5" font-family="Helvetica,sans-Serif" font-size="10.00">minima_tree::ia_comp &gt;</text>
</a>
</g>
<!-- Node1&#45;&gt;Node2 -->
<g id="edge2" class="edge"><title>Node1&#45;&gt;Node2</title>
<path fill="none" stroke="orange" stroke-dasharray="5,2" d="M54.919,-182.951C64.1076,-208.987 81.9744,-247.164 112,-266 172.647,-304.045 257.237,-303.844 313.95,-297.911"/>
<polygon fill="orange" stroke="orange" points="58.1861,-181.684 51.7104,-173.298 51.5435,-183.892 58.1861,-181.684"/>
<text text-anchor="start" x="135" y="-317" font-family="Helvetica,sans-Serif" font-size="10.00"> &lt; stxxl::ppq_local</text>
<text text-anchor="middle" x="191" y="-304" font-family="Helvetica,sans-Serif" font-size="10.00">::minima_tree::ia_comp &gt;</text>
</g>
<!-- Node3 -->
<g id="node5" class="node"><title>Node3</title>
<a xlink:href="classstxxl_1_1winner__tree.html" target="_top" xlink:title="stxxl::winner_tree\l\&lt; stxxl::ppq_local::\lminima_tree::heaps_comp \&gt;">
<polygon fill="none" stroke="black" points="305,-198.5 305,-245.5 445,-245.5 445,-198.5 305,-198.5"/>
<text text-anchor="start" x="313" y="-232.5" font-family="Helvetica,sans-Serif" font-size="10.00">stxxl::winner_tree</text>
<text text-anchor="start" x="313" y="-219.5" font-family="Helvetica,sans-Serif" font-size="10.00">&lt; stxxl::ppq_local::</text>
<text text-anchor="middle" x="375" y="-206.5" font-family="Helvetica,sans-Serif" font-size="10.00">minima_tree::heaps_comp &gt;</text>
</a>
</g>
<!-- Node1&#45;&gt;Node3 -->
<g id="edge4" class="edge"><title>Node1&#45;&gt;Node3</title>
<path fill="none" stroke="orange" stroke-dasharray="5,2" d="M75.1878,-179.071C86.0578,-186.734 98.9968,-194.461 112,-199 174.747,-220.902 250.788,-225.372 304.933,-225.131"/>
<polygon fill="orange" stroke="orange" points="77.0786,-176.116 66.952,-173.001 72.9256,-181.751 77.0786,-176.116"/>
<text text-anchor="start" x="145" y="-254" font-family="Helvetica,sans-Serif" font-size="10.00"> &lt; stxxl::ppq_local</text>
<text text-anchor="start" x="145" y="-241" font-family="Helvetica,sans-Serif" font-size="10.00">::minima_tree::heaps</text>
<text text-anchor="middle" x="191" y="-228" font-family="Helvetica,sans-Serif" font-size="10.00">_comp &gt;</text>
</g>
<!-- Node4 -->
<g id="node7" class="node"><title>Node4</title>
<a xlink:href="classstxxl_1_1winner__tree.html" target="_top" xlink:title="stxxl::winner_tree\l\&lt; stxxl::ppq_local::\lminima_tree::head_comp \&gt;">
<polygon fill="none" stroke="black" points="307.5,-132.5 307.5,-179.5 442.5,-179.5 442.5,-132.5 307.5,-132.5"/>
<text text-anchor="start" x="315.5" y="-166.5" font-family="Helvetica,sans-Serif" font-size="10.00">stxxl::winner_tree</text>
<text text-anchor="start" x="315.5" y="-153.5" font-family="Helvetica,sans-Serif" font-size="10.00">&lt; stxxl::ppq_local::</text>
<text text-anchor="middle" x="375" y="-140.5" font-family="Helvetica,sans-Serif" font-size="10.00">minima_tree::head_comp &gt;</text>
</a>
</g>
<!-- Node1&#45;&gt;Node4 -->
<g id="edge6" class="edge"><title>Node1&#45;&gt;Node4</title>
<path fill="none" stroke="orange" stroke-dasharray="5,2" d="M104.556,-156C161.177,-156 247.601,-156 307.447,-156"/>
<polygon fill="orange" stroke="orange" points="104.344,-152.5 94.3437,-156 104.344,-159.5 104.344,-152.5"/>
<text text-anchor="start" x="147.5" y="-186" font-family="Helvetica,sans-Serif" font-size="10.00"> &lt; stxxl::ppq_local</text>
<text text-anchor="start" x="147.5" y="-173" font-family="Helvetica,sans-Serif" font-size="10.00">::minima_tree::head</text>
<text text-anchor="middle" x="191" y="-160" font-family="Helvetica,sans-Serif" font-size="10.00">_comp &gt;</text>
</g>
<!-- Node5 -->
<g id="node9" class="node"><title>Node5</title>
<a xlink:href="classstxxl_1_1winner__tree.html" target="_top" xlink:title="stxxl::winner_tree\l\&lt; stxxl::parallel_priority\l_queue::hint_comparator \&gt;">
<polygon fill="none" stroke="black" points="308.5,-66.5 308.5,-113.5 441.5,-113.5 441.5,-66.5 308.5,-66.5"/>
<text text-anchor="start" x="316.5" y="-100.5" font-family="Helvetica,sans-Serif" font-size="10.00">stxxl::winner_tree</text>
<text text-anchor="start" x="316.5" y="-87.5" font-family="Helvetica,sans-Serif" font-size="10.00">&lt; stxxl::parallel_priority</text>
<text text-anchor="middle" x="375" y="-74.5" font-family="Helvetica,sans-Serif" font-size="10.00">_queue::hint_comparator &gt;</text>
</a>
</g>
<!-- Node1&#45;&gt;Node5 -->
<g id="edge8" class="edge"><title>Node1&#45;&gt;Node5</title>
<path fill="none" stroke="orange" stroke-dasharray="5,2" d="M88.2137,-134.773C95.963,-131.419 104.112,-128.304 112,-126 177.249,-106.939 254.618,-97.8916 308.479,-93.6466"/>
<polygon fill="orange" stroke="orange" points="86.6698,-131.63 79.0039,-138.943 89.5572,-138.007 86.6698,-131.63"/>
<text text-anchor="start" x="132.5" y="-143" font-family="Helvetica,sans-Serif" font-size="10.00"> &lt; stxxl::parallel_priority</text>
<text text-anchor="middle" x="191" y="-130" font-family="Helvetica,sans-Serif" font-size="10.00">_queue::hint_comparator &gt;</text>
</g>
<!-- Node6 -->
<g id="node11" class="node"><title>Node6</title>
<a xlink:href="classstxxl_1_1winner__tree.html" target="_top" xlink:title="stxxl::winner_tree\l\&lt; stxxl::parallel_priority\l_queue::external_min_comparator \&gt;">
<polygon fill="none" stroke="black" points="288.5,-0.5 288.5,-47.5 461.5,-47.5 461.5,-0.5 288.5,-0.5"/>
<text text-anchor="start" x="296.5" y="-34.5" font-family="Helvetica,sans-Serif" font-size="10.00">stxxl::winner_tree</text>
<text text-anchor="start" x="296.5" y="-21.5" font-family="Helvetica,sans-Serif" font-size="10.00">&lt; stxxl::parallel_priority</text>
<text text-anchor="middle" x="375" y="-8.5" font-family="Helvetica,sans-Serif" font-size="10.00">_queue::external_min_comparator &gt;</text>
</a>
</g>
<!-- Node1&#45;&gt;Node6 -->
<g id="edge10" class="edge"><title>Node1&#45;&gt;Node6</title>
<path fill="none" stroke="orange" stroke-dasharray="5,2" d="M59.1465,-129.603C70.0107,-109.116 87.9356,-81.7882 112,-67 164.721,-34.6013 234.143,-24.3192 288.423,-21.8873"/>
<polygon fill="orange" stroke="orange" points="55.9124,-128.243 54.5197,-138.746 62.1581,-131.404 55.9124,-128.243"/>
<text text-anchor="start" x="112.5" y="-84" font-family="Helvetica,sans-Serif" font-size="10.00"> &lt; stxxl::parallel_priority</text>
<text text-anchor="middle" x="191" y="-71" font-family="Helvetica,sans-Serif" font-size="10.00">_queue::external_min_comparator &gt;</text>
</g>
</g>
</svg>
