<?xml version="1.0" encoding="UTF-8" standalone="no"?>
<!DOCTYPE svg PUBLIC "-//W3C//DTD SVG 1.1//EN"
 "http://www.w3.org/Graphics/SVG/1.1/DTD/svg11.dtd">
<!-- Generated by graphviz version 2.26.3 (20100126.1600)
 -->
<!-- Title: stxxl::semaphore Pages: 1 -->
<svg width="232pt" height="162pt"
 viewBox="0.00 0.00 232.00 162.00" xmlns="http://www.w3.org/2000/svg" xmlns:xlink="http://www.w3.org/1999/xlink">
<g id="graph1" class="graph" transform="scale(1 1) rotate(0) translate(4 158)">
<title>stxxl::semaphore</title>
<!-- Node1 -->
<g id="node1" class="node"><title>Node1</title>
<polygon fill="#bfbfbf" stroke="black" points="3,-0.5 3,-21.5 95,-21.5 95,-0.5 3,-0.5"/>
<text text-anchor="middle" x="49" y="-8.5" font-family="Helvetica,sans-Serif" font-size="10.00">stxxl::semaphore</text>
</g>
<!-- Node2 -->
<g id="node2" class="node"><title>Node2</title>
<a xlink:href="classstxxl_1_1noncopyable.html" target="_top" xlink:title="stxxl::noncopyable">
<polygon fill="none" stroke="black" points="0,-132.5 0,-153.5 98,-153.5 98,-132.5 0,-132.5"/>
<text text-anchor="middle" x="49" y="-140.5" font-family="Helvetica,sans-Serif" font-size="10.00">stxxl::noncopyable</text>
</a>
</g>
<!-- Node2&#45;&gt;Node1 -->
<g id="edge2" class="edge"><title>Node2&#45;&gt;Node1</title>
<path fill="none" stroke="#8b1a1a" d="M27.4588,-125.489C18.7238,-117.01 9.61864,-106.056 5,-94 1.50213,-84.8693 1.99446,-81.3044 5,-72 11.422,-52.119 27.004,-33.2611 37.7874,-21.9135"/>
<polygon fill="#8b1a1a" stroke="#8b1a1a" points="25.1633,-128.132 34.9177,-132.268 29.8714,-122.952 25.1633,-128.132"/>
</g>
<!-- Node3 -->
<g id="node4" class="node"><title>Node3</title>
<a xlink:href="classstxxl_1_1mutex.html" target="_top" xlink:title="stxxl::mutex">
<polygon fill="none" stroke="black" points="13.5,-72.5 13.5,-93.5 84.5,-93.5 84.5,-72.5 13.5,-72.5"/>
<text text-anchor="middle" x="49" y="-80.5" font-family="Helvetica,sans-Serif" font-size="10.00">stxxl::mutex</text>
</a>
</g>
<!-- Node2&#45;&gt;Node3 -->
<g id="edge6" class="edge"><title>Node2&#45;&gt;Node3</title>
<path fill="none" stroke="#8b1a1a" d="M49,-122.231C49,-112.592 49,-101.544 49,-93.6339"/>
<polygon fill="#8b1a1a" stroke="#8b1a1a" points="45.5001,-122.273 49,-132.273 52.5001,-122.273 45.5001,-122.273"/>
</g>
<!-- Node4 -->
<g id="node7" class="node"><title>Node4</title>
<a xlink:href="classstxxl_1_1condition__variable.html" target="_top" xlink:title="stxxl::condition_variable">
<polygon fill="none" stroke="black" points="102,-72.5 102,-93.5 224,-93.5 224,-72.5 102,-72.5"/>
<text text-anchor="middle" x="163" y="-80.5" font-family="Helvetica,sans-Serif" font-size="10.00">stxxl::condition_variable</text>
</a>
</g>
<!-- Node2&#45;&gt;Node4 -->
<g id="edge10" class="edge"><title>Node2&#45;&gt;Node4</title>
<path fill="none" stroke="#8b1a1a" d="M78.1932,-127.635C98.3928,-117.004 124.763,-103.125 142.699,-93.6846"/>
<polygon fill="#8b1a1a" stroke="#8b1a1a" points="76.3376,-124.657 69.1185,-132.411 79.5978,-130.851 76.3376,-124.657"/>
</g>
<!-- Node3&#45;&gt;Node1 -->
<g id="edge4" class="edge"><title>Node3&#45;&gt;Node1</title>
<path fill="none" stroke="#9a32cd" stroke-dasharray="5,2" d="M49,-62.2348C49,-48.969 49,-32.3188 49,-21.6674"/>
<polygon fill="#9a32cd" stroke="#9a32cd" points="45.5001,-62.3761 49,-72.3762 52.5001,-62.3762 45.5001,-62.3761"/>
<text text-anchor="middle" x="71" y="-44.5" font-family="Helvetica,sans-Serif" font-size="10.00"> m_mutex</text>
</g>
<!-- Node4&#45;&gt;Node1 -->
<g id="edge8" class="edge"><title>Node4&#45;&gt;Node1</title>
<path fill="none" stroke="#9a32cd" stroke-dasharray="5,2" d="M138.648,-66.8524C126.245,-58.7001 110.888,-48.7162 97,-40 87.104,-33.7894 75.9387,-27.0292 66.8684,-21.5992"/>
<polygon fill="#9a32cd" stroke="#9a32cd" points="136.818,-69.8384 147.094,-72.4204 140.671,-63.9941 136.818,-69.8384"/>
<text text-anchor="middle" x="137" y="-44.5" font-family="Helvetica,sans-Serif" font-size="10.00"> m_cond</text>
</g>
</g>
</svg>
