<?xml version="1.0" encoding="UTF-8" standalone="no"?>
<!DOCTYPE svg PUBLIC "-//W3C//DTD SVG 1.1//EN"
 "http://www.w3.org/Graphics/SVG/1.1/DTD/svg11.dtd">
<!-- Generated by graphviz version 2.26.3 (20100126.1600)
 -->
<!-- Title: stxxl::BIDArray&lt; BLK_SIZE &gt; Pages: 1 -->
<svg width="204pt" height="350pt"
 viewBox="0.00 0.00 204.00 350.00" xmlns="http://www.w3.org/2000/svg" xmlns:xlink="http://www.w3.org/1999/xlink">
<g id="graph1" class="graph" transform="scale(1 1) rotate(0) translate(4 346)">
<title>stxxl::BIDArray&lt; BLK_SIZE &gt;</title>
<!-- Node1 -->
<g id="node1" class="node"><title>Node1</title>
<polygon fill="#bfbfbf" stroke="black" points="2,-87 2,-121 114,-121 114,-87 2,-87"/>
<text text-anchor="start" x="10" y="-108" font-family="Helvetica,sans-Serif" font-size="10.00">stxxl::BIDArray&lt; BLK</text>
<text text-anchor="middle" x="58" y="-95" font-family="Helvetica,sans-Serif" font-size="10.00">_SIZE &gt;</text>
</g>
<!-- Node5 -->
<g id="node10" class="node"><title>Node5</title>
<a xlink:href="classstxxl_1_1BIDArray.html" target="_top" xlink:title="stxxl::BIDArray\&lt; block\l_type::raw_size \&gt;">
<polygon fill="none" stroke="black" points="0,-1 0,-35 116,-35 116,-1 0,-1"/>
<text text-anchor="start" x="8" y="-22" font-family="Helvetica,sans-Serif" font-size="10.00">stxxl::BIDArray&lt; block</text>
<text text-anchor="middle" x="58" y="-9" font-family="Helvetica,sans-Serif" font-size="10.00">_type::raw_size &gt;</text>
</a>
</g>
<!-- Node1&#45;&gt;Node5 -->
<g id="edge10" class="edge"><title>Node1&#45;&gt;Node5</title>
<path fill="none" stroke="orange" stroke-dasharray="5,2" d="M58,-76.342C58,-62.7741 58,-46.8607 58,-35.084"/>
<polygon fill="orange" stroke="orange" points="54.5001,-76.5966 58,-86.5966 61.5001,-76.5967 54.5001,-76.5966"/>
<text text-anchor="middle" x="115" y="-58.5" font-family="Helvetica,sans-Serif" font-size="10.00"> &lt; block_type::raw_size &gt;</text>
</g>
<!-- Node2 -->
<g id="node2" class="node"><title>Node2</title>
<a xlink:href="classstxxl_1_1simple__vector.html" target="_top" xlink:title="stxxl::simple_vector\l\&lt; BID\&lt; BLK_SIZE \&gt; \&gt;">
<polygon fill="none" stroke="black" points="0,-161 0,-195 116,-195 116,-161 0,-161"/>
<text text-anchor="start" x="8" y="-182" font-family="Helvetica,sans-Serif" font-size="10.00">stxxl::simple_vector</text>
<text text-anchor="middle" x="58" y="-169" font-family="Helvetica,sans-Serif" font-size="10.00">&lt; BID&lt; BLK_SIZE &gt; &gt;</text>
</a>
</g>
<!-- Node2&#45;&gt;Node1 -->
<g id="edge2" class="edge"><title>Node2&#45;&gt;Node1</title>
<path fill="none" stroke="midnightblue" d="M58,-150.627C58,-140.725 58,-129.834 58,-121.07"/>
<polygon fill="midnightblue" stroke="midnightblue" points="54.5001,-150.837 58,-160.837 61.5001,-150.837 54.5001,-150.837"/>
</g>
<!-- Node3 -->
<g id="node4" class="node"><title>Node3</title>
<a xlink:href="classstxxl_1_1noncopyable.html" target="_top" xlink:title="stxxl::noncopyable">
<polygon fill="none" stroke="black" points="19,-320.5 19,-341.5 117,-341.5 117,-320.5 19,-320.5"/>
<text text-anchor="middle" x="68" y="-328.5" font-family="Helvetica,sans-Serif" font-size="10.00">stxxl::noncopyable</text>
</a>
</g>
<!-- Node3&#45;&gt;Node2 -->
<g id="edge4" class="edge"><title>Node3&#45;&gt;Node2</title>
<path fill="none" stroke="#8b1a1a" d="M64.4901,-310.144C63.1679,-301.466 61.7934,-291.271 61,-282 58.3972,-251.585 57.9235,-216.003 57.9021,-195.332"/>
<polygon fill="#8b1a1a" stroke="#8b1a1a" points="61.0537,-310.82 66.0891,-320.142 67.9658,-309.715 61.0537,-310.82"/>
</g>
<!-- Node4 -->
<g id="node6" class="node"><title>Node4</title>
<a xlink:href="classstxxl_1_1simple__vector.html" target="_top" xlink:title="Simpler non&#45;growing vector without initialization. ">
<polygon fill="none" stroke="black" points="70,-247 70,-281 174,-281 174,-247 70,-247"/>
<text text-anchor="start" x="78" y="-268" font-family="Helvetica,sans-Serif" font-size="10.00">stxxl::simple_vector</text>
<text text-anchor="middle" x="122" y="-255" font-family="Helvetica,sans-Serif" font-size="10.00">&lt; ValueType &gt;</text>
</a>
</g>
<!-- Node3&#45;&gt;Node4 -->
<g id="edge8" class="edge"><title>Node3&#45;&gt;Node4</title>
<path fill="none" stroke="#8b1a1a" d="M83.0915,-312.275C90.9938,-302.471 100.598,-290.554 108.287,-281.014"/>
<polygon fill="#8b1a1a" stroke="#8b1a1a" points="80.2262,-310.253 76.676,-320.235 85.6764,-314.646 80.2262,-310.253"/>
</g>
<!-- Node4&#45;&gt;Node2 -->
<g id="edge6" class="edge"><title>Node4&#45;&gt;Node2</title>
<path fill="none" stroke="orange" stroke-dasharray="5,2" d="M102.903,-238.339C92.5003,-224.36 79.9116,-207.444 70.7137,-195.084"/>
<polygon fill="orange" stroke="orange" points="100.271,-240.664 109.049,-246.597 105.886,-236.485 100.271,-240.664"/>
<text text-anchor="middle" x="144.5" y="-218.5" font-family="Helvetica,sans-Serif" font-size="10.00"> &lt; BID&lt; BLK_SIZE &gt; &gt;</text>
</g>
</g>
</svg>
