<?xml version="1.0" encoding="UTF-8" standalone="no"?>
<!DOCTYPE svg PUBLIC "-//W3C//DTD SVG 1.1//EN"
 "http://www.w3.org/Graphics/SVG/1.1/DTD/svg11.dtd">
<!-- Generated by graphviz version 2.38.0 (20140413.2041)
 -->
<!-- Title: stxxl::linuxaio_file Pages: 1 -->
<svg width="340pt" height="376pt"
 viewBox="0.00 0.00 340.00 376.00" xmlns="http://www.w3.org/2000/svg" xmlns:xlink="http://www.w3.org/1999/xlink">
<g id="graph0" class="graph" transform="scale(1 1) rotate(0) translate(4 372)">
<title>stxxl::linuxaio_file</title>
<!-- Node1 -->
<g id="node1" class="node"><title>Node1</title>
<polygon fill="#bfbfbf" stroke="black" points="92.5,-0.5 92.5,-19.5 187.5,-19.5 187.5,-0.5 92.5,-0.5"/>
<text text-anchor="middle" x="140" y="-7.5" font-family="Helvetica,sans-Serif" font-size="10.00">stxxl::linuxaio_file</text>
</g>
<!-- Node2 -->
<g id="node2" class="node"><title>Node2</title>
<g id="a_node2"><a xlink:href="classstxxl_1_1ufs__file__base.html" target="_top" xlink:title="Base for UNIX file system implementations. ">
<polygon fill="none" stroke="black" points="13.5,-57.5 13.5,-76.5 114.5,-76.5 114.5,-57.5 13.5,-57.5"/>
<text text-anchor="middle" x="64" y="-64.5" font-family="Helvetica,sans-Serif" font-size="10.00">stxxl::ufs_file_base</text>
</a>
</g>
</g>
<!-- Node2&#45;&gt;Node1 -->
<g id="edge1" class="edge"><title>Node2&#45;&gt;Node1</title>
<path fill="none" stroke="midnightblue" d="M84.3307,-51.287C98.2559,-41.2095 116.253,-28.1851 127.958,-19.7149"/>
<polygon fill="midnightblue" stroke="midnightblue" points="81.9242,-48.7081 75.875,-57.4062 86.0281,-54.3789 81.9242,-48.7081"/>
</g>
<!-- Node3 -->
<g id="node3" class="node"><title>Node3</title>
<g id="a_node3"><a xlink:href="classstxxl_1_1file.html" target="_top" xlink:title="Defines interface of file. ">
<polygon fill="none" stroke="black" points="102,-114.5 102,-133.5 158,-133.5 158,-114.5 102,-114.5"/>
<text text-anchor="middle" x="130" y="-121.5" font-family="Helvetica,sans-Serif" font-size="10.00">stxxl::file</text>
</a>
</g>
</g>
<!-- Node3&#45;&gt;Node2 -->
<g id="edge2" class="edge"><title>Node3&#45;&gt;Node2</title>
<path fill="none" stroke="midnightblue" d="M111.998,-107.998C99.9542,-97.9619 84.5253,-85.1044 74.4579,-76.7149"/>
<polygon fill="midnightblue" stroke="midnightblue" points="109.765,-110.693 119.688,-114.406 114.246,-105.316 109.765,-110.693"/>
</g>
<!-- Node9 -->
<g id="node9" class="node"><title>Node9</title>
<g id="a_node9"><a xlink:href="classstxxl_1_1disk__queued__file.html" target="_top" xlink:title="Implementation of some file methods based on serving_request. ">
<polygon fill="none" stroke="black" points="133,-57.5 133,-76.5 249,-76.5 249,-57.5 133,-57.5"/>
<text text-anchor="middle" x="191" y="-64.5" font-family="Helvetica,sans-Serif" font-size="10.00">stxxl::disk_queued_file</text>
</a>
</g>
</g>
<!-- Node3&#45;&gt;Node9 -->
<g id="edge11" class="edge"><title>Node3&#45;&gt;Node9</title>
<path fill="none" stroke="midnightblue" d="M146.96,-107.708C158.043,-97.715 172.119,-85.0237 181.334,-76.7149"/>
<polygon fill="midnightblue" stroke="midnightblue" points="144.614,-105.11 139.531,-114.406 149.302,-110.309 144.614,-105.11"/>
</g>
<!-- Node4 -->
<g id="node4" class="node"><title>Node4</title>
<g id="a_node4"><a xlink:href="classstxxl_1_1noncopyable.html" target="_top" xlink:title="stxxl::noncopyable">
<polygon fill="none" stroke="black" points="0,-343 0,-362 98,-362 98,-343 0,-343"/>
<text text-anchor="middle" x="49" y="-350" font-family="Helvetica,sans-Serif" font-size="10.00">stxxl::noncopyable</text>
</a>
</g>
</g>
<!-- Node4&#45;&gt;Node3 -->
<g id="edge3" class="edge"><title>Node4&#45;&gt;Node3</title>
<path fill="none" stroke="#8b1a1a" d="M44.9599,-332.792C37.7882,-294.173 27.3951,-204.834 71,-152 78.8157,-142.53 90.6719,-136.23 101.711,-132.116"/>
<polygon fill="#8b1a1a" stroke="#8b1a1a" points="41.5407,-333.543 46.9345,-342.662 48.4046,-332.17 41.5407,-333.543"/>
</g>
<!-- Node6 -->
<g id="node6" class="node"><title>Node6</title>
<g id="a_node6"><a xlink:href="classstxxl_1_1mutex.html" target="_top" xlink:title="stxxl::mutex">
<polygon fill="none" stroke="black" points="54.5,-265 54.5,-284 125.5,-284 125.5,-265 54.5,-265"/>
<text text-anchor="middle" x="90" y="-272" font-family="Helvetica,sans-Serif" font-size="10.00">stxxl::mutex</text>
</a>
</g>
</g>
<!-- Node4&#45;&gt;Node6 -->
<g id="edge6" class="edge"><title>Node4&#45;&gt;Node6</title>
<path fill="none" stroke="#8b1a1a" d="M58.6449,-333.622C67.0563,-318.03 78.8943,-296.086 85.3516,-284.116"/>
<polygon fill="#8b1a1a" stroke="#8b1a1a" points="55.3708,-332.319 53.7032,-342.782 61.5315,-335.643 55.3708,-332.319"/>
</g>
<!-- Node5 -->
<g id="node5" class="node"><title>Node5</title>
<g id="a_node5"><a xlink:href="classstxxl_1_1atomic__counted__object.html" target="_top" xlink:title="Provides reference counting abilities for use with counting_ptr with mutex locking. ">
<polygon fill="none" stroke="black" points="92.5,-181.5 92.5,-211.5 205.5,-211.5 205.5,-181.5 92.5,-181.5"/>
<text text-anchor="start" x="100.5" y="-199.5" font-family="Helvetica,sans-Serif" font-size="10.00">stxxl::atomic_counted</text>
<text text-anchor="middle" x="149" y="-188.5" font-family="Helvetica,sans-Serif" font-size="10.00">_object</text>
</a>
</g>
</g>
<!-- Node5&#45;&gt;Node3 -->
<g id="edge4" class="edge"><title>Node5&#45;&gt;Node3</title>
<path fill="none" stroke="#9a32cd" stroke-dasharray="5,2" d="M142.526,-171.477C139.032,-158.515 134.929,-143.29 132.397,-133.893"/>
<polygon fill="#9a32cd" stroke="#9a32cd" points="139.173,-172.489 145.155,-181.233 145.932,-170.667 139.173,-172.489"/>
<text text-anchor="middle" x="174" y="-155" font-family="Helvetica,sans-Serif" font-size="10.00"> m_request_ref</text>
</g>
<!-- Node6&#45;&gt;Node2 -->
<g id="edge9" class="edge"><title>Node6&#45;&gt;Node2</title>
<path fill="none" stroke="#9a32cd" stroke-dasharray="5,2" d="M87.6281,-254.753C82.1854,-211.734 68.9697,-107.28 65.0887,-76.605"/>
<polygon fill="#9a32cd" stroke="#9a32cd" points="84.1883,-255.45 88.9159,-264.932 91.1329,-254.571 84.1883,-255.45"/>
<text text-anchor="middle" x="98" y="-155" font-family="Helvetica,sans-Serif" font-size="10.00"> fd_mutex</text>
</g>
<!-- Node6&#45;&gt;Node5 -->
<g id="edge5" class="edge"><title>Node6&#45;&gt;Node5</title>
<path fill="none" stroke="#9a32cd" stroke-dasharray="5,2" d="M90.1688,-254.627C91.0361,-246.475 93.1641,-237.181 98,-230 103.043,-222.511 110.454,-216.385 118.072,-211.553"/>
<polygon fill="#9a32cd" stroke="#9a32cd" points="86.6676,-254.559 89.6316,-264.731 93.6577,-254.931 86.6676,-254.559"/>
<text text-anchor="middle" x="157.5" y="-233" font-family="Helvetica,sans-Serif" font-size="10.00"> m_reference_count_mutex</text>
</g>
<!-- Node7 -->
<g id="node7" class="node"><title>Node7</title>
<g id="a_node7"><a xlink:href="structstxxl_1_1choose__int__types.html" target="_top" xlink:title="stxxl::choose_int_types\l\&lt; my_pointer_size \&gt;">
<polygon fill="none" stroke="black" points="179,-259.5 179,-289.5 299,-289.5 299,-259.5 179,-259.5"/>
<text text-anchor="start" x="187" y="-277.5" font-family="Helvetica,sans-Serif" font-size="10.00">stxxl::choose_int_types</text>
<text text-anchor="middle" x="239" y="-266.5" font-family="Helvetica,sans-Serif" font-size="10.00">&lt; my_pointer_size &gt;</text>
</a>
</g>
</g>
<!-- Node7&#45;&gt;Node5 -->
<g id="edge7" class="edge"><title>Node7&#45;&gt;Node5</title>
<path fill="none" stroke="#9a32cd" stroke-dasharray="5,2" d="M230.648,-250.167C227.248,-243.041 222.741,-235.614 217,-230 209.235,-222.407 199.357,-216.321 189.553,-211.564"/>
<polygon fill="#9a32cd" stroke="#9a32cd" points="227.479,-251.661 234.609,-259.498 233.923,-248.925 227.479,-251.661"/>
<text text-anchor="middle" x="269.5" y="-233" font-family="Helvetica,sans-Serif" font-size="10.00"> m_reference_count</text>
</g>
<!-- Node8 -->
<g id="node8" class="node"><title>Node8</title>
<g id="a_node8"><a xlink:href="structstxxl_1_1choose__int__types.html" target="_top" xlink:title="stxxl::choose_int_types\l\&lt; PtrSize \&gt;">
<polygon fill="none" stroke="black" points="179,-337.5 179,-367.5 299,-367.5 299,-337.5 179,-337.5"/>
<text text-anchor="start" x="187" y="-355.5" font-family="Helvetica,sans-Serif" font-size="10.00">stxxl::choose_int_types</text>
<text text-anchor="middle" x="239" y="-344.5" font-family="Helvetica,sans-Serif" font-size="10.00">&lt; PtrSize &gt;</text>
</a>
</g>
</g>
<!-- Node8&#45;&gt;Node7 -->
<g id="edge8" class="edge"><title>Node8&#45;&gt;Node7</title>
<path fill="none" stroke="orange" stroke-dasharray="5,2" d="M239,-327.09C239,-314.757 239,-300.224 239,-289.731"/>
<polygon fill="orange" stroke="orange" points="235.5,-327.205 239,-337.205 242.5,-327.205 235.5,-327.205"/>
<text text-anchor="middle" x="285.5" y="-311" font-family="Helvetica,sans-Serif" font-size="10.00"> &lt; my_pointer_size &gt;</text>
</g>
<!-- Node9&#45;&gt;Node1 -->
<g id="edge10" class="edge"><title>Node9&#45;&gt;Node1</title>
<path fill="none" stroke="midnightblue" d="M176.004,-49.8281C166.872,-39.9794 155.561,-27.7817 148.081,-19.7149"/>
<polygon fill="midnightblue" stroke="midnightblue" points="173.665,-52.4533 183.031,-57.4062 178.798,-47.6937 173.665,-52.4533"/>
</g>
</g>
</svg>
