<?xml version="1.0" encoding="UTF-8" standalone="no"?>
<!DOCTYPE svg PUBLIC "-//W3C//DTD SVG 1.1//EN"
 "http://www.w3.org/Graphics/SVG/1.1/DTD/svg11.dtd">
<!-- Generated by graphviz version 2.38.0 (20140413.2041)
 -->
<!-- Title: stxxl::stream::make_tuple&lt; Input1, Input2, Input3, Input4, Input5, Stopper &gt; Pages: 1 -->
<svg width="611pt" height="134pt"
 viewBox="0.00 0.00 611.00 133.50" xmlns="http://www.w3.org/2000/svg" xmlns:xlink="http://www.w3.org/1999/xlink">
<g id="graph0" class="graph" transform="scale(1 1) rotate(0) translate(4 129.5)">
<title>stxxl::stream::make_tuple&lt; Input1, Input2, Input3, Input4, Input5, Stopper &gt;</title>
<!-- Node1 -->
<g id="node1" class="node"><title>Node1</title>
<polygon fill="#bfbfbf" stroke="black" points="487,-39.5 487,-91.5 603,-91.5 603,-39.5 487,-39.5"/>
<text text-anchor="start" x="495" y="-79.5" font-family="Helvetica,sans-Serif" font-size="10.00">stxxl::stream::make</text>
<text text-anchor="start" x="495" y="-68.5" font-family="Helvetica,sans-Serif" font-size="10.00">_tuple&lt; Input1, Input2,</text>
<text text-anchor="start" x="495" y="-57.5" font-family="Helvetica,sans-Serif" font-size="10.00"> Input3, Input4, Input5,</text>
<text text-anchor="middle" x="545" y="-46.5" font-family="Helvetica,sans-Serif" font-size="10.00"> Stopper &gt;</text>
</g>
<!-- Node2 -->
<g id="node2" class="node"><title>Node2</title>
<g id="a_node2"><a xlink:href="structstxxl_1_1tuple.html" target="_top" xlink:title="stxxl::tuple\&lt; typename\l Input1::value_type, typename\l Input2::value_type, typename\l Input3::value_type, typename\l Input4::value_type, typename\l Input5::value_type \&gt;">
<polygon fill="none" stroke="black" points="268,-28.5 268,-102.5 417,-102.5 417,-28.5 268,-28.5"/>
<text text-anchor="start" x="276" y="-90.5" font-family="Helvetica,sans-Serif" font-size="10.00">stxxl::tuple&lt; typename</text>
<text text-anchor="start" x="276" y="-79.5" font-family="Helvetica,sans-Serif" font-size="10.00"> Input1::value_type, typename</text>
<text text-anchor="start" x="276" y="-68.5" font-family="Helvetica,sans-Serif" font-size="10.00"> Input2::value_type, typename</text>
<text text-anchor="start" x="276" y="-57.5" font-family="Helvetica,sans-Serif" font-size="10.00"> Input3::value_type, typename</text>
<text text-anchor="start" x="276" y="-46.5" font-family="Helvetica,sans-Serif" font-size="10.00"> Input4::value_type, typename</text>
<text text-anchor="middle" x="342.5" y="-35.5" font-family="Helvetica,sans-Serif" font-size="10.00"> Input5::value_type &gt;</text>
</a>
</g>
</g>
<!-- Node2&#45;&gt;Node1 -->
<g id="edge1" class="edge"><title>Node2&#45;&gt;Node1</title>
<path fill="none" stroke="#9a32cd" stroke-dasharray="5,2" d="M427.114,-65.5C447.216,-65.5 468.235,-65.5 486.817,-65.5"/>
<polygon fill="#9a32cd" stroke="#9a32cd" points="427.02,-62.0001 417.02,-65.5 427.02,-69.0001 427.02,-62.0001"/>
<text text-anchor="middle" x="452" y="-68.5" font-family="Helvetica,sans-Serif" font-size="10.00"> current</text>
</g>
<!-- Node3 -->
<g id="node3" class="node"><title>Node3</title>
<g id="a_node3"><a xlink:href="structstxxl_1_1Plug.html" target="_top" xlink:title="stxxl::Plug">
<polygon fill="none" stroke="black" points="21,-106 21,-125 84,-125 84,-106 21,-106"/>
<text text-anchor="middle" x="52.5" y="-113" font-family="Helvetica,sans-Serif" font-size="10.00">stxxl::Plug</text>
</a>
</g>
</g>
<!-- Node3&#45;&gt;Node2 -->
<g id="edge2" class="edge"><title>Node3&#45;&gt;Node2</title>
<path fill="none" stroke="#9a32cd" stroke-dasharray="5,2" d="M94.2269,-113.151C134.21,-110.328 196.772,-104.524 250,-93.5 255.856,-92.2871 261.875,-90.8616 267.894,-89.3073"/>
<polygon fill="#9a32cd" stroke="#9a32cd" points="93.8126,-109.671 84.0717,-113.838 94.2852,-116.655 93.8126,-109.671"/>
<text text-anchor="middle" x="186.5" y="-113.5" font-family="Helvetica,sans-Serif" font-size="10.00"> sixth</text>
</g>
<!-- Node4 -->
<g id="node4" class="node"><title>Node4</title>
<g id="a_node4"><a xlink:href="structstxxl_1_1tuple.html" target="_top" xlink:title="k&#45;Tuple data type ">
<polygon fill="none" stroke="black" points="0,-0.5 0,-30.5 105,-30.5 105,-0.5 0,-0.5"/>
<text text-anchor="start" x="8" y="-18.5" font-family="Helvetica,sans-Serif" font-size="10.00">stxxl::tuple&lt; T1, T2,</text>
<text text-anchor="middle" x="52.5" y="-7.5" font-family="Helvetica,sans-Serif" font-size="10.00"> T3, T4, T5, T6 &gt;</text>
</a>
</g>
</g>
<!-- Node4&#45;&gt;Node2 -->
<g id="edge3" class="edge"><title>Node4&#45;&gt;Node2</title>
<path fill="none" stroke="orange" stroke-dasharray="5,2" d="M115.303,-5.96727C154.551,-2.00169 206.049,-0.690029 250,-12.5 262.942,-15.9776 275.943,-21.7816 287.918,-28.3023"/>
<polygon fill="orange" stroke="orange" points="114.905,-2.48981 105.345,-7.05629 115.666,-9.44832 114.905,-2.48981"/>
<text text-anchor="start" x="123" y="-81.5" font-family="Helvetica,sans-Serif" font-size="10.00"> &lt; typename Input1::</text>
<text text-anchor="start" x="123" y="-70.5" font-family="Helvetica,sans-Serif" font-size="10.00">value_type, typename</text>
<text text-anchor="start" x="123" y="-59.5" font-family="Helvetica,sans-Serif" font-size="10.00"> Input2::value_type,</text>
<text text-anchor="start" x="123" y="-48.5" font-family="Helvetica,sans-Serif" font-size="10.00"> typename Input3::value</text>
<text text-anchor="start" x="123" y="-37.5" font-family="Helvetica,sans-Serif" font-size="10.00">_type, typename Input4::</text>
<text text-anchor="start" x="123" y="-26.5" font-family="Helvetica,sans-Serif" font-size="10.00">value_type, typename Input5</text>
<text text-anchor="middle" x="186.5" y="-15.5" font-family="Helvetica,sans-Serif" font-size="10.00">::value_type &gt;</text>
</g>
</g>
</svg>
