<?xml version="1.0" encoding="UTF-8" standalone="no"?>
<!DOCTYPE svg PUBLIC "-//W3C//DTD SVG 1.1//EN"
 "http://www.w3.org/Graphics/SVG/1.1/DTD/svg11.dtd">
<!-- Generated by graphviz version 2.38.0 (20140413.2041)
 -->
<!-- Title: stxxl::disk_allocator Pages: 1 -->
<svg width="411pt" height="329pt"
 viewBox="0.00 0.00 411.00 329.00" xmlns="http://www.w3.org/2000/svg" xmlns:xlink="http://www.w3.org/1999/xlink">
<g id="graph0" class="graph" transform="scale(1 1) rotate(0) translate(4 325)">
<title>stxxl::disk_allocator</title>
<!-- Node1 -->
<g id="node1" class="node"><title>Node1</title>
<polygon fill="#bfbfbf" stroke="black" points="0,-0.5 0,-19.5 104,-19.5 104,-0.5 0,-0.5"/>
<text text-anchor="middle" x="52" y="-7.5" font-family="Helvetica,sans-Serif" font-size="10.00">stxxl::disk_allocator</text>
</g>
<!-- Node2 -->
<g id="node2" class="node"><title>Node2</title>
<g id="a_node2"><a xlink:href="classstxxl_1_1noncopyable.html" target="_top" xlink:title="stxxl::noncopyable">
<polygon fill="none" stroke="black" points="34,-296 34,-315 132,-315 132,-296 34,-296"/>
<text text-anchor="middle" x="83" y="-303" font-family="Helvetica,sans-Serif" font-size="10.00">stxxl::noncopyable</text>
</a>
</g>
</g>
<!-- Node2&#45;&gt;Node1 -->
<g id="edge1" class="edge"><title>Node2&#45;&gt;Node1</title>
<path fill="none" stroke="#8b1a1a" d="M57.9949,-290.411C38.2477,-277.233 14,-255.545 14,-228.5 14,-228.5 14,-228.5 14,-76 14,-53.2553 31.5551,-31.4008 42.8013,-19.7339"/>
<polygon fill="#8b1a1a" stroke="#8b1a1a" points="56.3201,-293.492 66.648,-295.856 60.0481,-287.568 56.3201,-293.492"/>
</g>
<!-- Node3 -->
<g id="node3" class="node"><title>Node3</title>
<g id="a_node3"><a xlink:href="classstxxl_1_1file.html" target="_top" xlink:title="Defines interface of file. ">
<polygon fill="none" stroke="black" points="109,-67.5 109,-86.5 165,-86.5 165,-67.5 109,-67.5"/>
<text text-anchor="middle" x="137" y="-74.5" font-family="Helvetica,sans-Serif" font-size="10.00">stxxl::file</text>
</a>
</g>
</g>
<!-- Node2&#45;&gt;Node3 -->
<g id="edge3" class="edge"><title>Node2&#45;&gt;Node3</title>
<path fill="none" stroke="#8b1a1a" d="M108.792,-290.783C139.069,-273.04 187.722,-238.991 208,-194 217.371,-173.208 272.059,-198.534 207,-105 197.554,-91.4197 180.253,-84.6687 165.215,-81.3132"/>
<polygon fill="#8b1a1a" stroke="#8b1a1a" points="107.001,-287.776 100.037,-295.761 110.46,-293.861 107.001,-287.776"/>
</g>
<!-- Node5 -->
<g id="node5" class="node"><title>Node5</title>
<g id="a_node5"><a xlink:href="classstxxl_1_1mutex.html" target="_top" xlink:title="stxxl::mutex">
<polygon fill="none" stroke="black" points="47.5,-218 47.5,-237 118.5,-237 118.5,-218 47.5,-218"/>
<text text-anchor="middle" x="83" y="-225" font-family="Helvetica,sans-Serif" font-size="10.00">stxxl::mutex</text>
</a>
</g>
</g>
<!-- Node2&#45;&gt;Node5 -->
<g id="edge6" class="edge"><title>Node2&#45;&gt;Node5</title>
<path fill="none" stroke="#8b1a1a" d="M83,-285.724C83,-270.197 83,-248.858 83,-237.116"/>
<polygon fill="#8b1a1a" stroke="#8b1a1a" points="79.5001,-285.782 83,-295.782 86.5001,-285.782 79.5001,-285.782"/>
</g>
<!-- Node3&#45;&gt;Node1 -->
<g id="edge2" class="edge"><title>Node3&#45;&gt;Node1</title>
<path fill="none" stroke="#9a32cd" stroke-dasharray="5,2" d="M117.473,-61.0678C100.695,-48.2376 77.0884,-30.1853 63.2819,-19.6273"/>
<polygon fill="#9a32cd" stroke="#9a32cd" points="115.467,-63.9395 125.537,-67.2338 119.719,-58.379 115.467,-63.9395"/>
<text text-anchor="middle" x="118" y="-41" font-family="Helvetica,sans-Serif" font-size="10.00"> storage</text>
</g>
<!-- Node4 -->
<g id="node4" class="node"><title>Node4</title>
<g id="a_node4"><a xlink:href="classstxxl_1_1atomic__counted__object.html" target="_top" xlink:title="Provides reference counting abilities for use with counting_ptr with mutex locking. ">
<polygon fill="none" stroke="black" points="80.5,-134.5 80.5,-164.5 193.5,-164.5 193.5,-134.5 80.5,-134.5"/>
<text text-anchor="start" x="88.5" y="-152.5" font-family="Helvetica,sans-Serif" font-size="10.00">stxxl::atomic_counted</text>
<text text-anchor="middle" x="137" y="-141.5" font-family="Helvetica,sans-Serif" font-size="10.00">_object</text>
</a>
</g>
</g>
<!-- Node4&#45;&gt;Node3 -->
<g id="edge4" class="edge"><title>Node4&#45;&gt;Node3</title>
<path fill="none" stroke="#9a32cd" stroke-dasharray="5,2" d="M137,-124.091C137,-111.214 137,-96.1974 137,-86.8932"/>
<polygon fill="#9a32cd" stroke="#9a32cd" points="133.5,-124.233 137,-134.233 140.5,-124.233 133.5,-124.233"/>
<text text-anchor="middle" x="170" y="-108" font-family="Helvetica,sans-Serif" font-size="10.00"> m_request_ref</text>
</g>
<!-- Node5&#45;&gt;Node1 -->
<g id="edge9" class="edge"><title>Node5&#45;&gt;Node1</title>
<path fill="none" stroke="#9a32cd" stroke-dasharray="5,2" d="M79.0237,-207.923C76.5058,-195.753 73.3025,-179.477 71,-165 62.2409,-109.929 55.2243,-43.2292 52.8591,-19.7133"/>
<polygon fill="#9a32cd" stroke="#9a32cd" points="75.6129,-208.711 81.0979,-217.776 82.4628,-207.269 75.6129,-208.711"/>
<text text-anchor="middle" x="79.5" y="-108" font-family="Helvetica,sans-Serif" font-size="10.00"> mutex</text>
</g>
<!-- Node5&#45;&gt;Node4 -->
<g id="edge5" class="edge"><title>Node5&#45;&gt;Node4</title>
<path fill="none" stroke="#9a32cd" stroke-dasharray="5,2" d="M82.2697,-207.738C82.7561,-199.607 84.4608,-190.299 89,-183 93.5705,-175.65 100.487,-169.571 107.658,-164.738"/>
<polygon fill="#9a32cd" stroke="#9a32cd" points="78.7695,-207.777 82.2096,-217.797 85.7694,-207.819 78.7695,-207.777"/>
<text text-anchor="middle" x="148.5" y="-186" font-family="Helvetica,sans-Serif" font-size="10.00"> m_reference_count_mutex</text>
</g>
<!-- Node6 -->
<g id="node6" class="node"><title>Node6</title>
<g id="a_node6"><a xlink:href="structstxxl_1_1choose__int__types.html" target="_top" xlink:title="stxxl::choose_int_types\l\&lt; my_pointer_size \&gt;">
<polygon fill="none" stroke="black" points="250,-212.5 250,-242.5 370,-242.5 370,-212.5 250,-212.5"/>
<text text-anchor="start" x="258" y="-230.5" font-family="Helvetica,sans-Serif" font-size="10.00">stxxl::choose_int_types</text>
<text text-anchor="middle" x="310" y="-219.5" font-family="Helvetica,sans-Serif" font-size="10.00">&lt; my_pointer_size &gt;</text>
</a>
</g>
</g>
<!-- Node6&#45;&gt;Node4 -->
<g id="edge7" class="edge"><title>Node6&#45;&gt;Node4</title>
<path fill="none" stroke="#9a32cd" stroke-dasharray="5,2" d="M268.88,-208.151C251.365,-200.36 230.699,-191.201 212,-183 198.095,-176.901 182.711,-170.223 169.514,-164.515"/>
<polygon fill="#9a32cd" stroke="#9a32cd" points="267.695,-211.454 278.254,-212.324 270.541,-205.059 267.695,-211.454"/>
<text text-anchor="middle" x="280.5" y="-186" font-family="Helvetica,sans-Serif" font-size="10.00"> m_reference_count</text>
</g>
<!-- Node7 -->
<g id="node7" class="node"><title>Node7</title>
<g id="a_node7"><a xlink:href="structstxxl_1_1choose__int__types.html" target="_top" xlink:title="stxxl::choose_int_types\l\&lt; PtrSize \&gt;">
<polygon fill="none" stroke="black" points="250,-290.5 250,-320.5 370,-320.5 370,-290.5 250,-290.5"/>
<text text-anchor="start" x="258" y="-308.5" font-family="Helvetica,sans-Serif" font-size="10.00">stxxl::choose_int_types</text>
<text text-anchor="middle" x="310" y="-297.5" font-family="Helvetica,sans-Serif" font-size="10.00">&lt; PtrSize &gt;</text>
</a>
</g>
</g>
<!-- Node7&#45;&gt;Node6 -->
<g id="edge8" class="edge"><title>Node7&#45;&gt;Node6</title>
<path fill="none" stroke="orange" stroke-dasharray="5,2" d="M310,-280.09C310,-267.757 310,-253.224 310,-242.731"/>
<polygon fill="orange" stroke="orange" points="306.5,-280.205 310,-290.205 313.5,-280.205 306.5,-280.205"/>
<text text-anchor="middle" x="356.5" y="-264" font-family="Helvetica,sans-Serif" font-size="10.00"> &lt; my_pointer_size &gt;</text>
</g>
</g>
</svg>
