<?xml version="1.0" encoding="UTF-8" standalone="no"?>
<!DOCTYPE svg PUBLIC "-//W3C//DTD SVG 1.1//EN"
 "http://www.w3.org/Graphics/SVG/1.1/DTD/svg11.dtd">
<!-- Generated by graphviz version 2.38.0 (20140413.2041)
 -->
<!-- Title: stxxl::onoff_switch Pages: 1 -->
<svg width="234pt" height="152pt"
 viewBox="0.00 0.00 233.50 152.00" xmlns="http://www.w3.org/2000/svg" xmlns:xlink="http://www.w3.org/1999/xlink">
<g id="graph0" class="graph" transform="scale(1 1) rotate(0) translate(4 148)">
<title>stxxl::onoff_switch</title>
<!-- Node1 -->
<g id="node1" class="node"><title>Node1</title>
<polygon fill="#bfbfbf" stroke="black" points="0,-0.5 0,-19.5 99,-19.5 99,-0.5 0,-0.5"/>
<text text-anchor="middle" x="49.5" y="-7.5" font-family="Helvetica,sans-Serif" font-size="10.00">stxxl::onoff_switch</text>
</g>
<!-- Node2 -->
<g id="node2" class="node"><title>Node2</title>
<g id="a_node2"><a xlink:href="classstxxl_1_1noncopyable.html" target="_top" xlink:title="stxxl::noncopyable">
<polygon fill="none" stroke="black" points="0.5,-124.5 0.5,-143.5 98.5,-143.5 98.5,-124.5 0.5,-124.5"/>
<text text-anchor="middle" x="49.5" y="-131.5" font-family="Helvetica,sans-Serif" font-size="10.00">stxxl::noncopyable</text>
</a>
</g>
</g>
<!-- Node2&#45;&gt;Node1 -->
<g id="edge1" class="edge"><title>Node2&#45;&gt;Node1</title>
<path fill="none" stroke="#8b1a1a" d="M28.9698,-118.177C19.6152,-110.136 9.5247,-99.3217 4.5,-87 1.14354,-78.7692 1.5486,-75.3846 4.5,-67 11.3744,-47.4707 28.2547,-29.722 39.2741,-19.6563"/>
<polygon fill="#8b1a1a" stroke="#8b1a1a" points="26.8637,-120.975 36.8552,-124.499 31.2421,-115.513 26.8637,-120.975"/>
</g>
<!-- Node3 -->
<g id="node3" class="node"><title>Node3</title>
<g id="a_node3"><a xlink:href="classstxxl_1_1mutex.html" target="_top" xlink:title="stxxl::mutex">
<polygon fill="none" stroke="black" points="14,-67.5 14,-86.5 85,-86.5 85,-67.5 14,-67.5"/>
<text text-anchor="middle" x="49.5" y="-74.5" font-family="Helvetica,sans-Serif" font-size="10.00">stxxl::mutex</text>
</a>
</g>
</g>
<!-- Node2&#45;&gt;Node3 -->
<g id="edge3" class="edge"><title>Node2&#45;&gt;Node3</title>
<path fill="none" stroke="#8b1a1a" d="M49.5,-114.117C49.5,-104.817 49.5,-94.0557 49.5,-86.7149"/>
<polygon fill="#8b1a1a" stroke="#8b1a1a" points="46.0001,-114.406 49.5,-124.406 53.0001,-114.406 46.0001,-114.406"/>
</g>
<!-- Node4 -->
<g id="node4" class="node"><title>Node4</title>
<g id="a_node4"><a xlink:href="classstxxl_1_1condition__variable.html" target="_top" xlink:title="stxxl::condition_variable">
<polygon fill="none" stroke="black" points="103.5,-67.5 103.5,-86.5 225.5,-86.5 225.5,-67.5 103.5,-67.5"/>
<text text-anchor="middle" x="164.5" y="-74.5" font-family="Helvetica,sans-Serif" font-size="10.00">stxxl::condition_variable</text>
</a>
</g>
</g>
<!-- Node2&#45;&gt;Node4 -->
<g id="edge5" class="edge"><title>Node2&#45;&gt;Node4</title>
<path fill="none" stroke="#8b1a1a" d="M76.7728,-119.957C98.3898,-109.618 127.971,-95.4704 146.657,-86.5334"/>
<polygon fill="#8b1a1a" stroke="#8b1a1a" points="74.98,-116.934 67.4688,-124.406 78.0002,-123.249 74.98,-116.934"/>
</g>
<!-- Node3&#45;&gt;Node1 -->
<g id="edge2" class="edge"><title>Node3&#45;&gt;Node1</title>
<path fill="none" stroke="#9a32cd" stroke-dasharray="5,2" d="M49.5,-57.037C49.5,-44.6703 49.5,-29.1198 49.5,-19.6273"/>
<polygon fill="#9a32cd" stroke="#9a32cd" points="46.0001,-57.2338 49.5,-67.2338 53.0001,-57.2338 46.0001,-57.2338"/>
<text text-anchor="middle" x="71.5" y="-41" font-family="Helvetica,sans-Serif" font-size="10.00"> m_mutex</text>
</g>
<!-- Node4&#45;&gt;Node1 -->
<g id="edge4" class="edge"><title>Node4&#45;&gt;Node1</title>
<path fill="none" stroke="#9a32cd" stroke-dasharray="5,2" d="M140.298,-62.2462C127.567,-55.0183 111.696,-46.0184 97.5,-38 86.6775,-31.8871 74.4686,-25.02 65.0723,-19.7411"/>
<polygon fill="#9a32cd" stroke="#9a32cd" points="138.917,-65.4871 149.341,-67.3823 142.374,-59.4003 138.917,-65.4871"/>
<text text-anchor="middle" x="135.5" y="-41" font-family="Helvetica,sans-Serif" font-size="10.00"> m_cond</text>
</g>
</g>
</svg>
