<?xml version="1.0" encoding="UTF-8" standalone="no"?>
<!DOCTYPE svg PUBLIC "-//W3C//DTD SVG 1.1//EN"
 "http://www.w3.org/Graphics/SVG/1.1/DTD/svg11.dtd">
<!-- Generated by graphviz version 2.26.3 (20100126.1600)
 -->
<!-- Title: stxxl::btree::btree&lt; KeyType, DataType, CompareType, RawNodeSize, RawLeafSize, PDAllocStrategy &gt; Pages: 1 -->
<svg width="1582pt" height="402pt"
 viewBox="0.00 0.00 1582.00 402.00" xmlns="http://www.w3.org/2000/svg" xmlns:xlink="http://www.w3.org/1999/xlink">
<g id="graph1" class="graph" transform="scale(1 1) rotate(0) translate(4 398)">
<title>stxxl::btree::btree&lt; KeyType, DataType, CompareType, RawNodeSize, RawLeafSize, PDAllocStrategy &gt;</title>
<!-- Node1 -->
<g id="node1" class="node"><title>Node1</title>
<polygon fill="#bfbfbf" stroke="black" points="1408,-207 1408,-267 1574,-267 1574,-207 1408,-207"/>
<text text-anchor="start" x="1416" y="-254" font-family="Helvetica,sans-Serif" font-size="10.00">stxxl::btree::btree</text>
<text text-anchor="start" x="1416" y="-241" font-family="Helvetica,sans-Serif" font-size="10.00">&lt; KeyType, DataType,</text>
<text text-anchor="start" x="1416" y="-228" font-family="Helvetica,sans-Serif" font-size="10.00"> CompareType, RawNodeSize,</text>
<text text-anchor="middle" x="1491" y="-215" font-family="Helvetica,sans-Serif" font-size="10.00"> RawLeafSize, PDAllocStrategy &gt;</text>
</g>
<!-- Node2 -->
<g id="node2" class="node"><title>Node2</title>
<a xlink:href="classstxxl_1_1noncopyable.html" target="_top" xlink:title="stxxl::noncopyable">
<polygon fill="none" stroke="black" points="11,-272.5 11,-293.5 109,-293.5 109,-272.5 11,-272.5"/>
<text text-anchor="middle" x="60" y="-280.5" font-family="Helvetica,sans-Serif" font-size="10.00">stxxl::noncopyable</text>
</a>
</g>
<!-- Node2&#45;&gt;Node1 -->
<g id="edge2" class="edge"><title>Node2&#45;&gt;Node1</title>
<path fill="none" stroke="#8b1a1a" d="M81.2229,-299.943C96.3484,-311.371 117.546,-326.112 138,-336 215.578,-373.505 236.832,-394 323,-394 323,-394 323,-394 1285,-394 1367.74,-394 1437.96,-312.894 1470.92,-267.271"/>
<polygon fill="#8b1a1a" stroke="#8b1a1a" points="83.1276,-296.992 73.0705,-293.66 78.8542,-302.537 83.1276,-296.992"/>
</g>
<!-- Node4 -->
<g id="node6" class="node"><title>Node4</title>
<a xlink:href="classstxxl_1_1singleton.html" target="_top" xlink:title="stxxl::singleton\&lt; block\l_manager \&gt;">
<polygon fill="none" stroke="black" points="566.5,-294 566.5,-328 681.5,-328 681.5,-294 566.5,-294"/>
<text text-anchor="start" x="574.5" y="-315" font-family="Helvetica,sans-Serif" font-size="10.00">stxxl::singleton&lt; block</text>
<text text-anchor="middle" x="624" y="-302" font-family="Helvetica,sans-Serif" font-size="10.00">_manager &gt;</text>
</a>
</g>
<!-- Node2&#45;&gt;Node4 -->
<g id="edge8" class="edge"><title>Node2&#45;&gt;Node4</title>
<path fill="none" stroke="#8b1a1a" d="M96.3529,-297.072C134.082,-310.781 195.14,-330.481 250,-337 375.403,-351.902 408.714,-343.858 534,-328 544.412,-326.682 555.437,-324.914 566.067,-323.015"/>
<polygon fill="#8b1a1a" stroke="#8b1a1a" points="97.4117,-293.732 86.8184,-293.554 94.9885,-300.299 97.4117,-293.732"/>
</g>
<!-- Node5 -->
<g id="node9" class="node"><title>Node5</title>
<a xlink:href="classstxxl_1_1singleton.html" target="_top" xlink:title="stxxl::singleton\&lt; INSTANCE,\l destroy_on_exit \&gt;">
<polygon fill="none" stroke="black" points="250,-294 250,-328 396,-328 396,-294 250,-294"/>
<text text-anchor="start" x="258" y="-315" font-family="Helvetica,sans-Serif" font-size="10.00">stxxl::singleton&lt; INSTANCE,</text>
<text text-anchor="middle" x="323" y="-302" font-family="Helvetica,sans-Serif" font-size="10.00"> destroy_on_exit &gt;</text>
</a>
</g>
<!-- Node2&#45;&gt;Node5 -->
<g id="edge12" class="edge"><title>Node2&#45;&gt;Node5</title>
<path fill="none" stroke="#8b1a1a" d="M119.232,-289.306C157.943,-293.427 208.774,-298.839 249.983,-303.226"/>
<polygon fill="#8b1a1a" stroke="#8b1a1a" points="119.474,-285.812 109.16,-288.234 118.733,-292.773 119.474,-285.812"/>
</g>
<!-- Node6 -->
<g id="node12" class="node"><title>Node6</title>
<a xlink:href="classstxxl_1_1file.html" target="_top" xlink:title="Defines interface of file. ">
<polygon fill="none" stroke="black" points="829,-222.5 829,-243.5 885,-243.5 885,-222.5 829,-222.5"/>
<text text-anchor="middle" x="857" y="-230.5" font-family="Helvetica,sans-Serif" font-size="10.00">stxxl::file</text>
</a>
</g>
<!-- Node2&#45;&gt;Node6 -->
<g id="edge16" class="edge"><title>Node2&#45;&gt;Node6</title>
<path fill="none" stroke="#8b1a1a" d="M119.371,-281.912C242.73,-279.2 535.628,-270.424 780,-245 796.283,-243.306 814.375,-240.532 828.929,-238.078"/>
<polygon fill="#8b1a1a" stroke="#8b1a1a" points="118.945,-278.42 109.023,-282.134 119.096,-285.418 118.945,-278.42"/>
</g>
<!-- Node8 -->
<g id="node17" class="node"><title>Node8</title>
<a xlink:href="classstxxl_1_1mutex.html" target="_top" xlink:title="stxxl::mutex">
<polygon fill="none" stroke="black" points="287.5,-210.5 287.5,-231.5 358.5,-231.5 358.5,-210.5 287.5,-210.5"/>
<text text-anchor="middle" x="323" y="-218.5" font-family="Helvetica,sans-Serif" font-size="10.00">stxxl::mutex</text>
</a>
</g>
<!-- Node2&#45;&gt;Node8 -->
<g id="edge22" class="edge"><title>Node2&#45;&gt;Node8</title>
<path fill="none" stroke="#8b1a1a" d="M92.3204,-268.367C106.158,-262.574 122.64,-256.287 138,-252 188.972,-237.775 249.775,-229.118 287.39,-224.692"/>
<polygon fill="#8b1a1a" stroke="#8b1a1a" points="90.578,-265.306 82.7658,-272.463 93.3359,-271.74 90.578,-265.306"/>
</g>
<!-- Node11 -->
<g id="node24" class="node"><title>Node11</title>
<a xlink:href="classstxxl_1_1disk__allocator.html" target="_top" xlink:title="stxxl::disk_allocator">
<polygon fill="none" stroke="black" points="1017,-172.5 1017,-193.5 1121,-193.5 1121,-172.5 1017,-172.5"/>
<text text-anchor="middle" x="1069" y="-180.5" font-family="Helvetica,sans-Serif" font-size="10.00">stxxl::disk_allocator</text>
</a>
</g>
<!-- Node2&#45;&gt;Node11 -->
<g id="edge30" class="edge"><title>Node2&#45;&gt;Node11</title>
<path fill="none" stroke="#8b1a1a" d="M77.4652,-265.038C117.174,-226.225 218.884,-138 323,-138 323,-138 323,-138 857,-138 923.033,-138 998.163,-159.149 1038.88,-172.449"/>
<polygon fill="#8b1a1a" stroke="#8b1a1a" points="74.9871,-262.567 70.3678,-272.101 79.9249,-267.528 74.9871,-262.567"/>
</g>
<!-- Node3 -->
<g id="node4" class="node"><title>Node3</title>
<a xlink:href="classstxxl_1_1block__manager.html" target="_top" xlink:title="Block manager class. ">
<polygon fill="none" stroke="black" points="1230,-226.5 1230,-247.5 1340,-247.5 1340,-226.5 1230,-226.5"/>
<text text-anchor="middle" x="1285" y="-234.5" font-family="Helvetica,sans-Serif" font-size="10.00">stxxl::block_manager</text>
</a>
</g>
<!-- Node3&#45;&gt;Node1 -->
<g id="edge4" class="edge"><title>Node3&#45;&gt;Node1</title>
<path fill="none" stroke="#9a32cd" stroke-dasharray="5,2" d="M1350.4,-237C1368.61,-237 1388.64,-237 1407.73,-237"/>
<polygon fill="#9a32cd" stroke="#9a32cd" points="1350.2,-233.5 1340.2,-237 1350.2,-240.5 1350.2,-233.5"/>
<text text-anchor="middle" x="1374" y="-241" font-family="Helvetica,sans-Serif" font-size="10.00"> m_bm</text>
</g>
<!-- Node4&#45;&gt;Node3 -->
<g id="edge6" class="edge"><title>Node4&#45;&gt;Node3</title>
<path fill="none" stroke="midnightblue" d="M692.018,-305.565C801.732,-296.434 1024.45,-276.393 1212,-250 1217.74,-249.193 1223.71,-248.268 1229.66,-247.291"/>
<polygon fill="midnightblue" stroke="midnightblue" points="691.436,-302.101 681.759,-306.414 692.013,-309.077 691.436,-302.101"/>
</g>
<!-- Node5&#45;&gt;Node4 -->
<g id="edge10" class="edge"><title>Node5&#45;&gt;Node4</title>
<path fill="none" stroke="orange" stroke-dasharray="5,2" d="M406.544,-311C457.289,-311 520.791,-311 566.045,-311"/>
<polygon fill="orange" stroke="orange" points="406.248,-307.5 396.248,-311 406.248,-314.5 406.248,-307.5"/>
<text text-anchor="middle" x="474" y="-315" font-family="Helvetica,sans-Serif" font-size="10.00"> &lt; block_manager &gt;</text>
</g>
<!-- Node6&#45;&gt;Node3 -->
<g id="edge14" class="edge"><title>Node6&#45;&gt;Node3</title>
<path fill="none" stroke="#9a32cd" stroke-dasharray="5,2" d="M895.157,-233.357C971.131,-234.067 1141.57,-235.66 1229.77,-236.484"/>
<polygon fill="#9a32cd" stroke="#9a32cd" points="895.115,-229.856 885.082,-233.262 895.049,-236.856 895.115,-229.856"/>
<text text-anchor="middle" x="1069" y="-239" font-family="Helvetica,sans-Serif" font-size="10.00"> disk_files</text>
</g>
<!-- Node6&#45;&gt;Node11 -->
<g id="edge32" class="edge"><title>Node6&#45;&gt;Node11</title>
<path fill="none" stroke="#9a32cd" stroke-dasharray="5,2" d="M894.92,-220.911C907.31,-217.166 921.18,-213.189 934,-210 961.138,-203.249 991.668,-197.029 1016.82,-192.265"/>
<polygon fill="#9a32cd" stroke="#9a32cd" points="893.884,-217.568 885.349,-223.845 895.936,-224.26 893.884,-217.568"/>
<text text-anchor="middle" x="965" y="-214" font-family="Helvetica,sans-Serif" font-size="10.00"> storage</text>
</g>
<!-- Node7 -->
<g id="node15" class="node"><title>Node7</title>
<a xlink:href="classstxxl_1_1atomic__counted__object.html" target="_top" xlink:title="Provides reference counting abilities for use with counting_ptr with mutex locking. ">
<polygon fill="none" stroke="black" points="567.5,-204 567.5,-238 680.5,-238 680.5,-204 567.5,-204"/>
<text text-anchor="start" x="575.5" y="-225" font-family="Helvetica,sans-Serif" font-size="10.00">stxxl::atomic_counted</text>
<text text-anchor="middle" x="624" y="-212" font-family="Helvetica,sans-Serif" font-size="10.00">_object</text>
</a>
</g>
<!-- Node7&#45;&gt;Node6 -->
<g id="edge18" class="edge"><title>Node7&#45;&gt;Node6</title>
<path fill="none" stroke="#9a32cd" stroke-dasharray="5,2" d="M690.835,-224.442C736.523,-226.795 794.749,-229.794 828.752,-231.545"/>
<polygon fill="#9a32cd" stroke="#9a32cd" points="690.867,-220.939 680.7,-223.92 690.507,-227.93 690.867,-220.939"/>
<text text-anchor="middle" x="747" y="-232" font-family="Helvetica,sans-Serif" font-size="10.00"> m_request_ref</text>
</g>
<!-- Node8&#45;&gt;Node7 -->
<g id="edge20" class="edge"><title>Node8&#45;&gt;Node7</title>
<path fill="none" stroke="#9a32cd" stroke-dasharray="5,2" d="M368.874,-221C422.093,-221 509.86,-221 567.304,-221"/>
<polygon fill="#9a32cd" stroke="#9a32cd" points="368.711,-217.5 358.711,-221 368.711,-224.5 368.711,-217.5"/>
<text text-anchor="middle" x="474" y="-225" font-family="Helvetica,sans-Serif" font-size="10.00"> m_reference_count_mutex</text>
</g>
<!-- Node8&#45;&gt;Node11 -->
<g id="edge34" class="edge"><title>Node8&#45;&gt;Node11</title>
<path fill="none" stroke="#9a32cd" stroke-dasharray="5,2" d="M368.592,-214.601C414.73,-208.414 488.166,-199.356 552,-195 721.741,-183.418 923.474,-182.407 1016.83,-182.664"/>
<polygon fill="#9a32cd" stroke="#9a32cd" points="368.049,-211.143 358.609,-215.952 368.988,-218.08 368.049,-211.143"/>
<text text-anchor="middle" x="747" y="-191" font-family="Helvetica,sans-Serif" font-size="10.00"> mutex</text>
</g>
<!-- Node9 -->
<g id="node20" class="node"><title>Node9</title>
<a xlink:href="structstxxl_1_1choose__int__types.html" target="_top" xlink:title="stxxl::choose_int_types\l\&lt; my_pointer_size \&gt;">
<polygon fill="none" stroke="black" points="263,-60 263,-94 383,-94 383,-60 263,-60"/>
<text text-anchor="start" x="271" y="-81" font-family="Helvetica,sans-Serif" font-size="10.00">stxxl::choose_int_types</text>
<text text-anchor="middle" x="323" y="-68" font-family="Helvetica,sans-Serif" font-size="10.00">&lt; my_pointer_size &gt;</text>
</a>
</g>
<!-- Node9&#45;&gt;Node7 -->
<g id="edge24" class="edge"><title>Node9&#45;&gt;Node7</title>
<path fill="none" stroke="#9a32cd" stroke-dasharray="5,2" d="M367.953,-98.506C428.054,-127.258 533.376,-177.645 588.336,-203.938"/>
<polygon fill="#9a32cd" stroke="#9a32cd" points="369.242,-95.2425 358.711,-94.0842 366.221,-101.557 369.242,-95.2425"/>
<text text-anchor="middle" x="474" y="-179" font-family="Helvetica,sans-Serif" font-size="10.00"> m_reference_count</text>
</g>
<!-- Node13 -->
<g id="node31" class="node"><title>Node13</title>
<a xlink:href="classstxxl_1_1btree_1_1btree__iterator__base.html" target="_top" xlink:title="stxxl::btree::btree\l_iterator_base\&lt; self\l_type \&gt;">
<polygon fill="none" stroke="black" points="805.5,-52.5 805.5,-99.5 908.5,-99.5 908.5,-52.5 805.5,-52.5"/>
<text text-anchor="start" x="813.5" y="-86.5" font-family="Helvetica,sans-Serif" font-size="10.00">stxxl::btree::btree</text>
<text text-anchor="start" x="813.5" y="-73.5" font-family="Helvetica,sans-Serif" font-size="10.00">_iterator_base&lt; self</text>
<text text-anchor="middle" x="857" y="-60.5" font-family="Helvetica,sans-Serif" font-size="10.00">_type &gt;</text>
</a>
</g>
<!-- Node9&#45;&gt;Node13 -->
<g id="edge40" class="edge"><title>Node9&#45;&gt;Node13</title>
<path fill="none" stroke="#9a32cd" stroke-dasharray="5,2" d="M393.447,-76.8681C502.367,-76.6641 709.108,-76.277 805.331,-76.0968"/>
<polygon fill="#9a32cd" stroke="#9a32cd" points="393.212,-73.3684 383.219,-76.8872 393.225,-80.3684 393.212,-73.3684"/>
<text text-anchor="middle" x="624" y="-81" font-family="Helvetica,sans-Serif" font-size="10.00"> pos</text>
</g>
<!-- Node14 -->
<g id="node34" class="node"><title>Node14</title>
<a xlink:href="classstxxl_1_1btree_1_1btree__iterator__base.html" target="_top" xlink:title="stxxl::btree::btree\l_iterator_base\&lt; BTreeType \&gt;">
<polygon fill="none" stroke="black" points="552,-7 552,-41 696,-41 696,-7 552,-7"/>
<text text-anchor="start" x="560" y="-28" font-family="Helvetica,sans-Serif" font-size="10.00">stxxl::btree::btree</text>
<text text-anchor="middle" x="624" y="-15" font-family="Helvetica,sans-Serif" font-size="10.00">_iterator_base&lt; BTreeType &gt;</text>
</a>
</g>
<!-- Node9&#45;&gt;Node14 -->
<g id="edge44" class="edge"><title>Node9&#45;&gt;Node14</title>
<path fill="none" stroke="#9a32cd" stroke-dasharray="5,2" d="M384.696,-57.2052C394.434,-54.5134 404.442,-51.9953 414,-50 459.311,-40.5407 510.892,-34.0944 551.593,-29.9868"/>
<polygon fill="#9a32cd" stroke="#9a32cd" points="383.735,-53.8396 375.074,-59.9421 385.65,-60.5725 383.735,-53.8396"/>
<text text-anchor="middle" x="474" y="-54" font-family="Helvetica,sans-Serif" font-size="10.00"> pos</text>
</g>
<!-- Node10 -->
<g id="node22" class="node"><title>Node10</title>
<a xlink:href="structstxxl_1_1choose__int__types.html" target="_top" xlink:title="stxxl::choose_int_types\l\&lt; PtrSize \&gt;">
<polygon fill="none" stroke="black" points="0,-60 0,-94 120,-94 120,-60 0,-60"/>
<text text-anchor="start" x="8" y="-81" font-family="Helvetica,sans-Serif" font-size="10.00">stxxl::choose_int_types</text>
<text text-anchor="middle" x="60" y="-68" font-family="Helvetica,sans-Serif" font-size="10.00">&lt; PtrSize &gt;</text>
</a>
</g>
<!-- Node10&#45;&gt;Node9 -->
<g id="edge26" class="edge"><title>Node10&#45;&gt;Node9</title>
<path fill="none" stroke="orange" stroke-dasharray="5,2" d="M130.017,-77C171.397,-77 223.258,-77 262.795,-77"/>
<polygon fill="orange" stroke="orange" points="130.008,-73.5001 120.008,-77 130.008,-80.5001 130.008,-73.5001"/>
<text text-anchor="middle" x="185" y="-81" font-family="Helvetica,sans-Serif" font-size="10.00"> &lt; my_pointer_size &gt;</text>
</g>
<!-- Node11&#45;&gt;Node3 -->
<g id="edge28" class="edge"><title>Node11&#45;&gt;Node3</title>
<path fill="none" stroke="#9a32cd" stroke-dasharray="5,2" d="M1131.3,-192.425C1156.57,-196.851 1185.89,-202.763 1212,-210 1228.15,-214.476 1245.78,-220.951 1259.67,-226.438"/>
<polygon fill="#9a32cd" stroke="#9a32cd" points="1131.56,-188.917 1121.11,-190.68 1130.38,-195.817 1131.56,-188.917"/>
<text text-anchor="middle" x="1177" y="-214" font-family="Helvetica,sans-Serif" font-size="10.00"> disk_allocators</text>
</g>
<!-- Node12 -->
<g id="node29" class="node"><title>Node12</title>
<a xlink:href="classstxxl_1_1btree_1_1btree__iterator.html" target="_top" xlink:title="stxxl::btree::btree\l_iterator\&lt; self_type \&gt;">
<polygon fill="none" stroke="black" points="1014,-59 1014,-93 1124,-93 1124,-59 1014,-59"/>
<text text-anchor="start" x="1022" y="-80" font-family="Helvetica,sans-Serif" font-size="10.00">stxxl::btree::btree</text>
<text text-anchor="middle" x="1069" y="-67" font-family="Helvetica,sans-Serif" font-size="10.00">_iterator&lt; self_type &gt;</text>
</a>
</g>
<!-- Node12&#45;&gt;Node1 -->
<g id="edge36" class="edge"><title>Node12&#45;&gt;Node1</title>
<path fill="none" stroke="#9a32cd" stroke-dasharray="5,2" d="M1123.28,-96.7077C1196.59,-124.678 1327.76,-174.72 1412,-206.861"/>
<polygon fill="#9a32cd" stroke="#9a32cd" points="1124.35,-93.3719 1113.76,-93.0774 1121.86,-99.9121 1124.35,-93.3719"/>
<text text-anchor="middle" x="1285" y="-182" font-family="Helvetica,sans-Serif" font-size="10.00"> m_end_iterator</text>
</g>
<!-- Node13&#45;&gt;Node12 -->
<g id="edge38" class="edge"><title>Node13&#45;&gt;Node12</title>
<path fill="none" stroke="midnightblue" d="M918.953,-76C948.984,-76 984.753,-76 1013.83,-76"/>
<polygon fill="midnightblue" stroke="midnightblue" points="918.59,-72.5001 908.59,-76 918.59,-79.5001 918.59,-72.5001"/>
</g>
<!-- Node14&#45;&gt;Node13 -->
<g id="edge42" class="edge"><title>Node14&#45;&gt;Node13</title>
<path fill="none" stroke="orange" stroke-dasharray="5,2" d="M706.434,-35.2034C730.328,-39.1329 756.345,-44.0759 780,-50 788.212,-52.0567 796.805,-54.5775 805.148,-57.2319"/>
<polygon fill="orange" stroke="orange" points="706.765,-31.7118 696.337,-33.5814 705.655,-38.6232 706.765,-31.7118"/>
<text text-anchor="middle" x="747" y="-54" font-family="Helvetica,sans-Serif" font-size="10.00"> &lt; self_type &gt;</text>
</g>
<!-- Node15 -->
<g id="node37" class="node"><title>Node15</title>
<a xlink:href="classstxxl_1_1btree_1_1btree__iterator.html" target="_top" xlink:title="stxxl::btree::btree\l_iterator\&lt; BTreeType \&gt;">
<polygon fill="none" stroke="black" points="798,-0 798,-34 916,-34 916,-0 798,-0"/>
<text text-anchor="start" x="806" y="-21" font-family="Helvetica,sans-Serif" font-size="10.00">stxxl::btree::btree</text>
<text text-anchor="middle" x="857" y="-8" font-family="Helvetica,sans-Serif" font-size="10.00">_iterator&lt; BTreeType &gt;</text>
</a>
</g>
<!-- Node14&#45;&gt;Node15 -->
<g id="edge48" class="edge"><title>Node14&#45;&gt;Node15</title>
<path fill="none" stroke="midnightblue" d="M706.219,-21.5299C736.396,-20.6233 769.943,-19.6155 797.717,-18.781"/>
<polygon fill="midnightblue" stroke="midnightblue" points="706.017,-18.0343 696.127,-21.8331 706.228,-25.0311 706.017,-18.0343"/>
</g>
<!-- Node15&#45;&gt;Node12 -->
<g id="edge46" class="edge"><title>Node15&#45;&gt;Node12</title>
<path fill="none" stroke="orange" stroke-dasharray="5,2" d="M925.948,-36.1883C954.447,-44.1197 987.034,-53.1887 1013.9,-60.6657"/>
<polygon fill="orange" stroke="orange" points="926.626,-32.7441 916.054,-33.4348 924.749,-39.4878 926.626,-32.7441"/>
<text text-anchor="middle" x="965" y="-60" font-family="Helvetica,sans-Serif" font-size="10.00"> &lt; self_type &gt;</text>
</g>
</g>
</svg>
