<?xml version="1.0" encoding="UTF-8" standalone="no"?>
<!DOCTYPE svg PUBLIC "-//W3C//DTD SVG 1.1//EN"
 "http://www.w3.org/Graphics/SVG/1.1/DTD/svg11.dtd">
<!-- Generated by graphviz version 2.38.0 (20140413.2041)
 -->
<!-- Title: stxxl::stats Pages: 1 -->
<svg width="244pt" height="253pt"
 viewBox="0.00 0.00 243.56 253.00" xmlns="http://www.w3.org/2000/svg" xmlns:xlink="http://www.w3.org/1999/xlink">
<g id="graph0" class="graph" transform="scale(1 1) rotate(0) translate(4 249)">
<title>stxxl::stats</title>
<!-- Node1 -->
<g id="node1" class="node"><title>Node1</title>
<polygon fill="#bfbfbf" stroke="black" points="127.062,-0.5 127.062,-19.5 192.062,-19.5 192.062,-0.5 127.062,-0.5"/>
<text text-anchor="middle" x="159.562" y="-7.5" font-family="Helvetica,sans-Serif" font-size="10.00">stxxl::stats</text>
</g>
<!-- Node2 -->
<g id="node2" class="node"><title>Node2</title>
<g id="a_node2"><a xlink:href="classstxxl_1_1singleton.html" target="_top" xlink:title="stxxl::singleton\&lt; stats \&gt;">
<polygon fill="none" stroke="black" points="26.5622,-69.5 26.5622,-88.5 148.562,-88.5 148.562,-69.5 26.5622,-69.5"/>
<text text-anchor="middle" x="87.5622" y="-76.5" font-family="Helvetica,sans-Serif" font-size="10.00">stxxl::singleton&lt; stats &gt;</text>
</a>
</g>
</g>
<!-- Node2&#45;&gt;Node1 -->
<g id="edge1" class="edge"><title>Node2&#45;&gt;Node1</title>
<path fill="none" stroke="midnightblue" d="M104.66,-62.0899C118.985,-48.7593 138.885,-30.2413 150.375,-19.5494"/>
<polygon fill="midnightblue" stroke="midnightblue" points="101.911,-59.8663 96.975,-69.2409 106.68,-64.9908 101.911,-59.8663"/>
</g>
<!-- Node3 -->
<g id="node3" class="node"><title>Node3</title>
<g id="a_node3"><a xlink:href="classstxxl_1_1noncopyable.html" target="_top" xlink:title="stxxl::noncopyable">
<polygon fill="none" stroke="black" points="38.5622,-225.5 38.5622,-244.5 136.562,-244.5 136.562,-225.5 38.5622,-225.5"/>
<text text-anchor="middle" x="87.5622" y="-232.5" font-family="Helvetica,sans-Serif" font-size="10.00">stxxl::noncopyable</text>
</a>
</g>
</g>
<!-- Node3&#45;&gt;Node2 -->
<g id="edge2" class="edge"><title>Node3&#45;&gt;Node2</title>
<path fill="none" stroke="#8b1a1a" d="M47.691,-221.688C31.6558,-214.555 14.8022,-203.778 5.56223,-188 -17.6367,-148.386 42.0842,-106.458 71.8621,-88.7262"/>
<polygon fill="#8b1a1a" stroke="#8b1a1a" points="46.3929,-224.938 56.974,-225.476 49.0378,-218.457 46.3929,-224.938"/>
</g>
<!-- Node4 -->
<g id="node4" class="node"><title>Node4</title>
<g id="a_node4"><a xlink:href="classstxxl_1_1singleton.html" target="_top" xlink:title="stxxl::singleton\&lt; INSTANCE,\l destroy_on_exit \&gt;">
<polygon fill="none" stroke="black" points="14.5622,-157.5 14.5622,-187.5 160.562,-187.5 160.562,-157.5 14.5622,-157.5"/>
<text text-anchor="start" x="22.5622" y="-175.5" font-family="Helvetica,sans-Serif" font-size="10.00">stxxl::singleton&lt; INSTANCE,</text>
<text text-anchor="middle" x="87.5622" y="-164.5" font-family="Helvetica,sans-Serif" font-size="10.00"> destroy_on_exit &gt;</text>
</a>
</g>
</g>
<!-- Node3&#45;&gt;Node4 -->
<g id="edge4" class="edge"><title>Node3&#45;&gt;Node4</title>
<path fill="none" stroke="#8b1a1a" d="M87.5622,-215.215C87.5622,-206.356 87.5622,-195.958 87.5622,-187.759"/>
<polygon fill="#8b1a1a" stroke="#8b1a1a" points="84.0623,-215.332 87.5622,-225.332 91.0623,-215.332 84.0623,-215.332"/>
</g>
<!-- Node5 -->
<g id="node5" class="node"><title>Node5</title>
<g id="a_node5"><a xlink:href="classstxxl_1_1mutex.html" target="_top" xlink:title="stxxl::mutex">
<polygon fill="none" stroke="black" points="152.062,-119.5 152.062,-138.5 223.062,-138.5 223.062,-119.5 152.062,-119.5"/>
<text text-anchor="middle" x="187.562" y="-126.5" font-family="Helvetica,sans-Serif" font-size="10.00">stxxl::mutex</text>
</a>
</g>
</g>
<!-- Node3&#45;&gt;Node5 -->
<g id="edge6" class="edge"><title>Node3&#45;&gt;Node5</title>
<path fill="none" stroke="#8b1a1a" d="M122.505,-221.497C138.86,-214.048 157.375,-203.063 169.562,-188 181.366,-173.41 185.458,-151.069 186.855,-138.809"/>
<polygon fill="#8b1a1a" stroke="#8b1a1a" points="121.009,-218.33 113.189,-225.478 123.76,-224.767 121.009,-218.33"/>
</g>
<!-- Node4&#45;&gt;Node2 -->
<g id="edge3" class="edge"><title>Node4&#45;&gt;Node2</title>
<path fill="none" stroke="orange" stroke-dasharray="5,2" d="M87.5622,-147.007C87.5622,-127.719 87.5622,-101.949 87.5622,-88.6906"/>
<polygon fill="orange" stroke="orange" points="84.0623,-147.203 87.5622,-157.203 91.0623,-147.203 84.0623,-147.203"/>
<text text-anchor="middle" x="109.062" y="-126.5" font-family="Helvetica,sans-Serif" font-size="10.00"> &lt; stats &gt;</text>
</g>
<!-- Node5&#45;&gt;Node1 -->
<g id="edge5" class="edge"><title>Node5&#45;&gt;Node1</title>
<path fill="none" stroke="#9a32cd" stroke-dasharray="5,2" d="M183.065,-109.209C176.909,-83.4843 166.109,-38.3582 161.615,-19.5781"/>
<polygon fill="#9a32cd" stroke="#9a32cd" points="179.726,-110.295 185.458,-119.206 186.534,-108.666 179.726,-110.295"/>
<text text-anchor="middle" x="208.562" y="-93" font-family="Helvetica,sans-Serif" font-size="10.00"> io_mutex</text>
<text text-anchor="middle" x="208.562" y="-82" font-family="Helvetica,sans-Serif" font-size="10.00">read_mutex</text>
<text text-anchor="middle" x="208.562" y="-71" font-family="Helvetica,sans-Serif" font-size="10.00">wait_mutex</text>
<text text-anchor="middle" x="208.562" y="-60" font-family="Helvetica,sans-Serif" font-size="10.00">write_mutex</text>
</g>
</g>
</svg>
