<?xml version="1.0" encoding="UTF-8" standalone="no"?>
<!DOCTYPE svg PUBLIC "-//W3C//DTD SVG 1.1//EN"
 "http://www.w3.org/Graphics/SVG/1.1/DTD/svg11.dtd">
<!-- Generated by graphviz version 2.26.3 (20100126.1600)
 -->
<!-- Title: stxxl::btree::normal_leaf&lt; KeyType, DataType, KeyCmp, LogNElem, BTreeType &gt; Pages: 1 -->
<svg width="3220pt" height="315pt"
 viewBox="0.00 0.00 3220.00 315.26" xmlns="http://www.w3.org/2000/svg" xmlns:xlink="http://www.w3.org/1999/xlink">
<g id="graph1" class="graph" transform="scale(1 1) rotate(0) translate(4 311.265)">
<title>stxxl::btree::normal_leaf&lt; KeyType, DataType, KeyCmp, LogNElem, BTreeType &gt;</title>
<!-- Node1 -->
<g id="node1" class="node"><title>Node1</title>
<polygon fill="#bfbfbf" stroke="black" points="3038.5,-225.765 3038.5,-272.765 3211.5,-272.765 3211.5,-225.765 3038.5,-225.765"/>
<text text-anchor="start" x="3046.5" y="-259.765" font-family="Helvetica,sans-Serif" font-size="10.00">stxxl::btree::normal</text>
<text text-anchor="start" x="3046.5" y="-246.765" font-family="Helvetica,sans-Serif" font-size="10.00">_leaf&lt; KeyType, DataType,</text>
<text text-anchor="middle" x="3125" y="-233.765" font-family="Helvetica,sans-Serif" font-size="10.00"> KeyCmp, LogNElem, BTreeType &gt;</text>
</g>
<!-- Node2 -->
<g id="node2" class="node"><title>Node2</title>
<a xlink:href="classstxxl_1_1noncopyable.html" target="_top" xlink:title="stxxl::noncopyable">
<polygon fill="none" stroke="black" points="11,-219.765 11,-240.765 109,-240.765 109,-219.765 11,-219.765"/>
<text text-anchor="middle" x="60" y="-227.765" font-family="Helvetica,sans-Serif" font-size="10.00">stxxl::noncopyable</text>
</a>
</g>
<!-- Node2&#45;&gt;Node1 -->
<g id="edge2" class="edge"><title>Node2&#45;&gt;Node1</title>
<path fill="none" stroke="#8b1a1a" d="M88.7807,-245.312C134.398,-267.723 226.686,-307.265 310,-307.265 310,-307.265 310,-307.265 2878,-307.265 2941.54,-307.265 3011.9,-288.849 3061.21,-272.772"/>
<polygon fill="#8b1a1a" stroke="#8b1a1a" points="90.2847,-242.151 79.775,-240.81 87.1546,-248.412 90.2847,-242.151"/>
</g>
<!-- Node11 -->
<g id="node20" class="node"><title>Node11</title>
<a xlink:href="classstxxl_1_1file.html" target="_top" xlink:title="Defines interface of file. ">
<polygon fill="none" stroke="black" points="742,-156.765 742,-177.765 798,-177.765 798,-156.765 742,-156.765"/>
<text text-anchor="middle" x="770" y="-164.765" font-family="Helvetica,sans-Serif" font-size="10.00">stxxl::file</text>
</a>
</g>
<!-- Node2&#45;&gt;Node11 -->
<g id="edge22" class="edge"><title>Node2&#45;&gt;Node11</title>
<path fill="none" stroke="#8b1a1a" d="M119.42,-227.376C224.522,-222.065 450.059,-209.765 640,-193.265 677.406,-190.015 687.445,-192.838 724,-184.265 730.797,-182.671 737.959,-180.354 744.556,-177.94"/>
<polygon fill="#8b1a1a" stroke="#8b1a1a" points="119.138,-223.886 109.327,-227.883 119.49,-230.877 119.138,-223.886"/>
</g>
<!-- Node13 -->
<g id="node25" class="node"><title>Node13</title>
<a xlink:href="classstxxl_1_1mutex.html" target="_top" xlink:title="stxxl::mutex">
<polygon fill="none" stroke="black" points="274.5,-180.765 274.5,-201.765 345.5,-201.765 345.5,-180.765 274.5,-180.765"/>
<text text-anchor="middle" x="310" y="-188.765" font-family="Helvetica,sans-Serif" font-size="10.00">stxxl::mutex</text>
</a>
</g>
<!-- Node2&#45;&gt;Node13 -->
<g id="edge28" class="edge"><title>Node2&#45;&gt;Node13</title>
<path fill="none" stroke="#8b1a1a" d="M119.043,-219.453C125.436,-218.346 131.851,-217.263 138,-216.265 185.06,-208.624 239.549,-200.891 274.37,-196.091"/>
<polygon fill="#8b1a1a" stroke="#8b1a1a" points="118.301,-216.03 109.056,-221.203 119.51,-222.925 118.301,-216.03"/>
</g>
<!-- Node3 -->
<g id="node4" class="node"><title>Node3</title>
<a xlink:href="structstxxl_1_1btree_1_1normal__leaf_1_1value__compare.html" target="_top" xlink:title="stxxl::btree::normal\l_leaf\&lt; KeyType, DataType,\l KeyCmp, LogNElem, BTreeType\l \&gt;::value_compare">
<polygon fill="none" stroke="black" points="2796,-219.265 2796,-279.265 2960,-279.265 2960,-219.265 2796,-219.265"/>
<text text-anchor="start" x="2804" y="-266.265" font-family="Helvetica,sans-Serif" font-size="10.00">stxxl::btree::normal</text>
<text text-anchor="start" x="2804" y="-253.265" font-family="Helvetica,sans-Serif" font-size="10.00">_leaf&lt; KeyType, DataType,</text>
<text text-anchor="start" x="2804" y="-240.265" font-family="Helvetica,sans-Serif" font-size="10.00"> KeyCmp, LogNElem, BTreeType</text>
<text text-anchor="middle" x="2878" y="-227.265" font-family="Helvetica,sans-Serif" font-size="10.00"> &gt;::value_compare</text>
</a>
</g>
<!-- Node3&#45;&gt;Node1 -->
<g id="edge4" class="edge"><title>Node3&#45;&gt;Node1</title>
<path fill="none" stroke="#9a32cd" stroke-dasharray="5,2" d="M2970.38,-249.265C2992.68,-249.265 3016.43,-249.265 3038.46,-249.265"/>
<polygon fill="#9a32cd" stroke="#9a32cd" points="2970.25,-245.765 2960.25,-249.265 2970.25,-252.765 2970.25,-245.765"/>
<text text-anchor="middle" x="2999" y="-253.265" font-family="Helvetica,sans-Serif" font-size="10.00"> m_vcmp</text>
</g>
<!-- Node4 -->
<g id="node6" class="node"><title>Node4</title>
<a xlink:href="classstxxl_1_1typed__block.html" target="_top" xlink:title="Block containing elements of fixed length. ">
<polygon fill="none" stroke="black" points="2815.5,-153.765 2815.5,-200.765 2940.5,-200.765 2940.5,-153.765 2815.5,-153.765"/>
<text text-anchor="start" x="2823.5" y="-187.765" font-family="Helvetica,sans-Serif" font-size="10.00">stxxl::typed_block</text>
<text text-anchor="start" x="2823.5" y="-174.765" font-family="Helvetica,sans-Serif" font-size="10.00">&lt; RawSize, Type, NRef,</text>
<text text-anchor="middle" x="2878" y="-161.765" font-family="Helvetica,sans-Serif" font-size="10.00"> MetaInfoType &gt;</text>
</a>
</g>
<!-- Node4&#45;&gt;Node1 -->
<g id="edge6" class="edge"><title>Node4&#45;&gt;Node1</title>
<path fill="none" stroke="#9a32cd" stroke-dasharray="5,2" d="M2950.43,-198.379C2979.85,-206.955 3013.97,-216.899 3044.19,-225.709"/>
<polygon fill="#9a32cd" stroke="#9a32cd" points="2951.23,-194.965 2940.65,-195.526 2949.27,-201.685 2951.23,-194.965"/>
<text text-anchor="middle" x="2999" y="-222.265" font-family="Helvetica,sans-Serif" font-size="10.00"> m_block</text>
</g>
<!-- Node5 -->
<g id="node8" class="node"><title>Node5</title>
<a xlink:href="classstxxl_1_1mng__local_1_1expand__struct.html" target="_top" xlink:title="stxxl::mng_local::expand\l_struct\&lt; mng_local::block\l_w_info\&lt; Type, RawSize, NRef,\l MetaInfoType \&gt;, RawSize \&gt;">
<polygon fill="none" stroke="black" points="2598.5,-147.265 2598.5,-207.265 2757.5,-207.265 2757.5,-147.265 2598.5,-147.265"/>
<text text-anchor="start" x="2606.5" y="-194.265" font-family="Helvetica,sans-Serif" font-size="10.00">stxxl::mng_local::expand</text>
<text text-anchor="start" x="2606.5" y="-181.265" font-family="Helvetica,sans-Serif" font-size="10.00">_struct&lt; mng_local::block</text>
<text text-anchor="start" x="2606.5" y="-168.265" font-family="Helvetica,sans-Serif" font-size="10.00">_w_info&lt; Type, RawSize, NRef,</text>
<text text-anchor="middle" x="2678" y="-155.265" font-family="Helvetica,sans-Serif" font-size="10.00"> MetaInfoType &gt;, RawSize &gt;</text>
</a>
</g>
<!-- Node5&#45;&gt;Node4 -->
<g id="edge8" class="edge"><title>Node5&#45;&gt;Node4</title>
<path fill="none" stroke="midnightblue" d="M2768.04,-177.265C2783.99,-177.265 2800.29,-177.265 2815.28,-177.265"/>
<polygon fill="midnightblue" stroke="midnightblue" points="2767.62,-173.765 2757.62,-177.265 2767.62,-180.765 2767.62,-173.765"/>
</g>
<!-- Node6 -->
<g id="node10" class="node"><title>Node6</title>
<a xlink:href="classstxxl_1_1mng__local_1_1add__filler.html" target="_top" xlink:title="stxxl::mng_local::add\l_filler\&lt; mng_local::block\l_w_info\&lt; Type, RawSize,\l NRef, MetaInfoType \&gt;, RawSize\l&#45;sizeof(mng_local::block_w_info\l\&lt; Type, RawSize, NRef, MetaInfoType \&gt;)\&gt;">
<polygon fill="none" stroke="black" points="2242,-69.2647 2242,-155.265 2448,-155.265 2448,-69.2647 2242,-69.2647"/>
<text text-anchor="start" x="2250" y="-142.265" font-family="Helvetica,sans-Serif" font-size="10.00">stxxl::mng_local::add</text>
<text text-anchor="start" x="2250" y="-129.265" font-family="Helvetica,sans-Serif" font-size="10.00">_filler&lt; mng_local::block</text>
<text text-anchor="start" x="2250" y="-116.265" font-family="Helvetica,sans-Serif" font-size="10.00">_w_info&lt; Type, RawSize,</text>
<text text-anchor="start" x="2250" y="-103.265" font-family="Helvetica,sans-Serif" font-size="10.00"> NRef, MetaInfoType &gt;, RawSize</text>
<text text-anchor="start" x="2250" y="-90.2647" font-family="Helvetica,sans-Serif" font-size="10.00">&#45;sizeof(mng_local::block_w_info</text>
<text text-anchor="middle" x="2345" y="-77.2647" font-family="Helvetica,sans-Serif" font-size="10.00">&lt; Type, RawSize, NRef, MetaInfoType &gt;)&gt;</text>
</a>
</g>
<!-- Node6&#45;&gt;Node5 -->
<g id="edge10" class="edge"><title>Node6&#45;&gt;Node5</title>
<path fill="none" stroke="midnightblue" d="M2458.12,-134.346C2504.22,-143.344 2556.42,-153.533 2598.39,-161.725"/>
<polygon fill="midnightblue" stroke="midnightblue" points="2458.57,-130.867 2448.08,-132.386 2457.23,-137.737 2458.57,-130.867"/>
</g>
<!-- Node7 -->
<g id="node12" class="node"><title>Node7</title>
<a xlink:href="classstxxl_1_1mng__local_1_1block__w__info.html" target="_top" xlink:title="stxxl::mng_local::block\l_w_info\&lt; Type, RawSize,\l NRef, MetaInfoType \&gt;">
<polygon fill="none" stroke="black" points="2067,-13.7647 2067,-60.7647 2197,-60.7647 2197,-13.7647 2067,-13.7647"/>
<text text-anchor="start" x="2075" y="-47.7647" font-family="Helvetica,sans-Serif" font-size="10.00">stxxl::mng_local::block</text>
<text text-anchor="start" x="2075" y="-34.7647" font-family="Helvetica,sans-Serif" font-size="10.00">_w_info&lt; Type, RawSize,</text>
<text text-anchor="middle" x="2132" y="-21.7647" font-family="Helvetica,sans-Serif" font-size="10.00"> NRef, MetaInfoType &gt;</text>
</a>
</g>
<!-- Node7&#45;&gt;Node6 -->
<g id="edge12" class="edge"><title>Node7&#45;&gt;Node6</title>
<path fill="none" stroke="midnightblue" d="M2206.53,-63.5082C2217.97,-67.5357 2229.95,-71.754 2241.87,-75.9525"/>
<polygon fill="midnightblue" stroke="midnightblue" points="2207.66,-60.1947 2197.06,-60.1747 2205.33,-66.7974 2207.66,-60.1947"/>
</g>
<!-- Node8 -->
<g id="node14" class="node"><title>Node8</title>
<a xlink:href="classstxxl_1_1mng__local_1_1block__w__bids.html" target="_top" xlink:title="stxxl::mng_local::block\l_w_bids\&lt; Type,((RawSize\l&#45;sizeof(BID\&lt; RawSize \&gt;)*NBids\l&#45;sizeof(MetaInfoType))/sizeof\l(Type)), RawSize, NBids \&gt;">
<polygon fill="none" stroke="black" points="1556,-0.764735 1556,-73.7647 1714,-73.7647 1714,-0.764735 1556,-0.764735"/>
<text text-anchor="start" x="1564" y="-60.7647" font-family="Helvetica,sans-Serif" font-size="10.00">stxxl::mng_local::block</text>
<text text-anchor="start" x="1564" y="-47.7647" font-family="Helvetica,sans-Serif" font-size="10.00">_w_bids&lt; Type,((RawSize</text>
<text text-anchor="start" x="1564" y="-34.7647" font-family="Helvetica,sans-Serif" font-size="10.00">&#45;sizeof(BID&lt; RawSize &gt;)*NBids</text>
<text text-anchor="start" x="1564" y="-21.7647" font-family="Helvetica,sans-Serif" font-size="10.00">&#45;sizeof(MetaInfoType))/sizeof</text>
<text text-anchor="middle" x="1635" y="-8.76474" font-family="Helvetica,sans-Serif" font-size="10.00">(Type)), RawSize, NBids &gt;</text>
</a>
</g>
<!-- Node8&#45;&gt;Node7 -->
<g id="edge14" class="edge"><title>Node8&#45;&gt;Node7</title>
<path fill="none" stroke="midnightblue" d="M1723.92,-12.6323C1739.81,-9.15205 1756.31,-6.12808 1772,-4.26474 1874.83,7.94588 1994.66,-9.29263 2066.86,-23.091"/>
<polygon fill="midnightblue" stroke="midnightblue" points="1723.09,-9.23059 1714.11,-14.852 1724.64,-16.0579 1723.09,-9.23059"/>
</g>
<!-- Node18 -->
<g id="node39" class="node"><title>Node18</title>
<a xlink:href="classstxxl_1_1mng__local_1_1block__w__info.html" target="_top" xlink:title="Contains per block information for stxxl::typed_block , not intended for direct use. ">
<polygon fill="none" stroke="black" points="1777,-13.7647 1777,-60.7647 1907,-60.7647 1907,-13.7647 1777,-13.7647"/>
<text text-anchor="start" x="1785" y="-47.7647" font-family="Helvetica,sans-Serif" font-size="10.00">stxxl::mng_local::block</text>
<text text-anchor="start" x="1785" y="-34.7647" font-family="Helvetica,sans-Serif" font-size="10.00">_w_info&lt; Type, RawSize,</text>
<text text-anchor="middle" x="1842" y="-21.7647" font-family="Helvetica,sans-Serif" font-size="10.00"> NBids, MetaInfoType &gt;</text>
</a>
</g>
<!-- Node8&#45;&gt;Node18 -->
<g id="edge46" class="edge"><title>Node8&#45;&gt;Node18</title>
<path fill="none" stroke="midnightblue" d="M1724.41,-37.2647C1741.97,-37.2647 1760.09,-37.2647 1776.68,-37.2647"/>
<polygon fill="midnightblue" stroke="midnightblue" points="1724.14,-33.7648 1714.14,-37.2647 1724.14,-40.7648 1724.14,-33.7648"/>
</g>
<!-- Node9 -->
<g id="node16" class="node"><title>Node9</title>
<a xlink:href="classstxxl_1_1mng__local_1_1element__block.html" target="_top" xlink:title="Contains data elements for stxxl::typed_block , not intended for direct use. ">
<polygon fill="none" stroke="black" points="1070,-6.26474 1070,-40.2647 1198,-40.2647 1198,-6.26474 1070,-6.26474"/>
<text text-anchor="start" x="1078" y="-27.2647" font-family="Helvetica,sans-Serif" font-size="10.00">stxxl::mng_local::element</text>
<text text-anchor="middle" x="1134" y="-14.2647" font-family="Helvetica,sans-Serif" font-size="10.00">_block&lt; Type, Size &gt;</text>
</a>
</g>
<!-- Node9&#45;&gt;Node8 -->
<g id="edge16" class="edge"><title>Node9&#45;&gt;Node8</title>
<path fill="none" stroke="midnightblue" d="M1208.26,-23.3722C1263.39,-23.6236 1340.4,-24.3353 1408,-26.2647 1465.82,-27.9149 1480.23,-29.4427 1538,-32.2647 1543.81,-32.5486 1549.82,-32.8467 1555.86,-33.1502"/>
<polygon fill="midnightblue" stroke="midnightblue" points="1208.25,-19.8722 1198.23,-23.3304 1208.22,-26.8722 1208.25,-19.8722"/>
</g>
<!-- Node17 -->
<g id="node35" class="node"><title>Node17</title>
<a xlink:href="classstxxl_1_1mng__local_1_1block__w__bids.html" target="_top" xlink:title="Contains BID references for stxxl::typed_block , not intended for direct use. ">
<polygon fill="none" stroke="black" points="1250,-35.7647 1250,-82.7647 1408,-82.7647 1408,-35.7647 1250,-35.7647"/>
<text text-anchor="start" x="1258" y="-69.7647" font-family="Helvetica,sans-Serif" font-size="10.00">stxxl::mng_local::block</text>
<text text-anchor="start" x="1258" y="-56.7647" font-family="Helvetica,sans-Serif" font-size="10.00">_w_bids&lt; Type, Size, RawSize,</text>
<text text-anchor="middle" x="1329" y="-43.7647" font-family="Helvetica,sans-Serif" font-size="10.00"> NBids &gt;</text>
</a>
</g>
<!-- Node9&#45;&gt;Node17 -->
<g id="edge40" class="edge"><title>Node9&#45;&gt;Node17</title>
<path fill="none" stroke="midnightblue" d="M1207.96,-36.9192C1221.66,-39.4482 1236.02,-42.0988 1249.86,-44.6549"/>
<polygon fill="midnightblue" stroke="midnightblue" points="1208.59,-33.4761 1198.12,-35.1023 1207.32,-40.3597 1208.59,-33.4761"/>
</g>
<!-- Node10 -->
<g id="node18" class="node"><title>Node10</title>
<a xlink:href="structstxxl_1_1BID.html" target="_top" xlink:title="stxxl::BID\&lt; raw_size \&gt;">
<polygon fill="none" stroke="black" points="1075,-109.765 1075,-130.765 1193,-130.765 1193,-109.765 1075,-109.765"/>
<text text-anchor="middle" x="1134" y="-117.765" font-family="Helvetica,sans-Serif" font-size="10.00">stxxl::BID&lt; raw_size &gt;</text>
</a>
</g>
<!-- Node10&#45;&gt;Node8 -->
<g id="edge18" class="edge"><title>Node10&#45;&gt;Node8</title>
<path fill="none" stroke="#9a32cd" stroke-dasharray="5,2" d="M1203.26,-122.636C1302.03,-125.208 1478.05,-126.562 1538,-106.265 1558.36,-99.372 1578.18,-86.6919 1594.55,-74.0642"/>
<polygon fill="#9a32cd" stroke="#9a32cd" points="1203.16,-119.132 1193.07,-122.359 1202.97,-126.129 1203.16,-119.132"/>
<text text-anchor="middle" x="1329" y="-128.265" font-family="Helvetica,sans-Serif" font-size="10.00"> ref</text>
</g>
<!-- Node10&#45;&gt;Node17 -->
<g id="edge42" class="edge"><title>Node10&#45;&gt;Node17</title>
<path fill="none" stroke="#9a32cd" stroke-dasharray="5,2" d="M1175.13,-106.492C1188.18,-102.185 1202.67,-97.4634 1216,-93.2647 1226.94,-89.8176 1238.5,-86.2517 1249.89,-82.7838"/>
<polygon fill="#9a32cd" stroke="#9a32cd" points="1173.87,-103.222 1165.48,-109.689 1176.07,-109.866 1173.87,-103.222"/>
<text text-anchor="middle" x="1224" y="-97.2647" font-family="Helvetica,sans-Serif" font-size="10.00"> ref</text>
</g>
<!-- Node11&#45;&gt;Node10 -->
<g id="edge20" class="edge"><title>Node11&#45;&gt;Node10</title>
<path fill="none" stroke="#9a32cd" stroke-dasharray="5,2" d="M808.356,-164.389C862.758,-160.037 965.355,-150.821 1052,-137.265 1063.49,-135.467 1075.81,-133.132 1087.31,-130.772"/>
<polygon fill="#9a32cd" stroke="#9a32cd" points="807.832,-160.919 798.138,-165.194 808.382,-167.898 807.832,-160.919"/>
<text text-anchor="middle" x="921" y="-163.265" font-family="Helvetica,sans-Serif" font-size="10.00"> storage</text>
</g>
<!-- Node16 -->
<g id="node32" class="node"><title>Node16</title>
<a xlink:href="structstxxl_1_1BID.html" target="_top" xlink:title="Block identifier class. ">
<polygon fill="none" stroke="black" points="870.5,-109.765 870.5,-130.765 971.5,-130.765 971.5,-109.765 870.5,-109.765"/>
<text text-anchor="middle" x="921" y="-117.765" font-family="Helvetica,sans-Serif" font-size="10.00">stxxl::BID&lt; SIZE &gt;</text>
</a>
</g>
<!-- Node11&#45;&gt;Node16 -->
<g id="edge36" class="edge"><title>Node11&#45;&gt;Node16</title>
<path fill="none" stroke="#9a32cd" stroke-dasharray="5,2" d="M793.903,-151.153C800.797,-147.09 808.491,-143.087 816,-140.265 833.197,-133.802 852.796,-129.346 870.367,-126.312"/>
<polygon fill="#9a32cd" stroke="#9a32cd" points="791.74,-148.376 785.09,-156.624 795.432,-154.323 791.74,-148.376"/>
<text text-anchor="middle" x="834" y="-144.265" font-family="Helvetica,sans-Serif" font-size="10.00"> storage</text>
</g>
<!-- Node12 -->
<g id="node23" class="node"><title>Node12</title>
<a xlink:href="classstxxl_1_1atomic__counted__object.html" target="_top" xlink:title="Provides reference counting abilities for use with counting_ptr with mutex locking. ">
<polygon fill="none" stroke="black" points="526.5,-150.265 526.5,-184.265 639.5,-184.265 639.5,-150.265 526.5,-150.265"/>
<text text-anchor="start" x="534.5" y="-171.265" font-family="Helvetica,sans-Serif" font-size="10.00">stxxl::atomic_counted</text>
<text text-anchor="middle" x="583" y="-158.265" font-family="Helvetica,sans-Serif" font-size="10.00">_object</text>
</a>
</g>
<!-- Node12&#45;&gt;Node11 -->
<g id="edge24" class="edge"><title>Node12&#45;&gt;Node11</title>
<path fill="none" stroke="#9a32cd" stroke-dasharray="5,2" d="M649.733,-167.265C681.451,-167.265 717.657,-167.265 741.984,-167.265"/>
<polygon fill="#9a32cd" stroke="#9a32cd" points="649.614,-163.765 639.614,-167.265 649.614,-170.765 649.614,-163.765"/>
<text text-anchor="middle" x="691" y="-171.265" font-family="Helvetica,sans-Serif" font-size="10.00"> m_request_ref</text>
</g>
<!-- Node13&#45;&gt;Node12 -->
<g id="edge26" class="edge"><title>Node13&#45;&gt;Node12</title>
<path fill="none" stroke="#9a32cd" stroke-dasharray="5,2" d="M355.875,-187.232C402.83,-183.104 475.885,-176.681 526.403,-172.24"/>
<polygon fill="#9a32cd" stroke="#9a32cd" points="355.345,-183.765 345.69,-188.127 355.958,-190.738 355.345,-183.765"/>
<text text-anchor="middle" x="448" y="-188.265" font-family="Helvetica,sans-Serif" font-size="10.00"> m_reference_count_mutex</text>
</g>
<!-- Node14 -->
<g id="node28" class="node"><title>Node14</title>
<a xlink:href="structstxxl_1_1choose__int__types.html" target="_top" xlink:title="stxxl::choose_int_types\l\&lt; my_pointer_size \&gt;">
<polygon fill="none" stroke="black" points="250,-128.265 250,-162.265 370,-162.265 370,-128.265 250,-128.265"/>
<text text-anchor="start" x="258" y="-149.265" font-family="Helvetica,sans-Serif" font-size="10.00">stxxl::choose_int_types</text>
<text text-anchor="middle" x="310" y="-136.265" font-family="Helvetica,sans-Serif" font-size="10.00">&lt; my_pointer_size &gt;</text>
</a>
</g>
<!-- Node14&#45;&gt;Node12 -->
<g id="edge30" class="edge"><title>Node14&#45;&gt;Node12</title>
<path fill="none" stroke="#9a32cd" stroke-dasharray="5,2" d="M380.847,-144.332C418.701,-144.609 466.025,-146.193 508,-151.265 513.948,-151.983 520.122,-152.944 526.26,-154.039"/>
<polygon fill="#9a32cd" stroke="#9a32cd" points="380.448,-140.831 370.433,-144.287 380.418,-147.831 380.448,-140.831"/>
<text text-anchor="middle" x="448" y="-155.265" font-family="Helvetica,sans-Serif" font-size="10.00"> m_reference_count</text>
</g>
<!-- Node15 -->
<g id="node30" class="node"><title>Node15</title>
<a xlink:href="structstxxl_1_1choose__int__types.html" target="_top" xlink:title="stxxl::choose_int_types\l\&lt; PtrSize \&gt;">
<polygon fill="none" stroke="black" points="0,-128.265 0,-162.265 120,-162.265 120,-128.265 0,-128.265"/>
<text text-anchor="start" x="8" y="-149.265" font-family="Helvetica,sans-Serif" font-size="10.00">stxxl::choose_int_types</text>
<text text-anchor="middle" x="60" y="-136.265" font-family="Helvetica,sans-Serif" font-size="10.00">&lt; PtrSize &gt;</text>
</a>
</g>
<!-- Node15&#45;&gt;Node14 -->
<g id="edge32" class="edge"><title>Node15&#45;&gt;Node14</title>
<path fill="none" stroke="orange" stroke-dasharray="5,2" d="M130.578,-145.265C168.196,-145.265 213.985,-145.265 249.89,-145.265"/>
<polygon fill="orange" stroke="orange" points="130.199,-141.765 120.199,-145.265 130.199,-148.765 130.199,-141.765"/>
<text text-anchor="middle" x="185" y="-149.265" font-family="Helvetica,sans-Serif" font-size="10.00"> &lt; my_pointer_size &gt;</text>
</g>
<!-- Node16&#45;&gt;Node10 -->
<g id="edge34" class="edge"><title>Node16&#45;&gt;Node10</title>
<path fill="none" stroke="orange" stroke-dasharray="5,2" d="M981.834,-120.265C1011.07,-120.265 1045.97,-120.265 1074.96,-120.265"/>
<polygon fill="orange" stroke="orange" points="981.748,-116.765 971.748,-120.265 981.748,-123.765 981.748,-116.765"/>
<text text-anchor="middle" x="1021" y="-124.265" font-family="Helvetica,sans-Serif" font-size="10.00"> &lt; raw_size &gt;</text>
</g>
<!-- Node17&#45;&gt;Node8 -->
<g id="edge38" class="edge"><title>Node17&#45;&gt;Node8</title>
<path fill="none" stroke="orange" stroke-dasharray="5,2" d="M1418.31,-42.1258C1420.9,-41.8109 1423.47,-41.5224 1426,-41.2647 1468.78,-36.9154 1516.74,-35.7355 1555.92,-35.7228"/>
<polygon fill="orange" stroke="orange" points="1417.7,-38.6755 1408.25,-43.4616 1418.62,-45.6146 1417.7,-38.6755"/>
<text text-anchor="start" x="1426" y="-97.2647" font-family="Helvetica,sans-Serif" font-size="10.00"> &lt; Type,((RawSize&#45;sizeof</text>
<text text-anchor="start" x="1426" y="-84.2647" font-family="Helvetica,sans-Serif" font-size="10.00">(BID&lt; RawSize &gt;)*NBids</text>
<text text-anchor="start" x="1426" y="-71.2647" font-family="Helvetica,sans-Serif" font-size="10.00">&#45;sizeof(MetaInfoType))</text>
<text text-anchor="start" x="1426" y="-58.2647" font-family="Helvetica,sans-Serif" font-size="10.00">/sizeof(Type)), RawSize,</text>
<text text-anchor="middle" x="1482" y="-45.2647" font-family="Helvetica,sans-Serif" font-size="10.00"> NBids &gt;</text>
</g>
<!-- Node18&#45;&gt;Node7 -->
<g id="edge44" class="edge"><title>Node18&#45;&gt;Node7</title>
<path fill="none" stroke="orange" stroke-dasharray="5,2" d="M1917.08,-37.2647C1963.49,-37.2647 2022.46,-37.2647 2066.89,-37.2647"/>
<polygon fill="orange" stroke="orange" points="1917.08,-33.7648 1907.08,-37.2647 1917.08,-40.7648 1917.08,-33.7648"/>
<text text-anchor="start" x="1930" y="-54.2647" font-family="Helvetica,sans-Serif" font-size="10.00"> &lt; Type, RawSize, NRef,</text>
<text text-anchor="middle" x="1986" y="-41.2647" font-family="Helvetica,sans-Serif" font-size="10.00"> MetaInfoType &gt;</text>
</g>
<!-- Node19 -->
<g id="node42" class="node"><title>Node19</title>
<a xlink:href="classstxxl_1_1mng__local_1_1filler__struct.html" target="_top" xlink:title="stxxl::mng_local::filler\l_struct\&lt; FillSize \&gt;">
<polygon fill="none" stroke="black" points="1579,-154.265 1579,-188.265 1691,-188.265 1691,-154.265 1579,-154.265"/>
<text text-anchor="start" x="1587" y="-175.265" font-family="Helvetica,sans-Serif" font-size="10.00">stxxl::mng_local::filler</text>
<text text-anchor="middle" x="1635" y="-162.265" font-family="Helvetica,sans-Serif" font-size="10.00">_struct&lt; FillSize &gt;</text>
</a>
</g>
<!-- Node19&#45;&gt;Node6 -->
<g id="edge48" class="edge"><title>Node19&#45;&gt;Node6</title>
<path fill="none" stroke="#9a32cd" stroke-dasharray="5,2" d="M1701.21,-157.415C1723.61,-153.071 1748.82,-148.557 1772,-145.265 1935.15,-122.09 2126.63,-115.086 2241.75,-113.031"/>
<polygon fill="#9a32cd" stroke="#9a32cd" points="1700.27,-154.033 1691.13,-159.393 1701.61,-160.901 1700.27,-154.033"/>
<text text-anchor="middle" x="1986" y="-132.265" font-family="Helvetica,sans-Serif" font-size="10.00"> filler</text>
</g>
<!-- Node21 -->
<g id="node46" class="node"><title>Node21</title>
<a xlink:href="classstxxl_1_1mng__local_1_1add__filler.html" target="_top" xlink:title="Contains per block filler for stxxl::typed_block , not intended for direct use. ">
<polygon fill="none" stroke="black" points="1772,-154.265 1772,-188.265 1912,-188.265 1912,-154.265 1772,-154.265"/>
<text text-anchor="start" x="1780" y="-175.265" font-family="Helvetica,sans-Serif" font-size="10.00">stxxl::mng_local::add</text>
<text text-anchor="middle" x="1842" y="-162.265" font-family="Helvetica,sans-Serif" font-size="10.00">_filler&lt; BaseType, FillSize &gt;</text>
</a>
</g>
<!-- Node19&#45;&gt;Node21 -->
<g id="edge54" class="edge"><title>Node19&#45;&gt;Node21</title>
<path fill="none" stroke="#9a32cd" stroke-dasharray="5,2" d="M1701.17,-171.265C1723.72,-171.265 1749.01,-171.265 1771.87,-171.265"/>
<polygon fill="#9a32cd" stroke="#9a32cd" points="1701.02,-167.765 1691.02,-171.265 1701.02,-174.765 1701.02,-167.765"/>
<text text-anchor="middle" x="1743" y="-175.265" font-family="Helvetica,sans-Serif" font-size="10.00"> filler</text>
</g>
<!-- Node23 -->
<g id="node51" class="node"><title>Node23</title>
<a xlink:href="classstxxl_1_1mng__local_1_1add__filler.html" target="_top" xlink:title="stxxl::mng_local::add\l_filler\&lt; Type, RawSize\l&#45;sizeof(Type)\&gt;">
<polygon fill="none" stroke="black" points="2074,-231.765 2074,-278.765 2190,-278.765 2190,-231.765 2074,-231.765"/>
<text text-anchor="start" x="2082" y="-265.765" font-family="Helvetica,sans-Serif" font-size="10.00">stxxl::mng_local::add</text>
<text text-anchor="start" x="2082" y="-252.765" font-family="Helvetica,sans-Serif" font-size="10.00">_filler&lt; Type, RawSize</text>
<text text-anchor="middle" x="2132" y="-239.765" font-family="Helvetica,sans-Serif" font-size="10.00">&#45;sizeof(Type)&gt;</text>
</a>
</g>
<!-- Node19&#45;&gt;Node23 -->
<g id="edge60" class="edge"><title>Node19&#45;&gt;Node23</title>
<path fill="none" stroke="#9a32cd" stroke-dasharray="5,2" d="M1701.4,-183.949C1723.82,-188.21 1748.99,-192.97 1772,-197.265 1842.18,-210.365 1859.54,-214.745 1930,-226.265 1978.25,-234.153 2033.18,-241.964 2073.57,-247.489"/>
<polygon fill="#9a32cd" stroke="#9a32cd" points="1701.79,-180.461 1691.31,-182.03 1700.48,-187.337 1701.79,-180.461"/>
<text text-anchor="middle" x="1842" y="-227.265" font-family="Helvetica,sans-Serif" font-size="10.00"> filler</text>
</g>
<!-- Node20 -->
<g id="node44" class="node"><title>Node20</title>
<a xlink:href="classstxxl_1_1mng__local_1_1filler__struct.html" target="_top" xlink:title="stxxl::mng_local::filler\l_struct\&lt; Bytes \&gt;">
<polygon fill="none" stroke="black" points="1273,-154.265 1273,-188.265 1385,-188.265 1385,-154.265 1273,-154.265"/>
<text text-anchor="start" x="1281" y="-175.265" font-family="Helvetica,sans-Serif" font-size="10.00">stxxl::mng_local::filler</text>
<text text-anchor="middle" x="1329" y="-162.265" font-family="Helvetica,sans-Serif" font-size="10.00">_struct&lt; Bytes &gt;</text>
</a>
</g>
<!-- Node20&#45;&gt;Node19 -->
<g id="edge50" class="edge"><title>Node20&#45;&gt;Node19</title>
<path fill="none" stroke="orange" stroke-dasharray="5,2" d="M1395.44,-171.265C1450.27,-171.265 1527.22,-171.265 1578.97,-171.265"/>
<polygon fill="orange" stroke="orange" points="1395.13,-167.765 1385.13,-171.265 1395.13,-174.765 1395.13,-167.765"/>
<text text-anchor="middle" x="1482" y="-175.265" font-family="Helvetica,sans-Serif" font-size="10.00"> &lt; FillSize &gt;</text>
</g>
<!-- Node21&#45;&gt;Node6 -->
<g id="edge52" class="edge"><title>Node21&#45;&gt;Node6</title>
<path fill="none" stroke="orange" stroke-dasharray="5,2" d="M1922.15,-161.116C1963.34,-155.957 2014.34,-149.655 2060,-144.265 2120.2,-137.157 2187.6,-129.572 2241.74,-123.572"/>
<polygon fill="orange" stroke="orange" points="1921.66,-157.65 1912.17,-162.367 1922.53,-164.596 1921.66,-157.65"/>
<text text-anchor="start" x="2060.5" y="-213.265" font-family="Helvetica,sans-Serif" font-size="10.00"> &lt; mng_local::block</text>
<text text-anchor="start" x="2060.5" y="-200.265" font-family="Helvetica,sans-Serif" font-size="10.00">_w_info&lt; Type, RawSize,</text>
<text text-anchor="start" x="2060.5" y="-187.265" font-family="Helvetica,sans-Serif" font-size="10.00"> NRef, MetaInfoType &gt;,</text>
<text text-anchor="start" x="2060.5" y="-174.265" font-family="Helvetica,sans-Serif" font-size="10.00"> RawSize&#45;sizeof(mng_local</text>
<text text-anchor="start" x="2060.5" y="-161.265" font-family="Helvetica,sans-Serif" font-size="10.00">::block_w_info&lt; Type, RawSize,</text>
<text text-anchor="middle" x="2132" y="-148.265" font-family="Helvetica,sans-Serif" font-size="10.00"> NRef, MetaInfoType &gt;)&gt;</text>
</g>
<!-- Node21&#45;&gt;Node23 -->
<g id="edge62" class="edge"><title>Node21&#45;&gt;Node23</title>
<path fill="none" stroke="orange" stroke-dasharray="5,2" d="M1922.13,-171.821C1960.06,-174.796 2005.03,-182.388 2042,-200.265 2051.91,-205.055 2051.05,-210.86 2060,-217.265 2067.13,-222.365 2075.02,-227.224 2082.9,-231.659"/>
<polygon fill="orange" stroke="orange" points="1922.36,-168.328 1912.15,-171.13 1921.88,-175.311 1922.36,-168.328"/>
<text text-anchor="start" x="1931.5" y="-217.265" font-family="Helvetica,sans-Serif" font-size="10.00"> &lt; Type, RawSize&#45;sizeof</text>
<text text-anchor="middle" x="1986" y="-204.265" font-family="Helvetica,sans-Serif" font-size="10.00">(Type)&gt;</text>
</g>
<!-- Node22 -->
<g id="node49" class="node"><title>Node22</title>
<a xlink:href="classstxxl_1_1mng__local_1_1expand__struct.html" target="_top" xlink:title="Helper to compute the size of the filler , not intended for direct use. ">
<polygon fill="none" stroke="black" points="2279,-214.265 2279,-248.265 2411,-248.265 2411,-214.265 2279,-214.265"/>
<text text-anchor="start" x="2287" y="-235.265" font-family="Helvetica,sans-Serif" font-size="10.00">stxxl::mng_local::expand</text>
<text text-anchor="middle" x="2345" y="-222.265" font-family="Helvetica,sans-Serif" font-size="10.00">_struct&lt; Type, RawSize &gt;</text>
</a>
</g>
<!-- Node22&#45;&gt;Node5 -->
<g id="edge56" class="edge"><title>Node22&#45;&gt;Node5</title>
<path fill="none" stroke="orange" stroke-dasharray="5,2" d="M2421.21,-218.906C2474.21,-210.311 2544.72,-198.878 2598.44,-190.166"/>
<polygon fill="orange" stroke="orange" points="2420.5,-215.476 2411.19,-220.532 2421.62,-222.386 2420.5,-215.476"/>
<text text-anchor="start" x="2466" y="-254.265" font-family="Helvetica,sans-Serif" font-size="10.00"> &lt; mng_local::block</text>
<text text-anchor="start" x="2466" y="-241.265" font-family="Helvetica,sans-Serif" font-size="10.00">_w_info&lt; Type, RawSize,</text>
<text text-anchor="start" x="2466" y="-228.265" font-family="Helvetica,sans-Serif" font-size="10.00"> NRef, MetaInfoType &gt;,</text>
<text text-anchor="middle" x="2523" y="-215.265" font-family="Helvetica,sans-Serif" font-size="10.00"> RawSize &gt;</text>
</g>
<!-- Node23&#45;&gt;Node22 -->
<g id="edge58" class="edge"><title>Node23&#45;&gt;Node22</title>
<path fill="none" stroke="midnightblue" d="M2200.4,-247.557C2225.57,-244.721 2254.02,-241.516 2278.97,-238.704"/>
<polygon fill="midnightblue" stroke="midnightblue" points="2199.75,-244.109 2190.2,-248.707 2200.53,-251.065 2199.75,-244.109"/>
</g>
</g>
</svg>
