<?xml version="1.0" encoding="UTF-8" standalone="no"?>
<!DOCTYPE svg PUBLIC "-//W3C//DTD SVG 1.1//EN"
 "http://www.w3.org/Graphics/SVG/1.1/DTD/svg11.dtd">
<!-- Generated by graphviz version 2.38.0 (20140413.2041)
 -->
<!-- Title: stxxl::block_manager Pages: 1 -->
<svg width="224pt" height="231pt"
 viewBox="0.00 0.00 223.50 231.00" xmlns="http://www.w3.org/2000/svg" xmlns:xlink="http://www.w3.org/1999/xlink">
<g id="graph0" class="graph" transform="scale(1 1) rotate(0) translate(4 227)">
<title>stxxl::block_manager</title>
<!-- Node1 -->
<g id="node1" class="node"><title>Node1</title>
<polygon fill="#bfbfbf" stroke="black" points="2.5,-0.5 2.5,-19.5 112.5,-19.5 112.5,-0.5 2.5,-0.5"/>
<text text-anchor="middle" x="57.5" y="-7.5" font-family="Helvetica,sans-Serif" font-size="10.00">stxxl::block_manager</text>
</g>
<!-- Node2 -->
<g id="node2" class="node"><title>Node2</title>
<g id="a_node2"><a xlink:href="classstxxl_1_1singleton.html" target="_top" xlink:title="stxxl::singleton\&lt; block\l_manager \&gt;">
<polygon fill="none" stroke="black" points="-7.10543e-15,-57.5 -7.10543e-15,-87.5 115,-87.5 115,-57.5 -7.10543e-15,-57.5"/>
<text text-anchor="start" x="8" y="-75.5" font-family="Helvetica,sans-Serif" font-size="10.00">stxxl::singleton&lt; block</text>
<text text-anchor="middle" x="57.5" y="-64.5" font-family="Helvetica,sans-Serif" font-size="10.00">_manager &gt;</text>
</a>
</g>
</g>
<!-- Node2&#45;&gt;Node1 -->
<g id="edge1" class="edge"><title>Node2&#45;&gt;Node1</title>
<path fill="none" stroke="midnightblue" d="M57.5,-47.3524C57.5,-37.5132 57.5,-26.7753 57.5,-19.5399"/>
<polygon fill="midnightblue" stroke="midnightblue" points="54.0001,-47.468 57.5,-57.468 61.0001,-47.4681 54.0001,-47.468"/>
</g>
<!-- Node3 -->
<g id="node3" class="node"><title>Node3</title>
<g id="a_node3"><a xlink:href="classstxxl_1_1noncopyable.html" target="_top" xlink:title="stxxl::noncopyable">
<polygon fill="none" stroke="black" points="23.5,-203.5 23.5,-222.5 121.5,-222.5 121.5,-203.5 23.5,-203.5"/>
<text text-anchor="middle" x="72.5" y="-210.5" font-family="Helvetica,sans-Serif" font-size="10.00">stxxl::noncopyable</text>
</a>
</g>
</g>
<!-- Node3&#45;&gt;Node2 -->
<g id="edge2" class="edge"><title>Node3&#45;&gt;Node2</title>
<path fill="none" stroke="#8b1a1a" d="M66.6786,-193.536C64.3154,-185.21 61.8323,-175.201 60.5,-166 56.5165,-138.49 56.5469,-105.919 56.9854,-87.6899"/>
<polygon fill="#8b1a1a" stroke="#8b1a1a" points="63.3824,-194.729 69.6094,-203.301 70.0869,-192.717 63.3824,-194.729"/>
</g>
<!-- Node4 -->
<g id="node4" class="node"><title>Node4</title>
<g id="a_node4"><a xlink:href="classstxxl_1_1singleton.html" target="_top" xlink:title="stxxl::singleton\&lt; INSTANCE,\l destroy_on_exit \&gt;">
<polygon fill="none" stroke="black" points="69.5,-135.5 69.5,-165.5 215.5,-165.5 215.5,-135.5 69.5,-135.5"/>
<text text-anchor="start" x="77.5" y="-153.5" font-family="Helvetica,sans-Serif" font-size="10.00">stxxl::singleton&lt; INSTANCE,</text>
<text text-anchor="middle" x="142.5" y="-142.5" font-family="Helvetica,sans-Serif" font-size="10.00"> destroy_on_exit &gt;</text>
</a>
</g>
</g>
<!-- Node3&#45;&gt;Node4 -->
<g id="edge4" class="edge"><title>Node3&#45;&gt;Node4</title>
<path fill="none" stroke="#8b1a1a" d="M90.2955,-196.62C101.37,-187.048 115.504,-174.832 126.272,-165.526"/>
<polygon fill="#8b1a1a" stroke="#8b1a1a" points="87.8065,-194.145 82.5293,-203.332 92.3838,-199.441 87.8065,-194.145"/>
</g>
<!-- Node4&#45;&gt;Node2 -->
<g id="edge3" class="edge"><title>Node4&#45;&gt;Node2</title>
<path fill="none" stroke="orange" stroke-dasharray="5,2" d="M118.895,-128.394C104.398,-115.432 86.2183,-99.1775 73.4162,-87.7309"/>
<polygon fill="orange" stroke="orange" points="116.725,-131.149 126.512,-135.205 121.39,-125.93 116.725,-131.149"/>
<text text-anchor="middle" x="148.5" y="-109" font-family="Helvetica,sans-Serif" font-size="10.00"> &lt; block_manager &gt;</text>
</g>
</g>
</svg>
