<?xml version="1.0" encoding="UTF-8" standalone="no"?>
<!DOCTYPE svg PUBLIC "-//W3C//DTD SVG 1.1//EN"
 "http://www.w3.org/Graphics/SVG/1.1/DTD/svg11.dtd">
<!-- Generated by graphviz version 2.38.0 (20140413.2041)
 -->
<!-- Title: stxxl::parallel::LoserTreeCopyUnguarded&lt; Stable, ValueType, Comparator &gt; Pages: 1 -->
<svg width="579pt" height="88pt"
 viewBox="0.00 0.00 579.00 88.00" xmlns="http://www.w3.org/2000/svg" xmlns:xlink="http://www.w3.org/1999/xlink">
<g id="graph0" class="graph" transform="scale(1 1) rotate(0) translate(4 84)">
<title>stxxl::parallel::LoserTreeCopyUnguarded&lt; Stable, ValueType, Comparator &gt;</title>
<!-- Node1 -->
<g id="node1" class="node"><title>Node1</title>
<polygon fill="#bfbfbf" stroke="black" points="439,-24.5 439,-65.5 571,-65.5 571,-24.5 439,-24.5"/>
<text text-anchor="start" x="447" y="-53.5" font-family="Helvetica,sans-Serif" font-size="10.00">stxxl::parallel::LoserTree</text>
<text text-anchor="start" x="447" y="-42.5" font-family="Helvetica,sans-Serif" font-size="10.00">CopyUnguarded&lt; Stable,</text>
<text text-anchor="middle" x="505" y="-31.5" font-family="Helvetica,sans-Serif" font-size="10.00"> ValueType, Comparator &gt;</text>
</g>
<!-- Node2 -->
<g id="node2" class="node"><title>Node2</title>
<g id="a_node2"><a xlink:href="classstxxl_1_1parallel_1_1LoserTreeCopyUnguardedBase.html" target="_top" xlink:title="stxxl::parallel::LoserTree\lCopyUnguardedBase\&lt; ValueType,\l Comparator \&gt;">
<polygon fill="none" stroke="black" points="234,-24.5 234,-65.5 402,-65.5 402,-24.5 234,-24.5"/>
<text text-anchor="start" x="242" y="-53.5" font-family="Helvetica,sans-Serif" font-size="10.00">stxxl::parallel::LoserTree</text>
<text text-anchor="start" x="242" y="-42.5" font-family="Helvetica,sans-Serif" font-size="10.00">CopyUnguardedBase&lt; ValueType,</text>
<text text-anchor="middle" x="318" y="-31.5" font-family="Helvetica,sans-Serif" font-size="10.00"> Comparator &gt;</text>
</a>
</g>
</g>
<!-- Node2&#45;&gt;Node1 -->
<g id="edge1" class="edge"><title>Node2&#45;&gt;Node1</title>
<path fill="none" stroke="midnightblue" d="M412.228,-45C421.273,-45 430.308,-45 438.989,-45"/>
<polygon fill="midnightblue" stroke="midnightblue" points="412.03,-41.5001 402.03,-45 412.03,-48.5001 412.03,-41.5001"/>
</g>
<!-- Node3 -->
<g id="node3" class="node"><title>Node3</title>
<g id="a_node3"><a xlink:href="classstxxl_1_1noncopyable.html" target="_top" xlink:title="stxxl::noncopyable">
<polygon fill="none" stroke="black" points="35,-60.5 35,-79.5 133,-79.5 133,-60.5 35,-60.5"/>
<text text-anchor="middle" x="84" y="-67.5" font-family="Helvetica,sans-Serif" font-size="10.00">stxxl::noncopyable</text>
</a>
</g>
</g>
<!-- Node3&#45;&gt;Node2 -->
<g id="edge2" class="edge"><title>Node3&#45;&gt;Node2</title>
<path fill="none" stroke="#8b1a1a" d="M143.268,-63.7211C170.661,-60.7693 203.818,-57.1963 233.793,-53.9663"/>
<polygon fill="#8b1a1a" stroke="#8b1a1a" points="142.638,-60.2687 133.071,-64.82 143.388,-67.2284 142.638,-60.2687"/>
</g>
<!-- Node4 -->
<g id="node4" class="node"><title>Node4</title>
<g id="a_node4"><a xlink:href="structstxxl_1_1parallel_1_1LoserTreeCopyUnguardedBase_1_1Loser.html" target="_top" xlink:title="Internal representation of a loser tree player/node. ">
<polygon fill="none" stroke="black" points="0,-0.5 0,-41.5 168,-41.5 168,-0.5 0,-0.5"/>
<text text-anchor="start" x="8" y="-29.5" font-family="Helvetica,sans-Serif" font-size="10.00">stxxl::parallel::LoserTree</text>
<text text-anchor="start" x="8" y="-18.5" font-family="Helvetica,sans-Serif" font-size="10.00">CopyUnguardedBase&lt; ValueType,</text>
<text text-anchor="middle" x="84" y="-7.5" font-family="Helvetica,sans-Serif" font-size="10.00"> Comparator &gt;::Loser</text>
</a>
</g>
</g>
<!-- Node4&#45;&gt;Node2 -->
<g id="edge3" class="edge"><title>Node4&#45;&gt;Node2</title>
<path fill="none" stroke="#9a32cd" stroke-dasharray="5,2" d="M178.203,-30.6417C196.555,-32.5401 215.698,-34.5205 233.698,-36.3826"/>
<polygon fill="#9a32cd" stroke="#9a32cd" points="178.409,-27.1444 168.102,-29.5968 177.689,-34.1073 178.409,-27.1444"/>
<text text-anchor="middle" x="201" y="-37" font-family="Helvetica,sans-Serif" font-size="10.00"> losers</text>
</g>
</g>
</svg>
