<?xml version="1.0" encoding="UTF-8" standalone="no"?>
<!DOCTYPE svg PUBLIC "-//W3C//DTD SVG 1.1//EN"
 "http://www.w3.org/Graphics/SVG/1.1/DTD/svg11.dtd">
<!-- Generated by graphviz version 2.26.3 (20100126.1600)
 -->
<!-- Title: stxxl::mng_local::add_filler&lt; BaseType, FillSize &gt; Pages: 1 -->
<svg width="148pt" height="216pt"
 viewBox="0.00 0.00 148.00 216.00" xmlns="http://www.w3.org/2000/svg" xmlns:xlink="http://www.w3.org/1999/xlink">
<g id="graph1" class="graph" transform="scale(1 1) rotate(0) translate(4 212)">
<title>stxxl::mng_local::add_filler&lt; BaseType, FillSize &gt;</title>
<!-- Node1 -->
<g id="node1" class="node"><title>Node1</title>
<polygon fill="#bfbfbf" stroke="black" points="0,-1 0,-35 140,-35 140,-1 0,-1"/>
<text text-anchor="start" x="8" y="-22" font-family="Helvetica,sans-Serif" font-size="10.00">stxxl::mng_local::add</text>
<text text-anchor="middle" x="70" y="-9" font-family="Helvetica,sans-Serif" font-size="10.00">_filler&lt; BaseType, FillSize &gt;</text>
</g>
<!-- Node2 -->
<g id="node2" class="node"><title>Node2</title>
<a xlink:href="classstxxl_1_1mng__local_1_1filler__struct.html" target="_top" xlink:title="stxxl::mng_local::filler\l_struct\&lt; FillSize \&gt;">
<polygon fill="none" stroke="black" points="14,-87 14,-121 126,-121 126,-87 14,-87"/>
<text text-anchor="start" x="22" y="-108" font-family="Helvetica,sans-Serif" font-size="10.00">stxxl::mng_local::filler</text>
<text text-anchor="middle" x="70" y="-95" font-family="Helvetica,sans-Serif" font-size="10.00">_struct&lt; FillSize &gt;</text>
</a>
</g>
<!-- Node2&#45;&gt;Node1 -->
<g id="edge2" class="edge"><title>Node2&#45;&gt;Node1</title>
<path fill="none" stroke="#9a32cd" stroke-dasharray="5,2" d="M70,-76.342C70,-62.7741 70,-46.8607 70,-35.084"/>
<polygon fill="#9a32cd" stroke="#9a32cd" points="66.5001,-76.5966 70,-86.5966 73.5001,-76.5967 66.5001,-76.5966"/>
<text text-anchor="middle" x="81" y="-58.5" font-family="Helvetica,sans-Serif" font-size="10.00"> filler</text>
</g>
<!-- Node3 -->
<g id="node4" class="node"><title>Node3</title>
<a xlink:href="classstxxl_1_1mng__local_1_1filler__struct.html" target="_top" xlink:title="stxxl::mng_local::filler\l_struct\&lt; Bytes \&gt;">
<polygon fill="none" stroke="black" points="14,-173 14,-207 126,-207 126,-173 14,-173"/>
<text text-anchor="start" x="22" y="-194" font-family="Helvetica,sans-Serif" font-size="10.00">stxxl::mng_local::filler</text>
<text text-anchor="middle" x="70" y="-181" font-family="Helvetica,sans-Serif" font-size="10.00">_struct&lt; Bytes &gt;</text>
</a>
</g>
<!-- Node3&#45;&gt;Node2 -->
<g id="edge4" class="edge"><title>Node3&#45;&gt;Node2</title>
<path fill="none" stroke="orange" stroke-dasharray="5,2" d="M70,-162.342C70,-148.774 70,-132.861 70,-121.084"/>
<polygon fill="orange" stroke="orange" points="66.5001,-162.597 70,-172.597 73.5001,-162.597 66.5001,-162.597"/>
<text text-anchor="middle" x="97" y="-144.5" font-family="Helvetica,sans-Serif" font-size="10.00"> &lt; FillSize &gt;</text>
</g>
</g>
</svg>
