<?xml version="1.0" encoding="UTF-8" standalone="no"?>
<!DOCTYPE svg PUBLIC "-//W3C//DTD SVG 1.1//EN"
 "http://www.w3.org/Graphics/SVG/1.1/DTD/svg11.dtd">
<!-- Generated by graphviz version 2.26.3 (20100126.1600)
 -->
<!-- Title: stxxl::parallel::LoserTreePointerBase&lt; ValueType, Comparator &gt; Pages: 1 -->
<svg width="342pt" height="108pt"
 viewBox="0.00 0.00 342.00 108.00" xmlns="http://www.w3.org/2000/svg" xmlns:xlink="http://www.w3.org/1999/xlink">
<g id="graph1" class="graph" transform="scale(1 1) rotate(0) translate(4 104)">
<title>stxxl::parallel::LoserTreePointerBase&lt; ValueType, Comparator &gt;</title>
<!-- Node1 -->
<g id="node1" class="node"><title>Node1</title>
<polygon fill="#bfbfbf" stroke="black" points="0,-29.5 0,-76.5 128,-76.5 128,-29.5 0,-29.5"/>
<text text-anchor="start" x="8" y="-63.5" font-family="Helvetica,sans-Serif" font-size="10.00">stxxl::parallel::LoserTree</text>
<text text-anchor="start" x="8" y="-50.5" font-family="Helvetica,sans-Serif" font-size="10.00">PointerBase&lt; ValueType,</text>
<text text-anchor="middle" x="64" y="-37.5" font-family="Helvetica,sans-Serif" font-size="10.00"> Comparator &gt;</text>
</g>
<!-- Node2 -->
<g id="node3" class="node"><title>Node2</title>
<a xlink:href="classstxxl_1_1parallel_1_1LoserTreePointer.html" target="_top" xlink:title="stxxl::parallel::LoserTree\lPointer\&lt; ValueType, Comparator \&gt;">
<polygon fill="none" stroke="black" points="164.5,-66 164.5,-100 333.5,-100 333.5,-66 164.5,-66"/>
<text text-anchor="start" x="172.5" y="-87" font-family="Helvetica,sans-Serif" font-size="10.00">stxxl::parallel::LoserTree</text>
<text text-anchor="middle" x="249" y="-74" font-family="Helvetica,sans-Serif" font-size="10.00">Pointer&lt; ValueType, Comparator &gt;</text>
</a>
</g>
<!-- Node1&#45;&gt;Node2 -->
<g id="edge2" class="edge"><title>Node1&#45;&gt;Node2</title>
<path fill="none" stroke="midnightblue" d="M138.186,-65.0302C146.809,-66.4285 155.652,-67.8626 164.401,-69.2813"/>
<polygon fill="midnightblue" stroke="midnightblue" points="138.616,-61.5543 128.185,-63.4084 137.496,-68.464 138.616,-61.5543"/>
</g>
<!-- Node3 -->
<g id="node5" class="node"><title>Node3</title>
<a xlink:href="classstxxl_1_1parallel_1_1LoserTreePointer_3_01true_00_01ValueType_00_01Comparator_01_4.html" target="_top" xlink:title="stxxl::parallel::LoserTree\lPointer\&lt; true, ValueType,\l Comparator \&gt;">
<polygon fill="none" stroke="black" points="185,-0.5 185,-47.5 313,-47.5 313,-0.5 185,-0.5"/>
<text text-anchor="start" x="193" y="-34.5" font-family="Helvetica,sans-Serif" font-size="10.00">stxxl::parallel::LoserTree</text>
<text text-anchor="start" x="193" y="-21.5" font-family="Helvetica,sans-Serif" font-size="10.00">Pointer&lt; true, ValueType,</text>
<text text-anchor="middle" x="249" y="-8.5" font-family="Helvetica,sans-Serif" font-size="10.00"> Comparator &gt;</text>
</a>
</g>
<!-- Node1&#45;&gt;Node3 -->
<g id="edge4" class="edge"><title>Node1&#45;&gt;Node3</title>
<path fill="none" stroke="midnightblue" d="M138.227,-41.3645C153.692,-38.9402 169.867,-36.4046 184.929,-34.0436"/>
<polygon fill="midnightblue" stroke="midnightblue" points="137.522,-37.9321 128.185,-42.9386 138.606,-44.8476 137.522,-37.9321"/>
</g>
</g>
</svg>
