<?xml version="1.0" encoding="UTF-8" standalone="no"?>
<!DOCTYPE svg PUBLIC "-//W3C//DTD SVG 1.1//EN"
 "http://www.w3.org/Graphics/SVG/1.1/DTD/svg11.dtd">
<!-- Generated by graphviz version 2.26.3 (20100126.1600)
 -->
<!-- Title: stxxl::buf_ostream&lt; BlockType, BIDIteratorType &gt; Pages: 1 -->
<svg width="277pt" height="216pt"
 viewBox="0.00 0.00 277.00 216.00" xmlns="http://www.w3.org/2000/svg" xmlns:xlink="http://www.w3.org/1999/xlink">
<g id="graph1" class="graph" transform="scale(1 1) rotate(0) translate(4 212)">
<title>stxxl::buf_ostream&lt; BlockType, BIDIteratorType &gt;</title>
<!-- Node1 -->
<g id="node1" class="node"><title>Node1</title>
<polygon fill="#bfbfbf" stroke="black" points="10.5,-1 10.5,-35 167.5,-35 167.5,-1 10.5,-1"/>
<text text-anchor="start" x="18.5" y="-22" font-family="Helvetica,sans-Serif" font-size="10.00">stxxl::buf_ostream</text>
<text text-anchor="middle" x="89" y="-9" font-family="Helvetica,sans-Serif" font-size="10.00">&lt; BlockType, BIDIteratorType &gt;</text>
</g>
<!-- Node2 -->
<g id="node2" class="node"><title>Node2</title>
<a xlink:href="classstxxl_1_1noncopyable.html" target="_top" xlink:title="stxxl::noncopyable">
<polygon fill="none" stroke="black" points="0,-93.5 0,-114.5 98,-114.5 98,-93.5 0,-93.5"/>
<text text-anchor="middle" x="49" y="-101.5" font-family="Helvetica,sans-Serif" font-size="10.00">stxxl::noncopyable</text>
</a>
</g>
<!-- Node2&#45;&gt;Node1 -->
<g id="edge2" class="edge"><title>Node2&#45;&gt;Node1</title>
<path fill="none" stroke="#8b1a1a" d="M58.2231,-84.1703C65.1144,-69.3541 74.4396,-49.305 81.0135,-35.1709"/>
<polygon fill="#8b1a1a" stroke="#8b1a1a" points="54.9486,-82.9114 53.9048,-93.4547 61.2957,-85.8636 54.9486,-82.9114"/>
</g>
<!-- Node3 -->
<g id="node4" class="node"><title>Node3</title>
<a xlink:href="structstxxl_1_1choose__int__types.html" target="_top" xlink:title="stxxl::choose_int_types\l\&lt; my_pointer_size \&gt;">
<polygon fill="none" stroke="black" points="116,-87 116,-121 236,-121 236,-87 116,-87"/>
<text text-anchor="start" x="124" y="-108" font-family="Helvetica,sans-Serif" font-size="10.00">stxxl::choose_int_types</text>
<text text-anchor="middle" x="176" y="-95" font-family="Helvetica,sans-Serif" font-size="10.00">&lt; my_pointer_size &gt;</text>
</a>
</g>
<!-- Node3&#45;&gt;Node1 -->
<g id="edge4" class="edge"><title>Node3&#45;&gt;Node1</title>
<path fill="none" stroke="#9a32cd" stroke-dasharray="5,2" d="M151.234,-79.5188C136.871,-65.321 119.14,-47.7935 106.283,-35.084"/>
<polygon fill="#9a32cd" stroke="#9a32cd" points="148.822,-82.0557 158.394,-86.5966 153.743,-77.0774 148.822,-82.0557"/>
<text text-anchor="middle" x="167" y="-58.5" font-family="Helvetica,sans-Serif" font-size="10.00"> current_elem</text>
</g>
<!-- Node4 -->
<g id="node6" class="node"><title>Node4</title>
<a xlink:href="structstxxl_1_1choose__int__types.html" target="_top" xlink:title="stxxl::choose_int_types\l\&lt; PtrSize \&gt;">
<polygon fill="none" stroke="black" points="116,-173 116,-207 236,-207 236,-173 116,-173"/>
<text text-anchor="start" x="124" y="-194" font-family="Helvetica,sans-Serif" font-size="10.00">stxxl::choose_int_types</text>
<text text-anchor="middle" x="176" y="-181" font-family="Helvetica,sans-Serif" font-size="10.00">&lt; PtrSize &gt;</text>
</a>
</g>
<!-- Node4&#45;&gt;Node3 -->
<g id="edge6" class="edge"><title>Node4&#45;&gt;Node3</title>
<path fill="none" stroke="orange" stroke-dasharray="5,2" d="M176,-162.342C176,-148.774 176,-132.861 176,-121.084"/>
<polygon fill="orange" stroke="orange" points="172.5,-162.597 176,-172.597 179.5,-162.597 172.5,-162.597"/>
<text text-anchor="middle" x="222.5" y="-144.5" font-family="Helvetica,sans-Serif" font-size="10.00"> &lt; my_pointer_size &gt;</text>
</g>
</g>
</svg>
