<?xml version="1.0" encoding="UTF-8" standalone="no"?>
<!DOCTYPE svg PUBLIC "-//W3C//DTD SVG 1.1//EN"
 "http://www.w3.org/Graphics/SVG/1.1/DTD/svg11.dtd">
<!-- Generated by graphviz version 2.26.3 (20100126.1600)
 -->
<!-- Title: stxxl::mng_local::block_w_bids&lt; Type, Size, RawSize, NBids &gt; Pages: 1 -->
<svg width="464pt" height="544pt"
 viewBox="0.00 0.00 464.00 544.00" xmlns="http://www.w3.org/2000/svg" xmlns:xlink="http://www.w3.org/1999/xlink">
<g id="graph1" class="graph" transform="scale(1 1) rotate(0) translate(4 540)">
<title>stxxl::mng_local::block_w_bids&lt; Type, Size, RawSize, NBids &gt;</title>
<!-- Node1 -->
<g id="node1" class="node"><title>Node1</title>
<polygon fill="#bfbfbf" stroke="black" points="28,-0.5 28,-47.5 186,-47.5 186,-0.5 28,-0.5"/>
<text text-anchor="start" x="36" y="-34.5" font-family="Helvetica,sans-Serif" font-size="10.00">stxxl::mng_local::block</text>
<text text-anchor="start" x="36" y="-21.5" font-family="Helvetica,sans-Serif" font-size="10.00">_w_bids&lt; Type, Size, RawSize,</text>
<text text-anchor="middle" x="107" y="-8.5" font-family="Helvetica,sans-Serif" font-size="10.00"> NBids &gt;</text>
</g>
<!-- Node2 -->
<g id="node2" class="node"><title>Node2</title>
<a xlink:href="classstxxl_1_1mng__local_1_1element__block.html" target="_top" xlink:title="Contains data elements for stxxl::typed_block , not intended for direct use. ">
<polygon fill="none" stroke="black" points="0,-99 0,-133 128,-133 128,-99 0,-99"/>
<text text-anchor="start" x="8" y="-120" font-family="Helvetica,sans-Serif" font-size="10.00">stxxl::mng_local::element</text>
<text text-anchor="middle" x="64" y="-107" font-family="Helvetica,sans-Serif" font-size="10.00">_block&lt; Type, Size &gt;</text>
</a>
</g>
<!-- Node2&#45;&gt;Node1 -->
<g id="edge2" class="edge"><title>Node2&#45;&gt;Node1</title>
<path fill="none" stroke="midnightblue" d="M76.4968,-89.2628C82.621,-76.1597 89.9347,-60.5118 95.8653,-47.8232"/>
<polygon fill="midnightblue" stroke="midnightblue" points="73.1515,-88.1542 72.088,-98.6955 79.493,-91.1182 73.1515,-88.1542"/>
</g>
<!-- Node3 -->
<g id="node4" class="node"><title>Node3</title>
<a xlink:href="structstxxl_1_1BID.html" target="_top" xlink:title="stxxl::BID\&lt; raw_size \&gt;">
<polygon fill="none" stroke="black" points="146,-105.5 146,-126.5 264,-126.5 264,-105.5 146,-105.5"/>
<text text-anchor="middle" x="205" y="-113.5" font-family="Helvetica,sans-Serif" font-size="10.00">stxxl::BID&lt; raw_size &gt;</text>
</a>
</g>
<!-- Node3&#45;&gt;Node1 -->
<g id="edge4" class="edge"><title>Node3&#45;&gt;Node1</title>
<path fill="none" stroke="#9a32cd" stroke-dasharray="5,2" d="M186.413,-98.5506C171.108,-84.1834 149.257,-63.6701 132.349,-47.797"/>
<polygon fill="#9a32cd" stroke="#9a32cd" points="184.072,-101.154 193.758,-105.446 188.863,-96.0503 184.072,-101.154"/>
<text text-anchor="middle" x="172.5" y="-70.5" font-family="Helvetica,sans-Serif" font-size="10.00"> ref</text>
</g>
<!-- Node4 -->
<g id="node6" class="node"><title>Node4</title>
<a xlink:href="classstxxl_1_1file.html" target="_top" xlink:title="Defines interface of file. ">
<polygon fill="none" stroke="black" points="159,-256.5 159,-277.5 215,-277.5 215,-256.5 159,-256.5"/>
<text text-anchor="middle" x="187" y="-264.5" font-family="Helvetica,sans-Serif" font-size="10.00">stxxl::file</text>
</a>
</g>
<!-- Node4&#45;&gt;Node3 -->
<g id="edge6" class="edge"><title>Node4&#45;&gt;Node3</title>
<path fill="none" stroke="#9a32cd" stroke-dasharray="5,2" d="M182.341,-246.561C179.194,-229.677 176.237,-205.139 180,-184 183.747,-162.948 193.542,-139.869 199.7,-126.739"/>
<polygon fill="#9a32cd" stroke="#9a32cd" points="178.929,-247.346 184.369,-256.438 185.786,-245.938 178.929,-247.346"/>
<text text-anchor="middle" x="198" y="-192.5" font-family="Helvetica,sans-Serif" font-size="10.00"> storage</text>
</g>
<!-- Node10 -->
<g id="node19" class="node"><title>Node10</title>
<a xlink:href="structstxxl_1_1BID.html" target="_top" xlink:title="Block identifier class. ">
<polygon fill="none" stroke="black" points="225,-184.5 225,-205.5 323,-205.5 323,-184.5 225,-184.5"/>
<text text-anchor="middle" x="274" y="-192.5" font-family="Helvetica,sans-Serif" font-size="10.00">stxxl::BID&lt; Size &gt;</text>
</a>
</g>
<!-- Node4&#45;&gt;Node10 -->
<g id="edge22" class="edge"><title>Node4&#45;&gt;Node10</title>
<path fill="none" stroke="#9a32cd" stroke-dasharray="5,2" d="M207.871,-249.728C224.441,-236.015 247.081,-217.277 261.11,-205.667"/>
<polygon fill="#9a32cd" stroke="#9a32cd" points="205.31,-247.304 199.837,-256.376 209.773,-252.697 205.31,-247.304"/>
<text text-anchor="middle" x="256" y="-228.5" font-family="Helvetica,sans-Serif" font-size="10.00"> storage</text>
</g>
<!-- Node5 -->
<g id="node8" class="node"><title>Node5</title>
<a xlink:href="classstxxl_1_1noncopyable.html" target="_top" xlink:title="stxxl::noncopyable">
<polygon fill="none" stroke="black" points="131,-507.5 131,-528.5 229,-528.5 229,-507.5 131,-507.5"/>
<text text-anchor="middle" x="180" y="-515.5" font-family="Helvetica,sans-Serif" font-size="10.00">stxxl::noncopyable</text>
</a>
</g>
<!-- Node5&#45;&gt;Node4 -->
<g id="edge8" class="edge"><title>Node5&#45;&gt;Node4</title>
<path fill="none" stroke="#8b1a1a" d="M178.332,-496.856C175.859,-461.728 172.021,-389.152 177,-328 178.446,-310.244 182.221,-289.867 184.697,-277.733"/>
<polygon fill="#8b1a1a" stroke="#8b1a1a" points="174.873,-497.549 179.103,-507.263 181.854,-497.032 174.873,-497.549"/>
</g>
<!-- Node7 -->
<g id="node12" class="node"><title>Node7</title>
<a xlink:href="classstxxl_1_1mutex.html" target="_top" xlink:title="stxxl::mutex">
<polygon fill="none" stroke="black" points="185.5,-421.5 185.5,-442.5 256.5,-442.5 256.5,-421.5 185.5,-421.5"/>
<text text-anchor="middle" x="221" y="-429.5" font-family="Helvetica,sans-Serif" font-size="10.00">stxxl::mutex</text>
</a>
</g>
<!-- Node5&#45;&gt;Node7 -->
<g id="edge14" class="edge"><title>Node5&#45;&gt;Node7</title>
<path fill="none" stroke="#8b1a1a" d="M189.424,-498.234C197.669,-480.937 209.332,-456.474 215.931,-442.632"/>
<polygon fill="#8b1a1a" stroke="#8b1a1a" points="186.172,-496.922 185.027,-507.455 192.49,-499.934 186.172,-496.922"/>
</g>
<!-- Node6 -->
<g id="node10" class="node"><title>Node6</title>
<a xlink:href="classstxxl_1_1atomic__counted__object.html" target="_top" xlink:title="Provides reference counting abilities for use with counting_ptr with mutex locking. ">
<polygon fill="none" stroke="black" points="185.5,-329 185.5,-363 298.5,-363 298.5,-329 185.5,-329"/>
<text text-anchor="start" x="193.5" y="-350" font-family="Helvetica,sans-Serif" font-size="10.00">stxxl::atomic_counted</text>
<text text-anchor="middle" x="242" y="-337" font-family="Helvetica,sans-Serif" font-size="10.00">_object</text>
</a>
</g>
<!-- Node6&#45;&gt;Node4 -->
<g id="edge10" class="edge"><title>Node6&#45;&gt;Node4</title>
<path fill="none" stroke="#9a32cd" stroke-dasharray="5,2" d="M224.091,-320.276C213.993,-305.772 201.923,-288.434 194.357,-277.567"/>
<polygon fill="#9a32cd" stroke="#9a32cd" points="221.48,-322.651 230.066,-328.858 227.225,-318.651 221.48,-322.651"/>
<text text-anchor="middle" x="249" y="-300.5" font-family="Helvetica,sans-Serif" font-size="10.00"> m_request_ref</text>
</g>
<!-- Node7&#45;&gt;Node6 -->
<g id="edge12" class="edge"><title>Node7&#45;&gt;Node6</title>
<path fill="none" stroke="#9a32cd" stroke-dasharray="5,2" d="M219.191,-411.329C218.956,-402.195 219.459,-391.416 222,-382 223.751,-375.511 226.912,-368.934 230.213,-363.208"/>
<polygon fill="#9a32cd" stroke="#9a32cd" points="215.704,-411.662 219.756,-421.451 222.693,-411.271 215.704,-411.662"/>
<text text-anchor="middle" x="281.5" y="-386.5" font-family="Helvetica,sans-Serif" font-size="10.00"> m_reference_count_mutex</text>
</g>
<!-- Node8 -->
<g id="node15" class="node"><title>Node8</title>
<a xlink:href="structstxxl_1_1choose__int__types.html" target="_top" xlink:title="stxxl::choose_int_types\l\&lt; my_pointer_size \&gt;">
<polygon fill="none" stroke="black" points="303,-415 303,-449 423,-449 423,-415 303,-415"/>
<text text-anchor="start" x="311" y="-436" font-family="Helvetica,sans-Serif" font-size="10.00">stxxl::choose_int_types</text>
<text text-anchor="middle" x="363" y="-423" font-family="Helvetica,sans-Serif" font-size="10.00">&lt; my_pointer_size &gt;</text>
</a>
</g>
<!-- Node8&#45;&gt;Node6 -->
<g id="edge16" class="edge"><title>Node8&#45;&gt;Node6</title>
<path fill="none" stroke="#9a32cd" stroke-dasharray="5,2" d="M355.782,-405.194C352.432,-396.866 347.667,-388.243 341,-382 329.185,-370.937 313.708,-363.221 298.512,-357.86"/>
<polygon fill="#9a32cd" stroke="#9a32cd" points="352.491,-406.388 359.093,-414.675 359.1,-404.08 352.491,-406.388"/>
<text text-anchor="middle" x="393.5" y="-386.5" font-family="Helvetica,sans-Serif" font-size="10.00"> m_reference_count</text>
</g>
<!-- Node9 -->
<g id="node17" class="node"><title>Node9</title>
<a xlink:href="structstxxl_1_1choose__int__types.html" target="_top" xlink:title="stxxl::choose_int_types\l\&lt; PtrSize \&gt;">
<polygon fill="none" stroke="black" points="303,-501 303,-535 423,-535 423,-501 303,-501"/>
<text text-anchor="start" x="311" y="-522" font-family="Helvetica,sans-Serif" font-size="10.00">stxxl::choose_int_types</text>
<text text-anchor="middle" x="363" y="-509" font-family="Helvetica,sans-Serif" font-size="10.00">&lt; PtrSize &gt;</text>
</a>
</g>
<!-- Node9&#45;&gt;Node8 -->
<g id="edge18" class="edge"><title>Node9&#45;&gt;Node8</title>
<path fill="none" stroke="orange" stroke-dasharray="5,2" d="M363,-490.342C363,-476.774 363,-460.861 363,-449.084"/>
<polygon fill="orange" stroke="orange" points="359.5,-490.597 363,-500.597 366.5,-490.597 359.5,-490.597"/>
<text text-anchor="middle" x="409.5" y="-472.5" font-family="Helvetica,sans-Serif" font-size="10.00"> &lt; my_pointer_size &gt;</text>
</g>
<!-- Node10&#45;&gt;Node3 -->
<g id="edge20" class="edge"><title>Node10&#45;&gt;Node3</title>
<path fill="none" stroke="orange" stroke-dasharray="5,2" d="M257.815,-176.469C244.307,-161.003 225.523,-139.498 214.379,-126.738"/>
<polygon fill="orange" stroke="orange" points="255.48,-179.116 264.694,-184.346 260.752,-174.512 255.48,-179.116"/>
<text text-anchor="middle" x="277.5" y="-156.5" font-family="Helvetica,sans-Serif" font-size="10.00"> &lt; raw_size &gt;</text>
</g>
</g>
</svg>
