<?xml version="1.0" encoding="UTF-8" standalone="no"?>
<!DOCTYPE svg PUBLIC "-//W3C//DTD SVG 1.1//EN"
 "http://www.w3.org/Graphics/SVG/1.1/DTD/svg11.dtd">
<!-- Generated by graphviz version 2.26.3 (20100126.1600)
 -->
<!-- Title: stxxl::sequence&lt; ValueType, BlockSize, AllocStr, SizeType &gt;::reverse_stream Pages: 1 -->
<svg width="3566pt" height="563pt"
 viewBox="0.00 0.00 3566.00 562.86" xmlns="http://www.w3.org/2000/svg" xmlns:xlink="http://www.w3.org/1999/xlink">
<g id="graph1" class="graph" transform="scale(1 1) rotate(0) translate(4 558.863)">
<title>stxxl::sequence&lt; ValueType, BlockSize, AllocStr, SizeType &gt;::reverse_stream</title>
<!-- Node1 -->
<g id="node1" class="node"><title>Node1</title>
<polygon fill="#bfbfbf" stroke="black" points="3406,-39.5 3406,-86.5 3558,-86.5 3558,-39.5 3406,-39.5"/>
<text text-anchor="start" x="3414" y="-73.5" font-family="Helvetica,sans-Serif" font-size="10.00">stxxl::sequence&lt; ValueType,</text>
<text text-anchor="start" x="3414" y="-60.5" font-family="Helvetica,sans-Serif" font-size="10.00"> BlockSize, AllocStr, SizeType</text>
<text text-anchor="middle" x="3482" y="-47.5" font-family="Helvetica,sans-Serif" font-size="10.00"> &gt;::reverse_stream</text>
</g>
<!-- Node2 -->
<g id="node2" class="node"><title>Node2</title>
<a xlink:href="classstxxl_1_1sequence.html" target="_top" xlink:title="External sequence or deque container without random access. &#160;&#160;Introduction &#160;to sequence container: se...">
<polygon fill="none" stroke="black" points="3148.5,-290 3148.5,-324 3309.5,-324 3309.5,-290 3148.5,-290"/>
<text text-anchor="start" x="3156.5" y="-311" font-family="Helvetica,sans-Serif" font-size="10.00">stxxl::sequence&lt; ValueType,</text>
<text text-anchor="middle" x="3229" y="-298" font-family="Helvetica,sans-Serif" font-size="10.00"> BlockSize, AllocStr, SizeType &gt;</text>
</a>
</g>
<!-- Node2&#45;&gt;Node1 -->
<g id="edge2" class="edge"><title>Node2&#45;&gt;Node1</title>
<path fill="none" stroke="#9a32cd" stroke-dasharray="5,2" d="M3254.07,-282.818C3302.66,-235.96 3409.08,-133.321 3457.34,-86.7825"/>
<polygon fill="#9a32cd" stroke="#9a32cd" points="3251.56,-280.381 3246.79,-289.842 3256.42,-285.42 3251.56,-280.381"/>
<text text-anchor="middle" x="3358" y="-210" font-family="Helvetica,sans-Serif" font-size="10.00"> m_sequence</text>
</g>
<!-- Node3 -->
<g id="node4" class="node"><title>Node3</title>
<a xlink:href="classstxxl_1_1noncopyable.html" target="_top" xlink:title="stxxl::noncopyable">
<polygon fill="none" stroke="black" points="20,-371.5 20,-392.5 118,-392.5 118,-371.5 20,-371.5"/>
<text text-anchor="middle" x="69" y="-379.5" font-family="Helvetica,sans-Serif" font-size="10.00">stxxl::noncopyable</text>
</a>
</g>
<!-- Node3&#45;&gt;Node2 -->
<g id="edge4" class="edge"><title>Node3&#45;&gt;Node2</title>
<path fill="none" stroke="#8b1a1a" d="M126.387,-394.564C183.528,-405.964 273.89,-421 353,-421 353,-421 353,-421 749,-421 877.669,-421 907.331,-459 1036,-459 1036,-459 1036,-459 2983,-459 3084.66,-459 3179.42,-363.893 3214.58,-324.141"/>
<polygon fill="#8b1a1a" stroke="#8b1a1a" points="126.96,-391.109 116.464,-392.554 125.57,-397.97 126.96,-391.109"/>
</g>
<!-- Node4 -->
<g id="node6" class="node"><title>Node4</title>
<a xlink:href="classstxxl_1_1read__write__pool.html" target="_top" xlink:title="Implements dynamically resizable buffered writing and prefetched reading pool. ">
<polygon fill="none" stroke="black" points="800,-188 800,-222 912,-222 912,-188 800,-188"/>
<text text-anchor="start" x="808" y="-209" font-family="Helvetica,sans-Serif" font-size="10.00">stxxl::read_write_pool</text>
<text text-anchor="middle" x="856" y="-196" font-family="Helvetica,sans-Serif" font-size="10.00">&lt; BlockType &gt;</text>
</a>
</g>
<!-- Node3&#45;&gt;Node4 -->
<g id="edge8" class="edge"><title>Node3&#45;&gt;Node4</title>
<path fill="none" stroke="#8b1a1a" d="M82.35,-363.259C97.8015,-342.947 125.116,-311.03 156,-293 205.25,-264.247 224.389,-272.638 280,-260 352.335,-243.561 370.376,-238.065 444,-229 570.58,-213.416 720.32,-207.9 799.817,-205.986"/>
<polygon fill="#8b1a1a" stroke="#8b1a1a" points="79.4365,-361.312 76.2966,-371.431 85.0614,-365.479 79.4365,-361.312"/>
</g>
<!-- Node5 -->
<g id="node9" class="node"><title>Node5</title>
<a xlink:href="classstxxl_1_1prefetch__pool.html" target="_top" xlink:title="Implements dynamically resizable prefetching pool. ">
<polygon fill="none" stroke="black" points="589,-109 589,-143 691,-143 691,-109 589,-109"/>
<text text-anchor="start" x="597" y="-130" font-family="Helvetica,sans-Serif" font-size="10.00">stxxl::prefetch_pool</text>
<text text-anchor="middle" x="640" y="-117" font-family="Helvetica,sans-Serif" font-size="10.00">&lt; BlockType &gt;</text>
</a>
</g>
<!-- Node3&#45;&gt;Node5 -->
<g id="edge12" class="edge"><title>Node3&#45;&gt;Node5</title>
<path fill="none" stroke="#8b1a1a" d="M71.8712,-361.094C78.5887,-320.894 99.2988,-233.079 156,-191 190.339,-165.516 471.156,-139.829 588.632,-130.087"/>
<polygon fill="#8b1a1a" stroke="#8b1a1a" points="68.3944,-360.676 70.3293,-371.092 75.3126,-361.743 68.3944,-360.676"/>
</g>
<!-- Node10 -->
<g id="node20" class="node"><title>Node10</title>
<a xlink:href="classstxxl_1_1write__pool.html" target="_top" xlink:title="Implements dynamically resizable buffered writing pool. ">
<polygon fill="none" stroke="black" points="457,-238 457,-272 551,-272 551,-238 457,-238"/>
<text text-anchor="start" x="465" y="-259" font-family="Helvetica,sans-Serif" font-size="10.00">stxxl::write_pool&lt;</text>
<text text-anchor="middle" x="504" y="-246" font-family="Helvetica,sans-Serif" font-size="10.00"> BlockType &gt;</text>
</a>
</g>
<!-- Node3&#45;&gt;Node10 -->
<g id="edge24" class="edge"><title>Node3&#45;&gt;Node10</title>
<path fill="none" stroke="#8b1a1a" d="M91.5971,-365.287C108.532,-353.515 132.703,-338.26 156,-329 259.032,-288.046 388.669,-268.142 456.947,-259.904"/>
<polygon fill="#8b1a1a" stroke="#8b1a1a" points="89.1082,-362.762 82.9851,-371.408 93.1636,-368.467 89.1082,-362.762"/>
</g>
<!-- Node12 -->
<g id="node25" class="node"><title>Node12</title>
<a xlink:href="classstxxl_1_1singleton.html" target="_top" xlink:title="stxxl::singleton\&lt; block\l_manager \&gt;">
<polygon fill="none" stroke="black" points="582.5,-487 582.5,-521 697.5,-521 697.5,-487 582.5,-487"/>
<text text-anchor="start" x="590.5" y="-508" font-family="Helvetica,sans-Serif" font-size="10.00">stxxl::singleton&lt; block</text>
<text text-anchor="middle" x="640" y="-495" font-family="Helvetica,sans-Serif" font-size="10.00">_manager &gt;</text>
</a>
</g>
<!-- Node3&#45;&gt;Node12 -->
<g id="edge30" class="edge"><title>Node3&#45;&gt;Node12</title>
<path fill="none" stroke="#8b1a1a" d="M77.8733,-401.705C90.9907,-428.5 118.152,-475.952 156,-501 289.14,-589.112 491.258,-548.085 586.626,-521.074"/>
<polygon fill="#8b1a1a" stroke="#8b1a1a" points="80.9777,-400.082 73.5405,-392.537 74.6489,-403.073 80.9777,-400.082"/>
</g>
<!-- Node13 -->
<g id="node28" class="node"><title>Node13</title>
<a xlink:href="classstxxl_1_1singleton.html" target="_top" xlink:title="stxxl::singleton\&lt; INSTANCE,\l destroy_on_exit \&gt;">
<polygon fill="none" stroke="black" points="280,-487 280,-521 426,-521 426,-487 280,-487"/>
<text text-anchor="start" x="288" y="-508" font-family="Helvetica,sans-Serif" font-size="10.00">stxxl::singleton&lt; INSTANCE,</text>
<text text-anchor="middle" x="353" y="-495" font-family="Helvetica,sans-Serif" font-size="10.00"> destroy_on_exit &gt;</text>
</a>
</g>
<!-- Node3&#45;&gt;Node13 -->
<g id="edge34" class="edge"><title>Node3&#45;&gt;Node13</title>
<path fill="none" stroke="#8b1a1a" d="M81.4397,-401.118C96.407,-422.41 123.608,-456.055 156,-473 193.888,-492.82 241.067,-500.731 279.757,-503.611"/>
<polygon fill="#8b1a1a" stroke="#8b1a1a" points="84.1422,-398.868 75.6216,-392.571 78.3557,-402.807 84.1422,-398.868"/>
</g>
<!-- Node14 -->
<g id="node31" class="node"><title>Node14</title>
<a xlink:href="classstxxl_1_1file.html" target="_top" xlink:title="Defines interface of file. ">
<polygon fill="none" stroke="black" points="828,-308.5 828,-329.5 884,-329.5 884,-308.5 828,-308.5"/>
<text text-anchor="middle" x="856" y="-316.5" font-family="Helvetica,sans-Serif" font-size="10.00">stxxl::file</text>
</a>
</g>
<!-- Node3&#45;&gt;Node14 -->
<g id="edge38" class="edge"><title>Node3&#45;&gt;Node14</title>
<path fill="none" stroke="#8b1a1a" d="M128.536,-375.926C170.782,-371.722 228.839,-366.157 280,-362 502.888,-343.892 559.372,-349.062 782,-328 797.204,-326.562 814.114,-324.537 827.927,-322.772"/>
<polygon fill="#8b1a1a" stroke="#8b1a1a" points="128.024,-372.46 118.421,-376.937 128.72,-379.425 128.024,-372.46"/>
</g>
<!-- Node16 -->
<g id="node36" class="node"><title>Node16</title>
<a xlink:href="classstxxl_1_1mutex.html" target="_top" xlink:title="stxxl::mutex">
<polygon fill="none" stroke="black" points="317.5,-371.5 317.5,-392.5 388.5,-392.5 388.5,-371.5 317.5,-371.5"/>
<text text-anchor="middle" x="353" y="-379.5" font-family="Helvetica,sans-Serif" font-size="10.00">stxxl::mutex</text>
</a>
</g>
<!-- Node3&#45;&gt;Node16 -->
<g id="edge44" class="edge"><title>Node3&#45;&gt;Node16</title>
<path fill="none" stroke="#8b1a1a" d="M128.484,-382C185.639,-382 270.105,-382 317.466,-382"/>
<polygon fill="#8b1a1a" stroke="#8b1a1a" points="128.145,-378.5 118.145,-382 128.145,-385.5 128.145,-378.5"/>
</g>
<!-- Node17 -->
<g id="node40" class="node"><title>Node17</title>
<a xlink:href="classstxxl_1_1disk__allocator.html" target="_top" xlink:title="stxxl::disk_allocator">
<polygon fill="none" stroke="black" points="984,-372.5 984,-393.5 1088,-393.5 1088,-372.5 984,-372.5"/>
<text text-anchor="middle" x="1036" y="-380.5" font-family="Helvetica,sans-Serif" font-size="10.00">stxxl::disk_allocator</text>
</a>
</g>
<!-- Node3&#45;&gt;Node17 -->
<g id="edge50" class="edge"><title>Node3&#45;&gt;Node17</title>
<path fill="none" stroke="#8b1a1a" d="M90.3029,-398.567C107.16,-410.754 131.813,-426.602 156,-435 239.323,-463.931 264.797,-459 353,-459 353,-459 353,-459 749,-459 850.026,-459 964.59,-414.45 1012.74,-393.567"/>
<polygon fill="#8b1a1a" stroke="#8b1a1a" points="92.3586,-395.734 82.242,-392.586 88.1877,-401.355 92.3586,-395.734"/>
</g>
<!-- Node4&#45;&gt;Node2 -->
<g id="edge6" class="edge"><title>Node4&#45;&gt;Node2</title>
<path fill="none" stroke="#9a32cd" stroke-dasharray="5,2" d="M922.209,-190.603C1017.52,-173.583 1195.78,-155.898 1322,-228 1358.5,-248.849 1337.41,-286.307 1374,-307 1516.48,-387.581 1946.31,-337 2110,-337 2110,-337 2110,-337 2983,-337 3038.5,-337 3100.53,-329.382 3148.42,-321.824"/>
<polygon fill="#9a32cd" stroke="#9a32cd" points="921.33,-187.206 912.127,-192.457 922.595,-194.091 921.33,-187.206"/>
<text text-anchor="middle" x="1966" y="-350" font-family="Helvetica,sans-Serif" font-size="10.00"> m_pool</text>
</g>
<!-- Node5&#45;&gt;Node4 -->
<g id="edge10" class="edge"><title>Node5&#45;&gt;Node4</title>
<path fill="none" stroke="#9a32cd" stroke-dasharray="5,2" d="M696.261,-146.577C731.47,-159.454 776.285,-175.845 809.481,-187.986"/>
<polygon fill="#9a32cd" stroke="#9a32cd" points="697.197,-143.192 686.603,-143.045 694.792,-149.767 697.197,-143.192"/>
<text text-anchor="middle" x="749" y="-181" font-family="Helvetica,sans-Serif" font-size="10.00"> p_pool</text>
</g>
<!-- Node6 -->
<g id="node12" class="node"><title>Node6</title>
<a xlink:href="structstxxl_1_1choose__int__types.html" target="_top" xlink:title="stxxl::choose_int_types\l\&lt; my_pointer_size \&gt;">
<polygon fill="none" stroke="black" points="293,-82 293,-116 413,-116 413,-82 293,-82"/>
<text text-anchor="start" x="301" y="-103" font-family="Helvetica,sans-Serif" font-size="10.00">stxxl::choose_int_types</text>
<text text-anchor="middle" x="353" y="-90" font-family="Helvetica,sans-Serif" font-size="10.00">&lt; my_pointer_size &gt;</text>
</a>
</g>
<!-- Node6&#45;&gt;Node2 -->
<g id="edge56" class="edge"><title>Node6&#45;&gt;Node2</title>
<path fill="none" stroke="#9a32cd" stroke-dasharray="5,2" d="M418.843,-77.273C421.306,-75.9207 423.701,-74.4971 426,-73 435.747,-66.6517 434.027,-59.9868 444,-54 521.471,-7.49555 549.643,-0 640,-0 640,-0 640,-0 2983,-0 3057.79,-0 3184.65,-224.671 3219.76,-289.615"/>
<polygon fill="#9a32cd" stroke="#9a32cd" points="417.059,-74.2519 409.687,-81.8613 420.196,-80.51 417.059,-74.2519"/>
<text text-anchor="middle" x="1759" y="-17" font-family="Helvetica,sans-Serif" font-size="10.00"> m_blocks2prefetch</text>
<text text-anchor="middle" x="1759" y="-4" font-family="Helvetica,sans-Serif" font-size="10.00">m_alloc_count</text>
</g>
<!-- Node6&#45;&gt;Node5 -->
<g id="edge14" class="edge"><title>Node6&#45;&gt;Node5</title>
<path fill="none" stroke="#9a32cd" stroke-dasharray="5,2" d="M423.252,-104.413C464.317,-107.722 517.132,-112.227 564,-117 572.063,-117.821 580.599,-118.762 588.924,-119.719"/>
<polygon fill="#9a32cd" stroke="#9a32cd" points="423.323,-100.908 413.076,-103.598 422.764,-107.886 423.323,-100.908"/>
<text text-anchor="middle" x="504" y="-121" font-family="Helvetica,sans-Serif" font-size="10.00"> free_blocks_size</text>
</g>
<!-- Node15 -->
<g id="node34" class="node"><title>Node15</title>
<a xlink:href="classstxxl_1_1atomic__counted__object.html" target="_top" xlink:title="Provides reference counting abilities for use with counting_ptr with mutex locking. ">
<polygon fill="none" stroke="black" points="583.5,-282 583.5,-316 696.5,-316 696.5,-282 583.5,-282"/>
<text text-anchor="start" x="591.5" y="-303" font-family="Helvetica,sans-Serif" font-size="10.00">stxxl::atomic_counted</text>
<text text-anchor="middle" x="640" y="-290" font-family="Helvetica,sans-Serif" font-size="10.00">_object</text>
</a>
</g>
<!-- Node6&#45;&gt;Node15 -->
<g id="edge46" class="edge"><title>Node6&#45;&gt;Node15</title>
<path fill="none" stroke="#9a32cd" stroke-dasharray="5,2" d="M400.531,-120.442C455.406,-146.014 541.073,-188.718 564,-216 579.734,-234.723 566.122,-249.399 582,-268 586.596,-273.384 592.368,-277.978 598.476,-281.85"/>
<polygon fill="#9a32cd" stroke="#9a32cd" points="401.88,-117.209 391.335,-116.182 398.938,-123.561 401.88,-117.209"/>
<text text-anchor="middle" x="504" y="-220" font-family="Helvetica,sans-Serif" font-size="10.00"> m_reference_count</text>
</g>
<!-- Node7 -->
<g id="node14" class="node"><title>Node7</title>
<a xlink:href="structstxxl_1_1choose__int__types.html" target="_top" xlink:title="stxxl::choose_int_types\l\&lt; PtrSize \&gt;">
<polygon fill="none" stroke="black" points="9,-82 9,-116 129,-116 129,-82 9,-82"/>
<text text-anchor="start" x="17" y="-103" font-family="Helvetica,sans-Serif" font-size="10.00">stxxl::choose_int_types</text>
<text text-anchor="middle" x="69" y="-90" font-family="Helvetica,sans-Serif" font-size="10.00">&lt; PtrSize &gt;</text>
</a>
</g>
<!-- Node7&#45;&gt;Node6 -->
<g id="edge16" class="edge"><title>Node7&#45;&gt;Node6</title>
<path fill="none" stroke="orange" stroke-dasharray="5,2" d="M139.368,-99C186.531,-99 247.978,-99 292.858,-99"/>
<polygon fill="orange" stroke="orange" points="139.229,-95.5001 129.229,-99 139.229,-102.5 139.229,-95.5001"/>
<text text-anchor="middle" x="209" y="-103" font-family="Helvetica,sans-Serif" font-size="10.00"> &lt; my_pointer_size &gt;</text>
</g>
<!-- Node8 -->
<g id="node16" class="node"><title>Node8</title>
<a xlink:href="structstxxl_1_1compat__hash__map.html" target="_top" xlink:title="stxxl::compat_hash\l_map\&lt; bid_type, busy\l_entry, bid_hash \&gt;">
<polygon fill="none" stroke="black" points="296.5,-16.5 296.5,-63.5 409.5,-63.5 409.5,-16.5 296.5,-16.5"/>
<text text-anchor="start" x="304.5" y="-50.5" font-family="Helvetica,sans-Serif" font-size="10.00">stxxl::compat_hash</text>
<text text-anchor="start" x="304.5" y="-37.5" font-family="Helvetica,sans-Serif" font-size="10.00">_map&lt; bid_type, busy</text>
<text text-anchor="middle" x="353" y="-24.5" font-family="Helvetica,sans-Serif" font-size="10.00">_entry, bid_hash &gt;</text>
</a>
</g>
<!-- Node8&#45;&gt;Node5 -->
<g id="edge18" class="edge"><title>Node8&#45;&gt;Node5</title>
<path fill="none" stroke="#9a32cd" stroke-dasharray="5,2" d="M419.745,-52.0818C461.774,-60.6004 516.809,-73.438 564,-90 578.74,-95.1732 594.436,-102.311 607.713,-108.867"/>
<polygon fill="#9a32cd" stroke="#9a32cd" points="420.39,-48.6416 409.898,-50.1166 419.02,-55.5062 420.39,-48.6416"/>
<text text-anchor="middle" x="504" y="-94" font-family="Helvetica,sans-Serif" font-size="10.00"> busy_blocks</text>
</g>
<!-- Node9 -->
<g id="node18" class="node"><title>Node9</title>
<a xlink:href="structstxxl_1_1compat__hash__map.html" target="_top" xlink:title="stxxl::compat_hash\l_map\&lt; _Key, _Tp, _Hash \&gt;">
<polygon fill="none" stroke="black" points="0,-23 0,-57 138,-57 138,-23 0,-23"/>
<text text-anchor="start" x="8" y="-44" font-family="Helvetica,sans-Serif" font-size="10.00">stxxl::compat_hash</text>
<text text-anchor="middle" x="69" y="-31" font-family="Helvetica,sans-Serif" font-size="10.00">_map&lt; _Key, _Tp, _Hash &gt;</text>
</a>
</g>
<!-- Node9&#45;&gt;Node8 -->
<g id="edge20" class="edge"><title>Node9&#45;&gt;Node8</title>
<path fill="none" stroke="orange" stroke-dasharray="5,2" d="M148.286,-40C195.405,-40 254.053,-40 296.482,-40"/>
<polygon fill="orange" stroke="orange" points="148.111,-36.5001 138.111,-40 148.111,-43.5001 148.111,-36.5001"/>
<text text-anchor="start" x="156" y="-57" font-family="Helvetica,sans-Serif" font-size="10.00"> &lt; bid_type, busy_entry,</text>
<text text-anchor="middle" x="209" y="-44" font-family="Helvetica,sans-Serif" font-size="10.00"> bid_hash &gt;</text>
</g>
<!-- Node10&#45;&gt;Node4 -->
<g id="edge22" class="edge"><title>Node10&#45;&gt;Node4</title>
<path fill="none" stroke="#9a32cd" stroke-dasharray="5,2" d="M561.476,-248.547C617.79,-241.991 705.988,-231.102 782,-219 787.811,-218.075 793.865,-217.042 799.898,-215.969"/>
<polygon fill="#9a32cd" stroke="#9a32cd" points="560.873,-245.093 551.342,-249.72 561.678,-252.047 560.873,-245.093"/>
<text text-anchor="middle" x="640" y="-249" font-family="Helvetica,sans-Serif" font-size="10.00"> w_pool</text>
</g>
<!-- Node11 -->
<g id="node23" class="node"><title>Node11</title>
<a xlink:href="classstxxl_1_1block__manager.html" target="_top" xlink:title="Block manager class. ">
<polygon fill="none" stroke="black" points="1203,-372.5 1203,-393.5 1313,-393.5 1313,-372.5 1203,-372.5"/>
<text text-anchor="middle" x="1258" y="-380.5" font-family="Helvetica,sans-Serif" font-size="10.00">stxxl::block_manager</text>
</a>
</g>
<!-- Node11&#45;&gt;Node2 -->
<g id="edge26" class="edge"><title>Node11&#45;&gt;Node2</title>
<path fill="none" stroke="#9a32cd" stroke-dasharray="5,2" d="M1323.43,-383C1361.29,-383 1409.83,-383 1453,-383 1453,-383 1453,-383 2983,-383 3062.34,-383 3149.92,-346.463 3196.17,-324.056"/>
<polygon fill="#9a32cd" stroke="#9a32cd" points="1323.05,-379.5 1313.05,-383 1323.05,-386.5 1323.05,-379.5"/>
<text text-anchor="middle" x="2256" y="-387" font-family="Helvetica,sans-Serif" font-size="10.00"> m_bm</text>
</g>
<!-- Node12&#45;&gt;Node11 -->
<g id="edge28" class="edge"><title>Node12&#45;&gt;Node11</title>
<path fill="none" stroke="midnightblue" d="M707.684,-498.955C762.957,-494.196 842.939,-485.851 912,-473 1027.94,-451.426 1162.37,-412.3 1223.98,-393.56"/>
<polygon fill="midnightblue" stroke="midnightblue" points="707.329,-495.472 697.659,-499.802 707.918,-502.448 707.329,-495.472"/>
</g>
<!-- Node13&#45;&gt;Node12 -->
<g id="edge32" class="edge"><title>Node13&#45;&gt;Node12</title>
<path fill="none" stroke="orange" stroke-dasharray="5,2" d="M436.299,-504C483.153,-504 540.464,-504 582.347,-504"/>
<polygon fill="orange" stroke="orange" points="436.165,-500.5 426.165,-504 436.165,-507.5 436.165,-500.5"/>
<text text-anchor="middle" x="504" y="-508" font-family="Helvetica,sans-Serif" font-size="10.00"> &lt; block_manager &gt;</text>
</g>
<!-- Node14&#45;&gt;Node11 -->
<g id="edge36" class="edge"><title>Node14&#45;&gt;Node11</title>
<path fill="none" stroke="#9a32cd" stroke-dasharray="5,2" d="M894.435,-323.433C940.536,-328.912 1020.1,-338.884 1088,-350 1128.5,-356.631 1174.14,-365.572 1207.93,-372.476"/>
<polygon fill="#9a32cd" stroke="#9a32cd" points="894.634,-319.932 884.293,-322.236 893.813,-326.884 894.634,-319.932"/>
<text text-anchor="middle" x="1036" y="-354" font-family="Helvetica,sans-Serif" font-size="10.00"> disk_files</text>
</g>
<!-- Node14&#45;&gt;Node17 -->
<g id="edge52" class="edge"><title>Node14&#45;&gt;Node17</title>
<path fill="none" stroke="#9a32cd" stroke-dasharray="5,2" d="M893.795,-331.261C915.083,-338.28 942.112,-347.38 966,-356 980.458,-361.217 996.46,-367.361 1009.51,-372.469"/>
<polygon fill="#9a32cd" stroke="#9a32cd" points="894.741,-327.888 884.148,-328.093 892.557,-334.538 894.741,-327.888"/>
<text text-anchor="middle" x="948" y="-360" font-family="Helvetica,sans-Serif" font-size="10.00"> storage</text>
</g>
<!-- Node24 -->
<g id="node58" class="node"><title>Node24</title>
<a xlink:href="structstxxl_1_1BID.html" target="_top" xlink:title="stxxl::BID\&lt; raw_size \&gt;">
<polygon fill="none" stroke="black" points="1199,-237.5 1199,-258.5 1317,-258.5 1317,-237.5 1199,-237.5"/>
<text text-anchor="middle" x="1258" y="-245.5" font-family="Helvetica,sans-Serif" font-size="10.00">stxxl::BID&lt; raw_size &gt;</text>
</a>
</g>
<!-- Node14&#45;&gt;Node24 -->
<g id="edge72" class="edge"><title>Node14&#45;&gt;Node24</title>
<path fill="none" stroke="#9a32cd" stroke-dasharray="5,2" d="M882.323,-303.159C907.455,-288.951 946.888,-268.997 984,-260 1056.42,-242.443 1142.69,-241.868 1198.82,-244.073"/>
<polygon fill="#9a32cd" stroke="#9a32cd" points="880.341,-300.262 873.426,-308.289 883.837,-306.326 880.341,-300.262"/>
<text text-anchor="middle" x="1036" y="-264" font-family="Helvetica,sans-Serif" font-size="10.00"> storage</text>
</g>
<!-- Node25 -->
<g id="node61" class="node"><title>Node25</title>
<a xlink:href="structstxxl_1_1BID.html" target="_top" xlink:title="Block identifier class. ">
<polygon fill="none" stroke="black" points="985.5,-282.5 985.5,-303.5 1086.5,-303.5 1086.5,-282.5 985.5,-282.5"/>
<text text-anchor="middle" x="1036" y="-290.5" font-family="Helvetica,sans-Serif" font-size="10.00">stxxl::BID&lt; SIZE &gt;</text>
</a>
</g>
<!-- Node14&#45;&gt;Node25 -->
<g id="edge76" class="edge"><title>Node14&#45;&gt;Node25</title>
<path fill="none" stroke="#9a32cd" stroke-dasharray="5,2" d="M891.859,-305.021C903.805,-301.001 917.305,-297.13 930,-295 947.88,-292 967.694,-291.012 985.306,-290.933"/>
<polygon fill="#9a32cd" stroke="#9a32cd" points="890.518,-301.782 882.243,-308.398 892.837,-308.387 890.518,-301.782"/>
<text text-anchor="middle" x="948" y="-299" font-family="Helvetica,sans-Serif" font-size="10.00"> storage</text>
</g>
<!-- Node15&#45;&gt;Node14 -->
<g id="edge40" class="edge"><title>Node15&#45;&gt;Node14</title>
<path fill="none" stroke="#9a32cd" stroke-dasharray="5,2" d="M706.885,-305.193C747.59,-308.962 797.454,-313.579 827.962,-316.404"/>
<polygon fill="#9a32cd" stroke="#9a32cd" points="707.032,-301.692 696.751,-304.255 706.386,-308.662 707.032,-301.692"/>
<text text-anchor="middle" x="749" y="-315" font-family="Helvetica,sans-Serif" font-size="10.00"> m_request_ref</text>
</g>
<!-- Node16&#45;&gt;Node15 -->
<g id="edge42" class="edge"><title>Node16&#45;&gt;Node15</title>
<path fill="none" stroke="#9a32cd" stroke-dasharray="5,2" d="M398.682,-368.789C448.831,-354.286 529.396,-330.987 583.484,-315.344"/>
<polygon fill="#9a32cd" stroke="#9a32cd" points="397.402,-365.515 388.768,-371.656 399.347,-372.24 397.402,-365.515"/>
<text text-anchor="middle" x="504" y="-359" font-family="Helvetica,sans-Serif" font-size="10.00"> m_reference_count_mutex</text>
</g>
<!-- Node16&#45;&gt;Node17 -->
<g id="edge54" class="edge"><title>Node16&#45;&gt;Node17</title>
<path fill="none" stroke="#9a32cd" stroke-dasharray="5,2" d="M398.901,-382.067C521.151,-382.246 854.11,-382.734 983.547,-382.923"/>
<polygon fill="#9a32cd" stroke="#9a32cd" points="398.765,-378.567 388.759,-382.052 398.754,-385.567 398.765,-378.567"/>
<text text-anchor="middle" x="749" y="-386" font-family="Helvetica,sans-Serif" font-size="10.00"> mutex</text>
</g>
<!-- Node17&#45;&gt;Node11 -->
<g id="edge48" class="edge"><title>Node17&#45;&gt;Node11</title>
<path fill="none" stroke="#9a32cd" stroke-dasharray="5,2" d="M1098.44,-383C1131.25,-383 1171.11,-383 1202.79,-383"/>
<polygon fill="#9a32cd" stroke="#9a32cd" points="1098.05,-379.5 1088.05,-383 1098.05,-386.5 1098.05,-379.5"/>
<text text-anchor="middle" x="1141" y="-387" font-family="Helvetica,sans-Serif" font-size="10.00"> disk_allocators</text>
</g>
<!-- Node18 -->
<g id="node46" class="node"><title>Node18</title>
<a xlink:href="classstxxl_1_1typed__block.html" target="_top" xlink:title="Block containing elements of fixed length. ">
<polygon fill="none" stroke="black" points="2920.5,-165.5 2920.5,-212.5 3045.5,-212.5 3045.5,-165.5 2920.5,-165.5"/>
<text text-anchor="start" x="2928.5" y="-199.5" font-family="Helvetica,sans-Serif" font-size="10.00">stxxl::typed_block</text>
<text text-anchor="start" x="2928.5" y="-186.5" font-family="Helvetica,sans-Serif" font-size="10.00">&lt; RawSize, Type, NRef,</text>
<text text-anchor="middle" x="2983" y="-173.5" font-family="Helvetica,sans-Serif" font-size="10.00"> MetaInfoType &gt;</text>
</a>
</g>
<!-- Node18&#45;&gt;Node1 -->
<g id="edge104" class="edge"><title>Node18&#45;&gt;Node1</title>
<path fill="none" stroke="#9a32cd" stroke-dasharray="5,2" d="M3055.63,-170.661C3149.04,-147.075 3310.54,-106.295 3405.69,-82.2675"/>
<polygon fill="#9a32cd" stroke="#9a32cd" points="3054.53,-167.328 3045.69,-173.17 3056.25,-174.115 3054.53,-167.328"/>
<text text-anchor="middle" x="3229" y="-151" font-family="Helvetica,sans-Serif" font-size="10.00"> m_current_block</text>
</g>
<!-- Node18&#45;&gt;Node2 -->
<g id="edge58" class="edge"><title>Node18&#45;&gt;Node2</title>
<path fill="none" stroke="#9a32cd" stroke-dasharray="5,2" d="M3041.39,-217.009C3088.64,-239.675 3153.66,-270.862 3193.43,-289.938"/>
<polygon fill="#9a32cd" stroke="#9a32cd" points="3042.72,-213.765 3032.19,-212.595 3039.69,-220.076 3042.72,-213.765"/>
<text text-anchor="middle" x="3097" y="-275" font-family="Helvetica,sans-Serif" font-size="10.00"> m_front_block</text>
<text text-anchor="middle" x="3097" y="-262" font-family="Helvetica,sans-Serif" font-size="10.00">m_back_block</text>
</g>
<!-- Node19 -->
<g id="node48" class="node"><title>Node19</title>
<a xlink:href="classstxxl_1_1mng__local_1_1expand__struct.html" target="_top" xlink:title="stxxl::mng_local::expand\l_struct\&lt; mng_local::block\l_w_info\&lt; Type, RawSize, NRef,\l MetaInfoType \&gt;, RawSize \&gt;">
<polygon fill="none" stroke="black" points="2722.5,-159 2722.5,-219 2881.5,-219 2881.5,-159 2722.5,-159"/>
<text text-anchor="start" x="2730.5" y="-206" font-family="Helvetica,sans-Serif" font-size="10.00">stxxl::mng_local::expand</text>
<text text-anchor="start" x="2730.5" y="-193" font-family="Helvetica,sans-Serif" font-size="10.00">_struct&lt; mng_local::block</text>
<text text-anchor="start" x="2730.5" y="-180" font-family="Helvetica,sans-Serif" font-size="10.00">_w_info&lt; Type, RawSize, NRef,</text>
<text text-anchor="middle" x="2802" y="-167" font-family="Helvetica,sans-Serif" font-size="10.00"> MetaInfoType &gt;, RawSize &gt;</text>
</a>
</g>
<!-- Node19&#45;&gt;Node18 -->
<g id="edge60" class="edge"><title>Node19&#45;&gt;Node18</title>
<path fill="none" stroke="midnightblue" d="M2891.74,-189C2901.45,-189 2911.17,-189 2920.45,-189"/>
<polygon fill="midnightblue" stroke="midnightblue" points="2891.65,-185.5 2881.65,-189 2891.65,-192.5 2891.65,-185.5"/>
</g>
<!-- Node20 -->
<g id="node50" class="node"><title>Node20</title>
<a xlink:href="classstxxl_1_1mng__local_1_1add__filler.html" target="_top" xlink:title="stxxl::mng_local::add\l_filler\&lt; mng_local::block\l_w_info\&lt; Type, RawSize,\l NRef, MetaInfoType \&gt;, RawSize\l&#45;sizeof(mng_local::block_w_info\l\&lt; Type, RawSize, NRef, MetaInfoType \&gt;)\&gt;">
<polygon fill="none" stroke="black" points="2366,-99 2366,-185 2572,-185 2572,-99 2366,-99"/>
<text text-anchor="start" x="2374" y="-172" font-family="Helvetica,sans-Serif" font-size="10.00">stxxl::mng_local::add</text>
<text text-anchor="start" x="2374" y="-159" font-family="Helvetica,sans-Serif" font-size="10.00">_filler&lt; mng_local::block</text>
<text text-anchor="start" x="2374" y="-146" font-family="Helvetica,sans-Serif" font-size="10.00">_w_info&lt; Type, RawSize,</text>
<text text-anchor="start" x="2374" y="-133" font-family="Helvetica,sans-Serif" font-size="10.00"> NRef, MetaInfoType &gt;, RawSize</text>
<text text-anchor="start" x="2374" y="-120" font-family="Helvetica,sans-Serif" font-size="10.00">&#45;sizeof(mng_local::block_w_info</text>
<text text-anchor="middle" x="2469" y="-107" font-family="Helvetica,sans-Serif" font-size="10.00">&lt; Type, RawSize, NRef, MetaInfoType &gt;)&gt;</text>
</a>
</g>
<!-- Node20&#45;&gt;Node19 -->
<g id="edge62" class="edge"><title>Node20&#45;&gt;Node19</title>
<path fill="none" stroke="midnightblue" d="M2582.12,-157.967C2628.22,-164.472 2680.42,-171.84 2722.39,-177.763"/>
<polygon fill="midnightblue" stroke="midnightblue" points="2582.47,-154.481 2572.08,-156.549 2581.5,-161.413 2582.47,-154.481"/>
</g>
<!-- Node21 -->
<g id="node52" class="node"><title>Node21</title>
<a xlink:href="classstxxl_1_1mng__local_1_1block__w__info.html" target="_top" xlink:title="stxxl::mng_local::block\l_w_info\&lt; Type, RawSize,\l NRef, MetaInfoType \&gt;">
<polygon fill="none" stroke="black" points="2191,-43.5 2191,-90.5 2321,-90.5 2321,-43.5 2191,-43.5"/>
<text text-anchor="start" x="2199" y="-77.5" font-family="Helvetica,sans-Serif" font-size="10.00">stxxl::mng_local::block</text>
<text text-anchor="start" x="2199" y="-64.5" font-family="Helvetica,sans-Serif" font-size="10.00">_w_info&lt; Type, RawSize,</text>
<text text-anchor="middle" x="2256" y="-51.5" font-family="Helvetica,sans-Serif" font-size="10.00"> NRef, MetaInfoType &gt;</text>
</a>
</g>
<!-- Node21&#45;&gt;Node20 -->
<g id="edge64" class="edge"><title>Node21&#45;&gt;Node20</title>
<path fill="none" stroke="midnightblue" d="M2330.53,-93.2435C2341.97,-97.2709 2353.95,-101.489 2365.87,-105.688"/>
<polygon fill="midnightblue" stroke="midnightblue" points="2331.66,-89.93 2321.06,-89.91 2329.33,-96.5326 2331.66,-89.93"/>
</g>
<!-- Node22 -->
<g id="node54" class="node"><title>Node22</title>
<a xlink:href="classstxxl_1_1mng__local_1_1block__w__bids.html" target="_top" xlink:title="stxxl::mng_local::block\l_w_bids\&lt; Type,((RawSize\l&#45;sizeof(BID\&lt; RawSize \&gt;)*NBids\l&#45;sizeof(MetaInfoType))/sizeof\l(Type)), RawSize, NBids \&gt;">
<polygon fill="none" stroke="black" points="1680,-67.5 1680,-140.5 1838,-140.5 1838,-67.5 1680,-67.5"/>
<text text-anchor="start" x="1688" y="-127.5" font-family="Helvetica,sans-Serif" font-size="10.00">stxxl::mng_local::block</text>
<text text-anchor="start" x="1688" y="-114.5" font-family="Helvetica,sans-Serif" font-size="10.00">_w_bids&lt; Type,((RawSize</text>
<text text-anchor="start" x="1688" y="-101.5" font-family="Helvetica,sans-Serif" font-size="10.00">&#45;sizeof(BID&lt; RawSize &gt;)*NBids</text>
<text text-anchor="start" x="1688" y="-88.5" font-family="Helvetica,sans-Serif" font-size="10.00">&#45;sizeof(MetaInfoType))/sizeof</text>
<text text-anchor="middle" x="1759" y="-75.5" font-family="Helvetica,sans-Serif" font-size="10.00">(Type)), RawSize, NBids &gt;</text>
</a>
</g>
<!-- Node22&#45;&gt;Node21 -->
<g id="edge66" class="edge"><title>Node22&#45;&gt;Node21</title>
<path fill="none" stroke="midnightblue" d="M1848.36,-106.438C1931.14,-107.396 2057.5,-105.544 2166,-90 2174.14,-88.8336 2182.61,-87.2191 2190.96,-85.3814"/>
<polygon fill="midnightblue" stroke="midnightblue" points="1848.27,-102.937 1838.23,-106.305 1848.18,-109.937 1848.27,-102.937"/>
</g>
<!-- Node27 -->
<g id="node68" class="node"><title>Node27</title>
<a xlink:href="classstxxl_1_1mng__local_1_1block__w__info.html" target="_top" xlink:title="Contains per block information for stxxl::typed_block , not intended for direct use. ">
<polygon fill="none" stroke="black" points="1901,-28.5 1901,-75.5 2031,-75.5 2031,-28.5 1901,-28.5"/>
<text text-anchor="start" x="1909" y="-62.5" font-family="Helvetica,sans-Serif" font-size="10.00">stxxl::mng_local::block</text>
<text text-anchor="start" x="1909" y="-49.5" font-family="Helvetica,sans-Serif" font-size="10.00">_w_info&lt; Type, RawSize,</text>
<text text-anchor="middle" x="1966" y="-36.5" font-family="Helvetica,sans-Serif" font-size="10.00"> NBids, MetaInfoType &gt;</text>
</a>
</g>
<!-- Node22&#45;&gt;Node27 -->
<g id="edge86" class="edge"><title>Node22&#45;&gt;Node27</title>
<path fill="none" stroke="midnightblue" d="M1847.91,-81.664C1865.63,-77.2128 1883.93,-72.6154 1900.68,-68.4078"/>
<polygon fill="midnightblue" stroke="midnightblue" points="1846.99,-78.2875 1838.14,-84.1184 1848.7,-85.0765 1846.99,-78.2875"/>
</g>
<!-- Node23 -->
<g id="node56" class="node"><title>Node23</title>
<a xlink:href="classstxxl_1_1mng__local_1_1element__block.html" target="_top" xlink:title="Contains data elements for stxxl::typed_block , not intended for direct use. ">
<polygon fill="none" stroke="black" points="1194,-124 1194,-158 1322,-158 1322,-124 1194,-124"/>
<text text-anchor="start" x="1202" y="-145" font-family="Helvetica,sans-Serif" font-size="10.00">stxxl::mng_local::element</text>
<text text-anchor="middle" x="1258" y="-132" font-family="Helvetica,sans-Serif" font-size="10.00">_block&lt; Type, Size &gt;</text>
</a>
</g>
<!-- Node23&#45;&gt;Node22 -->
<g id="edge68" class="edge"><title>Node23&#45;&gt;Node22</title>
<path fill="none" stroke="midnightblue" d="M1308.97,-161.278C1319.1,-164.485 1329.77,-167.301 1340,-169 1481.18,-192.439 1525.08,-210.634 1662,-169 1681.2,-163.162 1700.06,-152.118 1715.96,-140.768"/>
<polygon fill="midnightblue" stroke="midnightblue" points="1310.05,-157.949 1299.45,-158.107 1307.83,-164.59 1310.05,-157.949"/>
</g>
<!-- Node26 -->
<g id="node64" class="node"><title>Node26</title>
<a xlink:href="classstxxl_1_1mng__local_1_1block__w__bids.html" target="_top" xlink:title="Contains BID references for stxxl::typed_block , not intended for direct use. ">
<polygon fill="none" stroke="black" points="1374,-98.5 1374,-145.5 1532,-145.5 1532,-98.5 1374,-98.5"/>
<text text-anchor="start" x="1382" y="-132.5" font-family="Helvetica,sans-Serif" font-size="10.00">stxxl::mng_local::block</text>
<text text-anchor="start" x="1382" y="-119.5" font-family="Helvetica,sans-Serif" font-size="10.00">_w_bids&lt; Type, Size, RawSize,</text>
<text text-anchor="middle" x="1453" y="-106.5" font-family="Helvetica,sans-Serif" font-size="10.00"> NBids &gt;</text>
</a>
</g>
<!-- Node23&#45;&gt;Node26 -->
<g id="edge80" class="edge"><title>Node23&#45;&gt;Node26</title>
<path fill="none" stroke="midnightblue" d="M1332.36,-133.755C1345.94,-132.432 1360.15,-131.047 1373.86,-129.711"/>
<polygon fill="midnightblue" stroke="midnightblue" points="1331.73,-130.299 1322.12,-134.752 1332.41,-137.266 1331.73,-130.299"/>
</g>
<!-- Node24&#45;&gt;Node22 -->
<g id="edge70" class="edge"><title>Node24&#45;&gt;Node22</title>
<path fill="none" stroke="#9a32cd" stroke-dasharray="5,2" d="M1327.44,-243.797C1426.87,-236.924 1604.2,-221.243 1662,-194 1688.18,-181.66 1712.09,-159.665 1729.62,-140.508"/>
<polygon fill="#9a32cd" stroke="#9a32cd" points="1326.92,-240.324 1317.18,-244.493 1327.4,-247.307 1326.92,-240.324"/>
<text text-anchor="middle" x="1453" y="-244" font-family="Helvetica,sans-Serif" font-size="10.00"> ref</text>
</g>
<!-- Node24&#45;&gt;Node26 -->
<g id="edge82" class="edge"><title>Node24&#45;&gt;Node26</title>
<path fill="none" stroke="#9a32cd" stroke-dasharray="5,2" d="M1283.1,-231.779C1317.01,-209.87 1377.67,-170.677 1416.58,-145.531"/>
<polygon fill="#9a32cd" stroke="#9a32cd" points="1280.79,-229.107 1274.29,-237.474 1284.59,-234.987 1280.79,-229.107"/>
<text text-anchor="middle" x="1348" y="-196" font-family="Helvetica,sans-Serif" font-size="10.00"> ref</text>
</g>
<!-- Node25&#45;&gt;Node24 -->
<g id="edge74" class="edge"><title>Node25&#45;&gt;Node24</title>
<path fill="none" stroke="orange" stroke-dasharray="5,2" d="M1096.5,-280.996C1121.17,-276.077 1149.96,-270.304 1176,-265 1186.11,-262.94 1196.93,-260.715 1207.27,-258.575"/>
<polygon fill="orange" stroke="orange" points="1095.69,-277.59 1086.56,-282.977 1097.05,-284.455 1095.69,-277.59"/>
<text text-anchor="middle" x="1141" y="-282" font-family="Helvetica,sans-Serif" font-size="10.00"> &lt; raw_size &gt;</text>
</g>
<!-- Node26&#45;&gt;Node22 -->
<g id="edge78" class="edge"><title>Node26&#45;&gt;Node22</title>
<path fill="none" stroke="orange" stroke-dasharray="5,2" d="M1542.3,-104.796C1544.89,-104.5 1547.46,-104.233 1550,-104 1592.82,-100.061 1640.78,-99.7686 1679.94,-100.591"/>
<polygon fill="orange" stroke="orange" points="1541.72,-101.342 1532.24,-106.072 1542.6,-108.287 1541.72,-101.342"/>
<text text-anchor="start" x="1550" y="-160" font-family="Helvetica,sans-Serif" font-size="10.00"> &lt; Type,((RawSize&#45;sizeof</text>
<text text-anchor="start" x="1550" y="-147" font-family="Helvetica,sans-Serif" font-size="10.00">(BID&lt; RawSize &gt;)*NBids</text>
<text text-anchor="start" x="1550" y="-134" font-family="Helvetica,sans-Serif" font-size="10.00">&#45;sizeof(MetaInfoType))</text>
<text text-anchor="start" x="1550" y="-121" font-family="Helvetica,sans-Serif" font-size="10.00">/sizeof(Type)), RawSize,</text>
<text text-anchor="middle" x="1606" y="-108" font-family="Helvetica,sans-Serif" font-size="10.00"> NBids &gt;</text>
</g>
<!-- Node27&#45;&gt;Node21 -->
<g id="edge84" class="edge"><title>Node27&#45;&gt;Node21</title>
<path fill="none" stroke="orange" stroke-dasharray="5,2" d="M2041.08,-55.8836C2087.49,-58.284 2146.46,-61.3341 2190.89,-63.632"/>
<polygon fill="orange" stroke="orange" points="2041.25,-52.3876 2031.08,-55.3663 2040.89,-59.3783 2041.25,-52.3876"/>
<text text-anchor="start" x="2054" y="-80" font-family="Helvetica,sans-Serif" font-size="10.00"> &lt; Type, RawSize, NRef,</text>
<text text-anchor="middle" x="2110" y="-67" font-family="Helvetica,sans-Serif" font-size="10.00"> MetaInfoType &gt;</text>
</g>
<!-- Node28 -->
<g id="node71" class="node"><title>Node28</title>
<a xlink:href="classstxxl_1_1mng__local_1_1filler__struct.html" target="_top" xlink:title="stxxl::mng_local::filler\l_struct\&lt; FillSize \&gt;">
<polygon fill="none" stroke="black" points="1703,-240 1703,-274 1815,-274 1815,-240 1703,-240"/>
<text text-anchor="start" x="1711" y="-261" font-family="Helvetica,sans-Serif" font-size="10.00">stxxl::mng_local::filler</text>
<text text-anchor="middle" x="1759" y="-248" font-family="Helvetica,sans-Serif" font-size="10.00">_struct&lt; FillSize &gt;</text>
</a>
</g>
<!-- Node28&#45;&gt;Node20 -->
<g id="edge88" class="edge"><title>Node28&#45;&gt;Node20</title>
<path fill="none" stroke="#9a32cd" stroke-dasharray="5,2" d="M1811.64,-236.38C1836.98,-226.714 1867.91,-215.304 1896,-206 1965.43,-183.005 1982.04,-173.097 2054,-160 2111.01,-149.623 2126.13,-153.036 2184,-150 2244.18,-146.843 2311.58,-144.879 2365.72,-143.688"/>
<polygon fill="#9a32cd" stroke="#9a32cd" points="1810.3,-233.144 1802.21,-239.991 1812.8,-239.681 1810.3,-233.144"/>
<text text-anchor="middle" x="2110" y="-164" font-family="Helvetica,sans-Serif" font-size="10.00"> filler</text>
</g>
<!-- Node30 -->
<g id="node75" class="node"><title>Node30</title>
<a xlink:href="classstxxl_1_1mng__local_1_1add__filler.html" target="_top" xlink:title="Contains per block filler for stxxl::typed_block , not intended for direct use. ">
<polygon fill="none" stroke="black" points="1896,-215 1896,-249 2036,-249 2036,-215 1896,-215"/>
<text text-anchor="start" x="1904" y="-236" font-family="Helvetica,sans-Serif" font-size="10.00">stxxl::mng_local::add</text>
<text text-anchor="middle" x="1966" y="-223" font-family="Helvetica,sans-Serif" font-size="10.00">_filler&lt; BaseType, FillSize &gt;</text>
</a>
</g>
<!-- Node28&#45;&gt;Node30 -->
<g id="edge94" class="edge"><title>Node28&#45;&gt;Node30</title>
<path fill="none" stroke="#9a32cd" stroke-dasharray="5,2" d="M1825.17,-249.009C1847.72,-246.285 1873.01,-243.231 1895.87,-240.47"/>
<polygon fill="#9a32cd" stroke="#9a32cd" points="1824.53,-245.561 1815.02,-250.235 1825.36,-252.51 1824.53,-245.561"/>
<text text-anchor="middle" x="1867" y="-249" font-family="Helvetica,sans-Serif" font-size="10.00"> filler</text>
</g>
<!-- Node32 -->
<g id="node80" class="node"><title>Node32</title>
<a xlink:href="classstxxl_1_1mng__local_1_1add__filler.html" target="_top" xlink:title="stxxl::mng_local::add\l_filler\&lt; Type, RawSize\l&#45;sizeof(Type)\&gt;">
<polygon fill="none" stroke="black" points="2198,-261.5 2198,-308.5 2314,-308.5 2314,-261.5 2198,-261.5"/>
<text text-anchor="start" x="2206" y="-295.5" font-family="Helvetica,sans-Serif" font-size="10.00">stxxl::mng_local::add</text>
<text text-anchor="start" x="2206" y="-282.5" font-family="Helvetica,sans-Serif" font-size="10.00">_filler&lt; Type, RawSize</text>
<text text-anchor="middle" x="2256" y="-269.5" font-family="Helvetica,sans-Serif" font-size="10.00">&#45;sizeof(Type)&gt;</text>
</a>
</g>
<!-- Node28&#45;&gt;Node32 -->
<g id="edge100" class="edge"><title>Node28&#45;&gt;Node32</title>
<path fill="none" stroke="#9a32cd" stroke-dasharray="5,2" d="M1825.11,-260.725C1922.97,-266.238 2104.81,-276.482 2197.86,-281.724"/>
<polygon fill="#9a32cd" stroke="#9a32cd" points="1825.23,-257.226 1815.05,-260.158 1824.83,-264.215 1825.23,-257.226"/>
<text text-anchor="middle" x="1966" y="-276" font-family="Helvetica,sans-Serif" font-size="10.00"> filler</text>
</g>
<!-- Node29 -->
<g id="node73" class="node"><title>Node29</title>
<a xlink:href="classstxxl_1_1mng__local_1_1filler__struct.html" target="_top" xlink:title="stxxl::mng_local::filler\l_struct\&lt; Bytes \&gt;">
<polygon fill="none" stroke="black" points="1397,-264 1397,-298 1509,-298 1509,-264 1397,-264"/>
<text text-anchor="start" x="1405" y="-285" font-family="Helvetica,sans-Serif" font-size="10.00">stxxl::mng_local::filler</text>
<text text-anchor="middle" x="1453" y="-272" font-family="Helvetica,sans-Serif" font-size="10.00">_struct&lt; Bytes &gt;</text>
</a>
</g>
<!-- Node29&#45;&gt;Node28 -->
<g id="edge90" class="edge"><title>Node29&#45;&gt;Node28</title>
<path fill="none" stroke="orange" stroke-dasharray="5,2" d="M1519.1,-275.816C1573.95,-271.513 1651.11,-265.462 1702.97,-261.394"/>
<polygon fill="orange" stroke="orange" points="1518.82,-272.327 1509.13,-276.598 1519.37,-279.305 1518.82,-272.327"/>
<text text-anchor="middle" x="1606" y="-277" font-family="Helvetica,sans-Serif" font-size="10.00"> &lt; FillSize &gt;</text>
</g>
<!-- Node30&#45;&gt;Node20 -->
<g id="edge92" class="edge"><title>Node30&#45;&gt;Node20</title>
<path fill="none" stroke="orange" stroke-dasharray="5,2" d="M2030.81,-212.052C2073.87,-199.472 2131.87,-183.806 2184,-174 2243.82,-162.748 2311.5,-154.945 2365.89,-149.863"/>
<polygon fill="orange" stroke="orange" points="2029.64,-208.75 2021.03,-214.931 2031.62,-215.465 2029.64,-208.75"/>
<text text-anchor="start" x="2184.5" y="-243" font-family="Helvetica,sans-Serif" font-size="10.00"> &lt; mng_local::block</text>
<text text-anchor="start" x="2184.5" y="-230" font-family="Helvetica,sans-Serif" font-size="10.00">_w_info&lt; Type, RawSize,</text>
<text text-anchor="start" x="2184.5" y="-217" font-family="Helvetica,sans-Serif" font-size="10.00"> NRef, MetaInfoType &gt;,</text>
<text text-anchor="start" x="2184.5" y="-204" font-family="Helvetica,sans-Serif" font-size="10.00"> RawSize&#45;sizeof(mng_local</text>
<text text-anchor="start" x="2184.5" y="-191" font-family="Helvetica,sans-Serif" font-size="10.00">::block_w_info&lt; Type, RawSize,</text>
<text text-anchor="middle" x="2256" y="-178" font-family="Helvetica,sans-Serif" font-size="10.00"> NRef, MetaInfoType &gt;)&gt;</text>
</g>
<!-- Node30&#45;&gt;Node32 -->
<g id="edge102" class="edge"><title>Node30&#45;&gt;Node32</title>
<path fill="none" stroke="orange" stroke-dasharray="5,2" d="M2046.54,-230.796C2083.41,-231.879 2127.4,-235.489 2166,-245 2181.27,-248.763 2197.19,-254.988 2211.32,-261.418"/>
<polygon fill="orange" stroke="orange" points="2046.42,-227.292 2036.34,-230.555 2046.25,-234.29 2046.42,-227.292"/>
<text text-anchor="start" x="2055.5" y="-262" font-family="Helvetica,sans-Serif" font-size="10.00"> &lt; Type, RawSize&#45;sizeof</text>
<text text-anchor="middle" x="2110" y="-249" font-family="Helvetica,sans-Serif" font-size="10.00">(Type)&gt;</text>
</g>
<!-- Node31 -->
<g id="node78" class="node"><title>Node31</title>
<a xlink:href="classstxxl_1_1mng__local_1_1expand__struct.html" target="_top" xlink:title="Helper to compute the size of the filler , not intended for direct use. ">
<polygon fill="none" stroke="black" points="2403,-220 2403,-254 2535,-254 2535,-220 2403,-220"/>
<text text-anchor="start" x="2411" y="-241" font-family="Helvetica,sans-Serif" font-size="10.00">stxxl::mng_local::expand</text>
<text text-anchor="middle" x="2469" y="-228" font-family="Helvetica,sans-Serif" font-size="10.00">_struct&lt; Type, RawSize &gt;</text>
</a>
</g>
<!-- Node31&#45;&gt;Node19 -->
<g id="edge96" class="edge"><title>Node31&#45;&gt;Node19</title>
<path fill="none" stroke="orange" stroke-dasharray="5,2" d="M2545.21,-226.015C2598.21,-218.375 2668.72,-208.212 2722.44,-200.468"/>
<polygon fill="orange" stroke="orange" points="2544.59,-222.568 2535.19,-227.459 2545.59,-229.497 2544.59,-222.568"/>
<text text-anchor="start" x="2590" y="-261" font-family="Helvetica,sans-Serif" font-size="10.00"> &lt; mng_local::block</text>
<text text-anchor="start" x="2590" y="-248" font-family="Helvetica,sans-Serif" font-size="10.00">_w_info&lt; Type, RawSize,</text>
<text text-anchor="start" x="2590" y="-235" font-family="Helvetica,sans-Serif" font-size="10.00"> NRef, MetaInfoType &gt;,</text>
<text text-anchor="middle" x="2647" y="-222" font-family="Helvetica,sans-Serif" font-size="10.00"> RawSize &gt;</text>
</g>
<!-- Node32&#45;&gt;Node31 -->
<g id="edge98" class="edge"><title>Node32&#45;&gt;Node31</title>
<path fill="none" stroke="midnightblue" d="M2324.07,-269.661C2349.32,-263.97 2377.9,-257.529 2402.97,-251.879"/>
<polygon fill="midnightblue" stroke="midnightblue" points="2323.19,-266.271 2314.2,-271.884 2324.73,-273.1 2323.19,-266.271"/>
</g>
</g>
</svg>
