<?xml version="1.0" encoding="UTF-8" standalone="no"?>
<!DOCTYPE svg PUBLIC "-//W3C//DTD SVG 1.1//EN"
 "http://www.w3.org/Graphics/SVG/1.1/DTD/svg11.dtd">
<!-- Generated by graphviz version 2.26.3 (20100126.1600)
 -->
<!-- Title: stxxl::parallel_priority_queue&lt; ValueType, CompareType, AllocStrategy, BlockSize, DefaultMemSize, MaxItems &gt; Pages: 1 -->
<svg width="2036pt" height="1233pt"
 viewBox="0.00 0.00 2036.00 1233.13" xmlns="http://www.w3.org/2000/svg" xmlns:xlink="http://www.w3.org/1999/xlink">
<g id="graph1" class="graph" transform="scale(1 1) rotate(0) translate(4 1229.13)">
<title>stxxl::parallel_priority_queue&lt; ValueType, CompareType, AllocStrategy, BlockSize, DefaultMemSize, MaxItems &gt;</title>
<!-- Node1 -->
<g id="node1" class="node"><title>Node1</title>
<polygon fill="#bfbfbf" stroke="black" points="1840,-677.127 1840,-737.127 2028,-737.127 2028,-677.127 1840,-677.127"/>
<text text-anchor="start" x="1848" y="-724.127" font-family="Helvetica,sans-Serif" font-size="10.00">stxxl::parallel_priority</text>
<text text-anchor="start" x="1848" y="-711.127" font-family="Helvetica,sans-Serif" font-size="10.00">_queue&lt; ValueType, CompareType,</text>
<text text-anchor="start" x="1848" y="-698.127" font-family="Helvetica,sans-Serif" font-size="10.00"> AllocStrategy, BlockSize, DefaultMem</text>
<text text-anchor="middle" x="1934" y="-685.127" font-family="Helvetica,sans-Serif" font-size="10.00">Size, MaxItems &gt;</text>
</g>
<!-- Node2 -->
<g id="node2" class="node"><title>Node2</title>
<a xlink:href="classstxxl_1_1noncopyable.html" target="_top" xlink:title="stxxl::noncopyable">
<polygon fill="none" stroke="black" points="307,-986.627 307,-1007.63 405,-1007.63 405,-986.627 307,-986.627"/>
<text text-anchor="middle" x="356" y="-994.627" font-family="Helvetica,sans-Serif" font-size="10.00">stxxl::noncopyable</text>
</a>
</g>
<!-- Node2&#45;&gt;Node1 -->
<g id="edge2" class="edge"><title>Node2&#45;&gt;Node1</title>
<path fill="none" stroke="#8b1a1a" d="M368.37,-1016.13C398.793,-1060.29 482.026,-1166.13 581,-1166.13 581,-1166.13 581,-1166.13 1616,-1166.13 1825.4,-1166.13 1907.83,-839.359 1928.47,-737.244"/>
<polygon fill="#8b1a1a" stroke="#8b1a1a" points="371.183,-1014.04 362.693,-1007.7 365.378,-1017.95 371.183,-1014.04"/>
</g>
<!-- Node3 -->
<g id="node4" class="node"><title>Node3</title>
<a xlink:href="classstxxl_1_1swap__vector.html" target="_top" xlink:title="stxxl::swap_vector\l\&lt; internal_array_type \&gt;">
<polygon fill="none" stroke="black" points="811.5,-908.127 811.5,-942.127 928.5,-942.127 928.5,-908.127 811.5,-908.127"/>
<text text-anchor="start" x="819.5" y="-929.127" font-family="Helvetica,sans-Serif" font-size="10.00">stxxl::swap_vector</text>
<text text-anchor="middle" x="870" y="-916.127" font-family="Helvetica,sans-Serif" font-size="10.00">&lt; internal_array_type &gt;</text>
</a>
</g>
<!-- Node2&#45;&gt;Node3 -->
<g id="edge6" class="edge"><title>Node2&#45;&gt;Node3</title>
<path fill="none" stroke="#8b1a1a" d="M375.267,-979.902C390.156,-967.744 411.894,-952.378 434,-945.127 563.421,-902.681 726.05,-909.981 811.447,-918.096"/>
<polygon fill="#8b1a1a" stroke="#8b1a1a" points="372.717,-977.475 367.341,-986.605 377.237,-982.82 372.717,-977.475"/>
</g>
<!-- Node4 -->
<g id="node7" class="node"><title>Node4</title>
<a xlink:href="classstxxl_1_1swap__vector.html" target="_top" xlink:title="Vector that avoids copying of ValueType objects in push_back() (here: swap_back()) and resize() opera...">
<polygon fill="none" stroke="black" points="531.5,-863.127 531.5,-897.127 630.5,-897.127 630.5,-863.127 531.5,-863.127"/>
<text text-anchor="start" x="539.5" y="-884.127" font-family="Helvetica,sans-Serif" font-size="10.00">stxxl::swap_vector</text>
<text text-anchor="middle" x="581" y="-871.127" font-family="Helvetica,sans-Serif" font-size="10.00">&lt; ValueType &gt;</text>
</a>
</g>
<!-- Node2&#45;&gt;Node4 -->
<g id="edge10" class="edge"><title>Node2&#45;&gt;Node4</title>
<path fill="none" stroke="#8b1a1a" d="M367.793,-977.915C381.238,-957.735 405.135,-926.678 434,-910.127 463.601,-893.155 501.4,-885.697 531.256,-882.461"/>
<polygon fill="#8b1a1a" stroke="#8b1a1a" points="364.682,-976.281 362.213,-986.584 370.568,-980.07 364.682,-976.281"/>
</g>
<!-- Node8 -->
<g id="node17" class="node"><title>Node8</title>
<a xlink:href="classstxxl_1_1swap__vector.html" target="_top" xlink:title="stxxl::swap_vector\l\&lt; external_array_type \&gt;">
<polygon fill="none" stroke="black" points="810,-766.127 810,-800.127 930,-800.127 930,-766.127 810,-766.127"/>
<text text-anchor="start" x="818" y="-787.127" font-family="Helvetica,sans-Serif" font-size="10.00">stxxl::swap_vector</text>
<text text-anchor="middle" x="870" y="-774.127" font-family="Helvetica,sans-Serif" font-size="10.00">&lt; external_array_type &gt;</text>
</a>
</g>
<!-- Node2&#45;&gt;Node8 -->
<g id="edge22" class="edge"><title>Node2&#45;&gt;Node8</title>
<path fill="none" stroke="#8b1a1a" d="M372.877,-978.858C385.785,-964.26 403.443,-942.878 416,-922.127 426.304,-905.101 419.156,-894.383 434,-881.127 539.898,-786.559 717.192,-777.116 809.693,-779.42"/>
<polygon fill="#8b1a1a" stroke="#8b1a1a" points="369.987,-976.837 365.901,-986.612 375.191,-981.519 369.987,-976.837"/>
</g>
<!-- Node19 -->
<g id="node50" class="node"><title>Node19</title>
<a xlink:href="classstxxl_1_1read__write__pool.html" target="_top" xlink:title="stxxl::read_write_pool\l\&lt; block_type \&gt;">
<polygon fill="none" stroke="black" points="1167,-1000.13 1167,-1034.13 1279,-1034.13 1279,-1000.13 1167,-1000.13"/>
<text text-anchor="start" x="1175" y="-1021.13" font-family="Helvetica,sans-Serif" font-size="10.00">stxxl::read_write_pool</text>
<text text-anchor="middle" x="1223" y="-1008.13" font-family="Helvetica,sans-Serif" font-size="10.00">&lt; block_type &gt;</text>
</a>
</g>
<!-- Node2&#45;&gt;Node19 -->
<g id="edge66" class="edge"><title>Node2&#45;&gt;Node19</title>
<path fill="none" stroke="#8b1a1a" d="M415.421,-994.183C524.294,-989.313 763.051,-981.067 964,-991.127 1034.07,-994.636 1114.41,-1003.45 1166.79,-1009.85"/>
<polygon fill="#8b1a1a" stroke="#8b1a1a" points="415.127,-990.693 405.296,-994.643 415.445,-997.685 415.127,-990.693"/>
</g>
<!-- Node20 -->
<g id="node53" class="node"><title>Node20</title>
<a xlink:href="classstxxl_1_1prefetch__pool.html" target="_top" xlink:title="Implements dynamically resizable prefetching pool. ">
<polygon fill="none" stroke="black" points="530,-1090.13 530,-1124.13 632,-1124.13 632,-1090.13 530,-1090.13"/>
<text text-anchor="start" x="538" y="-1111.13" font-family="Helvetica,sans-Serif" font-size="10.00">stxxl::prefetch_pool</text>
<text text-anchor="middle" x="581" y="-1098.13" font-family="Helvetica,sans-Serif" font-size="10.00">&lt; BlockType &gt;</text>
</a>
</g>
<!-- Node2&#45;&gt;Node20 -->
<g id="edge70" class="edge"><title>Node2&#45;&gt;Node20</title>
<path fill="none" stroke="#8b1a1a" d="M379.802,-1013.54C394.944,-1023.61 415.177,-1036.4 434,-1046.13 466.645,-1063 505.047,-1078.81 534.413,-1090.1"/>
<polygon fill="#8b1a1a" stroke="#8b1a1a" points="381.34,-1010.36 371.091,-1007.67 377.429,-1016.16 381.34,-1010.36"/>
</g>
<!-- Node23 -->
<g id="node61" class="node"><title>Node23</title>
<a xlink:href="classstxxl_1_1write__pool.html" target="_top" xlink:title="Implements dynamically resizable buffered writing pool. ">
<polygon fill="none" stroke="black" points="534,-1038.13 534,-1072.13 628,-1072.13 628,-1038.13 534,-1038.13"/>
<text text-anchor="start" x="542" y="-1059.13" font-family="Helvetica,sans-Serif" font-size="10.00">stxxl::write_pool&lt;</text>
<text text-anchor="middle" x="581" y="-1046.13" font-family="Helvetica,sans-Serif" font-size="10.00"> BlockType &gt;</text>
</a>
</g>
<!-- Node2&#45;&gt;Node23 -->
<g id="edge80" class="edge"><title>Node2&#45;&gt;Node23</title>
<path fill="none" stroke="#8b1a1a" d="M393.68,-1011.24C406.382,-1015.71 420.707,-1020.44 434,-1024.13 467.05,-1033.29 504.934,-1041.22 533.965,-1046.77"/>
<polygon fill="#8b1a1a" stroke="#8b1a1a" points="394.487,-1007.81 383.893,-1007.74 392.128,-1014.4 394.487,-1007.81"/>
</g>
<!-- Node24 -->
<g id="node64" class="node"><title>Node24</title>
<a xlink:href="classstxxl_1_1read__write__pool.html" target="_top" xlink:title="Implements dynamically resizable buffered writing and prefetched reading pool. ">
<polygon fill="none" stroke="black" points="814,-1000.13 814,-1034.13 926,-1034.13 926,-1000.13 814,-1000.13"/>
<text text-anchor="start" x="822" y="-1021.13" font-family="Helvetica,sans-Serif" font-size="10.00">stxxl::read_write_pool</text>
<text text-anchor="middle" x="870" y="-1008.13" font-family="Helvetica,sans-Serif" font-size="10.00">&lt; BlockType &gt;</text>
</a>
</g>
<!-- Node2&#45;&gt;Node24 -->
<g id="edge84" class="edge"><title>Node2&#45;&gt;Node24</title>
<path fill="none" stroke="#8b1a1a" d="M415.522,-999.443C515.595,-1003.34 716.172,-1011.14 813.899,-1014.94"/>
<polygon fill="#8b1a1a" stroke="#8b1a1a" points="415.413,-995.937 405.284,-999.045 415.141,-1002.93 415.413,-995.937"/>
</g>
<!-- Node3&#45;&gt;Node1 -->
<g id="edge4" class="edge"><title>Node3&#45;&gt;Node1</title>
<path fill="none" stroke="#9a32cd" stroke-dasharray="5,2" d="M938.523,-937.352C1102.92,-963.062 1527.89,-1007.77 1822,-845.127 1866.69,-820.414 1900.41,-769.978 1918.66,-737.407"/>
<polygon fill="#9a32cd" stroke="#9a32cd" points="938.969,-933.879 928.543,-935.764 937.869,-940.792 938.969,-933.879"/>
<text text-anchor="middle" x="1425" y="-964.127" font-family="Helvetica,sans-Serif" font-size="10.00"> m_internal_arrays</text>
</g>
<!-- Node4&#45;&gt;Node3 -->
<g id="edge8" class="edge"><title>Node4&#45;&gt;Node3</title>
<path fill="none" stroke="orange" stroke-dasharray="5,2" d="M641.182,-884.217C675.554,-887.059 719.369,-891.538 758,-898.127 775.449,-901.104 794.219,-905.249 811.311,-909.4"/>
<polygon fill="orange" stroke="orange" points="641.082,-880.697 630.834,-883.387 640.522,-887.675 641.082,-880.697"/>
<text text-anchor="middle" x="704" y="-902.127" font-family="Helvetica,sans-Serif" font-size="10.00"> &lt; internal_array_type &gt;</text>
</g>
<!-- Node4&#45;&gt;Node8 -->
<g id="edge24" class="edge"><title>Node4&#45;&gt;Node8</title>
<path fill="none" stroke="orange" stroke-dasharray="5,2" d="M640.226,-860.249C692.875,-842.578 769.04,-817.014 819.026,-800.236"/>
<polygon fill="orange" stroke="orange" points="639.047,-856.952 630.681,-863.453 641.275,-863.589 639.047,-856.952"/>
<text text-anchor="middle" x="704" y="-860.127" font-family="Helvetica,sans-Serif" font-size="10.00"> &lt; external_array_type &gt;</text>
</g>
<!-- Node5 -->
<g id="node10" class="node"><title>Node5</title>
<a xlink:href="structstxxl_1_1parallel__priority__queue_1_1inv__compare__type.html" target="_top" xlink:title="Inverse comparison functor. ">
<polygon fill="none" stroke="black" points="776,-627.127 776,-687.127 964,-687.127 964,-627.127 776,-627.127"/>
<text text-anchor="start" x="784" y="-674.127" font-family="Helvetica,sans-Serif" font-size="10.00">stxxl::parallel_priority</text>
<text text-anchor="start" x="784" y="-661.127" font-family="Helvetica,sans-Serif" font-size="10.00">_queue&lt; ValueType, CompareType,</text>
<text text-anchor="start" x="784" y="-648.127" font-family="Helvetica,sans-Serif" font-size="10.00"> AllocStrategy, BlockSize, DefaultMem</text>
<text text-anchor="middle" x="870" y="-635.127" font-family="Helvetica,sans-Serif" font-size="10.00">Size, MaxItems &gt;::inv_compare_type</text>
</a>
</g>
<!-- Node5&#45;&gt;Node1 -->
<g id="edge12" class="edge"><title>Node5&#45;&gt;Node1</title>
<path fill="none" stroke="#9a32cd" stroke-dasharray="5,2" d="M973.985,-637.076C1018.2,-629.514 1070.43,-621.845 1118,-618.127 1380.13,-597.643 1688.26,-652.913 1839.94,-685.384"/>
<polygon fill="#9a32cd" stroke="#9a32cd" points="973.353,-633.634 964.097,-638.789 974.548,-640.531 973.353,-633.634"/>
<text text-anchor="middle" x="1425" y="-633.127" font-family="Helvetica,sans-Serif" font-size="10.00"> m_inv_compare</text>
</g>
<!-- Node7 -->
<g id="node14" class="node"><title>Node7</title>
<a xlink:href="structstxxl_1_1parallel__priority__queue_1_1hint__comparator.html" target="_top" xlink:title="Compares the largest value of the block hinted the latest of two external arrays. ...">
<polygon fill="none" stroke="black" points="1129,-627.127 1129,-687.127 1317,-687.127 1317,-627.127 1129,-627.127"/>
<text text-anchor="start" x="1137" y="-674.127" font-family="Helvetica,sans-Serif" font-size="10.00">stxxl::parallel_priority</text>
<text text-anchor="start" x="1137" y="-661.127" font-family="Helvetica,sans-Serif" font-size="10.00">_queue&lt; ValueType, CompareType,</text>
<text text-anchor="start" x="1137" y="-648.127" font-family="Helvetica,sans-Serif" font-size="10.00"> AllocStrategy, BlockSize, DefaultMem</text>
<text text-anchor="middle" x="1223" y="-635.127" font-family="Helvetica,sans-Serif" font-size="10.00">Size, MaxItems &gt;::hint_comparator</text>
</a>
</g>
<!-- Node5&#45;&gt;Node7 -->
<g id="edge18" class="edge"><title>Node5&#45;&gt;Node7</title>
<path fill="none" stroke="#9a32cd" stroke-dasharray="5,2" d="M974.435,-657.127C1023.38,-657.127 1081.24,-657.127 1128.82,-657.127"/>
<polygon fill="#9a32cd" stroke="#9a32cd" points="974.134,-653.628 964.134,-657.127 974.134,-660.628 974.134,-653.628"/>
<text text-anchor="middle" x="1041" y="-661.127" font-family="Helvetica,sans-Serif" font-size="10.00"> m_compare</text>
</g>
<!-- Node16 -->
<g id="node40" class="node"><title>Node16</title>
<a xlink:href="structstxxl_1_1parallel__priority__queue_1_1external__min__comparator.html" target="_top" xlink:title="Compares the largest accessible value of two external arrays. ">
<polygon fill="none" stroke="black" points="1118,-705.127 1118,-765.127 1328,-765.127 1328,-705.127 1118,-705.127"/>
<text text-anchor="start" x="1126" y="-752.127" font-family="Helvetica,sans-Serif" font-size="10.00">stxxl::parallel_priority</text>
<text text-anchor="start" x="1126" y="-739.127" font-family="Helvetica,sans-Serif" font-size="10.00">_queue&lt; ValueType, CompareType,</text>
<text text-anchor="start" x="1126" y="-726.127" font-family="Helvetica,sans-Serif" font-size="10.00"> AllocStrategy, BlockSize, DefaultMem</text>
<text text-anchor="middle" x="1223" y="-713.127" font-family="Helvetica,sans-Serif" font-size="10.00">Size, MaxItems &gt;::external_min_comparator</text>
</a>
</g>
<!-- Node5&#45;&gt;Node16 -->
<g id="edge52" class="edge"><title>Node5&#45;&gt;Node16</title>
<path fill="none" stroke="#9a32cd" stroke-dasharray="5,2" d="M974.093,-670.218C1013.79,-676.162 1059.26,-684.132 1100,-694.127 1112.68,-697.239 1125.93,-701.045 1138.83,-705.071"/>
<polygon fill="#9a32cd" stroke="#9a32cd" points="974.536,-666.746 964.133,-668.75 973.516,-673.671 974.536,-666.746"/>
<text text-anchor="middle" x="1041" y="-698.127" font-family="Helvetica,sans-Serif" font-size="10.00"> m_compare</text>
</g>
<!-- Node6 -->
<g id="node12" class="node"><title>Node6</title>
<a xlink:href="classstxxl_1_1winner__tree.html" target="_top" xlink:title="stxxl::winner_tree\l\&lt; stxxl::parallel_priority\l_queue::hint_comparator \&gt;">
<polygon fill="none" stroke="black" points="1549.5,-435.627 1549.5,-482.627 1682.5,-482.627 1682.5,-435.627 1549.5,-435.627"/>
<text text-anchor="start" x="1557.5" y="-469.627" font-family="Helvetica,sans-Serif" font-size="10.00">stxxl::winner_tree</text>
<text text-anchor="start" x="1557.5" y="-456.627" font-family="Helvetica,sans-Serif" font-size="10.00">&lt; stxxl::parallel_priority</text>
<text text-anchor="middle" x="1616" y="-443.627" font-family="Helvetica,sans-Serif" font-size="10.00">_queue::hint_comparator &gt;</text>
</a>
</g>
<!-- Node6&#45;&gt;Node1 -->
<g id="edge14" class="edge"><title>Node6&#45;&gt;Node1</title>
<path fill="none" stroke="#9a32cd" stroke-dasharray="5,2" d="M1692.26,-485.555C1733.45,-502.23 1783.58,-526.605 1822,-558.127 1863.28,-591.997 1897.87,-644.104 1917.25,-676.869"/>
<polygon fill="#9a32cd" stroke="#9a32cd" points="1693.39,-482.239 1682.8,-481.798 1690.8,-488.744 1693.39,-482.239"/>
<text text-anchor="middle" x="1775" y="-562.127" font-family="Helvetica,sans-Serif" font-size="10.00"> m_hint_tree</text>
</g>
<!-- Node7&#45;&gt;Node1 -->
<g id="edge42" class="edge"><title>Node7&#45;&gt;Node1</title>
<path fill="none" stroke="#9a32cd" stroke-dasharray="5,2" d="M1327.22,-664.457C1465.37,-674.172 1707.1,-691.171 1839.94,-700.513"/>
<polygon fill="#9a32cd" stroke="#9a32cd" points="1327.27,-660.951 1317.05,-663.741 1326.78,-667.934 1327.27,-660.951"/>
<text text-anchor="middle" x="1616" y="-694.127" font-family="Helvetica,sans-Serif" font-size="10.00"> m_hint_comparator</text>
</g>
<!-- Node7&#45;&gt;Node6 -->
<g id="edge16" class="edge"><title>Node7&#45;&gt;Node6</title>
<path fill="none" stroke="#9a32cd" stroke-dasharray="5,2" d="M1284.16,-621.102C1300.73,-608.54 1317.08,-593.032 1328,-575.127 1350.37,-538.436 1313.99,-508.804 1346,-480.127 1360.84,-466.833 1474.39,-461.937 1549.44,-460.146"/>
<polygon fill="#9a32cd" stroke="#9a32cd" points="1282.05,-618.31 1276.03,-627.03 1286.17,-623.966 1282.05,-618.31"/>
<text text-anchor="middle" x="1425" y="-484.127" font-family="Helvetica,sans-Serif" font-size="10.00"> m_less</text>
</g>
<!-- Node8&#45;&gt;Node1 -->
<g id="edge44" class="edge"><title>Node8&#45;&gt;Node1</title>
<path fill="none" stroke="#9a32cd" stroke-dasharray="5,2" d="M940.119,-781.99C985.679,-781.231 1046.36,-780.182 1100,-779.127 1201.34,-777.135 1226.8,-779.866 1328,-774.127 1498.22,-764.475 1540.35,-755.987 1710,-739.127 1759.82,-734.177 1772.44,-734.199 1822,-727.127 1827.87,-726.29 1833.9,-725.375 1839.97,-724.411"/>
<polygon fill="#9a32cd" stroke="#9a32cd" points="939.992,-778.492 930.051,-782.158 940.108,-785.491 939.992,-778.492"/>
<text text-anchor="middle" x="1425" y="-776.127" font-family="Helvetica,sans-Serif" font-size="10.00"> m_external_arrays</text>
</g>
<!-- Node8&#45;&gt;Node7 -->
<g id="edge20" class="edge"><title>Node8&#45;&gt;Node7</title>
<path fill="none" stroke="#9a32cd" stroke-dasharray="5,2" d="M913.967,-761.61C934.32,-752.245 959.032,-741.705 982,-734.127 1033.09,-717.271 1050.17,-727.419 1100,-707.127 1108.68,-703.591 1109.57,-700.223 1118,-696.127 1124.38,-693.027 1131.08,-690.017 1137.88,-687.137"/>
<polygon fill="#9a32cd" stroke="#9a32cd" points="912.234,-758.556 904.65,-765.954 915.192,-764.9 912.234,-758.556"/>
<text text-anchor="middle" x="1041" y="-738.127" font-family="Helvetica,sans-Serif" font-size="10.00"> m_eas</text>
</g>
<!-- Node8&#45;&gt;Node16 -->
<g id="edge54" class="edge"><title>Node8&#45;&gt;Node16</title>
<path fill="none" stroke="#9a32cd" stroke-dasharray="5,2" d="M940.102,-772.237C953.979,-770.152 968.443,-768.028 982,-766.127 1026.49,-759.89 1075.67,-753.477 1117.95,-748.115"/>
<polygon fill="#9a32cd" stroke="#9a32cd" points="939.488,-768.79 930.123,-773.745 940.534,-775.711 939.488,-768.79"/>
<text text-anchor="middle" x="1041" y="-770.127" font-family="Helvetica,sans-Serif" font-size="10.00"> m_eas</text>
</g>
<!-- Node9 -->
<g id="node21" class="node"><title>Node9</title>
<a xlink:href="structstxxl_1_1winner__tree_1_1stats__type.html" target="_top" xlink:title="Collection of stats from the winner_tree. ">
<polygon fill="none" stroke="black" points="801.5,-406.127 801.5,-440.127 938.5,-440.127 938.5,-406.127 801.5,-406.127"/>
<text text-anchor="start" x="809.5" y="-427.127" font-family="Helvetica,sans-Serif" font-size="10.00">stxxl::winner_tree</text>
<text text-anchor="middle" x="870" y="-414.127" font-family="Helvetica,sans-Serif" font-size="10.00">&lt; Comparator &gt;::stats_type</text>
</a>
</g>
<!-- Node9&#45;&gt;Node6 -->
<g id="edge26" class="edge"><title>Node9&#45;&gt;Node6</title>
<path fill="none" stroke="#9a32cd" stroke-dasharray="5,2" d="M949.066,-414.577C1069.9,-403.532 1307.23,-389.836 1504,-427.127 1518.8,-429.933 1534.47,-433.815 1549.26,-437.911"/>
<polygon fill="#9a32cd" stroke="#9a32cd" points="948.433,-411.12 938.801,-415.534 949.083,-418.09 948.433,-411.12"/>
<text text-anchor="middle" x="1223" y="-409.127" font-family="Helvetica,sans-Serif" font-size="10.00"> m_stats</text>
</g>
<!-- Node11 -->
<g id="node25" class="node"><title>Node11</title>
<a xlink:href="classstxxl_1_1winner__tree.html" target="_top" xlink:title="The class winner_tree is a binary tournament tree. ">
<polygon fill="none" stroke="black" points="1176,-432.127 1176,-466.127 1270,-466.127 1270,-432.127 1176,-432.127"/>
<text text-anchor="start" x="1184" y="-453.127" font-family="Helvetica,sans-Serif" font-size="10.00">stxxl::winner_tree</text>
<text text-anchor="middle" x="1223" y="-440.127" font-family="Helvetica,sans-Serif" font-size="10.00">&lt; Comparator &gt;</text>
</a>
</g>
<!-- Node9&#45;&gt;Node11 -->
<g id="edge32" class="edge"><title>Node9&#45;&gt;Node11</title>
<path fill="none" stroke="#9a32cd" stroke-dasharray="5,2" d="M948.965,-428.944C1018.7,-434.08 1118.03,-441.396 1175.98,-445.664"/>
<polygon fill="#9a32cd" stroke="#9a32cd" points="949.13,-425.446 938.9,-428.202 948.616,-432.427 949.13,-425.446"/>
<text text-anchor="middle" x="1041" y="-443.127" font-family="Helvetica,sans-Serif" font-size="10.00"> m_stats</text>
</g>
<!-- Node15 -->
<g id="node37" class="node"><title>Node15</title>
<a xlink:href="classstxxl_1_1winner__tree.html" target="_top" xlink:title="stxxl::winner_tree\l\&lt; stxxl::parallel_priority\l_queue::external_min_comparator \&gt;">
<polygon fill="none" stroke="black" points="1529.5,-545.627 1529.5,-592.627 1702.5,-592.627 1702.5,-545.627 1529.5,-545.627"/>
<text text-anchor="start" x="1537.5" y="-579.627" font-family="Helvetica,sans-Serif" font-size="10.00">stxxl::winner_tree</text>
<text text-anchor="start" x="1537.5" y="-566.627" font-family="Helvetica,sans-Serif" font-size="10.00">&lt; stxxl::parallel_priority</text>
<text text-anchor="middle" x="1616" y="-553.627" font-family="Helvetica,sans-Serif" font-size="10.00">_queue::external_min_comparator &gt;</text>
</a>
</g>
<!-- Node9&#45;&gt;Node15 -->
<g id="edge48" class="edge"><title>Node9&#45;&gt;Node15</title>
<path fill="none" stroke="#9a32cd" stroke-dasharray="5,2" d="M935.778,-443.035C950.925,-447.472 966.993,-452.063 982,-456.127 1142.86,-499.688 1181.58,-518.971 1346,-546.127 1406.8,-556.17 1476.08,-561.957 1529.24,-565.215"/>
<polygon fill="#9a32cd" stroke="#9a32cd" points="936.56,-439.617 925.978,-440.148 934.582,-446.331 936.56,-439.617"/>
<text text-anchor="middle" x="1223" y="-546.127" font-family="Helvetica,sans-Serif" font-size="10.00"> m_stats</text>
</g>
<!-- Node10 -->
<g id="node23" class="node"><title>Node10</title>
<a xlink:href="classstxxl_1_1fake__timer.html" target="_top" xlink:title="Class fake_timer is a drop&#45;in replacement for timer, which does nothing. ">
<polygon fill="none" stroke="black" points="536.5,-249.627 536.5,-270.627 625.5,-270.627 625.5,-249.627 536.5,-249.627"/>
<text text-anchor="middle" x="581" y="-257.627" font-family="Helvetica,sans-Serif" font-size="10.00">stxxl::fake_timer</text>
</a>
</g>
<!-- Node10&#45;&gt;Node9 -->
<g id="edge28" class="edge"><title>Node10&#45;&gt;Node9</title>
<path fill="none" stroke="#9a32cd" stroke-dasharray="5,2" d="M608.708,-275.755C663.056,-306.408 783.245,-374.196 839.652,-406.011"/>
<polygon fill="#9a32cd" stroke="#9a32cd" points="610.392,-272.686 599.962,-270.822 606.953,-278.784 610.392,-272.686"/>
<text text-anchor="middle" x="704" y="-386.127" font-family="Helvetica,sans-Serif" font-size="10.00"> remove_player_time</text>
<text text-anchor="middle" x="704" y="-373.127" font-family="Helvetica,sans-Serif" font-size="10.00">replay_time</text>
<text text-anchor="middle" x="704" y="-360.127" font-family="Helvetica,sans-Serif" font-size="10.00">double_num_slots_time</text>
</g>
<!-- Node12 -->
<g id="node28" class="node"><title>Node12</title>
<a xlink:href="structstxxl_1_1parallel__priority__queue_1_1stats__type.html" target="_top" xlink:title="Struct of all statistical counters and timers. Turn on/off statistics using the stats_counter and sta...">
<polygon fill="none" stroke="black" points="1522,-255.127 1522,-315.127 1710,-315.127 1710,-255.127 1522,-255.127"/>
<text text-anchor="start" x="1530" y="-302.127" font-family="Helvetica,sans-Serif" font-size="10.00">stxxl::parallel_priority</text>
<text text-anchor="start" x="1530" y="-289.127" font-family="Helvetica,sans-Serif" font-size="10.00">_queue&lt; ValueType, CompareType,</text>
<text text-anchor="start" x="1530" y="-276.127" font-family="Helvetica,sans-Serif" font-size="10.00"> AllocStrategy, BlockSize, DefaultMem</text>
<text text-anchor="middle" x="1616" y="-263.127" font-family="Helvetica,sans-Serif" font-size="10.00">Size, MaxItems &gt;::stats_type</text>
</a>
</g>
<!-- Node10&#45;&gt;Node12 -->
<g id="edge40" class="edge"><title>Node10&#45;&gt;Node12</title>
<path fill="none" stroke="#9a32cd" stroke-dasharray="5,2" d="M635.541,-250.241C712.466,-236.848 857.372,-213.634 982,-205.127 1174.59,-191.981 1398.27,-233.664 1521.81,-261.715"/>
<polygon fill="#9a32cd" stroke="#9a32cd" points="634.844,-246.81 625.598,-251.984 636.052,-253.705 634.844,-246.81"/>
<text text-anchor="middle" x="1041" y="-391.127" font-family="Helvetica,sans-Serif" font-size="10.00"> extract_min_time</text>
<text text-anchor="start" x="996" y="-378.127" font-family="Helvetica,sans-Serif" font-size="10.00">refill_time_after</text>
<text text-anchor="middle" x="1041" y="-365.127" font-family="Helvetica,sans-Serif" font-size="10.00">_merge</text>
<text text-anchor="start" x="996" y="-352.127" font-family="Helvetica,sans-Serif" font-size="10.00">refill_time_before</text>
<text text-anchor="middle" x="1041" y="-339.127" font-family="Helvetica,sans-Serif" font-size="10.00">_merge</text>
<text text-anchor="middle" x="1041" y="-326.127" font-family="Helvetica,sans-Serif" font-size="10.00">pop_heap_time</text>
<text text-anchor="start" x="996" y="-313.127" font-family="Helvetica,sans-Serif" font-size="10.00">external_array</text>
<text text-anchor="middle" x="1041" y="-300.127" font-family="Helvetica,sans-Serif" font-size="10.00">_merge_time</text>
<text text-anchor="middle" x="1041" y="-287.127" font-family="Helvetica,sans-Serif" font-size="10.00">hint_time</text>
<text text-anchor="middle" x="1041" y="-274.127" font-family="Helvetica,sans-Serif" font-size="10.00">refill_wait_time</text>
<text text-anchor="middle" x="1041" y="-261.127" font-family="Helvetica,sans-Serif" font-size="10.00">refill_minmax_time</text>
<text text-anchor="middle" x="1041" y="-248.127" font-family="Helvetica,sans-Serif" font-size="10.00">direct_flush_time</text>
<text text-anchor="start" x="996" y="-235.127" font-family="Helvetica,sans-Serif" font-size="10.00">insertion_heap_flush</text>
<text text-anchor="middle" x="1041" y="-222.127" font-family="Helvetica,sans-Serif" font-size="10.00">_time</text>
<text text-anchor="middle" x="1041" y="-209.127" font-family="Helvetica,sans-Serif" font-size="10.00">...</text>
</g>
<!-- Node11&#45;&gt;Node6 -->
<g id="edge30" class="edge"><title>Node11&#45;&gt;Node6</title>
<path fill="none" stroke="orange" stroke-dasharray="5,2" d="M1280.59,-441.049C1337.5,-434.293 1426.95,-426.965 1504,-435.127 1518.83,-436.699 1534.59,-439.409 1549.45,-442.457"/>
<polygon fill="orange" stroke="orange" points="1279.86,-437.613 1270.36,-442.3 1280.71,-444.561 1279.86,-437.613"/>
<text text-anchor="start" x="1366.5" y="-452.127" font-family="Helvetica,sans-Serif" font-size="10.00"> &lt; stxxl::parallel_priority</text>
<text text-anchor="middle" x="1425" y="-439.127" font-family="Helvetica,sans-Serif" font-size="10.00">_queue::hint_comparator &gt;</text>
</g>
<!-- Node11&#45;&gt;Node15 -->
<g id="edge56" class="edge"><title>Node11&#45;&gt;Node15</title>
<path fill="none" stroke="orange" stroke-dasharray="5,2" d="M1269.58,-470.2C1292.24,-479.696 1320.11,-490.287 1346,-497.127 1414.61,-515.255 1435.77,-500.62 1504,-520.127 1526.24,-526.487 1549.85,-536.314 1569.62,-545.503"/>
<polygon fill="orange" stroke="orange" points="1270.79,-466.908 1260.21,-466.212 1268.04,-473.349 1270.79,-466.908"/>
<text text-anchor="start" x="1346.5" y="-537.127" font-family="Helvetica,sans-Serif" font-size="10.00"> &lt; stxxl::parallel_priority</text>
<text text-anchor="middle" x="1425" y="-524.127" font-family="Helvetica,sans-Serif" font-size="10.00">_queue::external_min_comparator &gt;</text>
</g>
<!-- Node12&#45;&gt;Node1 -->
<g id="edge34" class="edge"><title>Node12&#45;&gt;Node1</title>
<path fill="none" stroke="#9a32cd" stroke-dasharray="5,2" d="M1661.74,-321.699C1706.6,-359.245 1774.94,-421.088 1822,-485.127 1868.14,-547.918 1904.89,-632.528 1922.56,-676.973"/>
<polygon fill="#9a32cd" stroke="#9a32cd" points="1663.85,-318.902 1653.92,-315.203 1659.38,-324.286 1663.85,-318.902"/>
<text text-anchor="middle" x="1775" y="-489.127" font-family="Helvetica,sans-Serif" font-size="10.00"> m_stats</text>
</g>
<!-- Node13 -->
<g id="node30" class="node"><title>Node13</title>
<a xlink:href="classstxxl_1_1dummy__custom__stats__counter.html" target="_top" xlink:title="stxxl::dummy_custom\l_stats_counter\&lt; uint64 \&gt;">
<polygon fill="none" stroke="black" points="1160.5,-20.1274 1160.5,-54.1274 1285.5,-54.1274 1285.5,-20.1274 1160.5,-20.1274"/>
<text text-anchor="start" x="1168.5" y="-41.1274" font-family="Helvetica,sans-Serif" font-size="10.00">stxxl::dummy_custom</text>
<text text-anchor="middle" x="1223" y="-28.1274" font-family="Helvetica,sans-Serif" font-size="10.00">_stats_counter&lt; uint64 &gt;</text>
</a>
</g>
<!-- Node13&#45;&gt;Node12 -->
<g id="edge36" class="edge"><title>Node13&#45;&gt;Node12</title>
<path fill="none" stroke="#9a32cd" stroke-dasharray="5,2" d="M1280.28,-17.1888C1343.53,0.78908 1444.29,16.8341 1504,-38.1274 1538.14,-69.5484 1494.59,-208.692 1522,-246.127 1524.3,-249.264 1526.89,-252.149 1529.72,-254.804"/>
<polygon fill="#9a32cd" stroke="#9a32cd" points="1279.06,-13.8975 1270.46,-20.0802 1281.04,-20.6123 1279.06,-13.8975"/>
<text text-anchor="middle" x="1425" y="-172.127" font-family="Helvetica,sans-Serif" font-size="10.00"> max_num_internal_arrays</text>
<text text-anchor="middle" x="1425" y="-159.127" font-family="Helvetica,sans-Serif" font-size="10.00">num_internal_array_flushes</text>
<text text-anchor="middle" x="1425" y="-146.127" font-family="Helvetica,sans-Serif" font-size="10.00">max_num_new_external_arrays</text>
<text text-anchor="middle" x="1425" y="-133.127" font-family="Helvetica,sans-Serif" font-size="10.00">num_new_internal_arrays</text>
<text text-anchor="middle" x="1425" y="-120.127" font-family="Helvetica,sans-Serif" font-size="10.00">num_extracts</text>
<text text-anchor="middle" x="1425" y="-107.127" font-family="Helvetica,sans-Serif" font-size="10.00">num_extract_buffer_refills</text>
<text text-anchor="middle" x="1425" y="-94.1274" font-family="Helvetica,sans-Serif" font-size="10.00">max_num_new_internal_arrays</text>
<text text-anchor="middle" x="1425" y="-81.1274" font-family="Helvetica,sans-Serif" font-size="10.00">num_insertion_heap_flushes</text>
<text text-anchor="middle" x="1425" y="-68.1274" font-family="Helvetica,sans-Serif" font-size="10.00">max_merge_buffer_size</text>
<text text-anchor="middle" x="1425" y="-55.1274" font-family="Helvetica,sans-Serif" font-size="10.00">max_num_external_arrays</text>
<text text-anchor="middle" x="1425" y="-42.1274" font-family="Helvetica,sans-Serif" font-size="10.00">...</text>
</g>
<!-- Node14 -->
<g id="node32" class="node"><title>Node14</title>
<a xlink:href="classstxxl_1_1dummy__custom__stats__counter.html" target="_top" xlink:title="Dummy class for custom_stats_counter. ">
<polygon fill="none" stroke="black" points="797,-20.1274 797,-54.1274 943,-54.1274 943,-20.1274 797,-20.1274"/>
<text text-anchor="start" x="805" y="-41.1274" font-family="Helvetica,sans-Serif" font-size="10.00">stxxl::dummy_custom</text>
<text text-anchor="middle" x="870" y="-28.1274" font-family="Helvetica,sans-Serif" font-size="10.00">_stats_counter&lt; ValueType &gt;</text>
</a>
</g>
<!-- Node14&#45;&gt;Node13 -->
<g id="edge38" class="edge"><title>Node14&#45;&gt;Node13</title>
<path fill="none" stroke="orange" stroke-dasharray="5,2" d="M953.511,-37.1274C1016.9,-37.1274 1102.68,-37.1274 1160.28,-37.1274"/>
<polygon fill="orange" stroke="orange" points="953.142,-33.6275 943.142,-37.1274 953.142,-40.6275 953.142,-33.6275"/>
<text text-anchor="middle" x="1041" y="-41.1274" font-family="Helvetica,sans-Serif" font-size="10.00"> &lt; uint64 &gt;</text>
</g>
<!-- Node15&#45;&gt;Node1 -->
<g id="edge46" class="edge"><title>Node15&#45;&gt;Node1</title>
<path fill="none" stroke="#9a32cd" stroke-dasharray="5,2" d="M1712.6,-572.759C1748.39,-577.101 1788.41,-585.653 1822,-602.127 1857.89,-619.733 1890.18,-652.756 1910.76,-677.085"/>
<polygon fill="#9a32cd" stroke="#9a32cd" points="1712.95,-569.277 1702.62,-571.643 1712.17,-576.234 1712.95,-569.277"/>
<text text-anchor="middle" x="1775" y="-606.127" font-family="Helvetica,sans-Serif" font-size="10.00"> m_external_min_tree</text>
</g>
<!-- Node16&#45;&gt;Node1 -->
<g id="edge62" class="edge"><title>Node16&#45;&gt;Node1</title>
<path fill="none" stroke="#9a32cd" stroke-dasharray="5,2" d="M1338.6,-730.575C1478.28,-725.074 1710.58,-715.926 1839.85,-710.835"/>
<polygon fill="#9a32cd" stroke="#9a32cd" points="1338.15,-727.09 1328.29,-730.981 1338.42,-734.085 1338.15,-727.09"/>
<text text-anchor="middle" x="1616" y="-726.127" font-family="Helvetica,sans-Serif" font-size="10.00"> m_external_min_comparator</text>
</g>
<!-- Node16&#45;&gt;Node15 -->
<g id="edge50" class="edge"><title>Node16&#45;&gt;Node15</title>
<path fill="none" stroke="#9a32cd" stroke-dasharray="5,2" d="M1326.75,-697.579C1327.18,-697.102 1327.59,-696.618 1328,-696.127 1357.48,-660.769 1312.14,-625.311 1346,-594.127 1359.42,-581.77 1455.57,-575.212 1529.35,-571.961"/>
<polygon fill="#9a32cd" stroke="#9a32cd" points="1324.08,-695.302 1319.39,-704.801 1328.98,-700.301 1324.08,-695.302"/>
<text text-anchor="middle" x="1425" y="-598.127" font-family="Helvetica,sans-Serif" font-size="10.00"> m_less</text>
</g>
<!-- Node17 -->
<g id="node45" class="node"><title>Node17</title>
<a xlink:href="structstxxl_1_1choose__int__types.html" target="_top" xlink:title="stxxl::choose_int_types\l\&lt; my_pointer_size \&gt;">
<polygon fill="none" stroke="black" points="296,-879.127 296,-913.127 416,-913.127 416,-879.127 296,-879.127"/>
<text text-anchor="start" x="304" y="-900.127" font-family="Helvetica,sans-Serif" font-size="10.00">stxxl::choose_int_types</text>
<text text-anchor="middle" x="356" y="-887.127" font-family="Helvetica,sans-Serif" font-size="10.00">&lt; my_pointer_size &gt;</text>
</a>
</g>
<!-- Node17&#45;&gt;Node1 -->
<g id="edge58" class="edge"><title>Node17&#45;&gt;Node1</title>
<path fill="none" stroke="#9a32cd" stroke-dasharray="5,2" d="M426.369,-876.817C457.863,-868.777 495.582,-859.974 530,-854.127 582.842,-845.151 596.576,-846.455 650,-842.127 1029.04,-811.424 1125.47,-825.637 1504,-789.127 1595.91,-780.262 1618.52,-774.657 1710,-762.127 1759.82,-755.304 1773.14,-758.006 1822,-746.127 1832.4,-743.598 1843.2,-740.487 1853.81,-737.135"/>
<polygon fill="#9a32cd" stroke="#9a32cd" points="425.183,-873.508 416.374,-879.395 426.932,-880.286 425.183,-873.508"/>
<text text-anchor="middle" x="1041" y="-916.127" font-family="Helvetica,sans-Serif" font-size="10.00"> m_num_read_blocks</text>
<text text-anchor="start" x="982.5" y="-903.127" font-family="Helvetica,sans-Serif" font-size="10.00">c_max_internal_level</text>
<text text-anchor="middle" x="1041" y="-890.127" font-family="Helvetica,sans-Serif" font-size="10.00">_size</text>
<text text-anchor="middle" x="1041" y="-877.127" font-family="Helvetica,sans-Serif" font-size="10.00">m_num_used_read_blocks</text>
<text text-anchor="middle" x="1041" y="-864.127" font-family="Helvetica,sans-Serif" font-size="10.00">m_internal_levels</text>
<text text-anchor="start" x="982.5" y="-851.127" font-family="Helvetica,sans-Serif" font-size="10.00">m_bulk_first_delayed</text>
<text text-anchor="middle" x="1041" y="-838.127" font-family="Helvetica,sans-Serif" font-size="10.00">_external_array</text>
<text text-anchor="middle" x="1041" y="-825.127" font-family="Helvetica,sans-Serif" font-size="10.00">m_num_hinted_blocks</text>
</g>
<!-- Node17&#45;&gt;Node20 -->
<g id="edge72" class="edge"><title>Node17&#45;&gt;Node20</title>
<path fill="none" stroke="#9a32cd" stroke-dasharray="5,2" d="M392.46,-918.802C427.627,-942.393 480.088,-982.385 512,-1029.13 525.79,-1049.33 513.942,-1062.68 530,-1081.13 532.871,-1084.43 536.262,-1087.36 539.909,-1089.95"/>
<polygon fill="#9a32cd" stroke="#9a32cd" points="394.189,-915.749 383.915,-913.163 390.334,-921.592 394.189,-915.749"/>
<text text-anchor="middle" x="473" y="-1033.13" font-family="Helvetica,sans-Serif" font-size="10.00"> free_blocks_size</text>
</g>
<!-- Node18 -->
<g id="node47" class="node"><title>Node18</title>
<a xlink:href="structstxxl_1_1choose__int__types.html" target="_top" xlink:title="stxxl::choose_int_types\l\&lt; PtrSize \&gt;">
<polygon fill="none" stroke="black" points="17,-879.127 17,-913.127 137,-913.127 137,-879.127 17,-879.127"/>
<text text-anchor="start" x="25" y="-900.127" font-family="Helvetica,sans-Serif" font-size="10.00">stxxl::choose_int_types</text>
<text text-anchor="middle" x="77" y="-887.127" font-family="Helvetica,sans-Serif" font-size="10.00">&lt; PtrSize &gt;</text>
</a>
</g>
<!-- Node18&#45;&gt;Node17 -->
<g id="edge60" class="edge"><title>Node18&#45;&gt;Node17</title>
<path fill="none" stroke="orange" stroke-dasharray="5,2" d="M147.35,-896.127C193.165,-896.127 252.302,-896.127 295.913,-896.127"/>
<polygon fill="orange" stroke="orange" points="147.195,-892.628 137.195,-896.127 147.195,-899.628 147.195,-892.628"/>
<text text-anchor="middle" x="225" y="-900.127" font-family="Helvetica,sans-Serif" font-size="10.00"> &lt; my_pointer_size &gt;</text>
</g>
<!-- Node19&#45;&gt;Node1 -->
<g id="edge64" class="edge"><title>Node19&#45;&gt;Node1</title>
<path fill="none" stroke="#9a32cd" stroke-dasharray="5,2" d="M1289.42,-1030.94C1408.48,-1051.74 1660.82,-1077.26 1822,-961.127 1896.68,-907.317 1922.27,-792.411 1930.45,-737.53"/>
<polygon fill="#9a32cd" stroke="#9a32cd" points="1289.81,-1027.46 1279.35,-1029.14 1288.58,-1034.35 1289.81,-1027.46"/>
<text text-anchor="middle" x="1616" y="-1051.13" font-family="Helvetica,sans-Serif" font-size="10.00"> m_pool</text>
</g>
<!-- Node20&#45;&gt;Node19 -->
<g id="edge68" class="edge"><title>Node20&#45;&gt;Node19</title>
<path fill="none" stroke="#9a32cd" stroke-dasharray="5,2" d="M642.484,-1111.73C676.574,-1113.47 719.695,-1114.35 758,-1111.13 911.627,-1098.19 949.763,-1087.73 1100,-1053.13 1123.09,-1047.81 1148.26,-1040.69 1169.78,-1034.18"/>
<polygon fill="#9a32cd" stroke="#9a32cd" points="642.386,-1108.22 632.209,-1111.16 642.002,-1115.21 642.386,-1108.22"/>
<text text-anchor="middle" x="870" y="-1113.13" font-family="Helvetica,sans-Serif" font-size="10.00"> p_pool</text>
</g>
<!-- Node20&#45;&gt;Node24 -->
<g id="edge86" class="edge"><title>Node20&#45;&gt;Node24</title>
<path fill="none" stroke="#9a32cd" stroke-dasharray="5,2" d="M642.152,-1096.08C677.053,-1088.51 721.071,-1076.79 758,-1060.13 766.764,-1056.17 767.356,-1052.34 776,-1048.13 787.895,-1042.33 801.139,-1037.22 813.844,-1032.9"/>
<polygon fill="#9a32cd" stroke="#9a32cd" points="641.161,-1092.71 632.099,-1098.2 642.606,-1099.56 641.161,-1092.71"/>
<text text-anchor="middle" x="704" y="-1098.13" font-family="Helvetica,sans-Serif" font-size="10.00"> p_pool</text>
</g>
<!-- Node21 -->
<g id="node57" class="node"><title>Node21</title>
<a xlink:href="structstxxl_1_1compat__hash__map.html" target="_top" xlink:title="stxxl::compat_hash\l_map\&lt; bid_type, busy\l_entry, bid_hash \&gt;">
<polygon fill="none" stroke="black" points="299.5,-1175.63 299.5,-1222.63 412.5,-1222.63 412.5,-1175.63 299.5,-1175.63"/>
<text text-anchor="start" x="307.5" y="-1209.63" font-family="Helvetica,sans-Serif" font-size="10.00">stxxl::compat_hash</text>
<text text-anchor="start" x="307.5" y="-1196.63" font-family="Helvetica,sans-Serif" font-size="10.00">_map&lt; bid_type, busy</text>
<text text-anchor="middle" x="356" y="-1183.63" font-family="Helvetica,sans-Serif" font-size="10.00">_entry, bid_hash &gt;</text>
</a>
</g>
<!-- Node21&#45;&gt;Node20 -->
<g id="edge74" class="edge"><title>Node21&#45;&gt;Node20</title>
<path fill="none" stroke="#9a32cd" stroke-dasharray="5,2" d="M422.201,-1172.06C460.037,-1156.59 506.337,-1137.66 539.157,-1124.24"/>
<polygon fill="#9a32cd" stroke="#9a32cd" points="420.708,-1168.89 412.777,-1175.91 423.358,-1175.37 420.708,-1168.89"/>
<text text-anchor="middle" x="473" y="-1170.13" font-family="Helvetica,sans-Serif" font-size="10.00"> busy_blocks</text>
</g>
<!-- Node22 -->
<g id="node59" class="node"><title>Node22</title>
<a xlink:href="structstxxl_1_1compat__hash__map.html" target="_top" xlink:title="stxxl::compat_hash\l_map\&lt; KeyType, MappedType,\l HashType \&gt;">
<polygon fill="none" stroke="black" points="0,-1175.63 0,-1222.63 154,-1222.63 154,-1175.63 0,-1175.63"/>
<text text-anchor="start" x="8" y="-1209.63" font-family="Helvetica,sans-Serif" font-size="10.00">stxxl::compat_hash</text>
<text text-anchor="start" x="8" y="-1196.63" font-family="Helvetica,sans-Serif" font-size="10.00">_map&lt; KeyType, MappedType,</text>
<text text-anchor="middle" x="77" y="-1183.63" font-family="Helvetica,sans-Serif" font-size="10.00"> HashType &gt;</text>
</a>
</g>
<!-- Node22&#45;&gt;Node21 -->
<g id="edge76" class="edge"><title>Node22&#45;&gt;Node21</title>
<path fill="none" stroke="orange" stroke-dasharray="5,2" d="M164.478,-1199.13C208.505,-1199.13 260.6,-1199.13 299.336,-1199.13"/>
<polygon fill="orange" stroke="orange" points="164.347,-1195.63 154.347,-1199.13 164.347,-1202.63 164.347,-1195.63"/>
<text text-anchor="start" x="172" y="-1216.13" font-family="Helvetica,sans-Serif" font-size="10.00"> &lt; bid_type, busy_entry,</text>
<text text-anchor="middle" x="225" y="-1203.13" font-family="Helvetica,sans-Serif" font-size="10.00"> bid_hash &gt;</text>
</g>
<!-- Node23&#45;&gt;Node19 -->
<g id="edge78" class="edge"><title>Node23&#45;&gt;Node19</title>
<path fill="none" stroke="#9a32cd" stroke-dasharray="5,2" d="M638.733,-1056.54C673.333,-1057.11 718.196,-1057.38 758,-1056.13 910.239,-1051.33 948.473,-1049.59 1100,-1034.13 1121.87,-1031.89 1145.84,-1028.74 1166.77,-1025.76"/>
<polygon fill="#9a32cd" stroke="#9a32cd" points="638.403,-1053.03 628.342,-1056.35 638.277,-1060.03 638.403,-1053.03"/>
<text text-anchor="middle" x="870" y="-1059.13" font-family="Helvetica,sans-Serif" font-size="10.00"> w_pool</text>
</g>
<!-- Node23&#45;&gt;Node24 -->
<g id="edge88" class="edge"><title>Node23&#45;&gt;Node24</title>
<path fill="none" stroke="#9a32cd" stroke-dasharray="5,2" d="M638.093,-1044.95C642.118,-1044.31 646.118,-1043.69 650,-1043.13 705.563,-1035.02 769.306,-1027.7 813.826,-1022.91"/>
<polygon fill="#9a32cd" stroke="#9a32cd" points="637.387,-1041.52 628.083,-1046.59 638.517,-1048.43 637.387,-1041.52"/>
<text text-anchor="middle" x="704" y="-1047.13" font-family="Helvetica,sans-Serif" font-size="10.00"> w_pool</text>
</g>
<!-- Node24&#45;&gt;Node19 -->
<g id="edge82" class="edge"><title>Node24&#45;&gt;Node19</title>
<path fill="none" stroke="orange" stroke-dasharray="5,2" d="M936.696,-1017.13C1003.24,-1017.13 1104.32,-1017.13 1166.88,-1017.13"/>
<polygon fill="orange" stroke="orange" points="936.324,-1013.63 926.324,-1017.13 936.324,-1020.63 936.324,-1013.63"/>
<text text-anchor="middle" x="1041" y="-1021.13" font-family="Helvetica,sans-Serif" font-size="10.00"> &lt; block_type &gt;</text>
</g>
<!-- Node25 -->
<g id="node69" class="node"><title>Node25</title>
<a xlink:href="structstxxl_1_1random__number32__r.html" target="_top" xlink:title="Fast uniform [0, 2^32) pseudo&#45;random generator with period 2^32, random bits: 32. Reentrant variant o...">
<polygon fill="none" stroke="black" points="1550,-215.627 1550,-236.627 1682,-236.627 1682,-215.627 1550,-215.627"/>
<text text-anchor="middle" x="1616" y="-223.627" font-family="Helvetica,sans-Serif" font-size="10.00">stxxl::random_number32_r</text>
</a>
</g>
<!-- Node25&#45;&gt;Node1 -->
<g id="edge90" class="edge"><title>Node25&#45;&gt;Node1</title>
<path fill="none" stroke="#9a32cd" stroke-dasharray="5,2" d="M1692.08,-237.97C1698.33,-240.232 1704.39,-242.924 1710,-246.127 1773.92,-282.629 1784.73,-304.653 1822,-368.127 1883.35,-472.625 1916.32,-615.222 1928.47,-676.785"/>
<polygon fill="#9a32cd" stroke="#9a32cd" points="1692.73,-234.502 1682.14,-234.758 1690.58,-241.163 1692.73,-234.502"/>
<text text-anchor="middle" x="1775" y="-372.127" font-family="Helvetica,sans-Serif" font-size="10.00"> m_rng</text>
</g>
</g>
</svg>
