<?xml version="1.0" encoding="UTF-8" standalone="no"?>
<!DOCTYPE svg PUBLIC "-//W3C//DTD SVG 1.1//EN"
 "http://www.w3.org/Graphics/SVG/1.1/DTD/svg11.dtd">
<!-- Generated by graphviz version 2.26.3 (20100126.1600)
 -->
<!-- Title: stxxl::stats Pages: 1 -->
<svg width="227pt" height="236pt"
 viewBox="0.00 0.00 227.00 236.00" xmlns="http://www.w3.org/2000/svg" xmlns:xlink="http://www.w3.org/1999/xlink">
<g id="graph1" class="graph" transform="scale(1 1) rotate(0) translate(4 232)">
<title>stxxl::stats</title>
<!-- Node1 -->
<g id="node1" class="node"><title>Node1</title>
<polygon fill="#bfbfbf" stroke="black" points="28.5,-0.5 28.5,-21.5 93.5,-21.5 93.5,-0.5 28.5,-0.5"/>
<text text-anchor="middle" x="61" y="-8.5" font-family="Helvetica,sans-Serif" font-size="10.00">stxxl::stats</text>
</g>
<!-- Node2 -->
<g id="node2" class="node"><title>Node2</title>
<a xlink:href="classstxxl_1_1singleton.html" target="_top" xlink:title="stxxl::singleton\&lt; stats \&gt;">
<polygon fill="none" stroke="black" points="0,-60.5 0,-81.5 122,-81.5 122,-60.5 0,-60.5"/>
<text text-anchor="middle" x="61" y="-68.5" font-family="Helvetica,sans-Serif" font-size="10.00">stxxl::singleton&lt; stats &gt;</text>
</a>
</g>
<!-- Node2&#45;&gt;Node1 -->
<g id="edge2" class="edge"><title>Node2&#45;&gt;Node1</title>
<path fill="none" stroke="midnightblue" d="M61,-50.2312C61,-40.5922 61,-29.5444 61,-21.6339"/>
<polygon fill="midnightblue" stroke="midnightblue" points="57.5001,-50.2732 61,-60.2732 64.5001,-50.2732 57.5001,-50.2732"/>
</g>
<!-- Node3 -->
<g id="node4" class="node"><title>Node3</title>
<a xlink:href="classstxxl_1_1noncopyable.html" target="_top" xlink:title="stxxl::noncopyable">
<polygon fill="none" stroke="black" points="27,-206.5 27,-227.5 125,-227.5 125,-206.5 27,-206.5"/>
<text text-anchor="middle" x="76" y="-214.5" font-family="Helvetica,sans-Serif" font-size="10.00">stxxl::noncopyable</text>
</a>
</g>
<!-- Node3&#45;&gt;Node2 -->
<g id="edge4" class="edge"><title>Node3&#45;&gt;Node2</title>
<path fill="none" stroke="#8b1a1a" d="M69.9805,-196.558C67.6781,-187.838 65.2958,-177.501 64,-168 59.7425,-136.783 60.1042,-99.4142 60.6085,-81.5381"/>
<polygon fill="#8b1a1a" stroke="#8b1a1a" points="66.6184,-197.531 72.671,-206.227 73.3622,-195.655 66.6184,-197.531"/>
</g>
<!-- Node4 -->
<g id="node6" class="node"><title>Node4</title>
<a xlink:href="classstxxl_1_1singleton.html" target="_top" xlink:title="stxxl::singleton\&lt; INSTANCE,\l destroy_on_exit \&gt;">
<polygon fill="none" stroke="black" points="73,-133 73,-167 219,-167 219,-133 73,-133"/>
<text text-anchor="start" x="81" y="-154" font-family="Helvetica,sans-Serif" font-size="10.00">stxxl::singleton&lt; INSTANCE,</text>
<text text-anchor="middle" x="146" y="-141" font-family="Helvetica,sans-Serif" font-size="10.00"> destroy_on_exit &gt;</text>
</a>
</g>
<!-- Node3&#45;&gt;Node4 -->
<g id="edge8" class="edge"><title>Node3&#45;&gt;Node4</title>
<path fill="none" stroke="#8b1a1a" d="M94.638,-199.161C105.05,-189.195 117.955,-176.843 128.224,-167.014"/>
<polygon fill="#8b1a1a" stroke="#8b1a1a" points="92.0508,-196.792 87.2467,-206.235 96.891,-201.849 92.0508,-196.792"/>
</g>
<!-- Node4&#45;&gt;Node2 -->
<g id="edge6" class="edge"><title>Node4&#45;&gt;Node2</title>
<path fill="none" stroke="orange" stroke-dasharray="5,2" d="M120.076,-125.906C104.135,-111.09 84.5036,-92.8445 72.3698,-81.5672"/>
<polygon fill="orange" stroke="orange" points="117.849,-128.614 127.556,-132.858 122.614,-123.487 117.849,-128.614"/>
<text text-anchor="middle" x="127.5" y="-104.5" font-family="Helvetica,sans-Serif" font-size="10.00"> &lt; stats &gt;</text>
</g>
</g>
</svg>
