<?xml version="1.0" encoding="UTF-8" standalone="no"?>
<!DOCTYPE svg PUBLIC "-//W3C//DTD SVG 1.1//EN"
 "http://www.w3.org/Graphics/SVG/1.1/DTD/svg11.dtd">
<!-- Generated by graphviz version 2.38.0 (20140413.2041)
 -->
<!-- Title: stxxl::parallel::LoserTreeCopyBase&lt; ValueType, Comparator &gt; Pages: 1 -->
<svg width="389pt" height="99pt"
 viewBox="0.00 0.00 389.00 98.50" xmlns="http://www.w3.org/2000/svg" xmlns:xlink="http://www.w3.org/1999/xlink">
<g id="graph0" class="graph" transform="scale(1 1) rotate(0) translate(4 94.5)">
<title>stxxl::parallel::LoserTreeCopyBase&lt; ValueType, Comparator &gt;</title>
<!-- Node1 -->
<g id="node1" class="node"><title>Node1</title>
<polygon fill="#bfbfbf" stroke="black" points="0,-33 0,-63 184,-63 184,-33 0,-33"/>
<text text-anchor="start" x="8" y="-51" font-family="Helvetica,sans-Serif" font-size="10.00">stxxl::parallel::LoserTree</text>
<text text-anchor="middle" x="92" y="-40" font-family="Helvetica,sans-Serif" font-size="10.00">CopyBase&lt; ValueType, Comparator &gt;</text>
</g>
<!-- Node2 -->
<g id="node2" class="node"><title>Node2</title>
<g id="a_node2"><a xlink:href="classstxxl_1_1parallel_1_1LoserTreeCopy.html" target="_top" xlink:title="stxxl::parallel::LoserTree\lCopy\&lt; ValueType, Comparator \&gt;">
<polygon fill="none" stroke="black" points="220,-60 220,-90 381,-90 381,-60 220,-60"/>
<text text-anchor="start" x="228" y="-78" font-family="Helvetica,sans-Serif" font-size="10.00">stxxl::parallel::LoserTree</text>
<text text-anchor="middle" x="300.5" y="-67" font-family="Helvetica,sans-Serif" font-size="10.00">Copy&lt; ValueType, Comparator &gt;</text>
</a>
</g>
</g>
<!-- Node1&#45;&gt;Node2 -->
<g id="edge1" class="edge"><title>Node1&#45;&gt;Node2</title>
<path fill="none" stroke="midnightblue" d="M194.24,-61.2372C202.833,-62.3608 211.445,-63.4867 219.837,-64.584"/>
<polygon fill="midnightblue" stroke="midnightblue" points="194.544,-57.7473 184.175,-59.9212 193.637,-64.6882 194.544,-57.7473"/>
</g>
<!-- Node3 -->
<g id="node3" class="node"><title>Node3</title>
<g id="a_node3"><a xlink:href="classstxxl_1_1parallel_1_1LoserTreeCopy_3_01true_00_01ValueType_00_01Comparator_01_4.html" target="_top" xlink:title="stxxl::parallel::LoserTree\lCopy\&lt; true, ValueType,\l Comparator \&gt;">
<polygon fill="none" stroke="black" points="238.5,-0.5 238.5,-41.5 362.5,-41.5 362.5,-0.5 238.5,-0.5"/>
<text text-anchor="start" x="246.5" y="-29.5" font-family="Helvetica,sans-Serif" font-size="10.00">stxxl::parallel::LoserTree</text>
<text text-anchor="start" x="246.5" y="-18.5" font-family="Helvetica,sans-Serif" font-size="10.00">Copy&lt; true, ValueType,</text>
<text text-anchor="middle" x="300.5" y="-7.5" font-family="Helvetica,sans-Serif" font-size="10.00"> Comparator &gt;</text>
</a>
</g>
</g>
<!-- Node1&#45;&gt;Node3 -->
<g id="edge2" class="edge"><title>Node1&#45;&gt;Node3</title>
<path fill="none" stroke="midnightblue" d="M194.113,-34.7795C209.269,-32.7977 224.487,-30.8079 238.46,-28.981"/>
<polygon fill="midnightblue" stroke="midnightblue" points="193.637,-31.3118 184.175,-36.0788 194.544,-38.2527 193.637,-31.3118"/>
</g>
</g>
</svg>
