<?xml version="1.0" encoding="UTF-8" standalone="no"?>
<!DOCTYPE svg PUBLIC "-//W3C//DTD SVG 1.1//EN"
 "http://www.w3.org/Graphics/SVG/1.1/DTD/svg11.dtd">
<!-- Generated by graphviz version 2.38.0 (20140413.2041)
 -->
<!-- Title: stxxl::swappable_block_matrix&lt; ValueType, BlockSideLength &gt; Pages: 1 -->
<svg width="1655pt" height="364pt"
 viewBox="0.00 0.00 1655.00 363.50" xmlns="http://www.w3.org/2000/svg" xmlns:xlink="http://www.w3.org/1999/xlink">
<g id="graph0" class="graph" transform="scale(1 1) rotate(0) translate(4 359.5)">
<title>stxxl::swappable_block_matrix&lt; ValueType, BlockSideLength &gt;</title>
<!-- Node1 -->
<g id="node1" class="node"><title>Node1</title>
<polygon fill="#bfbfbf" stroke="black" points="1492,-234 1492,-275 1647,-275 1647,-234 1492,-234"/>
<text text-anchor="start" x="1500" y="-263" font-family="Helvetica,sans-Serif" font-size="10.00">stxxl::swappable_block</text>
<text text-anchor="start" x="1500" y="-252" font-family="Helvetica,sans-Serif" font-size="10.00">_matrix&lt; ValueType, BlockSide</text>
<text text-anchor="middle" x="1569.5" y="-241" font-family="Helvetica,sans-Serif" font-size="10.00">Length &gt;</text>
</g>
<!-- Node2 -->
<g id="node2" class="node"><title>Node2</title>
<g id="a_node2"><a xlink:href="classstxxl_1_1atomic__counted__object.html" target="_top" xlink:title="Provides reference counting abilities for use with counting_ptr with mutex locking. ">
<polygon fill="none" stroke="black" points="551,-224.5 551,-254.5 664,-254.5 664,-224.5 551,-224.5"/>
<text text-anchor="start" x="559" y="-242.5" font-family="Helvetica,sans-Serif" font-size="10.00">stxxl::atomic_counted</text>
<text text-anchor="middle" x="607.5" y="-231.5" font-family="Helvetica,sans-Serif" font-size="10.00">_object</text>
</a>
</g>
</g>
<!-- Node2&#45;&gt;Node1 -->
<g id="edge1" class="edge"><title>Node2&#45;&gt;Node1</title>
<path fill="none" stroke="midnightblue" d="M674.308,-236.336C709.761,-234.892 754.262,-233.5 794,-233.5 794,-233.5 794,-233.5 1378.5,-233.5 1416,-233.5 1457.42,-237.592 1491.98,-242.163"/>
<polygon fill="midnightblue" stroke="midnightblue" points="673.932,-232.848 664.087,-236.763 674.225,-239.842 673.932,-232.848"/>
</g>
<!-- Node11 -->
<g id="node11" class="node"><title>Node11</title>
<g id="a_node11"><a xlink:href="classstxxl_1_1file.html" target="_top" xlink:title="Defines interface of file. ">
<polygon fill="none" stroke="black" points="767,-126 767,-145 823,-145 823,-126 767,-126"/>
<text text-anchor="middle" x="795" y="-133" font-family="Helvetica,sans-Serif" font-size="10.00">stxxl::file</text>
</a>
</g>
</g>
<!-- Node2&#45;&gt;Node11 -->
<g id="edge15" class="edge"><title>Node2&#45;&gt;Node11</title>
<path fill="none" stroke="#9a32cd" stroke-dasharray="5,2" d="M625.107,-216.271C638.737,-198.904 659.559,-175.929 683,-162.5 709.157,-147.515 743.385,-140.806 766.877,-137.828"/>
<polygon fill="#9a32cd" stroke="#9a32cd" points="622.283,-214.202 619.014,-224.28 627.854,-218.441 622.283,-214.202"/>
<text text-anchor="middle" x="716" y="-165.5" font-family="Helvetica,sans-Serif" font-size="10.00"> m_request_ref</text>
</g>
<!-- Node3 -->
<g id="node3" class="node"><title>Node3</title>
<g id="a_node3"><a xlink:href="classstxxl_1_1mutex.html" target="_top" xlink:title="stxxl::mutex">
<polygon fill="none" stroke="black" points="286.5,-186 286.5,-205 357.5,-205 357.5,-186 286.5,-186"/>
<text text-anchor="middle" x="322" y="-193" font-family="Helvetica,sans-Serif" font-size="10.00">stxxl::mutex</text>
</a>
</g>
</g>
<!-- Node3&#45;&gt;Node2 -->
<g id="edge2" class="edge"><title>Node3&#45;&gt;Node2</title>
<path fill="none" stroke="#9a32cd" stroke-dasharray="5,2" d="M367.867,-202.463C417.473,-210.162 497.432,-222.572 550.954,-230.879"/>
<polygon fill="#9a32cd" stroke="#9a32cd" points="368.181,-198.97 357.763,-200.895 367.108,-205.888 368.181,-198.97"/>
<text text-anchor="middle" x="472.5" y="-231.5" font-family="Helvetica,sans-Serif" font-size="10.00"> m_reference_count_mutex</text>
</g>
<!-- Node12 -->
<g id="node12" class="node"><title>Node12</title>
<g id="a_node12"><a xlink:href="classstxxl_1_1disk__allocator.html" target="_top" xlink:title="stxxl::disk_allocator">
<polygon fill="none" stroke="black" points="941,-114 941,-133 1045,-133 1045,-114 941,-114"/>
<text text-anchor="middle" x="993" y="-121" font-family="Helvetica,sans-Serif" font-size="10.00">stxxl::disk_allocator</text>
</a>
</g>
</g>
<!-- Node3&#45;&gt;Node12 -->
<g id="edge19" class="edge"><title>Node3&#45;&gt;Node12</title>
<path fill="none" stroke="#9a32cd" stroke-dasharray="5,2" d="M367.949,-197.029C468.896,-199.375 720.598,-199.138 923,-148.5 938.821,-144.542 956.071,-138.292 969.366,-133.031"/>
<polygon fill="#9a32cd" stroke="#9a32cd" points="367.892,-193.526 357.807,-196.772 367.715,-200.524 367.892,-193.526"/>
<text text-anchor="middle" x="716" y="-190.5" font-family="Helvetica,sans-Serif" font-size="10.00"> mutex</text>
</g>
<!-- Node4 -->
<g id="node4" class="node"><title>Node4</title>
<g id="a_node4"><a xlink:href="classstxxl_1_1noncopyable.html" target="_top" xlink:title="stxxl::noncopyable">
<polygon fill="none" stroke="black" points="11,-107 11,-126 109,-126 109,-107 11,-107"/>
<text text-anchor="middle" x="60" y="-114" font-family="Helvetica,sans-Serif" font-size="10.00">stxxl::noncopyable</text>
</a>
</g>
</g>
<!-- Node4&#45;&gt;Node3 -->
<g id="edge3" class="edge"><title>Node4&#45;&gt;Node3</title>
<path fill="none" stroke="#8b1a1a" d="M90.1912,-130.308C104.408,-136.696 121.877,-144.057 138,-149.5 188.747,-166.632 249.319,-180.644 286.466,-188.533"/>
<polygon fill="#8b1a1a" stroke="#8b1a1a" points="91.4748,-127.046 80.9245,-126.076 88.5668,-133.414 91.4748,-127.046"/>
</g>
<!-- Node7 -->
<g id="node7" class="node"><title>Node7</title>
<g id="a_node7"><a xlink:href="classstxxl_1_1block__scheduler.html" target="_top" xlink:title="Schedules swapping of blocks and provides blocks for temporary storage. ">
<polygon fill="none" stroke="black" points="1313,-269.5 1313,-299.5 1442,-299.5 1442,-269.5 1313,-269.5"/>
<text text-anchor="start" x="1321" y="-287.5" font-family="Helvetica,sans-Serif" font-size="10.00">stxxl::block_scheduler</text>
<text text-anchor="middle" x="1377.5" y="-276.5" font-family="Helvetica,sans-Serif" font-size="10.00">&lt; SwappableBlockType &gt;</text>
</a>
</g>
</g>
<!-- Node4&#45;&gt;Node7 -->
<g id="edge7" class="edge"><title>Node4&#45;&gt;Node7</title>
<path fill="none" stroke="#8b1a1a" d="M74.141,-134.161C108.994,-178.778 208.832,-292.5 321,-292.5 321,-292.5 321,-292.5 1206,-292.5 1241.41,-292.5 1280.92,-290.757 1312.97,-288.898"/>
<polygon fill="#8b1a1a" stroke="#8b1a1a" points="76.9122,-132.023 68.0524,-126.213 71.3554,-136.28 76.9122,-132.023"/>
</g>
<!-- Node9 -->
<g id="node9" class="node"><title>Node9</title>
<g id="a_node9"><a xlink:href="classstxxl_1_1singleton.html" target="_top" xlink:title="stxxl::singleton\&lt; block\l_manager \&gt;">
<polygon fill="none" stroke="black" points="550,-13.5 550,-43.5 665,-43.5 665,-13.5 550,-13.5"/>
<text text-anchor="start" x="558" y="-31.5" font-family="Helvetica,sans-Serif" font-size="10.00">stxxl::singleton&lt; block</text>
<text text-anchor="middle" x="607.5" y="-20.5" font-family="Helvetica,sans-Serif" font-size="10.00">_manager &gt;</text>
</a>
</g>
</g>
<!-- Node4&#45;&gt;Node9 -->
<g id="edge10" class="edge"><title>Node4&#45;&gt;Node9</title>
<path fill="none" stroke="#8b1a1a" d="M88.4324,-102.387C102.827,-95.5943 120.97,-87.972 138,-83.5 308.375,-38.7601 357.433,-64.0693 532,-40.5 537.712,-39.7287 543.662,-38.8681 549.599,-37.9716"/>
<polygon fill="#8b1a1a" stroke="#8b1a1a" points="86.5908,-99.3908 79.1254,-106.909 89.6496,-105.687 86.5908,-99.3908"/>
</g>
<!-- Node10 -->
<g id="node10" class="node"><title>Node10</title>
<g id="a_node10"><a xlink:href="classstxxl_1_1singleton.html" target="_top" xlink:title="stxxl::singleton\&lt; INSTANCE,\l destroy_on_exit \&gt;">
<polygon fill="none" stroke="black" points="249,-0.5 249,-30.5 395,-30.5 395,-0.5 249,-0.5"/>
<text text-anchor="start" x="257" y="-18.5" font-family="Helvetica,sans-Serif" font-size="10.00">stxxl::singleton&lt; INSTANCE,</text>
<text text-anchor="middle" x="322" y="-7.5" font-family="Helvetica,sans-Serif" font-size="10.00"> destroy_on_exit &gt;</text>
</a>
</g>
</g>
<!-- Node4&#45;&gt;Node10 -->
<g id="edge12" class="edge"><title>Node4&#45;&gt;Node10</title>
<path fill="none" stroke="#8b1a1a" d="M74.7557,-98.9108C88.7827,-82.3052 112.112,-58.123 138,-45.5 172.147,-28.8497 213.695,-21.175 248.567,-17.7391"/>
<polygon fill="#8b1a1a" stroke="#8b1a1a" points="71.9237,-96.8451 68.3041,-106.802 77.3432,-101.276 71.9237,-96.8451"/>
</g>
<!-- Node4&#45;&gt;Node11 -->
<g id="edge14" class="edge"><title>Node4&#45;&gt;Node11</title>
<path fill="none" stroke="#8b1a1a" d="M119.426,-118.014C268.839,-121.887 660.571,-132.041 766.988,-134.8"/>
<polygon fill="#8b1a1a" stroke="#8b1a1a" points="119.182,-114.507 109.094,-117.747 119,-121.505 119.182,-114.507"/>
</g>
<!-- Node4&#45;&gt;Node12 -->
<g id="edge17" class="edge"><title>Node4&#45;&gt;Node12</title>
<path fill="none" stroke="#8b1a1a" d="M119.479,-109.778C172.116,-104.312 251.626,-97.5 321,-97.5 321,-97.5 321,-97.5 717,-97.5 795.408,-97.5 885.835,-108.105 940.946,-115.77"/>
<polygon fill="#8b1a1a" stroke="#8b1a1a" points="118.898,-106.32 109.321,-110.851 119.634,-113.281 118.898,-106.32"/>
</g>
<!-- Node5 -->
<g id="node5" class="node"><title>Node5</title>
<g id="a_node5"><a xlink:href="structstxxl_1_1choose__int__types.html" target="_top" xlink:title="stxxl::choose_int_types\l\&lt; my_pointer_size \&gt;">
<polygon fill="none" stroke="black" points="262,-321.5 262,-351.5 382,-351.5 382,-321.5 262,-321.5"/>
<text text-anchor="start" x="270" y="-339.5" font-family="Helvetica,sans-Serif" font-size="10.00">stxxl::choose_int_types</text>
<text text-anchor="middle" x="322" y="-328.5" font-family="Helvetica,sans-Serif" font-size="10.00">&lt; my_pointer_size &gt;</text>
</a>
</g>
</g>
<!-- Node5&#45;&gt;Node2 -->
<g id="edge4" class="edge"><title>Node5&#45;&gt;Node2</title>
<path fill="none" stroke="#9a32cd" stroke-dasharray="5,2" d="M376.69,-318.13C430.483,-299.725 512.294,-271.733 562.411,-254.585"/>
<polygon fill="#9a32cd" stroke="#9a32cd" points="375.314,-314.901 366.986,-321.45 377.58,-321.524 375.314,-314.901"/>
<text text-anchor="middle" x="472.5" y="-308.5" font-family="Helvetica,sans-Serif" font-size="10.00"> m_reference_count</text>
</g>
<!-- Node5&#45;&gt;Node7 -->
<g id="edge20" class="edge"><title>Node5&#45;&gt;Node7</title>
<path fill="none" stroke="#9a32cd" stroke-dasharray="5,2" d="M392.229,-335.359C449.628,-334.511 533.367,-333.5 606.5,-333.5 606.5,-333.5 606.5,-333.5 1206,-333.5 1255.74,-333.5 1310.58,-313.999 1344.29,-299.601"/>
<polygon fill="#9a32cd" stroke="#9a32cd" points="392.13,-331.86 382.183,-335.509 392.235,-338.859 392.13,-331.86"/>
<text text-anchor="start" x="841" y="-347.5" font-family="Helvetica,sans-Serif" font-size="10.00"> remaining_internal</text>
<text text-anchor="middle" x="882" y="-336.5" font-family="Helvetica,sans-Serif" font-size="10.00">_blocks</text>
</g>
<!-- Node6 -->
<g id="node6" class="node"><title>Node6</title>
<g id="a_node6"><a xlink:href="structstxxl_1_1choose__int__types.html" target="_top" xlink:title="stxxl::choose_int_types\l\&lt; PtrSize \&gt;">
<polygon fill="none" stroke="black" points="0,-321.5 0,-351.5 120,-351.5 120,-321.5 0,-321.5"/>
<text text-anchor="start" x="8" y="-339.5" font-family="Helvetica,sans-Serif" font-size="10.00">stxxl::choose_int_types</text>
<text text-anchor="middle" x="60" y="-328.5" font-family="Helvetica,sans-Serif" font-size="10.00">&lt; PtrSize &gt;</text>
</a>
</g>
</g>
<!-- Node6&#45;&gt;Node5 -->
<g id="edge5" class="edge"><title>Node6&#45;&gt;Node5</title>
<path fill="none" stroke="orange" stroke-dasharray="5,2" d="M130.515,-336.5C171.531,-336.5 222.884,-336.5 261.931,-336.5"/>
<polygon fill="orange" stroke="orange" points="130.323,-333 120.323,-336.5 130.323,-340 130.323,-333"/>
<text text-anchor="middle" x="184.5" y="-339.5" font-family="Helvetica,sans-Serif" font-size="10.00"> &lt; my_pointer_size &gt;</text>
</g>
<!-- Node7&#45;&gt;Node1 -->
<g id="edge6" class="edge"><title>Node7&#45;&gt;Node1</title>
<path fill="none" stroke="#9a32cd" stroke-dasharray="5,2" d="M1452.29,-272.848C1465.26,-270.801 1478.79,-268.665 1491.83,-266.605"/>
<polygon fill="#9a32cd" stroke="#9a32cd" points="1451.36,-269.452 1442.03,-274.469 1452.45,-276.366 1451.36,-269.452"/>
<text text-anchor="middle" x="1467" y="-274.5" font-family="Helvetica,sans-Serif" font-size="10.00"> bs</text>
</g>
<!-- Node8 -->
<g id="node8" class="node"><title>Node8</title>
<g id="a_node8"><a xlink:href="classstxxl_1_1block__manager.html" target="_top" xlink:title="Block manager class. ">
<polygon fill="none" stroke="black" points="1150,-85 1150,-104 1260,-104 1260,-85 1150,-85"/>
<text text-anchor="middle" x="1205" y="-92" font-family="Helvetica,sans-Serif" font-size="10.00">stxxl::block_manager</text>
</a>
</g>
</g>
<!-- Node8&#45;&gt;Node7 -->
<g id="edge8" class="edge"><title>Node8&#45;&gt;Node7</title>
<path fill="none" stroke="#9a32cd" stroke-dasharray="5,2" d="M1221.38,-111.638C1254.37,-148.403 1331.48,-234.337 1362.86,-269.299"/>
<polygon fill="#9a32cd" stroke="#9a32cd" points="1223.97,-109.288 1214.69,-104.183 1218.76,-113.964 1223.97,-109.288"/>
<text text-anchor="middle" x="1286.5" y="-192.5" font-family="Helvetica,sans-Serif" font-size="10.00"> bm</text>
</g>
<!-- Node9&#45;&gt;Node8 -->
<g id="edge9" class="edge"><title>Node9&#45;&gt;Node8</title>
<path fill="none" stroke="midnightblue" d="M675.415,-34.0568C775.113,-42.6403 968.461,-60.4589 1132,-82.5 1137.78,-83.2786 1143.8,-84.1649 1149.8,-85.0949"/>
<polygon fill="midnightblue" stroke="midnightblue" points="675.45,-30.5471 665.188,-33.1805 674.853,-37.5215 675.45,-30.5471"/>
</g>
<!-- Node10&#45;&gt;Node9 -->
<g id="edge11" class="edge"><title>Node10&#45;&gt;Node9</title>
<path fill="none" stroke="orange" stroke-dasharray="5,2" d="M405.283,-19.2731C451.565,-21.3954 508.178,-23.9914 549.55,-25.8886"/>
<polygon fill="orange" stroke="orange" points="405.422,-15.7759 395.273,-18.8141 405.102,-22.7686 405.422,-15.7759"/>
<text text-anchor="middle" x="472.5" y="-28.5" font-family="Helvetica,sans-Serif" font-size="10.00"> &lt; block_manager &gt;</text>
</g>
<!-- Node11&#45;&gt;Node8 -->
<g id="edge13" class="edge"><title>Node11&#45;&gt;Node8</title>
<path fill="none" stroke="#9a32cd" stroke-dasharray="5,2" d="M830.591,-122.485C859.595,-112.304 902.353,-98.9845 941,-93.5 1012.65,-83.3316 1096.4,-86.1379 1149.79,-89.7504"/>
<polygon fill="#9a32cd" stroke="#9a32cd" points="829.172,-119.275 820.934,-125.937 831.529,-125.866 829.172,-119.275"/>
<text text-anchor="middle" x="993" y="-96.5" font-family="Helvetica,sans-Serif" font-size="10.00"> disk_files</text>
</g>
<!-- Node11&#45;&gt;Node12 -->
<g id="edge18" class="edge"><title>Node11&#45;&gt;Node12</title>
<path fill="none" stroke="#9a32cd" stroke-dasharray="5,2" d="M833.446,-133.207C863.877,-131.344 907.119,-128.697 940.759,-126.637"/>
<polygon fill="#9a32cd" stroke="#9a32cd" points="833.02,-129.727 823.253,-133.831 833.448,-136.714 833.02,-129.727"/>
<text text-anchor="middle" x="882" y="-136.5" font-family="Helvetica,sans-Serif" font-size="10.00"> storage</text>
</g>
<!-- Node12&#45;&gt;Node8 -->
<g id="edge16" class="edge"><title>Node12&#45;&gt;Node8</title>
<path fill="none" stroke="#9a32cd" stroke-dasharray="5,2" d="M1055.02,-115.074C1084.97,-110.938 1120.74,-105.998 1149.73,-101.995"/>
<polygon fill="#9a32cd" stroke="#9a32cd" points="1054.53,-111.608 1045.1,-116.443 1055.49,-118.542 1054.53,-111.608"/>
<text text-anchor="middle" x="1097.5" y="-116.5" font-family="Helvetica,sans-Serif" font-size="10.00"> disk_allocators</text>
</g>
</g>
</svg>
