<?xml version="1.0" encoding="UTF-8" standalone="no"?>
<!DOCTYPE svg PUBLIC "-//W3C//DTD SVG 1.1//EN"
 "http://www.w3.org/Graphics/SVG/1.1/DTD/svg11.dtd">
<!-- Generated by graphviz version 2.26.3 (20100126.1600)
 -->
<!-- Title: stxxl::stats Pages: 1 -->
<svg width="242pt" height="274pt"
 viewBox="0.00 0.00 242.46 274.00" xmlns="http://www.w3.org/2000/svg" xmlns:xlink="http://www.w3.org/1999/xlink">
<g id="graph1" class="graph" transform="scale(1 1) rotate(0) translate(4 270)">
<title>stxxl::stats</title>
<!-- Node1 -->
<g id="node1" class="node"><title>Node1</title>
<polygon fill="#bfbfbf" stroke="black" points="126.956,-0.5 126.956,-21.5 191.956,-21.5 191.956,-0.5 126.956,-0.5"/>
<text text-anchor="middle" x="159.456" y="-8.5" font-family="Helvetica,sans-Serif" font-size="10.00">stxxl::stats</text>
</g>
<!-- Node2 -->
<g id="node2" class="node"><title>Node2</title>
<a xlink:href="classstxxl_1_1singleton.html" target="_top" xlink:title="stxxl::singleton\&lt; stats \&gt;">
<polygon fill="none" stroke="black" points="26.4563,-75.5 26.4563,-96.5 148.456,-96.5 148.456,-75.5 26.4563,-75.5"/>
<text text-anchor="middle" x="87.4563" y="-83.5" font-family="Helvetica,sans-Serif" font-size="10.00">stxxl::singleton&lt; stats &gt;</text>
</a>
</g>
<!-- Node2&#45;&gt;Node1 -->
<g id="edge2" class="edge"><title>Node2&#45;&gt;Node1</title>
<path fill="none" stroke="midnightblue" d="M104.866,-67.8648C118.714,-53.44 137.619,-33.747 149.16,-21.7257"/>
<polygon fill="midnightblue" stroke="midnightblue" points="102.173,-65.6166 97.7721,-75.2543 107.222,-70.4643 102.173,-65.6166"/>
</g>
<!-- Node3 -->
<g id="node4" class="node"><title>Node3</title>
<a xlink:href="classstxxl_1_1noncopyable.html" target="_top" xlink:title="stxxl::noncopyable">
<polygon fill="none" stroke="black" points="38.4563,-244.5 38.4563,-265.5 136.456,-265.5 136.456,-244.5 38.4563,-244.5"/>
<text text-anchor="middle" x="87.4563" y="-252.5" font-family="Helvetica,sans-Serif" font-size="10.00">stxxl::noncopyable</text>
</a>
</g>
<!-- Node3&#45;&gt;Node2 -->
<g id="edge4" class="edge"><title>Node3&#45;&gt;Node2</title>
<path fill="none" stroke="#8b1a1a" d="M44.925,-239.994C29.681,-232.319 14.1313,-221.29 5.45628,-206 -2.43939,-192.084 -0.577497,-184.819 5.45628,-170 18.6753,-137.535 51.1474,-110.776 71.0339,-96.7105"/>
<polygon fill="#8b1a1a" stroke="#8b1a1a" points="43.7684,-243.315 54.3129,-244.347 46.7134,-236.965 43.7684,-243.315"/>
</g>
<!-- Node4 -->
<g id="node6" class="node"><title>Node4</title>
<a xlink:href="classstxxl_1_1singleton.html" target="_top" xlink:title="stxxl::singleton\&lt; INSTANCE,\l destroy_on_exit \&gt;">
<polygon fill="none" stroke="black" points="14.4563,-171 14.4563,-205 160.456,-205 160.456,-171 14.4563,-171"/>
<text text-anchor="start" x="22.4563" y="-192" font-family="Helvetica,sans-Serif" font-size="10.00">stxxl::singleton&lt; INSTANCE,</text>
<text text-anchor="middle" x="87.4563" y="-179" font-family="Helvetica,sans-Serif" font-size="10.00"> destroy_on_exit &gt;</text>
</a>
</g>
<!-- Node3&#45;&gt;Node4 -->
<g id="edge8" class="edge"><title>Node3&#45;&gt;Node4</title>
<path fill="none" stroke="#8b1a1a" d="M87.4563,-234.165C87.4563,-224.797 87.4563,-213.88 87.4563,-205.014"/>
<polygon fill="#8b1a1a" stroke="#8b1a1a" points="83.9564,-234.235 87.4563,-244.235 90.9564,-234.235 83.9564,-234.235"/>
</g>
<!-- Node5 -->
<g id="node9" class="node"><title>Node5</title>
<a xlink:href="classstxxl_1_1mutex.html" target="_top" xlink:title="stxxl::mutex">
<polygon fill="none" stroke="black" points="151.956,-130.5 151.956,-151.5 222.956,-151.5 222.956,-130.5 151.956,-130.5"/>
<text text-anchor="middle" x="187.456" y="-138.5" font-family="Helvetica,sans-Serif" font-size="10.00">stxxl::mutex</text>
</a>
</g>
<!-- Node3&#45;&gt;Node5 -->
<g id="edge12" class="edge"><title>Node3&#45;&gt;Node5</title>
<path fill="none" stroke="#8b1a1a" d="M125.06,-240.134C140.835,-232.17 158.113,-220.886 169.456,-206 181.805,-189.795 185.683,-165.59 186.9,-151.747"/>
<polygon fill="#8b1a1a" stroke="#8b1a1a" points="123.529,-236.987 116.002,-244.443 126.536,-243.308 123.529,-236.987"/>
</g>
<!-- Node4&#45;&gt;Node2 -->
<g id="edge6" class="edge"><title>Node4&#45;&gt;Node2</title>
<path fill="none" stroke="orange" stroke-dasharray="5,2" d="M87.4563,-160.691C87.4563,-139.581 87.4563,-111.511 87.4563,-96.5093"/>
<polygon fill="orange" stroke="orange" points="83.9564,-160.697 87.4563,-170.697 90.9564,-160.697 83.9564,-160.697"/>
<text text-anchor="middle" x="108.956" y="-138.5" font-family="Helvetica,sans-Serif" font-size="10.00"> &lt; stats &gt;</text>
</g>
<!-- Node5&#45;&gt;Node1 -->
<g id="edge10" class="edge"><title>Node5&#45;&gt;Node1</title>
<path fill="none" stroke="#9a32cd" stroke-dasharray="5,2" d="M183.03,-120.45C177.006,-92.4795 166.441,-43.4308 161.779,-21.7854"/>
<polygon fill="#9a32cd" stroke="#9a32cd" points="179.638,-121.323 185.165,-130.362 186.481,-119.849 179.638,-121.323"/>
<text text-anchor="middle" x="207.456" y="-103" font-family="Helvetica,sans-Serif" font-size="10.00"> io_mutex</text>
<text text-anchor="middle" x="207.456" y="-90" font-family="Helvetica,sans-Serif" font-size="10.00">read_mutex</text>
<text text-anchor="middle" x="207.456" y="-77" font-family="Helvetica,sans-Serif" font-size="10.00">wait_mutex</text>
<text text-anchor="middle" x="207.456" y="-64" font-family="Helvetica,sans-Serif" font-size="10.00">write_mutex</text>
</g>
</g>
</svg>
