<?xml version="1.0" encoding="UTF-8" standalone="no"?>
<!DOCTYPE svg PUBLIC "-//W3C//DTD SVG 1.1//EN"
 "http://www.w3.org/Graphics/SVG/1.1/DTD/svg11.dtd">
<!-- Generated by graphviz version 2.38.0 (20140413.2041)
 -->
<!-- Title: stxxl::buffered_writer&lt; BlockType &gt; Pages: 1 -->
<svg width="221pt" height="117pt"
 viewBox="0.00 0.00 220.50 117.00" xmlns="http://www.w3.org/2000/svg" xmlns:xlink="http://www.w3.org/1999/xlink">
<g id="graph0" class="graph" transform="scale(1 1) rotate(0) translate(4 113)">
<title>stxxl::buffered_writer&lt; BlockType &gt;</title>
<!-- Node1 -->
<g id="node1" class="node"><title>Node1</title>
<polygon fill="#bfbfbf" stroke="black" points="52,-0.5 52,-30.5 160,-30.5 160,-0.5 52,-0.5"/>
<text text-anchor="start" x="60" y="-18.5" font-family="Helvetica,sans-Serif" font-size="10.00">stxxl::buffered_writer</text>
<text text-anchor="middle" x="106" y="-7.5" font-family="Helvetica,sans-Serif" font-size="10.00">&lt; BlockType &gt;</text>
</g>
<!-- Node2 -->
<g id="node2" class="node"><title>Node2</title>
<g id="a_node2"><a xlink:href="classstxxl_1_1noncopyable.html" target="_top" xlink:title="stxxl::noncopyable">
<polygon fill="none" stroke="black" points="0,-84 0,-103 98,-103 98,-84 0,-84"/>
<text text-anchor="middle" x="49" y="-91" font-family="Helvetica,sans-Serif" font-size="10.00">stxxl::noncopyable</text>
</a>
</g>
</g>
<!-- Node2&#45;&gt;Node1 -->
<g id="edge1" class="edge"><title>Node2&#45;&gt;Node1</title>
<path fill="none" stroke="#8b1a1a" d="M61.5591,-75.7545C71.7332,-62.189 85.9027,-43.2964 95.4851,-30.5198"/>
<polygon fill="#8b1a1a" stroke="#8b1a1a" points="58.7387,-73.6818 55.5386,-83.7818 64.3387,-77.8818 58.7387,-73.6818"/>
</g>
<!-- Node3 -->
<g id="node3" class="node"><title>Node3</title>
<g id="a_node3"><a xlink:href="classstxxl_1_1counting__ptr.html" target="_top" xlink:title="High&#45;performance smart pointer used as a wrapping reference counting pointer. ">
<polygon fill="none" stroke="black" points="115.5,-78.5 115.5,-108.5 212.5,-108.5 212.5,-78.5 115.5,-78.5"/>
<text text-anchor="start" x="123.5" y="-96.5" font-family="Helvetica,sans-Serif" font-size="10.00">stxxl::counting_ptr</text>
<text text-anchor="middle" x="164" y="-85.5" font-family="Helvetica,sans-Serif" font-size="10.00">&lt; Type &gt;</text>
</a>
</g>
</g>
<!-- Node3&#45;&gt;Node1 -->
<g id="edge2" class="edge"><title>Node3&#45;&gt;Node1</title>
<path fill="none" stroke="#9a32cd" stroke-dasharray="5,2" d="M146.784,-69.9408C137.087,-57.2348 125.272,-41.7536 116.86,-30.7309"/>
<polygon fill="#9a32cd" stroke="#9a32cd" points="144.242,-72.3788 153.091,-78.205 149.806,-68.1321 144.242,-72.3788"/>
<text text-anchor="middle" x="162.5" y="-52" font-family="Helvetica,sans-Serif" font-size="10.00"> write_reqs</text>
</g>
</g>
</svg>
