<?xml version="1.0" encoding="UTF-8" standalone="no"?>
<!DOCTYPE svg PUBLIC "-//W3C//DTD SVG 1.1//EN"
 "http://www.w3.org/Graphics/SVG/1.1/DTD/svg11.dtd">
<!-- Generated by graphviz version 2.38.0 (20140413.2041)
 -->
<!-- Title: stxxl::state&lt; ValueType &gt; Pages: 1 -->
<svg width="247pt" height="163pt"
 viewBox="0.00 0.00 246.50 163.00" xmlns="http://www.w3.org/2000/svg" xmlns:xlink="http://www.w3.org/1999/xlink">
<g id="graph0" class="graph" transform="scale(1 1) rotate(0) translate(4 159)">
<title>stxxl::state&lt; ValueType &gt;</title>
<!-- Node1 -->
<g id="node1" class="node"><title>Node1</title>
<polygon fill="#bfbfbf" stroke="black" points="46.5,-78.5 46.5,-97.5 176.5,-97.5 176.5,-78.5 46.5,-78.5"/>
<text text-anchor="middle" x="111.5" y="-85.5" font-family="Helvetica,sans-Serif" font-size="10.00">stxxl::state&lt; ValueType &gt;</text>
</g>
<!-- Node3 -->
<g id="node3" class="node"><title>Node3</title>
<g id="a_node3"><a xlink:href="classstxxl_1_1state.html" target="_top" xlink:title="stxxl::state\&lt; thread\l_state \&gt;">
<polygon fill="none" stroke="black" points="0,-0.5 0,-30.5 101,-30.5 101,-0.5 0,-0.5"/>
<text text-anchor="start" x="8" y="-18.5" font-family="Helvetica,sans-Serif" font-size="10.00">stxxl::state&lt; thread</text>
<text text-anchor="middle" x="50.5" y="-7.5" font-family="Helvetica,sans-Serif" font-size="10.00">_state &gt;</text>
</a>
</g>
</g>
<!-- Node1&#45;&gt;Node3 -->
<g id="edge2" class="edge"><title>Node1&#45;&gt;Node3</title>
<path fill="none" stroke="orange" stroke-dasharray="5,2" d="M88.0794,-72.3052C83.2511,-68.6451 78.4428,-64.4748 74.5,-60 66.8591,-51.3281 60.6416,-39.8162 56.4509,-30.8134"/>
<polygon fill="orange" stroke="orange" points="86.4147,-75.4131 96.6092,-78.298 90.4388,-69.6854 86.4147,-75.4131"/>
<text text-anchor="middle" x="112.5" y="-52" font-family="Helvetica,sans-Serif" font-size="10.00"> &lt; thread_state &gt;</text>
</g>
<!-- Node4 -->
<g id="node4" class="node"><title>Node4</title>
<g id="a_node4"><a xlink:href="classstxxl_1_1state.html" target="_top" xlink:title="stxxl::state\&lt; request\l_state \&gt;">
<polygon fill="none" stroke="black" points="119,-0.5 119,-30.5 226,-30.5 226,-0.5 119,-0.5"/>
<text text-anchor="start" x="127" y="-18.5" font-family="Helvetica,sans-Serif" font-size="10.00">stxxl::state&lt; request</text>
<text text-anchor="middle" x="172.5" y="-7.5" font-family="Helvetica,sans-Serif" font-size="10.00">_state &gt;</text>
</a>
</g>
</g>
<!-- Node1&#45;&gt;Node4 -->
<g id="edge3" class="edge"><title>Node1&#45;&gt;Node4</title>
<path fill="none" stroke="orange" stroke-dasharray="5,2" d="M136.214,-72.6651C141.335,-68.9694 146.41,-64.6935 150.5,-60 157.95,-51.4499 163.628,-39.9323 167.349,-30.8963"/>
<polygon fill="orange" stroke="orange" points="134.11,-69.8606 127.715,-78.3081 137.982,-75.692 134.11,-69.8606"/>
<text text-anchor="middle" x="198" y="-52" font-family="Helvetica,sans-Serif" font-size="10.00"> &lt; request_state &gt;</text>
</g>
<!-- Node2 -->
<g id="node2" class="node"><title>Node2</title>
<g id="a_node2"><a xlink:href="classstxxl_1_1noncopyable.html" target="_top" xlink:title="stxxl::noncopyable">
<polygon fill="none" stroke="black" points="62.5,-135.5 62.5,-154.5 160.5,-154.5 160.5,-135.5 62.5,-135.5"/>
<text text-anchor="middle" x="111.5" y="-142.5" font-family="Helvetica,sans-Serif" font-size="10.00">stxxl::noncopyable</text>
</a>
</g>
</g>
<!-- Node2&#45;&gt;Node1 -->
<g id="edge1" class="edge"><title>Node2&#45;&gt;Node1</title>
<path fill="none" stroke="#8b1a1a" d="M111.5,-125.117C111.5,-115.817 111.5,-105.056 111.5,-97.7149"/>
<polygon fill="#8b1a1a" stroke="#8b1a1a" points="108,-125.406 111.5,-135.406 115,-125.406 108,-125.406"/>
</g>
</g>
</svg>
