<?xml version="1.0" encoding="UTF-8" standalone="no"?>
<!DOCTYPE svg PUBLIC "-//W3C//DTD SVG 1.1//EN"
 "http://www.w3.org/Graphics/SVG/1.1/DTD/svg11.dtd">
<!-- Generated by graphviz version 2.26.3 (20100126.1600)
 -->
<!-- Title: stxxl::ppq_local::internal_array&lt; ValueType &gt; Pages: 1 -->
<svg width="277pt" height="228pt"
 viewBox="0.00 0.00 277.00 228.00" xmlns="http://www.w3.org/2000/svg" xmlns:xlink="http://www.w3.org/1999/xlink">
<g id="graph1" class="graph" transform="scale(1 1) rotate(0) translate(4 224)">
<title>stxxl::ppq_local::internal_array&lt; ValueType &gt;</title>
<!-- Node1 -->
<g id="node1" class="node"><title>Node1</title>
<polygon fill="#bfbfbf" stroke="black" points="28,-1 28,-35 150,-35 150,-1 28,-1"/>
<text text-anchor="start" x="36" y="-22" font-family="Helvetica,sans-Serif" font-size="10.00">stxxl::ppq_local::internal</text>
<text text-anchor="middle" x="89" y="-9" font-family="Helvetica,sans-Serif" font-size="10.00">_array&lt; ValueType &gt;</text>
</g>
<!-- Node2 -->
<g id="node2" class="node"><title>Node2</title>
<a xlink:href="classstxxl_1_1noncopyable.html" target="_top" xlink:title="stxxl::noncopyable">
<polygon fill="none" stroke="black" points="0,-105.5 0,-126.5 98,-126.5 98,-105.5 0,-105.5"/>
<text text-anchor="middle" x="49" y="-113.5" font-family="Helvetica,sans-Serif" font-size="10.00">stxxl::noncopyable</text>
</a>
</g>
<!-- Node2&#45;&gt;Node1 -->
<g id="edge2" class="edge"><title>Node2&#45;&gt;Node1</title>
<path fill="none" stroke="#8b1a1a" d="M57.3106,-95.6389C64.6116,-77.7515 75.1149,-52.0186 81.9968,-35.1579"/>
<polygon fill="#8b1a1a" stroke="#8b1a1a" points="53.9721,-94.5567 53.4335,-105.138 60.453,-97.202 53.9721,-94.5567"/>
</g>
<!-- Node3 -->
<g id="node4" class="node"><title>Node3</title>
<a xlink:href="structstxxl_1_1choose__int__types.html" target="_top" xlink:title="stxxl::choose_int_types\l\&lt; my_pointer_size \&gt;">
<polygon fill="none" stroke="black" points="116,-99 116,-133 236,-133 236,-99 116,-99"/>
<text text-anchor="start" x="124" y="-120" font-family="Helvetica,sans-Serif" font-size="10.00">stxxl::choose_int_types</text>
<text text-anchor="middle" x="176" y="-107" font-family="Helvetica,sans-Serif" font-size="10.00">&lt; my_pointer_size &gt;</text>
</a>
</g>
<!-- Node3&#45;&gt;Node1 -->
<g id="edge4" class="edge"><title>Node3&#45;&gt;Node1</title>
<path fill="none" stroke="#9a32cd" stroke-dasharray="5,2" d="M154.092,-91.3221C138.547,-73.8118 118.074,-50.7498 104.272,-35.2035"/>
<polygon fill="#9a32cd" stroke="#9a32cd" points="151.589,-93.775 160.846,-98.9297 156.824,-89.1277 151.589,-93.775"/>
<text text-anchor="middle" x="172.5" y="-71" font-family="Helvetica,sans-Serif" font-size="10.00"> m_min_index</text>
<text text-anchor="middle" x="172.5" y="-58" font-family="Helvetica,sans-Serif" font-size="10.00">m_level</text>
</g>
<!-- Node4 -->
<g id="node6" class="node"><title>Node4</title>
<a xlink:href="structstxxl_1_1choose__int__types.html" target="_top" xlink:title="stxxl::choose_int_types\l\&lt; PtrSize \&gt;">
<polygon fill="none" stroke="black" points="116,-185 116,-219 236,-219 236,-185 116,-185"/>
<text text-anchor="start" x="124" y="-206" font-family="Helvetica,sans-Serif" font-size="10.00">stxxl::choose_int_types</text>
<text text-anchor="middle" x="176" y="-193" font-family="Helvetica,sans-Serif" font-size="10.00">&lt; PtrSize &gt;</text>
</a>
</g>
<!-- Node4&#45;&gt;Node3 -->
<g id="edge6" class="edge"><title>Node4&#45;&gt;Node3</title>
<path fill="none" stroke="orange" stroke-dasharray="5,2" d="M176,-174.342C176,-160.774 176,-144.861 176,-133.084"/>
<polygon fill="orange" stroke="orange" points="172.5,-174.597 176,-184.597 179.5,-174.597 172.5,-174.597"/>
<text text-anchor="middle" x="222.5" y="-156.5" font-family="Helvetica,sans-Serif" font-size="10.00"> &lt; my_pointer_size &gt;</text>
</g>
</g>
</svg>
