<?xml version="1.0" encoding="UTF-8" standalone="no"?>
<!DOCTYPE svg PUBLIC "-//W3C//DTD SVG 1.1//EN"
 "http://www.w3.org/Graphics/SVG/1.1/DTD/svg11.dtd">
<!-- Generated by graphviz version 2.26.3 (20100126.1600)
 -->
<!-- Title: stxxl::singleton&lt; INSTANCE, destroy_on_exit &gt; Pages: 1 -->
<svg width="702pt" height="306pt"
 viewBox="0.00 0.00 702.00 306.00" xmlns="http://www.w3.org/2000/svg" xmlns:xlink="http://www.w3.org/1999/xlink">
<g id="graph1" class="graph" transform="scale(1 1) rotate(0) translate(4 302)">
<title>stxxl::singleton&lt; INSTANCE, destroy_on_exit &gt;</title>
<!-- Node1 -->
<g id="node1" class="node"><title>Node1</title>
<polygon fill="#bfbfbf" stroke="black" points="136,-144 136,-178 282,-178 282,-144 136,-144"/>
<text text-anchor="start" x="144" y="-165" font-family="Helvetica,sans-Serif" font-size="10.00">stxxl::singleton&lt; INSTANCE,</text>
<text text-anchor="middle" x="209" y="-152" font-family="Helvetica,sans-Serif" font-size="10.00"> destroy_on_exit &gt;</text>
</g>
<!-- Node3 -->
<g id="node5" class="node"><title>Node3</title>
<a xlink:href="classstxxl_1_1singleton.html" target="_top" xlink:title="stxxl::singleton\&lt; config \&gt;">
<polygon fill="none" stroke="black" points="406.5,-276.5 406.5,-297.5 533.5,-297.5 533.5,-276.5 406.5,-276.5"/>
<text text-anchor="middle" x="470" y="-284.5" font-family="Helvetica,sans-Serif" font-size="10.00">stxxl::singleton&lt; config &gt;</text>
</a>
</g>
<!-- Node1&#45;&gt;Node3 -->
<g id="edge4" class="edge"><title>Node1&#45;&gt;Node3</title>
<path fill="none" stroke="orange" stroke-dasharray="5,2" d="M228.073,-186.291C244.798,-206.639 270.934,-234.336 300,-250 332.572,-267.554 372.898,-276.78 406.098,-281.629"/>
<polygon fill="orange" stroke="orange" points="230.696,-183.967 221.713,-178.35 225.232,-188.343 230.696,-183.967"/>
<text text-anchor="middle" x="344" y="-282" font-family="Helvetica,sans-Serif" font-size="10.00"> &lt; config &gt;</text>
</g>
<!-- Node5 -->
<g id="node9" class="node"><title>Node5</title>
<a xlink:href="classstxxl_1_1singleton.html" target="_top" xlink:title="stxxl::singleton\&lt; logger \&gt;">
<polygon fill="none" stroke="black" points="406.5,-236.5 406.5,-257.5 533.5,-257.5 533.5,-236.5 406.5,-236.5"/>
<text text-anchor="middle" x="470" y="-244.5" font-family="Helvetica,sans-Serif" font-size="10.00">stxxl::singleton&lt; logger &gt;</text>
</a>
</g>
<!-- Node1&#45;&gt;Node5 -->
<g id="edge8" class="edge"><title>Node1&#45;&gt;Node5</title>
<path fill="none" stroke="orange" stroke-dasharray="5,2" d="M245.891,-183.323C262.046,-192.336 281.504,-202.193 300,-209 334.199,-221.586 373.869,-230.743 406.281,-236.91"/>
<polygon fill="orange" stroke="orange" points="247.216,-180.05 236.794,-178.144 243.752,-186.133 247.216,-180.05"/>
<text text-anchor="middle" x="344" y="-237" font-family="Helvetica,sans-Serif" font-size="10.00"> &lt; logger &gt;</text>
</g>
<!-- Node7 -->
<g id="node13" class="node"><title>Node7</title>
<a xlink:href="classstxxl_1_1singleton.html" target="_top" xlink:title="stxxl::singleton\&lt; stats \&gt;">
<polygon fill="none" stroke="black" points="409,-196.5 409,-217.5 531,-217.5 531,-196.5 409,-196.5"/>
<text text-anchor="middle" x="470" y="-204.5" font-family="Helvetica,sans-Serif" font-size="10.00">stxxl::singleton&lt; stats &gt;</text>
</a>
</g>
<!-- Node1&#45;&gt;Node7 -->
<g id="edge12" class="edge"><title>Node1&#45;&gt;Node7</title>
<path fill="none" stroke="orange" stroke-dasharray="5,2" d="M292.425,-176.638C294.978,-177.1 297.508,-177.555 300,-178 336.105,-184.452 376.582,-191.369 408.981,-196.829"/>
<polygon fill="orange" stroke="orange" points="292.953,-173.177 282.488,-174.831 291.701,-180.064 292.953,-173.177"/>
<text text-anchor="middle" x="344" y="-196" font-family="Helvetica,sans-Serif" font-size="10.00"> &lt; stats &gt;</text>
</g>
<!-- Node9 -->
<g id="node17" class="node"><title>Node9</title>
<a xlink:href="classstxxl_1_1singleton.html" target="_top" xlink:title="stxxl::singleton\&lt; block\l_manager \&gt;">
<polygon fill="none" stroke="black" points="412.5,-144 412.5,-178 527.5,-178 527.5,-144 412.5,-144"/>
<text text-anchor="start" x="420.5" y="-165" font-family="Helvetica,sans-Serif" font-size="10.00">stxxl::singleton&lt; block</text>
<text text-anchor="middle" x="470" y="-152" font-family="Helvetica,sans-Serif" font-size="10.00">_manager &gt;</text>
</a>
</g>
<!-- Node1&#45;&gt;Node9 -->
<g id="edge16" class="edge"><title>Node1&#45;&gt;Node9</title>
<path fill="none" stroke="orange" stroke-dasharray="5,2" d="M292.362,-161C331.455,-161 377.069,-161 412.285,-161"/>
<polygon fill="orange" stroke="orange" points="292.05,-157.5 282.05,-161 292.05,-164.5 292.05,-157.5"/>
<text text-anchor="middle" x="344" y="-165" font-family="Helvetica,sans-Serif" font-size="10.00"> &lt; block_manager &gt;</text>
</g>
<!-- Node11 -->
<g id="node21" class="node"><title>Node11</title>
<a xlink:href="classstxxl_1_1singleton.html" target="_top" xlink:title="stxxl::singleton\&lt; matrix\l_operation_statistic \&gt;">
<polygon fill="none" stroke="black" points="410.5,-92 410.5,-126 529.5,-126 529.5,-92 410.5,-92"/>
<text text-anchor="start" x="418.5" y="-113" font-family="Helvetica,sans-Serif" font-size="10.00">stxxl::singleton&lt; matrix</text>
<text text-anchor="middle" x="470" y="-100" font-family="Helvetica,sans-Serif" font-size="10.00">_operation_statistic &gt;</text>
</a>
</g>
<!-- Node1&#45;&gt;Node11 -->
<g id="edge20" class="edge"><title>Node1&#45;&gt;Node11</title>
<path fill="none" stroke="orange" stroke-dasharray="5,2" d="M264.795,-140.76C276.323,-137.102 288.468,-133.622 300,-131 336.129,-122.785 377.325,-117.357 410.113,-113.948"/>
<polygon fill="orange" stroke="orange" points="263.706,-137.433 255.283,-143.86 265.875,-144.089 263.706,-137.433"/>
<text text-anchor="start" x="301.5" y="-148" font-family="Helvetica,sans-Serif" font-size="10.00"> &lt; matrix_operation</text>
<text text-anchor="middle" x="344" y="-135" font-family="Helvetica,sans-Serif" font-size="10.00">_statistic &gt;</text>
</g>
<!-- Node13 -->
<g id="node25" class="node"><title>Node13</title>
<a xlink:href="classstxxl_1_1singleton.html" target="_top" xlink:title="stxxl::singleton\&lt; disk\l_queues \&gt;">
<polygon fill="none" stroke="black" points="415,-40 415,-74 525,-74 525,-40 415,-40"/>
<text text-anchor="start" x="423" y="-61" font-family="Helvetica,sans-Serif" font-size="10.00">stxxl::singleton&lt; disk</text>
<text text-anchor="middle" x="470" y="-48" font-family="Helvetica,sans-Serif" font-size="10.00">_queues &gt;</text>
</a>
</g>
<!-- Node1&#45;&gt;Node13 -->
<g id="edge24" class="edge"><title>Node1&#45;&gt;Node13</title>
<path fill="none" stroke="orange" stroke-dasharray="5,2" d="M238.273,-137.596C255.409,-124.892 277.956,-109.821 300,-100 336.707,-83.6456 380.757,-72.7243 414.819,-65.9814"/>
<polygon fill="orange" stroke="orange" points="235.697,-135.157 229.836,-143.983 239.922,-140.737 235.697,-135.157"/>
<text text-anchor="middle" x="344" y="-104" font-family="Helvetica,sans-Serif" font-size="10.00"> &lt; disk_queues &gt;</text>
</g>
<!-- Node15 -->
<g id="node29" class="node"><title>Node15</title>
<a xlink:href="classstxxl_1_1singleton.html" target="_top" xlink:title="stxxl::singleton\&lt; tuning \&gt;">
<polygon fill="none" stroke="black" points="406.5,-0.5 406.5,-21.5 533.5,-21.5 533.5,-0.5 406.5,-0.5"/>
<text text-anchor="middle" x="470" y="-8.5" font-family="Helvetica,sans-Serif" font-size="10.00">stxxl::singleton&lt; tuning &gt;</text>
</a>
</g>
<!-- Node1&#45;&gt;Node15 -->
<g id="edge28" class="edge"><title>Node1&#45;&gt;Node15</title>
<path fill="none" stroke="orange" stroke-dasharray="5,2" d="M224.901,-135.006C240.938,-110.973 267.877,-76.0382 300,-56 331.991,-36.0439 372.68,-24.8694 406.229,-18.6481"/>
<polygon fill="orange" stroke="orange" points="221.811,-133.337 219.3,-143.63 227.682,-137.15 221.811,-133.337"/>
<text text-anchor="middle" x="344" y="-60" font-family="Helvetica,sans-Serif" font-size="10.00"> &lt; tuning &gt;</text>
</g>
<!-- Node2 -->
<g id="node2" class="node"><title>Node2</title>
<a xlink:href="classstxxl_1_1noncopyable.html" target="_top" xlink:title="stxxl::noncopyable">
<polygon fill="none" stroke="black" points="0,-150.5 0,-171.5 98,-171.5 98,-150.5 0,-150.5"/>
<text text-anchor="middle" x="49" y="-158.5" font-family="Helvetica,sans-Serif" font-size="10.00">stxxl::noncopyable</text>
</a>
</g>
<!-- Node2&#45;&gt;Node1 -->
<g id="edge2" class="edge"><title>Node2&#45;&gt;Node1</title>
<path fill="none" stroke="#8b1a1a" d="M108.527,-161C117.395,-161 126.623,-161 135.734,-161"/>
<polygon fill="#8b1a1a" stroke="#8b1a1a" points="108.311,-157.5 98.3108,-161 108.311,-164.5 108.311,-157.5"/>
</g>
<!-- Node4 -->
<g id="node7" class="node"><title>Node4</title>
<a xlink:href="classstxxl_1_1config.html" target="_top" xlink:title="Access point to disks properties. Since 1.4.0: no config files are read automatically! ...">
<polygon fill="none" stroke="black" points="598,-276.5 598,-297.5 668,-297.5 668,-276.5 598,-276.5"/>
<text text-anchor="middle" x="633" y="-284.5" font-family="Helvetica,sans-Serif" font-size="10.00">stxxl::config</text>
</a>
</g>
<!-- Node3&#45;&gt;Node4 -->
<g id="edge6" class="edge"><title>Node3&#45;&gt;Node4</title>
<path fill="none" stroke="midnightblue" d="M543.999,-287C562.768,-287 582.073,-287 597.885,-287"/>
<polygon fill="midnightblue" stroke="midnightblue" points="543.954,-283.5 533.954,-287 543.954,-290.5 543.954,-283.5"/>
</g>
<!-- Node6 -->
<g id="node11" class="node"><title>Node6</title>
<a xlink:href="classstxxl_1_1logger.html" target="_top" xlink:title="stxxl::logger">
<polygon fill="none" stroke="black" points="598,-236.5 598,-257.5 668,-257.5 668,-236.5 598,-236.5"/>
<text text-anchor="middle" x="633" y="-244.5" font-family="Helvetica,sans-Serif" font-size="10.00">stxxl::logger</text>
</a>
</g>
<!-- Node5&#45;&gt;Node6 -->
<g id="edge10" class="edge"><title>Node5&#45;&gt;Node6</title>
<path fill="none" stroke="midnightblue" d="M543.999,-247C562.768,-247 582.073,-247 597.885,-247"/>
<polygon fill="midnightblue" stroke="midnightblue" points="543.954,-243.5 533.954,-247 543.954,-250.5 543.954,-243.5"/>
</g>
<!-- Node8 -->
<g id="node15" class="node"><title>Node8</title>
<a xlink:href="classstxxl_1_1stats.html" target="_top" xlink:title="Collects various I/O statistics. ">
<polygon fill="none" stroke="black" points="600.5,-196.5 600.5,-217.5 665.5,-217.5 665.5,-196.5 600.5,-196.5"/>
<text text-anchor="middle" x="633" y="-204.5" font-family="Helvetica,sans-Serif" font-size="10.00">stxxl::stats</text>
</a>
</g>
<!-- Node7&#45;&gt;Node8 -->
<g id="edge14" class="edge"><title>Node7&#45;&gt;Node8</title>
<path fill="none" stroke="midnightblue" d="M541.187,-207C561.809,-207 583.326,-207 600.342,-207"/>
<polygon fill="midnightblue" stroke="midnightblue" points="541.159,-203.5 531.159,-207 541.159,-210.5 541.159,-203.5"/>
</g>
<!-- Node10 -->
<g id="node19" class="node"><title>Node10</title>
<a xlink:href="classstxxl_1_1block__manager.html" target="_top" xlink:title="Block manager class. ">
<polygon fill="none" stroke="black" points="578,-150.5 578,-171.5 688,-171.5 688,-150.5 578,-150.5"/>
<text text-anchor="middle" x="633" y="-158.5" font-family="Helvetica,sans-Serif" font-size="10.00">stxxl::block_manager</text>
</a>
</g>
<!-- Node9&#45;&gt;Node10 -->
<g id="edge18" class="edge"><title>Node9&#45;&gt;Node10</title>
<path fill="none" stroke="midnightblue" d="M537.998,-161C551.326,-161 565.15,-161 577.99,-161"/>
<polygon fill="midnightblue" stroke="midnightblue" points="537.927,-157.5 527.927,-161 537.927,-164.5 537.927,-157.5"/>
</g>
<!-- Node12 -->
<g id="node23" class="node"><title>Node12</title>
<a xlink:href="structstxxl_1_1matrix__operation__statistic.html" target="_top" xlink:title="stxxl::matrix_operation\l_statistic">
<polygon fill="none" stroke="black" points="575,-92 575,-126 691,-126 691,-92 575,-92"/>
<text text-anchor="start" x="583" y="-113" font-family="Helvetica,sans-Serif" font-size="10.00">stxxl::matrix_operation</text>
<text text-anchor="middle" x="633" y="-100" font-family="Helvetica,sans-Serif" font-size="10.00">_statistic</text>
</a>
</g>
<!-- Node11&#45;&gt;Node12 -->
<g id="edge22" class="edge"><title>Node11&#45;&gt;Node12</title>
<path fill="none" stroke="midnightblue" d="M539.907,-109C551.564,-109 563.545,-109 574.869,-109"/>
<polygon fill="midnightblue" stroke="midnightblue" points="539.77,-105.5 529.77,-109 539.77,-112.5 539.77,-105.5"/>
</g>
<!-- Node14 -->
<g id="node27" class="node"><title>Node14</title>
<a xlink:href="classstxxl_1_1disk__queues.html" target="_top" xlink:title="Encapsulates disk queues. ">
<polygon fill="none" stroke="black" points="584,-46.5 584,-67.5 682,-67.5 682,-46.5 584,-46.5"/>
<text text-anchor="middle" x="633" y="-54.5" font-family="Helvetica,sans-Serif" font-size="10.00">stxxl::disk_queues</text>
</a>
</g>
<!-- Node13&#45;&gt;Node14 -->
<g id="edge26" class="edge"><title>Node13&#45;&gt;Node14</title>
<path fill="none" stroke="midnightblue" d="M535.62,-57C551.732,-57 568.705,-57 583.887,-57"/>
<polygon fill="midnightblue" stroke="midnightblue" points="535.184,-53.5001 525.184,-57 535.184,-60.5001 535.184,-53.5001"/>
</g>
<!-- Node16 -->
<g id="node31" class="node"><title>Node16</title>
<a xlink:href="classstxxl_1_1hash__map_1_1tuning.html" target="_top" xlink:title="Tuning parameters for external memory hash map. ">
<polygon fill="none" stroke="black" points="572.5,-0.5 572.5,-21.5 693.5,-21.5 693.5,-0.5 572.5,-0.5"/>
<text text-anchor="middle" x="633" y="-8.5" font-family="Helvetica,sans-Serif" font-size="10.00">stxxl::hash_map::tuning</text>
</a>
</g>
<!-- Node15&#45;&gt;Node16 -->
<g id="edge30" class="edge"><title>Node15&#45;&gt;Node16</title>
<path fill="none" stroke="midnightblue" d="M544.148,-11C553.613,-11 563.211,-11 572.426,-11"/>
<polygon fill="midnightblue" stroke="midnightblue" points="543.954,-7.5001 533.954,-11 543.954,-14.5001 543.954,-7.5001"/>
</g>
</g>
</svg>
