<?xml version="1.0" encoding="UTF-8" standalone="no"?>
<!DOCTYPE svg PUBLIC "-//W3C//DTD SVG 1.1//EN"
 "http://www.w3.org/Graphics/SVG/1.1/DTD/svg11.dtd">
<!-- Generated by graphviz version 2.26.3 (20100126.1600)
 -->
<!-- Title: stxxl::parallel::LoserTreeCopyBase&lt; ValueType, Comparator &gt; Pages: 1 -->
<svg width="390pt" height="108pt"
 viewBox="0.00 0.00 390.00 108.00" xmlns="http://www.w3.org/2000/svg" xmlns:xlink="http://www.w3.org/1999/xlink">
<g id="graph1" class="graph" transform="scale(1 1) rotate(0) translate(4 104)">
<title>stxxl::parallel::LoserTreeCopyBase&lt; ValueType, Comparator &gt;</title>
<!-- Node1 -->
<g id="node1" class="node"><title>Node1</title>
<polygon fill="#bfbfbf" stroke="black" points="0,-36 0,-70 184,-70 184,-36 0,-36"/>
<text text-anchor="start" x="8" y="-57" font-family="Helvetica,sans-Serif" font-size="10.00">stxxl::parallel::LoserTree</text>
<text text-anchor="middle" x="92" y="-44" font-family="Helvetica,sans-Serif" font-size="10.00">CopyBase&lt; ValueType, Comparator &gt;</text>
</g>
<!-- Node2 -->
<g id="node3" class="node"><title>Node2</title>
<a xlink:href="classstxxl_1_1parallel_1_1LoserTreeCopy.html" target="_top" xlink:title="stxxl::parallel::LoserTree\lCopy\&lt; ValueType, Comparator \&gt;">
<polygon fill="none" stroke="black" points="220.5,-66 220.5,-100 381.5,-100 381.5,-66 220.5,-66"/>
<text text-anchor="start" x="228.5" y="-87" font-family="Helvetica,sans-Serif" font-size="10.00">stxxl::parallel::LoserTree</text>
<text text-anchor="middle" x="301" y="-74" font-family="Helvetica,sans-Serif" font-size="10.00">Copy&lt; ValueType, Comparator &gt;</text>
</a>
</g>
<!-- Node1&#45;&gt;Node2 -->
<g id="edge2" class="edge"><title>Node1&#45;&gt;Node2</title>
<path fill="none" stroke="midnightblue" d="M194.182,-67.6673C202.973,-68.9292 211.787,-70.1942 220.373,-71.4267"/>
<polygon fill="midnightblue" stroke="midnightblue" points="194.675,-64.2022 184.279,-66.2458 193.68,-71.1312 194.675,-64.2022"/>
</g>
<!-- Node3 -->
<g id="node5" class="node"><title>Node3</title>
<a xlink:href="classstxxl_1_1parallel_1_1LoserTreeCopy_3_01true_00_01ValueType_00_01Comparator_01_4.html" target="_top" xlink:title="stxxl::parallel::LoserTree\lCopy\&lt; true, ValueType,\l Comparator \&gt;">
<polygon fill="none" stroke="black" points="239,-0.5 239,-47.5 363,-47.5 363,-0.5 239,-0.5"/>
<text text-anchor="start" x="247" y="-34.5" font-family="Helvetica,sans-Serif" font-size="10.00">stxxl::parallel::LoserTree</text>
<text text-anchor="start" x="247" y="-21.5" font-family="Helvetica,sans-Serif" font-size="10.00">Copy&lt; true, ValueType,</text>
<text text-anchor="middle" x="301" y="-8.5" font-family="Helvetica,sans-Serif" font-size="10.00"> Comparator &gt;</text>
</a>
</g>
<!-- Node1&#45;&gt;Node3 -->
<g id="edge4" class="edge"><title>Node1&#45;&gt;Node3</title>
<path fill="none" stroke="midnightblue" d="M194.277,-38.8084C209.527,-36.6924 224.84,-34.5676 238.916,-32.6145"/>
<polygon fill="midnightblue" stroke="midnightblue" points="193.703,-35.3545 184.279,-40.1958 194.665,-42.2881 193.703,-35.3545"/>
</g>
</g>
</svg>
