<?xml version="1.0" encoding="UTF-8" standalone="no"?>
<!DOCTYPE svg PUBLIC "-//W3C//DTD SVG 1.1//EN"
 "http://www.w3.org/Graphics/SVG/1.1/DTD/svg11.dtd">
<!-- Generated by graphviz version 2.26.3 (20100126.1600)
 -->
<!-- Title: stxxl::buf_istream_reverse&lt; BlockType, BidIteratorType &gt; Pages: 1 -->
<svg width="1330pt" height="419pt"
 viewBox="0.00 0.00 1330.00 419.04" xmlns="http://www.w3.org/2000/svg" xmlns:xlink="http://www.w3.org/1999/xlink">
<g id="graph1" class="graph" transform="scale(1 1) rotate(0) translate(4 415.036)">
<title>stxxl::buf_istream_reverse&lt; BlockType, BidIteratorType &gt;</title>
<!-- Node1 -->
<g id="node1" class="node"><title>Node1</title>
<polygon fill="#bfbfbf" stroke="black" points="1208.5,-212.536 1208.5,-259.536 1321.5,-259.536 1321.5,-212.536 1208.5,-212.536"/>
<text text-anchor="start" x="1216.5" y="-246.536" font-family="Helvetica,sans-Serif" font-size="10.00">stxxl::buf_istream</text>
<text text-anchor="start" x="1216.5" y="-233.536" font-family="Helvetica,sans-Serif" font-size="10.00">_reverse&lt; BlockType,</text>
<text text-anchor="middle" x="1265" y="-220.536" font-family="Helvetica,sans-Serif" font-size="10.00"> BidIteratorType &gt;</text>
</g>
<!-- Node2 -->
<g id="node2" class="node"><title>Node2</title>
<a xlink:href="classstxxl_1_1noncopyable.html" target="_top" xlink:title="stxxl::noncopyable">
<polygon fill="none" stroke="black" points="6,-119.536 6,-140.536 104,-140.536 104,-119.536 6,-119.536"/>
<text text-anchor="middle" x="55" y="-127.536" font-family="Helvetica,sans-Serif" font-size="10.00">stxxl::noncopyable</text>
</a>
</g>
<!-- Node2&#45;&gt;Node1 -->
<g id="edge2" class="edge"><title>Node2&#45;&gt;Node1</title>
<path fill="none" stroke="#8b1a1a" d="M61.5212,-150.526C71.5565,-179.062 93.3384,-230.778 128,-262.036 187.894,-316.049 214.348,-333.036 295,-333.036 295,-333.036 295,-333.036 1086,-333.036 1147.33,-333.036 1207.75,-288.481 1240.32,-259.765"/>
<polygon fill="#8b1a1a" stroke="#8b1a1a" points="64.7587,-149.173 58.2478,-140.815 58.1255,-151.409 64.7587,-149.173"/>
</g>
<!-- Node3 -->
<g id="node4" class="node"><title>Node3</title>
<a xlink:href="classstxxl_1_1block__prefetcher.html" target="_top" xlink:title="Encapsulates asynchronous prefetching engine. ">
<polygon fill="none" stroke="black" points="724,-130.036 724,-164.036 878,-164.036 878,-130.036 724,-130.036"/>
<text text-anchor="start" x="732" y="-151.036" font-family="Helvetica,sans-Serif" font-size="10.00">stxxl::block_prefetcher</text>
<text text-anchor="middle" x="801" y="-138.036" font-family="Helvetica,sans-Serif" font-size="10.00">&lt; BlockType, BidIteratorType &gt;</text>
</a>
</g>
<!-- Node2&#45;&gt;Node3 -->
<g id="edge6" class="edge"><title>Node2&#45;&gt;Node3</title>
<path fill="none" stroke="#8b1a1a" d="M114.313,-131.388C248.342,-134.442 574.501,-141.874 723.926,-145.28"/>
<polygon fill="#8b1a1a" stroke="#8b1a1a" points="114.313,-127.887 104.236,-131.158 114.153,-134.885 114.313,-127.887"/>
</g>
<!-- Node6 -->
<g id="node11" class="node"><title>Node6</title>
<a xlink:href="classstxxl_1_1onoff__switch.html" target="_top" xlink:title="stxxl::onoff_switch">
<polygon fill="none" stroke="black" points="508.5,-80.5359 508.5,-101.536 607.5,-101.536 607.5,-80.5359 508.5,-80.5359"/>
<text text-anchor="middle" x="558" y="-88.5359" font-family="Helvetica,sans-Serif" font-size="10.00">stxxl::onoff_switch</text>
</a>
</g>
<!-- Node2&#45;&gt;Node6 -->
<g id="edge14" class="edge"><title>Node2&#45;&gt;Node6</title>
<path fill="none" stroke="#8b1a1a" d="M86.7782,-115.477C121.911,-100.361 180.612,-77.9683 234,-71.0359 330.686,-58.4814 444.659,-72.0287 508.4,-82.133"/>
<polygon fill="#8b1a1a" stroke="#8b1a1a" points="85.2765,-112.314 77.5181,-119.529 88.0826,-118.727 85.2765,-112.314"/>
</g>
<!-- Node7 -->
<g id="node14" class="node"><title>Node7</title>
<a xlink:href="classstxxl_1_1mutex.html" target="_top" xlink:title="stxxl::mutex">
<polygon fill="none" stroke="black" points="259.5,-2.53591 259.5,-23.5359 330.5,-23.5359 330.5,-2.53591 259.5,-2.53591"/>
<text text-anchor="middle" x="295" y="-10.5359" font-family="Helvetica,sans-Serif" font-size="10.00">stxxl::mutex</text>
</a>
</g>
<!-- Node2&#45;&gt;Node7 -->
<g id="edge18" class="edge"><title>Node2&#45;&gt;Node7</title>
<path fill="none" stroke="#8b1a1a" d="M64.7528,-110.396C76.5718,-88.8362 98.612,-55.0314 128,-38.0359 168.605,-14.5537 223.688,-10.6586 259.29,-11.0395"/>
<polygon fill="#8b1a1a" stroke="#8b1a1a" points="61.6084,-108.856 60.0521,-119.336 67.804,-112.114 61.6084,-108.856"/>
</g>
<!-- Node8 -->
<g id="node17" class="node"><title>Node8</title>
<a xlink:href="classstxxl_1_1condition__variable.html" target="_top" xlink:title="stxxl::condition_variable">
<polygon fill="none" stroke="black" points="234,-80.5359 234,-101.536 356,-101.536 356,-80.5359 234,-80.5359"/>
<text text-anchor="middle" x="295" y="-88.5359" font-family="Helvetica,sans-Serif" font-size="10.00">stxxl::condition_variable</text>
</a>
</g>
<!-- Node2&#45;&gt;Node8 -->
<g id="edge22" class="edge"><title>Node2&#45;&gt;Node8</title>
<path fill="none" stroke="#8b1a1a" d="M114.22,-118.467C118.879,-117.622 123.514,-116.802 128,-116.036 162.967,-110.068 202.188,-104.157 233.829,-99.5816"/>
<polygon fill="#8b1a1a" stroke="#8b1a1a" points="113.233,-115.09 104.034,-120.347 114.503,-121.974 113.233,-115.09"/>
</g>
<!-- Node14 -->
<g id="node31" class="node"><title>Node14</title>
<a xlink:href="classstxxl_1_1simple__vector.html" target="_top" xlink:title="stxxl::simple_vector\l\&lt; BID\&lt; BlockSize \&gt; \&gt;">
<polygon fill="none" stroke="black" points="501,-243.036 501,-277.036 615,-277.036 615,-243.036 501,-243.036"/>
<text text-anchor="start" x="509" y="-264.036" font-family="Helvetica,sans-Serif" font-size="10.00">stxxl::simple_vector</text>
<text text-anchor="middle" x="558" y="-251.036" font-family="Helvetica,sans-Serif" font-size="10.00">&lt; BID&lt; BlockSize &gt; &gt;</text>
</a>
</g>
<!-- Node2&#45;&gt;Node14 -->
<g id="edge38" class="edge"><title>Node2&#45;&gt;Node14</title>
<path fill="none" stroke="#8b1a1a" d="M86.6789,-144.819C121.946,-160.749 180.972,-185.853 234,-201.036 325.656,-227.28 435.375,-244.367 500.738,-253.092"/>
<polygon fill="#8b1a1a" stroke="#8b1a1a" points="87.9377,-141.547 77.3865,-140.585 85.0352,-147.917 87.9377,-141.547"/>
</g>
<!-- Node15 -->
<g id="node34" class="node"><title>Node15</title>
<a xlink:href="classstxxl_1_1simple__vector.html" target="_top" xlink:title="Simpler non&#45;growing vector without initialization. ">
<polygon fill="none" stroke="black" points="243,-248.036 243,-282.036 347,-282.036 347,-248.036 243,-248.036"/>
<text text-anchor="start" x="251" y="-269.036" font-family="Helvetica,sans-Serif" font-size="10.00">stxxl::simple_vector</text>
<text text-anchor="middle" x="295" y="-256.036" font-family="Helvetica,sans-Serif" font-size="10.00">&lt; ValueType &gt;</text>
</a>
</g>
<!-- Node2&#45;&gt;Node15 -->
<g id="edge42" class="edge"><title>Node2&#45;&gt;Node15</title>
<path fill="none" stroke="#8b1a1a" d="M63.207,-149.864C74.227,-173.859 96.1728,-213.584 128,-234.036 162.111,-255.956 207.756,-263.272 242.705,-265.348"/>
<polygon fill="#8b1a1a" stroke="#8b1a1a" points="66.3833,-148.392 59.1561,-140.645 59.9747,-151.208 66.3833,-148.392"/>
</g>
<!-- Node3&#45;&gt;Node1 -->
<g id="edge4" class="edge"><title>Node3&#45;&gt;Node1</title>
<path fill="none" stroke="#9a32cd" stroke-dasharray="5,2" d="M888.222,-154.311C957.899,-160.999 1057.81,-172.557 1144,-190.036 1164.82,-194.258 1170.01,-195.852 1190,-203.036 1197.9,-205.874 1206.14,-209.157 1214.15,-212.529"/>
<polygon fill="#9a32cd" stroke="#9a32cd" points="888.452,-150.817 878.166,-153.359 887.792,-157.786 888.452,-150.817"/>
<text text-anchor="middle" x="1086" y="-194.036" font-family="Helvetica,sans-Serif" font-size="10.00"> prefetcher</text>
</g>
<!-- Node4 -->
<g id="node7" class="node"><title>Node4</title>
<a xlink:href="structstxxl_1_1choose__int__types.html" target="_top" xlink:title="stxxl::choose_int_types\l\&lt; my_pointer_size \&gt;">
<polygon fill="none" stroke="black" points="498,-158.036 498,-192.036 618,-192.036 618,-158.036 498,-158.036"/>
<text text-anchor="start" x="506" y="-179.036" font-family="Helvetica,sans-Serif" font-size="10.00">stxxl::choose_int_types</text>
<text text-anchor="middle" x="558" y="-166.036" font-family="Helvetica,sans-Serif" font-size="10.00">&lt; my_pointer_size &gt;</text>
</a>
</g>
<!-- Node4&#45;&gt;Node1 -->
<g id="edge32" class="edge"><title>Node4&#45;&gt;Node1</title>
<path fill="none" stroke="#9a32cd" stroke-dasharray="5,2" d="M610.35,-195.299C620.08,-198.378 630.252,-201.152 640,-203.036 747.884,-223.885 1075.4,-232.388 1208.18,-235.04"/>
<polygon fill="#9a32cd" stroke="#9a32cd" points="611.394,-191.958 600.8,-192.14 609.195,-198.604 611.394,-191.958"/>
<text text-anchor="middle" x="953" y="-233.036" font-family="Helvetica,sans-Serif" font-size="10.00"> current_elem</text>
</g>
<!-- Node4&#45;&gt;Node3 -->
<g id="edge8" class="edge"><title>Node4&#45;&gt;Node3</title>
<path fill="none" stroke="#9a32cd" stroke-dasharray="5,2" d="M628.641,-165.431C632.482,-164.949 636.288,-164.481 640,-164.036 667.349,-160.758 697.353,-157.499 723.971,-154.724"/>
<polygon fill="#9a32cd" stroke="#9a32cd" points="627.907,-161.996 618.43,-166.733 628.793,-168.94 627.907,-161.996"/>
<text text-anchor="middle" x="673" y="-194.036" font-family="Helvetica,sans-Serif" font-size="10.00"> seq_length</text>
<text text-anchor="middle" x="673" y="-181.036" font-family="Helvetica,sans-Serif" font-size="10.00">nextconsume</text>
<text text-anchor="middle" x="673" y="-168.036" font-family="Helvetica,sans-Serif" font-size="10.00">nextread</text>
</g>
<!-- Node5 -->
<g id="node9" class="node"><title>Node5</title>
<a xlink:href="structstxxl_1_1choose__int__types.html" target="_top" xlink:title="stxxl::choose_int_types\l\&lt; PtrSize \&gt;">
<polygon fill="none" stroke="black" points="235,-158.036 235,-192.036 355,-192.036 355,-158.036 235,-158.036"/>
<text text-anchor="start" x="243" y="-179.036" font-family="Helvetica,sans-Serif" font-size="10.00">stxxl::choose_int_types</text>
<text text-anchor="middle" x="295" y="-166.036" font-family="Helvetica,sans-Serif" font-size="10.00">&lt; PtrSize &gt;</text>
</a>
</g>
<!-- Node5&#45;&gt;Node4 -->
<g id="edge10" class="edge"><title>Node5&#45;&gt;Node4</title>
<path fill="none" stroke="orange" stroke-dasharray="5,2" d="M365.017,-175.036C406.397,-175.036 458.258,-175.036 497.795,-175.036"/>
<polygon fill="orange" stroke="orange" points="365.008,-171.536 355.008,-175.036 365.008,-178.536 365.008,-171.536"/>
<text text-anchor="middle" x="425" y="-179.036" font-family="Helvetica,sans-Serif" font-size="10.00"> &lt; my_pointer_size &gt;</text>
</g>
<!-- Node6&#45;&gt;Node3 -->
<g id="edge12" class="edge"><title>Node6&#45;&gt;Node3</title>
<path fill="none" stroke="#9a32cd" stroke-dasharray="5,2" d="M617.9,-91.1149C645.155,-92.3625 677.594,-95.5606 706,-103.036 728.851,-109.049 752.992,-120.302 771.22,-129.922"/>
<polygon fill="#9a32cd" stroke="#9a32cd" points="617.853,-87.6106 607.727,-90.7274 617.587,-94.6056 617.853,-87.6106"/>
<text text-anchor="middle" x="673" y="-107.036" font-family="Helvetica,sans-Serif" font-size="10.00"> completed</text>
</g>
<!-- Node7&#45;&gt;Node6 -->
<g id="edge16" class="edge"><title>Node7&#45;&gt;Node6</title>
<path fill="none" stroke="#9a32cd" stroke-dasharray="5,2" d="M340.671,-3.44427C380.283,2.16074 437.198,3.37475 476,-25.0359 493.713,-38.0055 477.942,-56.0657 494,-71.0359 498.172,-74.9255 503.092,-78.0588 508.32,-80.5829"/>
<polygon fill="#9a32cd" stroke="#9a32cd" points="340.085,0.00675914 330.743,-4.99118 341.163,-6.90978 340.085,0.00675914"/>
<text text-anchor="middle" x="425" y="-29.0359" font-family="Helvetica,sans-Serif" font-size="10.00"> m_mutex</text>
</g>
<!-- Node8&#45;&gt;Node6 -->
<g id="edge20" class="edge"><title>Node8&#45;&gt;Node6</title>
<path fill="none" stroke="#9a32cd" stroke-dasharray="5,2" d="M366.61,-91.0359C411.585,-91.0359 468.446,-91.0359 508.464,-91.0359"/>
<polygon fill="#9a32cd" stroke="#9a32cd" points="366.33,-87.536 356.33,-91.0359 366.33,-94.536 366.33,-87.536"/>
<text text-anchor="middle" x="425" y="-95.0359" font-family="Helvetica,sans-Serif" font-size="10.00"> m_cond</text>
</g>
<!-- Node9 -->
<g id="node20" class="node"><title>Node9</title>
<a xlink:href="classstxxl_1_1counting__ptr.html" target="_top" xlink:title="High&#45;performance smart pointer used as a wrapping reference counting pointer. ">
<polygon fill="none" stroke="black" points="509.5,-28.0359 509.5,-62.0359 606.5,-62.0359 606.5,-28.0359 509.5,-28.0359"/>
<text text-anchor="start" x="517.5" y="-49.0359" font-family="Helvetica,sans-Serif" font-size="10.00">stxxl::counting_ptr</text>
<text text-anchor="middle" x="558" y="-36.0359" font-family="Helvetica,sans-Serif" font-size="10.00">&lt; Type &gt;</text>
</a>
</g>
<!-- Node9&#45;&gt;Node3 -->
<g id="edge24" class="edge"><title>Node9&#45;&gt;Node3</title>
<path fill="none" stroke="#9a32cd" stroke-dasharray="5,2" d="M616.673,-51.3358C644.62,-55.8188 677.979,-63.3828 706,-76.0359 735.838,-89.5092 765.258,-113.635 783.27,-129.983"/>
<polygon fill="#9a32cd" stroke="#9a32cd" points="617.052,-47.8534 606.642,-49.8198 616.006,-54.7748 617.052,-47.8534"/>
<text text-anchor="middle" x="673" y="-80.0359" font-family="Helvetica,sans-Serif" font-size="10.00"> read_reqs</text>
</g>
<!-- Node10 -->
<g id="node22" class="node"><title>Node10</title>
<a xlink:href="classstxxl_1_1completion__handler.html" target="_top" xlink:title="Completion handler class (Loki&#45;style). ">
<polygon fill="none" stroke="black" points="494,-364.536 494,-385.536 622,-385.536 622,-364.536 494,-364.536"/>
<text text-anchor="middle" x="558" y="-372.536" font-family="Helvetica,sans-Serif" font-size="10.00">stxxl::completion_handler</text>
</a>
</g>
<!-- Node10&#45;&gt;Node3 -->
<g id="edge26" class="edge"><title>Node10&#45;&gt;Node3</title>
<path fill="none" stroke="#9a32cd" stroke-dasharray="5,2" d="M576.798,-357.399C622.272,-314.732 737.778,-206.356 782.718,-164.19"/>
<polygon fill="#9a32cd" stroke="#9a32cd" points="574.292,-354.95 569.394,-364.345 579.082,-360.055 574.292,-354.95"/>
<text text-anchor="middle" x="673" y="-298.036" font-family="Helvetica,sans-Serif" font-size="10.00"> do_after_fetch</text>
</g>
<!-- Node11 -->
<g id="node24" class="node"><title>Node11</title>
<a xlink:href="structstxxl_1_1compat__unique__ptr.html" target="_top" xlink:title="stxxl::compat_unique\l_ptr\&lt; stxxl::completion\l_handler_impl \&gt;">
<polygon fill="none" stroke="black" points="237,-361.536 237,-408.536 353,-408.536 353,-361.536 237,-361.536"/>
<text text-anchor="start" x="245" y="-395.536" font-family="Helvetica,sans-Serif" font-size="10.00">stxxl::compat_unique</text>
<text text-anchor="start" x="245" y="-382.536" font-family="Helvetica,sans-Serif" font-size="10.00">_ptr&lt; stxxl::completion</text>
<text text-anchor="middle" x="295" y="-369.536" font-family="Helvetica,sans-Serif" font-size="10.00">_handler_impl &gt;</text>
</a>
</g>
<!-- Node11&#45;&gt;Node10 -->
<g id="edge28" class="edge"><title>Node11&#45;&gt;Node10</title>
<path fill="none" stroke="#9a32cd" stroke-dasharray="5,2" d="M363.043,-382.449C403.318,-380.917 454.039,-378.989 493.649,-377.483"/>
<polygon fill="#9a32cd" stroke="#9a32cd" points="362.902,-378.951 353.042,-382.829 363.168,-385.946 362.902,-378.951"/>
<text text-anchor="middle" x="425" y="-385.036" font-family="Helvetica,sans-Serif" font-size="10.00"> m_ptr</text>
</g>
<!-- Node12 -->
<g id="node26" class="node"><title>Node12</title>
<a xlink:href="structstxxl_1_1compat__unique__ptr.html" target="_top" xlink:title="stxxl::compat_unique\l_ptr\&lt; Type \&gt;">
<polygon fill="none" stroke="black" points="0,-368.036 0,-402.036 110,-402.036 110,-368.036 0,-368.036"/>
<text text-anchor="start" x="8" y="-389.036" font-family="Helvetica,sans-Serif" font-size="10.00">stxxl::compat_unique</text>
<text text-anchor="middle" x="55" y="-376.036" font-family="Helvetica,sans-Serif" font-size="10.00">_ptr&lt; Type &gt;</text>
</a>
</g>
<!-- Node12&#45;&gt;Node11 -->
<g id="edge30" class="edge"><title>Node12&#45;&gt;Node11</title>
<path fill="none" stroke="orange" stroke-dasharray="5,2" d="M120.096,-385.036C156.538,-385.036 201.593,-385.036 236.848,-385.036"/>
<polygon fill="orange" stroke="orange" points="120.061,-381.536 110.061,-385.036 120.061,-388.536 120.061,-381.536"/>
<text text-anchor="start" x="128.5" y="-402.036" font-family="Helvetica,sans-Serif" font-size="10.00"> &lt; stxxl::completion</text>
<text text-anchor="middle" x="172" y="-389.036" font-family="Helvetica,sans-Serif" font-size="10.00">_handler_impl &gt;</text>
</g>
<!-- Node13 -->
<g id="node29" class="node"><title>Node13</title>
<a xlink:href="classstxxl_1_1BIDArray.html" target="_top" xlink:title="stxxl::BIDArray\&lt; block\l_type::raw_size \&gt;">
<polygon fill="none" stroke="black" points="1028,-245.036 1028,-279.036 1144,-279.036 1144,-245.036 1028,-245.036"/>
<text text-anchor="start" x="1036" y="-266.036" font-family="Helvetica,sans-Serif" font-size="10.00">stxxl::BIDArray&lt; block</text>
<text text-anchor="middle" x="1086" y="-253.036" font-family="Helvetica,sans-Serif" font-size="10.00">_type::raw_size &gt;</text>
</a>
</g>
<!-- Node13&#45;&gt;Node1 -->
<g id="edge34" class="edge"><title>Node13&#45;&gt;Node1</title>
<path fill="none" stroke="#9a32cd" stroke-dasharray="5,2" d="M1154.45,-252.094C1172.27,-249.506 1191.27,-246.746 1208.4,-244.258"/>
<polygon fill="#9a32cd" stroke="#9a32cd" points="1153.51,-248.693 1144.12,-253.594 1154.52,-255.621 1153.51,-248.693"/>
<text text-anchor="middle" x="1176" y="-254.036" font-family="Helvetica,sans-Serif" font-size="10.00"> bids_</text>
</g>
<!-- Node14&#45;&gt;Node13 -->
<g id="edge36" class="edge"><title>Node14&#45;&gt;Node13</title>
<path fill="none" stroke="midnightblue" d="M625.108,-260.29C729.463,-260.685 928.88,-261.441 1027.63,-261.815"/>
<polygon fill="midnightblue" stroke="midnightblue" points="625.02,-256.79 615.007,-260.252 624.994,-263.79 625.02,-256.79"/>
</g>
<!-- Node16 -->
<g id="node37" class="node"><title>Node16</title>
<a xlink:href="classstxxl_1_1BIDArray.html" target="_top" xlink:title="stxxl::BIDArray\&lt; BlockSize \&gt;">
<polygon fill="none" stroke="black" points="728,-283.536 728,-304.536 874,-304.536 874,-283.536 728,-283.536"/>
<text text-anchor="middle" x="801" y="-291.536" font-family="Helvetica,sans-Serif" font-size="10.00">stxxl::BIDArray&lt; BlockSize &gt;</text>
</a>
</g>
<!-- Node14&#45;&gt;Node16 -->
<g id="edge46" class="edge"><title>Node14&#45;&gt;Node16</title>
<path fill="none" stroke="midnightblue" d="M625.395,-269.466C657.272,-273.926 695.392,-279.26 727.958,-283.816"/>
<polygon fill="midnightblue" stroke="midnightblue" points="625.668,-265.97 615.28,-268.05 624.698,-272.902 625.668,-265.97"/>
</g>
<!-- Node15&#45;&gt;Node14 -->
<g id="edge40" class="edge"><title>Node15&#45;&gt;Node14</title>
<path fill="none" stroke="orange" stroke-dasharray="5,2" d="M357.449,-263.849C400.944,-263.022 458.509,-261.927 500.806,-261.123"/>
<polygon fill="orange" stroke="orange" points="357.206,-260.353 347.275,-264.042 357.34,-267.351 357.206,-260.353"/>
<text text-anchor="middle" x="425" y="-267.036" font-family="Helvetica,sans-Serif" font-size="10.00"> &lt; BID&lt; BlockSize &gt; &gt;</text>
</g>
<!-- Node16&#45;&gt;Node13 -->
<g id="edge44" class="edge"><title>Node16&#45;&gt;Node13</title>
<path fill="none" stroke="orange" stroke-dasharray="5,2" d="M884.017,-284.715C930.202,-279.529 986.546,-273.203 1027.98,-268.551"/>
<polygon fill="orange" stroke="orange" points="883.571,-281.243 874.024,-285.837 884.353,-288.199 883.571,-281.243"/>
<text text-anchor="middle" x="953" y="-286.036" font-family="Helvetica,sans-Serif" font-size="10.00"> &lt; block_type::raw_size &gt;</text>
</g>
</g>
</svg>
