<?xml version="1.0" encoding="UTF-8" standalone="no"?>
<!DOCTYPE svg PUBLIC "-//W3C//DTD SVG 1.1//EN"
 "http://www.w3.org/Graphics/SVG/1.1/DTD/svg11.dtd">
<!-- Generated by graphviz version 2.38.0 (20140413.2041)
 -->
<!-- Title: stxxl::btree::node_cache&lt; NodeType, BTreeType &gt; Pages: 1 -->
<svg width="580pt" height="110pt"
 viewBox="0.00 0.00 580.00 110.00" xmlns="http://www.w3.org/2000/svg" xmlns:xlink="http://www.w3.org/1999/xlink">
<g id="graph0" class="graph" transform="scale(1 1) rotate(0) translate(4 106)">
<title>stxxl::btree::node_cache&lt; NodeType, BTreeType &gt;</title>
<!-- Node1 -->
<g id="node1" class="node"><title>Node1</title>
<polygon fill="#bfbfbf" stroke="black" points="135,-36 135,-66 300,-66 300,-36 135,-36"/>
<text text-anchor="start" x="143" y="-54" font-family="Helvetica,sans-Serif" font-size="10.00">stxxl::btree::node</text>
<text text-anchor="middle" x="217.5" y="-43" font-family="Helvetica,sans-Serif" font-size="10.00">_cache&lt; NodeType, BTreeType &gt;</text>
</g>
<!-- Node3 -->
<g id="node3" class="node"><title>Node3</title>
<g id="a_node3"><a xlink:href="classstxxl_1_1btree_1_1node__cache.html" target="_top" xlink:title="stxxl::btree::node\l_cache\&lt; node_type, self\l_type \&gt;">
<polygon fill="none" stroke="black" points="448,-60.5 448,-101.5 572,-101.5 572,-60.5 448,-60.5"/>
<text text-anchor="start" x="456" y="-89.5" font-family="Helvetica,sans-Serif" font-size="10.00">stxxl::btree::node</text>
<text text-anchor="start" x="456" y="-78.5" font-family="Helvetica,sans-Serif" font-size="10.00">_cache&lt; node_type, self</text>
<text text-anchor="middle" x="510" y="-67.5" font-family="Helvetica,sans-Serif" font-size="10.00">_type &gt;</text>
</a>
</g>
</g>
<!-- Node1&#45;&gt;Node3 -->
<g id="edge2" class="edge"><title>Node1&#45;&gt;Node3</title>
<path fill="none" stroke="orange" stroke-dasharray="5,2" d="M310.224,-60.4723C355.069,-65.1035 407.828,-70.5519 447.718,-74.6714"/>
<polygon fill="orange" stroke="orange" points="310.5,-56.9824 300.194,-59.4365 309.781,-63.9453 310.5,-56.9824"/>
<text text-anchor="middle" x="374" y="-76" font-family="Helvetica,sans-Serif" font-size="10.00"> &lt; node_type, self_type &gt;</text>
</g>
<!-- Node4 -->
<g id="node4" class="node"><title>Node4</title>
<g id="a_node4"><a xlink:href="classstxxl_1_1btree_1_1node__cache.html" target="_top" xlink:title="stxxl::btree::node\l_cache\&lt; leaf_type, self\l_type \&gt;">
<polygon fill="none" stroke="black" points="450.5,-0.5 450.5,-41.5 569.5,-41.5 569.5,-0.5 450.5,-0.5"/>
<text text-anchor="start" x="458.5" y="-29.5" font-family="Helvetica,sans-Serif" font-size="10.00">stxxl::btree::node</text>
<text text-anchor="start" x="458.5" y="-18.5" font-family="Helvetica,sans-Serif" font-size="10.00">_cache&lt; leaf_type, self</text>
<text text-anchor="middle" x="510" y="-7.5" font-family="Helvetica,sans-Serif" font-size="10.00">_type &gt;</text>
</a>
</g>
</g>
<!-- Node1&#45;&gt;Node4 -->
<g id="edge3" class="edge"><title>Node1&#45;&gt;Node4</title>
<path fill="none" stroke="orange" stroke-dasharray="5,2" d="M310.154,-41.5349C356.051,-36.7951 410.253,-31.1977 450.466,-27.0449"/>
<polygon fill="orange" stroke="orange" points="309.781,-38.0547 300.194,-42.5635 310.5,-45.0176 309.781,-38.0547"/>
<text text-anchor="middle" x="374" y="-44" font-family="Helvetica,sans-Serif" font-size="10.00"> &lt; leaf_type, self_type &gt;</text>
</g>
<!-- Node2 -->
<g id="node2" class="node"><title>Node2</title>
<g id="a_node2"><a xlink:href="classstxxl_1_1noncopyable.html" target="_top" xlink:title="stxxl::noncopyable">
<polygon fill="none" stroke="black" points="0,-41.5 0,-60.5 98,-60.5 98,-41.5 0,-41.5"/>
<text text-anchor="middle" x="49" y="-48.5" font-family="Helvetica,sans-Serif" font-size="10.00">stxxl::noncopyable</text>
</a>
</g>
</g>
<!-- Node2&#45;&gt;Node1 -->
<g id="edge1" class="edge"><title>Node2&#45;&gt;Node1</title>
<path fill="none" stroke="#8b1a1a" d="M108.401,-51C116.978,-51 125.942,-51 134.881,-51"/>
<polygon fill="#8b1a1a" stroke="#8b1a1a" points="108.159,-47.5001 98.1587,-51 108.159,-54.5001 108.159,-47.5001"/>
</g>
</g>
</svg>
