<?xml version="1.0" encoding="UTF-8" standalone="no"?>
<!DOCTYPE svg PUBLIC "-//W3C//DTD SVG 1.1//EN"
 "http://www.w3.org/Graphics/SVG/1.1/DTD/svg11.dtd">
<!-- Generated by graphviz version 2.38.0 (20140413.2041)
 -->
<!-- Title: stxxl::simple_vector&lt; ValueType &gt; Pages: 1 -->
<svg width="949pt" height="304pt"
 viewBox="0.00 0.00 949.00 303.50" xmlns="http://www.w3.org/2000/svg" xmlns:xlink="http://www.w3.org/1999/xlink">
<g id="graph0" class="graph" transform="scale(1 1) rotate(0) translate(4 299.5)">
<title>stxxl::simple_vector&lt; ValueType &gt;</title>
<!-- Node1 -->
<g id="node1" class="node"><title>Node1</title>
<polygon fill="#bfbfbf" stroke="black" points="135,-142 135,-172 239,-172 239,-142 135,-142"/>
<text text-anchor="start" x="143" y="-160" font-family="Helvetica,sans-Serif" font-size="10.00">stxxl::simple_vector</text>
<text text-anchor="middle" x="187" y="-149" font-family="Helvetica,sans-Serif" font-size="10.00">&lt; ValueType &gt;</text>
</g>
<!-- Node3 -->
<g id="node3" class="node"><title>Node3</title>
<g id="a_node3"><a xlink:href="classstxxl_1_1simple__vector.html" target="_top" xlink:title="stxxl::simple_vector\l\&lt; bid_type \&gt;">
<polygon fill="none" stroke="black" points="382.5,-265 382.5,-295 486.5,-295 486.5,-265 382.5,-265"/>
<text text-anchor="start" x="390.5" y="-283" font-family="Helvetica,sans-Serif" font-size="10.00">stxxl::simple_vector</text>
<text text-anchor="middle" x="434.5" y="-272" font-family="Helvetica,sans-Serif" font-size="10.00">&lt; bid_type &gt;</text>
</a>
</g>
</g>
<!-- Node1&#45;&gt;Node3 -->
<g id="edge2" class="edge"><title>Node1&#45;&gt;Node3</title>
<path fill="none" stroke="orange" stroke-dasharray="5,2" d="M204.784,-180.567C217.425,-196.683 236.111,-217.341 257,-230 295.541,-253.355 345.4,-266.168 382.29,-272.957"/>
<polygon fill="orange" stroke="orange" points="207.24,-178.013 198.408,-172.161 201.663,-182.243 207.24,-178.013"/>
<text text-anchor="middle" x="308" y="-271" font-family="Helvetica,sans-Serif" font-size="10.00"> &lt; bid_type &gt;</text>
</g>
<!-- Node4 -->
<g id="node4" class="node"><title>Node4</title>
<g id="a_node4"><a xlink:href="classstxxl_1_1simple__vector.html" target="_top" xlink:title="stxxl::simple_vector\l\&lt; stxxl::typed_block \&gt;">
<polygon fill="none" stroke="black" points="377.5,-216 377.5,-246 491.5,-246 491.5,-216 377.5,-216"/>
<text text-anchor="start" x="385.5" y="-234" font-family="Helvetica,sans-Serif" font-size="10.00">stxxl::simple_vector</text>
<text text-anchor="middle" x="434.5" y="-223" font-family="Helvetica,sans-Serif" font-size="10.00">&lt; stxxl::typed_block &gt;</text>
</a>
</g>
</g>
<!-- Node1&#45;&gt;Node4 -->
<g id="edge3" class="edge"><title>Node1&#45;&gt;Node4</title>
<path fill="none" stroke="orange" stroke-dasharray="5,2" d="M227.634,-176.297C237.121,-180.498 247.311,-184.675 257,-188 296.526,-201.565 342.418,-212.608 377.498,-220.105"/>
<polygon fill="orange" stroke="orange" points="228.979,-173.064 218.427,-172.119 226.087,-179.439 228.979,-173.064"/>
<text text-anchor="middle" x="308" y="-218" font-family="Helvetica,sans-Serif" font-size="10.00"> &lt; stxxl::typed_block &gt;</text>
</g>
<!-- Node5 -->
<g id="node5" class="node"><title>Node5</title>
<g id="a_node5"><a xlink:href="classstxxl_1_1simple__vector.html" target="_top" xlink:title="stxxl::simple_vector\l\&lt; list_type::iterator \&gt;">
<polygon fill="none" stroke="black" points="381,-167 381,-197 488,-197 488,-167 381,-167"/>
<text text-anchor="start" x="389" y="-185" font-family="Helvetica,sans-Serif" font-size="10.00">stxxl::simple_vector</text>
<text text-anchor="middle" x="434.5" y="-174" font-family="Helvetica,sans-Serif" font-size="10.00">&lt; list_type::iterator &gt;</text>
</a>
</g>
</g>
<!-- Node1&#45;&gt;Node5 -->
<g id="edge4" class="edge"><title>Node1&#45;&gt;Node5</title>
<path fill="none" stroke="orange" stroke-dasharray="5,2" d="M249.173,-163.229C289.615,-167.348 342.092,-172.692 380.705,-176.624"/>
<polygon fill="orange" stroke="orange" points="249.469,-159.742 239.166,-162.21 248.76,-166.706 249.469,-159.742"/>
<text text-anchor="middle" x="308" y="-176" font-family="Helvetica,sans-Serif" font-size="10.00"> &lt; list_type::iterator &gt;</text>
</g>
<!-- Node6 -->
<g id="node6" class="node"><title>Node6</title>
<g id="a_node6"><a xlink:href="classstxxl_1_1simple__vector.html" target="_top" xlink:title="stxxl::simple_vector\l\&lt; int_type \&gt;">
<polygon fill="none" stroke="black" points="382.5,-118 382.5,-148 486.5,-148 486.5,-118 382.5,-118"/>
<text text-anchor="start" x="390.5" y="-136" font-family="Helvetica,sans-Serif" font-size="10.00">stxxl::simple_vector</text>
<text text-anchor="middle" x="434.5" y="-125" font-family="Helvetica,sans-Serif" font-size="10.00">&lt; int_type &gt;</text>
</a>
</g>
</g>
<!-- Node1&#45;&gt;Node6 -->
<g id="edge5" class="edge"><title>Node1&#45;&gt;Node6</title>
<path fill="none" stroke="orange" stroke-dasharray="5,2" d="M249.315,-149.81C251.911,-149.531 254.481,-149.26 257,-149 299.235,-144.638 347.224,-140.329 382.491,-137.284"/>
<polygon fill="orange" stroke="orange" points="248.788,-146.347 239.229,-150.916 249.551,-153.305 248.788,-146.347"/>
<text text-anchor="middle" x="308" y="-152" font-family="Helvetica,sans-Serif" font-size="10.00"> &lt; int_type &gt;</text>
</g>
<!-- Node7 -->
<g id="node7" class="node"><title>Node7</title>
<g id="a_node7"><a xlink:href="classstxxl_1_1simple__vector.html" target="_top" xlink:title="stxxl::simple_vector\l\&lt; stxxl::counting_ptr \&gt;">
<polygon fill="none" stroke="black" points="377,-69 377,-99 492,-99 492,-69 377,-69"/>
<text text-anchor="start" x="385" y="-87" font-family="Helvetica,sans-Serif" font-size="10.00">stxxl::simple_vector</text>
<text text-anchor="middle" x="434.5" y="-76" font-family="Helvetica,sans-Serif" font-size="10.00">&lt; stxxl::counting_ptr &gt;</text>
</a>
</g>
</g>
<!-- Node1&#45;&gt;Node7 -->
<g id="edge6" class="edge"><title>Node1&#45;&gt;Node7</title>
<path fill="none" stroke="orange" stroke-dasharray="5,2" d="M226.163,-137.601C236.043,-133.053 246.78,-128.515 257,-125 296.119,-111.546 341.62,-101.096 376.625,-94.1134"/>
<polygon fill="orange" stroke="orange" points="224.544,-134.494 216.998,-141.931 227.535,-140.823 224.544,-134.494"/>
<text text-anchor="middle" x="308" y="-128" font-family="Helvetica,sans-Serif" font-size="10.00"> &lt; stxxl::counting_ptr &gt;</text>
</g>
<!-- Node8 -->
<g id="node8" class="node"><title>Node8</title>
<g id="a_node8"><a xlink:href="classstxxl_1_1simple__vector.html" target="_top" xlink:title="stxxl::simple_vector\l\&lt; BID\&lt; BlockSize \&gt; \&gt;">
<polygon fill="none" stroke="black" points="377.5,-20 377.5,-50 491.5,-50 491.5,-20 377.5,-20"/>
<text text-anchor="start" x="385.5" y="-38" font-family="Helvetica,sans-Serif" font-size="10.00">stxxl::simple_vector</text>
<text text-anchor="middle" x="434.5" y="-27" font-family="Helvetica,sans-Serif" font-size="10.00">&lt; BID&lt; BlockSize &gt; &gt;</text>
</a>
</g>
</g>
<!-- Node1&#45;&gt;Node8 -->
<g id="edge7" class="edge"><title>Node1&#45;&gt;Node8</title>
<path fill="none" stroke="orange" stroke-dasharray="5,2" d="M204.764,-133.399C217.395,-117.268 236.077,-96.6037 257,-84 293.775,-61.847 340.847,-49.432 377.129,-42.645"/>
<polygon fill="orange" stroke="orange" points="201.638,-131.729 198.394,-141.815 207.22,-135.954 201.638,-131.729"/>
<text text-anchor="middle" x="308" y="-87" font-family="Helvetica,sans-Serif" font-size="10.00"> &lt; BID&lt; BlockSize &gt; &gt;</text>
</g>
<!-- Node2 -->
<g id="node2" class="node"><title>Node2</title>
<g id="a_node2"><a xlink:href="classstxxl_1_1noncopyable.html" target="_top" xlink:title="stxxl::noncopyable">
<polygon fill="none" stroke="black" points="0,-147.5 0,-166.5 98,-166.5 98,-147.5 0,-147.5"/>
<text text-anchor="middle" x="49" y="-154.5" font-family="Helvetica,sans-Serif" font-size="10.00">stxxl::noncopyable</text>
</a>
</g>
</g>
<!-- Node2&#45;&gt;Node1 -->
<g id="edge1" class="edge"><title>Node2&#45;&gt;Node1</title>
<path fill="none" stroke="#8b1a1a" d="M108.42,-157C117.128,-157 126.05,-157 134.599,-157"/>
<polygon fill="#8b1a1a" stroke="#8b1a1a" points="108.331,-153.5 98.3314,-157 108.331,-160.5 108.331,-153.5"/>
</g>
<!-- Node9 -->
<g id="node9" class="node"><title>Node9</title>
<g id="a_node9"><a xlink:href="classstxxl_1_1BIDArray.html" target="_top" xlink:title="stxxl::BIDArray\&lt; block\l_type::raw_size \&gt;">
<polygon fill="none" stroke="black" points="825,-17 825,-47 941,-47 941,-17 825,-17"/>
<text text-anchor="start" x="833" y="-35" font-family="Helvetica,sans-Serif" font-size="10.00">stxxl::BIDArray&lt; block</text>
<text text-anchor="middle" x="883" y="-24" font-family="Helvetica,sans-Serif" font-size="10.00">_type::raw_size &gt;</text>
</a>
</g>
</g>
<!-- Node8&#45;&gt;Node9 -->
<g id="edge8" class="edge"><title>Node8&#45;&gt;Node9</title>
<path fill="none" stroke="midnightblue" d="M501.664,-35.2999C575.964,-35.5254 700.136,-35.5684 807,-34 812.731,-33.9159 818.707,-33.8016 824.675,-33.67"/>
<polygon fill="midnightblue" stroke="midnightblue" points="501.529,-31.7996 491.518,-35.267 501.507,-38.7995 501.529,-31.7996"/>
</g>
<!-- Node10 -->
<g id="node10" class="node"><title>Node10</title>
<g id="a_node10"><a xlink:href="classstxxl_1_1BIDArray.html" target="_top" xlink:title="stxxl::BIDArray\&lt; BlockSize \&gt;">
<polygon fill="none" stroke="black" points="529,-0.5 529,-19.5 675,-19.5 675,-0.5 529,-0.5"/>
<text text-anchor="middle" x="602" y="-7.5" font-family="Helvetica,sans-Serif" font-size="10.00">stxxl::BIDArray&lt; BlockSize &gt;</text>
</a>
</g>
</g>
<!-- Node8&#45;&gt;Node10 -->
<g id="edge9" class="edge"><title>Node8&#45;&gt;Node10</title>
<path fill="none" stroke="midnightblue" d="M501.478,-25.0335C513.486,-23.2196 525.986,-21.3314 537.908,-19.5306"/>
<polygon fill="midnightblue" stroke="midnightblue" points="500.896,-21.5817 491.531,-26.5361 501.941,-28.5032 500.896,-21.5817"/>
</g>
<!-- Node10&#45;&gt;Node9 -->
<g id="edge10" class="edge"><title>Node10&#45;&gt;Node9</title>
<path fill="none" stroke="orange" stroke-dasharray="5,2" d="M685.578,-14.2126C722.728,-16.3779 767.106,-19.3381 807,-23 812.746,-23.5274 818.733,-24.1394 824.707,-24.7914"/>
<polygon fill="orange" stroke="orange" points="685.485,-10.7016 675.301,-13.623 685.084,-17.6901 685.485,-10.7016"/>
<text text-anchor="middle" x="750" y="-26" font-family="Helvetica,sans-Serif" font-size="10.00"> &lt; block_type::raw_size &gt;</text>
</g>
</g>
</svg>
