<?xml version="1.0" encoding="UTF-8" standalone="no"?>
<!DOCTYPE svg PUBLIC "-//W3C//DTD SVG 1.1//EN"
 "http://www.w3.org/Graphics/SVG/1.1/DTD/svg11.dtd">
<!-- Generated by graphviz version 2.26.3 (20100126.1600)
 -->
<!-- Title: stxxl::block_scheduler_algorithm_offline_lru_prefetching&lt; SwappableBlockType &gt; Pages: 1 -->
<svg width="190pt" height="186pt"
 viewBox="0.00 0.00 190.00 186.00" xmlns="http://www.w3.org/2000/svg" xmlns:xlink="http://www.w3.org/1999/xlink">
<g id="graph1" class="graph" transform="scale(1 1) rotate(0) translate(4 182)">
<title>stxxl::block_scheduler_algorithm_offline_lru_prefetching&lt; SwappableBlockType &gt;</title>
<!-- Node1 -->
<g id="node1" class="node"><title>Node1</title>
<polygon fill="#bfbfbf" stroke="black" points="0,-0.5 0,-47.5 182,-47.5 182,-0.5 0,-0.5"/>
<text text-anchor="start" x="8" y="-34.5" font-family="Helvetica,sans-Serif" font-size="10.00">stxxl::block_scheduler</text>
<text text-anchor="start" x="8" y="-21.5" font-family="Helvetica,sans-Serif" font-size="10.00">_algorithm_offline_lru</text>
<text text-anchor="middle" x="91" y="-8.5" font-family="Helvetica,sans-Serif" font-size="10.00">_prefetching&lt; SwappableBlockType &gt;</text>
</g>
<!-- Node2 -->
<g id="node2" class="node"><title>Node2</title>
<a xlink:href="classstxxl_1_1block__scheduler__algorithm.html" target="_top" xlink:title="Interface of a block scheduling algorithm. ">
<polygon fill="none" stroke="black" points="4,-85 4,-119 178,-119 178,-85 4,-85"/>
<text text-anchor="start" x="12" y="-106" font-family="Helvetica,sans-Serif" font-size="10.00">stxxl::block_scheduler</text>
<text text-anchor="middle" x="91" y="-93" font-family="Helvetica,sans-Serif" font-size="10.00">_algorithm&lt; SwappableBlockType &gt;</text>
</a>
</g>
<!-- Node2&#45;&gt;Node1 -->
<g id="edge2" class="edge"><title>Node2&#45;&gt;Node1</title>
<path fill="none" stroke="midnightblue" d="M91,-74.5793C91,-65.8339 91,-56.2342 91,-47.77"/>
<polygon fill="midnightblue" stroke="midnightblue" points="87.5001,-74.6892 91,-84.6893 94.5001,-74.6893 87.5001,-74.6892"/>
</g>
<!-- Node3 -->
<g id="node4" class="node"><title>Node3</title>
<a xlink:href="classstxxl_1_1noncopyable.html" target="_top" xlink:title="stxxl::noncopyable">
<polygon fill="none" stroke="black" points="42,-156.5 42,-177.5 140,-177.5 140,-156.5 42,-156.5"/>
<text text-anchor="middle" x="91" y="-164.5" font-family="Helvetica,sans-Serif" font-size="10.00">stxxl::noncopyable</text>
</a>
</g>
<!-- Node3&#45;&gt;Node2 -->
<g id="edge4" class="edge"><title>Node3&#45;&gt;Node2</title>
<path fill="none" stroke="#8b1a1a" d="M91,-146.131C91,-137.405 91,-127.391 91,-119.11"/>
<polygon fill="#8b1a1a" stroke="#8b1a1a" points="87.5001,-146.267 91,-156.267 94.5001,-146.267 87.5001,-146.267"/>
</g>
</g>
</svg>
