<?xml version="1.0" encoding="UTF-8" standalone="no"?>
<!DOCTYPE svg PUBLIC "-//W3C//DTD SVG 1.1//EN"
 "http://www.w3.org/Graphics/SVG/1.1/DTD/svg11.dtd">
<!-- Generated by graphviz version 2.26.3 (20100126.1600)
 -->
<!-- Title: stxxl::stream::runs_creator&lt; use_push&lt; ValueType_ &gt;, CompareType_, BlockSize_, AllocStr_ &gt; Pages: 1 -->
<svg width="3338pt" height="406pt"
 viewBox="0.00 0.00 3338.00 406.00" xmlns="http://www.w3.org/2000/svg" xmlns:xlink="http://www.w3.org/1999/xlink">
<g id="graph1" class="graph" transform="scale(1 1) rotate(0) translate(4 402)">
<title>stxxl::stream::runs_creator&lt; use_push&lt; ValueType_ &gt;, CompareType_, BlockSize_, AllocStr_ &gt;</title>
<!-- Node1 -->
<g id="node1" class="node"><title>Node1</title>
<polygon fill="#bfbfbf" stroke="black" points="3182,-256 3182,-316 3330,-316 3330,-256 3182,-256"/>
<text text-anchor="start" x="3190" y="-303" font-family="Helvetica,sans-Serif" font-size="10.00">stxxl::stream::runs</text>
<text text-anchor="start" x="3190" y="-290" font-family="Helvetica,sans-Serif" font-size="10.00">_creator&lt; use_push&lt;</text>
<text text-anchor="start" x="3190" y="-277" font-family="Helvetica,sans-Serif" font-size="10.00"> ValueType_ &gt;, CompareType</text>
<text text-anchor="middle" x="3256" y="-264" font-family="Helvetica,sans-Serif" font-size="10.00">_, BlockSize_, AllocStr_ &gt;</text>
</g>
<!-- Node2 -->
<g id="node2" class="node"><title>Node2</title>
<a xlink:href="classstxxl_1_1noncopyable.html" target="_top" xlink:title="stxxl::noncopyable">
<polygon fill="none" stroke="black" points="11,-317.5 11,-338.5 109,-338.5 109,-317.5 11,-317.5"/>
<text text-anchor="middle" x="60" y="-325.5" font-family="Helvetica,sans-Serif" font-size="10.00">stxxl::noncopyable</text>
</a>
</g>
<!-- Node2&#45;&gt;Node1 -->
<g id="edge2" class="edge"><title>Node2&#45;&gt;Node1</title>
<path fill="none" stroke="#8b1a1a" d="M91.4249,-342.782C138.048,-363.322 228.788,-398 310,-398 310,-398 310,-398 3027,-398 3101.79,-398 3177.64,-349.19 3220.55,-316.014"/>
<polygon fill="#8b1a1a" stroke="#8b1a1a" points="92.7217,-339.528 82.1649,-338.631 89.8584,-345.916 92.7217,-339.528"/>
</g>
<!-- Node4 -->
<g id="node6" class="node"><title>Node4</title>
<a xlink:href="structstxxl_1_1stream_1_1sorted__runs.html" target="_top" xlink:title="All sorted runs of a sort operation. ">
<polygon fill="none" stroke="black" points="742,-322.5 742,-369.5 870,-369.5 870,-322.5 742,-322.5"/>
<text text-anchor="start" x="750" y="-356.5" font-family="Helvetica,sans-Serif" font-size="10.00">stxxl::stream::sorted</text>
<text text-anchor="start" x="750" y="-343.5" font-family="Helvetica,sans-Serif" font-size="10.00">_runs&lt; TriggerEntryType,</text>
<text text-anchor="middle" x="806" y="-330.5" font-family="Helvetica,sans-Serif" font-size="10.00"> CompareType &gt;</text>
</a>
</g>
<!-- Node2&#45;&gt;Node4 -->
<g id="edge8" class="edge"><title>Node2&#45;&gt;Node4</title>
<path fill="none" stroke="#8b1a1a" d="M119.622,-329.439C257.895,-332.775 599.468,-341.017 741.961,-344.455"/>
<polygon fill="#8b1a1a" stroke="#8b1a1a" points="119.317,-325.93 109.236,-329.188 119.148,-332.928 119.317,-325.93"/>
</g>
<!-- Node16 -->
<g id="node33" class="node"><title>Node16</title>
<a xlink:href="classstxxl_1_1file.html" target="_top" xlink:title="Defines interface of file. ">
<polygon fill="none" stroke="black" points="778,-213.5 778,-234.5 834,-234.5 834,-213.5 778,-213.5"/>
<text text-anchor="middle" x="806" y="-221.5" font-family="Helvetica,sans-Serif" font-size="10.00">stxxl::file</text>
</a>
</g>
<!-- Node2&#45;&gt;Node16 -->
<g id="edge38" class="edge"><title>Node2&#45;&gt;Node16</title>
<path fill="none" stroke="#8b1a1a" d="M119.533,-326.456C246.908,-322.767 542.221,-312.063 640,-290 694.607,-277.678 754.734,-249.921 785.45,-234.621"/>
<polygon fill="#8b1a1a" stroke="#8b1a1a" points="119.093,-322.967 109.197,-326.75 119.293,-329.964 119.093,-322.967"/>
</g>
<!-- Node18 -->
<g id="node38" class="node"><title>Node18</title>
<a xlink:href="classstxxl_1_1mutex.html" target="_top" xlink:title="stxxl::mutex">
<polygon fill="none" stroke="black" points="274.5,-246.5 274.5,-267.5 345.5,-267.5 345.5,-246.5 274.5,-246.5"/>
<text text-anchor="middle" x="310" y="-254.5" font-family="Helvetica,sans-Serif" font-size="10.00">stxxl::mutex</text>
</a>
</g>
<!-- Node2&#45;&gt;Node18 -->
<g id="edge44" class="edge"><title>Node2&#45;&gt;Node18</title>
<path fill="none" stroke="#8b1a1a" d="M91.3351,-313.195C105.382,-306.963 122.293,-300.011 138,-295 184.178,-280.267 239.108,-269.211 274.251,-262.926"/>
<polygon fill="#8b1a1a" stroke="#8b1a1a" points="89.7884,-310.053 82.1175,-317.361 92.6715,-316.431 89.7884,-310.053"/>
</g>
<!-- Node3 -->
<g id="node4" class="node"><title>Node3</title>
<a xlink:href="classstxxl_1_1counting__ptr.html" target="_top" xlink:title="stxxl::counting_ptr\l\&lt; sorted_runs_data_type \&gt;">
<polygon fill="none" stroke="black" points="2960,-317 2960,-351 3094,-351 3094,-317 2960,-317"/>
<text text-anchor="start" x="2968" y="-338" font-family="Helvetica,sans-Serif" font-size="10.00">stxxl::counting_ptr</text>
<text text-anchor="middle" x="3027" y="-325" font-family="Helvetica,sans-Serif" font-size="10.00">&lt; sorted_runs_data_type &gt;</text>
</a>
</g>
<!-- Node3&#45;&gt;Node1 -->
<g id="edge4" class="edge"><title>Node3&#45;&gt;Node1</title>
<path fill="none" stroke="#9a32cd" stroke-dasharray="5,2" d="M3103.98,-317.865C3129.03,-312.614 3156.77,-306.8 3181.62,-301.59"/>
<polygon fill="#9a32cd" stroke="#9a32cd" points="3103.23,-314.446 3094.16,-319.923 3104.67,-321.297 3103.23,-314.446"/>
<text text-anchor="middle" x="3138" y="-319" font-family="Helvetica,sans-Serif" font-size="10.00"> m_result</text>
</g>
<!-- Node4&#45;&gt;Node3 -->
<g id="edge6" class="edge"><title>Node4&#45;&gt;Node3</title>
<path fill="none" stroke="#9a32cd" stroke-dasharray="5,2" d="M880.761,-354.165C914.936,-357.237 955.972,-360 993,-360 993,-360 993,-360 2756,-360 2825.72,-360 2905.06,-351.369 2959.79,-344.052"/>
<polygon fill="#9a32cd" stroke="#9a32cd" points="880.667,-350.642 870.387,-353.205 880.022,-357.612 880.667,-350.642"/>
<text text-anchor="middle" x="1818" y="-364" font-family="Helvetica,sans-Serif" font-size="10.00"> m_ptr</text>
</g>
<!-- Node5 -->
<g id="node9" class="node"><title>Node5</title>
<a xlink:href="classstxxl_1_1counted__object.html" target="_top" xlink:title="Provides reference counting abilities for use with counting_ptr. ">
<polygon fill="none" stroke="black" points="528,-259.5 528,-280.5 638,-280.5 638,-259.5 528,-259.5"/>
<text text-anchor="middle" x="583" y="-267.5" font-family="Helvetica,sans-Serif" font-size="10.00">stxxl::counted_object</text>
</a>
</g>
<!-- Node5&#45;&gt;Node4 -->
<g id="edge10" class="edge"><title>Node5&#45;&gt;Node4</title>
<path fill="none" stroke="midnightblue" d="M623.766,-283.893C656.749,-295.134 703.797,-311.168 741.826,-324.129"/>
<polygon fill="midnightblue" stroke="midnightblue" points="624.602,-280.481 614.007,-280.567 622.344,-287.106 624.602,-280.481"/>
</g>
<!-- Node6 -->
<g id="node11" class="node"><title>Node6</title>
<a xlink:href="structstxxl_1_1choose__int__types.html" target="_top" xlink:title="stxxl::choose_int_types\l\&lt; my_pointer_size \&gt;">
<polygon fill="none" stroke="black" points="250,-181 250,-215 370,-215 370,-181 250,-181"/>
<text text-anchor="start" x="258" y="-202" font-family="Helvetica,sans-Serif" font-size="10.00">stxxl::choose_int_types</text>
<text text-anchor="middle" x="310" y="-189" font-family="Helvetica,sans-Serif" font-size="10.00">&lt; my_pointer_size &gt;</text>
</a>
</g>
<!-- Node6&#45;&gt;Node1 -->
<g id="edge18" class="edge"><title>Node6&#45;&gt;Node1</title>
<path fill="none" stroke="#9a32cd" stroke-dasharray="5,2" d="M327.57,-172.482C366.704,-118.986 466.808,-0 583,-0 583,-0 583,-0 3027,-0 3157.08,-0 3225.47,-182.504 3247.72,-255.934"/>
<polygon fill="#9a32cd" stroke="#9a32cd" points="324.603,-170.612 321.608,-180.775 330.287,-174.698 324.603,-170.612"/>
<text text-anchor="middle" x="1707" y="-4" font-family="Helvetica,sans-Serif" font-size="10.00"> m_cur_el</text>
</g>
<!-- Node6&#45;&gt;Node5 -->
<g id="edge12" class="edge"><title>Node6&#45;&gt;Node5</title>
<path fill="none" stroke="#9a32cd" stroke-dasharray="5,2" d="M345.059,-220.719C365.18,-233.717 386.723,-247.547 388,-248 433.268,-264.074 487.826,-269.115 527.707,-270.401"/>
<polygon fill="#9a32cd" stroke="#9a32cd" points="346.884,-217.731 336.586,-215.241 343.083,-223.61 346.884,-217.731"/>
<text text-anchor="middle" x="448" y="-273" font-family="Helvetica,sans-Serif" font-size="10.00"> m_reference_count</text>
</g>
<!-- Node17 -->
<g id="node36" class="node"><title>Node17</title>
<a xlink:href="classstxxl_1_1atomic__counted__object.html" target="_top" xlink:title="Provides reference counting abilities for use with counting_ptr with mutex locking. ">
<polygon fill="none" stroke="black" points="526.5,-207 526.5,-241 639.5,-241 639.5,-207 526.5,-207"/>
<text text-anchor="start" x="534.5" y="-228" font-family="Helvetica,sans-Serif" font-size="10.00">stxxl::atomic_counted</text>
<text text-anchor="middle" x="583" y="-215" font-family="Helvetica,sans-Serif" font-size="10.00">_object</text>
</a>
</g>
<!-- Node6&#45;&gt;Node17 -->
<g id="edge46" class="edge"><title>Node6&#45;&gt;Node17</title>
<path fill="none" stroke="#9a32cd" stroke-dasharray="5,2" d="M380.648,-192.973C418.637,-191.619 466.146,-192.1 508,-199 518.428,-200.719 529.368,-203.666 539.568,-206.946"/>
<polygon fill="#9a32cd" stroke="#9a32cd" points="380.048,-189.494 370.199,-193.399 380.333,-196.489 380.048,-189.494"/>
<text text-anchor="middle" x="448" y="-203" font-family="Helvetica,sans-Serif" font-size="10.00"> m_reference_count</text>
</g>
<!-- Node7 -->
<g id="node13" class="node"><title>Node7</title>
<a xlink:href="structstxxl_1_1choose__int__types.html" target="_top" xlink:title="stxxl::choose_int_types\l\&lt; PtrSize \&gt;">
<polygon fill="none" stroke="black" points="0,-181 0,-215 120,-215 120,-181 0,-181"/>
<text text-anchor="start" x="8" y="-202" font-family="Helvetica,sans-Serif" font-size="10.00">stxxl::choose_int_types</text>
<text text-anchor="middle" x="60" y="-189" font-family="Helvetica,sans-Serif" font-size="10.00">&lt; PtrSize &gt;</text>
</a>
</g>
<!-- Node7&#45;&gt;Node6 -->
<g id="edge14" class="edge"><title>Node7&#45;&gt;Node6</title>
<path fill="none" stroke="orange" stroke-dasharray="5,2" d="M130.578,-198C168.196,-198 213.985,-198 249.89,-198"/>
<polygon fill="orange" stroke="orange" points="130.199,-194.5 120.199,-198 130.199,-201.5 130.199,-194.5"/>
<text text-anchor="middle" x="185" y="-202" font-family="Helvetica,sans-Serif" font-size="10.00"> &lt; my_pointer_size &gt;</text>
</g>
<!-- Node8 -->
<g id="node15" class="node"><title>Node8</title>
<a xlink:href="classstxxl_1_1counting__ptr.html" target="_top" xlink:title="High&#45;performance smart pointer used as a wrapping reference counting pointer. ">
<polygon fill="none" stroke="black" points="2707.5,-286 2707.5,-320 2804.5,-320 2804.5,-286 2707.5,-286"/>
<text text-anchor="start" x="2715.5" y="-307" font-family="Helvetica,sans-Serif" font-size="10.00">stxxl::counting_ptr</text>
<text text-anchor="middle" x="2756" y="-294" font-family="Helvetica,sans-Serif" font-size="10.00">&lt; Type &gt;</text>
</a>
</g>
<!-- Node8&#45;&gt;Node1 -->
<g id="edge20" class="edge"><title>Node8&#45;&gt;Node1</title>
<path fill="none" stroke="#9a32cd" stroke-dasharray="5,2" d="M2814.66,-300.563C2855.43,-298.902 2911.02,-296.705 2960,-295 3035.53,-292.371 3121.92,-289.794 3181.79,-288.075"/>
<polygon fill="#9a32cd" stroke="#9a32cd" points="2814.48,-297.067 2804.63,-300.972 2814.77,-304.061 2814.48,-297.067"/>
<text text-anchor="middle" x="3027" y="-299" font-family="Helvetica,sans-Serif" font-size="10.00"> m_write_reqs</text>
</g>
<!-- Node8&#45;&gt;Node3 -->
<g id="edge16" class="edge"><title>Node8&#45;&gt;Node3</title>
<path fill="none" stroke="orange" stroke-dasharray="5,2" d="M2814.69,-307.275C2851.36,-310.215 2899.52,-314.567 2942,-320 2947.79,-320.74 2953.78,-321.579 2959.79,-322.471"/>
<polygon fill="orange" stroke="orange" points="2814.91,-303.781 2804.67,-306.483 2814.36,-310.76 2814.91,-303.781"/>
<text text-anchor="start" x="2854" y="-337" font-family="Helvetica,sans-Serif" font-size="10.00"> &lt; sorted_runs_data</text>
<text text-anchor="middle" x="2898" y="-324" font-family="Helvetica,sans-Serif" font-size="10.00">_type &gt;</text>
</g>
<!-- Node9 -->
<g id="node19" class="node"><title>Node9</title>
<a xlink:href="classstxxl_1_1typed__block.html" target="_top" xlink:title="Block containing elements of fixed length. ">
<polygon fill="none" stroke="black" points="2964.5,-202.5 2964.5,-249.5 3089.5,-249.5 3089.5,-202.5 2964.5,-202.5"/>
<text text-anchor="start" x="2972.5" y="-236.5" font-family="Helvetica,sans-Serif" font-size="10.00">stxxl::typed_block</text>
<text text-anchor="start" x="2972.5" y="-223.5" font-family="Helvetica,sans-Serif" font-size="10.00">&lt; RawSize, Type, NRef,</text>
<text text-anchor="middle" x="3027" y="-210.5" font-family="Helvetica,sans-Serif" font-size="10.00"> MetaInfoType &gt;</text>
</a>
</g>
<!-- Node9&#45;&gt;Node1 -->
<g id="edge22" class="edge"><title>Node9&#45;&gt;Node1</title>
<path fill="none" stroke="#9a32cd" stroke-dasharray="5,2" d="M3099.92,-232.995C3120.85,-235.981 3143.54,-240.17 3164,-246 3173.55,-248.72 3183.4,-252.212 3192.96,-255.997"/>
<polygon fill="#9a32cd" stroke="#9a32cd" points="3100.18,-229.498 3089.8,-231.623 3099.24,-236.435 3100.18,-229.498"/>
<text text-anchor="middle" x="3138" y="-263" font-family="Helvetica,sans-Serif" font-size="10.00"> m_blocks1</text>
<text text-anchor="middle" x="3138" y="-250" font-family="Helvetica,sans-Serif" font-size="10.00">m_blocks2</text>
</g>
<!-- Node10 -->
<g id="node21" class="node"><title>Node10</title>
<a xlink:href="classstxxl_1_1mng__local_1_1expand__struct.html" target="_top" xlink:title="stxxl::mng_local::expand\l_struct\&lt; mng_local::block\l_w_info\&lt; Type, RawSize, NRef,\l MetaInfoType \&gt;, RawSize \&gt;">
<polygon fill="none" stroke="black" points="2676.5,-196 2676.5,-256 2835.5,-256 2835.5,-196 2676.5,-196"/>
<text text-anchor="start" x="2684.5" y="-243" font-family="Helvetica,sans-Serif" font-size="10.00">stxxl::mng_local::expand</text>
<text text-anchor="start" x="2684.5" y="-230" font-family="Helvetica,sans-Serif" font-size="10.00">_struct&lt; mng_local::block</text>
<text text-anchor="start" x="2684.5" y="-217" font-family="Helvetica,sans-Serif" font-size="10.00">_w_info&lt; Type, RawSize, NRef,</text>
<text text-anchor="middle" x="2756" y="-204" font-family="Helvetica,sans-Serif" font-size="10.00"> MetaInfoType &gt;, RawSize &gt;</text>
</a>
</g>
<!-- Node10&#45;&gt;Node9 -->
<g id="edge24" class="edge"><title>Node10&#45;&gt;Node9</title>
<path fill="none" stroke="midnightblue" d="M2846.1,-226C2884.92,-226 2929.36,-226 2964.48,-226"/>
<polygon fill="midnightblue" stroke="midnightblue" points="2845.84,-222.5 2835.84,-226 2845.84,-229.5 2845.84,-222.5"/>
</g>
<!-- Node11 -->
<g id="node23" class="node"><title>Node11</title>
<a xlink:href="classstxxl_1_1mng__local_1_1add__filler.html" target="_top" xlink:title="stxxl::mng_local::add\l_filler\&lt; mng_local::block\l_w_info\&lt; Type, RawSize,\l NRef, MetaInfoType \&gt;, RawSize\l&#45;sizeof(mng_local::block_w_info\l\&lt; Type, RawSize, NRef, MetaInfoType \&gt;)\&gt;">
<polygon fill="none" stroke="black" points="2320,-122 2320,-208 2526,-208 2526,-122 2320,-122"/>
<text text-anchor="start" x="2328" y="-195" font-family="Helvetica,sans-Serif" font-size="10.00">stxxl::mng_local::add</text>
<text text-anchor="start" x="2328" y="-182" font-family="Helvetica,sans-Serif" font-size="10.00">_filler&lt; mng_local::block</text>
<text text-anchor="start" x="2328" y="-169" font-family="Helvetica,sans-Serif" font-size="10.00">_w_info&lt; Type, RawSize,</text>
<text text-anchor="start" x="2328" y="-156" font-family="Helvetica,sans-Serif" font-size="10.00"> NRef, MetaInfoType &gt;, RawSize</text>
<text text-anchor="start" x="2328" y="-143" font-family="Helvetica,sans-Serif" font-size="10.00">&#45;sizeof(mng_local::block_w_info</text>
<text text-anchor="middle" x="2423" y="-130" font-family="Helvetica,sans-Serif" font-size="10.00">&lt; Type, RawSize, NRef, MetaInfoType &gt;)&gt;</text>
</a>
</g>
<!-- Node11&#45;&gt;Node10 -->
<g id="edge26" class="edge"><title>Node11&#45;&gt;Node10</title>
<path fill="none" stroke="midnightblue" d="M2536.12,-185.723C2582.22,-194.166 2634.42,-203.728 2676.39,-211.416"/>
<polygon fill="midnightblue" stroke="midnightblue" points="2536.55,-182.242 2526.08,-183.883 2535.29,-189.128 2536.55,-182.242"/>
</g>
<!-- Node12 -->
<g id="node25" class="node"><title>Node12</title>
<a xlink:href="classstxxl_1_1mng__local_1_1block__w__info.html" target="_top" xlink:title="stxxl::mng_local::block\l_w_info\&lt; Type, RawSize,\l NRef, MetaInfoType \&gt;">
<polygon fill="none" stroke="black" points="2145,-66.5 2145,-113.5 2275,-113.5 2275,-66.5 2145,-66.5"/>
<text text-anchor="start" x="2153" y="-100.5" font-family="Helvetica,sans-Serif" font-size="10.00">stxxl::mng_local::block</text>
<text text-anchor="start" x="2153" y="-87.5" font-family="Helvetica,sans-Serif" font-size="10.00">_w_info&lt; Type, RawSize,</text>
<text text-anchor="middle" x="2210" y="-74.5" font-family="Helvetica,sans-Serif" font-size="10.00"> NRef, MetaInfoType &gt;</text>
</a>
</g>
<!-- Node12&#45;&gt;Node11 -->
<g id="edge28" class="edge"><title>Node12&#45;&gt;Node11</title>
<path fill="none" stroke="midnightblue" d="M2284.53,-116.243C2295.97,-120.271 2307.95,-124.489 2319.87,-128.688"/>
<polygon fill="midnightblue" stroke="midnightblue" points="2285.66,-112.93 2275.06,-112.91 2283.33,-119.533 2285.66,-112.93"/>
</g>
<!-- Node13 -->
<g id="node27" class="node"><title>Node13</title>
<a xlink:href="classstxxl_1_1mng__local_1_1block__w__bids.html" target="_top" xlink:title="stxxl::mng_local::block\l_w_bids\&lt; Type,((RawSize\l&#45;sizeof(BID\&lt; RawSize \&gt;)*NBids\l&#45;sizeof(MetaInfoType))/sizeof\l(Type)), RawSize, NBids \&gt;">
<polygon fill="none" stroke="black" points="1628,-67.5 1628,-140.5 1786,-140.5 1786,-67.5 1628,-67.5"/>
<text text-anchor="start" x="1636" y="-127.5" font-family="Helvetica,sans-Serif" font-size="10.00">stxxl::mng_local::block</text>
<text text-anchor="start" x="1636" y="-114.5" font-family="Helvetica,sans-Serif" font-size="10.00">_w_bids&lt; Type,((RawSize</text>
<text text-anchor="start" x="1636" y="-101.5" font-family="Helvetica,sans-Serif" font-size="10.00">&#45;sizeof(BID&lt; RawSize &gt;)*NBids</text>
<text text-anchor="start" x="1636" y="-88.5" font-family="Helvetica,sans-Serif" font-size="10.00">&#45;sizeof(MetaInfoType))/sizeof</text>
<text text-anchor="middle" x="1707" y="-75.5" font-family="Helvetica,sans-Serif" font-size="10.00">(Type)), RawSize, NBids &gt;</text>
</a>
</g>
<!-- Node13&#45;&gt;Node12 -->
<g id="edge30" class="edge"><title>Node13&#45;&gt;Node12</title>
<path fill="none" stroke="midnightblue" d="M1796.23,-101.516C1896.25,-98.7326 2056.01,-94.2861 2144.91,-91.8116"/>
<polygon fill="midnightblue" stroke="midnightblue" points="1796.05,-98.0201 1786.15,-101.797 1796.24,-105.017 1796.05,-98.0201"/>
</g>
<!-- Node21 -->
<g id="node49" class="node"><title>Node21</title>
<a xlink:href="classstxxl_1_1mng__local_1_1block__w__info.html" target="_top" xlink:title="Contains per block information for stxxl::typed_block , not intended for direct use. ">
<polygon fill="none" stroke="black" points="1855,-28.5 1855,-75.5 1985,-75.5 1985,-28.5 1855,-28.5"/>
<text text-anchor="start" x="1863" y="-62.5" font-family="Helvetica,sans-Serif" font-size="10.00">stxxl::mng_local::block</text>
<text text-anchor="start" x="1863" y="-49.5" font-family="Helvetica,sans-Serif" font-size="10.00">_w_info&lt; Type, RawSize,</text>
<text text-anchor="middle" x="1920" y="-36.5" font-family="Helvetica,sans-Serif" font-size="10.00"> NBids, MetaInfoType &gt;</text>
</a>
</g>
<!-- Node13&#45;&gt;Node21 -->
<g id="edge60" class="edge"><title>Node13&#45;&gt;Node21</title>
<path fill="none" stroke="midnightblue" d="M1795.91,-82.2935C1815.62,-77.4831 1836.15,-72.4711 1854.7,-67.9408"/>
<polygon fill="midnightblue" stroke="midnightblue" points="1794.9,-78.9391 1786.01,-84.711 1796.56,-85.7394 1794.9,-78.9391"/>
</g>
<!-- Node14 -->
<g id="node29" class="node"><title>Node14</title>
<a xlink:href="classstxxl_1_1mng__local_1_1element__block.html" target="_top" xlink:title="Contains data elements for stxxl::typed_block , not intended for direct use. ">
<polygon fill="none" stroke="black" points="1142,-80 1142,-114 1270,-114 1270,-80 1142,-80"/>
<text text-anchor="start" x="1150" y="-101" font-family="Helvetica,sans-Serif" font-size="10.00">stxxl::mng_local::element</text>
<text text-anchor="middle" x="1206" y="-88" font-family="Helvetica,sans-Serif" font-size="10.00">_block&lt; Type, Size &gt;</text>
</a>
</g>
<!-- Node14&#45;&gt;Node13 -->
<g id="edge32" class="edge"><title>Node14&#45;&gt;Node13</title>
<path fill="none" stroke="midnightblue" d="M1280.11,-91.8601C1294.02,-91.0847 1308.45,-90.4085 1322,-90 1449.98,-86.1421 1482.22,-88.9495 1610,-97 1615.81,-97.3663 1621.82,-97.7609 1627.87,-98.1697"/>
<polygon fill="midnightblue" stroke="midnightblue" points="1279.87,-88.3679 1270.09,-92.4398 1280.28,-95.3562 1279.87,-88.3679"/>
</g>
<!-- Node20 -->
<g id="node45" class="node"><title>Node20</title>
<a xlink:href="classstxxl_1_1mng__local_1_1block__w__bids.html" target="_top" xlink:title="Contains BID references for stxxl::typed_block , not intended for direct use. ">
<polygon fill="none" stroke="black" points="1322,-99.5 1322,-146.5 1480,-146.5 1480,-99.5 1322,-99.5"/>
<text text-anchor="start" x="1330" y="-133.5" font-family="Helvetica,sans-Serif" font-size="10.00">stxxl::mng_local::block</text>
<text text-anchor="start" x="1330" y="-120.5" font-family="Helvetica,sans-Serif" font-size="10.00">_w_bids&lt; Type, Size, RawSize,</text>
<text text-anchor="middle" x="1401" y="-107.5" font-family="Helvetica,sans-Serif" font-size="10.00"> NBids &gt;</text>
</a>
</g>
<!-- Node14&#45;&gt;Node20 -->
<g id="edge54" class="edge"><title>Node14&#45;&gt;Node20</title>
<path fill="none" stroke="midnightblue" d="M1280.36,-106.915C1293.94,-108.725 1308.15,-110.62 1321.86,-112.448"/>
<polygon fill="midnightblue" stroke="midnightblue" points="1280.5,-103.402 1270.12,-105.549 1279.57,-110.34 1280.5,-103.402"/>
</g>
<!-- Node15 -->
<g id="node31" class="node"><title>Node15</title>
<a xlink:href="structstxxl_1_1BID.html" target="_top" xlink:title="stxxl::BID\&lt; raw_size \&gt;">
<polygon fill="none" stroke="black" points="1147,-173.5 1147,-194.5 1265,-194.5 1265,-173.5 1147,-173.5"/>
<text text-anchor="middle" x="1206" y="-181.5" font-family="Helvetica,sans-Serif" font-size="10.00">stxxl::BID&lt; raw_size &gt;</text>
</a>
</g>
<!-- Node15&#45;&gt;Node13 -->
<g id="edge34" class="edge"><title>Node15&#45;&gt;Node13</title>
<path fill="none" stroke="#9a32cd" stroke-dasharray="5,2" d="M1275.2,-186.207C1373.91,-188.573 1549.84,-189.672 1610,-170 1629.36,-163.669 1648.4,-152.213 1664.41,-140.603"/>
<polygon fill="#9a32cd" stroke="#9a32cd" points="1275.11,-182.704 1265.02,-185.952 1274.93,-189.702 1275.11,-182.704"/>
<text text-anchor="middle" x="1401" y="-192" font-family="Helvetica,sans-Serif" font-size="10.00"> ref</text>
</g>
<!-- Node15&#45;&gt;Node20 -->
<g id="edge56" class="edge"><title>Node15&#45;&gt;Node20</title>
<path fill="none" stroke="#9a32cd" stroke-dasharray="5,2" d="M1247.13,-170.227C1260.18,-165.92 1274.67,-161.199 1288,-157 1298.94,-153.553 1310.5,-149.987 1321.89,-146.519"/>
<polygon fill="#9a32cd" stroke="#9a32cd" points="1245.87,-166.957 1237.48,-173.424 1248.07,-173.602 1245.87,-166.957"/>
<text text-anchor="middle" x="1296" y="-161" font-family="Helvetica,sans-Serif" font-size="10.00"> ref</text>
</g>
<!-- Node16&#45;&gt;Node15 -->
<g id="edge36" class="edge"><title>Node16&#45;&gt;Node15</title>
<path fill="none" stroke="#9a32cd" stroke-dasharray="5,2" d="M844.301,-222.259C904.174,-219.251 1023.5,-212.107 1124,-199 1133.33,-197.783 1143.21,-196.218 1152.75,-194.558"/>
<polygon fill="#9a32cd" stroke="#9a32cd" points="843.992,-218.769 834.176,-222.756 844.336,-225.761 843.992,-218.769"/>
<text text-anchor="middle" x="993" y="-220" font-family="Helvetica,sans-Serif" font-size="10.00"> storage</text>
</g>
<!-- Node19 -->
<g id="node42" class="node"><title>Node19</title>
<a xlink:href="structstxxl_1_1BID.html" target="_top" xlink:title="Block identifier class. ">
<polygon fill="none" stroke="black" points="942.5,-167.5 942.5,-188.5 1043.5,-188.5 1043.5,-167.5 942.5,-167.5"/>
<text text-anchor="middle" x="993" y="-175.5" font-family="Helvetica,sans-Serif" font-size="10.00">stxxl::BID&lt; SIZE &gt;</text>
</a>
</g>
<!-- Node16&#45;&gt;Node19 -->
<g id="edge50" class="edge"><title>Node16&#45;&gt;Node19</title>
<path fill="none" stroke="#9a32cd" stroke-dasharray="5,2" d="M843.868,-210.959C857.658,-206.485 873.436,-201.682 888,-198 905.541,-193.565 924.951,-189.607 942.263,-186.407"/>
<polygon fill="#9a32cd" stroke="#9a32cd" points="842.625,-207.683 834.223,-214.138 844.816,-214.331 842.625,-207.683"/>
<text text-anchor="middle" x="906" y="-202" font-family="Helvetica,sans-Serif" font-size="10.00"> storage</text>
</g>
<!-- Node17&#45;&gt;Node16 -->
<g id="edge40" class="edge"><title>Node17&#45;&gt;Node16</title>
<path fill="none" stroke="#9a32cd" stroke-dasharray="5,2" d="M649.623,-224C692.377,-224 745.696,-224 777.733,-224"/>
<polygon fill="#9a32cd" stroke="#9a32cd" points="649.561,-220.5 639.561,-224 649.561,-227.5 649.561,-220.5"/>
<text text-anchor="middle" x="691" y="-228" font-family="Helvetica,sans-Serif" font-size="10.00"> m_request_ref</text>
</g>
<!-- Node18&#45;&gt;Node17 -->
<g id="edge42" class="edge"><title>Node18&#45;&gt;Node17</title>
<path fill="none" stroke="#9a32cd" stroke-dasharray="5,2" d="M351.464,-243.491C363.162,-240.178 375.979,-237.01 388,-235 434.153,-227.285 487.212,-224.691 526.32,-223.939"/>
<polygon fill="#9a32cd" stroke="#9a32cd" points="350.128,-240.236 341.521,-246.414 352.102,-246.952 350.128,-240.236"/>
<text text-anchor="middle" x="448" y="-239" font-family="Helvetica,sans-Serif" font-size="10.00"> m_reference_count_mutex</text>
</g>
<!-- Node19&#45;&gt;Node15 -->
<g id="edge48" class="edge"><title>Node19&#45;&gt;Node15</title>
<path fill="none" stroke="orange" stroke-dasharray="5,2" d="M1053.83,-179.714C1083.07,-180.537 1117.97,-181.52 1146.96,-182.337"/>
<polygon fill="orange" stroke="orange" points="1053.84,-176.213 1043.75,-179.43 1053.65,-183.21 1053.84,-176.213"/>
<text text-anchor="middle" x="1093" y="-186" font-family="Helvetica,sans-Serif" font-size="10.00"> &lt; raw_size &gt;</text>
</g>
<!-- Node20&#45;&gt;Node13 -->
<g id="edge52" class="edge"><title>Node20&#45;&gt;Node13</title>
<path fill="none" stroke="orange" stroke-dasharray="5,2" d="M1490.3,-105.813C1492.89,-105.512 1495.46,-105.239 1498,-105 1540.81,-100.958 1588.77,-100.444 1627.94,-101.058"/>
<polygon fill="orange" stroke="orange" points="1489.72,-102.359 1480.24,-107.103 1490.61,-109.303 1489.72,-102.359"/>
<text text-anchor="start" x="1498" y="-161" font-family="Helvetica,sans-Serif" font-size="10.00"> &lt; Type,((RawSize&#45;sizeof</text>
<text text-anchor="start" x="1498" y="-148" font-family="Helvetica,sans-Serif" font-size="10.00">(BID&lt; RawSize &gt;)*NBids</text>
<text text-anchor="start" x="1498" y="-135" font-family="Helvetica,sans-Serif" font-size="10.00">&#45;sizeof(MetaInfoType))</text>
<text text-anchor="start" x="1498" y="-122" font-family="Helvetica,sans-Serif" font-size="10.00">/sizeof(Type)), RawSize,</text>
<text text-anchor="middle" x="1554" y="-109" font-family="Helvetica,sans-Serif" font-size="10.00"> NBids &gt;</text>
</g>
<!-- Node21&#45;&gt;Node12 -->
<g id="edge58" class="edge"><title>Node21&#45;&gt;Node12</title>
<path fill="none" stroke="orange" stroke-dasharray="5,2" d="M1995.64,-52.6001C2033.26,-53.8951 2079.27,-56.9834 2120,-64 2128.01,-65.3804 2136.33,-67.2135 2144.53,-69.2696"/>
<polygon fill="orange" stroke="orange" points="1995.37,-49.0902 1985.27,-52.2807 1995.16,-56.0869 1995.37,-49.0902"/>
<text text-anchor="start" x="2008" y="-81" font-family="Helvetica,sans-Serif" font-size="10.00"> &lt; Type, RawSize, NRef,</text>
<text text-anchor="middle" x="2064" y="-68" font-family="Helvetica,sans-Serif" font-size="10.00"> MetaInfoType &gt;</text>
</g>
<!-- Node22 -->
<g id="node52" class="node"><title>Node22</title>
<a xlink:href="classstxxl_1_1mng__local_1_1filler__struct.html" target="_top" xlink:title="stxxl::mng_local::filler\l_struct\&lt; FillSize \&gt;">
<polygon fill="none" stroke="black" points="1651,-221 1651,-255 1763,-255 1763,-221 1651,-221"/>
<text text-anchor="start" x="1659" y="-242" font-family="Helvetica,sans-Serif" font-size="10.00">stxxl::mng_local::filler</text>
<text text-anchor="middle" x="1707" y="-229" font-family="Helvetica,sans-Serif" font-size="10.00">_struct&lt; FillSize &gt;</text>
</a>
</g>
<!-- Node22&#45;&gt;Node11 -->
<g id="edge62" class="edge"><title>Node22&#45;&gt;Node11</title>
<path fill="none" stroke="#9a32cd" stroke-dasharray="5,2" d="M1772.84,-223.628C1833.59,-210.927 1926.45,-192.924 2008,-183 2065.46,-176.007 2080.18,-177.793 2138,-175 2198.21,-172.092 2265.61,-169.688 2319.74,-167.966"/>
<polygon fill="#9a32cd" stroke="#9a32cd" points="1772.07,-220.215 1763,-225.698 1773.51,-227.065 1772.07,-220.215"/>
<text text-anchor="middle" x="2064" y="-187" font-family="Helvetica,sans-Serif" font-size="10.00"> filler</text>
</g>
<!-- Node24 -->
<g id="node56" class="node"><title>Node24</title>
<a xlink:href="classstxxl_1_1mng__local_1_1add__filler.html" target="_top" xlink:title="Contains per block filler for stxxl::typed_block , not intended for direct use. ">
<polygon fill="none" stroke="black" points="1850,-221 1850,-255 1990,-255 1990,-221 1850,-221"/>
<text text-anchor="start" x="1858" y="-242" font-family="Helvetica,sans-Serif" font-size="10.00">stxxl::mng_local::add</text>
<text text-anchor="middle" x="1920" y="-229" font-family="Helvetica,sans-Serif" font-size="10.00">_filler&lt; BaseType, FillSize &gt;</text>
</a>
</g>
<!-- Node22&#45;&gt;Node24 -->
<g id="edge68" class="edge"><title>Node22&#45;&gt;Node24</title>
<path fill="none" stroke="#9a32cd" stroke-dasharray="5,2" d="M1773.41,-238C1797.65,-238 1825.14,-238 1849.7,-238"/>
<polygon fill="#9a32cd" stroke="#9a32cd" points="1773.24,-234.5 1763.24,-238 1773.24,-241.5 1773.24,-234.5"/>
<text text-anchor="middle" x="1818" y="-242" font-family="Helvetica,sans-Serif" font-size="10.00"> filler</text>
</g>
<!-- Node26 -->
<g id="node61" class="node"><title>Node26</title>
<a xlink:href="classstxxl_1_1mng__local_1_1add__filler.html" target="_top" xlink:title="stxxl::mng_local::add\l_filler\&lt; Type, RawSize\l&#45;sizeof(Type)\&gt;">
<polygon fill="none" stroke="black" points="2152,-284.5 2152,-331.5 2268,-331.5 2268,-284.5 2152,-284.5"/>
<text text-anchor="start" x="2160" y="-318.5" font-family="Helvetica,sans-Serif" font-size="10.00">stxxl::mng_local::add</text>
<text text-anchor="start" x="2160" y="-305.5" font-family="Helvetica,sans-Serif" font-size="10.00">_filler&lt; Type, RawSize</text>
<text text-anchor="middle" x="2210" y="-292.5" font-family="Helvetica,sans-Serif" font-size="10.00">&#45;sizeof(Type)&gt;</text>
</a>
</g>
<!-- Node22&#45;&gt;Node26 -->
<g id="edge74" class="edge"><title>Node22&#45;&gt;Node26</title>
<path fill="none" stroke="#9a32cd" stroke-dasharray="5,2" d="M1773.35,-250.893C1797.43,-255.355 1824.9,-260.187 1850,-264 1956.14,-280.121 2080.58,-294.286 2151.87,-301.949"/>
<polygon fill="#9a32cd" stroke="#9a32cd" points="1773.72,-247.402 1763.25,-249.008 1772.43,-254.283 1773.72,-247.402"/>
<text text-anchor="middle" x="1920" y="-286" font-family="Helvetica,sans-Serif" font-size="10.00"> filler</text>
</g>
<!-- Node23 -->
<g id="node54" class="node"><title>Node23</title>
<a xlink:href="classstxxl_1_1mng__local_1_1filler__struct.html" target="_top" xlink:title="stxxl::mng_local::filler\l_struct\&lt; Bytes \&gt;">
<polygon fill="none" stroke="black" points="1345,-221 1345,-255 1457,-255 1457,-221 1345,-221"/>
<text text-anchor="start" x="1353" y="-242" font-family="Helvetica,sans-Serif" font-size="10.00">stxxl::mng_local::filler</text>
<text text-anchor="middle" x="1401" y="-229" font-family="Helvetica,sans-Serif" font-size="10.00">_struct&lt; Bytes &gt;</text>
</a>
</g>
<!-- Node23&#45;&gt;Node22 -->
<g id="edge64" class="edge"><title>Node23&#45;&gt;Node22</title>
<path fill="none" stroke="orange" stroke-dasharray="5,2" d="M1467.44,-238C1522.27,-238 1599.22,-238 1650.97,-238"/>
<polygon fill="orange" stroke="orange" points="1467.13,-234.5 1457.13,-238 1467.13,-241.5 1467.13,-234.5"/>
<text text-anchor="middle" x="1554" y="-242" font-family="Helvetica,sans-Serif" font-size="10.00"> &lt; FillSize &gt;</text>
</g>
<!-- Node24&#45;&gt;Node11 -->
<g id="edge66" class="edge"><title>Node24&#45;&gt;Node11</title>
<path fill="none" stroke="orange" stroke-dasharray="5,2" d="M2000.41,-221.403C2041.46,-213.306 2092.26,-203.859 2138,-197 2198.07,-187.991 2265.61,-180.301 2319.86,-174.719"/>
<polygon fill="orange" stroke="orange" points="1999.59,-217.997 1990.46,-223.376 2000.95,-224.864 1999.59,-217.997"/>
<text text-anchor="start" x="2138.5" y="-266" font-family="Helvetica,sans-Serif" font-size="10.00"> &lt; mng_local::block</text>
<text text-anchor="start" x="2138.5" y="-253" font-family="Helvetica,sans-Serif" font-size="10.00">_w_info&lt; Type, RawSize,</text>
<text text-anchor="start" x="2138.5" y="-240" font-family="Helvetica,sans-Serif" font-size="10.00"> NRef, MetaInfoType &gt;,</text>
<text text-anchor="start" x="2138.5" y="-227" font-family="Helvetica,sans-Serif" font-size="10.00"> RawSize&#45;sizeof(mng_local</text>
<text text-anchor="start" x="2138.5" y="-214" font-family="Helvetica,sans-Serif" font-size="10.00">::block_w_info&lt; Type, RawSize,</text>
<text text-anchor="middle" x="2210" y="-201" font-family="Helvetica,sans-Serif" font-size="10.00"> NRef, MetaInfoType &gt;)&gt;</text>
</g>
<!-- Node24&#45;&gt;Node26 -->
<g id="edge76" class="edge"><title>Node24&#45;&gt;Node26</title>
<path fill="none" stroke="orange" stroke-dasharray="5,2" d="M2000.41,-236.055C2037.81,-237.539 2082.26,-242.789 2120,-257 2129.24,-260.477 2129.62,-264.795 2138,-270 2145.93,-274.92 2154.55,-279.829 2162.99,-284.405"/>
<polygon fill="orange" stroke="orange" points="2000.16,-232.546 1990.06,-235.732 1999.94,-239.542 2000.16,-232.546"/>
<text text-anchor="start" x="2009.5" y="-274" font-family="Helvetica,sans-Serif" font-size="10.00"> &lt; Type, RawSize&#45;sizeof</text>
<text text-anchor="middle" x="2064" y="-261" font-family="Helvetica,sans-Serif" font-size="10.00">(Type)&gt;</text>
</g>
<!-- Node25 -->
<g id="node59" class="node"><title>Node25</title>
<a xlink:href="classstxxl_1_1mng__local_1_1expand__struct.html" target="_top" xlink:title="Helper to compute the size of the filler , not intended for direct use. ">
<polygon fill="none" stroke="black" points="2357,-246 2357,-280 2489,-280 2489,-246 2357,-246"/>
<text text-anchor="start" x="2365" y="-267" font-family="Helvetica,sans-Serif" font-size="10.00">stxxl::mng_local::expand</text>
<text text-anchor="middle" x="2423" y="-254" font-family="Helvetica,sans-Serif" font-size="10.00">_struct&lt; Type, RawSize &gt;</text>
</a>
</g>
<!-- Node25&#45;&gt;Node10 -->
<g id="edge70" class="edge"><title>Node25&#45;&gt;Node10</title>
<path fill="none" stroke="orange" stroke-dasharray="5,2" d="M2499.21,-254.532C2552.21,-248.643 2622.72,-240.809 2676.44,-234.84"/>
<polygon fill="orange" stroke="orange" points="2498.74,-251.063 2489.19,-255.646 2499.51,-258.02 2498.74,-251.063"/>
<text text-anchor="start" x="2544" y="-291" font-family="Helvetica,sans-Serif" font-size="10.00"> &lt; mng_local::block</text>
<text text-anchor="start" x="2544" y="-278" font-family="Helvetica,sans-Serif" font-size="10.00">_w_info&lt; Type, RawSize,</text>
<text text-anchor="start" x="2544" y="-265" font-family="Helvetica,sans-Serif" font-size="10.00"> NRef, MetaInfoType &gt;,</text>
<text text-anchor="middle" x="2601" y="-252" font-family="Helvetica,sans-Serif" font-size="10.00"> RawSize &gt;</text>
</g>
<!-- Node26&#45;&gt;Node25 -->
<g id="edge72" class="edge"><title>Node26&#45;&gt;Node25</title>
<path fill="none" stroke="midnightblue" d="M2278.07,-293.619C2303.32,-288.284 2331.9,-282.245 2356.97,-276.949"/>
<polygon fill="midnightblue" stroke="midnightblue" points="2277.26,-290.212 2268.2,-295.704 2278.71,-297.061 2277.26,-290.212"/>
</g>
</g>
</svg>
