<?xml version="1.0" encoding="UTF-8" standalone="no"?>
<!DOCTYPE svg PUBLIC "-//W3C//DTD SVG 1.1//EN"
 "http://www.w3.org/Graphics/SVG/1.1/DTD/svg11.dtd">
<!-- Generated by graphviz version 2.26.3 (20100126.1600)
 -->
<!-- Title: stxxl::parallel::LoserTreePointerUnguarded&lt; Stable, ValueType, Comparator &gt; Pages: 1 -->
<svg width="184pt" height="198pt"
 viewBox="0.00 0.00 184.00 198.00" xmlns="http://www.w3.org/2000/svg" xmlns:xlink="http://www.w3.org/1999/xlink">
<g id="graph1" class="graph" transform="scale(1 1) rotate(0) translate(4 194)">
<title>stxxl::parallel::LoserTreePointerUnguarded&lt; Stable, ValueType, Comparator &gt;</title>
<!-- Node1 -->
<g id="node1" class="node"><title>Node1</title>
<polygon fill="#bfbfbf" stroke="black" points="21,-0.5 21,-47.5 155,-47.5 155,-0.5 21,-0.5"/>
<text text-anchor="start" x="29" y="-34.5" font-family="Helvetica,sans-Serif" font-size="10.00">stxxl::parallel::LoserTree</text>
<text text-anchor="start" x="29" y="-21.5" font-family="Helvetica,sans-Serif" font-size="10.00">PointerUnguarded&lt; Stable,</text>
<text text-anchor="middle" x="88" y="-8.5" font-family="Helvetica,sans-Serif" font-size="10.00"> ValueType, Comparator &gt;</text>
</g>
<!-- Node2 -->
<g id="node2" class="node"><title>Node2</title>
<a xlink:href="classstxxl_1_1parallel_1_1LoserTreePointerUnguardedBase.html" target="_top" xlink:title="stxxl::parallel::LoserTree\lPointerUnguardedBase\&lt; ValueType,\l Comparator \&gt;">
<polygon fill="none" stroke="black" points="0,-84.5 0,-131.5 176,-131.5 176,-84.5 0,-84.5"/>
<text text-anchor="start" x="8" y="-118.5" font-family="Helvetica,sans-Serif" font-size="10.00">stxxl::parallel::LoserTree</text>
<text text-anchor="start" x="8" y="-105.5" font-family="Helvetica,sans-Serif" font-size="10.00">PointerUnguardedBase&lt; ValueType,</text>
<text text-anchor="middle" x="88" y="-92.5" font-family="Helvetica,sans-Serif" font-size="10.00"> Comparator &gt;</text>
</a>
</g>
<!-- Node2&#45;&gt;Node1 -->
<g id="edge2" class="edge"><title>Node2&#45;&gt;Node1</title>
<path fill="none" stroke="midnightblue" d="M88,-74.0664C88,-65.1933 88,-55.821 88,-47.6152"/>
<polygon fill="midnightblue" stroke="midnightblue" points="84.5001,-74.1536 88,-84.1537 91.5001,-74.1537 84.5001,-74.1536"/>
</g>
<!-- Node3 -->
<g id="node4" class="node"><title>Node3</title>
<a xlink:href="classstxxl_1_1noncopyable.html" target="_top" xlink:title="stxxl::noncopyable">
<polygon fill="none" stroke="black" points="39,-168.5 39,-189.5 137,-189.5 137,-168.5 39,-168.5"/>
<text text-anchor="middle" x="88" y="-176.5" font-family="Helvetica,sans-Serif" font-size="10.00">stxxl::noncopyable</text>
</a>
</g>
<!-- Node3&#45;&gt;Node2 -->
<g id="edge4" class="edge"><title>Node3&#45;&gt;Node2</title>
<path fill="none" stroke="#8b1a1a" d="M88,-158.191C88,-149.835 88,-140.16 88,-131.548"/>
<polygon fill="#8b1a1a" stroke="#8b1a1a" points="84.5001,-158.217 88,-168.217 91.5001,-158.217 84.5001,-158.217"/>
</g>
</g>
</svg>
