<?xml version="1.0" encoding="UTF-8" standalone="no"?>
<!DOCTYPE svg PUBLIC "-//W3C//DTD SVG 1.1//EN"
 "http://www.w3.org/Graphics/SVG/1.1/DTD/svg11.dtd">
<!-- Generated by graphviz version 2.26.3 (20100126.1600)
 -->
<!-- Title: stxxl::read_write_pool&lt; BlockType &gt; Pages: 1 -->
<svg width="806pt" height="202pt"
 viewBox="0.00 0.00 806.00 202.00" xmlns="http://www.w3.org/2000/svg" xmlns:xlink="http://www.w3.org/1999/xlink">
<g id="graph1" class="graph" transform="scale(1 1) rotate(0) translate(4 198)">
<title>stxxl::read_write_pool&lt; BlockType &gt;</title>
<!-- Node1 -->
<g id="node1" class="node"><title>Node1</title>
<polygon fill="#bfbfbf" stroke="black" points="686,-115 686,-149 798,-149 798,-115 686,-115"/>
<text text-anchor="start" x="694" y="-136" font-family="Helvetica,sans-Serif" font-size="10.00">stxxl::read_write_pool</text>
<text text-anchor="middle" x="742" y="-123" font-family="Helvetica,sans-Serif" font-size="10.00">&lt; BlockType &gt;</text>
</g>
<!-- Node2 -->
<g id="node2" class="node"><title>Node2</title>
<a xlink:href="classstxxl_1_1noncopyable.html" target="_top" xlink:title="stxxl::noncopyable">
<polygon fill="none" stroke="black" points="291,-121.5 291,-142.5 389,-142.5 389,-121.5 291,-121.5"/>
<text text-anchor="middle" x="340" y="-129.5" font-family="Helvetica,sans-Serif" font-size="10.00">stxxl::noncopyable</text>
</a>
</g>
<!-- Node2&#45;&gt;Node1 -->
<g id="edge2" class="edge"><title>Node2&#45;&gt;Node1</title>
<path fill="none" stroke="#8b1a1a" d="M399.332,-132C476.483,-132 610.279,-132 685.839,-132"/>
<polygon fill="#8b1a1a" stroke="#8b1a1a" points="399.293,-128.5 389.293,-132 399.293,-135.5 399.293,-128.5"/>
</g>
<!-- Node3 -->
<g id="node4" class="node"><title>Node3</title>
<a xlink:href="classstxxl_1_1prefetch__pool.html" target="_top" xlink:title="Implements dynamically resizable prefetching pool. ">
<polygon fill="none" stroke="black" points="514,-66 514,-100 616,-100 616,-66 514,-66"/>
<text text-anchor="start" x="522" y="-87" font-family="Helvetica,sans-Serif" font-size="10.00">stxxl::prefetch_pool</text>
<text text-anchor="middle" x="565" y="-74" font-family="Helvetica,sans-Serif" font-size="10.00">&lt; BlockType &gt;</text>
</a>
</g>
<!-- Node2&#45;&gt;Node3 -->
<g id="edge6" class="edge"><title>Node2&#45;&gt;Node3</title>
<path fill="none" stroke="#8b1a1a" d="M398.08,-119.352C433.835,-111.565 479.252,-101.674 513.682,-94.1759"/>
<polygon fill="#8b1a1a" stroke="#8b1a1a" points="397.294,-115.94 388.268,-121.488 398.784,-122.78 397.294,-115.94"/>
</g>
<!-- Node8 -->
<g id="node15" class="node"><title>Node8</title>
<a xlink:href="classstxxl_1_1write__pool.html" target="_top" xlink:title="Implements dynamically resizable buffered writing pool. ">
<polygon fill="none" stroke="black" points="518,-160 518,-194 612,-194 612,-160 518,-160"/>
<text text-anchor="start" x="526" y="-181" font-family="Helvetica,sans-Serif" font-size="10.00">stxxl::write_pool&lt;</text>
<text text-anchor="middle" x="565" y="-168" font-family="Helvetica,sans-Serif" font-size="10.00"> BlockType &gt;</text>
</a>
</g>
<!-- Node2&#45;&gt;Node8 -->
<g id="edge18" class="edge"><title>Node2&#45;&gt;Node8</title>
<path fill="none" stroke="#8b1a1a" d="M399.27,-143.854C436.339,-151.268 483.428,-160.686 517.931,-167.586"/>
<polygon fill="#8b1a1a" stroke="#8b1a1a" points="399.591,-140.349 389.099,-141.82 398.219,-147.213 399.591,-140.349"/>
</g>
<!-- Node3&#45;&gt;Node1 -->
<g id="edge4" class="edge"><title>Node3&#45;&gt;Node1</title>
<path fill="none" stroke="#9a32cd" stroke-dasharray="5,2" d="M626.106,-94.5825C639.972,-97.6167 654.567,-101.135 668,-105 677.988,-107.874 688.568,-111.421 698.508,-114.988"/>
<polygon fill="#9a32cd" stroke="#9a32cd" points="626.677,-91.1254 616.166,-92.4606 625.215,-97.9712 626.677,-91.1254"/>
<text text-anchor="middle" x="651" y="-109" font-family="Helvetica,sans-Serif" font-size="10.00"> p_pool</text>
</g>
<!-- Node4 -->
<g id="node7" class="node"><title>Node4</title>
<a xlink:href="structstxxl_1_1choose__int__types.html" target="_top" xlink:title="stxxl::choose_int_types\l\&lt; my_pointer_size \&gt;">
<polygon fill="none" stroke="black" points="280,-66 280,-100 400,-100 400,-66 280,-66"/>
<text text-anchor="start" x="288" y="-87" font-family="Helvetica,sans-Serif" font-size="10.00">stxxl::choose_int_types</text>
<text text-anchor="middle" x="340" y="-74" font-family="Helvetica,sans-Serif" font-size="10.00">&lt; my_pointer_size &gt;</text>
</a>
</g>
<!-- Node4&#45;&gt;Node3 -->
<g id="edge8" class="edge"><title>Node4&#45;&gt;Node3</title>
<path fill="none" stroke="#9a32cd" stroke-dasharray="5,2" d="M410.234,-80.1724C412.856,-80.107 415.451,-80.049 418,-80 452.66,-79.3337 461.342,-79.2469 496,-80 501.754,-80.125 507.776,-80.3086 513.763,-80.5245"/>
<polygon fill="#9a32cd" stroke="#9a32cd" points="409.935,-76.6793 400.037,-80.4581 410.132,-83.6766 409.935,-76.6793"/>
<text text-anchor="middle" x="457" y="-84" font-family="Helvetica,sans-Serif" font-size="10.00"> free_blocks_size</text>
</g>
<!-- Node5 -->
<g id="node9" class="node"><title>Node5</title>
<a xlink:href="structstxxl_1_1choose__int__types.html" target="_top" xlink:title="stxxl::choose_int_types\l\&lt; PtrSize \&gt;">
<polygon fill="none" stroke="black" points="9,-66 9,-100 129,-100 129,-66 9,-66"/>
<text text-anchor="start" x="17" y="-87" font-family="Helvetica,sans-Serif" font-size="10.00">stxxl::choose_int_types</text>
<text text-anchor="middle" x="69" y="-74" font-family="Helvetica,sans-Serif" font-size="10.00">&lt; PtrSize &gt;</text>
</a>
</g>
<!-- Node5&#45;&gt;Node4 -->
<g id="edge10" class="edge"><title>Node5&#45;&gt;Node4</title>
<path fill="none" stroke="orange" stroke-dasharray="5,2" d="M139.361,-83C182.839,-83 238.058,-83 279.556,-83"/>
<polygon fill="orange" stroke="orange" points="139.144,-79.5001 129.144,-83 139.144,-86.5001 139.144,-79.5001"/>
<text text-anchor="middle" x="209" y="-87" font-family="Helvetica,sans-Serif" font-size="10.00"> &lt; my_pointer_size &gt;</text>
</g>
<!-- Node6 -->
<g id="node11" class="node"><title>Node6</title>
<a xlink:href="structstxxl_1_1compat__hash__map.html" target="_top" xlink:title="stxxl::compat_hash\l_map\&lt; bid_type, busy\l_entry, bid_hash \&gt;">
<polygon fill="none" stroke="black" points="283.5,-0.5 283.5,-47.5 396.5,-47.5 396.5,-0.5 283.5,-0.5"/>
<text text-anchor="start" x="291.5" y="-34.5" font-family="Helvetica,sans-Serif" font-size="10.00">stxxl::compat_hash</text>
<text text-anchor="start" x="291.5" y="-21.5" font-family="Helvetica,sans-Serif" font-size="10.00">_map&lt; bid_type, busy</text>
<text text-anchor="middle" x="340" y="-8.5" font-family="Helvetica,sans-Serif" font-size="10.00">_entry, bid_hash &gt;</text>
</a>
</g>
<!-- Node6&#45;&gt;Node3 -->
<g id="edge12" class="edge"><title>Node6&#45;&gt;Node3</title>
<path fill="none" stroke="#9a32cd" stroke-dasharray="5,2" d="M406.783,-40.1176C434.452,-46.9452 466.834,-55.1302 496,-63 501.78,-64.5596 507.818,-66.2375 513.815,-67.9344"/>
<polygon fill="#9a32cd" stroke="#9a32cd" points="407.364,-36.6563 396.818,-37.6667 405.692,-43.4537 407.364,-36.6563"/>
<text text-anchor="middle" x="457" y="-67" font-family="Helvetica,sans-Serif" font-size="10.00"> busy_blocks</text>
</g>
<!-- Node7 -->
<g id="node13" class="node"><title>Node7</title>
<a xlink:href="structstxxl_1_1compat__hash__map.html" target="_top" xlink:title="stxxl::compat_hash\l_map\&lt; _Key, _Tp, _Hash \&gt;">
<polygon fill="none" stroke="black" points="0,-7 0,-41 138,-41 138,-7 0,-7"/>
<text text-anchor="start" x="8" y="-28" font-family="Helvetica,sans-Serif" font-size="10.00">stxxl::compat_hash</text>
<text text-anchor="middle" x="69" y="-15" font-family="Helvetica,sans-Serif" font-size="10.00">_map&lt; _Key, _Tp, _Hash &gt;</text>
</a>
</g>
<!-- Node7&#45;&gt;Node6 -->
<g id="edge14" class="edge"><title>Node7&#45;&gt;Node6</title>
<path fill="none" stroke="orange" stroke-dasharray="5,2" d="M148.31,-24C191.614,-24 244.224,-24 283.366,-24"/>
<polygon fill="orange" stroke="orange" points="148.086,-20.5001 138.086,-24 148.086,-27.5001 148.086,-20.5001"/>
<text text-anchor="start" x="156" y="-41" font-family="Helvetica,sans-Serif" font-size="10.00"> &lt; bid_type, busy_entry,</text>
<text text-anchor="middle" x="209" y="-28" font-family="Helvetica,sans-Serif" font-size="10.00"> bid_hash &gt;</text>
</g>
<!-- Node8&#45;&gt;Node1 -->
<g id="edge16" class="edge"><title>Node8&#45;&gt;Node1</title>
<path fill="none" stroke="#9a32cd" stroke-dasharray="5,2" d="M622.23,-162.45C642.652,-157.258 665.623,-151.418 685.945,-146.251"/>
<polygon fill="#9a32cd" stroke="#9a32cd" points="621.262,-159.085 612.433,-164.941 622.987,-165.869 621.262,-159.085"/>
<text text-anchor="middle" x="651" y="-162" font-family="Helvetica,sans-Serif" font-size="10.00"> w_pool</text>
</g>
</g>
</svg>
