<?xml version="1.0" encoding="UTF-8" standalone="no"?>
<!DOCTYPE svg PUBLIC "-//W3C//DTD SVG 1.1//EN"
 "http://www.w3.org/Graphics/SVG/1.1/DTD/svg11.dtd">
<!-- Generated by graphviz version 2.38.0 (20140413.2041)
 -->
<!-- Title: stxxl::hash_map::hash_map_iterator_base&lt; HashMap &gt; Pages: 1 -->
<svg width="277pt" height="295pt"
 viewBox="0.00 0.00 277.00 295.00" xmlns="http://www.w3.org/2000/svg" xmlns:xlink="http://www.w3.org/1999/xlink">
<g id="graph0" class="graph" transform="scale(1 1) rotate(0) translate(4 291)">
<title>stxxl::hash_map::hash_map_iterator_base&lt; HashMap &gt;</title>
<!-- Node1 -->
<g id="node1" class="node"><title>Node1</title>
<polygon fill="#bfbfbf" stroke="black" points="8,-0.5 8,-30.5 170,-30.5 170,-0.5 8,-0.5"/>
<text text-anchor="start" x="16" y="-18.5" font-family="Helvetica,sans-Serif" font-size="10.00">stxxl::hash_map::hash</text>
<text text-anchor="middle" x="89" y="-7.5" font-family="Helvetica,sans-Serif" font-size="10.00">_map_iterator_base&lt; HashMap &gt;</text>
</g>
<!-- Node2 -->
<g id="node2" class="node"><title>Node2</title>
<g id="a_node2"><a xlink:href="classstxxl_1_1hash__map_1_1buffered__reader.html" target="_top" xlink:title="Used to scan external memory with prefetching. ">
<polygon fill="none" stroke="black" points="5,-78.5 5,-108.5 173,-108.5 173,-78.5 5,-78.5"/>
<text text-anchor="start" x="13" y="-96.5" font-family="Helvetica,sans-Serif" font-size="10.00">stxxl::hash_map::buffered</text>
<text text-anchor="middle" x="89" y="-85.5" font-family="Helvetica,sans-Serif" font-size="10.00">_reader&lt; CacheType, BidIterator &gt;</text>
</a>
</g>
</g>
<!-- Node2&#45;&gt;Node1 -->
<g id="edge1" class="edge"><title>Node2&#45;&gt;Node1</title>
<path fill="none" stroke="#9a32cd" stroke-dasharray="5,2" d="M89,-68.0898C89,-55.7565 89,-41.2237 89,-30.7309"/>
<polygon fill="#9a32cd" stroke="#9a32cd" points="85.5001,-68.2049 89,-78.205 92.5001,-68.205 85.5001,-68.2049"/>
<text text-anchor="middle" x="107" y="-52" font-family="Helvetica,sans-Serif" font-size="10.00"> reader_</text>
</g>
<!-- Node3 -->
<g id="node3" class="node"><title>Node3</title>
<g id="a_node3"><a xlink:href="classstxxl_1_1noncopyable.html" target="_top" xlink:title="stxxl::noncopyable">
<polygon fill="none" stroke="black" points="0,-184 0,-203 98,-203 98,-184 0,-184"/>
<text text-anchor="middle" x="49" y="-191" font-family="Helvetica,sans-Serif" font-size="10.00">stxxl::noncopyable</text>
</a>
</g>
</g>
<!-- Node3&#45;&gt;Node2 -->
<g id="edge2" class="edge"><title>Node3&#45;&gt;Node2</title>
<path fill="none" stroke="#8b1a1a" d="M56.3532,-174.485C64.1,-155.505 76.1395,-126.008 83.2297,-108.637"/>
<polygon fill="#8b1a1a" stroke="#8b1a1a" points="53.0883,-173.222 52.5497,-183.803 59.5692,-175.867 53.0883,-173.222"/>
</g>
<!-- Node4 -->
<g id="node4" class="node"><title>Node4</title>
<g id="a_node4"><a xlink:href="structstxxl_1_1choose__int__types.html" target="_top" xlink:title="stxxl::choose_int_types\l\&lt; my_pointer_size \&gt;">
<polygon fill="none" stroke="black" points="116,-178.5 116,-208.5 236,-208.5 236,-178.5 116,-178.5"/>
<text text-anchor="start" x="124" y="-196.5" font-family="Helvetica,sans-Serif" font-size="10.00">stxxl::choose_int_types</text>
<text text-anchor="middle" x="176" y="-185.5" font-family="Helvetica,sans-Serif" font-size="10.00">&lt; my_pointer_size &gt;</text>
</a>
</g>
</g>
<!-- Node4&#45;&gt;Node2 -->
<g id="edge3" class="edge"><title>Node4&#45;&gt;Node2</title>
<path fill="none" stroke="#9a32cd" stroke-dasharray="5,2" d="M156.796,-170.868C139.935,-151.875 115.903,-124.805 101.442,-108.515"/>
<polygon fill="#9a32cd" stroke="#9a32cd" points="154.279,-173.304 163.535,-178.459 159.514,-168.657 154.279,-173.304"/>
<text text-anchor="middle" x="183" y="-152" font-family="Helvetica,sans-Serif" font-size="10.00"> prefetch_pages_</text>
<text text-anchor="middle" x="183" y="-141" font-family="Helvetica,sans-Serif" font-size="10.00">i_value_</text>
<text text-anchor="middle" x="183" y="-130" font-family="Helvetica,sans-Serif" font-size="10.00">page_size_</text>
</g>
<!-- Node5 -->
<g id="node5" class="node"><title>Node5</title>
<g id="a_node5"><a xlink:href="structstxxl_1_1choose__int__types.html" target="_top" xlink:title="stxxl::choose_int_types\l\&lt; PtrSize \&gt;">
<polygon fill="none" stroke="black" points="116,-256.5 116,-286.5 236,-286.5 236,-256.5 116,-256.5"/>
<text text-anchor="start" x="124" y="-274.5" font-family="Helvetica,sans-Serif" font-size="10.00">stxxl::choose_int_types</text>
<text text-anchor="middle" x="176" y="-263.5" font-family="Helvetica,sans-Serif" font-size="10.00">&lt; PtrSize &gt;</text>
</a>
</g>
</g>
<!-- Node5&#45;&gt;Node4 -->
<g id="edge4" class="edge"><title>Node5&#45;&gt;Node4</title>
<path fill="none" stroke="orange" stroke-dasharray="5,2" d="M176,-246.09C176,-233.757 176,-219.224 176,-208.731"/>
<polygon fill="orange" stroke="orange" points="172.5,-246.205 176,-256.205 179.5,-246.205 172.5,-246.205"/>
<text text-anchor="middle" x="222.5" y="-230" font-family="Helvetica,sans-Serif" font-size="10.00"> &lt; my_pointer_size &gt;</text>
</g>
</g>
</svg>
