<?xml version="1.0" encoding="UTF-8" standalone="no"?>
<!DOCTYPE svg PUBLIC "-//W3C//DTD SVG 1.1//EN"
 "http://www.w3.org/Graphics/SVG/1.1/DTD/svg11.dtd">
<!-- Generated by graphviz version 2.38.0 (20140413.2041)
 -->
<!-- Title: stxxl::sequence&lt; ValueType, BlockSize, AllocStr, SizeType &gt; Pages: 1 -->
<svg width="3559pt" height="540pt"
 viewBox="0.00 0.00 3559.00 540.00" xmlns="http://www.w3.org/2000/svg" xmlns:xlink="http://www.w3.org/1999/xlink">
<g id="graph0" class="graph" transform="scale(1 1) rotate(0) translate(4 536)">
<title>stxxl::sequence&lt; ValueType, BlockSize, AllocStr, SizeType &gt;</title>
<!-- Node1 -->
<g id="node1" class="node"><title>Node1</title>
<polygon fill="#bfbfbf" stroke="black" points="3390,-201 3390,-231 3551,-231 3551,-201 3390,-201"/>
<text text-anchor="start" x="3398" y="-219" font-family="Helvetica,sans-Serif" font-size="10.00">stxxl::sequence&lt; ValueType,</text>
<text text-anchor="middle" x="3470.5" y="-208" font-family="Helvetica,sans-Serif" font-size="10.00"> BlockSize, AllocStr, SizeType &gt;</text>
</g>
<!-- Node2 -->
<g id="node2" class="node"><title>Node2</title>
<g id="a_node2"><a xlink:href="classstxxl_1_1noncopyable.html" target="_top" xlink:title="stxxl::noncopyable">
<polygon fill="none" stroke="black" points="307,-330.5 307,-349.5 405,-349.5 405,-330.5 307,-330.5"/>
<text text-anchor="middle" x="356" y="-337.5" font-family="Helvetica,sans-Serif" font-size="10.00">stxxl::noncopyable</text>
</a>
</g>
</g>
<!-- Node2&#45;&gt;Node1 -->
<g id="edge1" class="edge"><title>Node2&#45;&gt;Node1</title>
<path fill="none" stroke="#8b1a1a" d="M363.05,-359.326C373.174,-388.679 396.238,-444.511 434,-477 493.236,-527.966 522.856,-532 601,-532 601,-532 601,-532 3227.5,-532 3380.9,-532 3450.24,-294.364 3465.95,-231.241"/>
<polygon fill="#8b1a1a" stroke="#8b1a1a" points="366.363,-358.199 359.902,-349.802 359.717,-360.395 366.363,-358.199"/>
</g>
<!-- Node4 -->
<g id="node4" class="node"><title>Node4</title>
<g id="a_node4"><a xlink:href="classstxxl_1_1singleton.html" target="_top" xlink:title="stxxl::singleton\&lt; block\l_manager \&gt;">
<polygon fill="none" stroke="black" points="830,-471 830,-501 945,-501 945,-471 830,-471"/>
<text text-anchor="start" x="838" y="-489" font-family="Helvetica,sans-Serif" font-size="10.00">stxxl::singleton&lt; block</text>
<text text-anchor="middle" x="887.5" y="-478" font-family="Helvetica,sans-Serif" font-size="10.00">_manager &gt;</text>
</a>
</g>
</g>
<!-- Node2&#45;&gt;Node4 -->
<g id="edge4" class="edge"><title>Node2&#45;&gt;Node4</title>
<path fill="none" stroke="#8b1a1a" d="M366.099,-358.899C378.325,-382.307 402.241,-421.801 434,-444 553.954,-527.847 737.658,-512.234 829.741,-497.275"/>
<polygon fill="#8b1a1a" stroke="#8b1a1a" points="369.076,-357.029 361.452,-349.672 362.824,-360.177 369.076,-357.029"/>
</g>
<!-- Node5 -->
<g id="node5" class="node"><title>Node5</title>
<g id="a_node5"><a xlink:href="classstxxl_1_1singleton.html" target="_top" xlink:title="stxxl::singleton\&lt; INSTANCE,\l destroy_on_exit \&gt;">
<polygon fill="none" stroke="black" points="529,-433 529,-463 675,-463 675,-433 529,-433"/>
<text text-anchor="start" x="537" y="-451" font-family="Helvetica,sans-Serif" font-size="10.00">stxxl::singleton&lt; INSTANCE,</text>
<text text-anchor="middle" x="602" y="-440" font-family="Helvetica,sans-Serif" font-size="10.00"> destroy_on_exit &gt;</text>
</a>
</g>
</g>
<!-- Node2&#45;&gt;Node5 -->
<g id="edge6" class="edge"><title>Node2&#45;&gt;Node5</title>
<path fill="none" stroke="#8b1a1a" d="M369.541,-358.084C383.195,-376.284 406.76,-403.652 434,-418 462.93,-433.238 498.169,-440.902 528.806,-444.695"/>
<polygon fill="#8b1a1a" stroke="#8b1a1a" points="372.038,-355.565 363.337,-349.52 366.369,-359.672 372.038,-355.565"/>
</g>
<!-- Node6 -->
<g id="node6" class="node"><title>Node6</title>
<g id="a_node6"><a xlink:href="classstxxl_1_1file.html" target="_top" xlink:title="Defines interface of file. ">
<polygon fill="none" stroke="black" points="1078,-380.5 1078,-399.5 1134,-399.5 1134,-380.5 1078,-380.5"/>
<text text-anchor="middle" x="1106" y="-387.5" font-family="Helvetica,sans-Serif" font-size="10.00">stxxl::file</text>
</a>
</g>
</g>
<!-- Node2&#45;&gt;Node6 -->
<g id="edge8" class="edge"><title>Node2&#45;&gt;Node6</title>
<path fill="none" stroke="#8b1a1a" d="M393.273,-352.907C406.037,-357.147 420.553,-361.631 434,-365 475.607,-375.425 486.312,-377.814 529,-382 739.511,-402.644 995.34,-394.637 1077.92,-391.23"/>
<polygon fill="#8b1a1a" stroke="#8b1a1a" points="394.06,-349.478 383.466,-349.585 391.814,-356.108 394.06,-349.478"/>
</g>
<!-- Node8 -->
<g id="node8" class="node"><title>Node8</title>
<g id="a_node8"><a xlink:href="classstxxl_1_1mutex.html" target="_top" xlink:title="stxxl::mutex">
<polygon fill="none" stroke="black" points="566.5,-353.5 566.5,-372.5 637.5,-372.5 637.5,-353.5 566.5,-353.5"/>
<text text-anchor="middle" x="602" y="-360.5" font-family="Helvetica,sans-Serif" font-size="10.00">stxxl::mutex</text>
</a>
</g>
</g>
<!-- Node2&#45;&gt;Node8 -->
<g id="edge11" class="edge"><title>Node2&#45;&gt;Node8</title>
<path fill="none" stroke="#8b1a1a" d="M415.266,-345.492C462.331,-349.929 526.992,-356.024 566.288,-359.728"/>
<polygon fill="#8b1a1a" stroke="#8b1a1a" points="415.491,-341.998 405.207,-344.544 414.834,-348.967 415.491,-341.998"/>
</g>
<!-- Node11 -->
<g id="node11" class="node"><title>Node11</title>
<g id="a_node11"><a xlink:href="classstxxl_1_1disk__allocator.html" target="_top" xlink:title="stxxl::disk_allocator">
<polygon fill="none" stroke="black" points="1234,-306.5 1234,-325.5 1338,-325.5 1338,-306.5 1234,-306.5"/>
<text text-anchor="middle" x="1286" y="-313.5" font-family="Helvetica,sans-Serif" font-size="10.00">stxxl::disk_allocator</text>
</a>
</g>
</g>
<!-- Node2&#45;&gt;Node11 -->
<g id="edge15" class="edge"><title>Node2&#45;&gt;Node11</title>
<path fill="none" stroke="#8b1a1a" d="M415.301,-337.338C534.482,-332.019 814.632,-320.15 1050,-315 1123.76,-313.386 1142.23,-312.931 1216,-314 1221.75,-314.083 1227.77,-314.206 1233.76,-314.35"/>
<polygon fill="#8b1a1a" stroke="#8b1a1a" points="415.129,-333.842 405.296,-337.786 415.442,-340.835 415.129,-333.842"/>
</g>
<!-- Node27 -->
<g id="node27" class="node"><title>Node27</title>
<g id="a_node27"><a xlink:href="classstxxl_1_1read__write__pool.html" target="_top" xlink:title="stxxl::read_write_pool\l\&lt; block_type \&gt;">
<polygon fill="none" stroke="black" points="1050,-155 1050,-185 1162,-185 1162,-155 1050,-155"/>
<text text-anchor="start" x="1058" y="-173" font-family="Helvetica,sans-Serif" font-size="10.00">stxxl::read_write_pool</text>
<text text-anchor="middle" x="1106" y="-162" font-family="Helvetica,sans-Serif" font-size="10.00">&lt; block_type &gt;</text>
</a>
</g>
</g>
<!-- Node2&#45;&gt;Node27 -->
<g id="edge43" class="edge"><title>Node2&#45;&gt;Node27</title>
<path fill="none" stroke="#8b1a1a" d="M380.556,-324.77C412.687,-304.824 472.712,-270.461 529,-254 707.446,-201.814 760.709,-234.556 945,-210 983.821,-204.827 994.062,-205.722 1032,-196 1043.47,-193.061 1055.68,-189.071 1066.76,-185.098"/>
<polygon fill="#8b1a1a" stroke="#8b1a1a" points="378.487,-321.937 371.887,-330.224 382.215,-327.862 378.487,-321.937"/>
</g>
<!-- Node28 -->
<g id="node28" class="node"><title>Node28</title>
<g id="a_node28"><a xlink:href="classstxxl_1_1prefetch__pool.html" target="_top" xlink:title="Implements dynamically resizable prefetching pool. ">
<polygon fill="none" stroke="black" points="551,-78 551,-108 653,-108 653,-78 551,-78"/>
<text text-anchor="start" x="559" y="-96" font-family="Helvetica,sans-Serif" font-size="10.00">stxxl::prefetch_pool</text>
<text text-anchor="middle" x="602" y="-85" font-family="Helvetica,sans-Serif" font-size="10.00">&lt; BlockType &gt;</text>
</a>
</g>
</g>
<!-- Node2&#45;&gt;Node28 -->
<g id="edge45" class="edge"><title>Node2&#45;&gt;Node28</title>
<path fill="none" stroke="#8b1a1a" d="M358.568,-320.125C362.885,-279.298 378.61,-185.664 434,-136 451.164,-120.611 508.111,-108.176 550.766,-100.71"/>
<polygon fill="#8b1a1a" stroke="#8b1a1a" points="355.076,-319.877 357.629,-330.159 362.046,-320.529 355.076,-319.877"/>
</g>
<!-- Node31 -->
<g id="node31" class="node"><title>Node31</title>
<g id="a_node31"><a xlink:href="classstxxl_1_1write__pool.html" target="_top" xlink:title="Implements dynamically resizable buffered writing pool. ">
<polygon fill="none" stroke="black" points="555,-181 555,-211 649,-211 649,-181 555,-181"/>
<text text-anchor="start" x="563" y="-199" font-family="Helvetica,sans-Serif" font-size="10.00">stxxl::write_pool&lt;</text>
<text text-anchor="middle" x="602" y="-188" font-family="Helvetica,sans-Serif" font-size="10.00"> BlockType &gt;</text>
</a>
</g>
</g>
<!-- Node2&#45;&gt;Node31 -->
<g id="edge50" class="edge"><title>Node2&#45;&gt;Node31</title>
<path fill="none" stroke="#8b1a1a" d="M364.252,-320.959C375.186,-295.013 398.468,-249.14 434,-226 470.039,-202.53 519.289,-196.073 554.959,-194.857"/>
<polygon fill="#8b1a1a" stroke="#8b1a1a" points="360.924,-319.853 360.436,-330.437 367.418,-322.468 360.924,-319.853"/>
</g>
<!-- Node32 -->
<g id="node32" class="node"><title>Node32</title>
<g id="a_node32"><a xlink:href="classstxxl_1_1read__write__pool.html" target="_top" xlink:title="Implements dynamically resizable buffered writing and prefetched reading pool. ">
<polygon fill="none" stroke="black" points="831.5,-134 831.5,-164 943.5,-164 943.5,-134 831.5,-134"/>
<text text-anchor="start" x="839.5" y="-152" font-family="Helvetica,sans-Serif" font-size="10.00">stxxl::read_write_pool</text>
<text text-anchor="middle" x="887.5" y="-141" font-family="Helvetica,sans-Serif" font-size="10.00">&lt; BlockType &gt;</text>
</a>
</g>
</g>
<!-- Node2&#45;&gt;Node32 -->
<g id="edge52" class="edge"><title>Node2&#45;&gt;Node32</title>
<path fill="none" stroke="#8b1a1a" d="M361.961,-320.501C370.919,-289.344 392.806,-228.538 434,-196 494.275,-148.39 724.163,-145.995 831.138,-147.591"/>
<polygon fill="#8b1a1a" stroke="#8b1a1a" points="358.573,-319.622 359.322,-330.191 365.327,-321.462 358.573,-319.622"/>
</g>
<!-- Node3 -->
<g id="node3" class="node"><title>Node3</title>
<g id="a_node3"><a xlink:href="classstxxl_1_1block__manager.html" target="_top" xlink:title="Block manager class. ">
<polygon fill="none" stroke="black" points="1452,-329.5 1452,-348.5 1562,-348.5 1562,-329.5 1452,-329.5"/>
<text text-anchor="middle" x="1507" y="-336.5" font-family="Helvetica,sans-Serif" font-size="10.00">stxxl::block_manager</text>
</a>
</g>
</g>
<!-- Node3&#45;&gt;Node1 -->
<g id="edge2" class="edge"><title>Node3&#45;&gt;Node1</title>
<path fill="none" stroke="#9a32cd" stroke-dasharray="5,2" d="M1522.16,-321.605C1551.49,-287.687 1622.63,-216 1700,-216 1700,-216 1700,-216 3227.5,-216 3281.7,-216 3342.72,-216 3389.93,-216"/>
<polygon fill="#9a32cd" stroke="#9a32cd" points="1519.4,-319.449 1515.63,-329.348 1524.75,-323.963 1519.4,-319.449"/>
<text text-anchor="middle" x="2503.5" y="-219" font-family="Helvetica,sans-Serif" font-size="10.00"> m_bm</text>
</g>
<!-- Node4&#45;&gt;Node3 -->
<g id="edge3" class="edge"><title>Node4&#45;&gt;Node3</title>
<path fill="none" stroke="midnightblue" d="M955.345,-491.461C1083.63,-500.412 1357.62,-511.646 1425,-451 1446.01,-432.089 1427.31,-413.51 1443,-390 1454.88,-372.21 1474.86,-357.566 1489.14,-348.604"/>
<polygon fill="midnightblue" stroke="midnightblue" points="955.475,-487.961 945.251,-490.74 954.976,-494.944 955.475,-487.961"/>
</g>
<!-- Node5&#45;&gt;Node4 -->
<g id="edge5" class="edge"><title>Node5&#45;&gt;Node4</title>
<path fill="none" stroke="orange" stroke-dasharray="5,2" d="M685.578,-452.469C724.171,-455.333 770.632,-459.891 812,-467 818.446,-468.108 825.154,-469.488 831.787,-470.995"/>
<polygon fill="orange" stroke="orange" points="685.654,-448.965 675.43,-451.741 685.154,-455.947 685.654,-448.965"/>
<text text-anchor="middle" x="752.5" y="-470" font-family="Helvetica,sans-Serif" font-size="10.00"> &lt; block_manager &gt;</text>
</g>
<!-- Node6&#45;&gt;Node3 -->
<g id="edge7" class="edge"><title>Node6&#45;&gt;Node3</title>
<path fill="none" stroke="#9a32cd" stroke-dasharray="5,2" d="M1144.34,-385.227C1215.21,-376.169 1369.44,-356.455 1451.73,-345.937"/>
<polygon fill="#9a32cd" stroke="#9a32cd" points="1143.59,-381.795 1134.11,-386.535 1144.47,-388.738 1143.59,-381.795"/>
<text text-anchor="middle" x="1286" y="-377" font-family="Helvetica,sans-Serif" font-size="10.00"> disk_files</text>
</g>
<!-- Node6&#45;&gt;Node11 -->
<g id="edge16" class="edge"><title>Node6&#45;&gt;Node11</title>
<path fill="none" stroke="#9a32cd" stroke-dasharray="5,2" d="M1131.44,-375.098C1145.35,-367.005 1163.29,-357.208 1180,-350 1202.7,-340.211 1229.18,-331.654 1249.87,-325.573"/>
<polygon fill="#9a32cd" stroke="#9a32cd" points="1129.34,-372.273 1122.52,-380.377 1132.91,-378.298 1129.34,-372.273"/>
<text text-anchor="middle" x="1198" y="-353" font-family="Helvetica,sans-Serif" font-size="10.00"> storage</text>
</g>
<!-- Node18 -->
<g id="node18" class="node"><title>Node18</title>
<g id="a_node18"><a xlink:href="structstxxl_1_1BID.html" target="_top" xlink:title="stxxl::BID\&lt; raw_size \&gt;">
<polygon fill="none" stroke="black" points="1448,-399.5 1448,-418.5 1566,-418.5 1566,-399.5 1448,-399.5"/>
<text text-anchor="middle" x="1507" y="-406.5" font-family="Helvetica,sans-Serif" font-size="10.00">stxxl::BID&lt; raw_size &gt;</text>
</a>
</g>
</g>
<!-- Node6&#45;&gt;Node18 -->
<g id="edge26" class="edge"><title>Node6&#45;&gt;Node18</title>
<path fill="none" stroke="#9a32cd" stroke-dasharray="5,2" d="M1144.18,-391.771C1213.87,-395.089 1364.59,-402.266 1447.83,-406.23"/>
<polygon fill="#9a32cd" stroke="#9a32cd" points="1144.27,-388.271 1134.11,-391.291 1143.93,-395.263 1144.27,-388.271"/>
<text text-anchor="middle" x="1286" y="-404" font-family="Helvetica,sans-Serif" font-size="10.00"> storage</text>
</g>
<!-- Node19 -->
<g id="node19" class="node"><title>Node19</title>
<g id="a_node19"><a xlink:href="structstxxl_1_1BID.html" target="_top" xlink:title="Block identifier class. ">
<polygon fill="none" stroke="black" points="1237,-438.5 1237,-457.5 1335,-457.5 1335,-438.5 1237,-438.5"/>
<text text-anchor="middle" x="1286" y="-445.5" font-family="Helvetica,sans-Serif" font-size="10.00">stxxl::BID&lt; Size &gt;</text>
</a>
</g>
</g>
<!-- Node6&#45;&gt;Node19 -->
<g id="edge28" class="edge"><title>Node6&#45;&gt;Node19</title>
<path fill="none" stroke="#9a32cd" stroke-dasharray="5,2" d="M1134.68,-404.022C1148.12,-410.435 1164.64,-417.754 1180,-423 1198.26,-429.239 1218.83,-434.504 1236.89,-438.57"/>
<polygon fill="#9a32cd" stroke="#9a32cd" points="1136.03,-400.785 1125.51,-399.556 1132.97,-407.079 1136.03,-400.785"/>
<text text-anchor="middle" x="1198" y="-437" font-family="Helvetica,sans-Serif" font-size="10.00"> storage</text>
</g>
<!-- Node7 -->
<g id="node7" class="node"><title>Node7</title>
<g id="a_node7"><a xlink:href="classstxxl_1_1atomic__counted__object.html" target="_top" xlink:title="Provides reference counting abilities for use with counting_ptr with mutex locking. ">
<polygon fill="none" stroke="black" points="831,-345 831,-375 944,-375 944,-345 831,-345"/>
<text text-anchor="start" x="839" y="-363" font-family="Helvetica,sans-Serif" font-size="10.00">stxxl::atomic_counted</text>
<text text-anchor="middle" x="887.5" y="-352" font-family="Helvetica,sans-Serif" font-size="10.00">_object</text>
</a>
</g>
</g>
<!-- Node7&#45;&gt;Node6 -->
<g id="edge9" class="edge"><title>Node7&#45;&gt;Node6</title>
<path fill="none" stroke="#9a32cd" stroke-dasharray="5,2" d="M954.302,-368.461C978.718,-371.666 1006.64,-375.41 1032,-379 1047.23,-381.155 1064.22,-383.707 1077.98,-385.81"/>
<polygon fill="#9a32cd" stroke="#9a32cd" points="954.44,-364.949 944.07,-367.122 953.531,-371.89 954.44,-364.949"/>
<text text-anchor="middle" x="997.5" y="-382" font-family="Helvetica,sans-Serif" font-size="10.00"> m_request_ref</text>
</g>
<!-- Node8&#45;&gt;Node7 -->
<g id="edge10" class="edge"><title>Node8&#45;&gt;Node7</title>
<path fill="none" stroke="#9a32cd" stroke-dasharray="5,2" d="M647.867,-362.525C697.473,-362 777.432,-361.154 830.954,-360.588"/>
<polygon fill="#9a32cd" stroke="#9a32cd" points="647.725,-359.026 637.763,-362.632 647.799,-366.026 647.725,-359.026"/>
<text text-anchor="middle" x="752.5" y="-366" font-family="Helvetica,sans-Serif" font-size="10.00"> m_reference_count_mutex</text>
</g>
<!-- Node8&#45;&gt;Node11 -->
<g id="edge17" class="edge"><title>Node8&#45;&gt;Node11</title>
<path fill="none" stroke="#9a32cd" stroke-dasharray="5,2" d="M647.685,-356.403C693.385,-349.911 766.484,-340.235 830,-335 976.164,-322.954 1149.41,-318.389 1233.74,-316.788"/>
<polygon fill="#9a32cd" stroke="#9a32cd" points="646.925,-352.976 637.522,-357.858 647.917,-359.905 646.925,-352.976"/>
<text text-anchor="middle" x="997.5" y="-330" font-family="Helvetica,sans-Serif" font-size="10.00"> mutex</text>
</g>
<!-- Node9 -->
<g id="node9" class="node"><title>Node9</title>
<g id="a_node9"><a xlink:href="structstxxl_1_1choose__int__types.html" target="_top" xlink:title="stxxl::choose_int_types\l\&lt; my_pointer_size \&gt;">
<polygon fill="none" stroke="black" points="296,-78 296,-108 416,-108 416,-78 296,-78"/>
<text text-anchor="start" x="304" y="-96" font-family="Helvetica,sans-Serif" font-size="10.00">stxxl::choose_int_types</text>
<text text-anchor="middle" x="356" y="-85" font-family="Helvetica,sans-Serif" font-size="10.00">&lt; my_pointer_size &gt;</text>
</a>
</g>
</g>
<!-- Node9&#45;&gt;Node1 -->
<g id="edge18" class="edge"><title>Node9&#45;&gt;Node1</title>
<path fill="none" stroke="#9a32cd" stroke-dasharray="5,2" d="M416.757,-75.2985C465.796,-62.3364 537.28,-47 601,-47 601,-47 601,-47 3227.5,-47 3334.35,-47 3427.68,-159.103 3458.63,-200.704"/>
<polygon fill="#9a32cd" stroke="#9a32cd" points="415.698,-71.9589 406.951,-77.9379 417.517,-78.7183 415.698,-71.9589"/>
<text text-anchor="middle" x="1854" y="-61" font-family="Helvetica,sans-Serif" font-size="10.00"> m_blocks2prefetch</text>
<text text-anchor="middle" x="1854" y="-50" font-family="Helvetica,sans-Serif" font-size="10.00">m_alloc_count</text>
</g>
<!-- Node9&#45;&gt;Node7 -->
<g id="edge12" class="edge"><title>Node9&#45;&gt;Node7</title>
<path fill="none" stroke="#9a32cd" stroke-dasharray="5,2" d="M382.132,-114.891C414.415,-142.201 472.986,-189.062 529,-220 633.003,-277.445 765.497,-322.768 836.382,-344.999"/>
<polygon fill="#9a32cd" stroke="#9a32cd" points="384.388,-112.216 374.508,-108.391 379.847,-117.542 384.388,-112.216"/>
<text text-anchor="middle" x="602" y="-290" font-family="Helvetica,sans-Serif" font-size="10.00"> m_reference_count</text>
</g>
<!-- Node9&#45;&gt;Node28 -->
<g id="edge46" class="edge"><title>Node9&#45;&gt;Node28</title>
<path fill="none" stroke="#9a32cd" stroke-dasharray="5,2" d="M426.198,-93C465.858,-93 514.741,-93 550.72,-93"/>
<polygon fill="#9a32cd" stroke="#9a32cd" points="426.066,-89.5001 416.066,-93 426.066,-96.5001 426.066,-89.5001"/>
<text text-anchor="middle" x="472.5" y="-96" font-family="Helvetica,sans-Serif" font-size="10.00"> free_blocks_size</text>
</g>
<!-- Node10 -->
<g id="node10" class="node"><title>Node10</title>
<g id="a_node10"><a xlink:href="structstxxl_1_1choose__int__types.html" target="_top" xlink:title="stxxl::choose_int_types\l\&lt; PtrSize \&gt;">
<polygon fill="none" stroke="black" points="17,-78 17,-108 137,-108 137,-78 17,-78"/>
<text text-anchor="start" x="25" y="-96" font-family="Helvetica,sans-Serif" font-size="10.00">stxxl::choose_int_types</text>
<text text-anchor="middle" x="77" y="-85" font-family="Helvetica,sans-Serif" font-size="10.00">&lt; PtrSize &gt;</text>
</a>
</g>
</g>
<!-- Node10&#45;&gt;Node9 -->
<g id="edge13" class="edge"><title>Node10&#45;&gt;Node9</title>
<path fill="none" stroke="orange" stroke-dasharray="5,2" d="M147.195,-93C192.837,-93 252.008,-93 295.53,-93"/>
<polygon fill="orange" stroke="orange" points="147.084,-89.5001 137.084,-93 147.084,-96.5001 147.084,-89.5001"/>
<text text-anchor="middle" x="225" y="-96" font-family="Helvetica,sans-Serif" font-size="10.00"> &lt; my_pointer_size &gt;</text>
</g>
<!-- Node11&#45;&gt;Node3 -->
<g id="edge14" class="edge"><title>Node11&#45;&gt;Node3</title>
<path fill="none" stroke="#9a32cd" stroke-dasharray="5,2" d="M1348.35,-322.444C1380.86,-325.857 1420.42,-330.013 1451.79,-333.306"/>
<polygon fill="#9a32cd" stroke="#9a32cd" points="1348.38,-318.927 1338.07,-321.363 1347.65,-325.889 1348.38,-318.927"/>
<text text-anchor="middle" x="1390.5" y="-334" font-family="Helvetica,sans-Serif" font-size="10.00"> disk_allocators</text>
</g>
<!-- Node12 -->
<g id="node12" class="node"><title>Node12</title>
<g id="a_node12"><a xlink:href="classstxxl_1_1typed__block.html" target="_top" xlink:title="Block containing elements of fixed length. ">
<polygon fill="none" stroke="black" points="3164,-246.5 3164,-287.5 3289,-287.5 3289,-246.5 3164,-246.5"/>
<text text-anchor="start" x="3172" y="-275.5" font-family="Helvetica,sans-Serif" font-size="10.00">stxxl::typed_block</text>
<text text-anchor="start" x="3172" y="-264.5" font-family="Helvetica,sans-Serif" font-size="10.00">&lt; RawSize, Type, NRef,</text>
<text text-anchor="middle" x="3226.5" y="-253.5" font-family="Helvetica,sans-Serif" font-size="10.00"> MetaInfoType &gt;</text>
</a>
</g>
</g>
<!-- Node12&#45;&gt;Node1 -->
<g id="edge19" class="edge"><title>Node12&#45;&gt;Node1</title>
<path fill="none" stroke="#9a32cd" stroke-dasharray="5,2" d="M3299.13,-251.905C3330.35,-245.326 3366.86,-237.632 3398.05,-231.057"/>
<polygon fill="#9a32cd" stroke="#9a32cd" points="3298.26,-248.512 3289.19,-253.999 3299.7,-255.361 3298.26,-248.512"/>
<text text-anchor="middle" x="3339.5" y="-264" font-family="Helvetica,sans-Serif" font-size="10.00"> m_front_block</text>
<text text-anchor="middle" x="3339.5" y="-253" font-family="Helvetica,sans-Serif" font-size="10.00">m_back_block</text>
</g>
<!-- Node13 -->
<g id="node13" class="node"><title>Node13</title>
<g id="a_node13"><a xlink:href="classstxxl_1_1mng__local_1_1expand__struct.html" target="_top" xlink:title="stxxl::mng_local::expand\l_struct\&lt; mng_local::block\l_w_info\&lt; Type, RawSize, NRef,\l MetaInfoType \&gt;, RawSize \&gt;">
<polygon fill="none" stroke="black" points="2968,-245 2968,-297 3127,-297 3127,-245 2968,-245"/>
<text text-anchor="start" x="2976" y="-285" font-family="Helvetica,sans-Serif" font-size="10.00">stxxl::mng_local::expand</text>
<text text-anchor="start" x="2976" y="-274" font-family="Helvetica,sans-Serif" font-size="10.00">_struct&lt; mng_local::block</text>
<text text-anchor="start" x="2976" y="-263" font-family="Helvetica,sans-Serif" font-size="10.00">_w_info&lt; Type, RawSize, NRef,</text>
<text text-anchor="middle" x="3047.5" y="-252" font-family="Helvetica,sans-Serif" font-size="10.00"> MetaInfoType &gt;, RawSize &gt;</text>
</a>
</g>
</g>
<!-- Node13&#45;&gt;Node12 -->
<g id="edge20" class="edge"><title>Node13&#45;&gt;Node12</title>
<path fill="none" stroke="midnightblue" d="M3137.28,-268.994C3146.25,-268.791 3155.22,-268.588 3163.81,-268.394"/>
<polygon fill="midnightblue" stroke="midnightblue" points="3137.08,-265.497 3127.17,-269.222 3137.24,-272.495 3137.08,-265.497"/>
</g>
<!-- Node14 -->
<g id="node14" class="node"><title>Node14</title>
<g id="a_node14"><a xlink:href="classstxxl_1_1mng__local_1_1add__filler.html" target="_top" xlink:title="stxxl::mng_local::add\l_filler\&lt; mng_local::block\l_w_info\&lt; Type, RawSize,\l NRef, MetaInfoType \&gt;, RawSize\l&#45;sizeof(mng_local::block_w_info\l\&lt; Type, RawSize, NRef, MetaInfoType \&gt;)\&gt;">
<polygon fill="none" stroke="black" points="2612,-322 2612,-396 2818,-396 2818,-322 2612,-322"/>
<text text-anchor="start" x="2620" y="-384" font-family="Helvetica,sans-Serif" font-size="10.00">stxxl::mng_local::add</text>
<text text-anchor="start" x="2620" y="-373" font-family="Helvetica,sans-Serif" font-size="10.00">_filler&lt; mng_local::block</text>
<text text-anchor="start" x="2620" y="-362" font-family="Helvetica,sans-Serif" font-size="10.00">_w_info&lt; Type, RawSize,</text>
<text text-anchor="start" x="2620" y="-351" font-family="Helvetica,sans-Serif" font-size="10.00"> NRef, MetaInfoType &gt;, RawSize</text>
<text text-anchor="start" x="2620" y="-340" font-family="Helvetica,sans-Serif" font-size="10.00">&#45;sizeof(mng_local::block_w_info</text>
<text text-anchor="middle" x="2715" y="-329" font-family="Helvetica,sans-Serif" font-size="10.00">&lt; Type, RawSize, NRef, MetaInfoType &gt;)&gt;</text>
</a>
</g>
</g>
<!-- Node14&#45;&gt;Node13 -->
<g id="edge21" class="edge"><title>Node14&#45;&gt;Node13</title>
<path fill="none" stroke="midnightblue" d="M2828.42,-346.586C2867.51,-340.492 2911.25,-331.647 2950,-319 2967.25,-313.369 2985.29,-305.114 3001.03,-297.032"/>
<polygon fill="midnightblue" stroke="midnightblue" points="2827.42,-343.197 2818.06,-348.154 2828.47,-350.118 2827.42,-343.197"/>
</g>
<!-- Node15 -->
<g id="node15" class="node"><title>Node15</title>
<g id="a_node15"><a xlink:href="classstxxl_1_1mng__local_1_1block__w__info.html" target="_top" xlink:title="stxxl::mng_local::block\l_w_info\&lt; Type, RawSize,\l NRef, MetaInfoType \&gt;">
<polygon fill="none" stroke="black" points="2438.5,-460.5 2438.5,-501.5 2568.5,-501.5 2568.5,-460.5 2438.5,-460.5"/>
<text text-anchor="start" x="2446.5" y="-489.5" font-family="Helvetica,sans-Serif" font-size="10.00">stxxl::mng_local::block</text>
<text text-anchor="start" x="2446.5" y="-478.5" font-family="Helvetica,sans-Serif" font-size="10.00">_w_info&lt; Type, RawSize,</text>
<text text-anchor="middle" x="2503.5" y="-467.5" font-family="Helvetica,sans-Serif" font-size="10.00"> NRef, MetaInfoType &gt;</text>
</a>
</g>
</g>
<!-- Node15&#45;&gt;Node14 -->
<g id="edge22" class="edge"><title>Node15&#45;&gt;Node14</title>
<path fill="none" stroke="midnightblue" d="M2556.76,-455.777C2562.96,-452.575 2569.15,-449.272 2575,-446 2602.7,-430.503 2632.64,-412.001 2657.62,-396.052"/>
<polygon fill="midnightblue" stroke="midnightblue" points="2555.05,-452.722 2547.73,-460.381 2558.22,-458.959 2555.05,-452.722"/>
</g>
<!-- Node16 -->
<g id="node16" class="node"><title>Node16</title>
<g id="a_node16"><a xlink:href="classstxxl_1_1mng__local_1_1block__w__bids.html" target="_top" xlink:title="stxxl::mng_local::block\l_w_bids\&lt; Type,((RawSize\l&#45;sizeof(BID\&lt; RawSize \&gt;)*NBids\l&#45;sizeof(MetaInfoType))/sizeof\l(Type)), RawSize, NBids \&gt;">
<polygon fill="none" stroke="black" points="1928,-400.5 1928,-463.5 2086,-463.5 2086,-400.5 1928,-400.5"/>
<text text-anchor="start" x="1936" y="-451.5" font-family="Helvetica,sans-Serif" font-size="10.00">stxxl::mng_local::block</text>
<text text-anchor="start" x="1936" y="-440.5" font-family="Helvetica,sans-Serif" font-size="10.00">_w_bids&lt; Type,((RawSize</text>
<text text-anchor="start" x="1936" y="-429.5" font-family="Helvetica,sans-Serif" font-size="10.00">&#45;sizeof(BID&lt; RawSize &gt;)*NBids</text>
<text text-anchor="start" x="1936" y="-418.5" font-family="Helvetica,sans-Serif" font-size="10.00">&#45;sizeof(MetaInfoType))/sizeof</text>
<text text-anchor="middle" x="2007" y="-407.5" font-family="Helvetica,sans-Serif" font-size="10.00">(Type)), RawSize, NBids &gt;</text>
</a>
</g>
</g>
<!-- Node16&#45;&gt;Node15 -->
<g id="edge23" class="edge"><title>Node16&#45;&gt;Node15</title>
<path fill="none" stroke="midnightblue" d="M2096.59,-453.738C2112.3,-456.964 2128.57,-459.904 2144,-462 2246.37,-475.907 2366.46,-479.771 2438.42,-480.766"/>
<polygon fill="midnightblue" stroke="midnightblue" points="2096.86,-450.219 2086.35,-451.582 2095.42,-457.069 2096.86,-450.219"/>
</g>
<!-- Node21 -->
<g id="node21" class="node"><title>Node21</title>
<g id="a_node21"><a xlink:href="classstxxl_1_1mng__local_1_1block__w__info.html" target="_top" xlink:title="Contains per block information for stxxl::typed_block , not intended for direct use. ">
<polygon fill="none" stroke="black" points="2149,-411.5 2149,-452.5 2279,-452.5 2279,-411.5 2149,-411.5"/>
<text text-anchor="start" x="2157" y="-440.5" font-family="Helvetica,sans-Serif" font-size="10.00">stxxl::mng_local::block</text>
<text text-anchor="start" x="2157" y="-429.5" font-family="Helvetica,sans-Serif" font-size="10.00">_w_info&lt; Type, RawSize,</text>
<text text-anchor="middle" x="2214" y="-418.5" font-family="Helvetica,sans-Serif" font-size="10.00"> NBids, MetaInfoType &gt;</text>
</a>
</g>
</g>
<!-- Node16&#45;&gt;Node21 -->
<g id="edge33" class="edge"><title>Node16&#45;&gt;Node21</title>
<path fill="none" stroke="midnightblue" d="M2096.38,-432C2113.99,-432 2132.17,-432 2148.79,-432"/>
<polygon fill="midnightblue" stroke="midnightblue" points="2096.09,-428.5 2086.09,-432 2096.09,-435.5 2096.09,-428.5"/>
</g>
<!-- Node17 -->
<g id="node17" class="node"><title>Node17</title>
<g id="a_node17"><a xlink:href="classstxxl_1_1mng__local_1_1element__block.html" target="_top" xlink:title="Contains data elements for stxxl::typed_block , not intended for direct use. ">
<polygon fill="none" stroke="black" points="1443,-446 1443,-476 1571,-476 1571,-446 1443,-446"/>
<text text-anchor="start" x="1451" y="-464" font-family="Helvetica,sans-Serif" font-size="10.00">stxxl::mng_local::element</text>
<text text-anchor="middle" x="1507" y="-453" font-family="Helvetica,sans-Serif" font-size="10.00">_block&lt; Type, Size &gt;</text>
</a>
</g>
</g>
<!-- Node17&#45;&gt;Node16 -->
<g id="edge24" class="edge"><title>Node17&#45;&gt;Node16</title>
<path fill="none" stroke="midnightblue" d="M1581.43,-451.84C1594.91,-450.383 1608.86,-449.021 1622,-448 1727.77,-439.776 1850.29,-435.596 1927.94,-433.609"/>
<polygon fill="midnightblue" stroke="midnightblue" points="1580.79,-448.389 1571.24,-452.969 1581.56,-455.347 1580.79,-448.389"/>
</g>
<!-- Node20 -->
<g id="node20" class="node"><title>Node20</title>
<g id="a_node20"><a xlink:href="classstxxl_1_1mng__local_1_1block__w__bids.html" target="_top" xlink:title="Contains BID references for stxxl::typed_block , not intended for direct use. ">
<polygon fill="none" stroke="black" points="1622,-457.5 1622,-498.5 1780,-498.5 1780,-457.5 1622,-457.5"/>
<text text-anchor="start" x="1630" y="-486.5" font-family="Helvetica,sans-Serif" font-size="10.00">stxxl::mng_local::block</text>
<text text-anchor="start" x="1630" y="-475.5" font-family="Helvetica,sans-Serif" font-size="10.00">_w_bids&lt; Type, Size, RawSize,</text>
<text text-anchor="middle" x="1701" y="-464.5" font-family="Helvetica,sans-Serif" font-size="10.00"> NBids &gt;</text>
</a>
</g>
</g>
<!-- Node17&#45;&gt;Node20 -->
<g id="edge30" class="edge"><title>Node17&#45;&gt;Node20</title>
<path fill="none" stroke="midnightblue" d="M1581.15,-467.477C1594.43,-468.652 1608.32,-469.883 1621.74,-471.071"/>
<polygon fill="midnightblue" stroke="midnightblue" points="1581.4,-463.986 1571.13,-466.59 1580.79,-470.958 1581.4,-463.986"/>
</g>
<!-- Node18&#45;&gt;Node16 -->
<g id="edge25" class="edge"><title>Node18&#45;&gt;Node16</title>
<path fill="none" stroke="#9a32cd" stroke-dasharray="5,2" d="M1576.5,-405.508C1591.49,-404.88 1607.28,-404.323 1622,-404 1750.06,-401.193 1782.98,-398.415 1910,-415 1915.79,-415.756 1921.76,-416.617 1927.77,-417.541"/>
<polygon fill="#9a32cd" stroke="#9a32cd" points="1576.11,-402.021 1566.27,-405.952 1576.41,-409.015 1576.11,-402.021"/>
<text text-anchor="middle" x="1701" y="-407" font-family="Helvetica,sans-Serif" font-size="10.00"> ref</text>
</g>
<!-- Node18&#45;&gt;Node20 -->
<g id="edge31" class="edge"><title>Node18&#45;&gt;Node20</title>
<path fill="none" stroke="#9a32cd" stroke-dasharray="5,2" d="M1544.39,-422.077C1572.14,-432.049 1610.88,-445.973 1642.77,-457.432"/>
<polygon fill="#9a32cd" stroke="#9a32cd" points="1545.29,-418.682 1534.7,-418.594 1542.92,-425.27 1545.29,-418.682"/>
<text text-anchor="middle" x="1596.5" y="-447" font-family="Helvetica,sans-Serif" font-size="10.00"> ref</text>
</g>
<!-- Node19&#45;&gt;Node18 -->
<g id="edge27" class="edge"><title>Node19&#45;&gt;Node18</title>
<path fill="none" stroke="orange" stroke-dasharray="5,2" d="M1345.1,-437.654C1378.35,-431.731 1419.79,-424.352 1452.29,-418.566"/>
<polygon fill="orange" stroke="orange" points="1344.29,-434.242 1335.06,-439.441 1345.52,-441.134 1344.29,-434.242"/>
<text text-anchor="middle" x="1390.5" y="-439" font-family="Helvetica,sans-Serif" font-size="10.00"> &lt; raw_size &gt;</text>
</g>
<!-- Node20&#45;&gt;Node16 -->
<g id="edge29" class="edge"><title>Node20&#45;&gt;Node16</title>
<path fill="none" stroke="orange" stroke-dasharray="5,2" d="M1789.96,-464.231C1792.67,-463.815 1795.36,-463.404 1798,-463 1840.95,-456.444 1888.91,-449.285 1927.95,-443.499"/>
<polygon fill="orange" stroke="orange" points="1789.41,-460.775 1780.06,-465.756 1790.47,-467.693 1789.41,-460.775"/>
<text text-anchor="start" x="1798" y="-510" font-family="Helvetica,sans-Serif" font-size="10.00"> &lt; Type,((RawSize&#45;sizeof</text>
<text text-anchor="start" x="1798" y="-499" font-family="Helvetica,sans-Serif" font-size="10.00">(BID&lt; RawSize &gt;)*NBids</text>
<text text-anchor="start" x="1798" y="-488" font-family="Helvetica,sans-Serif" font-size="10.00">&#45;sizeof(MetaInfoType))</text>
<text text-anchor="start" x="1798" y="-477" font-family="Helvetica,sans-Serif" font-size="10.00">/sizeof(Type)), RawSize,</text>
<text text-anchor="middle" x="1854" y="-466" font-family="Helvetica,sans-Serif" font-size="10.00"> NBids &gt;</text>
</g>
<!-- Node21&#45;&gt;Node15 -->
<g id="edge32" class="edge"><title>Node21&#45;&gt;Node15</title>
<path fill="none" stroke="orange" stroke-dasharray="5,2" d="M2289.78,-431.24C2327.45,-432.276 2373.59,-435.719 2414,-445 2429.36,-448.528 2445.5,-454.395 2459.74,-460.379"/>
<polygon fill="orange" stroke="orange" points="2289.46,-427.732 2279.39,-431.009 2289.31,-434.731 2289.46,-427.732"/>
<text text-anchor="start" x="2302" y="-459" font-family="Helvetica,sans-Serif" font-size="10.00"> &lt; Type, RawSize, NRef,</text>
<text text-anchor="middle" x="2358" y="-448" font-family="Helvetica,sans-Serif" font-size="10.00"> MetaInfoType &gt;</text>
</g>
<!-- Node22 -->
<g id="node22" class="node"><title>Node22</title>
<g id="a_node22"><a xlink:href="classstxxl_1_1mng__local_1_1filler__struct.html" target="_top" xlink:title="stxxl::mng_local::filler\l_struct\&lt; FillSize \&gt;">
<polygon fill="none" stroke="black" points="1951,-290 1951,-320 2063,-320 2063,-290 1951,-290"/>
<text text-anchor="start" x="1959" y="-308" font-family="Helvetica,sans-Serif" font-size="10.00">stxxl::mng_local::filler</text>
<text text-anchor="middle" x="2007" y="-297" font-family="Helvetica,sans-Serif" font-size="10.00">_struct&lt; FillSize &gt;</text>
</a>
</g>
</g>
<!-- Node22&#45;&gt;Node14 -->
<g id="edge34" class="edge"><title>Node22&#45;&gt;Node14</title>
<path fill="none" stroke="#9a32cd" stroke-dasharray="5,2" d="M2073.77,-301.089C2154.21,-297.169 2294.42,-293.129 2414,-304 2480.44,-310.04 2554.16,-323.458 2611.89,-335.529"/>
<polygon fill="#9a32cd" stroke="#9a32cd" points="2073.12,-297.617 2063.31,-301.615 2073.47,-304.608 2073.12,-297.617"/>
<text text-anchor="middle" x="2358" y="-307" font-family="Helvetica,sans-Serif" font-size="10.00"> filler</text>
</g>
<!-- Node24 -->
<g id="node24" class="node"><title>Node24</title>
<g id="a_node24"><a xlink:href="classstxxl_1_1mng__local_1_1add__filler.html" target="_top" xlink:title="Contains per block filler for stxxl::typed_block , not intended for direct use. ">
<polygon fill="none" stroke="black" points="2144,-334 2144,-364 2284,-364 2284,-334 2144,-334"/>
<text text-anchor="start" x="2152" y="-352" font-family="Helvetica,sans-Serif" font-size="10.00">stxxl::mng_local::add</text>
<text text-anchor="middle" x="2214" y="-341" font-family="Helvetica,sans-Serif" font-size="10.00">_filler&lt; BaseType, FillSize &gt;</text>
</a>
</g>
</g>
<!-- Node22&#45;&gt;Node24 -->
<g id="edge37" class="edge"><title>Node22&#45;&gt;Node24</title>
<path fill="none" stroke="#9a32cd" stroke-dasharray="5,2" d="M2073.01,-318.953C2095.55,-323.79 2120.89,-329.229 2143.75,-334.137"/>
<polygon fill="#9a32cd" stroke="#9a32cd" points="2073.72,-315.526 2063.21,-316.849 2072.25,-322.37 2073.72,-315.526"/>
<text text-anchor="middle" x="2115" y="-333" font-family="Helvetica,sans-Serif" font-size="10.00"> filler</text>
</g>
<!-- Node26 -->
<g id="node26" class="node"><title>Node26</title>
<g id="a_node26"><a xlink:href="classstxxl_1_1mng__local_1_1add__filler.html" target="_top" xlink:title="stxxl::mng_local::add\l_filler\&lt; Type, RawSize\l&#45;sizeof(Type)\&gt;">
<polygon fill="none" stroke="black" points="2445.5,-245.5 2445.5,-286.5 2561.5,-286.5 2561.5,-245.5 2445.5,-245.5"/>
<text text-anchor="start" x="2453.5" y="-274.5" font-family="Helvetica,sans-Serif" font-size="10.00">stxxl::mng_local::add</text>
<text text-anchor="start" x="2453.5" y="-263.5" font-family="Helvetica,sans-Serif" font-size="10.00">_filler&lt; Type, RawSize</text>
<text text-anchor="middle" x="2503.5" y="-252.5" font-family="Helvetica,sans-Serif" font-size="10.00">&#45;sizeof(Type)&gt;</text>
</a>
</g>
</g>
<!-- Node22&#45;&gt;Node26 -->
<g id="edge40" class="edge"><title>Node22&#45;&gt;Node26</title>
<path fill="none" stroke="#9a32cd" stroke-dasharray="5,2" d="M2073.35,-291.034C2095.66,-286.787 2120.83,-282.569 2144,-280 2249.86,-268.264 2374.26,-265.96 2445.19,-265.724"/>
<polygon fill="#9a32cd" stroke="#9a32cd" points="2072.47,-287.639 2063.32,-292.981 2073.8,-294.511 2072.47,-287.639"/>
<text text-anchor="middle" x="2214" y="-283" font-family="Helvetica,sans-Serif" font-size="10.00"> filler</text>
</g>
<!-- Node23 -->
<g id="node23" class="node"><title>Node23</title>
<g id="a_node23"><a xlink:href="classstxxl_1_1mng__local_1_1filler__struct.html" target="_top" xlink:title="stxxl::mng_local::filler\l_struct\&lt; Bytes \&gt;">
<polygon fill="none" stroke="black" points="1645,-290 1645,-320 1757,-320 1757,-290 1645,-290"/>
<text text-anchor="start" x="1653" y="-308" font-family="Helvetica,sans-Serif" font-size="10.00">stxxl::mng_local::filler</text>
<text text-anchor="middle" x="1701" y="-297" font-family="Helvetica,sans-Serif" font-size="10.00">_struct&lt; Bytes &gt;</text>
</a>
</g>
</g>
<!-- Node23&#45;&gt;Node22 -->
<g id="edge35" class="edge"><title>Node23&#45;&gt;Node22</title>
<path fill="none" stroke="orange" stroke-dasharray="5,2" d="M1767.33,-305C1822.03,-305 1899.21,-305 1950.84,-305"/>
<polygon fill="orange" stroke="orange" points="1767.05,-301.5 1757.05,-305 1767.05,-308.5 1767.05,-301.5"/>
<text text-anchor="middle" x="1854" y="-308" font-family="Helvetica,sans-Serif" font-size="10.00"> &lt; FillSize &gt;</text>
</g>
<!-- Node24&#45;&gt;Node14 -->
<g id="edge36" class="edge"><title>Node24&#45;&gt;Node14</title>
<path fill="none" stroke="orange" stroke-dasharray="5,2" d="M2294.31,-361.349C2296.9,-361.593 2299.47,-361.812 2302,-362 2407.39,-369.831 2528.37,-367.623 2611.83,-364.356"/>
<polygon fill="orange" stroke="orange" points="2294.54,-357.855 2284.23,-360.29 2293.81,-364.816 2294.54,-357.855"/>
<text text-anchor="start" x="2432" y="-426" font-family="Helvetica,sans-Serif" font-size="10.00"> &lt; mng_local::block</text>
<text text-anchor="start" x="2432" y="-415" font-family="Helvetica,sans-Serif" font-size="10.00">_w_info&lt; Type, RawSize,</text>
<text text-anchor="start" x="2432" y="-404" font-family="Helvetica,sans-Serif" font-size="10.00"> NRef, MetaInfoType &gt;,</text>
<text text-anchor="start" x="2432" y="-393" font-family="Helvetica,sans-Serif" font-size="10.00"> RawSize&#45;sizeof(mng_local</text>
<text text-anchor="start" x="2432" y="-382" font-family="Helvetica,sans-Serif" font-size="10.00">::block_w_info&lt; Type, RawSize,</text>
<text text-anchor="middle" x="2503.5" y="-371" font-family="Helvetica,sans-Serif" font-size="10.00"> NRef, MetaInfoType &gt;)&gt;</text>
</g>
<!-- Node24&#45;&gt;Node26 -->
<g id="edge41" class="edge"><title>Node24&#45;&gt;Node26</title>
<path fill="none" stroke="orange" stroke-dasharray="5,2" d="M2293.98,-339.262C2339.59,-333.058 2392.15,-324.757 2414,-317 2434.89,-309.584 2456.48,-297.251 2473.1,-286.571"/>
<polygon fill="orange" stroke="orange" points="2293.51,-335.793 2284.06,-340.592 2294.44,-342.731 2293.51,-335.793"/>
<text text-anchor="start" x="2303.5" y="-352" font-family="Helvetica,sans-Serif" font-size="10.00"> &lt; Type, RawSize&#45;sizeof</text>
<text text-anchor="middle" x="2358" y="-341" font-family="Helvetica,sans-Serif" font-size="10.00">(Type)&gt;</text>
</g>
<!-- Node25 -->
<g id="node25" class="node"><title>Node25</title>
<g id="a_node25"><a xlink:href="classstxxl_1_1mng__local_1_1expand__struct.html" target="_top" xlink:title="Helper to compute the size of the filler , not intended for direct use. ">
<polygon fill="none" stroke="black" points="2649,-254 2649,-284 2781,-284 2781,-254 2649,-254"/>
<text text-anchor="start" x="2657" y="-272" font-family="Helvetica,sans-Serif" font-size="10.00">stxxl::mng_local::expand</text>
<text text-anchor="middle" x="2715" y="-261" font-family="Helvetica,sans-Serif" font-size="10.00">_struct&lt; Type, RawSize &gt;</text>
</a>
</g>
</g>
<!-- Node25&#45;&gt;Node13 -->
<g id="edge38" class="edge"><title>Node25&#45;&gt;Node13</title>
<path fill="none" stroke="orange" stroke-dasharray="5,2" d="M2791.6,-269.458C2844.35,-269.777 2914.57,-270.202 2967.95,-270.525"/>
<polygon fill="orange" stroke="orange" points="2791.32,-265.956 2781.3,-269.395 2791.27,-272.956 2791.32,-265.956"/>
<text text-anchor="start" x="2836" y="-307" font-family="Helvetica,sans-Serif" font-size="10.00"> &lt; mng_local::block</text>
<text text-anchor="start" x="2836" y="-296" font-family="Helvetica,sans-Serif" font-size="10.00">_w_info&lt; Type, RawSize,</text>
<text text-anchor="start" x="2836" y="-285" font-family="Helvetica,sans-Serif" font-size="10.00"> NRef, MetaInfoType &gt;,</text>
<text text-anchor="middle" x="2893" y="-274" font-family="Helvetica,sans-Serif" font-size="10.00"> RawSize &gt;</text>
</g>
<!-- Node26&#45;&gt;Node25 -->
<g id="edge39" class="edge"><title>Node26&#45;&gt;Node25</title>
<path fill="none" stroke="midnightblue" d="M2572.06,-266.967C2596.62,-267.319 2624.32,-267.716 2648.68,-268.065"/>
<polygon fill="midnightblue" stroke="midnightblue" points="2571.8,-263.463 2561.75,-266.82 2571.7,-270.463 2571.8,-263.463"/>
</g>
<!-- Node27&#45;&gt;Node1 -->
<g id="edge42" class="edge"><title>Node27&#45;&gt;Node1</title>
<path fill="none" stroke="#9a32cd" stroke-dasharray="5,2" d="M1172.49,-170C1206.12,-170 1247.75,-170 1285,-170 1285,-170 1285,-170 3227.5,-170 3295.07,-170 3371.42,-187.522 3419.97,-200.938"/>
<polygon fill="#9a32cd" stroke="#9a32cd" points="1172.32,-166.5 1162.32,-170 1172.32,-173.5 1172.32,-166.5"/>
<text text-anchor="middle" x="2214" y="-173" font-family="Helvetica,sans-Serif" font-size="10.00"> m_pool</text>
</g>
<!-- Node28&#45;&gt;Node27 -->
<g id="edge44" class="edge"><title>Node28&#45;&gt;Node27</title>
<path fill="none" stroke="#9a32cd" stroke-dasharray="5,2" d="M663.357,-91.3715C732.217,-90.6993 847.856,-93.1911 945,-113 990.073,-122.191 1039.63,-141.347 1071.46,-154.91"/>
<polygon fill="#9a32cd" stroke="#9a32cd" points="663.087,-87.8745 653.131,-91.4982 663.174,-94.874 663.087,-87.8745"/>
<text text-anchor="middle" x="887.5" y="-116" font-family="Helvetica,sans-Serif" font-size="10.00"> p_pool</text>
</g>
<!-- Node28&#45;&gt;Node32 -->
<g id="edge53" class="edge"><title>Node28&#45;&gt;Node32</title>
<path fill="none" stroke="#9a32cd" stroke-dasharray="5,2" d="M663.331,-99.6461C705.344,-104.904 762.493,-113.315 812,-125 822.448,-127.466 833.542,-130.696 843.889,-133.983"/>
<polygon fill="#9a32cd" stroke="#9a32cd" points="663.613,-96.1545 653.261,-98.4098 662.76,-103.102 663.613,-96.1545"/>
<text text-anchor="middle" x="752.5" y="-128" font-family="Helvetica,sans-Serif" font-size="10.00"> p_pool</text>
</g>
<!-- Node29 -->
<g id="node29" class="node"><title>Node29</title>
<g id="a_node29"><a xlink:href="structstxxl_1_1compat__hash__map.html" target="_top" xlink:title="stxxl::compat_hash\l_map\&lt; bid_type, busy\l_entry, bid_hash \&gt;">
<polygon fill="none" stroke="black" points="299.5,-0.5 299.5,-41.5 412.5,-41.5 412.5,-0.5 299.5,-0.5"/>
<text text-anchor="start" x="307.5" y="-29.5" font-family="Helvetica,sans-Serif" font-size="10.00">stxxl::compat_hash</text>
<text text-anchor="start" x="307.5" y="-18.5" font-family="Helvetica,sans-Serif" font-size="10.00">_map&lt; bid_type, busy</text>
<text text-anchor="middle" x="356" y="-7.5" font-family="Helvetica,sans-Serif" font-size="10.00">_entry, bid_hash &gt;</text>
</a>
</g>
</g>
<!-- Node29&#45;&gt;Node28 -->
<g id="edge47" class="edge"><title>Node29&#45;&gt;Node28</title>
<path fill="none" stroke="#9a32cd" stroke-dasharray="5,2" d="M422.431,-40.3074C462.81,-52.2226 513.808,-67.2712 550.956,-78.2329"/>
<polygon fill="#9a32cd" stroke="#9a32cd" points="423.254,-36.9013 412.673,-37.428 421.273,-43.6152 423.254,-36.9013"/>
<text text-anchor="middle" x="472.5" y="-69" font-family="Helvetica,sans-Serif" font-size="10.00"> busy_blocks</text>
</g>
<!-- Node30 -->
<g id="node30" class="node"><title>Node30</title>
<g id="a_node30"><a xlink:href="structstxxl_1_1compat__hash__map.html" target="_top" xlink:title="stxxl::compat_hash\l_map\&lt; KeyType, MappedType,\l HashType \&gt;">
<polygon fill="none" stroke="black" points="0,-0.5 0,-41.5 154,-41.5 154,-0.5 0,-0.5"/>
<text text-anchor="start" x="8" y="-29.5" font-family="Helvetica,sans-Serif" font-size="10.00">stxxl::compat_hash</text>
<text text-anchor="start" x="8" y="-18.5" font-family="Helvetica,sans-Serif" font-size="10.00">_map&lt; KeyType, MappedType,</text>
<text text-anchor="middle" x="77" y="-7.5" font-family="Helvetica,sans-Serif" font-size="10.00"> HashType &gt;</text>
</a>
</g>
</g>
<!-- Node30&#45;&gt;Node29 -->
<g id="edge48" class="edge"><title>Node30&#45;&gt;Node29</title>
<path fill="none" stroke="orange" stroke-dasharray="5,2" d="M164.195,-21C208.263,-21 260.612,-21 299.32,-21"/>
<polygon fill="orange" stroke="orange" points="164.058,-17.5001 154.058,-21 164.058,-24.5001 164.058,-17.5001"/>
<text text-anchor="start" x="172" y="-35" font-family="Helvetica,sans-Serif" font-size="10.00"> &lt; bid_type, busy_entry,</text>
<text text-anchor="middle" x="225" y="-24" font-family="Helvetica,sans-Serif" font-size="10.00"> bid_hash &gt;</text>
</g>
<!-- Node31&#45;&gt;Node27 -->
<g id="edge49" class="edge"><title>Node31&#45;&gt;Node27</title>
<path fill="none" stroke="#9a32cd" stroke-dasharray="5,2" d="M659.148,-196.831C701.24,-197.187 760.253,-197.12 812,-195 909.987,-190.985 934.356,-187.121 1032,-178 1037.71,-177.466 1043.67,-176.873 1049.62,-176.258"/>
<polygon fill="#9a32cd" stroke="#9a32cd" points="659.128,-193.331 649.096,-196.735 659.062,-200.331 659.128,-193.331"/>
<text text-anchor="middle" x="887.5" y="-198" font-family="Helvetica,sans-Serif" font-size="10.00"> w_pool</text>
</g>
<!-- Node31&#45;&gt;Node32 -->
<g id="edge54" class="edge"><title>Node31&#45;&gt;Node32</title>
<path fill="none" stroke="#9a32cd" stroke-dasharray="5,2" d="M659.165,-186.689C709.108,-178.409 781.708,-166.373 831.344,-158.144"/>
<polygon fill="#9a32cd" stroke="#9a32cd" points="658.473,-183.256 649.18,-188.344 659.618,-190.161 658.473,-183.256"/>
<text text-anchor="middle" x="752.5" y="-184" font-family="Helvetica,sans-Serif" font-size="10.00"> w_pool</text>
</g>
<!-- Node32&#45;&gt;Node27 -->
<g id="edge51" class="edge"><title>Node32&#45;&gt;Node27</title>
<path fill="none" stroke="orange" stroke-dasharray="5,2" d="M953.862,-155.34C984.523,-158.314 1020.66,-161.819 1049.91,-164.656"/>
<polygon fill="orange" stroke="orange" points="953.983,-151.835 943.692,-154.354 953.308,-158.803 953.983,-151.835"/>
<text text-anchor="middle" x="997.5" y="-166" font-family="Helvetica,sans-Serif" font-size="10.00"> &lt; block_type &gt;</text>
</g>
</g>
</svg>
