<?xml version="1.0" encoding="UTF-8" standalone="no"?>
<!DOCTYPE svg PUBLIC "-//W3C//DTD SVG 1.1//EN"
 "http://www.w3.org/Graphics/SVG/1.1/DTD/svg11.dtd">
<!-- Generated by graphviz version 2.38.0 (20140413.2041)
 -->
<!-- Title: stxxl::vector_bufwriter&lt; VectorIteratorType &gt; Pages: 1 -->
<svg width="1006pt" height="251pt"
 viewBox="0.00 0.00 1006.00 250.50" xmlns="http://www.w3.org/2000/svg" xmlns:xlink="http://www.w3.org/1999/xlink">
<g id="graph0" class="graph" transform="scale(1 1) rotate(0) translate(4 246.5)">
<title>stxxl::vector_bufwriter&lt; VectorIteratorType &gt;</title>
<!-- Node1 -->
<g id="node1" class="node"><title>Node1</title>
<polygon fill="#bfbfbf" stroke="black" points="882,-188.5 882,-218.5 998,-218.5 998,-188.5 882,-188.5"/>
<text text-anchor="start" x="890" y="-206.5" font-family="Helvetica,sans-Serif" font-size="10.00">stxxl::vector_bufwriter</text>
<text text-anchor="middle" x="940" y="-195.5" font-family="Helvetica,sans-Serif" font-size="10.00">&lt; VectorIteratorType &gt;</text>
</g>
<!-- Node2 -->
<g id="node2" class="node"><title>Node2</title>
<g id="a_node2"><a xlink:href="classstxxl_1_1noncopyable.html" target="_top" xlink:title="stxxl::noncopyable">
<polygon fill="none" stroke="black" points="0,-111 0,-130 98,-130 98,-111 0,-111"/>
<text text-anchor="middle" x="49" y="-118" font-family="Helvetica,sans-Serif" font-size="10.00">stxxl::noncopyable</text>
</a>
</g>
</g>
<!-- Node2&#45;&gt;Node1 -->
<g id="edge1" class="edge"><title>Node2&#45;&gt;Node1</title>
<path fill="none" stroke="midnightblue" d="M64.1932,-137.753C93.5786,-171.396 164.815,-242.5 242,-242.5 242,-242.5 242,-242.5 726,-242.5 781.451,-242.5 843.714,-229.553 886.531,-218.578"/>
<polygon fill="midnightblue" stroke="midnightblue" points="66.797,-135.412 57.6459,-130.073 61.47,-139.954 66.797,-135.412"/>
</g>
<!-- Node5 -->
<g id="node5" class="node"><title>Node5</title>
<g id="a_node5"><a xlink:href="classstxxl_1_1buf__ostream.html" target="_top" xlink:title="Buffered output stream. ">
<polygon fill="none" stroke="black" points="648,-132.5 648,-162.5 802,-162.5 802,-132.5 648,-132.5"/>
<text text-anchor="start" x="656" y="-150.5" font-family="Helvetica,sans-Serif" font-size="10.00">stxxl::buf_ostream</text>
<text text-anchor="middle" x="725" y="-139.5" font-family="Helvetica,sans-Serif" font-size="10.00">&lt; BlockType, BidIteratorType &gt;</text>
</a>
</g>
</g>
<!-- Node2&#45;&gt;Node5 -->
<g id="edge5" class="edge"><title>Node2&#45;&gt;Node5</title>
<path fill="none" stroke="#8b1a1a" d="M108.334,-125.981C110.924,-126.168 113.488,-126.343 116,-126.5 307.059,-138.475 532.351,-144.02 647.628,-146.237"/>
<polygon fill="#8b1a1a" stroke="#8b1a1a" points="108.517,-122.485 98.2771,-125.204 107.978,-129.464 108.517,-122.485"/>
</g>
<!-- Node6 -->
<g id="node6" class="node"><title>Node6</title>
<g id="a_node6"><a xlink:href="classstxxl_1_1buffered__writer.html" target="_top" xlink:title="stxxl::buffered_writer\l\&lt; block_type \&gt;">
<polygon fill="none" stroke="black" points="438,-65.5 438,-95.5 546,-95.5 546,-65.5 438,-65.5"/>
<text text-anchor="start" x="446" y="-83.5" font-family="Helvetica,sans-Serif" font-size="10.00">stxxl::buffered_writer</text>
<text text-anchor="middle" x="492" y="-72.5" font-family="Helvetica,sans-Serif" font-size="10.00">&lt; block_type &gt;</text>
</a>
</g>
</g>
<!-- Node2&#45;&gt;Node6 -->
<g id="edge8" class="edge"><title>Node2&#45;&gt;Node6</title>
<path fill="none" stroke="#8b1a1a" d="M108.493,-115.202C180.406,-108.686 306.186,-97.2878 414,-87.5 421.754,-86.7961 429.946,-86.0518 437.981,-85.3216"/>
<polygon fill="#8b1a1a" stroke="#8b1a1a" points="107.925,-111.739 98.2818,-116.127 108.557,-118.71 107.925,-111.739"/>
</g>
<!-- Node8 -->
<g id="node8" class="node"><title>Node8</title>
<g id="a_node8"><a xlink:href="classstxxl_1_1buffered__writer.html" target="_top" xlink:title="Encapsulates asynchronous buffered block writing engine. ">
<polygon fill="none" stroke="black" points="189,-0.5 189,-30.5 297,-30.5 297,-0.5 189,-0.5"/>
<text text-anchor="start" x="197" y="-18.5" font-family="Helvetica,sans-Serif" font-size="10.00">stxxl::buffered_writer</text>
<text text-anchor="middle" x="243" y="-7.5" font-family="Helvetica,sans-Serif" font-size="10.00">&lt; BlockType &gt;</text>
</a>
</g>
</g>
<!-- Node2&#45;&gt;Node8 -->
<g id="edge11" class="edge"><title>Node2&#45;&gt;Node8</title>
<path fill="none" stroke="#8b1a1a" d="M75.3611,-105.769C101.991,-90.4023 145.169,-65.7724 183,-45.5 192.318,-40.5066 202.559,-35.2277 211.856,-30.5134"/>
<polygon fill="#8b1a1a" stroke="#8b1a1a" points="73.573,-102.76 66.6681,-110.795 77.0771,-108.82 73.573,-102.76"/>
</g>
<!-- Node3 -->
<g id="node3" class="node"><title>Node3</title>
<g id="a_node3"><a xlink:href="structstxxl_1_1choose__int__types.html" target="_top" xlink:title="stxxl::choose_int_types\l\&lt; my_pointer_size \&gt;">
<polygon fill="none" stroke="black" points="432,-178.5 432,-208.5 552,-208.5 552,-178.5 432,-178.5"/>
<text text-anchor="start" x="440" y="-196.5" font-family="Helvetica,sans-Serif" font-size="10.00">stxxl::choose_int_types</text>
<text text-anchor="middle" x="492" y="-185.5" font-family="Helvetica,sans-Serif" font-size="10.00">&lt; my_pointer_size &gt;</text>
</a>
</g>
</g>
<!-- Node3&#45;&gt;Node1 -->
<g id="edge2" class="edge"><title>Node3&#45;&gt;Node1</title>
<path fill="none" stroke="#9a32cd" stroke-dasharray="5,2" d="M562.36,-195.055C650.204,-197.025 799.939,-200.382 881.651,-202.214"/>
<polygon fill="#9a32cd" stroke="#9a32cd" points="562.301,-191.553 552.225,-194.828 562.144,-198.551 562.301,-191.553"/>
<text text-anchor="middle" x="725" y="-202.5" font-family="Helvetica,sans-Serif" font-size="10.00"> m_nbuffers</text>
</g>
<!-- Node3&#45;&gt;Node5 -->
<g id="edge6" class="edge"><title>Node3&#45;&gt;Node5</title>
<path fill="none" stroke="#9a32cd" stroke-dasharray="5,2" d="M562.009,-179.758C589.212,-174.341 620.545,-168.102 648.361,-162.562"/>
<polygon fill="#9a32cd" stroke="#9a32cd" points="561.312,-176.328 552.188,-181.714 562.679,-183.193 561.312,-176.328"/>
<text text-anchor="middle" x="600" y="-179.5" font-family="Helvetica,sans-Serif" font-size="10.00"> current_elem</text>
</g>
<!-- Node4 -->
<g id="node4" class="node"><title>Node4</title>
<g id="a_node4"><a xlink:href="structstxxl_1_1choose__int__types.html" target="_top" xlink:title="stxxl::choose_int_types\l\&lt; PtrSize \&gt;">
<polygon fill="none" stroke="black" points="183,-178.5 183,-208.5 303,-208.5 303,-178.5 183,-178.5"/>
<text text-anchor="start" x="191" y="-196.5" font-family="Helvetica,sans-Serif" font-size="10.00">stxxl::choose_int_types</text>
<text text-anchor="middle" x="243" y="-185.5" font-family="Helvetica,sans-Serif" font-size="10.00">&lt; PtrSize &gt;</text>
</a>
</g>
</g>
<!-- Node4&#45;&gt;Node3 -->
<g id="edge3" class="edge"><title>Node4&#45;&gt;Node3</title>
<path fill="none" stroke="orange" stroke-dasharray="5,2" d="M313.455,-193.5C350.772,-193.5 396.289,-193.5 431.893,-193.5"/>
<polygon fill="orange" stroke="orange" points="313.163,-190 303.163,-193.5 313.163,-197 313.163,-190"/>
<text text-anchor="middle" x="367.5" y="-196.5" font-family="Helvetica,sans-Serif" font-size="10.00"> &lt; my_pointer_size &gt;</text>
</g>
<!-- Node5&#45;&gt;Node1 -->
<g id="edge4" class="edge"><title>Node5&#45;&gt;Node1</title>
<path fill="none" stroke="#9a32cd" stroke-dasharray="5,2" d="M809.346,-164.799C827.45,-168.953 846.435,-173.613 864,-178.5 874.578,-181.443 885.869,-184.988 896.395,-188.472"/>
<polygon fill="#9a32cd" stroke="#9a32cd" points="809.92,-161.341 799.394,-162.546 808.374,-168.168 809.92,-161.341"/>
<text text-anchor="middle" x="842" y="-181.5" font-family="Helvetica,sans-Serif" font-size="10.00"> m_bufout</text>
</g>
<!-- Node6&#45;&gt;Node5 -->
<g id="edge7" class="edge"><title>Node6&#45;&gt;Node5</title>
<path fill="none" stroke="#9a32cd" stroke-dasharray="5,2" d="M555.835,-98.2141C579.146,-104.831 605.797,-112.451 630,-119.5 644.223,-123.643 659.636,-128.203 673.786,-132.42"/>
<polygon fill="#9a32cd" stroke="#9a32cd" points="556.641,-94.8048 546.066,-95.444 554.732,-101.539 556.641,-94.8048"/>
<text text-anchor="middle" x="600" y="-122.5" font-family="Helvetica,sans-Serif" font-size="10.00"> writer</text>
</g>
<!-- Node7 -->
<g id="node7" class="node"><title>Node7</title>
<g id="a_node7"><a xlink:href="classstxxl_1_1counting__ptr.html" target="_top" xlink:title="High&#45;performance smart pointer used as a wrapping reference counting pointer. ">
<polygon fill="none" stroke="black" points="0.5,-38.5 0.5,-68.5 97.5,-68.5 97.5,-38.5 0.5,-38.5"/>
<text text-anchor="start" x="8.5" y="-56.5" font-family="Helvetica,sans-Serif" font-size="10.00">stxxl::counting_ptr</text>
<text text-anchor="middle" x="49" y="-45.5" font-family="Helvetica,sans-Serif" font-size="10.00">&lt; Type &gt;</text>
</a>
</g>
</g>
<!-- Node7&#45;&gt;Node6 -->
<g id="edge9" class="edge"><title>Node7&#45;&gt;Node6</title>
<path fill="none" stroke="#9a32cd" stroke-dasharray="5,2" d="M107.726,-57.0343C193.767,-62.3021 354.435,-72.1389 437.781,-77.2417"/>
<polygon fill="#9a32cd" stroke="#9a32cd" points="107.809,-53.5329 97.6137,-56.4151 107.381,-60.5198 107.809,-53.5329"/>
<text text-anchor="middle" x="243" y="-72.5" font-family="Helvetica,sans-Serif" font-size="10.00"> write_reqs</text>
</g>
<!-- Node7&#45;&gt;Node8 -->
<g id="edge12" class="edge"><title>Node7&#45;&gt;Node8</title>
<path fill="none" stroke="#9a32cd" stroke-dasharray="5,2" d="M80.1098,-33.095C90.9479,-26.8521 103.576,-20.7733 116,-17.5 139.377,-11.341 166.049,-10.1263 188.815,-10.7351"/>
<polygon fill="#9a32cd" stroke="#9a32cd" points="78.2163,-30.1497 71.4706,-38.3195 81.8387,-36.1396 78.2163,-30.1497"/>
<text text-anchor="middle" x="140.5" y="-20.5" font-family="Helvetica,sans-Serif" font-size="10.00"> write_reqs</text>
</g>
<!-- Node8&#45;&gt;Node6 -->
<g id="edge10" class="edge"><title>Node8&#45;&gt;Node6</title>
<path fill="none" stroke="orange" stroke-dasharray="5,2" d="M307.287,-20.9703C339.735,-24.9171 379.566,-31.5468 414,-42.5 431.899,-48.1937 450.832,-57.4881 465.445,-65.4595"/>
<polygon fill="orange" stroke="orange" points="307.364,-17.4559 297.028,-19.781 306.558,-24.4093 307.364,-17.4559"/>
<text text-anchor="middle" x="367.5" y="-45.5" font-family="Helvetica,sans-Serif" font-size="10.00"> &lt; block_type &gt;</text>
</g>
</g>
</svg>
