<?xml version="1.0" encoding="UTF-8" standalone="no"?>
<!DOCTYPE svg PUBLIC "-//W3C//DTD SVG 1.1//EN"
 "http://www.w3.org/Graphics/SVG/1.1/DTD/svg11.dtd">
<!-- Generated by graphviz version 2.38.0 (20140413.2041)
 -->
<!-- Title: stxxl::atomic_counted_object Pages: 1 -->
<svg width="343pt" height="307pt"
 viewBox="0.00 0.00 342.50 307.00" xmlns="http://www.w3.org/2000/svg" xmlns:xlink="http://www.w3.org/1999/xlink">
<g id="graph0" class="graph" transform="scale(1 1) rotate(0) translate(4 303)">
<title>stxxl::atomic_counted_object</title>
<!-- Node1 -->
<g id="node1" class="node"><title>Node1</title>
<polygon fill="#bfbfbf" stroke="black" points="133.5,-268.5 133.5,-298.5 246.5,-298.5 246.5,-268.5 133.5,-268.5"/>
<text text-anchor="start" x="141.5" y="-286.5" font-family="Helvetica,sans-Serif" font-size="10.00">stxxl::atomic_counted</text>
<text text-anchor="middle" x="190" y="-275.5" font-family="Helvetica,sans-Serif" font-size="10.00">_object</text>
</g>
<!-- Node2 -->
<g id="node2" class="node"><title>Node2</title>
<g id="a_node2"><a xlink:href="classstxxl_1_1request.html" target="_top" xlink:title="Request object encapsulating basic properties like file and offset. ">
<polygon fill="none" stroke="black" points="85,-201.5 85,-220.5 161,-220.5 161,-201.5 85,-201.5"/>
<text text-anchor="middle" x="123" y="-208.5" font-family="Helvetica,sans-Serif" font-size="10.00">stxxl::request</text>
</a>
</g>
</g>
<!-- Node1&#45;&gt;Node2 -->
<g id="edge1" class="edge"><title>Node1&#45;&gt;Node2</title>
<path fill="none" stroke="midnightblue" d="M169.341,-260.762C156.589,-247.344 140.913,-230.849 131.452,-220.893"/>
<polygon fill="midnightblue" stroke="midnightblue" points="167.016,-263.396 176.442,-268.233 172.09,-258.573 167.016,-263.396"/>
</g>
<!-- Node7 -->
<g id="node7" class="node"><title>Node7</title>
<g id="a_node7"><a xlink:href="classstxxl_1_1swappable__block__matrix.html" target="_top" xlink:title="External container for a (sub)matrix. Not intended for direct use. ">
<polygon fill="none" stroke="black" points="179.5,-190.5 179.5,-231.5 334.5,-231.5 334.5,-190.5 179.5,-190.5"/>
<text text-anchor="start" x="187.5" y="-219.5" font-family="Helvetica,sans-Serif" font-size="10.00">stxxl::swappable_block</text>
<text text-anchor="start" x="187.5" y="-208.5" font-family="Helvetica,sans-Serif" font-size="10.00">_matrix&lt; ValueType, BlockSide</text>
<text text-anchor="middle" x="257" y="-197.5" font-family="Helvetica,sans-Serif" font-size="10.00">Length &gt;</text>
</a>
</g>
</g>
<!-- Node1&#45;&gt;Node7 -->
<g id="edge6" class="edge"><title>Node1&#45;&gt;Node7</title>
<path fill="none" stroke="midnightblue" d="M210.602,-260.821C219.467,-251.494 229.753,-240.671 238.384,-231.588"/>
<polygon fill="midnightblue" stroke="midnightblue" points="207.91,-258.573 203.558,-268.233 212.984,-263.396 207.91,-258.573"/>
</g>
<!-- Node3 -->
<g id="node3" class="node"><title>Node3</title>
<g id="a_node3"><a xlink:href="classstxxl_1_1request__with__waiters.html" target="_top" xlink:title="Request that is aware of threads waiting for it to complete. ">
<polygon fill="none" stroke="black" points="73.5,-123.5 73.5,-153.5 172.5,-153.5 172.5,-123.5 73.5,-123.5"/>
<text text-anchor="start" x="81.5" y="-141.5" font-family="Helvetica,sans-Serif" font-size="10.00">stxxl::request_with</text>
<text text-anchor="middle" x="123" y="-130.5" font-family="Helvetica,sans-Serif" font-size="10.00">_waiters</text>
</a>
</g>
</g>
<!-- Node2&#45;&gt;Node3 -->
<g id="edge2" class="edge"><title>Node2&#45;&gt;Node3</title>
<path fill="none" stroke="midnightblue" d="M123,-191.236C123,-179.408 123,-164.383 123,-153.576"/>
<polygon fill="midnightblue" stroke="midnightblue" points="119.5,-191.355 123,-201.355 126.5,-191.355 119.5,-191.355"/>
</g>
<!-- Node4 -->
<g id="node4" class="node"><title>Node4</title>
<g id="a_node4"><a xlink:href="classstxxl_1_1request__with__state.html" target="_top" xlink:title="Request with completion state. ">
<polygon fill="none" stroke="black" points="73.5,-56.5 73.5,-86.5 172.5,-86.5 172.5,-56.5 73.5,-56.5"/>
<text text-anchor="start" x="81.5" y="-74.5" font-family="Helvetica,sans-Serif" font-size="10.00">stxxl::request_with</text>
<text text-anchor="middle" x="123" y="-63.5" font-family="Helvetica,sans-Serif" font-size="10.00">_state</text>
</a>
</g>
</g>
<!-- Node3&#45;&gt;Node4 -->
<g id="edge3" class="edge"><title>Node3&#45;&gt;Node4</title>
<path fill="none" stroke="midnightblue" d="M123,-113.108C123,-104.154 123,-94.3227 123,-86.5765"/>
<polygon fill="midnightblue" stroke="midnightblue" points="119.5,-113.396 123,-123.396 126.5,-113.396 119.5,-113.396"/>
</g>
<!-- Node5 -->
<g id="node5" class="node"><title>Node5</title>
<g id="a_node5"><a xlink:href="classstxxl_1_1linuxaio__request.html" target="_top" xlink:title="Request for an linuxaio_file. ">
<polygon fill="none" stroke="black" points="0,-0.5 0,-19.5 114,-19.5 114,-0.5 0,-0.5"/>
<text text-anchor="middle" x="57" y="-7.5" font-family="Helvetica,sans-Serif" font-size="10.00">stxxl::linuxaio_request</text>
</a>
</g>
</g>
<!-- Node4&#45;&gt;Node5 -->
<g id="edge4" class="edge"><title>Node4&#45;&gt;Node5</title>
<path fill="none" stroke="midnightblue" d="M99.8137,-49.5972C88.4086,-39.3153 75.283,-27.4824 66.6036,-19.6578"/>
<polygon fill="midnightblue" stroke="midnightblue" points="97.588,-52.303 107.359,-56.3993 102.275,-47.1039 97.588,-52.303"/>
</g>
<!-- Node6 -->
<g id="node6" class="node"><title>Node6</title>
<g id="a_node6"><a xlink:href="classstxxl_1_1serving__request.html" target="_top" xlink:title="Request which serves an I/O by calling the synchronous routine of the file. ">
<polygon fill="none" stroke="black" points="132.5,-0.5 132.5,-19.5 245.5,-19.5 245.5,-0.5 132.5,-0.5"/>
<text text-anchor="middle" x="189" y="-7.5" font-family="Helvetica,sans-Serif" font-size="10.00">stxxl::serving_request</text>
</a>
</g>
</g>
<!-- Node4&#45;&gt;Node6 -->
<g id="edge5" class="edge"><title>Node4&#45;&gt;Node6</title>
<path fill="none" stroke="midnightblue" d="M146.186,-49.5972C157.591,-39.3153 170.717,-27.4824 179.396,-19.6578"/>
<polygon fill="midnightblue" stroke="midnightblue" points="143.725,-47.1039 138.641,-56.3993 148.412,-52.303 143.725,-47.1039"/>
</g>
</g>
</svg>
