<?xml version="1.0" encoding="UTF-8" standalone="no"?>
<!DOCTYPE svg PUBLIC "-//W3C//DTD SVG 1.1//EN"
 "http://www.w3.org/Graphics/SVG/1.1/DTD/svg11.dtd">
<!-- Generated by graphviz version 2.26.3 (20100126.1600)
 -->
<!-- Title: stxxl::mng_local::element_block&lt; Type, Size &gt; Pages: 1 -->
<svg width="1742pt" height="337pt"
 viewBox="0.00 0.00 1742.00 337.00" xmlns="http://www.w3.org/2000/svg" xmlns:xlink="http://www.w3.org/1999/xlink">
<g id="graph1" class="graph" transform="scale(1 1) rotate(0) translate(4 333)">
<title>stxxl::mng_local::element_block&lt; Type, Size &gt;</title>
<!-- Node1 -->
<g id="node1" class="node"><title>Node1</title>
<polygon fill="#bfbfbf" stroke="black" points="0,-85 0,-119 128,-119 128,-85 0,-85"/>
<text text-anchor="start" x="8" y="-106" font-family="Helvetica,sans-Serif" font-size="10.00">stxxl::mng_local::element</text>
<text text-anchor="middle" x="64" y="-93" font-family="Helvetica,sans-Serif" font-size="10.00">_block&lt; Type, Size &gt;</text>
</g>
<!-- Node2 -->
<g id="node3" class="node"><title>Node2</title>
<a xlink:href="classstxxl_1_1mng__local_1_1block__w__bids.html" target="_top" xlink:title="block_w_bids\&lt; Type,\l((RawSize&#45;sizeof(BID\l\&lt; RawSize \&gt;)*NBids)/sizeof\l(Type)), RawSize, NBids \&gt;">
<polygon fill="none" stroke="black" points="360,-269 360,-329 500,-329 500,-269 360,-269"/>
<text text-anchor="start" x="368" y="-316" font-family="Helvetica,sans-Serif" font-size="10.00">block_w_bids&lt; Type,</text>
<text text-anchor="start" x="368" y="-303" font-family="Helvetica,sans-Serif" font-size="10.00">((RawSize&#45;sizeof(BID</text>
<text text-anchor="start" x="368" y="-290" font-family="Helvetica,sans-Serif" font-size="10.00">&lt; RawSize &gt;)*NBids)/sizeof</text>
<text text-anchor="middle" x="430" y="-277" font-family="Helvetica,sans-Serif" font-size="10.00">(Type)), RawSize, NBids &gt;</text>
</a>
</g>
<!-- Node1&#45;&gt;Node2 -->
<g id="edge2" class="edge"><title>Node1&#45;&gt;Node2</title>
<path fill="none" stroke="midnightblue" d="M103.43,-124.187C159.926,-155.839 267.324,-215.492 360,-264 363.13,-265.638 366.346,-267.305 369.599,-268.977"/>
<polygon fill="midnightblue" stroke="midnightblue" points="104.913,-121.006 94.4789,-119.168 101.489,-127.112 104.913,-121.006"/>
</g>
<!-- Node4 -->
<g id="node7" class="node"><title>Node4</title>
<a xlink:href="classstxxl_1_1mng__local_1_1block__w__bids.html" target="_top" xlink:title="block_w_bids\&lt; Type,\l((RawSize&#45;sizeof(BID\l\&lt; RawSize \&gt;)*NBids&#45;sizeof\l(MetaInfoType))/sizeof(Type)\l), RawSize, NBids \&gt;">
<polygon fill="none" stroke="black" points="528.5,-0.5 528.5,-73.5 671.5,-73.5 671.5,-0.5 528.5,-0.5"/>
<text text-anchor="start" x="536.5" y="-60.5" font-family="Helvetica,sans-Serif" font-size="10.00">block_w_bids&lt; Type,</text>
<text text-anchor="start" x="536.5" y="-47.5" font-family="Helvetica,sans-Serif" font-size="10.00">((RawSize&#45;sizeof(BID</text>
<text text-anchor="start" x="536.5" y="-34.5" font-family="Helvetica,sans-Serif" font-size="10.00">&lt; RawSize &gt;)*NBids&#45;sizeof</text>
<text text-anchor="start" x="536.5" y="-21.5" font-family="Helvetica,sans-Serif" font-size="10.00">(MetaInfoType))/sizeof(Type)</text>
<text text-anchor="middle" x="600" y="-8.5" font-family="Helvetica,sans-Serif" font-size="10.00">), RawSize, NBids &gt;</text>
</a>
</g>
<!-- Node1&#45;&gt;Node4 -->
<g id="edge6" class="edge"><title>Node1&#45;&gt;Node4</title>
<path fill="none" stroke="midnightblue" d="M138.132,-93.0101C241.139,-80.5186 426.34,-58.0596 528.128,-45.7158"/>
<polygon fill="midnightblue" stroke="midnightblue" points="137.628,-89.5455 128.122,-94.224 138.47,-96.4946 137.628,-89.5455"/>
</g>
<!-- Node10 -->
<g id="node20" class="node"><title>Node10</title>
<a xlink:href="classstxxl_1_1mng__local_1_1block__w__bids.html" target="_top" xlink:title="Contains BID references for stxxl::typed_block , not intended for direct use. ">
<polygon fill="none" stroke="black" points="195,-113 195,-147 313,-147 313,-113 195,-113"/>
<text text-anchor="start" x="203" y="-134" font-family="Helvetica,sans-Serif" font-size="10.00">stxxl::mng_local::block</text>
<text text-anchor="middle" x="254" y="-121" font-family="Helvetica,sans-Serif" font-size="10.00">_w_bids&lt; Type, Size &gt;</text>
</a>
</g>
<!-- Node1&#45;&gt;Node10 -->
<g id="edge20" class="edge"><title>Node1&#45;&gt;Node10</title>
<path fill="none" stroke="midnightblue" d="M138.056,-112.913C156.834,-115.681 176.761,-118.617 194.701,-121.261"/>
<polygon fill="midnightblue" stroke="midnightblue" points="138.464,-109.436 128.06,-111.44 137.443,-116.361 138.464,-109.436"/>
</g>
<!-- Node13 -->
<g id="node29" class="node"><title>Node13</title>
<a xlink:href="classstxxl_1_1mng__local_1_1block__w__bids_3_01Type_00_01Size_00_01RawSize_00_010_01_4.html" target="_top" xlink:title="stxxl::mng_local::block\l_w_bids\&lt; Type, Size, RawSize, 0 \&gt;">
<polygon fill="none" stroke="black" points="166.5,-23 166.5,-57 341.5,-57 341.5,-23 166.5,-23"/>
<text text-anchor="start" x="174.5" y="-44" font-family="Helvetica,sans-Serif" font-size="10.00">stxxl::mng_local::block</text>
<text text-anchor="middle" x="254" y="-31" font-family="Helvetica,sans-Serif" font-size="10.00">_w_bids&lt; Type, Size, RawSize, 0 &gt;</text>
</a>
</g>
<!-- Node1&#45;&gt;Node13 -->
<g id="edge32" class="edge"><title>Node1&#45;&gt;Node13</title>
<path fill="none" stroke="midnightblue" d="M116.705,-81.3482C126.399,-77.7576 136.467,-74.1644 146,-71 160.626,-66.1453 176.51,-61.3347 191.482,-57.0033"/>
<polygon fill="midnightblue" stroke="midnightblue" points="115.306,-78.1349 107.17,-84.922 117.763,-84.6896 115.306,-78.1349"/>
</g>
<!-- Node3 -->
<g id="node5" class="node"><title>Node3</title>
<a xlink:href="classstxxl_1_1mng__local_1_1block__w__info_3_01Type_00_01RawSize_00_01NBids_00_01void_01_4.html" target="_top" xlink:title="stxxl::mng_local::block\l_w_info\&lt; Type, RawSize,\l NBids, void \&gt;">
<polygon fill="none" stroke="black" points="720,-245.5 720,-292.5 850,-292.5 850,-245.5 720,-245.5"/>
<text text-anchor="start" x="728" y="-279.5" font-family="Helvetica,sans-Serif" font-size="10.00">stxxl::mng_local::block</text>
<text text-anchor="start" x="728" y="-266.5" font-family="Helvetica,sans-Serif" font-size="10.00">_w_info&lt; Type, RawSize,</text>
<text text-anchor="middle" x="785" y="-253.5" font-family="Helvetica,sans-Serif" font-size="10.00"> NBids, void &gt;</text>
</a>
</g>
<!-- Node2&#45;&gt;Node3 -->
<g id="edge4" class="edge"><title>Node2&#45;&gt;Node3</title>
<path fill="none" stroke="midnightblue" d="M510.477,-292.199C573.769,-286.851 660.818,-279.494 719.797,-274.51"/>
<polygon fill="midnightblue" stroke="midnightblue" points="509.806,-288.743 500.137,-293.073 510.396,-295.718 509.806,-288.743"/>
</g>
<!-- Node5 -->
<g id="node9" class="node"><title>Node5</title>
<a xlink:href="classstxxl_1_1mng__local_1_1block__w__info.html" target="_top" xlink:title="stxxl::mng_local::block\l_w_info\&lt; Type, RawSize,\l NRef, MetaInfoType \&gt;">
<polygon fill="none" stroke="black" points="998,-59.5 998,-106.5 1128,-106.5 1128,-59.5 998,-59.5"/>
<text text-anchor="start" x="1006" y="-93.5" font-family="Helvetica,sans-Serif" font-size="10.00">stxxl::mng_local::block</text>
<text text-anchor="start" x="1006" y="-80.5" font-family="Helvetica,sans-Serif" font-size="10.00">_w_info&lt; Type, RawSize,</text>
<text text-anchor="middle" x="1063" y="-67.5" font-family="Helvetica,sans-Serif" font-size="10.00"> NRef, MetaInfoType &gt;</text>
</a>
</g>
<!-- Node4&#45;&gt;Node5 -->
<g id="edge8" class="edge"><title>Node4&#45;&gt;Node5</title>
<path fill="none" stroke="midnightblue" d="M681.751,-39.1522C730.662,-40.9619 793.999,-44.221 850,-50 899.878,-55.1472 955.9,-63.9475 997.967,-71.1663"/>
<polygon fill="midnightblue" stroke="midnightblue" points="681.66,-35.6468 671.541,-38.7876 681.41,-42.6423 681.66,-35.6468"/>
</g>
<!-- Node9 -->
<g id="node17" class="node"><title>Node9</title>
<a xlink:href="classstxxl_1_1mng__local_1_1block__w__info.html" target="_top" xlink:title="Contains per block information for stxxl::typed_block , not intended for direct use. ">
<polygon fill="none" stroke="black" points="720,-59.5 720,-106.5 850,-106.5 850,-59.5 720,-59.5"/>
<text text-anchor="start" x="728" y="-93.5" font-family="Helvetica,sans-Serif" font-size="10.00">stxxl::mng_local::block</text>
<text text-anchor="start" x="728" y="-80.5" font-family="Helvetica,sans-Serif" font-size="10.00">_w_info&lt; Type, RawSize,</text>
<text text-anchor="middle" x="785" y="-67.5" font-family="Helvetica,sans-Serif" font-size="10.00"> NBids, MetaInfoType &gt;</text>
</a>
</g>
<!-- Node4&#45;&gt;Node9 -->
<g id="edge16" class="edge"><title>Node4&#45;&gt;Node9</title>
<path fill="none" stroke="midnightblue" d="M681.282,-57.2107C694.137,-60.4072 707.286,-63.6765 719.715,-66.767"/>
<polygon fill="midnightblue" stroke="midnightblue" points="682.075,-53.8013 671.526,-54.7848 680.386,-60.5945 682.075,-53.8013"/>
</g>
<!-- Node6 -->
<g id="node11" class="node"><title>Node6</title>
<a xlink:href="classstxxl_1_1mng__local_1_1add__filler.html" target="_top" xlink:title="stxxl::mng_local::add\l_filler\&lt; mng_local::block\l_w_info\&lt; Type, RawSize,\l NRef, MetaInfoType \&gt;, RawSize\l&#45;sizeof(mng_local::block_w_info\l\&lt; Type, RawSize, NRef, MetaInfoType \&gt;)\&gt;">
<polygon fill="none" stroke="black" points="1166,-40 1166,-126 1372,-126 1372,-40 1166,-40"/>
<text text-anchor="start" x="1174" y="-113" font-family="Helvetica,sans-Serif" font-size="10.00">stxxl::mng_local::add</text>
<text text-anchor="start" x="1174" y="-100" font-family="Helvetica,sans-Serif" font-size="10.00">_filler&lt; mng_local::block</text>
<text text-anchor="start" x="1174" y="-87" font-family="Helvetica,sans-Serif" font-size="10.00">_w_info&lt; Type, RawSize,</text>
<text text-anchor="start" x="1174" y="-74" font-family="Helvetica,sans-Serif" font-size="10.00"> NRef, MetaInfoType &gt;, RawSize</text>
<text text-anchor="start" x="1174" y="-61" font-family="Helvetica,sans-Serif" font-size="10.00">&#45;sizeof(mng_local::block_w_info</text>
<text text-anchor="middle" x="1269" y="-48" font-family="Helvetica,sans-Serif" font-size="10.00">&lt; Type, RawSize, NRef, MetaInfoType &gt;)&gt;</text>
</a>
</g>
<!-- Node5&#45;&gt;Node6 -->
<g id="edge10" class="edge"><title>Node5&#45;&gt;Node6</title>
<path fill="none" stroke="midnightblue" d="M1138.21,-83C1147.21,-83 1156.53,-83 1165.85,-83"/>
<polygon fill="midnightblue" stroke="midnightblue" points="1138.18,-79.5001 1128.18,-83 1138.18,-86.5001 1138.18,-79.5001"/>
</g>
<!-- Node7 -->
<g id="node13" class="node"><title>Node7</title>
<a xlink:href="classstxxl_1_1mng__local_1_1expand__struct.html" target="_top" xlink:title="stxxl::mng_local::expand\l_struct\&lt; mng_local::block\l_w_info\&lt; Type, RawSize, NRef,\l MetaInfoType \&gt;, RawSize \&gt;">
<polygon fill="none" stroke="black" points="1410.5,-53 1410.5,-113 1569.5,-113 1569.5,-53 1410.5,-53"/>
<text text-anchor="start" x="1418.5" y="-100" font-family="Helvetica,sans-Serif" font-size="10.00">stxxl::mng_local::expand</text>
<text text-anchor="start" x="1418.5" y="-87" font-family="Helvetica,sans-Serif" font-size="10.00">_struct&lt; mng_local::block</text>
<text text-anchor="start" x="1418.5" y="-74" font-family="Helvetica,sans-Serif" font-size="10.00">_w_info&lt; Type, RawSize, NRef,</text>
<text text-anchor="middle" x="1490" y="-61" font-family="Helvetica,sans-Serif" font-size="10.00"> MetaInfoType &gt;, RawSize &gt;</text>
</a>
</g>
<!-- Node6&#45;&gt;Node7 -->
<g id="edge12" class="edge"><title>Node6&#45;&gt;Node7</title>
<path fill="none" stroke="midnightblue" d="M1382.3,-83C1391.73,-83 1401.14,-83 1410.25,-83"/>
<polygon fill="midnightblue" stroke="midnightblue" points="1382.06,-79.5001 1372.06,-83 1382.06,-86.5001 1382.06,-79.5001"/>
</g>
<!-- Node8 -->
<g id="node15" class="node"><title>Node8</title>
<a xlink:href="classstxxl_1_1typed__block.html" target="_top" xlink:title="Block containing elements of fixed length. ">
<polygon fill="none" stroke="black" points="1608.5,-59.5 1608.5,-106.5 1733.5,-106.5 1733.5,-59.5 1608.5,-59.5"/>
<text text-anchor="start" x="1616.5" y="-93.5" font-family="Helvetica,sans-Serif" font-size="10.00">stxxl::typed_block</text>
<text text-anchor="start" x="1616.5" y="-80.5" font-family="Helvetica,sans-Serif" font-size="10.00">&lt; RawSize, Type, NRef,</text>
<text text-anchor="middle" x="1671" y="-67.5" font-family="Helvetica,sans-Serif" font-size="10.00"> MetaInfoType &gt;</text>
</a>
</g>
<!-- Node7&#45;&gt;Node8 -->
<g id="edge14" class="edge"><title>Node7&#45;&gt;Node8</title>
<path fill="none" stroke="midnightblue" d="M1579.74,-83C1589.45,-83 1599.17,-83 1608.45,-83"/>
<polygon fill="midnightblue" stroke="midnightblue" points="1579.65,-79.5001 1569.65,-83 1579.65,-86.5001 1579.65,-79.5001"/>
</g>
<!-- Node9&#45;&gt;Node5 -->
<g id="edge18" class="edge"><title>Node9&#45;&gt;Node5</title>
<path fill="none" stroke="orange" stroke-dasharray="5,2" d="M860.3,-83C903.26,-83 956.579,-83 997.749,-83"/>
<polygon fill="orange" stroke="orange" points="860.179,-79.5001 850.179,-83 860.179,-86.5001 860.179,-79.5001"/>
<text text-anchor="start" x="868" y="-100" font-family="Helvetica,sans-Serif" font-size="10.00"> &lt; Type, RawSize, NRef,</text>
<text text-anchor="middle" x="924" y="-87" font-family="Helvetica,sans-Serif" font-size="10.00"> MetaInfoType &gt;</text>
</g>
<!-- Node11 -->
<g id="node22" class="node"><title>Node11</title>
<a xlink:href="classstxxl_1_1mng__local_1_1block__w__bids.html" target="_top" xlink:title="stxxl::mng_local::block\l_w_bids\&lt; Type,((RawSize\l&#45;sizeof(BID\&lt; RawSize \&gt;)*NBids)\l/sizeof(Type)), RawSize, NBids \&gt;">
<polygon fill="none" stroke="black" points="518,-193 518,-253 682,-253 682,-193 518,-193"/>
<text text-anchor="start" x="526" y="-240" font-family="Helvetica,sans-Serif" font-size="10.00">stxxl::mng_local::block</text>
<text text-anchor="start" x="526" y="-227" font-family="Helvetica,sans-Serif" font-size="10.00">_w_bids&lt; Type,((RawSize</text>
<text text-anchor="start" x="526" y="-214" font-family="Helvetica,sans-Serif" font-size="10.00">&#45;sizeof(BID&lt; RawSize &gt;)*NBids)</text>
<text text-anchor="middle" x="600" y="-201" font-family="Helvetica,sans-Serif" font-size="10.00">/sizeof(Type)), RawSize, NBids &gt;</text>
</a>
</g>
<!-- Node10&#45;&gt;Node11 -->
<g id="edge22" class="edge"><title>Node10&#45;&gt;Node11</title>
<path fill="none" stroke="orange" stroke-dasharray="5,2" d="M286.494,-152.786C306.716,-165.821 333.785,-181.27 360,-190 419.521,-209.822 437.865,-199.346 500,-208 505.825,-208.811 511.838,-209.667 517.889,-210.542"/>
<polygon fill="orange" stroke="orange" points="288.268,-149.763 277.992,-147.187 284.419,-155.61 288.268,-149.763"/>
<text text-anchor="start" x="372.5" y="-251" font-family="Helvetica,sans-Serif" font-size="10.00"> &lt; Type,((RawSize&#45;sizeof</text>
<text text-anchor="start" x="372.5" y="-238" font-family="Helvetica,sans-Serif" font-size="10.00">(BID&lt; RawSize &gt;)*NBids)</text>
<text text-anchor="start" x="372.5" y="-225" font-family="Helvetica,sans-Serif" font-size="10.00">/sizeof(Type)), RawSize,</text>
<text text-anchor="middle" x="430" y="-212" font-family="Helvetica,sans-Serif" font-size="10.00"> NBids &gt;</text>
</g>
<!-- Node12 -->
<g id="node25" class="node"><title>Node12</title>
<a xlink:href="classstxxl_1_1mng__local_1_1block__w__bids.html" target="_top" xlink:title="stxxl::mng_local::block\l_w_bids\&lt; Type,((RawSize\l&#45;sizeof(BID\&lt; RawSize \&gt;)*NBids\l&#45;sizeof(MetaInfoType))/sizeof\l(Type)), RawSize, NBids \&gt;">
<polygon fill="none" stroke="black" points="521,-92.5 521,-165.5 679,-165.5 679,-92.5 521,-92.5"/>
<text text-anchor="start" x="529" y="-152.5" font-family="Helvetica,sans-Serif" font-size="10.00">stxxl::mng_local::block</text>
<text text-anchor="start" x="529" y="-139.5" font-family="Helvetica,sans-Serif" font-size="10.00">_w_bids&lt; Type,((RawSize</text>
<text text-anchor="start" x="529" y="-126.5" font-family="Helvetica,sans-Serif" font-size="10.00">&#45;sizeof(BID&lt; RawSize &gt;)*NBids</text>
<text text-anchor="start" x="529" y="-113.5" font-family="Helvetica,sans-Serif" font-size="10.00">&#45;sizeof(MetaInfoType))/sizeof</text>
<text text-anchor="middle" x="600" y="-100.5" font-family="Helvetica,sans-Serif" font-size="10.00">(Type)), RawSize, NBids &gt;</text>
</a>
</g>
<!-- Node10&#45;&gt;Node12 -->
<g id="edge26" class="edge"><title>Node10&#45;&gt;Node12</title>
<path fill="none" stroke="orange" stroke-dasharray="5,2" d="M323.288,-126.261C335.516,-125.736 348.129,-125.28 360,-125 422.205,-123.534 437.79,-123.756 500,-125 506.775,-125.135 513.806,-125.322 520.859,-125.542"/>
<polygon fill="orange" stroke="orange" points="322.964,-122.772 313.131,-126.717 323.278,-129.765 322.964,-122.772"/>
<text text-anchor="start" x="374" y="-181" font-family="Helvetica,sans-Serif" font-size="10.00"> &lt; Type,((RawSize&#45;sizeof</text>
<text text-anchor="start" x="374" y="-168" font-family="Helvetica,sans-Serif" font-size="10.00">(BID&lt; RawSize &gt;)*NBids</text>
<text text-anchor="start" x="374" y="-155" font-family="Helvetica,sans-Serif" font-size="10.00">&#45;sizeof(MetaInfoType))</text>
<text text-anchor="start" x="374" y="-142" font-family="Helvetica,sans-Serif" font-size="10.00">/sizeof(Type)), RawSize,</text>
<text text-anchor="middle" x="430" y="-129" font-family="Helvetica,sans-Serif" font-size="10.00"> NBids &gt;</text>
</g>
<!-- Node11&#45;&gt;Node3 -->
<g id="edge24" class="edge"><title>Node11&#45;&gt;Node3</title>
<path fill="none" stroke="midnightblue" d="M692.034,-245.884C701.468,-248.23 710.909,-250.577 719.964,-252.829"/>
<polygon fill="midnightblue" stroke="midnightblue" points="692.77,-242.461 682.221,-243.444 691.081,-249.254 692.77,-242.461"/>
</g>
<!-- Node12&#45;&gt;Node5 -->
<g id="edge28" class="edge"><title>Node12&#45;&gt;Node5</title>
<path fill="none" stroke="midnightblue" d="M689.276,-132.843C766.86,-134.384 881.881,-132.324 980,-113 988.118,-111.401 996.504,-109.142 1004.68,-106.572"/>
<polygon fill="midnightblue" stroke="midnightblue" points="689.132,-129.339 679.057,-132.615 688.976,-136.337 689.132,-129.339"/>
</g>
<!-- Node12&#45;&gt;Node9 -->
<g id="edge30" class="edge"><title>Node12&#45;&gt;Node9</title>
<path fill="none" stroke="midnightblue" d="M689.146,-106.834C699.491,-104.262 709.891,-101.676 719.83,-99.2045"/>
<polygon fill="midnightblue" stroke="midnightblue" points="688.122,-103.482 679.262,-109.292 689.811,-110.275 688.122,-103.482"/>
</g>
</g>
</svg>
