<?xml version="1.0" encoding="UTF-8" standalone="no"?>
<!DOCTYPE svg PUBLIC "-//W3C//DTD SVG 1.1//EN"
 "http://www.w3.org/Graphics/SVG/1.1/DTD/svg11.dtd">
<!-- Generated by graphviz version 2.38.0 (20140413.2041)
 -->
<!-- Title: stxxl::stream::runs_creator&lt; use_push&lt; ValueType &gt;, CompareType, BlockSize, AllocStr &gt; Pages: 1 -->
<svg width="3245pt" height="291pt"
 viewBox="0.00 0.00 3245.00 290.91" xmlns="http://www.w3.org/2000/svg" xmlns:xlink="http://www.w3.org/1999/xlink">
<g id="graph0" class="graph" transform="scale(1 1) rotate(0) translate(4 286.911)">
<title>stxxl::stream::runs_creator&lt; use_push&lt; ValueType &gt;, CompareType, BlockSize, AllocStr &gt;</title>
<!-- Node1 -->
<g id="node1" class="node"><title>Node1</title>
<polygon fill="#bfbfbf" stroke="black" points="3091,-189.911 3091,-241.911 3237,-241.911 3237,-189.911 3091,-189.911"/>
<text text-anchor="start" x="3099" y="-229.911" font-family="Helvetica,sans-Serif" font-size="10.00">stxxl::stream::runs</text>
<text text-anchor="start" x="3099" y="-218.911" font-family="Helvetica,sans-Serif" font-size="10.00">_creator&lt; use_push&lt;</text>
<text text-anchor="start" x="3099" y="-207.911" font-family="Helvetica,sans-Serif" font-size="10.00"> ValueType &gt;, CompareType,</text>
<text text-anchor="middle" x="3164" y="-196.911" font-family="Helvetica,sans-Serif" font-size="10.00"> BlockSize, AllocStr &gt;</text>
</g>
<!-- Node2 -->
<g id="node2" class="node"><title>Node2</title>
<g id="a_node2"><a xlink:href="classstxxl_1_1noncopyable.html" target="_top" xlink:title="stxxl::noncopyable">
<polygon fill="none" stroke="black" points="11,-228.411 11,-247.411 109,-247.411 109,-228.411 11,-228.411"/>
<text text-anchor="middle" x="60" y="-235.411" font-family="Helvetica,sans-Serif" font-size="10.00">stxxl::noncopyable</text>
</a>
</g>
</g>
<!-- Node2&#45;&gt;Node1 -->
<g id="edge1" class="edge"><title>Node2&#45;&gt;Node1</title>
<path fill="none" stroke="#8b1a1a" d="M102.494,-250.196C151.235,-263.52 234.752,-282.911 308,-282.911 308,-282.911 308,-282.911 2938,-282.911 2997.91,-282.911 3063.21,-260.819 3107.95,-242.007"/>
<polygon fill="#8b1a1a" stroke="#8b1a1a" points="103.21,-246.762 92.6377,-247.454 101.334,-253.506 103.21,-246.762"/>
</g>
<!-- Node12 -->
<g id="node12" class="node"><title>Node12</title>
<g id="a_node12"><a xlink:href="classstxxl_1_1file.html" target="_top" xlink:title="Defines interface of file. ">
<polygon fill="none" stroke="black" points="739,-153.411 739,-172.411 795,-172.411 795,-153.411 739,-153.411"/>
<text text-anchor="middle" x="767" y="-160.411" font-family="Helvetica,sans-Serif" font-size="10.00">stxxl::file</text>
</a>
</g>
</g>
<!-- Node2&#45;&gt;Node12 -->
<g id="edge13" class="edge"><title>Node2&#45;&gt;Node12</title>
<path fill="none" stroke="#8b1a1a" d="M119.416,-235.008C181.402,-231.764 282.183,-226.022 369,-218.911 430.002,-213.914 445.187,-211.836 506,-204.911 601.688,-194.015 627.086,-199.241 721,-177.911 727.264,-176.488 733.888,-174.54 740.072,-172.518"/>
<polygon fill="#8b1a1a" stroke="#8b1a1a" points="118.863,-231.532 109.057,-235.546 119.225,-238.523 118.863,-231.532"/>
</g>
<!-- Node14 -->
<g id="node14" class="node"><title>Node14</title>
<g id="a_node14"><a xlink:href="classstxxl_1_1mutex.html" target="_top" xlink:title="stxxl::mutex">
<polygon fill="none" stroke="black" points="273.5,-190.411 273.5,-209.411 344.5,-209.411 344.5,-190.411 273.5,-190.411"/>
<text text-anchor="middle" x="309" y="-197.411" font-family="Helvetica,sans-Serif" font-size="10.00">stxxl::mutex</text>
</a>
</g>
</g>
<!-- Node2&#45;&gt;Node14 -->
<g id="edge16" class="edge"><title>Node2&#45;&gt;Node14</title>
<path fill="none" stroke="#8b1a1a" d="M119.005,-227.111C125.408,-225.994 131.838,-224.906 138,-223.911 184.787,-216.358 239.034,-208.929 273.427,-204.384"/>
<polygon fill="#8b1a1a" stroke="#8b1a1a" points="118.245,-223.691 109.007,-228.879 119.464,-230.584 118.245,-223.691"/>
</g>
<!-- Node3 -->
<g id="node3" class="node"><title>Node3</title>
<g id="a_node3"><a xlink:href="classstxxl_1_1counting__ptr.html" target="_top" xlink:title="stxxl::counting_ptr\l\&lt; sorted_runs_data_type \&gt;">
<polygon fill="none" stroke="black" points="2870,-223.911 2870,-253.911 3004,-253.911 3004,-223.911 2870,-223.911"/>
<text text-anchor="start" x="2878" y="-241.911" font-family="Helvetica,sans-Serif" font-size="10.00">stxxl::counting_ptr</text>
<text text-anchor="middle" x="2937" y="-230.911" font-family="Helvetica,sans-Serif" font-size="10.00">&lt; sorted_runs_data_type &gt;</text>
</a>
</g>
</g>
<!-- Node3&#45;&gt;Node1 -->
<g id="edge2" class="edge"><title>Node3&#45;&gt;Node1</title>
<path fill="none" stroke="#9a32cd" stroke-dasharray="5,2" d="M3014.36,-231.105C3039.11,-228.575 3066.47,-225.778 3090.9,-223.281"/>
<polygon fill="#9a32cd" stroke="#9a32cd" points="3013.88,-227.636 3004.29,-232.135 3014.59,-234.599 3013.88,-227.636"/>
<text text-anchor="middle" x="3047.5" y="-233.911" font-family="Helvetica,sans-Serif" font-size="10.00"> m_result</text>
</g>
<!-- Node4 -->
<g id="node4" class="node"><title>Node4</title>
<g id="a_node4"><a xlink:href="classstxxl_1_1counting__ptr.html" target="_top" xlink:title="High&#45;performance smart pointer used as a wrapping reference counting pointer. ">
<polygon fill="none" stroke="black" points="2618,-202.911 2618,-232.911 2715,-232.911 2715,-202.911 2618,-202.911"/>
<text text-anchor="start" x="2626" y="-220.911" font-family="Helvetica,sans-Serif" font-size="10.00">stxxl::counting_ptr</text>
<text text-anchor="middle" x="2666.5" y="-209.911" font-family="Helvetica,sans-Serif" font-size="10.00">&lt; Type &gt;</text>
</a>
</g>
</g>
<!-- Node4&#45;&gt;Node1 -->
<g id="edge4" class="edge"><title>Node4&#45;&gt;Node1</title>
<path fill="none" stroke="#9a32cd" stroke-dasharray="5,2" d="M2725.53,-212.468C2765.98,-208.955 2821.23,-204.715 2870,-202.911 2929.51,-200.71 2944.49,-200.482 3004,-202.911 3032.37,-204.069 3063.51,-206.383 3090.65,-208.743"/>
<polygon fill="#9a32cd" stroke="#9a32cd" points="2724.97,-209.004 2715.31,-213.367 2725.58,-215.977 2724.97,-209.004"/>
<text text-anchor="middle" x="2937" y="-205.911" font-family="Helvetica,sans-Serif" font-size="10.00"> m_write_reqs</text>
</g>
<!-- Node4&#45;&gt;Node3 -->
<g id="edge3" class="edge"><title>Node4&#45;&gt;Node3</title>
<path fill="none" stroke="orange" stroke-dasharray="5,2" d="M2725.37,-222.437C2767.83,-225.758 2825.57,-230.274 2869.85,-233.738"/>
<polygon fill="orange" stroke="orange" points="2725.44,-218.932 2715.19,-221.641 2724.89,-225.91 2725.44,-218.932"/>
<text text-anchor="start" x="2764" y="-246.911" font-family="Helvetica,sans-Serif" font-size="10.00"> &lt; sorted_runs_data</text>
<text text-anchor="middle" x="2808" y="-235.911" font-family="Helvetica,sans-Serif" font-size="10.00">_type &gt;</text>
</g>
<!-- Node5 -->
<g id="node5" class="node"><title>Node5</title>
<g id="a_node5"><a xlink:href="classstxxl_1_1typed__block.html" target="_top" xlink:title="Block containing elements of fixed length. ">
<polygon fill="none" stroke="black" points="2874.5,-116.411 2874.5,-157.411 2999.5,-157.411 2999.5,-116.411 2874.5,-116.411"/>
<text text-anchor="start" x="2882.5" y="-145.411" font-family="Helvetica,sans-Serif" font-size="10.00">stxxl::typed_block</text>
<text text-anchor="start" x="2882.5" y="-134.411" font-family="Helvetica,sans-Serif" font-size="10.00">&lt; RawSize, Type, NRef,</text>
<text text-anchor="middle" x="2937" y="-123.411" font-family="Helvetica,sans-Serif" font-size="10.00"> MetaInfoType &gt;</text>
</a>
</g>
</g>
<!-- Node5&#45;&gt;Node1 -->
<g id="edge5" class="edge"><title>Node5&#45;&gt;Node1</title>
<path fill="none" stroke="#9a32cd" stroke-dasharray="5,2" d="M3009.64,-142.398C3030.54,-145.496 3053.09,-150.34 3073,-157.911 3093.15,-165.575 3113.52,-178.202 3129.77,-189.721"/>
<polygon fill="#9a32cd" stroke="#9a32cd" points="3009.92,-138.904 2999.54,-141.013 3008.97,-145.839 3009.92,-138.904"/>
<text text-anchor="middle" x="3047.5" y="-171.911" font-family="Helvetica,sans-Serif" font-size="10.00"> m_blocks1</text>
<text text-anchor="middle" x="3047.5" y="-160.911" font-family="Helvetica,sans-Serif" font-size="10.00">m_blocks2</text>
</g>
<!-- Node6 -->
<g id="node6" class="node"><title>Node6</title>
<g id="a_node6"><a xlink:href="classstxxl_1_1mng__local_1_1expand__struct.html" target="_top" xlink:title="stxxl::mng_local::expand\l_struct\&lt; mng_local::block\l_w_info\&lt; Type, RawSize, NRef,\l MetaInfoType \&gt;, RawSize \&gt;">
<polygon fill="none" stroke="black" points="2587,-110.911 2587,-162.911 2746,-162.911 2746,-110.911 2587,-110.911"/>
<text text-anchor="start" x="2595" y="-150.911" font-family="Helvetica,sans-Serif" font-size="10.00">stxxl::mng_local::expand</text>
<text text-anchor="start" x="2595" y="-139.911" font-family="Helvetica,sans-Serif" font-size="10.00">_struct&lt; mng_local::block</text>
<text text-anchor="start" x="2595" y="-128.911" font-family="Helvetica,sans-Serif" font-size="10.00">_w_info&lt; Type, RawSize, NRef,</text>
<text text-anchor="middle" x="2666.5" y="-117.911" font-family="Helvetica,sans-Serif" font-size="10.00"> MetaInfoType &gt;, RawSize &gt;</text>
</a>
</g>
</g>
<!-- Node6&#45;&gt;Node5 -->
<g id="edge6" class="edge"><title>Node6&#45;&gt;Node5</title>
<path fill="none" stroke="midnightblue" d="M2756.46,-136.911C2795.09,-136.911 2839.39,-136.911 2874.32,-136.911"/>
<polygon fill="midnightblue" stroke="midnightblue" points="2756.24,-133.411 2746.24,-136.911 2756.24,-140.411 2756.24,-133.411"/>
</g>
<!-- Node7 -->
<g id="node7" class="node"><title>Node7</title>
<g id="a_node7"><a xlink:href="classstxxl_1_1mng__local_1_1add__filler.html" target="_top" xlink:title="stxxl::mng_local::add\l_filler\&lt; mng_local::block\l_w_info\&lt; Type, RawSize,\l NRef, MetaInfoType \&gt;, RawSize\l&#45;sizeof(mng_local::block_w_info\l\&lt; Type, RawSize, NRef, MetaInfoType \&gt;)\&gt;">
<polygon fill="none" stroke="black" points="2231,-68.9109 2231,-142.911 2437,-142.911 2437,-68.9109 2231,-68.9109"/>
<text text-anchor="start" x="2239" y="-130.911" font-family="Helvetica,sans-Serif" font-size="10.00">stxxl::mng_local::add</text>
<text text-anchor="start" x="2239" y="-119.911" font-family="Helvetica,sans-Serif" font-size="10.00">_filler&lt; mng_local::block</text>
<text text-anchor="start" x="2239" y="-108.911" font-family="Helvetica,sans-Serif" font-size="10.00">_w_info&lt; Type, RawSize,</text>
<text text-anchor="start" x="2239" y="-97.9109" font-family="Helvetica,sans-Serif" font-size="10.00"> NRef, MetaInfoType &gt;, RawSize</text>
<text text-anchor="start" x="2239" y="-86.9109" font-family="Helvetica,sans-Serif" font-size="10.00">&#45;sizeof(mng_local::block_w_info</text>
<text text-anchor="middle" x="2334" y="-75.9109" font-family="Helvetica,sans-Serif" font-size="10.00">&lt; Type, RawSize, NRef, MetaInfoType &gt;)&gt;</text>
</a>
</g>
</g>
<!-- Node7&#45;&gt;Node6 -->
<g id="edge7" class="edge"><title>Node7&#45;&gt;Node6</title>
<path fill="none" stroke="midnightblue" d="M2447.3,-116.444C2493.14,-120.744 2545.06,-125.614 2586.75,-129.524"/>
<polygon fill="midnightblue" stroke="midnightblue" points="2447.59,-112.956 2437.31,-115.507 2446.94,-119.926 2447.59,-112.956"/>
</g>
<!-- Node8 -->
<g id="node8" class="node"><title>Node8</title>
<g id="a_node8"><a xlink:href="classstxxl_1_1mng__local_1_1block__w__info.html" target="_top" xlink:title="stxxl::mng_local::block\l_w_info\&lt; Type, RawSize,\l NRef, MetaInfoType \&gt;">
<polygon fill="none" stroke="black" points="2057.5,-13.4109 2057.5,-54.4109 2187.5,-54.4109 2187.5,-13.4109 2057.5,-13.4109"/>
<text text-anchor="start" x="2065.5" y="-42.4109" font-family="Helvetica,sans-Serif" font-size="10.00">stxxl::mng_local::block</text>
<text text-anchor="start" x="2065.5" y="-31.4109" font-family="Helvetica,sans-Serif" font-size="10.00">_w_info&lt; Type, RawSize,</text>
<text text-anchor="middle" x="2122.5" y="-20.4109" font-family="Helvetica,sans-Serif" font-size="10.00"> NRef, MetaInfoType &gt;</text>
</a>
</g>
</g>
<!-- Node8&#45;&gt;Node7 -->
<g id="edge8" class="edge"><title>Node8&#45;&gt;Node7</title>
<path fill="none" stroke="midnightblue" d="M2192.85,-57.7455C2205.03,-61.9316 2217.94,-66.3664 2230.79,-70.7836"/>
<polygon fill="midnightblue" stroke="midnightblue" points="2193.85,-54.3871 2183.25,-54.4468 2191.57,-61.007 2193.85,-54.3871"/>
</g>
<!-- Node9 -->
<g id="node9" class="node"><title>Node9</title>
<g id="a_node9"><a xlink:href="classstxxl_1_1mng__local_1_1block__w__bids.html" target="_top" xlink:title="stxxl::mng_local::block\l_w_bids\&lt; Type,((RawSize\l&#45;sizeof(BID\&lt; RawSize \&gt;)*NBids\l&#45;sizeof(MetaInfoType))/sizeof\l(Type)), RawSize, NBids \&gt;">
<polygon fill="none" stroke="black" points="1547,-2.41086 1547,-65.4109 1705,-65.4109 1705,-2.41086 1547,-2.41086"/>
<text text-anchor="start" x="1555" y="-53.4109" font-family="Helvetica,sans-Serif" font-size="10.00">stxxl::mng_local::block</text>
<text text-anchor="start" x="1555" y="-42.4109" font-family="Helvetica,sans-Serif" font-size="10.00">_w_bids&lt; Type,((RawSize</text>
<text text-anchor="start" x="1555" y="-31.4109" font-family="Helvetica,sans-Serif" font-size="10.00">&#45;sizeof(BID&lt; RawSize &gt;)*NBids</text>
<text text-anchor="start" x="1555" y="-20.4109" font-family="Helvetica,sans-Serif" font-size="10.00">&#45;sizeof(MetaInfoType))/sizeof</text>
<text text-anchor="middle" x="1626" y="-9.41086" font-family="Helvetica,sans-Serif" font-size="10.00">(Type)), RawSize, NBids &gt;</text>
</a>
</g>
</g>
<!-- Node9&#45;&gt;Node8 -->
<g id="edge9" class="edge"><title>Node9&#45;&gt;Node8</title>
<path fill="none" stroke="midnightblue" d="M1715.5,-11.4854C1731.23,-8.33415 1747.52,-5.59773 1763,-3.91086 1865.76,7.28814 1985.49,-8.53108 2057.29,-21.1153"/>
<polygon fill="midnightblue" stroke="midnightblue" points="1714.35,-8.15049 1705.27,-13.6092 1715.77,-15.0045 1714.35,-8.15049"/>
</g>
<!-- Node19 -->
<g id="node19" class="node"><title>Node19</title>
<g id="a_node19"><a xlink:href="classstxxl_1_1mng__local_1_1block__w__info.html" target="_top" xlink:title="Contains per block information for stxxl::typed_block , not intended for direct use. ">
<polygon fill="none" stroke="black" points="1768,-13.4109 1768,-54.4109 1898,-54.4109 1898,-13.4109 1768,-13.4109"/>
<text text-anchor="start" x="1776" y="-42.4109" font-family="Helvetica,sans-Serif" font-size="10.00">stxxl::mng_local::block</text>
<text text-anchor="start" x="1776" y="-31.4109" font-family="Helvetica,sans-Serif" font-size="10.00">_w_info&lt; Type, RawSize,</text>
<text text-anchor="middle" x="1833" y="-20.4109" font-family="Helvetica,sans-Serif" font-size="10.00"> NBids, MetaInfoType &gt;</text>
</a>
</g>
</g>
<!-- Node9&#45;&gt;Node19 -->
<g id="edge25" class="edge"><title>Node9&#45;&gt;Node19</title>
<path fill="none" stroke="midnightblue" d="M1715.38,-33.9109C1732.99,-33.9109 1751.17,-33.9109 1767.79,-33.9109"/>
<polygon fill="midnightblue" stroke="midnightblue" points="1715.09,-30.411 1705.09,-33.9109 1715.09,-37.411 1715.09,-30.411"/>
</g>
<!-- Node10 -->
<g id="node10" class="node"><title>Node10</title>
<g id="a_node10"><a xlink:href="classstxxl_1_1mng__local_1_1element__block.html" target="_top" xlink:title="Contains data elements for stxxl::typed_block , not intended for direct use. ">
<polygon fill="none" stroke="black" points="1062,-11.9109 1062,-41.9109 1190,-41.9109 1190,-11.9109 1062,-11.9109"/>
<text text-anchor="start" x="1070" y="-29.9109" font-family="Helvetica,sans-Serif" font-size="10.00">stxxl::mng_local::element</text>
<text text-anchor="middle" x="1126" y="-18.9109" font-family="Helvetica,sans-Serif" font-size="10.00">_block&lt; Type, Size &gt;</text>
</a>
</g>
</g>
<!-- Node10&#45;&gt;Node9 -->
<g id="edge10" class="edge"><title>Node10&#45;&gt;Node9</title>
<path fill="none" stroke="midnightblue" d="M1200.51,-27.5891C1255.24,-28.1263 1331.79,-28.9455 1399,-29.9109 1448.15,-30.6168 1503.3,-31.5895 1546.82,-32.3989"/>
<polygon fill="midnightblue" stroke="midnightblue" points="1200.24,-24.0864 1190.21,-27.4887 1200.17,-31.086 1200.24,-24.0864"/>
</g>
<!-- Node18 -->
<g id="node18" class="node"><title>Node18</title>
<g id="a_node18"><a xlink:href="classstxxl_1_1mng__local_1_1block__w__bids.html" target="_top" xlink:title="Contains BID references for stxxl::typed_block , not intended for direct use. ">
<polygon fill="none" stroke="black" points="1241,-39.4109 1241,-80.4109 1399,-80.4109 1399,-39.4109 1241,-39.4109"/>
<text text-anchor="start" x="1249" y="-68.4109" font-family="Helvetica,sans-Serif" font-size="10.00">stxxl::mng_local::block</text>
<text text-anchor="start" x="1249" y="-57.4109" font-family="Helvetica,sans-Serif" font-size="10.00">_w_bids&lt; Type, Size, RawSize,</text>
<text text-anchor="middle" x="1320" y="-46.4109" font-family="Helvetica,sans-Serif" font-size="10.00"> NBids &gt;</text>
</a>
</g>
</g>
<!-- Node10&#45;&gt;Node18 -->
<g id="edge22" class="edge"><title>Node10&#45;&gt;Node18</title>
<path fill="none" stroke="midnightblue" d="M1200.15,-39.4832C1213.43,-41.7653 1227.32,-44.1537 1240.74,-46.4599"/>
<polygon fill="midnightblue" stroke="midnightblue" points="1200.58,-36.0066 1190.13,-37.762 1199.4,-42.9054 1200.58,-36.0066"/>
</g>
<!-- Node11 -->
<g id="node11" class="node"><title>Node11</title>
<g id="a_node11"><a xlink:href="structstxxl_1_1BID.html" target="_top" xlink:title="stxxl::BID\&lt; raw_size \&gt;">
<polygon fill="none" stroke="black" points="1067,-107.411 1067,-126.411 1185,-126.411 1185,-107.411 1067,-107.411"/>
<text text-anchor="middle" x="1126" y="-114.411" font-family="Helvetica,sans-Serif" font-size="10.00">stxxl::BID&lt; raw_size &gt;</text>
</a>
</g>
</g>
<!-- Node11&#45;&gt;Node9 -->
<g id="edge11" class="edge"><title>Node11&#45;&gt;Node9</title>
<path fill="none" stroke="#9a32cd" stroke-dasharray="5,2" d="M1195.14,-119.275C1293.29,-121.877 1469.24,-123.314 1529,-102.911 1551.92,-95.0855 1574.11,-79.8141 1591.37,-65.6237"/>
<polygon fill="#9a32cd" stroke="#9a32cd" points="1195.11,-115.773 1185.02,-118.995 1194.92,-122.77 1195.11,-115.773"/>
<text text-anchor="middle" x="1320" y="-123.911" font-family="Helvetica,sans-Serif" font-size="10.00"> ref</text>
</g>
<!-- Node11&#45;&gt;Node18 -->
<g id="edge23" class="edge"><title>Node11&#45;&gt;Node18</title>
<path fill="none" stroke="#9a32cd" stroke-dasharray="5,2" d="M1166.99,-104.406C1180.05,-100.366 1194.63,-95.9019 1208,-91.9109 1220.59,-88.1542 1234,-84.225 1246.99,-80.4576"/>
<polygon fill="#9a32cd" stroke="#9a32cd" points="1165.86,-101.092 1157.35,-107.398 1167.93,-107.778 1165.86,-101.092"/>
<text text-anchor="middle" x="1215.5" y="-94.9109" font-family="Helvetica,sans-Serif" font-size="10.00"> ref</text>
</g>
<!-- Node12&#45;&gt;Node11 -->
<g id="edge12" class="edge"><title>Node12&#45;&gt;Node11</title>
<path fill="none" stroke="#9a32cd" stroke-dasharray="5,2" d="M805.078,-159.593C858.162,-154.651 958.821,-144.565 1044,-131.911 1054.61,-130.335 1065.96,-128.395 1076.69,-126.439"/>
<polygon fill="#9a32cd" stroke="#9a32cd" points="804.751,-156.108 795.115,-160.512 805.394,-163.079 804.751,-156.108"/>
<text text-anchor="middle" x="916" y="-156.911" font-family="Helvetica,sans-Serif" font-size="10.00"> storage</text>
</g>
<!-- Node17 -->
<g id="node17" class="node"><title>Node17</title>
<g id="a_node17"><a xlink:href="structstxxl_1_1BID.html" target="_top" xlink:title="Block identifier class. ">
<polygon fill="none" stroke="black" points="867,-107.411 867,-126.411 965,-126.411 965,-107.411 867,-107.411"/>
<text text-anchor="middle" x="916" y="-114.411" font-family="Helvetica,sans-Serif" font-size="10.00">stxxl::BID&lt; Size &gt;</text>
</a>
</g>
</g>
<!-- Node12&#45;&gt;Node17 -->
<g id="edge20" class="edge"><title>Node12&#45;&gt;Node17</title>
<path fill="none" stroke="#9a32cd" stroke-dasharray="5,2" d="M791.176,-148.275C798.004,-144.454 805.626,-140.645 813,-137.911 830.121,-131.562 849.61,-126.955 866.932,-123.702"/>
<polygon fill="#9a32cd" stroke="#9a32cd" points="789.308,-145.313 782.455,-153.394 792.851,-151.35 789.308,-145.313"/>
<text text-anchor="middle" x="831" y="-140.911" font-family="Helvetica,sans-Serif" font-size="10.00"> storage</text>
</g>
<!-- Node13 -->
<g id="node13" class="node"><title>Node13</title>
<g id="a_node13"><a xlink:href="classstxxl_1_1atomic__counted__object.html" target="_top" xlink:title="Provides reference counting abilities for use with counting_ptr with mutex locking. ">
<polygon fill="none" stroke="black" points="524,-147.911 524,-177.911 637,-177.911 637,-147.911 524,-147.911"/>
<text text-anchor="start" x="532" y="-165.911" font-family="Helvetica,sans-Serif" font-size="10.00">stxxl::atomic_counted</text>
<text text-anchor="middle" x="580.5" y="-154.911" font-family="Helvetica,sans-Serif" font-size="10.00">_object</text>
</a>
</g>
</g>
<!-- Node13&#45;&gt;Node12 -->
<g id="edge14" class="edge"><title>Node13&#45;&gt;Node12</title>
<path fill="none" stroke="#9a32cd" stroke-dasharray="5,2" d="M647.161,-162.911C678.685,-162.911 714.739,-162.911 738.788,-162.911"/>
<polygon fill="#9a32cd" stroke="#9a32cd" points="647.106,-159.411 637.106,-162.911 647.106,-166.411 647.106,-159.411"/>
<text text-anchor="middle" x="688" y="-165.911" font-family="Helvetica,sans-Serif" font-size="10.00"> m_request_ref</text>
</g>
<!-- Node14&#45;&gt;Node13 -->
<g id="edge15" class="edge"><title>Node14&#45;&gt;Node13</title>
<path fill="none" stroke="#9a32cd" stroke-dasharray="5,2" d="M354.739,-193.769C401.151,-187.397 473.812,-177.421 523.888,-170.546"/>
<polygon fill="#9a32cd" stroke="#9a32cd" points="354.112,-190.322 344.681,-195.15 355.064,-197.257 354.112,-190.322"/>
<text text-anchor="middle" x="446.5" y="-192.911" font-family="Helvetica,sans-Serif" font-size="10.00"> m_reference_count_mutex</text>
</g>
<!-- Node15 -->
<g id="node15" class="node"><title>Node15</title>
<g id="a_node15"><a xlink:href="structstxxl_1_1choose__int__types.html" target="_top" xlink:title="stxxl::choose_int_types\l\&lt; my_pointer_size \&gt;">
<polygon fill="none" stroke="black" points="249,-140.911 249,-170.911 369,-170.911 369,-140.911 249,-140.911"/>
<text text-anchor="start" x="257" y="-158.911" font-family="Helvetica,sans-Serif" font-size="10.00">stxxl::choose_int_types</text>
<text text-anchor="middle" x="309" y="-147.911" font-family="Helvetica,sans-Serif" font-size="10.00">&lt; my_pointer_size &gt;</text>
</a>
</g>
</g>
<!-- Node15&#45;&gt;Node13 -->
<g id="edge17" class="edge"><title>Node15&#45;&gt;Node13</title>
<path fill="none" stroke="#9a32cd" stroke-dasharray="5,2" d="M379.379,-157.713C424.231,-158.878 481.837,-160.374 523.717,-161.462"/>
<polygon fill="#9a32cd" stroke="#9a32cd" points="379.23,-154.208 369.143,-157.447 379.049,-161.206 379.23,-154.208"/>
<text text-anchor="middle" x="446.5" y="-163.911" font-family="Helvetica,sans-Serif" font-size="10.00"> m_reference_count</text>
</g>
<!-- Node16 -->
<g id="node16" class="node"><title>Node16</title>
<g id="a_node16"><a xlink:href="structstxxl_1_1choose__int__types.html" target="_top" xlink:title="stxxl::choose_int_types\l\&lt; PtrSize \&gt;">
<polygon fill="none" stroke="black" points="0,-140.911 0,-170.911 120,-170.911 120,-140.911 0,-140.911"/>
<text text-anchor="start" x="8" y="-158.911" font-family="Helvetica,sans-Serif" font-size="10.00">stxxl::choose_int_types</text>
<text text-anchor="middle" x="60" y="-147.911" font-family="Helvetica,sans-Serif" font-size="10.00">&lt; PtrSize &gt;</text>
</a>
</g>
</g>
<!-- Node16&#45;&gt;Node15 -->
<g id="edge18" class="edge"><title>Node16&#45;&gt;Node15</title>
<path fill="none" stroke="orange" stroke-dasharray="5,2" d="M130.455,-155.911C167.772,-155.911 213.289,-155.911 248.893,-155.911"/>
<polygon fill="orange" stroke="orange" points="130.163,-152.411 120.163,-155.911 130.163,-159.411 130.163,-152.411"/>
<text text-anchor="middle" x="184.5" y="-158.911" font-family="Helvetica,sans-Serif" font-size="10.00"> &lt; my_pointer_size &gt;</text>
</g>
<!-- Node17&#45;&gt;Node11 -->
<g id="edge19" class="edge"><title>Node17&#45;&gt;Node11</title>
<path fill="none" stroke="orange" stroke-dasharray="5,2" d="M975.465,-116.911C1003.97,-116.911 1038.16,-116.911 1066.65,-116.911"/>
<polygon fill="orange" stroke="orange" points="975.242,-113.411 965.242,-116.911 975.242,-120.411 975.242,-113.411"/>
<text text-anchor="middle" x="1013.5" y="-119.911" font-family="Helvetica,sans-Serif" font-size="10.00"> &lt; raw_size &gt;</text>
</g>
<!-- Node18&#45;&gt;Node9 -->
<g id="edge21" class="edge"><title>Node18&#45;&gt;Node9</title>
<path fill="none" stroke="orange" stroke-dasharray="5,2" d="M1409.22,-48.6868C1411.84,-48.4163 1414.44,-48.1568 1417,-47.9109 1459.87,-43.7919 1507.83,-40.4772 1546.88,-38.109"/>
<polygon fill="orange" stroke="orange" points="1408.59,-45.2339 1399.02,-49.7794 1409.34,-52.194 1408.59,-45.2339"/>
<text text-anchor="start" x="1417" y="-94.9109" font-family="Helvetica,sans-Serif" font-size="10.00"> &lt; Type,((RawSize&#45;sizeof</text>
<text text-anchor="start" x="1417" y="-83.9109" font-family="Helvetica,sans-Serif" font-size="10.00">(BID&lt; RawSize &gt;)*NBids</text>
<text text-anchor="start" x="1417" y="-72.9109" font-family="Helvetica,sans-Serif" font-size="10.00">&#45;sizeof(MetaInfoType))</text>
<text text-anchor="start" x="1417" y="-61.9109" font-family="Helvetica,sans-Serif" font-size="10.00">/sizeof(Type)), RawSize,</text>
<text text-anchor="middle" x="1473" y="-50.9109" font-family="Helvetica,sans-Serif" font-size="10.00"> NBids &gt;</text>
</g>
<!-- Node19&#45;&gt;Node8 -->
<g id="edge24" class="edge"><title>Node19&#45;&gt;Node8</title>
<path fill="none" stroke="orange" stroke-dasharray="5,2" d="M1908.38,-33.9109C1954.43,-33.9109 2012.97,-33.9109 2057.04,-33.9109"/>
<polygon fill="orange" stroke="orange" points="1908.16,-30.411 1898.16,-33.9109 1908.16,-37.411 1908.16,-30.411"/>
<text text-anchor="start" x="1921" y="-47.9109" font-family="Helvetica,sans-Serif" font-size="10.00"> &lt; Type, RawSize, NRef,</text>
<text text-anchor="middle" x="1977" y="-36.9109" font-family="Helvetica,sans-Serif" font-size="10.00"> MetaInfoType &gt;</text>
</g>
<!-- Node20 -->
<g id="node20" class="node"><title>Node20</title>
<g id="a_node20"><a xlink:href="classstxxl_1_1mng__local_1_1filler__struct.html" target="_top" xlink:title="stxxl::mng_local::filler\l_struct\&lt; FillSize \&gt;">
<polygon fill="none" stroke="black" points="1570,-148.911 1570,-178.911 1682,-178.911 1682,-148.911 1570,-148.911"/>
<text text-anchor="start" x="1578" y="-166.911" font-family="Helvetica,sans-Serif" font-size="10.00">stxxl::mng_local::filler</text>
<text text-anchor="middle" x="1626" y="-155.911" font-family="Helvetica,sans-Serif" font-size="10.00">_struct&lt; FillSize &gt;</text>
</a>
</g>
</g>
<!-- Node20&#45;&gt;Node7 -->
<g id="edge26" class="edge"><title>Node20&#45;&gt;Node7</title>
<path fill="none" stroke="#9a32cd" stroke-dasharray="5,2" d="M1692.12,-150.577C1714.51,-146.356 1739.78,-141.992 1763,-138.911 1925.75,-117.312 2116.5,-109.848 2230.89,-107.27"/>
<polygon fill="#9a32cd" stroke="#9a32cd" points="1691.22,-147.185 1682.05,-152.501 1692.53,-154.061 1691.22,-147.185"/>
<text text-anchor="middle" x="1977" y="-125.911" font-family="Helvetica,sans-Serif" font-size="10.00"> filler</text>
</g>
<!-- Node22 -->
<g id="node22" class="node"><title>Node22</title>
<g id="a_node22"><a xlink:href="classstxxl_1_1mng__local_1_1add__filler.html" target="_top" xlink:title="Contains per block filler for stxxl::typed_block , not intended for direct use. ">
<polygon fill="none" stroke="black" points="1763,-148.911 1763,-178.911 1903,-178.911 1903,-148.911 1763,-148.911"/>
<text text-anchor="start" x="1771" y="-166.911" font-family="Helvetica,sans-Serif" font-size="10.00">stxxl::mng_local::add</text>
<text text-anchor="middle" x="1833" y="-155.911" font-family="Helvetica,sans-Serif" font-size="10.00">_filler&lt; BaseType, FillSize &gt;</text>
</a>
</g>
</g>
<!-- Node20&#45;&gt;Node22 -->
<g id="edge29" class="edge"><title>Node20&#45;&gt;Node22</title>
<path fill="none" stroke="#9a32cd" stroke-dasharray="5,2" d="M1692.31,-163.911C1714.77,-163.911 1739.99,-163.911 1762.75,-163.911"/>
<polygon fill="#9a32cd" stroke="#9a32cd" points="1692.21,-160.411 1682.21,-163.911 1692.21,-167.411 1692.21,-160.411"/>
<text text-anchor="middle" x="1734" y="-166.911" font-family="Helvetica,sans-Serif" font-size="10.00"> filler</text>
</g>
<!-- Node24 -->
<g id="node24" class="node"><title>Node24</title>
<g id="a_node24"><a xlink:href="classstxxl_1_1mng__local_1_1add__filler.html" target="_top" xlink:title="stxxl::mng_local::add\l_filler\&lt; Type, RawSize\l&#45;sizeof(Type)\&gt;">
<polygon fill="none" stroke="black" points="2064.5,-213.411 2064.5,-254.411 2180.5,-254.411 2180.5,-213.411 2064.5,-213.411"/>
<text text-anchor="start" x="2072.5" y="-242.411" font-family="Helvetica,sans-Serif" font-size="10.00">stxxl::mng_local::add</text>
<text text-anchor="start" x="2072.5" y="-231.411" font-family="Helvetica,sans-Serif" font-size="10.00">_filler&lt; Type, RawSize</text>
<text text-anchor="middle" x="2122.5" y="-220.411" font-family="Helvetica,sans-Serif" font-size="10.00">&#45;sizeof(Type)&gt;</text>
</a>
</g>
</g>
<!-- Node20&#45;&gt;Node24 -->
<g id="edge32" class="edge"><title>Node20&#45;&gt;Node24</title>
<path fill="none" stroke="#9a32cd" stroke-dasharray="5,2" d="M1692.28,-175.757C1714.68,-179.735 1739.92,-184.122 1763,-187.911 1833.09,-199.417 1850.57,-202.702 1921,-211.911 1969.26,-218.222 2024.23,-224.165 2064.38,-228.28"/>
<polygon fill="#9a32cd" stroke="#9a32cd" points="1692.66,-172.27 1682.2,-173.961 1691.43,-179.161 1692.66,-172.27"/>
<text text-anchor="middle" x="1833" y="-212.911" font-family="Helvetica,sans-Serif" font-size="10.00"> filler</text>
</g>
<!-- Node21 -->
<g id="node21" class="node"><title>Node21</title>
<g id="a_node21"><a xlink:href="classstxxl_1_1mng__local_1_1filler__struct.html" target="_top" xlink:title="stxxl::mng_local::filler\l_struct\&lt; Bytes \&gt;">
<polygon fill="none" stroke="black" points="1264,-148.911 1264,-178.911 1376,-178.911 1376,-148.911 1264,-148.911"/>
<text text-anchor="start" x="1272" y="-166.911" font-family="Helvetica,sans-Serif" font-size="10.00">stxxl::mng_local::filler</text>
<text text-anchor="middle" x="1320" y="-155.911" font-family="Helvetica,sans-Serif" font-size="10.00">_struct&lt; Bytes &gt;</text>
</a>
</g>
</g>
<!-- Node21&#45;&gt;Node20 -->
<g id="edge27" class="edge"><title>Node21&#45;&gt;Node20</title>
<path fill="none" stroke="orange" stroke-dasharray="5,2" d="M1386.33,-163.911C1441.03,-163.911 1518.21,-163.911 1569.84,-163.911"/>
<polygon fill="orange" stroke="orange" points="1386.05,-160.411 1376.05,-163.911 1386.05,-167.411 1386.05,-160.411"/>
<text text-anchor="middle" x="1473" y="-166.911" font-family="Helvetica,sans-Serif" font-size="10.00"> &lt; FillSize &gt;</text>
</g>
<!-- Node22&#45;&gt;Node7 -->
<g id="edge28" class="edge"><title>Node22&#45;&gt;Node7</title>
<path fill="none" stroke="orange" stroke-dasharray="5,2" d="M1913.33,-154.286C1954.41,-149.332 2005.39,-143.231 2051,-137.911 2110.59,-130.961 2177.28,-123.383 2230.84,-117.348"/>
<polygon fill="orange" stroke="orange" points="1912.88,-150.814 1903.37,-155.487 1913.72,-157.763 1912.88,-150.814"/>
<text text-anchor="start" x="2051" y="-195.911" font-family="Helvetica,sans-Serif" font-size="10.00"> &lt; mng_local::block</text>
<text text-anchor="start" x="2051" y="-184.911" font-family="Helvetica,sans-Serif" font-size="10.00">_w_info&lt; Type, RawSize,</text>
<text text-anchor="start" x="2051" y="-173.911" font-family="Helvetica,sans-Serif" font-size="10.00"> NRef, MetaInfoType &gt;,</text>
<text text-anchor="start" x="2051" y="-162.911" font-family="Helvetica,sans-Serif" font-size="10.00"> RawSize&#45;sizeof(mng_local</text>
<text text-anchor="start" x="2051" y="-151.911" font-family="Helvetica,sans-Serif" font-size="10.00">::block_w_info&lt; Type, RawSize,</text>
<text text-anchor="middle" x="2122.5" y="-140.911" font-family="Helvetica,sans-Serif" font-size="10.00"> NRef, MetaInfoType &gt;)&gt;</text>
</g>
<!-- Node22&#45;&gt;Node24 -->
<g id="edge33" class="edge"><title>Node22&#45;&gt;Node24</title>
<path fill="none" stroke="orange" stroke-dasharray="5,2" d="M1913.57,-168.205C1950.5,-171.737 1994.63,-178.175 2033,-189.911 2041.55,-192.527 2042.99,-194.922 2051,-198.911 2060.42,-203.603 2070.55,-208.639 2080.11,-213.387"/>
<polygon fill="orange" stroke="orange" points="1913.63,-164.696 1903.35,-167.283 1913,-171.667 1913.63,-164.696"/>
<text text-anchor="start" x="1922.5" y="-203.911" font-family="Helvetica,sans-Serif" font-size="10.00"> &lt; Type, RawSize&#45;sizeof</text>
<text text-anchor="middle" x="1977" y="-192.911" font-family="Helvetica,sans-Serif" font-size="10.00">(Type)&gt;</text>
</g>
<!-- Node23 -->
<g id="node23" class="node"><title>Node23</title>
<g id="a_node23"><a xlink:href="classstxxl_1_1mng__local_1_1expand__struct.html" target="_top" xlink:title="Helper to compute the size of the filler , not intended for direct use. ">
<polygon fill="none" stroke="black" points="2268,-195.911 2268,-225.911 2400,-225.911 2400,-195.911 2268,-195.911"/>
<text text-anchor="start" x="2276" y="-213.911" font-family="Helvetica,sans-Serif" font-size="10.00">stxxl::mng_local::expand</text>
<text text-anchor="middle" x="2334" y="-202.911" font-family="Helvetica,sans-Serif" font-size="10.00">_struct&lt; Type, RawSize &gt;</text>
</a>
</g>
</g>
<!-- Node23&#45;&gt;Node6 -->
<g id="edge30" class="edge"><title>Node23&#45;&gt;Node6</title>
<path fill="none" stroke="orange" stroke-dasharray="5,2" d="M2410.27,-194.057C2463.06,-182.239 2533.46,-166.476 2586.95,-154.498"/>
<polygon fill="orange" stroke="orange" points="2409.29,-190.69 2400.3,-196.291 2410.82,-197.521 2409.29,-190.69"/>
<text text-anchor="start" x="2455" y="-218.911" font-family="Helvetica,sans-Serif" font-size="10.00"> &lt; mng_local::block</text>
<text text-anchor="start" x="2455" y="-207.911" font-family="Helvetica,sans-Serif" font-size="10.00">_w_info&lt; Type, RawSize,</text>
<text text-anchor="start" x="2455" y="-196.911" font-family="Helvetica,sans-Serif" font-size="10.00"> NRef, MetaInfoType &gt;,</text>
<text text-anchor="middle" x="2512" y="-185.911" font-family="Helvetica,sans-Serif" font-size="10.00"> RawSize &gt;</text>
</g>
<!-- Node24&#45;&gt;Node23 -->
<g id="edge31" class="edge"><title>Node24&#45;&gt;Node23</title>
<path fill="none" stroke="midnightblue" d="M2190.73,-226.53C2215.38,-223.824 2243.21,-220.768 2267.68,-218.082"/>
<polygon fill="midnightblue" stroke="midnightblue" points="2190.31,-223.056 2180.75,-227.626 2191.07,-230.014 2190.31,-223.056"/>
</g>
</g>
</svg>
