<?xml version="1.0" encoding="UTF-8" standalone="no"?>
<!DOCTYPE svg PUBLIC "-//W3C//DTD SVG 1.1//EN"
 "http://www.w3.org/Graphics/SVG/1.1/DTD/svg11.dtd">
<!-- Generated by graphviz version 2.38.0 (20140413.2041)
 -->
<!-- Title: stxxl::column_vector&lt; ValueType &gt; Pages: 1 -->
<svg width="1972pt" height="370pt"
 viewBox="0.00 0.00 1972.00 370.26" xmlns="http://www.w3.org/2000/svg" xmlns:xlink="http://www.w3.org/1999/xlink">
<g id="graph0" class="graph" transform="scale(1 1) rotate(0) translate(4 366.264)">
<title>stxxl::column_vector&lt; ValueType &gt;</title>
<!-- Node1 -->
<g id="node1" class="node"><title>Node1</title>
<polygon fill="#bfbfbf" stroke="black" points="1857,-192.264 1857,-222.264 1964,-222.264 1964,-192.264 1857,-192.264"/>
<text text-anchor="start" x="1865" y="-210.264" font-family="Helvetica,sans-Serif" font-size="10.00">stxxl::column_vector</text>
<text text-anchor="middle" x="1910.5" y="-199.264" font-family="Helvetica,sans-Serif" font-size="10.00">&lt; ValueType &gt;</text>
</g>
<!-- Node2 -->
<g id="node2" class="node"><title>Node2</title>
<g id="a_node2"><a xlink:href="classstxxl_1_1vector.html" target="_top" xlink:title="stxxl::vector\&lt; ValueType \&gt;">
<polygon fill="none" stroke="black" points="1685,-197.764 1685,-216.764 1820,-216.764 1820,-197.764 1685,-197.764"/>
<text text-anchor="middle" x="1752.5" y="-204.764" font-family="Helvetica,sans-Serif" font-size="10.00">stxxl::vector&lt; ValueType &gt;</text>
</a>
</g>
</g>
<!-- Node2&#45;&gt;Node1 -->
<g id="edge1" class="edge"><title>Node2&#45;&gt;Node1</title>
<path fill="none" stroke="midnightblue" d="M1830.23,-207.264C1839.21,-207.264 1848.23,-207.264 1856.78,-207.264"/>
<polygon fill="midnightblue" stroke="midnightblue" points="1830.11,-203.764 1820.11,-207.264 1830.11,-210.764 1830.11,-203.764"/>
</g>
<!-- Node3 -->
<g id="node3" class="node"><title>Node3</title>
<g id="a_node3"><a xlink:href="classstxxl_1_1file.html" target="_top" xlink:title="Defines interface of file. ">
<polygon fill="none" stroke="black" points="767,-257.764 767,-276.764 823,-276.764 823,-257.764 767,-257.764"/>
<text text-anchor="middle" x="795" y="-264.764" font-family="Helvetica,sans-Serif" font-size="10.00">stxxl::file</text>
</a>
</g>
</g>
<!-- Node3&#45;&gt;Node2 -->
<g id="edge2" class="edge"><title>Node3&#45;&gt;Node2</title>
<path fill="none" stroke="#9a32cd" stroke-dasharray="5,2" d="M812.621,-284.152C838.622,-308.68 891.597,-351.264 946,-351.264 946,-351.264 946,-351.264 1498,-351.264 1606.82,-351.264 1711.66,-249.695 1742.45,-217.162"/>
<polygon fill="#9a32cd" stroke="#9a32cd" points="814.769,-281.36 805.159,-276.9 809.891,-286.379 814.769,-281.36"/>
<text text-anchor="middle" x="1220" y="-354.264" font-family="Helvetica,sans-Serif" font-size="10.00"> m_from</text>
</g>
<!-- Node9 -->
<g id="node9" class="node"><title>Node9</title>
<g id="a_node9"><a xlink:href="classstxxl_1_1block__manager.html" target="_top" xlink:title="Block manager class. ">
<polygon fill="none" stroke="black" points="1165,-185.764 1165,-204.764 1275,-204.764 1275,-185.764 1165,-185.764"/>
<text text-anchor="middle" x="1220" y="-192.764" font-family="Helvetica,sans-Serif" font-size="10.00">stxxl::block_manager</text>
</a>
</g>
</g>
<!-- Node3&#45;&gt;Node9 -->
<g id="edge14" class="edge"><title>Node3&#45;&gt;Node9</title>
<path fill="none" stroke="#9a32cd" stroke-dasharray="5,2" d="M833.022,-260.962C907.905,-248.216 1077.63,-219.328 1164.92,-204.47"/>
<polygon fill="#9a32cd" stroke="#9a32cd" points="832.375,-257.522 823.104,-262.651 833.55,-264.423 832.375,-257.522"/>
<text text-anchor="middle" x="947" y="-253.264" font-family="Helvetica,sans-Serif" font-size="10.00"> disk_files</text>
</g>
<!-- Node12 -->
<g id="node12" class="node"><title>Node12</title>
<g id="a_node12"><a xlink:href="classstxxl_1_1disk__allocator.html" target="_top" xlink:title="stxxl::disk_allocator">
<polygon fill="none" stroke="black" points="895,-185.764 895,-204.764 999,-204.764 999,-185.764 895,-185.764"/>
<text text-anchor="middle" x="947" y="-192.764" font-family="Helvetica,sans-Serif" font-size="10.00">stxxl::disk_allocator</text>
</a>
</g>
</g>
<!-- Node3&#45;&gt;Node12 -->
<g id="edge17" class="edge"><title>Node3&#45;&gt;Node12</title>
<path fill="none" stroke="#9a32cd" stroke-dasharray="5,2" d="M813.113,-250.667C821.09,-243.624 831.014,-235.784 841,-230.264 861.349,-219.016 885.919,-210.582 906.174,-204.814"/>
<polygon fill="#9a32cd" stroke="#9a32cd" points="810.578,-248.244 805.584,-257.588 815.315,-253.398 810.578,-248.244"/>
<text text-anchor="middle" x="859" y="-233.264" font-family="Helvetica,sans-Serif" font-size="10.00"> storage</text>
</g>
<!-- Node17 -->
<g id="node17" class="node"><title>Node17</title>
<g id="a_node17"><a xlink:href="classstxxl_1_1vector.html" target="_top" xlink:title="External vector container. &#160;Introduction to vector container: see STXXL Vector tutorial. &#160;Design and Internals of vector container: see Vector. ">
<polygon fill="none" stroke="black" points="1413,-215.764 1413,-256.764 1581,-256.764 1581,-215.764 1413,-215.764"/>
<text text-anchor="start" x="1421" y="-244.764" font-family="Helvetica,sans-Serif" font-size="10.00">stxxl::vector&lt; ValueType,</text>
<text text-anchor="start" x="1421" y="-233.764" font-family="Helvetica,sans-Serif" font-size="10.00"> PageSize, PagerType, BlockSize,</text>
<text text-anchor="middle" x="1497" y="-222.764" font-family="Helvetica,sans-Serif" font-size="10.00"> AllocStr, SizeType &gt;</text>
</a>
</g>
</g>
<!-- Node3&#45;&gt;Node17 -->
<g id="edge28" class="edge"><title>Node3&#45;&gt;Node17</title>
<path fill="none" stroke="#9a32cd" stroke-dasharray="5,2" d="M833.273,-267.437C874,-267.501 941.16,-267.235 999,-265.264 1144.77,-260.296 1314.32,-249.277 1412.96,-242.342"/>
<polygon fill="#9a32cd" stroke="#9a32cd" points="833.27,-263.937 823.262,-267.414 833.254,-270.937 833.27,-263.937"/>
<text text-anchor="middle" x="1067.5" y="-267.264" font-family="Helvetica,sans-Serif" font-size="10.00"> m_from</text>
</g>
<!-- Node4 -->
<g id="node4" class="node"><title>Node4</title>
<g id="a_node4"><a xlink:href="classstxxl_1_1noncopyable.html" target="_top" xlink:title="stxxl::noncopyable">
<polygon fill="none" stroke="black" points="11,-128.764 11,-147.764 109,-147.764 109,-128.764 11,-128.764"/>
<text text-anchor="middle" x="60" y="-135.764" font-family="Helvetica,sans-Serif" font-size="10.00">stxxl::noncopyable</text>
</a>
</g>
</g>
<!-- Node4&#45;&gt;Node3 -->
<g id="edge3" class="edge"><title>Node4&#45;&gt;Node3</title>
<path fill="none" stroke="#8b1a1a" d="M68.3999,-157.531C79.3832,-183.295 102.59,-228.269 138,-250.264 190.385,-282.804 388.358,-275.043 550,-278.264 638.427,-280.026 661.19,-288.841 749,-278.264 754.749,-277.572 760.824,-276.398 766.586,-275.07"/>
<polygon fill="#8b1a1a" stroke="#8b1a1a" points="71.5676,-156.029 64.5563,-148.086 65.0839,-158.668 71.5676,-156.029"/>
</g>
<!-- Node6 -->
<g id="node6" class="node"><title>Node6</title>
<g id="a_node6"><a xlink:href="classstxxl_1_1mutex.html" target="_top" xlink:title="stxxl::mutex">
<polygon fill="none" stroke="black" points="286.5,-237.764 286.5,-256.764 357.5,-256.764 357.5,-237.764 286.5,-237.764"/>
<text text-anchor="middle" x="322" y="-244.764" font-family="Helvetica,sans-Serif" font-size="10.00">stxxl::mutex</text>
</a>
</g>
</g>
<!-- Node4&#45;&gt;Node6 -->
<g id="edge6" class="edge"><title>Node4&#45;&gt;Node6</title>
<path fill="none" stroke="#8b1a1a" d="M71.8589,-156.485C84.8622,-176.508 108.613,-207.869 138,-223.264 184.975,-247.874 247.696,-250.694 286.171,-249.613"/>
<polygon fill="#8b1a1a" stroke="#8b1a1a" points="74.7803,-154.556 66.5099,-147.934 68.8456,-158.268 74.7803,-154.556"/>
</g>
<!-- Node10 -->
<g id="node10" class="node"><title>Node10</title>
<g id="a_node10"><a xlink:href="classstxxl_1_1singleton.html" target="_top" xlink:title="stxxl::singleton\&lt; block\l_manager \&gt;">
<polygon fill="none" stroke="black" points="550,-112.264 550,-142.264 665,-142.264 665,-112.264 550,-112.264"/>
<text text-anchor="start" x="558" y="-130.264" font-family="Helvetica,sans-Serif" font-size="10.00">stxxl::singleton&lt; block</text>
<text text-anchor="middle" x="607.5" y="-119.264" font-family="Helvetica,sans-Serif" font-size="10.00">_manager &gt;</text>
</a>
</g>
</g>
<!-- Node4&#45;&gt;Node10 -->
<g id="edge11" class="edge"><title>Node4&#45;&gt;Node10</title>
<path fill="none" stroke="#8b1a1a" d="M119.553,-137.083C225.007,-134.957 445.55,-130.51 549.708,-128.409"/>
<polygon fill="#8b1a1a" stroke="#8b1a1a" points="119.337,-133.587 109.409,-137.288 119.478,-140.585 119.337,-133.587"/>
</g>
<!-- Node11 -->
<g id="node11" class="node"><title>Node11</title>
<g id="a_node11"><a xlink:href="classstxxl_1_1singleton.html" target="_top" xlink:title="stxxl::singleton\&lt; INSTANCE,\l destroy_on_exit \&gt;">
<polygon fill="none" stroke="black" points="249,-150.264 249,-180.264 395,-180.264 395,-150.264 249,-150.264"/>
<text text-anchor="start" x="257" y="-168.264" font-family="Helvetica,sans-Serif" font-size="10.00">stxxl::singleton&lt; INSTANCE,</text>
<text text-anchor="middle" x="322" y="-157.264" font-family="Helvetica,sans-Serif" font-size="10.00"> destroy_on_exit &gt;</text>
</a>
</g>
</g>
<!-- Node4&#45;&gt;Node11 -->
<g id="edge13" class="edge"><title>Node4&#45;&gt;Node11</title>
<path fill="none" stroke="#8b1a1a" d="M119.265,-144.315C157.598,-148.295 208.044,-153.534 248.901,-157.777"/>
<polygon fill="#8b1a1a" stroke="#8b1a1a" points="119.603,-140.831 109.295,-143.279 118.88,-147.793 119.603,-140.831"/>
</g>
<!-- Node4&#45;&gt;Node12 -->
<g id="edge16" class="edge"><title>Node4&#45;&gt;Node12</title>
<path fill="none" stroke="#8b1a1a" d="M94.0005,-151.452C107.497,-156.533 123.355,-162.107 138,-166.264 186.467,-180.02 198.904,-183.91 249,-189.264 374.139,-202.637 756.056,-198.24 894.876,-196.121"/>
<polygon fill="#8b1a1a" stroke="#8b1a1a" points="95.2314,-148.175 84.6411,-147.867 92.7275,-154.712 95.2314,-148.175"/>
</g>
<!-- Node14 -->
<g id="node14" class="node"><title>Node14</title>
<g id="a_node14"><a xlink:href="classstxxl_1_1simple__vector.html" target="_top" xlink:title="stxxl::simple_vector\l\&lt; stxxl::typed_block \&gt;">
<polygon fill="none" stroke="black" points="1163,-78.264 1163,-108.264 1277,-108.264 1277,-78.264 1163,-78.264"/>
<text text-anchor="start" x="1171" y="-96.264" font-family="Helvetica,sans-Serif" font-size="10.00">stxxl::simple_vector</text>
<text text-anchor="middle" x="1220" y="-85.264" font-family="Helvetica,sans-Serif" font-size="10.00">&lt; stxxl::typed_block &gt;</text>
</a>
</g>
</g>
<!-- Node4&#45;&gt;Node14 -->
<g id="edge21" class="edge"><title>Node4&#45;&gt;Node14</title>
<path fill="none" stroke="#8b1a1a" d="M119.036,-132.86C125.434,-132.303 131.854,-131.76 138,-131.264 320.97,-116.509 366.597,-109.946 550,-102.264 776.887,-92.7604 1047.4,-92.5233 1162.58,-92.942"/>
<polygon fill="#8b1a1a" stroke="#8b1a1a" points="118.697,-129.377 109.045,-133.744 119.314,-136.349 118.697,-129.377"/>
</g>
<!-- Node15 -->
<g id="node15" class="node"><title>Node15</title>
<g id="a_node15"><a xlink:href="classstxxl_1_1simple__vector.html" target="_top" xlink:title="Simpler non&#45;growing vector without initialization. ">
<polygon fill="none" stroke="black" points="895,-30.264 895,-60.264 999,-60.264 999,-30.264 895,-30.264"/>
<text text-anchor="start" x="903" y="-48.264" font-family="Helvetica,sans-Serif" font-size="10.00">stxxl::simple_vector</text>
<text text-anchor="middle" x="947" y="-37.264" font-family="Helvetica,sans-Serif" font-size="10.00">&lt; ValueType &gt;</text>
</a>
</g>
</g>
<!-- Node4&#45;&gt;Node15 -->
<g id="edge23" class="edge"><title>Node4&#45;&gt;Node15</title>
<path fill="none" stroke="#8b1a1a" d="M74.7779,-120.995C88.8215,-104.726 112.163,-81.1299 138,-69.264 212.544,-35.0286 238.97,-45.264 321,-45.264 321,-45.264 321,-45.264 796,-45.264 828.943,-45.264 865.955,-45.264 894.971,-45.264"/>
<polygon fill="#8b1a1a" stroke="#8b1a1a" points="72.0392,-118.814 68.3175,-128.734 77.4129,-123.3 72.0392,-118.814"/>
</g>
<!-- Node16 -->
<g id="node16" class="node"><title>Node16</title>
<g id="a_node16"><a xlink:href="classstxxl_1_1simple__vector.html" target="_top" xlink:title="stxxl::simple_vector\l\&lt; int_type \&gt;">
<polygon fill="none" stroke="black" points="1168,-24.264 1168,-54.264 1272,-54.264 1272,-24.264 1168,-24.264"/>
<text text-anchor="start" x="1176" y="-42.264" font-family="Helvetica,sans-Serif" font-size="10.00">stxxl::simple_vector</text>
<text text-anchor="middle" x="1220" y="-31.264" font-family="Helvetica,sans-Serif" font-size="10.00">&lt; int_type &gt;</text>
</a>
</g>
</g>
<!-- Node4&#45;&gt;Node16 -->
<g id="edge25" class="edge"><title>Node4&#45;&gt;Node16</title>
<path fill="none" stroke="#8b1a1a" d="M70.3306,-119.765C82.6582,-97.3046 106.541,-59.9878 138,-40.264 208.537,3.95993 237.746,-0.263996 321,-0.263996 321,-0.263996 321,-0.263996 948,-0.263996 1025.24,-0.263996 1113.62,-15.9782 1167.87,-27.4569"/>
<polygon fill="#8b1a1a" stroke="#8b1a1a" points="67.2102,-118.179 65.6298,-128.655 73.3983,-121.451 67.2102,-118.179"/>
</g>
<!-- Node5 -->
<g id="node5" class="node"><title>Node5</title>
<g id="a_node5"><a xlink:href="classstxxl_1_1atomic__counted__object.html" target="_top" xlink:title="Provides reference counting abilities for use with counting_ptr with mutex locking. ">
<polygon fill="none" stroke="black" points="551,-238.264 551,-268.264 664,-268.264 664,-238.264 551,-238.264"/>
<text text-anchor="start" x="559" y="-256.264" font-family="Helvetica,sans-Serif" font-size="10.00">stxxl::atomic_counted</text>
<text text-anchor="middle" x="607.5" y="-245.264" font-family="Helvetica,sans-Serif" font-size="10.00">_object</text>
</a>
</g>
</g>
<!-- Node5&#45;&gt;Node3 -->
<g id="edge4" class="edge"><title>Node5&#45;&gt;Node3</title>
<path fill="none" stroke="#9a32cd" stroke-dasharray="5,2" d="M674.304,-258.23C706.127,-260.632 742.585,-263.384 766.819,-265.213"/>
<polygon fill="#9a32cd" stroke="#9a32cd" points="674.391,-254.727 664.156,-257.464 673.864,-261.707 674.391,-254.727"/>
<text text-anchor="middle" x="716" y="-266.264" font-family="Helvetica,sans-Serif" font-size="10.00"> m_request_ref</text>
</g>
<!-- Node6&#45;&gt;Node5 -->
<g id="edge5" class="edge"><title>Node6&#45;&gt;Node5</title>
<path fill="none" stroke="#9a32cd" stroke-dasharray="5,2" d="M367.867,-248.214C417.473,-249.263 497.432,-250.956 550.954,-252.088"/>
<polygon fill="#9a32cd" stroke="#9a32cd" points="367.835,-244.712 357.763,-248 367.686,-251.711 367.835,-244.712"/>
<text text-anchor="middle" x="472.5" y="-254.264" font-family="Helvetica,sans-Serif" font-size="10.00"> m_reference_count_mutex</text>
</g>
<!-- Node6&#45;&gt;Node12 -->
<g id="edge18" class="edge"><title>Node6&#45;&gt;Node12</title>
<path fill="none" stroke="#9a32cd" stroke-dasharray="5,2" d="M367.795,-243.51C413.582,-239.674 486.747,-233.547 550,-228.264 673.748,-217.929 819.252,-205.813 894.738,-199.53"/>
<polygon fill="#9a32cd" stroke="#9a32cd" points="367.284,-240.04 357.612,-244.363 367.869,-247.016 367.284,-240.04"/>
<text text-anchor="middle" x="716" y="-220.264" font-family="Helvetica,sans-Serif" font-size="10.00"> mutex</text>
</g>
<!-- Node7 -->
<g id="node7" class="node"><title>Node7</title>
<g id="a_node7"><a xlink:href="structstxxl_1_1choose__int__types.html" target="_top" xlink:title="stxxl::choose_int_types\l\&lt; my_pointer_size \&gt;">
<polygon fill="none" stroke="black" points="262,-326.264 262,-356.264 382,-356.264 382,-326.264 262,-326.264"/>
<text text-anchor="start" x="270" y="-344.264" font-family="Helvetica,sans-Serif" font-size="10.00">stxxl::choose_int_types</text>
<text text-anchor="middle" x="322" y="-333.264" font-family="Helvetica,sans-Serif" font-size="10.00">&lt; my_pointer_size &gt;</text>
</a>
</g>
</g>
<!-- Node7&#45;&gt;Node5 -->
<g id="edge7" class="edge"><title>Node7&#45;&gt;Node5</title>
<path fill="none" stroke="#9a32cd" stroke-dasharray="5,2" d="M381.183,-323.204C433.291,-307.029 508.832,-283.581 557.812,-268.377"/>
<polygon fill="#9a32cd" stroke="#9a32cd" points="379.926,-319.929 371.413,-326.236 382.001,-326.614 379.926,-319.929"/>
<text text-anchor="middle" x="472.5" y="-315.264" font-family="Helvetica,sans-Serif" font-size="10.00"> m_reference_count</text>
</g>
<!-- Node8 -->
<g id="node8" class="node"><title>Node8</title>
<g id="a_node8"><a xlink:href="structstxxl_1_1choose__int__types.html" target="_top" xlink:title="stxxl::choose_int_types\l\&lt; PtrSize \&gt;">
<polygon fill="none" stroke="black" points="0,-326.264 0,-356.264 120,-356.264 120,-326.264 0,-326.264"/>
<text text-anchor="start" x="8" y="-344.264" font-family="Helvetica,sans-Serif" font-size="10.00">stxxl::choose_int_types</text>
<text text-anchor="middle" x="60" y="-333.264" font-family="Helvetica,sans-Serif" font-size="10.00">&lt; PtrSize &gt;</text>
</a>
</g>
</g>
<!-- Node8&#45;&gt;Node7 -->
<g id="edge8" class="edge"><title>Node8&#45;&gt;Node7</title>
<path fill="none" stroke="orange" stroke-dasharray="5,2" d="M130.515,-341.264C171.531,-341.264 222.884,-341.264 261.931,-341.264"/>
<polygon fill="orange" stroke="orange" points="130.323,-337.764 120.323,-341.264 130.323,-344.764 130.323,-337.764"/>
<text text-anchor="middle" x="184.5" y="-344.264" font-family="Helvetica,sans-Serif" font-size="10.00"> &lt; my_pointer_size &gt;</text>
</g>
<!-- Node9&#45;&gt;Node2 -->
<g id="edge9" class="edge"><title>Node9&#45;&gt;Node2</title>
<path fill="none" stroke="#9a32cd" stroke-dasharray="5,2" d="M1285.58,-193.899C1357.65,-192.693 1477.71,-191.634 1581,-195.264 1615.25,-196.468 1653.3,-199.028 1684.75,-201.476"/>
<polygon fill="#9a32cd" stroke="#9a32cd" points="1285.24,-190.404 1275.3,-194.077 1285.36,-197.403 1285.24,-190.404"/>
<text text-anchor="middle" x="1497" y="-198.264" font-family="Helvetica,sans-Serif" font-size="10.00"> m_bm</text>
</g>
<!-- Node9&#45;&gt;Node17 -->
<g id="edge29" class="edge"><title>Node9&#45;&gt;Node17</title>
<path fill="none" stroke="#9a32cd" stroke-dasharray="5,2" d="M1285.05,-204.242C1317.93,-208.908 1358.63,-214.77 1395,-220.264 1400.79,-221.139 1406.77,-222.054 1412.79,-222.985"/>
<polygon fill="#9a32cd" stroke="#9a32cd" points="1285.5,-200.771 1275.11,-202.834 1284.52,-207.702 1285.5,-200.771"/>
<text text-anchor="middle" x="1358.5" y="-223.264" font-family="Helvetica,sans-Serif" font-size="10.00"> m_bm</text>
</g>
<!-- Node10&#45;&gt;Node9 -->
<g id="edge10" class="edge"><title>Node10&#45;&gt;Node9</title>
<path fill="none" stroke="midnightblue" d="M675.413,-134.717C797.189,-148.281 1052.75,-176.747 1164.61,-189.206"/>
<polygon fill="midnightblue" stroke="midnightblue" points="675.439,-131.198 665.113,-133.57 674.664,-138.155 675.439,-131.198"/>
</g>
<!-- Node11&#45;&gt;Node10 -->
<g id="edge12" class="edge"><title>Node11&#45;&gt;Node10</title>
<path fill="none" stroke="orange" stroke-dasharray="5,2" d="M405.283,-154.235C451.565,-148.031 508.178,-140.443 549.55,-134.897"/>
<polygon fill="orange" stroke="orange" points="404.719,-150.779 395.273,-155.577 405.649,-157.717 404.719,-150.779"/>
<text text-anchor="middle" x="472.5" y="-156.264" font-family="Helvetica,sans-Serif" font-size="10.00"> &lt; block_manager &gt;</text>
</g>
<!-- Node12&#45;&gt;Node9 -->
<g id="edge15" class="edge"><title>Node12&#45;&gt;Node9</title>
<path fill="none" stroke="#9a32cd" stroke-dasharray="5,2" d="M1009.58,-195.264C1056.28,-195.264 1119.85,-195.264 1164.67,-195.264"/>
<polygon fill="#9a32cd" stroke="#9a32cd" points="1009.29,-191.764 999.292,-195.264 1009.29,-198.764 1009.29,-191.764"/>
<text text-anchor="middle" x="1067.5" y="-198.264" font-family="Helvetica,sans-Serif" font-size="10.00"> disk_allocators</text>
</g>
<!-- Node13 -->
<g id="node13" class="node"><title>Node13</title>
<g id="a_node13"><a xlink:href="classstxxl_1_1vector_1_1bid__vector.html" target="_top" xlink:title="stxxl::vector\&lt; ValueType,\l PageSize, PagerType, BlockSize,\l AllocStr, SizeType \&gt;::bid_vector">
<polygon fill="none" stroke="black" points="1136,-273.764 1136,-314.764 1304,-314.764 1304,-273.764 1136,-273.764"/>
<text text-anchor="start" x="1144" y="-302.764" font-family="Helvetica,sans-Serif" font-size="10.00">stxxl::vector&lt; ValueType,</text>
<text text-anchor="start" x="1144" y="-291.764" font-family="Helvetica,sans-Serif" font-size="10.00"> PageSize, PagerType, BlockSize,</text>
<text text-anchor="middle" x="1220" y="-280.764" font-family="Helvetica,sans-Serif" font-size="10.00"> AllocStr, SizeType &gt;::bid_vector</text>
</a>
</g>
</g>
<!-- Node13&#45;&gt;Node2 -->
<g id="edge19" class="edge"><title>Node13&#45;&gt;Node2</title>
<path fill="none" stroke="#9a32cd" stroke-dasharray="5,2" d="M1314.51,-291.018C1340.59,-289.826 1368.91,-288.264 1395,-286.264 1477.9,-279.907 1499.52,-282.811 1581,-266.264 1620.13,-258.317 1629.26,-253.315 1667,-240.264 1687.99,-233.006 1711.49,-223.732 1728.37,-216.865"/>
<polygon fill="#9a32cd" stroke="#9a32cd" points="1314.09,-287.533 1304.26,-291.473 1314.4,-294.526 1314.09,-287.533"/>
<text text-anchor="middle" x="1497" y="-287.264" font-family="Helvetica,sans-Serif" font-size="10.00"> m_bids</text>
</g>
<!-- Node13&#45;&gt;Node17 -->
<g id="edge30" class="edge"><title>Node13&#45;&gt;Node17</title>
<path fill="none" stroke="#9a32cd" stroke-dasharray="5,2" d="M1314.45,-274.555C1346.26,-267.846 1381.58,-260.396 1412.55,-253.864"/>
<polygon fill="#9a32cd" stroke="#9a32cd" points="1313.32,-271.216 1304.26,-276.705 1314.76,-278.066 1313.32,-271.216"/>
<text text-anchor="middle" x="1358.5" y="-274.264" font-family="Helvetica,sans-Serif" font-size="10.00"> m_bids</text>
</g>
<!-- Node14&#45;&gt;Node2 -->
<g id="edge20" class="edge"><title>Node14&#45;&gt;Node2</title>
<path fill="none" stroke="#9a32cd" stroke-dasharray="5,2" d="M1287.69,-95.6089C1320.24,-97.5197 1359.87,-100.984 1395,-107.264 1520.29,-129.66 1665.03,-177.233 1724.19,-197.639"/>
<polygon fill="#9a32cd" stroke="#9a32cd" points="1287.56,-92.0966 1277.38,-95.0415 1287.17,-99.086 1287.56,-92.0966"/>
<text text-anchor="middle" x="1497" y="-155.264" font-family="Helvetica,sans-Serif" font-size="10.00"> m_cache</text>
</g>
<!-- Node14&#45;&gt;Node17 -->
<g id="edge31" class="edge"><title>Node14&#45;&gt;Node17</title>
<path fill="none" stroke="#9a32cd" stroke-dasharray="5,2" d="M1254.25,-113.491C1292.05,-136.127 1355.93,-173.293 1413,-201.264 1423.11,-206.22 1434.1,-211.156 1444.67,-215.692"/>
<polygon fill="#9a32cd" stroke="#9a32cd" points="1256.05,-110.49 1245.67,-108.339 1252.44,-116.49 1256.05,-110.49"/>
<text text-anchor="middle" x="1358.5" y="-194.264" font-family="Helvetica,sans-Serif" font-size="10.00"> m_cache</text>
</g>
<!-- Node15&#45;&gt;Node14 -->
<g id="edge22" class="edge"><title>Node15&#45;&gt;Node14</title>
<path fill="none" stroke="orange" stroke-dasharray="5,2" d="M1009.42,-51.9478C1041.85,-55.886 1082.23,-61.4382 1118,-68.264 1132.64,-71.0575 1148.33,-74.6468 1162.88,-78.229"/>
<polygon fill="orange" stroke="orange" points="1009.53,-48.4364 999.19,-50.7264 1008.7,-55.387 1009.53,-48.4364"/>
<text text-anchor="middle" x="1067.5" y="-71.264" font-family="Helvetica,sans-Serif" font-size="10.00"> &lt; stxxl::typed_block &gt;</text>
</g>
<!-- Node15&#45;&gt;Node16 -->
<g id="edge26" class="edge"><title>Node15&#45;&gt;Node16</title>
<path fill="none" stroke="orange" stroke-dasharray="5,2" d="M1009.26,-34.9824C1011.87,-34.7073 1014.46,-34.4651 1017,-34.264 1068.23,-30.2059 1126.98,-32.4299 1167.86,-35.0749"/>
<polygon fill="orange" stroke="orange" points="1008.65,-31.5304 999.137,-36.1897 1009.48,-38.4812 1008.65,-31.5304"/>
<text text-anchor="middle" x="1067.5" y="-37.264" font-family="Helvetica,sans-Serif" font-size="10.00"> &lt; int_type &gt;</text>
</g>
<!-- Node16&#45;&gt;Node2 -->
<g id="edge24" class="edge"><title>Node16&#45;&gt;Node2</title>
<path fill="none" stroke="#9a32cd" stroke-dasharray="5,2" d="M1282.63,-41.5143C1355.95,-45.9112 1481.01,-58.8992 1581,-97.264 1647.11,-122.627 1714.51,-175.974 1740.43,-197.726"/>
<polygon fill="#9a32cd" stroke="#9a32cd" points="1282.38,-37.9946 1272.2,-40.9259 1281.98,-44.9835 1282.38,-37.9946"/>
<text text-anchor="middle" x="1497" y="-100.264" font-family="Helvetica,sans-Serif" font-size="10.00"> m_slot_to_page</text>
</g>
<!-- Node16&#45;&gt;Node17 -->
<g id="edge32" class="edge"><title>Node16&#45;&gt;Node17</title>
<path fill="none" stroke="#9a32cd" stroke-dasharray="5,2" d="M1281.55,-57.8572C1289.27,-60.9675 1296.94,-64.4429 1304,-68.264 1348.88,-92.5441 1366.33,-96.0556 1395,-138.264 1411.36,-162.352 1393.69,-179.468 1413,-201.264 1417.98,-206.883 1424.01,-211.625 1430.52,-215.621"/>
<polygon fill="#9a32cd" stroke="#9a32cd" points="1282.73,-54.5612 1272.14,-54.2457 1280.22,-61.0965 1282.73,-54.5612"/>
<text text-anchor="middle" x="1358.5" y="-141.264" font-family="Helvetica,sans-Serif" font-size="10.00"> m_slot_to_page</text>
</g>
<!-- Node17&#45;&gt;Node2 -->
<g id="edge27" class="edge"><title>Node17&#45;&gt;Node2</title>
<path fill="none" stroke="orange" stroke-dasharray="5,2" d="M1590.99,-225.627C1622.07,-222.07 1656.09,-218.179 1684.77,-214.898"/>
<polygon fill="orange" stroke="orange" points="1590.54,-222.154 1581.01,-226.768 1591.34,-229.109 1590.54,-222.154"/>
<text text-anchor="middle" x="1633" y="-228.264" font-family="Helvetica,sans-Serif" font-size="10.00"> &lt; ValueType &gt;</text>
</g>
</g>
</svg>
