<?xml version="1.0" encoding="UTF-8" standalone="no"?>
<!DOCTYPE svg PUBLIC "-//W3C//DTD SVG 1.1//EN"
 "http://www.w3.org/Graphics/SVG/1.1/DTD/svg11.dtd">
<!-- Generated by graphviz version 2.26.3 (20100126.1600)
 -->
<!-- Title: stxxl::hash_map::hash_map_iterator_base&lt; HashMap &gt; Pages: 1 -->
<svg width="277pt" height="328pt"
 viewBox="0.00 0.00 277.00 328.00" xmlns="http://www.w3.org/2000/svg" xmlns:xlink="http://www.w3.org/1999/xlink">
<g id="graph1" class="graph" transform="scale(1 1) rotate(0) translate(4 324)">
<title>stxxl::hash_map::hash_map_iterator_base&lt; HashMap &gt;</title>
<!-- Node1 -->
<g id="node1" class="node"><title>Node1</title>
<polygon fill="#bfbfbf" stroke="black" points="8,-1 8,-35 170,-35 170,-1 8,-1"/>
<text text-anchor="start" x="16" y="-22" font-family="Helvetica,sans-Serif" font-size="10.00">stxxl::hash_map::hash</text>
<text text-anchor="middle" x="89" y="-9" font-family="Helvetica,sans-Serif" font-size="10.00">_map_iterator_base&lt; HashMap &gt;</text>
</g>
<!-- Node2 -->
<g id="node2" class="node"><title>Node2</title>
<a xlink:href="classstxxl_1_1hash__map_1_1buffered__reader.html" target="_top" xlink:title="Used to scan external memory with prefetching. ">
<polygon fill="none" stroke="black" points="5,-87 5,-121 173,-121 173,-87 5,-87"/>
<text text-anchor="start" x="13" y="-108" font-family="Helvetica,sans-Serif" font-size="10.00">stxxl::hash_map::buffered</text>
<text text-anchor="middle" x="89" y="-95" font-family="Helvetica,sans-Serif" font-size="10.00">_reader&lt; CacheType, BidIterator &gt;</text>
</a>
</g>
<!-- Node2&#45;&gt;Node1 -->
<g id="edge2" class="edge"><title>Node2&#45;&gt;Node1</title>
<path fill="none" stroke="#9a32cd" stroke-dasharray="5,2" d="M89,-76.342C89,-62.7741 89,-46.8607 89,-35.084"/>
<polygon fill="#9a32cd" stroke="#9a32cd" points="85.5001,-76.5966 89,-86.5966 92.5001,-76.5967 85.5001,-76.5966"/>
<text text-anchor="middle" x="107" y="-58.5" font-family="Helvetica,sans-Serif" font-size="10.00"> reader_</text>
</g>
<!-- Node3 -->
<g id="node4" class="node"><title>Node3</title>
<a xlink:href="classstxxl_1_1noncopyable.html" target="_top" xlink:title="stxxl::noncopyable">
<polygon fill="none" stroke="black" points="0,-205.5 0,-226.5 98,-226.5 98,-205.5 0,-205.5"/>
<text text-anchor="middle" x="49" y="-213.5" font-family="Helvetica,sans-Serif" font-size="10.00">stxxl::noncopyable</text>
</a>
</g>
<!-- Node3&#45;&gt;Node2 -->
<g id="edge4" class="edge"><title>Node3&#45;&gt;Node2</title>
<path fill="none" stroke="#8b1a1a" d="M56.2998,-195.56C63.9306,-174.194 75.7685,-141.048 82.9126,-121.045"/>
<polygon fill="#8b1a1a" stroke="#8b1a1a" points="52.9027,-194.666 52.8354,-205.261 59.4949,-197.021 52.9027,-194.666"/>
</g>
<!-- Node4 -->
<g id="node6" class="node"><title>Node4</title>
<a xlink:href="structstxxl_1_1choose__int__types.html" target="_top" xlink:title="stxxl::choose_int_types\l\&lt; my_pointer_size \&gt;">
<polygon fill="none" stroke="black" points="116,-199 116,-233 236,-233 236,-199 116,-199"/>
<text text-anchor="start" x="124" y="-220" font-family="Helvetica,sans-Serif" font-size="10.00">stxxl::choose_int_types</text>
<text text-anchor="middle" x="176" y="-207" font-family="Helvetica,sans-Serif" font-size="10.00">&lt; my_pointer_size &gt;</text>
</a>
</g>
<!-- Node4&#45;&gt;Node2 -->
<g id="edge6" class="edge"><title>Node4&#45;&gt;Node2</title>
<path fill="none" stroke="#9a32cd" stroke-dasharray="5,2" d="M156.607,-191.035C140.1,-169.784 116.824,-139.82 102.338,-121.17"/>
<polygon fill="#9a32cd" stroke="#9a32cd" points="153.888,-193.239 162.787,-198.99 159.416,-188.945 153.888,-193.239"/>
<text text-anchor="middle" x="185" y="-170.5" font-family="Helvetica,sans-Serif" font-size="10.00"> prefetch_pages_</text>
<text text-anchor="middle" x="185" y="-157.5" font-family="Helvetica,sans-Serif" font-size="10.00">i_value_</text>
<text text-anchor="middle" x="185" y="-144.5" font-family="Helvetica,sans-Serif" font-size="10.00">page_size_</text>
</g>
<!-- Node5 -->
<g id="node8" class="node"><title>Node5</title>
<a xlink:href="structstxxl_1_1choose__int__types.html" target="_top" xlink:title="stxxl::choose_int_types\l\&lt; PtrSize \&gt;">
<polygon fill="none" stroke="black" points="116,-285 116,-319 236,-319 236,-285 116,-285"/>
<text text-anchor="start" x="124" y="-306" font-family="Helvetica,sans-Serif" font-size="10.00">stxxl::choose_int_types</text>
<text text-anchor="middle" x="176" y="-293" font-family="Helvetica,sans-Serif" font-size="10.00">&lt; PtrSize &gt;</text>
</a>
</g>
<!-- Node5&#45;&gt;Node4 -->
<g id="edge8" class="edge"><title>Node5&#45;&gt;Node4</title>
<path fill="none" stroke="orange" stroke-dasharray="5,2" d="M176,-274.342C176,-260.774 176,-244.861 176,-233.084"/>
<polygon fill="orange" stroke="orange" points="172.5,-274.597 176,-284.597 179.5,-274.597 172.5,-274.597"/>
<text text-anchor="middle" x="222.5" y="-256.5" font-family="Helvetica,sans-Serif" font-size="10.00"> &lt; my_pointer_size &gt;</text>
</g>
</g>
</svg>
