<?xml version="1.0" encoding="UTF-8" standalone="no"?>
<!DOCTYPE svg PUBLIC "-//W3C//DTD SVG 1.1//EN"
 "http://www.w3.org/Graphics/SVG/1.1/DTD/svg11.dtd">
<!-- Generated by graphviz version 2.26.3 (20100126.1600)
 -->
<!-- Title: stxxl::state&lt; ValueType &gt; Pages: 1 -->
<svg width="246pt" height="176pt"
 viewBox="0.00 0.00 246.00 176.00" xmlns="http://www.w3.org/2000/svg" xmlns:xlink="http://www.w3.org/1999/xlink">
<g id="graph1" class="graph" transform="scale(1 1) rotate(0) translate(4 172)">
<title>stxxl::state&lt; ValueType &gt;</title>
<!-- Node1 -->
<g id="node1" class="node"><title>Node1</title>
<polygon fill="#bfbfbf" stroke="black" points="45,-86.5 45,-107.5 175,-107.5 175,-86.5 45,-86.5"/>
<text text-anchor="middle" x="110" y="-94.5" font-family="Helvetica,sans-Serif" font-size="10.00">stxxl::state&lt; ValueType &gt;</text>
</g>
<!-- Node3 -->
<g id="node5" class="node"><title>Node3</title>
<a xlink:href="classstxxl_1_1state.html" target="_top" xlink:title="stxxl::state\&lt; thread\l_state \&gt;">
<polygon fill="none" stroke="black" points="-0.5,-1 -0.5,-35 100.5,-35 100.5,-1 -0.5,-1"/>
<text text-anchor="start" x="7.5" y="-22" font-family="Helvetica,sans-Serif" font-size="10.00">stxxl::state&lt; thread</text>
<text text-anchor="middle" x="50" y="-9" font-family="Helvetica,sans-Serif" font-size="10.00">_state &gt;</text>
</a>
</g>
<!-- Node1&#45;&gt;Node3 -->
<g id="edge4" class="edge"><title>Node1&#45;&gt;Node3</title>
<path fill="none" stroke="orange" stroke-dasharray="5,2" d="M84.8252,-79.941C80.5432,-76.326 76.3912,-72.293 73,-68 65.3003,-58.2529 59.4895,-45.5115 55.6348,-35.3304"/>
<polygon fill="orange" stroke="orange" points="83.0099,-82.9629 93.0536,-86.3357 87.3054,-77.4358 83.0099,-82.9629"/>
<text text-anchor="middle" x="111" y="-58.5" font-family="Helvetica,sans-Serif" font-size="10.00"> &lt; thread_state &gt;</text>
</g>
<!-- Node4 -->
<g id="node7" class="node"><title>Node4</title>
<a xlink:href="classstxxl_1_1state.html" target="_top" xlink:title="stxxl::state\&lt; request\l_state \&gt;">
<polygon fill="none" stroke="black" points="117.5,-1 117.5,-35 224.5,-35 224.5,-1 117.5,-1"/>
<text text-anchor="start" x="125.5" y="-22" font-family="Helvetica,sans-Serif" font-size="10.00">stxxl::state&lt; request</text>
<text text-anchor="middle" x="171" y="-9" font-family="Helvetica,sans-Serif" font-size="10.00">_state &gt;</text>
</a>
</g>
<!-- Node1&#45;&gt;Node4 -->
<g id="edge6" class="edge"><title>Node1&#45;&gt;Node4</title>
<path fill="none" stroke="orange" stroke-dasharray="5,2" d="M136.522,-80.2293C141.061,-76.5749 145.45,-72.4537 149,-68 156.685,-58.3591 162.238,-45.6161 165.843,-35.4076"/>
<polygon fill="orange" stroke="orange" points="134.302,-77.5175 128.338,-86.2742 138.461,-83.148 134.302,-77.5175"/>
<text text-anchor="middle" x="197.5" y="-58.5" font-family="Helvetica,sans-Serif" font-size="10.00"> &lt; request_state &gt;</text>
</g>
<!-- Node2 -->
<g id="node2" class="node"><title>Node2</title>
<a xlink:href="classstxxl_1_1noncopyable.html" target="_top" xlink:title="stxxl::noncopyable">
<polygon fill="none" stroke="black" points="61,-146.5 61,-167.5 159,-167.5 159,-146.5 61,-146.5"/>
<text text-anchor="middle" x="110" y="-154.5" font-family="Helvetica,sans-Serif" font-size="10.00">stxxl::noncopyable</text>
</a>
</g>
<!-- Node2&#45;&gt;Node1 -->
<g id="edge2" class="edge"><title>Node2&#45;&gt;Node1</title>
<path fill="none" stroke="#8b1a1a" d="M110,-136.231C110,-126.592 110,-115.544 110,-107.634"/>
<polygon fill="#8b1a1a" stroke="#8b1a1a" points="106.5,-136.273 110,-146.273 113.5,-136.273 106.5,-136.273"/>
</g>
</g>
</svg>
