<?xml version="1.0" encoding="UTF-8" standalone="no"?>
<!DOCTYPE svg PUBLIC "-//W3C//DTD SVG 1.1//EN"
 "http://www.w3.org/Graphics/SVG/1.1/DTD/svg11.dtd">
<!-- Generated by graphviz version 2.26.3 (20100126.1600)
 -->
<!-- Title: stxxl::stream::runs_merger&lt; RunsType, CompareType, AllocStr &gt; Pages: 1 -->
<svg width="1310pt" height="379pt"
 viewBox="0.00 0.00 1310.00 379.00" xmlns="http://www.w3.org/2000/svg" xmlns:xlink="http://www.w3.org/1999/xlink">
<g id="graph1" class="graph" transform="scale(1 1) rotate(0) translate(4 375)">
<title>stxxl::stream::runs_merger&lt; RunsType, CompareType, AllocStr &gt;</title>
<!-- Node1 -->
<g id="node1" class="node"><title>Node1</title>
<polygon fill="#bfbfbf" stroke="black" points="1150,-262.5 1150,-309.5 1302,-309.5 1302,-262.5 1150,-262.5"/>
<text text-anchor="start" x="1158" y="-296.5" font-family="Helvetica,sans-Serif" font-size="10.00">stxxl::stream::runs</text>
<text text-anchor="start" x="1158" y="-283.5" font-family="Helvetica,sans-Serif" font-size="10.00">_merger&lt; RunsType, Compare</text>
<text text-anchor="middle" x="1226" y="-270.5" font-family="Helvetica,sans-Serif" font-size="10.00">Type, AllocStr &gt;</text>
</g>
<!-- Node2 -->
<g id="node2" class="node"><title>Node2</title>
<a xlink:href="classstxxl_1_1stream_1_1basic__runs__merger.html" target="_top" xlink:title="Merges sorted runs. ">
<polygon fill="none" stroke="black" points="978.5,-262.5 978.5,-309.5 1111.5,-309.5 1111.5,-262.5 978.5,-262.5"/>
<text text-anchor="start" x="986.5" y="-296.5" font-family="Helvetica,sans-Serif" font-size="10.00">stxxl::stream::basic</text>
<text text-anchor="start" x="986.5" y="-283.5" font-family="Helvetica,sans-Serif" font-size="10.00">_runs_merger&lt; RunsType,</text>
<text text-anchor="middle" x="1045" y="-270.5" font-family="Helvetica,sans-Serif" font-size="10.00"> CompareType, AllocStr &gt;</text>
</a>
</g>
<!-- Node2&#45;&gt;Node1 -->
<g id="edge2" class="edge"><title>Node2&#45;&gt;Node1</title>
<path fill="none" stroke="midnightblue" d="M1121.92,-286C1131.13,-286 1140.53,-286 1149.73,-286"/>
<polygon fill="midnightblue" stroke="midnightblue" points="1121.63,-282.5 1111.63,-286 1121.63,-289.5 1121.63,-282.5"/>
</g>
<!-- Node3 -->
<g id="node4" class="node"><title>Node3</title>
<a xlink:href="classstxxl_1_1noncopyable.html" target="_top" xlink:title="stxxl::noncopyable">
<polygon fill="none" stroke="black" points="6,-170.5 6,-191.5 104,-191.5 104,-170.5 6,-170.5"/>
<text text-anchor="middle" x="55" y="-178.5" font-family="Helvetica,sans-Serif" font-size="10.00">stxxl::noncopyable</text>
</a>
</g>
<!-- Node3&#45;&gt;Node2 -->
<g id="edge4" class="edge"><title>Node3&#45;&gt;Node2</title>
<path fill="none" stroke="#8b1a1a" d="M66.6681,-200.396C97.4233,-248.791 185.89,-371 295,-371 295,-371 295,-371 798,-371 873.735,-371 955.771,-334.828 1003.66,-309.677"/>
<polygon fill="#8b1a1a" stroke="#8b1a1a" points="69.5505,-198.403 61.2976,-191.76 63.6061,-202.1 69.5505,-198.403"/>
</g>
<!-- Node4 -->
<g id="node6" class="node"><title>Node4</title>
<a xlink:href="classstxxl_1_1block__prefetcher.html" target="_top" xlink:title="Encapsulates asynchronous prefetching engine. ">
<polygon fill="none" stroke="black" points="721,-146 721,-180 875,-180 875,-146 721,-146"/>
<text text-anchor="start" x="729" y="-167" font-family="Helvetica,sans-Serif" font-size="10.00">stxxl::block_prefetcher</text>
<text text-anchor="middle" x="798" y="-154" font-family="Helvetica,sans-Serif" font-size="10.00">&lt; BlockType, BidIteratorType &gt;</text>
</a>
</g>
<!-- Node3&#45;&gt;Node4 -->
<g id="edge8" class="edge"><title>Node3&#45;&gt;Node4</title>
<path fill="none" stroke="#8b1a1a" d="M114.343,-180.721C144.743,-180.556 182.35,-180.316 216,-180 392.895,-178.34 437.231,-181.87 614,-175 649.027,-173.639 687.754,-171.247 720.606,-168.954"/>
<polygon fill="#8b1a1a" stroke="#8b1a1a" points="114.306,-177.221 104.325,-180.775 114.344,-184.221 114.306,-177.221"/>
</g>
<!-- Node7 -->
<g id="node13" class="node"><title>Node7</title>
<a xlink:href="classstxxl_1_1onoff__switch.html" target="_top" xlink:title="stxxl::onoff_switch">
<polygon fill="none" stroke="black" points="500.5,-92.5 500.5,-113.5 599.5,-113.5 599.5,-92.5 500.5,-92.5"/>
<text text-anchor="middle" x="550" y="-100.5" font-family="Helvetica,sans-Serif" font-size="10.00">stxxl::onoff_switch</text>
</a>
</g>
<!-- Node3&#45;&gt;Node7 -->
<g id="edge16" class="edge"><title>Node3&#45;&gt;Node7</title>
<path fill="none" stroke="#8b1a1a" d="M76.6823,-164.297C90.7528,-154.011 109.796,-141.099 128,-132 172.634,-109.691 184.803,-103.34 234,-95 327.064,-79.2245 437.721,-88.2586 500.319,-95.8858"/>
<polygon fill="#8b1a1a" stroke="#8b1a1a" points="74.5457,-161.524 68.616,-170.304 78.7267,-167.138 74.5457,-161.524"/>
</g>
<!-- Node8 -->
<g id="node16" class="node"><title>Node8</title>
<a xlink:href="classstxxl_1_1mutex.html" target="_top" xlink:title="stxxl::mutex">
<polygon fill="none" stroke="black" points="259.5,-144.5 259.5,-165.5 330.5,-165.5 330.5,-144.5 259.5,-144.5"/>
<text text-anchor="middle" x="295" y="-152.5" font-family="Helvetica,sans-Serif" font-size="10.00">stxxl::mutex</text>
</a>
</g>
<!-- Node3&#45;&gt;Node8 -->
<g id="edge20" class="edge"><title>Node3&#45;&gt;Node8</title>
<path fill="none" stroke="#8b1a1a" d="M114.172,-174.59C159.627,-169.665 220.914,-163.026 259.183,-158.88"/>
<polygon fill="#8b1a1a" stroke="#8b1a1a" points="113.712,-171.119 104.147,-175.676 114.466,-178.078 113.712,-171.119"/>
</g>
<!-- Node9 -->
<g id="node19" class="node"><title>Node9</title>
<a xlink:href="classstxxl_1_1condition__variable.html" target="_top" xlink:title="stxxl::condition_variable">
<polygon fill="none" stroke="black" points="234,-104.5 234,-125.5 356,-125.5 356,-104.5 234,-104.5"/>
<text text-anchor="middle" x="295" y="-112.5" font-family="Helvetica,sans-Serif" font-size="10.00">stxxl::condition_variable</text>
</a>
</g>
<!-- Node3&#45;&gt;Node9 -->
<g id="edge24" class="edge"><title>Node3&#45;&gt;Node9</title>
<path fill="none" stroke="#8b1a1a" d="M101.192,-167.584C110.081,-165.039 119.324,-162.417 128,-160 171.389,-147.914 221.266,-134.542 255.132,-125.54"/>
<polygon fill="#8b1a1a" stroke="#8b1a1a" points="99.9992,-164.285 91.3547,-170.411 101.932,-171.013 99.9992,-164.285"/>
</g>
<!-- Node14 -->
<g id="node31" class="node"><title>Node14</title>
<a xlink:href="classstxxl_1_1loser__tree.html" target="_top" xlink:title="stxxl::loser_tree\&lt;\l RunCursorType, RunCursorCmp\lType \&gt;">
<polygon fill="none" stroke="black" points="716.5,-295.5 716.5,-342.5 879.5,-342.5 879.5,-295.5 716.5,-295.5"/>
<text text-anchor="start" x="724.5" y="-329.5" font-family="Helvetica,sans-Serif" font-size="10.00">stxxl::loser_tree&lt;</text>
<text text-anchor="start" x="724.5" y="-316.5" font-family="Helvetica,sans-Serif" font-size="10.00"> RunCursorType, RunCursorCmp</text>
<text text-anchor="middle" x="798" y="-303.5" font-family="Helvetica,sans-Serif" font-size="10.00">Type &gt;</text>
</a>
</g>
<!-- Node3&#45;&gt;Node14 -->
<g id="edge38" class="edge"><title>Node3&#45;&gt;Node14</title>
<path fill="none" stroke="#8b1a1a" d="M75.4174,-198.197C107.023,-223.652 170.77,-270.452 234,-290 399.33,-341.114 604.781,-335.531 716.44,-327.135"/>
<polygon fill="#8b1a1a" stroke="#8b1a1a" points="77.3384,-195.247 67.3822,-191.624 72.9061,-200.665 77.3384,-195.247"/>
</g>
<!-- Node4&#45;&gt;Node2 -->
<g id="edge6" class="edge"><title>Node4&#45;&gt;Node2</title>
<path fill="none" stroke="#9a32cd" stroke-dasharray="5,2" d="M847.378,-184.106C879.77,-198.304 922.849,-217.861 960,-237 975.142,-244.801 991.424,-253.984 1005.65,-262.279"/>
<polygon fill="#9a32cd" stroke="#9a32cd" points="848.68,-180.855 838.114,-180.063 845.88,-187.271 848.68,-180.855"/>
<text text-anchor="middle" x="929" y="-241" font-family="Helvetica,sans-Serif" font-size="10.00"> m_prefetcher</text>
</g>
<!-- Node5 -->
<g id="node9" class="node"><title>Node5</title>
<a xlink:href="structstxxl_1_1choose__int__types.html" target="_top" xlink:title="stxxl::choose_int_types\l\&lt; my_pointer_size \&gt;">
<polygon fill="none" stroke="black" points="490,-247 490,-281 610,-281 610,-247 490,-247"/>
<text text-anchor="start" x="498" y="-268" font-family="Helvetica,sans-Serif" font-size="10.00">stxxl::choose_int_types</text>
<text text-anchor="middle" x="550" y="-255" font-family="Helvetica,sans-Serif" font-size="10.00">&lt; my_pointer_size &gt;</text>
</a>
</g>
<!-- Node5&#45;&gt;Node2 -->
<g id="edge34" class="edge"><title>Node5&#45;&gt;Node2</title>
<path fill="none" stroke="#9a32cd" stroke-dasharray="5,2" d="M620.664,-264.878C687.513,-265.957 790.633,-268.264 880,-273 912.425,-274.718 948.373,-277.453 978.416,-279.971"/>
<polygon fill="#9a32cd" stroke="#9a32cd" points="620.308,-261.372 610.255,-264.715 620.199,-268.371 620.308,-261.372"/>
<text text-anchor="middle" x="798" y="-277" font-family="Helvetica,sans-Serif" font-size="10.00"> m_memory_to_use</text>
</g>
<!-- Node5&#45;&gt;Node4 -->
<g id="edge10" class="edge"><title>Node5&#45;&gt;Node4</title>
<path fill="none" stroke="#9a32cd" stroke-dasharray="5,2" d="M580.943,-240.93C595.798,-230.673 614.206,-219.11 632,-211 650.017,-202.788 693.588,-190.283 731.571,-180.096"/>
<polygon fill="#9a32cd" stroke="#9a32cd" points="578.796,-238.161 572.638,-246.783 582.828,-243.883 578.796,-238.161"/>
<text text-anchor="middle" x="665" y="-241" font-family="Helvetica,sans-Serif" font-size="10.00"> seq_length</text>
<text text-anchor="middle" x="665" y="-228" font-family="Helvetica,sans-Serif" font-size="10.00">nextconsume</text>
<text text-anchor="middle" x="665" y="-215" font-family="Helvetica,sans-Serif" font-size="10.00">nextread</text>
</g>
<!-- Node5&#45;&gt;Node14 -->
<g id="edge40" class="edge"><title>Node5&#45;&gt;Node14</title>
<path fill="none" stroke="#9a32cd" stroke-dasharray="5,2" d="M619.957,-279.515C649.844,-286.143 684.938,-293.926 716.033,-300.822"/>
<polygon fill="#9a32cd" stroke="#9a32cd" points="620.555,-276.062 610.034,-277.314 619.039,-282.896 620.555,-276.062"/>
<text text-anchor="middle" x="665" y="-300" font-family="Helvetica,sans-Serif" font-size="10.00"> k</text>
</g>
<!-- Node6 -->
<g id="node11" class="node"><title>Node6</title>
<a xlink:href="structstxxl_1_1choose__int__types.html" target="_top" xlink:title="stxxl::choose_int_types\l\&lt; PtrSize \&gt;">
<polygon fill="none" stroke="black" points="235,-247 235,-281 355,-281 355,-247 235,-247"/>
<text text-anchor="start" x="243" y="-268" font-family="Helvetica,sans-Serif" font-size="10.00">stxxl::choose_int_types</text>
<text text-anchor="middle" x="295" y="-255" font-family="Helvetica,sans-Serif" font-size="10.00">&lt; PtrSize &gt;</text>
</a>
</g>
<!-- Node6&#45;&gt;Node5 -->
<g id="edge12" class="edge"><title>Node6&#45;&gt;Node5</title>
<path fill="none" stroke="orange" stroke-dasharray="5,2" d="M365.354,-264C404.432,-264 452.541,-264 489.854,-264"/>
<polygon fill="orange" stroke="orange" points="365.109,-260.5 355.109,-264 365.109,-267.5 365.109,-260.5"/>
<text text-anchor="middle" x="421" y="-268" font-family="Helvetica,sans-Serif" font-size="10.00"> &lt; my_pointer_size &gt;</text>
</g>
<!-- Node7&#45;&gt;Node4 -->
<g id="edge14" class="edge"><title>Node7&#45;&gt;Node4</title>
<path fill="none" stroke="#9a32cd" stroke-dasharray="5,2" d="M609.818,-111.977C636.928,-116.541 669.274,-122.677 698,-130 715.45,-134.448 734.276,-140.359 750.836,-145.948"/>
<polygon fill="#9a32cd" stroke="#9a32cd" points="610.14,-108.483 599.703,-110.306 608.999,-115.39 610.14,-108.483"/>
<text text-anchor="middle" x="665" y="-134" font-family="Helvetica,sans-Serif" font-size="10.00"> completed</text>
</g>
<!-- Node8&#45;&gt;Node7 -->
<g id="edge18" class="edge"><title>Node8&#45;&gt;Node7</title>
<path fill="none" stroke="#9a32cd" stroke-dasharray="5,2" d="M340.676,-149.66C375.75,-145.129 425.256,-137.8 468,-128 472.932,-126.869 495.767,-119.884 516.09,-113.584"/>
<polygon fill="#9a32cd" stroke="#9a32cd" points="340.213,-146.19 330.732,-150.919 341.092,-153.135 340.213,-146.19"/>
<text text-anchor="middle" x="421" y="-149" font-family="Helvetica,sans-Serif" font-size="10.00"> m_mutex</text>
</g>
<!-- Node9&#45;&gt;Node7 -->
<g id="edge22" class="edge"><title>Node9&#45;&gt;Node7</title>
<path fill="none" stroke="#9a32cd" stroke-dasharray="5,2" d="M366.118,-111.653C408.756,-109.647 461.93,-107.144 500.113,-105.348"/>
<polygon fill="#9a32cd" stroke="#9a32cd" points="365.903,-108.159 356.079,-112.126 366.232,-115.152 365.903,-108.159"/>
<text text-anchor="middle" x="421" y="-115" font-family="Helvetica,sans-Serif" font-size="10.00"> m_cond</text>
</g>
<!-- Node10 -->
<g id="node22" class="node"><title>Node10</title>
<a xlink:href="classstxxl_1_1counting__ptr.html" target="_top" xlink:title="High&#45;performance smart pointer used as a wrapping reference counting pointer. ">
<polygon fill="none" stroke="black" points="501.5,-132 501.5,-166 598.5,-166 598.5,-132 501.5,-132"/>
<text text-anchor="start" x="509.5" y="-153" font-family="Helvetica,sans-Serif" font-size="10.00">stxxl::counting_ptr</text>
<text text-anchor="middle" x="550" y="-140" font-family="Helvetica,sans-Serif" font-size="10.00">&lt; Type &gt;</text>
</a>
</g>
<!-- Node10&#45;&gt;Node4 -->
<g id="edge26" class="edge"><title>Node10&#45;&gt;Node4</title>
<path fill="none" stroke="#9a32cd" stroke-dasharray="5,2" d="M608.841,-147.746C636.009,-147.59 668.676,-148.002 698,-150 705.423,-150.506 713.138,-151.202 720.843,-152.011"/>
<polygon fill="#9a32cd" stroke="#9a32cd" points="608.687,-144.247 598.716,-147.831 608.746,-151.247 608.687,-144.247"/>
<text text-anchor="middle" x="665" y="-154" font-family="Helvetica,sans-Serif" font-size="10.00"> read_reqs</text>
</g>
<!-- Node11 -->
<g id="node24" class="node"><title>Node11</title>
<a xlink:href="classstxxl_1_1completion__handler.html" target="_top" xlink:title="Completion handler class (Loki&#45;style). ">
<polygon fill="none" stroke="black" points="486,-38.5 486,-59.5 614,-59.5 614,-38.5 486,-38.5"/>
<text text-anchor="middle" x="550" y="-46.5" font-family="Helvetica,sans-Serif" font-size="10.00">stxxl::completion_handler</text>
</a>
</g>
<!-- Node11&#45;&gt;Node4 -->
<g id="edge28" class="edge"><title>Node11&#45;&gt;Node4</title>
<path fill="none" stroke="#9a32cd" stroke-dasharray="5,2" d="M599.285,-62.3609C628.648,-71.1208 666.258,-83.7625 698,-99 725.687,-112.291 755.021,-131.791 774.705,-145.77"/>
<polygon fill="#9a32cd" stroke="#9a32cd" points="600.245,-58.9949 589.664,-59.5408 598.276,-65.7123 600.245,-58.9949"/>
<text text-anchor="middle" x="665" y="-103" font-family="Helvetica,sans-Serif" font-size="10.00"> do_after_fetch</text>
</g>
<!-- Node12 -->
<g id="node26" class="node"><title>Node12</title>
<a xlink:href="structstxxl_1_1compat__unique__ptr.html" target="_top" xlink:title="stxxl::compat_unique\l_ptr\&lt; stxxl::completion\l_handler_impl \&gt;">
<polygon fill="none" stroke="black" points="237,-0.5 237,-47.5 353,-47.5 353,-0.5 237,-0.5"/>
<text text-anchor="start" x="245" y="-34.5" font-family="Helvetica,sans-Serif" font-size="10.00">stxxl::compat_unique</text>
<text text-anchor="start" x="245" y="-21.5" font-family="Helvetica,sans-Serif" font-size="10.00">_ptr&lt; stxxl::completion</text>
<text text-anchor="middle" x="295" y="-8.5" font-family="Helvetica,sans-Serif" font-size="10.00">_handler_impl &gt;</text>
</a>
</g>
<!-- Node12&#45;&gt;Node11 -->
<g id="edge30" class="edge"><title>Node12&#45;&gt;Node11</title>
<path fill="none" stroke="#9a32cd" stroke-dasharray="5,2" d="M363.158,-30.6821C401.23,-34.4147 448.388,-39.038 485.801,-42.706"/>
<polygon fill="#9a32cd" stroke="#9a32cd" points="363.476,-27.1967 353.183,-29.7042 362.793,-34.1633 363.476,-27.1967"/>
<text text-anchor="middle" x="421" y="-44" font-family="Helvetica,sans-Serif" font-size="10.00"> m_ptr</text>
</g>
<!-- Node13 -->
<g id="node28" class="node"><title>Node13</title>
<a xlink:href="structstxxl_1_1compat__unique__ptr.html" target="_top" xlink:title="stxxl::compat_unique\l_ptr\&lt; Type \&gt;">
<polygon fill="none" stroke="black" points="0,-7 0,-41 110,-41 110,-7 0,-7"/>
<text text-anchor="start" x="8" y="-28" font-family="Helvetica,sans-Serif" font-size="10.00">stxxl::compat_unique</text>
<text text-anchor="middle" x="55" y="-15" font-family="Helvetica,sans-Serif" font-size="10.00">_ptr&lt; Type &gt;</text>
</a>
</g>
<!-- Node13&#45;&gt;Node12 -->
<g id="edge32" class="edge"><title>Node13&#45;&gt;Node12</title>
<path fill="none" stroke="orange" stroke-dasharray="5,2" d="M120.096,-24C156.538,-24 201.593,-24 236.848,-24"/>
<polygon fill="orange" stroke="orange" points="120.061,-20.5001 110.061,-24 120.061,-27.5001 120.061,-20.5001"/>
<text text-anchor="start" x="128.5" y="-41" font-family="Helvetica,sans-Serif" font-size="10.00"> &lt; stxxl::completion</text>
<text text-anchor="middle" x="172" y="-28" font-family="Helvetica,sans-Serif" font-size="10.00">_handler_impl &gt;</text>
</g>
<!-- Node14&#45;&gt;Node2 -->
<g id="edge36" class="edge"><title>Node14&#45;&gt;Node2</title>
<path fill="none" stroke="#9a32cd" stroke-dasharray="5,2" d="M889.829,-306.731C919.194,-302.808 951.12,-298.543 978.336,-294.906"/>
<polygon fill="#9a32cd" stroke="#9a32cd" points="889.01,-303.31 879.562,-308.103 889.937,-310.248 889.01,-303.31"/>
<text text-anchor="middle" x="929" y="-309" font-family="Helvetica,sans-Serif" font-size="10.00"> m_losers</text>
</g>
</g>
</svg>
