<?xml version="1.0" encoding="UTF-8" standalone="no"?>
<!DOCTYPE svg PUBLIC "-//W3C//DTD SVG 1.1//EN"
 "http://www.w3.org/Graphics/SVG/1.1/DTD/svg11.dtd">
<!-- Generated by graphviz version 2.38.0 (20140413.2041)
 -->
<!-- Title: stxxl::parallel::LoserTreeCopyUnguarded&lt; true, ValueType, Comparator &gt; Pages: 1 -->
<svg width="176pt" height="184pt"
 viewBox="0.00 0.00 176.00 184.00" xmlns="http://www.w3.org/2000/svg" xmlns:xlink="http://www.w3.org/1999/xlink">
<g id="graph0" class="graph" transform="scale(1 1) rotate(0) translate(4 180)">
<title>stxxl::parallel::LoserTreeCopyUnguarded&lt; true, ValueType, Comparator &gt;</title>
<!-- Node1 -->
<g id="node1" class="node"><title>Node1</title>
<polygon fill="#bfbfbf" stroke="black" points="-1.42109e-14,-0.5 -1.42109e-14,-41.5 168,-41.5 168,-0.5 -1.42109e-14,-0.5"/>
<text text-anchor="start" x="8" y="-29.5" font-family="Helvetica,sans-Serif" font-size="10.00">stxxl::parallel::LoserTree</text>
<text text-anchor="start" x="8" y="-18.5" font-family="Helvetica,sans-Serif" font-size="10.00">CopyUnguarded&lt; true, ValueType,</text>
<text text-anchor="middle" x="84" y="-7.5" font-family="Helvetica,sans-Serif" font-size="10.00"> Comparator &gt;</text>
</g>
<!-- Node2 -->
<g id="node2" class="node"><title>Node2</title>
<g id="a_node2"><a xlink:href="classstxxl_1_1parallel_1_1LoserTreeCopyUnguardedBase.html" target="_top" xlink:title="stxxl::parallel::LoserTree\lCopyUnguardedBase\&lt; ValueType,\l Comparator \&gt;">
<polygon fill="none" stroke="black" points="-1.42109e-14,-78.5 -1.42109e-14,-119.5 168,-119.5 168,-78.5 -1.42109e-14,-78.5"/>
<text text-anchor="start" x="8" y="-107.5" font-family="Helvetica,sans-Serif" font-size="10.00">stxxl::parallel::LoserTree</text>
<text text-anchor="start" x="8" y="-96.5" font-family="Helvetica,sans-Serif" font-size="10.00">CopyUnguardedBase&lt; ValueType,</text>
<text text-anchor="middle" x="84" y="-85.5" font-family="Helvetica,sans-Serif" font-size="10.00"> Comparator &gt;</text>
</a>
</g>
</g>
<!-- Node2&#45;&gt;Node1 -->
<g id="edge1" class="edge"><title>Node2&#45;&gt;Node1</title>
<path fill="none" stroke="midnightblue" d="M84,-68.2965C84,-59.3009 84,-49.6532 84,-41.5056"/>
<polygon fill="midnightblue" stroke="midnightblue" points="80.5001,-68.4281 84,-78.4281 87.5001,-68.4281 80.5001,-68.4281"/>
</g>
<!-- Node3 -->
<g id="node3" class="node"><title>Node3</title>
<g id="a_node3"><a xlink:href="classstxxl_1_1noncopyable.html" target="_top" xlink:title="stxxl::noncopyable">
<polygon fill="none" stroke="black" points="35,-156.5 35,-175.5 133,-175.5 133,-156.5 35,-156.5"/>
<text text-anchor="middle" x="84" y="-163.5" font-family="Helvetica,sans-Serif" font-size="10.00">stxxl::noncopyable</text>
</a>
</g>
</g>
<!-- Node3&#45;&gt;Node2 -->
<g id="edge2" class="edge"><title>Node3&#45;&gt;Node2</title>
<path fill="none" stroke="#8b1a1a" d="M84,-146.037C84,-137.708 84,-127.936 84,-119.542"/>
<polygon fill="#8b1a1a" stroke="#8b1a1a" points="80.5001,-146.234 84,-156.234 87.5001,-146.234 80.5001,-146.234"/>
</g>
</g>
</svg>
