<?xml version="1.0" encoding="UTF-8" standalone="no"?>
<!DOCTYPE svg PUBLIC "-//W3C//DTD SVG 1.1//EN"
 "http://www.w3.org/Graphics/SVG/1.1/DTD/svg11.dtd">
<!-- Generated by graphviz version 2.26.3 (20100126.1600)
 -->
<!-- Title: stxxl::file Pages: 1 -->
<svg width="502pt" height="322pt"
 viewBox="0.00 0.00 502.00 322.00" xmlns="http://www.w3.org/2000/svg" xmlns:xlink="http://www.w3.org/1999/xlink">
<g id="graph1" class="graph" transform="scale(1 1) rotate(0) translate(4 318)">
<title>stxxl::file</title>
<!-- Node1 -->
<g id="node1" class="node"><title>Node1</title>
<polygon fill="#bfbfbf" stroke="black" points="134,-149.5 134,-170.5 190,-170.5 190,-149.5 134,-149.5"/>
<text text-anchor="middle" x="162" y="-157.5" font-family="Helvetica,sans-Serif" font-size="10.00">stxxl::file</text>
</g>
<!-- Node3 -->
<g id="node5" class="node"><title>Node3</title>
<a xlink:href="classstxxl_1_1disk__queued__file.html" target="_top" xlink:title="Implementation of some file methods based on serving_request. ">
<polygon fill="none" stroke="black" points="226,-149.5 226,-170.5 342,-170.5 342,-149.5 226,-149.5"/>
<text text-anchor="middle" x="284" y="-157.5" font-family="Helvetica,sans-Serif" font-size="10.00">stxxl::disk_queued_file</text>
</a>
</g>
<!-- Node1&#45;&gt;Node3 -->
<g id="edge4" class="edge"><title>Node1&#45;&gt;Node3</title>
<path fill="none" stroke="midnightblue" d="M200.408,-160C208.407,-160 217.01,-160 225.546,-160"/>
<polygon fill="midnightblue" stroke="midnightblue" points="200.296,-156.5 190.296,-160 200.296,-163.5 200.296,-156.5"/>
</g>
<!-- Node12 -->
<g id="node23" class="node"><title>Node12</title>
<a xlink:href="classstxxl_1_1ufs__file__base.html" target="_top" xlink:title="Base for UNIX file system implementations. ">
<polygon fill="none" stroke="black" points="233.5,-212.5 233.5,-233.5 334.5,-233.5 334.5,-212.5 233.5,-212.5"/>
<text text-anchor="middle" x="284" y="-220.5" font-family="Helvetica,sans-Serif" font-size="10.00">stxxl::ufs_file_base</text>
</a>
</g>
<!-- Node1&#45;&gt;Node12 -->
<g id="edge22" class="edge"><title>Node1&#45;&gt;Node12</title>
<path fill="none" stroke="midnightblue" d="M191.446,-175.206C213.736,-186.716 243.785,-202.233 263.513,-212.421"/>
<polygon fill="midnightblue" stroke="midnightblue" points="192.911,-172.023 182.42,-170.545 189.699,-178.243 192.911,-172.023"/>
</g>
<!-- Node13 -->
<g id="node29" class="node"><title>Node13</title>
<a xlink:href="classstxxl_1_1wfs__file__base.html" target="_top" xlink:title="Base for Windows file system implementations. ">
<polygon fill="none" stroke="black" points="232,-66.5 232,-87.5 336,-87.5 336,-66.5 232,-66.5"/>
<text text-anchor="middle" x="284" y="-74.5" font-family="Helvetica,sans-Serif" font-size="10.00">stxxl::wfs_file_base</text>
</a>
</g>
<!-- Node1&#45;&gt;Node13 -->
<g id="edge32" class="edge"><title>Node1&#45;&gt;Node13</title>
<path fill="none" stroke="midnightblue" d="M185.797,-143.81C210.171,-127.228 247.367,-101.923 268.289,-87.6888"/>
<polygon fill="midnightblue" stroke="midnightblue" points="183.751,-140.969 177.451,-149.488 187.688,-146.757 183.751,-140.969"/>
</g>
<!-- Node2 -->
<g id="node2" class="node"><title>Node2</title>
<a xlink:href="classstxxl_1_1noncopyable.html" target="_top" xlink:title="stxxl::noncopyable">
<polygon fill="none" stroke="black" points="0,-149.5 0,-170.5 98,-170.5 98,-149.5 0,-149.5"/>
<text text-anchor="middle" x="49" y="-157.5" font-family="Helvetica,sans-Serif" font-size="10.00">stxxl::noncopyable</text>
</a>
</g>
<!-- Node2&#45;&gt;Node1 -->
<g id="edge2" class="edge"><title>Node2&#45;&gt;Node1</title>
<path fill="none" stroke="#8b1a1a" d="M108.243,-160C117.114,-160 125.895,-160 133.709,-160"/>
<polygon fill="#8b1a1a" stroke="#8b1a1a" points="108.235,-156.5 98.2347,-160 108.235,-163.5 108.235,-156.5"/>
</g>
<!-- Node4 -->
<g id="node7" class="node"><title>Node4</title>
<a xlink:href="classstxxl_1_1fileperblock__file.html" target="_top" xlink:title="Implementation of file based on other files, dynamically allocate one file per block. Allows for dynamic disk space consumption. ">
<polygon fill="none" stroke="black" points="378,-120 378,-154 494,-154 494,-120 378,-120"/>
<text text-anchor="start" x="386" y="-141" font-family="Helvetica,sans-Serif" font-size="10.00">stxxl::fileperblock</text>
<text text-anchor="middle" x="436" y="-128" font-family="Helvetica,sans-Serif" font-size="10.00">_file&lt; base_file_type &gt;</text>
</a>
</g>
<!-- Node3&#45;&gt;Node4 -->
<g id="edge6" class="edge"><title>Node3&#45;&gt;Node4</title>
<path fill="none" stroke="midnightblue" d="M352.264,-149.671C360.798,-148.379 369.463,-147.068 377.824,-145.803"/>
<polygon fill="midnightblue" stroke="midnightblue" points="351.696,-146.217 342.332,-151.173 352.744,-153.138 351.696,-146.217"/>
</g>
<!-- Node5 -->
<g id="node9" class="node"><title>Node5</title>
<a xlink:href="classstxxl_1_1linuxaio__file.html" target="_top" xlink:title="Implementation of file based on the Linux kernel interface for asynchronous I/O. ">
<polygon fill="none" stroke="black" points="388.5,-212.5 388.5,-233.5 483.5,-233.5 483.5,-212.5 388.5,-212.5"/>
<text text-anchor="middle" x="436" y="-220.5" font-family="Helvetica,sans-Serif" font-size="10.00">stxxl::linuxaio_file</text>
</a>
</g>
<!-- Node3&#45;&gt;Node5 -->
<g id="edge8" class="edge"><title>Node3&#45;&gt;Node5</title>
<path fill="none" stroke="midnightblue" d="M314.646,-174.931C332.863,-183.576 356.532,-194.412 378,-203 386.208,-206.284 395.191,-209.54 403.583,-212.443"/>
<polygon fill="midnightblue" stroke="midnightblue" points="315.928,-171.665 305.397,-170.508 312.908,-177.98 315.928,-171.665"/>
</g>
<!-- Node6 -->
<g id="node11" class="node"><title>Node6</title>
<a xlink:href="classstxxl_1_1mem__file.html" target="_top" xlink:title="Implementation of file based on new[] and memcpy. ">
<polygon fill="none" stroke="black" points="394.5,-80.5 394.5,-101.5 477.5,-101.5 477.5,-80.5 394.5,-80.5"/>
<text text-anchor="middle" x="436" y="-88.5" font-family="Helvetica,sans-Serif" font-size="10.00">stxxl::mem_file</text>
</a>
</g>
<!-- Node3&#45;&gt;Node6 -->
<g id="edge10" class="edge"><title>Node3&#45;&gt;Node6</title>
<path fill="none" stroke="midnightblue" d="M311.088,-144.511C329.593,-134.273 354.861,-120.955 378,-111 385.827,-107.632 394.427,-104.416 402.551,-101.586"/>
<polygon fill="midnightblue" stroke="midnightblue" points="309.353,-141.471 302.331,-149.406 312.768,-147.582 309.353,-141.471"/>
</g>
<!-- Node7 -->
<g id="node13" class="node"><title>Node7</title>
<a xlink:href="classstxxl_1_1mmap__file.html" target="_top" xlink:title="Implementation of memory mapped access file. ">
<polygon fill="none" stroke="black" points="391.5,-172.5 391.5,-193.5 480.5,-193.5 480.5,-172.5 391.5,-172.5"/>
<text text-anchor="middle" x="436" y="-180.5" font-family="Helvetica,sans-Serif" font-size="10.00">stxxl::mmap_file</text>
</a>
</g>
<!-- Node3&#45;&gt;Node7 -->
<g id="edge12" class="edge"><title>Node3&#45;&gt;Node7</title>
<path fill="none" stroke="midnightblue" d="M352.344,-170.342C365.551,-172.34 379.069,-174.385 391.281,-176.233"/>
<polygon fill="midnightblue" stroke="midnightblue" points="352.744,-166.862 342.332,-168.827 351.696,-173.783 352.744,-166.862"/>
</g>
<!-- Node8 -->
<g id="node15" class="node"><title>Node8</title>
<a xlink:href="classstxxl_1_1sim__disk__file.html" target="_top" xlink:title="Implementation of disk emulation. ">
<polygon fill="none" stroke="black" points="385.5,-292.5 385.5,-313.5 486.5,-313.5 486.5,-292.5 385.5,-292.5"/>
<text text-anchor="middle" x="436" y="-300.5" font-family="Helvetica,sans-Serif" font-size="10.00">stxxl::sim_disk_file</text>
</a>
</g>
<!-- Node3&#45;&gt;Node8 -->
<g id="edge14" class="edge"><title>Node3&#45;&gt;Node8</title>
<path fill="none" stroke="midnightblue" d="M311.515,-176.12C322.07,-183.321 333.586,-192.55 342,-203 366.451,-233.37 349.207,-256.71 378,-283 382.169,-286.806 387.097,-289.894 392.293,-292.397"/>
<polygon fill="midnightblue" stroke="midnightblue" points="313.258,-173.078 302.965,-170.565 309.444,-178.948 313.258,-173.078"/>
</g>
<!-- Node9 -->
<g id="node17" class="node"><title>Node9</title>
<a xlink:href="classstxxl_1_1syscall__file.html" target="_top" xlink:title="Implementation of file based on UNIX syscalls. ">
<polygon fill="none" stroke="black" points="390,-252.5 390,-273.5 482,-273.5 482,-252.5 390,-252.5"/>
<text text-anchor="middle" x="436" y="-260.5" font-family="Helvetica,sans-Serif" font-size="10.00">stxxl::syscall_file</text>
</a>
</g>
<!-- Node3&#45;&gt;Node9 -->
<g id="edge16" class="edge"><title>Node3&#45;&gt;Node9</title>
<path fill="none" stroke="midnightblue" d="M308.407,-176.443C319.103,-184.059 331.567,-193.512 342,-203 359.695,-219.091 358.06,-229.792 378,-243 383.683,-246.764 390.15,-249.897 396.653,-252.477"/>
<polygon fill="midnightblue" stroke="midnightblue" points="310.125,-173.373 299.923,-170.516 306.117,-179.112 310.125,-173.373"/>
</g>
<!-- Node10 -->
<g id="node19" class="node"><title>Node10</title>
<a xlink:href="classstxxl_1_1wbtl__file.html" target="_top" xlink:title="Implementation of file based on buffered writes and block remapping via a translation layer...">
<polygon fill="none" stroke="black" points="396,-40.5 396,-61.5 476,-61.5 476,-40.5 396,-40.5"/>
<text text-anchor="middle" x="436" y="-48.5" font-family="Helvetica,sans-Serif" font-size="10.00">stxxl::wbtl_file</text>
</a>
</g>
<!-- Node3&#45;&gt;Node10 -->
<g id="edge18" class="edge"><title>Node3&#45;&gt;Node10</title>
<path fill="none" stroke="midnightblue" d="M299.052,-141.681C316.272,-121.784 346.22,-90.2698 378,-71 384.102,-67.2999 390.983,-64.1667 397.817,-61.557"/>
<polygon fill="midnightblue" stroke="midnightblue" points="296.281,-139.537 292.482,-149.428 301.619,-144.065 296.281,-139.537"/>
</g>
<!-- Node11 -->
<g id="node21" class="node"><title>Node11</title>
<a xlink:href="classstxxl_1_1wincall__file.html" target="_top" xlink:title="Implementation of file based on Windows native I/O calls. ">
<polygon fill="none" stroke="black" points="390,-0.5 390,-21.5 482,-21.5 482,-0.5 390,-0.5"/>
<text text-anchor="middle" x="436" y="-8.5" font-family="Helvetica,sans-Serif" font-size="10.00">stxxl::wincall_file</text>
</a>
</g>
<!-- Node3&#45;&gt;Node11 -->
<g id="edge20" class="edge"><title>Node3&#45;&gt;Node11</title>
<path fill="none" stroke="midnightblue" d="M302.914,-141.89C314.928,-129.827 330.351,-113.258 342,-97 361.461,-69.8392 352.482,-52.5702 378,-31 382.474,-27.2182 387.703,-24.1382 393.155,-21.6331"/>
<polygon fill="midnightblue" stroke="midnightblue" points="300.248,-139.604 295.586,-149.118 305.164,-144.587 300.248,-139.604"/>
</g>
<!-- Node12&#45;&gt;Node5 -->
<g id="edge24" class="edge"><title>Node12&#45;&gt;Node5</title>
<path fill="none" stroke="midnightblue" d="M344.982,-223C359.447,-223 374.669,-223 388.436,-223"/>
<polygon fill="midnightblue" stroke="midnightblue" points="344.614,-219.5 334.614,-223 344.614,-226.5 344.614,-219.5"/>
</g>
<!-- Node12&#45;&gt;Node7 -->
<g id="edge26" class="edge"><title>Node12&#45;&gt;Node7</title>
<path fill="none" stroke="midnightblue" d="M333.613,-209.944C353.853,-204.618 376.943,-198.541 396.067,-193.509"/>
<polygon fill="midnightblue" stroke="midnightblue" points="332.716,-206.561 323.936,-212.49 334.498,-213.33 332.716,-206.561"/>
</g>
<!-- Node12&#45;&gt;Node8 -->
<g id="edge28" class="edge"><title>Node12&#45;&gt;Node8</title>
<path fill="none" stroke="midnightblue" d="M306.693,-239.648C325.201,-252.684 352.382,-270.623 378,-283 385.289,-286.522 393.362,-289.715 401.111,-292.465"/>
<polygon fill="midnightblue" stroke="midnightblue" points="308.52,-236.652 298.348,-233.688 304.451,-242.348 308.52,-236.652"/>
</g>
<!-- Node12&#45;&gt;Node9 -->
<g id="edge30" class="edge"><title>Node12&#45;&gt;Node9</title>
<path fill="none" stroke="midnightblue" d="M333.613,-236.056C353.853,-241.382 376.943,-247.459 396.067,-252.491"/>
<polygon fill="midnightblue" stroke="midnightblue" points="334.498,-232.67 323.936,-233.51 332.716,-239.439 334.498,-232.67"/>
</g>
<!-- Node13&#45;&gt;Node11 -->
<g id="edge34" class="edge"><title>Node13&#45;&gt;Node11</title>
<path fill="none" stroke="midnightblue" d="M312.857,-61.7315C331.241,-52.2927 355.709,-40.2561 378,-31 386.066,-27.6505 394.916,-24.3948 403.219,-21.5164"/>
<polygon fill="midnightblue" stroke="midnightblue" points="311.111,-58.6943 303.842,-66.4022 314.331,-64.9097 311.111,-58.6943"/>
</g>
</g>
</svg>
