<?xml version="1.0" encoding="UTF-8" standalone="no"?>
<!DOCTYPE svg PUBLIC "-//W3C//DTD SVG 1.1//EN"
 "http://www.w3.org/Graphics/SVG/1.1/DTD/svg11.dtd">
<!-- Generated by graphviz version 2.38.0 (20140413.2041)
 -->
<!-- Title: stxxl::request_queue Pages: 1 -->
<svg width="367pt" height="218pt"
 viewBox="0.00 0.00 366.50 218.00" xmlns="http://www.w3.org/2000/svg" xmlns:xlink="http://www.w3.org/1999/xlink">
<g id="graph0" class="graph" transform="scale(1 1) rotate(0) translate(4 214)">
<title>stxxl::request_queue</title>
<!-- Node1 -->
<g id="node1" class="node"><title>Node1</title>
<polygon fill="#bfbfbf" stroke="black" points="126.5,-134.5 126.5,-153.5 233.5,-153.5 233.5,-134.5 126.5,-134.5"/>
<text text-anchor="middle" x="180" y="-141.5" font-family="Helvetica,sans-Serif" font-size="10.00">stxxl::request_queue</text>
</g>
<!-- Node3 -->
<g id="node3" class="node"><title>Node3</title>
<g id="a_node3"><a xlink:href="classstxxl_1_1request__queue__impl__worker.html" target="_top" xlink:title="Implementation of request queue worker threads. Worker threads can be started by start_thread and sto...">
<polygon fill="none" stroke="black" points="126.5,-67.5 126.5,-97.5 233.5,-97.5 233.5,-67.5 126.5,-67.5"/>
<text text-anchor="start" x="134.5" y="-85.5" font-family="Helvetica,sans-Serif" font-size="10.00">stxxl::request_queue</text>
<text text-anchor="middle" x="180" y="-74.5" font-family="Helvetica,sans-Serif" font-size="10.00">_impl_worker</text>
</a>
</g>
</g>
<!-- Node1&#45;&gt;Node3 -->
<g id="edge2" class="edge"><title>Node1&#45;&gt;Node3</title>
<path fill="none" stroke="midnightblue" d="M180,-124.235C180,-115.586 180,-105.497 180,-97.523"/>
<polygon fill="midnightblue" stroke="midnightblue" points="176.5,-124.475 180,-134.475 183.5,-124.475 176.5,-124.475"/>
</g>
<!-- Node2 -->
<g id="node2" class="node"><title>Node2</title>
<g id="a_node2"><a xlink:href="classstxxl_1_1noncopyable.html" target="_top" xlink:title="stxxl::noncopyable">
<polygon fill="none" stroke="black" points="131,-190.5 131,-209.5 229,-209.5 229,-190.5 131,-190.5"/>
<text text-anchor="middle" x="180" y="-197.5" font-family="Helvetica,sans-Serif" font-size="10.00">stxxl::noncopyable</text>
</a>
</g>
</g>
<!-- Node2&#45;&gt;Node1 -->
<g id="edge1" class="edge"><title>Node2&#45;&gt;Node1</title>
<path fill="none" stroke="#8b1a1a" d="M180,-179.805C180,-170.91 180,-160.78 180,-153.751"/>
<polygon fill="#8b1a1a" stroke="#8b1a1a" points="176.5,-180.083 180,-190.083 183.5,-180.083 176.5,-180.083"/>
</g>
<!-- Node4 -->
<g id="node4" class="node"><title>Node4</title>
<g id="a_node4"><a xlink:href="classstxxl_1_1linuxaio__queue.html" target="_top" xlink:title="Queue for linuxaio_file(s) ">
<polygon fill="none" stroke="black" points="0,-6 0,-25 108,-25 108,-6 0,-6"/>
<text text-anchor="middle" x="54" y="-13" font-family="Helvetica,sans-Serif" font-size="10.00">stxxl::linuxaio_queue</text>
</a>
</g>
</g>
<!-- Node3&#45;&gt;Node4 -->
<g id="edge3" class="edge"><title>Node3&#45;&gt;Node4</title>
<path fill="none" stroke="midnightblue" d="M143.756,-62.8029C119.601,-50.3418 89.0004,-34.5558 70.4905,-25.007"/>
<polygon fill="midnightblue" stroke="midnightblue" points="142.168,-65.9218 152.66,-67.396 145.377,-59.7008 142.168,-65.9218"/>
</g>
<!-- Node5 -->
<g id="node5" class="node"><title>Node5</title>
<g id="a_node5"><a xlink:href="classstxxl_1_1request__queue__impl__1q.html" target="_top" xlink:title="Implementation of a local request queue having only one queue for both read and write requests...">
<polygon fill="none" stroke="black" points="126.5,-0.5 126.5,-30.5 233.5,-30.5 233.5,-0.5 126.5,-0.5"/>
<text text-anchor="start" x="134.5" y="-18.5" font-family="Helvetica,sans-Serif" font-size="10.00">stxxl::request_queue</text>
<text text-anchor="middle" x="180" y="-7.5" font-family="Helvetica,sans-Serif" font-size="10.00">_impl_1q</text>
</a>
</g>
</g>
<!-- Node3&#45;&gt;Node5 -->
<g id="edge4" class="edge"><title>Node3&#45;&gt;Node5</title>
<path fill="none" stroke="midnightblue" d="M180,-57.1081C180,-48.1539 180,-38.3227 180,-30.5765"/>
<polygon fill="midnightblue" stroke="midnightblue" points="176.5,-57.3959 180,-67.396 183.5,-57.396 176.5,-57.3959"/>
</g>
<!-- Node6 -->
<g id="node6" class="node"><title>Node6</title>
<g id="a_node6"><a xlink:href="classstxxl_1_1request__queue__impl__qwqr.html" target="_top" xlink:title="Implementation of a local request queue having two queues, one for read and one for write requests...">
<polygon fill="none" stroke="black" points="251.5,-0.5 251.5,-30.5 358.5,-30.5 358.5,-0.5 251.5,-0.5"/>
<text text-anchor="start" x="259.5" y="-18.5" font-family="Helvetica,sans-Serif" font-size="10.00">stxxl::request_queue</text>
<text text-anchor="middle" x="305" y="-7.5" font-family="Helvetica,sans-Serif" font-size="10.00">_impl_qwqr</text>
</a>
</g>
</g>
<!-- Node3&#45;&gt;Node6 -->
<g id="edge5" class="edge"><title>Node3&#45;&gt;Node6</title>
<path fill="none" stroke="midnightblue" d="M216.126,-62.7143C235.84,-52.4631 259.841,-39.9826 277.93,-30.5765"/>
<polygon fill="midnightblue" stroke="midnightblue" points="214.381,-59.6771 207.123,-67.396 217.61,-65.8877 214.381,-59.6771"/>
</g>
</g>
</svg>
