<?xml version="1.0" encoding="UTF-8" standalone="no"?>
<!DOCTYPE svg PUBLIC "-//W3C//DTD SVG 1.1//EN"
 "http://www.w3.org/Graphics/SVG/1.1/DTD/svg11.dtd">
<!-- Generated by graphviz version 2.26.3 (20100126.1600)
 -->
<!-- Title: stxxl::BIDArray&lt; BlockSize &gt; Pages: 1 -->
<svg width="217pt" height="336pt"
 viewBox="0.00 0.00 217.00 336.00" xmlns="http://www.w3.org/2000/svg" xmlns:xlink="http://www.w3.org/1999/xlink">
<g id="graph1" class="graph" transform="scale(1 1) rotate(0) translate(4 332)">
<title>stxxl::BIDArray&lt; BlockSize &gt;</title>
<!-- Node1 -->
<g id="node1" class="node"><title>Node1</title>
<polygon fill="#bfbfbf" stroke="black" points="0,-86.5 0,-107.5 146,-107.5 146,-86.5 0,-86.5"/>
<text text-anchor="middle" x="73" y="-94.5" font-family="Helvetica,sans-Serif" font-size="10.00">stxxl::BIDArray&lt; BlockSize &gt;</text>
</g>
<!-- Node5 -->
<g id="node10" class="node"><title>Node5</title>
<a xlink:href="classstxxl_1_1BIDArray.html" target="_top" xlink:title="stxxl::BIDArray\&lt; block\l_type::raw_size \&gt;">
<polygon fill="none" stroke="black" points="15,-1 15,-35 131,-35 131,-1 15,-1"/>
<text text-anchor="start" x="23" y="-22" font-family="Helvetica,sans-Serif" font-size="10.00">stxxl::BIDArray&lt; block</text>
<text text-anchor="middle" x="73" y="-9" font-family="Helvetica,sans-Serif" font-size="10.00">_type::raw_size &gt;</text>
</a>
</g>
<!-- Node1&#45;&gt;Node5 -->
<g id="edge10" class="edge"><title>Node1&#45;&gt;Node5</title>
<path fill="none" stroke="orange" stroke-dasharray="5,2" d="M73,-76.1618C73,-63.3635 73,-47.1713 73,-35.1236"/>
<polygon fill="orange" stroke="orange" points="69.5001,-76.3457 73,-86.3457 76.5001,-76.3457 69.5001,-76.3457"/>
<text text-anchor="middle" x="130" y="-58.5" font-family="Helvetica,sans-Serif" font-size="10.00"> &lt; block_type::raw_size &gt;</text>
</g>
<!-- Node2 -->
<g id="node2" class="node"><title>Node2</title>
<a xlink:href="classstxxl_1_1simple__vector.html" target="_top" xlink:title="stxxl::simple_vector\l\&lt; BID\&lt; BlockSize \&gt; \&gt;">
<polygon fill="none" stroke="black" points="16,-147 16,-181 130,-181 130,-147 16,-147"/>
<text text-anchor="start" x="24" y="-168" font-family="Helvetica,sans-Serif" font-size="10.00">stxxl::simple_vector</text>
<text text-anchor="middle" x="73" y="-155" font-family="Helvetica,sans-Serif" font-size="10.00">&lt; BID&lt; BlockSize &gt; &gt;</text>
</a>
</g>
<!-- Node2&#45;&gt;Node1 -->
<g id="edge2" class="edge"><title>Node2&#45;&gt;Node1</title>
<path fill="none" stroke="midnightblue" d="M73,-136.534C73,-126.306 73,-115.301 73,-107.506"/>
<polygon fill="midnightblue" stroke="midnightblue" points="69.5001,-136.746 73,-146.746 76.5001,-136.746 69.5001,-136.746"/>
</g>
<!-- Node3 -->
<g id="node4" class="node"><title>Node3</title>
<a xlink:href="classstxxl_1_1noncopyable.html" target="_top" xlink:title="stxxl::noncopyable">
<polygon fill="none" stroke="black" points="34,-306.5 34,-327.5 132,-327.5 132,-306.5 34,-306.5"/>
<text text-anchor="middle" x="83" y="-314.5" font-family="Helvetica,sans-Serif" font-size="10.00">stxxl::noncopyable</text>
</a>
</g>
<!-- Node3&#45;&gt;Node2 -->
<g id="edge4" class="edge"><title>Node3&#45;&gt;Node2</title>
<path fill="none" stroke="#8b1a1a" d="M79.4901,-296.144C78.1679,-287.466 76.7934,-277.271 76,-268 73.3972,-237.585 72.9235,-202.003 72.9021,-181.332"/>
<polygon fill="#8b1a1a" stroke="#8b1a1a" points="76.0537,-296.82 81.0891,-306.142 82.9658,-295.715 76.0537,-296.82"/>
</g>
<!-- Node4 -->
<g id="node6" class="node"><title>Node4</title>
<a xlink:href="classstxxl_1_1simple__vector.html" target="_top" xlink:title="Simpler non&#45;growing vector without initialization. ">
<polygon fill="none" stroke="black" points="85,-233 85,-267 189,-267 189,-233 85,-233"/>
<text text-anchor="start" x="93" y="-254" font-family="Helvetica,sans-Serif" font-size="10.00">stxxl::simple_vector</text>
<text text-anchor="middle" x="137" y="-241" font-family="Helvetica,sans-Serif" font-size="10.00">&lt; ValueType &gt;</text>
</a>
</g>
<!-- Node3&#45;&gt;Node4 -->
<g id="edge8" class="edge"><title>Node3&#45;&gt;Node4</title>
<path fill="none" stroke="#8b1a1a" d="M98.0915,-298.275C105.994,-288.471 115.598,-276.554 123.287,-267.014"/>
<polygon fill="#8b1a1a" stroke="#8b1a1a" points="95.2262,-296.253 91.676,-306.235 100.676,-300.646 95.2262,-296.253"/>
</g>
<!-- Node4&#45;&gt;Node2 -->
<g id="edge6" class="edge"><title>Node4&#45;&gt;Node2</title>
<path fill="none" stroke="orange" stroke-dasharray="5,2" d="M117.903,-224.339C107.5,-210.36 94.9116,-193.444 85.7137,-181.084"/>
<polygon fill="orange" stroke="orange" points="115.271,-226.664 124.049,-232.597 120.886,-222.485 115.271,-226.664"/>
<text text-anchor="middle" x="158.5" y="-204.5" font-family="Helvetica,sans-Serif" font-size="10.00"> &lt; BID&lt; BlockSize &gt; &gt;</text>
</g>
</g>
</svg>
