<?xml version="1.0" encoding="UTF-8" standalone="no"?>
<!DOCTYPE svg PUBLIC "-//W3C//DTD SVG 1.1//EN"
 "http://www.w3.org/Graphics/SVG/1.1/DTD/svg11.dtd">
<!-- Generated by graphviz version 2.26.3 (20100126.1600)
 -->
<!-- Title: stxxl::stream::make_tuple&lt; Input1, Input2, Input3, Input4, Input5, Stopper &gt; Pages: 1 -->
<svg width="614pt" height="150pt"
 viewBox="0.00 0.00 614.00 150.00" xmlns="http://www.w3.org/2000/svg" xmlns:xlink="http://www.w3.org/1999/xlink">
<g id="graph1" class="graph" transform="scale(1 1) rotate(0) translate(4 146)">
<title>stxxl::stream::make_tuple&lt; Input1, Input2, Input3, Input4, Input5, Stopper &gt;</title>
<!-- Node1 -->
<g id="node1" class="node"><title>Node1</title>
<polygon fill="#bfbfbf" stroke="black" points="490,-44 490,-104 606,-104 606,-44 490,-44"/>
<text text-anchor="start" x="498" y="-91" font-family="Helvetica,sans-Serif" font-size="10.00">stxxl::stream::make</text>
<text text-anchor="start" x="498" y="-78" font-family="Helvetica,sans-Serif" font-size="10.00">_tuple&lt; Input1, Input2,</text>
<text text-anchor="start" x="498" y="-65" font-family="Helvetica,sans-Serif" font-size="10.00"> Input3, Input4, Input5,</text>
<text text-anchor="middle" x="548" y="-52" font-family="Helvetica,sans-Serif" font-size="10.00"> Stopper &gt;</text>
</g>
<!-- Node2 -->
<g id="node2" class="node"><title>Node2</title>
<a xlink:href="structstxxl_1_1tuple.html" target="_top" xlink:title="stxxl::tuple\&lt; typename\l Input1::value_type, typename\l Input2::value_type, typename\l Input3::value_type, typename\l Input4::value_type, typename\l Input5::value_type \&gt;">
<polygon fill="none" stroke="black" points="270.5,-31 270.5,-117 419.5,-117 419.5,-31 270.5,-31"/>
<text text-anchor="start" x="278.5" y="-104" font-family="Helvetica,sans-Serif" font-size="10.00">stxxl::tuple&lt; typename</text>
<text text-anchor="start" x="278.5" y="-91" font-family="Helvetica,sans-Serif" font-size="10.00"> Input1::value_type, typename</text>
<text text-anchor="start" x="278.5" y="-78" font-family="Helvetica,sans-Serif" font-size="10.00"> Input2::value_type, typename</text>
<text text-anchor="start" x="278.5" y="-65" font-family="Helvetica,sans-Serif" font-size="10.00"> Input3::value_type, typename</text>
<text text-anchor="start" x="278.5" y="-52" font-family="Helvetica,sans-Serif" font-size="10.00"> Input4::value_type, typename</text>
<text text-anchor="middle" x="345" y="-39" font-family="Helvetica,sans-Serif" font-size="10.00"> Input5::value_type &gt;</text>
</a>
</g>
<!-- Node2&#45;&gt;Node1 -->
<g id="edge2" class="edge"><title>Node2&#45;&gt;Node1</title>
<path fill="none" stroke="#9a32cd" stroke-dasharray="5,2" d="M429.883,-74C450.11,-74 471.242,-74 489.947,-74"/>
<polygon fill="#9a32cd" stroke="#9a32cd" points="429.725,-70.5001 419.725,-74 429.725,-77.5001 429.725,-70.5001"/>
<text text-anchor="middle" x="455" y="-78" font-family="Helvetica,sans-Serif" font-size="10.00"> current</text>
</g>
<!-- Node3 -->
<g id="node4" class="node"><title>Node3</title>
<a xlink:href="structstxxl_1_1Plug.html" target="_top" xlink:title="stxxl::Plug">
<polygon fill="none" stroke="black" points="21.5,-120.5 21.5,-141.5 84.5,-141.5 84.5,-120.5 21.5,-120.5"/>
<text text-anchor="middle" x="53" y="-128.5" font-family="Helvetica,sans-Serif" font-size="10.00">stxxl::Plug</text>
</a>
</g>
<!-- Node3&#45;&gt;Node2 -->
<g id="edge4" class="edge"><title>Node3&#45;&gt;Node2</title>
<path fill="none" stroke="#9a32cd" stroke-dasharray="5,2" d="M94.8595,-129.409C135.492,-127.156 198.669,-121.77 252,-109 258.04,-107.554 264.22,-105.822 270.382,-103.914"/>
<polygon fill="#9a32cd" stroke="#9a32cd" points="94.5886,-125.918 84.7823,-129.929 94.9493,-132.909 94.5886,-125.918"/>
<text text-anchor="middle" x="188" y="-131" font-family="Helvetica,sans-Serif" font-size="10.00"> sixth</text>
</g>
<!-- Node4 -->
<g id="node6" class="node"><title>Node4</title>
<a xlink:href="structstxxl_1_1tuple.html" target="_top" xlink:title="k&#45;Tuple data type ">
<polygon fill="none" stroke="black" points="0.5,-0 0.5,-34 105.5,-34 105.5,-0 0.5,-0"/>
<text text-anchor="start" x="8.5" y="-21" font-family="Helvetica,sans-Serif" font-size="10.00">stxxl::tuple&lt; T1, T2,</text>
<text text-anchor="middle" x="53" y="-8" font-family="Helvetica,sans-Serif" font-size="10.00"> T3, T4, T5, T6 &gt;</text>
</a>
</g>
<!-- Node4&#45;&gt;Node2 -->
<g id="edge6" class="edge"><title>Node4&#45;&gt;Node2</title>
<path fill="none" stroke="orange" stroke-dasharray="5,2" d="M115.795,-6.63187C155.623,-2.33888 207.789,-0.976104 252,-14 264.81,-17.7736 277.519,-23.9205 289.237,-30.8739"/>
<polygon fill="orange" stroke="orange" points="115.215,-3.17579 105.688,-7.81203 116.027,-10.1286 115.215,-3.17579"/>
<text text-anchor="start" x="124.5" y="-96" font-family="Helvetica,sans-Serif" font-size="10.00"> &lt; typename Input1::</text>
<text text-anchor="start" x="124.5" y="-83" font-family="Helvetica,sans-Serif" font-size="10.00">value_type, typename</text>
<text text-anchor="start" x="124.5" y="-70" font-family="Helvetica,sans-Serif" font-size="10.00"> Input2::value_type,</text>
<text text-anchor="start" x="124.5" y="-57" font-family="Helvetica,sans-Serif" font-size="10.00"> typename Input3::value</text>
<text text-anchor="start" x="124.5" y="-44" font-family="Helvetica,sans-Serif" font-size="10.00">_type, typename Input4::</text>
<text text-anchor="start" x="124.5" y="-31" font-family="Helvetica,sans-Serif" font-size="10.00">value_type, typename Input5</text>
<text text-anchor="middle" x="188" y="-18" font-family="Helvetica,sans-Serif" font-size="10.00">::value_type &gt;</text>
</g>
</g>
</svg>
