<?xml version="1.0" encoding="UTF-8" standalone="no"?>
<!DOCTYPE svg PUBLIC "-//W3C//DTD SVG 1.1//EN"
 "http://www.w3.org/Graphics/SVG/1.1/DTD/svg11.dtd">
<!-- Generated by graphviz version 2.26.3 (20100126.1600)
 -->
<!-- Title: stxxl::sorter&lt; ValueType, CompareType, BlockSize, AllocStrategy &gt; Pages: 1 -->
<svg width="2104pt" height="669pt"
 viewBox="0.00 0.00 2104.00 669.00" xmlns="http://www.w3.org/2000/svg" xmlns:xlink="http://www.w3.org/1999/xlink">
<g id="graph1" class="graph" transform="scale(1 1) rotate(0) translate(4 665)">
<title>stxxl::sorter&lt; ValueType, CompareType, BlockSize, AllocStrategy &gt;</title>
<!-- Node1 -->
<g id="node1" class="node"><title>Node1</title>
<polygon fill="#bfbfbf" stroke="black" points="1962,-511.5 1962,-558.5 2096,-558.5 2096,-511.5 1962,-511.5"/>
<text text-anchor="start" x="1970" y="-545.5" font-family="Helvetica,sans-Serif" font-size="10.00">stxxl::sorter&lt; ValueType,</text>
<text text-anchor="start" x="1970" y="-532.5" font-family="Helvetica,sans-Serif" font-size="10.00"> CompareType, BlockSize,</text>
<text text-anchor="middle" x="2029" y="-519.5" font-family="Helvetica,sans-Serif" font-size="10.00"> AllocStrategy &gt;</text>
</g>
<!-- Node2 -->
<g id="node2" class="node"><title>Node2</title>
<a xlink:href="classstxxl_1_1noncopyable.html" target="_top" xlink:title="stxxl::noncopyable">
<polygon fill="none" stroke="black" points="6,-246.5 6,-267.5 104,-267.5 104,-246.5 6,-246.5"/>
<text text-anchor="middle" x="55" y="-254.5" font-family="Helvetica,sans-Serif" font-size="10.00">stxxl::noncopyable</text>
</a>
</g>
<!-- Node2&#45;&gt;Node1 -->
<g id="edge2" class="edge"><title>Node2&#45;&gt;Node1</title>
<path fill="none" stroke="#8b1a1a" d="M57.7944,-277.541C66.4203,-338.629 94.1026,-517.849 128,-565 177.974,-634.513 209.388,-661 295,-661 295,-661 295,-661 1784,-661 1872.49,-661 1961.03,-595.199 2003.34,-558.7"/>
<polygon fill="#8b1a1a" stroke="#8b1a1a" points="61.2516,-276.99 56.4083,-267.567 54.3182,-277.954 61.2516,-276.99"/>
</g>
<!-- Node4 -->
<g id="node6" class="node"><title>Node4</title>
<a xlink:href="classstxxl_1_1stream_1_1basic__runs__merger.html" target="_top" xlink:title="stxxl::stream::basic\l_runs_merger\&lt; typename\l runs_creator_type::sorted\l_runs_type, cmp_type, alloc\l_strategy_type \&gt;">
<polygon fill="none" stroke="black" points="1386,-282.5 1386,-355.5 1526,-355.5 1526,-282.5 1386,-282.5"/>
<text text-anchor="start" x="1394" y="-342.5" font-family="Helvetica,sans-Serif" font-size="10.00">stxxl::stream::basic</text>
<text text-anchor="start" x="1394" y="-329.5" font-family="Helvetica,sans-Serif" font-size="10.00">_runs_merger&lt; typename</text>
<text text-anchor="start" x="1394" y="-316.5" font-family="Helvetica,sans-Serif" font-size="10.00"> runs_creator_type::sorted</text>
<text text-anchor="start" x="1394" y="-303.5" font-family="Helvetica,sans-Serif" font-size="10.00">_runs_type, cmp_type, alloc</text>
<text text-anchor="middle" x="1456" y="-290.5" font-family="Helvetica,sans-Serif" font-size="10.00">_strategy_type &gt;</text>
</a>
</g>
<!-- Node2&#45;&gt;Node4 -->
<g id="edge8" class="edge"><title>Node2&#45;&gt;Node4</title>
<path fill="none" stroke="#8b1a1a" d="M59.1767,-236.383C66.8482,-204.098 86.3704,-142.001 128,-110 188.053,-63.8377 219.255,-76 295,-76 295,-76 295,-76 1117,-76 1247.79,-76 1271.7,-144.389 1362,-239 1372.74,-250.248 1369.24,-257.779 1380,-269 1384.48,-273.673 1389.48,-278.131 1394.71,-282.324"/>
<polygon fill="#8b1a1a" stroke="#8b1a1a" points="55.6898,-235.941 56.9406,-246.462 62.5236,-237.457 55.6898,-235.941"/>
</g>
<!-- Node5 -->
<g id="node9" class="node"><title>Node5</title>
<a xlink:href="classstxxl_1_1block__prefetcher.html" target="_top" xlink:title="Encapsulates asynchronous prefetching engine. ">
<polygon fill="none" stroke="black" points="725.5,-206.5 725.5,-253.5 852.5,-253.5 852.5,-206.5 725.5,-206.5"/>
<text text-anchor="start" x="733.5" y="-240.5" font-family="Helvetica,sans-Serif" font-size="10.00">stxxl::block_prefetcher</text>
<text text-anchor="start" x="733.5" y="-227.5" font-family="Helvetica,sans-Serif" font-size="10.00">&lt; block_type, bid_iterator</text>
<text text-anchor="middle" x="789" y="-214.5" font-family="Helvetica,sans-Serif" font-size="10.00">_type &gt;</text>
</a>
</g>
<!-- Node2&#45;&gt;Node5 -->
<g id="edge12" class="edge"><title>Node2&#45;&gt;Node5</title>
<path fill="none" stroke="#8b1a1a" d="M114.348,-257.049C144.749,-256.968 182.356,-256.705 216,-256 278.248,-254.695 293.81,-253.985 356,-251 481.417,-244.981 512.557,-239.441 638,-234 666.689,-232.756 698.462,-231.844 725.432,-231.208"/>
<polygon fill="#8b1a1a" stroke="#8b1a1a" points="114.322,-253.549 104.33,-257.07 114.337,-260.549 114.322,-253.549"/>
</g>
<!-- Node8 -->
<g id="node16" class="node"><title>Node8</title>
<a xlink:href="classstxxl_1_1onoff__switch.html" target="_top" xlink:title="stxxl::onoff_switch">
<polygon fill="none" stroke="black" points="503.5,-177.5 503.5,-198.5 602.5,-198.5 602.5,-177.5 503.5,-177.5"/>
<text text-anchor="middle" x="553" y="-185.5" font-family="Helvetica,sans-Serif" font-size="10.00">stxxl::onoff_switch</text>
</a>
</g>
<!-- Node2&#45;&gt;Node8 -->
<g id="edge20" class="edge"><title>Node2&#45;&gt;Node8</title>
<path fill="none" stroke="#8b1a1a" d="M100.272,-243.607C109.429,-241.003 119.005,-238.353 128,-236 174.828,-223.75 186.153,-218.319 234,-211 328.543,-196.537 440.28,-191.124 503.27,-189.131"/>
<polygon fill="#8b1a1a" stroke="#8b1a1a" points="99.1947,-240.275 90.5493,-246.399 101.127,-247.003 99.1947,-240.275"/>
</g>
<!-- Node9 -->
<g id="node19" class="node"><title>Node9</title>
<a xlink:href="classstxxl_1_1mutex.html" target="_top" xlink:title="stxxl::mutex">
<polygon fill="none" stroke="black" points="259.5,-142.5 259.5,-163.5 330.5,-163.5 330.5,-142.5 259.5,-142.5"/>
<text text-anchor="middle" x="295" y="-150.5" font-family="Helvetica,sans-Serif" font-size="10.00">stxxl::mutex</text>
</a>
</g>
<!-- Node2&#45;&gt;Node9 -->
<g id="edge24" class="edge"><title>Node2&#45;&gt;Node9</title>
<path fill="none" stroke="#8b1a1a" d="M66.9629,-237.89C79.6851,-219.332 101.595,-191.973 128,-178 169.329,-156.129 223.986,-151.807 259.319,-151.656"/>
<polygon fill="#8b1a1a" stroke="#8b1a1a" points="63.9101,-236.162 61.3241,-246.436 69.7529,-240.017 63.9101,-236.162"/>
</g>
<!-- Node10 -->
<g id="node22" class="node"><title>Node10</title>
<a xlink:href="classstxxl_1_1condition__variable.html" target="_top" xlink:title="stxxl::condition_variable">
<polygon fill="none" stroke="black" points="234,-220.5 234,-241.5 356,-241.5 356,-220.5 234,-220.5"/>
<text text-anchor="middle" x="295" y="-228.5" font-family="Helvetica,sans-Serif" font-size="10.00">stxxl::condition_variable</text>
</a>
</g>
<!-- Node2&#45;&gt;Node10 -->
<g id="edge28" class="edge"><title>Node2&#45;&gt;Node10</title>
<path fill="none" stroke="#8b1a1a" d="M114.138,-250.593C150.576,-246.646 197.198,-241.595 233.98,-237.611"/>
<polygon fill="#8b1a1a" stroke="#8b1a1a" points="113.712,-247.119 104.147,-251.676 114.466,-254.078 113.712,-247.119"/>
</g>
<!-- Node15 -->
<g id="node34" class="node"><title>Node15</title>
<a xlink:href="classstxxl_1_1loser__tree.html" target="_top" xlink:title="stxxl::loser_tree\&lt;\l run_cursor_type, run\l_cursor_cmp_type \&gt;">
<polygon fill="none" stroke="black" points="734.5,-284.5 734.5,-331.5 843.5,-331.5 843.5,-284.5 734.5,-284.5"/>
<text text-anchor="start" x="742.5" y="-318.5" font-family="Helvetica,sans-Serif" font-size="10.00">stxxl::loser_tree&lt;</text>
<text text-anchor="start" x="742.5" y="-305.5" font-family="Helvetica,sans-Serif" font-size="10.00"> run_cursor_type, run</text>
<text text-anchor="middle" x="789" y="-292.5" font-family="Helvetica,sans-Serif" font-size="10.00">_cursor_cmp_type &gt;</text>
</a>
</g>
<!-- Node2&#45;&gt;Node15 -->
<g id="edge42" class="edge"><title>Node2&#45;&gt;Node15</title>
<path fill="none" stroke="#8b1a1a" d="M114.203,-267.891C118.865,-268.642 123.506,-269.356 128,-270 286.433,-292.71 326.183,-300.321 486,-309 582.746,-314.254 607.113,-309.57 704,-309 713.74,-308.943 724.108,-308.848 734.132,-308.74"/>
<polygon fill="#8b1a1a" stroke="#8b1a1a" points="114.449,-264.384 104.011,-266.198 113.302,-271.29 114.449,-264.384"/>
</g>
<!-- Node16 -->
<g id="node38" class="node"><title>Node16</title>
<a xlink:href="classstxxl_1_1stream_1_1basic__runs__merger.html" target="_top" xlink:title="Merges sorted runs. ">
<polygon fill="none" stroke="black" points="1050.5,-221.5 1050.5,-268.5 1183.5,-268.5 1183.5,-221.5 1050.5,-221.5"/>
<text text-anchor="start" x="1058.5" y="-255.5" font-family="Helvetica,sans-Serif" font-size="10.00">stxxl::stream::basic</text>
<text text-anchor="start" x="1058.5" y="-242.5" font-family="Helvetica,sans-Serif" font-size="10.00">_runs_merger&lt; RunsType,</text>
<text text-anchor="middle" x="1117" y="-229.5" font-family="Helvetica,sans-Serif" font-size="10.00"> CompareType, AllocStr &gt;</text>
</a>
</g>
<!-- Node2&#45;&gt;Node16 -->
<g id="edge48" class="edge"><title>Node2&#45;&gt;Node16</title>
<path fill="none" stroke="#8b1a1a" d="M63.1508,-236.759C74.1135,-212.233 96.0008,-171.528 128,-150 190.998,-107.618 219.073,-114 295,-114 295,-114 295,-114 789,-114 903.358,-114 1025.17,-183.526 1082.89,-221.277"/>
<polygon fill="#8b1a1a" stroke="#8b1a1a" points="59.8373,-235.606 59.1237,-246.177 66.2736,-238.358 59.8373,-235.606"/>
</g>
<!-- Node19 -->
<g id="node49" class="node"><title>Node19</title>
<a xlink:href="classstxxl_1_1stream_1_1basic__runs__creator.html" target="_top" xlink:title="stxxl::stream::basic\l_runs_creator\&lt; stream\l::use_push\&lt; ValueType\l \&gt;, cmp_type, BlockSize,\l alloc_strategy_type \&gt;">
<polygon fill="none" stroke="black" points="1053,-537.5 1053,-610.5 1181,-610.5 1181,-537.5 1053,-537.5"/>
<text text-anchor="start" x="1061" y="-597.5" font-family="Helvetica,sans-Serif" font-size="10.00">stxxl::stream::basic</text>
<text text-anchor="start" x="1061" y="-584.5" font-family="Helvetica,sans-Serif" font-size="10.00">_runs_creator&lt; stream</text>
<text text-anchor="start" x="1061" y="-571.5" font-family="Helvetica,sans-Serif" font-size="10.00">::use_push&lt; ValueType</text>
<text text-anchor="start" x="1061" y="-558.5" font-family="Helvetica,sans-Serif" font-size="10.00"> &gt;, cmp_type, BlockSize,</text>
<text text-anchor="middle" x="1117" y="-545.5" font-family="Helvetica,sans-Serif" font-size="10.00"> alloc_strategy_type &gt;</text>
</a>
</g>
<!-- Node2&#45;&gt;Node19 -->
<g id="edge64" class="edge"><title>Node2&#45;&gt;Node19</title>
<path fill="none" stroke="#8b1a1a" d="M58.1237,-277.495C71.1454,-354.616 128.428,-623 295,-623 295,-623 295,-623 789,-623 881.41,-623 986.874,-603.74 1052.7,-589.369"/>
<polygon fill="#8b1a1a" stroke="#8b1a1a" points="61.5684,-276.871 56.5158,-267.559 54.6583,-277.99 61.5684,-276.871"/>
</g>
<!-- Node21 -->
<g id="node56" class="node"><title>Node21</title>
<a xlink:href="classstxxl_1_1stream_1_1basic__runs__creator.html" target="_top" xlink:title="Forms sorted runs of data from a stream. ">
<polygon fill="none" stroke="black" points="722,-486 722,-546 856,-546 856,-486 722,-486"/>
<text text-anchor="start" x="730" y="-533" font-family="Helvetica,sans-Serif" font-size="10.00">stxxl::stream::basic</text>
<text text-anchor="start" x="730" y="-520" font-family="Helvetica,sans-Serif" font-size="10.00">_runs_creator&lt; Input,</text>
<text text-anchor="start" x="730" y="-507" font-family="Helvetica,sans-Serif" font-size="10.00"> CompareType, BlockSize,</text>
<text text-anchor="middle" x="789" y="-494" font-family="Helvetica,sans-Serif" font-size="10.00"> AllocStr &gt;</text>
</a>
</g>
<!-- Node2&#45;&gt;Node21 -->
<g id="edge74" class="edge"><title>Node2&#45;&gt;Node21</title>
<path fill="none" stroke="#8b1a1a" d="M66.4228,-276.291C91.2984,-316.431 154.565,-408.867 234,-453 393.639,-541.694 456.145,-511.263 638,-528 667.21,-530.688 674.739,-530.055 704,-528 709.798,-527.593 715.802,-527.031 721.815,-526.371"/>
<polygon fill="#8b1a1a" stroke="#8b1a1a" points="69.381,-274.419 61.1917,-267.697 63.4016,-278.059 69.381,-274.419"/>
</g>
<!-- Node3 -->
<g id="node4" class="node"><title>Node3</title>
<a xlink:href="classstxxl_1_1stream_1_1runs__merger.html" target="_top" xlink:title="stxxl::stream::runs\l_merger\&lt; typename runs\l_creator_type::sorted\l_runs_type, cmp_type, alloc\l_strategy_type \&gt;">
<polygon fill="none" stroke="black" points="1714,-282.5 1714,-355.5 1854,-355.5 1854,-282.5 1714,-282.5"/>
<text text-anchor="start" x="1722" y="-342.5" font-family="Helvetica,sans-Serif" font-size="10.00">stxxl::stream::runs</text>
<text text-anchor="start" x="1722" y="-329.5" font-family="Helvetica,sans-Serif" font-size="10.00">_merger&lt; typename runs</text>
<text text-anchor="start" x="1722" y="-316.5" font-family="Helvetica,sans-Serif" font-size="10.00">_creator_type::sorted</text>
<text text-anchor="start" x="1722" y="-303.5" font-family="Helvetica,sans-Serif" font-size="10.00">_runs_type, cmp_type, alloc</text>
<text text-anchor="middle" x="1784" y="-290.5" font-family="Helvetica,sans-Serif" font-size="10.00">_strategy_type &gt;</text>
</a>
</g>
<!-- Node3&#45;&gt;Node1 -->
<g id="edge4" class="edge"><title>Node3&#45;&gt;Node1</title>
<path fill="none" stroke="#9a32cd" stroke-dasharray="5,2" d="M1833.17,-362.348C1883.99,-407.153 1961.45,-475.449 2002.05,-511.236"/>
<polygon fill="#9a32cd" stroke="#9a32cd" points="1835.38,-359.629 1825.56,-355.641 1830.75,-364.88 1835.38,-359.629"/>
<text text-anchor="middle" x="1908" y="-462" font-family="Helvetica,sans-Serif" font-size="10.00"> m_runs_merger</text>
</g>
<!-- Node4&#45;&gt;Node3 -->
<g id="edge6" class="edge"><title>Node4&#45;&gt;Node3</title>
<path fill="none" stroke="midnightblue" d="M1536.64,-319C1590.92,-319 1661.79,-319 1713.75,-319"/>
<polygon fill="midnightblue" stroke="midnightblue" points="1536.36,-315.5 1526.36,-319 1536.36,-322.5 1536.36,-315.5"/>
</g>
<!-- Node5&#45;&gt;Node4 -->
<g id="edge10" class="edge"><title>Node5&#45;&gt;Node4</title>
<path fill="none" stroke="#9a32cd" stroke-dasharray="5,2" d="M832.63,-259.053C850.942,-270.992 869.133,-282.42 874,-284 967.206,-314.269 1252.36,-318.772 1385.78,-319.17"/>
<polygon fill="#9a32cd" stroke="#9a32cd" points="834.538,-256.119 824.256,-253.566 830.702,-261.974 834.538,-256.119"/>
<text text-anchor="middle" x="1117" y="-319" font-family="Helvetica,sans-Serif" font-size="10.00"> m_prefetcher</text>
</g>
<!-- Node5&#45;&gt;Node16 -->
<g id="edge50" class="edge"><title>Node5&#45;&gt;Node16</title>
<path fill="none" stroke="#9a32cd" stroke-dasharray="5,2" d="M863.033,-227.641C908.882,-226.844 968.936,-226.997 1022,-231 1031.23,-231.696 1040.92,-232.748 1050.44,-233.97"/>
<polygon fill="#9a32cd" stroke="#9a32cd" points="862.814,-224.144 852.883,-227.837 862.949,-231.143 862.814,-224.144"/>
<text text-anchor="middle" x="948" y="-235" font-family="Helvetica,sans-Serif" font-size="10.00"> m_prefetcher</text>
</g>
<!-- Node6 -->
<g id="node12" class="node"><title>Node6</title>
<a xlink:href="structstxxl_1_1choose__int__types.html" target="_top" xlink:title="stxxl::choose_int_types\l\&lt; my_pointer_size \&gt;">
<polygon fill="none" stroke="black" points="493,-367 493,-401 613,-401 613,-367 493,-367"/>
<text text-anchor="start" x="501" y="-388" font-family="Helvetica,sans-Serif" font-size="10.00">stxxl::choose_int_types</text>
<text text-anchor="middle" x="553" y="-375" font-family="Helvetica,sans-Serif" font-size="10.00">&lt; my_pointer_size &gt;</text>
</a>
</g>
<!-- Node6&#45;&gt;Node4 -->
<g id="edge38" class="edge"><title>Node6&#45;&gt;Node4</title>
<path fill="none" stroke="#9a32cd" stroke-dasharray="5,2" d="M623.467,-386.679C628.385,-386.807 633.266,-386.916 638,-387 667.329,-387.517 674.668,-387.289 704,-387 921.914,-384.85 976.604,-384.166 1194,-369 1268.82,-363.78 1288.82,-369.442 1362,-353 1369.87,-351.231 1377.99,-348.983 1386,-346.488"/>
<polygon fill="#9a32cd" stroke="#9a32cd" points="623.453,-383.177 613.358,-386.393 623.255,-390.174 623.453,-383.177"/>
<text text-anchor="middle" x="948" y="-388" font-family="Helvetica,sans-Serif" font-size="10.00"> m_memory_to_use</text>
</g>
<!-- Node6&#45;&gt;Node5 -->
<g id="edge14" class="edge"><title>Node6&#45;&gt;Node5</title>
<path fill="none" stroke="#9a32cd" stroke-dasharray="5,2" d="M571.632,-358.776C587.464,-338.775 611.749,-311.245 638,-293 664.474,-274.6 697.155,-260.132 725.335,-249.726"/>
<polygon fill="#9a32cd" stroke="#9a32cd" points="568.743,-356.79 565.384,-366.838 574.276,-361.078 568.743,-356.79"/>
<text text-anchor="middle" x="671" y="-323" font-family="Helvetica,sans-Serif" font-size="10.00"> seq_length</text>
<text text-anchor="middle" x="671" y="-310" font-family="Helvetica,sans-Serif" font-size="10.00">nextconsume</text>
<text text-anchor="middle" x="671" y="-297" font-family="Helvetica,sans-Serif" font-size="10.00">nextread</text>
</g>
<!-- Node6&#45;&gt;Node15 -->
<g id="edge44" class="edge"><title>Node6&#45;&gt;Node15</title>
<path fill="none" stroke="#9a32cd" stroke-dasharray="5,2" d="M615.613,-363.836C652.498,-351.958 698.722,-337.073 734.165,-325.659"/>
<polygon fill="#9a32cd" stroke="#9a32cd" points="614.409,-360.547 605.963,-366.944 616.555,-367.21 614.409,-360.547"/>
<text text-anchor="middle" x="671" y="-359" font-family="Helvetica,sans-Serif" font-size="10.00"> k</text>
</g>
<!-- Node6&#45;&gt;Node16 -->
<g id="edge52" class="edge"><title>Node6&#45;&gt;Node16</title>
<path fill="none" stroke="#9a32cd" stroke-dasharray="5,2" d="M623.016,-378.918C648.566,-376.693 677.65,-373.726 704,-370 772.097,-360.37 789.724,-359.367 856,-341 931.747,-320.009 948.234,-307.142 1022,-280 1032.06,-276.298 1042.72,-272.372 1053.13,-268.541"/>
<polygon fill="#9a32cd" stroke="#9a32cd" points="622.711,-375.432 613.043,-379.766 623.303,-382.406 622.711,-375.432"/>
<text text-anchor="middle" x="789" y="-371" font-family="Helvetica,sans-Serif" font-size="10.00"> m_memory_to_use</text>
</g>
<!-- Node6&#45;&gt;Node19 -->
<g id="edge70" class="edge"><title>Node6&#45;&gt;Node19</title>
<path fill="none" stroke="#9a32cd" stroke-dasharray="5,2" d="M601.743,-406.775C608.753,-411.897 615.204,-417.949 620,-425 646.137,-463.425 607.483,-492.952 638,-528 690.803,-588.643 935.038,-584.094 1052.95,-578.107"/>
<polygon fill="#9a32cd" stroke="#9a32cd" points="603.589,-403.8 593.321,-401.187 599.718,-409.633 603.589,-403.8"/>
<text text-anchor="middle" x="789" y="-583" font-family="Helvetica,sans-Serif" font-size="10.00"> m_memsize</text>
</g>
<!-- Node6&#45;&gt;Node21 -->
<g id="edge78" class="edge"><title>Node6&#45;&gt;Node21</title>
<path fill="none" stroke="#9a32cd" stroke-dasharray="5,2" d="M592.833,-406.279C631.918,-428.14 691.799,-461.633 735.12,-485.864"/>
<polygon fill="#9a32cd" stroke="#9a32cd" points="594.289,-403.084 583.853,-401.257 590.872,-409.193 594.289,-403.084"/>
<text text-anchor="middle" x="671" y="-469" font-family="Helvetica,sans-Serif" font-size="10.00"> m_memsize</text>
</g>
<!-- Node7 -->
<g id="node14" class="node"><title>Node7</title>
<a xlink:href="structstxxl_1_1choose__int__types.html" target="_top" xlink:title="stxxl::choose_int_types\l\&lt; PtrSize \&gt;">
<polygon fill="none" stroke="black" points="235,-351 235,-385 355,-385 355,-351 235,-351"/>
<text text-anchor="start" x="243" y="-372" font-family="Helvetica,sans-Serif" font-size="10.00">stxxl::choose_int_types</text>
<text text-anchor="middle" x="295" y="-359" font-family="Helvetica,sans-Serif" font-size="10.00">&lt; PtrSize &gt;</text>
</a>
</g>
<!-- Node7&#45;&gt;Node6 -->
<g id="edge16" class="edge"><title>Node7&#45;&gt;Node6</title>
<path fill="none" stroke="orange" stroke-dasharray="5,2" d="M365.352,-372.363C405.244,-374.837 454.642,-377.9 492.741,-380.263"/>
<polygon fill="orange" stroke="orange" points="365.361,-368.857 355.164,-371.731 364.928,-375.843 365.361,-368.857"/>
<text text-anchor="middle" x="421" y="-382" font-family="Helvetica,sans-Serif" font-size="10.00"> &lt; my_pointer_size &gt;</text>
</g>
<!-- Node8&#45;&gt;Node5 -->
<g id="edge18" class="edge"><title>Node8&#45;&gt;Node5</title>
<path fill="none" stroke="#9a32cd" stroke-dasharray="5,2" d="M612.787,-179.006C640.87,-176.653 674.566,-176.546 704,-184 721.73,-188.49 739.771,-197.496 754.645,-206.358"/>
<polygon fill="#9a32cd" stroke="#9a32cd" points="612.336,-175.533 602.713,-179.965 612.999,-182.501 612.336,-175.533"/>
<text text-anchor="middle" x="671" y="-188" font-family="Helvetica,sans-Serif" font-size="10.00"> completed</text>
</g>
<!-- Node9&#45;&gt;Node8 -->
<g id="edge22" class="edge"><title>Node9&#45;&gt;Node8</title>
<path fill="none" stroke="#9a32cd" stroke-dasharray="5,2" d="M341.079,-153.757C376.1,-154.921 425.354,-157.822 468,-165 485.337,-167.918 504.25,-172.856 519.826,-177.41"/>
<polygon fill="#9a32cd" stroke="#9a32cd" points="340.79,-150.247 330.691,-153.449 340.582,-157.244 340.79,-150.247"/>
<text text-anchor="middle" x="421" y="-169" font-family="Helvetica,sans-Serif" font-size="10.00"> m_mutex</text>
</g>
<!-- Node10&#45;&gt;Node8 -->
<g id="edge26" class="edge"><title>Node10&#45;&gt;Node8</title>
<path fill="none" stroke="#9a32cd" stroke-dasharray="5,2" d="M365.963,-221.808C397.314,-217.473 434.57,-211.949 468,-206 480.326,-203.807 493.595,-201.143 505.899,-198.546"/>
<polygon fill="#9a32cd" stroke="#9a32cd" points="365.436,-218.347 356.004,-223.172 366.386,-225.282 365.436,-218.347"/>
<text text-anchor="middle" x="421" y="-224" font-family="Helvetica,sans-Serif" font-size="10.00"> m_cond</text>
</g>
<!-- Node11 -->
<g id="node25" class="node"><title>Node11</title>
<a xlink:href="classstxxl_1_1counting__ptr.html" target="_top" xlink:title="High&#45;performance smart pointer used as a wrapping reference counting pointer. ">
<polygon fill="none" stroke="black" points="246.5,-410 246.5,-444 343.5,-444 343.5,-410 246.5,-410"/>
<text text-anchor="start" x="254.5" y="-431" font-family="Helvetica,sans-Serif" font-size="10.00">stxxl::counting_ptr</text>
<text text-anchor="middle" x="295" y="-418" font-family="Helvetica,sans-Serif" font-size="10.00">&lt; Type &gt;</text>
</a>
</g>
<!-- Node11&#45;&gt;Node5 -->
<g id="edge30" class="edge"><title>Node11&#45;&gt;Node5</title>
<path fill="none" stroke="#9a32cd" stroke-dasharray="5,2" d="M353.754,-420.806C389.834,-414.481 435.247,-401.72 468,-376 480.53,-366.16 474.783,-356.314 486,-345 541.277,-289.249 564.232,-281.872 638,-255 665.714,-244.905 697.783,-238.864 725.22,-235.259"/>
<polygon fill="#9a32cd" stroke="#9a32cd" points="353.148,-417.358 343.843,-422.425 354.277,-424.267 353.148,-417.358"/>
<text text-anchor="middle" x="553" y="-349" font-family="Helvetica,sans-Serif" font-size="10.00"> read_reqs</text>
</g>
<!-- Node20 -->
<g id="node52" class="node"><title>Node20</title>
<a xlink:href="classstxxl_1_1counting__ptr.html" target="_top" xlink:title="stxxl::counting_ptr\l\&lt; sorted_runs_data_type \&gt;">
<polygon fill="none" stroke="black" points="486,-434 486,-468 620,-468 620,-434 486,-434"/>
<text text-anchor="start" x="494" y="-455" font-family="Helvetica,sans-Serif" font-size="10.00">stxxl::counting_ptr</text>
<text text-anchor="middle" x="553" y="-442" font-family="Helvetica,sans-Serif" font-size="10.00">&lt; sorted_runs_data_type &gt;</text>
</a>
</g>
<!-- Node11&#45;&gt;Node20 -->
<g id="edge68" class="edge"><title>Node11&#45;&gt;Node20</title>
<path fill="none" stroke="orange" stroke-dasharray="5,2" d="M353.489,-432.441C392.788,-436.097 444.69,-440.925 485.706,-444.74"/>
<polygon fill="orange" stroke="orange" points="353.809,-428.956 343.528,-431.514 353.161,-435.925 353.809,-428.956"/>
<text text-anchor="start" x="377" y="-459" font-family="Helvetica,sans-Serif" font-size="10.00"> &lt; sorted_runs_data</text>
<text text-anchor="middle" x="421" y="-446" font-family="Helvetica,sans-Serif" font-size="10.00">_type &gt;</text>
</g>
<!-- Node12 -->
<g id="node27" class="node"><title>Node12</title>
<a xlink:href="classstxxl_1_1completion__handler.html" target="_top" xlink:title="Completion handler class (Loki&#45;style). ">
<polygon fill="none" stroke="black" points="489,-23.5 489,-44.5 617,-44.5 617,-23.5 489,-23.5"/>
<text text-anchor="middle" x="553" y="-31.5" font-family="Helvetica,sans-Serif" font-size="10.00">stxxl::completion_handler</text>
</a>
</g>
<!-- Node12&#45;&gt;Node5 -->
<g id="edge32" class="edge"><title>Node12&#45;&gt;Node5</title>
<path fill="none" stroke="#9a32cd" stroke-dasharray="5,2" d="M573.619,-51.124C615.891,-86.2313 712.443,-166.419 760.599,-206.413"/>
<polygon fill="#9a32cd" stroke="#9a32cd" points="575.617,-48.2343 565.688,-44.5378 571.145,-53.6194 575.617,-48.2343"/>
<text text-anchor="middle" x="671" y="-159" font-family="Helvetica,sans-Serif" font-size="10.00"> do_after_fetch</text>
</g>
<!-- Node13 -->
<g id="node29" class="node"><title>Node13</title>
<a xlink:href="structstxxl_1_1compat__unique__ptr.html" target="_top" xlink:title="stxxl::compat_unique\l_ptr\&lt; stxxl::completion\l_handler_impl \&gt;">
<polygon fill="none" stroke="black" points="237,-0.5 237,-47.5 353,-47.5 353,-0.5 237,-0.5"/>
<text text-anchor="start" x="245" y="-34.5" font-family="Helvetica,sans-Serif" font-size="10.00">stxxl::compat_unique</text>
<text text-anchor="start" x="245" y="-21.5" font-family="Helvetica,sans-Serif" font-size="10.00">_ptr&lt; stxxl::completion</text>
<text text-anchor="middle" x="295" y="-8.5" font-family="Helvetica,sans-Serif" font-size="10.00">_handler_impl &gt;</text>
</a>
</g>
<!-- Node13&#45;&gt;Node12 -->
<g id="edge34" class="edge"><title>Node13&#45;&gt;Node12</title>
<path fill="none" stroke="#9a32cd" stroke-dasharray="5,2" d="M363.389,-26.6507C402.212,-28.1555 450.515,-30.0277 488.651,-31.5059"/>
<polygon fill="#9a32cd" stroke="#9a32cd" points="363.35,-23.1467 353.222,-26.2567 363.079,-30.1414 363.35,-23.1467"/>
<text text-anchor="middle" x="421" y="-34" font-family="Helvetica,sans-Serif" font-size="10.00"> m_ptr</text>
</g>
<!-- Node14 -->
<g id="node31" class="node"><title>Node14</title>
<a xlink:href="structstxxl_1_1compat__unique__ptr.html" target="_top" xlink:title="stxxl::compat_unique\l_ptr\&lt; Type \&gt;">
<polygon fill="none" stroke="black" points="0,-7 0,-41 110,-41 110,-7 0,-7"/>
<text text-anchor="start" x="8" y="-28" font-family="Helvetica,sans-Serif" font-size="10.00">stxxl::compat_unique</text>
<text text-anchor="middle" x="55" y="-15" font-family="Helvetica,sans-Serif" font-size="10.00">_ptr&lt; Type &gt;</text>
</a>
</g>
<!-- Node14&#45;&gt;Node13 -->
<g id="edge36" class="edge"><title>Node14&#45;&gt;Node13</title>
<path fill="none" stroke="orange" stroke-dasharray="5,2" d="M120.096,-24C156.538,-24 201.593,-24 236.848,-24"/>
<polygon fill="orange" stroke="orange" points="120.061,-20.5001 110.061,-24 120.061,-27.5001 120.061,-20.5001"/>
<text text-anchor="start" x="128.5" y="-41" font-family="Helvetica,sans-Serif" font-size="10.00"> &lt; stxxl::completion</text>
<text text-anchor="middle" x="172" y="-28" font-family="Helvetica,sans-Serif" font-size="10.00">_handler_impl &gt;</text>
</g>
<!-- Node15&#45;&gt;Node4 -->
<g id="edge40" class="edge"><title>Node15&#45;&gt;Node4</title>
<path fill="none" stroke="#9a32cd" stroke-dasharray="5,2" d="M853.72,-328.966C860.512,-330.585 867.36,-331.982 874,-333 1088.39,-365.853 1145.86,-350.949 1362,-333 1369.73,-332.358 1377.79,-331.48 1385.79,-330.474"/>
<polygon fill="#9a32cd" stroke="#9a32cd" points="854.393,-325.526 843.839,-326.454 852.669,-332.31 854.393,-325.526"/>
<text text-anchor="middle" x="1117" y="-356" font-family="Helvetica,sans-Serif" font-size="10.00"> m_losers</text>
</g>
<!-- Node15&#45;&gt;Node16 -->
<g id="edge54" class="edge"><title>Node15&#45;&gt;Node16</title>
<path fill="none" stroke="#9a32cd" stroke-dasharray="5,2" d="M839.336,-280.08C850.465,-274.949 862.403,-270.208 874,-267 932.178,-250.907 1000.88,-245.914 1050.37,-244.649"/>
<polygon fill="#9a32cd" stroke="#9a32cd" points="837.708,-276.979 830.203,-284.457 840.734,-283.291 837.708,-276.979"/>
<text text-anchor="middle" x="948" y="-271" font-family="Helvetica,sans-Serif" font-size="10.00"> m_losers</text>
</g>
<!-- Node16&#45;&gt;Node4 -->
<g id="edge46" class="edge"><title>Node16&#45;&gt;Node4</title>
<path fill="none" stroke="orange" stroke-dasharray="5,2" d="M1193.94,-243.27C1243.03,-244.181 1307.45,-249.158 1362,-266 1374.89,-269.979 1387.96,-275.912 1400.1,-282.386"/>
<polygon fill="orange" stroke="orange" points="1193.75,-239.767 1183.71,-243.134 1193.66,-246.766 1193.75,-239.767"/>
<text text-anchor="start" x="1214" y="-296" font-family="Helvetica,sans-Serif" font-size="10.00"> &lt; typename runs_creator</text>
<text text-anchor="start" x="1214" y="-283" font-family="Helvetica,sans-Serif" font-size="10.00">_type::sorted_runs_type,</text>
<text text-anchor="middle" x="1287" y="-270" font-family="Helvetica,sans-Serif" font-size="10.00"> cmp_type, alloc_strategy_type &gt;</text>
</g>
<!-- Node17 -->
<g id="node44" class="node"><title>Node17</title>
<a xlink:href="classstxxl_1_1stream_1_1runs__merger.html" target="_top" xlink:title="Merges sorted runs. ">
<polygon fill="none" stroke="black" points="1380,-212.5 1380,-259.5 1532,-259.5 1532,-212.5 1380,-212.5"/>
<text text-anchor="start" x="1388" y="-246.5" font-family="Helvetica,sans-Serif" font-size="10.00">stxxl::stream::runs</text>
<text text-anchor="start" x="1388" y="-233.5" font-family="Helvetica,sans-Serif" font-size="10.00">_merger&lt; RunsType, Compare</text>
<text text-anchor="middle" x="1456" y="-220.5" font-family="Helvetica,sans-Serif" font-size="10.00">Type, AllocStr &gt;</text>
</a>
</g>
<!-- Node16&#45;&gt;Node17 -->
<g id="edge58" class="edge"><title>Node16&#45;&gt;Node17</title>
<path fill="none" stroke="midnightblue" d="M1193.73,-242.963C1249.37,-241.486 1324.3,-239.496 1379.82,-238.023"/>
<polygon fill="midnightblue" stroke="midnightblue" points="1193.47,-239.468 1183.57,-243.233 1193.66,-246.466 1193.47,-239.468"/>
</g>
<!-- Node17&#45;&gt;Node3 -->
<g id="edge56" class="edge"><title>Node17&#45;&gt;Node3</title>
<path fill="none" stroke="orange" stroke-dasharray="5,2" d="M1542.2,-244.246C1588.55,-250.198 1646.25,-260.071 1696,-276 1701.83,-277.866 1707.76,-280.058 1713.65,-282.447"/>
<polygon fill="orange" stroke="orange" points="1542.54,-240.762 1532.19,-242.998 1541.68,-247.708 1542.54,-240.762"/>
<text text-anchor="start" x="1550" y="-306" font-family="Helvetica,sans-Serif" font-size="10.00"> &lt; typename runs_creator</text>
<text text-anchor="start" x="1550" y="-293" font-family="Helvetica,sans-Serif" font-size="10.00">_type::sorted_runs_type,</text>
<text text-anchor="middle" x="1623" y="-280" font-family="Helvetica,sans-Serif" font-size="10.00"> cmp_type, alloc_strategy_type &gt;</text>
</g>
<!-- Node18 -->
<g id="node47" class="node"><title>Node18</title>
<a xlink:href="classstxxl_1_1stream_1_1runs__creator.html" target="_top" xlink:title="stxxl::stream::runs\l_creator\&lt; stream::use\l_push\&lt; ValueType \&gt;, cmp\l_type, block_size, alloc\l_strategy_type \&gt;">
<polygon fill="none" stroke="black" points="1390,-498.5 1390,-571.5 1522,-571.5 1522,-498.5 1390,-498.5"/>
<text text-anchor="start" x="1398" y="-558.5" font-family="Helvetica,sans-Serif" font-size="10.00">stxxl::stream::runs</text>
<text text-anchor="start" x="1398" y="-545.5" font-family="Helvetica,sans-Serif" font-size="10.00">_creator&lt; stream::use</text>
<text text-anchor="start" x="1398" y="-532.5" font-family="Helvetica,sans-Serif" font-size="10.00">_push&lt; ValueType &gt;, cmp</text>
<text text-anchor="start" x="1398" y="-519.5" font-family="Helvetica,sans-Serif" font-size="10.00">_type, block_size, alloc</text>
<text text-anchor="middle" x="1456" y="-506.5" font-family="Helvetica,sans-Serif" font-size="10.00">_strategy_type &gt;</text>
</a>
</g>
<!-- Node18&#45;&gt;Node1 -->
<g id="edge60" class="edge"><title>Node18&#45;&gt;Node1</title>
<path fill="none" stroke="#9a32cd" stroke-dasharray="5,2" d="M1532.29,-535C1645.1,-535 1854.62,-535 1961.9,-535"/>
<polygon fill="#9a32cd" stroke="#9a32cd" points="1532.01,-531.5 1522.01,-535 1532.01,-538.5 1532.01,-531.5"/>
<text text-anchor="middle" x="1784" y="-539" font-family="Helvetica,sans-Serif" font-size="10.00"> m_runs_creator</text>
</g>
<!-- Node19&#45;&gt;Node18 -->
<g id="edge62" class="edge"><title>Node19&#45;&gt;Node18</title>
<path fill="none" stroke="midnightblue" d="M1191.21,-565.463C1250.46,-558.646 1332.74,-549.181 1389.79,-542.618"/>
<polygon fill="midnightblue" stroke="midnightblue" points="1190.7,-561.998 1181.16,-566.619 1191.5,-568.953 1190.7,-561.998"/>
</g>
<!-- Node20&#45;&gt;Node19 -->
<g id="edge66" class="edge"><title>Node20&#45;&gt;Node19</title>
<path fill="none" stroke="#9a32cd" stroke-dasharray="5,2" d="M630.539,-441.773C729.059,-433.99 900.833,-433.955 1022,-508 1032.2,-514.236 1030.76,-520.404 1040,-528 1044.09,-531.363 1048.45,-534.644 1052.94,-537.806"/>
<polygon fill="#9a32cd" stroke="#9a32cd" points="630.033,-438.303 620.36,-442.625 630.617,-445.278 630.033,-438.303"/>
<text text-anchor="middle" x="789" y="-453" font-family="Helvetica,sans-Serif" font-size="10.00"> m_result</text>
</g>
<!-- Node20&#45;&gt;Node21 -->
<g id="edge76" class="edge"><title>Node20&#45;&gt;Node21</title>
<path fill="none" stroke="#9a32cd" stroke-dasharray="5,2" d="M586.784,-473.634C601.849,-482.663 620.19,-492.258 638,-498 664.635,-506.587 695.101,-511.149 721.66,-513.547"/>
<polygon fill="#9a32cd" stroke="#9a32cd" points="588.209,-470.4 577.861,-468.125 584.531,-476.357 588.209,-470.4"/>
<text text-anchor="middle" x="671" y="-515" font-family="Helvetica,sans-Serif" font-size="10.00"> m_result</text>
</g>
<!-- Node21&#45;&gt;Node19 -->
<g id="edge72" class="edge"><title>Node21&#45;&gt;Node19</title>
<path fill="none" stroke="orange" stroke-dasharray="5,2" d="M866.249,-512.913C912.163,-512.895 971.169,-516.072 1022,-529 1032.26,-531.609 1042.74,-535.346 1052.83,-539.565"/>
<polygon fill="orange" stroke="orange" points="866.046,-509.413 856.065,-512.969 866.085,-516.413 866.046,-509.413"/>
<text text-anchor="start" x="874" y="-559" font-family="Helvetica,sans-Serif" font-size="10.00"> &lt; stream::use_push</text>
<text text-anchor="start" x="874" y="-546" font-family="Helvetica,sans-Serif" font-size="10.00">&lt; ValueType &gt;, cmp_type,</text>
<text text-anchor="middle" x="948" y="-533" font-family="Helvetica,sans-Serif" font-size="10.00"> BlockSize, alloc_strategy_type &gt;</text>
</g>
<!-- Node22 -->
<g id="node61" class="node"><title>Node22</title>
<a xlink:href="classstxxl_1_1stream_1_1runs__creator.html" target="_top" xlink:title="Forms sorted runs of data from a stream. ">
<polygon fill="none" stroke="black" points="1040.5,-471.5 1040.5,-518.5 1193.5,-518.5 1193.5,-471.5 1040.5,-471.5"/>
<text text-anchor="start" x="1048.5" y="-505.5" font-family="Helvetica,sans-Serif" font-size="10.00">stxxl::stream::runs</text>
<text text-anchor="start" x="1048.5" y="-492.5" font-family="Helvetica,sans-Serif" font-size="10.00">_creator&lt; Input, CompareType,</text>
<text text-anchor="middle" x="1117" y="-479.5" font-family="Helvetica,sans-Serif" font-size="10.00"> BlockSize, AllocStr &gt;</text>
</a>
</g>
<!-- Node21&#45;&gt;Node22 -->
<g id="edge82" class="edge"><title>Node21&#45;&gt;Node22</title>
<path fill="none" stroke="midnightblue" d="M866.331,-509.55C868.918,-509.36 871.48,-509.176 874,-509 929.644,-505.106 992.511,-501.506 1040.36,-498.931"/>
<polygon fill="midnightblue" stroke="midnightblue" points="865.975,-506.067 856.266,-510.307 866.5,-513.047 865.975,-506.067"/>
</g>
<!-- Node22&#45;&gt;Node18 -->
<g id="edge80" class="edge"><title>Node22&#45;&gt;Node18</title>
<path fill="none" stroke="orange" stroke-dasharray="5,2" d="M1203.94,-491.636C1251.07,-491.363 1310.12,-493.54 1362,-503 1371.16,-504.67 1380.64,-507.059 1389.89,-509.79"/>
<polygon fill="orange" stroke="orange" points="1203.73,-488.137 1193.76,-491.733 1203.8,-495.137 1203.73,-488.137"/>
<text text-anchor="start" x="1212" y="-533" font-family="Helvetica,sans-Serif" font-size="10.00"> &lt; stream::use_push</text>
<text text-anchor="start" x="1212" y="-520" font-family="Helvetica,sans-Serif" font-size="10.00">&lt; ValueType &gt;, cmp_type,</text>
<text text-anchor="middle" x="1287" y="-507" font-family="Helvetica,sans-Serif" font-size="10.00"> block_size, alloc_strategy_type &gt;</text>
</g>
</g>
</svg>
