<?xml version="1.0" encoding="UTF-8" standalone="no"?>
<!DOCTYPE svg PUBLIC "-//W3C//DTD SVG 1.1//EN"
 "http://www.w3.org/Graphics/SVG/1.1/DTD/svg11.dtd">
<!-- Generated by graphviz version 2.38.0 (20140413.2041)
 -->
<!-- Title: stxxl::btree::iterator_map&lt; BTreeType &gt; Pages: 1 -->
<svg width="123pt" height="174pt"
 viewBox="0.00 0.00 122.50 174.00" xmlns="http://www.w3.org/2000/svg" xmlns:xlink="http://www.w3.org/1999/xlink">
<g id="graph0" class="graph" transform="scale(1 1) rotate(0) translate(4 170)">
<title>stxxl::btree::iterator_map&lt; BTreeType &gt;</title>
<!-- Node1 -->
<g id="node1" class="node"><title>Node1</title>
<polygon fill="#bfbfbf" stroke="black" points="-7.10543e-15,-78.5 -7.10543e-15,-108.5 107,-108.5 107,-78.5 -7.10543e-15,-78.5"/>
<text text-anchor="start" x="8" y="-96.5" font-family="Helvetica,sans-Serif" font-size="10.00">stxxl::btree::iterator</text>
<text text-anchor="middle" x="53.5" y="-85.5" font-family="Helvetica,sans-Serif" font-size="10.00">_map&lt; BTreeType &gt;</text>
</g>
<!-- Node3 -->
<g id="node3" class="node"><title>Node3</title>
<g id="a_node3"><a xlink:href="classstxxl_1_1btree_1_1iterator__map.html" target="_top" xlink:title="stxxl::btree::iterator\l_map\&lt; self_type \&gt;">
<polygon fill="none" stroke="black" points="3,-0.5 3,-30.5 104,-30.5 104,-0.5 3,-0.5"/>
<text text-anchor="start" x="11" y="-18.5" font-family="Helvetica,sans-Serif" font-size="10.00">stxxl::btree::iterator</text>
<text text-anchor="middle" x="53.5" y="-7.5" font-family="Helvetica,sans-Serif" font-size="10.00">_map&lt; self_type &gt;</text>
</a>
</g>
</g>
<!-- Node1&#45;&gt;Node3 -->
<g id="edge2" class="edge"><title>Node1&#45;&gt;Node3</title>
<path fill="none" stroke="orange" stroke-dasharray="5,2" d="M53.5,-68.0898C53.5,-55.7565 53.5,-41.2237 53.5,-30.7309"/>
<polygon fill="orange" stroke="orange" points="50.0001,-68.2049 53.5,-78.205 57.0001,-68.205 50.0001,-68.2049"/>
<text text-anchor="middle" x="84" y="-52" font-family="Helvetica,sans-Serif" font-size="10.00"> &lt; self_type &gt;</text>
</g>
<!-- Node2 -->
<g id="node2" class="node"><title>Node2</title>
<g id="a_node2"><a xlink:href="classstxxl_1_1noncopyable.html" target="_top" xlink:title="stxxl::noncopyable">
<polygon fill="none" stroke="black" points="4.5,-146.5 4.5,-165.5 102.5,-165.5 102.5,-146.5 4.5,-146.5"/>
<text text-anchor="middle" x="53.5" y="-153.5" font-family="Helvetica,sans-Serif" font-size="10.00">stxxl::noncopyable</text>
</a>
</g>
</g>
<!-- Node2&#45;&gt;Node1 -->
<g id="edge1" class="edge"><title>Node2&#45;&gt;Node1</title>
<path fill="none" stroke="#8b1a1a" d="M53.5,-136.215C53.5,-127.356 53.5,-116.958 53.5,-108.759"/>
<polygon fill="#8b1a1a" stroke="#8b1a1a" points="50.0001,-136.332 53.5,-146.332 57.0001,-136.332 50.0001,-136.332"/>
</g>
</g>
</svg>
