<?xml version="1.0" encoding="UTF-8" standalone="no"?>
<!DOCTYPE svg PUBLIC "-//W3C//DTD SVG 1.1//EN"
 "http://www.w3.org/Graphics/SVG/1.1/DTD/svg11.dtd">
<!-- Generated by graphviz version 2.38.0 (20140413.2041)
 -->
<!-- Title: stxxl::sorter&lt; ValueType, CompareType, BlockSize, AllocStrategy &gt; Pages: 1 -->
<svg width="2129pt" height="641pt"
 viewBox="0.00 0.00 2129.00 641.00" xmlns="http://www.w3.org/2000/svg" xmlns:xlink="http://www.w3.org/1999/xlink">
<g id="graph0" class="graph" transform="scale(1 1) rotate(0) translate(4 637)">
<title>stxxl::sorter&lt; ValueType, CompareType, BlockSize, AllocStrategy &gt;</title>
<!-- Node1 -->
<g id="node1" class="node"><title>Node1</title>
<polygon fill="#bfbfbf" stroke="black" points="1987,-489.5 1987,-530.5 2121,-530.5 2121,-489.5 1987,-489.5"/>
<text text-anchor="start" x="1995" y="-518.5" font-family="Helvetica,sans-Serif" font-size="10.00">stxxl::sorter&lt; ValueType,</text>
<text text-anchor="start" x="1995" y="-507.5" font-family="Helvetica,sans-Serif" font-size="10.00"> CompareType, BlockSize,</text>
<text text-anchor="middle" x="2054" y="-496.5" font-family="Helvetica,sans-Serif" font-size="10.00"> AllocStrategy &gt;</text>
</g>
<!-- Node2 -->
<g id="node2" class="node"><title>Node2</title>
<g id="a_node2"><a xlink:href="classstxxl_1_1noncopyable.html" target="_top" xlink:title="stxxl::noncopyable">
<polygon fill="none" stroke="black" points="6,-237.5 6,-256.5 104,-256.5 104,-237.5 6,-237.5"/>
<text text-anchor="middle" x="55" y="-244.5" font-family="Helvetica,sans-Serif" font-size="10.00">stxxl::noncopyable</text>
</a>
</g>
</g>
<!-- Node2&#45;&gt;Node1 -->
<g id="edge1" class="edge"><title>Node2&#45;&gt;Node1</title>
<path fill="none" stroke="#8b1a1a" d="M56.0991,-266.547C57.2832,-316.27 66.3903,-449.725 128,-536 177.436,-605.228 207.933,-633 293,-633 293,-633 293,-633 1811,-633 1900.31,-633 1990,-565.603 2030.57,-530.587"/>
<polygon fill="#8b1a1a" stroke="#8b1a1a" points="59.5983,-266.459 55.9455,-256.514 52.5991,-266.566 59.5983,-266.459"/>
</g>
<!-- Node4 -->
<g id="node4" class="node"><title>Node4</title>
<g id="a_node4"><a xlink:href="classstxxl_1_1stream_1_1basic__runs__merger.html" target="_top" xlink:title="stxxl::stream::basic\l_runs_merger\&lt; typename\l runs_creator_type::sorted\l_runs_type, cmp_type, alloc\l_strategy_type \&gt;">
<polygon fill="none" stroke="black" points="1412,-273.5 1412,-336.5 1552,-336.5 1552,-273.5 1412,-273.5"/>
<text text-anchor="start" x="1420" y="-324.5" font-family="Helvetica,sans-Serif" font-size="10.00">stxxl::stream::basic</text>
<text text-anchor="start" x="1420" y="-313.5" font-family="Helvetica,sans-Serif" font-size="10.00">_runs_merger&lt; typename</text>
<text text-anchor="start" x="1420" y="-302.5" font-family="Helvetica,sans-Serif" font-size="10.00"> runs_creator_type::sorted</text>
<text text-anchor="start" x="1420" y="-291.5" font-family="Helvetica,sans-Serif" font-size="10.00">_runs_type, cmp_type, alloc</text>
<text text-anchor="middle" x="1482" y="-280.5" font-family="Helvetica,sans-Serif" font-size="10.00">_strategy_type &gt;</text>
</a>
</g>
</g>
<!-- Node2&#45;&gt;Node4 -->
<g id="edge4" class="edge"><title>Node2&#45;&gt;Node4</title>
<path fill="none" stroke="#8b1a1a" d="M60.2674,-227.158C68.0456,-196.024 87.5963,-136.053 128,-105 187.438,-59.3179 218.035,-70 293,-70 293,-70 293,-70 1144.5,-70 1274.73,-70 1295.19,-141.636 1388,-233 1398.02,-242.86 1395.79,-249.341 1406,-259 1411.33,-264.039 1417.29,-268.805 1423.47,-273.225"/>
<polygon fill="#8b1a1a" stroke="#8b1a1a" points="56.7843,-226.683 57.9176,-237.217 63.6008,-228.275 56.7843,-226.683"/>
</g>
<!-- Node5 -->
<g id="node5" class="node"><title>Node5</title>
<g id="a_node5"><a xlink:href="classstxxl_1_1block__prefetcher.html" target="_top" xlink:title="Encapsulates asynchronous prefetching engine. ">
<polygon fill="none" stroke="black" points="724.5,-205 724.5,-235 878.5,-235 878.5,-205 724.5,-205"/>
<text text-anchor="start" x="732.5" y="-223" font-family="Helvetica,sans-Serif" font-size="10.00">stxxl::block_prefetcher</text>
<text text-anchor="middle" x="801.5" y="-212" font-family="Helvetica,sans-Serif" font-size="10.00">&lt; BlockType, BidIteratorType &gt;</text>
</a>
</g>
</g>
<!-- Node2&#45;&gt;Node5 -->
<g id="edge6" class="edge"><title>Node2&#45;&gt;Node5</title>
<path fill="none" stroke="#8b1a1a" d="M114.333,-247.044C144.405,-246.962 181.671,-246.7 215,-246 397.854,-242.161 612.586,-230.895 724.28,-224.524"/>
<polygon fill="#8b1a1a" stroke="#8b1a1a" points="114.007,-243.544 104.014,-247.065 114.022,-250.544 114.007,-243.544"/>
</g>
<!-- Node8 -->
<g id="node8" class="node"><title>Node8</title>
<g id="a_node8"><a xlink:href="classstxxl_1_1onoff__switch.html" target="_top" xlink:title="stxxl::onoff_switch">
<polygon fill="none" stroke="black" points="501.5,-166.5 501.5,-185.5 600.5,-185.5 600.5,-166.5 501.5,-166.5"/>
<text text-anchor="middle" x="551" y="-173.5" font-family="Helvetica,sans-Serif" font-size="10.00">stxxl::onoff_switch</text>
</a>
</g>
</g>
<!-- Node2&#45;&gt;Node8 -->
<g id="edge10" class="edge"><title>Node2&#45;&gt;Node8</title>
<path fill="none" stroke="#8b1a1a" d="M98.9505,-234.719C108.492,-232.089 118.572,-229.386 128,-227 174.408,-215.257 185.703,-210.383 233,-203 327.412,-188.263 438.988,-181.114 501.413,-178.027"/>
<polygon fill="#8b1a1a" stroke="#8b1a1a" points="97.9475,-231.365 89.2516,-237.418 99.8238,-238.109 97.9475,-231.365"/>
</g>
<!-- Node9 -->
<g id="node9" class="node"><title>Node9</title>
<g id="a_node9"><a xlink:href="classstxxl_1_1mutex.html" target="_top" xlink:title="stxxl::mutex">
<polygon fill="none" stroke="black" points="258.5,-136.5 258.5,-155.5 329.5,-155.5 329.5,-136.5 258.5,-136.5"/>
<text text-anchor="middle" x="294" y="-143.5" font-family="Helvetica,sans-Serif" font-size="10.00">stxxl::mutex</text>
</a>
</g>
</g>
<!-- Node2&#45;&gt;Node9 -->
<g id="edge12" class="edge"><title>Node2&#45;&gt;Node9</title>
<path fill="none" stroke="#8b1a1a" d="M67.4129,-228.967C79.9264,-210.854 101.758,-183.718 128,-170 169.174,-148.476 223.576,-144.507 258.435,-144.542"/>
<polygon fill="#8b1a1a" stroke="#8b1a1a" points="64.3638,-227.231 61.7445,-237.497 70.194,-231.105 64.3638,-227.231"/>
</g>
<!-- Node10 -->
<g id="node10" class="node"><title>Node10</title>
<g id="a_node10"><a xlink:href="classstxxl_1_1condition__variable.html" target="_top" xlink:title="stxxl::condition_variable">
<polygon fill="none" stroke="black" points="233,-212.5 233,-231.5 355,-231.5 355,-212.5 233,-212.5"/>
<text text-anchor="middle" x="294" y="-219.5" font-family="Helvetica,sans-Serif" font-size="10.00">stxxl::condition_variable</text>
</a>
</g>
</g>
<!-- Node2&#45;&gt;Node10 -->
<g id="edge14" class="edge"><title>Node2&#45;&gt;Node10</title>
<path fill="none" stroke="#8b1a1a" d="M114.57,-240.822C150.481,-237.034 196.358,-232.194 232.6,-228.371"/>
<polygon fill="#8b1a1a" stroke="#8b1a1a" points="113.824,-237.381 104.246,-241.911 114.558,-244.342 113.824,-237.381"/>
</g>
<!-- Node15 -->
<g id="node15" class="node"><title>Node15</title>
<g id="a_node15"><a xlink:href="classstxxl_1_1loser__tree.html" target="_top" xlink:title="stxxl::loser_tree\&lt;\l RunCursorType, RunCursorCmp\lType \&gt;">
<polygon fill="none" stroke="black" points="720,-274.5 720,-315.5 883,-315.5 883,-274.5 720,-274.5"/>
<text text-anchor="start" x="728" y="-303.5" font-family="Helvetica,sans-Serif" font-size="10.00">stxxl::loser_tree&lt;</text>
<text text-anchor="start" x="728" y="-292.5" font-family="Helvetica,sans-Serif" font-size="10.00"> RunCursorType, RunCursorCmp</text>
<text text-anchor="middle" x="801.5" y="-281.5" font-family="Helvetica,sans-Serif" font-size="10.00">Type &gt;</text>
</a>
</g>
</g>
<!-- Node2&#45;&gt;Node15 -->
<g id="edge21" class="edge"><title>Node2&#45;&gt;Node15</title>
<path fill="none" stroke="#8b1a1a" d="M111.28,-258.343C116.914,-259.321 122.563,-260.229 128,-261 285.287,-283.301 325.323,-285.38 484,-293 564.133,-296.848 655.808,-296.957 719.796,-296.341"/>
<polygon fill="#8b1a1a" stroke="#8b1a1a" points="111.665,-254.856 101.202,-256.523 110.421,-261.744 111.665,-254.856"/>
</g>
<!-- Node16 -->
<g id="node16" class="node"><title>Node16</title>
<g id="a_node16"><a xlink:href="classstxxl_1_1stream_1_1basic__runs__merger.html" target="_top" xlink:title="Merges sorted runs. ">
<polygon fill="none" stroke="black" points="1077,-215.5 1077,-256.5 1210,-256.5 1210,-215.5 1077,-215.5"/>
<text text-anchor="start" x="1085" y="-244.5" font-family="Helvetica,sans-Serif" font-size="10.00">stxxl::stream::basic</text>
<text text-anchor="start" x="1085" y="-233.5" font-family="Helvetica,sans-Serif" font-size="10.00">_runs_merger&lt; RunsType,</text>
<text text-anchor="middle" x="1143.5" y="-222.5" font-family="Helvetica,sans-Serif" font-size="10.00"> CompareType, AllocStr &gt;</text>
</a>
</g>
</g>
<!-- Node2&#45;&gt;Node16 -->
<g id="edge24" class="edge"><title>Node2&#45;&gt;Node16</title>
<path fill="none" stroke="#8b1a1a" d="M63.7586,-228.072C74.5223,-204.303 96.3076,-164.089 128,-143 190.411,-101.471 218.035,-108 293,-108 293,-108 293,-108 802.5,-108 922.968,-108 1052.94,-179.252 1111.17,-215.435"/>
<polygon fill="#8b1a1a" stroke="#8b1a1a" points="60.469,-226.861 59.7078,-237.429 66.8928,-229.643 60.469,-226.861"/>
</g>
<!-- Node19 -->
<g id="node19" class="node"><title>Node19</title>
<g id="a_node19"><a xlink:href="classstxxl_1_1stream_1_1basic__runs__creator.html" target="_top" xlink:title="stxxl::stream::basic\l_runs_creator\&lt; stream\l::use_push\&lt; ValueType\l \&gt;, cmp_type, BlockSize,\l alloc_strategy_type \&gt;">
<polygon fill="none" stroke="black" points="1079.5,-514.5 1079.5,-577.5 1207.5,-577.5 1207.5,-514.5 1079.5,-514.5"/>
<text text-anchor="start" x="1087.5" y="-565.5" font-family="Helvetica,sans-Serif" font-size="10.00">stxxl::stream::basic</text>
<text text-anchor="start" x="1087.5" y="-554.5" font-family="Helvetica,sans-Serif" font-size="10.00">_runs_creator&lt; stream</text>
<text text-anchor="start" x="1087.5" y="-543.5" font-family="Helvetica,sans-Serif" font-size="10.00">::use_push&lt; ValueType</text>
<text text-anchor="start" x="1087.5" y="-532.5" font-family="Helvetica,sans-Serif" font-size="10.00"> &gt;, cmp_type, BlockSize,</text>
<text text-anchor="middle" x="1143.5" y="-521.5" font-family="Helvetica,sans-Serif" font-size="10.00"> alloc_strategy_type &gt;</text>
</a>
</g>
</g>
<!-- Node2&#45;&gt;Node19 -->
<g id="edge32" class="edge"><title>Node2&#45;&gt;Node19</title>
<path fill="none" stroke="#8b1a1a" d="M59.4283,-266.914C73.3951,-340.801 133.068,-595 293,-595 293,-595 293,-595 802.5,-595 912.711,-595 940.38,-586.656 1049,-568 1058.86,-566.306 1069.24,-564.198 1079.34,-561.963"/>
<polygon fill="#8b1a1a" stroke="#8b1a1a" points="62.799,-265.886 57.5709,-256.671 55.9113,-267.135 62.799,-265.886"/>
</g>
<!-- Node21 -->
<g id="node21" class="node"><title>Node21</title>
<g id="a_node21"><a xlink:href="classstxxl_1_1stream_1_1basic__runs__creator.html" target="_top" xlink:title="Forms sorted runs of data from a stream. ">
<polygon fill="none" stroke="black" points="734.5,-467 734.5,-519 868.5,-519 868.5,-467 734.5,-467"/>
<text text-anchor="start" x="742.5" y="-507" font-family="Helvetica,sans-Serif" font-size="10.00">stxxl::stream::basic</text>
<text text-anchor="start" x="742.5" y="-496" font-family="Helvetica,sans-Serif" font-size="10.00">_runs_creator&lt; Input,</text>
<text text-anchor="start" x="742.5" y="-485" font-family="Helvetica,sans-Serif" font-size="10.00"> CompareType, BlockSize,</text>
<text text-anchor="middle" x="801.5" y="-474" font-family="Helvetica,sans-Serif" font-size="10.00"> AllocStr &gt;</text>
</a>
</g>
</g>
<!-- Node2&#45;&gt;Node21 -->
<g id="edge37" class="edge"><title>Node2&#45;&gt;Node21</title>
<path fill="none" stroke="#8b1a1a" d="M67.5076,-265.066C92.5508,-302.736 155.976,-389.6 233,-431 393.403,-517.216 454.645,-488.488 636,-505 668.367,-507.947 704.369,-505.922 734.42,-502.755"/>
<polygon fill="#8b1a1a" stroke="#8b1a1a" points="70.3812,-263.065 61.9826,-256.606 64.5204,-266.893 70.3812,-263.065"/>
</g>
<!-- Node3 -->
<g id="node3" class="node"><title>Node3</title>
<g id="a_node3"><a xlink:href="classstxxl_1_1stream_1_1runs__merger.html" target="_top" xlink:title="stxxl::stream::runs\l_merger\&lt; typename runs\l_creator_type::sorted\l_runs_type, cmp_type, alloc\l_strategy_type \&gt;">
<polygon fill="none" stroke="black" points="1740,-273.5 1740,-336.5 1880,-336.5 1880,-273.5 1740,-273.5"/>
<text text-anchor="start" x="1748" y="-324.5" font-family="Helvetica,sans-Serif" font-size="10.00">stxxl::stream::runs</text>
<text text-anchor="start" x="1748" y="-313.5" font-family="Helvetica,sans-Serif" font-size="10.00">_merger&lt; typename runs</text>
<text text-anchor="start" x="1748" y="-302.5" font-family="Helvetica,sans-Serif" font-size="10.00">_creator_type::sorted</text>
<text text-anchor="start" x="1748" y="-291.5" font-family="Helvetica,sans-Serif" font-size="10.00">_runs_type, cmp_type, alloc</text>
<text text-anchor="middle" x="1810" y="-280.5" font-family="Helvetica,sans-Serif" font-size="10.00">_strategy_type &gt;</text>
</a>
</g>
</g>
<!-- Node3&#45;&gt;Node1 -->
<g id="edge2" class="edge"><title>Node3&#45;&gt;Node1</title>
<path fill="none" stroke="#9a32cd" stroke-dasharray="5,2" d="M1856.2,-343.287C1907.19,-386.483 1988.26,-455.154 2028.57,-489.306"/>
<polygon fill="#9a32cd" stroke="#9a32cd" points="1858.17,-340.375 1848.28,-336.582 1853.65,-345.716 1858.17,-340.375"/>
<text text-anchor="middle" x="1933.5" y="-441" font-family="Helvetica,sans-Serif" font-size="10.00"> m_runs_merger</text>
</g>
<!-- Node4&#45;&gt;Node3 -->
<g id="edge3" class="edge"><title>Node4&#45;&gt;Node3</title>
<path fill="none" stroke="midnightblue" d="M1562.42,-305C1616.73,-305 1688.01,-305 1739.96,-305"/>
<polygon fill="midnightblue" stroke="midnightblue" points="1562.14,-301.5 1552.14,-305 1562.14,-308.5 1562.14,-301.5"/>
</g>
<!-- Node5&#45;&gt;Node4 -->
<g id="edge5" class="edge"><title>Node5&#45;&gt;Node4</title>
<path fill="none" stroke="#9a32cd" stroke-dasharray="5,2" d="M834.344,-240.368C853.003,-251.206 877.466,-263.589 901,-270 1080.09,-318.789 1301.37,-315.525 1411.67,-309.83"/>
<polygon fill="#9a32cd" stroke="#9a32cd" points="836.061,-237.317 825.679,-235.205 832.478,-243.331 836.061,-237.317"/>
<text text-anchor="middle" x="1143.5" y="-315" font-family="Helvetica,sans-Serif" font-size="10.00"> m_prefetcher</text>
</g>
<!-- Node5&#45;&gt;Node16 -->
<g id="edge25" class="edge"><title>Node5&#45;&gt;Node16</title>
<path fill="none" stroke="#9a32cd" stroke-dasharray="5,2" d="M888.912,-217.082C936.265,-216.305 995.95,-216.663 1049,-221 1058.01,-221.737 1067.47,-222.849 1076.76,-224.142"/>
<polygon fill="#9a32cd" stroke="#9a32cd" points="888.63,-213.586 878.696,-217.27 888.759,-220.585 888.63,-213.586"/>
<text text-anchor="middle" x="975" y="-224" font-family="Helvetica,sans-Serif" font-size="10.00"> m_prefetcher</text>
</g>
<!-- Node6 -->
<g id="node6" class="node"><title>Node6</title>
<g id="a_node6"><a xlink:href="structstxxl_1_1choose__int__types.html" target="_top" xlink:title="stxxl::choose_int_types\l\&lt; my_pointer_size \&gt;">
<polygon fill="none" stroke="black" points="491,-351 491,-381 611,-381 611,-351 491,-351"/>
<text text-anchor="start" x="499" y="-369" font-family="Helvetica,sans-Serif" font-size="10.00">stxxl::choose_int_types</text>
<text text-anchor="middle" x="551" y="-358" font-family="Helvetica,sans-Serif" font-size="10.00">&lt; my_pointer_size &gt;</text>
</a>
</g>
</g>
<!-- Node6&#45;&gt;Node4 -->
<g id="edge19" class="edge"><title>Node6&#45;&gt;Node4</title>
<path fill="none" stroke="#9a32cd" stroke-dasharray="5,2" d="M621.364,-369.562C626.316,-369.737 631.234,-369.887 636,-370 665.325,-370.698 672.669,-370.405 702,-370 932.355,-366.819 989.989,-363.989 1220,-351 1294.74,-346.779 1314.8,-354.671 1388,-339 1395.82,-337.327 1403.86,-335.139 1411.8,-332.68"/>
<polygon fill="#9a32cd" stroke="#9a32cd" points="621.315,-366.058 611.188,-369.172 621.046,-373.053 621.315,-366.058"/>
<text text-anchor="middle" x="975" y="-370" font-family="Helvetica,sans-Serif" font-size="10.00"> m_memory_to_use</text>
</g>
<!-- Node6&#45;&gt;Node5 -->
<g id="edge7" class="edge"><title>Node6&#45;&gt;Node5</title>
<path fill="none" stroke="#9a32cd" stroke-dasharray="5,2" d="M571.678,-343.413C587.644,-326.165 611.457,-302.757 636,-287 671.68,-264.092 716.488,-246.464 750.325,-235.052"/>
<polygon fill="#9a32cd" stroke="#9a32cd" points="569.052,-341.098 564.921,-350.854 574.234,-345.804 569.052,-341.098"/>
<text text-anchor="middle" x="669" y="-312" font-family="Helvetica,sans-Serif" font-size="10.00"> seq_length</text>
<text text-anchor="middle" x="669" y="-301" font-family="Helvetica,sans-Serif" font-size="10.00">nextconsume</text>
<text text-anchor="middle" x="669" y="-290" font-family="Helvetica,sans-Serif" font-size="10.00">nextread</text>
</g>
<!-- Node6&#45;&gt;Node15 -->
<g id="edge22" class="edge"><title>Node6&#45;&gt;Node15</title>
<path fill="none" stroke="#9a32cd" stroke-dasharray="5,2" d="M611.928,-348.032C620.013,-345.647 628.205,-343.25 636,-341 665.347,-332.53 697.708,-323.43 725.907,-315.577"/>
<polygon fill="#9a32cd" stroke="#9a32cd" points="610.748,-344.731 602.152,-350.925 612.735,-351.443 610.748,-344.731"/>
<text text-anchor="middle" x="669" y="-344" font-family="Helvetica,sans-Serif" font-size="10.00"> k</text>
</g>
<!-- Node6&#45;&gt;Node16 -->
<g id="edge26" class="edge"><title>Node6&#45;&gt;Node16</title>
<path fill="none" stroke="#9a32cd" stroke-dasharray="5,2" d="M621.481,-360.317C646.853,-358.031 675.756,-355.18 702,-352 782.744,-342.217 803.982,-344.273 883,-325 957.035,-306.942 1039.89,-276.691 1091.63,-256.542"/>
<polygon fill="#9a32cd" stroke="#9a32cd" points="620.863,-356.859 611.212,-361.23 621.482,-363.831 620.863,-356.859"/>
<text text-anchor="middle" x="801.5" y="-353" font-family="Helvetica,sans-Serif" font-size="10.00"> m_memory_to_use</text>
</g>
<!-- Node6&#45;&gt;Node19 -->
<g id="edge35" class="edge"><title>Node6&#45;&gt;Node19</title>
<path fill="none" stroke="#9a32cd" stroke-dasharray="5,2" d="M596.548,-386.487C604.76,-392.083 612.474,-398.893 618,-407 642.942,-443.592 606.055,-472.375 636,-505 694.09,-568.288 956.923,-559.012 1079.37,-550.951"/>
<polygon fill="#9a32cd" stroke="#9a32cd" points="598.22,-383.405 587.881,-381.092 594.521,-389.348 598.22,-383.405"/>
<text text-anchor="middle" x="801.5" y="-559" font-family="Helvetica,sans-Serif" font-size="10.00"> m_memsize</text>
</g>
<!-- Node6&#45;&gt;Node21 -->
<g id="edge39" class="edge"><title>Node6&#45;&gt;Node21</title>
<path fill="none" stroke="#9a32cd" stroke-dasharray="5,2" d="M590.562,-385.768C624.605,-403.214 675.588,-429.323 720,-452 729.498,-456.85 739.631,-462.016 749.39,-466.989"/>
<polygon fill="#9a32cd" stroke="#9a32cd" points="591.924,-382.534 581.428,-381.087 588.731,-388.763 591.924,-382.534"/>
<text text-anchor="middle" x="669" y="-446" font-family="Helvetica,sans-Serif" font-size="10.00"> m_memsize</text>
</g>
<!-- Node7 -->
<g id="node7" class="node"><title>Node7</title>
<g id="a_node7"><a xlink:href="structstxxl_1_1choose__int__types.html" target="_top" xlink:title="stxxl::choose_int_types\l\&lt; PtrSize \&gt;">
<polygon fill="none" stroke="black" points="234,-336 234,-366 354,-366 354,-336 234,-336"/>
<text text-anchor="start" x="242" y="-354" font-family="Helvetica,sans-Serif" font-size="10.00">stxxl::choose_int_types</text>
<text text-anchor="middle" x="294" y="-343" font-family="Helvetica,sans-Serif" font-size="10.00">&lt; PtrSize &gt;</text>
</a>
</g>
</g>
<!-- Node7&#45;&gt;Node6 -->
<g id="edge8" class="edge"><title>Node7&#45;&gt;Node6</title>
<path fill="none" stroke="orange" stroke-dasharray="5,2" d="M364.249,-355.073C403.83,-357.402 452.951,-360.291 490.737,-362.514"/>
<polygon fill="orange" stroke="orange" points="364.331,-351.572 354.143,-354.479 363.92,-358.56 364.331,-351.572"/>
<text text-anchor="middle" x="419.5" y="-364" font-family="Helvetica,sans-Serif" font-size="10.00"> &lt; my_pointer_size &gt;</text>
</g>
<!-- Node8&#45;&gt;Node5 -->
<g id="edge9" class="edge"><title>Node8&#45;&gt;Node5</title>
<path fill="none" stroke="#9a32cd" stroke-dasharray="5,2" d="M610.845,-170.356C638.756,-169.108 672.398,-169.689 702,-176 728.011,-181.546 755.472,-194.477 774.772,-204.894"/>
<polygon fill="#9a32cd" stroke="#9a32cd" points="610.638,-166.862 600.839,-170.891 611.012,-173.852 610.638,-166.862"/>
<text text-anchor="middle" x="669" y="-179" font-family="Helvetica,sans-Serif" font-size="10.00"> completed</text>
</g>
<!-- Node9&#45;&gt;Node8 -->
<g id="edge11" class="edge"><title>Node9&#45;&gt;Node8</title>
<path fill="none" stroke="#9a32cd" stroke-dasharray="5,2" d="M339.774,-147.886C374.365,-149.709 423.372,-153.089 466,-159 479.706,-160.901 494.54,-163.664 507.873,-166.412"/>
<polygon fill="#9a32cd" stroke="#9a32cd" points="339.688,-144.377 329.524,-147.369 339.335,-151.368 339.688,-144.377"/>
<text text-anchor="middle" x="419.5" y="-162" font-family="Helvetica,sans-Serif" font-size="10.00"> m_mutex</text>
</g>
<!-- Node10&#45;&gt;Node8 -->
<g id="edge13" class="edge"><title>Node10&#45;&gt;Node8</title>
<path fill="none" stroke="#9a32cd" stroke-dasharray="5,2" d="M365.318,-214.009C396.328,-210.002 433.121,-204.589 466,-198 482.998,-194.593 501.676,-189.808 517.094,-185.57"/>
<polygon fill="#9a32cd" stroke="#9a32cd" points="364.518,-210.583 355.038,-215.314 365.399,-217.527 364.518,-210.583"/>
<text text-anchor="middle" x="419.5" y="-216" font-family="Helvetica,sans-Serif" font-size="10.00"> m_cond</text>
</g>
<!-- Node11 -->
<g id="node11" class="node"><title>Node11</title>
<g id="a_node11"><a xlink:href="classstxxl_1_1counting__ptr.html" target="_top" xlink:title="High&#45;performance smart pointer used as a wrapping reference counting pointer. ">
<polygon fill="none" stroke="black" points="245.5,-392 245.5,-422 342.5,-422 342.5,-392 245.5,-392"/>
<text text-anchor="start" x="253.5" y="-410" font-family="Helvetica,sans-Serif" font-size="10.00">stxxl::counting_ptr</text>
<text text-anchor="middle" x="294" y="-399" font-family="Helvetica,sans-Serif" font-size="10.00">&lt; Type &gt;</text>
</a>
</g>
</g>
<!-- Node11&#45;&gt;Node5 -->
<g id="edge15" class="edge"><title>Node11&#45;&gt;Node5</title>
<path fill="none" stroke="#9a32cd" stroke-dasharray="5,2" d="M352.758,-400.889C388.249,-394.752 433.066,-382.483 466,-358 477.873,-349.174 473.095,-339.997 484,-330 540.274,-278.413 563.839,-274.913 636,-250 664.127,-240.289 696.102,-233.545 724.334,-228.949"/>
<polygon fill="#9a32cd" stroke="#9a32cd" points="351.858,-397.489 342.541,-402.534 352.97,-404.4 351.858,-397.489"/>
<text text-anchor="middle" x="551" y="-333" font-family="Helvetica,sans-Serif" font-size="10.00"> read_reqs</text>
</g>
<!-- Node20 -->
<g id="node20" class="node"><title>Node20</title>
<g id="a_node20"><a xlink:href="classstxxl_1_1counting__ptr.html" target="_top" xlink:title="stxxl::counting_ptr\l\&lt; sorted_runs_data_type \&gt;">
<polygon fill="none" stroke="black" points="484,-417 484,-447 618,-447 618,-417 484,-417"/>
<text text-anchor="start" x="492" y="-435" font-family="Helvetica,sans-Serif" font-size="10.00">stxxl::counting_ptr</text>
<text text-anchor="middle" x="551" y="-424" font-family="Helvetica,sans-Serif" font-size="10.00">&lt; sorted_runs_data_type &gt;</text>
</a>
</g>
</g>
<!-- Node11&#45;&gt;Node20 -->
<g id="edge34" class="edge"><title>Node11&#45;&gt;Node20</title>
<path fill="none" stroke="orange" stroke-dasharray="5,2" d="M352.789,-412.666C391.738,-416.484 443.219,-421.531 483.815,-425.511"/>
<polygon fill="orange" stroke="orange" points="352.958,-409.165 342.664,-411.673 352.275,-416.132 352.958,-409.165"/>
<text text-anchor="start" x="375.5" y="-438" font-family="Helvetica,sans-Serif" font-size="10.00"> &lt; sorted_runs_data</text>
<text text-anchor="middle" x="419.5" y="-427" font-family="Helvetica,sans-Serif" font-size="10.00">_type &gt;</text>
</g>
<!-- Node12 -->
<g id="node12" class="node"><title>Node12</title>
<g id="a_node12"><a xlink:href="classstxxl_1_1completion__handler.html" target="_top" xlink:title="Completion handler class (Loki&#45;style). ">
<polygon fill="none" stroke="black" points="487,-19.5 487,-38.5 615,-38.5 615,-19.5 487,-19.5"/>
<text text-anchor="middle" x="551" y="-26.5" font-family="Helvetica,sans-Serif" font-size="10.00">stxxl::completion_handler</text>
</a>
</g>
</g>
<!-- Node12&#45;&gt;Node5 -->
<g id="edge16" class="edge"><title>Node12&#45;&gt;Node5</title>
<path fill="none" stroke="#9a32cd" stroke-dasharray="5,2" d="M572.649,-44.8707C619.812,-81.1211 734.918,-169.593 780.978,-204.995"/>
<polygon fill="#9a32cd" stroke="#9a32cd" points="574.726,-42.0533 564.665,-38.7343 570.461,-47.6034 574.726,-42.0533"/>
<text text-anchor="middle" x="669" y="-145" font-family="Helvetica,sans-Serif" font-size="10.00"> do_after_fetch</text>
</g>
<!-- Node13 -->
<g id="node13" class="node"><title>Node13</title>
<g id="a_node13"><a xlink:href="structstxxl_1_1compat__unique__ptr.html" target="_top" xlink:title="stxxl::compat_unique\l_ptr\&lt; stxxl::completion\l_handler_impl \&gt;">
<polygon fill="none" stroke="black" points="236,-0.5 236,-41.5 352,-41.5 352,-0.5 236,-0.5"/>
<text text-anchor="start" x="244" y="-29.5" font-family="Helvetica,sans-Serif" font-size="10.00">stxxl::compat_unique</text>
<text text-anchor="start" x="244" y="-18.5" font-family="Helvetica,sans-Serif" font-size="10.00">_ptr&lt; stxxl::completion</text>
<text text-anchor="middle" x="294" y="-7.5" font-family="Helvetica,sans-Serif" font-size="10.00">_handler_impl &gt;</text>
</a>
</g>
</g>
<!-- Node13&#45;&gt;Node12 -->
<g id="edge17" class="edge"><title>Node13&#45;&gt;Node12</title>
<path fill="none" stroke="#9a32cd" stroke-dasharray="5,2" d="M362.312,-23.1118C400.834,-24.3203 448.869,-25.8273 486.7,-27.0141"/>
<polygon fill="#9a32cd" stroke="#9a32cd" points="362.332,-19.6107 352.227,-22.7954 362.112,-26.6073 362.332,-19.6107"/>
<text text-anchor="middle" x="419.5" y="-30" font-family="Helvetica,sans-Serif" font-size="10.00"> m_ptr</text>
</g>
<!-- Node14 -->
<g id="node14" class="node"><title>Node14</title>
<g id="a_node14"><a xlink:href="structstxxl_1_1compat__unique__ptr.html" target="_top" xlink:title="stxxl::compat_unique\l_ptr\&lt; Type \&gt;">
<polygon fill="none" stroke="black" points="0,-6 0,-36 110,-36 110,-6 0,-6"/>
<text text-anchor="start" x="8" y="-24" font-family="Helvetica,sans-Serif" font-size="10.00">stxxl::compat_unique</text>
<text text-anchor="middle" x="55" y="-13" font-family="Helvetica,sans-Serif" font-size="10.00">_ptr&lt; Type &gt;</text>
</a>
</g>
</g>
<!-- Node14&#45;&gt;Node13 -->
<g id="edge18" class="edge"><title>Node14&#45;&gt;Node13</title>
<path fill="none" stroke="orange" stroke-dasharray="5,2" d="M120.485,-21C156.532,-21 201.062,-21 235.851,-21"/>
<polygon fill="orange" stroke="orange" points="120.076,-17.5001 110.076,-21 120.075,-24.5001 120.076,-17.5001"/>
<text text-anchor="start" x="128" y="-35" font-family="Helvetica,sans-Serif" font-size="10.00"> &lt; stxxl::completion</text>
<text text-anchor="middle" x="171.5" y="-24" font-family="Helvetica,sans-Serif" font-size="10.00">_handler_impl &gt;</text>
</g>
<!-- Node15&#45;&gt;Node4 -->
<g id="edge20" class="edge"><title>Node15&#45;&gt;Node4</title>
<path fill="none" stroke="#9a32cd" stroke-dasharray="5,2" d="M889.23,-317.3C893.194,-317.95 897.131,-318.524 901,-319 1115.82,-345.451 1172.21,-335.797 1388,-319 1395.73,-318.398 1403.8,-317.538 1411.8,-316.535"/>
<polygon fill="#9a32cd" stroke="#9a32cd" points="889.803,-313.847 879.344,-315.536 888.574,-320.738 889.803,-313.847"/>
<text text-anchor="middle" x="1143.5" y="-339" font-family="Helvetica,sans-Serif" font-size="10.00"> m_losers</text>
</g>
<!-- Node15&#45;&gt;Node16 -->
<g id="edge27" class="edge"><title>Node15&#45;&gt;Node16</title>
<path fill="none" stroke="#9a32cd" stroke-dasharray="5,2" d="M854.617,-270.368C869.318,-264.382 885.529,-258.657 901,-255 959.426,-241.189 1027.78,-236.872 1076.83,-235.756"/>
<polygon fill="#9a32cd" stroke="#9a32cd" points="853.063,-267.224 845.196,-274.321 855.772,-273.679 853.063,-267.224"/>
<text text-anchor="middle" x="975" y="-258" font-family="Helvetica,sans-Serif" font-size="10.00"> m_losers</text>
</g>
<!-- Node16&#45;&gt;Node4 -->
<g id="edge23" class="edge"><title>Node16&#45;&gt;Node4</title>
<path fill="none" stroke="orange" stroke-dasharray="5,2" d="M1220.22,-235.547C1268.97,-237.025 1333.24,-242.311 1388,-258 1401.04,-261.737 1414.43,-267.318 1426.83,-273.342"/>
<polygon fill="orange" stroke="orange" points="1220.15,-232.044 1210.06,-235.287 1219.97,-239.042 1220.15,-232.044"/>
<text text-anchor="start" x="1240" y="-283" font-family="Helvetica,sans-Serif" font-size="10.00"> &lt; typename runs_creator</text>
<text text-anchor="start" x="1240" y="-272" font-family="Helvetica,sans-Serif" font-size="10.00">_type::sorted_runs_type,</text>
<text text-anchor="middle" x="1313" y="-261" font-family="Helvetica,sans-Serif" font-size="10.00"> cmp_type, alloc_strategy_type &gt;</text>
</g>
<!-- Node17 -->
<g id="node17" class="node"><title>Node17</title>
<g id="a_node17"><a xlink:href="classstxxl_1_1stream_1_1runs__merger.html" target="_top" xlink:title="Merges sorted runs. ">
<polygon fill="none" stroke="black" points="1406,-208.5 1406,-249.5 1558,-249.5 1558,-208.5 1406,-208.5"/>
<text text-anchor="start" x="1414" y="-237.5" font-family="Helvetica,sans-Serif" font-size="10.00">stxxl::stream::runs</text>
<text text-anchor="start" x="1414" y="-226.5" font-family="Helvetica,sans-Serif" font-size="10.00">_merger&lt; RunsType, Compare</text>
<text text-anchor="middle" x="1482" y="-215.5" font-family="Helvetica,sans-Serif" font-size="10.00">Type, AllocStr &gt;</text>
</a>
</g>
</g>
<!-- Node16&#45;&gt;Node17 -->
<g id="edge29" class="edge"><title>Node16&#45;&gt;Node17</title>
<path fill="none" stroke="midnightblue" d="M1220.29,-234.423C1275.71,-233.271 1350.53,-231.714 1405.8,-230.564"/>
<polygon fill="midnightblue" stroke="midnightblue" points="1220.1,-230.926 1210.18,-234.634 1220.25,-237.925 1220.1,-230.926"/>
</g>
<!-- Node17&#45;&gt;Node3 -->
<g id="edge28" class="edge"><title>Node17&#45;&gt;Node3</title>
<path fill="none" stroke="orange" stroke-dasharray="5,2" d="M1568,-237.825C1614.16,-243.871 1671.87,-253.48 1722,-268 1727.83,-269.69 1733.8,-271.664 1739.73,-273.805"/>
<polygon fill="orange" stroke="orange" points="1568.4,-234.347 1558.04,-236.551 1567.51,-241.291 1568.4,-234.347"/>
<text text-anchor="start" x="1576" y="-293" font-family="Helvetica,sans-Serif" font-size="10.00"> &lt; typename runs_creator</text>
<text text-anchor="start" x="1576" y="-282" font-family="Helvetica,sans-Serif" font-size="10.00">_type::sorted_runs_type,</text>
<text text-anchor="middle" x="1649" y="-271" font-family="Helvetica,sans-Serif" font-size="10.00"> cmp_type, alloc_strategy_type &gt;</text>
</g>
<!-- Node18 -->
<g id="node18" class="node"><title>Node18</title>
<g id="a_node18"><a xlink:href="classstxxl_1_1stream_1_1runs__creator.html" target="_top" xlink:title="stxxl::stream::runs\l_creator\&lt; stream::use\l_push\&lt; ValueType \&gt;, cmp\l_type, block_size, alloc\l_strategy_type \&gt;">
<polygon fill="none" stroke="black" points="1416,-478.5 1416,-541.5 1548,-541.5 1548,-478.5 1416,-478.5"/>
<text text-anchor="start" x="1424" y="-529.5" font-family="Helvetica,sans-Serif" font-size="10.00">stxxl::stream::runs</text>
<text text-anchor="start" x="1424" y="-518.5" font-family="Helvetica,sans-Serif" font-size="10.00">_creator&lt; stream::use</text>
<text text-anchor="start" x="1424" y="-507.5" font-family="Helvetica,sans-Serif" font-size="10.00">_push&lt; ValueType &gt;, cmp</text>
<text text-anchor="start" x="1424" y="-496.5" font-family="Helvetica,sans-Serif" font-size="10.00">_type, block_size, alloc</text>
<text text-anchor="middle" x="1482" y="-485.5" font-family="Helvetica,sans-Serif" font-size="10.00">_strategy_type &gt;</text>
</a>
</g>
</g>
<!-- Node18&#45;&gt;Node1 -->
<g id="edge30" class="edge"><title>Node18&#45;&gt;Node1</title>
<path fill="none" stroke="#9a32cd" stroke-dasharray="5,2" d="M1558.34,-510C1670.69,-510 1880.32,-510 1986.99,-510"/>
<polygon fill="#9a32cd" stroke="#9a32cd" points="1558.11,-506.5 1548.11,-510 1558.11,-513.5 1558.11,-506.5"/>
<text text-anchor="middle" x="1810" y="-513" font-family="Helvetica,sans-Serif" font-size="10.00"> m_runs_creator</text>
</g>
<!-- Node19&#45;&gt;Node18 -->
<g id="edge31" class="edge"><title>Node19&#45;&gt;Node18</title>
<path fill="none" stroke="midnightblue" d="M1217.8,-541.676C1266.23,-538.401 1331.04,-533.225 1388,-526 1397.02,-524.856 1406.5,-523.456 1415.82,-521.965"/>
<polygon fill="midnightblue" stroke="midnightblue" points="1217.47,-538.19 1207.72,-542.345 1217.93,-545.174 1217.47,-538.19"/>
</g>
<!-- Node20&#45;&gt;Node19 -->
<g id="edge33" class="edge"><title>Node20&#45;&gt;Node19</title>
<path fill="none" stroke="#9a32cd" stroke-dasharray="5,2" d="M628.255,-424.108C730.394,-417.093 914.352,-417.171 1049,-489 1058.44,-494.038 1058.24,-498.85 1067,-505 1071.52,-508.171 1076.31,-511.282 1081.19,-514.283"/>
<polygon fill="#9a32cd" stroke="#9a32cd" points="627.746,-420.636 618.026,-424.854 628.254,-427.618 627.746,-420.636"/>
<text text-anchor="middle" x="801.5" y="-437" font-family="Helvetica,sans-Serif" font-size="10.00"> m_result</text>
</g>
<!-- Node20&#45;&gt;Node21 -->
<g id="edge38" class="edge"><title>Node20&#45;&gt;Node21</title>
<path fill="none" stroke="#9a32cd" stroke-dasharray="5,2" d="M583.005,-452.419C598.328,-461.496 617.471,-471.382 636,-477 667.441,-486.533 703.665,-490.739 734.103,-492.476"/>
<polygon fill="#9a32cd" stroke="#9a32cd" points="584.818,-449.425 574.458,-447.206 581.173,-455.401 584.818,-449.425"/>
<text text-anchor="middle" x="669" y="-493" font-family="Helvetica,sans-Serif" font-size="10.00"> m_result</text>
</g>
<!-- Node21&#45;&gt;Node19 -->
<g id="edge36" class="edge"><title>Node21&#45;&gt;Node19</title>
<path fill="none" stroke="orange" stroke-dasharray="5,2" d="M878.92,-491.863C928.048,-492.621 992.941,-496.416 1049,-509 1059.05,-511.256 1069.43,-514.437 1079.46,-517.998"/>
<polygon fill="orange" stroke="orange" points="878.724,-488.36 868.684,-491.745 878.643,-495.36 878.724,-488.36"/>
<text text-anchor="start" x="901" y="-534" font-family="Helvetica,sans-Serif" font-size="10.00"> &lt; stream::use_push</text>
<text text-anchor="start" x="901" y="-523" font-family="Helvetica,sans-Serif" font-size="10.00">&lt; ValueType &gt;, cmp_type,</text>
<text text-anchor="middle" x="975" y="-512" font-family="Helvetica,sans-Serif" font-size="10.00"> BlockSize, alloc_strategy_type &gt;</text>
</g>
<!-- Node22 -->
<g id="node22" class="node"><title>Node22</title>
<g id="a_node22"><a xlink:href="classstxxl_1_1stream_1_1runs__creator.html" target="_top" xlink:title="Forms sorted runs of data from a stream. ">
<polygon fill="none" stroke="black" points="1067,-454.5 1067,-495.5 1220,-495.5 1220,-454.5 1067,-454.5"/>
<text text-anchor="start" x="1075" y="-483.5" font-family="Helvetica,sans-Serif" font-size="10.00">stxxl::stream::runs</text>
<text text-anchor="start" x="1075" y="-472.5" font-family="Helvetica,sans-Serif" font-size="10.00">_creator&lt; Input, CompareType,</text>
<text text-anchor="middle" x="1143.5" y="-461.5" font-family="Helvetica,sans-Serif" font-size="10.00"> BlockSize, AllocStr &gt;</text>
</a>
</g>
</g>
<!-- Node21&#45;&gt;Node22 -->
<g id="edge41" class="edge"><title>Node21&#45;&gt;Node22</title>
<path fill="none" stroke="midnightblue" d="M879.098,-488.945C935.187,-485.975 1010.95,-481.964 1066.82,-479.006"/>
<polygon fill="midnightblue" stroke="midnightblue" points="878.664,-485.463 868.863,-489.487 879.034,-492.453 878.664,-485.463"/>
</g>
<!-- Node22&#45;&gt;Node18 -->
<g id="edge40" class="edge"><title>Node22&#45;&gt;Node18</title>
<path fill="none" stroke="orange" stroke-dasharray="5,2" d="M1230.21,-479.09C1276.97,-481.885 1335.8,-486.32 1388,-493 1397.04,-494.156 1406.52,-495.61 1415.85,-497.179"/>
<polygon fill="orange" stroke="orange" points="1230.31,-475.59 1220.12,-478.501 1229.9,-482.578 1230.31,-475.59"/>
<text text-anchor="start" x="1238" y="-518" font-family="Helvetica,sans-Serif" font-size="10.00"> &lt; stream::use_push</text>
<text text-anchor="start" x="1238" y="-507" font-family="Helvetica,sans-Serif" font-size="10.00">&lt; ValueType &gt;, cmp_type,</text>
<text text-anchor="middle" x="1313" y="-496" font-family="Helvetica,sans-Serif" font-size="10.00"> block_size, alloc_strategy_type &gt;</text>
</g>
</g>
</svg>
