<?xml version="1.0" encoding="UTF-8" standalone="no"?>
<!DOCTYPE svg PUBLIC "-//W3C//DTD SVG 1.1//EN"
 "http://www.w3.org/Graphics/SVG/1.1/DTD/svg11.dtd">
<!-- Generated by graphviz version 2.38.0 (20140413.2041)
 -->
<!-- Title: stxxl::btree::normal_node&lt; KeyType, KeyCmp, RawSize, BTreeType &gt; Pages: 1 -->
<svg width="3144pt" height="291pt"
 viewBox="0.00 0.00 3144.00 290.91" xmlns="http://www.w3.org/2000/svg" xmlns:xlink="http://www.w3.org/1999/xlink">
<g id="graph0" class="graph" transform="scale(1 1) rotate(0) translate(4 286.911)">
<title>stxxl::btree::normal_node&lt; KeyType, KeyCmp, RawSize, BTreeType &gt;</title>
<!-- Node1 -->
<g id="node1" class="node"><title>Node1</title>
<polygon fill="#bfbfbf" stroke="black" points="2998,-210.411 2998,-251.411 3136,-251.411 3136,-210.411 2998,-210.411"/>
<text text-anchor="start" x="3006" y="-239.411" font-family="Helvetica,sans-Serif" font-size="10.00">stxxl::btree::normal</text>
<text text-anchor="start" x="3006" y="-228.411" font-family="Helvetica,sans-Serif" font-size="10.00">_node&lt; KeyType, KeyCmp,</text>
<text text-anchor="middle" x="3067" y="-217.411" font-family="Helvetica,sans-Serif" font-size="10.00"> RawSize, BTreeType &gt;</text>
</g>
<!-- Node2 -->
<g id="node2" class="node"><title>Node2</title>
<g id="a_node2"><a xlink:href="classstxxl_1_1noncopyable.html" target="_top" xlink:title="stxxl::noncopyable">
<polygon fill="none" stroke="black" points="11,-218.411 11,-237.411 109,-237.411 109,-218.411 11,-218.411"/>
<text text-anchor="middle" x="60" y="-225.411" font-family="Helvetica,sans-Serif" font-size="10.00">stxxl::noncopyable</text>
</a>
</g>
</g>
<!-- Node2&#45;&gt;Node1 -->
<g id="edge1" class="edge"><title>Node2&#45;&gt;Node1</title>
<path fill="none" stroke="#8b1a1a" d="M96.0265,-240.802C143.411,-257.058 230.892,-282.911 308,-282.911 308,-282.911 308,-282.911 2853,-282.911 2908.58,-282.911 2970.04,-265.998 3012.6,-251.463"/>
<polygon fill="#8b1a1a" stroke="#8b1a1a" points="97.1366,-237.482 86.5418,-237.491 94.8298,-244.091 97.1366,-237.482"/>
</g>
<!-- Node10 -->
<g id="node10" class="node"><title>Node10</title>
<g id="a_node10"><a xlink:href="classstxxl_1_1file.html" target="_top" xlink:title="Defines interface of file. ">
<polygon fill="none" stroke="black" points="739,-156.411 739,-175.411 795,-175.411 795,-156.411 739,-156.411"/>
<text text-anchor="middle" x="767" y="-163.411" font-family="Helvetica,sans-Serif" font-size="10.00">stxxl::file</text>
</a>
</g>
</g>
<!-- Node2&#45;&gt;Node10 -->
<g id="edge10" class="edge"><title>Node2&#45;&gt;Node10</title>
<path fill="none" stroke="#8b1a1a" d="M119.527,-224.937C223.697,-219.445 448.085,-206.722 637,-189.911 674.399,-186.583 684.311,-188.894 721,-180.911 727.437,-179.51 734.246,-177.52 740.565,-175.446"/>
<polygon fill="#8b1a1a" stroke="#8b1a1a" points="119.029,-221.458 109.226,-225.477 119.396,-228.448 119.029,-221.458"/>
</g>
<!-- Node12 -->
<g id="node12" class="node"><title>Node12</title>
<g id="a_node12"><a xlink:href="classstxxl_1_1mutex.html" target="_top" xlink:title="stxxl::mutex">
<polygon fill="none" stroke="black" points="273.5,-180.411 273.5,-199.411 344.5,-199.411 344.5,-180.411 273.5,-180.411"/>
<text text-anchor="middle" x="309" y="-187.411" font-family="Helvetica,sans-Serif" font-size="10.00">stxxl::mutex</text>
</a>
</g>
</g>
<!-- Node2&#45;&gt;Node12 -->
<g id="edge13" class="edge"><title>Node2&#45;&gt;Node12</title>
<path fill="none" stroke="#8b1a1a" d="M119.005,-217.111C125.408,-215.994 131.838,-214.906 138,-213.911 184.787,-206.358 239.034,-198.929 273.427,-194.384"/>
<polygon fill="#8b1a1a" stroke="#8b1a1a" points="118.245,-213.691 109.007,-218.879 119.464,-220.584 118.245,-213.691"/>
</g>
<!-- Node3 -->
<g id="node3" class="node"><title>Node3</title>
<g id="a_node3"><a xlink:href="classstxxl_1_1typed__block.html" target="_top" xlink:title="Block containing elements of fixed length. ">
<polygon fill="none" stroke="black" points="2789.5,-210.411 2789.5,-251.411 2914.5,-251.411 2914.5,-210.411 2789.5,-210.411"/>
<text text-anchor="start" x="2797.5" y="-239.411" font-family="Helvetica,sans-Serif" font-size="10.00">stxxl::typed_block</text>
<text text-anchor="start" x="2797.5" y="-228.411" font-family="Helvetica,sans-Serif" font-size="10.00">&lt; RawSize, Type, NRef,</text>
<text text-anchor="middle" x="2852" y="-217.411" font-family="Helvetica,sans-Serif" font-size="10.00"> MetaInfoType &gt;</text>
</a>
</g>
</g>
<!-- Node3&#45;&gt;Node1 -->
<g id="edge2" class="edge"><title>Node3&#45;&gt;Node1</title>
<path fill="none" stroke="#9a32cd" stroke-dasharray="5,2" d="M2924.88,-230.911C2948.44,-230.911 2974.53,-230.911 2997.81,-230.911"/>
<polygon fill="#9a32cd" stroke="#9a32cd" points="2924.61,-227.411 2914.61,-230.911 2924.61,-234.411 2924.61,-227.411"/>
<text text-anchor="middle" x="2959.5" y="-233.911" font-family="Helvetica,sans-Serif" font-size="10.00"> m_block</text>
</g>
<!-- Node4 -->
<g id="node4" class="node"><title>Node4</title>
<g id="a_node4"><a xlink:href="classstxxl_1_1mng__local_1_1expand__struct.html" target="_top" xlink:title="stxxl::mng_local::expand\l_struct\&lt; mng_local::block\l_w_info\&lt; Type, RawSize, NRef,\l MetaInfoType \&gt;, RawSize \&gt;">
<polygon fill="none" stroke="black" points="2587,-197.911 2587,-249.911 2746,-249.911 2746,-197.911 2587,-197.911"/>
<text text-anchor="start" x="2595" y="-237.911" font-family="Helvetica,sans-Serif" font-size="10.00">stxxl::mng_local::expand</text>
<text text-anchor="start" x="2595" y="-226.911" font-family="Helvetica,sans-Serif" font-size="10.00">_struct&lt; mng_local::block</text>
<text text-anchor="start" x="2595" y="-215.911" font-family="Helvetica,sans-Serif" font-size="10.00">_w_info&lt; Type, RawSize, NRef,</text>
<text text-anchor="middle" x="2666.5" y="-204.911" font-family="Helvetica,sans-Serif" font-size="10.00"> MetaInfoType &gt;, RawSize &gt;</text>
</a>
</g>
</g>
<!-- Node4&#45;&gt;Node3 -->
<g id="edge3" class="edge"><title>Node4&#45;&gt;Node3</title>
<path fill="none" stroke="midnightblue" d="M2756.36,-227.301C2767.56,-227.728 2778.81,-228.157 2789.45,-228.563"/>
<polygon fill="midnightblue" stroke="midnightblue" points="2756.25,-223.794 2746.12,-226.91 2755.98,-230.789 2756.25,-223.794"/>
</g>
<!-- Node5 -->
<g id="node5" class="node"><title>Node5</title>
<g id="a_node5"><a xlink:href="classstxxl_1_1mng__local_1_1add__filler.html" target="_top" xlink:title="stxxl::mng_local::add\l_filler\&lt; mng_local::block\l_w_info\&lt; Type, RawSize,\l NRef, MetaInfoType \&gt;, RawSize\l&#45;sizeof(mng_local::block_w_info\l\&lt; Type, RawSize, NRef, MetaInfoType \&gt;)\&gt;">
<polygon fill="none" stroke="black" points="2231,-68.9109 2231,-142.911 2437,-142.911 2437,-68.9109 2231,-68.9109"/>
<text text-anchor="start" x="2239" y="-130.911" font-family="Helvetica,sans-Serif" font-size="10.00">stxxl::mng_local::add</text>
<text text-anchor="start" x="2239" y="-119.911" font-family="Helvetica,sans-Serif" font-size="10.00">_filler&lt; mng_local::block</text>
<text text-anchor="start" x="2239" y="-108.911" font-family="Helvetica,sans-Serif" font-size="10.00">_w_info&lt; Type, RawSize,</text>
<text text-anchor="start" x="2239" y="-97.9109" font-family="Helvetica,sans-Serif" font-size="10.00"> NRef, MetaInfoType &gt;, RawSize</text>
<text text-anchor="start" x="2239" y="-86.9109" font-family="Helvetica,sans-Serif" font-size="10.00">&#45;sizeof(mng_local::block_w_info</text>
<text text-anchor="middle" x="2334" y="-75.9109" font-family="Helvetica,sans-Serif" font-size="10.00">&lt; Type, RawSize, NRef, MetaInfoType &gt;)&gt;</text>
</a>
</g>
</g>
<!-- Node5&#45;&gt;Node4 -->
<g id="edge4" class="edge"><title>Node5&#45;&gt;Node4</title>
<path fill="none" stroke="midnightblue" d="M2446.83,-145.838C2494.91,-163.006 2549.76,-182.588 2592.49,-197.845"/>
<polygon fill="midnightblue" stroke="midnightblue" points="2447.9,-142.505 2437.31,-142.439 2445.55,-149.097 2447.9,-142.505"/>
</g>
<!-- Node6 -->
<g id="node6" class="node"><title>Node6</title>
<g id="a_node6"><a xlink:href="classstxxl_1_1mng__local_1_1block__w__info.html" target="_top" xlink:title="stxxl::mng_local::block\l_w_info\&lt; Type, RawSize,\l NRef, MetaInfoType \&gt;">
<polygon fill="none" stroke="black" points="2057.5,-13.4109 2057.5,-54.4109 2187.5,-54.4109 2187.5,-13.4109 2057.5,-13.4109"/>
<text text-anchor="start" x="2065.5" y="-42.4109" font-family="Helvetica,sans-Serif" font-size="10.00">stxxl::mng_local::block</text>
<text text-anchor="start" x="2065.5" y="-31.4109" font-family="Helvetica,sans-Serif" font-size="10.00">_w_info&lt; Type, RawSize,</text>
<text text-anchor="middle" x="2122.5" y="-20.4109" font-family="Helvetica,sans-Serif" font-size="10.00"> NRef, MetaInfoType &gt;</text>
</a>
</g>
</g>
<!-- Node6&#45;&gt;Node5 -->
<g id="edge5" class="edge"><title>Node6&#45;&gt;Node5</title>
<path fill="none" stroke="midnightblue" d="M2192.85,-57.7455C2205.03,-61.9316 2217.94,-66.3664 2230.79,-70.7836"/>
<polygon fill="midnightblue" stroke="midnightblue" points="2193.85,-54.3871 2183.25,-54.4468 2191.57,-61.007 2193.85,-54.3871"/>
</g>
<!-- Node7 -->
<g id="node7" class="node"><title>Node7</title>
<g id="a_node7"><a xlink:href="classstxxl_1_1mng__local_1_1block__w__bids.html" target="_top" xlink:title="stxxl::mng_local::block\l_w_bids\&lt; Type,((RawSize\l&#45;sizeof(BID\&lt; RawSize \&gt;)*NBids\l&#45;sizeof(MetaInfoType))/sizeof\l(Type)), RawSize, NBids \&gt;">
<polygon fill="none" stroke="black" points="1547,-2.41086 1547,-65.4109 1705,-65.4109 1705,-2.41086 1547,-2.41086"/>
<text text-anchor="start" x="1555" y="-53.4109" font-family="Helvetica,sans-Serif" font-size="10.00">stxxl::mng_local::block</text>
<text text-anchor="start" x="1555" y="-42.4109" font-family="Helvetica,sans-Serif" font-size="10.00">_w_bids&lt; Type,((RawSize</text>
<text text-anchor="start" x="1555" y="-31.4109" font-family="Helvetica,sans-Serif" font-size="10.00">&#45;sizeof(BID&lt; RawSize &gt;)*NBids</text>
<text text-anchor="start" x="1555" y="-20.4109" font-family="Helvetica,sans-Serif" font-size="10.00">&#45;sizeof(MetaInfoType))/sizeof</text>
<text text-anchor="middle" x="1626" y="-9.41086" font-family="Helvetica,sans-Serif" font-size="10.00">(Type)), RawSize, NBids &gt;</text>
</a>
</g>
</g>
<!-- Node7&#45;&gt;Node6 -->
<g id="edge6" class="edge"><title>Node7&#45;&gt;Node6</title>
<path fill="none" stroke="midnightblue" d="M1715.5,-11.4854C1731.23,-8.33415 1747.52,-5.59773 1763,-3.91086 1865.76,7.28814 1985.49,-8.53108 2057.29,-21.1153"/>
<polygon fill="midnightblue" stroke="midnightblue" points="1714.35,-8.15049 1705.27,-13.6092 1715.77,-15.0045 1714.35,-8.15049"/>
</g>
<!-- Node17 -->
<g id="node17" class="node"><title>Node17</title>
<g id="a_node17"><a xlink:href="classstxxl_1_1mng__local_1_1block__w__info.html" target="_top" xlink:title="Contains per block information for stxxl::typed_block , not intended for direct use. ">
<polygon fill="none" stroke="black" points="1768,-13.4109 1768,-54.4109 1898,-54.4109 1898,-13.4109 1768,-13.4109"/>
<text text-anchor="start" x="1776" y="-42.4109" font-family="Helvetica,sans-Serif" font-size="10.00">stxxl::mng_local::block</text>
<text text-anchor="start" x="1776" y="-31.4109" font-family="Helvetica,sans-Serif" font-size="10.00">_w_info&lt; Type, RawSize,</text>
<text text-anchor="middle" x="1833" y="-20.4109" font-family="Helvetica,sans-Serif" font-size="10.00"> NBids, MetaInfoType &gt;</text>
</a>
</g>
</g>
<!-- Node7&#45;&gt;Node17 -->
<g id="edge22" class="edge"><title>Node7&#45;&gt;Node17</title>
<path fill="none" stroke="midnightblue" d="M1715.38,-33.9109C1732.99,-33.9109 1751.17,-33.9109 1767.79,-33.9109"/>
<polygon fill="midnightblue" stroke="midnightblue" points="1715.09,-30.411 1705.09,-33.9109 1715.09,-37.411 1715.09,-30.411"/>
</g>
<!-- Node8 -->
<g id="node8" class="node"><title>Node8</title>
<g id="a_node8"><a xlink:href="classstxxl_1_1mng__local_1_1element__block.html" target="_top" xlink:title="Contains data elements for stxxl::typed_block , not intended for direct use. ">
<polygon fill="none" stroke="black" points="1062,-14.9109 1062,-44.9109 1190,-44.9109 1190,-14.9109 1062,-14.9109"/>
<text text-anchor="start" x="1070" y="-32.9109" font-family="Helvetica,sans-Serif" font-size="10.00">stxxl::mng_local::element</text>
<text text-anchor="middle" x="1126" y="-21.9109" font-family="Helvetica,sans-Serif" font-size="10.00">_block&lt; Type, Size &gt;</text>
</a>
</g>
</g>
<!-- Node8&#45;&gt;Node7 -->
<g id="edge7" class="edge"><title>Node8&#45;&gt;Node7</title>
<path fill="none" stroke="midnightblue" d="M1200.21,-30.4989C1292.91,-31.2434 1451.94,-32.5208 1546.9,-33.2836"/>
<polygon fill="midnightblue" stroke="midnightblue" points="1200.1,-26.998 1190.07,-30.4175 1200.04,-33.9978 1200.1,-26.998"/>
</g>
<!-- Node16 -->
<g id="node16" class="node"><title>Node16</title>
<g id="a_node16"><a xlink:href="classstxxl_1_1mng__local_1_1block__w__bids.html" target="_top" xlink:title="Contains BID references for stxxl::typed_block , not intended for direct use. ">
<polygon fill="none" stroke="black" points="1241,-42.4109 1241,-83.4109 1399,-83.4109 1399,-42.4109 1241,-42.4109"/>
<text text-anchor="start" x="1249" y="-71.4109" font-family="Helvetica,sans-Serif" font-size="10.00">stxxl::mng_local::block</text>
<text text-anchor="start" x="1249" y="-60.4109" font-family="Helvetica,sans-Serif" font-size="10.00">_w_bids&lt; Type, Size, RawSize,</text>
<text text-anchor="middle" x="1320" y="-49.4109" font-family="Helvetica,sans-Serif" font-size="10.00"> NBids &gt;</text>
</a>
</g>
</g>
<!-- Node8&#45;&gt;Node16 -->
<g id="edge19" class="edge"><title>Node8&#45;&gt;Node16</title>
<path fill="none" stroke="midnightblue" d="M1200.15,-42.4832C1213.43,-44.7653 1227.32,-47.1537 1240.74,-49.4599"/>
<polygon fill="midnightblue" stroke="midnightblue" points="1200.58,-39.0066 1190.13,-40.762 1199.4,-45.9054 1200.58,-39.0066"/>
</g>
<!-- Node9 -->
<g id="node9" class="node"><title>Node9</title>
<g id="a_node9"><a xlink:href="structstxxl_1_1BID.html" target="_top" xlink:title="stxxl::BID\&lt; raw_size \&gt;">
<polygon fill="none" stroke="black" points="1067,-110.411 1067,-129.411 1185,-129.411 1185,-110.411 1067,-110.411"/>
<text text-anchor="middle" x="1126" y="-117.411" font-family="Helvetica,sans-Serif" font-size="10.00">stxxl::BID&lt; raw_size &gt;</text>
</a>
</g>
</g>
<!-- Node9&#45;&gt;Node7 -->
<g id="edge8" class="edge"><title>Node9&#45;&gt;Node7</title>
<path fill="none" stroke="#9a32cd" stroke-dasharray="5,2" d="M1195.19,-122.431C1293.41,-125.232 1469.45,-126.919 1529,-105.911 1552.97,-97.4549 1575.9,-80.7065 1593.33,-65.4898"/>
<polygon fill="#9a32cd" stroke="#9a32cd" points="1195.17,-118.929 1185.07,-122.13 1194.96,-125.926 1195.17,-118.929"/>
<text text-anchor="middle" x="1320" y="-127.911" font-family="Helvetica,sans-Serif" font-size="10.00"> ref</text>
</g>
<!-- Node9&#45;&gt;Node16 -->
<g id="edge20" class="edge"><title>Node9&#45;&gt;Node16</title>
<path fill="none" stroke="#9a32cd" stroke-dasharray="5,2" d="M1166.99,-107.406C1180.05,-103.366 1194.63,-98.9019 1208,-94.9109 1220.59,-91.1542 1234,-87.225 1246.99,-83.4576"/>
<polygon fill="#9a32cd" stroke="#9a32cd" points="1165.86,-104.092 1157.35,-110.398 1167.93,-110.778 1165.86,-104.092"/>
<text text-anchor="middle" x="1215.5" y="-97.9109" font-family="Helvetica,sans-Serif" font-size="10.00"> ref</text>
</g>
<!-- Node10&#45;&gt;Node9 -->
<g id="edge9" class="edge"><title>Node10&#45;&gt;Node9</title>
<path fill="none" stroke="#9a32cd" stroke-dasharray="5,2" d="M805.078,-162.593C858.162,-157.651 958.821,-147.565 1044,-134.911 1054.61,-133.335 1065.96,-131.395 1076.69,-129.439"/>
<polygon fill="#9a32cd" stroke="#9a32cd" points="804.751,-159.108 795.115,-163.512 805.394,-166.079 804.751,-159.108"/>
<text text-anchor="middle" x="916" y="-159.911" font-family="Helvetica,sans-Serif" font-size="10.00"> storage</text>
</g>
<!-- Node15 -->
<g id="node15" class="node"><title>Node15</title>
<g id="a_node15"><a xlink:href="structstxxl_1_1BID.html" target="_top" xlink:title="Block identifier class. ">
<polygon fill="none" stroke="black" points="867,-110.411 867,-129.411 965,-129.411 965,-110.411 867,-110.411"/>
<text text-anchor="middle" x="916" y="-117.411" font-family="Helvetica,sans-Serif" font-size="10.00">stxxl::BID&lt; Size &gt;</text>
</a>
</g>
</g>
<!-- Node10&#45;&gt;Node15 -->
<g id="edge17" class="edge"><title>Node10&#45;&gt;Node15</title>
<path fill="none" stroke="#9a32cd" stroke-dasharray="5,2" d="M791.176,-151.275C798.004,-147.454 805.626,-143.645 813,-140.911 830.121,-134.562 849.61,-129.955 866.932,-126.702"/>
<polygon fill="#9a32cd" stroke="#9a32cd" points="789.308,-148.313 782.455,-156.394 792.851,-154.35 789.308,-148.313"/>
<text text-anchor="middle" x="831" y="-143.911" font-family="Helvetica,sans-Serif" font-size="10.00"> storage</text>
</g>
<!-- Node11 -->
<g id="node11" class="node"><title>Node11</title>
<g id="a_node11"><a xlink:href="classstxxl_1_1atomic__counted__object.html" target="_top" xlink:title="Provides reference counting abilities for use with counting_ptr with mutex locking. ">
<polygon fill="none" stroke="black" points="524,-150.911 524,-180.911 637,-180.911 637,-150.911 524,-150.911"/>
<text text-anchor="start" x="532" y="-168.911" font-family="Helvetica,sans-Serif" font-size="10.00">stxxl::atomic_counted</text>
<text text-anchor="middle" x="580.5" y="-157.911" font-family="Helvetica,sans-Serif" font-size="10.00">_object</text>
</a>
</g>
</g>
<!-- Node11&#45;&gt;Node10 -->
<g id="edge11" class="edge"><title>Node11&#45;&gt;Node10</title>
<path fill="none" stroke="#9a32cd" stroke-dasharray="5,2" d="M647.161,-165.911C678.685,-165.911 714.739,-165.911 738.788,-165.911"/>
<polygon fill="#9a32cd" stroke="#9a32cd" points="647.106,-162.411 637.106,-165.911 647.106,-169.411 647.106,-162.411"/>
<text text-anchor="middle" x="688" y="-168.911" font-family="Helvetica,sans-Serif" font-size="10.00"> m_request_ref</text>
</g>
<!-- Node12&#45;&gt;Node11 -->
<g id="edge12" class="edge"><title>Node12&#45;&gt;Node11</title>
<path fill="none" stroke="#9a32cd" stroke-dasharray="5,2" d="M354.739,-185.927C401.151,-181.794 473.812,-175.323 523.888,-170.863"/>
<polygon fill="#9a32cd" stroke="#9a32cd" points="354.331,-182.449 344.681,-186.822 354.952,-189.421 354.331,-182.449"/>
<text text-anchor="middle" x="446.5" y="-185.911" font-family="Helvetica,sans-Serif" font-size="10.00"> m_reference_count_mutex</text>
</g>
<!-- Node13 -->
<g id="node13" class="node"><title>Node13</title>
<g id="a_node13"><a xlink:href="structstxxl_1_1choose__int__types.html" target="_top" xlink:title="stxxl::choose_int_types\l\&lt; my_pointer_size \&gt;">
<polygon fill="none" stroke="black" points="249,-130.911 249,-160.911 369,-160.911 369,-130.911 249,-130.911"/>
<text text-anchor="start" x="257" y="-148.911" font-family="Helvetica,sans-Serif" font-size="10.00">stxxl::choose_int_types</text>
<text text-anchor="middle" x="309" y="-137.911" font-family="Helvetica,sans-Serif" font-size="10.00">&lt; my_pointer_size &gt;</text>
</a>
</g>
</g>
<!-- Node13&#45;&gt;Node11 -->
<g id="edge14" class="edge"><title>Node13&#45;&gt;Node11</title>
<path fill="none" stroke="#9a32cd" stroke-dasharray="5,2" d="M379.651,-146.042C417.174,-146.706 464.217,-148.491 506,-152.911 511.799,-153.524 517.83,-154.324 523.833,-155.225"/>
<polygon fill="#9a32cd" stroke="#9a32cd" points="379.385,-142.538 369.332,-145.884 379.277,-149.537 379.385,-142.538"/>
<text text-anchor="middle" x="446.5" y="-155.911" font-family="Helvetica,sans-Serif" font-size="10.00"> m_reference_count</text>
</g>
<!-- Node14 -->
<g id="node14" class="node"><title>Node14</title>
<g id="a_node14"><a xlink:href="structstxxl_1_1choose__int__types.html" target="_top" xlink:title="stxxl::choose_int_types\l\&lt; PtrSize \&gt;">
<polygon fill="none" stroke="black" points="0,-130.911 0,-160.911 120,-160.911 120,-130.911 0,-130.911"/>
<text text-anchor="start" x="8" y="-148.911" font-family="Helvetica,sans-Serif" font-size="10.00">stxxl::choose_int_types</text>
<text text-anchor="middle" x="60" y="-137.911" font-family="Helvetica,sans-Serif" font-size="10.00">&lt; PtrSize &gt;</text>
</a>
</g>
</g>
<!-- Node14&#45;&gt;Node13 -->
<g id="edge15" class="edge"><title>Node14&#45;&gt;Node13</title>
<path fill="none" stroke="orange" stroke-dasharray="5,2" d="M130.455,-145.911C167.772,-145.911 213.289,-145.911 248.893,-145.911"/>
<polygon fill="orange" stroke="orange" points="130.163,-142.411 120.163,-145.911 130.163,-149.411 130.163,-142.411"/>
<text text-anchor="middle" x="184.5" y="-148.911" font-family="Helvetica,sans-Serif" font-size="10.00"> &lt; my_pointer_size &gt;</text>
</g>
<!-- Node15&#45;&gt;Node9 -->
<g id="edge16" class="edge"><title>Node15&#45;&gt;Node9</title>
<path fill="none" stroke="orange" stroke-dasharray="5,2" d="M975.465,-119.911C1003.97,-119.911 1038.16,-119.911 1066.65,-119.911"/>
<polygon fill="orange" stroke="orange" points="975.242,-116.411 965.242,-119.911 975.242,-123.411 975.242,-116.411"/>
<text text-anchor="middle" x="1013.5" y="-122.911" font-family="Helvetica,sans-Serif" font-size="10.00"> &lt; raw_size &gt;</text>
</g>
<!-- Node16&#45;&gt;Node7 -->
<g id="edge18" class="edge"><title>Node16&#45;&gt;Node7</title>
<path fill="none" stroke="orange" stroke-dasharray="5,2" d="M1409.23,-51.7355C1411.85,-51.4508 1414.44,-51.1752 1417,-50.9109 1459.89,-46.4799 1507.85,-42.4949 1546.9,-39.4989"/>
<polygon fill="orange" stroke="orange" points="1408.58,-48.2854 1399.03,-52.8732 1409.36,-55.2422 1408.58,-48.2854"/>
<text text-anchor="start" x="1417" y="-97.9109" font-family="Helvetica,sans-Serif" font-size="10.00"> &lt; Type,((RawSize&#45;sizeof</text>
<text text-anchor="start" x="1417" y="-86.9109" font-family="Helvetica,sans-Serif" font-size="10.00">(BID&lt; RawSize &gt;)*NBids</text>
<text text-anchor="start" x="1417" y="-75.9109" font-family="Helvetica,sans-Serif" font-size="10.00">&#45;sizeof(MetaInfoType))</text>
<text text-anchor="start" x="1417" y="-64.9109" font-family="Helvetica,sans-Serif" font-size="10.00">/sizeof(Type)), RawSize,</text>
<text text-anchor="middle" x="1473" y="-53.9109" font-family="Helvetica,sans-Serif" font-size="10.00"> NBids &gt;</text>
</g>
<!-- Node17&#45;&gt;Node6 -->
<g id="edge21" class="edge"><title>Node17&#45;&gt;Node6</title>
<path fill="none" stroke="orange" stroke-dasharray="5,2" d="M1908.38,-33.9109C1954.43,-33.9109 2012.97,-33.9109 2057.04,-33.9109"/>
<polygon fill="orange" stroke="orange" points="1908.16,-30.411 1898.16,-33.9109 1908.16,-37.411 1908.16,-30.411"/>
<text text-anchor="start" x="1921" y="-47.9109" font-family="Helvetica,sans-Serif" font-size="10.00"> &lt; Type, RawSize, NRef,</text>
<text text-anchor="middle" x="1977" y="-36.9109" font-family="Helvetica,sans-Serif" font-size="10.00"> MetaInfoType &gt;</text>
</g>
<!-- Node18 -->
<g id="node18" class="node"><title>Node18</title>
<g id="a_node18"><a xlink:href="classstxxl_1_1mng__local_1_1filler__struct.html" target="_top" xlink:title="stxxl::mng_local::filler\l_struct\&lt; FillSize \&gt;">
<polygon fill="none" stroke="black" points="1570,-151.911 1570,-181.911 1682,-181.911 1682,-151.911 1570,-151.911"/>
<text text-anchor="start" x="1578" y="-169.911" font-family="Helvetica,sans-Serif" font-size="10.00">stxxl::mng_local::filler</text>
<text text-anchor="middle" x="1626" y="-158.911" font-family="Helvetica,sans-Serif" font-size="10.00">_struct&lt; FillSize &gt;</text>
</a>
</g>
</g>
<!-- Node18&#45;&gt;Node5 -->
<g id="edge23" class="edge"><title>Node18&#45;&gt;Node5</title>
<path fill="none" stroke="#9a32cd" stroke-dasharray="5,2" d="M1692.16,-153.828C1714.55,-149.626 1739.81,-145.211 1763,-141.911 1925.59,-118.773 2116.38,-110.506 2230.83,-107.552"/>
<polygon fill="#9a32cd" stroke="#9a32cd" points="1691.26,-150.435 1682.09,-155.738 1692.56,-157.312 1691.26,-150.435"/>
<text text-anchor="middle" x="1977" y="-127.911" font-family="Helvetica,sans-Serif" font-size="10.00"> filler</text>
</g>
<!-- Node20 -->
<g id="node20" class="node"><title>Node20</title>
<g id="a_node20"><a xlink:href="classstxxl_1_1mng__local_1_1add__filler.html" target="_top" xlink:title="Contains per block filler for stxxl::typed_block , not intended for direct use. ">
<polygon fill="none" stroke="black" points="1763,-151.911 1763,-181.911 1903,-181.911 1903,-151.911 1763,-151.911"/>
<text text-anchor="start" x="1771" y="-169.911" font-family="Helvetica,sans-Serif" font-size="10.00">stxxl::mng_local::add</text>
<text text-anchor="middle" x="1833" y="-158.911" font-family="Helvetica,sans-Serif" font-size="10.00">_filler&lt; BaseType, FillSize &gt;</text>
</a>
</g>
</g>
<!-- Node18&#45;&gt;Node20 -->
<g id="edge26" class="edge"><title>Node18&#45;&gt;Node20</title>
<path fill="none" stroke="#9a32cd" stroke-dasharray="5,2" d="M1692.31,-166.911C1714.77,-166.911 1739.99,-166.911 1762.75,-166.911"/>
<polygon fill="#9a32cd" stroke="#9a32cd" points="1692.21,-163.411 1682.21,-166.911 1692.21,-170.411 1692.21,-163.411"/>
<text text-anchor="middle" x="1734" y="-169.911" font-family="Helvetica,sans-Serif" font-size="10.00"> filler</text>
</g>
<!-- Node22 -->
<g id="node22" class="node"><title>Node22</title>
<g id="a_node22"><a xlink:href="classstxxl_1_1mng__local_1_1add__filler.html" target="_top" xlink:title="stxxl::mng_local::add\l_filler\&lt; Type, RawSize\l&#45;sizeof(Type)\&gt;">
<polygon fill="none" stroke="black" points="2064.5,-213.411 2064.5,-254.411 2180.5,-254.411 2180.5,-213.411 2064.5,-213.411"/>
<text text-anchor="start" x="2072.5" y="-242.411" font-family="Helvetica,sans-Serif" font-size="10.00">stxxl::mng_local::add</text>
<text text-anchor="start" x="2072.5" y="-231.411" font-family="Helvetica,sans-Serif" font-size="10.00">_filler&lt; Type, RawSize</text>
<text text-anchor="middle" x="2122.5" y="-220.411" font-family="Helvetica,sans-Serif" font-size="10.00">&#45;sizeof(Type)&gt;</text>
</a>
</g>
</g>
<!-- Node18&#45;&gt;Node22 -->
<g id="edge29" class="edge"><title>Node18&#45;&gt;Node22</title>
<path fill="none" stroke="#9a32cd" stroke-dasharray="5,2" d="M1692.21,-179.169C1714.61,-183.18 1739.86,-187.481 1763,-190.911 1869.03,-206.63 1993.37,-220.535 2064.25,-228.036"/>
<polygon fill="#9a32cd" stroke="#9a32cd" points="1692.6,-175.683 1682.14,-177.351 1691.36,-182.572 1692.6,-175.683"/>
<text text-anchor="middle" x="1833" y="-212.911" font-family="Helvetica,sans-Serif" font-size="10.00"> filler</text>
</g>
<!-- Node19 -->
<g id="node19" class="node"><title>Node19</title>
<g id="a_node19"><a xlink:href="classstxxl_1_1mng__local_1_1filler__struct.html" target="_top" xlink:title="stxxl::mng_local::filler\l_struct\&lt; Bytes \&gt;">
<polygon fill="none" stroke="black" points="1264,-151.911 1264,-181.911 1376,-181.911 1376,-151.911 1264,-151.911"/>
<text text-anchor="start" x="1272" y="-169.911" font-family="Helvetica,sans-Serif" font-size="10.00">stxxl::mng_local::filler</text>
<text text-anchor="middle" x="1320" y="-158.911" font-family="Helvetica,sans-Serif" font-size="10.00">_struct&lt; Bytes &gt;</text>
</a>
</g>
</g>
<!-- Node19&#45;&gt;Node18 -->
<g id="edge24" class="edge"><title>Node19&#45;&gt;Node18</title>
<path fill="none" stroke="orange" stroke-dasharray="5,2" d="M1386.33,-166.911C1441.03,-166.911 1518.21,-166.911 1569.84,-166.911"/>
<polygon fill="orange" stroke="orange" points="1386.05,-163.411 1376.05,-166.911 1386.05,-170.411 1386.05,-163.411"/>
<text text-anchor="middle" x="1473" y="-169.911" font-family="Helvetica,sans-Serif" font-size="10.00"> &lt; FillSize &gt;</text>
</g>
<!-- Node20&#45;&gt;Node5 -->
<g id="edge25" class="edge"><title>Node20&#45;&gt;Node5</title>
<path fill="none" stroke="orange" stroke-dasharray="5,2" d="M1913.29,-155.93C1954.36,-150.339 2005.35,-143.551 2051,-137.911 2110.54,-130.555 2177.23,-122.958 2230.8,-117.013"/>
<polygon fill="orange" stroke="orange" points="1912.78,-152.468 1903.34,-157.287 1913.72,-159.403 1912.78,-152.468"/>
<text text-anchor="start" x="2051" y="-195.911" font-family="Helvetica,sans-Serif" font-size="10.00"> &lt; mng_local::block</text>
<text text-anchor="start" x="2051" y="-184.911" font-family="Helvetica,sans-Serif" font-size="10.00">_w_info&lt; Type, RawSize,</text>
<text text-anchor="start" x="2051" y="-173.911" font-family="Helvetica,sans-Serif" font-size="10.00"> NRef, MetaInfoType &gt;,</text>
<text text-anchor="start" x="2051" y="-162.911" font-family="Helvetica,sans-Serif" font-size="10.00"> RawSize&#45;sizeof(mng_local</text>
<text text-anchor="start" x="2051" y="-151.911" font-family="Helvetica,sans-Serif" font-size="10.00">::block_w_info&lt; Type, RawSize,</text>
<text text-anchor="middle" x="2122.5" y="-140.911" font-family="Helvetica,sans-Serif" font-size="10.00"> NRef, MetaInfoType &gt;)&gt;</text>
</g>
<!-- Node20&#45;&gt;Node22 -->
<g id="edge30" class="edge"><title>Node20&#45;&gt;Node22</title>
<path fill="none" stroke="orange" stroke-dasharray="5,2" d="M1913.57,-167.296C1950.68,-169.483 1994.96,-175.014 2033,-187.911 2041.88,-190.921 2042.79,-194.378 2051,-198.911 2059.85,-203.8 2069.48,-208.788 2078.69,-213.407"/>
<polygon fill="orange" stroke="orange" points="1913.47,-163.786 1903.3,-166.764 1913.1,-170.777 1913.47,-163.786"/>
<text text-anchor="start" x="1922.5" y="-201.911" font-family="Helvetica,sans-Serif" font-size="10.00"> &lt; Type, RawSize&#45;sizeof</text>
<text text-anchor="middle" x="1977" y="-190.911" font-family="Helvetica,sans-Serif" font-size="10.00">(Type)&gt;</text>
</g>
<!-- Node21 -->
<g id="node21" class="node"><title>Node21</title>
<g id="a_node21"><a xlink:href="classstxxl_1_1mng__local_1_1expand__struct.html" target="_top" xlink:title="Helper to compute the size of the filler , not intended for direct use. ">
<polygon fill="none" stroke="black" points="2268,-211.911 2268,-241.911 2400,-241.911 2400,-211.911 2268,-211.911"/>
<text text-anchor="start" x="2276" y="-229.911" font-family="Helvetica,sans-Serif" font-size="10.00">stxxl::mng_local::expand</text>
<text text-anchor="middle" x="2334" y="-218.911" font-family="Helvetica,sans-Serif" font-size="10.00">_struct&lt; Type, RawSize &gt;</text>
</a>
</g>
</g>
<!-- Node21&#45;&gt;Node4 -->
<g id="edge27" class="edge"><title>Node21&#45;&gt;Node4</title>
<path fill="none" stroke="orange" stroke-dasharray="5,2" d="M2410.23,-225.52C2425.07,-225.284 2440.53,-225.066 2455,-224.911 2498.49,-224.445 2547.03,-224.196 2586.53,-224.063"/>
<polygon fill="orange" stroke="orange" points="2410.02,-222.023 2400.08,-225.685 2410.13,-229.022 2410.02,-222.023"/>
<text text-anchor="start" x="2455" y="-260.911" font-family="Helvetica,sans-Serif" font-size="10.00"> &lt; mng_local::block</text>
<text text-anchor="start" x="2455" y="-249.911" font-family="Helvetica,sans-Serif" font-size="10.00">_w_info&lt; Type, RawSize,</text>
<text text-anchor="start" x="2455" y="-238.911" font-family="Helvetica,sans-Serif" font-size="10.00"> NRef, MetaInfoType &gt;,</text>
<text text-anchor="middle" x="2512" y="-227.911" font-family="Helvetica,sans-Serif" font-size="10.00"> RawSize &gt;</text>
</g>
<!-- Node22&#45;&gt;Node21 -->
<g id="edge28" class="edge"><title>Node22&#45;&gt;Node21</title>
<path fill="none" stroke="midnightblue" d="M2191.06,-231.653C2215.62,-230.833 2243.32,-229.907 2267.68,-229.093"/>
<polygon fill="midnightblue" stroke="midnightblue" points="2190.62,-228.166 2180.75,-231.998 2190.86,-235.162 2190.62,-228.166"/>
</g>
<!-- Node23 -->
<g id="node23" class="node"><title>Node23</title>
<g id="a_node23"><a xlink:href="structstxxl_1_1btree_1_1normal__node_1_1value__compare.html" target="_top" xlink:title="stxxl::btree::normal\l_node\&lt; KeyType, KeyCmp,\l RawSize, BTreeType \&gt;::\lvalue_compare">
<polygon fill="none" stroke="black" points="2783,-138.911 2783,-190.911 2921,-190.911 2921,-138.911 2783,-138.911"/>
<text text-anchor="start" x="2791" y="-178.911" font-family="Helvetica,sans-Serif" font-size="10.00">stxxl::btree::normal</text>
<text text-anchor="start" x="2791" y="-167.911" font-family="Helvetica,sans-Serif" font-size="10.00">_node&lt; KeyType, KeyCmp,</text>
<text text-anchor="start" x="2791" y="-156.911" font-family="Helvetica,sans-Serif" font-size="10.00"> RawSize, BTreeType &gt;::</text>
<text text-anchor="middle" x="2852" y="-145.911" font-family="Helvetica,sans-Serif" font-size="10.00">value_compare</text>
</a>
</g>
</g>
<!-- Node23&#45;&gt;Node1 -->
<g id="edge31" class="edge"><title>Node23&#45;&gt;Node1</title>
<path fill="none" stroke="#9a32cd" stroke-dasharray="5,2" d="M2931.12,-189.116C2953.59,-196.078 2977.87,-203.604 2999.57,-210.326"/>
<polygon fill="#9a32cd" stroke="#9a32cd" points="2931.86,-185.683 2921.27,-186.066 2929.79,-192.369 2931.86,-185.683"/>
<text text-anchor="middle" x="2959.5" y="-206.911" font-family="Helvetica,sans-Serif" font-size="10.00"> m_vcmp</text>
</g>
</g>
</svg>
