<?xml version="1.0" encoding="UTF-8" standalone="no"?>
<!DOCTYPE svg PUBLIC "-//W3C//DTD SVG 1.1//EN"
 "http://www.w3.org/Graphics/SVG/1.1/DTD/svg11.dtd">
<!-- Generated by graphviz version 2.26.3 (20100126.1600)
 -->
<!-- Title: stxxl::stream::basic_runs_merger&lt; RunsType_, CompareType_, AllocStr_ &gt; Pages: 1 -->
<svg width="940pt" height="226pt"
 viewBox="0.00 0.00 940.00 226.00" xmlns="http://www.w3.org/2000/svg" xmlns:xlink="http://www.w3.org/1999/xlink">
<g id="graph1" class="graph" transform="scale(1 1) rotate(0) translate(4 222)">
<title>stxxl::stream::basic_runs_merger&lt; RunsType_, CompareType_, AllocStr_ &gt;</title>
<!-- Node1 -->
<g id="node1" class="node"><title>Node1</title>
<polygon fill="#bfbfbf" stroke="black" points="136.5,-78.5 136.5,-125.5 285.5,-125.5 285.5,-78.5 136.5,-78.5"/>
<text text-anchor="start" x="144.5" y="-112.5" font-family="Helvetica,sans-Serif" font-size="10.00">stxxl::stream::basic</text>
<text text-anchor="start" x="144.5" y="-99.5" font-family="Helvetica,sans-Serif" font-size="10.00">_runs_merger&lt; RunsType</text>
<text text-anchor="middle" x="211" y="-86.5" font-family="Helvetica,sans-Serif" font-size="10.00">_, CompareType_, AllocStr_ &gt;</text>
</g>
<!-- Node3 -->
<g id="node5" class="node"><title>Node3</title>
<a xlink:href="classstxxl_1_1stream_1_1runs__merger.html" target="_top" xlink:title="Merges sorted runs. ">
<polygon fill="none" stroke="black" points="468.5,-78.5 468.5,-125.5 609.5,-125.5 609.5,-78.5 468.5,-78.5"/>
<text text-anchor="start" x="476.5" y="-112.5" font-family="Helvetica,sans-Serif" font-size="10.00">stxxl::stream::runs</text>
<text text-anchor="start" x="476.5" y="-99.5" font-family="Helvetica,sans-Serif" font-size="10.00">_merger&lt; RunsType_,</text>
<text text-anchor="middle" x="539" y="-86.5" font-family="Helvetica,sans-Serif" font-size="10.00"> CompareType_, AllocStr_ &gt;</text>
</a>
</g>
<!-- Node1&#45;&gt;Node3 -->
<g id="edge4" class="edge"><title>Node1&#45;&gt;Node3</title>
<path fill="none" stroke="midnightblue" d="M296,-102C349.55,-102 417.864,-102 468.414,-102"/>
<polygon fill="midnightblue" stroke="midnightblue" points="295.839,-98.5001 285.839,-102 295.839,-105.5 295.839,-98.5001"/>
</g>
<!-- Node6 -->
<g id="node11" class="node"><title>Node6</title>
<a xlink:href="classstxxl_1_1stream_1_1basic__runs__merger.html" target="_top" xlink:title="stxxl::stream::basic\l_runs_merger\&lt; typename\l runs_creator_type::sorted\l_runs_type, cmp_type, alloc\l_strategy_type \&gt;">
<polygon fill="none" stroke="black" points="469,-144.5 469,-217.5 609,-217.5 609,-144.5 469,-144.5"/>
<text text-anchor="start" x="477" y="-204.5" font-family="Helvetica,sans-Serif" font-size="10.00">stxxl::stream::basic</text>
<text text-anchor="start" x="477" y="-191.5" font-family="Helvetica,sans-Serif" font-size="10.00">_runs_merger&lt; typename</text>
<text text-anchor="start" x="477" y="-178.5" font-family="Helvetica,sans-Serif" font-size="10.00"> runs_creator_type::sorted</text>
<text text-anchor="start" x="477" y="-165.5" font-family="Helvetica,sans-Serif" font-size="10.00">_runs_type, cmp_type, alloc</text>
<text text-anchor="middle" x="539" y="-152.5" font-family="Helvetica,sans-Serif" font-size="10.00">_strategy_type &gt;</text>
</a>
</g>
<!-- Node1&#45;&gt;Node6 -->
<g id="edge10" class="edge"><title>Node1&#45;&gt;Node6</title>
<path fill="none" stroke="orange" stroke-dasharray="5,2" d="M295.7,-122.4C349.491,-135.356 418.272,-151.922 468.97,-164.133"/>
<polygon fill="orange" stroke="orange" points="296.38,-118.964 285.839,-120.025 294.741,-125.77 296.38,-118.964"/>
<text text-anchor="start" x="304" y="-187" font-family="Helvetica,sans-Serif" font-size="10.00"> &lt; typename runs_creator</text>
<text text-anchor="start" x="304" y="-174" font-family="Helvetica,sans-Serif" font-size="10.00">_type::sorted_runs_type,</text>
<text text-anchor="middle" x="377" y="-161" font-family="Helvetica,sans-Serif" font-size="10.00"> cmp_type, alloc_strategy_type &gt;</text>
</g>
<!-- Node7 -->
<g id="node14" class="node"><title>Node7</title>
<a xlink:href="classstxxl_1_1stream_1_1basic__runs__merger.html" target="_top" xlink:title="stxxl::stream::basic\l_runs_merger\&lt; sorted\l_runs_type, CompareType\l_, AllocStr_ \&gt;">
<polygon fill="none" stroke="black" points="473,-0 473,-60 605,-60 605,-0 473,-0"/>
<text text-anchor="start" x="481" y="-47" font-family="Helvetica,sans-Serif" font-size="10.00">stxxl::stream::basic</text>
<text text-anchor="start" x="481" y="-34" font-family="Helvetica,sans-Serif" font-size="10.00">_runs_merger&lt; sorted</text>
<text text-anchor="start" x="481" y="-21" font-family="Helvetica,sans-Serif" font-size="10.00">_runs_type, CompareType</text>
<text text-anchor="middle" x="539" y="-8" font-family="Helvetica,sans-Serif" font-size="10.00">_, AllocStr_ &gt;</text>
</a>
</g>
<!-- Node1&#45;&gt;Node7 -->
<g id="edge14" class="edge"><title>Node1&#45;&gt;Node7</title>
<path fill="none" stroke="orange" stroke-dasharray="5,2" d="M290.505,-75.5754C295.054,-74.3066 299.575,-73.1038 304,-72 360.399,-57.9321 425.534,-46.6725 472.906,-39.3665"/>
<polygon fill="orange" stroke="orange" points="289.173,-72.3166 280.531,-78.4458 291.109,-79.0436 289.173,-72.3166"/>
<text text-anchor="start" x="314.5" y="-89" font-family="Helvetica,sans-Serif" font-size="10.00"> &lt; sorted_runs_type,</text>
<text text-anchor="middle" x="377" y="-76" font-family="Helvetica,sans-Serif" font-size="10.00"> CompareType_, AllocStr_ &gt;</text>
</g>
<!-- Node2 -->
<g id="node2" class="node"><title>Node2</title>
<a xlink:href="classstxxl_1_1noncopyable.html" target="_top" xlink:title="stxxl::noncopyable">
<polygon fill="none" stroke="black" points="0,-91.5 0,-112.5 98,-112.5 98,-91.5 0,-91.5"/>
<text text-anchor="middle" x="49" y="-99.5" font-family="Helvetica,sans-Serif" font-size="10.00">stxxl::noncopyable</text>
</a>
</g>
<!-- Node2&#45;&gt;Node1 -->
<g id="edge2" class="edge"><title>Node2&#45;&gt;Node1</title>
<path fill="none" stroke="#8b1a1a" d="M108.203,-102C117.376,-102 126.952,-102 136.411,-102"/>
<polygon fill="#8b1a1a" stroke="#8b1a1a" points="108.045,-98.5001 98.045,-102 108.045,-105.5 108.045,-98.5001"/>
</g>
<!-- Node4 -->
<g id="node7" class="node"><title>Node4</title>
<a xlink:href="classstxxl_1_1stream_1_1runs__merger.html" target="_top" xlink:title="stxxl::stream::runs\l_merger\&lt; typename runs\l_creator_type::sorted\l_runs_type, cmp_type, alloc\l_strategy_type \&gt;">
<polygon fill="none" stroke="black" points="792,-121.5 792,-194.5 932,-194.5 932,-121.5 792,-121.5"/>
<text text-anchor="start" x="800" y="-181.5" font-family="Helvetica,sans-Serif" font-size="10.00">stxxl::stream::runs</text>
<text text-anchor="start" x="800" y="-168.5" font-family="Helvetica,sans-Serif" font-size="10.00">_merger&lt; typename runs</text>
<text text-anchor="start" x="800" y="-155.5" font-family="Helvetica,sans-Serif" font-size="10.00">_creator_type::sorted</text>
<text text-anchor="start" x="800" y="-142.5" font-family="Helvetica,sans-Serif" font-size="10.00">_runs_type, cmp_type, alloc</text>
<text text-anchor="middle" x="862" y="-129.5" font-family="Helvetica,sans-Serif" font-size="10.00">_strategy_type &gt;</text>
</a>
</g>
<!-- Node3&#45;&gt;Node4 -->
<g id="edge6" class="edge"><title>Node3&#45;&gt;Node4</title>
<path fill="none" stroke="orange" stroke-dasharray="5,2" d="M619.765,-102.237C665.571,-103.929 723.63,-108.709 774,-121 779.796,-122.414 785.703,-124.163 791.573,-126.123"/>
<polygon fill="orange" stroke="orange" points="619.699,-98.733 609.59,-101.904 619.471,-105.729 619.699,-98.733"/>
<text text-anchor="start" x="628" y="-151" font-family="Helvetica,sans-Serif" font-size="10.00"> &lt; typename runs_creator</text>
<text text-anchor="start" x="628" y="-138" font-family="Helvetica,sans-Serif" font-size="10.00">_type::sorted_runs_type,</text>
<text text-anchor="middle" x="701" y="-125" font-family="Helvetica,sans-Serif" font-size="10.00"> cmp_type, alloc_strategy_type &gt;</text>
</g>
<!-- Node5 -->
<g id="node9" class="node"><title>Node5</title>
<a xlink:href="classstxxl_1_1stream_1_1runs__merger.html" target="_top" xlink:title="stxxl::stream::runs\l_merger\&lt; sorted_runs\l_type, CompareType_,\l AllocStr_ \&gt;">
<polygon fill="none" stroke="black" points="804,-24 804,-84 920,-84 920,-24 804,-24"/>
<text text-anchor="start" x="812" y="-71" font-family="Helvetica,sans-Serif" font-size="10.00">stxxl::stream::runs</text>
<text text-anchor="start" x="812" y="-58" font-family="Helvetica,sans-Serif" font-size="10.00">_merger&lt; sorted_runs</text>
<text text-anchor="start" x="812" y="-45" font-family="Helvetica,sans-Serif" font-size="10.00">_type, CompareType_,</text>
<text text-anchor="middle" x="862" y="-32" font-family="Helvetica,sans-Serif" font-size="10.00"> AllocStr_ &gt;</text>
</a>
</g>
<!-- Node3&#45;&gt;Node5 -->
<g id="edge8" class="edge"><title>Node3&#45;&gt;Node5</title>
<path fill="none" stroke="orange" stroke-dasharray="5,2" d="M615.462,-75.8341C619.679,-74.7834 623.877,-73.8272 628,-73 687.144,-61.1336 756.112,-56.6374 803.778,-54.9557"/>
<polygon fill="orange" stroke="orange" points="614.387,-72.4981 605.616,-78.4411 616.179,-79.2649 614.387,-72.4981"/>
<text text-anchor="start" x="638.5" y="-90" font-family="Helvetica,sans-Serif" font-size="10.00"> &lt; sorted_runs_type,</text>
<text text-anchor="middle" x="701" y="-77" font-family="Helvetica,sans-Serif" font-size="10.00"> CompareType_, AllocStr_ &gt;</text>
</g>
<!-- Node6&#45;&gt;Node4 -->
<g id="edge12" class="edge"><title>Node6&#45;&gt;Node4</title>
<path fill="none" stroke="midnightblue" d="M619.126,-175.294C672.116,-171.521 740.928,-166.621 791.772,-163.001"/>
<polygon fill="midnightblue" stroke="midnightblue" points="618.812,-171.808 609.086,-176.009 619.31,-178.79 618.812,-171.808"/>
</g>
<!-- Node7&#45;&gt;Node5 -->
<g id="edge16" class="edge"><title>Node7&#45;&gt;Node5</title>
<path fill="none" stroke="midnightblue" d="M615.309,-35.67C673.022,-39.9583 751.071,-45.7576 803.802,-49.6757"/>
<polygon fill="midnightblue" stroke="midnightblue" points="615.375,-32.1654 605.143,-34.9147 614.856,-39.1461 615.375,-32.1654"/>
</g>
</g>
</svg>
