<?xml version="1.0" encoding="UTF-8" standalone="no"?>
<!DOCTYPE svg PUBLIC "-//W3C//DTD SVG 1.1//EN"
 "http://www.w3.org/Graphics/SVG/1.1/DTD/svg11.dtd">
<!-- Generated by graphviz version 2.38.0 (20140413.2041)
 -->
<!-- Title: stxxl::unordered_map&lt; KeyType, MappedType, HashType, CompareType, SubBlockSize, SubBlocksPerBlock, AllocType &gt; Pages: 1 -->
<svg width="2420pt" height="579pt"
 viewBox="0.00 0.00 2420.00 578.50" xmlns="http://www.w3.org/2000/svg" xmlns:xlink="http://www.w3.org/1999/xlink">
<g id="graph0" class="graph" transform="scale(1 1) rotate(0) translate(4 574.5)">
<title>stxxl::unordered_map&lt; KeyType, MappedType, HashType, CompareType, SubBlockSize, SubBlocksPerBlock, AllocType &gt;</title>
<!-- Node1 -->
<g id="node1" class="node"><title>Node1</title>
<polygon fill="#bfbfbf" stroke="black" points="2235,-469 2235,-532 2412,-532 2412,-469 2235,-469"/>
<text text-anchor="start" x="2243" y="-520" font-family="Helvetica,sans-Serif" font-size="10.00">stxxl::unordered_map</text>
<text text-anchor="start" x="2243" y="-509" font-family="Helvetica,sans-Serif" font-size="10.00">&lt; KeyType, MappedType,</text>
<text text-anchor="start" x="2243" y="-498" font-family="Helvetica,sans-Serif" font-size="10.00"> HashType, CompareType,</text>
<text text-anchor="start" x="2243" y="-487" font-family="Helvetica,sans-Serif" font-size="10.00"> SubBlockSize, SubBlocksPerBlock,</text>
<text text-anchor="middle" x="2323.5" y="-476" font-family="Helvetica,sans-Serif" font-size="10.00"> AllocType &gt;</text>
</g>
<!-- Node2 -->
<g id="node2" class="node"><title>Node2</title>
<g id="a_node2"><a xlink:href="classstxxl_1_1noncopyable.html" target="_top" xlink:title="stxxl::noncopyable">
<polygon fill="none" stroke="black" points="285,-340 285,-359 383,-359 383,-340 285,-340"/>
<text text-anchor="middle" x="334" y="-347" font-family="Helvetica,sans-Serif" font-size="10.00">stxxl::noncopyable</text>
</a>
</g>
</g>
<!-- Node2&#45;&gt;Node1 -->
<g id="edge1" class="edge"><title>Node2&#45;&gt;Node1</title>
<path fill="none" stroke="#8b1a1a" d="M339.919,-369.081C348.494,-400.141 368.624,-461.389 403,-502.5 441.704,-548.787 460.163,-570.5 520.5,-570.5 520.5,-570.5 520.5,-570.5 2089.5,-570.5 2147.15,-570.5 2209.57,-550.599 2255.28,-532.019"/>
<polygon fill="#8b1a1a" stroke="#8b1a1a" points="343.219,-367.869 337.278,-359.097 336.452,-369.659 343.219,-367.869"/>
</g>
<!-- Node3 -->
<g id="node3" class="node"><title>Node3</title>
<g id="a_node3"><a xlink:href="classstxxl_1_1hash__map_1_1hash__map.html" target="_top" xlink:title="stxxl::hash_map::hash\l_map\&lt; KeyType, MappedType,\l HashType, CompareType,\l SubBlockSize, SubBlocksPerBlock,\l AllocType \&gt;">
<polygon fill="none" stroke="black" points="2000,-285 2000,-348 2177,-348 2177,-285 2000,-285"/>
<text text-anchor="start" x="2008" y="-336" font-family="Helvetica,sans-Serif" font-size="10.00">stxxl::hash_map::hash</text>
<text text-anchor="start" x="2008" y="-325" font-family="Helvetica,sans-Serif" font-size="10.00">_map&lt; KeyType, MappedType,</text>
<text text-anchor="start" x="2008" y="-314" font-family="Helvetica,sans-Serif" font-size="10.00"> HashType, CompareType,</text>
<text text-anchor="start" x="2008" y="-303" font-family="Helvetica,sans-Serif" font-size="10.00"> SubBlockSize, SubBlocksPerBlock,</text>
<text text-anchor="middle" x="2088.5" y="-292" font-family="Helvetica,sans-Serif" font-size="10.00"> AllocType &gt;</text>
</a>
</g>
</g>
<!-- Node2&#45;&gt;Node3 -->
<g id="edge3" class="edge"><title>Node2&#45;&gt;Node3</title>
<path fill="none" stroke="#8b1a1a" d="M341.084,-330.361C350.561,-303.095 371.138,-252.8 403,-220.5 444.761,-178.165 461.034,-156.5 520.5,-156.5 520.5,-156.5 520.5,-156.5 1842,-156.5 1935.1,-156.5 2020.55,-238.26 2061.71,-284.889"/>
<polygon fill="#8b1a1a" stroke="#8b1a1a" points="337.744,-329.313 337.896,-339.906 344.384,-331.53 337.744,-329.313"/>
</g>
<!-- Node4 -->
<g id="node4" class="node"><title>Node4</title>
<g id="a_node4"><a xlink:href="classstxxl_1_1hash__map_1_1iterator__map.html" target="_top" xlink:title="stxxl::hash_map::iterator\l_map\&lt; self_type \&gt;">
<polygon fill="none" stroke="black" points="803.5,-65.5 803.5,-95.5 928.5,-95.5 928.5,-65.5 803.5,-65.5"/>
<text text-anchor="start" x="811.5" y="-83.5" font-family="Helvetica,sans-Serif" font-size="10.00">stxxl::hash_map::iterator</text>
<text text-anchor="middle" x="866" y="-72.5" font-family="Helvetica,sans-Serif" font-size="10.00">_map&lt; self_type &gt;</text>
</a>
</g>
</g>
<!-- Node2&#45;&gt;Node4 -->
<g id="edge5" class="edge"><title>Node2&#45;&gt;Node4</title>
<path fill="none" stroke="#8b1a1a" d="M335.883,-329.752C338.765,-286.757 351.023,-183.337 403,-118.5 420.794,-96.3039 431.519,-94.8522 459,-87.5 577.497,-55.7983 722.474,-63.9573 803.192,-72.4367"/>
<polygon fill="#8b1a1a" stroke="#8b1a1a" points="332.375,-329.796 335.303,-339.978 339.364,-330.192 332.375,-329.796"/>
</g>
<!-- Node7 -->
<g id="node7" class="node"><title>Node7</title>
<g id="a_node7"><a xlink:href="classstxxl_1_1hash__map_1_1iterator__map.html" target="_top" xlink:title="stxxl::hash_map::iterator\l_map\&lt; HashMap \&gt;">
<polygon fill="none" stroke="black" points="459,-97.5 459,-127.5 584,-127.5 584,-97.5 459,-97.5"/>
<text text-anchor="start" x="467" y="-115.5" font-family="Helvetica,sans-Serif" font-size="10.00">stxxl::hash_map::iterator</text>
<text text-anchor="middle" x="521.5" y="-104.5" font-family="Helvetica,sans-Serif" font-size="10.00">_map&lt; HashMap &gt;</text>
</a>
</g>
</g>
<!-- Node2&#45;&gt;Node7 -->
<g id="edge9" class="edge"><title>Node2&#45;&gt;Node7</title>
<path fill="none" stroke="#8b1a1a" d="M335.512,-329.392C337.692,-288.077 348.693,-193.264 403,-142.5 418.073,-128.411 438.825,-120.712 458.699,-116.576"/>
<polygon fill="#8b1a1a" stroke="#8b1a1a" points="332.008,-329.413 335.102,-339.546 339.003,-329.695 332.008,-329.413"/>
</g>
<!-- Node8 -->
<g id="node8" class="node"><title>Node8</title>
<g id="a_node8"><a xlink:href="classstxxl_1_1hash__map_1_1block__cache.html" target="_top" xlink:title="stxxl::hash_map::block\l_cache\&lt; block_type \&gt;">
<polygon fill="none" stroke="black" points="1782,-301.5 1782,-331.5 1900,-331.5 1900,-301.5 1782,-301.5"/>
<text text-anchor="start" x="1790" y="-319.5" font-family="Helvetica,sans-Serif" font-size="10.00">stxxl::hash_map::block</text>
<text text-anchor="middle" x="1841" y="-308.5" font-family="Helvetica,sans-Serif" font-size="10.00">_cache&lt; block_type &gt;</text>
</a>
</g>
</g>
<!-- Node2&#45;&gt;Node8 -->
<g id="edge12" class="edge"><title>Node2&#45;&gt;Node8</title>
<path fill="none" stroke="#8b1a1a" d="M345.366,-331.046C369.968,-289.953 436.189,-194.5 520.5,-194.5 520.5,-194.5 520.5,-194.5 1527,-194.5 1643.35,-194.5 1768.44,-268.591 1817.99,-301.295"/>
<polygon fill="#8b1a1a" stroke="#8b1a1a" points="342.273,-329.402 340.263,-339.804 348.321,-332.925 342.273,-329.402"/>
</g>
<!-- Node11 -->
<g id="node11" class="node"><title>Node11</title>
<g id="a_node11"><a xlink:href="classstxxl_1_1lru__pager.html" target="_top" xlink:title="Pager with LRU replacement strategy. ">
<polygon fill="none" stroke="black" points="1116,-428 1116,-447 1254,-447 1254,-428 1116,-428"/>
<text text-anchor="middle" x="1185" y="-435" font-family="Helvetica,sans-Serif" font-size="10.00">stxxl::lru_pager&lt; npages_ &gt;</text>
</a>
</g>
</g>
<!-- Node2&#45;&gt;Node11 -->
<g id="edge16" class="edge"><title>Node2&#45;&gt;Node11</title>
<path fill="none" stroke="#8b1a1a" d="M345.34,-368.063C357.257,-388.232 378.392,-420.509 403,-442.5 424.374,-461.601 431.295,-467.142 459,-474.5 715.41,-542.593 1040.33,-473.689 1147.73,-447.044"/>
<polygon fill="#8b1a1a" stroke="#8b1a1a" points="348.279,-366.153 340.256,-359.233 342.213,-369.646 348.279,-366.153"/>
</g>
<!-- Node12 -->
<g id="node12" class="node"><title>Node12</title>
<g id="a_node12"><a xlink:href="classstxxl_1_1simple__vector.html" target="_top" xlink:title="stxxl::simple_vector\l\&lt; list_type::iterator \&gt;">
<polygon fill="none" stroke="black" points="812.5,-422.5 812.5,-452.5 919.5,-452.5 919.5,-422.5 812.5,-422.5"/>
<text text-anchor="start" x="820.5" y="-440.5" font-family="Helvetica,sans-Serif" font-size="10.00">stxxl::simple_vector</text>
<text text-anchor="middle" x="866" y="-429.5" font-family="Helvetica,sans-Serif" font-size="10.00">&lt; list_type::iterator &gt;</text>
</a>
</g>
</g>
<!-- Node2&#45;&gt;Node12 -->
<g id="edge18" class="edge"><title>Node2&#45;&gt;Node12</title>
<path fill="none" stroke="#8b1a1a" d="M374.104,-362.016C383.502,-364.742 393.555,-367.427 403,-369.5 549.694,-401.702 726.006,-422.907 812.256,-432.168"/>
<polygon fill="#8b1a1a" stroke="#8b1a1a" points="374.805,-358.573 364.222,-359.07 372.805,-365.281 374.805,-358.573"/>
</g>
<!-- Node13 -->
<g id="node13" class="node"><title>Node13</title>
<g id="a_node13"><a xlink:href="classstxxl_1_1simple__vector.html" target="_top" xlink:title="Simpler non&#45;growing vector without initialization. ">
<polygon fill="none" stroke="black" points="469.5,-435.5 469.5,-465.5 573.5,-465.5 573.5,-435.5 469.5,-435.5"/>
<text text-anchor="start" x="477.5" y="-453.5" font-family="Helvetica,sans-Serif" font-size="10.00">stxxl::simple_vector</text>
<text text-anchor="middle" x="521.5" y="-442.5" font-family="Helvetica,sans-Serif" font-size="10.00">&lt; ValueType &gt;</text>
</a>
</g>
</g>
<!-- Node2&#45;&gt;Node13 -->
<g id="edge20" class="edge"><title>Node2&#45;&gt;Node13</title>
<path fill="none" stroke="#8b1a1a" d="M347.674,-367.627C359.98,-383.872 380.117,-407.139 403,-420.5 423.091,-432.23 447.729,-439.424 469.246,-443.811"/>
<polygon fill="#8b1a1a" stroke="#8b1a1a" points="350.406,-365.434 341.675,-359.432 344.758,-369.568 350.406,-365.434"/>
</g>
<!-- Node14 -->
<g id="node14" class="node"><title>Node14</title>
<g id="a_node14"><a xlink:href="classstxxl_1_1hash__map_1_1block__cache__write__buffer.html" target="_top" xlink:title="stxxl::hash_map::block\l_cache_write_buffer\&lt; block\l_type \&gt;">
<polygon fill="none" stroke="black" points="961,-337 961,-378 1098,-378 1098,-337 961,-337"/>
<text text-anchor="start" x="969" y="-366" font-family="Helvetica,sans-Serif" font-size="10.00">stxxl::hash_map::block</text>
<text text-anchor="start" x="969" y="-355" font-family="Helvetica,sans-Serif" font-size="10.00">_cache_write_buffer&lt; block</text>
<text text-anchor="middle" x="1029.5" y="-344" font-family="Helvetica,sans-Serif" font-size="10.00">_type &gt;</text>
</a>
</g>
</g>
<!-- Node2&#45;&gt;Node14 -->
<g id="edge22" class="edge"><title>Node2&#45;&gt;Node14</title>
<path fill="none" stroke="#8b1a1a" d="M393.13,-348.058C476.714,-346.221 635.691,-343.611 771,-346.5 835.419,-347.875 908.841,-351.184 960.756,-353.816"/>
<polygon fill="#8b1a1a" stroke="#8b1a1a" points="392.99,-344.56 383.071,-348.283 393.147,-351.558 392.99,-344.56"/>
</g>
<!-- Node15 -->
<g id="node15" class="node"><title>Node15</title>
<g id="a_node15"><a xlink:href="classstxxl_1_1hash__map_1_1block__cache__write__buffer.html" target="_top" xlink:title="Used inside block_cache for buffering write requests of cached blocks. ">
<polygon fill="none" stroke="black" points="602,-356.5 602,-386.5 771,-386.5 771,-356.5 602,-356.5"/>
<text text-anchor="start" x="610" y="-374.5" font-family="Helvetica,sans-Serif" font-size="10.00">stxxl::hash_map::block</text>
<text text-anchor="middle" x="686.5" y="-363.5" font-family="Helvetica,sans-Serif" font-size="10.00">_cache_write_buffer&lt; BlockType &gt;</text>
</a>
</g>
</g>
<!-- Node2&#45;&gt;Node15 -->
<g id="edge24" class="edge"><title>Node2&#45;&gt;Node15</title>
<path fill="none" stroke="#8b1a1a" d="M393.266,-353.157C450.196,-356.731 537.439,-362.207 601.79,-366.246"/>
<polygon fill="#8b1a1a" stroke="#8b1a1a" points="393.2,-349.646 383.001,-352.513 392.762,-356.633 393.2,-349.646"/>
</g>
<!-- Node16 -->
<g id="node16" class="node"><title>Node16</title>
<g id="a_node16"><a xlink:href="classstxxl_1_1hash__map_1_1block__cache.html" target="_top" xlink:title="Cache of blocks contained in an external memory hash map. Uses the stxxl::lru_pager as eviction algor...">
<polygon fill="none" stroke="black" points="1467,-301.5 1467,-331.5 1585,-331.5 1585,-301.5 1467,-301.5"/>
<text text-anchor="start" x="1475" y="-319.5" font-family="Helvetica,sans-Serif" font-size="10.00">stxxl::hash_map::block</text>
<text text-anchor="middle" x="1526" y="-308.5" font-family="Helvetica,sans-Serif" font-size="10.00">_cache&lt; BlockType &gt;</text>
</a>
</g>
</g>
<!-- Node2&#45;&gt;Node16 -->
<g id="edge26" class="edge"><title>Node2&#45;&gt;Node16</title>
<path fill="none" stroke="#8b1a1a" d="M362.341,-335.473C397.832,-318.595 462.142,-292.5 520.5,-292.5 520.5,-292.5 520.5,-292.5 1030.5,-292.5 1188.44,-292.5 1374.41,-304.865 1466.81,-311.844"/>
<polygon fill="#8b1a1a" stroke="#8b1a1a" points="360.584,-332.436 353.124,-339.959 363.647,-338.73 360.584,-332.436"/>
</g>
<!-- Node17 -->
<g id="node17" class="node"><title>Node17</title>
<g id="a_node17"><a xlink:href="classstxxl_1_1hash__map_1_1hash__map.html" target="_top" xlink:title="Main implementation of external memory hash map. ">
<polygon fill="none" stroke="black" points="1272,-486 1272,-549 1449,-549 1449,-486 1272,-486"/>
<text text-anchor="start" x="1280" y="-537" font-family="Helvetica,sans-Serif" font-size="10.00">stxxl::hash_map::hash</text>
<text text-anchor="start" x="1280" y="-526" font-family="Helvetica,sans-Serif" font-size="10.00">_map&lt; KeyType, MappedType,</text>
<text text-anchor="start" x="1280" y="-515" font-family="Helvetica,sans-Serif" font-size="10.00"> HashType, KeyCompareType,</text>
<text text-anchor="start" x="1280" y="-504" font-family="Helvetica,sans-Serif" font-size="10.00"> SubBlockSize, SubBlocksPerBlock,</text>
<text text-anchor="middle" x="1360.5" y="-493" font-family="Helvetica,sans-Serif" font-size="10.00"> AllocatorType &gt;</text>
</a>
</g>
</g>
<!-- Node2&#45;&gt;Node17 -->
<g id="edge31" class="edge"><title>Node2&#45;&gt;Node17</title>
<path fill="none" stroke="#8b1a1a" d="M341.758,-368.604C351.714,-394.469 372.503,-440.8 403,-470.5 445.301,-511.696 461.454,-532.5 520.5,-532.5 520.5,-532.5 520.5,-532.5 1030.5,-532.5 1112.41,-532.5 1205.66,-527.803 1271.92,-523.666"/>
<polygon fill="#8b1a1a" stroke="#8b1a1a" points="345.021,-367.336 338.263,-359.176 338.457,-369.769 345.021,-367.336"/>
</g>
<!-- Node3&#45;&gt;Node1 -->
<g id="edge2" class="edge"><title>Node3&#45;&gt;Node1</title>
<path fill="none" stroke="#9a32cd" stroke-dasharray="5,2" d="M2137.59,-354.477C2180.44,-388.315 2242.41,-437.255 2282.58,-468.975"/>
<polygon fill="#9a32cd" stroke="#9a32cd" points="2139.57,-351.582 2129.55,-348.131 2135.23,-357.075 2139.57,-351.582"/>
<text text-anchor="middle" x="2206" y="-417.5" font-family="Helvetica,sans-Serif" font-size="10.00"> impl</text>
</g>
<!-- Node4&#45;&gt;Node3 -->
<g id="edge4" class="edge"><title>Node4&#45;&gt;Node3</title>
<path fill="none" stroke="#9a32cd" stroke-dasharray="5,2" d="M938.651,-85.1154C1002.88,-88.8528 1099.69,-93.5 1184,-93.5 1184,-93.5 1184,-93.5 1842,-93.5 1907.92,-93.5 1930.79,-100.986 1982,-142.5 2029.2,-180.764 2060.6,-246.157 2076.12,-284.952"/>
<polygon fill="#9a32cd" stroke="#9a32cd" points="938.818,-81.6193 928.629,-84.5243 938.406,-88.6071 938.818,-81.6193"/>
<text text-anchor="middle" x="1526" y="-96.5" font-family="Helvetica,sans-Serif" font-size="10.00"> iterator_map_</text>
</g>
<!-- Node5 -->
<g id="node5" class="node"><title>Node5</title>
<g id="a_node5"><a xlink:href="structstxxl_1_1compat__hash__multimap.html" target="_top" xlink:title="stxxl::compat_hash\l_multimap\&lt; internal\l_size_type, iterator\l_base *, hasher \&gt;">
<polygon fill="none" stroke="black" points="283,-0.5 283,-52.5 385,-52.5 385,-0.5 283,-0.5"/>
<text text-anchor="start" x="291" y="-40.5" font-family="Helvetica,sans-Serif" font-size="10.00">stxxl::compat_hash</text>
<text text-anchor="start" x="291" y="-29.5" font-family="Helvetica,sans-Serif" font-size="10.00">_multimap&lt; internal</text>
<text text-anchor="start" x="291" y="-18.5" font-family="Helvetica,sans-Serif" font-size="10.00">_size_type, iterator</text>
<text text-anchor="middle" x="334" y="-7.5" font-family="Helvetica,sans-Serif" font-size="10.00">_base *, hasher &gt;</text>
</a>
</g>
</g>
<!-- Node5&#45;&gt;Node4 -->
<g id="edge6" class="edge"><title>Node5&#45;&gt;Node4</title>
<path fill="none" stroke="#9a32cd" stroke-dasharray="5,2" d="M395.264,-26.4698C479.809,-27.3098 638.169,-32.11 771,-54.5 786.528,-57.1174 803.179,-61.2644 818.089,-65.4842"/>
<polygon fill="#9a32cd" stroke="#9a32cd" points="395.107,-22.9685 385.078,-26.3844 395.048,-29.9682 395.107,-22.9685"/>
<text text-anchor="middle" x="521.5" y="-36.5" font-family="Helvetica,sans-Serif" font-size="10.00"> it_map_</text>
</g>
<!-- Node5&#45;&gt;Node7 -->
<g id="edge10" class="edge"><title>Node5&#45;&gt;Node7</title>
<path fill="none" stroke="#9a32cd" stroke-dasharray="5,2" d="M394.623,-54.1418C425.636,-68.5198 462.338,-85.5352 488.083,-97.4712"/>
<polygon fill="#9a32cd" stroke="#9a32cd" points="395.744,-50.8036 385.199,-49.7728 392.799,-57.1543 395.744,-50.8036"/>
<text text-anchor="middle" x="422" y="-78.5" font-family="Helvetica,sans-Serif" font-size="10.00"> it_map_</text>
</g>
<!-- Node6 -->
<g id="node6" class="node"><title>Node6</title>
<g id="a_node6"><a xlink:href="structstxxl_1_1compat__hash__multimap.html" target="_top" xlink:title="stxxl::compat_hash\l_multimap\&lt; KeyType,\l MappedType, HashType \&gt;">
<polygon fill="none" stroke="black" points="0,-6 0,-47 136,-47 136,-6 0,-6"/>
<text text-anchor="start" x="8" y="-35" font-family="Helvetica,sans-Serif" font-size="10.00">stxxl::compat_hash</text>
<text text-anchor="start" x="8" y="-24" font-family="Helvetica,sans-Serif" font-size="10.00">_multimap&lt; KeyType,</text>
<text text-anchor="middle" x="68" y="-13" font-family="Helvetica,sans-Serif" font-size="10.00"> MappedType, HashType &gt;</text>
</a>
</g>
</g>
<!-- Node6&#45;&gt;Node5 -->
<g id="edge7" class="edge"><title>Node6&#45;&gt;Node5</title>
<path fill="none" stroke="orange" stroke-dasharray="5,2" d="M146.407,-26.5C190.472,-26.5 244.389,-26.5 282.913,-26.5"/>
<polygon fill="orange" stroke="orange" points="146.301,-23.0001 136.301,-26.5 146.301,-30.0001 146.301,-23.0001"/>
<text text-anchor="start" x="154" y="-40.5" font-family="Helvetica,sans-Serif" font-size="10.00"> &lt; internal_size_type,</text>
<text text-anchor="middle" x="209.5" y="-29.5" font-family="Helvetica,sans-Serif" font-size="10.00"> iterator_base *, hasher &gt;</text>
</g>
<!-- Node7&#45;&gt;Node4 -->
<g id="edge8" class="edge"><title>Node7&#45;&gt;Node4</title>
<path fill="none" stroke="orange" stroke-dasharray="5,2" d="M594.205,-105.801C656.081,-100.019 744.518,-91.7567 803.29,-86.2656"/>
<polygon fill="orange" stroke="orange" points="593.759,-102.327 584.128,-106.742 594.41,-109.297 593.759,-102.327"/>
<text text-anchor="middle" x="686.5" y="-108.5" font-family="Helvetica,sans-Serif" font-size="10.00"> &lt; self_type &gt;</text>
</g>
<!-- Node8&#45;&gt;Node3 -->
<g id="edge11" class="edge"><title>Node8&#45;&gt;Node3</title>
<path fill="none" stroke="#9a32cd" stroke-dasharray="5,2" d="M1910.19,-316.5C1937.98,-316.5 1970.44,-316.5 1999.95,-316.5"/>
<polygon fill="#9a32cd" stroke="#9a32cd" points="1910.18,-313 1900.18,-316.5 1910.18,-320 1910.18,-313"/>
<text text-anchor="middle" x="1950" y="-319.5" font-family="Helvetica,sans-Serif" font-size="10.00"> block_cache_</text>
</g>
<!-- Node9 -->
<g id="node9" class="node"><title>Node9</title>
<g id="a_node9"><a xlink:href="structstxxl_1_1compat__hash__map.html" target="_top" xlink:title="stxxl::compat_hash\l_map\&lt; bid_type, unsigned\l_type, bid_hash \&gt;">
<polygon fill="none" stroke="black" points="1119.5,-223 1119.5,-264 1250.5,-264 1250.5,-223 1119.5,-223"/>
<text text-anchor="start" x="1127.5" y="-252" font-family="Helvetica,sans-Serif" font-size="10.00">stxxl::compat_hash</text>
<text text-anchor="start" x="1127.5" y="-241" font-family="Helvetica,sans-Serif" font-size="10.00">_map&lt; bid_type, unsigned</text>
<text text-anchor="middle" x="1185" y="-230" font-family="Helvetica,sans-Serif" font-size="10.00">_type, bid_hash &gt;</text>
</a>
</g>
</g>
<!-- Node9&#45;&gt;Node8 -->
<g id="edge13" class="edge"><title>Node9&#45;&gt;Node8</title>
<path fill="none" stroke="#9a32cd" stroke-dasharray="5,2" d="M1261,-244.338C1313.7,-245.488 1385.8,-248.189 1449,-254.5 1568,-266.383 1705.87,-290.755 1781.98,-305.149"/>
<polygon fill="#9a32cd" stroke="#9a32cd" points="1260.8,-240.833 1250.73,-244.128 1260.65,-247.832 1260.8,-240.833"/>
<text text-anchor="middle" x="1526" y="-274.5" font-family="Helvetica,sans-Serif" font-size="10.00"> bid_map_</text>
</g>
<!-- Node9&#45;&gt;Node16 -->
<g id="edge27" class="edge"><title>Node9&#45;&gt;Node16</title>
<path fill="none" stroke="#9a32cd" stroke-dasharray="5,2" d="M1261.03,-250.852C1332.39,-258.088 1431.43,-268.85 1449,-274.5 1468.37,-280.73 1488.45,-292.069 1503.1,-301.396"/>
<polygon fill="#9a32cd" stroke="#9a32cd" points="1261.01,-247.333 1250.71,-249.811 1260.31,-254.298 1261.01,-247.333"/>
<text text-anchor="middle" x="1360.5" y="-277.5" font-family="Helvetica,sans-Serif" font-size="10.00"> bid_map_</text>
</g>
<!-- Node10 -->
<g id="node10" class="node"><title>Node10</title>
<g id="a_node10"><a xlink:href="structstxxl_1_1compat__hash__map.html" target="_top" xlink:title="stxxl::compat_hash\l_map\&lt; KeyType, MappedType,\l HashType \&gt;">
<polygon fill="none" stroke="black" points="789,-223 789,-264 943,-264 943,-223 789,-223"/>
<text text-anchor="start" x="797" y="-252" font-family="Helvetica,sans-Serif" font-size="10.00">stxxl::compat_hash</text>
<text text-anchor="start" x="797" y="-241" font-family="Helvetica,sans-Serif" font-size="10.00">_map&lt; KeyType, MappedType,</text>
<text text-anchor="middle" x="866" y="-230" font-family="Helvetica,sans-Serif" font-size="10.00"> HashType &gt;</text>
</a>
</g>
</g>
<!-- Node10&#45;&gt;Node9 -->
<g id="edge14" class="edge"><title>Node10&#45;&gt;Node9</title>
<path fill="none" stroke="orange" stroke-dasharray="5,2" d="M953.61,-243.5C1005.92,-243.5 1071.5,-243.5 1119.3,-243.5"/>
<polygon fill="orange" stroke="orange" points="953.333,-240 943.333,-243.5 953.333,-247 953.333,-240"/>
<text text-anchor="start" x="982.5" y="-257.5" font-family="Helvetica,sans-Serif" font-size="10.00"> &lt; bid_type, unsigned</text>
<text text-anchor="middle" x="1029.5" y="-246.5" font-family="Helvetica,sans-Serif" font-size="10.00">_type, bid_hash &gt;</text>
</g>
<!-- Node11&#45;&gt;Node8 -->
<g id="edge15" class="edge"><title>Node11&#45;&gt;Node8</title>
<path fill="none" stroke="#9a32cd" stroke-dasharray="5,2" d="M1264.17,-448.042C1379.57,-460.014 1599.56,-468.916 1764,-391.5 1792.51,-378.077 1816.67,-349.408 1829.68,-331.661"/>
<polygon fill="#9a32cd" stroke="#9a32cd" points="1264.33,-444.539 1254.02,-446.952 1263.59,-451.499 1264.33,-444.539"/>
<text text-anchor="middle" x="1526" y="-458.5" font-family="Helvetica,sans-Serif" font-size="10.00"> pager_</text>
</g>
<!-- Node11&#45;&gt;Node16 -->
<g id="edge28" class="edge"><title>Node11&#45;&gt;Node16</title>
<path fill="none" stroke="#9a32cd" stroke-dasharray="5,2" d="M1224.56,-424.92C1239.28,-420.481 1256.3,-415.783 1272,-412.5 1349.65,-396.269 1377.47,-423.808 1449,-389.5 1476.71,-376.207 1500.78,-348.923 1514.06,-331.735"/>
<polygon fill="#9a32cd" stroke="#9a32cd" points="1223.31,-421.643 1214.78,-427.931 1225.37,-428.333 1223.31,-421.643"/>
<text text-anchor="middle" x="1360.5" y="-415.5" font-family="Helvetica,sans-Serif" font-size="10.00"> pager_</text>
</g>
<!-- Node12&#45;&gt;Node11 -->
<g id="edge17" class="edge"><title>Node12&#45;&gt;Node11</title>
<path fill="none" stroke="#9a32cd" stroke-dasharray="5,2" d="M929.788,-437.5C983.531,-437.5 1060.74,-437.5 1115.95,-437.5"/>
<polygon fill="#9a32cd" stroke="#9a32cd" points="929.702,-434 919.702,-437.5 929.702,-441 929.702,-434"/>
<text text-anchor="middle" x="1029.5" y="-440.5" font-family="Helvetica,sans-Serif" font-size="10.00"> history_entry</text>
</g>
<!-- Node13&#45;&gt;Node12 -->
<g id="edge19" class="edge"><title>Node13&#45;&gt;Node12</title>
<path fill="none" stroke="orange" stroke-dasharray="5,2" d="M583.893,-448.17C648.966,-445.7 750.662,-441.84 812.247,-439.502"/>
<polygon fill="orange" stroke="orange" points="583.636,-444.677 573.776,-448.554 583.901,-451.672 583.636,-444.677"/>
<text text-anchor="middle" x="686.5" y="-450.5" font-family="Helvetica,sans-Serif" font-size="10.00"> &lt; list_type::iterator &gt;</text>
</g>
<!-- Node14&#45;&gt;Node8 -->
<g id="edge21" class="edge"><title>Node14&#45;&gt;Node8</title>
<path fill="none" stroke="#9a32cd" stroke-dasharray="5,2" d="M1108.28,-363.191C1110.88,-363.307 1113.46,-363.411 1116,-363.5 1177.3,-365.648 1192.7,-365.421 1254,-363.5 1481,-356.385 1538.77,-360.663 1764,-331.5 1769.74,-330.757 1775.69,-329.841 1781.62,-328.83"/>
<polygon fill="#9a32cd" stroke="#9a32cd" points="1108.31,-359.689 1098.15,-362.687 1107.96,-366.68 1108.31,-359.689"/>
<text text-anchor="middle" x="1360.5" y="-366.5" font-family="Helvetica,sans-Serif" font-size="10.00"> write_buffer_</text>
</g>
<!-- Node14&#45;&gt;Node16 -->
<g id="edge29" class="edge"><title>Node14&#45;&gt;Node16</title>
<path fill="none" stroke="#9a32cd" stroke-dasharray="5,2" d="M1108.22,-351.056C1207.75,-342.804 1377.96,-328.692 1466.94,-321.314"/>
<polygon fill="#9a32cd" stroke="#9a32cd" points="1107.9,-347.571 1098.22,-351.885 1108.48,-354.547 1107.9,-347.571"/>
<text text-anchor="middle" x="1185" y="-353.5" font-family="Helvetica,sans-Serif" font-size="10.00"> write_buffer_</text>
</g>
<!-- Node15&#45;&gt;Node14 -->
<g id="edge23" class="edge"><title>Node15&#45;&gt;Node14</title>
<path fill="none" stroke="orange" stroke-dasharray="5,2" d="M781.443,-367.643C838.357,-365.306 909.634,-362.38 960.983,-360.272"/>
<polygon fill="orange" stroke="orange" points="781.203,-364.15 771.355,-368.057 781.49,-371.144 781.203,-364.15"/>
<text text-anchor="middle" x="866" y="-370.5" font-family="Helvetica,sans-Serif" font-size="10.00"> &lt; block_type &gt;</text>
</g>
<!-- Node16&#45;&gt;Node8 -->
<g id="edge25" class="edge"><title>Node16&#45;&gt;Node8</title>
<path fill="none" stroke="orange" stroke-dasharray="5,2" d="M1595.29,-316.5C1651.08,-316.5 1729.08,-316.5 1781.91,-316.5"/>
<polygon fill="orange" stroke="orange" points="1595.14,-313 1585.14,-316.5 1595.14,-320 1595.14,-313"/>
<text text-anchor="middle" x="1683.5" y="-319.5" font-family="Helvetica,sans-Serif" font-size="10.00"> &lt; block_type &gt;</text>
</g>
<!-- Node17&#45;&gt;Node3 -->
<g id="edge30" class="edge"><title>Node17&#45;&gt;Node3</title>
<path fill="none" stroke="orange" stroke-dasharray="5,2" d="M1458.94,-497.286C1498.14,-489.083 1543.74,-479.448 1585,-470.5 1664.67,-453.223 1685.64,-452.975 1764,-430.5 1847.86,-406.447 1941.68,-372.59 2006.6,-348.027"/>
<polygon fill="orange" stroke="orange" points="1458.2,-493.867 1449.12,-499.339 1459.63,-500.719 1458.2,-493.867"/>
<text text-anchor="start" x="1603" y="-503.5" font-family="Helvetica,sans-Serif" font-size="10.00"> &lt; KeyType, MappedType,</text>
<text text-anchor="start" x="1603" y="-492.5" font-family="Helvetica,sans-Serif" font-size="10.00"> HashType, CompareType,</text>
<text text-anchor="start" x="1603" y="-481.5" font-family="Helvetica,sans-Serif" font-size="10.00"> SubBlockSize, SubBlocksPerBlock,</text>
<text text-anchor="middle" x="1683.5" y="-470.5" font-family="Helvetica,sans-Serif" font-size="10.00"> AllocType &gt;</text>
</g>
</g>
</svg>
