<?xml version="1.0" encoding="UTF-8" standalone="no"?>
<!DOCTYPE svg PUBLIC "-//W3C//DTD SVG 1.1//EN"
 "http://www.w3.org/Graphics/SVG/1.1/DTD/svg11.dtd">
<!-- Generated by graphviz version 2.38.0 (20140413.2041)
 -->
<!-- Title: stxxl::sequence&lt; ValueType, BlockSize, AllocStr, SizeType &gt;::stream Pages: 1 -->
<svg width="3806pt" height="732pt"
 viewBox="0.00 0.00 3806.00 732.00" xmlns="http://www.w3.org/2000/svg" xmlns:xlink="http://www.w3.org/1999/xlink">
<g id="graph0" class="graph" transform="scale(1 1) rotate(0) translate(4 728)">
<title>stxxl::sequence&lt; ValueType, BlockSize, AllocStr, SizeType &gt;::stream</title>
<!-- Node1 -->
<g id="node1" class="node"><title>Node1</title>
<polygon fill="#bfbfbf" stroke="black" points="3646,-305.5 3646,-346.5 3798,-346.5 3798,-305.5 3646,-305.5"/>
<text text-anchor="start" x="3654" y="-334.5" font-family="Helvetica,sans-Serif" font-size="10.00">stxxl::sequence&lt; ValueType,</text>
<text text-anchor="start" x="3654" y="-323.5" font-family="Helvetica,sans-Serif" font-size="10.00"> BlockSize, AllocStr, SizeType</text>
<text text-anchor="middle" x="3722" y="-312.5" font-family="Helvetica,sans-Serif" font-size="10.00"> &gt;::stream</text>
</g>
<!-- Node2 -->
<g id="node2" class="node"><title>Node2</title>
<g id="a_node2"><a xlink:href="classstxxl_1_1sequence.html" target="_top" xlink:title="External sequence or deque container without random access. &#160;&#160;Introduction &#160;to sequence container: se...">
<polygon fill="none" stroke="black" points="3390,-370 3390,-400 3551,-400 3551,-370 3390,-370"/>
<text text-anchor="start" x="3398" y="-388" font-family="Helvetica,sans-Serif" font-size="10.00">stxxl::sequence&lt; ValueType,</text>
<text text-anchor="middle" x="3470.5" y="-377" font-family="Helvetica,sans-Serif" font-size="10.00"> BlockSize, AllocStr, SizeType &gt;</text>
</a>
</g>
</g>
<!-- Node2&#45;&gt;Node1 -->
<g id="edge1" class="edge"><title>Node2&#45;&gt;Node1</title>
<path fill="none" stroke="#9a32cd" stroke-dasharray="5,2" d="M3545.22,-367.568C3576.98,-360.057 3614.07,-351.285 3645.98,-343.74"/>
<polygon fill="#9a32cd" stroke="#9a32cd" points="3544.03,-364.252 3535.1,-369.959 3545.64,-371.064 3544.03,-364.252"/>
<text text-anchor="middle" x="3598.5" y="-364" font-family="Helvetica,sans-Serif" font-size="10.00"> m_sequence</text>
</g>
<!-- Node3 -->
<g id="node3" class="node"><title>Node3</title>
<g id="a_node3"><a xlink:href="classstxxl_1_1noncopyable.html" target="_top" xlink:title="stxxl::noncopyable">
<polygon fill="none" stroke="black" points="307,-376.5 307,-395.5 405,-395.5 405,-376.5 307,-376.5"/>
<text text-anchor="middle" x="356" y="-383.5" font-family="Helvetica,sans-Serif" font-size="10.00">stxxl::noncopyable</text>
</a>
</g>
</g>
<!-- Node3&#45;&gt;Node2 -->
<g id="edge2" class="edge"><title>Node3&#45;&gt;Node2</title>
<path fill="none" stroke="#8b1a1a" d="M415.232,-393.092C464.603,-398.491 537.333,-405 601,-405 601,-405 601,-405 3227.5,-405 3281.78,-405 3342.67,-399.941 3389.8,-394.912"/>
<polygon fill="#8b1a1a" stroke="#8b1a1a" points="415.389,-389.588 405.063,-391.96 414.614,-396.545 415.389,-389.588"/>
</g>
<!-- Node5 -->
<g id="node5" class="node"><title>Node5</title>
<g id="a_node5"><a xlink:href="classstxxl_1_1singleton.html" target="_top" xlink:title="stxxl::singleton\&lt; block\l_manager \&gt;">
<polygon fill="none" stroke="black" points="830,-182 830,-212 945,-212 945,-182 830,-182"/>
<text text-anchor="start" x="838" y="-200" font-family="Helvetica,sans-Serif" font-size="10.00">stxxl::singleton&lt; block</text>
<text text-anchor="middle" x="887.5" y="-189" font-family="Helvetica,sans-Serif" font-size="10.00">_manager &gt;</text>
</a>
</g>
</g>
<!-- Node3&#45;&gt;Node5 -->
<g id="edge5" class="edge"><title>Node3&#45;&gt;Node5</title>
<path fill="none" stroke="#8b1a1a" d="M360.038,-366.455C366.589,-331.675 385.575,-259.635 434,-227 497.086,-184.486 722.783,-189.063 829.637,-193.861"/>
<polygon fill="#8b1a1a" stroke="#8b1a1a" points="356.584,-365.89 358.327,-376.341 363.481,-367.085 356.584,-365.89"/>
</g>
<!-- Node6 -->
<g id="node6" class="node"><title>Node6</title>
<g id="a_node6"><a xlink:href="classstxxl_1_1singleton.html" target="_top" xlink:title="stxxl::singleton\&lt; INSTANCE,\l destroy_on_exit \&gt;">
<polygon fill="none" stroke="black" points="529,-144 529,-174 675,-174 675,-144 529,-144"/>
<text text-anchor="start" x="537" y="-162" font-family="Helvetica,sans-Serif" font-size="10.00">stxxl::singleton&lt; INSTANCE,</text>
<text text-anchor="middle" x="602" y="-151" font-family="Helvetica,sans-Serif" font-size="10.00"> destroy_on_exit &gt;</text>
</a>
</g>
</g>
<!-- Node3&#45;&gt;Node6 -->
<g id="edge7" class="edge"><title>Node3&#45;&gt;Node6</title>
<path fill="none" stroke="#8b1a1a" d="M358.537,-366.203C362.784,-325.996 378.368,-234.725 434,-189 460.17,-167.49 496.528,-159.251 528.64,-156.701"/>
<polygon fill="#8b1a1a" stroke="#8b1a1a" points="355.037,-366.037 357.599,-376.317 362.007,-366.683 355.037,-366.037"/>
</g>
<!-- Node7 -->
<g id="node7" class="node"><title>Node7</title>
<g id="a_node7"><a xlink:href="classstxxl_1_1file.html" target="_top" xlink:title="Defines interface of file. ">
<polygon fill="none" stroke="black" points="1078,-246.5 1078,-265.5 1134,-265.5 1134,-246.5 1078,-246.5"/>
<text text-anchor="middle" x="1106" y="-253.5" font-family="Helvetica,sans-Serif" font-size="10.00">stxxl::file</text>
</a>
</g>
</g>
<!-- Node3&#45;&gt;Node7 -->
<g id="edge9" class="edge"><title>Node3&#45;&gt;Node7</title>
<path fill="none" stroke="#8b1a1a" d="M376.473,-370.043C391.402,-358.531 412.952,-343.417 434,-334 473.751,-316.214 486.372,-318.909 529,-310 661.743,-282.257 694.933,-272.131 830,-260 920.595,-251.863 1028.64,-253.621 1078,-255.054"/>
<polygon fill="#8b1a1a" stroke="#8b1a1a" points="374.183,-367.392 368.502,-376.335 378.52,-372.886 374.183,-367.392"/>
</g>
<!-- Node9 -->
<g id="node9" class="node"><title>Node9</title>
<g id="a_node9"><a xlink:href="classstxxl_1_1mutex.html" target="_top" xlink:title="stxxl::mutex">
<polygon fill="none" stroke="black" points="566.5,-319.5 566.5,-338.5 637.5,-338.5 637.5,-319.5 566.5,-319.5"/>
<text text-anchor="middle" x="602" y="-326.5" font-family="Helvetica,sans-Serif" font-size="10.00">stxxl::mutex</text>
</a>
</g>
</g>
<!-- Node3&#45;&gt;Node9 -->
<g id="edge12" class="edge"><title>Node3&#45;&gt;Node9</title>
<path fill="none" stroke="#8b1a1a" d="M384.789,-371.993C399.153,-365.297 417.162,-357.729 434,-353 478.697,-340.446 532.063,-334.237 566.23,-331.329"/>
<polygon fill="#8b1a1a" stroke="#8b1a1a" points="382.995,-368.971 375.485,-376.443 386.016,-375.285 382.995,-368.971"/>
</g>
<!-- Node12 -->
<g id="node12" class="node"><title>Node12</title>
<g id="a_node12"><a xlink:href="classstxxl_1_1disk__allocator.html" target="_top" xlink:title="stxxl::disk_allocator">
<polygon fill="none" stroke="black" points="1234,-319.5 1234,-338.5 1338,-338.5 1338,-319.5 1234,-319.5"/>
<text text-anchor="middle" x="1286" y="-326.5" font-family="Helvetica,sans-Serif" font-size="10.00">stxxl::disk_allocator</text>
</a>
</g>
</g>
<!-- Node3&#45;&gt;Node12 -->
<g id="edge16" class="edge"><title>Node3&#45;&gt;Node12</title>
<path fill="none" stroke="#8b1a1a" d="M415.232,-378.908C464.603,-373.509 537.333,-367 601,-367 601,-367 601,-367 1107,-367 1161.35,-367 1223.02,-349.846 1257.64,-338.589"/>
<polygon fill="#8b1a1a" stroke="#8b1a1a" points="414.614,-375.455 405.063,-380.04 415.389,-382.412 414.614,-375.455"/>
</g>
<!-- Node28 -->
<g id="node28" class="node"><title>Node28</title>
<g id="a_node28"><a xlink:href="classstxxl_1_1read__write__pool.html" target="_top" xlink:title="stxxl::read_write_pool\l\&lt; block_type \&gt;">
<polygon fill="none" stroke="black" points="1050,-499 1050,-529 1162,-529 1162,-499 1050,-499"/>
<text text-anchor="start" x="1058" y="-517" font-family="Helvetica,sans-Serif" font-size="10.00">stxxl::read_write_pool</text>
<text text-anchor="middle" x="1106" y="-506" font-family="Helvetica,sans-Serif" font-size="10.00">&lt; block_type &gt;</text>
</a>
</g>
</g>
<!-- Node3&#45;&gt;Node28 -->
<g id="edge44" class="edge"><title>Node3&#45;&gt;Node28</title>
<path fill="none" stroke="#8b1a1a" d="M384.784,-400.022C399.148,-406.722 417.157,-414.288 434,-419 463.689,-427.305 894.67,-485.708 1049.84,-506.595"/>
<polygon fill="#8b1a1a" stroke="#8b1a1a" points="386.013,-396.73 375.482,-395.568 382.99,-403.043 386.013,-396.73"/>
</g>
<!-- Node29 -->
<g id="node29" class="node"><title>Node29</title>
<g id="a_node29"><a xlink:href="classstxxl_1_1prefetch__pool.html" target="_top" xlink:title="Implements dynamically resizable prefetching pool. ">
<polygon fill="none" stroke="black" points="551,-609 551,-639 653,-639 653,-609 551,-609"/>
<text text-anchor="start" x="559" y="-627" font-family="Helvetica,sans-Serif" font-size="10.00">stxxl::prefetch_pool</text>
<text text-anchor="middle" x="602" y="-616" font-family="Helvetica,sans-Serif" font-size="10.00">&lt; BlockType &gt;</text>
</a>
</g>
</g>
<!-- Node3&#45;&gt;Node29 -->
<g id="edge46" class="edge"><title>Node3&#45;&gt;Node29</title>
<path fill="none" stroke="#8b1a1a" d="M362.39,-405.394C372.069,-437.183 395.098,-500.848 434,-541 466.216,-574.251 514.549,-596.253 550.942,-609.198"/>
<polygon fill="#8b1a1a" stroke="#8b1a1a" points="365.684,-404.187 359.519,-395.57 358.965,-406.15 365.684,-404.187"/>
</g>
<!-- Node32 -->
<g id="node32" class="node"><title>Node32</title>
<g id="a_node32"><a xlink:href="classstxxl_1_1write__pool.html" target="_top" xlink:title="Implements dynamically resizable buffered writing pool. ">
<polygon fill="none" stroke="black" points="555,-519 555,-549 649,-549 649,-519 555,-519"/>
<text text-anchor="start" x="563" y="-537" font-family="Helvetica,sans-Serif" font-size="10.00">stxxl::write_pool&lt;</text>
<text text-anchor="middle" x="602" y="-526" font-family="Helvetica,sans-Serif" font-size="10.00"> BlockType &gt;</text>
</a>
</g>
</g>
<!-- Node3&#45;&gt;Node32 -->
<g id="edge51" class="edge"><title>Node3&#45;&gt;Node32</title>
<path fill="none" stroke="#8b1a1a" d="M372.657,-402.984C387.449,-418.38 410.775,-441.037 434,-457 472.822,-483.682 486.125,-484.486 529,-504 540.093,-509.049 552.285,-514.255 563.432,-518.885"/>
<polygon fill="#8b1a1a" stroke="#8b1a1a" points="375.157,-400.534 365.745,-395.669 370.069,-405.341 375.157,-400.534"/>
</g>
<!-- Node33 -->
<g id="node33" class="node"><title>Node33</title>
<g id="a_node33"><a xlink:href="classstxxl_1_1read__write__pool.html" target="_top" xlink:title="Implements dynamically resizable buffered writing and prefetched reading pool. ">
<polygon fill="none" stroke="black" points="831.5,-551 831.5,-581 943.5,-581 943.5,-551 831.5,-551"/>
<text text-anchor="start" x="839.5" y="-569" font-family="Helvetica,sans-Serif" font-size="10.00">stxxl::read_write_pool</text>
<text text-anchor="middle" x="887.5" y="-558" font-family="Helvetica,sans-Serif" font-size="10.00">&lt; BlockType &gt;</text>
</a>
</g>
</g>
<!-- Node3&#45;&gt;Node33 -->
<g id="edge53" class="edge"><title>Node3&#45;&gt;Node33</title>
<path fill="none" stroke="#8b1a1a" d="M367.718,-404.239C381.301,-426.391 406.304,-464.12 434,-491 463.813,-519.934 477.896,-518.897 511,-544 519.298,-550.292 519.243,-555.359 529,-559 630.344,-596.818 759.357,-586.396 831.419,-575.884"/>
<polygon fill="#8b1a1a" stroke="#8b1a1a" points="370.623,-402.277 362.467,-395.515 364.625,-405.887 370.623,-402.277"/>
</g>
<!-- Node4 -->
<g id="node4" class="node"><title>Node4</title>
<g id="a_node4"><a xlink:href="classstxxl_1_1block__manager.html" target="_top" xlink:title="Block manager class. ">
<polygon fill="none" stroke="black" points="1452,-298.5 1452,-317.5 1562,-317.5 1562,-298.5 1452,-298.5"/>
<text text-anchor="middle" x="1507" y="-305.5" font-family="Helvetica,sans-Serif" font-size="10.00">stxxl::block_manager</text>
</a>
</g>
</g>
<!-- Node4&#45;&gt;Node2 -->
<g id="edge3" class="edge"><title>Node4&#45;&gt;Node2</title>
<path fill="none" stroke="#9a32cd" stroke-dasharray="5,2" d="M1535.57,-321.918C1572.17,-339.078 1639.27,-366 1700,-366 1700,-366 1700,-366 3227.5,-366 3281.76,-366 3342.65,-370.806 3389.78,-375.583"/>
<polygon fill="#9a32cd" stroke="#9a32cd" points="1537.04,-318.744 1526.51,-317.578 1534.02,-325.056 1537.04,-318.744"/>
<text text-anchor="middle" x="2503.5" y="-369" font-family="Helvetica,sans-Serif" font-size="10.00"> m_bm</text>
</g>
<!-- Node5&#45;&gt;Node4 -->
<g id="edge4" class="edge"><title>Node5&#45;&gt;Node4</title>
<path fill="none" stroke="midnightblue" d="M955.513,-198.894C1044.13,-202.589 1204.67,-213.419 1338,-245 1393.02,-258.031 1454.47,-284.252 1485.57,-298.41"/>
<polygon fill="midnightblue" stroke="midnightblue" points="955.463,-195.389 945.331,-198.488 955.184,-202.384 955.463,-195.389"/>
</g>
<!-- Node6&#45;&gt;Node5 -->
<g id="edge6" class="edge"><title>Node6&#45;&gt;Node5</title>
<path fill="none" stroke="orange" stroke-dasharray="5,2" d="M685.578,-163.469C724.171,-166.333 770.632,-170.891 812,-178 818.446,-179.108 825.154,-180.488 831.787,-181.995"/>
<polygon fill="orange" stroke="orange" points="685.654,-159.965 675.43,-162.741 685.154,-166.947 685.654,-159.965"/>
<text text-anchor="middle" x="752.5" y="-181" font-family="Helvetica,sans-Serif" font-size="10.00"> &lt; block_manager &gt;</text>
</g>
<!-- Node7&#45;&gt;Node4 -->
<g id="edge8" class="edge"><title>Node7&#45;&gt;Node4</title>
<path fill="none" stroke="#9a32cd" stroke-dasharray="5,2" d="M1144.34,-260.867C1215.21,-270.102 1369.44,-290.203 1451.73,-300.927"/>
<polygon fill="#9a32cd" stroke="#9a32cd" points="1144.48,-257.355 1134.11,-259.533 1143.58,-264.296 1144.48,-257.355"/>
<text text-anchor="middle" x="1286" y="-289" font-family="Helvetica,sans-Serif" font-size="10.00"> disk_files</text>
</g>
<!-- Node7&#45;&gt;Node12 -->
<g id="edge17" class="edge"><title>Node7&#45;&gt;Node12</title>
<path fill="none" stroke="#9a32cd" stroke-dasharray="5,2" d="M1139.67,-269.4C1175.04,-283.902 1230.54,-306.665 1261.72,-319.454"/>
<polygon fill="#9a32cd" stroke="#9a32cd" points="1140.85,-266.1 1130.27,-265.543 1138.19,-272.576 1140.85,-266.1"/>
<text text-anchor="middle" x="1198" y="-303" font-family="Helvetica,sans-Serif" font-size="10.00"> storage</text>
</g>
<!-- Node19 -->
<g id="node19" class="node"><title>Node19</title>
<g id="a_node19"><a xlink:href="structstxxl_1_1BID.html" target="_top" xlink:title="stxxl::BID\&lt; raw_size \&gt;">
<polygon fill="none" stroke="black" points="1448,-233.5 1448,-252.5 1566,-252.5 1566,-233.5 1448,-233.5"/>
<text text-anchor="middle" x="1507" y="-240.5" font-family="Helvetica,sans-Serif" font-size="10.00">stxxl::BID&lt; raw_size &gt;</text>
</a>
</g>
</g>
<!-- Node7&#45;&gt;Node19 -->
<g id="edge27" class="edge"><title>Node7&#45;&gt;Node19</title>
<path fill="none" stroke="#9a32cd" stroke-dasharray="5,2" d="M1144.18,-254.789C1213.87,-252.518 1364.59,-247.607 1447.83,-244.895"/>
<polygon fill="#9a32cd" stroke="#9a32cd" points="1143.99,-251.293 1134.11,-255.117 1144.22,-258.289 1143.99,-251.293"/>
<text text-anchor="middle" x="1286" y="-255" font-family="Helvetica,sans-Serif" font-size="10.00"> storage</text>
</g>
<!-- Node20 -->
<g id="node20" class="node"><title>Node20</title>
<g id="a_node20"><a xlink:href="structstxxl_1_1BID.html" target="_top" xlink:title="Block identifier class. ">
<polygon fill="none" stroke="black" points="1237,-149.5 1237,-168.5 1335,-168.5 1335,-149.5 1237,-149.5"/>
<text text-anchor="middle" x="1286" y="-156.5" font-family="Helvetica,sans-Serif" font-size="10.00">stxxl::BID&lt; Size &gt;</text>
</a>
</g>
</g>
<!-- Node7&#45;&gt;Node20 -->
<g id="edge29" class="edge"><title>Node7&#45;&gt;Node20</title>
<path fill="none" stroke="#9a32cd" stroke-dasharray="5,2" d="M1133.88,-241.35C1170.78,-221.243 1236.09,-185.656 1267.35,-168.616"/>
<polygon fill="#9a32cd" stroke="#9a32cd" points="1131.82,-238.486 1124.72,-246.345 1135.17,-244.633 1131.82,-238.486"/>
<text text-anchor="middle" x="1198" y="-220" font-family="Helvetica,sans-Serif" font-size="10.00"> storage</text>
</g>
<!-- Node8 -->
<g id="node8" class="node"><title>Node8</title>
<g id="a_node8"><a xlink:href="classstxxl_1_1atomic__counted__object.html" target="_top" xlink:title="Provides reference counting abilities for use with counting_ptr with mutex locking. ">
<polygon fill="none" stroke="black" points="831,-270 831,-300 944,-300 944,-270 831,-270"/>
<text text-anchor="start" x="839" y="-288" font-family="Helvetica,sans-Serif" font-size="10.00">stxxl::atomic_counted</text>
<text text-anchor="middle" x="887.5" y="-277" font-family="Helvetica,sans-Serif" font-size="10.00">_object</text>
</a>
</g>
</g>
<!-- Node8&#45;&gt;Node7 -->
<g id="edge10" class="edge"><title>Node8&#45;&gt;Node7</title>
<path fill="none" stroke="#9a32cd" stroke-dasharray="5,2" d="M954.281,-276.189C995.697,-270.641 1046.97,-263.773 1077.78,-259.647"/>
<polygon fill="#9a32cd" stroke="#9a32cd" points="953.701,-272.735 944.254,-277.532 954.63,-279.673 953.701,-272.735"/>
<text text-anchor="middle" x="997.5" y="-278" font-family="Helvetica,sans-Serif" font-size="10.00"> m_request_ref</text>
</g>
<!-- Node9&#45;&gt;Node8 -->
<g id="edge11" class="edge"><title>Node9&#45;&gt;Node8</title>
<path fill="none" stroke="#9a32cd" stroke-dasharray="5,2" d="M642.163,-316.532C657.829,-311.964 676.13,-307.147 693,-304 738.958,-295.427 791.825,-290.569 830.674,-287.916"/>
<polygon fill="#9a32cd" stroke="#9a32cd" points="640.871,-313.265 632.289,-319.479 642.872,-319.973 640.871,-313.265"/>
<text text-anchor="middle" x="752.5" y="-307" font-family="Helvetica,sans-Serif" font-size="10.00"> m_reference_count_mutex</text>
</g>
<!-- Node9&#45;&gt;Node12 -->
<g id="edge18" class="edge"><title>Node9&#45;&gt;Node12</title>
<path fill="none" stroke="#9a32cd" stroke-dasharray="5,2" d="M647.837,-329C769.471,-329 1105.15,-329 1233.85,-329"/>
<polygon fill="#9a32cd" stroke="#9a32cd" points="647.758,-325.5 637.758,-329 647.758,-332.5 647.758,-325.5"/>
<text text-anchor="middle" x="997.5" y="-332" font-family="Helvetica,sans-Serif" font-size="10.00"> mutex</text>
</g>
<!-- Node10 -->
<g id="node10" class="node"><title>Node10</title>
<g id="a_node10"><a xlink:href="structstxxl_1_1choose__int__types.html" target="_top" xlink:title="stxxl::choose_int_types\l\&lt; my_pointer_size \&gt;">
<polygon fill="none" stroke="black" points="296,-609 296,-639 416,-639 416,-609 296,-609"/>
<text text-anchor="start" x="304" y="-627" font-family="Helvetica,sans-Serif" font-size="10.00">stxxl::choose_int_types</text>
<text text-anchor="middle" x="356" y="-616" font-family="Helvetica,sans-Serif" font-size="10.00">&lt; my_pointer_size &gt;</text>
</a>
</g>
</g>
<!-- Node10&#45;&gt;Node2 -->
<g id="edge19" class="edge"><title>Node10&#45;&gt;Node2</title>
<path fill="none" stroke="#9a32cd" stroke-dasharray="5,2" d="M418.185,-641.678C467.192,-654.281 537.932,-669 601,-669 601,-669 601,-669 3227.5,-669 3370.01,-669 3446.3,-459.259 3464.94,-400.269"/>
<polygon fill="#9a32cd" stroke="#9a32cd" points="418.936,-638.257 408.376,-639.11 417.163,-645.029 418.936,-638.257"/>
<text text-anchor="middle" x="1854" y="-683" font-family="Helvetica,sans-Serif" font-size="10.00"> m_blocks2prefetch</text>
<text text-anchor="middle" x="1854" y="-672" font-family="Helvetica,sans-Serif" font-size="10.00">m_alloc_count</text>
</g>
<!-- Node10&#45;&gt;Node8 -->
<g id="edge13" class="edge"><title>Node10&#45;&gt;Node8</title>
<path fill="none" stroke="#9a32cd" stroke-dasharray="5,2" d="M384.414,-602.909C417.916,-577.411 476.618,-533.614 529,-499 649.399,-419.442 799.256,-333.92 859.539,-300.045"/>
<polygon fill="#9a32cd" stroke="#9a32cd" points="382.285,-600.132 376.459,-608.981 386.532,-605.696 382.285,-600.132"/>
<text text-anchor="middle" x="602" y="-502" font-family="Helvetica,sans-Serif" font-size="10.00"> m_reference_count</text>
</g>
<!-- Node10&#45;&gt;Node29 -->
<g id="edge47" class="edge"><title>Node10&#45;&gt;Node29</title>
<path fill="none" stroke="#9a32cd" stroke-dasharray="5,2" d="M426.198,-624C465.858,-624 514.741,-624 550.72,-624"/>
<polygon fill="#9a32cd" stroke="#9a32cd" points="426.066,-620.5 416.066,-624 426.066,-627.5 426.066,-620.5"/>
<text text-anchor="middle" x="472.5" y="-627" font-family="Helvetica,sans-Serif" font-size="10.00"> free_blocks_size</text>
</g>
<!-- Node11 -->
<g id="node11" class="node"><title>Node11</title>
<g id="a_node11"><a xlink:href="structstxxl_1_1choose__int__types.html" target="_top" xlink:title="stxxl::choose_int_types\l\&lt; PtrSize \&gt;">
<polygon fill="none" stroke="black" points="17,-609 17,-639 137,-639 137,-609 17,-609"/>
<text text-anchor="start" x="25" y="-627" font-family="Helvetica,sans-Serif" font-size="10.00">stxxl::choose_int_types</text>
<text text-anchor="middle" x="77" y="-616" font-family="Helvetica,sans-Serif" font-size="10.00">&lt; PtrSize &gt;</text>
</a>
</g>
</g>
<!-- Node11&#45;&gt;Node10 -->
<g id="edge14" class="edge"><title>Node11&#45;&gt;Node10</title>
<path fill="none" stroke="orange" stroke-dasharray="5,2" d="M147.195,-624C192.837,-624 252.008,-624 295.53,-624"/>
<polygon fill="orange" stroke="orange" points="147.084,-620.5 137.084,-624 147.084,-627.5 147.084,-620.5"/>
<text text-anchor="middle" x="225" y="-627" font-family="Helvetica,sans-Serif" font-size="10.00"> &lt; my_pointer_size &gt;</text>
</g>
<!-- Node12&#45;&gt;Node4 -->
<g id="edge15" class="edge"><title>Node12&#45;&gt;Node4</title>
<path fill="none" stroke="#9a32cd" stroke-dasharray="5,2" d="M1348.35,-323.117C1380.86,-320 1420.42,-316.206 1451.79,-313.198"/>
<polygon fill="#9a32cd" stroke="#9a32cd" points="1347.69,-319.664 1338.07,-324.103 1348.36,-326.632 1347.69,-319.664"/>
<text text-anchor="middle" x="1390.5" y="-326" font-family="Helvetica,sans-Serif" font-size="10.00"> disk_allocators</text>
</g>
<!-- Node13 -->
<g id="node13" class="node"><title>Node13</title>
<g id="a_node13"><a xlink:href="classstxxl_1_1typed__block.html" target="_top" xlink:title="Block containing elements of fixed length. ">
<polygon fill="none" stroke="black" points="3164,-275.5 3164,-316.5 3289,-316.5 3289,-275.5 3164,-275.5"/>
<text text-anchor="start" x="3172" y="-304.5" font-family="Helvetica,sans-Serif" font-size="10.00">stxxl::typed_block</text>
<text text-anchor="start" x="3172" y="-293.5" font-family="Helvetica,sans-Serif" font-size="10.00">&lt; RawSize, Type, NRef,</text>
<text text-anchor="middle" x="3226.5" y="-282.5" font-family="Helvetica,sans-Serif" font-size="10.00"> MetaInfoType &gt;</text>
</a>
</g>
</g>
<!-- Node13&#45;&gt;Node1 -->
<g id="edge56" class="edge"><title>Node13&#45;&gt;Node1</title>
<path fill="none" stroke="#9a32cd" stroke-dasharray="5,2" d="M3299.11,-300.353C3391.53,-305.972 3551.63,-315.704 3645.78,-321.428"/>
<polygon fill="#9a32cd" stroke="#9a32cd" points="3299.2,-296.852 3289,-299.739 3298.77,-303.839 3299.2,-296.852"/>
<text text-anchor="middle" x="3470.5" y="-319" font-family="Helvetica,sans-Serif" font-size="10.00"> m_current_block</text>
</g>
<!-- Node13&#45;&gt;Node2 -->
<g id="edge20" class="edge"><title>Node13&#45;&gt;Node2</title>
<path fill="none" stroke="#9a32cd" stroke-dasharray="5,2" d="M3299.09,-308.653C3322.74,-313.931 3348.89,-320.976 3372,-330 3399.15,-340.606 3427.96,-357.665 3447.16,-369.975"/>
<polygon fill="#9a32cd" stroke="#9a32cd" points="3299.64,-305.191 3289.12,-306.499 3298.16,-312.033 3299.64,-305.191"/>
<text text-anchor="middle" x="3339.5" y="-344" font-family="Helvetica,sans-Serif" font-size="10.00"> m_front_block</text>
<text text-anchor="middle" x="3339.5" y="-333" font-family="Helvetica,sans-Serif" font-size="10.00">m_back_block</text>
</g>
<!-- Node14 -->
<g id="node14" class="node"><title>Node14</title>
<g id="a_node14"><a xlink:href="classstxxl_1_1mng__local_1_1expand__struct.html" target="_top" xlink:title="stxxl::mng_local::expand\l_struct\&lt; mng_local::block\l_w_info\&lt; Type, RawSize, NRef,\l MetaInfoType \&gt;, RawSize \&gt;">
<polygon fill="none" stroke="black" points="2968,-146 2968,-198 3127,-198 3127,-146 2968,-146"/>
<text text-anchor="start" x="2976" y="-186" font-family="Helvetica,sans-Serif" font-size="10.00">stxxl::mng_local::expand</text>
<text text-anchor="start" x="2976" y="-175" font-family="Helvetica,sans-Serif" font-size="10.00">_struct&lt; mng_local::block</text>
<text text-anchor="start" x="2976" y="-164" font-family="Helvetica,sans-Serif" font-size="10.00">_w_info&lt; Type, RawSize, NRef,</text>
<text text-anchor="middle" x="3047.5" y="-153" font-family="Helvetica,sans-Serif" font-size="10.00"> MetaInfoType &gt;, RawSize &gt;</text>
</a>
</g>
</g>
<!-- Node14&#45;&gt;Node13 -->
<g id="edge21" class="edge"><title>Node14&#45;&gt;Node13</title>
<path fill="none" stroke="midnightblue" d="M3094.4,-204.155C3126.53,-226.666 3168.51,-256.072 3196.2,-275.472"/>
<polygon fill="midnightblue" stroke="midnightblue" points="3096.24,-201.168 3086.04,-198.297 3092.22,-206.902 3096.24,-201.168"/>
</g>
<!-- Node15 -->
<g id="node15" class="node"><title>Node15</title>
<g id="a_node15"><a xlink:href="classstxxl_1_1mng__local_1_1add__filler.html" target="_top" xlink:title="stxxl::mng_local::add\l_filler\&lt; mng_local::block\l_w_info\&lt; Type, RawSize,\l NRef, MetaInfoType \&gt;, RawSize\l&#45;sizeof(mng_local::block_w_info\l\&lt; Type, RawSize, NRef, MetaInfoType \&gt;)\&gt;">
<polygon fill="none" stroke="black" points="2612,-135 2612,-209 2818,-209 2818,-135 2612,-135"/>
<text text-anchor="start" x="2620" y="-197" font-family="Helvetica,sans-Serif" font-size="10.00">stxxl::mng_local::add</text>
<text text-anchor="start" x="2620" y="-186" font-family="Helvetica,sans-Serif" font-size="10.00">_filler&lt; mng_local::block</text>
<text text-anchor="start" x="2620" y="-175" font-family="Helvetica,sans-Serif" font-size="10.00">_w_info&lt; Type, RawSize,</text>
<text text-anchor="start" x="2620" y="-164" font-family="Helvetica,sans-Serif" font-size="10.00"> NRef, MetaInfoType &gt;, RawSize</text>
<text text-anchor="start" x="2620" y="-153" font-family="Helvetica,sans-Serif" font-size="10.00">&#45;sizeof(mng_local::block_w_info</text>
<text text-anchor="middle" x="2715" y="-142" font-family="Helvetica,sans-Serif" font-size="10.00">&lt; Type, RawSize, NRef, MetaInfoType &gt;)&gt;</text>
</a>
</g>
</g>
<!-- Node15&#45;&gt;Node14 -->
<g id="edge22" class="edge"><title>Node15&#45;&gt;Node14</title>
<path fill="none" stroke="midnightblue" d="M2828.58,-172C2874.35,-172 2926.14,-172 2967.75,-172"/>
<polygon fill="midnightblue" stroke="midnightblue" points="2828.31,-168.5 2818.31,-172 2828.31,-175.5 2828.31,-168.5"/>
</g>
<!-- Node16 -->
<g id="node16" class="node"><title>Node16</title>
<g id="a_node16"><a xlink:href="classstxxl_1_1mng__local_1_1block__w__info.html" target="_top" xlink:title="stxxl::mng_local::block\l_w_info\&lt; Type, RawSize,\l NRef, MetaInfoType \&gt;">
<polygon fill="none" stroke="black" points="2438.5,-200.5 2438.5,-241.5 2568.5,-241.5 2568.5,-200.5 2438.5,-200.5"/>
<text text-anchor="start" x="2446.5" y="-229.5" font-family="Helvetica,sans-Serif" font-size="10.00">stxxl::mng_local::block</text>
<text text-anchor="start" x="2446.5" y="-218.5" font-family="Helvetica,sans-Serif" font-size="10.00">_w_info&lt; Type, RawSize,</text>
<text text-anchor="middle" x="2503.5" y="-207.5" font-family="Helvetica,sans-Serif" font-size="10.00"> NRef, MetaInfoType &gt;</text>
</a>
</g>
</g>
<!-- Node16&#45;&gt;Node15 -->
<g id="edge23" class="edge"><title>Node16&#45;&gt;Node15</title>
<path fill="none" stroke="midnightblue" d="M2578.83,-203.615C2589.47,-201.126 2600.58,-198.529 2611.64,-195.941"/>
<polygon fill="midnightblue" stroke="midnightblue" points="2577.72,-200.28 2568.78,-205.965 2579.31,-207.096 2577.72,-200.28"/>
</g>
<!-- Node17 -->
<g id="node17" class="node"><title>Node17</title>
<g id="a_node17"><a xlink:href="classstxxl_1_1mng__local_1_1block__w__bids.html" target="_top" xlink:title="stxxl::mng_local::block\l_w_bids\&lt; Type,((RawSize\l&#45;sizeof(BID\&lt; RawSize \&gt;)*NBids\l&#45;sizeof(MetaInfoType))/sizeof\l(Type)), RawSize, NBids \&gt;">
<polygon fill="none" stroke="black" points="1928,-189.5 1928,-252.5 2086,-252.5 2086,-189.5 1928,-189.5"/>
<text text-anchor="start" x="1936" y="-240.5" font-family="Helvetica,sans-Serif" font-size="10.00">stxxl::mng_local::block</text>
<text text-anchor="start" x="1936" y="-229.5" font-family="Helvetica,sans-Serif" font-size="10.00">_w_bids&lt; Type,((RawSize</text>
<text text-anchor="start" x="1936" y="-218.5" font-family="Helvetica,sans-Serif" font-size="10.00">&#45;sizeof(BID&lt; RawSize &gt;)*NBids</text>
<text text-anchor="start" x="1936" y="-207.5" font-family="Helvetica,sans-Serif" font-size="10.00">&#45;sizeof(MetaInfoType))/sizeof</text>
<text text-anchor="middle" x="2007" y="-196.5" font-family="Helvetica,sans-Serif" font-size="10.00">(Type)), RawSize, NBids &gt;</text>
</a>
</g>
</g>
<!-- Node17&#45;&gt;Node16 -->
<g id="edge24" class="edge"><title>Node17&#45;&gt;Node16</title>
<path fill="none" stroke="midnightblue" d="M2096.5,-243.425C2112.23,-246.577 2128.52,-249.313 2144,-251 2263.31,-264.003 2295.49,-265.913 2414,-247 2422.38,-245.662 2431.09,-243.764 2439.62,-241.595"/>
<polygon fill="midnightblue" stroke="midnightblue" points="2096.77,-239.906 2086.27,-241.302 2095.35,-246.76 2096.77,-239.906"/>
</g>
<!-- Node22 -->
<g id="node22" class="node"><title>Node22</title>
<g id="a_node22"><a xlink:href="classstxxl_1_1mng__local_1_1block__w__info.html" target="_top" xlink:title="Contains per block information for stxxl::typed_block , not intended for direct use. ">
<polygon fill="none" stroke="black" points="2149,-200.5 2149,-241.5 2279,-241.5 2279,-200.5 2149,-200.5"/>
<text text-anchor="start" x="2157" y="-229.5" font-family="Helvetica,sans-Serif" font-size="10.00">stxxl::mng_local::block</text>
<text text-anchor="start" x="2157" y="-218.5" font-family="Helvetica,sans-Serif" font-size="10.00">_w_info&lt; Type, RawSize,</text>
<text text-anchor="middle" x="2214" y="-207.5" font-family="Helvetica,sans-Serif" font-size="10.00"> NBids, MetaInfoType &gt;</text>
</a>
</g>
</g>
<!-- Node17&#45;&gt;Node22 -->
<g id="edge34" class="edge"><title>Node17&#45;&gt;Node22</title>
<path fill="none" stroke="midnightblue" d="M2096.38,-221C2113.99,-221 2132.17,-221 2148.79,-221"/>
<polygon fill="midnightblue" stroke="midnightblue" points="2096.09,-217.5 2086.09,-221 2096.09,-224.5 2096.09,-217.5"/>
</g>
<!-- Node18 -->
<g id="node18" class="node"><title>Node18</title>
<g id="a_node18"><a xlink:href="classstxxl_1_1mng__local_1_1element__block.html" target="_top" xlink:title="Contains data elements for stxxl::typed_block , not intended for direct use. ">
<polygon fill="none" stroke="black" points="1443,-172 1443,-202 1571,-202 1571,-172 1443,-172"/>
<text text-anchor="start" x="1451" y="-190" font-family="Helvetica,sans-Serif" font-size="10.00">stxxl::mng_local::element</text>
<text text-anchor="middle" x="1507" y="-179" font-family="Helvetica,sans-Serif" font-size="10.00">_block&lt; Type, Size &gt;</text>
</a>
</g>
</g>
<!-- Node18&#45;&gt;Node17 -->
<g id="edge25" class="edge"><title>Node18&#45;&gt;Node17</title>
<path fill="none" stroke="midnightblue" d="M1581.47,-194.486C1594.94,-195.746 1608.89,-196.975 1622,-198 1727.87,-206.275 1850.36,-213.144 1927.98,-217.16"/>
<polygon fill="midnightblue" stroke="midnightblue" points="1581.56,-190.979 1571.28,-193.519 1580.9,-197.948 1581.56,-190.979"/>
</g>
<!-- Node21 -->
<g id="node21" class="node"><title>Node21</title>
<g id="a_node21"><a xlink:href="classstxxl_1_1mng__local_1_1block__w__bids.html" target="_top" xlink:title="Contains BID references for stxxl::typed_block , not intended for direct use. ">
<polygon fill="none" stroke="black" points="1622,-147.5 1622,-188.5 1780,-188.5 1780,-147.5 1622,-147.5"/>
<text text-anchor="start" x="1630" y="-176.5" font-family="Helvetica,sans-Serif" font-size="10.00">stxxl::mng_local::block</text>
<text text-anchor="start" x="1630" y="-165.5" font-family="Helvetica,sans-Serif" font-size="10.00">_w_bids&lt; Type, Size, RawSize,</text>
<text text-anchor="middle" x="1701" y="-154.5" font-family="Helvetica,sans-Serif" font-size="10.00"> NBids &gt;</text>
</a>
</g>
</g>
<!-- Node18&#45;&gt;Node21 -->
<g id="edge31" class="edge"><title>Node18&#45;&gt;Node21</title>
<path fill="none" stroke="midnightblue" d="M1581.15,-179.761C1594.43,-178.447 1608.32,-177.072 1621.74,-175.745"/>
<polygon fill="midnightblue" stroke="midnightblue" points="1580.74,-176.285 1571.13,-180.752 1581.43,-183.25 1580.74,-176.285"/>
</g>
<!-- Node19&#45;&gt;Node17 -->
<g id="edge26" class="edge"><title>Node19&#45;&gt;Node17</title>
<path fill="none" stroke="#9a32cd" stroke-dasharray="5,2" d="M1576.76,-242.493C1656.86,-241.543 1793.15,-238.819 1910,-231 1915.85,-230.608 1921.9,-230.137 1927.98,-229.615"/>
<polygon fill="#9a32cd" stroke="#9a32cd" points="1576.28,-238.998 1566.32,-242.61 1576.36,-245.997 1576.28,-238.998"/>
<text text-anchor="middle" x="1701" y="-245" font-family="Helvetica,sans-Serif" font-size="10.00"> ref</text>
</g>
<!-- Node19&#45;&gt;Node21 -->
<g id="edge32" class="edge"><title>Node19&#45;&gt;Node21</title>
<path fill="none" stroke="#9a32cd" stroke-dasharray="5,2" d="M1542.04,-229.701C1571.17,-218.322 1613.59,-201.754 1647.13,-188.651"/>
<polygon fill="#9a32cd" stroke="#9a32cd" points="1540.75,-226.45 1532.71,-233.349 1543.3,-232.97 1540.75,-226.45"/>
<text text-anchor="middle" x="1596.5" y="-213" font-family="Helvetica,sans-Serif" font-size="10.00"> ref</text>
</g>
<!-- Node20&#45;&gt;Node19 -->
<g id="edge28" class="edge"><title>Node20&#45;&gt;Node19</title>
<path fill="none" stroke="orange" stroke-dasharray="5,2" d="M1345.48,-151.935C1371.93,-151.712 1402.29,-155.917 1425,-172 1440.58,-183.032 1429.76,-197.25 1443,-211 1452.53,-220.896 1465.78,-228.258 1477.67,-233.409"/>
<polygon fill="orange" stroke="orange" points="1345.06,-148.446 1335.17,-152.241 1345.27,-155.443 1345.06,-148.446"/>
<text text-anchor="middle" x="1390.5" y="-175" font-family="Helvetica,sans-Serif" font-size="10.00"> &lt; raw_size &gt;</text>
</g>
<!-- Node21&#45;&gt;Node17 -->
<g id="edge30" class="edge"><title>Node21&#45;&gt;Node17</title>
<path fill="none" stroke="orange" stroke-dasharray="5,2" d="M1780.05,-145.439C1819.85,-137.668 1868.48,-134.008 1910,-148 1934.6,-156.292 1957.9,-173.678 1975.37,-189.403"/>
<polygon fill="orange" stroke="orange" points="1779.21,-142.038 1770.13,-147.496 1780.64,-148.893 1779.21,-142.038"/>
<text text-anchor="start" x="1798" y="-195" font-family="Helvetica,sans-Serif" font-size="10.00"> &lt; Type,((RawSize&#45;sizeof</text>
<text text-anchor="start" x="1798" y="-184" font-family="Helvetica,sans-Serif" font-size="10.00">(BID&lt; RawSize &gt;)*NBids</text>
<text text-anchor="start" x="1798" y="-173" font-family="Helvetica,sans-Serif" font-size="10.00">&#45;sizeof(MetaInfoType))</text>
<text text-anchor="start" x="1798" y="-162" font-family="Helvetica,sans-Serif" font-size="10.00">/sizeof(Type)), RawSize,</text>
<text text-anchor="middle" x="1854" y="-151" font-family="Helvetica,sans-Serif" font-size="10.00"> NBids &gt;</text>
</g>
<!-- Node22&#45;&gt;Node16 -->
<g id="edge33" class="edge"><title>Node22&#45;&gt;Node16</title>
<path fill="none" stroke="orange" stroke-dasharray="5,2" d="M2289.38,-221C2335.43,-221 2393.97,-221 2438.04,-221"/>
<polygon fill="orange" stroke="orange" points="2289.16,-217.5 2279.16,-221 2289.16,-224.5 2289.16,-217.5"/>
<text text-anchor="start" x="2302" y="-235" font-family="Helvetica,sans-Serif" font-size="10.00"> &lt; Type, RawSize, NRef,</text>
<text text-anchor="middle" x="2358" y="-224" font-family="Helvetica,sans-Serif" font-size="10.00"> MetaInfoType &gt;</text>
</g>
<!-- Node23 -->
<g id="node23" class="node"><title>Node23</title>
<g id="a_node23"><a xlink:href="classstxxl_1_1mng__local_1_1filler__struct.html" target="_top" xlink:title="stxxl::mng_local::filler\l_struct\&lt; FillSize \&gt;">
<polygon fill="none" stroke="black" points="1951,-91 1951,-121 2063,-121 2063,-91 1951,-91"/>
<text text-anchor="start" x="1959" y="-109" font-family="Helvetica,sans-Serif" font-size="10.00">stxxl::mng_local::filler</text>
<text text-anchor="middle" x="2007" y="-98" font-family="Helvetica,sans-Serif" font-size="10.00">_struct&lt; FillSize &gt;</text>
</a>
</g>
</g>
<!-- Node23&#45;&gt;Node15 -->
<g id="edge35" class="edge"><title>Node23&#45;&gt;Node15</title>
<path fill="none" stroke="#9a32cd" stroke-dasharray="5,2" d="M2073.31,-119.79C2083.55,-121.703 2094.04,-123.517 2104,-125 2281.42,-151.421 2490.21,-163.436 2611.78,-168.555"/>
<polygon fill="#9a32cd" stroke="#9a32cd" points="2073.66,-116.293 2063.18,-117.853 2072.34,-123.169 2073.66,-116.293"/>
<text text-anchor="middle" x="2358" y="-161" font-family="Helvetica,sans-Serif" font-size="10.00"> filler</text>
</g>
<!-- Node25 -->
<g id="node25" class="node"><title>Node25</title>
<g id="a_node25"><a xlink:href="classstxxl_1_1mng__local_1_1add__filler.html" target="_top" xlink:title="Contains per block filler for stxxl::typed_block , not intended for direct use. ">
<polygon fill="none" stroke="black" points="2144,-39 2144,-69 2284,-69 2284,-39 2144,-39"/>
<text text-anchor="start" x="2152" y="-57" font-family="Helvetica,sans-Serif" font-size="10.00">stxxl::mng_local::add</text>
<text text-anchor="middle" x="2214" y="-46" font-family="Helvetica,sans-Serif" font-size="10.00">_filler&lt; BaseType, FillSize &gt;</text>
</a>
</g>
</g>
<!-- Node23&#45;&gt;Node25 -->
<g id="edge38" class="edge"><title>Node23&#45;&gt;Node25</title>
<path fill="none" stroke="#9a32cd" stroke-dasharray="5,2" d="M2072.91,-88.9836C2083.3,-86.2918 2093.94,-83.5549 2104,-81 2119.49,-77.0637 2136.25,-72.8789 2151.86,-69.0086"/>
<polygon fill="#9a32cd" stroke="#9a32cd" points="2071.85,-85.6428 2063.05,-91.5432 2073.61,-92.4182 2071.85,-85.6428"/>
<text text-anchor="middle" x="2115" y="-84" font-family="Helvetica,sans-Serif" font-size="10.00"> filler</text>
</g>
<!-- Node27 -->
<g id="node27" class="node"><title>Node27</title>
<g id="a_node27"><a xlink:href="classstxxl_1_1mng__local_1_1add__filler.html" target="_top" xlink:title="stxxl::mng_local::add\l_filler\&lt; Type, RawSize\l&#45;sizeof(Type)\&gt;">
<polygon fill="none" stroke="black" points="2445.5,-0.5 2445.5,-41.5 2561.5,-41.5 2561.5,-0.5 2445.5,-0.5"/>
<text text-anchor="start" x="2453.5" y="-29.5" font-family="Helvetica,sans-Serif" font-size="10.00">stxxl::mng_local::add</text>
<text text-anchor="start" x="2453.5" y="-18.5" font-family="Helvetica,sans-Serif" font-size="10.00">_filler&lt; Type, RawSize</text>
<text text-anchor="middle" x="2503.5" y="-7.5" font-family="Helvetica,sans-Serif" font-size="10.00">&#45;sizeof(Type)&gt;</text>
</a>
</g>
</g>
<!-- Node23&#45;&gt;Node27 -->
<g id="edge41" class="edge"><title>Node23&#45;&gt;Node27</title>
<path fill="none" stroke="#9a32cd" stroke-dasharray="5,2" d="M2073.18,-109.546C2155.18,-111.857 2299.14,-108.716 2414,-68 2423.06,-64.7876 2423.68,-60.8141 2432,-56 2440.52,-51.0738 2449.82,-46.15 2458.79,-41.6169"/>
<polygon fill="#9a32cd" stroke="#9a32cd" points="2073.12,-106.042 2063.01,-109.222 2072.89,-113.039 2073.12,-106.042"/>
<text text-anchor="middle" x="2214" y="-113" font-family="Helvetica,sans-Serif" font-size="10.00"> filler</text>
</g>
<!-- Node24 -->
<g id="node24" class="node"><title>Node24</title>
<g id="a_node24"><a xlink:href="classstxxl_1_1mng__local_1_1filler__struct.html" target="_top" xlink:title="stxxl::mng_local::filler\l_struct\&lt; Bytes \&gt;">
<polygon fill="none" stroke="black" points="1645,-91 1645,-121 1757,-121 1757,-91 1645,-91"/>
<text text-anchor="start" x="1653" y="-109" font-family="Helvetica,sans-Serif" font-size="10.00">stxxl::mng_local::filler</text>
<text text-anchor="middle" x="1701" y="-98" font-family="Helvetica,sans-Serif" font-size="10.00">_struct&lt; Bytes &gt;</text>
</a>
</g>
</g>
<!-- Node24&#45;&gt;Node23 -->
<g id="edge36" class="edge"><title>Node24&#45;&gt;Node23</title>
<path fill="none" stroke="orange" stroke-dasharray="5,2" d="M1767.33,-106C1822.03,-106 1899.21,-106 1950.84,-106"/>
<polygon fill="orange" stroke="orange" points="1767.05,-102.5 1757.05,-106 1767.05,-109.5 1767.05,-102.5"/>
<text text-anchor="middle" x="1854" y="-109" font-family="Helvetica,sans-Serif" font-size="10.00"> &lt; FillSize &gt;</text>
</g>
<!-- Node25&#45;&gt;Node15 -->
<g id="edge37" class="edge"><title>Node25&#45;&gt;Node15</title>
<path fill="none" stroke="orange" stroke-dasharray="5,2" d="M2294.36,-63.1622C2296.93,-63.4468 2299.49,-63.7267 2302,-64 2423.25,-77.1864 2458.93,-54.5339 2575,-92 2605.47,-101.836 2636.62,-118.978 2661.68,-134.878"/>
<polygon fill="orange" stroke="orange" points="2294.65,-59.6733 2284.32,-62.0456 2293.87,-66.6304 2294.65,-59.6733"/>
<text text-anchor="start" x="2432" y="-150" font-family="Helvetica,sans-Serif" font-size="10.00"> &lt; mng_local::block</text>
<text text-anchor="start" x="2432" y="-139" font-family="Helvetica,sans-Serif" font-size="10.00">_w_info&lt; Type, RawSize,</text>
<text text-anchor="start" x="2432" y="-128" font-family="Helvetica,sans-Serif" font-size="10.00"> NRef, MetaInfoType &gt;,</text>
<text text-anchor="start" x="2432" y="-117" font-family="Helvetica,sans-Serif" font-size="10.00"> RawSize&#45;sizeof(mng_local</text>
<text text-anchor="start" x="2432" y="-106" font-family="Helvetica,sans-Serif" font-size="10.00">::block_w_info&lt; Type, RawSize,</text>
<text text-anchor="middle" x="2503.5" y="-95" font-family="Helvetica,sans-Serif" font-size="10.00"> NRef, MetaInfoType &gt;)&gt;</text>
</g>
<!-- Node25&#45;&gt;Node27 -->
<g id="edge42" class="edge"><title>Node25&#45;&gt;Node27</title>
<path fill="none" stroke="orange" stroke-dasharray="5,2" d="M2294.35,-42.9459C2296.93,-42.6214 2299.48,-42.3052 2302,-42 2350.3,-36.1417 2405.26,-30.454 2445.4,-26.4788"/>
<polygon fill="orange" stroke="orange" points="2293.78,-39.4898 2284.31,-44.2325 2294.67,-46.4331 2293.78,-39.4898"/>
<text text-anchor="start" x="2303.5" y="-56" font-family="Helvetica,sans-Serif" font-size="10.00"> &lt; Type, RawSize&#45;sizeof</text>
<text text-anchor="middle" x="2358" y="-45" font-family="Helvetica,sans-Serif" font-size="10.00">(Type)&gt;</text>
</g>
<!-- Node26 -->
<g id="node26" class="node"><title>Node26</title>
<g id="a_node26"><a xlink:href="classstxxl_1_1mng__local_1_1expand__struct.html" target="_top" xlink:title="Helper to compute the size of the filler , not intended for direct use. ">
<polygon fill="none" stroke="black" points="2649,-54 2649,-84 2781,-84 2781,-54 2649,-54"/>
<text text-anchor="start" x="2657" y="-72" font-family="Helvetica,sans-Serif" font-size="10.00">stxxl::mng_local::expand</text>
<text text-anchor="middle" x="2715" y="-61" font-family="Helvetica,sans-Serif" font-size="10.00">_struct&lt; Type, RawSize &gt;</text>
</a>
</g>
</g>
<!-- Node26&#45;&gt;Node14 -->
<g id="edge39" class="edge"><title>Node26&#45;&gt;Node14</title>
<path fill="none" stroke="orange" stroke-dasharray="5,2" d="M2791.23,-82.0905C2837.75,-91.3053 2898.25,-105.332 2950,-124 2966.55,-129.969 2983.95,-138.026 2999.35,-145.833"/>
<polygon fill="orange" stroke="orange" points="2791.71,-78.6182 2781.22,-80.1398 2790.37,-85.4888 2791.71,-78.6182"/>
<text text-anchor="start" x="2836" y="-160" font-family="Helvetica,sans-Serif" font-size="10.00"> &lt; mng_local::block</text>
<text text-anchor="start" x="2836" y="-149" font-family="Helvetica,sans-Serif" font-size="10.00">_w_info&lt; Type, RawSize,</text>
<text text-anchor="start" x="2836" y="-138" font-family="Helvetica,sans-Serif" font-size="10.00"> NRef, MetaInfoType &gt;,</text>
<text text-anchor="middle" x="2893" y="-127" font-family="Helvetica,sans-Serif" font-size="10.00"> RawSize &gt;</text>
</g>
<!-- Node27&#45;&gt;Node26 -->
<g id="edge40" class="edge"><title>Node27&#45;&gt;Node26</title>
<path fill="none" stroke="midnightblue" d="M2571.73,-36.4043C2596.38,-42.0503 2624.21,-48.4276 2648.68,-54.0346"/>
<polygon fill="midnightblue" stroke="midnightblue" points="2572.28,-32.938 2561.75,-34.1162 2570.71,-39.7612 2572.28,-32.938"/>
</g>
<!-- Node28&#45;&gt;Node2 -->
<g id="edge43" class="edge"><title>Node28&#45;&gt;Node2</title>
<path fill="none" stroke="#9a32cd" stroke-dasharray="5,2" d="M1172.4,-497.063C1205.84,-489.82 1247.33,-483 1285,-483 1285,-483 1285,-483 3227.5,-483 3314.76,-483 3407.62,-427.588 3448.32,-400.098"/>
<polygon fill="#9a32cd" stroke="#9a32cd" points="1171.29,-493.724 1162.29,-499.317 1172.81,-500.556 1171.29,-493.724"/>
<text text-anchor="middle" x="2214" y="-486" font-family="Helvetica,sans-Serif" font-size="10.00"> m_pool</text>
</g>
<!-- Node29&#45;&gt;Node28 -->
<g id="edge45" class="edge"><title>Node29&#45;&gt;Node28</title>
<path fill="none" stroke="#9a32cd" stroke-dasharray="5,2" d="M663.231,-626.506C749.4,-627.681 910.824,-620.789 1032,-562 1050.97,-552.797 1070.86,-539.437 1085.08,-529.147"/>
<polygon fill="#9a32cd" stroke="#9a32cd" points="663.164,-623.004 653.103,-626.325 663.039,-630.003 663.164,-623.004"/>
<text text-anchor="middle" x="887.5" y="-620" font-family="Helvetica,sans-Serif" font-size="10.00"> p_pool</text>
</g>
<!-- Node29&#45;&gt;Node33 -->
<g id="edge54" class="edge"><title>Node29&#45;&gt;Node33</title>
<path fill="none" stroke="#9a32cd" stroke-dasharray="5,2" d="M663.142,-612.642C719.625,-601.95 797.566,-587.123 812,-584 818.243,-582.649 824.763,-581.172 831.238,-579.664"/>
<polygon fill="#9a32cd" stroke="#9a32cd" points="662.394,-609.221 653.219,-614.52 663.695,-616.099 662.394,-609.221"/>
<text text-anchor="middle" x="752.5" y="-608" font-family="Helvetica,sans-Serif" font-size="10.00"> p_pool</text>
</g>
<!-- Node30 -->
<g id="node30" class="node"><title>Node30</title>
<g id="a_node30"><a xlink:href="structstxxl_1_1compat__hash__map.html" target="_top" xlink:title="stxxl::compat_hash\l_map\&lt; bid_type, busy\l_entry, bid_hash \&gt;">
<polygon fill="none" stroke="black" points="299.5,-681.5 299.5,-722.5 412.5,-722.5 412.5,-681.5 299.5,-681.5"/>
<text text-anchor="start" x="307.5" y="-710.5" font-family="Helvetica,sans-Serif" font-size="10.00">stxxl::compat_hash</text>
<text text-anchor="start" x="307.5" y="-699.5" font-family="Helvetica,sans-Serif" font-size="10.00">_map&lt; bid_type, busy</text>
<text text-anchor="middle" x="356" y="-688.5" font-family="Helvetica,sans-Serif" font-size="10.00">_entry, bid_hash &gt;</text>
</a>
</g>
</g>
<!-- Node30&#45;&gt;Node29 -->
<g id="edge48" class="edge"><title>Node30&#45;&gt;Node29</title>
<path fill="none" stroke="#9a32cd" stroke-dasharray="5,2" d="M422.405,-681.092C463.822,-667.852 516.418,-651.038 553.781,-639.095"/>
<polygon fill="#9a32cd" stroke="#9a32cd" points="421.132,-677.824 412.673,-684.203 423.264,-684.492 421.132,-677.824"/>
<text text-anchor="middle" x="472.5" y="-679" font-family="Helvetica,sans-Serif" font-size="10.00"> busy_blocks</text>
</g>
<!-- Node31 -->
<g id="node31" class="node"><title>Node31</title>
<g id="a_node31"><a xlink:href="structstxxl_1_1compat__hash__map.html" target="_top" xlink:title="stxxl::compat_hash\l_map\&lt; KeyType, MappedType,\l HashType \&gt;">
<polygon fill="none" stroke="black" points="0,-681.5 0,-722.5 154,-722.5 154,-681.5 0,-681.5"/>
<text text-anchor="start" x="8" y="-710.5" font-family="Helvetica,sans-Serif" font-size="10.00">stxxl::compat_hash</text>
<text text-anchor="start" x="8" y="-699.5" font-family="Helvetica,sans-Serif" font-size="10.00">_map&lt; KeyType, MappedType,</text>
<text text-anchor="middle" x="77" y="-688.5" font-family="Helvetica,sans-Serif" font-size="10.00"> HashType &gt;</text>
</a>
</g>
</g>
<!-- Node31&#45;&gt;Node30 -->
<g id="edge49" class="edge"><title>Node31&#45;&gt;Node30</title>
<path fill="none" stroke="orange" stroke-dasharray="5,2" d="M164.195,-702C208.263,-702 260.612,-702 299.32,-702"/>
<polygon fill="orange" stroke="orange" points="164.058,-698.5 154.058,-702 164.058,-705.5 164.058,-698.5"/>
<text text-anchor="start" x="172" y="-716" font-family="Helvetica,sans-Serif" font-size="10.00"> &lt; bid_type, busy_entry,</text>
<text text-anchor="middle" x="225" y="-705" font-family="Helvetica,sans-Serif" font-size="10.00"> bid_hash &gt;</text>
</g>
<!-- Node32&#45;&gt;Node28 -->
<g id="edge50" class="edge"><title>Node32&#45;&gt;Node28</title>
<path fill="none" stroke="#9a32cd" stroke-dasharray="5,2" d="M659.524,-531.748C756.54,-527.883 953.568,-520.033 1049.72,-516.202"/>
<polygon fill="#9a32cd" stroke="#9a32cd" points="659.18,-528.259 649.327,-532.154 659.459,-535.253 659.18,-528.259"/>
<text text-anchor="middle" x="887.5" y="-527" font-family="Helvetica,sans-Serif" font-size="10.00"> w_pool</text>
</g>
<!-- Node32&#45;&gt;Node33 -->
<g id="edge55" class="edge"><title>Node32&#45;&gt;Node33</title>
<path fill="none" stroke="#9a32cd" stroke-dasharray="5,2" d="M659.406,-535.182C701.629,-536.694 760.693,-540.142 812,-548 818.313,-548.967 824.878,-550.204 831.379,-551.576"/>
<polygon fill="#9a32cd" stroke="#9a32cd" points="659.431,-531.681 649.32,-534.846 659.198,-538.677 659.431,-531.681"/>
<text text-anchor="middle" x="752.5" y="-551" font-family="Helvetica,sans-Serif" font-size="10.00"> w_pool</text>
</g>
<!-- Node33&#45;&gt;Node28 -->
<g id="edge52" class="edge"><title>Node33&#45;&gt;Node28</title>
<path fill="none" stroke="orange" stroke-dasharray="5,2" d="M953.463,-550.397C984.209,-543.012 1020.53,-534.288 1049.91,-527.232"/>
<polygon fill="orange" stroke="orange" points="952.598,-547.005 943.692,-552.744 954.233,-553.811 952.598,-547.005"/>
<text text-anchor="middle" x="997.5" y="-550" font-family="Helvetica,sans-Serif" font-size="10.00"> &lt; block_type &gt;</text>
</g>
</g>
</svg>
