<?xml version="1.0" encoding="UTF-8" standalone="no"?>
<!DOCTYPE svg PUBLIC "-//W3C//DTD SVG 1.1//EN"
 "http://www.w3.org/Graphics/SVG/1.1/DTD/svg11.dtd">
<!-- Generated by graphviz version 2.26.3 (20100126.1600)
 -->
<!-- Title: stxxl::vector_bufreader_reverse&lt; VectorIteratorType &gt; Pages: 1 -->
<svg width="1492pt" height="442pt"
 viewBox="0.00 0.00 1492.00 442.00" xmlns="http://www.w3.org/2000/svg" xmlns:xlink="http://www.w3.org/1999/xlink">
<g id="graph1" class="graph" transform="scale(1 1) rotate(0) translate(4 438)">
<title>stxxl::vector_bufreader_reverse&lt; VectorIteratorType &gt;</title>
<!-- Node1 -->
<g id="node1" class="node"><title>Node1</title>
<polygon fill="#bfbfbf" stroke="black" points="1330.5,-379 1330.5,-413 1483.5,-413 1483.5,-379 1330.5,-379"/>
<text text-anchor="start" x="1338.5" y="-400" font-family="Helvetica,sans-Serif" font-size="10.00">stxxl::vector_bufreader</text>
<text text-anchor="middle" x="1407" y="-387" font-family="Helvetica,sans-Serif" font-size="10.00">_reverse&lt; VectorIteratorType &gt;</text>
</g>
<!-- Node2 -->
<g id="node2" class="node"><title>Node2</title>
<a xlink:href="classstxxl_1_1noncopyable.html" target="_top" xlink:title="stxxl::noncopyable">
<polygon fill="none" stroke="black" points="0,-133.5 0,-154.5 98,-154.5 98,-133.5 0,-133.5"/>
<text text-anchor="middle" x="49" y="-141.5" font-family="Helvetica,sans-Serif" font-size="10.00">stxxl::noncopyable</text>
</a>
</g>
<!-- Node2&#45;&gt;Node1 -->
<g id="edge2" class="edge"><title>Node2&#45;&gt;Node1</title>
<path fill="none" stroke="midnightblue" d="M49.8697,-164.751C53.8645,-231.136 75.973,-434 197,-434 197,-434 197,-434 1199,-434 1249.11,-434 1304.92,-423.196 1346.1,-413.11"/>
<polygon fill="midnightblue" stroke="midnightblue" points="53.3599,-164.469 49.3427,-154.665 46.3694,-164.834 53.3599,-164.469"/>
</g>
<!-- Node5 -->
<g id="node8" class="node"><title>Node5</title>
<a xlink:href="classstxxl_1_1buf__istream__reverse.html" target="_top" xlink:title="Buffered input stream, reading the items in the blocks in reverse order. ">
<polygon fill="none" stroke="black" points="1142.5,-216.5 1142.5,-263.5 1255.5,-263.5 1255.5,-216.5 1142.5,-216.5"/>
<text text-anchor="start" x="1150.5" y="-250.5" font-family="Helvetica,sans-Serif" font-size="10.00">stxxl::buf_istream</text>
<text text-anchor="start" x="1150.5" y="-237.5" font-family="Helvetica,sans-Serif" font-size="10.00">_reverse&lt; BlockType,</text>
<text text-anchor="middle" x="1199" y="-224.5" font-family="Helvetica,sans-Serif" font-size="10.00"> BIDIteratorType &gt;</text>
</a>
</g>
<!-- Node2&#45;&gt;Node5 -->
<g id="edge10" class="edge"><title>Node2&#45;&gt;Node5</title>
<path fill="none" stroke="#8b1a1a" d="M58.0161,-123.943C77.3367,-84.3614 126.755,-0 197,-0 197,-0 197,-0 990,-0 1103.82,-0 1169.79,-155.405 1191.22,-216.11"/>
<polygon fill="#8b1a1a" stroke="#8b1a1a" points="54.7614,-122.639 53.6609,-133.177 61.0925,-125.625 54.7614,-122.639"/>
</g>
<!-- Node6 -->
<g id="node11" class="node"><title>Node6</title>
<a xlink:href="classstxxl_1_1block__prefetcher.html" target="_top" xlink:title="Encapsulates asynchronous prefetching engine. ">
<polygon fill="none" stroke="black" points="926.5,-216.5 926.5,-263.5 1053.5,-263.5 1053.5,-216.5 926.5,-216.5"/>
<text text-anchor="start" x="934.5" y="-250.5" font-family="Helvetica,sans-Serif" font-size="10.00">stxxl::block_prefetcher</text>
<text text-anchor="start" x="934.5" y="-237.5" font-family="Helvetica,sans-Serif" font-size="10.00">&lt; block_type, bid_iterator</text>
<text text-anchor="middle" x="990" y="-224.5" font-family="Helvetica,sans-Serif" font-size="10.00">_type &gt;</text>
</a>
</g>
<!-- Node2&#45;&gt;Node6 -->
<g id="edge14" class="edge"><title>Node2&#45;&gt;Node6</title>
<path fill="none" stroke="#8b1a1a" d="M62.9018,-162.433C86.8056,-191.817 138.776,-246 197,-246 197,-246 197,-246 583,-246 704.371,-246 846.08,-243.299 926.207,-241.522"/>
<polygon fill="#8b1a1a" stroke="#8b1a1a" points="65.6079,-160.212 56.6644,-154.532 60.1136,-164.549 65.6079,-160.212"/>
</g>
<!-- Node7 -->
<g id="node15" class="node"><title>Node7</title>
<a xlink:href="classstxxl_1_1onoff__switch.html" target="_top" xlink:title="stxxl::onoff_switch">
<polygon fill="none" stroke="black" points="408.5,-175.5 408.5,-196.5 507.5,-196.5 507.5,-175.5 408.5,-175.5"/>
<text text-anchor="middle" x="458" y="-183.5" font-family="Helvetica,sans-Serif" font-size="10.00">stxxl::onoff_switch</text>
</a>
</g>
<!-- Node2&#45;&gt;Node7 -->
<g id="edge20" class="edge"><title>Node2&#45;&gt;Node7</title>
<path fill="none" stroke="#8b1a1a" d="M108.493,-141.363C175.336,-139.708 286.694,-140.897 380,-161 396.82,-164.624 415.166,-170.407 429.837,-175.499"/>
<polygon fill="#8b1a1a" stroke="#8b1a1a" points="108.056,-137.873 98.1572,-141.65 108.251,-144.871 108.056,-137.873"/>
</g>
<!-- Node8 -->
<g id="node18" class="node"><title>Node8</title>
<a xlink:href="classstxxl_1_1mutex.html" target="_top" xlink:title="stxxl::mutex">
<polygon fill="none" stroke="black" points="161.5,-196.5 161.5,-217.5 232.5,-217.5 232.5,-196.5 161.5,-196.5"/>
<text text-anchor="middle" x="197" y="-204.5" font-family="Helvetica,sans-Serif" font-size="10.00">stxxl::mutex</text>
</a>
</g>
<!-- Node2&#45;&gt;Node8 -->
<g id="edge24" class="edge"><title>Node2&#45;&gt;Node8</title>
<path fill="none" stroke="#8b1a1a" d="M77.5674,-159.402C94.3211,-168.109 116.052,-178.849 136,-187 144.253,-190.373 153.306,-193.591 161.851,-196.421"/>
<polygon fill="#8b1a1a" stroke="#8b1a1a" points="78.8093,-156.101 68.3293,-154.546 75.552,-162.297 78.8093,-156.101"/>
</g>
<!-- Node9 -->
<g id="node21" class="node"><title>Node9</title>
<a xlink:href="classstxxl_1_1condition__variable.html" target="_top" xlink:title="stxxl::condition_variable">
<polygon fill="none" stroke="black" points="136,-156.5 136,-177.5 258,-177.5 258,-156.5 136,-156.5"/>
<text text-anchor="middle" x="197" y="-164.5" font-family="Helvetica,sans-Serif" font-size="10.00">stxxl::condition_variable</text>
</a>
</g>
<!-- Node2&#45;&gt;Node9 -->
<g id="edge28" class="edge"><title>Node2&#45;&gt;Node9</title>
<path fill="none" stroke="#8b1a1a" d="M108.336,-153.221C117.383,-154.627 126.734,-156.08 135.82,-157.492"/>
<polygon fill="#8b1a1a" stroke="#8b1a1a" points="108.701,-149.736 98.2819,-151.659 107.626,-156.653 108.701,-149.736"/>
</g>
<!-- Node15 -->
<g id="node35" class="node"><title>Node15</title>
<a xlink:href="classstxxl_1_1simple__vector.html" target="_top" xlink:title="stxxl::simple_vector\l\&lt; BID\&lt; BLK_SIZE \&gt; \&gt;">
<polygon fill="none" stroke="black" points="400,-46 400,-80 516,-80 516,-46 400,-46"/>
<text text-anchor="start" x="408" y="-67" font-family="Helvetica,sans-Serif" font-size="10.00">stxxl::simple_vector</text>
<text text-anchor="middle" x="458" y="-54" font-family="Helvetica,sans-Serif" font-size="10.00">&lt; BID&lt; BLK_SIZE &gt; &gt;</text>
</a>
</g>
<!-- Node2&#45;&gt;Node15 -->
<g id="edge44" class="edge"><title>Node2&#45;&gt;Node15</title>
<path fill="none" stroke="#8b1a1a" d="M61.2181,-124.811C75.981,-103.613 102.994,-70.6715 136,-57 222.395,-21.2139 333.341,-34.7483 399.883,-48.4336"/>
<polygon fill="#8b1a1a" stroke="#8b1a1a" points="58.1545,-123.095 55.4893,-133.349 63.9674,-126.995 58.1545,-123.095"/>
</g>
<!-- Node16 -->
<g id="node38" class="node"><title>Node16</title>
<a xlink:href="classstxxl_1_1simple__vector.html" target="_top" xlink:title="Simpler non&#45;growing vector without initialization. ">
<polygon fill="none" stroke="black" points="145,-66 145,-100 249,-100 249,-66 145,-66"/>
<text text-anchor="start" x="153" y="-87" font-family="Helvetica,sans-Serif" font-size="10.00">stxxl::simple_vector</text>
<text text-anchor="middle" x="197" y="-74" font-family="Helvetica,sans-Serif" font-size="10.00">&lt; ValueType &gt;</text>
</a>
</g>
<!-- Node2&#45;&gt;Node16 -->
<g id="edge48" class="edge"><title>Node2&#45;&gt;Node16</title>
<path fill="none" stroke="#8b1a1a" d="M81.0636,-129.209C92.0809,-124.243 104.528,-118.759 116,-114 127.265,-109.326 139.511,-104.507 150.989,-100.102"/>
<polygon fill="#8b1a1a" stroke="#8b1a1a" points="79.4696,-126.089 71.8103,-133.409 82.3628,-132.463 79.4696,-126.089"/>
</g>
<!-- Node3 -->
<g id="node4" class="node"><title>Node3</title>
<a xlink:href="structstxxl_1_1choose__int__types.html" target="_top" xlink:title="stxxl::choose_int_types\l\&lt; my_pointer_size \&gt;">
<polygon fill="none" stroke="black" points="652,-346 652,-380 772,-380 772,-346 652,-346"/>
<text text-anchor="start" x="660" y="-367" font-family="Helvetica,sans-Serif" font-size="10.00">stxxl::choose_int_types</text>
<text text-anchor="middle" x="712" y="-354" font-family="Helvetica,sans-Serif" font-size="10.00">&lt; my_pointer_size &gt;</text>
</a>
</g>
<!-- Node3&#45;&gt;Node1 -->
<g id="edge4" class="edge"><title>Node3&#45;&gt;Node1</title>
<path fill="none" stroke="#9a32cd" stroke-dasharray="5,2" d="M782.649,-368.3C786.488,-368.547 790.291,-368.783 794,-369 986.749,-380.294 1213.84,-389.13 1330.03,-393.327"/>
<polygon fill="#9a32cd" stroke="#9a32cd" points="782.652,-364.793 772.442,-367.622 782.188,-371.777 782.652,-364.793"/>
<text text-anchor="middle" x="1098" y="-389" font-family="Helvetica,sans-Serif" font-size="10.00"> m_nbuffers</text>
</g>
<!-- Node3&#45;&gt;Node5 -->
<g id="edge38" class="edge"><title>Node3&#45;&gt;Node5</title>
<path fill="none" stroke="#9a32cd" stroke-dasharray="5,2" d="M782.597,-362.832C820.201,-361.524 867.023,-357.942 908,-349 995.891,-329.821 1092.75,-289.38 1149.6,-263.514"/>
<polygon fill="#9a32cd" stroke="#9a32cd" points="782.138,-359.344 772.248,-363.143 782.349,-366.341 782.138,-359.344"/>
<text text-anchor="middle" x="990" y="-348" font-family="Helvetica,sans-Serif" font-size="10.00"> current_elem</text>
</g>
<!-- Node3&#45;&gt;Node6 -->
<g id="edge16" class="edge"><title>Node3&#45;&gt;Node6</title>
<path fill="none" stroke="#9a32cd" stroke-dasharray="5,2" d="M741.694,-339.937C756.646,-329.361 775.494,-317.53 794,-310 841.876,-290.519 859.622,-305.197 908,-287 923.973,-280.992 940.501,-272.109 954.497,-263.678"/>
<polygon fill="#9a32cd" stroke="#9a32cd" points="739.41,-337.27 733.373,-345.977 743.522,-342.935 739.41,-337.27"/>
<text text-anchor="middle" x="851" y="-340" font-family="Helvetica,sans-Serif" font-size="10.00"> seq_length</text>
<text text-anchor="middle" x="851" y="-327" font-family="Helvetica,sans-Serif" font-size="10.00">nextconsume</text>
<text text-anchor="middle" x="851" y="-314" font-family="Helvetica,sans-Serif" font-size="10.00">nextread</text>
</g>
<!-- Node4 -->
<g id="node6" class="node"><title>Node4</title>
<a xlink:href="structstxxl_1_1choose__int__types.html" target="_top" xlink:title="stxxl::choose_int_types\l\&lt; PtrSize \&gt;">
<polygon fill="none" stroke="black" points="398,-346 398,-380 518,-380 518,-346 398,-346"/>
<text text-anchor="start" x="406" y="-367" font-family="Helvetica,sans-Serif" font-size="10.00">stxxl::choose_int_types</text>
<text text-anchor="middle" x="458" y="-354" font-family="Helvetica,sans-Serif" font-size="10.00">&lt; PtrSize &gt;</text>
</a>
</g>
<!-- Node4&#45;&gt;Node3 -->
<g id="edge6" class="edge"><title>Node4&#45;&gt;Node3</title>
<path fill="none" stroke="orange" stroke-dasharray="5,2" d="M528.363,-363C567.134,-363 614.763,-363 651.798,-363"/>
<polygon fill="orange" stroke="orange" points="528.194,-359.5 518.194,-363 528.194,-366.5 528.194,-359.5"/>
<text text-anchor="middle" x="583" y="-367" font-family="Helvetica,sans-Serif" font-size="10.00"> &lt; my_pointer_size &gt;</text>
</g>
<!-- Node5&#45;&gt;Node1 -->
<g id="edge8" class="edge"><title>Node5&#45;&gt;Node1</title>
<path fill="none" stroke="#9a32cd" stroke-dasharray="5,2" d="M1238.6,-269.702C1281.69,-302.018 1349.09,-352.57 1384.13,-378.845"/>
<polygon fill="#9a32cd" stroke="#9a32cd" points="1240.69,-266.893 1230.59,-263.693 1236.49,-272.493 1240.69,-266.893"/>
<text text-anchor="middle" x="1293" y="-326" font-family="Helvetica,sans-Serif" font-size="10.00"> m_bufin</text>
</g>
<!-- Node6&#45;&gt;Node5 -->
<g id="edge12" class="edge"><title>Node6&#45;&gt;Node5</title>
<path fill="none" stroke="#9a32cd" stroke-dasharray="5,2" d="M1063.7,-240C1089.58,-240 1118.23,-240 1142.48,-240"/>
<polygon fill="#9a32cd" stroke="#9a32cd" points="1063.56,-236.5 1053.56,-240 1063.56,-243.5 1063.56,-236.5"/>
<text text-anchor="middle" x="1098" y="-244" font-family="Helvetica,sans-Serif" font-size="10.00"> prefetcher</text>
</g>
<!-- Node7&#45;&gt;Node6 -->
<g id="edge18" class="edge"><title>Node7&#45;&gt;Node6</title>
<path fill="none" stroke="#9a32cd" stroke-dasharray="5,2" d="M517.892,-189.785C604.283,-195.593 768.789,-207.959 908,-226 913.872,-226.761 919.967,-227.637 926.062,-228.573"/>
<polygon fill="#9a32cd" stroke="#9a32cd" points="517.961,-186.282 507.75,-189.109 517.496,-193.266 517.961,-186.282"/>
<text text-anchor="middle" x="712" y="-214" font-family="Helvetica,sans-Serif" font-size="10.00"> completed</text>
</g>
<!-- Node8&#45;&gt;Node7 -->
<g id="edge22" class="edge"><title>Node8&#45;&gt;Node7</title>
<path fill="none" stroke="#9a32cd" stroke-dasharray="5,2" d="M242.818,-203.314C289.213,-199.581 360.741,-193.825 408.435,-189.988"/>
<polygon fill="#9a32cd" stroke="#9a32cd" points="242.431,-199.833 232.744,-204.124 242.992,-206.811 242.431,-199.833"/>
<text text-anchor="middle" x="328" y="-204" font-family="Helvetica,sans-Serif" font-size="10.00"> m_mutex</text>
</g>
<!-- Node9&#45;&gt;Node7 -->
<g id="edge26" class="edge"><title>Node9&#45;&gt;Node7</title>
<path fill="none" stroke="#9a32cd" stroke-dasharray="5,2" d="M268.441,-165.784C302.333,-165.916 343.344,-167.103 380,-171 389.736,-172.035 400.071,-173.65 409.924,-175.443"/>
<polygon fill="#9a32cd" stroke="#9a32cd" points="268.167,-162.284 258.164,-165.775 268.161,-169.284 268.167,-162.284"/>
<text text-anchor="middle" x="328" y="-175" font-family="Helvetica,sans-Serif" font-size="10.00"> m_cond</text>
</g>
<!-- Node10 -->
<g id="node24" class="node"><title>Node10</title>
<a xlink:href="classstxxl_1_1counting__ptr.html" target="_top" xlink:title="High&#45;performance smart pointer used as a wrapping reference counting pointer. ">
<polygon fill="none" stroke="black" points="663.5,-135 663.5,-169 760.5,-169 760.5,-135 663.5,-135"/>
<text text-anchor="start" x="671.5" y="-156" font-family="Helvetica,sans-Serif" font-size="10.00">stxxl::counting_ptr</text>
<text text-anchor="middle" x="712" y="-143" font-family="Helvetica,sans-Serif" font-size="10.00">&lt; Type &gt;</text>
</a>
</g>
<!-- Node10&#45;&gt;Node6 -->
<g id="edge30" class="edge"><title>Node10&#45;&gt;Node6</title>
<path fill="none" stroke="#9a32cd" stroke-dasharray="5,2" d="M771.02,-152.03C811.015,-153.899 864.331,-160.068 908,-178 929.628,-186.881 950.593,-202.908 965.91,-216.442"/>
<polygon fill="#9a32cd" stroke="#9a32cd" points="771.023,-148.527 760.894,-151.635 770.749,-155.522 771.023,-148.527"/>
<text text-anchor="middle" x="851" y="-182" font-family="Helvetica,sans-Serif" font-size="10.00"> read_reqs</text>
</g>
<!-- Node11 -->
<g id="node26" class="node"><title>Node11</title>
<a xlink:href="classstxxl_1_1completion__handler.html" target="_top" xlink:title="Completion handler class (Loki&#45;style). ">
<polygon fill="none" stroke="black" points="648,-278.5 648,-299.5 776,-299.5 776,-278.5 648,-278.5"/>
<text text-anchor="middle" x="712" y="-286.5" font-family="Helvetica,sans-Serif" font-size="10.00">stxxl::completion_handler</text>
</a>
</g>
<!-- Node11&#45;&gt;Node6 -->
<g id="edge32" class="edge"><title>Node11&#45;&gt;Node6</title>
<path fill="none" stroke="#9a32cd" stroke-dasharray="5,2" d="M779.449,-276.611C784.372,-275.722 789.263,-274.844 794,-274 838.2,-266.124 888.053,-257.479 926.419,-250.878"/>
<polygon fill="#9a32cd" stroke="#9a32cd" points="778.552,-273.216 769.336,-278.443 779.799,-280.104 778.552,-273.216"/>
<text text-anchor="middle" x="851" y="-278" font-family="Helvetica,sans-Serif" font-size="10.00"> do_after_fetch</text>
</g>
<!-- Node12 -->
<g id="node28" class="node"><title>Node12</title>
<a xlink:href="structstxxl_1_1compat__unique__ptr.html" target="_top" xlink:title="stxxl::compat_unique\l_ptr\&lt; stxxl::completion\l_handler_impl \&gt;">
<polygon fill="none" stroke="black" points="400,-274.5 400,-321.5 516,-321.5 516,-274.5 400,-274.5"/>
<text text-anchor="start" x="408" y="-308.5" font-family="Helvetica,sans-Serif" font-size="10.00">stxxl::compat_unique</text>
<text text-anchor="start" x="408" y="-295.5" font-family="Helvetica,sans-Serif" font-size="10.00">_ptr&lt; stxxl::completion</text>
<text text-anchor="middle" x="458" y="-282.5" font-family="Helvetica,sans-Serif" font-size="10.00">_handler_impl &gt;</text>
</a>
</g>
<!-- Node12&#45;&gt;Node11 -->
<g id="edge34" class="edge"><title>Node12&#45;&gt;Node11</title>
<path fill="none" stroke="#9a32cd" stroke-dasharray="5,2" d="M526.655,-295.567C564.342,-294.232 610.787,-292.586 647.756,-291.276"/>
<polygon fill="#9a32cd" stroke="#9a32cd" points="526.142,-292.083 516.273,-295.935 526.39,-299.079 526.142,-292.083"/>
<text text-anchor="middle" x="583" y="-299" font-family="Helvetica,sans-Serif" font-size="10.00"> sp_impl_</text>
</g>
<!-- Node13 -->
<g id="node30" class="node"><title>Node13</title>
<a xlink:href="structstxxl_1_1compat__unique__ptr.html" target="_top" xlink:title="stxxl::compat_unique\l_ptr\&lt; Type \&gt;">
<polygon fill="none" stroke="black" points="142,-281 142,-315 252,-315 252,-281 142,-281"/>
<text text-anchor="start" x="150" y="-302" font-family="Helvetica,sans-Serif" font-size="10.00">stxxl::compat_unique</text>
<text text-anchor="middle" x="197" y="-289" font-family="Helvetica,sans-Serif" font-size="10.00">_ptr&lt; Type &gt;</text>
</a>
</g>
<!-- Node13&#45;&gt;Node12 -->
<g id="edge36" class="edge"><title>Node13&#45;&gt;Node12</title>
<path fill="none" stroke="orange" stroke-dasharray="5,2" d="M262.224,-298C304.5,-298 359.085,-298 399.874,-298"/>
<polygon fill="orange" stroke="orange" points="262.032,-294.5 252.032,-298 262.032,-301.5 262.032,-294.5"/>
<text text-anchor="start" x="284.5" y="-315" font-family="Helvetica,sans-Serif" font-size="10.00"> &lt; stxxl::completion</text>
<text text-anchor="middle" x="328" y="-302" font-family="Helvetica,sans-Serif" font-size="10.00">_handler_impl &gt;</text>
</g>
<!-- Node14 -->
<g id="node33" class="node"><title>Node14</title>
<a xlink:href="classstxxl_1_1BIDArray.html" target="_top" xlink:title="stxxl::BIDArray\&lt; block\l_type::raw_size \&gt;">
<polygon fill="none" stroke="black" points="932,-83 932,-117 1048,-117 1048,-83 932,-83"/>
<text text-anchor="start" x="940" y="-104" font-family="Helvetica,sans-Serif" font-size="10.00">stxxl::BIDArray&lt; block</text>
<text text-anchor="middle" x="990" y="-91" font-family="Helvetica,sans-Serif" font-size="10.00">_type::raw_size &gt;</text>
</a>
</g>
<!-- Node14&#45;&gt;Node5 -->
<g id="edge40" class="edge"><title>Node14&#45;&gt;Node5</title>
<path fill="none" stroke="#9a32cd" stroke-dasharray="5,2" d="M1024.41,-123.047C1062.89,-148.826 1124.91,-190.369 1163.74,-216.38"/>
<polygon fill="#9a32cd" stroke="#9a32cd" points="1025.88,-119.824 1015.63,-117.167 1021.99,-125.64 1025.88,-119.824"/>
<text text-anchor="middle" x="1098" y="-190" font-family="Helvetica,sans-Serif" font-size="10.00"> bids_</text>
</g>
<!-- Node15&#45;&gt;Node14 -->
<g id="edge42" class="edge"><title>Node15&#45;&gt;Node14</title>
<path fill="none" stroke="midnightblue" d="M526.149,-63.6576C590.606,-64.6818 690.003,-67.3011 776,-74 828.798,-78.1128 888.61,-85.6224 931.551,-91.5173"/>
<polygon fill="midnightblue" stroke="midnightblue" points="526.164,-60.1575 516.112,-63.5065 526.058,-67.1567 526.164,-60.1575"/>
</g>
<!-- Node17 -->
<g id="node41" class="node"><title>Node17</title>
<a xlink:href="classstxxl_1_1BIDArray.html" target="_top" xlink:title="stxxl::BIDArray\&lt; BLK\l_SIZE \&gt;">
<polygon fill="none" stroke="black" points="656,-83 656,-117 768,-117 768,-83 656,-83"/>
<text text-anchor="start" x="664" y="-104" font-family="Helvetica,sans-Serif" font-size="10.00">stxxl::BIDArray&lt; BLK</text>
<text text-anchor="middle" x="712" y="-91" font-family="Helvetica,sans-Serif" font-size="10.00">_SIZE &gt;</text>
</a>
</g>
<!-- Node15&#45;&gt;Node17 -->
<g id="edge52" class="edge"><title>Node15&#45;&gt;Node17</title>
<path fill="none" stroke="midnightblue" d="M526.338,-72.9547C566.847,-78.8557 617.561,-86.2431 655.745,-91.8054"/>
<polygon fill="midnightblue" stroke="midnightblue" points="526.673,-69.4667 516.273,-71.4885 525.664,-76.3936 526.673,-69.4667"/>
</g>
<!-- Node16&#45;&gt;Node15 -->
<g id="edge46" class="edge"><title>Node16&#45;&gt;Node15</title>
<path fill="none" stroke="orange" stroke-dasharray="5,2" d="M259.186,-78.2348C301.899,-74.9617 358.21,-70.6467 399.996,-67.4448"/>
<polygon fill="orange" stroke="orange" points="258.893,-74.7469 249.19,-79.0008 259.428,-81.7264 258.893,-74.7469"/>
<text text-anchor="middle" x="328" y="-80" font-family="Helvetica,sans-Serif" font-size="10.00"> &lt; BID&lt; BLK_SIZE &gt; &gt;</text>
</g>
<!-- Node17&#45;&gt;Node14 -->
<g id="edge50" class="edge"><title>Node17&#45;&gt;Node14</title>
<path fill="none" stroke="orange" stroke-dasharray="5,2" d="M778.291,-100C825.052,-100 887.092,-100 931.913,-100"/>
<polygon fill="orange" stroke="orange" points="778.257,-96.5001 768.257,-100 778.257,-103.5 778.257,-96.5001"/>
<text text-anchor="middle" x="851" y="-104" font-family="Helvetica,sans-Serif" font-size="10.00"> &lt; block_type::raw_size &gt;</text>
</g>
</g>
</svg>
