<?xml version="1.0" encoding="UTF-8" standalone="no"?>
<!DOCTYPE svg PUBLIC "-//W3C//DTD SVG 1.1//EN"
 "http://www.w3.org/Graphics/SVG/1.1/DTD/svg11.dtd">
<!-- Generated by graphviz version 2.26.3 (20100126.1600)
 -->
<!-- Title: stxxl::btree::normal_node&lt; KeyType, KeyCmp, RawSize, BTreeType &gt; Pages: 1 -->
<svg width="3154pt" height="315pt"
 viewBox="0.00 0.00 3154.00 315.26" xmlns="http://www.w3.org/2000/svg" xmlns:xlink="http://www.w3.org/1999/xlink">
<g id="graph1" class="graph" transform="scale(1 1) rotate(0) translate(4 311.265)">
<title>stxxl::btree::normal_node&lt; KeyType, KeyCmp, RawSize, BTreeType &gt;</title>
<!-- Node1 -->
<g id="node1" class="node"><title>Node1</title>
<polygon fill="#bfbfbf" stroke="black" points="3008,-227.765 3008,-274.765 3146,-274.765 3146,-227.765 3008,-227.765"/>
<text text-anchor="start" x="3016" y="-261.765" font-family="Helvetica,sans-Serif" font-size="10.00">stxxl::btree::normal</text>
<text text-anchor="start" x="3016" y="-248.765" font-family="Helvetica,sans-Serif" font-size="10.00">_node&lt; KeyType, KeyCmp,</text>
<text text-anchor="middle" x="3077" y="-235.765" font-family="Helvetica,sans-Serif" font-size="10.00"> RawSize, BTreeType &gt;</text>
</g>
<!-- Node2 -->
<g id="node2" class="node"><title>Node2</title>
<a xlink:href="classstxxl_1_1noncopyable.html" target="_top" xlink:title="stxxl::noncopyable">
<polygon fill="none" stroke="black" points="11,-243.765 11,-264.765 109,-264.765 109,-243.765 11,-243.765"/>
<text text-anchor="middle" x="60" y="-251.765" font-family="Helvetica,sans-Serif" font-size="10.00">stxxl::noncopyable</text>
</a>
</g>
<!-- Node2&#45;&gt;Node1 -->
<g id="edge2" class="edge"><title>Node2&#45;&gt;Node1</title>
<path fill="none" stroke="#8b1a1a" d="M99.5141,-267.986C148.338,-283.69 234.248,-307.265 310,-307.265 310,-307.265 310,-307.265 2861,-307.265 2915.82,-307.265 2976.03,-290.156 3018.92,-274.851"/>
<polygon fill="#8b1a1a" stroke="#8b1a1a" points="100.559,-264.645 89.9667,-264.863 98.3828,-271.299 100.559,-264.645"/>
</g>
<!-- Node10 -->
<g id="node18" class="node"><title>Node10</title>
<a xlink:href="classstxxl_1_1file.html" target="_top" xlink:title="Defines interface of file. ">
<polygon fill="none" stroke="black" points="742,-169.765 742,-190.765 798,-190.765 798,-169.765 742,-169.765"/>
<text text-anchor="middle" x="770" y="-177.765" font-family="Helvetica,sans-Serif" font-size="10.00">stxxl::file</text>
</a>
</g>
<!-- Node2&#45;&gt;Node10 -->
<g id="edge20" class="edge"><title>Node2&#45;&gt;Node10</title>
<path fill="none" stroke="#8b1a1a" d="M119.216,-251.212C181.631,-247.86 282.794,-242.043 370,-235.265 431.42,-230.491 446.732,-228.695 508,-222.265 604.113,-212.177 630.007,-219.73 724,-197.265 730.79,-195.642 737.95,-193.314 744.546,-190.9"/>
<polygon fill="#8b1a1a" stroke="#8b1a1a" points="118.96,-247.721 109.161,-251.749 119.334,-254.711 118.96,-247.721"/>
</g>
<!-- Node12 -->
<g id="node23" class="node"><title>Node12</title>
<a xlink:href="classstxxl_1_1mutex.html" target="_top" xlink:title="stxxl::mutex">
<polygon fill="none" stroke="black" points="274.5,-204.765 274.5,-225.765 345.5,-225.765 345.5,-204.765 274.5,-204.765"/>
<text text-anchor="middle" x="310" y="-212.765" font-family="Helvetica,sans-Serif" font-size="10.00">stxxl::mutex</text>
</a>
</g>
<!-- Node2&#45;&gt;Node12 -->
<g id="edge26" class="edge"><title>Node2&#45;&gt;Node12</title>
<path fill="none" stroke="#8b1a1a" d="M119.043,-243.453C125.436,-242.346 131.851,-241.263 138,-240.265 185.06,-232.624 239.549,-224.891 274.37,-220.091"/>
<polygon fill="#8b1a1a" stroke="#8b1a1a" points="118.301,-240.03 109.056,-245.203 119.51,-246.925 118.301,-240.03"/>
</g>
<!-- Node3 -->
<g id="node4" class="node"><title>Node3</title>
<a xlink:href="classstxxl_1_1typed__block.html" target="_top" xlink:title="Block containing elements of fixed length. ">
<polygon fill="none" stroke="black" points="2798.5,-227.765 2798.5,-274.765 2923.5,-274.765 2923.5,-227.765 2798.5,-227.765"/>
<text text-anchor="start" x="2806.5" y="-261.765" font-family="Helvetica,sans-Serif" font-size="10.00">stxxl::typed_block</text>
<text text-anchor="start" x="2806.5" y="-248.765" font-family="Helvetica,sans-Serif" font-size="10.00">&lt; RawSize, Type, NRef,</text>
<text text-anchor="middle" x="2861" y="-235.765" font-family="Helvetica,sans-Serif" font-size="10.00"> MetaInfoType &gt;</text>
</a>
</g>
<!-- Node3&#45;&gt;Node1 -->
<g id="edge4" class="edge"><title>Node3&#45;&gt;Node1</title>
<path fill="none" stroke="#9a32cd" stroke-dasharray="5,2" d="M2933.81,-251.265C2957.65,-251.265 2984.06,-251.265 3007.64,-251.265"/>
<polygon fill="#9a32cd" stroke="#9a32cd" points="2933.77,-247.765 2923.77,-251.265 2933.77,-254.765 2933.77,-247.765"/>
<text text-anchor="middle" x="2969" y="-255.265" font-family="Helvetica,sans-Serif" font-size="10.00"> m_block</text>
</g>
<!-- Node4 -->
<g id="node6" class="node"><title>Node4</title>
<a xlink:href="classstxxl_1_1mng__local_1_1expand__struct.html" target="_top" xlink:title="stxxl::mng_local::expand\l_struct\&lt; mng_local::block\l_w_info\&lt; Type, RawSize, NRef,\l MetaInfoType \&gt;, RawSize \&gt;">
<polygon fill="none" stroke="black" points="2594.5,-210.265 2594.5,-270.265 2753.5,-270.265 2753.5,-210.265 2594.5,-210.265"/>
<text text-anchor="start" x="2602.5" y="-257.265" font-family="Helvetica,sans-Serif" font-size="10.00">stxxl::mng_local::expand</text>
<text text-anchor="start" x="2602.5" y="-244.265" font-family="Helvetica,sans-Serif" font-size="10.00">_struct&lt; mng_local::block</text>
<text text-anchor="start" x="2602.5" y="-231.265" font-family="Helvetica,sans-Serif" font-size="10.00">_w_info&lt; Type, RawSize, NRef,</text>
<text text-anchor="middle" x="2674" y="-218.265" font-family="Helvetica,sans-Serif" font-size="10.00"> MetaInfoType &gt;, RawSize &gt;</text>
</a>
</g>
<!-- Node4&#45;&gt;Node3 -->
<g id="edge6" class="edge"><title>Node4&#45;&gt;Node3</title>
<path fill="none" stroke="midnightblue" d="M2763.84,-245.549C2775.55,-246.238 2787.35,-246.932 2798.48,-247.587"/>
<polygon fill="midnightblue" stroke="midnightblue" points="2763.76,-242.039 2753.58,-244.946 2763.35,-249.027 2763.76,-242.039"/>
</g>
<!-- Node5 -->
<g id="node8" class="node"><title>Node5</title>
<a xlink:href="classstxxl_1_1mng__local_1_1add__filler.html" target="_top" xlink:title="stxxl::mng_local::add\l_filler\&lt; mng_local::block\l_w_info\&lt; Type, RawSize,\l NRef, MetaInfoType \&gt;, RawSize\l&#45;sizeof(mng_local::block_w_info\l\&lt; Type, RawSize, NRef, MetaInfoType \&gt;)\&gt;">
<polygon fill="none" stroke="black" points="2238,-69.2647 2238,-155.265 2444,-155.265 2444,-69.2647 2238,-69.2647"/>
<text text-anchor="start" x="2246" y="-142.265" font-family="Helvetica,sans-Serif" font-size="10.00">stxxl::mng_local::add</text>
<text text-anchor="start" x="2246" y="-129.265" font-family="Helvetica,sans-Serif" font-size="10.00">_filler&lt; mng_local::block</text>
<text text-anchor="start" x="2246" y="-116.265" font-family="Helvetica,sans-Serif" font-size="10.00">_w_info&lt; Type, RawSize,</text>
<text text-anchor="start" x="2246" y="-103.265" font-family="Helvetica,sans-Serif" font-size="10.00"> NRef, MetaInfoType &gt;, RawSize</text>
<text text-anchor="start" x="2246" y="-90.2647" font-family="Helvetica,sans-Serif" font-size="10.00">&#45;sizeof(mng_local::block_w_info</text>
<text text-anchor="middle" x="2341" y="-77.2647" font-family="Helvetica,sans-Serif" font-size="10.00">&lt; Type, RawSize, NRef, MetaInfoType &gt;)&gt;</text>
</a>
</g>
<!-- Node5&#45;&gt;Node4 -->
<g id="edge8" class="edge"><title>Node5&#45;&gt;Node4</title>
<path fill="none" stroke="midnightblue" d="M2453.64,-155.562C2500.34,-173.513 2553.38,-193.9 2595.72,-210.174"/>
<polygon fill="midnightblue" stroke="midnightblue" points="2454.67,-152.209 2444.08,-151.888 2452.16,-158.743 2454.67,-152.209"/>
</g>
<!-- Node6 -->
<g id="node10" class="node"><title>Node6</title>
<a xlink:href="classstxxl_1_1mng__local_1_1block__w__info.html" target="_top" xlink:title="stxxl::mng_local::block\l_w_info\&lt; Type, RawSize,\l NRef, MetaInfoType \&gt;">
<polygon fill="none" stroke="black" points="2063,-13.7647 2063,-60.7647 2193,-60.7647 2193,-13.7647 2063,-13.7647"/>
<text text-anchor="start" x="2071" y="-47.7647" font-family="Helvetica,sans-Serif" font-size="10.00">stxxl::mng_local::block</text>
<text text-anchor="start" x="2071" y="-34.7647" font-family="Helvetica,sans-Serif" font-size="10.00">_w_info&lt; Type, RawSize,</text>
<text text-anchor="middle" x="2128" y="-21.7647" font-family="Helvetica,sans-Serif" font-size="10.00"> NRef, MetaInfoType &gt;</text>
</a>
</g>
<!-- Node6&#45;&gt;Node5 -->
<g id="edge10" class="edge"><title>Node6&#45;&gt;Node5</title>
<path fill="none" stroke="midnightblue" d="M2202.53,-63.5082C2213.97,-67.5357 2225.95,-71.754 2237.87,-75.9525"/>
<polygon fill="midnightblue" stroke="midnightblue" points="2203.66,-60.1947 2193.06,-60.1747 2201.33,-66.7974 2203.66,-60.1947"/>
</g>
<!-- Node7 -->
<g id="node12" class="node"><title>Node7</title>
<a xlink:href="classstxxl_1_1mng__local_1_1block__w__bids.html" target="_top" xlink:title="stxxl::mng_local::block\l_w_bids\&lt; Type,((RawSize\l&#45;sizeof(BID\&lt; RawSize \&gt;)*NBids\l&#45;sizeof(MetaInfoType))/sizeof\l(Type)), RawSize, NBids \&gt;">
<polygon fill="none" stroke="black" points="1552,-0.764735 1552,-73.7647 1710,-73.7647 1710,-0.764735 1552,-0.764735"/>
<text text-anchor="start" x="1560" y="-60.7647" font-family="Helvetica,sans-Serif" font-size="10.00">stxxl::mng_local::block</text>
<text text-anchor="start" x="1560" y="-47.7647" font-family="Helvetica,sans-Serif" font-size="10.00">_w_bids&lt; Type,((RawSize</text>
<text text-anchor="start" x="1560" y="-34.7647" font-family="Helvetica,sans-Serif" font-size="10.00">&#45;sizeof(BID&lt; RawSize &gt;)*NBids</text>
<text text-anchor="start" x="1560" y="-21.7647" font-family="Helvetica,sans-Serif" font-size="10.00">&#45;sizeof(MetaInfoType))/sizeof</text>
<text text-anchor="middle" x="1631" y="-8.76474" font-family="Helvetica,sans-Serif" font-size="10.00">(Type)), RawSize, NBids &gt;</text>
</a>
</g>
<!-- Node7&#45;&gt;Node6 -->
<g id="edge12" class="edge"><title>Node7&#45;&gt;Node6</title>
<path fill="none" stroke="midnightblue" d="M1719.92,-12.6323C1735.81,-9.15205 1752.31,-6.12808 1768,-4.26474 1870.83,7.94588 1990.66,-9.29263 2062.86,-23.091"/>
<polygon fill="midnightblue" stroke="midnightblue" points="1719.09,-9.23059 1710.11,-14.852 1720.64,-16.0579 1719.09,-9.23059"/>
</g>
<!-- Node17 -->
<g id="node37" class="node"><title>Node17</title>
<a xlink:href="classstxxl_1_1mng__local_1_1block__w__info.html" target="_top" xlink:title="Contains per block information for stxxl::typed_block , not intended for direct use. ">
<polygon fill="none" stroke="black" points="1773,-13.7647 1773,-60.7647 1903,-60.7647 1903,-13.7647 1773,-13.7647"/>
<text text-anchor="start" x="1781" y="-47.7647" font-family="Helvetica,sans-Serif" font-size="10.00">stxxl::mng_local::block</text>
<text text-anchor="start" x="1781" y="-34.7647" font-family="Helvetica,sans-Serif" font-size="10.00">_w_info&lt; Type, RawSize,</text>
<text text-anchor="middle" x="1838" y="-21.7647" font-family="Helvetica,sans-Serif" font-size="10.00"> NBids, MetaInfoType &gt;</text>
</a>
</g>
<!-- Node7&#45;&gt;Node17 -->
<g id="edge44" class="edge"><title>Node7&#45;&gt;Node17</title>
<path fill="none" stroke="midnightblue" d="M1720.41,-37.2647C1737.97,-37.2647 1756.09,-37.2647 1772.68,-37.2647"/>
<polygon fill="midnightblue" stroke="midnightblue" points="1720.14,-33.7648 1710.14,-37.2647 1720.14,-40.7648 1720.14,-33.7648"/>
</g>
<!-- Node8 -->
<g id="node14" class="node"><title>Node8</title>
<a xlink:href="classstxxl_1_1mng__local_1_1element__block.html" target="_top" xlink:title="Contains data elements for stxxl::typed_block , not intended for direct use. ">
<polygon fill="none" stroke="black" points="1066,-16.2647 1066,-50.2647 1194,-50.2647 1194,-16.2647 1066,-16.2647"/>
<text text-anchor="start" x="1074" y="-37.2647" font-family="Helvetica,sans-Serif" font-size="10.00">stxxl::mng_local::element</text>
<text text-anchor="middle" x="1130" y="-24.2647" font-family="Helvetica,sans-Serif" font-size="10.00">_block&lt; Type, Size &gt;</text>
</a>
</g>
<!-- Node8&#45;&gt;Node7 -->
<g id="edge14" class="edge"><title>Node8&#45;&gt;Node7</title>
<path fill="none" stroke="midnightblue" d="M1204.41,-33.8588C1297.58,-34.6027 1456.5,-35.8715 1551.84,-36.6327"/>
<polygon fill="midnightblue" stroke="midnightblue" points="1204.24,-30.3575 1194.22,-33.7774 1204.19,-37.3573 1204.24,-30.3575"/>
</g>
<!-- Node16 -->
<g id="node33" class="node"><title>Node16</title>
<a xlink:href="classstxxl_1_1mng__local_1_1block__w__bids.html" target="_top" xlink:title="Contains BID references for stxxl::typed_block , not intended for direct use. ">
<polygon fill="none" stroke="black" points="1246,-48.7647 1246,-95.7647 1404,-95.7647 1404,-48.7647 1246,-48.7647"/>
<text text-anchor="start" x="1254" y="-82.7647" font-family="Helvetica,sans-Serif" font-size="10.00">stxxl::mng_local::block</text>
<text text-anchor="start" x="1254" y="-69.7647" font-family="Helvetica,sans-Serif" font-size="10.00">_w_bids&lt; Type, Size, RawSize,</text>
<text text-anchor="middle" x="1325" y="-56.7647" font-family="Helvetica,sans-Serif" font-size="10.00"> NBids &gt;</text>
</a>
</g>
<!-- Node8&#45;&gt;Node16 -->
<g id="edge38" class="edge"><title>Node8&#45;&gt;Node16</title>
<path fill="none" stroke="midnightblue" d="M1203.96,-48.0571C1217.66,-50.7968 1232.02,-53.6684 1245.86,-56.4374"/>
<polygon fill="midnightblue" stroke="midnightblue" points="1204.61,-44.618 1194.12,-46.0888 1203.24,-51.4821 1204.61,-44.618"/>
</g>
<!-- Node9 -->
<g id="node16" class="node"><title>Node9</title>
<a xlink:href="structstxxl_1_1BID.html" target="_top" xlink:title="stxxl::BID\&lt; raw_size \&gt;">
<polygon fill="none" stroke="black" points="1071,-122.765 1071,-143.765 1189,-143.765 1189,-122.765 1071,-122.765"/>
<text text-anchor="middle" x="1130" y="-130.765" font-family="Helvetica,sans-Serif" font-size="10.00">stxxl::BID&lt; raw_size &gt;</text>
</a>
</g>
<!-- Node9&#45;&gt;Node7 -->
<g id="edge16" class="edge"><title>Node9&#45;&gt;Node7</title>
<path fill="none" stroke="#9a32cd" stroke-dasharray="5,2" d="M1199.49,-136.286C1298.56,-139.676 1474.95,-142.047 1534,-119.265 1558.69,-109.74 1581.54,-91.1269 1598.86,-74.0389"/>
<polygon fill="#9a32cd" stroke="#9a32cd" points="1199.39,-132.781 1189.27,-135.924 1199.14,-139.776 1199.39,-132.781"/>
<text text-anchor="middle" x="1325" y="-143.265" font-family="Helvetica,sans-Serif" font-size="10.00"> ref</text>
</g>
<!-- Node9&#45;&gt;Node16 -->
<g id="edge40" class="edge"><title>Node9&#45;&gt;Node16</title>
<path fill="none" stroke="#9a32cd" stroke-dasharray="5,2" d="M1171.13,-119.492C1184.18,-115.185 1198.67,-110.463 1212,-106.265 1222.94,-102.818 1234.5,-99.2517 1245.89,-95.7838"/>
<polygon fill="#9a32cd" stroke="#9a32cd" points="1169.87,-116.222 1161.48,-122.689 1172.07,-122.866 1169.87,-116.222"/>
<text text-anchor="middle" x="1220" y="-110.265" font-family="Helvetica,sans-Serif" font-size="10.00"> ref</text>
</g>
<!-- Node10&#45;&gt;Node9 -->
<g id="edge18" class="edge"><title>Node10&#45;&gt;Node9</title>
<path fill="none" stroke="#9a32cd" stroke-dasharray="5,2" d="M808.236,-177.319C861.972,-172.912 962.805,-163.66 1048,-150.265 1059.35,-148.481 1071.5,-146.179 1082.88,-143.849"/>
<polygon fill="#9a32cd" stroke="#9a32cd" points="807.82,-173.841 798.135,-178.136 808.384,-180.819 807.82,-173.841"/>
<text text-anchor="middle" x="919" y="-176.265" font-family="Helvetica,sans-Serif" font-size="10.00"> storage</text>
</g>
<!-- Node15 -->
<g id="node30" class="node"><title>Node15</title>
<a xlink:href="structstxxl_1_1BID.html" target="_top" xlink:title="Block identifier class. ">
<polygon fill="none" stroke="black" points="870,-122.765 870,-143.765 968,-143.765 968,-122.765 870,-122.765"/>
<text text-anchor="middle" x="919" y="-130.765" font-family="Helvetica,sans-Serif" font-size="10.00">stxxl::BID&lt; Size &gt;</text>
</a>
</g>
<!-- Node10&#45;&gt;Node15 -->
<g id="edge34" class="edge"><title>Node10&#45;&gt;Node15</title>
<path fill="none" stroke="#9a32cd" stroke-dasharray="5,2" d="M793.909,-164.171C800.804,-160.108 808.496,-156.1 816,-153.265 833.04,-146.826 852.484,-142.366 869.854,-139.321"/>
<polygon fill="#9a32cd" stroke="#9a32cd" points="791.748,-161.393 785.095,-169.639 795.438,-167.341 791.748,-161.393"/>
<text text-anchor="middle" x="834" y="-157.265" font-family="Helvetica,sans-Serif" font-size="10.00"> storage</text>
</g>
<!-- Node11 -->
<g id="node21" class="node"><title>Node11</title>
<a xlink:href="classstxxl_1_1atomic__counted__object.html" target="_top" xlink:title="Provides reference counting abilities for use with counting_ptr with mutex locking. ">
<polygon fill="none" stroke="black" points="526.5,-163.265 526.5,-197.265 639.5,-197.265 639.5,-163.265 526.5,-163.265"/>
<text text-anchor="start" x="534.5" y="-184.265" font-family="Helvetica,sans-Serif" font-size="10.00">stxxl::atomic_counted</text>
<text text-anchor="middle" x="583" y="-171.265" font-family="Helvetica,sans-Serif" font-size="10.00">_object</text>
</a>
</g>
<!-- Node11&#45;&gt;Node10 -->
<g id="edge22" class="edge"><title>Node11&#45;&gt;Node10</title>
<path fill="none" stroke="#9a32cd" stroke-dasharray="5,2" d="M649.733,-180.265C681.451,-180.265 717.657,-180.265 741.984,-180.265"/>
<polygon fill="#9a32cd" stroke="#9a32cd" points="649.614,-176.765 639.614,-180.265 649.614,-183.765 649.614,-176.765"/>
<text text-anchor="middle" x="691" y="-184.265" font-family="Helvetica,sans-Serif" font-size="10.00"> m_request_ref</text>
</g>
<!-- Node12&#45;&gt;Node11 -->
<g id="edge24" class="edge"><title>Node12&#45;&gt;Node11</title>
<path fill="none" stroke="#9a32cd" stroke-dasharray="5,2" d="M355.875,-209.383C402.83,-203.363 475.885,-193.997 526.403,-187.521"/>
<polygon fill="#9a32cd" stroke="#9a32cd" points="355.164,-205.946 345.69,-210.689 356.054,-212.889 355.164,-205.946"/>
<text text-anchor="middle" x="448" y="-209.265" font-family="Helvetica,sans-Serif" font-size="10.00"> m_reference_count_mutex</text>
</g>
<!-- Node13 -->
<g id="node26" class="node"><title>Node13</title>
<a xlink:href="structstxxl_1_1choose__int__types.html" target="_top" xlink:title="stxxl::choose_int_types\l\&lt; my_pointer_size \&gt;">
<polygon fill="none" stroke="black" points="250,-152.265 250,-186.265 370,-186.265 370,-152.265 250,-152.265"/>
<text text-anchor="start" x="258" y="-173.265" font-family="Helvetica,sans-Serif" font-size="10.00">stxxl::choose_int_types</text>
<text text-anchor="middle" x="310" y="-160.265" font-family="Helvetica,sans-Serif" font-size="10.00">&lt; my_pointer_size &gt;</text>
</a>
</g>
<!-- Node13&#45;&gt;Node11 -->
<g id="edge28" class="edge"><title>Node13&#45;&gt;Node11</title>
<path fill="none" stroke="#9a32cd" stroke-dasharray="5,2" d="M380.64,-170.784C418.435,-171.753 465.769,-173.218 508,-175.265 513.996,-175.555 520.258,-175.903 526.498,-176.278"/>
<polygon fill="#9a32cd" stroke="#9a32cd" points="380.329,-167.275 370.244,-170.523 380.154,-174.273 380.329,-167.275"/>
<text text-anchor="middle" x="448" y="-179.265" font-family="Helvetica,sans-Serif" font-size="10.00"> m_reference_count</text>
</g>
<!-- Node14 -->
<g id="node28" class="node"><title>Node14</title>
<a xlink:href="structstxxl_1_1choose__int__types.html" target="_top" xlink:title="stxxl::choose_int_types\l\&lt; PtrSize \&gt;">
<polygon fill="none" stroke="black" points="0,-152.265 0,-186.265 120,-186.265 120,-152.265 0,-152.265"/>
<text text-anchor="start" x="8" y="-173.265" font-family="Helvetica,sans-Serif" font-size="10.00">stxxl::choose_int_types</text>
<text text-anchor="middle" x="60" y="-160.265" font-family="Helvetica,sans-Serif" font-size="10.00">&lt; PtrSize &gt;</text>
</a>
</g>
<!-- Node14&#45;&gt;Node13 -->
<g id="edge30" class="edge"><title>Node14&#45;&gt;Node13</title>
<path fill="none" stroke="orange" stroke-dasharray="5,2" d="M130.578,-169.265C168.196,-169.265 213.985,-169.265 249.89,-169.265"/>
<polygon fill="orange" stroke="orange" points="130.199,-165.765 120.199,-169.265 130.199,-172.765 130.199,-165.765"/>
<text text-anchor="middle" x="185" y="-173.265" font-family="Helvetica,sans-Serif" font-size="10.00"> &lt; my_pointer_size &gt;</text>
</g>
<!-- Node15&#45;&gt;Node9 -->
<g id="edge32" class="edge"><title>Node15&#45;&gt;Node9</title>
<path fill="none" stroke="orange" stroke-dasharray="5,2" d="M978.574,-133.265C1007.48,-133.265 1042.11,-133.265 1070.95,-133.265"/>
<polygon fill="orange" stroke="orange" points="978.204,-129.765 968.204,-133.265 978.204,-136.765 978.204,-129.765"/>
<text text-anchor="middle" x="1017" y="-137.265" font-family="Helvetica,sans-Serif" font-size="10.00"> &lt; raw_size &gt;</text>
</g>
<!-- Node16&#45;&gt;Node7 -->
<g id="edge36" class="edge"><title>Node16&#45;&gt;Node7</title>
<path fill="none" stroke="orange" stroke-dasharray="5,2" d="M1413.94,-55.3922C1416.65,-54.9952 1419.35,-54.618 1422,-54.2647 1464.76,-48.5732 1512.72,-44.5082 1551.9,-41.7835"/>
<polygon fill="orange" stroke="orange" points="1413.39,-51.9355 1404.03,-56.9083 1414.45,-58.8549 1413.39,-51.9355"/>
<text text-anchor="start" x="1422" y="-110.265" font-family="Helvetica,sans-Serif" font-size="10.00"> &lt; Type,((RawSize&#45;sizeof</text>
<text text-anchor="start" x="1422" y="-97.2647" font-family="Helvetica,sans-Serif" font-size="10.00">(BID&lt; RawSize &gt;)*NBids</text>
<text text-anchor="start" x="1422" y="-84.2647" font-family="Helvetica,sans-Serif" font-size="10.00">&#45;sizeof(MetaInfoType))</text>
<text text-anchor="start" x="1422" y="-71.2647" font-family="Helvetica,sans-Serif" font-size="10.00">/sizeof(Type)), RawSize,</text>
<text text-anchor="middle" x="1478" y="-58.2647" font-family="Helvetica,sans-Serif" font-size="10.00"> NBids &gt;</text>
</g>
<!-- Node17&#45;&gt;Node6 -->
<g id="edge42" class="edge"><title>Node17&#45;&gt;Node6</title>
<path fill="none" stroke="orange" stroke-dasharray="5,2" d="M1913.08,-37.2647C1959.49,-37.2647 2018.46,-37.2647 2062.89,-37.2647"/>
<polygon fill="orange" stroke="orange" points="1913.08,-33.7648 1903.08,-37.2647 1913.08,-40.7648 1913.08,-33.7648"/>
<text text-anchor="start" x="1926" y="-54.2647" font-family="Helvetica,sans-Serif" font-size="10.00"> &lt; Type, RawSize, NRef,</text>
<text text-anchor="middle" x="1982" y="-41.2647" font-family="Helvetica,sans-Serif" font-size="10.00"> MetaInfoType &gt;</text>
</g>
<!-- Node18 -->
<g id="node40" class="node"><title>Node18</title>
<a xlink:href="classstxxl_1_1mng__local_1_1filler__struct.html" target="_top" xlink:title="stxxl::mng_local::filler\l_struct\&lt; FillSize \&gt;">
<polygon fill="none" stroke="black" points="1575,-166.265 1575,-200.265 1687,-200.265 1687,-166.265 1575,-166.265"/>
<text text-anchor="start" x="1583" y="-187.265" font-family="Helvetica,sans-Serif" font-size="10.00">stxxl::mng_local::filler</text>
<text text-anchor="middle" x="1631" y="-174.265" font-family="Helvetica,sans-Serif" font-size="10.00">_struct&lt; FillSize &gt;</text>
</a>
</g>
<!-- Node18&#45;&gt;Node5 -->
<g id="edge46" class="edge"><title>Node18&#45;&gt;Node5</title>
<path fill="none" stroke="#9a32cd" stroke-dasharray="5,2" d="M1697.37,-170.416C1719.78,-166.144 1744.96,-161.419 1768,-157.265 1838.11,-144.623 1855.2,-138.193 1926,-130.265 1983.5,-123.825 1998.2,-125.936 2056,-123.265 2116.22,-120.481 2183.62,-117.857 2237.76,-115.871"/>
<polygon fill="#9a32cd" stroke="#9a32cd" points="1696.45,-167.029 1687.28,-172.343 1697.76,-173.904 1696.45,-167.029"/>
<text text-anchor="middle" x="1982" y="-134.265" font-family="Helvetica,sans-Serif" font-size="10.00"> filler</text>
</g>
<!-- Node20 -->
<g id="node44" class="node"><title>Node20</title>
<a xlink:href="classstxxl_1_1mng__local_1_1add__filler.html" target="_top" xlink:title="Contains per block filler for stxxl::typed_block , not intended for direct use. ">
<polygon fill="none" stroke="black" points="1768,-166.265 1768,-200.265 1908,-200.265 1908,-166.265 1768,-166.265"/>
<text text-anchor="start" x="1776" y="-187.265" font-family="Helvetica,sans-Serif" font-size="10.00">stxxl::mng_local::add</text>
<text text-anchor="middle" x="1838" y="-174.265" font-family="Helvetica,sans-Serif" font-size="10.00">_filler&lt; BaseType, FillSize &gt;</text>
</a>
</g>
<!-- Node18&#45;&gt;Node20 -->
<g id="edge52" class="edge"><title>Node18&#45;&gt;Node20</title>
<path fill="none" stroke="#9a32cd" stroke-dasharray="5,2" d="M1697.17,-183.265C1719.72,-183.265 1745.01,-183.265 1767.87,-183.265"/>
<polygon fill="#9a32cd" stroke="#9a32cd" points="1697.02,-179.765 1687.02,-183.265 1697.02,-186.765 1697.02,-179.765"/>
<text text-anchor="middle" x="1739" y="-187.265" font-family="Helvetica,sans-Serif" font-size="10.00"> filler</text>
</g>
<!-- Node22 -->
<g id="node49" class="node"><title>Node22</title>
<a xlink:href="classstxxl_1_1mng__local_1_1add__filler.html" target="_top" xlink:title="stxxl::mng_local::add\l_filler\&lt; Type, RawSize\l&#45;sizeof(Type)\&gt;">
<polygon fill="none" stroke="black" points="2070,-231.765 2070,-278.765 2186,-278.765 2186,-231.765 2070,-231.765"/>
<text text-anchor="start" x="2078" y="-265.765" font-family="Helvetica,sans-Serif" font-size="10.00">stxxl::mng_local::add</text>
<text text-anchor="start" x="2078" y="-252.765" font-family="Helvetica,sans-Serif" font-size="10.00">_filler&lt; Type, RawSize</text>
<text text-anchor="middle" x="2128" y="-239.765" font-family="Helvetica,sans-Serif" font-size="10.00">&#45;sizeof(Type)&gt;</text>
</a>
</g>
<!-- Node18&#45;&gt;Node22 -->
<g id="edge58" class="edge"><title>Node18&#45;&gt;Node22</title>
<path fill="none" stroke="#9a32cd" stroke-dasharray="5,2" d="M1697.4,-195.949C1719.82,-200.21 1744.99,-204.97 1768,-209.265 1838.18,-222.365 1855.23,-228.815 1926,-238.265 1974.31,-244.716 2029.48,-249.163 2069.93,-251.885"/>
<polygon fill="#9a32cd" stroke="#9a32cd" points="1697.79,-192.461 1687.31,-194.03 1696.48,-199.337 1697.79,-192.461"/>
<text text-anchor="middle" x="1838" y="-240.265" font-family="Helvetica,sans-Serif" font-size="10.00"> filler</text>
</g>
<!-- Node19 -->
<g id="node42" class="node"><title>Node19</title>
<a xlink:href="classstxxl_1_1mng__local_1_1filler__struct.html" target="_top" xlink:title="stxxl::mng_local::filler\l_struct\&lt; Bytes \&gt;">
<polygon fill="none" stroke="black" points="1269,-166.265 1269,-200.265 1381,-200.265 1381,-166.265 1269,-166.265"/>
<text text-anchor="start" x="1277" y="-187.265" font-family="Helvetica,sans-Serif" font-size="10.00">stxxl::mng_local::filler</text>
<text text-anchor="middle" x="1325" y="-174.265" font-family="Helvetica,sans-Serif" font-size="10.00">_struct&lt; Bytes &gt;</text>
</a>
</g>
<!-- Node19&#45;&gt;Node18 -->
<g id="edge48" class="edge"><title>Node19&#45;&gt;Node18</title>
<path fill="none" stroke="orange" stroke-dasharray="5,2" d="M1391.44,-183.265C1446.27,-183.265 1523.22,-183.265 1574.97,-183.265"/>
<polygon fill="orange" stroke="orange" points="1391.13,-179.765 1381.13,-183.265 1391.13,-186.765 1391.13,-179.765"/>
<text text-anchor="middle" x="1478" y="-187.265" font-family="Helvetica,sans-Serif" font-size="10.00"> &lt; FillSize &gt;</text>
</g>
<!-- Node20&#45;&gt;Node5 -->
<g id="edge50" class="edge"><title>Node20&#45;&gt;Node5</title>
<path fill="none" stroke="orange" stroke-dasharray="5,2" d="M1917.97,-167.668C1959.12,-159.973 2010.13,-150.936 2056,-144.265 2116.11,-135.523 2183.66,-127.845 2237.9,-122.203"/>
<polygon fill="orange" stroke="orange" points="1917.19,-164.255 1908.01,-169.542 1918.48,-171.134 1917.19,-164.255"/>
<text text-anchor="start" x="2056.5" y="-213.265" font-family="Helvetica,sans-Serif" font-size="10.00"> &lt; mng_local::block</text>
<text text-anchor="start" x="2056.5" y="-200.265" font-family="Helvetica,sans-Serif" font-size="10.00">_w_info&lt; Type, RawSize,</text>
<text text-anchor="start" x="2056.5" y="-187.265" font-family="Helvetica,sans-Serif" font-size="10.00"> NRef, MetaInfoType &gt;,</text>
<text text-anchor="start" x="2056.5" y="-174.265" font-family="Helvetica,sans-Serif" font-size="10.00"> RawSize&#45;sizeof(mng_local</text>
<text text-anchor="start" x="2056.5" y="-161.265" font-family="Helvetica,sans-Serif" font-size="10.00">::block_w_info&lt; Type, RawSize,</text>
<text text-anchor="middle" x="2128" y="-148.265" font-family="Helvetica,sans-Serif" font-size="10.00"> NRef, MetaInfoType &gt;)&gt;</text>
</g>
<!-- Node20&#45;&gt;Node22 -->
<g id="edge60" class="edge"><title>Node20&#45;&gt;Node22</title>
<path fill="none" stroke="orange" stroke-dasharray="5,2" d="M1918.32,-189.327C1955.33,-193.532 1999.49,-200.569 2038,-212.265 2054.07,-217.146 2070.89,-224.502 2085.57,-231.756"/>
<polygon fill="orange" stroke="orange" points="1918.4,-185.815 1908.08,-188.214 1917.65,-192.774 1918.4,-185.815"/>
<text text-anchor="start" x="1927.5" y="-229.265" font-family="Helvetica,sans-Serif" font-size="10.00"> &lt; Type, RawSize&#45;sizeof</text>
<text text-anchor="middle" x="1982" y="-216.265" font-family="Helvetica,sans-Serif" font-size="10.00">(Type)&gt;</text>
</g>
<!-- Node21 -->
<g id="node47" class="node"><title>Node21</title>
<a xlink:href="classstxxl_1_1mng__local_1_1expand__struct.html" target="_top" xlink:title="Helper to compute the size of the filler , not intended for direct use. ">
<polygon fill="none" stroke="black" points="2275,-227.265 2275,-261.265 2407,-261.265 2407,-227.265 2275,-227.265"/>
<text text-anchor="start" x="2283" y="-248.265" font-family="Helvetica,sans-Serif" font-size="10.00">stxxl::mng_local::expand</text>
<text text-anchor="middle" x="2341" y="-235.265" font-family="Helvetica,sans-Serif" font-size="10.00">_struct&lt; Type, RawSize &gt;</text>
</a>
</g>
<!-- Node21&#45;&gt;Node4 -->
<g id="edge54" class="edge"><title>Node21&#45;&gt;Node4</title>
<path fill="none" stroke="orange" stroke-dasharray="5,2" d="M2417.38,-242.138C2432.18,-241.792 2447.57,-241.478 2462,-241.265 2505.79,-240.619 2554.68,-240.357 2594.47,-240.262"/>
<polygon fill="orange" stroke="orange" points="2417.16,-238.642 2407.25,-242.382 2417.33,-245.64 2417.16,-238.642"/>
<text text-anchor="start" x="2462" y="-284.265" font-family="Helvetica,sans-Serif" font-size="10.00"> &lt; mng_local::block</text>
<text text-anchor="start" x="2462" y="-271.265" font-family="Helvetica,sans-Serif" font-size="10.00">_w_info&lt; Type, RawSize,</text>
<text text-anchor="start" x="2462" y="-258.265" font-family="Helvetica,sans-Serif" font-size="10.00"> NRef, MetaInfoType &gt;,</text>
<text text-anchor="middle" x="2519" y="-245.265" font-family="Helvetica,sans-Serif" font-size="10.00"> RawSize &gt;</text>
</g>
<!-- Node22&#45;&gt;Node21 -->
<g id="edge56" class="edge"><title>Node22&#45;&gt;Node21</title>
<path fill="none" stroke="midnightblue" d="M2196.4,-251.732C2221.57,-250.432 2250.02,-248.963 2274.97,-247.675"/>
<polygon fill="midnightblue" stroke="midnightblue" points="2196.01,-248.248 2186.2,-252.259 2196.37,-255.238 2196.01,-248.248"/>
</g>
<!-- Node23 -->
<g id="node53" class="node"><title>Node23</title>
<a xlink:href="structstxxl_1_1btree_1_1normal__node_1_1value__compare.html" target="_top" xlink:title="stxxl::btree::normal\l_node\&lt; KeyType, KeyCmp,\l RawSize, BTreeType \&gt;::\lvalue_compare">
<polygon fill="none" stroke="black" points="2792,-149.265 2792,-209.265 2930,-209.265 2930,-149.265 2792,-149.265"/>
<text text-anchor="start" x="2800" y="-196.265" font-family="Helvetica,sans-Serif" font-size="10.00">stxxl::btree::normal</text>
<text text-anchor="start" x="2800" y="-183.265" font-family="Helvetica,sans-Serif" font-size="10.00">_node&lt; KeyType, KeyCmp,</text>
<text text-anchor="start" x="2800" y="-170.265" font-family="Helvetica,sans-Serif" font-size="10.00"> RawSize, BTreeType &gt;::</text>
<text text-anchor="middle" x="2861" y="-157.265" font-family="Helvetica,sans-Serif" font-size="10.00">value_compare</text>
</a>
</g>
<!-- Node23&#45;&gt;Node1 -->
<g id="edge62" class="edge"><title>Node23&#45;&gt;Node1</title>
<path fill="none" stroke="#9a32cd" stroke-dasharray="5,2" d="M2939.97,-205.588C2962.19,-212.995 2986.18,-220.992 3007.79,-228.194"/>
<polygon fill="#9a32cd" stroke="#9a32cd" points="2940.83,-202.185 2930.24,-202.343 2938.62,-208.826 2940.83,-202.185"/>
<text text-anchor="middle" x="2969" y="-226.265" font-family="Helvetica,sans-Serif" font-size="10.00"> m_vcmp</text>
</g>
</g>
</svg>
