<?xml version="1.0" encoding="UTF-8" standalone="no"?>
<!DOCTYPE svg PUBLIC "-//W3C//DTD SVG 1.1//EN"
 "http://www.w3.org/Graphics/SVG/1.1/DTD/svg11.dtd">
<!-- Generated by graphviz version 2.26.3 (20100126.1600)
 -->
<!-- Title: stxxl::stream::runs_creator&lt; Input_, CompareType_, BlockSize_, AllocStr_ &gt; Pages: 1 -->
<svg width="1454pt" height="155pt"
 viewBox="0.00 0.00 1454.00 155.00" xmlns="http://www.w3.org/2000/svg" xmlns:xlink="http://www.w3.org/1999/xlink">
<g id="graph1" class="graph" transform="scale(1 1) rotate(0) translate(4 151)">
<title>stxxl::stream::runs_creator&lt; Input_, CompareType_, BlockSize_, AllocStr_ &gt;</title>
<!-- Node1 -->
<g id="node1" class="node"><title>Node1</title>
<polygon fill="#bfbfbf" stroke="black" points="1290.5,-54.5 1290.5,-101.5 1445.5,-101.5 1445.5,-54.5 1290.5,-54.5"/>
<text text-anchor="start" x="1298.5" y="-88.5" font-family="Helvetica,sans-Serif" font-size="10.00">stxxl::stream::runs</text>
<text text-anchor="start" x="1298.5" y="-75.5" font-family="Helvetica,sans-Serif" font-size="10.00">_creator&lt; Input_, CompareType</text>
<text text-anchor="middle" x="1368" y="-62.5" font-family="Helvetica,sans-Serif" font-size="10.00">_, BlockSize_, AllocStr_ &gt;</text>
</g>
<!-- Node2 -->
<g id="node2" class="node"><title>Node2</title>
<a xlink:href="classstxxl_1_1stream_1_1basic__runs__creator.html" target="_top" xlink:title="Forms sorted runs of data from a stream. ">
<polygon fill="none" stroke="black" points="1106.5,-48 1106.5,-108 1251.5,-108 1251.5,-48 1106.5,-48"/>
<text text-anchor="start" x="1114.5" y="-95" font-family="Helvetica,sans-Serif" font-size="10.00">stxxl::stream::basic</text>
<text text-anchor="start" x="1114.5" y="-82" font-family="Helvetica,sans-Serif" font-size="10.00">_runs_creator&lt; Input</text>
<text text-anchor="start" x="1114.5" y="-69" font-family="Helvetica,sans-Serif" font-size="10.00">_, CompareType_, BlockSize</text>
<text text-anchor="middle" x="1179" y="-56" font-family="Helvetica,sans-Serif" font-size="10.00">_, AllocStr_ &gt;</text>
</a>
</g>
<!-- Node2&#45;&gt;Node1 -->
<g id="edge2" class="edge"><title>Node2&#45;&gt;Node1</title>
<path fill="none" stroke="midnightblue" d="M1261.75,-78C1271.25,-78 1280.9,-78 1290.33,-78"/>
<polygon fill="midnightblue" stroke="midnightblue" points="1261.53,-74.5001 1251.53,-78 1261.53,-81.5001 1261.53,-74.5001"/>
</g>
<!-- Node3 -->
<g id="node4" class="node"><title>Node3</title>
<a xlink:href="classstxxl_1_1noncopyable.html" target="_top" xlink:title="stxxl::noncopyable">
<polygon fill="none" stroke="black" points="500,-125.5 500,-146.5 598,-146.5 598,-125.5 500,-125.5"/>
<text text-anchor="middle" x="549" y="-133.5" font-family="Helvetica,sans-Serif" font-size="10.00">stxxl::noncopyable</text>
</a>
</g>
<!-- Node3&#45;&gt;Node2 -->
<g id="edge4" class="edge"><title>Node3&#45;&gt;Node2</title>
<path fill="none" stroke="#8b1a1a" d="M608.329,-139.667C619.51,-140.223 631.11,-140.707 642,-141 698.868,-142.528 713.255,-145.048 770,-141 885.546,-132.757 913.387,-120.814 1028,-104 1054.68,-100.086 1061.41,-99.4766 1088,-95 1093.86,-94.0128 1099.93,-92.9558 1106.03,-91.8699"/>
<polygon fill="#8b1a1a" stroke="#8b1a1a" points="608.379,-136.165 598.21,-139.14 608.015,-143.155 608.379,-136.165"/>
</g>
<!-- Node5 -->
<g id="node8" class="node"><title>Node5</title>
<a xlink:href="structstxxl_1_1stream_1_1sorted__runs.html" target="_top" xlink:title="All sorted runs of a sort operation. ">
<polygon fill="none" stroke="black" points="642,-84.5 642,-131.5 770,-131.5 770,-84.5 642,-84.5"/>
<text text-anchor="start" x="650" y="-118.5" font-family="Helvetica,sans-Serif" font-size="10.00">stxxl::stream::sorted</text>
<text text-anchor="start" x="650" y="-105.5" font-family="Helvetica,sans-Serif" font-size="10.00">_runs&lt; TriggerEntryType,</text>
<text text-anchor="middle" x="706" y="-92.5" font-family="Helvetica,sans-Serif" font-size="10.00"> CompareType &gt;</text>
</a>
</g>
<!-- Node3&#45;&gt;Node5 -->
<g id="edge10" class="edge"><title>Node3&#45;&gt;Node5</title>
<path fill="none" stroke="#8b1a1a" d="M608.189,-125.444C619.212,-123.478 630.777,-121.416 641.939,-119.425"/>
<polygon fill="#8b1a1a" stroke="#8b1a1a" points="607.475,-122.016 598.245,-127.217 608.704,-128.907 607.475,-122.016"/>
</g>
<!-- Node4 -->
<g id="node6" class="node"><title>Node4</title>
<a xlink:href="classstxxl_1_1counting__ptr.html" target="_top" xlink:title="stxxl::counting_ptr\l\&lt; sorted_runs_data_type \&gt;">
<polygon fill="none" stroke="black" points="894,-61 894,-95 1028,-95 1028,-61 894,-61"/>
<text text-anchor="start" x="902" y="-82" font-family="Helvetica,sans-Serif" font-size="10.00">stxxl::counting_ptr</text>
<text text-anchor="middle" x="961" y="-69" font-family="Helvetica,sans-Serif" font-size="10.00">&lt; sorted_runs_data_type &gt;</text>
</a>
</g>
<!-- Node4&#45;&gt;Node2 -->
<g id="edge6" class="edge"><title>Node4&#45;&gt;Node2</title>
<path fill="none" stroke="#9a32cd" stroke-dasharray="5,2" d="M1038.22,-78C1060.39,-78 1084.47,-78 1106.35,-78"/>
<polygon fill="#9a32cd" stroke="#9a32cd" points="1038.19,-74.5001 1028.19,-78 1038.19,-81.5001 1038.19,-74.5001"/>
<text text-anchor="middle" x="1067" y="-82" font-family="Helvetica,sans-Serif" font-size="10.00"> m_result</text>
</g>
<!-- Node5&#45;&gt;Node4 -->
<g id="edge8" class="edge"><title>Node5&#45;&gt;Node4</title>
<path fill="none" stroke="#9a32cd" stroke-dasharray="5,2" d="M779.964,-99.2984C815.923,-95.0679 858.823,-90.0208 893.835,-85.9018"/>
<polygon fill="#9a32cd" stroke="#9a32cd" points="779.541,-95.8239 770.018,-100.468 780.359,-102.776 779.541,-95.8239"/>
<text text-anchor="middle" x="832" y="-102" font-family="Helvetica,sans-Serif" font-size="10.00"> m_ptr</text>
</g>
<!-- Node6 -->
<g id="node11" class="node"><title>Node6</title>
<a xlink:href="classstxxl_1_1counted__object.html" target="_top" xlink:title="Provides reference counting abilities for use with counting_ptr. ">
<polygon fill="none" stroke="black" points="494,-60.5 494,-81.5 604,-81.5 604,-60.5 494,-60.5"/>
<text text-anchor="middle" x="549" y="-68.5" font-family="Helvetica,sans-Serif" font-size="10.00">stxxl::counted_object</text>
</a>
</g>
<!-- Node6&#45;&gt;Node5 -->
<g id="edge12" class="edge"><title>Node6&#45;&gt;Node5</title>
<path fill="none" stroke="midnightblue" d="M603.341,-83.8064C615.799,-86.7424 629.156,-89.8903 641.979,-92.9123"/>
<polygon fill="midnightblue" stroke="midnightblue" points="604.106,-80.391 593.57,-81.5037 602.5,-87.2043 604.106,-80.391"/>
</g>
<!-- Node7 -->
<g id="node13" class="node"><title>Node7</title>
<a xlink:href="structstxxl_1_1choose__int__types.html" target="_top" xlink:title="stxxl::choose_int_types\l\&lt; my_pointer_size \&gt;">
<polygon fill="none" stroke="black" points="250,-0 250,-34 370,-34 370,-0 250,-0"/>
<text text-anchor="start" x="258" y="-21" font-family="Helvetica,sans-Serif" font-size="10.00">stxxl::choose_int_types</text>
<text text-anchor="middle" x="310" y="-8" font-family="Helvetica,sans-Serif" font-size="10.00">&lt; my_pointer_size &gt;</text>
</a>
</g>
<!-- Node7&#45;&gt;Node2 -->
<g id="edge20" class="edge"><title>Node7&#45;&gt;Node2</title>
<path fill="none" stroke="#9a32cd" stroke-dasharray="5,2" d="M380.522,-9.79434C428.069,-5.54791 492.241,-1 549,-1 549,-1 549,-1 961,-1 1019.8,-1 1082.7,-26.2166 1125.74,-47.7886"/>
<polygon fill="#9a32cd" stroke="#9a32cd" points="379.975,-6.32958 370.334,-10.7223 380.61,-13.3007 379.975,-6.32958"/>
<text text-anchor="middle" x="706" y="-5" font-family="Helvetica,sans-Serif" font-size="10.00"> m_memsize</text>
</g>
<!-- Node7&#45;&gt;Node6 -->
<g id="edge14" class="edge"><title>Node7&#45;&gt;Node6</title>
<path fill="none" stroke="#9a32cd" stroke-dasharray="5,2" d="M379.81,-32.7729C419.184,-41.6691 467.315,-52.5439 502.16,-60.4169"/>
<polygon fill="#9a32cd" stroke="#9a32cd" points="380.527,-29.3468 370.001,-30.5568 378.984,-36.1747 380.527,-29.3468"/>
<text text-anchor="middle" x="432" y="-57" font-family="Helvetica,sans-Serif" font-size="10.00"> m_reference_count</text>
</g>
<!-- Node8 -->
<g id="node15" class="node"><title>Node8</title>
<a xlink:href="structstxxl_1_1choose__int__types.html" target="_top" xlink:title="stxxl::choose_int_types\l\&lt; PtrSize \&gt;">
<polygon fill="none" stroke="black" points="0,-0 0,-34 120,-34 120,-0 0,-0"/>
<text text-anchor="start" x="8" y="-21" font-family="Helvetica,sans-Serif" font-size="10.00">stxxl::choose_int_types</text>
<text text-anchor="middle" x="60" y="-8" font-family="Helvetica,sans-Serif" font-size="10.00">&lt; PtrSize &gt;</text>
</a>
</g>
<!-- Node8&#45;&gt;Node7 -->
<g id="edge16" class="edge"><title>Node8&#45;&gt;Node7</title>
<path fill="none" stroke="orange" stroke-dasharray="5,2" d="M130.578,-17C168.196,-17 213.985,-17 249.89,-17"/>
<polygon fill="orange" stroke="orange" points="130.199,-13.5001 120.199,-17 130.199,-20.5001 130.199,-13.5001"/>
<text text-anchor="middle" x="185" y="-21" font-family="Helvetica,sans-Serif" font-size="10.00"> &lt; my_pointer_size &gt;</text>
</g>
<!-- Node9 -->
<g id="node17" class="node"><title>Node9</title>
<a xlink:href="classstxxl_1_1counting__ptr.html" target="_top" xlink:title="High&#45;performance smart pointer used as a wrapping reference counting pointer. ">
<polygon fill="none" stroke="black" points="657.5,-32 657.5,-66 754.5,-66 754.5,-32 657.5,-32"/>
<text text-anchor="start" x="665.5" y="-53" font-family="Helvetica,sans-Serif" font-size="10.00">stxxl::counting_ptr</text>
<text text-anchor="middle" x="706" y="-40" font-family="Helvetica,sans-Serif" font-size="10.00">&lt; Type &gt;</text>
</a>
</g>
<!-- Node9&#45;&gt;Node4 -->
<g id="edge18" class="edge"><title>Node9&#45;&gt;Node4</title>
<path fill="none" stroke="orange" stroke-dasharray="5,2" d="M764.978,-47.7769C797.829,-47.9217 839.374,-49.4731 876,-55 885.523,-56.4371 895.507,-58.5598 905.148,-60.9436"/>
<polygon fill="orange" stroke="orange" points="764.635,-44.277 754.635,-47.7761 764.634,-51.277 764.635,-44.277"/>
<text text-anchor="start" x="788" y="-72" font-family="Helvetica,sans-Serif" font-size="10.00"> &lt; sorted_runs_data</text>
<text text-anchor="middle" x="832" y="-59" font-family="Helvetica,sans-Serif" font-size="10.00">_type &gt;</text>
</g>
</g>
</svg>
