<?xml version="1.0" encoding="UTF-8" standalone="no"?>
<!DOCTYPE svg PUBLIC "-//W3C//DTD SVG 1.1//EN"
 "http://www.w3.org/Graphics/SVG/1.1/DTD/svg11.dtd">
<!-- Generated by graphviz version 2.26.3 (20100126.1600)
 -->
<!-- Title: stxxl::parallel::LoserTreeCopyUnguarded&lt; Stable, ValueType, Comparator &gt; Pages: 1 -->
<svg width="580pt" height="96pt"
 viewBox="0.00 0.00 580.00 96.00" xmlns="http://www.w3.org/2000/svg" xmlns:xlink="http://www.w3.org/1999/xlink">
<g id="graph1" class="graph" transform="scale(1 1) rotate(0) translate(4 92)">
<title>stxxl::parallel::LoserTreeCopyUnguarded&lt; Stable, ValueType, Comparator &gt;</title>
<!-- Node1 -->
<g id="node1" class="node"><title>Node1</title>
<polygon fill="#bfbfbf" stroke="black" points="440,-26.5 440,-73.5 572,-73.5 572,-26.5 440,-26.5"/>
<text text-anchor="start" x="448" y="-60.5" font-family="Helvetica,sans-Serif" font-size="10.00">stxxl::parallel::LoserTree</text>
<text text-anchor="start" x="448" y="-47.5" font-family="Helvetica,sans-Serif" font-size="10.00">CopyUnguarded&lt; Stable,</text>
<text text-anchor="middle" x="506" y="-34.5" font-family="Helvetica,sans-Serif" font-size="10.00"> ValueType, Comparator &gt;</text>
</g>
<!-- Node2 -->
<g id="node2" class="node"><title>Node2</title>
<a xlink:href="classstxxl_1_1parallel_1_1LoserTreeCopyUnguardedBase.html" target="_top" xlink:title="stxxl::parallel::LoserTree\lCopyUnguardedBase\&lt; ValueType,\l Comparator \&gt;">
<polygon fill="none" stroke="black" points="234,-26.5 234,-73.5 402,-73.5 402,-26.5 234,-26.5"/>
<text text-anchor="start" x="242" y="-60.5" font-family="Helvetica,sans-Serif" font-size="10.00">stxxl::parallel::LoserTree</text>
<text text-anchor="start" x="242" y="-47.5" font-family="Helvetica,sans-Serif" font-size="10.00">CopyUnguardedBase&lt; ValueType,</text>
<text text-anchor="middle" x="318" y="-34.5" font-family="Helvetica,sans-Serif" font-size="10.00"> Comparator &gt;</text>
</a>
</g>
<!-- Node2&#45;&gt;Node1 -->
<g id="edge2" class="edge"><title>Node2&#45;&gt;Node1</title>
<path fill="none" stroke="midnightblue" d="M412.186,-50C421.494,-50 430.799,-50 439.737,-50"/>
<polygon fill="midnightblue" stroke="midnightblue" points="412.102,-46.5001 402.102,-50 412.102,-53.5001 412.102,-46.5001"/>
</g>
<!-- Node3 -->
<g id="node4" class="node"><title>Node3</title>
<a xlink:href="classstxxl_1_1noncopyable.html" target="_top" xlink:title="stxxl::noncopyable">
<polygon fill="none" stroke="black" points="35,-66.5 35,-87.5 133,-87.5 133,-66.5 35,-66.5"/>
<text text-anchor="middle" x="84" y="-74.5" font-family="Helvetica,sans-Serif" font-size="10.00">stxxl::noncopyable</text>
</a>
</g>
<!-- Node3&#45;&gt;Node2 -->
<g id="edge4" class="edge"><title>Node3&#45;&gt;Node2</title>
<path fill="none" stroke="#8b1a1a" d="M143.297,-70.158C170.797,-66.985 203.97,-63.1573 233.988,-59.6937"/>
<polygon fill="#8b1a1a" stroke="#8b1a1a" points="142.587,-66.7167 133.054,-71.3399 143.389,-73.6705 142.587,-66.7167"/>
</g>
<!-- Node4 -->
<g id="node6" class="node"><title>Node4</title>
<a xlink:href="structstxxl_1_1parallel_1_1LoserTreeCopyUnguardedBase_1_1Loser.html" target="_top" xlink:title="Internal representation of a loser tree player/node. ">
<polygon fill="none" stroke="black" points="0,-0.5 0,-47.5 168,-47.5 168,-0.5 0,-0.5"/>
<text text-anchor="start" x="8" y="-34.5" font-family="Helvetica,sans-Serif" font-size="10.00">stxxl::parallel::LoserTree</text>
<text text-anchor="start" x="8" y="-21.5" font-family="Helvetica,sans-Serif" font-size="10.00">CopyUnguardedBase&lt; ValueType,</text>
<text text-anchor="middle" x="84" y="-8.5" font-family="Helvetica,sans-Serif" font-size="10.00"> Comparator &gt;::Loser</text>
</a>
</g>
<!-- Node4&#45;&gt;Node2 -->
<g id="edge6" class="edge"><title>Node4&#45;&gt;Node2</title>
<path fill="none" stroke="#9a32cd" stroke-dasharray="5,2" d="M178.264,-34.4738C196.638,-36.5153 215.79,-38.6433 233.812,-40.6458"/>
<polygon fill="#9a32cd" stroke="#9a32cd" points="178.474,-30.9757 168.149,-33.3499 177.701,-37.9329 178.474,-30.9757"/>
<text text-anchor="middle" x="201" y="-42" font-family="Helvetica,sans-Serif" font-size="10.00"> losers</text>
</g>
</g>
</svg>
