<?xml version="1.0" encoding="UTF-8" standalone="no"?>
<!DOCTYPE svg PUBLIC "-//W3C//DTD SVG 1.1//EN"
 "http://www.w3.org/Graphics/SVG/1.1/DTD/svg11.dtd">
<!-- Generated by graphviz version 2.26.3 (20100126.1600)
 -->
<!-- Title: stxxl::vector_bufwriter&lt; VectorIteratorType &gt; Pages: 1 -->
<svg width="1008pt" height="259pt"
 viewBox="0.00 0.00 1008.00 259.00" xmlns="http://www.w3.org/2000/svg" xmlns:xlink="http://www.w3.org/1999/xlink">
<g id="graph1" class="graph" transform="scale(1 1) rotate(0) translate(4 255)">
<title>stxxl::vector_bufwriter&lt; VectorIteratorType &gt;</title>
<!-- Node1 -->
<g id="node1" class="node"><title>Node1</title>
<polygon fill="#bfbfbf" stroke="black" points="884,-193 884,-227 1000,-227 1000,-193 884,-193"/>
<text text-anchor="start" x="892" y="-214" font-family="Helvetica,sans-Serif" font-size="10.00">stxxl::vector_bufwriter</text>
<text text-anchor="middle" x="942" y="-201" font-family="Helvetica,sans-Serif" font-size="10.00">&lt; VectorIteratorType &gt;</text>
</g>
<!-- Node2 -->
<g id="node2" class="node"><title>Node2</title>
<a xlink:href="classstxxl_1_1noncopyable.html" target="_top" xlink:title="stxxl::noncopyable">
<polygon fill="none" stroke="black" points="0,-114.5 0,-135.5 98,-135.5 98,-114.5 0,-114.5"/>
<text text-anchor="middle" x="49" y="-122.5" font-family="Helvetica,sans-Serif" font-size="10.00">stxxl::noncopyable</text>
</a>
</g>
<!-- Node2&#45;&gt;Node1 -->
<g id="edge2" class="edge"><title>Node2&#45;&gt;Node1</title>
<path fill="none" stroke="midnightblue" d="M64.2032,-143.812C94.44,-178.943 165.969,-251 244,-251 244,-251 244,-251 727,-251 781.149,-251 841.632,-238.296 884.62,-227.032"/>
<polygon fill="midnightblue" stroke="midnightblue" points="66.5379,-141.15 57.4268,-135.743 61.1772,-145.652 66.5379,-141.15"/>
</g>
<!-- Node5 -->
<g id="node8" class="node"><title>Node5</title>
<a xlink:href="classstxxl_1_1buf__ostream.html" target="_top" xlink:title="Buffered output stream. ">
<polygon fill="none" stroke="black" points="650,-136 650,-170 804,-170 804,-136 650,-136"/>
<text text-anchor="start" x="658" y="-157" font-family="Helvetica,sans-Serif" font-size="10.00">stxxl::buf_ostream</text>
<text text-anchor="middle" x="727" y="-144" font-family="Helvetica,sans-Serif" font-size="10.00">&lt; BlockType, BidIteratorType &gt;</text>
</a>
</g>
<!-- Node2&#45;&gt;Node5 -->
<g id="edge10" class="edge"><title>Node2&#45;&gt;Node5</title>
<path fill="none" stroke="#8b1a1a" d="M108.224,-129.538C110.851,-129.702 113.452,-129.857 116,-130 307.832,-140.765 533.837,-147.805 649.796,-151.006"/>
<polygon fill="#8b1a1a" stroke="#8b1a1a" points="108.227,-126.031 98.0193,-128.868 107.768,-133.016 108.227,-126.031"/>
</g>
<!-- Node6 -->
<g id="node12" class="node"><title>Node6</title>
<a xlink:href="classstxxl_1_1buffered__writer.html" target="_top" xlink:title="stxxl::buffered_writer\l\&lt; block_type \&gt;">
<polygon fill="none" stroke="black" points="440,-66 440,-100 548,-100 548,-66 440,-66"/>
<text text-anchor="start" x="448" y="-87" font-family="Helvetica,sans-Serif" font-size="10.00">stxxl::buffered_writer</text>
<text text-anchor="middle" x="494" y="-74" font-family="Helvetica,sans-Serif" font-size="10.00">&lt; block_type &gt;</text>
</a>
</g>
<!-- Node2&#45;&gt;Node6 -->
<g id="edge16" class="edge"><title>Node2&#45;&gt;Node6</title>
<path fill="none" stroke="#8b1a1a" d="M108.295,-119.404C195.248,-111.197 356.096,-96.0157 439.957,-88.1007"/>
<polygon fill="#8b1a1a" stroke="#8b1a1a" points="107.95,-115.921 98.323,-120.345 108.608,-122.89 107.95,-115.921"/>
</g>
<!-- Node8 -->
<g id="node17" class="node"><title>Node8</title>
<a xlink:href="classstxxl_1_1buffered__writer.html" target="_top" xlink:title="Encapsulates asynchronous buffered block writing engine. ">
<polygon fill="none" stroke="black" points="190,-0 190,-34 298,-34 298,-0 190,-0"/>
<text text-anchor="start" x="198" y="-21" font-family="Helvetica,sans-Serif" font-size="10.00">stxxl::buffered_writer</text>
<text text-anchor="middle" x="244" y="-8" font-family="Helvetica,sans-Serif" font-size="10.00">&lt; BlockType &gt;</text>
</a>
</g>
<!-- Node2&#45;&gt;Node8 -->
<g id="edge22" class="edge"><title>Node2&#45;&gt;Node8</title>
<path fill="none" stroke="#8b1a1a" d="M76.1051,-109.101C103.232,-93.2925 146.248,-68.5074 184,-48 192.448,-43.4107 201.64,-38.5808 210.233,-34.1354"/>
<polygon fill="#8b1a1a" stroke="#8b1a1a" points="74.0781,-106.231 67.2072,-114.296 77.6077,-112.276 74.0781,-106.231"/>
</g>
<!-- Node3 -->
<g id="node4" class="node"><title>Node3</title>
<a xlink:href="structstxxl_1_1choose__int__types.html" target="_top" xlink:title="stxxl::choose_int_types\l\&lt; my_pointer_size \&gt;">
<polygon fill="none" stroke="black" points="434,-183 434,-217 554,-217 554,-183 434,-183"/>
<text text-anchor="start" x="442" y="-204" font-family="Helvetica,sans-Serif" font-size="10.00">stxxl::choose_int_types</text>
<text text-anchor="middle" x="494" y="-191" font-family="Helvetica,sans-Serif" font-size="10.00">&lt; my_pointer_size &gt;</text>
</a>
</g>
<!-- Node3&#45;&gt;Node1 -->
<g id="edge4" class="edge"><title>Node3&#45;&gt;Node1</title>
<path fill="none" stroke="#9a32cd" stroke-dasharray="5,2" d="M564.601,-201.576C652.804,-203.545 802.07,-206.877 883.956,-208.704"/>
<polygon fill="#9a32cd" stroke="#9a32cd" points="564.495,-198.073 554.419,-201.349 564.339,-205.071 564.495,-198.073"/>
<text text-anchor="middle" x="727" y="-210" font-family="Helvetica,sans-Serif" font-size="10.00"> m_nbuffers</text>
</g>
<!-- Node3&#45;&gt;Node5 -->
<g id="edge12" class="edge"><title>Node3&#45;&gt;Node5</title>
<path fill="none" stroke="#9a32cd" stroke-dasharray="5,2" d="M563.94,-184.674C566.661,-184.104 569.355,-183.544 572,-183 597.236,-177.808 624.838,-172.385 649.665,-167.599"/>
<polygon fill="#9a32cd" stroke="#9a32cd" points="563.074,-181.279 554.014,-186.772 564.522,-188.128 563.074,-181.279"/>
<text text-anchor="middle" x="602" y="-187" font-family="Helvetica,sans-Serif" font-size="10.00"> current_elem</text>
</g>
<!-- Node4 -->
<g id="node6" class="node"><title>Node4</title>
<a xlink:href="structstxxl_1_1choose__int__types.html" target="_top" xlink:title="stxxl::choose_int_types\l\&lt; PtrSize \&gt;">
<polygon fill="none" stroke="black" points="184,-183 184,-217 304,-217 304,-183 184,-183"/>
<text text-anchor="start" x="192" y="-204" font-family="Helvetica,sans-Serif" font-size="10.00">stxxl::choose_int_types</text>
<text text-anchor="middle" x="244" y="-191" font-family="Helvetica,sans-Serif" font-size="10.00">&lt; PtrSize &gt;</text>
</a>
</g>
<!-- Node4&#45;&gt;Node3 -->
<g id="edge6" class="edge"><title>Node4&#45;&gt;Node3</title>
<path fill="none" stroke="orange" stroke-dasharray="5,2" d="M314.578,-200C352.196,-200 397.985,-200 433.89,-200"/>
<polygon fill="orange" stroke="orange" points="314.199,-196.5 304.199,-200 314.199,-203.5 314.199,-196.5"/>
<text text-anchor="middle" x="369" y="-204" font-family="Helvetica,sans-Serif" font-size="10.00"> &lt; my_pointer_size &gt;</text>
</g>
<!-- Node5&#45;&gt;Node1 -->
<g id="edge8" class="edge"><title>Node5&#45;&gt;Node1</title>
<path fill="none" stroke="#9a32cd" stroke-dasharray="5,2" d="M814.328,-170.047C831.554,-173.915 849.425,-178.288 866,-183 876.102,-185.872 886.807,-189.378 896.896,-192.901"/>
<polygon fill="#9a32cd" stroke="#9a32cd" points="814.793,-166.566 804.274,-167.829 813.285,-173.402 814.793,-166.566"/>
<text text-anchor="middle" x="844" y="-187" font-family="Helvetica,sans-Serif" font-size="10.00"> m_bufout</text>
</g>
<!-- Node6&#45;&gt;Node5 -->
<g id="edge14" class="edge"><title>Node6&#45;&gt;Node5</title>
<path fill="none" stroke="#9a32cd" stroke-dasharray="5,2" d="M558.008,-100.515C581.356,-107.055 607.929,-114.674 632,-122 646.274,-126.344 661.678,-131.268 675.843,-135.892"/>
<polygon fill="#9a32cd" stroke="#9a32cd" points="558.789,-97.099 548.216,-97.782 556.907,-103.841 558.789,-97.099"/>
<text text-anchor="middle" x="602" y="-126" font-family="Helvetica,sans-Serif" font-size="10.00"> writer</text>
</g>
<!-- Node7 -->
<g id="node15" class="node"><title>Node7</title>
<a xlink:href="classstxxl_1_1counting__ptr.html" target="_top" xlink:title="High&#45;performance smart pointer used as a wrapping reference counting pointer. ">
<polygon fill="none" stroke="black" points="0.5,-38 0.5,-72 97.5,-72 97.5,-38 0.5,-38"/>
<text text-anchor="start" x="8.5" y="-59" font-family="Helvetica,sans-Serif" font-size="10.00">stxxl::counting_ptr</text>
<text text-anchor="middle" x="49" y="-46" font-family="Helvetica,sans-Serif" font-size="10.00">&lt; Type &gt;</text>
</a>
</g>
<!-- Node7&#45;&gt;Node6 -->
<g id="edge18" class="edge"><title>Node7&#45;&gt;Node6</title>
<path fill="none" stroke="#9a32cd" stroke-dasharray="5,2" d="M108.112,-58.7194C194.981,-64.1853 355.881,-74.3094 439.835,-79.5919"/>
<polygon fill="#9a32cd" stroke="#9a32cd" points="108.096,-55.2116 97.8957,-58.0766 107.656,-62.1977 108.096,-55.2116"/>
<text text-anchor="middle" x="244" y="-74" font-family="Helvetica,sans-Serif" font-size="10.00"> write_reqs</text>
</g>
<!-- Node7&#45;&gt;Node8 -->
<g id="edge24" class="edge"><title>Node7&#45;&gt;Node8</title>
<path fill="none" stroke="#9a32cd" stroke-dasharray="5,2" d="M81.6869,-32.7226C92.185,-26.7523 104.169,-21.099 116,-18 139.755,-11.7776 166.851,-10.7406 189.978,-11.5718"/>
<polygon fill="#9a32cd" stroke="#9a32cd" points="79.6655,-29.8535 72.8851,-37.9946 83.2624,-35.8587 79.6655,-29.8535"/>
<text text-anchor="middle" x="141" y="-22" font-family="Helvetica,sans-Serif" font-size="10.00"> write_reqs</text>
</g>
<!-- Node8&#45;&gt;Node6 -->
<g id="edge20" class="edge"><title>Node8&#45;&gt;Node6</title>
<path fill="none" stroke="orange" stroke-dasharray="5,2" d="M308.471,-21.7577C341.252,-25.4202 381.375,-31.8347 416,-43 433.381,-48.6047 451.606,-57.7441 466.065,-65.8729"/>
<polygon fill="orange" stroke="orange" points="308.414,-18.2324 298.102,-20.6628 307.679,-25.1937 308.414,-18.2324"/>
<text text-anchor="middle" x="369" y="-47" font-family="Helvetica,sans-Serif" font-size="10.00"> &lt; block_type &gt;</text>
</g>
</g>
</svg>
