<?xml version="1.0" encoding="UTF-8" standalone="no"?>
<!DOCTYPE svg PUBLIC "-//W3C//DTD SVG 1.1//EN"
 "http://www.w3.org/Graphics/SVG/1.1/DTD/svg11.dtd">
<!-- Generated by graphviz version 2.26.3 (20100126.1600)
 -->
<!-- Title: stxxl::normal_stack&lt; StackConfig &gt; Pages: 1 -->
<svg width="720pt" height="145pt"
 viewBox="0.00 0.00 720.00 145.49" xmlns="http://www.w3.org/2000/svg" xmlns:xlink="http://www.w3.org/1999/xlink">
<g id="graph1" class="graph" transform="scale(1 1) rotate(0) translate(4 141.494)">
<title>stxxl::normal_stack&lt; StackConfig &gt;</title>
<!-- Node1 -->
<g id="node1" class="node"><title>Node1</title>
<polygon fill="#bfbfbf" stroke="black" points="610,-74 610,-108 712,-108 712,-74 610,-74"/>
<text text-anchor="start" x="618" y="-95" font-family="Helvetica,sans-Serif" font-size="10.00">stxxl::normal_stack</text>
<text text-anchor="middle" x="661" y="-82" font-family="Helvetica,sans-Serif" font-size="10.00">&lt; StackConfig &gt;</text>
</g>
<!-- Node2 -->
<g id="node2" class="node"><title>Node2</title>
<a xlink:href="classstxxl_1_1noncopyable.html" target="_top" xlink:title="stxxl::noncopyable">
<polygon fill="none" stroke="black" points="0,-103.5 0,-124.5 98,-124.5 98,-103.5 0,-103.5"/>
<text text-anchor="middle" x="49" y="-111.5" font-family="Helvetica,sans-Serif" font-size="10.00">stxxl::noncopyable</text>
</a>
</g>
<!-- Node2&#45;&gt;Node1 -->
<g id="edge2" class="edge"><title>Node2&#45;&gt;Node1</title>
<path fill="none" stroke="#8b1a1a" d="M108.32,-125.136C110.91,-125.461 113.479,-125.752 116,-126 300.032,-144.135 347.085,-132.222 532,-134 558.665,-134.256 566.362,-141.335 592,-134 609.777,-128.914 627.429,-117.773 640.428,-108.107"/>
<polygon fill="#8b1a1a" stroke="#8b1a1a" points="108.66,-121.65 98.2729,-123.736 107.694,-128.583 108.66,-121.65"/>
</g>
<!-- Node5 -->
<g id="node8" class="node"><title>Node5</title>
<a xlink:href="classstxxl_1_1simple__vector.html" target="_top" xlink:title="stxxl::simple_vector\l\&lt; stxxl::typed_block \&gt;">
<polygon fill="none" stroke="black" points="397,-74 397,-108 511,-108 511,-74 397,-74"/>
<text text-anchor="start" x="405" y="-95" font-family="Helvetica,sans-Serif" font-size="10.00">stxxl::simple_vector</text>
<text text-anchor="middle" x="454" y="-82" font-family="Helvetica,sans-Serif" font-size="10.00">&lt; stxxl::typed_block &gt;</text>
</a>
</g>
<!-- Node2&#45;&gt;Node5 -->
<g id="edge10" class="edge"><title>Node2&#45;&gt;Node5</title>
<path fill="none" stroke="#8b1a1a" d="M108.239,-112.747C173.805,-111.062 282.575,-107.38 376,-100 382.795,-99.4633 389.911,-98.7929 396.963,-98.0615"/>
<polygon fill="#8b1a1a" stroke="#8b1a1a" points="108.005,-109.252 98.0954,-113.001 108.18,-116.25 108.005,-109.252"/>
</g>
<!-- Node6 -->
<g id="node11" class="node"><title>Node6</title>
<a xlink:href="classstxxl_1_1simple__vector.html" target="_top" xlink:title="Simpler non&#45;growing vector without initialization. ">
<polygon fill="none" stroke="black" points="144,-52 144,-86 248,-86 248,-52 144,-52"/>
<text text-anchor="start" x="152" y="-73" font-family="Helvetica,sans-Serif" font-size="10.00">stxxl::simple_vector</text>
<text text-anchor="middle" x="196" y="-60" font-family="Helvetica,sans-Serif" font-size="10.00">&lt; ValueType &gt;</text>
</a>
</g>
<!-- Node2&#45;&gt;Node6 -->
<g id="edge14" class="edge"><title>Node2&#45;&gt;Node6</title>
<path fill="none" stroke="#8b1a1a" d="M93.0967,-100.501C109.082,-95.6076 127.289,-90.034 143.899,-84.9494"/>
<polygon fill="#8b1a1a" stroke="#8b1a1a" points="92.0024,-97.1756 83.465,-103.449 94.0515,-103.869 92.0024,-97.1756"/>
</g>
<!-- Node3 -->
<g id="node4" class="node"><title>Node3</title>
<a xlink:href="structstxxl_1_1choose__int__types.html" target="_top" xlink:title="stxxl::choose_int_types\l\&lt; my_pointer_size \&gt;">
<polygon fill="none" stroke="black" points="394,-8 394,-42 514,-42 514,-8 394,-8"/>
<text text-anchor="start" x="402" y="-29" font-family="Helvetica,sans-Serif" font-size="10.00">stxxl::choose_int_types</text>
<text text-anchor="middle" x="454" y="-16" font-family="Helvetica,sans-Serif" font-size="10.00">&lt; my_pointer_size &gt;</text>
</a>
</g>
<!-- Node3&#45;&gt;Node1 -->
<g id="edge4" class="edge"><title>Node3&#45;&gt;Node1</title>
<path fill="none" stroke="#9a32cd" stroke-dasharray="5,2" d="M517.41,-45.2176C547.042,-54.6655 581.86,-65.7669 609.788,-74.6717"/>
<polygon fill="#9a32cd" stroke="#9a32cd" points="518.168,-41.7857 507.577,-42.0825 516.041,-48.4549 518.168,-41.7857"/>
<text text-anchor="middle" x="562" y="-72" font-family="Helvetica,sans-Serif" font-size="10.00"> cache_offset</text>
</g>
<!-- Node4 -->
<g id="node6" class="node"><title>Node4</title>
<a xlink:href="structstxxl_1_1choose__int__types.html" target="_top" xlink:title="stxxl::choose_int_types\l\&lt; PtrSize \&gt;">
<polygon fill="none" stroke="black" points="136,-0 136,-34 256,-34 256,-0 136,-0"/>
<text text-anchor="start" x="144" y="-21" font-family="Helvetica,sans-Serif" font-size="10.00">stxxl::choose_int_types</text>
<text text-anchor="middle" x="196" y="-8" font-family="Helvetica,sans-Serif" font-size="10.00">&lt; PtrSize &gt;</text>
</a>
</g>
<!-- Node4&#45;&gt;Node3 -->
<g id="edge6" class="edge"><title>Node4&#45;&gt;Node3</title>
<path fill="none" stroke="orange" stroke-dasharray="5,2" d="M266.352,-19.1815C306.244,-20.4184 355.642,-21.9502 393.741,-23.1315"/>
<polygon fill="orange" stroke="orange" points="266.268,-15.6773 256.164,-18.8655 266.051,-22.6739 266.268,-15.6773"/>
<text text-anchor="middle" x="325" y="-27" font-family="Helvetica,sans-Serif" font-size="10.00"> &lt; my_pointer_size &gt;</text>
</g>
<!-- Node5&#45;&gt;Node1 -->
<g id="edge8" class="edge"><title>Node5&#45;&gt;Node1</title>
<path fill="none" stroke="#9a32cd" stroke-dasharray="5,2" d="M521.472,-91C550.165,-91 583.078,-91 609.73,-91"/>
<polygon fill="#9a32cd" stroke="#9a32cd" points="521.112,-87.5001 511.112,-91 521.112,-94.5001 521.112,-87.5001"/>
<text text-anchor="middle" x="562" y="-121" font-family="Helvetica,sans-Serif" font-size="10.00"> back_page</text>
<text text-anchor="middle" x="562" y="-108" font-family="Helvetica,sans-Serif" font-size="10.00">front_page</text>
<text text-anchor="middle" x="562" y="-95" font-family="Helvetica,sans-Serif" font-size="10.00">cache</text>
</g>
<!-- Node6&#45;&gt;Node5 -->
<g id="edge12" class="edge"><title>Node6&#45;&gt;Node5</title>
<path fill="none" stroke="orange" stroke-dasharray="5,2" d="M258.367,-74.3181C300.572,-77.917 355.895,-82.6344 396.936,-86.1341"/>
<polygon fill="orange" stroke="orange" points="258.471,-70.8144 248.21,-73.452 257.877,-77.7891 258.471,-70.8144"/>
<text text-anchor="middle" x="325" y="-87" font-family="Helvetica,sans-Serif" font-size="10.00"> &lt; stxxl::typed_block &gt;</text>
</g>
</g>
</svg>
