<?xml version="1.0" encoding="UTF-8" standalone="no"?>
<!DOCTYPE svg PUBLIC "-//W3C//DTD SVG 1.1//EN"
 "http://www.w3.org/Graphics/SVG/1.1/DTD/svg11.dtd">
<!-- Generated by graphviz version 2.26.3 (20100126.1600)
 -->
<!-- Title: stxxl::stream::vector_iterator2stream&lt; InputIterator &gt; Pages: 1 -->
<svg width="184pt" height="216pt"
 viewBox="0.00 0.00 184.00 216.00" xmlns="http://www.w3.org/2000/svg" xmlns:xlink="http://www.w3.org/1999/xlink">
<g id="graph1" class="graph" transform="scale(1 1) rotate(0) translate(4 212)">
<title>stxxl::stream::vector_iterator2stream&lt; InputIterator &gt;</title>
<!-- Node1 -->
<g id="node1" class="node"><title>Node1</title>
<polygon fill="#bfbfbf" stroke="black" points="0,-1 0,-35 158,-35 158,-1 0,-1"/>
<text text-anchor="start" x="8" y="-22" font-family="Helvetica,sans-Serif" font-size="10.00">stxxl::stream::vector</text>
<text text-anchor="middle" x="79" y="-9" font-family="Helvetica,sans-Serif" font-size="10.00">_iterator2stream&lt; InputIterator &gt;</text>
</g>
<!-- Node2 -->
<g id="node2" class="node"><title>Node2</title>
<a xlink:href="structstxxl_1_1compat__unique__ptr.html" target="_top" xlink:title="stxxl::compat_unique\l_ptr\&lt; buf_istream_type \&gt;">
<polygon fill="none" stroke="black" points="16,-87 16,-121 142,-121 142,-87 16,-87"/>
<text text-anchor="start" x="24" y="-108" font-family="Helvetica,sans-Serif" font-size="10.00">stxxl::compat_unique</text>
<text text-anchor="middle" x="79" y="-95" font-family="Helvetica,sans-Serif" font-size="10.00">_ptr&lt; buf_istream_type &gt;</text>
</a>
</g>
<!-- Node2&#45;&gt;Node1 -->
<g id="edge2" class="edge"><title>Node2&#45;&gt;Node1</title>
<path fill="none" stroke="#9a32cd" stroke-dasharray="5,2" d="M79,-76.342C79,-62.7741 79,-46.8607 79,-35.084"/>
<polygon fill="#9a32cd" stroke="#9a32cd" points="75.5001,-76.5966 79,-86.5966 82.5001,-76.5967 75.5001,-76.5966"/>
<text text-anchor="middle" x="84.5" y="-58.5" font-family="Helvetica,sans-Serif" font-size="10.00"> in</text>
</g>
<!-- Node3 -->
<g id="node4" class="node"><title>Node3</title>
<a xlink:href="structstxxl_1_1compat__unique__ptr.html" target="_top" xlink:title="stxxl::compat_unique\l_ptr\&lt; Type \&gt;">
<polygon fill="none" stroke="black" points="24,-173 24,-207 134,-207 134,-173 24,-173"/>
<text text-anchor="start" x="32" y="-194" font-family="Helvetica,sans-Serif" font-size="10.00">stxxl::compat_unique</text>
<text text-anchor="middle" x="79" y="-181" font-family="Helvetica,sans-Serif" font-size="10.00">_ptr&lt; Type &gt;</text>
</a>
</g>
<!-- Node3&#45;&gt;Node2 -->
<g id="edge4" class="edge"><title>Node3&#45;&gt;Node2</title>
<path fill="none" stroke="orange" stroke-dasharray="5,2" d="M79,-162.342C79,-148.774 79,-132.861 79,-121.084"/>
<polygon fill="orange" stroke="orange" points="75.5001,-162.597 79,-172.597 82.5001,-162.597 75.5001,-162.597"/>
<text text-anchor="middle" x="127.5" y="-144.5" font-family="Helvetica,sans-Serif" font-size="10.00"> &lt; buf_istream_type &gt;</text>
</g>
</g>
</svg>
