<?xml version="1.0" encoding="UTF-8" standalone="no"?>
<!DOCTYPE svg PUBLIC "-//W3C//DTD SVG 1.1//EN"
 "http://www.w3.org/Graphics/SVG/1.1/DTD/svg11.dtd">
<!-- Generated by graphviz version 2.26.3 (20100126.1600)
 -->
<!-- Title: stxxl::stream::make_tuple&lt; Input1_, Input2_, Input3_, Stopper, Stopper, Stopper &gt; Pages: 1 -->
<svg width="640pt" height="133pt"
 viewBox="0.00 0.00 640.00 133.00" xmlns="http://www.w3.org/2000/svg" xmlns:xlink="http://www.w3.org/1999/xlink">
<g id="graph1" class="graph" transform="scale(1 1) rotate(0) translate(4 129)">
<title>stxxl::stream::make_tuple&lt; Input1_, Input2_, Input3_, Stopper, Stopper, Stopper &gt;</title>
<!-- Node1 -->
<g id="node1" class="node"><title>Node1</title>
<polygon fill="#bfbfbf" stroke="black" points="488.5,-24 488.5,-84 631.5,-84 631.5,-24 488.5,-24"/>
<text text-anchor="start" x="496.5" y="-71" font-family="Helvetica,sans-Serif" font-size="10.00">stxxl::stream::make</text>
<text text-anchor="start" x="496.5" y="-58" font-family="Helvetica,sans-Serif" font-size="10.00">_tuple&lt; Input1_, Input2</text>
<text text-anchor="start" x="496.5" y="-45" font-family="Helvetica,sans-Serif" font-size="10.00">_, Input3_, Stopper, Stopper,</text>
<text text-anchor="middle" x="560" y="-32" font-family="Helvetica,sans-Serif" font-size="10.00"> Stopper &gt;</text>
</g>
<!-- Node2 -->
<g id="node2" class="node"><title>Node2</title>
<a xlink:href="structstxxl_1_1tuple.html" target="_top" xlink:title="stxxl::tuple\&lt; typename\l Input1_::value_type,\l typename Input2_::value\l_type, typename Input3_::\lvalue_type \&gt;">
<polygon fill="none" stroke="black" points="286.5,-17.5 286.5,-90.5 417.5,-90.5 417.5,-17.5 286.5,-17.5"/>
<text text-anchor="start" x="294.5" y="-77.5" font-family="Helvetica,sans-Serif" font-size="10.00">stxxl::tuple&lt; typename</text>
<text text-anchor="start" x="294.5" y="-64.5" font-family="Helvetica,sans-Serif" font-size="10.00"> Input1_::value_type,</text>
<text text-anchor="start" x="294.5" y="-51.5" font-family="Helvetica,sans-Serif" font-size="10.00"> typename Input2_::value</text>
<text text-anchor="start" x="294.5" y="-38.5" font-family="Helvetica,sans-Serif" font-size="10.00">_type, typename Input3_::</text>
<text text-anchor="middle" x="352" y="-25.5" font-family="Helvetica,sans-Serif" font-size="10.00">value_type &gt;</text>
</a>
</g>
<!-- Node2&#45;&gt;Node1 -->
<g id="edge2" class="edge"><title>Node2&#45;&gt;Node1</title>
<path fill="none" stroke="#9a32cd" stroke-dasharray="5,2" d="M427.717,-54C447.494,-54 468.747,-54 488.307,-54"/>
<polygon fill="#9a32cd" stroke="#9a32cd" points="427.527,-50.5001 417.527,-54 427.527,-57.5001 427.527,-50.5001"/>
<text text-anchor="middle" x="453" y="-58" font-family="Helvetica,sans-Serif" font-size="10.00"> current</text>
</g>
<!-- Node3 -->
<g id="node4" class="node"><title>Node3</title>
<a xlink:href="structstxxl_1_1Plug.html" target="_top" xlink:title="stxxl::Plug">
<polygon fill="none" stroke="black" points="21.5,-81.5 21.5,-102.5 84.5,-102.5 84.5,-81.5 21.5,-81.5"/>
<text text-anchor="middle" x="53" y="-89.5" font-family="Helvetica,sans-Serif" font-size="10.00">stxxl::Plug</text>
</a>
</g>
<!-- Node3&#45;&gt;Node2 -->
<g id="edge4" class="edge"><title>Node3&#45;&gt;Node2</title>
<path fill="none" stroke="#9a32cd" stroke-dasharray="5,2" d="M94.9858,-88.782C138.419,-85.2008 208.148,-78.7457 268,-70 273.876,-69.1414 279.966,-68.1605 286.061,-67.1165"/>
<polygon fill="#9a32cd" stroke="#9a32cd" points="94.483,-85.3112 84.799,-89.6089 95.0494,-92.2883 94.483,-85.3112"/>
<text text-anchor="middle" x="196" y="-116" font-family="Helvetica,sans-Serif" font-size="10.00"> fifth</text>
<text text-anchor="middle" x="196" y="-103" font-family="Helvetica,sans-Serif" font-size="10.00">fourth</text>
<text text-anchor="middle" x="196" y="-90" font-family="Helvetica,sans-Serif" font-size="10.00">sixth</text>
</g>
<!-- Node4 -->
<g id="node6" class="node"><title>Node4</title>
<a xlink:href="structstxxl_1_1tuple.html" target="_top" xlink:title="k&#45;Tuple data type ">
<polygon fill="none" stroke="black" points="0.5,-0 0.5,-34 105.5,-34 105.5,-0 0.5,-0"/>
<text text-anchor="start" x="8.5" y="-21" font-family="Helvetica,sans-Serif" font-size="10.00">stxxl::tuple&lt; T1, T2,</text>
<text text-anchor="middle" x="53" y="-8" font-family="Helvetica,sans-Serif" font-size="10.00"> T3, T4, T5, T6 &gt;</text>
</a>
</g>
<!-- Node4&#45;&gt;Node2 -->
<g id="edge6" class="edge"><title>Node4&#45;&gt;Node2</title>
<path fill="none" stroke="orange" stroke-dasharray="5,2" d="M115.836,-10.7618C159.079,-8.05286 217.587,-7.53003 268,-18 274.059,-19.2583 280.221,-20.9686 286.314,-22.9642"/>
<polygon fill="orange" stroke="orange" points="115.481,-7.2778 105.743,-11.4509 115.958,-14.2615 115.481,-7.2778"/>
<text text-anchor="start" x="124" y="-61" font-family="Helvetica,sans-Serif" font-size="10.00"> &lt; typename Input1_</text>
<text text-anchor="start" x="124" y="-48" font-family="Helvetica,sans-Serif" font-size="10.00">::value_type, typename</text>
<text text-anchor="start" x="124" y="-35" font-family="Helvetica,sans-Serif" font-size="10.00"> Input2_::value_type,</text>
<text text-anchor="middle" x="196" y="-22" font-family="Helvetica,sans-Serif" font-size="10.00"> typename Input3_::value_type &gt;</text>
</g>
</g>
</svg>
