<?xml version="1.0" encoding="UTF-8" standalone="no"?>
<!DOCTYPE svg PUBLIC "-//W3C//DTD SVG 1.1//EN"
 "http://www.w3.org/Graphics/SVG/1.1/DTD/svg11.dtd">
<!-- Generated by graphviz version 2.38.0 (20140413.2041)
 -->
<!-- Title: stxxl::file Pages: 1 -->
<svg width="502pt" height="306pt"
 viewBox="0.00 0.00 502.00 306.00" xmlns="http://www.w3.org/2000/svg" xmlns:xlink="http://www.w3.org/1999/xlink">
<g id="graph0" class="graph" transform="scale(1 1) rotate(0) translate(4 302)">
<title>stxxl::file</title>
<!-- Node1 -->
<g id="node1" class="node"><title>Node1</title>
<polygon fill="#bfbfbf" stroke="black" points="134,-142.5 134,-161.5 190,-161.5 190,-142.5 134,-142.5"/>
<text text-anchor="middle" x="162" y="-149.5" font-family="Helvetica,sans-Serif" font-size="10.00">stxxl::file</text>
</g>
<!-- Node3 -->
<g id="node3" class="node"><title>Node3</title>
<g id="a_node3"><a xlink:href="classstxxl_1_1disk__queued__file.html" target="_top" xlink:title="Implementation of some file methods based on serving_request. ">
<polygon fill="none" stroke="black" points="226,-142.5 226,-161.5 342,-161.5 342,-142.5 226,-142.5"/>
<text text-anchor="middle" x="284" y="-149.5" font-family="Helvetica,sans-Serif" font-size="10.00">stxxl::disk_queued_file</text>
</a>
</g>
</g>
<!-- Node1&#45;&gt;Node3 -->
<g id="edge2" class="edge"><title>Node1&#45;&gt;Node3</title>
<path fill="none" stroke="midnightblue" d="M200.456,-152C208.563,-152 217.313,-152 225.979,-152"/>
<polygon fill="midnightblue" stroke="midnightblue" points="200.23,-148.5 190.23,-152 200.23,-155.5 200.23,-148.5"/>
</g>
<!-- Node12 -->
<g id="node12" class="node"><title>Node12</title>
<g id="a_node12"><a xlink:href="classstxxl_1_1ufs__file__base.html" target="_top" xlink:title="Base for UNIX file system implementations. ">
<polygon fill="none" stroke="black" points="233.5,-202.5 233.5,-221.5 334.5,-221.5 334.5,-202.5 233.5,-202.5"/>
<text text-anchor="middle" x="284" y="-209.5" font-family="Helvetica,sans-Serif" font-size="10.00">stxxl::ufs_file_base</text>
</a>
</g>
</g>
<!-- Node1&#45;&gt;Node12 -->
<g id="edge11" class="edge"><title>Node1&#45;&gt;Node12</title>
<path fill="none" stroke="midnightblue" d="M191.015,-166.007C213.341,-177.17 244.016,-192.508 263.677,-202.339"/>
<polygon fill="midnightblue" stroke="midnightblue" points="192.524,-162.849 182.014,-161.507 189.393,-169.11 192.524,-162.849"/>
</g>
<!-- Node13 -->
<g id="node13" class="node"><title>Node13</title>
<g id="a_node13"><a xlink:href="classstxxl_1_1wfs__file__base.html" target="_top" xlink:title="Base for Windows file system implementations. ">
<polygon fill="none" stroke="black" points="232,-63.5 232,-82.5 336,-82.5 336,-63.5 232,-63.5"/>
<text text-anchor="middle" x="284" y="-70.5" font-family="Helvetica,sans-Serif" font-size="10.00">stxxl::wfs_file_base</text>
</a>
</g>
</g>
<!-- Node1&#45;&gt;Node13 -->
<g id="edge16" class="edge"><title>Node1&#45;&gt;Node13</title>
<path fill="none" stroke="midnightblue" d="M186.349,-136.628C210.714,-120.589 248.148,-95.9445 268.54,-82.5194"/>
<polygon fill="midnightblue" stroke="midnightblue" points="184.142,-133.891 177.714,-142.313 187.991,-139.738 184.142,-133.891"/>
</g>
<!-- Node2 -->
<g id="node2" class="node"><title>Node2</title>
<g id="a_node2"><a xlink:href="classstxxl_1_1noncopyable.html" target="_top" xlink:title="stxxl::noncopyable">
<polygon fill="none" stroke="black" points="0,-142.5 0,-161.5 98,-161.5 98,-142.5 0,-142.5"/>
<text text-anchor="middle" x="49" y="-149.5" font-family="Helvetica,sans-Serif" font-size="10.00">stxxl::noncopyable</text>
</a>
</g>
</g>
<!-- Node2&#45;&gt;Node1 -->
<g id="edge1" class="edge"><title>Node2&#45;&gt;Node1</title>
<path fill="none" stroke="#8b1a1a" d="M108.195,-152C117.198,-152 126.107,-152 133.969,-152"/>
<polygon fill="#8b1a1a" stroke="#8b1a1a" points="108.041,-148.5 98.0406,-152 108.041,-155.5 108.041,-148.5"/>
</g>
<!-- Node4 -->
<g id="node4" class="node"><title>Node4</title>
<g id="a_node4"><a xlink:href="classstxxl_1_1fileperblock__file.html" target="_top" xlink:title="Implementation of file based on other files, dynamically allocate one file per block. Allows for dynamic disk space consumption. ">
<polygon fill="none" stroke="black" points="378,-115 378,-145 494,-145 494,-115 378,-115"/>
<text text-anchor="start" x="386" y="-133" font-family="Helvetica,sans-Serif" font-size="10.00">stxxl::fileperblock</text>
<text text-anchor="middle" x="436" y="-122" font-family="Helvetica,sans-Serif" font-size="10.00">_file&lt; base_file_type &gt;</text>
</a>
</g>
</g>
<!-- Node3&#45;&gt;Node4 -->
<g id="edge3" class="edge"><title>Node3&#45;&gt;Node4</title>
<path fill="none" stroke="midnightblue" d="M352.033,-142.168C360.54,-140.921 369.186,-139.653 377.525,-138.43"/>
<polygon fill="midnightblue" stroke="midnightblue" points="351.523,-138.706 342.136,-143.62 352.539,-145.632 351.523,-138.706"/>
</g>
<!-- Node5 -->
<g id="node5" class="node"><title>Node5</title>
<g id="a_node5"><a xlink:href="classstxxl_1_1linuxaio__file.html" target="_top" xlink:title="Implementation of file based on the Linux kernel interface for asynchronous I/O. ">
<polygon fill="none" stroke="black" points="388.5,-202.5 388.5,-221.5 483.5,-221.5 483.5,-202.5 388.5,-202.5"/>
<text text-anchor="middle" x="436" y="-209.5" font-family="Helvetica,sans-Serif" font-size="10.00">stxxl::linuxaio_file</text>
</a>
</g>
</g>
<!-- Node3&#45;&gt;Node5 -->
<g id="edge4" class="edge"><title>Node3&#45;&gt;Node5</title>
<path fill="none" stroke="midnightblue" d="M314.533,-165.866C332.669,-174.168 356.472,-184.688 378,-193 386.563,-196.306 395.975,-199.585 404.639,-202.464"/>
<polygon fill="midnightblue" stroke="midnightblue" points="315.638,-162.521 305.091,-161.509 312.705,-168.877 315.638,-162.521"/>
</g>
<!-- Node6 -->
<g id="node6" class="node"><title>Node6</title>
<g id="a_node6"><a xlink:href="classstxxl_1_1mem__file.html" target="_top" xlink:title="Implementation of file based on new[] and memcpy. ">
<polygon fill="none" stroke="black" points="394.5,-76.5 394.5,-95.5 477.5,-95.5 477.5,-76.5 394.5,-76.5"/>
<text text-anchor="middle" x="436" y="-83.5" font-family="Helvetica,sans-Serif" font-size="10.00">stxxl::mem_file</text>
</a>
</g>
</g>
<!-- Node3&#45;&gt;Node6 -->
<g id="edge5" class="edge"><title>Node3&#45;&gt;Node6</title>
<path fill="none" stroke="midnightblue" d="M311.053,-137.541C329.437,-127.661 354.822,-114.659 378,-105 386.184,-101.589 395.218,-98.349 403.634,-95.5418"/>
<polygon fill="midnightblue" stroke="midnightblue" points="309.244,-134.541 302.127,-142.389 312.585,-140.693 309.244,-134.541"/>
</g>
<!-- Node7 -->
<g id="node7" class="node"><title>Node7</title>
<g id="a_node7"><a xlink:href="classstxxl_1_1mmap__file.html" target="_top" xlink:title="Implementation of memory mapped access file. ">
<polygon fill="none" stroke="black" points="391.5,-164.5 391.5,-183.5 480.5,-183.5 480.5,-164.5 391.5,-164.5"/>
<text text-anchor="middle" x="436" y="-171.5" font-family="Helvetica,sans-Serif" font-size="10.00">stxxl::mmap_file</text>
</a>
</g>
</g>
<!-- Node3&#45;&gt;Node7 -->
<g id="edge6" class="edge"><title>Node3&#45;&gt;Node7</title>
<path fill="none" stroke="midnightblue" d="M352.144,-161.848C365.351,-163.785 378.886,-165.77 391.088,-167.56"/>
<polygon fill="midnightblue" stroke="midnightblue" points="352.539,-158.368 342.136,-160.38 351.523,-165.294 352.539,-158.368"/>
</g>
<!-- Node8 -->
<g id="node8" class="node"><title>Node8</title>
<g id="a_node8"><a xlink:href="classstxxl_1_1sim__disk__file.html" target="_top" xlink:title="Implementation of disk emulation. ">
<polygon fill="none" stroke="black" points="385.5,-278.5 385.5,-297.5 486.5,-297.5 486.5,-278.5 385.5,-278.5"/>
<text text-anchor="middle" x="436" y="-285.5" font-family="Helvetica,sans-Serif" font-size="10.00">stxxl::sim_disk_file</text>
</a>
</g>
</g>
<!-- Node3&#45;&gt;Node8 -->
<g id="edge7" class="edge"><title>Node3&#45;&gt;Node8</title>
<path fill="none" stroke="midnightblue" d="M311.276,-166.863C321.817,-173.784 333.464,-182.758 342,-193 365.929,-221.711 350.026,-244.212 378,-269 382.372,-272.874 387.559,-275.962 392.995,-278.423"/>
<polygon fill="midnightblue" stroke="midnightblue" points="313.109,-163.882 302.774,-161.551 309.399,-169.818 313.109,-163.882"/>
</g>
<!-- Node9 -->
<g id="node9" class="node"><title>Node9</title>
<g id="a_node9"><a xlink:href="classstxxl_1_1syscall__file.html" target="_top" xlink:title="Implementation of file based on UNIX syscalls. ">
<polygon fill="none" stroke="black" points="390,-240.5 390,-259.5 482,-259.5 482,-240.5 390,-240.5"/>
<text text-anchor="middle" x="436" y="-247.5" font-family="Helvetica,sans-Serif" font-size="10.00">stxxl::syscall_file</text>
</a>
</g>
</g>
<!-- Node3&#45;&gt;Node9 -->
<g id="edge8" class="edge"><title>Node3&#45;&gt;Node9</title>
<path fill="none" stroke="midnightblue" d="M308.479,-167.399C319.072,-174.718 331.528,-183.853 342,-193 359.521,-208.305 358.377,-218.503 378,-231 383.983,-234.81 390.809,-237.937 397.608,-240.474"/>
<polygon fill="midnightblue" stroke="midnightblue" points="310.344,-164.435 300.104,-161.719 306.415,-170.229 310.344,-164.435"/>
</g>
<!-- Node10 -->
<g id="node10" class="node"><title>Node10</title>
<g id="a_node10"><a xlink:href="classstxxl_1_1wbtl__file.html" target="_top" xlink:title="Implementation of file based on buffered writes and block remapping via a translation layer...">
<polygon fill="none" stroke="black" points="396,-38.5 396,-57.5 476,-57.5 476,-38.5 396,-38.5"/>
<text text-anchor="middle" x="436" y="-45.5" font-family="Helvetica,sans-Serif" font-size="10.00">stxxl::wbtl_file</text>
</a>
</g>
</g>
<!-- Node3&#45;&gt;Node10 -->
<g id="edge9" class="edge"><title>Node3&#45;&gt;Node10</title>
<path fill="none" stroke="midnightblue" d="M299.676,-134.819C316.747,-115.81 346.62,-85.433 378,-67 384.386,-63.2488 391.614,-60.1169 398.726,-57.5493"/>
<polygon fill="midnightblue" stroke="midnightblue" points="296.952,-132.616 292.975,-142.436 302.208,-137.24 296.952,-132.616"/>
</g>
<!-- Node11 -->
<g id="node11" class="node"><title>Node11</title>
<g id="a_node11"><a xlink:href="classstxxl_1_1wincall__file.html" target="_top" xlink:title="Implementation of file based on Windows native I/O calls. ">
<polygon fill="none" stroke="black" points="390,-0.5 390,-19.5 482,-19.5 482,-0.5 390,-0.5"/>
<text text-anchor="middle" x="436" y="-7.5" font-family="Helvetica,sans-Serif" font-size="10.00">stxxl::wincall_file</text>
</a>
</g>
</g>
<!-- Node3&#45;&gt;Node11 -->
<g id="edge10" class="edge"><title>Node3&#45;&gt;Node11</title>
<path fill="none" stroke="midnightblue" d="M303.015,-135.271C314.868,-123.75 330.296,-107.737 342,-92 361.245,-66.1227 353.06,-49.4455 378,-29 382.759,-25.0982 388.353,-21.9857 394.143,-19.5059"/>
<polygon fill="midnightblue" stroke="midnightblue" points="300.288,-133.035 295.469,-142.471 305.12,-138.1 300.288,-133.035"/>
</g>
<!-- Node12&#45;&gt;Node5 -->
<g id="edge12" class="edge"><title>Node12&#45;&gt;Node5</title>
<path fill="none" stroke="midnightblue" d="M344.885,-212C359.337,-212 374.571,-212 388.317,-212"/>
<polygon fill="midnightblue" stroke="midnightblue" points="344.531,-208.5 334.531,-212 344.531,-215.5 344.531,-208.5"/>
</g>
<!-- Node12&#45;&gt;Node7 -->
<g id="edge13" class="edge"><title>Node12&#45;&gt;Node7</title>
<path fill="none" stroke="midnightblue" d="M332.811,-199.888C353.702,-194.596 377.847,-188.479 397.421,-183.52"/>
<polygon fill="midnightblue" stroke="midnightblue" points="331.686,-196.562 322.851,-202.411 333.405,-203.348 331.686,-196.562"/>
</g>
<!-- Node12&#45;&gt;Node8 -->
<g id="edge14" class="edge"><title>Node12&#45;&gt;Node8</title>
<path fill="none" stroke="midnightblue" d="M306.808,-227.344C325.167,-239.768 352.446,-257.101 378,-269 385.565,-272.523 393.968,-275.699 401.947,-278.402"/>
<polygon fill="midnightblue" stroke="midnightblue" points="308.544,-224.29 298.318,-221.517 304.583,-230.061 308.544,-224.29"/>
</g>
<!-- Node12&#45;&gt;Node9 -->
<g id="edge15" class="edge"><title>Node12&#45;&gt;Node9</title>
<path fill="none" stroke="midnightblue" d="M332.811,-224.112C353.702,-229.404 377.847,-235.521 397.421,-240.48"/>
<polygon fill="midnightblue" stroke="midnightblue" points="333.405,-220.652 322.851,-221.589 331.686,-227.438 333.405,-220.652"/>
</g>
<!-- Node13&#45;&gt;Node11 -->
<g id="edge17" class="edge"><title>Node13&#45;&gt;Node11</title>
<path fill="none" stroke="midnightblue" d="M312.53,-58.9053C330.839,-49.7991 355.557,-38.0116 378,-29 386.325,-25.6573 395.489,-22.4163 403.989,-19.5858"/>
<polygon fill="midnightblue" stroke="midnightblue" points="310.954,-55.7802 303.586,-63.3939 314.094,-62.0366 310.954,-55.7802"/>
</g>
</g>
</svg>
