<?xml version="1.0" encoding="UTF-8" standalone="no"?>
<!DOCTYPE svg PUBLIC "-//W3C//DTD SVG 1.1//EN"
 "http://www.w3.org/Graphics/SVG/1.1/DTD/svg11.dtd">
<!-- Generated by graphviz version 2.38.0 (20140413.2041)
 -->
<!-- Title: stxxl::btree::btree_iterator_base&lt; BTreeType &gt; Pages: 1 -->
<svg width="603pt" height="148pt"
 viewBox="0.00 0.00 603.00 147.50" xmlns="http://www.w3.org/2000/svg" xmlns:xlink="http://www.w3.org/1999/xlink">
<g id="graph0" class="graph" transform="scale(1 1) rotate(0) translate(4 143.5)">
<title>stxxl::btree::btree_iterator_base&lt; BTreeType &gt;</title>
<!-- Node1 -->
<g id="node1" class="node"><title>Node1</title>
<polygon fill="#bfbfbf" stroke="black" points="0,-60 0,-90 144,-90 144,-60 0,-60"/>
<text text-anchor="start" x="8" y="-78" font-family="Helvetica,sans-Serif" font-size="10.00">stxxl::btree::btree</text>
<text text-anchor="middle" x="72" y="-67" font-family="Helvetica,sans-Serif" font-size="10.00">_iterator_base&lt; BTreeType &gt;</text>
</g>
<!-- Node2 -->
<g id="node2" class="node"><title>Node2</title>
<g id="a_node2"><a xlink:href="classstxxl_1_1btree_1_1btree__const__iterator.html" target="_top" xlink:title="stxxl::btree::btree\l_const_iterator\&lt; BTreeType \&gt;">
<polygon fill="none" stroke="black" points="241,-109 241,-139 388,-139 388,-109 241,-109"/>
<text text-anchor="start" x="249" y="-127" font-family="Helvetica,sans-Serif" font-size="10.00">stxxl::btree::btree</text>
<text text-anchor="middle" x="314.5" y="-116" font-family="Helvetica,sans-Serif" font-size="10.00">_const_iterator&lt; BTreeType &gt;</text>
</a>
</g>
</g>
<!-- Node1&#45;&gt;Node2 -->
<g id="edge1" class="edge"><title>Node1&#45;&gt;Node2</title>
<path fill="none" stroke="midnightblue" d="M153.981,-91.4993C182.098,-97.2278 213.432,-103.612 240.835,-109.195"/>
<polygon fill="midnightblue" stroke="midnightblue" points="154.679,-88.0697 144.182,-89.5027 153.282,-94.9288 154.679,-88.0697"/>
</g>
<!-- Node3 -->
<g id="node3" class="node"><title>Node3</title>
<g id="a_node3"><a xlink:href="classstxxl_1_1btree_1_1btree__iterator.html" target="_top" xlink:title="stxxl::btree::btree\l_iterator\&lt; BTreeType \&gt;">
<polygon fill="none" stroke="black" points="255.5,-60 255.5,-90 373.5,-90 373.5,-60 255.5,-60"/>
<text text-anchor="start" x="263.5" y="-78" font-family="Helvetica,sans-Serif" font-size="10.00">stxxl::btree::btree</text>
<text text-anchor="middle" x="314.5" y="-67" font-family="Helvetica,sans-Serif" font-size="10.00">_iterator&lt; BTreeType &gt;</text>
</a>
</g>
</g>
<!-- Node1&#45;&gt;Node3 -->
<g id="edge2" class="edge"><title>Node1&#45;&gt;Node3</title>
<path fill="none" stroke="midnightblue" d="M154.323,-75C187.499,-75 225.107,-75 255.435,-75"/>
<polygon fill="midnightblue" stroke="midnightblue" points="154.182,-71.5001 144.182,-75 154.182,-78.5001 154.182,-71.5001"/>
</g>
<!-- Node5 -->
<g id="node5" class="node"><title>Node5</title>
<g id="a_node5"><a xlink:href="classstxxl_1_1btree_1_1btree__iterator__base.html" target="_top" xlink:title="stxxl::btree::btree\l_iterator_base\&lt; self\l_type \&gt;">
<polygon fill="none" stroke="black" points="263,-0.5 263,-41.5 366,-41.5 366,-0.5 263,-0.5"/>
<text text-anchor="start" x="271" y="-29.5" font-family="Helvetica,sans-Serif" font-size="10.00">stxxl::btree::btree</text>
<text text-anchor="start" x="271" y="-18.5" font-family="Helvetica,sans-Serif" font-size="10.00">_iterator_base&lt; self</text>
<text text-anchor="middle" x="314.5" y="-7.5" font-family="Helvetica,sans-Serif" font-size="10.00">_type &gt;</text>
</a>
</g>
</g>
<!-- Node1&#45;&gt;Node5 -->
<g id="edge4" class="edge"><title>Node1&#45;&gt;Node5</title>
<path fill="none" stroke="orange" stroke-dasharray="5,2" d="M150.219,-57.6619C187.109,-49.3789 230.223,-39.6984 262.882,-32.3654"/>
<polygon fill="orange" stroke="orange" points="148.983,-54.3522 139.993,-59.958 150.517,-61.1821 148.983,-54.3522"/>
<text text-anchor="middle" x="192.5" y="-57" font-family="Helvetica,sans-Serif" font-size="10.00"> &lt; self_type &gt;</text>
</g>
<!-- Node4 -->
<g id="node4" class="node"><title>Node4</title>
<g id="a_node4"><a xlink:href="classstxxl_1_1btree_1_1btree__iterator.html" target="_top" xlink:title="stxxl::btree::btree\l_iterator\&lt; self_type \&gt;">
<polygon fill="none" stroke="black" points="485,-35 485,-65 595,-65 595,-35 485,-35"/>
<text text-anchor="start" x="493" y="-53" font-family="Helvetica,sans-Serif" font-size="10.00">stxxl::btree::btree</text>
<text text-anchor="middle" x="540" y="-42" font-family="Helvetica,sans-Serif" font-size="10.00">_iterator&lt; self_type &gt;</text>
</a>
</g>
</g>
<!-- Node3&#45;&gt;Node4 -->
<g id="edge3" class="edge"><title>Node3&#45;&gt;Node4</title>
<path fill="none" stroke="orange" stroke-dasharray="5,2" d="M383.955,-67.3429C416.406,-63.713 454.619,-59.4386 484.988,-56.0416"/>
<polygon fill="orange" stroke="orange" points="383.187,-63.9068 373.639,-68.4968 383.966,-70.8634 383.187,-63.9068"/>
<text text-anchor="middle" x="436.5" y="-67" font-family="Helvetica,sans-Serif" font-size="10.00"> &lt; self_type &gt;</text>
</g>
<!-- Node5&#45;&gt;Node4 -->
<g id="edge5" class="edge"><title>Node5&#45;&gt;Node4</title>
<path fill="none" stroke="midnightblue" d="M376.469,-28.911C410.389,-33.3123 452.238,-38.7422 484.975,-42.99"/>
<polygon fill="midnightblue" stroke="midnightblue" points="376.583,-25.3965 366.216,-27.5805 375.682,-32.3383 376.583,-25.3965"/>
</g>
</g>
</svg>
