<?xml version="1.0" encoding="UTF-8" standalone="no"?>
<!DOCTYPE svg PUBLIC "-//W3C//DTD SVG 1.1//EN"
 "http://www.w3.org/Graphics/SVG/1.1/DTD/svg11.dtd">
<!-- Generated by graphviz version 2.26.3 (20100126.1600)
 -->
<!-- Title: stxxl::btree::btree_iterator&lt; BTreeType &gt; Pages: 1 -->
<svg width="152pt" height="204pt"
 viewBox="0.00 0.00 152.00 204.00" xmlns="http://www.w3.org/2000/svg" xmlns:xlink="http://www.w3.org/1999/xlink">
<g id="graph1" class="graph" transform="scale(1 1) rotate(0) translate(4 200)">
<title>stxxl::btree::btree_iterator&lt; BTreeType &gt;</title>
<!-- Node1 -->
<g id="node1" class="node"><title>Node1</title>
<polygon fill="#bfbfbf" stroke="black" points="13,-87 13,-121 131,-121 131,-87 13,-87"/>
<text text-anchor="start" x="21" y="-108" font-family="Helvetica,sans-Serif" font-size="10.00">stxxl::btree::btree</text>
<text text-anchor="middle" x="72" y="-95" font-family="Helvetica,sans-Serif" font-size="10.00">_iterator&lt; BTreeType &gt;</text>
</g>
<!-- Node3 -->
<g id="node5" class="node"><title>Node3</title>
<a xlink:href="classstxxl_1_1btree_1_1btree__iterator.html" target="_top" xlink:title="stxxl::btree::btree\l_iterator\&lt; self_type \&gt;">
<polygon fill="none" stroke="black" points="17,-1 17,-35 127,-35 127,-1 17,-1"/>
<text text-anchor="start" x="25" y="-22" font-family="Helvetica,sans-Serif" font-size="10.00">stxxl::btree::btree</text>
<text text-anchor="middle" x="72" y="-9" font-family="Helvetica,sans-Serif" font-size="10.00">_iterator&lt; self_type &gt;</text>
</a>
</g>
<!-- Node1&#45;&gt;Node3 -->
<g id="edge4" class="edge"><title>Node1&#45;&gt;Node3</title>
<path fill="none" stroke="orange" stroke-dasharray="5,2" d="M72,-76.342C72,-62.7741 72,-46.8607 72,-35.084"/>
<polygon fill="orange" stroke="orange" points="68.5001,-76.5966 72,-86.5966 75.5001,-76.5967 68.5001,-76.5966"/>
<text text-anchor="middle" x="102.5" y="-58.5" font-family="Helvetica,sans-Serif" font-size="10.00"> &lt; self_type &gt;</text>
</g>
<!-- Node2 -->
<g id="node2" class="node"><title>Node2</title>
<a xlink:href="classstxxl_1_1btree_1_1btree__iterator__base.html" target="_top" xlink:title="stxxl::btree::btree\l_iterator_base\&lt; BTreeType \&gt;">
<polygon fill="none" stroke="black" points="0,-161 0,-195 144,-195 144,-161 0,-161"/>
<text text-anchor="start" x="8" y="-182" font-family="Helvetica,sans-Serif" font-size="10.00">stxxl::btree::btree</text>
<text text-anchor="middle" x="72" y="-169" font-family="Helvetica,sans-Serif" font-size="10.00">_iterator_base&lt; BTreeType &gt;</text>
</a>
</g>
<!-- Node2&#45;&gt;Node1 -->
<g id="edge2" class="edge"><title>Node2&#45;&gt;Node1</title>
<path fill="none" stroke="midnightblue" d="M72,-150.627C72,-140.725 72,-129.834 72,-121.07"/>
<polygon fill="midnightblue" stroke="midnightblue" points="68.5001,-150.837 72,-160.837 75.5001,-150.837 68.5001,-150.837"/>
</g>
</g>
</svg>
