<?xml version="1.0" encoding="UTF-8" standalone="no"?>
<!DOCTYPE svg PUBLIC "-//W3C//DTD SVG 1.1//EN"
 "http://www.w3.org/Graphics/SVG/1.1/DTD/svg11.dtd">
<!-- Generated by graphviz version 2.26.3 (20100126.1600)
 -->
<!-- Title: stxxl::btree::btree_iterator_base&lt; BTreeType &gt; Pages: 1 -->
<svg width="606pt" height="160pt"
 viewBox="0.00 0.00 606.00 160.00" xmlns="http://www.w3.org/2000/svg" xmlns:xlink="http://www.w3.org/1999/xlink">
<g id="graph1" class="graph" transform="scale(1 1) rotate(0) translate(4 156)">
<title>stxxl::btree::btree_iterator_base&lt; BTreeType &gt;</title>
<!-- Node1 -->
<g id="node1" class="node"><title>Node1</title>
<polygon fill="#bfbfbf" stroke="black" points="0,-66 0,-100 144,-100 144,-66 0,-66"/>
<text text-anchor="start" x="8" y="-87" font-family="Helvetica,sans-Serif" font-size="10.00">stxxl::btree::btree</text>
<text text-anchor="middle" x="72" y="-74" font-family="Helvetica,sans-Serif" font-size="10.00">_iterator_base&lt; BTreeType &gt;</text>
</g>
<!-- Node2 -->
<g id="node3" class="node"><title>Node2</title>
<a xlink:href="classstxxl_1_1btree_1_1btree__const__iterator.html" target="_top" xlink:title="stxxl::btree::btree\l_const_iterator\&lt; BTreeType \&gt;">
<polygon fill="none" stroke="black" points="242.5,-118 242.5,-152 389.5,-152 389.5,-118 242.5,-118"/>
<text text-anchor="start" x="250.5" y="-139" font-family="Helvetica,sans-Serif" font-size="10.00">stxxl::btree::btree</text>
<text text-anchor="middle" x="316" y="-126" font-family="Helvetica,sans-Serif" font-size="10.00">_const_iterator&lt; BTreeType &gt;</text>
</a>
</g>
<!-- Node1&#45;&gt;Node2 -->
<g id="edge2" class="edge"><title>Node1&#45;&gt;Node2</title>
<path fill="none" stroke="midnightblue" d="M154.16,-100.509C182.685,-106.589 214.475,-113.364 242.277,-119.289"/>
<polygon fill="midnightblue" stroke="midnightblue" points="154.728,-97.0519 144.218,-98.3907 153.269,-103.898 154.728,-97.0519"/>
</g>
<!-- Node3 -->
<g id="node5" class="node"><title>Node3</title>
<a xlink:href="classstxxl_1_1btree_1_1btree__iterator.html" target="_top" xlink:title="stxxl::btree::btree\l_iterator\&lt; BTreeType \&gt;">
<polygon fill="none" stroke="black" points="257,-66 257,-100 375,-100 375,-66 257,-66"/>
<text text-anchor="start" x="265" y="-87" font-family="Helvetica,sans-Serif" font-size="10.00">stxxl::btree::btree</text>
<text text-anchor="middle" x="316" y="-74" font-family="Helvetica,sans-Serif" font-size="10.00">_iterator&lt; BTreeType &gt;</text>
</a>
</g>
<!-- Node1&#45;&gt;Node3 -->
<g id="edge4" class="edge"><title>Node1&#45;&gt;Node3</title>
<path fill="none" stroke="midnightblue" d="M154.465,-83C187.99,-83 225.98,-83 256.692,-83"/>
<polygon fill="midnightblue" stroke="midnightblue" points="154.218,-79.5001 144.218,-83 154.218,-86.5001 154.218,-79.5001"/>
</g>
<!-- Node5 -->
<g id="node9" class="node"><title>Node5</title>
<a xlink:href="classstxxl_1_1btree_1_1btree__iterator__base.html" target="_top" xlink:title="stxxl::btree::btree\l_iterator_base\&lt; self\l_type \&gt;">
<polygon fill="none" stroke="black" points="264.5,-0.5 264.5,-47.5 367.5,-47.5 367.5,-0.5 264.5,-0.5"/>
<text text-anchor="start" x="272.5" y="-34.5" font-family="Helvetica,sans-Serif" font-size="10.00">stxxl::btree::btree</text>
<text text-anchor="start" x="272.5" y="-21.5" font-family="Helvetica,sans-Serif" font-size="10.00">_iterator_base&lt; self</text>
<text text-anchor="middle" x="316" y="-8.5" font-family="Helvetica,sans-Serif" font-size="10.00">_type &gt;</text>
</a>
</g>
<!-- Node1&#45;&gt;Node5 -->
<g id="edge8" class="edge"><title>Node1&#45;&gt;Node5</title>
<path fill="none" stroke="orange" stroke-dasharray="5,2" d="M152.295,-63.5843C189.111,-54.6822 231.686,-44.3874 264.189,-36.5282"/>
<polygon fill="orange" stroke="orange" points="151.472,-60.1824 142.575,-65.9348 153.117,-66.9863 151.472,-60.1824"/>
<text text-anchor="middle" x="193" y="-64" font-family="Helvetica,sans-Serif" font-size="10.00"> &lt; self_type &gt;</text>
</g>
<!-- Node4 -->
<g id="node7" class="node"><title>Node4</title>
<a xlink:href="classstxxl_1_1btree_1_1btree__iterator.html" target="_top" xlink:title="stxxl::btree::btree\l_iterator\&lt; self_type \&gt;">
<polygon fill="none" stroke="black" points="488,-39 488,-73 598,-73 598,-39 488,-39"/>
<text text-anchor="start" x="496" y="-60" font-family="Helvetica,sans-Serif" font-size="10.00">stxxl::btree::btree</text>
<text text-anchor="middle" x="543" y="-47" font-family="Helvetica,sans-Serif" font-size="10.00">_iterator&lt; self_type &gt;</text>
</a>
</g>
<!-- Node3&#45;&gt;Node4 -->
<g id="edge6" class="edge"><title>Node3&#45;&gt;Node4</title>
<path fill="none" stroke="orange" stroke-dasharray="5,2" d="M385.061,-74.7857C417.983,-70.8699 456.828,-66.2495 487.756,-62.5708"/>
<polygon fill="orange" stroke="orange" points="384.566,-71.3199 375.049,-75.9766 385.392,-78.2709 384.566,-71.3199"/>
<text text-anchor="middle" x="439" y="-75" font-family="Helvetica,sans-Serif" font-size="10.00"> &lt; self_type &gt;</text>
</g>
<!-- Node5&#45;&gt;Node4 -->
<g id="edge10" class="edge"><title>Node5&#45;&gt;Node4</title>
<path fill="none" stroke="midnightblue" d="M377.442,-32.6614C411.84,-37.5105 454.382,-43.5076 487.728,-48.2084"/>
<polygon fill="midnightblue" stroke="midnightblue" points="377.901,-29.1915 367.51,-31.2613 376.923,-36.123 377.901,-29.1915"/>
</g>
</g>
</svg>
