<?xml version="1.0" encoding="UTF-8" standalone="no"?>
<!DOCTYPE svg PUBLIC "-//W3C//DTD SVG 1.1//EN"
 "http://www.w3.org/Graphics/SVG/1.1/DTD/svg11.dtd">
<!-- Generated by graphviz version 2.26.3 (20100126.1600)
 -->
<!-- Title: stxxl::parallel::LoserTreePointerUnguardedBase&lt; ValueType, Comparator &gt; Pages: 1 -->
<svg width="426pt" height="96pt"
 viewBox="0.00 0.00 426.00 96.00" xmlns="http://www.w3.org/2000/svg" xmlns:xlink="http://www.w3.org/1999/xlink">
<g id="graph1" class="graph" transform="scale(1 1) rotate(0) translate(4 92)">
<title>stxxl::parallel::LoserTreePointerUnguardedBase&lt; ValueType, Comparator &gt;</title>
<!-- Node1 -->
<g id="node1" class="node"><title>Node1</title>
<polygon fill="#bfbfbf" stroke="black" points="242,-26.5 242,-73.5 418,-73.5 418,-26.5 242,-26.5"/>
<text text-anchor="start" x="250" y="-60.5" font-family="Helvetica,sans-Serif" font-size="10.00">stxxl::parallel::LoserTree</text>
<text text-anchor="start" x="250" y="-47.5" font-family="Helvetica,sans-Serif" font-size="10.00">PointerUnguardedBase&lt; ValueType,</text>
<text text-anchor="middle" x="330" y="-34.5" font-family="Helvetica,sans-Serif" font-size="10.00"> Comparator &gt;</text>
</g>
<!-- Node2 -->
<g id="node2" class="node"><title>Node2</title>
<a xlink:href="classstxxl_1_1noncopyable.html" target="_top" xlink:title="stxxl::noncopyable">
<polygon fill="none" stroke="black" points="39,-66.5 39,-87.5 137,-87.5 137,-66.5 39,-66.5"/>
<text text-anchor="middle" x="88" y="-74.5" font-family="Helvetica,sans-Serif" font-size="10.00">stxxl::noncopyable</text>
</a>
</g>
<!-- Node2&#45;&gt;Node1 -->
<g id="edge2" class="edge"><title>Node2&#45;&gt;Node1</title>
<path fill="none" stroke="#8b1a1a" d="M147.417,-70.3708C175.778,-67.2066 210.293,-63.3557 241.647,-59.8575"/>
<polygon fill="#8b1a1a" stroke="#8b1a1a" points="146.814,-66.9163 137.264,-71.5036 147.59,-73.8731 146.814,-66.9163"/>
</g>
<!-- Node3 -->
<g id="node4" class="node"><title>Node3</title>
<a xlink:href="structstxxl_1_1parallel_1_1LoserTreePointerUnguardedBase_1_1Loser.html" target="_top" xlink:title="Internal representation of a loser tree player/node. ">
<polygon fill="none" stroke="black" points="0,-0.5 0,-47.5 176,-47.5 176,-0.5 0,-0.5"/>
<text text-anchor="start" x="8" y="-34.5" font-family="Helvetica,sans-Serif" font-size="10.00">stxxl::parallel::LoserTree</text>
<text text-anchor="start" x="8" y="-21.5" font-family="Helvetica,sans-Serif" font-size="10.00">PointerUnguardedBase&lt; ValueType,</text>
<text text-anchor="middle" x="88" y="-8.5" font-family="Helvetica,sans-Serif" font-size="10.00"> Comparator &gt;::Loser</text>
</a>
</g>
<!-- Node3&#45;&gt;Node1 -->
<g id="edge4" class="edge"><title>Node3&#45;&gt;Node1</title>
<path fill="none" stroke="#9a32cd" stroke-dasharray="5,2" d="M186.159,-34.546C204.505,-36.5171 223.578,-38.5663 241.608,-40.5033"/>
<polygon fill="#9a32cd" stroke="#9a32cd" points="186.369,-31.0485 176.052,-33.4601 185.621,-38.0084 186.369,-31.0485"/>
<text text-anchor="middle" x="209" y="-42" font-family="Helvetica,sans-Serif" font-size="10.00"> losers</text>
</g>
</g>
</svg>
