<?xml version="1.0" encoding="UTF-8" standalone="no"?>
<!DOCTYPE svg PUBLIC "-//W3C//DTD SVG 1.1//EN"
 "http://www.w3.org/Graphics/SVG/1.1/DTD/svg11.dtd">
<!-- Generated by graphviz version 2.26.3 (20100126.1600)
 -->
<!-- Title: stxxl::typed_block&lt; RawSize, Type, NRef, MetaInfoType &gt; Pages: 1 -->
<svg width="3256pt" height="326pt"
 viewBox="0.00 0.00 3256.00 326.24" xmlns="http://www.w3.org/2000/svg" xmlns:xlink="http://www.w3.org/1999/xlink">
<g id="graph1" class="graph" transform="scale(1 1) rotate(0) translate(4 322.242)">
<title>stxxl::typed_block&lt; RawSize, Type, NRef, MetaInfoType &gt;</title>
<!-- Node1 -->
<g id="node1" class="node"><title>Node1</title>
<polygon fill="#bfbfbf" stroke="black" points="3122.5,-75.5 3122.5,-122.5 3247.5,-122.5 3247.5,-75.5 3122.5,-75.5"/>
<text text-anchor="start" x="3130.5" y="-109.5" font-family="Helvetica,sans-Serif" font-size="10.00">stxxl::typed_block</text>
<text text-anchor="start" x="3130.5" y="-96.5" font-family="Helvetica,sans-Serif" font-size="10.00">&lt; RawSize, Type, NRef,</text>
<text text-anchor="middle" x="3185" y="-83.5" font-family="Helvetica,sans-Serif" font-size="10.00"> MetaInfoType &gt;</text>
</g>
<!-- Node2 -->
<g id="node2" class="node"><title>Node2</title>
<a xlink:href="classstxxl_1_1mng__local_1_1expand__struct.html" target="_top" xlink:title="stxxl::mng_local::expand\l_struct\&lt; mng_local::block\l_w_info\&lt; Type, RawSize, NRef,\l MetaInfoType \&gt;, RawSize \&gt;">
<polygon fill="none" stroke="black" points="2924.5,-69 2924.5,-129 3083.5,-129 3083.5,-69 2924.5,-69"/>
<text text-anchor="start" x="2932.5" y="-116" font-family="Helvetica,sans-Serif" font-size="10.00">stxxl::mng_local::expand</text>
<text text-anchor="start" x="2932.5" y="-103" font-family="Helvetica,sans-Serif" font-size="10.00">_struct&lt; mng_local::block</text>
<text text-anchor="start" x="2932.5" y="-90" font-family="Helvetica,sans-Serif" font-size="10.00">_w_info&lt; Type, RawSize, NRef,</text>
<text text-anchor="middle" x="3004" y="-77" font-family="Helvetica,sans-Serif" font-size="10.00"> MetaInfoType &gt;, RawSize &gt;</text>
</a>
</g>
<!-- Node2&#45;&gt;Node1 -->
<g id="edge2" class="edge"><title>Node2&#45;&gt;Node1</title>
<path fill="none" stroke="midnightblue" d="M3093.74,-99C3103.45,-99 3113.17,-99 3122.45,-99"/>
<polygon fill="midnightblue" stroke="midnightblue" points="3093.65,-95.5001 3083.65,-99 3093.65,-102.5 3093.65,-95.5001"/>
</g>
<!-- Node3 -->
<g id="node4" class="node"><title>Node3</title>
<a xlink:href="classstxxl_1_1mng__local_1_1add__filler.html" target="_top" xlink:title="stxxl::mng_local::add\l_filler\&lt; mng_local::block\l_w_info\&lt; Type, RawSize,\l NRef, MetaInfoType \&gt;, RawSize\l&#45;sizeof(mng_local::block_w_info\l\&lt; Type, RawSize, NRef, MetaInfoType \&gt;)\&gt;">
<polygon fill="none" stroke="black" points="2398,-94 2398,-180 2604,-180 2604,-94 2398,-94"/>
<text text-anchor="start" x="2406" y="-167" font-family="Helvetica,sans-Serif" font-size="10.00">stxxl::mng_local::add</text>
<text text-anchor="start" x="2406" y="-154" font-family="Helvetica,sans-Serif" font-size="10.00">_filler&lt; mng_local::block</text>
<text text-anchor="start" x="2406" y="-141" font-family="Helvetica,sans-Serif" font-size="10.00">_w_info&lt; Type, RawSize,</text>
<text text-anchor="start" x="2406" y="-128" font-family="Helvetica,sans-Serif" font-size="10.00"> NRef, MetaInfoType &gt;, RawSize</text>
<text text-anchor="start" x="2406" y="-115" font-family="Helvetica,sans-Serif" font-size="10.00">&#45;sizeof(mng_local::block_w_info</text>
<text text-anchor="middle" x="2501" y="-102" font-family="Helvetica,sans-Serif" font-size="10.00">&lt; Type, RawSize, NRef, MetaInfoType &gt;)&gt;</text>
</a>
</g>
<!-- Node3&#45;&gt;Node2 -->
<g id="edge4" class="edge"><title>Node3&#45;&gt;Node2</title>
<path fill="none" stroke="midnightblue" d="M2614.47,-137.355C2695.9,-136.365 2808.09,-132.455 2906,-120 2911.96,-119.243 2918.08,-118.308 2924.23,-117.257"/>
<polygon fill="midnightblue" stroke="midnightblue" points="2614.15,-133.858 2604.19,-137.466 2614.23,-140.858 2614.15,-133.858"/>
</g>
<!-- Node4 -->
<g id="node6" class="node"><title>Node4</title>
<a xlink:href="classstxxl_1_1mng__local_1_1block__w__info.html" target="_top" xlink:title="stxxl::mng_local::block\l_w_info\&lt; Type, RawSize,\l NRef, MetaInfoType \&gt;">
<polygon fill="none" stroke="black" points="2083,-197.5 2083,-244.5 2213,-244.5 2213,-197.5 2083,-197.5"/>
<text text-anchor="start" x="2091" y="-231.5" font-family="Helvetica,sans-Serif" font-size="10.00">stxxl::mng_local::block</text>
<text text-anchor="start" x="2091" y="-218.5" font-family="Helvetica,sans-Serif" font-size="10.00">_w_info&lt; Type, RawSize,</text>
<text text-anchor="middle" x="2148" y="-205.5" font-family="Helvetica,sans-Serif" font-size="10.00"> NRef, MetaInfoType &gt;</text>
</a>
</g>
<!-- Node4&#45;&gt;Node3 -->
<g id="edge6" class="edge"><title>Node4&#45;&gt;Node3</title>
<path fill="none" stroke="midnightblue" d="M2223.27,-210.946C2269,-204.036 2328.34,-193.641 2380,-180 2385.82,-178.463 2391.76,-176.772 2397.72,-174.977"/>
<polygon fill="midnightblue" stroke="midnightblue" points="2222.51,-207.52 2213.13,-212.454 2223.54,-214.444 2222.51,-207.52"/>
</g>
<!-- Node5 -->
<g id="node8" class="node"><title>Node5</title>
<a xlink:href="classstxxl_1_1mng__local_1_1block__w__bids.html" target="_top" xlink:title="stxxl::mng_local::block\l_w_bids\&lt; Type,((RawSize\l&#45;sizeof(BID\&lt; RawSize \&gt;)*NBids\l&#45;sizeof(MetaInfoType))/sizeof\l(Type)), RawSize, NBids \&gt;">
<polygon fill="none" stroke="black" points="1552,-193.5 1552,-266.5 1710,-266.5 1710,-193.5 1552,-193.5"/>
<text text-anchor="start" x="1560" y="-253.5" font-family="Helvetica,sans-Serif" font-size="10.00">stxxl::mng_local::block</text>
<text text-anchor="start" x="1560" y="-240.5" font-family="Helvetica,sans-Serif" font-size="10.00">_w_bids&lt; Type,((RawSize</text>
<text text-anchor="start" x="1560" y="-227.5" font-family="Helvetica,sans-Serif" font-size="10.00">&#45;sizeof(BID&lt; RawSize &gt;)*NBids</text>
<text text-anchor="start" x="1560" y="-214.5" font-family="Helvetica,sans-Serif" font-size="10.00">&#45;sizeof(MetaInfoType))/sizeof</text>
<text text-anchor="middle" x="1631" y="-201.5" font-family="Helvetica,sans-Serif" font-size="10.00">(Type)), RawSize, NBids &gt;</text>
</a>
</g>
<!-- Node5&#45;&gt;Node4 -->
<g id="edge8" class="edge"><title>Node5&#45;&gt;Node4</title>
<path fill="none" stroke="midnightblue" d="M1720.48,-240.015C1807.49,-247.986 1943.27,-255.736 2060,-242 2067.49,-241.119 2075.26,-239.83 2082.95,-238.317"/>
<polygon fill="midnightblue" stroke="midnightblue" points="1720.66,-236.516 1710.37,-239.068 1720,-243.486 1720.66,-236.516"/>
</g>
<!-- Node16 -->
<g id="node34" class="node"><title>Node16</title>
<a xlink:href="classstxxl_1_1mng__local_1_1block__w__info.html" target="_top" xlink:title="Contains per block information for stxxl::typed_block , not intended for direct use. ">
<polygon fill="none" stroke="black" points="1800,-180.5 1800,-227.5 1930,-227.5 1930,-180.5 1800,-180.5"/>
<text text-anchor="start" x="1808" y="-214.5" font-family="Helvetica,sans-Serif" font-size="10.00">stxxl::mng_local::block</text>
<text text-anchor="start" x="1808" y="-201.5" font-family="Helvetica,sans-Serif" font-size="10.00">_w_info&lt; Type, RawSize,</text>
<text text-anchor="middle" x="1865" y="-188.5" font-family="Helvetica,sans-Serif" font-size="10.00"> NBids, MetaInfoType &gt;</text>
</a>
</g>
<!-- Node5&#45;&gt;Node16 -->
<g id="edge40" class="edge"><title>Node5&#45;&gt;Node16</title>
<path fill="none" stroke="midnightblue" d="M1720.26,-220.082C1746.73,-217.141 1775.22,-213.976 1799.86,-211.238"/>
<polygon fill="midnightblue" stroke="midnightblue" points="1719.77,-216.615 1710.22,-221.198 1720.55,-223.572 1719.77,-216.615"/>
</g>
<!-- Node6 -->
<g id="node10" class="node"><title>Node6</title>
<a xlink:href="classstxxl_1_1mng__local_1_1element__block.html" target="_top" xlink:title="Contains data elements for stxxl::typed_block , not intended for direct use. ">
<polygon fill="none" stroke="black" points="1066,-273 1066,-307 1194,-307 1194,-273 1066,-273"/>
<text text-anchor="start" x="1074" y="-294" font-family="Helvetica,sans-Serif" font-size="10.00">stxxl::mng_local::element</text>
<text text-anchor="middle" x="1130" y="-281" font-family="Helvetica,sans-Serif" font-size="10.00">_block&lt; Type, Size &gt;</text>
</a>
</g>
<!-- Node6&#45;&gt;Node5 -->
<g id="edge10" class="edge"><title>Node6&#45;&gt;Node5</title>
<path fill="none" stroke="midnightblue" d="M1204.39,-304.564C1286.95,-317.671 1423.15,-330.136 1534,-296 1553.66,-289.945 1572.91,-278.395 1589.01,-266.628"/>
<polygon fill="midnightblue" stroke="midnightblue" points="1204.78,-301.081 1194.35,-302.924 1203.65,-307.99 1204.78,-301.081"/>
</g>
<!-- Node15 -->
<g id="node30" class="node"><title>Node15</title>
<a xlink:href="classstxxl_1_1mng__local_1_1block__w__bids.html" target="_top" xlink:title="Contains BID references for stxxl::typed_block , not intended for direct use. ">
<polygon fill="none" stroke="black" points="1246,-228.5 1246,-275.5 1404,-275.5 1404,-228.5 1246,-228.5"/>
<text text-anchor="start" x="1254" y="-262.5" font-family="Helvetica,sans-Serif" font-size="10.00">stxxl::mng_local::block</text>
<text text-anchor="start" x="1254" y="-249.5" font-family="Helvetica,sans-Serif" font-size="10.00">_w_bids&lt; Type, Size, RawSize,</text>
<text text-anchor="middle" x="1325" y="-236.5" font-family="Helvetica,sans-Serif" font-size="10.00"> NBids &gt;</text>
</a>
</g>
<!-- Node6&#45;&gt;Node15 -->
<g id="edge34" class="edge"><title>Node6&#45;&gt;Node15</title>
<path fill="none" stroke="midnightblue" d="M1203.96,-275.587C1217.66,-272.917 1232.02,-270.12 1245.86,-267.421"/>
<polygon fill="midnightblue" stroke="midnightblue" points="1203.27,-272.157 1194.12,-277.505 1204.61,-279.027 1203.27,-272.157"/>
</g>
<!-- Node7 -->
<g id="node12" class="node"><title>Node7</title>
<a xlink:href="structstxxl_1_1BID.html" target="_top" xlink:title="stxxl::BID\&lt; raw_size \&gt;">
<polygon fill="none" stroke="black" points="1071,-216.5 1071,-237.5 1189,-237.5 1189,-216.5 1071,-216.5"/>
<text text-anchor="middle" x="1130" y="-224.5" font-family="Helvetica,sans-Serif" font-size="10.00">stxxl::BID&lt; raw_size &gt;</text>
</a>
</g>
<!-- Node7&#45;&gt;Node5 -->
<g id="edge12" class="edge"><title>Node7&#45;&gt;Node5</title>
<path fill="none" stroke="#9a32cd" stroke-dasharray="5,2" d="M1186.99,-214.586C1205.7,-211.075 1226.65,-207.738 1246,-206 1351.56,-196.522 1473.73,-207.933 1551.64,-218.029"/>
<polygon fill="#9a32cd" stroke="#9a32cd" points="1186.3,-211.154 1177.15,-216.487 1187.63,-218.027 1186.3,-211.154"/>
<text text-anchor="middle" x="1325" y="-210" font-family="Helvetica,sans-Serif" font-size="10.00"> ref</text>
</g>
<!-- Node7&#45;&gt;Node15 -->
<g id="edge36" class="edge"><title>Node7&#45;&gt;Node15</title>
<path fill="none" stroke="#9a32cd" stroke-dasharray="5,2" d="M1199.26,-235.879C1214.28,-237.805 1230.27,-239.855 1245.65,-241.826"/>
<polygon fill="#9a32cd" stroke="#9a32cd" points="1199.4,-232.369 1189.04,-234.569 1198.51,-239.312 1199.4,-232.369"/>
<text text-anchor="middle" x="1220" y="-243" font-family="Helvetica,sans-Serif" font-size="10.00"> ref</text>
</g>
<!-- Node8 -->
<g id="node14" class="node"><title>Node8</title>
<a xlink:href="classstxxl_1_1file.html" target="_top" xlink:title="Defines interface of file. ">
<polygon fill="none" stroke="black" points="742,-212.5 742,-233.5 798,-233.5 798,-212.5 742,-212.5"/>
<text text-anchor="middle" x="770" y="-220.5" font-family="Helvetica,sans-Serif" font-size="10.00">stxxl::file</text>
</a>
</g>
<!-- Node8&#45;&gt;Node7 -->
<g id="edge14" class="edge"><title>Node8&#45;&gt;Node7</title>
<path fill="none" stroke="#9a32cd" stroke-dasharray="5,2" d="M808.252,-227.476C810.872,-227.684 813.473,-227.863 816,-228 918.96,-233.579 944.891,-228.629 1048,-228 1055.4,-227.955 1063.18,-227.887 1070.88,-227.807"/>
<polygon fill="#9a32cd" stroke="#9a32cd" points="808.458,-223.98 798.18,-226.551 807.818,-230.951 808.458,-223.98"/>
<text text-anchor="middle" x="919" y="-234" font-family="Helvetica,sans-Serif" font-size="10.00"> storage</text>
</g>
<!-- Node14 -->
<g id="node27" class="node"><title>Node14</title>
<a xlink:href="structstxxl_1_1BID.html" target="_top" xlink:title="Block identifier class. ">
<polygon fill="none" stroke="black" points="870,-184.5 870,-205.5 968,-205.5 968,-184.5 870,-184.5"/>
<text text-anchor="middle" x="919" y="-192.5" font-family="Helvetica,sans-Serif" font-size="10.00">stxxl::BID&lt; Size &gt;</text>
</a>
</g>
<!-- Node8&#45;&gt;Node14 -->
<g id="edge30" class="edge"><title>Node8&#45;&gt;Node14</title>
<path fill="none" stroke="#9a32cd" stroke-dasharray="5,2" d="M808.023,-215.855C826.863,-212.314 849.834,-207.998 869.98,-204.212"/>
<polygon fill="#9a32cd" stroke="#9a32cd" points="807.207,-212.447 798.026,-217.733 808.5,-219.326 807.207,-212.447"/>
<text text-anchor="middle" x="834" y="-217" font-family="Helvetica,sans-Serif" font-size="10.00"> storage</text>
</g>
<!-- Node9 -->
<g id="node16" class="node"><title>Node9</title>
<a xlink:href="classstxxl_1_1noncopyable.html" target="_top" xlink:title="stxxl::noncopyable">
<polygon fill="none" stroke="black" points="11,-214.5 11,-235.5 109,-235.5 109,-214.5 11,-214.5"/>
<text text-anchor="middle" x="60" y="-222.5" font-family="Helvetica,sans-Serif" font-size="10.00">stxxl::noncopyable</text>
</a>
</g>
<!-- Node9&#45;&gt;Node8 -->
<g id="edge16" class="edge"><title>Node9&#45;&gt;Node8</title>
<path fill="none" stroke="#8b1a1a" d="M119.244,-225.313C235.306,-225.836 500.773,-226.594 724,-224 729.751,-223.933 735.906,-223.825 741.782,-223.704"/>
<polygon fill="#8b1a1a" stroke="#8b1a1a" points="119.165,-221.812 109.149,-225.266 119.133,-228.812 119.165,-221.812"/>
</g>
<!-- Node11 -->
<g id="node20" class="node"><title>Node11</title>
<a xlink:href="classstxxl_1_1mutex.html" target="_top" xlink:title="stxxl::mutex">
<polygon fill="none" stroke="black" points="274.5,-188.5 274.5,-209.5 345.5,-209.5 345.5,-188.5 274.5,-188.5"/>
<text text-anchor="middle" x="310" y="-196.5" font-family="Helvetica,sans-Serif" font-size="10.00">stxxl::mutex</text>
</a>
</g>
<!-- Node9&#45;&gt;Node11 -->
<g id="edge22" class="edge"><title>Node9&#45;&gt;Node11</title>
<path fill="none" stroke="#8b1a1a" d="M119.093,-218.854C167.33,-213.838 233.906,-206.914 274.346,-202.708"/>
<polygon fill="#8b1a1a" stroke="#8b1a1a" points="118.678,-215.379 109.094,-219.894 119.402,-222.341 118.678,-215.379"/>
</g>
<!-- Node10 -->
<g id="node18" class="node"><title>Node10</title>
<a xlink:href="classstxxl_1_1atomic__counted__object.html" target="_top" xlink:title="Provides reference counting abilities for use with counting_ptr with mutex locking. ">
<polygon fill="none" stroke="black" points="526.5,-176 526.5,-210 639.5,-210 639.5,-176 526.5,-176"/>
<text text-anchor="start" x="534.5" y="-197" font-family="Helvetica,sans-Serif" font-size="10.00">stxxl::atomic_counted</text>
<text text-anchor="middle" x="583" y="-184" font-family="Helvetica,sans-Serif" font-size="10.00">_object</text>
</a>
</g>
<!-- Node10&#45;&gt;Node8 -->
<g id="edge18" class="edge"><title>Node10&#45;&gt;Node8</title>
<path fill="none" stroke="#9a32cd" stroke-dasharray="5,2" d="M649.767,-199.745C673.329,-202.594 699.94,-206.346 724,-211 729.834,-212.129 736.025,-213.572 741.911,-215.063"/>
<polygon fill="#9a32cd" stroke="#9a32cd" points="649.866,-196.232 639.525,-198.539 649.048,-203.184 649.866,-196.232"/>
<text text-anchor="middle" x="691" y="-215" font-family="Helvetica,sans-Serif" font-size="10.00"> m_request_ref</text>
</g>
<!-- Node11&#45;&gt;Node10 -->
<g id="edge20" class="edge"><title>Node11&#45;&gt;Node10</title>
<path fill="none" stroke="#9a32cd" stroke-dasharray="5,2" d="M355.875,-197.992C402.83,-196.96 475.885,-195.354 526.403,-194.244"/>
<polygon fill="#9a32cd" stroke="#9a32cd" points="355.611,-194.497 345.69,-198.216 355.765,-201.495 355.611,-194.497"/>
<text text-anchor="middle" x="448" y="-201" font-family="Helvetica,sans-Serif" font-size="10.00"> m_reference_count_mutex</text>
</g>
<!-- Node12 -->
<g id="node23" class="node"><title>Node12</title>
<a xlink:href="structstxxl_1_1choose__int__types.html" target="_top" xlink:title="stxxl::choose_int_types\l\&lt; my_pointer_size \&gt;">
<polygon fill="none" stroke="black" points="250,-136 250,-170 370,-170 370,-136 250,-136"/>
<text text-anchor="start" x="258" y="-157" font-family="Helvetica,sans-Serif" font-size="10.00">stxxl::choose_int_types</text>
<text text-anchor="middle" x="310" y="-144" font-family="Helvetica,sans-Serif" font-size="10.00">&lt; my_pointer_size &gt;</text>
</a>
</g>
<!-- Node12&#45;&gt;Node10 -->
<g id="edge24" class="edge"><title>Node12&#45;&gt;Node10</title>
<path fill="none" stroke="#9a32cd" stroke-dasharray="5,2" d="M380.835,-160.03C418.686,-164.179 466.011,-169.991 508,-177 513.909,-177.986 520.059,-179.12 526.181,-180.32"/>
<polygon fill="#9a32cd" stroke="#9a32cd" points="380.741,-156.5 370.423,-158.905 379.989,-163.459 380.741,-156.5"/>
<text text-anchor="middle" x="448" y="-181" font-family="Helvetica,sans-Serif" font-size="10.00"> m_reference_count</text>
</g>
<!-- Node13 -->
<g id="node25" class="node"><title>Node13</title>
<a xlink:href="structstxxl_1_1choose__int__types.html" target="_top" xlink:title="stxxl::choose_int_types\l\&lt; PtrSize \&gt;">
<polygon fill="none" stroke="black" points="0,-136 0,-170 120,-170 120,-136 0,-136"/>
<text text-anchor="start" x="8" y="-157" font-family="Helvetica,sans-Serif" font-size="10.00">stxxl::choose_int_types</text>
<text text-anchor="middle" x="60" y="-144" font-family="Helvetica,sans-Serif" font-size="10.00">&lt; PtrSize &gt;</text>
</a>
</g>
<!-- Node13&#45;&gt;Node12 -->
<g id="edge26" class="edge"><title>Node13&#45;&gt;Node12</title>
<path fill="none" stroke="orange" stroke-dasharray="5,2" d="M130.578,-153C168.196,-153 213.985,-153 249.89,-153"/>
<polygon fill="orange" stroke="orange" points="130.199,-149.5 120.199,-153 130.199,-156.5 130.199,-149.5"/>
<text text-anchor="middle" x="185" y="-157" font-family="Helvetica,sans-Serif" font-size="10.00"> &lt; my_pointer_size &gt;</text>
</g>
<!-- Node14&#45;&gt;Node7 -->
<g id="edge28" class="edge"><title>Node14&#45;&gt;Node7</title>
<path fill="none" stroke="orange" stroke-dasharray="5,2" d="M978.194,-203.977C1007.18,-208.373 1041.98,-213.651 1070.95,-218.044"/>
<polygon fill="orange" stroke="orange" points="978.616,-200.501 968.204,-202.462 977.566,-207.422 978.616,-200.501"/>
<text text-anchor="middle" x="1017" y="-217" font-family="Helvetica,sans-Serif" font-size="10.00"> &lt; raw_size &gt;</text>
</g>
<!-- Node15&#45;&gt;Node5 -->
<g id="edge32" class="edge"><title>Node15&#45;&gt;Node5</title>
<path fill="none" stroke="orange" stroke-dasharray="5,2" d="M1414.27,-231.946C1416.87,-231.596 1419.45,-231.279 1422,-231 1464.74,-226.323 1512.7,-225.761 1551.88,-226.508"/>
<polygon fill="orange" stroke="orange" points="1413.56,-228.515 1404.18,-233.451 1414.59,-235.438 1413.56,-228.515"/>
<text text-anchor="start" x="1422" y="-287" font-family="Helvetica,sans-Serif" font-size="10.00"> &lt; Type,((RawSize&#45;sizeof</text>
<text text-anchor="start" x="1422" y="-274" font-family="Helvetica,sans-Serif" font-size="10.00">(BID&lt; RawSize &gt;)*NBids</text>
<text text-anchor="start" x="1422" y="-261" font-family="Helvetica,sans-Serif" font-size="10.00">&#45;sizeof(MetaInfoType))</text>
<text text-anchor="start" x="1422" y="-248" font-family="Helvetica,sans-Serif" font-size="10.00">/sizeof(Type)), RawSize,</text>
<text text-anchor="middle" x="1478" y="-235" font-family="Helvetica,sans-Serif" font-size="10.00"> NBids &gt;</text>
</g>
<!-- Node16&#45;&gt;Node4 -->
<g id="edge38" class="edge"><title>Node16&#45;&gt;Node4</title>
<path fill="none" stroke="orange" stroke-dasharray="5,2" d="M1940.42,-208.53C1984.7,-211.19 2040.12,-214.52 2082.56,-217.069"/>
<polygon fill="orange" stroke="orange" points="1940.47,-205.028 1930.28,-207.921 1940.05,-212.015 1940.47,-205.028"/>
<text text-anchor="start" x="1948" y="-232" font-family="Helvetica,sans-Serif" font-size="10.00"> &lt; Type, RawSize, NRef,</text>
<text text-anchor="middle" x="2004" y="-219" font-family="Helvetica,sans-Serif" font-size="10.00"> MetaInfoType &gt;</text>
</g>
<!-- Node17 -->
<g id="node37" class="node"><title>Node17</title>
<a xlink:href="classstxxl_1_1mng__local_1_1filler__struct.html" target="_top" xlink:title="stxxl::mng_local::filler\l_struct\&lt; FillSize \&gt;">
<polygon fill="none" stroke="black" points="1809,-39 1809,-73 1921,-73 1921,-39 1809,-39"/>
<text text-anchor="start" x="1817" y="-60" font-family="Helvetica,sans-Serif" font-size="10.00">stxxl::mng_local::filler</text>
<text text-anchor="middle" x="1865" y="-47" font-family="Helvetica,sans-Serif" font-size="10.00">_struct&lt; FillSize &gt;</text>
</a>
</g>
<!-- Node17&#45;&gt;Node3 -->
<g id="edge42" class="edge"><title>Node17&#45;&gt;Node3</title>
<path fill="none" stroke="#9a32cd" stroke-dasharray="5,2" d="M1924.18,-76.2865C1996.65,-99.9635 2123.64,-137.699 2236,-152 2299.49,-160.081 2316.12,-155.944 2380,-152 2385.81,-151.641 2391.77,-151.186 2397.78,-150.66"/>
<polygon fill="#9a32cd" stroke="#9a32cd" points="1924.92,-72.8441 1914.32,-73.0428 1922.73,-79.4933 1924.92,-72.8441"/>
<text text-anchor="middle" x="2148" y="-152" font-family="Helvetica,sans-Serif" font-size="10.00"> filler</text>
</g>
<!-- Node19 -->
<g id="node41" class="node"><title>Node19</title>
<a xlink:href="classstxxl_1_1mng__local_1_1add__filler.html" target="_top" xlink:title="Contains per block filler for stxxl::typed_block , not intended for direct use. ">
<polygon fill="none" stroke="black" points="2078,-39 2078,-73 2218,-73 2218,-39 2078,-39"/>
<text text-anchor="start" x="2086" y="-60" font-family="Helvetica,sans-Serif" font-size="10.00">stxxl::mng_local::add</text>
<text text-anchor="middle" x="2148" y="-47" font-family="Helvetica,sans-Serif" font-size="10.00">_filler&lt; BaseType, FillSize &gt;</text>
</a>
</g>
<!-- Node17&#45;&gt;Node19 -->
<g id="edge48" class="edge"><title>Node17&#45;&gt;Node19</title>
<path fill="none" stroke="#9a32cd" stroke-dasharray="5,2" d="M1931.27,-56C1975.29,-56 2033,-56 2077.8,-56"/>
<polygon fill="#9a32cd" stroke="#9a32cd" points="1931.25,-52.5001 1921.25,-56 1931.25,-59.5001 1931.25,-52.5001"/>
<text text-anchor="middle" x="2004" y="-60" font-family="Helvetica,sans-Serif" font-size="10.00"> filler</text>
</g>
<!-- Node21 -->
<g id="node46" class="node"><title>Node21</title>
<a xlink:href="classstxxl_1_1mng__local_1_1add__filler.html" target="_top" xlink:title="stxxl::mng_local::add\l_filler\&lt; Type, RawSize\l&#45;sizeof(Type)\&gt;">
<polygon fill="none" stroke="black" points="2443,-0.5 2443,-47.5 2559,-47.5 2559,-0.5 2443,-0.5"/>
<text text-anchor="start" x="2451" y="-34.5" font-family="Helvetica,sans-Serif" font-size="10.00">stxxl::mng_local::add</text>
<text text-anchor="start" x="2451" y="-21.5" font-family="Helvetica,sans-Serif" font-size="10.00">_filler&lt; Type, RawSize</text>
<text text-anchor="middle" x="2501" y="-8.5" font-family="Helvetica,sans-Serif" font-size="10.00">&#45;sizeof(Type)&gt;</text>
</a>
</g>
<!-- Node17&#45;&gt;Node21 -->
<g id="edge54" class="edge"><title>Node17&#45;&gt;Node21</title>
<path fill="none" stroke="#9a32cd" stroke-dasharray="5,2" d="M1930.97,-41.2887C1972.86,-32.6041 2028.34,-22.3022 2078,-17 2211.48,-2.74856 2245.92,-5.36784 2380,-12 2400.56,-13.0169 2423.01,-14.9998 2442.93,-17.0655"/>
<polygon fill="#9a32cd" stroke="#9a32cd" points="1930.24,-37.866 1921.17,-43.3428 1931.68,-44.7172 1930.24,-37.866"/>
<text text-anchor="middle" x="2148" y="-21" font-family="Helvetica,sans-Serif" font-size="10.00"> filler</text>
</g>
<!-- Node18 -->
<g id="node39" class="node"><title>Node18</title>
<a xlink:href="classstxxl_1_1mng__local_1_1filler__struct.html" target="_top" xlink:title="stxxl::mng_local::filler\l_struct\&lt; Bytes \&gt;">
<polygon fill="none" stroke="black" points="1575,-39 1575,-73 1687,-73 1687,-39 1575,-39"/>
<text text-anchor="start" x="1583" y="-60" font-family="Helvetica,sans-Serif" font-size="10.00">stxxl::mng_local::filler</text>
<text text-anchor="middle" x="1631" y="-47" font-family="Helvetica,sans-Serif" font-size="10.00">_struct&lt; Bytes &gt;</text>
</a>
</g>
<!-- Node18&#45;&gt;Node17 -->
<g id="edge44" class="edge"><title>Node18&#45;&gt;Node17</title>
<path fill="none" stroke="orange" stroke-dasharray="5,2" d="M1697.22,-56C1732.35,-56 1775.06,-56 1808.6,-56"/>
<polygon fill="orange" stroke="orange" points="1697.05,-52.5001 1687.05,-56 1697.05,-59.5001 1697.05,-52.5001"/>
<text text-anchor="middle" x="1755" y="-60" font-family="Helvetica,sans-Serif" font-size="10.00"> &lt; FillSize &gt;</text>
</g>
<!-- Node19&#45;&gt;Node3 -->
<g id="edge46" class="edge"><title>Node19&#45;&gt;Node3</title>
<path fill="none" stroke="orange" stroke-dasharray="5,2" d="M2228.14,-54.3598C2273.49,-55.3669 2330.8,-59.9202 2380,-74 2396.74,-78.7895 2413.84,-86.022 2429.71,-93.8999"/>
<polygon fill="orange" stroke="orange" points="2228.12,-50.8591 2218.06,-54.1896 2228,-57.8581 2228.12,-50.8591"/>
<text text-anchor="start" x="2236.5" y="-143" font-family="Helvetica,sans-Serif" font-size="10.00"> &lt; mng_local::block</text>
<text text-anchor="start" x="2236.5" y="-130" font-family="Helvetica,sans-Serif" font-size="10.00">_w_info&lt; Type, RawSize,</text>
<text text-anchor="start" x="2236.5" y="-117" font-family="Helvetica,sans-Serif" font-size="10.00"> NRef, MetaInfoType &gt;,</text>
<text text-anchor="start" x="2236.5" y="-104" font-family="Helvetica,sans-Serif" font-size="10.00"> RawSize&#45;sizeof(mng_local</text>
<text text-anchor="start" x="2236.5" y="-91" font-family="Helvetica,sans-Serif" font-size="10.00">::block_w_info&lt; Type, RawSize,</text>
<text text-anchor="middle" x="2308" y="-78" font-family="Helvetica,sans-Serif" font-size="10.00"> NRef, MetaInfoType &gt;)&gt;</text>
</g>
<!-- Node19&#45;&gt;Node21 -->
<g id="edge56" class="edge"><title>Node19&#45;&gt;Node21</title>
<path fill="none" stroke="orange" stroke-dasharray="5,2" d="M2197.26,-35.3984C2209.69,-31.1103 2223.15,-27.2215 2236,-25 2306.38,-12.8289 2388.86,-15.0523 2442.88,-18.6874"/>
<polygon fill="orange" stroke="orange" points="2195.77,-32.2153 2187.55,-38.8987 2198.14,-38.8007 2195.77,-32.2153"/>
<text text-anchor="start" x="2253.5" y="-42" font-family="Helvetica,sans-Serif" font-size="10.00"> &lt; Type, RawSize&#45;sizeof</text>
<text text-anchor="middle" x="2308" y="-29" font-family="Helvetica,sans-Serif" font-size="10.00">(Type)&gt;</text>
</g>
<!-- Node20 -->
<g id="node44" class="node"><title>Node20</title>
<a xlink:href="classstxxl_1_1mng__local_1_1expand__struct.html" target="_top" xlink:title="Helper to compute the size of the filler , not intended for direct use. ">
<polygon fill="none" stroke="black" points="2642,-41 2642,-75 2774,-75 2774,-41 2642,-41"/>
<text text-anchor="start" x="2650" y="-62" font-family="Helvetica,sans-Serif" font-size="10.00">stxxl::mng_local::expand</text>
<text text-anchor="middle" x="2708" y="-49" font-family="Helvetica,sans-Serif" font-size="10.00">_struct&lt; Type, RawSize &gt;</text>
</a>
</g>
<!-- Node20&#45;&gt;Node2 -->
<g id="edge50" class="edge"><title>Node20&#45;&gt;Node2</title>
<path fill="none" stroke="orange" stroke-dasharray="5,2" d="M2784.25,-57.3125C2821.26,-58.1293 2866.21,-60.8254 2906,-68 2912.06,-69.0926 2918.26,-70.4537 2924.47,-71.9911"/>
<polygon fill="orange" stroke="orange" points="2784.09,-53.8092 2774.03,-57.1297 2783.97,-60.8081 2784.09,-53.8092"/>
<text text-anchor="start" x="2792" y="-111" font-family="Helvetica,sans-Serif" font-size="10.00"> &lt; mng_local::block</text>
<text text-anchor="start" x="2792" y="-98" font-family="Helvetica,sans-Serif" font-size="10.00">_w_info&lt; Type, RawSize,</text>
<text text-anchor="start" x="2792" y="-85" font-family="Helvetica,sans-Serif" font-size="10.00"> NRef, MetaInfoType &gt;,</text>
<text text-anchor="middle" x="2849" y="-72" font-family="Helvetica,sans-Serif" font-size="10.00"> RawSize &gt;</text>
</g>
<!-- Node21&#45;&gt;Node20 -->
<g id="edge52" class="edge"><title>Node21&#45;&gt;Node20</title>
<path fill="none" stroke="midnightblue" d="M2569.37,-35.2295C2592.68,-39.0593 2618.7,-43.3324 2641.84,-47.1332"/>
<polygon fill="midnightblue" stroke="midnightblue" points="2569.65,-31.7285 2559.21,-33.5614 2568.51,-38.636 2569.65,-31.7285"/>
</g>
</g>
</svg>
