<?xml version="1.0" encoding="UTF-8" standalone="no"?>
<!DOCTYPE svg PUBLIC "-//W3C//DTD SVG 1.1//EN"
 "http://www.w3.org/Graphics/SVG/1.1/DTD/svg11.dtd">
<!-- Generated by graphviz version 2.38.0 (20140413.2041)
 -->
<!-- Title: stxxl::prefetch_pool&lt; BlockType &gt; Pages: 1 -->
<svg width="639pt" height="137pt"
 viewBox="0.00 0.00 639.00 137.00" xmlns="http://www.w3.org/2000/svg" xmlns:xlink="http://www.w3.org/1999/xlink">
<g id="graph0" class="graph" transform="scale(1 1) rotate(0) translate(4 133)">
<title>stxxl::prefetch_pool&lt; BlockType &gt;</title>
<!-- Node1 -->
<g id="node1" class="node"><title>Node1</title>
<polygon fill="#bfbfbf" stroke="black" points="529,-60 529,-90 631,-90 631,-60 529,-60"/>
<text text-anchor="start" x="537" y="-78" font-family="Helvetica,sans-Serif" font-size="10.00">stxxl::prefetch_pool</text>
<text text-anchor="middle" x="580" y="-67" font-family="Helvetica,sans-Serif" font-size="10.00">&lt; BlockType &gt;</text>
</g>
<!-- Node2 -->
<g id="node2" class="node"><title>Node2</title>
<g id="a_node2"><a xlink:href="classstxxl_1_1noncopyable.html" target="_top" xlink:title="stxxl::noncopyable">
<polygon fill="none" stroke="black" points="307,-109.5 307,-128.5 405,-128.5 405,-109.5 307,-109.5"/>
<text text-anchor="middle" x="356" y="-116.5" font-family="Helvetica,sans-Serif" font-size="10.00">stxxl::noncopyable</text>
</a>
</g>
</g>
<!-- Node2&#45;&gt;Node1 -->
<g id="edge1" class="edge"><title>Node2&#45;&gt;Node1</title>
<path fill="none" stroke="#8b1a1a" d="M415.202,-108.48C444.057,-103.152 479.407,-96.4575 511,-90 516.804,-88.8137 522.877,-87.532 528.904,-86.2349"/>
<polygon fill="#8b1a1a" stroke="#8b1a1a" points="414.484,-105.053 405.283,-110.305 415.751,-111.937 414.484,-105.053"/>
</g>
<!-- Node3 -->
<g id="node3" class="node"><title>Node3</title>
<g id="a_node3"><a xlink:href="structstxxl_1_1choose__int__types.html" target="_top" xlink:title="stxxl::choose_int_types\l\&lt; my_pointer_size \&gt;">
<polygon fill="none" stroke="black" points="296,-60 296,-90 416,-90 416,-60 296,-60"/>
<text text-anchor="start" x="304" y="-78" font-family="Helvetica,sans-Serif" font-size="10.00">stxxl::choose_int_types</text>
<text text-anchor="middle" x="356" y="-67" font-family="Helvetica,sans-Serif" font-size="10.00">&lt; my_pointer_size &gt;</text>
</a>
</g>
</g>
<!-- Node3&#45;&gt;Node1 -->
<g id="edge2" class="edge"><title>Node3&#45;&gt;Node1</title>
<path fill="none" stroke="#9a32cd" stroke-dasharray="5,2" d="M426.319,-75C459.578,-75 498.68,-75 528.985,-75"/>
<polygon fill="#9a32cd" stroke="#9a32cd" points="426.2,-71.5001 416.2,-75 426.2,-78.5001 426.2,-71.5001"/>
<text text-anchor="middle" x="472.5" y="-78" font-family="Helvetica,sans-Serif" font-size="10.00"> free_blocks_size</text>
</g>
<!-- Node4 -->
<g id="node4" class="node"><title>Node4</title>
<g id="a_node4"><a xlink:href="structstxxl_1_1choose__int__types.html" target="_top" xlink:title="stxxl::choose_int_types\l\&lt; PtrSize \&gt;">
<polygon fill="none" stroke="black" points="17,-60 17,-90 137,-90 137,-60 17,-60"/>
<text text-anchor="start" x="25" y="-78" font-family="Helvetica,sans-Serif" font-size="10.00">stxxl::choose_int_types</text>
<text text-anchor="middle" x="77" y="-67" font-family="Helvetica,sans-Serif" font-size="10.00">&lt; PtrSize &gt;</text>
</a>
</g>
</g>
<!-- Node4&#45;&gt;Node3 -->
<g id="edge3" class="edge"><title>Node4&#45;&gt;Node3</title>
<path fill="none" stroke="orange" stroke-dasharray="5,2" d="M147.195,-75C192.837,-75 252.008,-75 295.53,-75"/>
<polygon fill="orange" stroke="orange" points="147.084,-71.5001 137.084,-75 147.084,-78.5001 147.084,-71.5001"/>
<text text-anchor="middle" x="225" y="-78" font-family="Helvetica,sans-Serif" font-size="10.00"> &lt; my_pointer_size &gt;</text>
</g>
<!-- Node5 -->
<g id="node5" class="node"><title>Node5</title>
<g id="a_node5"><a xlink:href="structstxxl_1_1compat__hash__map.html" target="_top" xlink:title="stxxl::compat_hash\l_map\&lt; bid_type, busy\l_entry, bid_hash \&gt;">
<polygon fill="none" stroke="black" points="299.5,-0.5 299.5,-41.5 412.5,-41.5 412.5,-0.5 299.5,-0.5"/>
<text text-anchor="start" x="307.5" y="-29.5" font-family="Helvetica,sans-Serif" font-size="10.00">stxxl::compat_hash</text>
<text text-anchor="start" x="307.5" y="-18.5" font-family="Helvetica,sans-Serif" font-size="10.00">_map&lt; bid_type, busy</text>
<text text-anchor="middle" x="356" y="-7.5" font-family="Helvetica,sans-Serif" font-size="10.00">_entry, bid_hash &gt;</text>
</a>
</g>
</g>
<!-- Node5&#45;&gt;Node1 -->
<g id="edge4" class="edge"><title>Node5&#45;&gt;Node1</title>
<path fill="none" stroke="#9a32cd" stroke-dasharray="5,2" d="M422.59,-36.9542C456.604,-45.228 497.492,-55.1738 528.931,-62.8211"/>
<polygon fill="#9a32cd" stroke="#9a32cd" points="423.277,-33.5195 412.733,-34.5568 421.623,-40.3212 423.277,-33.5195"/>
<text text-anchor="middle" x="472.5" y="-61" font-family="Helvetica,sans-Serif" font-size="10.00"> busy_blocks</text>
</g>
<!-- Node6 -->
<g id="node6" class="node"><title>Node6</title>
<g id="a_node6"><a xlink:href="structstxxl_1_1compat__hash__map.html" target="_top" xlink:title="stxxl::compat_hash\l_map\&lt; KeyType, MappedType,\l HashType \&gt;">
<polygon fill="none" stroke="black" points="0,-0.5 0,-41.5 154,-41.5 154,-0.5 0,-0.5"/>
<text text-anchor="start" x="8" y="-29.5" font-family="Helvetica,sans-Serif" font-size="10.00">stxxl::compat_hash</text>
<text text-anchor="start" x="8" y="-18.5" font-family="Helvetica,sans-Serif" font-size="10.00">_map&lt; KeyType, MappedType,</text>
<text text-anchor="middle" x="77" y="-7.5" font-family="Helvetica,sans-Serif" font-size="10.00"> HashType &gt;</text>
</a>
</g>
</g>
<!-- Node6&#45;&gt;Node5 -->
<g id="edge5" class="edge"><title>Node6&#45;&gt;Node5</title>
<path fill="none" stroke="orange" stroke-dasharray="5,2" d="M164.195,-21C208.263,-21 260.612,-21 299.32,-21"/>
<polygon fill="orange" stroke="orange" points="164.058,-17.5001 154.058,-21 164.058,-24.5001 164.058,-17.5001"/>
<text text-anchor="start" x="172" y="-35" font-family="Helvetica,sans-Serif" font-size="10.00"> &lt; bid_type, busy_entry,</text>
<text text-anchor="middle" x="225" y="-24" font-family="Helvetica,sans-Serif" font-size="10.00"> bid_hash &gt;</text>
</g>
</g>
</svg>
