<?xml version="1.0" encoding="UTF-8" standalone="no"?>
<!DOCTYPE svg PUBLIC "-//W3C//DTD SVG 1.1//EN"
 "http://www.w3.org/Graphics/SVG/1.1/DTD/svg11.dtd">
<!-- Generated by graphviz version 2.38.0 (20140413.2041)
 -->
<!-- Title: stxxl::winner_tree&lt; Comparator &gt; Pages: 1 -->
<svg width="468pt" height="302pt"
 viewBox="0.00 0.00 468.00 302.00" xmlns="http://www.w3.org/2000/svg" xmlns:xlink="http://www.w3.org/1999/xlink">
<g id="graph0" class="graph" transform="scale(1 1) rotate(0) translate(4 298)">
<title>stxxl::winner_tree&lt; Comparator &gt;</title>
<!-- Node1 -->
<g id="node1" class="node"><title>Node1</title>
<polygon fill="#bfbfbf" stroke="black" points="0,-126 0,-156 94,-156 94,-126 0,-126"/>
<text text-anchor="start" x="8" y="-144" font-family="Helvetica,sans-Serif" font-size="10.00">stxxl::winner_tree</text>
<text text-anchor="middle" x="47" y="-133" font-family="Helvetica,sans-Serif" font-size="10.00">&lt; Comparator &gt;</text>
</g>
<!-- Node2 -->
<g id="node2" class="node"><title>Node2</title>
<g id="a_node2"><a xlink:href="classstxxl_1_1winner__tree.html" target="_top" xlink:title="stxxl::winner_tree\l\&lt; stxxl::ppq_local::\lminima_tree::ia_comp \&gt;">
<polygon fill="none" stroke="black" points="312.5,-240.5 312.5,-281.5 434.5,-281.5 434.5,-240.5 312.5,-240.5"/>
<text text-anchor="start" x="320.5" y="-269.5" font-family="Helvetica,sans-Serif" font-size="10.00">stxxl::winner_tree</text>
<text text-anchor="start" x="320.5" y="-258.5" font-family="Helvetica,sans-Serif" font-size="10.00">&lt; stxxl::ppq_local::</text>
<text text-anchor="middle" x="373.5" y="-247.5" font-family="Helvetica,sans-Serif" font-size="10.00">minima_tree::ia_comp &gt;</text>
</a>
</g>
</g>
<!-- Node1&#45;&gt;Node2 -->
<g id="edge1" class="edge"><title>Node1&#45;&gt;Node2</title>
<path fill="none" stroke="orange" stroke-dasharray="5,2" d="M56.7379,-165.615C66.3931,-188.84 84.3392,-222.485 112,-239 172.889,-275.355 256.495,-275.527 312.403,-270.141"/>
<polygon fill="orange" stroke="orange" points="59.9057,-164.107 52.9915,-156.079 53.3904,-166.666 59.9057,-164.107"/>
<text text-anchor="start" x="134.5" y="-286" font-family="Helvetica,sans-Serif" font-size="10.00"> &lt; stxxl::ppq_local</text>
<text text-anchor="middle" x="190.5" y="-275" font-family="Helvetica,sans-Serif" font-size="10.00">::minima_tree::ia_comp &gt;</text>
</g>
<!-- Node3 -->
<g id="node3" class="node"><title>Node3</title>
<g id="a_node3"><a xlink:href="classstxxl_1_1winner__tree.html" target="_top" xlink:title="stxxl::winner_tree\l\&lt; stxxl::ppq_local::\lminima_tree::heaps_comp \&gt;">
<polygon fill="none" stroke="black" points="303.5,-180.5 303.5,-221.5 443.5,-221.5 443.5,-180.5 303.5,-180.5"/>
<text text-anchor="start" x="311.5" y="-209.5" font-family="Helvetica,sans-Serif" font-size="10.00">stxxl::winner_tree</text>
<text text-anchor="start" x="311.5" y="-198.5" font-family="Helvetica,sans-Serif" font-size="10.00">&lt; stxxl::ppq_local::</text>
<text text-anchor="middle" x="373.5" y="-187.5" font-family="Helvetica,sans-Serif" font-size="10.00">minima_tree::heaps_comp &gt;</text>
</a>
</g>
</g>
<!-- Node1&#45;&gt;Node3 -->
<g id="edge2" class="edge"><title>Node1&#45;&gt;Node3</title>
<path fill="none" stroke="orange" stroke-dasharray="5,2" d="M77.5146,-161.659C87.9534,-167.969 100.074,-174.231 112,-178 174.772,-197.839 250.007,-202.583 303.45,-202.967"/>
<polygon fill="orange" stroke="orange" points="79.144,-158.549 68.8212,-156.163 75.4033,-164.466 79.144,-158.549"/>
<text text-anchor="start" x="144.5" y="-227" font-family="Helvetica,sans-Serif" font-size="10.00"> &lt; stxxl::ppq_local</text>
<text text-anchor="start" x="144.5" y="-216" font-family="Helvetica,sans-Serif" font-size="10.00">::minima_tree::heaps</text>
<text text-anchor="middle" x="190.5" y="-205" font-family="Helvetica,sans-Serif" font-size="10.00">_comp &gt;</text>
</g>
<!-- Node4 -->
<g id="node4" class="node"><title>Node4</title>
<g id="a_node4"><a xlink:href="classstxxl_1_1winner__tree.html" target="_top" xlink:title="stxxl::winner_tree\l\&lt; stxxl::ppq_local::\lminima_tree::head_comp \&gt;">
<polygon fill="none" stroke="black" points="306,-120.5 306,-161.5 441,-161.5 441,-120.5 306,-120.5"/>
<text text-anchor="start" x="314" y="-149.5" font-family="Helvetica,sans-Serif" font-size="10.00">stxxl::winner_tree</text>
<text text-anchor="start" x="314" y="-138.5" font-family="Helvetica,sans-Serif" font-size="10.00">&lt; stxxl::ppq_local::</text>
<text text-anchor="middle" x="373.5" y="-127.5" font-family="Helvetica,sans-Serif" font-size="10.00">minima_tree::head_comp &gt;</text>
</a>
</g>
</g>
<!-- Node1&#45;&gt;Node4 -->
<g id="edge3" class="edge"><title>Node1&#45;&gt;Node4</title>
<path fill="none" stroke="orange" stroke-dasharray="5,2" d="M104.26,-141C160.356,-141 246.507,-141 305.966,-141"/>
<polygon fill="orange" stroke="orange" points="104.148,-137.5 94.1483,-141 104.148,-144.5 104.148,-137.5"/>
<text text-anchor="start" x="147" y="-166" font-family="Helvetica,sans-Serif" font-size="10.00"> &lt; stxxl::ppq_local</text>
<text text-anchor="start" x="147" y="-155" font-family="Helvetica,sans-Serif" font-size="10.00">::minima_tree::head</text>
<text text-anchor="middle" x="190.5" y="-144" font-family="Helvetica,sans-Serif" font-size="10.00">_comp &gt;</text>
</g>
<!-- Node5 -->
<g id="node5" class="node"><title>Node5</title>
<g id="a_node5"><a xlink:href="classstxxl_1_1winner__tree.html" target="_top" xlink:title="stxxl::winner_tree\l\&lt; stxxl::parallel_priority\l_queue::hint_comparator \&gt;">
<polygon fill="none" stroke="black" points="307,-60.5 307,-101.5 440,-101.5 440,-60.5 307,-60.5"/>
<text text-anchor="start" x="315" y="-89.5" font-family="Helvetica,sans-Serif" font-size="10.00">stxxl::winner_tree</text>
<text text-anchor="start" x="315" y="-78.5" font-family="Helvetica,sans-Serif" font-size="10.00">&lt; stxxl::parallel_priority</text>
<text text-anchor="middle" x="373.5" y="-67.5" font-family="Helvetica,sans-Serif" font-size="10.00">_queue::hint_comparator &gt;</text>
</a>
</g>
</g>
<!-- Node1&#45;&gt;Node5 -->
<g id="edge4" class="edge"><title>Node1&#45;&gt;Node5</title>
<path fill="none" stroke="orange" stroke-dasharray="5,2" d="M89.9743,-122.177C97.2135,-119.444 104.745,-116.913 112,-115 177.05,-97.8461 253.619,-89.1723 306.839,-84.9012"/>
<polygon fill="orange" stroke="orange" points="88.3486,-119.056 80.3369,-125.988 90.9233,-125.565 88.3486,-119.056"/>
<text text-anchor="start" x="132" y="-129" font-family="Helvetica,sans-Serif" font-size="10.00"> &lt; stxxl::parallel_priority</text>
<text text-anchor="middle" x="190.5" y="-118" font-family="Helvetica,sans-Serif" font-size="10.00">_queue::hint_comparator &gt;</text>
</g>
<!-- Node6 -->
<g id="node6" class="node"><title>Node6</title>
<g id="a_node6"><a xlink:href="classstxxl_1_1winner__tree.html" target="_top" xlink:title="stxxl::winner_tree\l\&lt; stxxl::parallel_priority\l_queue::external_min_comparator \&gt;">
<polygon fill="none" stroke="black" points="287,-0.5 287,-41.5 460,-41.5 460,-0.5 287,-0.5"/>
<text text-anchor="start" x="295" y="-29.5" font-family="Helvetica,sans-Serif" font-size="10.00">stxxl::winner_tree</text>
<text text-anchor="start" x="295" y="-18.5" font-family="Helvetica,sans-Serif" font-size="10.00">&lt; stxxl::parallel_priority</text>
<text text-anchor="middle" x="373.5" y="-7.5" font-family="Helvetica,sans-Serif" font-size="10.00">_queue::external_min_comparator &gt;</text>
</a>
</g>
</g>
<!-- Node1&#45;&gt;Node6 -->
<g id="edge5" class="edge"><title>Node1&#45;&gt;Node6</title>
<path fill="none" stroke="orange" stroke-dasharray="5,2" d="M61.1014,-117.092C72.2228,-99.2004 89.8867,-75.7131 112,-63 164.919,-32.5764 233.326,-22.4452 286.759,-19.7244"/>
<polygon fill="orange" stroke="orange" points="57.9957,-115.467 55.8931,-125.851 64.0124,-119.044 57.9957,-115.467"/>
<text text-anchor="start" x="112" y="-77" font-family="Helvetica,sans-Serif" font-size="10.00"> &lt; stxxl::parallel_priority</text>
<text text-anchor="middle" x="190.5" y="-66" font-family="Helvetica,sans-Serif" font-size="10.00">_queue::external_min_comparator &gt;</text>
</g>
</g>
</svg>
