<?xml version="1.0" encoding="UTF-8" standalone="no"?>
<!DOCTYPE svg PUBLIC "-//W3C//DTD SVG 1.1//EN"
 "http://www.w3.org/Graphics/SVG/1.1/DTD/svg11.dtd">
<!-- Generated by graphviz version 2.26.3 (20100126.1600)
 -->
<!-- Title: stxxl::vector_bufreader&lt; VectorIteratorType &gt; Pages: 1 -->
<svg width="1310pt" height="378pt"
 viewBox="0.00 0.00 1310.00 378.00" xmlns="http://www.w3.org/2000/svg" xmlns:xlink="http://www.w3.org/1999/xlink">
<g id="graph1" class="graph" transform="scale(1 1) rotate(0) translate(4 374)">
<title>stxxl::vector_bufreader&lt; VectorIteratorType &gt;</title>
<!-- Node1 -->
<g id="node1" class="node"><title>Node1</title>
<polygon fill="#bfbfbf" stroke="black" points="1186,-131 1186,-165 1302,-165 1302,-131 1186,-131"/>
<text text-anchor="start" x="1194" y="-152" font-family="Helvetica,sans-Serif" font-size="10.00">stxxl::vector_bufreader</text>
<text text-anchor="middle" x="1244" y="-139" font-family="Helvetica,sans-Serif" font-size="10.00">&lt; VectorIteratorType &gt;</text>
</g>
<!-- Node2 -->
<g id="node2" class="node"><title>Node2</title>
<a xlink:href="classstxxl_1_1noncopyable.html" target="_top" xlink:title="stxxl::noncopyable">
<polygon fill="none" stroke="black" points="6,-266.5 6,-287.5 104,-287.5 104,-266.5 6,-266.5"/>
<text text-anchor="middle" x="55" y="-274.5" font-family="Helvetica,sans-Serif" font-size="10.00">stxxl::noncopyable</text>
</a>
</g>
<!-- Node2&#45;&gt;Node1 -->
<g id="edge2" class="edge"><title>Node2&#45;&gt;Node1</title>
<path fill="none" stroke="midnightblue" d="M75.6017,-294.01C89.6179,-304.828 109.004,-318.374 128,-327 197.784,-358.691 218.357,-370 295,-370 295,-370 295,-370 1035,-370 1147.49,-370 1217.23,-217.035 1237.69,-165.051"/>
<polygon fill="midnightblue" stroke="midnightblue" points="77.6342,-291.155 67.6201,-287.695 73.2909,-296.645 77.6342,-291.155"/>
</g>
<!-- Node3 -->
<g id="node4" class="node"><title>Node3</title>
<a xlink:href="classstxxl_1_1buf__istream.html" target="_top" xlink:title="Buffered input stream. ">
<polygon fill="none" stroke="black" points="958,-131 958,-165 1112,-165 1112,-131 958,-131"/>
<text text-anchor="start" x="966" y="-152" font-family="Helvetica,sans-Serif" font-size="10.00">stxxl::buf_istream</text>
<text text-anchor="middle" x="1035" y="-139" font-family="Helvetica,sans-Serif" font-size="10.00">&lt; BlockType, BidIteratorType &gt;</text>
</a>
</g>
<!-- Node2&#45;&gt;Node3 -->
<g id="edge6" class="edge"><title>Node2&#45;&gt;Node3</title>
<path fill="none" stroke="#8b1a1a" d="M92.285,-291.043C138.968,-307.339 221.723,-332 295,-332 295,-332 295,-332 793,-332 902.516,-332 993.487,-211.115 1024.03,-165.31"/>
<polygon fill="#8b1a1a" stroke="#8b1a1a" points="93.2041,-287.656 82.6094,-287.605 90.8598,-294.251 93.2041,-287.656"/>
</g>
<!-- Node4 -->
<g id="node7" class="node"><title>Node4</title>
<a xlink:href="classstxxl_1_1block__prefetcher.html" target="_top" xlink:title="Encapsulates asynchronous prefetching engine. ">
<polygon fill="none" stroke="black" points="716,-131 716,-165 870,-165 870,-131 716,-131"/>
<text text-anchor="start" x="724" y="-152" font-family="Helvetica,sans-Serif" font-size="10.00">stxxl::block_prefetcher</text>
<text text-anchor="middle" x="793" y="-139" font-family="Helvetica,sans-Serif" font-size="10.00">&lt; BlockType, BidIteratorType &gt;</text>
</a>
</g>
<!-- Node2&#45;&gt;Node4 -->
<g id="edge10" class="edge"><title>Node2&#45;&gt;Node4</title>
<path fill="none" stroke="#8b1a1a" d="M76.1469,-260.153C90.0652,-249.989 109.138,-237.741 128,-231 155.407,-221.205 546.355,-176.002 715.708,-156.736"/>
<polygon fill="#8b1a1a" stroke="#8b1a1a" points="73.6732,-257.635 67.799,-266.452 77.8896,-263.222 73.6732,-257.635"/>
</g>
<!-- Node7 -->
<g id="node14" class="node"><title>Node7</title>
<a xlink:href="classstxxl_1_1onoff__switch.html" target="_top" xlink:title="stxxl::onoff_switch">
<polygon fill="none" stroke="black" points="500.5,-222.5 500.5,-243.5 599.5,-243.5 599.5,-222.5 500.5,-222.5"/>
<text text-anchor="middle" x="550" y="-230.5" font-family="Helvetica,sans-Serif" font-size="10.00">stxxl::onoff_switch</text>
</a>
</g>
<!-- Node2&#45;&gt;Node7 -->
<g id="edge18" class="edge"><title>Node2&#45;&gt;Node7</title>
<path fill="none" stroke="#8b1a1a" d="M102.274,-263.717C110.819,-261.41 119.662,-259.085 128,-257 174.861,-245.282 185.995,-238.367 234,-233 327.641,-222.532 437.868,-226.11 500.277,-229.599"/>
<polygon fill="#8b1a1a" stroke="#8b1a1a" points="101.156,-260.394 92.4278,-266.4 102.996,-267.147 101.156,-260.394"/>
</g>
<!-- Node8 -->
<g id="node17" class="node"><title>Node8</title>
<a xlink:href="classstxxl_1_1mutex.html" target="_top" xlink:title="stxxl::mutex">
<polygon fill="none" stroke="black" points="259.5,-282.5 259.5,-303.5 330.5,-303.5 330.5,-282.5 259.5,-282.5"/>
<text text-anchor="middle" x="295" y="-290.5" font-family="Helvetica,sans-Serif" font-size="10.00">stxxl::mutex</text>
</a>
</g>
<!-- Node2&#45;&gt;Node8 -->
<g id="edge22" class="edge"><title>Node2&#45;&gt;Node8</title>
<path fill="none" stroke="#8b1a1a" d="M114.172,-280.945C159.627,-283.975 220.914,-288.061 259.183,-290.612"/>
<polygon fill="#8b1a1a" stroke="#8b1a1a" points="114.357,-277.449 104.147,-280.276 113.892,-284.434 114.357,-277.449"/>
</g>
<!-- Node9 -->
<g id="node20" class="node"><title>Node9</title>
<a xlink:href="classstxxl_1_1condition__variable.html" target="_top" xlink:title="stxxl::condition_variable">
<polygon fill="none" stroke="black" points="234,-242.5 234,-263.5 356,-263.5 356,-242.5 234,-242.5"/>
<text text-anchor="middle" x="295" y="-250.5" font-family="Helvetica,sans-Serif" font-size="10.00">stxxl::condition_variable</text>
</a>
</g>
<!-- Node2&#45;&gt;Node9 -->
<g id="edge26" class="edge"><title>Node2&#45;&gt;Node9</title>
<path fill="none" stroke="#8b1a1a" d="M114.138,-271.086C150.576,-267.442 197.198,-262.78 233.98,-259.102"/>
<polygon fill="#8b1a1a" stroke="#8b1a1a" points="113.749,-267.608 104.147,-272.085 114.445,-274.573 113.749,-267.608"/>
</g>
<!-- Node3&#45;&gt;Node1 -->
<g id="edge4" class="edge"><title>Node3&#45;&gt;Node1</title>
<path fill="none" stroke="#9a32cd" stroke-dasharray="5,2" d="M1122.3,-148C1143.69,-148 1166.06,-148 1185.71,-148"/>
<polygon fill="#9a32cd" stroke="#9a32cd" points="1122.23,-144.5 1112.23,-148 1122.23,-151.5 1122.23,-144.5"/>
<text text-anchor="middle" x="1149" y="-152" font-family="Helvetica,sans-Serif" font-size="10.00"> m_bufin</text>
</g>
<!-- Node4&#45;&gt;Node3 -->
<g id="edge8" class="edge"><title>Node4&#45;&gt;Node3</title>
<path fill="none" stroke="#9a32cd" stroke-dasharray="5,2" d="M880.532,-148C905.764,-148 933.103,-148 957.668,-148"/>
<polygon fill="#9a32cd" stroke="#9a32cd" points="880.236,-144.5 870.236,-148 880.236,-151.5 880.236,-144.5"/>
<text text-anchor="middle" x="914" y="-152" font-family="Helvetica,sans-Serif" font-size="10.00"> prefetcher</text>
</g>
<!-- Node5 -->
<g id="node10" class="node"><title>Node5</title>
<a xlink:href="structstxxl_1_1choose__int__types.html" target="_top" xlink:title="stxxl::choose_int_types\l\&lt; my_pointer_size \&gt;">
<polygon fill="none" stroke="black" points="490,-0 490,-34 610,-34 610,-0 490,-0"/>
<text text-anchor="start" x="498" y="-21" font-family="Helvetica,sans-Serif" font-size="10.00">stxxl::choose_int_types</text>
<text text-anchor="middle" x="550" y="-8" font-family="Helvetica,sans-Serif" font-size="10.00">&lt; my_pointer_size &gt;</text>
</a>
</g>
<!-- Node5&#45;&gt;Node1 -->
<g id="edge38" class="edge"><title>Node5&#45;&gt;Node1</title>
<path fill="none" stroke="#9a32cd" stroke-dasharray="5,2" d="M620.46,-16.4891C645.008,-16.5729 672.728,-16.9608 698,-18 774.598,-21.1497 794.707,-16.5733 870,-31 992.778,-54.5253 1131.99,-104.557 1200.78,-130.924"/>
<polygon fill="#9a32cd" stroke="#9a32cd" points="620.156,-12.9887 610.15,-16.4708 620.144,-19.9887 620.156,-12.9887"/>
<text text-anchor="middle" x="914" y="-50" font-family="Helvetica,sans-Serif" font-size="10.00"> m_nbuffers</text>
</g>
<!-- Node5&#45;&gt;Node3 -->
<g id="edge36" class="edge"><title>Node5&#45;&gt;Node3</title>
<path fill="none" stroke="#9a32cd" stroke-dasharray="5,2" d="M620.31,-20.1893C645.065,-22.2221 672.953,-25.5504 698,-31 809.048,-55.1615 934.048,-104.8 995.943,-130.977"/>
<polygon fill="#9a32cd" stroke="#9a32cd" points="620.51,-16.6945 610.272,-19.4207 619.976,-23.6741 620.51,-16.6945"/>
<text text-anchor="middle" x="793" y="-85" font-family="Helvetica,sans-Serif" font-size="10.00"> current_elem</text>
</g>
<!-- Node5&#45;&gt;Node4 -->
<g id="edge12" class="edge"><title>Node5&#45;&gt;Node4</title>
<path fill="none" stroke="#9a32cd" stroke-dasharray="5,2" d="M620.146,-30.2892C645.702,-36.9259 674.153,-46.5051 698,-60 731.067,-78.7122 761.877,-111.069 778.999,-130.901"/>
<polygon fill="#9a32cd" stroke="#9a32cd" points="620.689,-26.8176 610.139,-27.7995 618.998,-33.6105 620.689,-26.8176"/>
<text text-anchor="middle" x="665" y="-90" font-family="Helvetica,sans-Serif" font-size="10.00"> seq_length</text>
<text text-anchor="middle" x="665" y="-77" font-family="Helvetica,sans-Serif" font-size="10.00">nextconsume</text>
<text text-anchor="middle" x="665" y="-64" font-family="Helvetica,sans-Serif" font-size="10.00">nextread</text>
</g>
<!-- Node6 -->
<g id="node12" class="node"><title>Node6</title>
<a xlink:href="structstxxl_1_1choose__int__types.html" target="_top" xlink:title="stxxl::choose_int_types\l\&lt; PtrSize \&gt;">
<polygon fill="none" stroke="black" points="235,-0 235,-34 355,-34 355,-0 235,-0"/>
<text text-anchor="start" x="243" y="-21" font-family="Helvetica,sans-Serif" font-size="10.00">stxxl::choose_int_types</text>
<text text-anchor="middle" x="295" y="-8" font-family="Helvetica,sans-Serif" font-size="10.00">&lt; PtrSize &gt;</text>
</a>
</g>
<!-- Node6&#45;&gt;Node5 -->
<g id="edge14" class="edge"><title>Node6&#45;&gt;Node5</title>
<path fill="none" stroke="orange" stroke-dasharray="5,2" d="M365.354,-17C404.432,-17 452.541,-17 489.854,-17"/>
<polygon fill="orange" stroke="orange" points="365.109,-13.5001 355.109,-17 365.109,-20.5001 365.109,-13.5001"/>
<text text-anchor="middle" x="421" y="-21" font-family="Helvetica,sans-Serif" font-size="10.00"> &lt; my_pointer_size &gt;</text>
</g>
<!-- Node7&#45;&gt;Node4 -->
<g id="edge16" class="edge"><title>Node7&#45;&gt;Node4</title>
<path fill="none" stroke="#9a32cd" stroke-dasharray="5,2" d="M601.754,-219.785C630.418,-212.013 666.517,-201.475 698,-190 717.992,-182.713 739.738,-173.22 757.374,-165.104"/>
<polygon fill="#9a32cd" stroke="#9a32cd" points="600.697,-216.445 591.945,-222.416 602.511,-223.206 600.697,-216.445"/>
<text text-anchor="middle" x="665" y="-214" font-family="Helvetica,sans-Serif" font-size="10.00"> completed</text>
</g>
<!-- Node8&#45;&gt;Node7 -->
<g id="edge20" class="edge"><title>Node8&#45;&gt;Node7</title>
<path fill="none" stroke="#9a32cd" stroke-dasharray="5,2" d="M340.493,-287.38C375.665,-282.491 425.383,-274.392 468,-263 487.477,-257.793 508.849,-249.899 524.89,-243.516"/>
<polygon fill="#9a32cd" stroke="#9a32cd" points="339.961,-283.92 330.523,-288.734 340.903,-290.856 339.961,-283.92"/>
<text text-anchor="middle" x="421" y="-286" font-family="Helvetica,sans-Serif" font-size="10.00"> m_mutex</text>
</g>
<!-- Node9&#45;&gt;Node7 -->
<g id="edge24" class="edge"><title>Node9&#45;&gt;Node7</title>
<path fill="none" stroke="#9a32cd" stroke-dasharray="5,2" d="M366.118,-247.422C408.756,-244.078 461.93,-239.907 500.113,-236.913"/>
<polygon fill="#9a32cd" stroke="#9a32cd" points="365.775,-243.938 356.079,-248.21 366.322,-250.917 365.775,-243.938"/>
<text text-anchor="middle" x="421" y="-250" font-family="Helvetica,sans-Serif" font-size="10.00"> m_cond</text>
</g>
<!-- Node10 -->
<g id="node23" class="node"><title>Node10</title>
<a xlink:href="classstxxl_1_1counting__ptr.html" target="_top" xlink:title="High&#45;performance smart pointer used as a wrapping reference counting pointer. ">
<polygon fill="none" stroke="black" points="501.5,-114 501.5,-148 598.5,-148 598.5,-114 501.5,-114"/>
<text text-anchor="start" x="509.5" y="-135" font-family="Helvetica,sans-Serif" font-size="10.00">stxxl::counting_ptr</text>
<text text-anchor="middle" x="550" y="-122" font-family="Helvetica,sans-Serif" font-size="10.00">&lt; Type &gt;</text>
</a>
</g>
<!-- Node10&#45;&gt;Node4 -->
<g id="edge28" class="edge"><title>Node10&#45;&gt;Node4</title>
<path fill="none" stroke="#9a32cd" stroke-dasharray="5,2" d="M608.729,-135.109C640.884,-137.358 681.125,-140.173 715.792,-142.599"/>
<polygon fill="#9a32cd" stroke="#9a32cd" points="608.811,-131.606 598.591,-134.399 608.322,-138.589 608.811,-131.606"/>
<text text-anchor="middle" x="665" y="-145" font-family="Helvetica,sans-Serif" font-size="10.00"> read_reqs</text>
</g>
<!-- Node11 -->
<g id="node25" class="node"><title>Node11</title>
<a xlink:href="classstxxl_1_1completion__handler.html" target="_top" xlink:title="Completion handler class (Loki&#45;style). ">
<polygon fill="none" stroke="black" points="486,-74.5 486,-95.5 614,-95.5 614,-74.5 486,-74.5"/>
<text text-anchor="middle" x="550" y="-82.5" font-family="Helvetica,sans-Serif" font-size="10.00">stxxl::completion_handler</text>
</a>
</g>
<!-- Node11&#45;&gt;Node4 -->
<g id="edge30" class="edge"><title>Node11&#45;&gt;Node4</title>
<path fill="none" stroke="#9a32cd" stroke-dasharray="5,2" d="M609.966,-97.7682C636.977,-103.778 669.204,-111.307 698,-119 711.495,-122.605 725.961,-126.832 739.432,-130.926"/>
<polygon fill="#9a32cd" stroke="#9a32cd" points="610.406,-94.2813 599.887,-95.5421 608.896,-101.117 610.406,-94.2813"/>
<text text-anchor="middle" x="665" y="-123" font-family="Helvetica,sans-Serif" font-size="10.00"> do_after_fetch</text>
</g>
<!-- Node12 -->
<g id="node27" class="node"><title>Node12</title>
<a xlink:href="structstxxl_1_1compat__unique__ptr.html" target="_top" xlink:title="stxxl::compat_unique\l_ptr\&lt; stxxl::completion\l_handler_impl \&gt;">
<polygon fill="none" stroke="black" points="237,-61.5 237,-108.5 353,-108.5 353,-61.5 237,-61.5"/>
<text text-anchor="start" x="245" y="-95.5" font-family="Helvetica,sans-Serif" font-size="10.00">stxxl::compat_unique</text>
<text text-anchor="start" x="245" y="-82.5" font-family="Helvetica,sans-Serif" font-size="10.00">_ptr&lt; stxxl::completion</text>
<text text-anchor="middle" x="295" y="-69.5" font-family="Helvetica,sans-Serif" font-size="10.00">_handler_impl &gt;</text>
</a>
</g>
<!-- Node12&#45;&gt;Node11 -->
<g id="edge32" class="edge"><title>Node12&#45;&gt;Node11</title>
<path fill="none" stroke="#9a32cd" stroke-dasharray="5,2" d="M363.644,-85C401.631,-85 448.547,-85 485.801,-85"/>
<polygon fill="#9a32cd" stroke="#9a32cd" points="363.183,-81.5001 353.183,-85 363.182,-88.5001 363.183,-81.5001"/>
<text text-anchor="middle" x="421" y="-89" font-family="Helvetica,sans-Serif" font-size="10.00"> m_ptr</text>
</g>
<!-- Node13 -->
<g id="node29" class="node"><title>Node13</title>
<a xlink:href="structstxxl_1_1compat__unique__ptr.html" target="_top" xlink:title="stxxl::compat_unique\l_ptr\&lt; Type \&gt;">
<polygon fill="none" stroke="black" points="0,-68 0,-102 110,-102 110,-68 0,-68"/>
<text text-anchor="start" x="8" y="-89" font-family="Helvetica,sans-Serif" font-size="10.00">stxxl::compat_unique</text>
<text text-anchor="middle" x="55" y="-76" font-family="Helvetica,sans-Serif" font-size="10.00">_ptr&lt; Type &gt;</text>
</a>
</g>
<!-- Node13&#45;&gt;Node12 -->
<g id="edge34" class="edge"><title>Node13&#45;&gt;Node12</title>
<path fill="none" stroke="orange" stroke-dasharray="5,2" d="M120.096,-85C156.538,-85 201.593,-85 236.848,-85"/>
<polygon fill="orange" stroke="orange" points="120.061,-81.5001 110.061,-85 120.061,-88.5001 120.061,-81.5001"/>
<text text-anchor="start" x="128.5" y="-102" font-family="Helvetica,sans-Serif" font-size="10.00"> &lt; stxxl::completion</text>
<text text-anchor="middle" x="172" y="-89" font-family="Helvetica,sans-Serif" font-size="10.00">_handler_impl &gt;</text>
</g>
</g>
</svg>
