<?xml version="1.0" encoding="UTF-8" standalone="no"?>
<!DOCTYPE svg PUBLIC "-//W3C//DTD SVG 1.1//EN"
 "http://www.w3.org/Graphics/SVG/1.1/DTD/svg11.dtd">
<!-- Generated by graphviz version 2.38.0 (20140413.2041)
 -->
<!-- Title: stxxl::counting_ptr&lt; Type &gt; Pages: 1 -->
<svg width="395pt" height="148pt"
 viewBox="0.00 0.00 395.00 147.50" xmlns="http://www.w3.org/2000/svg" xmlns:xlink="http://www.w3.org/1999/xlink">
<g id="graph0" class="graph" transform="scale(1 1) rotate(0) translate(4 143.5)">
<title>stxxl::counting_ptr&lt; Type &gt;</title>
<!-- Node1 -->
<g id="node1" class="node"><title>Node1</title>
<polygon fill="#bfbfbf" stroke="black" points="0,-49.5 0,-79.5 97,-79.5 97,-49.5 0,-49.5"/>
<text text-anchor="start" x="8" y="-67.5" font-family="Helvetica,sans-Serif" font-size="10.00">stxxl::counting_ptr</text>
<text text-anchor="middle" x="48.5" y="-56.5" font-family="Helvetica,sans-Serif" font-size="10.00">&lt; Type &gt;</text>
</g>
<!-- Node2 -->
<g id="node2" class="node"><title>Node2</title>
<g id="a_node2"><a xlink:href="classstxxl_1_1counting__ptr.html" target="_top" xlink:title="stxxl::counting_ptr\l\&lt; swappable_block_matrix\l_type \&gt;">
<polygon fill="none" stroke="black" points="253.5,-98 253.5,-139 386.5,-139 386.5,-98 253.5,-98"/>
<text text-anchor="start" x="261.5" y="-127" font-family="Helvetica,sans-Serif" font-size="10.00">stxxl::counting_ptr</text>
<text text-anchor="start" x="261.5" y="-116" font-family="Helvetica,sans-Serif" font-size="10.00">&lt; swappable_block_matrix</text>
<text text-anchor="middle" x="320" y="-105" font-family="Helvetica,sans-Serif" font-size="10.00">_type &gt;</text>
</a>
</g>
</g>
<!-- Node1&#45;&gt;Node2 -->
<g id="edge1" class="edge"><title>Node1&#45;&gt;Node2</title>
<path fill="none" stroke="orange" stroke-dasharray="5,2" d="M106.945,-77.7796C109.666,-78.3696 112.362,-78.9459 115,-79.5 161.051,-89.1717 213.163,-99.1173 253.19,-106.544"/>
<polygon fill="orange" stroke="orange" points="107.554,-74.3302 97.0358,-75.5988 106.05,-81.1665 107.554,-74.3302"/>
<text text-anchor="start" x="115" y="-115.5" font-family="Helvetica,sans-Serif" font-size="10.00"> &lt; swappable_block_matrix</text>
<text text-anchor="middle" x="175" y="-104.5" font-family="Helvetica,sans-Serif" font-size="10.00">_type &gt;</text>
</g>
<!-- Node3 -->
<g id="node3" class="node"><title>Node3</title>
<g id="a_node3"><a xlink:href="classstxxl_1_1counting__ptr.html" target="_top" xlink:title="stxxl::counting_ptr\l\&lt; request \&gt;">
<polygon fill="none" stroke="black" points="271.5,-49.5 271.5,-79.5 368.5,-79.5 368.5,-49.5 271.5,-49.5"/>
<text text-anchor="start" x="279.5" y="-67.5" font-family="Helvetica,sans-Serif" font-size="10.00">stxxl::counting_ptr</text>
<text text-anchor="middle" x="320" y="-56.5" font-family="Helvetica,sans-Serif" font-size="10.00">&lt; request &gt;</text>
</a>
</g>
</g>
<!-- Node1&#45;&gt;Node3 -->
<g id="edge2" class="edge"><title>Node1&#45;&gt;Node3</title>
<path fill="none" stroke="orange" stroke-dasharray="5,2" d="M107.187,-64.5C156.171,-64.5 225.621,-64.5 271.462,-64.5"/>
<polygon fill="orange" stroke="orange" points="107.061,-61.0001 97.0608,-64.5 107.061,-68.0001 107.061,-61.0001"/>
<text text-anchor="middle" x="175" y="-67.5" font-family="Helvetica,sans-Serif" font-size="10.00"> &lt; request &gt;</text>
</g>
<!-- Node4 -->
<g id="node4" class="node"><title>Node4</title>
<g id="a_node4"><a xlink:href="classstxxl_1_1counting__ptr.html" target="_top" xlink:title="stxxl::counting_ptr\l\&lt; sorted_runs_data_type \&gt;">
<polygon fill="none" stroke="black" points="253,-0.5 253,-30.5 387,-30.5 387,-0.5 253,-0.5"/>
<text text-anchor="start" x="261" y="-18.5" font-family="Helvetica,sans-Serif" font-size="10.00">stxxl::counting_ptr</text>
<text text-anchor="middle" x="320" y="-7.5" font-family="Helvetica,sans-Serif" font-size="10.00">&lt; sorted_runs_data_type &gt;</text>
</a>
</g>
</g>
<!-- Node1&#45;&gt;Node4 -->
<g id="edge3" class="edge"><title>Node1&#45;&gt;Node4</title>
<path fill="none" stroke="orange" stroke-dasharray="5,2" d="M91.9526,-45.7664C99.5158,-42.9734 107.406,-40.3993 115,-38.5 160.295,-27.1719 212.652,-21.4147 252.983,-18.4933"/>
<polygon fill="orange" stroke="orange" points="90.6576,-42.5145 82.594,-49.3868 93.1832,-49.043 90.6576,-42.5145"/>
<text text-anchor="start" x="131" y="-52.5" font-family="Helvetica,sans-Serif" font-size="10.00"> &lt; sorted_runs_data</text>
<text text-anchor="middle" x="175" y="-41.5" font-family="Helvetica,sans-Serif" font-size="10.00">_type &gt;</text>
</g>
</g>
</svg>
