<?xml version="1.0" encoding="UTF-8" standalone="no"?>
<!DOCTYPE svg PUBLIC "-//W3C//DTD SVG 1.1//EN"
 "http://www.w3.org/Graphics/SVG/1.1/DTD/svg11.dtd">
<!-- Generated by graphviz version 2.26.3 (20100126.1600)
 -->
<!-- Title: stxxl::lru_pager&lt; npages_ &gt; Pages: 1 -->
<svg width="244pt" height="262pt"
 viewBox="0.00 0.00 244.00 262.00" xmlns="http://www.w3.org/2000/svg" xmlns:xlink="http://www.w3.org/1999/xlink">
<g id="graph1" class="graph" transform="scale(1 1) rotate(0) translate(4 258)">
<title>stxxl::lru_pager&lt; npages_ &gt;</title>
<!-- Node1 -->
<g id="node1" class="node"><title>Node1</title>
<polygon fill="#bfbfbf" stroke="black" points="0,-0.5 0,-21.5 138,-21.5 138,-0.5 0,-0.5"/>
<text text-anchor="middle" x="69" y="-8.5" font-family="Helvetica,sans-Serif" font-size="10.00">stxxl::lru_pager&lt; npages_ &gt;</text>
</g>
<!-- Node2 -->
<g id="node2" class="node"><title>Node2</title>
<a xlink:href="classstxxl_1_1noncopyable.html" target="_top" xlink:title="stxxl::noncopyable">
<polygon fill="none" stroke="black" points="30,-232.5 30,-253.5 128,-253.5 128,-232.5 30,-232.5"/>
<text text-anchor="middle" x="79" y="-240.5" font-family="Helvetica,sans-Serif" font-size="10.00">stxxl::noncopyable</text>
</a>
</g>
<!-- Node2&#45;&gt;Node1 -->
<g id="edge2" class="edge"><title>Node2&#45;&gt;Node1</title>
<path fill="none" stroke="#8b1a1a" d="M74.2125,-222.243C67.3635,-190.112 56.0113,-126.362 60,-72 61.3004,-54.2775 64.6986,-33.8901 66.9272,-21.7457"/>
<polygon fill="#8b1a1a" stroke="#8b1a1a" points="70.8419,-223.212 76.4147,-232.222 77.6775,-221.703 70.8419,-223.212"/>
</g>
<!-- Node3 -->
<g id="node4" class="node"><title>Node3</title>
<a xlink:href="classstxxl_1_1simple__vector.html" target="_top" xlink:title="stxxl::simple_vector\l\&lt; list_type::iterator \&gt;">
<polygon fill="none" stroke="black" points="68.5,-73 68.5,-107 175.5,-107 175.5,-73 68.5,-73"/>
<text text-anchor="start" x="76.5" y="-94" font-family="Helvetica,sans-Serif" font-size="10.00">stxxl::simple_vector</text>
<text text-anchor="middle" x="122" y="-81" font-family="Helvetica,sans-Serif" font-size="10.00">&lt; list_type::iterator &gt;</text>
</a>
</g>
<!-- Node2&#45;&gt;Node3 -->
<g id="edge6" class="edge"><title>Node2&#45;&gt;Node3</title>
<path fill="none" stroke="#8b1a1a" d="M82.9038,-222.318C86.3443,-204.998 91.7698,-179.699 98,-158 103.044,-140.432 110.141,-120.785 115.309,-107.144"/>
<polygon fill="#8b1a1a" stroke="#8b1a1a" points="79.4108,-221.946 80.9411,-232.43 86.2825,-223.28 79.4108,-221.946"/>
</g>
<!-- Node4 -->
<g id="node7" class="node"><title>Node4</title>
<a xlink:href="classstxxl_1_1simple__vector.html" target="_top" xlink:title="Simpler non&#45;growing vector without initialization. ">
<polygon fill="none" stroke="black" points="107,-159 107,-193 211,-193 211,-159 107,-159"/>
<text text-anchor="start" x="115" y="-180" font-family="Helvetica,sans-Serif" font-size="10.00">stxxl::simple_vector</text>
<text text-anchor="middle" x="159" y="-167" font-family="Helvetica,sans-Serif" font-size="10.00">&lt; ValueType &gt;</text>
</a>
</g>
<!-- Node2&#45;&gt;Node4 -->
<g id="edge10" class="edge"><title>Node2&#45;&gt;Node4</title>
<path fill="none" stroke="#8b1a1a" d="M99.6039,-225.744C111.62,-215.68 126.718,-203.036 138.685,-193.014"/>
<polygon fill="#8b1a1a" stroke="#8b1a1a" points="97.2726,-223.131 91.8534,-232.235 101.767,-228.498 97.2726,-223.131"/>
</g>
<!-- Node3&#45;&gt;Node1 -->
<g id="edge4" class="edge"><title>Node3&#45;&gt;Node1</title>
<path fill="none" stroke="#9a32cd" stroke-dasharray="5,2" d="M104.742,-64.2764C95.0116,-49.772 83.3801,-32.4344 76.0894,-21.5672"/>
<polygon fill="#9a32cd" stroke="#9a32cd" points="102.022,-66.5038 110.5,-72.8582 107.835,-62.6039 102.022,-66.5038"/>
<text text-anchor="middle" x="127" y="-44.5" font-family="Helvetica,sans-Serif" font-size="10.00"> history_entry</text>
</g>
<!-- Node4&#45;&gt;Node3 -->
<g id="edge8" class="edge"><title>Node4&#45;&gt;Node3</title>
<path fill="none" stroke="orange" stroke-dasharray="5,2" d="M147.446,-149.145C141.535,-135.406 134.517,-119.094 129.35,-107.084"/>
<polygon fill="orange" stroke="orange" points="144.345,-150.794 151.512,-158.597 150.775,-148.027 144.345,-150.794"/>
<text text-anchor="middle" x="189" y="-130.5" font-family="Helvetica,sans-Serif" font-size="10.00"> &lt; list_type::iterator &gt;</text>
</g>
</g>
</svg>
