<?xml version="1.0" encoding="UTF-8" standalone="no"?>
<!DOCTYPE svg PUBLIC "-//W3C//DTD SVG 1.1//EN"
 "http://www.w3.org/Graphics/SVG/1.1/DTD/svg11.dtd">
<!-- Generated by graphviz version 2.26.3 (20100126.1600)
 -->
<!-- Title: stxxl::grow_shrink_stack2&lt; StackConfig &gt; Pages: 1 -->
<svg width="3438pt" height="445pt"
 viewBox="0.00 0.00 3438.00 445.00" xmlns="http://www.w3.org/2000/svg" xmlns:xlink="http://www.w3.org/1999/xlink">
<g id="graph1" class="graph" transform="scale(1 1) rotate(0) translate(4 441)">
<title>stxxl::grow_shrink_stack2&lt; StackConfig &gt;</title>
<!-- Node1 -->
<g id="node1" class="node"><title>Node1</title>
<polygon fill="#bfbfbf" stroke="black" points="3306.5,-310 3306.5,-344 3429.5,-344 3429.5,-310 3306.5,-310"/>
<text text-anchor="start" x="3314.5" y="-331" font-family="Helvetica,sans-Serif" font-size="10.00">stxxl::grow_shrink</text>
<text text-anchor="middle" x="3368" y="-318" font-family="Helvetica,sans-Serif" font-size="10.00">_stack2&lt; StackConfig &gt;</text>
</g>
<!-- Node2 -->
<g id="node2" class="node"><title>Node2</title>
<a xlink:href="classstxxl_1_1noncopyable.html" target="_top" xlink:title="stxxl::noncopyable">
<polygon fill="none" stroke="black" points="307,-159.5 307,-180.5 405,-180.5 405,-159.5 307,-159.5"/>
<text text-anchor="middle" x="356" y="-167.5" font-family="Helvetica,sans-Serif" font-size="10.00">stxxl::noncopyable</text>
</a>
</g>
<!-- Node2&#45;&gt;Node1 -->
<g id="edge2" class="edge"><title>Node2&#45;&gt;Node1</title>
<path fill="none" stroke="#8b1a1a" d="M368.343,-150.888C398.705,-106.464 481.815,-0 581,-0 581,-0 581,-0 3177,-0 3321.97,-0 3358.91,-242.597 3366.36,-309.879"/>
<polygon fill="#8b1a1a" stroke="#8b1a1a" points="365.324,-149.107 362.678,-159.366 371.144,-152.996 365.324,-149.107"/>
</g>
<!-- Node12 -->
<g id="node22" class="node"><title>Node12</title>
<a xlink:href="classstxxl_1_1file.html" target="_top" xlink:title="Defines interface of file. ">
<polygon fill="none" stroke="black" points="1036,-120.5 1036,-141.5 1092,-141.5 1092,-120.5 1036,-120.5"/>
<text text-anchor="middle" x="1064" y="-128.5" font-family="Helvetica,sans-Serif" font-size="10.00">stxxl::file</text>
</a>
</g>
<!-- Node2&#45;&gt;Node12 -->
<g id="edge24" class="edge"><title>Node2&#45;&gt;Node12</title>
<path fill="none" stroke="#8b1a1a" d="M387.9,-155.326C422.156,-140.494 478.606,-118.7 530,-111 693.53,-86.5007 737.168,-91.8569 902,-105 949.277,-108.77 1003.58,-118.634 1035.78,-125.071"/>
<polygon fill="#8b1a1a" stroke="#8b1a1a" points="386.172,-152.262 378.43,-159.494 388.993,-158.668 386.172,-152.262"/>
</g>
<!-- Node14 -->
<g id="node27" class="node"><title>Node14</title>
<a xlink:href="classstxxl_1_1mutex.html" target="_top" xlink:title="stxxl::mutex">
<polygon fill="none" stroke="black" points="545.5,-120.5 545.5,-141.5 616.5,-141.5 616.5,-120.5 545.5,-120.5"/>
<text text-anchor="middle" x="581" y="-128.5" font-family="Helvetica,sans-Serif" font-size="10.00">stxxl::mutex</text>
</a>
</g>
<!-- Node2&#45;&gt;Node14 -->
<g id="edge30" class="edge"><title>Node2&#45;&gt;Node14</title>
<path fill="none" stroke="#8b1a1a" d="M415.069,-159.339C421.457,-158.204 427.863,-157.073 434,-156 471.996,-149.359 515.56,-141.98 545.339,-136.971"/>
<polygon fill="#8b1a1a" stroke="#8b1a1a" points="414.316,-155.918 405.086,-161.119 415.545,-162.809 414.316,-155.918"/>
</g>
<!-- Node23 -->
<g id="node54" class="node"><title>Node23</title>
<a xlink:href="classstxxl_1_1read__write__pool.html" target="_top" xlink:title="stxxl::read_write_pool\l\&lt; block_type \&gt;">
<polygon fill="none" stroke="black" points="1008,-292 1008,-326 1120,-326 1120,-292 1008,-292"/>
<text text-anchor="start" x="1016" y="-313" font-family="Helvetica,sans-Serif" font-size="10.00">stxxl::read_write_pool</text>
<text text-anchor="middle" x="1064" y="-300" font-family="Helvetica,sans-Serif" font-size="10.00">&lt; block_type &gt;</text>
</a>
</g>
<!-- Node2&#45;&gt;Node23 -->
<g id="edge66" class="edge"><title>Node2&#45;&gt;Node23</title>
<path fill="none" stroke="#8b1a1a" d="M415.229,-169.891C471.322,-170.522 557.776,-173.397 632,-184 793.891,-207.127 837.2,-210.728 990,-269 1005.97,-275.088 1022.79,-283.967 1036.36,-291.813"/>
<polygon fill="#8b1a1a" stroke="#8b1a1a" points="415.15,-166.39 405.118,-169.798 415.085,-173.39 415.15,-166.39"/>
</g>
<!-- Node24 -->
<g id="node57" class="node"><title>Node24</title>
<a xlink:href="classstxxl_1_1prefetch__pool.html" target="_top" xlink:title="Implements dynamically resizable prefetching pool. ">
<polygon fill="none" stroke="black" points="530,-337 530,-371 632,-371 632,-337 530,-337"/>
<text text-anchor="start" x="538" y="-358" font-family="Helvetica,sans-Serif" font-size="10.00">stxxl::prefetch_pool</text>
<text text-anchor="middle" x="581" y="-345" font-family="Helvetica,sans-Serif" font-size="10.00">&lt; BlockType &gt;</text>
</a>
</g>
<!-- Node2&#45;&gt;Node24 -->
<g id="edge70" class="edge"><title>Node2&#45;&gt;Node24</title>
<path fill="none" stroke="#8b1a1a" d="M369.783,-188.773C384.422,-207.974 408.878,-238.022 434,-260 472.41,-293.602 486.855,-295.742 530,-323 537.271,-327.593 545.188,-332.467 552.568,-336.956"/>
<polygon fill="#8b1a1a" stroke="#8b1a1a" points="372.406,-186.437 363.603,-180.542 366.808,-190.64 372.406,-186.437"/>
</g>
<!-- Node27 -->
<g id="node65" class="node"><title>Node27</title>
<a xlink:href="classstxxl_1_1write__pool.html" target="_top" xlink:title="Implements dynamically resizable buffered writing pool. ">
<polygon fill="none" stroke="black" points="534,-247 534,-281 628,-281 628,-247 534,-247"/>
<text text-anchor="start" x="542" y="-268" font-family="Helvetica,sans-Serif" font-size="10.00">stxxl::write_pool&lt;</text>
<text text-anchor="middle" x="581" y="-255" font-family="Helvetica,sans-Serif" font-size="10.00"> BlockType &gt;</text>
</a>
</g>
<!-- Node2&#45;&gt;Node27 -->
<g id="edge80" class="edge"><title>Node2&#45;&gt;Node27</title>
<path fill="none" stroke="#8b1a1a" d="M390.672,-184.411C422.293,-197.562 470.302,-217.55 512,-235 521.23,-238.863 531.15,-243.025 540.51,-246.958"/>
<polygon fill="#8b1a1a" stroke="#8b1a1a" points="391.987,-181.167 381.409,-180.559 389.299,-187.63 391.987,-181.167"/>
</g>
<!-- Node28 -->
<g id="node68" class="node"><title>Node28</title>
<a xlink:href="classstxxl_1_1read__write__pool.html" target="_top" xlink:title="Implements dynamically resizable buffered writing and prefetched reading pool. ">
<polygon fill="none" stroke="black" points="789,-292 789,-326 901,-326 901,-292 789,-292"/>
<text text-anchor="start" x="797" y="-313" font-family="Helvetica,sans-Serif" font-size="10.00">stxxl::read_write_pool</text>
<text text-anchor="middle" x="845" y="-300" font-family="Helvetica,sans-Serif" font-size="10.00">&lt; BlockType &gt;</text>
</a>
</g>
<!-- Node2&#45;&gt;Node28 -->
<g id="edge84" class="edge"><title>Node2&#45;&gt;Node28</title>
<path fill="none" stroke="#8b1a1a" d="M374.732,-187.502C389.858,-200.964 412.15,-219.345 434,-232 466.281,-250.696 483.006,-239.528 512,-263 523.209,-272.075 517.495,-282.815 530,-290 572.635,-314.497 710.348,-313.982 788.846,-311.487"/>
<polygon fill="#8b1a1a" stroke="#8b1a1a" points="376.874,-184.719 367.114,-180.596 372.172,-189.906 376.874,-184.719"/>
</g>
<!-- Node3 -->
<g id="node4" class="node"><title>Node3</title>
<a xlink:href="structstxxl_1_1choose__int__types.html" target="_top" xlink:title="stxxl::choose_int_types\l\&lt; my_pointer_size \&gt;">
<polygon fill="none" stroke="black" points="296,-351 296,-385 416,-385 416,-351 296,-351"/>
<text text-anchor="start" x="304" y="-372" font-family="Helvetica,sans-Serif" font-size="10.00">stxxl::choose_int_types</text>
<text text-anchor="middle" x="356" y="-359" font-family="Helvetica,sans-Serif" font-size="10.00">&lt; my_pointer_size &gt;</text>
</a>
</g>
<!-- Node3&#45;&gt;Node1 -->
<g id="edge4" class="edge"><title>Node3&#45;&gt;Node1</title>
<path fill="none" stroke="#9a32cd" stroke-dasharray="5,2" d="M423.032,-387.67C467.439,-398.994 527.204,-411 581,-411 581,-411 581,-411 3177,-411 3242.75,-411 3311.28,-368.777 3345.59,-344.201"/>
<polygon fill="#9a32cd" stroke="#9a32cd" points="423.789,-384.251 413.23,-385.118 422.025,-391.025 423.789,-384.251"/>
<text text-anchor="middle" x="1800" y="-428" font-family="Helvetica,sans-Serif" font-size="10.00"> cache_offset</text>
<text text-anchor="middle" x="1800" y="-415" font-family="Helvetica,sans-Serif" font-size="10.00">pref_aggr</text>
</g>
<!-- Node13 -->
<g id="node25" class="node"><title>Node13</title>
<a xlink:href="classstxxl_1_1atomic__counted__object.html" target="_top" xlink:title="Provides reference counting abilities for use with counting_ptr with mutex locking. ">
<polygon fill="none" stroke="black" points="788.5,-114 788.5,-148 901.5,-148 901.5,-114 788.5,-114"/>
<text text-anchor="start" x="796.5" y="-135" font-family="Helvetica,sans-Serif" font-size="10.00">stxxl::atomic_counted</text>
<text text-anchor="middle" x="845" y="-122" font-family="Helvetica,sans-Serif" font-size="10.00">_object</text>
</a>
</g>
<!-- Node3&#45;&gt;Node13 -->
<g id="edge32" class="edge"><title>Node3&#45;&gt;Node13</title>
<path fill="none" stroke="#9a32cd" stroke-dasharray="5,2" d="M426.112,-354.325C461.755,-345.961 500.037,-334.321 512,-321 541.006,-288.703 500.952,-257.259 530,-225 547.567,-205.491 702.611,-165.466 788.434,-144.495"/>
<polygon fill="#9a32cd" stroke="#9a32cd" points="425.124,-350.96 416.152,-356.596 426.68,-357.785 425.124,-350.96"/>
<text text-anchor="middle" x="581" y="-229" font-family="Helvetica,sans-Serif" font-size="10.00"> m_reference_count</text>
</g>
<!-- Node3&#45;&gt;Node24 -->
<g id="edge72" class="edge"><title>Node3&#45;&gt;Node24</title>
<path fill="none" stroke="#9a32cd" stroke-dasharray="5,2" d="M426.217,-363.631C459.799,-361.541 499.263,-359.086 529.938,-357.177"/>
<polygon fill="#9a32cd" stroke="#9a32cd" points="425.764,-360.152 416,-364.267 426.198,-367.139 425.764,-360.152"/>
<text text-anchor="middle" x="473" y="-367" font-family="Helvetica,sans-Serif" font-size="10.00"> free_blocks_size</text>
</g>
<!-- Node4 -->
<g id="node6" class="node"><title>Node4</title>
<a xlink:href="structstxxl_1_1choose__int__types.html" target="_top" xlink:title="stxxl::choose_int_types\l\&lt; PtrSize \&gt;">
<polygon fill="none" stroke="black" points="17,-351 17,-385 137,-385 137,-351 17,-351"/>
<text text-anchor="start" x="25" y="-372" font-family="Helvetica,sans-Serif" font-size="10.00">stxxl::choose_int_types</text>
<text text-anchor="middle" x="77" y="-359" font-family="Helvetica,sans-Serif" font-size="10.00">&lt; PtrSize &gt;</text>
</a>
</g>
<!-- Node4&#45;&gt;Node3 -->
<g id="edge6" class="edge"><title>Node4&#45;&gt;Node3</title>
<path fill="none" stroke="orange" stroke-dasharray="5,2" d="M147.35,-368C193.165,-368 252.302,-368 295.913,-368"/>
<polygon fill="orange" stroke="orange" points="147.195,-364.5 137.195,-368 147.195,-371.5 147.195,-364.5"/>
<text text-anchor="middle" x="225" y="-372" font-family="Helvetica,sans-Serif" font-size="10.00"> &lt; my_pointer_size &gt;</text>
</g>
<!-- Node5 -->
<g id="node8" class="node"><title>Node5</title>
<a xlink:href="classstxxl_1_1typed__block.html" target="_top" xlink:title="Block containing elements of fixed length. ">
<polygon fill="none" stroke="black" points="3114.5,-257.5 3114.5,-304.5 3239.5,-304.5 3239.5,-257.5 3114.5,-257.5"/>
<text text-anchor="start" x="3122.5" y="-291.5" font-family="Helvetica,sans-Serif" font-size="10.00">stxxl::typed_block</text>
<text text-anchor="start" x="3122.5" y="-278.5" font-family="Helvetica,sans-Serif" font-size="10.00">&lt; RawSize, Type, NRef,</text>
<text text-anchor="middle" x="3177" y="-265.5" font-family="Helvetica,sans-Serif" font-size="10.00"> MetaInfoType &gt;</text>
</a>
</g>
<!-- Node5&#45;&gt;Node1 -->
<g id="edge8" class="edge"><title>Node5&#45;&gt;Node1</title>
<path fill="none" stroke="#9a32cd" stroke-dasharray="5,2" d="M3249.49,-298.459C3268.21,-302.967 3288.19,-307.778 3306.3,-312.14"/>
<polygon fill="#9a32cd" stroke="#9a32cd" points="3250.08,-295.001 3239.54,-296.062 3248.44,-301.806 3250.08,-295.001"/>
<text text-anchor="middle" x="3273" y="-310" font-family="Helvetica,sans-Serif" font-size="10.00"> cache</text>
</g>
<!-- Node6 -->
<g id="node10" class="node"><title>Node6</title>
<a xlink:href="classstxxl_1_1mng__local_1_1expand__struct.html" target="_top" xlink:title="stxxl::mng_local::expand\l_struct\&lt; mng_local::block\l_w_info\&lt; Type, RawSize, NRef,\l MetaInfoType \&gt;, RawSize \&gt;">
<polygon fill="none" stroke="black" points="2916.5,-196 2916.5,-256 3075.5,-256 3075.5,-196 2916.5,-196"/>
<text text-anchor="start" x="2924.5" y="-243" font-family="Helvetica,sans-Serif" font-size="10.00">stxxl::mng_local::expand</text>
<text text-anchor="start" x="2924.5" y="-230" font-family="Helvetica,sans-Serif" font-size="10.00">_struct&lt; mng_local::block</text>
<text text-anchor="start" x="2924.5" y="-217" font-family="Helvetica,sans-Serif" font-size="10.00">_w_info&lt; Type, RawSize, NRef,</text>
<text text-anchor="middle" x="2996" y="-204" font-family="Helvetica,sans-Serif" font-size="10.00"> MetaInfoType &gt;, RawSize &gt;</text>
</a>
</g>
<!-- Node6&#45;&gt;Node5 -->
<g id="edge10" class="edge"><title>Node6&#45;&gt;Node5</title>
<path fill="none" stroke="midnightblue" d="M3085.44,-253.177C3095.25,-256.157 3105.07,-259.143 3114.45,-261.993"/>
<polygon fill="midnightblue" stroke="midnightblue" points="3086.24,-249.763 3075.65,-250.204 3084.2,-256.46 3086.24,-249.763"/>
</g>
<!-- Node7 -->
<g id="node12" class="node"><title>Node7</title>
<a xlink:href="classstxxl_1_1mng__local_1_1add__filler.html" target="_top" xlink:title="stxxl::mng_local::add\l_filler\&lt; mng_local::block\l_w_info\&lt; Type, RawSize,\l NRef, MetaInfoType \&gt;, RawSize\l&#45;sizeof(mng_local::block_w_info\l\&lt; Type, RawSize, NRef, MetaInfoType \&gt;)\&gt;">
<polygon fill="none" stroke="black" points="2560,-183 2560,-269 2766,-269 2766,-183 2560,-183"/>
<text text-anchor="start" x="2568" y="-256" font-family="Helvetica,sans-Serif" font-size="10.00">stxxl::mng_local::add</text>
<text text-anchor="start" x="2568" y="-243" font-family="Helvetica,sans-Serif" font-size="10.00">_filler&lt; mng_local::block</text>
<text text-anchor="start" x="2568" y="-230" font-family="Helvetica,sans-Serif" font-size="10.00">_w_info&lt; Type, RawSize,</text>
<text text-anchor="start" x="2568" y="-217" font-family="Helvetica,sans-Serif" font-size="10.00"> NRef, MetaInfoType &gt;, RawSize</text>
<text text-anchor="start" x="2568" y="-204" font-family="Helvetica,sans-Serif" font-size="10.00">&#45;sizeof(mng_local::block_w_info</text>
<text text-anchor="middle" x="2663" y="-191" font-family="Helvetica,sans-Serif" font-size="10.00">&lt; Type, RawSize, NRef, MetaInfoType &gt;)&gt;</text>
</a>
</g>
<!-- Node7&#45;&gt;Node6 -->
<g id="edge12" class="edge"><title>Node7&#45;&gt;Node6</title>
<path fill="none" stroke="midnightblue" d="M2776.12,-226C2822.22,-226 2874.42,-226 2916.39,-226"/>
<polygon fill="midnightblue" stroke="midnightblue" points="2776.08,-222.5 2766.08,-226 2776.08,-229.5 2776.08,-222.5"/>
</g>
<!-- Node8 -->
<g id="node14" class="node"><title>Node8</title>
<a xlink:href="classstxxl_1_1mng__local_1_1block__w__info.html" target="_top" xlink:title="stxxl::mng_local::block\l_w_info\&lt; Type, RawSize,\l NRef, MetaInfoType \&gt;">
<polygon fill="none" stroke="black" points="2385,-254.5 2385,-301.5 2515,-301.5 2515,-254.5 2385,-254.5"/>
<text text-anchor="start" x="2393" y="-288.5" font-family="Helvetica,sans-Serif" font-size="10.00">stxxl::mng_local::block</text>
<text text-anchor="start" x="2393" y="-275.5" font-family="Helvetica,sans-Serif" font-size="10.00">_w_info&lt; Type, RawSize,</text>
<text text-anchor="middle" x="2450" y="-262.5" font-family="Helvetica,sans-Serif" font-size="10.00"> NRef, MetaInfoType &gt;</text>
</a>
</g>
<!-- Node8&#45;&gt;Node7 -->
<g id="edge14" class="edge"><title>Node8&#45;&gt;Node7</title>
<path fill="none" stroke="midnightblue" d="M2524.87,-259.721C2536.21,-256.954 2548.07,-254.058 2559.87,-251.177"/>
<polygon fill="midnightblue" stroke="midnightblue" points="2523.95,-256.344 2515.06,-262.116 2525.61,-263.144 2523.95,-256.344"/>
</g>
<!-- Node9 -->
<g id="node16" class="node"><title>Node9</title>
<a xlink:href="classstxxl_1_1mng__local_1_1block__w__bids.html" target="_top" xlink:title="stxxl::mng_local::block\l_w_bids\&lt; Type,((RawSize\l&#45;sizeof(BID\&lt; RawSize \&gt;)*NBids\l&#45;sizeof(MetaInfoType))/sizeof\l(Type)), RawSize, NBids \&gt;">
<polygon fill="none" stroke="black" points="1874,-203.5 1874,-276.5 2032,-276.5 2032,-203.5 1874,-203.5"/>
<text text-anchor="start" x="1882" y="-263.5" font-family="Helvetica,sans-Serif" font-size="10.00">stxxl::mng_local::block</text>
<text text-anchor="start" x="1882" y="-250.5" font-family="Helvetica,sans-Serif" font-size="10.00">_w_bids&lt; Type,((RawSize</text>
<text text-anchor="start" x="1882" y="-237.5" font-family="Helvetica,sans-Serif" font-size="10.00">&#45;sizeof(BID&lt; RawSize &gt;)*NBids</text>
<text text-anchor="start" x="1882" y="-224.5" font-family="Helvetica,sans-Serif" font-size="10.00">&#45;sizeof(MetaInfoType))/sizeof</text>
<text text-anchor="middle" x="1953" y="-211.5" font-family="Helvetica,sans-Serif" font-size="10.00">(Type)), RawSize, NBids &gt;</text>
</a>
</g>
<!-- Node9&#45;&gt;Node8 -->
<g id="edge16" class="edge"><title>Node9&#45;&gt;Node8</title>
<path fill="none" stroke="midnightblue" d="M2042.41,-245.731C2096.69,-249.31 2167.36,-254.147 2230,-259 2281.98,-263.027 2340.82,-268.138 2384.56,-272.044"/>
<polygon fill="midnightblue" stroke="midnightblue" points="2042.34,-242.219 2032.13,-245.055 2041.88,-249.203 2042.34,-242.219"/>
</g>
<!-- Node17 -->
<g id="node38" class="node"><title>Node17</title>
<a xlink:href="classstxxl_1_1mng__local_1_1block__w__info.html" target="_top" xlink:title="Contains per block information for stxxl::typed_block , not intended for direct use. ">
<polygon fill="none" stroke="black" points="2095,-268.5 2095,-315.5 2225,-315.5 2225,-268.5 2095,-268.5"/>
<text text-anchor="start" x="2103" y="-302.5" font-family="Helvetica,sans-Serif" font-size="10.00">stxxl::mng_local::block</text>
<text text-anchor="start" x="2103" y="-289.5" font-family="Helvetica,sans-Serif" font-size="10.00">_w_info&lt; Type, RawSize,</text>
<text text-anchor="middle" x="2160" y="-276.5" font-family="Helvetica,sans-Serif" font-size="10.00"> NBids, MetaInfoType &gt;</text>
</a>
</g>
<!-- Node9&#45;&gt;Node17 -->
<g id="edge46" class="edge"><title>Node9&#45;&gt;Node17</title>
<path fill="none" stroke="midnightblue" d="M2041.91,-262.336C2059.63,-266.787 2077.93,-271.385 2094.68,-275.592"/>
<polygon fill="midnightblue" stroke="midnightblue" points="2042.7,-258.923 2032.14,-259.882 2040.99,-265.713 2042.7,-258.923"/>
</g>
<!-- Node10 -->
<g id="node18" class="node"><title>Node10</title>
<a xlink:href="classstxxl_1_1mng__local_1_1element__block.html" target="_top" xlink:title="Contains data elements for stxxl::typed_block , not intended for direct use. ">
<polygon fill="none" stroke="black" points="1388,-259 1388,-293 1516,-293 1516,-259 1388,-259"/>
<text text-anchor="start" x="1396" y="-280" font-family="Helvetica,sans-Serif" font-size="10.00">stxxl::mng_local::element</text>
<text text-anchor="middle" x="1452" y="-267" font-family="Helvetica,sans-Serif" font-size="10.00">_block&lt; Type, Size &gt;</text>
</a>
</g>
<!-- Node10&#45;&gt;Node9 -->
<g id="edge18" class="edge"><title>Node10&#45;&gt;Node9</title>
<path fill="none" stroke="midnightblue" d="M1526.25,-273.473C1607.39,-270.316 1741.15,-263.949 1856,-253 1861.84,-252.444 1867.86,-251.801 1873.92,-251.106"/>
<polygon fill="midnightblue" stroke="midnightblue" points="1526,-269.98 1516.14,-273.861 1526.26,-276.975 1526,-269.98"/>
</g>
<!-- Node16 -->
<g id="node34" class="node"><title>Node16</title>
<a xlink:href="classstxxl_1_1mng__local_1_1block__w__bids.html" target="_top" xlink:title="Contains BID references for stxxl::typed_block , not intended for direct use. ">
<polygon fill="none" stroke="black" points="1568,-154.5 1568,-201.5 1726,-201.5 1726,-154.5 1568,-154.5"/>
<text text-anchor="start" x="1576" y="-188.5" font-family="Helvetica,sans-Serif" font-size="10.00">stxxl::mng_local::block</text>
<text text-anchor="start" x="1576" y="-175.5" font-family="Helvetica,sans-Serif" font-size="10.00">_w_bids&lt; Type, Size, RawSize,</text>
<text text-anchor="middle" x="1647" y="-162.5" font-family="Helvetica,sans-Serif" font-size="10.00"> NBids &gt;</text>
</a>
</g>
<!-- Node10&#45;&gt;Node16 -->
<g id="edge40" class="edge"><title>Node10&#45;&gt;Node16</title>
<path fill="none" stroke="midnightblue" d="M1494.26,-254.353C1516.22,-243.142 1543.52,-229.267 1568,-217 1577.98,-211.998 1588.7,-206.677 1598.91,-201.626"/>
<polygon fill="midnightblue" stroke="midnightblue" points="1492.51,-251.316 1485.2,-258.982 1495.7,-257.55 1492.51,-251.316"/>
</g>
<!-- Node11 -->
<g id="node20" class="node"><title>Node11</title>
<a xlink:href="structstxxl_1_1BID.html" target="_top" xlink:title="stxxl::BID\&lt; raw_size \&gt;">
<polygon fill="none" stroke="black" points="1393,-167.5 1393,-188.5 1511,-188.5 1511,-167.5 1393,-167.5"/>
<text text-anchor="middle" x="1452" y="-175.5" font-family="Helvetica,sans-Serif" font-size="10.00">stxxl::BID&lt; raw_size &gt;</text>
</a>
</g>
<!-- Node11&#45;&gt;Node9 -->
<g id="edge20" class="edge"><title>Node11&#45;&gt;Node9</title>
<path fill="none" stroke="#9a32cd" stroke-dasharray="5,2" d="M1492.33,-191.6C1514.43,-198.509 1542.45,-206.396 1568,-211 1672.72,-229.869 1795.62,-236.488 1873.87,-238.794"/>
<polygon fill="#9a32cd" stroke="#9a32cd" points="1493.22,-188.208 1482.63,-188.509 1491.09,-194.878 1493.22,-188.208"/>
<text text-anchor="middle" x="1647" y="-234" font-family="Helvetica,sans-Serif" font-size="10.00"> ref</text>
</g>
<!-- Node11&#45;&gt;Node16 -->
<g id="edge42" class="edge"><title>Node11&#45;&gt;Node16</title>
<path fill="none" stroke="#9a32cd" stroke-dasharray="5,2" d="M1521.26,-178C1536.28,-178 1552.27,-178 1567.65,-178"/>
<polygon fill="#9a32cd" stroke="#9a32cd" points="1521.04,-174.5 1511.04,-178 1521.04,-181.5 1521.04,-174.5"/>
<text text-anchor="middle" x="1542" y="-182" font-family="Helvetica,sans-Serif" font-size="10.00"> ref</text>
</g>
<!-- Node12&#45;&gt;Node11 -->
<g id="edge22" class="edge"><title>Node12&#45;&gt;Node11</title>
<path fill="none" stroke="#9a32cd" stroke-dasharray="5,2" d="M1102.03,-140.738C1113.53,-143.41 1126.22,-146.093 1138,-148 1226.25,-162.29 1329.64,-170.554 1392.97,-174.667"/>
<polygon fill="#9a32cd" stroke="#9a32cd" points="1102.83,-137.331 1092.29,-138.413 1101.21,-144.14 1102.83,-137.331"/>
<text text-anchor="middle" x="1241" y="-170" font-family="Helvetica,sans-Serif" font-size="10.00"> storage</text>
</g>
<!-- Node15 -->
<g id="node31" class="node"><title>Node15</title>
<a xlink:href="structstxxl_1_1BID.html" target="_top" xlink:title="Block identifier class. ">
<polygon fill="none" stroke="black" points="1192,-120.5 1192,-141.5 1290,-141.5 1290,-120.5 1192,-120.5"/>
<text text-anchor="middle" x="1241" y="-128.5" font-family="Helvetica,sans-Serif" font-size="10.00">stxxl::BID&lt; Size &gt;</text>
</a>
</g>
<!-- Node12&#45;&gt;Node15 -->
<g id="edge36" class="edge"><title>Node12&#45;&gt;Node15</title>
<path fill="none" stroke="#9a32cd" stroke-dasharray="5,2" d="M1102.33,-131C1128.51,-131 1163.43,-131 1191.68,-131"/>
<polygon fill="#9a32cd" stroke="#9a32cd" points="1102.05,-127.5 1092.05,-131 1102.05,-134.5 1102.05,-127.5"/>
<text text-anchor="middle" x="1156" y="-135" font-family="Helvetica,sans-Serif" font-size="10.00"> storage</text>
</g>
<!-- Node13&#45;&gt;Node12 -->
<g id="edge26" class="edge"><title>Node13&#45;&gt;Node12</title>
<path fill="none" stroke="#9a32cd" stroke-dasharray="5,2" d="M911.762,-131C953.386,-131 1004.78,-131 1035.94,-131"/>
<polygon fill="#9a32cd" stroke="#9a32cd" points="911.683,-127.5 901.683,-131 911.683,-134.5 911.683,-127.5"/>
<text text-anchor="middle" x="955" y="-135" font-family="Helvetica,sans-Serif" font-size="10.00"> m_request_ref</text>
</g>
<!-- Node14&#45;&gt;Node13 -->
<g id="edge28" class="edge"><title>Node14&#45;&gt;Node13</title>
<path fill="none" stroke="#9a32cd" stroke-dasharray="5,2" d="M626.627,-131C671.453,-131 739.968,-131 788.277,-131"/>
<polygon fill="#9a32cd" stroke="#9a32cd" points="626.604,-127.5 616.604,-131 626.604,-134.5 626.604,-127.5"/>
<text text-anchor="middle" x="710" y="-135" font-family="Helvetica,sans-Serif" font-size="10.00"> m_reference_count_mutex</text>
</g>
<!-- Node15&#45;&gt;Node11 -->
<g id="edge34" class="edge"><title>Node15&#45;&gt;Node11</title>
<path fill="none" stroke="orange" stroke-dasharray="5,2" d="M1299.99,-138.067C1322.11,-141.26 1347.36,-145.556 1370,-151 1388.22,-155.38 1408.19,-161.92 1423.87,-167.466"/>
<polygon fill="orange" stroke="orange" points="1300.46,-134.599 1290.07,-136.678 1299.49,-141.531 1300.46,-134.599"/>
<text text-anchor="middle" x="1339" y="-155" font-family="Helvetica,sans-Serif" font-size="10.00"> &lt; raw_size &gt;</text>
</g>
<!-- Node16&#45;&gt;Node9 -->
<g id="edge38" class="edge"><title>Node16&#45;&gt;Node9</title>
<path fill="none" stroke="orange" stroke-dasharray="5,2" d="M1736.45,-153.926C1774.28,-147.881 1818.24,-146.439 1856,-160 1880.45,-168.781 1903.13,-186.685 1920.4,-203.332"/>
<polygon fill="orange" stroke="orange" points="1735.72,-150.5 1726.46,-155.649 1736.91,-157.398 1735.72,-150.5"/>
<text text-anchor="start" x="1744" y="-216" font-family="Helvetica,sans-Serif" font-size="10.00"> &lt; Type,((RawSize&#45;sizeof</text>
<text text-anchor="start" x="1744" y="-203" font-family="Helvetica,sans-Serif" font-size="10.00">(BID&lt; RawSize &gt;)*NBids</text>
<text text-anchor="start" x="1744" y="-190" font-family="Helvetica,sans-Serif" font-size="10.00">&#45;sizeof(MetaInfoType))</text>
<text text-anchor="start" x="1744" y="-177" font-family="Helvetica,sans-Serif" font-size="10.00">/sizeof(Type)), RawSize,</text>
<text text-anchor="middle" x="1800" y="-164" font-family="Helvetica,sans-Serif" font-size="10.00"> NBids &gt;</text>
</g>
<!-- Node17&#45;&gt;Node8 -->
<g id="edge44" class="edge"><title>Node17&#45;&gt;Node8</title>
<path fill="none" stroke="orange" stroke-dasharray="5,2" d="M2235.08,-288.375C2281.49,-286.135 2340.46,-283.288 2384.89,-281.143"/>
<polygon fill="orange" stroke="orange" points="2234.9,-284.88 2225.08,-288.858 2235.24,-291.872 2234.9,-284.88"/>
<text text-anchor="start" x="2248" y="-304" font-family="Helvetica,sans-Serif" font-size="10.00"> &lt; Type, RawSize, NRef,</text>
<text text-anchor="middle" x="2304" y="-291" font-family="Helvetica,sans-Serif" font-size="10.00"> MetaInfoType &gt;</text>
</g>
<!-- Node18 -->
<g id="node41" class="node"><title>Node18</title>
<a xlink:href="classstxxl_1_1mng__local_1_1filler__struct.html" target="_top" xlink:title="stxxl::mng_local::filler\l_struct\&lt; FillSize \&gt;">
<polygon fill="none" stroke="black" points="1897,-99 1897,-133 2009,-133 2009,-99 1897,-99"/>
<text text-anchor="start" x="1905" y="-120" font-family="Helvetica,sans-Serif" font-size="10.00">stxxl::mng_local::filler</text>
<text text-anchor="middle" x="1953" y="-107" font-family="Helvetica,sans-Serif" font-size="10.00">_struct&lt; FillSize &gt;</text>
</a>
</g>
<!-- Node18&#45;&gt;Node7 -->
<g id="edge48" class="edge"><title>Node18&#45;&gt;Node7</title>
<path fill="none" stroke="#9a32cd" stroke-dasharray="5,2" d="M2018.94,-134.635C2101.95,-157.221 2249.26,-194.433 2378,-212 2437.88,-220.171 2505.42,-223.734 2559.71,-225.225"/>
<polygon fill="#9a32cd" stroke="#9a32cd" points="2019.71,-131.217 2009.15,-131.955 2017.87,-137.969 2019.71,-131.217"/>
<text text-anchor="middle" x="2304" y="-212" font-family="Helvetica,sans-Serif" font-size="10.00"> filler</text>
</g>
<!-- Node20 -->
<g id="node45" class="node"><title>Node20</title>
<a xlink:href="classstxxl_1_1mng__local_1_1add__filler.html" target="_top" xlink:title="Contains per block filler for stxxl::typed_block , not intended for direct use. ">
<polygon fill="none" stroke="black" points="2090,-99 2090,-133 2230,-133 2230,-99 2090,-99"/>
<text text-anchor="start" x="2098" y="-120" font-family="Helvetica,sans-Serif" font-size="10.00">stxxl::mng_local::add</text>
<text text-anchor="middle" x="2160" y="-107" font-family="Helvetica,sans-Serif" font-size="10.00">_filler&lt; BaseType, FillSize &gt;</text>
</a>
</g>
<!-- Node18&#45;&gt;Node20 -->
<g id="edge54" class="edge"><title>Node18&#45;&gt;Node20</title>
<path fill="none" stroke="#9a32cd" stroke-dasharray="5,2" d="M2019.17,-116C2041.72,-116 2067.01,-116 2089.87,-116"/>
<polygon fill="#9a32cd" stroke="#9a32cd" points="2019.02,-112.5 2009.02,-116 2019.02,-119.5 2019.02,-112.5"/>
<text text-anchor="middle" x="2061" y="-120" font-family="Helvetica,sans-Serif" font-size="10.00"> filler</text>
</g>
<!-- Node22 -->
<g id="node50" class="node"><title>Node22</title>
<a xlink:href="classstxxl_1_1mng__local_1_1add__filler.html" target="_top" xlink:title="stxxl::mng_local::add\l_filler\&lt; Type, RawSize\l&#45;sizeof(Type)\&gt;">
<polygon fill="none" stroke="black" points="2392,-36.5 2392,-83.5 2508,-83.5 2508,-36.5 2392,-36.5"/>
<text text-anchor="start" x="2400" y="-70.5" font-family="Helvetica,sans-Serif" font-size="10.00">stxxl::mng_local::add</text>
<text text-anchor="start" x="2400" y="-57.5" font-family="Helvetica,sans-Serif" font-size="10.00">_filler&lt; Type, RawSize</text>
<text text-anchor="middle" x="2450" y="-44.5" font-family="Helvetica,sans-Serif" font-size="10.00">&#45;sizeof(Type)&gt;</text>
</a>
</g>
<!-- Node18&#45;&gt;Node22 -->
<g id="edge60" class="edge"><title>Node18&#45;&gt;Node22</title>
<path fill="none" stroke="#9a32cd" stroke-dasharray="5,2" d="M2014.65,-96.0372C2038.04,-89.1045 2065.04,-81.8582 2090,-77 2194.87,-56.5858 2320,-55.8409 2391.71,-57.6086"/>
<polygon fill="#9a32cd" stroke="#9a32cd" points="2013.43,-92.7483 2004.86,-98.9813 2015.45,-99.4515 2013.43,-92.7483"/>
<text text-anchor="middle" x="2160" y="-81" font-family="Helvetica,sans-Serif" font-size="10.00"> filler</text>
</g>
<!-- Node19 -->
<g id="node43" class="node"><title>Node19</title>
<a xlink:href="classstxxl_1_1mng__local_1_1filler__struct.html" target="_top" xlink:title="stxxl::mng_local::filler\l_struct\&lt; Bytes \&gt;">
<polygon fill="none" stroke="black" points="1591,-99 1591,-133 1703,-133 1703,-99 1591,-99"/>
<text text-anchor="start" x="1599" y="-120" font-family="Helvetica,sans-Serif" font-size="10.00">stxxl::mng_local::filler</text>
<text text-anchor="middle" x="1647" y="-107" font-family="Helvetica,sans-Serif" font-size="10.00">_struct&lt; Bytes &gt;</text>
</a>
</g>
<!-- Node19&#45;&gt;Node18 -->
<g id="edge50" class="edge"><title>Node19&#45;&gt;Node18</title>
<path fill="none" stroke="orange" stroke-dasharray="5,2" d="M1713.44,-116C1768.27,-116 1845.22,-116 1896.97,-116"/>
<polygon fill="orange" stroke="orange" points="1713.13,-112.5 1703.13,-116 1713.13,-119.5 1713.13,-112.5"/>
<text text-anchor="middle" x="1800" y="-120" font-family="Helvetica,sans-Serif" font-size="10.00"> &lt; FillSize &gt;</text>
</g>
<!-- Node20&#45;&gt;Node7 -->
<g id="edge52" class="edge"><title>Node20&#45;&gt;Node7</title>
<path fill="none" stroke="orange" stroke-dasharray="5,2" d="M2240.63,-108.17C2315.45,-103.637 2428.97,-103.799 2522,-134 2554.25,-144.469 2586.22,-164.34 2611.55,-182.943"/>
<polygon fill="orange" stroke="orange" points="2240.08,-104.698 2230.33,-108.838 2240.54,-111.683 2240.08,-104.698"/>
<text text-anchor="start" x="2378.5" y="-203" font-family="Helvetica,sans-Serif" font-size="10.00"> &lt; mng_local::block</text>
<text text-anchor="start" x="2378.5" y="-190" font-family="Helvetica,sans-Serif" font-size="10.00">_w_info&lt; Type, RawSize,</text>
<text text-anchor="start" x="2378.5" y="-177" font-family="Helvetica,sans-Serif" font-size="10.00"> NRef, MetaInfoType &gt;,</text>
<text text-anchor="start" x="2378.5" y="-164" font-family="Helvetica,sans-Serif" font-size="10.00"> RawSize&#45;sizeof(mng_local</text>
<text text-anchor="start" x="2378.5" y="-151" font-family="Helvetica,sans-Serif" font-size="10.00">::block_w_info&lt; Type, RawSize,</text>
<text text-anchor="middle" x="2450" y="-138" font-family="Helvetica,sans-Serif" font-size="10.00"> NRef, MetaInfoType &gt;)&gt;</text>
</g>
<!-- Node20&#45;&gt;Node22 -->
<g id="edge62" class="edge"><title>Node20&#45;&gt;Node22</title>
<path fill="none" stroke="orange" stroke-dasharray="5,2" d="M2204.38,-94.9262C2218.09,-89.2174 2233.42,-83.6217 2248,-80 2295.54,-68.1895 2351.01,-63.3082 2391.78,-61.3133"/>
<polygon fill="orange" stroke="orange" points="2202.99,-91.715 2195.18,-98.8737 2205.75,-98.1481 2202.99,-91.715"/>
<text text-anchor="start" x="2249.5" y="-97" font-family="Helvetica,sans-Serif" font-size="10.00"> &lt; Type, RawSize&#45;sizeof</text>
<text text-anchor="middle" x="2304" y="-84" font-family="Helvetica,sans-Serif" font-size="10.00">(Type)&gt;</text>
</g>
<!-- Node21 -->
<g id="node48" class="node"><title>Node21</title>
<a xlink:href="classstxxl_1_1mng__local_1_1expand__struct.html" target="_top" xlink:title="Helper to compute the size of the filler , not intended for direct use. ">
<polygon fill="none" stroke="black" points="2597,-104 2597,-138 2729,-138 2729,-104 2597,-104"/>
<text text-anchor="start" x="2605" y="-125" font-family="Helvetica,sans-Serif" font-size="10.00">stxxl::mng_local::expand</text>
<text text-anchor="middle" x="2663" y="-112" font-family="Helvetica,sans-Serif" font-size="10.00">_struct&lt; Type, RawSize &gt;</text>
</a>
</g>
<!-- Node21&#45;&gt;Node6 -->
<g id="edge56" class="edge"><title>Node21&#45;&gt;Node6</title>
<path fill="none" stroke="orange" stroke-dasharray="5,2" d="M2739.22,-130.695C2786.06,-138.158 2846.72,-150.559 2898,-170 2915.77,-176.738 2934.15,-186.41 2950.12,-195.825"/>
<polygon fill="orange" stroke="orange" points="2739.56,-127.206 2729.14,-129.131 2738.49,-134.123 2739.56,-127.206"/>
<text text-anchor="start" x="2784" y="-213" font-family="Helvetica,sans-Serif" font-size="10.00"> &lt; mng_local::block</text>
<text text-anchor="start" x="2784" y="-200" font-family="Helvetica,sans-Serif" font-size="10.00">_w_info&lt; Type, RawSize,</text>
<text text-anchor="start" x="2784" y="-187" font-family="Helvetica,sans-Serif" font-size="10.00"> NRef, MetaInfoType &gt;,</text>
<text text-anchor="middle" x="2841" y="-174" font-family="Helvetica,sans-Serif" font-size="10.00"> RawSize &gt;</text>
</g>
<!-- Node22&#45;&gt;Node21 -->
<g id="edge58" class="edge"><title>Node22&#45;&gt;Node21</title>
<path fill="none" stroke="midnightblue" d="M2518.11,-79.5065C2545.54,-87.3602 2576.88,-96.3367 2603.38,-103.927"/>
<polygon fill="midnightblue" stroke="midnightblue" points="2518.78,-76.057 2508.2,-76.6685 2516.85,-82.7865 2518.78,-76.057"/>
</g>
<!-- Node23&#45;&gt;Node1 -->
<g id="edge64" class="edge"><title>Node23&#45;&gt;Node1</title>
<path fill="none" stroke="#9a32cd" stroke-dasharray="5,2" d="M1118.64,-329.385C1153.21,-340.493 1199.12,-352 1241,-352 1241,-352 1241,-352 3177,-352 3220.48,-352 3269.05,-345.553 3306.33,-339.207"/>
<polygon fill="#9a32cd" stroke="#9a32cd" points="1119.34,-325.931 1108.75,-326.118 1117.14,-332.578 1119.34,-325.931"/>
<text text-anchor="middle" x="2160" y="-369" font-family="Helvetica,sans-Serif" font-size="10.00"> owned_pool</text>
<text text-anchor="middle" x="2160" y="-356" font-family="Helvetica,sans-Serif" font-size="10.00">pool</text>
</g>
<!-- Node24&#45;&gt;Node23 -->
<g id="edge68" class="edge"><title>Node24&#45;&gt;Node23</title>
<path fill="none" stroke="#9a32cd" stroke-dasharray="5,2" d="M642.322,-355.87C644.916,-355.92 647.484,-355.964 650,-356 703.328,-356.773 716.789,-359.611 770,-356 868.456,-349.318 892.924,-343.732 990,-326 995.835,-324.934 1001.91,-323.718 1007.95,-322.437"/>
<polygon fill="#9a32cd" stroke="#9a32cd" points="642.315,-352.369 632.241,-355.65 642.163,-359.367 642.315,-352.369"/>
<text text-anchor="middle" x="845" y="-358" font-family="Helvetica,sans-Serif" font-size="10.00"> p_pool</text>
</g>
<!-- Node24&#45;&gt;Node28 -->
<g id="edge86" class="edge"><title>Node24&#45;&gt;Node28</title>
<path fill="none" stroke="#9a32cd" stroke-dasharray="5,2" d="M642.271,-343.556C686.541,-336.01 745.873,-325.897 788.904,-318.562"/>
<polygon fill="#9a32cd" stroke="#9a32cd" points="641.485,-340.14 632.215,-345.27 642.661,-347.04 641.485,-340.14"/>
<text text-anchor="middle" x="710" y="-345" font-family="Helvetica,sans-Serif" font-size="10.00"> p_pool</text>
</g>
<!-- Node25 -->
<g id="node61" class="node"><title>Node25</title>
<a xlink:href="structstxxl_1_1compat__hash__map.html" target="_top" xlink:title="stxxl::compat_hash\l_map\&lt; bid_type, busy\l_entry, bid_hash \&gt;">
<polygon fill="none" stroke="black" points="299.5,-283.5 299.5,-330.5 412.5,-330.5 412.5,-283.5 299.5,-283.5"/>
<text text-anchor="start" x="307.5" y="-317.5" font-family="Helvetica,sans-Serif" font-size="10.00">stxxl::compat_hash</text>
<text text-anchor="start" x="307.5" y="-304.5" font-family="Helvetica,sans-Serif" font-size="10.00">_map&lt; bid_type, busy</text>
<text text-anchor="middle" x="356" y="-291.5" font-family="Helvetica,sans-Serif" font-size="10.00">_entry, bid_hash &gt;</text>
</a>
</g>
<!-- Node25&#45;&gt;Node24 -->
<g id="edge74" class="edge"><title>Node25&#45;&gt;Node24</title>
<path fill="none" stroke="#9a32cd" stroke-dasharray="5,2" d="M422.692,-320.931C456.897,-328.076 497.915,-336.644 529.627,-343.269"/>
<polygon fill="#9a32cd" stroke="#9a32cd" points="423.281,-317.479 412.777,-318.86 421.85,-324.331 423.281,-317.479"/>
<text text-anchor="middle" x="473" y="-342" font-family="Helvetica,sans-Serif" font-size="10.00"> busy_blocks</text>
</g>
<!-- Node26 -->
<g id="node63" class="node"><title>Node26</title>
<a xlink:href="structstxxl_1_1compat__hash__map.html" target="_top" xlink:title="stxxl::compat_hash\l_map\&lt; KeyType, MappedType,\l HashType \&gt;">
<polygon fill="none" stroke="black" points="0,-283.5 0,-330.5 154,-330.5 154,-283.5 0,-283.5"/>
<text text-anchor="start" x="8" y="-317.5" font-family="Helvetica,sans-Serif" font-size="10.00">stxxl::compat_hash</text>
<text text-anchor="start" x="8" y="-304.5" font-family="Helvetica,sans-Serif" font-size="10.00">_map&lt; KeyType, MappedType,</text>
<text text-anchor="middle" x="77" y="-291.5" font-family="Helvetica,sans-Serif" font-size="10.00"> HashType &gt;</text>
</a>
</g>
<!-- Node26&#45;&gt;Node25 -->
<g id="edge76" class="edge"><title>Node26&#45;&gt;Node25</title>
<path fill="none" stroke="orange" stroke-dasharray="5,2" d="M164.478,-307C208.505,-307 260.6,-307 299.336,-307"/>
<polygon fill="orange" stroke="orange" points="164.347,-303.5 154.347,-307 164.347,-310.5 164.347,-303.5"/>
<text text-anchor="start" x="172" y="-324" font-family="Helvetica,sans-Serif" font-size="10.00"> &lt; bid_type, busy_entry,</text>
<text text-anchor="middle" x="225" y="-311" font-family="Helvetica,sans-Serif" font-size="10.00"> bid_hash &gt;</text>
</g>
<!-- Node27&#45;&gt;Node23 -->
<g id="edge78" class="edge"><title>Node27&#45;&gt;Node23</title>
<path fill="none" stroke="#9a32cd" stroke-dasharray="5,2" d="M638.473,-262.208C642.374,-262.125 646.244,-262.054 650,-262 762.045,-260.377 791.175,-253.433 902,-270 937.62,-275.325 976.91,-284.694 1007.87,-292.915"/>
<polygon fill="#9a32cd" stroke="#9a32cd" points="638.049,-258.717 628.134,-262.452 638.214,-265.715 638.049,-258.717"/>
<text text-anchor="middle" x="845" y="-274" font-family="Helvetica,sans-Serif" font-size="10.00"> w_pool</text>
</g>
<!-- Node27&#45;&gt;Node28 -->
<g id="edge88" class="edge"><title>Node27&#45;&gt;Node28</title>
<path fill="none" stroke="#9a32cd" stroke-dasharray="5,2" d="M638.418,-265.734C676.184,-267.786 726.487,-272.258 770,-282 781.074,-284.479 792.748,-288.14 803.503,-291.972"/>
<polygon fill="#9a32cd" stroke="#9a32cd" points="638.277,-262.223 628.114,-265.217 637.927,-269.214 638.277,-262.223"/>
<text text-anchor="middle" x="710" y="-286" font-family="Helvetica,sans-Serif" font-size="10.00"> w_pool</text>
</g>
<!-- Node28&#45;&gt;Node23 -->
<g id="edge82" class="edge"><title>Node28&#45;&gt;Node23</title>
<path fill="none" stroke="orange" stroke-dasharray="5,2" d="M911.318,-309C942.073,-309 978.24,-309 1007.65,-309"/>
<polygon fill="orange" stroke="orange" points="911.114,-305.5 901.114,-309 911.114,-312.5 911.114,-305.5"/>
<text text-anchor="middle" x="955" y="-313" font-family="Helvetica,sans-Serif" font-size="10.00"> &lt; block_type &gt;</text>
</g>
</g>
</svg>
