<?xml version="1.0" encoding="UTF-8" standalone="no"?>
<!DOCTYPE svg PUBLIC "-//W3C//DTD SVG 1.1//EN"
 "http://www.w3.org/Graphics/SVG/1.1/DTD/svg11.dtd">
<!-- Generated by graphviz version 2.26.3 (20100126.1600)
 -->
<!-- Title: stxxl::btree::node_cache&lt; NodeType, BTreeType &gt; Pages: 1 -->
<svg width="582pt" height="122pt"
 viewBox="0.00 0.00 582.00 122.00" xmlns="http://www.w3.org/2000/svg" xmlns:xlink="http://www.w3.org/1999/xlink">
<g id="graph1" class="graph" transform="scale(1 1) rotate(0) translate(4 118)">
<title>stxxl::btree::node_cache&lt; NodeType, BTreeType &gt;</title>
<!-- Node1 -->
<g id="node1" class="node"><title>Node1</title>
<polygon fill="#bfbfbf" stroke="black" points="136.5,-40 136.5,-74 301.5,-74 301.5,-40 136.5,-40"/>
<text text-anchor="start" x="144.5" y="-61" font-family="Helvetica,sans-Serif" font-size="10.00">stxxl::btree::node</text>
<text text-anchor="middle" x="219" y="-48" font-family="Helvetica,sans-Serif" font-size="10.00">_cache&lt; NodeType, BTreeType &gt;</text>
</g>
<!-- Node3 -->
<g id="node5" class="node"><title>Node3</title>
<a xlink:href="classstxxl_1_1btree_1_1node__cache.html" target="_top" xlink:title="stxxl::btree::node\l_cache\&lt; node_type, self\l_type \&gt;">
<polygon fill="none" stroke="black" points="450,-66.5 450,-113.5 574,-113.5 574,-66.5 450,-66.5"/>
<text text-anchor="start" x="458" y="-100.5" font-family="Helvetica,sans-Serif" font-size="10.00">stxxl::btree::node</text>
<text text-anchor="start" x="458" y="-87.5" font-family="Helvetica,sans-Serif" font-size="10.00">_cache&lt; node_type, self</text>
<text text-anchor="middle" x="512" y="-74.5" font-family="Helvetica,sans-Serif" font-size="10.00">_type &gt;</text>
</a>
</g>
<!-- Node1&#45;&gt;Node3 -->
<g id="edge4" class="edge"><title>Node1&#45;&gt;Node3</title>
<path fill="none" stroke="orange" stroke-dasharray="5,2" d="M311.863,-67.459C356.905,-72.532 409.795,-78.4889 449.889,-83.0045"/>
<polygon fill="orange" stroke="orange" points="312.116,-63.9654 301.787,-66.3242 311.333,-70.9215 312.116,-63.9654"/>
<text text-anchor="middle" x="376" y="-84" font-family="Helvetica,sans-Serif" font-size="10.00"> &lt; node_type, self_type &gt;</text>
</g>
<!-- Node4 -->
<g id="node7" class="node"><title>Node4</title>
<a xlink:href="classstxxl_1_1btree_1_1node__cache.html" target="_top" xlink:title="stxxl::btree::node\l_cache\&lt; leaf_type, self\l_type \&gt;">
<polygon fill="none" stroke="black" points="452.5,-0.5 452.5,-47.5 571.5,-47.5 571.5,-0.5 452.5,-0.5"/>
<text text-anchor="start" x="460.5" y="-34.5" font-family="Helvetica,sans-Serif" font-size="10.00">stxxl::btree::node</text>
<text text-anchor="start" x="460.5" y="-21.5" font-family="Helvetica,sans-Serif" font-size="10.00">_cache&lt; leaf_type, self</text>
<text text-anchor="middle" x="512" y="-8.5" font-family="Helvetica,sans-Serif" font-size="10.00">_type &gt;</text>
</a>
</g>
<!-- Node1&#45;&gt;Node4 -->
<g id="edge6" class="edge"><title>Node1&#45;&gt;Node4</title>
<path fill="none" stroke="orange" stroke-dasharray="5,2" d="M311.758,-46.5528C357.694,-41.3792 411.814,-35.2838 452.201,-30.735"/>
<polygon fill="orange" stroke="orange" points="311.333,-43.0785 301.787,-47.6758 312.116,-50.0346 311.333,-43.0785"/>
<text text-anchor="middle" x="376" y="-50" font-family="Helvetica,sans-Serif" font-size="10.00"> &lt; leaf_type, self_type &gt;</text>
</g>
<!-- Node2 -->
<g id="node2" class="node"><title>Node2</title>
<a xlink:href="classstxxl_1_1noncopyable.html" target="_top" xlink:title="stxxl::noncopyable">
<polygon fill="none" stroke="black" points="0,-46.5 0,-67.5 98,-67.5 98,-46.5 0,-46.5"/>
<text text-anchor="middle" x="49" y="-54.5" font-family="Helvetica,sans-Serif" font-size="10.00">stxxl::noncopyable</text>
</a>
</g>
<!-- Node2&#45;&gt;Node1 -->
<g id="edge2" class="edge"><title>Node2&#45;&gt;Node1</title>
<path fill="none" stroke="#8b1a1a" d="M108.22,-57C117.306,-57 126.825,-57 136.307,-57"/>
<polygon fill="#8b1a1a" stroke="#8b1a1a" points="108.171,-53.5001 98.171,-57 108.171,-60.5001 108.171,-53.5001"/>
</g>
</g>
</svg>
