<?xml version="1.0" encoding="UTF-8" standalone="no"?>
<!DOCTYPE svg PUBLIC "-//W3C//DTD SVG 1.1//EN"
 "http://www.w3.org/Graphics/SVG/1.1/DTD/svg11.dtd">
<!-- Generated by graphviz version 2.38.0 (20140413.2041)
 -->
<!-- Title: stxxl::parallel::LoserTreePointerUnguardedBase&lt; ValueType, Comparator &gt; Pages: 1 -->
<svg width="507pt" height="110pt"
 viewBox="0.00 0.00 507.00 110.00" xmlns="http://www.w3.org/2000/svg" xmlns:xlink="http://www.w3.org/1999/xlink">
<g id="graph0" class="graph" transform="scale(1 1) rotate(0) translate(4 106)">
<title>stxxl::parallel::LoserTreePointerUnguardedBase&lt; ValueType, Comparator &gt;</title>
<!-- Node1 -->
<g id="node1" class="node"><title>Node1</title>
<polygon fill="#bfbfbf" stroke="black" points="134,-30.5 134,-71.5 310,-71.5 310,-30.5 134,-30.5"/>
<text text-anchor="start" x="142" y="-59.5" font-family="Helvetica,sans-Serif" font-size="10.00">stxxl::parallel::LoserTree</text>
<text text-anchor="start" x="142" y="-48.5" font-family="Helvetica,sans-Serif" font-size="10.00">PointerUnguardedBase&lt; ValueType,</text>
<text text-anchor="middle" x="222" y="-37.5" font-family="Helvetica,sans-Serif" font-size="10.00"> Comparator &gt;</text>
</g>
<!-- Node3 -->
<g id="node3" class="node"><title>Node3</title>
<g id="a_node3"><a xlink:href="classstxxl_1_1parallel_1_1LoserTreePointerUnguarded.html" target="_top" xlink:title="stxxl::parallel::LoserTree\lPointerUnguarded\&lt; ValueType,\l Comparator \&gt;">
<polygon fill="none" stroke="black" points="346,-60.5 346,-101.5 499,-101.5 499,-60.5 346,-60.5"/>
<text text-anchor="start" x="354" y="-89.5" font-family="Helvetica,sans-Serif" font-size="10.00">stxxl::parallel::LoserTree</text>
<text text-anchor="start" x="354" y="-78.5" font-family="Helvetica,sans-Serif" font-size="10.00">PointerUnguarded&lt; ValueType,</text>
<text text-anchor="middle" x="422.5" y="-67.5" font-family="Helvetica,sans-Serif" font-size="10.00"> Comparator &gt;</text>
</a>
</g>
</g>
<!-- Node1&#45;&gt;Node3 -->
<g id="edge2" class="edge"><title>Node1&#45;&gt;Node3</title>
<path fill="none" stroke="midnightblue" d="M320.125,-65.6789C328.717,-66.9773 337.329,-68.279 345.706,-69.5449"/>
<polygon fill="midnightblue" stroke="midnightblue" points="320.476,-62.1922 310.065,-64.1584 319.43,-69.1136 320.476,-62.1922"/>
</g>
<!-- Node4 -->
<g id="node4" class="node"><title>Node4</title>
<g id="a_node4"><a xlink:href="classstxxl_1_1parallel_1_1LoserTreePointerUnguarded_3_01true_00_01ValueType_00_01Comparator_01_4.html" target="_top" xlink:title="stxxl::parallel::LoserTree\lPointerUnguarded\&lt; true,\l ValueType, Comparator \&gt;">
<polygon fill="none" stroke="black" points="356.5,-0.5 356.5,-41.5 488.5,-41.5 488.5,-0.5 356.5,-0.5"/>
<text text-anchor="start" x="364.5" y="-29.5" font-family="Helvetica,sans-Serif" font-size="10.00">stxxl::parallel::LoserTree</text>
<text text-anchor="start" x="364.5" y="-18.5" font-family="Helvetica,sans-Serif" font-size="10.00">PointerUnguarded&lt; true,</text>
<text text-anchor="middle" x="422.5" y="-7.5" font-family="Helvetica,sans-Serif" font-size="10.00"> ValueType, Comparator &gt;</text>
</a>
</g>
</g>
<!-- Node1&#45;&gt;Node4 -->
<g id="edge3" class="edge"><title>Node1&#45;&gt;Node4</title>
<path fill="none" stroke="midnightblue" d="M320.292,-36.2958C332.498,-34.4511 344.744,-32.6004 356.29,-30.8554"/>
<polygon fill="midnightblue" stroke="midnightblue" points="319.43,-32.8864 310.065,-37.8416 320.476,-39.8078 319.43,-32.8864"/>
</g>
<!-- Node2 -->
<g id="node2" class="node"><title>Node2</title>
<g id="a_node2"><a xlink:href="classstxxl_1_1noncopyable.html" target="_top" xlink:title="stxxl::noncopyable">
<polygon fill="none" stroke="black" points="0,-41.5 0,-60.5 98,-60.5 98,-41.5 0,-41.5"/>
<text text-anchor="middle" x="49" y="-48.5" font-family="Helvetica,sans-Serif" font-size="10.00">stxxl::noncopyable</text>
</a>
</g>
</g>
<!-- Node2&#45;&gt;Node1 -->
<g id="edge1" class="edge"><title>Node2&#45;&gt;Node1</title>
<path fill="none" stroke="#8b1a1a" d="M108.284,-51C116.512,-51 125.116,-51 133.744,-51"/>
<polygon fill="#8b1a1a" stroke="#8b1a1a" points="108.088,-47.5001 98.0881,-51 108.088,-54.5001 108.088,-47.5001"/>
</g>
</g>
</svg>
