<?xml version="1.0" encoding="UTF-8" standalone="no"?>
<!DOCTYPE svg PUBLIC "-//W3C//DTD SVG 1.1//EN"
 "http://www.w3.org/Graphics/SVG/1.1/DTD/svg11.dtd">
<!-- Generated by graphviz version 2.26.3 (20100126.1600)
 -->
<!-- Title: stxxl::swappable_block&lt; ValueType, BlockSize &gt; Pages: 1 -->
<svg width="3158pt" height="392pt"
 viewBox="0.00 0.00 3158.00 392.00" xmlns="http://www.w3.org/2000/svg" xmlns:xlink="http://www.w3.org/1999/xlink">
<g id="graph1" class="graph" transform="scale(1 1) rotate(0) translate(4 388)">
<title>stxxl::swappable_block&lt; ValueType, BlockSize &gt;</title>
<!-- Node1 -->
<g id="node1" class="node"><title>Node1</title>
<polygon fill="#bfbfbf" stroke="black" points="3018.5,-35 3018.5,-69 3149.5,-69 3149.5,-35 3018.5,-35"/>
<text text-anchor="start" x="3026.5" y="-56" font-family="Helvetica,sans-Serif" font-size="10.00">stxxl::swappable_block</text>
<text text-anchor="middle" x="3084" y="-43" font-family="Helvetica,sans-Serif" font-size="10.00">&lt; ValueType, BlockSize &gt;</text>
</g>
<!-- Node2 -->
<g id="node2" class="node"><title>Node2</title>
<a xlink:href="structstxxl_1_1choose__int__types.html" target="_top" xlink:title="stxxl::choose_int_types\l\&lt; my_pointer_size \&gt;">
<polygon fill="none" stroke="black" points="250,-0 250,-34 370,-34 370,-0 250,-0"/>
<text text-anchor="start" x="258" y="-21" font-family="Helvetica,sans-Serif" font-size="10.00">stxxl::choose_int_types</text>
<text text-anchor="middle" x="310" y="-8" font-family="Helvetica,sans-Serif" font-size="10.00">&lt; my_pointer_size &gt;</text>
</a>
</g>
<!-- Node2&#45;&gt;Node1 -->
<g id="edge2" class="edge"><title>Node2&#45;&gt;Node1</title>
<path fill="none" stroke="#9a32cd" stroke-dasharray="5,2" d="M380.165,-12.6176C435.288,-9.55078 514.008,-6 583,-6 583,-6 583,-6 2859,-6 2918.81,-6 2985.77,-21.7928 3030.98,-34.8713"/>
<polygon fill="#9a32cd" stroke="#9a32cd" points="379.941,-9.12455 370.154,-13.1836 380.336,-16.1134 379.941,-9.12455"/>
<text text-anchor="middle" x="1635" y="-10" font-family="Helvetica,sans-Serif" font-size="10.00"> reference_count</text>
</g>
<!-- Node7 -->
<g id="node12" class="node"><title>Node7</title>
<a xlink:href="classstxxl_1_1atomic__counted__object.html" target="_top" xlink:title="Provides reference counting abilities for use with counting_ptr with mutex locking. ">
<polygon fill="none" stroke="black" points="526.5,-52 526.5,-86 639.5,-86 639.5,-52 526.5,-52"/>
<text text-anchor="start" x="534.5" y="-73" font-family="Helvetica,sans-Serif" font-size="10.00">stxxl::atomic_counted</text>
<text text-anchor="middle" x="583" y="-60" font-family="Helvetica,sans-Serif" font-size="10.00">_object</text>
</a>
</g>
<!-- Node2&#45;&gt;Node7 -->
<g id="edge18" class="edge"><title>Node2&#45;&gt;Node7</title>
<path fill="none" stroke="#9a32cd" stroke-dasharray="5,2" d="M380.229,-29.2344C418.125,-35.9708 465.68,-44.6406 508,-53 513.878,-54.161 520.006,-55.4082 526.116,-56.6755"/>
<polygon fill="#9a32cd" stroke="#9a32cd" points="380.769,-25.7756 370.312,-27.4763 379.547,-32.6681 380.769,-25.7756"/>
<text text-anchor="middle" x="448" y="-57" font-family="Helvetica,sans-Serif" font-size="10.00"> m_reference_count</text>
</g>
<!-- Node3 -->
<g id="node4" class="node"><title>Node3</title>
<a xlink:href="structstxxl_1_1choose__int__types.html" target="_top" xlink:title="stxxl::choose_int_types\l\&lt; PtrSize \&gt;">
<polygon fill="none" stroke="black" points="0,-0 0,-34 120,-34 120,-0 0,-0"/>
<text text-anchor="start" x="8" y="-21" font-family="Helvetica,sans-Serif" font-size="10.00">stxxl::choose_int_types</text>
<text text-anchor="middle" x="60" y="-8" font-family="Helvetica,sans-Serif" font-size="10.00">&lt; PtrSize &gt;</text>
</a>
</g>
<!-- Node3&#45;&gt;Node2 -->
<g id="edge4" class="edge"><title>Node3&#45;&gt;Node2</title>
<path fill="none" stroke="orange" stroke-dasharray="5,2" d="M130.578,-17C168.196,-17 213.985,-17 249.89,-17"/>
<polygon fill="orange" stroke="orange" points="130.199,-13.5001 120.199,-17 130.199,-20.5001 130.199,-13.5001"/>
<text text-anchor="middle" x="185" y="-21" font-family="Helvetica,sans-Serif" font-size="10.00"> &lt; my_pointer_size &gt;</text>
</g>
<!-- Node4 -->
<g id="node6" class="node"><title>Node4</title>
<a xlink:href="structstxxl_1_1BID.html" target="_top" xlink:title="stxxl::BID\&lt; raw_size \&gt;">
<polygon fill="none" stroke="black" points="1075,-87.5 1075,-108.5 1193,-108.5 1193,-87.5 1075,-87.5"/>
<text text-anchor="middle" x="1134" y="-95.5" font-family="Helvetica,sans-Serif" font-size="10.00">stxxl::BID&lt; raw_size &gt;</text>
</a>
</g>
<!-- Node4&#45;&gt;Node1 -->
<g id="edge6" class="edge"><title>Node4&#45;&gt;Node1</title>
<path fill="none" stroke="#9a32cd" stroke-dasharray="5,2" d="M1170.76,-83.9539C1209.51,-70.4257 1272.64,-52 1329,-52 1329,-52 1329,-52 2859,-52 2912.52,-52 2973.19,-52 3018.04,-52"/>
<polygon fill="#9a32cd" stroke="#9a32cd" points="1169.22,-80.7882 1160.97,-87.4467 1171.57,-87.3807 1169.22,-80.7882"/>
<text text-anchor="middle" x="2132" y="-56" font-family="Helvetica,sans-Serif" font-size="10.00"> external_data</text>
</g>
<!-- Node14 -->
<g id="node29" class="node"><title>Node14</title>
<a xlink:href="classstxxl_1_1mng__local_1_1block__w__bids.html" target="_top" xlink:title="stxxl::mng_local::block\l_w_bids\&lt; Type,((RawSize\l&#45;sizeof(BID\&lt; RawSize \&gt;)*NBids\l&#45;sizeof(MetaInfoType))/sizeof\l(Type)), RawSize, NBids \&gt;">
<polygon fill="none" stroke="black" points="1556,-94.5 1556,-167.5 1714,-167.5 1714,-94.5 1556,-94.5"/>
<text text-anchor="start" x="1564" y="-154.5" font-family="Helvetica,sans-Serif" font-size="10.00">stxxl::mng_local::block</text>
<text text-anchor="start" x="1564" y="-141.5" font-family="Helvetica,sans-Serif" font-size="10.00">_w_bids&lt; Type,((RawSize</text>
<text text-anchor="start" x="1564" y="-128.5" font-family="Helvetica,sans-Serif" font-size="10.00">&#45;sizeof(BID&lt; RawSize &gt;)*NBids</text>
<text text-anchor="start" x="1564" y="-115.5" font-family="Helvetica,sans-Serif" font-size="10.00">&#45;sizeof(MetaInfoType))/sizeof</text>
<text text-anchor="middle" x="1635" y="-102.5" font-family="Helvetica,sans-Serif" font-size="10.00">(Type)), RawSize, NBids &gt;</text>
</a>
</g>
<!-- Node4&#45;&gt;Node14 -->
<g id="edge36" class="edge"><title>Node4&#45;&gt;Node14</title>
<path fill="none" stroke="#9a32cd" stroke-dasharray="5,2" d="M1203.19,-98.8867C1258.63,-99.9312 1338.38,-102.183 1408,-107 1457.22,-110.406 1512.26,-116.175 1555.81,-121.204"/>
<polygon fill="#9a32cd" stroke="#9a32cd" points="1203.19,-95.3862 1193.12,-98.7054 1203.06,-102.385 1203.19,-95.3862"/>
<text text-anchor="middle" x="1329" y="-111" font-family="Helvetica,sans-Serif" font-size="10.00"> ref</text>
</g>
<!-- Node16 -->
<g id="node34" class="node"><title>Node16</title>
<a xlink:href="classstxxl_1_1mng__local_1_1block__w__bids.html" target="_top" xlink:title="Contains BID references for stxxl::typed_block , not intended for direct use. ">
<polygon fill="none" stroke="black" points="1250,-129.5 1250,-176.5 1408,-176.5 1408,-129.5 1250,-129.5"/>
<text text-anchor="start" x="1258" y="-163.5" font-family="Helvetica,sans-Serif" font-size="10.00">stxxl::mng_local::block</text>
<text text-anchor="start" x="1258" y="-150.5" font-family="Helvetica,sans-Serif" font-size="10.00">_w_bids&lt; Type, Size, RawSize,</text>
<text text-anchor="middle" x="1329" y="-137.5" font-family="Helvetica,sans-Serif" font-size="10.00"> NBids &gt;</text>
</a>
</g>
<!-- Node4&#45;&gt;Node16 -->
<g id="edge42" class="edge"><title>Node4&#45;&gt;Node16</title>
<path fill="none" stroke="#9a32cd" stroke-dasharray="5,2" d="M1181.36,-111.358C1201.97,-117.171 1226.69,-124.143 1249.95,-130.704"/>
<polygon fill="#9a32cd" stroke="#9a32cd" points="1182.17,-107.951 1171.6,-108.605 1180.27,-114.688 1182.17,-107.951"/>
<text text-anchor="middle" x="1224" y="-129" font-family="Helvetica,sans-Serif" font-size="10.00"> ref</text>
</g>
<!-- Node5 -->
<g id="node8" class="node"><title>Node5</title>
<a xlink:href="classstxxl_1_1file.html" target="_top" xlink:title="Defines interface of file. ">
<polygon fill="none" stroke="black" points="742,-79.5 742,-100.5 798,-100.5 798,-79.5 742,-79.5"/>
<text text-anchor="middle" x="770" y="-87.5" font-family="Helvetica,sans-Serif" font-size="10.00">stxxl::file</text>
</a>
</g>
<!-- Node5&#45;&gt;Node4 -->
<g id="edge8" class="edge"><title>Node5&#45;&gt;Node4</title>
<path fill="none" stroke="#9a32cd" stroke-dasharray="5,2" d="M808.196,-98.0543C810.829,-98.4301 813.449,-98.7528 816,-99 920.4,-109.117 947.113,-99.6395 1052,-99 1059.4,-98.9549 1067.18,-98.8868 1074.88,-98.807"/>
<polygon fill="#9a32cd" stroke="#9a32cd" points="808.529,-94.5621 798.093,-96.3889 807.39,-101.469 808.529,-94.5621"/>
<text text-anchor="middle" x="921" y="-107" font-family="Helvetica,sans-Serif" font-size="10.00"> storage</text>
</g>
<!-- Node9 -->
<g id="node18" class="node"><title>Node9</title>
<a xlink:href="structstxxl_1_1BID.html" target="_top" xlink:title="Block identifier class. ">
<polygon fill="none" stroke="black" points="870.5,-55.5 870.5,-76.5 971.5,-76.5 971.5,-55.5 870.5,-55.5"/>
<text text-anchor="middle" x="921" y="-63.5" font-family="Helvetica,sans-Serif" font-size="10.00">stxxl::BID&lt; SIZE &gt;</text>
</a>
</g>
<!-- Node5&#45;&gt;Node9 -->
<g id="edge22" class="edge"><title>Node5&#45;&gt;Node9</title>
<path fill="none" stroke="#9a32cd" stroke-dasharray="5,2" d="M808.083,-83.9471C827.001,-80.9402 850.115,-77.2665 870.491,-74.0279"/>
<polygon fill="#9a32cd" stroke="#9a32cd" points="807.375,-80.5156 798.048,-85.542 808.474,-87.4289 807.375,-80.5156"/>
<text text-anchor="middle" x="834" y="-86" font-family="Helvetica,sans-Serif" font-size="10.00"> storage</text>
</g>
<!-- Node6 -->
<g id="node10" class="node"><title>Node6</title>
<a xlink:href="classstxxl_1_1noncopyable.html" target="_top" xlink:title="stxxl::noncopyable">
<polygon fill="none" stroke="black" points="11,-90.5 11,-111.5 109,-111.5 109,-90.5 11,-90.5"/>
<text text-anchor="middle" x="60" y="-98.5" font-family="Helvetica,sans-Serif" font-size="10.00">stxxl::noncopyable</text>
</a>
</g>
<!-- Node6&#45;&gt;Node5 -->
<g id="edge10" class="edge"><title>Node6&#45;&gt;Node5</title>
<path fill="none" stroke="#8b1a1a" d="M119.472,-105.124C235.929,-112.269 502.054,-124.015 724,-100 729.85,-99.367 736.048,-98.299 741.936,-97.0909"/>
<polygon fill="#8b1a1a" stroke="#8b1a1a" points="119.541,-101.621 109.342,-104.491 119.104,-108.608 119.541,-101.621"/>
</g>
<!-- Node8 -->
<g id="node14" class="node"><title>Node8</title>
<a xlink:href="classstxxl_1_1mutex.html" target="_top" xlink:title="stxxl::mutex">
<polygon fill="none" stroke="black" points="274.5,-64.5 274.5,-85.5 345.5,-85.5 345.5,-64.5 274.5,-64.5"/>
<text text-anchor="middle" x="310" y="-72.5" font-family="Helvetica,sans-Serif" font-size="10.00">stxxl::mutex</text>
</a>
</g>
<!-- Node6&#45;&gt;Node8 -->
<g id="edge16" class="edge"><title>Node6&#45;&gt;Node8</title>
<path fill="none" stroke="#8b1a1a" d="M119.093,-94.8544C167.33,-89.8377 233.906,-82.9138 274.346,-78.708"/>
<polygon fill="#8b1a1a" stroke="#8b1a1a" points="118.678,-91.3785 109.094,-95.8943 119.402,-98.341 118.678,-91.3785"/>
</g>
<!-- Node7&#45;&gt;Node5 -->
<g id="edge12" class="edge"><title>Node7&#45;&gt;Node5</title>
<path fill="none" stroke="#9a32cd" stroke-dasharray="5,2" d="M649.733,-76.4941C681.451,-80.056 717.657,-84.1219 741.984,-86.8539"/>
<polygon fill="#9a32cd" stroke="#9a32cd" points="649.942,-72.9956 639.614,-75.3577 649.161,-79.9519 649.942,-72.9956"/>
<text text-anchor="middle" x="691" y="-88" font-family="Helvetica,sans-Serif" font-size="10.00"> m_request_ref</text>
</g>
<!-- Node8&#45;&gt;Node7 -->
<g id="edge14" class="edge"><title>Node8&#45;&gt;Node7</title>
<path fill="none" stroke="#9a32cd" stroke-dasharray="5,2" d="M355.875,-73.9918C402.83,-72.9598 475.885,-71.3542 526.403,-70.2439"/>
<polygon fill="#9a32cd" stroke="#9a32cd" points="355.611,-70.4966 345.69,-74.2156 355.765,-77.4949 355.611,-70.4966"/>
<text text-anchor="middle" x="448" y="-77" font-family="Helvetica,sans-Serif" font-size="10.00"> m_reference_count_mutex</text>
</g>
<!-- Node9&#45;&gt;Node4 -->
<g id="edge20" class="edge"><title>Node9&#45;&gt;Node4</title>
<path fill="none" stroke="orange" stroke-dasharray="5,2" d="M981.834,-75.1393C1011.07,-79.5313 1045.97,-84.7741 1074.96,-89.1304"/>
<polygon fill="orange" stroke="orange" points="982.157,-71.6487 971.748,-73.6241 981.117,-78.5711 982.157,-71.6487"/>
<text text-anchor="middle" x="1021" y="-88" font-family="Helvetica,sans-Serif" font-size="10.00"> &lt; raw_size &gt;</text>
</g>
<!-- Node10 -->
<g id="node21" class="node"><title>Node10</title>
<a xlink:href="classstxxl_1_1typed__block.html" target="_top" xlink:title="Block containing elements of fixed length. ">
<polygon fill="none" stroke="black" points="2796.5,-102.5 2796.5,-149.5 2921.5,-149.5 2921.5,-102.5 2796.5,-102.5"/>
<text text-anchor="start" x="2804.5" y="-136.5" font-family="Helvetica,sans-Serif" font-size="10.00">stxxl::typed_block</text>
<text text-anchor="start" x="2804.5" y="-123.5" font-family="Helvetica,sans-Serif" font-size="10.00">&lt; RawSize, Type, NRef,</text>
<text text-anchor="middle" x="2859" y="-110.5" font-family="Helvetica,sans-Serif" font-size="10.00"> MetaInfoType &gt;</text>
</a>
</g>
<!-- Node10&#45;&gt;Node1 -->
<g id="edge24" class="edge"><title>Node10&#45;&gt;Node1</title>
<path fill="none" stroke="#9a32cd" stroke-dasharray="5,2" d="M2931.25,-102.238C2964.14,-91.4202 3002.32,-78.8629 3032.28,-69.009"/>
<polygon fill="#9a32cd" stroke="#9a32cd" points="2930.08,-98.9378 2921.68,-105.387 2932.27,-105.587 2930.08,-98.9378"/>
<text text-anchor="middle" x="2970" y="-101" font-family="Helvetica,sans-Serif" font-size="10.00"> internal_data</text>
</g>
<!-- Node11 -->
<g id="node23" class="node"><title>Node11</title>
<a xlink:href="classstxxl_1_1mng__local_1_1expand__struct.html" target="_top" xlink:title="stxxl::mng_local::expand\l_struct\&lt; mng_local::block\l_w_info\&lt; Type, RawSize, NRef,\l MetaInfoType \&gt;, RawSize \&gt;">
<polygon fill="none" stroke="black" points="2598.5,-164 2598.5,-224 2757.5,-224 2757.5,-164 2598.5,-164"/>
<text text-anchor="start" x="2606.5" y="-211" font-family="Helvetica,sans-Serif" font-size="10.00">stxxl::mng_local::expand</text>
<text text-anchor="start" x="2606.5" y="-198" font-family="Helvetica,sans-Serif" font-size="10.00">_struct&lt; mng_local::block</text>
<text text-anchor="start" x="2606.5" y="-185" font-family="Helvetica,sans-Serif" font-size="10.00">_w_info&lt; Type, RawSize, NRef,</text>
<text text-anchor="middle" x="2678" y="-172" font-family="Helvetica,sans-Serif" font-size="10.00"> MetaInfoType &gt;, RawSize &gt;</text>
</a>
</g>
<!-- Node11&#45;&gt;Node10 -->
<g id="edge26" class="edge"><title>Node11&#45;&gt;Node10</title>
<path fill="none" stroke="midnightblue" d="M2767.13,-160.514C2777.04,-156.791 2786.97,-153.06 2796.45,-149.5"/>
<polygon fill="midnightblue" stroke="midnightblue" points="2765.78,-157.282 2757.65,-164.075 2768.24,-163.835 2765.78,-157.282"/>
</g>
<!-- Node12 -->
<g id="node25" class="node"><title>Node12</title>
<a xlink:href="classstxxl_1_1mng__local_1_1add__filler.html" target="_top" xlink:title="stxxl::mng_local::add\l_filler\&lt; mng_local::block\l_w_info\&lt; Type, RawSize,\l NRef, MetaInfoType \&gt;, RawSize\l&#45;sizeof(mng_local::block_w_info\l\&lt; Type, RawSize, NRef, MetaInfoType \&gt;)\&gt;">
<polygon fill="none" stroke="black" points="2242,-151 2242,-237 2448,-237 2448,-151 2242,-151"/>
<text text-anchor="start" x="2250" y="-224" font-family="Helvetica,sans-Serif" font-size="10.00">stxxl::mng_local::add</text>
<text text-anchor="start" x="2250" y="-211" font-family="Helvetica,sans-Serif" font-size="10.00">_filler&lt; mng_local::block</text>
<text text-anchor="start" x="2250" y="-198" font-family="Helvetica,sans-Serif" font-size="10.00">_w_info&lt; Type, RawSize,</text>
<text text-anchor="start" x="2250" y="-185" font-family="Helvetica,sans-Serif" font-size="10.00"> NRef, MetaInfoType &gt;, RawSize</text>
<text text-anchor="start" x="2250" y="-172" font-family="Helvetica,sans-Serif" font-size="10.00">&#45;sizeof(mng_local::block_w_info</text>
<text text-anchor="middle" x="2345" y="-159" font-family="Helvetica,sans-Serif" font-size="10.00">&lt; Type, RawSize, NRef, MetaInfoType &gt;)&gt;</text>
</a>
</g>
<!-- Node12&#45;&gt;Node11 -->
<g id="edge28" class="edge"><title>Node12&#45;&gt;Node11</title>
<path fill="none" stroke="midnightblue" d="M2458.12,-194C2504.22,-194 2556.42,-194 2598.39,-194"/>
<polygon fill="midnightblue" stroke="midnightblue" points="2458.08,-190.5 2448.08,-194 2458.08,-197.5 2458.08,-190.5"/>
</g>
<!-- Node13 -->
<g id="node27" class="node"><title>Node13</title>
<a xlink:href="classstxxl_1_1mng__local_1_1block__w__info.html" target="_top" xlink:title="stxxl::mng_local::block\l_w_info\&lt; Type, RawSize,\l NRef, MetaInfoType \&gt;">
<polygon fill="none" stroke="black" points="2067,-118.5 2067,-165.5 2197,-165.5 2197,-118.5 2067,-118.5"/>
<text text-anchor="start" x="2075" y="-152.5" font-family="Helvetica,sans-Serif" font-size="10.00">stxxl::mng_local::block</text>
<text text-anchor="start" x="2075" y="-139.5" font-family="Helvetica,sans-Serif" font-size="10.00">_w_info&lt; Type, RawSize,</text>
<text text-anchor="middle" x="2132" y="-126.5" font-family="Helvetica,sans-Serif" font-size="10.00"> NRef, MetaInfoType &gt;</text>
</a>
</g>
<!-- Node13&#45;&gt;Node12 -->
<g id="edge30" class="edge"><title>Node13&#45;&gt;Node12</title>
<path fill="none" stroke="midnightblue" d="M2206.87,-160.279C2218.21,-163.046 2230.07,-165.942 2241.87,-168.823"/>
<polygon fill="midnightblue" stroke="midnightblue" points="2207.61,-156.856 2197.06,-157.884 2205.95,-163.656 2207.61,-156.856"/>
</g>
<!-- Node14&#45;&gt;Node13 -->
<g id="edge32" class="edge"><title>Node14&#45;&gt;Node13</title>
<path fill="none" stroke="midnightblue" d="M1724.37,-114.549C1740.18,-112.239 1756.54,-110.234 1772,-109 1834.03,-104.052 1849.95,-104.372 1912,-109 1964.38,-112.907 2023.2,-121.976 2066.83,-129.62"/>
<polygon fill="midnightblue" stroke="midnightblue" points="1723.43,-111.151 1714.07,-116.106 1724.48,-118.072 1723.43,-111.151"/>
</g>
<!-- Node17 -->
<g id="node38" class="node"><title>Node17</title>
<a xlink:href="classstxxl_1_1mng__local_1_1block__w__info.html" target="_top" xlink:title="Contains per block information for stxxl::typed_block , not intended for direct use. ">
<polygon fill="none" stroke="black" points="1777,-118.5 1777,-165.5 1907,-165.5 1907,-118.5 1777,-118.5"/>
<text text-anchor="start" x="1785" y="-152.5" font-family="Helvetica,sans-Serif" font-size="10.00">stxxl::mng_local::block</text>
<text text-anchor="start" x="1785" y="-139.5" font-family="Helvetica,sans-Serif" font-size="10.00">_w_info&lt; Type, RawSize,</text>
<text text-anchor="middle" x="1842" y="-126.5" font-family="Helvetica,sans-Serif" font-size="10.00"> NBids, MetaInfoType &gt;</text>
</a>
</g>
<!-- Node14&#45;&gt;Node17 -->
<g id="edge46" class="edge"><title>Node14&#45;&gt;Node17</title>
<path fill="none" stroke="midnightblue" d="M1724.41,-135.751C1741.97,-136.685 1760.09,-137.647 1776.68,-138.529"/>
<polygon fill="midnightblue" stroke="midnightblue" points="1724.32,-132.241 1714.14,-135.206 1723.94,-139.232 1724.32,-132.241"/>
</g>
<!-- Node15 -->
<g id="node31" class="node"><title>Node15</title>
<a xlink:href="classstxxl_1_1mng__local_1_1element__block.html" target="_top" xlink:title="Contains data elements for stxxl::typed_block , not intended for direct use. ">
<polygon fill="none" stroke="black" points="1070,-186 1070,-220 1198,-220 1198,-186 1070,-186"/>
<text text-anchor="start" x="1078" y="-207" font-family="Helvetica,sans-Serif" font-size="10.00">stxxl::mng_local::element</text>
<text text-anchor="middle" x="1134" y="-194" font-family="Helvetica,sans-Serif" font-size="10.00">_block&lt; Type, Size &gt;</text>
</a>
</g>
<!-- Node15&#45;&gt;Node14 -->
<g id="edge34" class="edge"><title>Node15&#45;&gt;Node14</title>
<path fill="none" stroke="midnightblue" d="M1208.13,-214.382C1290.73,-224.238 1427.24,-232.009 1538,-197 1557.42,-190.861 1576.47,-179.447 1592.48,-167.816"/>
<polygon fill="midnightblue" stroke="midnightblue" points="1208.43,-210.893 1198.08,-213.141 1207.58,-217.841 1208.43,-210.893"/>
</g>
<!-- Node15&#45;&gt;Node16 -->
<g id="edge40" class="edge"><title>Node15&#45;&gt;Node16</title>
<path fill="none" stroke="midnightblue" d="M1207.96,-184.035C1221.66,-180.523 1236.02,-176.842 1249.86,-173.291"/>
<polygon fill="midnightblue" stroke="midnightblue" points="1206.94,-180.685 1198.12,-186.559 1208.68,-187.465 1206.94,-180.685"/>
</g>
<!-- Node16&#45;&gt;Node14 -->
<g id="edge38" class="edge"><title>Node16&#45;&gt;Node14</title>
<path fill="none" stroke="orange" stroke-dasharray="5,2" d="M1418.27,-132.946C1420.87,-132.596 1423.45,-132.279 1426,-132 1468.74,-127.323 1516.7,-126.761 1555.88,-127.508"/>
<polygon fill="orange" stroke="orange" points="1417.56,-129.515 1408.18,-134.451 1418.59,-136.438 1417.56,-129.515"/>
<text text-anchor="start" x="1426" y="-188" font-family="Helvetica,sans-Serif" font-size="10.00"> &lt; Type,((RawSize&#45;sizeof</text>
<text text-anchor="start" x="1426" y="-175" font-family="Helvetica,sans-Serif" font-size="10.00">(BID&lt; RawSize &gt;)*NBids</text>
<text text-anchor="start" x="1426" y="-162" font-family="Helvetica,sans-Serif" font-size="10.00">&#45;sizeof(MetaInfoType))</text>
<text text-anchor="start" x="1426" y="-149" font-family="Helvetica,sans-Serif" font-size="10.00">/sizeof(Type)), RawSize,</text>
<text text-anchor="middle" x="1482" y="-136" font-family="Helvetica,sans-Serif" font-size="10.00"> NBids &gt;</text>
</g>
<!-- Node17&#45;&gt;Node13 -->
<g id="edge44" class="edge"><title>Node17&#45;&gt;Node13</title>
<path fill="none" stroke="orange" stroke-dasharray="5,2" d="M1917.08,-142C1963.49,-142 2022.46,-142 2066.89,-142"/>
<polygon fill="orange" stroke="orange" points="1917.08,-138.5 1907.08,-142 1917.08,-145.5 1917.08,-138.5"/>
<text text-anchor="start" x="1930" y="-159" font-family="Helvetica,sans-Serif" font-size="10.00"> &lt; Type, RawSize, NRef,</text>
<text text-anchor="middle" x="1986" y="-146" font-family="Helvetica,sans-Serif" font-size="10.00"> MetaInfoType &gt;</text>
</g>
<!-- Node18 -->
<g id="node41" class="node"><title>Node18</title>
<a xlink:href="classstxxl_1_1mng__local_1_1filler__struct.html" target="_top" xlink:title="stxxl::mng_local::filler\l_struct\&lt; FillSize \&gt;">
<polygon fill="none" stroke="black" points="1579,-260 1579,-294 1691,-294 1691,-260 1579,-260"/>
<text text-anchor="start" x="1587" y="-281" font-family="Helvetica,sans-Serif" font-size="10.00">stxxl::mng_local::filler</text>
<text text-anchor="middle" x="1635" y="-268" font-family="Helvetica,sans-Serif" font-size="10.00">_struct&lt; FillSize &gt;</text>
</a>
</g>
<!-- Node18&#45;&gt;Node12 -->
<g id="edge48" class="edge"><title>Node18&#45;&gt;Node12</title>
<path fill="none" stroke="#9a32cd" stroke-dasharray="5,2" d="M1701.32,-263.904C1723.74,-259.614 1748.93,-254.941 1772,-251 1899.27,-229.265 1931.38,-224.209 2060,-213 2120.15,-207.759 2187.55,-203.205 2241.69,-199.871"/>
<polygon fill="#9a32cd" stroke="#9a32cd" points="1700.4,-260.518 1691.24,-265.844 1701.72,-267.391 1700.4,-260.518"/>
<text text-anchor="middle" x="1986" y="-230" font-family="Helvetica,sans-Serif" font-size="10.00"> filler</text>
</g>
<!-- Node20 -->
<g id="node45" class="node"><title>Node20</title>
<a xlink:href="classstxxl_1_1mng__local_1_1add__filler.html" target="_top" xlink:title="Contains per block filler for stxxl::typed_block , not intended for direct use. ">
<polygon fill="none" stroke="black" points="1772,-260 1772,-294 1912,-294 1912,-260 1772,-260"/>
<text text-anchor="start" x="1780" y="-281" font-family="Helvetica,sans-Serif" font-size="10.00">stxxl::mng_local::add</text>
<text text-anchor="middle" x="1842" y="-268" font-family="Helvetica,sans-Serif" font-size="10.00">_filler&lt; BaseType, FillSize &gt;</text>
</a>
</g>
<!-- Node18&#45;&gt;Node20 -->
<g id="edge54" class="edge"><title>Node18&#45;&gt;Node20</title>
<path fill="none" stroke="#9a32cd" stroke-dasharray="5,2" d="M1701.17,-277C1723.72,-277 1749.01,-277 1771.87,-277"/>
<polygon fill="#9a32cd" stroke="#9a32cd" points="1701.02,-273.5 1691.02,-277 1701.02,-280.5 1701.02,-273.5"/>
<text text-anchor="middle" x="1743" y="-281" font-family="Helvetica,sans-Serif" font-size="10.00"> filler</text>
</g>
<!-- Node22 -->
<g id="node50" class="node"><title>Node22</title>
<a xlink:href="classstxxl_1_1mng__local_1_1add__filler.html" target="_top" xlink:title="stxxl::mng_local::add\l_filler\&lt; Type, RawSize\l&#45;sizeof(Type)\&gt;">
<polygon fill="none" stroke="black" points="2074,-336.5 2074,-383.5 2190,-383.5 2190,-336.5 2074,-336.5"/>
<text text-anchor="start" x="2082" y="-370.5" font-family="Helvetica,sans-Serif" font-size="10.00">stxxl::mng_local::add</text>
<text text-anchor="start" x="2082" y="-357.5" font-family="Helvetica,sans-Serif" font-size="10.00">_filler&lt; Type, RawSize</text>
<text text-anchor="middle" x="2132" y="-344.5" font-family="Helvetica,sans-Serif" font-size="10.00">&#45;sizeof(Type)&gt;</text>
</a>
</g>
<!-- Node18&#45;&gt;Node22 -->
<g id="edge60" class="edge"><title>Node18&#45;&gt;Node22</title>
<path fill="none" stroke="#9a32cd" stroke-dasharray="5,2" d="M1701.07,-291.772C1760.68,-304.727 1850.89,-323.409 1930,-336 1978.3,-343.688 2033.47,-350.082 2073.93,-354.332"/>
<polygon fill="#9a32cd" stroke="#9a32cd" points="1701.56,-288.296 1691.04,-289.584 1700.06,-295.135 1701.56,-288.296"/>
<text text-anchor="middle" x="1842" y="-336" font-family="Helvetica,sans-Serif" font-size="10.00"> filler</text>
</g>
<!-- Node19 -->
<g id="node43" class="node"><title>Node19</title>
<a xlink:href="classstxxl_1_1mng__local_1_1filler__struct.html" target="_top" xlink:title="stxxl::mng_local::filler\l_struct\&lt; Bytes \&gt;">
<polygon fill="none" stroke="black" points="1273,-260 1273,-294 1385,-294 1385,-260 1273,-260"/>
<text text-anchor="start" x="1281" y="-281" font-family="Helvetica,sans-Serif" font-size="10.00">stxxl::mng_local::filler</text>
<text text-anchor="middle" x="1329" y="-268" font-family="Helvetica,sans-Serif" font-size="10.00">_struct&lt; Bytes &gt;</text>
</a>
</g>
<!-- Node19&#45;&gt;Node18 -->
<g id="edge50" class="edge"><title>Node19&#45;&gt;Node18</title>
<path fill="none" stroke="orange" stroke-dasharray="5,2" d="M1395.44,-277C1450.27,-277 1527.22,-277 1578.97,-277"/>
<polygon fill="orange" stroke="orange" points="1395.13,-273.5 1385.13,-277 1395.13,-280.5 1395.13,-273.5"/>
<text text-anchor="middle" x="1482" y="-281" font-family="Helvetica,sans-Serif" font-size="10.00"> &lt; FillSize &gt;</text>
</g>
<!-- Node20&#45;&gt;Node12 -->
<g id="edge52" class="edge"><title>Node20&#45;&gt;Node12</title>
<path fill="none" stroke="orange" stroke-dasharray="5,2" d="M1922.24,-263.759C2008.86,-249.466 2147.09,-226.657 2241.75,-211.037"/>
<polygon fill="orange" stroke="orange" points="1921.5,-260.334 1912.2,-265.416 1922.64,-267.241 1921.5,-260.334"/>
<text text-anchor="start" x="2060.5" y="-310" font-family="Helvetica,sans-Serif" font-size="10.00"> &lt; mng_local::block</text>
<text text-anchor="start" x="2060.5" y="-297" font-family="Helvetica,sans-Serif" font-size="10.00">_w_info&lt; Type, RawSize,</text>
<text text-anchor="start" x="2060.5" y="-284" font-family="Helvetica,sans-Serif" font-size="10.00"> NRef, MetaInfoType &gt;,</text>
<text text-anchor="start" x="2060.5" y="-271" font-family="Helvetica,sans-Serif" font-size="10.00"> RawSize&#45;sizeof(mng_local</text>
<text text-anchor="start" x="2060.5" y="-258" font-family="Helvetica,sans-Serif" font-size="10.00">::block_w_info&lt; Type, RawSize,</text>
<text text-anchor="middle" x="2132" y="-245" font-family="Helvetica,sans-Serif" font-size="10.00"> NRef, MetaInfoType &gt;)&gt;</text>
</g>
<!-- Node20&#45;&gt;Node22 -->
<g id="edge62" class="edge"><title>Node20&#45;&gt;Node22</title>
<path fill="none" stroke="orange" stroke-dasharray="5,2" d="M1922.75,-282.468C1960.04,-286.956 2004.3,-295.126 2042,-310 2050.94,-313.528 2051.74,-317.083 2060,-322 2068.14,-326.843 2076.95,-331.754 2085.52,-336.365"/>
<polygon fill="orange" stroke="orange" points="1922.76,-278.947 1912.43,-281.298 1921.98,-285.903 1922.76,-278.947"/>
<text text-anchor="start" x="1931.5" y="-327" font-family="Helvetica,sans-Serif" font-size="10.00"> &lt; Type, RawSize&#45;sizeof</text>
<text text-anchor="middle" x="1986" y="-314" font-family="Helvetica,sans-Serif" font-size="10.00">(Type)&gt;</text>
</g>
<!-- Node21 -->
<g id="node48" class="node"><title>Node21</title>
<a xlink:href="classstxxl_1_1mng__local_1_1expand__struct.html" target="_top" xlink:title="Helper to compute the size of the filler , not intended for direct use. ">
<polygon fill="none" stroke="black" points="2279,-299 2279,-333 2411,-333 2411,-299 2279,-299"/>
<text text-anchor="start" x="2287" y="-320" font-family="Helvetica,sans-Serif" font-size="10.00">stxxl::mng_local::expand</text>
<text text-anchor="middle" x="2345" y="-307" font-family="Helvetica,sans-Serif" font-size="10.00">_struct&lt; Type, RawSize &gt;</text>
</a>
</g>
<!-- Node21&#45;&gt;Node11 -->
<g id="edge56" class="edge"><title>Node21&#45;&gt;Node11</title>
<path fill="none" stroke="orange" stroke-dasharray="5,2" d="M2401.07,-295.456C2455.14,-275.649 2537.49,-245.477 2598.35,-223.182"/>
<polygon fill="orange" stroke="orange" points="2399.84,-292.181 2391.65,-298.908 2402.25,-298.754 2399.84,-292.181"/>
<text text-anchor="start" x="2466" y="-312" font-family="Helvetica,sans-Serif" font-size="10.00"> &lt; mng_local::block</text>
<text text-anchor="start" x="2466" y="-299" font-family="Helvetica,sans-Serif" font-size="10.00">_w_info&lt; Type, RawSize,</text>
<text text-anchor="start" x="2466" y="-286" font-family="Helvetica,sans-Serif" font-size="10.00"> NRef, MetaInfoType &gt;,</text>
<text text-anchor="middle" x="2523" y="-273" font-family="Helvetica,sans-Serif" font-size="10.00"> RawSize &gt;</text>
</g>
<!-- Node22&#45;&gt;Node21 -->
<g id="edge58" class="edge"><title>Node22&#45;&gt;Node21</title>
<path fill="none" stroke="midnightblue" d="M2200.07,-345.939C2225.32,-340.722 2253.9,-334.818 2278.97,-329.639"/>
<polygon fill="midnightblue" stroke="midnightblue" points="2199.29,-342.526 2190.2,-347.977 2200.7,-349.381 2199.29,-342.526"/>
</g>
</g>
</svg>
