<?xml version="1.0" encoding="UTF-8" standalone="no"?>
<!DOCTYPE svg PUBLIC "-//W3C//DTD SVG 1.1//EN"
 "http://www.w3.org/Graphics/SVG/1.1/DTD/svg11.dtd">
<!-- Generated by graphviz version 2.26.3 (20100126.1600)
 -->
<!-- Title: stxxl::mng_local::expand_struct&lt; Type, RawSize &gt; Pages: 1 -->
<svg width="952pt" height="81pt"
 viewBox="0.00 0.00 952.00 81.00" xmlns="http://www.w3.org/2000/svg" xmlns:xlink="http://www.w3.org/1999/xlink">
<g id="graph1" class="graph" transform="scale(1 1) rotate(0) translate(4 77)">
<title>stxxl::mng_local::expand_struct&lt; Type, RawSize &gt;</title>
<!-- Node1 -->
<g id="node1" class="node"><title>Node1</title>
<polygon fill="#bfbfbf" stroke="black" points="812,-29 812,-63 944,-63 944,-29 812,-29"/>
<text text-anchor="start" x="820" y="-50" font-family="Helvetica,sans-Serif" font-size="10.00">stxxl::mng_local::expand</text>
<text text-anchor="middle" x="878" y="-37" font-family="Helvetica,sans-Serif" font-size="10.00">_struct&lt; Type, RawSize &gt;</text>
</g>
<!-- Node2 -->
<g id="node2" class="node"><title>Node2</title>
<a xlink:href="classstxxl_1_1mng__local_1_1add__filler.html" target="_top" xlink:title="stxxl::mng_local::add\l_filler\&lt; Type, RawSize\l&#45;sizeof(Type)\&gt;">
<polygon fill="none" stroke="black" points="658,-22.5 658,-69.5 774,-69.5 774,-22.5 658,-22.5"/>
<text text-anchor="start" x="666" y="-56.5" font-family="Helvetica,sans-Serif" font-size="10.00">stxxl::mng_local::add</text>
<text text-anchor="start" x="666" y="-43.5" font-family="Helvetica,sans-Serif" font-size="10.00">_filler&lt; Type, RawSize</text>
<text text-anchor="middle" x="716" y="-30.5" font-family="Helvetica,sans-Serif" font-size="10.00">&#45;sizeof(Type)&gt;</text>
</a>
</g>
<!-- Node2&#45;&gt;Node1 -->
<g id="edge2" class="edge"><title>Node2&#45;&gt;Node1</title>
<path fill="none" stroke="midnightblue" d="M784.228,-46C793.369,-46 802.733,-46 811.837,-46"/>
<polygon fill="midnightblue" stroke="midnightblue" points="784.028,-42.5001 774.028,-46 784.028,-49.5001 784.028,-42.5001"/>
</g>
<!-- Node3 -->
<g id="node4" class="node"><title>Node3</title>
<a xlink:href="classstxxl_1_1mng__local_1_1filler__struct.html" target="_top" xlink:title="stxxl::mng_local::filler\l_struct\&lt; FillSize \&gt;">
<polygon fill="none" stroke="black" points="202,-38 202,-72 314,-72 314,-38 202,-38"/>
<text text-anchor="start" x="210" y="-59" font-family="Helvetica,sans-Serif" font-size="10.00">stxxl::mng_local::filler</text>
<text text-anchor="middle" x="258" y="-46" font-family="Helvetica,sans-Serif" font-size="10.00">_struct&lt; FillSize &gt;</text>
</a>
</g>
<!-- Node3&#45;&gt;Node2 -->
<g id="edge4" class="edge"><title>Node3&#45;&gt;Node2</title>
<path fill="none" stroke="#9a32cd" stroke-dasharray="5,2" d="M324.473,-57.9085C400.75,-60.6114 529.549,-63.2353 640,-56 645.843,-55.6172 651.923,-55.0706 657.985,-54.4278"/>
<polygon fill="#9a32cd" stroke="#9a32cd" points="324.187,-54.3958 314.066,-57.5276 323.931,-61.3911 324.187,-54.3958"/>
<text text-anchor="middle" x="442" y="-64" font-family="Helvetica,sans-Serif" font-size="10.00"> filler</text>
</g>
<!-- Node5 -->
<g id="node8" class="node"><title>Node5</title>
<a xlink:href="classstxxl_1_1mng__local_1_1add__filler.html" target="_top" xlink:title="Contains per block filler for stxxl::typed_block , not intended for direct use. ">
<polygon fill="none" stroke="black" points="372,-0 372,-34 512,-34 512,-0 372,-0"/>
<text text-anchor="start" x="380" y="-21" font-family="Helvetica,sans-Serif" font-size="10.00">stxxl::mng_local::add</text>
<text text-anchor="middle" x="442" y="-8" font-family="Helvetica,sans-Serif" font-size="10.00">_filler&lt; BaseType, FillSize &gt;</text>
</a>
</g>
<!-- Node3&#45;&gt;Node5 -->
<g id="edge10" class="edge"><title>Node3&#45;&gt;Node5</title>
<path fill="none" stroke="#9a32cd" stroke-dasharray="5,2" d="M324.198,-41.3286C339.667,-38.1339 356.195,-34.7205 371.831,-31.4915"/>
<polygon fill="#9a32cd" stroke="#9a32cd" points="323.291,-37.942 314.206,-43.3923 324.707,-44.7973 323.291,-37.942"/>
<text text-anchor="middle" x="343" y="-44" font-family="Helvetica,sans-Serif" font-size="10.00"> filler</text>
</g>
<!-- Node4 -->
<g id="node6" class="node"><title>Node4</title>
<a xlink:href="classstxxl_1_1mng__local_1_1filler__struct.html" target="_top" xlink:title="stxxl::mng_local::filler\l_struct\&lt; Bytes \&gt;">
<polygon fill="none" stroke="black" points="0,-38 0,-72 112,-72 112,-38 0,-38"/>
<text text-anchor="start" x="8" y="-59" font-family="Helvetica,sans-Serif" font-size="10.00">stxxl::mng_local::filler</text>
<text text-anchor="middle" x="56" y="-46" font-family="Helvetica,sans-Serif" font-size="10.00">_struct&lt; Bytes &gt;</text>
</a>
</g>
<!-- Node4&#45;&gt;Node3 -->
<g id="edge6" class="edge"><title>Node4&#45;&gt;Node3</title>
<path fill="none" stroke="orange" stroke-dasharray="5,2" d="M122.072,-55C147.872,-55 177.139,-55 201.891,-55"/>
<polygon fill="orange" stroke="orange" points="122,-51.5001 112,-55 122,-58.5001 122,-51.5001"/>
<text text-anchor="middle" x="157" y="-59" font-family="Helvetica,sans-Serif" font-size="10.00"> &lt; FillSize &gt;</text>
</g>
<!-- Node5&#45;&gt;Node2 -->
<g id="edge8" class="edge"><title>Node5&#45;&gt;Node2</title>
<path fill="none" stroke="orange" stroke-dasharray="5,2" d="M522.794,-19.7075C558.792,-21.5813 601.638,-24.7297 640,-30 645.744,-30.7891 651.703,-31.7646 657.642,-32.8415"/>
<polygon fill="orange" stroke="orange" points="522.507,-16.189 512.345,-19.189 522.16,-23.1804 522.507,-16.189"/>
<text text-anchor="start" x="530.5" y="-47" font-family="Helvetica,sans-Serif" font-size="10.00"> &lt; Type, RawSize&#45;sizeof</text>
<text text-anchor="middle" x="585" y="-34" font-family="Helvetica,sans-Serif" font-size="10.00">(Type)&gt;</text>
</g>
</g>
</svg>
