<?xml version="1.0" encoding="UTF-8" standalone="no"?>
<!DOCTYPE svg PUBLIC "-//W3C//DTD SVG 1.1//EN"
 "http://www.w3.org/Graphics/SVG/1.1/DTD/svg11.dtd">
<!-- Generated by graphviz version 2.26.3 (20100126.1600)
 -->
<!-- Title: stxxl::queue&lt; ValueType, BlockSize, AllocStr, SizeType &gt; Pages: 1 -->
<svg width="3270pt" height="689pt"
 viewBox="0.00 0.00 3270.00 689.02" xmlns="http://www.w3.org/2000/svg" xmlns:xlink="http://www.w3.org/1999/xlink">
<g id="graph1" class="graph" transform="scale(1 1) rotate(0) translate(4 685.022)">
<title>stxxl::queue&lt; ValueType, BlockSize, AllocStr, SizeType &gt;</title>
<!-- Node1 -->
<g id="node1" class="node"><title>Node1</title>
<polygon fill="#bfbfbf" stroke="black" points="3134,-270.5 3134,-317.5 3262,-317.5 3262,-270.5 3134,-270.5"/>
<text text-anchor="start" x="3142" y="-304.5" font-family="Helvetica,sans-Serif" font-size="10.00">stxxl::queue&lt; ValueType,</text>
<text text-anchor="start" x="3142" y="-291.5" font-family="Helvetica,sans-Serif" font-size="10.00"> BlockSize, AllocStr,</text>
<text text-anchor="middle" x="3198" y="-278.5" font-family="Helvetica,sans-Serif" font-size="10.00"> SizeType &gt;</text>
</g>
<!-- Node2 -->
<g id="node2" class="node"><title>Node2</title>
<a xlink:href="classstxxl_1_1noncopyable.html" target="_top" xlink:title="stxxl::noncopyable">
<polygon fill="none" stroke="black" points="20,-496.5 20,-517.5 118,-517.5 118,-496.5 20,-496.5"/>
<text text-anchor="middle" x="69" y="-504.5" font-family="Helvetica,sans-Serif" font-size="10.00">stxxl::noncopyable</text>
</a>
</g>
<!-- Node2&#45;&gt;Node1 -->
<g id="edge2" class="edge"><title>Node2&#45;&gt;Node1</title>
<path fill="none" stroke="#8b1a1a" d="M128.389,-505.115C290.604,-500.133 754.854,-487 1141,-487 1141,-487 1141,-487 2983,-487 3083.32,-487 3158.12,-369.202 3186.04,-317.666"/>
<polygon fill="#8b1a1a" stroke="#8b1a1a" points="128.032,-501.624 118.145,-505.431 128.248,-508.62 128.032,-501.624"/>
</g>
<!-- Node3 -->
<g id="node4" class="node"><title>Node3</title>
<a xlink:href="classstxxl_1_1read__write__pool.html" target="_top" xlink:title="Implements dynamically resizable buffered writing and prefetched reading pool. ">
<polygon fill="none" stroke="black" points="800,-301 800,-335 912,-335 912,-301 800,-301"/>
<text text-anchor="start" x="808" y="-322" font-family="Helvetica,sans-Serif" font-size="10.00">stxxl::read_write_pool</text>
<text text-anchor="middle" x="856" y="-309" font-family="Helvetica,sans-Serif" font-size="10.00">&lt; BlockType &gt;</text>
</a>
</g>
<!-- Node2&#45;&gt;Node3 -->
<g id="edge6" class="edge"><title>Node2&#45;&gt;Node3</title>
<path fill="none" stroke="#8b1a1a" d="M110.245,-493.38C124.643,-488.845 140.961,-483.947 156,-480 335.426,-432.907 383.282,-433.862 564,-392 661.242,-369.475 685.37,-363.023 782,-338 787.797,-336.499 793.843,-334.907 799.871,-333.304"/>
<polygon fill="#8b1a1a" stroke="#8b1a1a" points="109.088,-490.075 100.623,-496.447 111.214,-496.745 109.088,-490.075"/>
</g>
<!-- Node4 -->
<g id="node7" class="node"><title>Node4</title>
<a xlink:href="classstxxl_1_1prefetch__pool.html" target="_top" xlink:title="Implements dynamically resizable prefetching pool. ">
<polygon fill="none" stroke="black" points="589,-268 589,-302 691,-302 691,-268 589,-268"/>
<text text-anchor="start" x="597" y="-289" font-family="Helvetica,sans-Serif" font-size="10.00">stxxl::prefetch_pool</text>
<text text-anchor="middle" x="640" y="-276" font-family="Helvetica,sans-Serif" font-size="10.00">&lt; BlockType &gt;</text>
</a>
</g>
<!-- Node2&#45;&gt;Node4 -->
<g id="edge10" class="edge"><title>Node2&#45;&gt;Node4</title>
<path fill="none" stroke="#8b1a1a" d="M73.9459,-486.315C83.4214,-451.549 107.63,-381.885 156,-348 173.611,-335.663 467.631,-303.277 588.619,-290.396"/>
<polygon fill="#8b1a1a" stroke="#8b1a1a" points="70.4824,-485.73 71.3751,-496.287 77.2608,-487.478 70.4824,-485.73"/>
</g>
<!-- Node9 -->
<g id="node18" class="node"><title>Node9</title>
<a xlink:href="classstxxl_1_1write__pool.html" target="_top" xlink:title="Implements dynamically resizable buffered writing pool. ">
<polygon fill="none" stroke="black" points="457,-321 457,-355 551,-355 551,-321 457,-321"/>
<text text-anchor="start" x="465" y="-342" font-family="Helvetica,sans-Serif" font-size="10.00">stxxl::write_pool&lt;</text>
<text text-anchor="middle" x="504" y="-329" font-family="Helvetica,sans-Serif" font-size="10.00"> BlockType &gt;</text>
</a>
</g>
<!-- Node2&#45;&gt;Node9 -->
<g id="edge22" class="edge"><title>Node2&#45;&gt;Node9</title>
<path fill="none" stroke="#8b1a1a" d="M77.9946,-487.154C91.0985,-460.718 118.077,-414.657 156,-392 251.262,-335.086 386.371,-331.731 456.94,-334.598"/>
<polygon fill="#8b1a1a" stroke="#8b1a1a" points="74.8088,-485.703 73.6578,-496.235 81.1255,-488.72 74.8088,-485.703"/>
</g>
<!-- Node11 -->
<g id="node23" class="node"><title>Node11</title>
<a xlink:href="classstxxl_1_1singleton.html" target="_top" xlink:title="stxxl::singleton\&lt; block\l_manager \&gt;">
<polygon fill="none" stroke="black" points="582.5,-613 582.5,-647 697.5,-647 697.5,-613 582.5,-613"/>
<text text-anchor="start" x="590.5" y="-634" font-family="Helvetica,sans-Serif" font-size="10.00">stxxl::singleton&lt; block</text>
<text text-anchor="middle" x="640" y="-621" font-family="Helvetica,sans-Serif" font-size="10.00">_manager &gt;</text>
</a>
</g>
<!-- Node2&#45;&gt;Node11 -->
<g id="edge28" class="edge"><title>Node2&#45;&gt;Node11</title>
<path fill="none" stroke="#8b1a1a" d="M77.8287,-526.87C90.894,-553.889 117.994,-601.739 156,-627 289.139,-715.493 491.7,-674.113 586.967,-647.02"/>
<polygon fill="#8b1a1a" stroke="#8b1a1a" points="80.9151,-525.207 73.515,-517.625 74.5717,-528.167 80.9151,-525.207"/>
</g>
<!-- Node12 -->
<g id="node26" class="node"><title>Node12</title>
<a xlink:href="classstxxl_1_1singleton.html" target="_top" xlink:title="stxxl::singleton\&lt; INSTANCE,\l destroy_on_exit \&gt;">
<polygon fill="none" stroke="black" points="280,-613 280,-647 426,-647 426,-613 280,-613"/>
<text text-anchor="start" x="288" y="-634" font-family="Helvetica,sans-Serif" font-size="10.00">stxxl::singleton&lt; INSTANCE,</text>
<text text-anchor="middle" x="353" y="-621" font-family="Helvetica,sans-Serif" font-size="10.00"> destroy_on_exit &gt;</text>
</a>
</g>
<!-- Node2&#45;&gt;Node12 -->
<g id="edge32" class="edge"><title>Node2&#45;&gt;Node12</title>
<path fill="none" stroke="#8b1a1a" d="M81.1893,-526.039C96.0666,-547.548 123.323,-581.792 156,-599 193.833,-618.923 241.011,-626.838 279.713,-629.694"/>
<polygon fill="#8b1a1a" stroke="#8b1a1a" points="84.0665,-524.046 75.5915,-517.688 78.2518,-527.943 84.0665,-524.046"/>
</g>
<!-- Node13 -->
<g id="node29" class="node"><title>Node13</title>
<a xlink:href="classstxxl_1_1file.html" target="_top" xlink:title="Defines interface of file. ">
<polygon fill="none" stroke="black" points="828,-442.5 828,-463.5 884,-463.5 884,-442.5 828,-442.5"/>
<text text-anchor="middle" x="856" y="-450.5" font-family="Helvetica,sans-Serif" font-size="10.00">stxxl::file</text>
</a>
</g>
<!-- Node2&#45;&gt;Node13 -->
<g id="edge36" class="edge"><title>Node2&#45;&gt;Node13</title>
<path fill="none" stroke="#8b1a1a" d="M128.098,-496.655C137.413,-495.266 146.953,-493.984 156,-493 289.719,-478.459 714.242,-459.214 827.823,-454.223"/>
<polygon fill="#8b1a1a" stroke="#8b1a1a" points="127.462,-493.212 118.112,-498.196 128.529,-500.13 127.462,-493.212"/>
</g>
<!-- Node15 -->
<g id="node34" class="node"><title>Node15</title>
<a xlink:href="classstxxl_1_1mutex.html" target="_top" xlink:title="stxxl::mutex">
<polygon fill="none" stroke="black" points="317.5,-535.5 317.5,-556.5 388.5,-556.5 388.5,-535.5 317.5,-535.5"/>
<text text-anchor="middle" x="353" y="-543.5" font-family="Helvetica,sans-Serif" font-size="10.00">stxxl::mutex</text>
</a>
</g>
<!-- Node2&#45;&gt;Node15 -->
<g id="edge42" class="edge"><title>Node2&#45;&gt;Node15</title>
<path fill="none" stroke="#8b1a1a" d="M128.168,-516.793C137.474,-518.255 146.993,-519.704 156,-521 212.305,-529.101 277.867,-537.145 317.363,-541.84"/>
<polygon fill="#8b1a1a" stroke="#8b1a1a" points="128.612,-513.32 118.187,-515.208 127.515,-520.233 128.612,-513.32"/>
</g>
<!-- Node16 -->
<g id="node38" class="node"><title>Node16</title>
<a xlink:href="classstxxl_1_1disk__allocator.html" target="_top" xlink:title="stxxl::disk_allocator">
<polygon fill="none" stroke="black" points="984,-564.5 984,-585.5 1088,-585.5 1088,-564.5 984,-564.5"/>
<text text-anchor="middle" x="1036" y="-572.5" font-family="Helvetica,sans-Serif" font-size="10.00">stxxl::disk_allocator</text>
</a>
</g>
<!-- Node2&#45;&gt;Node16 -->
<g id="edge48" class="edge"><title>Node2&#45;&gt;Node16</title>
<path fill="none" stroke="#8b1a1a" d="M100.53,-521.645C152.134,-544.234 258.37,-585 353,-585 353,-585 353,-585 856,-585 899.035,-585 947.769,-582.115 983.664,-579.444"/>
<polygon fill="#8b1a1a" stroke="#8b1a1a" points="101.81,-518.384 91.2506,-517.519 98.9664,-524.78 101.81,-518.384"/>
</g>
<!-- Node3&#45;&gt;Node1 -->
<g id="edge4" class="edge"><title>Node3&#45;&gt;Node1</title>
<path fill="none" stroke="#9a32cd" stroke-dasharray="5,2" d="M922.329,-304.887C956.198,-299.28 998.144,-294 1036,-294 1036,-294 1036,-294 2983,-294 3033.58,-294 3090.85,-294 3133.56,-294"/>
<polygon fill="#9a32cd" stroke="#9a32cd" points="921.36,-301.502 912.09,-306.633 922.536,-308.402 921.36,-301.502"/>
<text text-anchor="middle" x="1966" y="-298" font-family="Helvetica,sans-Serif" font-size="10.00"> pool</text>
</g>
<!-- Node4&#45;&gt;Node3 -->
<g id="edge8" class="edge"><title>Node4&#45;&gt;Node3</title>
<path fill="none" stroke="#9a32cd" stroke-dasharray="5,2" d="M701.429,-294.385C732.395,-299.116 769.678,-304.812 799.87,-309.425"/>
<polygon fill="#9a32cd" stroke="#9a32cd" points="701.603,-290.871 691.189,-292.821 700.546,-297.791 701.603,-290.871"/>
<text text-anchor="middle" x="749" y="-310" font-family="Helvetica,sans-Serif" font-size="10.00"> p_pool</text>
</g>
<!-- Node5 -->
<g id="node10" class="node"><title>Node5</title>
<a xlink:href="structstxxl_1_1choose__int__types.html" target="_top" xlink:title="stxxl::choose_int_types\l\&lt; my_pointer_size \&gt;">
<polygon fill="none" stroke="black" points="293,-244 293,-278 413,-278 413,-244 293,-244"/>
<text text-anchor="start" x="301" y="-265" font-family="Helvetica,sans-Serif" font-size="10.00">stxxl::choose_int_types</text>
<text text-anchor="middle" x="353" y="-252" font-family="Helvetica,sans-Serif" font-size="10.00">&lt; my_pointer_size &gt;</text>
</a>
</g>
<!-- Node5&#45;&gt;Node1 -->
<g id="edge54" class="edge"><title>Node5&#45;&gt;Node1</title>
<path fill="none" stroke="#9a32cd" stroke-dasharray="5,2" d="M423.258,-252.982C481.298,-247.051 565.888,-240 640,-240 640,-240 640,-240 2983,-240 3036.5,-240 3095.28,-255.92 3137.85,-270.472"/>
<polygon fill="#9a32cd" stroke="#9a32cd" points="422.684,-249.523 413.099,-254.036 423.407,-256.485 422.684,-249.523"/>
<text text-anchor="middle" x="1759" y="-257" font-family="Helvetica,sans-Serif" font-size="10.00"> blocks2prefetch</text>
<text text-anchor="middle" x="1759" y="-244" font-family="Helvetica,sans-Serif" font-size="10.00">alloc_count</text>
</g>
<!-- Node5&#45;&gt;Node4 -->
<g id="edge12" class="edge"><title>Node5&#45;&gt;Node4</title>
<path fill="none" stroke="#9a32cd" stroke-dasharray="5,2" d="M423.153,-266.866C474.287,-271.142 542.415,-276.84 588.561,-280.698"/>
<polygon fill="#9a32cd" stroke="#9a32cd" points="423.422,-263.377 413.165,-266.031 422.838,-270.352 423.422,-263.377"/>
<text text-anchor="middle" x="504" y="-282" font-family="Helvetica,sans-Serif" font-size="10.00"> free_blocks_size</text>
</g>
<!-- Node14 -->
<g id="node32" class="node"><title>Node14</title>
<a xlink:href="classstxxl_1_1atomic__counted__object.html" target="_top" xlink:title="Provides reference counting abilities for use with counting_ptr with mutex locking. ">
<polygon fill="none" stroke="black" points="583.5,-407 583.5,-441 696.5,-441 696.5,-407 583.5,-407"/>
<text text-anchor="start" x="591.5" y="-428" font-family="Helvetica,sans-Serif" font-size="10.00">stxxl::atomic_counted</text>
<text text-anchor="middle" x="640" y="-415" font-family="Helvetica,sans-Serif" font-size="10.00">_object</text>
</a>
</g>
<!-- Node5&#45;&gt;Node14 -->
<g id="edge44" class="edge"><title>Node5&#45;&gt;Node14</title>
<path fill="none" stroke="#9a32cd" stroke-dasharray="5,2" d="M371.438,-286.081C388.233,-307.339 414.811,-337.273 444,-356 486.896,-383.52 542.253,-401.393 583.19,-411.875"/>
<polygon fill="#9a32cd" stroke="#9a32cd" points="374.169,-283.892 365.284,-278.121 368.631,-288.173 374.169,-283.892"/>
<text text-anchor="middle" x="504" y="-409" font-family="Helvetica,sans-Serif" font-size="10.00"> m_reference_count</text>
</g>
<!-- Node6 -->
<g id="node12" class="node"><title>Node6</title>
<a xlink:href="structstxxl_1_1choose__int__types.html" target="_top" xlink:title="stxxl::choose_int_types\l\&lt; PtrSize \&gt;">
<polygon fill="none" stroke="black" points="9,-244 9,-278 129,-278 129,-244 9,-244"/>
<text text-anchor="start" x="17" y="-265" font-family="Helvetica,sans-Serif" font-size="10.00">stxxl::choose_int_types</text>
<text text-anchor="middle" x="69" y="-252" font-family="Helvetica,sans-Serif" font-size="10.00">&lt; PtrSize &gt;</text>
</a>
</g>
<!-- Node6&#45;&gt;Node5 -->
<g id="edge14" class="edge"><title>Node6&#45;&gt;Node5</title>
<path fill="none" stroke="orange" stroke-dasharray="5,2" d="M139.368,-261C186.531,-261 247.978,-261 292.858,-261"/>
<polygon fill="orange" stroke="orange" points="139.229,-257.5 129.229,-261 139.229,-264.5 139.229,-257.5"/>
<text text-anchor="middle" x="209" y="-265" font-family="Helvetica,sans-Serif" font-size="10.00"> &lt; my_pointer_size &gt;</text>
</g>
<!-- Node7 -->
<g id="node14" class="node"><title>Node7</title>
<a xlink:href="structstxxl_1_1compat__hash__map.html" target="_top" xlink:title="stxxl::compat_hash\l_map\&lt; bid_type, busy\l_entry, bid_hash \&gt;">
<polygon fill="none" stroke="black" points="296.5,-178.5 296.5,-225.5 409.5,-225.5 409.5,-178.5 296.5,-178.5"/>
<text text-anchor="start" x="304.5" y="-212.5" font-family="Helvetica,sans-Serif" font-size="10.00">stxxl::compat_hash</text>
<text text-anchor="start" x="304.5" y="-199.5" font-family="Helvetica,sans-Serif" font-size="10.00">_map&lt; bid_type, busy</text>
<text text-anchor="middle" x="353" y="-186.5" font-family="Helvetica,sans-Serif" font-size="10.00">_entry, bid_hash &gt;</text>
</a>
</g>
<!-- Node7&#45;&gt;Node4 -->
<g id="edge16" class="edge"><title>Node7&#45;&gt;Node4</title>
<path fill="none" stroke="#9a32cd" stroke-dasharray="5,2" d="M419.632,-214.052C461.617,-222.482 516.646,-235.075 564,-251 577.975,-255.7 592.878,-262.052 605.752,-267.994"/>
<polygon fill="#9a32cd" stroke="#9a32cd" points="420.285,-210.614 409.796,-212.105 418.926,-217.48 420.285,-210.614"/>
<text text-anchor="middle" x="504" y="-255" font-family="Helvetica,sans-Serif" font-size="10.00"> busy_blocks</text>
</g>
<!-- Node8 -->
<g id="node16" class="node"><title>Node8</title>
<a xlink:href="structstxxl_1_1compat__hash__map.html" target="_top" xlink:title="stxxl::compat_hash\l_map\&lt; _Key, _Tp, _Hash \&gt;">
<polygon fill="none" stroke="black" points="0,-185 0,-219 138,-219 138,-185 0,-185"/>
<text text-anchor="start" x="8" y="-206" font-family="Helvetica,sans-Serif" font-size="10.00">stxxl::compat_hash</text>
<text text-anchor="middle" x="69" y="-193" font-family="Helvetica,sans-Serif" font-size="10.00">_map&lt; _Key, _Tp, _Hash &gt;</text>
</a>
</g>
<!-- Node8&#45;&gt;Node7 -->
<g id="edge18" class="edge"><title>Node8&#45;&gt;Node7</title>
<path fill="none" stroke="orange" stroke-dasharray="5,2" d="M148.286,-202C195.405,-202 254.053,-202 296.482,-202"/>
<polygon fill="orange" stroke="orange" points="148.111,-198.5 138.111,-202 148.111,-205.5 148.111,-198.5"/>
<text text-anchor="start" x="156" y="-219" font-family="Helvetica,sans-Serif" font-size="10.00"> &lt; bid_type, busy_entry,</text>
<text text-anchor="middle" x="209" y="-206" font-family="Helvetica,sans-Serif" font-size="10.00"> bid_hash &gt;</text>
</g>
<!-- Node9&#45;&gt;Node3 -->
<g id="edge20" class="edge"><title>Node9&#45;&gt;Node3</title>
<path fill="none" stroke="#9a32cd" stroke-dasharray="5,2" d="M561.349,-335.133C617.568,-332.269 705.697,-327.636 782,-323 787.784,-322.649 793.821,-322.266 799.843,-321.875"/>
<polygon fill="#9a32cd" stroke="#9a32cd" points="561.042,-331.644 551.232,-335.647 561.397,-338.635 561.042,-331.644"/>
<text text-anchor="middle" x="640" y="-338" font-family="Helvetica,sans-Serif" font-size="10.00"> w_pool</text>
</g>
<!-- Node10 -->
<g id="node21" class="node"><title>Node10</title>
<a xlink:href="classstxxl_1_1block__manager.html" target="_top" xlink:title="Block manager class. ">
<polygon fill="none" stroke="black" points="1203,-549.5 1203,-570.5 1313,-570.5 1313,-549.5 1203,-549.5"/>
<text text-anchor="middle" x="1258" y="-557.5" font-family="Helvetica,sans-Serif" font-size="10.00">stxxl::block_manager</text>
</a>
</g>
<!-- Node10&#45;&gt;Node1 -->
<g id="edge24" class="edge"><title>Node10&#45;&gt;Node1</title>
<path fill="none" stroke="#9a32cd" stroke-dasharray="5,2" d="M1323.7,-550.9C1361.45,-546.434 1409.8,-542 1453,-542 1453,-542 1453,-542 2983,-542 3044.86,-542 3070.59,-542.997 3116,-501 3170.21,-450.873 3189.17,-360.317 3195.31,-317.563"/>
<polygon fill="#9a32cd" stroke="#9a32cd" points="1322.85,-547.477 1313.35,-552.157 1323.7,-554.426 1322.85,-547.477"/>
<text text-anchor="middle" x="2256" y="-546" font-family="Helvetica,sans-Serif" font-size="10.00"> bm</text>
</g>
<!-- Node11&#45;&gt;Node10 -->
<g id="edge26" class="edge"><title>Node11&#45;&gt;Node10</title>
<path fill="none" stroke="midnightblue" d="M707.745,-624.976C795.501,-618.407 953.215,-606.391 1088,-595 1127.13,-591.693 1137.54,-594.97 1176,-587 1194.79,-583.106 1215.29,-576.356 1231.09,-570.58"/>
<polygon fill="midnightblue" stroke="midnightblue" points="707.367,-621.495 697.656,-625.731 707.889,-628.475 707.367,-621.495"/>
</g>
<!-- Node12&#45;&gt;Node11 -->
<g id="edge30" class="edge"><title>Node12&#45;&gt;Node11</title>
<path fill="none" stroke="orange" stroke-dasharray="5,2" d="M436.299,-630C483.153,-630 540.464,-630 582.347,-630"/>
<polygon fill="orange" stroke="orange" points="436.165,-626.5 426.165,-630 436.165,-633.5 436.165,-626.5"/>
<text text-anchor="middle" x="504" y="-634" font-family="Helvetica,sans-Serif" font-size="10.00"> &lt; block_manager &gt;</text>
</g>
<!-- Node13&#45;&gt;Node10 -->
<g id="edge34" class="edge"><title>Node13&#45;&gt;Node10</title>
<path fill="none" stroke="#9a32cd" stroke-dasharray="5,2" d="M893.94,-463.099C970.13,-483.378 1141.05,-528.872 1218.51,-549.489"/>
<polygon fill="#9a32cd" stroke="#9a32cd" points="894.832,-459.714 884.268,-460.524 893.031,-466.478 894.832,-459.714"/>
<text text-anchor="middle" x="1036" y="-517" font-family="Helvetica,sans-Serif" font-size="10.00"> disk_files</text>
</g>
<!-- Node13&#45;&gt;Node16 -->
<g id="edge50" class="edge"><title>Node13&#45;&gt;Node16</title>
<path fill="none" stroke="#9a32cd" stroke-dasharray="5,2" d="M881.678,-469.142C904.666,-484.065 938.836,-507.433 966,-531 974.786,-538.623 974.603,-543.144 984,-550 991.688,-555.609 1000.83,-560.497 1009.29,-564.428"/>
<polygon fill="#9a32cd" stroke="#9a32cd" points="883.462,-466.128 873.157,-463.665 879.677,-472.016 883.462,-466.128"/>
<text text-anchor="middle" x="948" y="-535" font-family="Helvetica,sans-Serif" font-size="10.00"> storage</text>
</g>
<!-- Node23 -->
<g id="node56" class="node"><title>Node23</title>
<a xlink:href="structstxxl_1_1BID.html" target="_top" xlink:title="stxxl::BID\&lt; raw_size \&gt;">
<polygon fill="none" stroke="black" points="1199,-434.5 1199,-455.5 1317,-455.5 1317,-434.5 1199,-434.5"/>
<text text-anchor="middle" x="1258" y="-442.5" font-family="Helvetica,sans-Serif" font-size="10.00">stxxl::BID&lt; raw_size &gt;</text>
</a>
</g>
<!-- Node13&#45;&gt;Node23 -->
<g id="edge70" class="edge"><title>Node13&#45;&gt;Node23</title>
<path fill="none" stroke="#9a32cd" stroke-dasharray="5,2" d="M894.467,-452.234C964.913,-450.833 1115.07,-447.844 1198.68,-446.181"/>
<polygon fill="#9a32cd" stroke="#9a32cd" points="894.196,-448.739 884.268,-452.437 894.336,-455.738 894.196,-448.739"/>
<text text-anchor="middle" x="1036" y="-454" font-family="Helvetica,sans-Serif" font-size="10.00"> storage</text>
</g>
<!-- Node24 -->
<g id="node59" class="node"><title>Node24</title>
<a xlink:href="structstxxl_1_1BID.html" target="_top" xlink:title="Block identifier class. ">
<polygon fill="none" stroke="black" points="985.5,-388.5 985.5,-409.5 1086.5,-409.5 1086.5,-388.5 985.5,-388.5"/>
<text text-anchor="middle" x="1036" y="-396.5" font-family="Helvetica,sans-Serif" font-size="10.00">stxxl::BID&lt; SIZE &gt;</text>
</a>
</g>
<!-- Node13&#45;&gt;Node24 -->
<g id="edge74" class="edge"><title>Node13&#45;&gt;Node24</title>
<path fill="none" stroke="#9a32cd" stroke-dasharray="5,2" d="M884.778,-437.786C898.213,-431.207 914.608,-423.907 930,-419 947.754,-413.341 967.72,-409.059 985.496,-405.94"/>
<polygon fill="#9a32cd" stroke="#9a32cd" points="882.942,-434.792 875.574,-442.405 886.082,-441.048 882.942,-434.792"/>
<text text-anchor="middle" x="948" y="-423" font-family="Helvetica,sans-Serif" font-size="10.00"> storage</text>
</g>
<!-- Node14&#45;&gt;Node13 -->
<g id="edge38" class="edge"><title>Node14&#45;&gt;Node13</title>
<path fill="none" stroke="#9a32cd" stroke-dasharray="5,2" d="M706.679,-432.152C730.465,-435.14 757.444,-438.619 782,-442 797.183,-444.091 814.092,-446.591 827.909,-448.679"/>
<polygon fill="#9a32cd" stroke="#9a32cd" points="707.055,-428.672 696.698,-430.904 706.186,-435.618 707.055,-428.672"/>
<text text-anchor="middle" x="749" y="-446" font-family="Helvetica,sans-Serif" font-size="10.00"> m_request_ref</text>
</g>
<!-- Node15&#45;&gt;Node14 -->
<g id="edge40" class="edge"><title>Node15&#45;&gt;Node14</title>
<path fill="none" stroke="#9a32cd" stroke-dasharray="5,2" d="M387.063,-531.52C440.313,-508.885 543.045,-465.214 599.827,-441.077"/>
<polygon fill="#9a32cd" stroke="#9a32cd" points="385.552,-528.36 377.718,-535.493 388.29,-534.802 385.552,-528.36"/>
<text text-anchor="middle" x="504" y="-510" font-family="Helvetica,sans-Serif" font-size="10.00"> m_reference_count_mutex</text>
</g>
<!-- Node15&#45;&gt;Node16 -->
<g id="edge52" class="edge"><title>Node15&#45;&gt;Node16</title>
<path fill="none" stroke="#9a32cd" stroke-dasharray="5,2" d="M398.637,-546.694C477.05,-548.018 642.396,-551.378 782,-558 851.972,-561.319 932.666,-567.045 983.983,-570.925"/>
<polygon fill="#9a32cd" stroke="#9a32cd" points="398.668,-543.194 388.612,-546.528 398.552,-550.194 398.668,-543.194"/>
<text text-anchor="middle" x="749" y="-562" font-family="Helvetica,sans-Serif" font-size="10.00"> mutex</text>
</g>
<!-- Node16&#45;&gt;Node10 -->
<g id="edge46" class="edge"><title>Node16&#45;&gt;Node10</title>
<path fill="none" stroke="#9a32cd" stroke-dasharray="5,2" d="M1098.44,-570.781C1131.25,-568.564 1171.11,-565.871 1202.79,-563.731"/>
<polygon fill="#9a32cd" stroke="#9a32cd" points="1097.79,-567.317 1088.05,-571.483 1098.26,-574.301 1097.79,-567.317"/>
<text text-anchor="middle" x="1141" y="-574" font-family="Helvetica,sans-Serif" font-size="10.00"> disk_allocators</text>
</g>
<!-- Node17 -->
<g id="node44" class="node"><title>Node17</title>
<a xlink:href="classstxxl_1_1typed__block.html" target="_top" xlink:title="Block containing elements of fixed length. ">
<polygon fill="none" stroke="black" points="2920.5,-159.5 2920.5,-206.5 3045.5,-206.5 3045.5,-159.5 2920.5,-159.5"/>
<text text-anchor="start" x="2928.5" y="-193.5" font-family="Helvetica,sans-Serif" font-size="10.00">stxxl::typed_block</text>
<text text-anchor="start" x="2928.5" y="-180.5" font-family="Helvetica,sans-Serif" font-size="10.00">&lt; RawSize, Type, NRef,</text>
<text text-anchor="middle" x="2983" y="-167.5" font-family="Helvetica,sans-Serif" font-size="10.00"> MetaInfoType &gt;</text>
</a>
</g>
<!-- Node17&#45;&gt;Node1 -->
<g id="edge56" class="edge"><title>Node17&#45;&gt;Node1</title>
<path fill="none" stroke="#9a32cd" stroke-dasharray="5,2" d="M3055.94,-182.847C3076.3,-185.269 3097.82,-190.295 3116,-200 3146.19,-216.112 3170.35,-248.143 3184.42,-270.304"/>
<polygon fill="#9a32cd" stroke="#9a32cd" points="3056.03,-179.339 3045.73,-181.833 3055.34,-186.305 3056.03,-179.339"/>
<text text-anchor="middle" x="3090" y="-217" font-family="Helvetica,sans-Serif" font-size="10.00"> front_block</text>
<text text-anchor="middle" x="3090" y="-204" font-family="Helvetica,sans-Serif" font-size="10.00">back_block</text>
</g>
<!-- Node18 -->
<g id="node46" class="node"><title>Node18</title>
<a xlink:href="classstxxl_1_1mng__local_1_1expand__struct.html" target="_top" xlink:title="stxxl::mng_local::expand\l_struct\&lt; mng_local::block\l_w_info\&lt; Type, RawSize, NRef,\l MetaInfoType \&gt;, RawSize \&gt;">
<polygon fill="none" stroke="black" points="2722.5,-139 2722.5,-199 2881.5,-199 2881.5,-139 2722.5,-139"/>
<text text-anchor="start" x="2730.5" y="-186" font-family="Helvetica,sans-Serif" font-size="10.00">stxxl::mng_local::expand</text>
<text text-anchor="start" x="2730.5" y="-173" font-family="Helvetica,sans-Serif" font-size="10.00">_struct&lt; mng_local::block</text>
<text text-anchor="start" x="2730.5" y="-160" font-family="Helvetica,sans-Serif" font-size="10.00">_w_info&lt; Type, RawSize, NRef,</text>
<text text-anchor="middle" x="2802" y="-147" font-family="Helvetica,sans-Serif" font-size="10.00"> MetaInfoType &gt;, RawSize &gt;</text>
</a>
</g>
<!-- Node18&#45;&gt;Node17 -->
<g id="edge58" class="edge"><title>Node18&#45;&gt;Node17</title>
<path fill="none" stroke="midnightblue" d="M2891.74,-175.942C2901.45,-176.692 2911.17,-177.444 2920.45,-178.162"/>
<polygon fill="midnightblue" stroke="midnightblue" points="2891.89,-172.443 2881.65,-175.161 2891.35,-179.422 2891.89,-172.443"/>
</g>
<!-- Node19 -->
<g id="node48" class="node"><title>Node19</title>
<a xlink:href="classstxxl_1_1mng__local_1_1add__filler.html" target="_top" xlink:title="stxxl::mng_local::add\l_filler\&lt; mng_local::block\l_w_info\&lt; Type, RawSize,\l NRef, MetaInfoType \&gt;, RawSize\l&#45;sizeof(mng_local::block_w_info\l\&lt; Type, RawSize, NRef, MetaInfoType \&gt;)\&gt;">
<polygon fill="none" stroke="black" points="2366,-126 2366,-212 2572,-212 2572,-126 2366,-126"/>
<text text-anchor="start" x="2374" y="-199" font-family="Helvetica,sans-Serif" font-size="10.00">stxxl::mng_local::add</text>
<text text-anchor="start" x="2374" y="-186" font-family="Helvetica,sans-Serif" font-size="10.00">_filler&lt; mng_local::block</text>
<text text-anchor="start" x="2374" y="-173" font-family="Helvetica,sans-Serif" font-size="10.00">_w_info&lt; Type, RawSize,</text>
<text text-anchor="start" x="2374" y="-160" font-family="Helvetica,sans-Serif" font-size="10.00"> NRef, MetaInfoType &gt;, RawSize</text>
<text text-anchor="start" x="2374" y="-147" font-family="Helvetica,sans-Serif" font-size="10.00">&#45;sizeof(mng_local::block_w_info</text>
<text text-anchor="middle" x="2469" y="-134" font-family="Helvetica,sans-Serif" font-size="10.00">&lt; Type, RawSize, NRef, MetaInfoType &gt;)&gt;</text>
</a>
</g>
<!-- Node19&#45;&gt;Node18 -->
<g id="edge60" class="edge"><title>Node19&#45;&gt;Node18</title>
<path fill="none" stroke="midnightblue" d="M2582.12,-169C2628.22,-169 2680.42,-169 2722.39,-169"/>
<polygon fill="midnightblue" stroke="midnightblue" points="2582.08,-165.5 2572.08,-169 2582.08,-172.5 2582.08,-165.5"/>
</g>
<!-- Node20 -->
<g id="node50" class="node"><title>Node20</title>
<a xlink:href="classstxxl_1_1mng__local_1_1block__w__info.html" target="_top" xlink:title="stxxl::mng_local::block\l_w_info\&lt; Type, RawSize,\l NRef, MetaInfoType \&gt;">
<polygon fill="none" stroke="black" points="2191,-325.5 2191,-372.5 2321,-372.5 2321,-325.5 2191,-325.5"/>
<text text-anchor="start" x="2199" y="-359.5" font-family="Helvetica,sans-Serif" font-size="10.00">stxxl::mng_local::block</text>
<text text-anchor="start" x="2199" y="-346.5" font-family="Helvetica,sans-Serif" font-size="10.00">_w_info&lt; Type, RawSize,</text>
<text text-anchor="middle" x="2256" y="-333.5" font-family="Helvetica,sans-Serif" font-size="10.00"> NRef, MetaInfoType &gt;</text>
</a>
</g>
<!-- Node20&#45;&gt;Node19 -->
<g id="edge62" class="edge"><title>Node20&#45;&gt;Node19</title>
<path fill="none" stroke="midnightblue" d="M2291.79,-318.759C2326.31,-289.58 2378.94,-245.11 2417.88,-212.204"/>
<polygon fill="midnightblue" stroke="midnightblue" points="2289.22,-316.34 2283.85,-325.468 2293.74,-321.687 2289.22,-316.34"/>
</g>
<!-- Node21 -->
<g id="node52" class="node"><title>Node21</title>
<a xlink:href="classstxxl_1_1mng__local_1_1block__w__bids.html" target="_top" xlink:title="stxxl::mng_local::block\l_w_bids\&lt; Type,((RawSize\l&#45;sizeof(BID\&lt; RawSize \&gt;)*NBids\l&#45;sizeof(MetaInfoType))/sizeof\l(Type)), RawSize, NBids \&gt;">
<polygon fill="none" stroke="black" points="1680,-328.5 1680,-401.5 1838,-401.5 1838,-328.5 1680,-328.5"/>
<text text-anchor="start" x="1688" y="-388.5" font-family="Helvetica,sans-Serif" font-size="10.00">stxxl::mng_local::block</text>
<text text-anchor="start" x="1688" y="-375.5" font-family="Helvetica,sans-Serif" font-size="10.00">_w_bids&lt; Type,((RawSize</text>
<text text-anchor="start" x="1688" y="-362.5" font-family="Helvetica,sans-Serif" font-size="10.00">&#45;sizeof(BID&lt; RawSize &gt;)*NBids</text>
<text text-anchor="start" x="1688" y="-349.5" font-family="Helvetica,sans-Serif" font-size="10.00">&#45;sizeof(MetaInfoType))/sizeof</text>
<text text-anchor="middle" x="1759" y="-336.5" font-family="Helvetica,sans-Serif" font-size="10.00">(Type)), RawSize, NBids &gt;</text>
</a>
</g>
<!-- Node21&#45;&gt;Node20 -->
<g id="edge64" class="edge"><title>Node21&#45;&gt;Node20</title>
<path fill="none" stroke="midnightblue" d="M1848.21,-378.544C1931.16,-388.67 2057.85,-397.834 2166,-379 2174.92,-377.446 2184.17,-375.175 2193.18,-372.567"/>
<polygon fill="midnightblue" stroke="midnightblue" points="1848.42,-375.043 1838.07,-377.274 1847.55,-381.989 1848.42,-375.043"/>
</g>
<!-- Node26 -->
<g id="node66" class="node"><title>Node26</title>
<a xlink:href="classstxxl_1_1mng__local_1_1block__w__info.html" target="_top" xlink:title="Contains per block information for stxxl::typed_block , not intended for direct use. ">
<polygon fill="none" stroke="black" points="1901,-325.5 1901,-372.5 2031,-372.5 2031,-325.5 1901,-325.5"/>
<text text-anchor="start" x="1909" y="-359.5" font-family="Helvetica,sans-Serif" font-size="10.00">stxxl::mng_local::block</text>
<text text-anchor="start" x="1909" y="-346.5" font-family="Helvetica,sans-Serif" font-size="10.00">_w_info&lt; Type, RawSize,</text>
<text text-anchor="middle" x="1966" y="-333.5" font-family="Helvetica,sans-Serif" font-size="10.00"> NBids, MetaInfoType &gt;</text>
</a>
</g>
<!-- Node21&#45;&gt;Node26 -->
<g id="edge84" class="edge"><title>Node21&#45;&gt;Node26</title>
<path fill="none" stroke="midnightblue" d="M1848.41,-358.089C1865.97,-356.732 1884.09,-355.331 1900.68,-354.049"/>
<polygon fill="midnightblue" stroke="midnightblue" points="1847.84,-354.622 1838.14,-358.883 1848.38,-361.601 1847.84,-354.622"/>
</g>
<!-- Node22 -->
<g id="node54" class="node"><title>Node22</title>
<a xlink:href="classstxxl_1_1mng__local_1_1element__block.html" target="_top" xlink:title="Contains data elements for stxxl::typed_block , not intended for direct use. ">
<polygon fill="none" stroke="black" points="1194,-334 1194,-368 1322,-368 1322,-334 1194,-334"/>
<text text-anchor="start" x="1202" y="-355" font-family="Helvetica,sans-Serif" font-size="10.00">stxxl::mng_local::element</text>
<text text-anchor="middle" x="1258" y="-342" font-family="Helvetica,sans-Serif" font-size="10.00">_block&lt; Type, Size &gt;</text>
</a>
</g>
<!-- Node22&#45;&gt;Node21 -->
<g id="edge66" class="edge"><title>Node22&#45;&gt;Node21</title>
<path fill="none" stroke="midnightblue" d="M1332.26,-350.075C1387.39,-349.613 1464.4,-349.441 1532,-351 1589.82,-352.334 1604.28,-353.289 1662,-357 1667.82,-357.374 1673.83,-357.793 1679.88,-358.237"/>
<polygon fill="midnightblue" stroke="midnightblue" points="1332.2,-346.575 1322.23,-350.164 1332.26,-353.575 1332.2,-346.575"/>
</g>
<!-- Node25 -->
<g id="node62" class="node"><title>Node25</title>
<a xlink:href="classstxxl_1_1mng__local_1_1block__w__bids.html" target="_top" xlink:title="Contains BID references for stxxl::typed_block , not intended for direct use. ">
<polygon fill="none" stroke="black" points="1374,-360.5 1374,-407.5 1532,-407.5 1532,-360.5 1374,-360.5"/>
<text text-anchor="start" x="1382" y="-394.5" font-family="Helvetica,sans-Serif" font-size="10.00">stxxl::mng_local::block</text>
<text text-anchor="start" x="1382" y="-381.5" font-family="Helvetica,sans-Serif" font-size="10.00">_w_bids&lt; Type, Size, RawSize,</text>
<text text-anchor="middle" x="1453" y="-368.5" font-family="Helvetica,sans-Serif" font-size="10.00"> NBids &gt;</text>
</a>
</g>
<!-- Node22&#45;&gt;Node25 -->
<g id="edge78" class="edge"><title>Node22&#45;&gt;Node25</title>
<path fill="none" stroke="midnightblue" d="M1332.36,-363.584C1345.94,-365.882 1360.15,-368.287 1373.86,-370.608"/>
<polygon fill="midnightblue" stroke="midnightblue" points="1332.56,-360.069 1322.12,-361.851 1331.4,-366.971 1332.56,-360.069"/>
</g>
<!-- Node23&#45;&gt;Node21 -->
<g id="edge68" class="edge"><title>Node23&#45;&gt;Node21</title>
<path fill="none" stroke="#9a32cd" stroke-dasharray="5,2" d="M1327.2,-447.207C1425.91,-449.573 1601.84,-450.672 1662,-431 1681.36,-424.669 1700.4,-413.213 1716.41,-401.603"/>
<polygon fill="#9a32cd" stroke="#9a32cd" points="1327.11,-443.704 1317.02,-446.952 1326.93,-450.702 1327.11,-443.704"/>
<text text-anchor="middle" x="1453" y="-452" font-family="Helvetica,sans-Serif" font-size="10.00"> ref</text>
</g>
<!-- Node23&#45;&gt;Node25 -->
<g id="edge80" class="edge"><title>Node23&#45;&gt;Node25</title>
<path fill="none" stroke="#9a32cd" stroke-dasharray="5,2" d="M1299.13,-431.227C1312.18,-426.92 1326.67,-422.199 1340,-418 1350.94,-414.553 1362.5,-410.987 1373.89,-407.519"/>
<polygon fill="#9a32cd" stroke="#9a32cd" points="1297.87,-427.957 1289.48,-434.424 1300.07,-434.602 1297.87,-427.957"/>
<text text-anchor="middle" x="1348" y="-422" font-family="Helvetica,sans-Serif" font-size="10.00"> ref</text>
</g>
<!-- Node24&#45;&gt;Node23 -->
<g id="edge72" class="edge"><title>Node24&#45;&gt;Node23</title>
<path fill="none" stroke="orange" stroke-dasharray="5,2" d="M1096.58,-405.436C1121.37,-408.644 1150.23,-413.116 1176,-419 1193.76,-423.056 1213.22,-429.151 1228.72,-434.42"/>
<polygon fill="orange" stroke="orange" points="1096.94,-401.954 1086.59,-404.182 1096.07,-408.9 1096.94,-401.954"/>
<text text-anchor="middle" x="1141" y="-423" font-family="Helvetica,sans-Serif" font-size="10.00"> &lt; raw_size &gt;</text>
</g>
<!-- Node25&#45;&gt;Node21 -->
<g id="edge76" class="edge"><title>Node25&#45;&gt;Node21</title>
<path fill="none" stroke="orange" stroke-dasharray="5,2" d="M1542.3,-366.813C1544.89,-366.512 1547.46,-366.239 1550,-366 1592.81,-361.958 1640.77,-361.444 1679.94,-362.058"/>
<polygon fill="orange" stroke="orange" points="1541.72,-363.359 1532.24,-368.103 1542.61,-370.303 1541.72,-363.359"/>
<text text-anchor="start" x="1550" y="-422" font-family="Helvetica,sans-Serif" font-size="10.00"> &lt; Type,((RawSize&#45;sizeof</text>
<text text-anchor="start" x="1550" y="-409" font-family="Helvetica,sans-Serif" font-size="10.00">(BID&lt; RawSize &gt;)*NBids</text>
<text text-anchor="start" x="1550" y="-396" font-family="Helvetica,sans-Serif" font-size="10.00">&#45;sizeof(MetaInfoType))</text>
<text text-anchor="start" x="1550" y="-383" font-family="Helvetica,sans-Serif" font-size="10.00">/sizeof(Type)), RawSize,</text>
<text text-anchor="middle" x="1606" y="-370" font-family="Helvetica,sans-Serif" font-size="10.00"> NBids &gt;</text>
</g>
<!-- Node26&#45;&gt;Node20 -->
<g id="edge82" class="edge"><title>Node26&#45;&gt;Node20</title>
<path fill="none" stroke="orange" stroke-dasharray="5,2" d="M2041.08,-349C2087.49,-349 2146.46,-349 2190.89,-349"/>
<polygon fill="orange" stroke="orange" points="2041.08,-345.5 2031.08,-349 2041.08,-352.5 2041.08,-345.5"/>
<text text-anchor="start" x="2054" y="-366" font-family="Helvetica,sans-Serif" font-size="10.00"> &lt; Type, RawSize, NRef,</text>
<text text-anchor="middle" x="2110" y="-353" font-family="Helvetica,sans-Serif" font-size="10.00"> MetaInfoType &gt;</text>
</g>
<!-- Node27 -->
<g id="node69" class="node"><title>Node27</title>
<a xlink:href="classstxxl_1_1mng__local_1_1filler__struct.html" target="_top" xlink:title="stxxl::mng_local::filler\l_struct\&lt; FillSize \&gt;">
<polygon fill="none" stroke="black" points="1703,-54 1703,-88 1815,-88 1815,-54 1703,-54"/>
<text text-anchor="start" x="1711" y="-75" font-family="Helvetica,sans-Serif" font-size="10.00">stxxl::mng_local::filler</text>
<text text-anchor="middle" x="1759" y="-62" font-family="Helvetica,sans-Serif" font-size="10.00">_struct&lt; FillSize &gt;</text>
</a>
</g>
<!-- Node27&#45;&gt;Node19 -->
<g id="edge86" class="edge"><title>Node27&#45;&gt;Node19</title>
<path fill="none" stroke="#9a32cd" stroke-dasharray="5,2" d="M1820.22,-91.1059C1902.03,-116.819 2052.05,-159.942 2184,-176 2247.53,-183.732 2264.02,-177.587 2328,-176 2340.25,-175.696 2353.09,-175.244 2365.83,-174.713"/>
<polygon fill="#9a32cd" stroke="#9a32cd" points="1821.17,-87.7375 1810.58,-88.0594 1819.06,-94.4117 1821.17,-87.7375"/>
<text text-anchor="middle" x="2110" y="-178" font-family="Helvetica,sans-Serif" font-size="10.00"> filler</text>
</g>
<!-- Node29 -->
<g id="node73" class="node"><title>Node29</title>
<a xlink:href="classstxxl_1_1mng__local_1_1add__filler.html" target="_top" xlink:title="Contains per block filler for stxxl::typed_block , not intended for direct use. ">
<polygon fill="none" stroke="black" points="1896,-54 1896,-88 2036,-88 2036,-54 1896,-54"/>
<text text-anchor="start" x="1904" y="-75" font-family="Helvetica,sans-Serif" font-size="10.00">stxxl::mng_local::add</text>
<text text-anchor="middle" x="1966" y="-62" font-family="Helvetica,sans-Serif" font-size="10.00">_filler&lt; BaseType, FillSize &gt;</text>
</a>
</g>
<!-- Node27&#45;&gt;Node29 -->
<g id="edge92" class="edge"><title>Node27&#45;&gt;Node29</title>
<path fill="none" stroke="#9a32cd" stroke-dasharray="5,2" d="M1825.17,-71C1847.72,-71 1873.01,-71 1895.87,-71"/>
<polygon fill="#9a32cd" stroke="#9a32cd" points="1825.02,-67.5001 1815.02,-71 1825.02,-74.5001 1825.02,-67.5001"/>
<text text-anchor="middle" x="1867" y="-75" font-family="Helvetica,sans-Serif" font-size="10.00"> filler</text>
</g>
<!-- Node31 -->
<g id="node78" class="node"><title>Node31</title>
<a xlink:href="classstxxl_1_1mng__local_1_1add__filler.html" target="_top" xlink:title="stxxl::mng_local::add\l_filler\&lt; Type, RawSize\l&#45;sizeof(Type)\&gt;">
<polygon fill="none" stroke="black" points="2198,-0.5 2198,-47.5 2314,-47.5 2314,-0.5 2198,-0.5"/>
<text text-anchor="start" x="2206" y="-34.5" font-family="Helvetica,sans-Serif" font-size="10.00">stxxl::mng_local::add</text>
<text text-anchor="start" x="2206" y="-21.5" font-family="Helvetica,sans-Serif" font-size="10.00">_filler&lt; Type, RawSize</text>
<text text-anchor="middle" x="2256" y="-8.5" font-family="Helvetica,sans-Serif" font-size="10.00">&#45;sizeof(Type)&gt;</text>
</a>
</g>
<!-- Node27&#45;&gt;Node31 -->
<g id="edge98" class="edge"><title>Node27&#45;&gt;Node31</title>
<path fill="none" stroke="#9a32cd" stroke-dasharray="5,2" d="M1817.79,-50.9224C1841.76,-43.6191 1869.92,-36.1459 1896,-32 2001.42,-15.2417 2126.37,-17.2797 2197.89,-20.4954"/>
<polygon fill="#9a32cd" stroke="#9a32cd" points="1816.65,-47.6117 1808.14,-53.9222 1818.73,-54.2962 1816.65,-47.6117"/>
<text text-anchor="middle" x="1966" y="-36" font-family="Helvetica,sans-Serif" font-size="10.00"> filler</text>
</g>
<!-- Node28 -->
<g id="node71" class="node"><title>Node28</title>
<a xlink:href="classstxxl_1_1mng__local_1_1filler__struct.html" target="_top" xlink:title="stxxl::mng_local::filler\l_struct\&lt; Bytes \&gt;">
<polygon fill="none" stroke="black" points="1397,-54 1397,-88 1509,-88 1509,-54 1397,-54"/>
<text text-anchor="start" x="1405" y="-75" font-family="Helvetica,sans-Serif" font-size="10.00">stxxl::mng_local::filler</text>
<text text-anchor="middle" x="1453" y="-62" font-family="Helvetica,sans-Serif" font-size="10.00">_struct&lt; Bytes &gt;</text>
</a>
</g>
<!-- Node28&#45;&gt;Node27 -->
<g id="edge88" class="edge"><title>Node28&#45;&gt;Node27</title>
<path fill="none" stroke="orange" stroke-dasharray="5,2" d="M1519.44,-71C1574.27,-71 1651.22,-71 1702.97,-71"/>
<polygon fill="orange" stroke="orange" points="1519.13,-67.5001 1509.13,-71 1519.13,-74.5001 1519.13,-67.5001"/>
<text text-anchor="middle" x="1606" y="-75" font-family="Helvetica,sans-Serif" font-size="10.00"> &lt; FillSize &gt;</text>
</g>
<!-- Node29&#45;&gt;Node19 -->
<g id="edge90" class="edge"><title>Node29&#45;&gt;Node19</title>
<path fill="none" stroke="orange" stroke-dasharray="5,2" d="M2046.41,-73.3484C2136.59,-76.6253 2276.91,-83.8337 2328,-98 2351.37,-104.481 2375.44,-114.966 2396.92,-125.912"/>
<polygon fill="orange" stroke="orange" points="2046.33,-69.8436 2036.21,-72.9869 2046.08,-76.8392 2046.33,-69.8436"/>
<text text-anchor="start" x="2184.5" y="-167" font-family="Helvetica,sans-Serif" font-size="10.00"> &lt; mng_local::block</text>
<text text-anchor="start" x="2184.5" y="-154" font-family="Helvetica,sans-Serif" font-size="10.00">_w_info&lt; Type, RawSize,</text>
<text text-anchor="start" x="2184.5" y="-141" font-family="Helvetica,sans-Serif" font-size="10.00"> NRef, MetaInfoType &gt;,</text>
<text text-anchor="start" x="2184.5" y="-128" font-family="Helvetica,sans-Serif" font-size="10.00"> RawSize&#45;sizeof(mng_local</text>
<text text-anchor="start" x="2184.5" y="-115" font-family="Helvetica,sans-Serif" font-size="10.00">::block_w_info&lt; Type, RawSize,</text>
<text text-anchor="middle" x="2256" y="-102" font-family="Helvetica,sans-Serif" font-size="10.00"> NRef, MetaInfoType &gt;)&gt;</text>
</g>
<!-- Node29&#45;&gt;Node31 -->
<g id="edge100" class="edge"><title>Node29&#45;&gt;Node31</title>
<path fill="none" stroke="orange" stroke-dasharray="5,2" d="M2025.18,-51.0901C2034.73,-48.3838 2044.58,-45.8916 2054,-44 2101.85,-34.3896 2157.05,-29.324 2197.64,-26.6985"/>
<polygon fill="orange" stroke="orange" points="2023.96,-47.7982 2015.35,-53.9717 2025.93,-54.5151 2023.96,-47.7982"/>
<text text-anchor="start" x="2055.5" y="-61" font-family="Helvetica,sans-Serif" font-size="10.00"> &lt; Type, RawSize&#45;sizeof</text>
<text text-anchor="middle" x="2110" y="-48" font-family="Helvetica,sans-Serif" font-size="10.00">(Type)&gt;</text>
</g>
<!-- Node30 -->
<g id="node76" class="node"><title>Node30</title>
<a xlink:href="classstxxl_1_1mng__local_1_1expand__struct.html" target="_top" xlink:title="Helper to compute the size of the filler , not intended for direct use. ">
<polygon fill="none" stroke="black" points="2403,-49 2403,-83 2535,-83 2535,-49 2403,-49"/>
<text text-anchor="start" x="2411" y="-70" font-family="Helvetica,sans-Serif" font-size="10.00">stxxl::mng_local::expand</text>
<text text-anchor="middle" x="2469" y="-57" font-family="Helvetica,sans-Serif" font-size="10.00">_struct&lt; Type, RawSize &gt;</text>
</a>
</g>
<!-- Node30&#45;&gt;Node18 -->
<g id="edge94" class="edge"><title>Node30&#45;&gt;Node18</title>
<path fill="none" stroke="orange" stroke-dasharray="5,2" d="M2545.23,-74.9085C2592.07,-81.9209 2652.72,-93.801 2704,-113 2721.8,-119.665 2740.18,-129.319 2756.15,-138.74"/>
<polygon fill="orange" stroke="orange" points="2545.55,-71.4183 2535.15,-73.4425 2544.54,-78.3454 2545.55,-71.4183"/>
<text text-anchor="start" x="2590" y="-156" font-family="Helvetica,sans-Serif" font-size="10.00"> &lt; mng_local::block</text>
<text text-anchor="start" x="2590" y="-143" font-family="Helvetica,sans-Serif" font-size="10.00">_w_info&lt; Type, RawSize,</text>
<text text-anchor="start" x="2590" y="-130" font-family="Helvetica,sans-Serif" font-size="10.00"> NRef, MetaInfoType &gt;,</text>
<text text-anchor="middle" x="2647" y="-117" font-family="Helvetica,sans-Serif" font-size="10.00"> RawSize &gt;</text>
</g>
<!-- Node31&#45;&gt;Node30 -->
<g id="edge96" class="edge"><title>Node31&#45;&gt;Node30</title>
<path fill="none" stroke="midnightblue" d="M2324.07,-37.4218C2349.32,-42.4014 2377.9,-48.0375 2402.97,-52.9806"/>
<polygon fill="midnightblue" stroke="midnightblue" points="2324.69,-33.9775 2314.2,-35.4767 2323.34,-40.8452 2324.69,-33.9775"/>
</g>
</g>
</svg>
