<?xml version="1.0" encoding="UTF-8" standalone="no"?>
<!DOCTYPE svg PUBLIC "-//W3C//DTD SVG 1.1//EN"
 "http://www.w3.org/Graphics/SVG/1.1/DTD/svg11.dtd">
<!-- Generated by graphviz version 2.26.3 (20100126.1600)
 -->
<!-- Title: stxxl::stream::sort&lt; Input_, CompareType_, BlockSize_, AllocStr_, runs_creator_type &gt; Pages: 1 -->
<svg width="1898pt" height="498pt"
 viewBox="0.00 0.00 1898.00 498.00" xmlns="http://www.w3.org/2000/svg" xmlns:xlink="http://www.w3.org/1999/xlink">
<g id="graph1" class="graph" transform="scale(1 1) rotate(0) translate(4 494)">
<title>stxxl::stream::sort&lt; Input_, CompareType_, BlockSize_, AllocStr_, runs_creator_type &gt;</title>
<!-- Node1 -->
<g id="node1" class="node"><title>Node1</title>
<polygon fill="#bfbfbf" stroke="black" points="1770,-424 1770,-484 1890,-484 1890,-424 1770,-424"/>
<text text-anchor="start" x="1778" y="-471" font-family="Helvetica,sans-Serif" font-size="10.00">stxxl::stream::sort</text>
<text text-anchor="start" x="1778" y="-458" font-family="Helvetica,sans-Serif" font-size="10.00">&lt; Input_, CompareType</text>
<text text-anchor="start" x="1778" y="-445" font-family="Helvetica,sans-Serif" font-size="10.00">_, BlockSize_, AllocStr</text>
<text text-anchor="middle" x="1830" y="-432" font-family="Helvetica,sans-Serif" font-size="10.00">_, runs_creator_type &gt;</text>
</g>
<!-- Node2 -->
<g id="node2" class="node"><title>Node2</title>
<a xlink:href="classstxxl_1_1noncopyable.html" target="_top" xlink:title="stxxl::noncopyable">
<polygon fill="none" stroke="black" points="6,-296.5 6,-317.5 104,-317.5 104,-296.5 6,-296.5"/>
<text text-anchor="middle" x="55" y="-304.5" font-family="Helvetica,sans-Serif" font-size="10.00">stxxl::noncopyable</text>
</a>
</g>
<!-- Node2&#45;&gt;Node1 -->
<g id="edge2" class="edge"><title>Node2&#45;&gt;Node1</title>
<path fill="none" stroke="midnightblue" d="M62.5391,-327.152C73.2934,-353.345 95.4135,-398.926 128,-426 189.138,-476.795 215.514,-490 295,-490 295,-490 295,-490 1642,-490 1685.2,-490 1733.01,-480.717 1769.6,-471.578"/>
<polygon fill="midnightblue" stroke="midnightblue" points="65.788,-325.85 58.8593,-317.835 59.2774,-328.421 65.788,-325.85"/>
</g>
<!-- Node4 -->
<g id="node6" class="node"><title>Node4</title>
<a xlink:href="classstxxl_1_1stream_1_1basic__runs__merger.html" target="_top" xlink:title="stxxl::stream::basic\l_runs_merger\&lt; sorted\l_runs_type, CompareType\l_, AllocStr_ \&gt;">
<polygon fill="none" stroke="black" points="1285,-343 1285,-403 1417,-403 1417,-343 1285,-343"/>
<text text-anchor="start" x="1293" y="-390" font-family="Helvetica,sans-Serif" font-size="10.00">stxxl::stream::basic</text>
<text text-anchor="start" x="1293" y="-377" font-family="Helvetica,sans-Serif" font-size="10.00">_runs_merger&lt; sorted</text>
<text text-anchor="start" x="1293" y="-364" font-family="Helvetica,sans-Serif" font-size="10.00">_runs_type, CompareType</text>
<text text-anchor="middle" x="1351" y="-351" font-family="Helvetica,sans-Serif" font-size="10.00">_, AllocStr_ &gt;</text>
</a>
</g>
<!-- Node2&#45;&gt;Node4 -->
<g id="edge8" class="edge"><title>Node2&#45;&gt;Node4</title>
<path fill="none" stroke="#8b1a1a" d="M68.8257,-325.983C82.2824,-343.325 104.146,-368.68 128,-385 194.004,-430.157 215.027,-452 295,-452 295,-452 295,-452 1043,-452 1128.56,-452 1223.43,-423.039 1284.96,-400.187"/>
<polygon fill="#8b1a1a" stroke="#8b1a1a" points="71.4121,-323.601 62.589,-317.735 65.8285,-327.823 71.4121,-323.601"/>
</g>
<!-- Node5 -->
<g id="node9" class="node"><title>Node5</title>
<a xlink:href="classstxxl_1_1block__prefetcher.html" target="_top" xlink:title="Encapsulates asynchronous prefetching engine. ">
<polygon fill="none" stroke="black" points="716.5,-211.5 716.5,-258.5 843.5,-258.5 843.5,-211.5 716.5,-211.5"/>
<text text-anchor="start" x="724.5" y="-245.5" font-family="Helvetica,sans-Serif" font-size="10.00">stxxl::block_prefetcher</text>
<text text-anchor="start" x="724.5" y="-232.5" font-family="Helvetica,sans-Serif" font-size="10.00">&lt; block_type, bid_iterator</text>
<text text-anchor="middle" x="780" y="-219.5" font-family="Helvetica,sans-Serif" font-size="10.00">_type &gt;</text>
</a>
</g>
<!-- Node2&#45;&gt;Node5 -->
<g id="edge12" class="edge"><title>Node2&#45;&gt;Node5</title>
<path fill="none" stroke="#8b1a1a" d="M76.0789,-289.958C89.9703,-279.717 109.039,-267.456 128,-261 172.795,-245.748 186.807,-254.47 234,-251 410.658,-238.012 454.927,-234.668 632,-230 661.323,-229.227 668.68,-229.107 698,-230 703.987,-230.182 710.217,-230.439 716.449,-230.742"/>
<polygon fill="#8b1a1a" stroke="#8b1a1a" points="73.5764,-287.465 67.751,-296.314 77.8236,-293.029 73.5764,-287.465"/>
</g>
<!-- Node8 -->
<g id="node16" class="node"><title>Node8</title>
<a xlink:href="classstxxl_1_1onoff__switch.html" target="_top" xlink:title="stxxl::onoff_switch">
<polygon fill="none" stroke="black" points="500.5,-250.5 500.5,-271.5 599.5,-271.5 599.5,-250.5 500.5,-250.5"/>
<text text-anchor="middle" x="550" y="-258.5" font-family="Helvetica,sans-Serif" font-size="10.00">stxxl::onoff_switch</text>
</a>
</g>
<!-- Node2&#45;&gt;Node8 -->
<g id="edge20" class="edge"><title>Node2&#45;&gt;Node8</title>
<path fill="none" stroke="#8b1a1a" d="M102.274,-293.717C110.819,-291.41 119.662,-289.085 128,-287 174.861,-275.282 186.013,-268.518 234,-263 327.609,-252.235 437.847,-255.014 500.267,-258.01"/>
<polygon fill="#8b1a1a" stroke="#8b1a1a" points="101.156,-290.394 92.4278,-296.4 102.996,-297.147 101.156,-290.394"/>
</g>
<!-- Node9 -->
<g id="node19" class="node"><title>Node9</title>
<a xlink:href="classstxxl_1_1mutex.html" target="_top" xlink:title="stxxl::mutex">
<polygon fill="none" stroke="black" points="259.5,-312.5 259.5,-333.5 330.5,-333.5 330.5,-312.5 259.5,-312.5"/>
<text text-anchor="middle" x="295" y="-320.5" font-family="Helvetica,sans-Serif" font-size="10.00">stxxl::mutex</text>
</a>
</g>
<!-- Node2&#45;&gt;Node9 -->
<g id="edge24" class="edge"><title>Node2&#45;&gt;Node9</title>
<path fill="none" stroke="#8b1a1a" d="M114.172,-310.945C159.627,-313.975 220.914,-318.061 259.183,-320.612"/>
<polygon fill="#8b1a1a" stroke="#8b1a1a" points="114.357,-307.449 104.147,-310.276 113.892,-314.434 114.357,-307.449"/>
</g>
<!-- Node10 -->
<g id="node22" class="node"><title>Node10</title>
<a xlink:href="classstxxl_1_1condition__variable.html" target="_top" xlink:title="stxxl::condition_variable">
<polygon fill="none" stroke="black" points="234,-272.5 234,-293.5 356,-293.5 356,-272.5 234,-272.5"/>
<text text-anchor="middle" x="295" y="-280.5" font-family="Helvetica,sans-Serif" font-size="10.00">stxxl::condition_variable</text>
</a>
</g>
<!-- Node2&#45;&gt;Node10 -->
<g id="edge28" class="edge"><title>Node2&#45;&gt;Node10</title>
<path fill="none" stroke="#8b1a1a" d="M114.138,-301.086C150.576,-297.442 197.198,-292.78 233.98,-289.102"/>
<polygon fill="#8b1a1a" stroke="#8b1a1a" points="113.749,-297.608 104.147,-302.085 114.445,-304.573 113.749,-297.608"/>
</g>
<!-- Node15 -->
<g id="node34" class="node"><title>Node15</title>
<a xlink:href="classstxxl_1_1loser__tree.html" target="_top" xlink:title="stxxl::loser_tree\&lt;\l run_cursor_type, run\l_cursor_cmp_type \&gt;">
<polygon fill="none" stroke="black" points="725.5,-338.5 725.5,-385.5 834.5,-385.5 834.5,-338.5 725.5,-338.5"/>
<text text-anchor="start" x="733.5" y="-372.5" font-family="Helvetica,sans-Serif" font-size="10.00">stxxl::loser_tree&lt;</text>
<text text-anchor="start" x="733.5" y="-359.5" font-family="Helvetica,sans-Serif" font-size="10.00"> run_cursor_type, run</text>
<text text-anchor="middle" x="780" y="-346.5" font-family="Helvetica,sans-Serif" font-size="10.00">_cursor_cmp_type &gt;</text>
</a>
</g>
<!-- Node2&#45;&gt;Node15 -->
<g id="edge42" class="edge"><title>Node2&#45;&gt;Node15</title>
<path fill="none" stroke="#8b1a1a" d="M78.891,-323.215C111.999,-344.608 174.497,-381.164 234,-395 409.976,-435.918 625.946,-397.793 725.275,-375.51"/>
<polygon fill="#8b1a1a" stroke="#8b1a1a" points="80.6396,-320.177 70.359,-317.615 76.7985,-326.029 80.6396,-320.177"/>
</g>
<!-- Node16 -->
<g id="node38" class="node"><title>Node16</title>
<a xlink:href="classstxxl_1_1stream_1_1basic__runs__merger.html" target="_top" xlink:title="Merges sorted runs. ">
<polygon fill="none" stroke="black" points="968.5,-232.5 968.5,-279.5 1117.5,-279.5 1117.5,-232.5 968.5,-232.5"/>
<text text-anchor="start" x="976.5" y="-266.5" font-family="Helvetica,sans-Serif" font-size="10.00">stxxl::stream::basic</text>
<text text-anchor="start" x="976.5" y="-253.5" font-family="Helvetica,sans-Serif" font-size="10.00">_runs_merger&lt; RunsType</text>
<text text-anchor="middle" x="1043" y="-240.5" font-family="Helvetica,sans-Serif" font-size="10.00">_, CompareType_, AllocStr_ &gt;</text>
</a>
</g>
<!-- Node2&#45;&gt;Node16 -->
<g id="edge48" class="edge"><title>Node2&#45;&gt;Node16</title>
<path fill="none" stroke="#8b1a1a" d="M63.7235,-287.252C89.9094,-231.345 173.593,-76 295,-76 295,-76 295,-76 780,-76 889.553,-76 986.969,-183.677 1025.49,-232.468"/>
<polygon fill="#8b1a1a" stroke="#8b1a1a" points="60.4822,-285.924 59.507,-296.474 66.8483,-288.835 60.4822,-285.924"/>
</g>
<!-- Node3 -->
<g id="node4" class="node"><title>Node3</title>
<a xlink:href="classstxxl_1_1stream_1_1runs__merger.html" target="_top" xlink:title="stxxl::stream::runs\l_merger\&lt; sorted_runs\l_type, CompareType_,\l AllocStr_ \&gt;">
<polygon fill="none" stroke="black" points="1584,-343 1584,-403 1700,-403 1700,-343 1584,-343"/>
<text text-anchor="start" x="1592" y="-390" font-family="Helvetica,sans-Serif" font-size="10.00">stxxl::stream::runs</text>
<text text-anchor="start" x="1592" y="-377" font-family="Helvetica,sans-Serif" font-size="10.00">_merger&lt; sorted_runs</text>
<text text-anchor="start" x="1592" y="-364" font-family="Helvetica,sans-Serif" font-size="10.00">_type, CompareType_,</text>
<text text-anchor="middle" x="1642" y="-351" font-family="Helvetica,sans-Serif" font-size="10.00"> AllocStr_ &gt;</text>
</a>
</g>
<!-- Node3&#45;&gt;Node1 -->
<g id="edge4" class="edge"><title>Node3&#45;&gt;Node1</title>
<path fill="none" stroke="#9a32cd" stroke-dasharray="5,2" d="M1709.42,-402.049C1729.14,-410.546 1750.56,-419.775 1769.81,-428.065"/>
<polygon fill="#9a32cd" stroke="#9a32cd" points="1710.77,-398.817 1700.2,-398.074 1708,-405.245 1710.77,-398.817"/>
<text text-anchor="middle" x="1735" y="-422" font-family="Helvetica,sans-Serif" font-size="10.00"> merger</text>
</g>
<!-- Node4&#45;&gt;Node3 -->
<g id="edge6" class="edge"><title>Node4&#45;&gt;Node3</title>
<path fill="none" stroke="midnightblue" d="M1427.25,-373C1476.15,-373 1538.67,-373 1583.62,-373"/>
<polygon fill="midnightblue" stroke="midnightblue" points="1427.03,-369.5 1417.03,-373 1427.03,-376.5 1427.03,-369.5"/>
</g>
<!-- Node5&#45;&gt;Node4 -->
<g id="edge10" class="edge"><title>Node5&#45;&gt;Node4</title>
<path fill="none" stroke="#9a32cd" stroke-dasharray="5,2" d="M820.868,-265.001C828.864,-271.568 836.948,-278.738 844,-286 853.289,-295.565 850.481,-303.286 862,-310 880.049,-320.52 1155.02,-351.64 1284.51,-365.818"/>
<polygon fill="#9a32cd" stroke="#9a32cd" points="822.937,-262.173 812.944,-258.653 818.561,-267.637 822.937,-262.173"/>
<text text-anchor="middle" x="1043" y="-350" font-family="Helvetica,sans-Serif" font-size="10.00"> m_prefetcher</text>
</g>
<!-- Node5&#45;&gt;Node16 -->
<g id="edge50" class="edge"><title>Node5&#45;&gt;Node16</title>
<path fill="none" stroke="#9a32cd" stroke-dasharray="5,2" d="M853.913,-232.134C883.825,-231.833 918.637,-232.572 950,-236 955.992,-236.655 962.166,-237.53 968.349,-238.548"/>
<polygon fill="#9a32cd" stroke="#9a32cd" points="853.499,-228.64 843.55,-232.282 853.599,-235.639 853.499,-228.64"/>
<text text-anchor="middle" x="906" y="-240" font-family="Helvetica,sans-Serif" font-size="10.00"> m_prefetcher</text>
</g>
<!-- Node6 -->
<g id="node12" class="node"><title>Node6</title>
<a xlink:href="structstxxl_1_1choose__int__types.html" target="_top" xlink:title="stxxl::choose_int_types\l\&lt; my_pointer_size \&gt;">
<polygon fill="none" stroke="black" points="490,-345 490,-379 610,-379 610,-345 490,-345"/>
<text text-anchor="start" x="498" y="-366" font-family="Helvetica,sans-Serif" font-size="10.00">stxxl::choose_int_types</text>
<text text-anchor="middle" x="550" y="-353" font-family="Helvetica,sans-Serif" font-size="10.00">&lt; my_pointer_size &gt;</text>
</a>
</g>
<!-- Node6&#45;&gt;Node4 -->
<g id="edge38" class="edge"><title>Node6&#45;&gt;Node4</title>
<path fill="none" stroke="#9a32cd" stroke-dasharray="5,2" d="M620.05,-379.094C649.485,-385.448 684.211,-391.871 716,-395 817.306,-404.972 1042.52,-400.413 1262,-384 1269.45,-383.443 1277.24,-382.708 1284.97,-381.881"/>
<polygon fill="#9a32cd" stroke="#9a32cd" points="620.801,-375.676 610.283,-376.946 619.298,-382.512 620.801,-375.676"/>
<text text-anchor="middle" x="906" y="-404" font-family="Helvetica,sans-Serif" font-size="10.00"> m_memory_to_use</text>
</g>
<!-- Node6&#45;&gt;Node5 -->
<g id="edge14" class="edge"><title>Node6&#45;&gt;Node5</title>
<path fill="none" stroke="#9a32cd" stroke-dasharray="5,2" d="M567.991,-336.72C583.016,-317.395 606.101,-291.515 632,-276 646.524,-267.299 683.061,-257.141 716.197,-249.112"/>
<polygon fill="#9a32cd" stroke="#9a32cd" points="565.11,-334.727 561.867,-344.814 570.692,-338.951 565.11,-334.727"/>
<text text-anchor="middle" x="665" y="-306" font-family="Helvetica,sans-Serif" font-size="10.00"> seq_length</text>
<text text-anchor="middle" x="665" y="-293" font-family="Helvetica,sans-Serif" font-size="10.00">nextconsume</text>
<text text-anchor="middle" x="665" y="-280" font-family="Helvetica,sans-Serif" font-size="10.00">nextread</text>
</g>
<!-- Node6&#45;&gt;Node15 -->
<g id="edge44" class="edge"><title>Node6&#45;&gt;Node15</title>
<path fill="none" stroke="#9a32cd" stroke-dasharray="5,2" d="M620.388,-362C654.124,-362 693.92,-362 725.336,-362"/>
<polygon fill="#9a32cd" stroke="#9a32cd" points="620.129,-358.5 610.129,-362 620.129,-365.5 620.129,-358.5"/>
<text text-anchor="middle" x="665" y="-366" font-family="Helvetica,sans-Serif" font-size="10.00"> k</text>
</g>
<!-- Node6&#45;&gt;Node16 -->
<g id="edge52" class="edge"><title>Node6&#45;&gt;Node16</title>
<path fill="none" stroke="#9a32cd" stroke-dasharray="5,2" d="M616.531,-342.107C646.732,-333.454 683.006,-323.583 716,-316 801.925,-296.253 901.731,-278.709 968.262,-267.771"/>
<polygon fill="#9a32cd" stroke="#9a32cd" points="615.174,-338.856 606.535,-344.99 617.113,-345.582 615.174,-338.856"/>
<text text-anchor="middle" x="780" y="-320" font-family="Helvetica,sans-Serif" font-size="10.00"> m_memory_to_use</text>
</g>
<!-- Node7 -->
<g id="node14" class="node"><title>Node7</title>
<a xlink:href="structstxxl_1_1choose__int__types.html" target="_top" xlink:title="stxxl::choose_int_types\l\&lt; PtrSize \&gt;">
<polygon fill="none" stroke="black" points="235,-352 235,-386 355,-386 355,-352 235,-352"/>
<text text-anchor="start" x="243" y="-373" font-family="Helvetica,sans-Serif" font-size="10.00">stxxl::choose_int_types</text>
<text text-anchor="middle" x="295" y="-360" font-family="Helvetica,sans-Serif" font-size="10.00">&lt; PtrSize &gt;</text>
</a>
</g>
<!-- Node7&#45;&gt;Node6 -->
<g id="edge16" class="edge"><title>Node7&#45;&gt;Node6</title>
<path fill="none" stroke="orange" stroke-dasharray="5,2" d="M365.354,-367.069C404.432,-365.996 452.541,-364.675 489.854,-363.651"/>
<polygon fill="orange" stroke="orange" points="365.009,-363.577 355.109,-367.35 365.201,-370.574 365.009,-363.577"/>
<text text-anchor="middle" x="421" y="-370" font-family="Helvetica,sans-Serif" font-size="10.00"> &lt; my_pointer_size &gt;</text>
</g>
<!-- Node8&#45;&gt;Node5 -->
<g id="edge18" class="edge"><title>Node8&#45;&gt;Node5</title>
<path fill="none" stroke="#9a32cd" stroke-dasharray="5,2" d="M594.265,-247.795C606.392,-244.691 619.612,-241.774 632,-240 659.485,-236.064 690.121,-234.559 716.357,-234.134"/>
<polygon fill="#9a32cd" stroke="#9a32cd" points="593.141,-244.472 584.377,-250.425 594.941,-251.237 593.141,-244.472"/>
<text text-anchor="middle" x="665" y="-244" font-family="Helvetica,sans-Serif" font-size="10.00"> completed</text>
</g>
<!-- Node9&#45;&gt;Node8 -->
<g id="edge22" class="edge"><title>Node9&#45;&gt;Node8</title>
<path fill="none" stroke="#9a32cd" stroke-dasharray="5,2" d="M340.523,-317.181C375.711,-312.123 425.435,-303.751 468,-292 487.805,-286.532 509.526,-278.21 525.634,-271.565"/>
<polygon fill="#9a32cd" stroke="#9a32cd" points="339.964,-313.725 330.548,-318.582 340.938,-320.657 339.964,-313.725"/>
<text text-anchor="middle" x="421" y="-315" font-family="Helvetica,sans-Serif" font-size="10.00"> m_mutex</text>
</g>
<!-- Node10&#45;&gt;Node8 -->
<g id="edge26" class="edge"><title>Node10&#45;&gt;Node8</title>
<path fill="none" stroke="#9a32cd" stroke-dasharray="5,2" d="M366.118,-276.864C408.756,-273.186 461.93,-268.598 500.113,-265.304"/>
<polygon fill="#9a32cd" stroke="#9a32cd" points="365.741,-273.384 356.079,-277.73 366.343,-280.358 365.741,-273.384"/>
<text text-anchor="middle" x="421" y="-279" font-family="Helvetica,sans-Serif" font-size="10.00"> m_cond</text>
</g>
<!-- Node11 -->
<g id="node25" class="node"><title>Node11</title>
<a xlink:href="classstxxl_1_1counting__ptr.html" target="_top" xlink:title="High&#45;performance smart pointer used as a wrapping reference counting pointer. ">
<polygon fill="none" stroke="black" points="501.5,-144 501.5,-178 598.5,-178 598.5,-144 501.5,-144"/>
<text text-anchor="start" x="509.5" y="-165" font-family="Helvetica,sans-Serif" font-size="10.00">stxxl::counting_ptr</text>
<text text-anchor="middle" x="550" y="-152" font-family="Helvetica,sans-Serif" font-size="10.00">&lt; Type &gt;</text>
</a>
</g>
<!-- Node11&#45;&gt;Node5 -->
<g id="edge30" class="edge"><title>Node11&#45;&gt;Node5</title>
<path fill="none" stroke="#9a32cd" stroke-dasharray="5,2" d="M609.05,-161.761C636.787,-163.719 669.862,-168.405 698,-179 717.844,-186.472 737.549,-199.691 752.667,-211.41"/>
<polygon fill="#9a32cd" stroke="#9a32cd" points="608.894,-158.246 598.702,-161.138 608.473,-165.233 608.894,-158.246"/>
<text text-anchor="middle" x="665" y="-183" font-family="Helvetica,sans-Serif" font-size="10.00"> read_reqs</text>
</g>
<!-- Node12 -->
<g id="node27" class="node"><title>Node12</title>
<a xlink:href="classstxxl_1_1completion__handler.html" target="_top" xlink:title="Completion handler class (Loki&#45;style). ">
<polygon fill="none" stroke="black" points="486,-104.5 486,-125.5 614,-125.5 614,-104.5 486,-104.5"/>
<text text-anchor="middle" x="550" y="-112.5" font-family="Helvetica,sans-Serif" font-size="10.00">stxxl::completion_handler</text>
</a>
</g>
<!-- Node12&#45;&gt;Node5 -->
<g id="edge32" class="edge"><title>Node12&#45;&gt;Node5</title>
<path fill="none" stroke="#9a32cd" stroke-dasharray="5,2" d="M624.278,-122.038C648.906,-126.667 675.703,-134.328 698,-147 725.778,-162.787 749.642,-191.136 764.349,-211.393"/>
<polygon fill="#9a32cd" stroke="#9a32cd" points="624.691,-118.557 614.239,-120.292 623.492,-125.454 624.691,-118.557"/>
<text text-anchor="middle" x="665" y="-151" font-family="Helvetica,sans-Serif" font-size="10.00"> do_after_fetch</text>
</g>
<!-- Node13 -->
<g id="node29" class="node"><title>Node13</title>
<a xlink:href="structstxxl_1_1compat__unique__ptr.html" target="_top" xlink:title="stxxl::compat_unique\l_ptr\&lt; stxxl::completion\l_handler_impl \&gt;">
<polygon fill="none" stroke="black" points="237,-0.5 237,-47.5 353,-47.5 353,-0.5 237,-0.5"/>
<text text-anchor="start" x="245" y="-34.5" font-family="Helvetica,sans-Serif" font-size="10.00">stxxl::compat_unique</text>
<text text-anchor="start" x="245" y="-21.5" font-family="Helvetica,sans-Serif" font-size="10.00">_ptr&lt; stxxl::completion</text>
<text text-anchor="middle" x="295" y="-8.5" font-family="Helvetica,sans-Serif" font-size="10.00">_handler_impl &gt;</text>
</a>
</g>
<!-- Node13&#45;&gt;Node12 -->
<g id="edge34" class="edge"><title>Node13&#45;&gt;Node12</title>
<path fill="none" stroke="#9a32cd" stroke-dasharray="5,2" d="M362.893,-48.2286C414.256,-66.558 482.272,-90.8303 520.55,-104.491"/>
<polygon fill="#9a32cd" stroke="#9a32cd" points="363.777,-44.8279 353.183,-44.7632 361.424,-51.4207 363.777,-44.8279"/>
<text text-anchor="middle" x="421" y="-89" font-family="Helvetica,sans-Serif" font-size="10.00"> sp_impl_</text>
</g>
<!-- Node14 -->
<g id="node31" class="node"><title>Node14</title>
<a xlink:href="structstxxl_1_1compat__unique__ptr.html" target="_top" xlink:title="stxxl::compat_unique\l_ptr\&lt; Type \&gt;">
<polygon fill="none" stroke="black" points="0,-7 0,-41 110,-41 110,-7 0,-7"/>
<text text-anchor="start" x="8" y="-28" font-family="Helvetica,sans-Serif" font-size="10.00">stxxl::compat_unique</text>
<text text-anchor="middle" x="55" y="-15" font-family="Helvetica,sans-Serif" font-size="10.00">_ptr&lt; Type &gt;</text>
</a>
</g>
<!-- Node14&#45;&gt;Node13 -->
<g id="edge36" class="edge"><title>Node14&#45;&gt;Node13</title>
<path fill="none" stroke="orange" stroke-dasharray="5,2" d="M120.096,-24C156.538,-24 201.593,-24 236.848,-24"/>
<polygon fill="orange" stroke="orange" points="120.061,-20.5001 110.061,-24 120.061,-27.5001 120.061,-20.5001"/>
<text text-anchor="start" x="128.5" y="-41" font-family="Helvetica,sans-Serif" font-size="10.00"> &lt; stxxl::completion</text>
<text text-anchor="middle" x="172" y="-28" font-family="Helvetica,sans-Serif" font-size="10.00">_handler_impl &gt;</text>
</g>
<!-- Node15&#45;&gt;Node4 -->
<g id="edge40" class="edge"><title>Node15&#45;&gt;Node4</title>
<path fill="none" stroke="#9a32cd" stroke-dasharray="5,2" d="M844.988,-363.252C954.424,-365.36 1174.31,-369.596 1284.66,-371.722"/>
<polygon fill="#9a32cd" stroke="#9a32cd" points="844.815,-359.748 834.75,-363.055 844.681,-366.747 844.815,-359.748"/>
<text text-anchor="middle" x="1043" y="-372" font-family="Helvetica,sans-Serif" font-size="10.00"> m_losers</text>
</g>
<!-- Node15&#45;&gt;Node16 -->
<g id="edge54" class="edge"><title>Node15&#45;&gt;Node16</title>
<path fill="none" stroke="#9a32cd" stroke-dasharray="5,2" d="M844.301,-336.084C887.154,-318.812 943.027,-296.293 984.607,-279.535"/>
<polygon fill="#9a32cd" stroke="#9a32cd" points="842.78,-332.923 834.813,-339.908 845.397,-339.416 842.78,-332.923"/>
<text text-anchor="middle" x="906" y="-331" font-family="Helvetica,sans-Serif" font-size="10.00"> m_losers</text>
</g>
<!-- Node16&#45;&gt;Node4 -->
<g id="edge46" class="edge"><title>Node16&#45;&gt;Node4</title>
<path fill="none" stroke="orange" stroke-dasharray="5,2" d="M1127.68,-263.574C1184.23,-269.188 1250.31,-277.041 1262,-284 1273.76,-291.004 1270.86,-298.803 1280,-309 1290.52,-320.741 1303.01,-332.582 1314.56,-342.831"/>
<polygon fill="orange" stroke="orange" points="1127.91,-260.08 1117.61,-262.588 1127.22,-267.046 1127.91,-260.08"/>
<text text-anchor="start" x="1136.5" y="-301" font-family="Helvetica,sans-Serif" font-size="10.00"> &lt; sorted_runs_type,</text>
<text text-anchor="middle" x="1199" y="-288" font-family="Helvetica,sans-Serif" font-size="10.00"> CompareType_, AllocStr_ &gt;</text>
</g>
<!-- Node17 -->
<g id="node44" class="node"><title>Node17</title>
<a xlink:href="classstxxl_1_1stream_1_1runs__merger.html" target="_top" xlink:title="Merges sorted runs. ">
<polygon fill="none" stroke="black" points="1280.5,-252.5 1280.5,-299.5 1421.5,-299.5 1421.5,-252.5 1280.5,-252.5"/>
<text text-anchor="start" x="1288.5" y="-286.5" font-family="Helvetica,sans-Serif" font-size="10.00">stxxl::stream::runs</text>
<text text-anchor="start" x="1288.5" y="-273.5" font-family="Helvetica,sans-Serif" font-size="10.00">_merger&lt; RunsType_,</text>
<text text-anchor="middle" x="1351" y="-260.5" font-family="Helvetica,sans-Serif" font-size="10.00"> CompareType_, AllocStr_ &gt;</text>
</a>
</g>
<!-- Node16&#45;&gt;Node17 -->
<g id="edge58" class="edge"><title>Node16&#45;&gt;Node17</title>
<path fill="none" stroke="midnightblue" d="M1127.75,-257.172C1168.42,-258.225 1217.79,-260.221 1262,-264 1267.9,-264.505 1274.01,-265.124 1280.14,-265.812"/>
<polygon fill="midnightblue" stroke="midnightblue" points="1127.69,-253.669 1117.61,-256.924 1127.52,-260.667 1127.69,-253.669"/>
</g>
<!-- Node17&#45;&gt;Node3 -->
<g id="edge56" class="edge"><title>Node17&#45;&gt;Node3</title>
<path fill="none" stroke="orange" stroke-dasharray="5,2" d="M1431.22,-299.46C1471.84,-311.729 1521.8,-327.412 1566,-343 1571.75,-345.029 1577.72,-347.222 1583.66,-349.468"/>
<polygon fill="orange" stroke="orange" points="1432.22,-296.107 1421.63,-296.577 1430.2,-302.81 1432.22,-296.107"/>
<text text-anchor="start" x="1440.5" y="-360" font-family="Helvetica,sans-Serif" font-size="10.00"> &lt; sorted_runs_type,</text>
<text text-anchor="middle" x="1503" y="-347" font-family="Helvetica,sans-Serif" font-size="10.00"> CompareType_, AllocStr_ &gt;</text>
</g>
</g>
</svg>
