<?xml version="1.0" encoding="UTF-8" standalone="no"?>
<!DOCTYPE svg PUBLIC "-//W3C//DTD SVG 1.1//EN"
 "http://www.w3.org/Graphics/SVG/1.1/DTD/svg11.dtd">
<!-- Generated by graphviz version 2.26.3 (20100126.1600)
 -->
<!-- Title: stxxl::vector_bufwriter&lt; VectorIteratorType &gt; Pages: 1 -->
<svg width="828pt" height="103pt"
 viewBox="0.00 0.00 828.00 103.00" xmlns="http://www.w3.org/2000/svg" xmlns:xlink="http://www.w3.org/1999/xlink">
<g id="graph1" class="graph" transform="scale(1 1) rotate(0) translate(4 99)">
<title>stxxl::vector_bufwriter&lt; VectorIteratorType &gt;</title>
<!-- Node1 -->
<g id="node1" class="node"><title>Node1</title>
<polygon fill="#bfbfbf" stroke="black" points="704,-33 704,-67 820,-67 820,-33 704,-33"/>
<text text-anchor="start" x="712" y="-54" font-family="Helvetica,sans-Serif" font-size="10.00">stxxl::vector_bufwriter</text>
<text text-anchor="middle" x="762" y="-41" font-family="Helvetica,sans-Serif" font-size="10.00">&lt; VectorIteratorType &gt;</text>
</g>
<!-- Node2 -->
<g id="node2" class="node"><title>Node2</title>
<a xlink:href="classstxxl_1_1noncopyable.html" target="_top" xlink:title="stxxl::noncopyable">
<polygon fill="none" stroke="black" points="261,-73.5 261,-94.5 359,-94.5 359,-73.5 261,-73.5"/>
<text text-anchor="middle" x="310" y="-81.5" font-family="Helvetica,sans-Serif" font-size="10.00">stxxl::noncopyable</text>
</a>
</g>
<!-- Node2&#45;&gt;Node1 -->
<g id="edge2" class="edge"><title>Node2&#45;&gt;Node1</title>
<path fill="none" stroke="midnightblue" d="M369.29,-86.2873C443.861,-88.0311 575.521,-87.3445 686,-67 691.718,-65.9471 697.659,-64.7683 703.587,-63.5355"/>
<polygon fill="midnightblue" stroke="midnightblue" points="369.242,-82.785 359.155,-86.0269 369.062,-89.7827 369.242,-82.785"/>
</g>
<!-- Node5 -->
<g id="node8" class="node"><title>Node5</title>
<a xlink:href="classstxxl_1_1buf__ostream.html" target="_top" xlink:title="Buffered output stream. ">
<polygon fill="none" stroke="black" points="466.5,-33 466.5,-67 623.5,-67 623.5,-33 466.5,-33"/>
<text text-anchor="start" x="474.5" y="-54" font-family="Helvetica,sans-Serif" font-size="10.00">stxxl::buf_ostream</text>
<text text-anchor="middle" x="545" y="-41" font-family="Helvetica,sans-Serif" font-size="10.00">&lt; BlockType, BIDIteratorType &gt;</text>
</a>
</g>
<!-- Node2&#45;&gt;Node5 -->
<g id="edge10" class="edge"><title>Node2&#45;&gt;Node5</title>
<path fill="none" stroke="#8b1a1a" d="M369.363,-75.4113C398.73,-71.1625 434.574,-65.9766 466.205,-61.4002"/>
<polygon fill="#8b1a1a" stroke="#8b1a1a" points="368.659,-71.9766 359.264,-76.8725 369.662,-78.9044 368.659,-71.9766"/>
</g>
<!-- Node3 -->
<g id="node4" class="node"><title>Node3</title>
<a xlink:href="structstxxl_1_1choose__int__types.html" target="_top" xlink:title="stxxl::choose_int_types\l\&lt; my_pointer_size \&gt;">
<polygon fill="none" stroke="black" points="250,-0 250,-34 370,-34 370,-0 250,-0"/>
<text text-anchor="start" x="258" y="-21" font-family="Helvetica,sans-Serif" font-size="10.00">stxxl::choose_int_types</text>
<text text-anchor="middle" x="310" y="-8" font-family="Helvetica,sans-Serif" font-size="10.00">&lt; my_pointer_size &gt;</text>
</a>
</g>
<!-- Node3&#45;&gt;Node1 -->
<g id="edge4" class="edge"><title>Node3&#45;&gt;Node1</title>
<path fill="none" stroke="#9a32cd" stroke-dasharray="5,2" d="M380.197,-9.4129C444.079,-3.98648 540.822,0.527602 624,-11 654.58,-15.238 687.913,-24.5206 714.157,-32.9665"/>
<polygon fill="#9a32cd" stroke="#9a32cd" points="379.889,-5.92644 370.234,-10.2893 380.502,-12.8995 379.889,-5.92644"/>
<text text-anchor="middle" x="545" y="-15" font-family="Helvetica,sans-Serif" font-size="10.00"> m_nbuffers</text>
</g>
<!-- Node3&#45;&gt;Node5 -->
<g id="edge12" class="edge"><title>Node3&#45;&gt;Node5</title>
<path fill="none" stroke="#9a32cd" stroke-dasharray="5,2" d="M380.376,-26.8825C407.442,-30.6833 438.506,-35.0456 466.306,-38.9494"/>
<polygon fill="#9a32cd" stroke="#9a32cd" points="380.603,-23.3802 370.213,-25.4555 379.629,-30.3122 380.603,-23.3802"/>
<text text-anchor="middle" x="418" y="-39" font-family="Helvetica,sans-Serif" font-size="10.00"> current_elem</text>
</g>
<!-- Node4 -->
<g id="node6" class="node"><title>Node4</title>
<a xlink:href="structstxxl_1_1choose__int__types.html" target="_top" xlink:title="stxxl::choose_int_types\l\&lt; PtrSize \&gt;">
<polygon fill="none" stroke="black" points="0,-0 0,-34 120,-34 120,-0 0,-0"/>
<text text-anchor="start" x="8" y="-21" font-family="Helvetica,sans-Serif" font-size="10.00">stxxl::choose_int_types</text>
<text text-anchor="middle" x="60" y="-8" font-family="Helvetica,sans-Serif" font-size="10.00">&lt; PtrSize &gt;</text>
</a>
</g>
<!-- Node4&#45;&gt;Node3 -->
<g id="edge6" class="edge"><title>Node4&#45;&gt;Node3</title>
<path fill="none" stroke="orange" stroke-dasharray="5,2" d="M130.578,-17C168.196,-17 213.985,-17 249.89,-17"/>
<polygon fill="orange" stroke="orange" points="130.199,-13.5001 120.199,-17 130.199,-20.5001 130.199,-13.5001"/>
<text text-anchor="middle" x="185" y="-21" font-family="Helvetica,sans-Serif" font-size="10.00"> &lt; my_pointer_size &gt;</text>
</g>
<!-- Node5&#45;&gt;Node1 -->
<g id="edge8" class="edge"><title>Node5&#45;&gt;Node1</title>
<path fill="none" stroke="#9a32cd" stroke-dasharray="5,2" d="M633.671,-50C657.273,-50 682.171,-50 703.691,-50"/>
<polygon fill="#9a32cd" stroke="#9a32cd" points="633.649,-46.5001 623.649,-50 633.649,-53.5001 633.649,-46.5001"/>
<text text-anchor="middle" x="664" y="-54" font-family="Helvetica,sans-Serif" font-size="10.00"> m_bufout</text>
</g>
</g>
</svg>
