<?xml version="1.0" encoding="UTF-8" standalone="no"?>
<!DOCTYPE svg PUBLIC "-//W3C//DTD SVG 1.1//EN"
 "http://www.w3.org/Graphics/SVG/1.1/DTD/svg11.dtd">
<!-- Generated by graphviz version 2.38.0 (20140413.2041)
 -->
<!-- Title: stxxl::winner_tree&lt; Comparator &gt; Pages: 1 -->
<svg width="596pt" height="106pt"
 viewBox="0.00 0.00 596.00 105.50" xmlns="http://www.w3.org/2000/svg" xmlns:xlink="http://www.w3.org/1999/xlink">
<g id="graph0" class="graph" transform="scale(1 1) rotate(0) translate(4 101.5)">
<title>stxxl::winner_tree&lt; Comparator &gt;</title>
<!-- Node1 -->
<g id="node1" class="node"><title>Node1</title>
<polygon fill="#bfbfbf" stroke="black" points="494,-26.5 494,-56.5 588,-56.5 588,-26.5 494,-26.5"/>
<text text-anchor="start" x="502" y="-44.5" font-family="Helvetica,sans-Serif" font-size="10.00">stxxl::winner_tree</text>
<text text-anchor="middle" x="541" y="-33.5" font-family="Helvetica,sans-Serif" font-size="10.00">&lt; Comparator &gt;</text>
</g>
<!-- Node2 -->
<g id="node2" class="node"><title>Node2</title>
<g id="a_node2"><a xlink:href="structstxxl_1_1winner__tree_1_1stats__type.html" target="_top" xlink:title="Collection of stats from the winner_tree. ">
<polygon fill="none" stroke="black" points="259,-49.5 259,-79.5 396,-79.5 396,-49.5 259,-49.5"/>
<text text-anchor="start" x="267" y="-67.5" font-family="Helvetica,sans-Serif" font-size="10.00">stxxl::winner_tree</text>
<text text-anchor="middle" x="327.5" y="-56.5" font-family="Helvetica,sans-Serif" font-size="10.00">&lt; Comparator &gt;::stats_type</text>
</a>
</g>
</g>
<!-- Node2&#45;&gt;Node1 -->
<g id="edge1" class="edge"><title>Node2&#45;&gt;Node1</title>
<path fill="none" stroke="#9a32cd" stroke-dasharray="5,2" d="M406.263,-56.0436C435.686,-52.8438 468.224,-49.3054 493.839,-46.5199"/>
<polygon fill="#9a32cd" stroke="#9a32cd" points="405.564,-52.5987 396.001,-57.1594 406.321,-59.5577 405.564,-52.5987"/>
<text text-anchor="middle" x="445" y="-57.5" font-family="Helvetica,sans-Serif" font-size="10.00"> m_stats</text>
</g>
<!-- Node3 -->
<g id="node3" class="node"><title>Node3</title>
<g id="a_node3"><a xlink:href="classstxxl_1_1fake__timer.html" target="_top" xlink:title="Class fake_timer is a drop&#45;in replacement for timer, which does nothing. ">
<polygon fill="none" stroke="black" points="15.5,-55 15.5,-74 104.5,-74 104.5,-55 15.5,-55"/>
<text text-anchor="middle" x="60" y="-62" font-family="Helvetica,sans-Serif" font-size="10.00">stxxl::fake_timer</text>
</a>
</g>
</g>
<!-- Node3&#45;&gt;Node2 -->
<g id="edge2" class="edge"><title>Node3&#45;&gt;Node2</title>
<path fill="none" stroke="#9a32cd" stroke-dasharray="5,2" d="M114.739,-64.5C156.284,-64.5 214.059,-64.5 258.768,-64.5"/>
<polygon fill="#9a32cd" stroke="#9a32cd" points="114.545,-61.0001 104.545,-64.5 114.545,-68.0001 114.545,-61.0001"/>
<text text-anchor="middle" x="189.5" y="-89.5" font-family="Helvetica,sans-Serif" font-size="10.00"> remove_player_time</text>
<text text-anchor="middle" x="189.5" y="-78.5" font-family="Helvetica,sans-Serif" font-size="10.00">replay_time</text>
<text text-anchor="middle" x="189.5" y="-67.5" font-family="Helvetica,sans-Serif" font-size="10.00">double_num_slots_time</text>
</g>
<!-- Node4 -->
<g id="node4" class="node"><title>Node4</title>
<g id="a_node4"><a xlink:href="structstxxl_1_1choose__int__types.html" target="_top" xlink:title="stxxl::choose_int_types\l\&lt; my_pointer_size \&gt;">
<polygon fill="none" stroke="black" points="267.5,-0.5 267.5,-30.5 387.5,-30.5 387.5,-0.5 267.5,-0.5"/>
<text text-anchor="start" x="275.5" y="-18.5" font-family="Helvetica,sans-Serif" font-size="10.00">stxxl::choose_int_types</text>
<text text-anchor="middle" x="327.5" y="-7.5" font-family="Helvetica,sans-Serif" font-size="10.00">&lt; my_pointer_size &gt;</text>
</a>
</g>
</g>
<!-- Node4&#45;&gt;Node1 -->
<g id="edge3" class="edge"><title>Node4&#45;&gt;Node1</title>
<path fill="none" stroke="#9a32cd" stroke-dasharray="5,2" d="M397.722,-23.9052C422.427,-26.916 450.459,-30.3453 476,-33.5 481.779,-34.2138 487.851,-34.9677 493.858,-35.7159"/>
<polygon fill="#9a32cd" stroke="#9a32cd" points="398.066,-20.4212 387.716,-22.6863 397.219,-27.3699 398.066,-20.4212"/>
<text text-anchor="middle" x="445" y="-36.5" font-family="Helvetica,sans-Serif" font-size="10.00"> m_num_slots</text>
</g>
<!-- Node5 -->
<g id="node5" class="node"><title>Node5</title>
<g id="a_node5"><a xlink:href="structstxxl_1_1choose__int__types.html" target="_top" xlink:title="stxxl::choose_int_types\l\&lt; PtrSize \&gt;">
<polygon fill="none" stroke="black" points="0,-0.5 0,-30.5 120,-30.5 120,-0.5 0,-0.5"/>
<text text-anchor="start" x="8" y="-18.5" font-family="Helvetica,sans-Serif" font-size="10.00">stxxl::choose_int_types</text>
<text text-anchor="middle" x="60" y="-7.5" font-family="Helvetica,sans-Serif" font-size="10.00">&lt; PtrSize &gt;</text>
</a>
</g>
</g>
<!-- Node5&#45;&gt;Node4 -->
<g id="edge4" class="edge"><title>Node5&#45;&gt;Node4</title>
<path fill="none" stroke="orange" stroke-dasharray="5,2" d="M130.265,-15.5C172.86,-15.5 226.861,-15.5 267.428,-15.5"/>
<polygon fill="orange" stroke="orange" points="130.253,-12.0001 120.253,-15.5 130.253,-19.0001 130.253,-12.0001"/>
<text text-anchor="middle" x="189.5" y="-18.5" font-family="Helvetica,sans-Serif" font-size="10.00"> &lt; my_pointer_size &gt;</text>
</g>
</g>
</svg>
