<?xml version="1.0" encoding="UTF-8" standalone="no"?>
<!DOCTYPE svg PUBLIC "-//W3C//DTD SVG 1.1//EN"
 "http://www.w3.org/Graphics/SVG/1.1/DTD/svg11.dtd">
<!-- Generated by graphviz version 2.26.3 (20100126.1600)
 -->
<!-- Title: stxxl::stream::runs_creator&lt; from_sorted_sequences&lt; ValueType_ &gt;, CompareType_, BlockSize_, AllocStr_ &gt; Pages: 1 -->
<svg width="3572pt" height="481pt"
 viewBox="0.00 0.00 3572.00 481.00" xmlns="http://www.w3.org/2000/svg" xmlns:xlink="http://www.w3.org/1999/xlink">
<g id="graph1" class="graph" transform="scale(1 1) rotate(0) translate(4 477)">
<title>stxxl::stream::runs_creator&lt; from_sorted_sequences&lt; ValueType_ &gt;, CompareType_, BlockSize_, AllocStr_ &gt;</title>
<!-- Node1 -->
<g id="node1" class="node"><title>Node1</title>
<polygon fill="#bfbfbf" stroke="black" points="3410,-238.5 3410,-311.5 3564,-311.5 3564,-238.5 3410,-238.5"/>
<text text-anchor="start" x="3418" y="-298.5" font-family="Helvetica,sans-Serif" font-size="10.00">stxxl::stream::runs</text>
<text text-anchor="start" x="3418" y="-285.5" font-family="Helvetica,sans-Serif" font-size="10.00">_creator&lt; from_sorted</text>
<text text-anchor="start" x="3418" y="-272.5" font-family="Helvetica,sans-Serif" font-size="10.00">_sequences&lt; ValueType</text>
<text text-anchor="start" x="3418" y="-259.5" font-family="Helvetica,sans-Serif" font-size="10.00">_ &gt;, CompareType_, BlockSize</text>
<text text-anchor="middle" x="3487" y="-246.5" font-family="Helvetica,sans-Serif" font-size="10.00">_, AllocStr_ &gt;</text>
</g>
<!-- Node2 -->
<g id="node2" class="node"><title>Node2</title>
<a xlink:href="classstxxl_1_1noncopyable.html" target="_top" xlink:title="stxxl::noncopyable">
<polygon fill="none" stroke="black" points="11,-367.5 11,-388.5 109,-388.5 109,-367.5 11,-367.5"/>
<text text-anchor="middle" x="60" y="-375.5" font-family="Helvetica,sans-Serif" font-size="10.00">stxxl::noncopyable</text>
</a>
</g>
<!-- Node2&#45;&gt;Node1 -->
<g id="edge2" class="edge"><title>Node2&#45;&gt;Node1</title>
<path fill="none" stroke="#8b1a1a" d="M81.0973,-394.979C96.1654,-406.353 117.346,-420.863 138,-430 210.061,-461.878 231.203,-473 310,-473 310,-473 310,-473 3289,-473 3379.18,-473 3442.63,-369.038 3470.74,-311.778"/>
<polygon fill="#8b1a1a" stroke="#8b1a1a" points="83.0351,-392.054 72.9819,-388.709 78.7554,-397.593 83.0351,-392.054"/>
</g>
<!-- Node4 -->
<g id="node6" class="node"><title>Node4</title>
<a xlink:href="structstxxl_1_1stream_1_1sorted__runs.html" target="_top" xlink:title="All sorted runs of a sort operation. ">
<polygon fill="none" stroke="black" points="742,-68.5 742,-115.5 870,-115.5 870,-68.5 742,-68.5"/>
<text text-anchor="start" x="750" y="-102.5" font-family="Helvetica,sans-Serif" font-size="10.00">stxxl::stream::sorted</text>
<text text-anchor="start" x="750" y="-89.5" font-family="Helvetica,sans-Serif" font-size="10.00">_runs&lt; TriggerEntryType,</text>
<text text-anchor="middle" x="806" y="-76.5" font-family="Helvetica,sans-Serif" font-size="10.00"> CompareType &gt;</text>
</a>
</g>
<!-- Node2&#45;&gt;Node4 -->
<g id="edge8" class="edge"><title>Node2&#45;&gt;Node4</title>
<path fill="none" stroke="#8b1a1a" d="M80.029,-360.737C95.1598,-348.37 116.866,-332.021 138,-321 165.941,-306.43 579.968,-167.523 741.828,-113.419"/>
<polygon fill="#8b1a1a" stroke="#8b1a1a" points="77.3726,-358.395 71.9341,-367.487 81.8558,-363.771 77.3726,-358.395"/>
</g>
<!-- Node16 -->
<g id="node32" class="node"><title>Node16</title>
<a xlink:href="classstxxl_1_1file.html" target="_top" xlink:title="Defines interface of file. ">
<polygon fill="none" stroke="black" points="778,-306.5 778,-327.5 834,-327.5 834,-306.5 778,-306.5"/>
<text text-anchor="middle" x="806" y="-314.5" font-family="Helvetica,sans-Serif" font-size="10.00">stxxl::file</text>
</a>
</g>
<!-- Node2&#45;&gt;Node16 -->
<g id="edge36" class="edge"><title>Node2&#45;&gt;Node16</title>
<path fill="none" stroke="#8b1a1a" d="M119.394,-374.689C224.457,-368.703 449.935,-355.274 640,-340 677.382,-336.996 686.854,-337.157 724,-332 741.919,-329.513 761.889,-325.878 777.635,-322.81"/>
<polygon fill="#8b1a1a" stroke="#8b1a1a" points="119.09,-371.201 109.305,-375.262 119.487,-378.189 119.09,-371.201"/>
</g>
<!-- Node18 -->
<g id="node37" class="node"><title>Node18</title>
<a xlink:href="classstxxl_1_1mutex.html" target="_top" xlink:title="stxxl::mutex">
<polygon fill="none" stroke="black" points="274.5,-306.5 274.5,-327.5 345.5,-327.5 345.5,-306.5 274.5,-306.5"/>
<text text-anchor="middle" x="310" y="-314.5" font-family="Helvetica,sans-Serif" font-size="10.00">stxxl::mutex</text>
</a>
</g>
<!-- Node2&#45;&gt;Node18 -->
<g id="edge42" class="edge"><title>Node2&#45;&gt;Node18</title>
<path fill="none" stroke="#8b1a1a" d="M90.2974,-363.186C104.495,-356.767 121.815,-349.668 138,-345 184.075,-331.711 239.03,-324.144 274.206,-320.308"/>
<polygon fill="#8b1a1a" stroke="#8b1a1a" points="88.6225,-360.105 81.0195,-367.483 91.5644,-366.457 88.6225,-360.105"/>
</g>
<!-- Node27 -->
<g id="node64" class="node"><title>Node27</title>
<a xlink:href="classstxxl_1_1buffered__writer.html" target="_top" xlink:title="stxxl::buffered_writer\l\&lt; stxxl::typed_block \&gt;">
<polygon fill="none" stroke="black" points="3232,-319 3232,-353 3346,-353 3346,-319 3232,-319"/>
<text text-anchor="start" x="3240" y="-340" font-family="Helvetica,sans-Serif" font-size="10.00">stxxl::buffered_writer</text>
<text text-anchor="middle" x="3289" y="-327" font-family="Helvetica,sans-Serif" font-size="10.00">&lt; stxxl::typed_block &gt;</text>
</a>
</g>
<!-- Node2&#45;&gt;Node27 -->
<g id="edge78" class="edge"><title>Node2&#45;&gt;Node27</title>
<path fill="none" stroke="#8b1a1a" d="M97.359,-392.037C145.708,-408.915 232.905,-435 310,-435 310,-435 310,-435 3027,-435 3113.03,-435 3135.45,-420.079 3214,-385 3232.89,-376.565 3252.39,-363.669 3266.78,-353.224"/>
<polygon fill="#8b1a1a" stroke="#8b1a1a" points="98.2437,-388.637 87.649,-388.588 95.9006,-395.233 98.2437,-388.637"/>
</g>
<!-- Node28 -->
<g id="node69" class="node"><title>Node28</title>
<a xlink:href="classstxxl_1_1buffered__writer.html" target="_top" xlink:title="Encapsulates asynchronous buffered block writing engine. ">
<polygon fill="none" stroke="black" points="2973,-367 2973,-401 3081,-401 3081,-367 2973,-367"/>
<text text-anchor="start" x="2981" y="-388" font-family="Helvetica,sans-Serif" font-size="10.00">stxxl::buffered_writer</text>
<text text-anchor="middle" x="3027" y="-375" font-family="Helvetica,sans-Serif" font-size="10.00">&lt; block_type &gt;</text>
</a>
</g>
<!-- Node2&#45;&gt;Node28 -->
<g id="edge86" class="edge"><title>Node2&#45;&gt;Node28</title>
<path fill="none" stroke="#8b1a1a" d="M119.351,-385.058C169.945,-390.463 244.64,-397 310,-397 310,-397 310,-397 2756,-397 2831.25,-397 2918.11,-391.938 2972.79,-388.131"/>
<polygon fill="#8b1a1a" stroke="#8b1a1a" points="119.568,-381.561 109.249,-383.96 118.812,-388.52 119.568,-381.561"/>
</g>
<!-- Node3 -->
<g id="node4" class="node"><title>Node3</title>
<a xlink:href="classstxxl_1_1counting__ptr.html" target="_top" xlink:title="stxxl::counting_ptr\l\&lt; sorted_runs_data_type \&gt;">
<polygon fill="none" stroke="black" points="2960,-200 2960,-234 3094,-234 3094,-200 2960,-200"/>
<text text-anchor="start" x="2968" y="-221" font-family="Helvetica,sans-Serif" font-size="10.00">stxxl::counting_ptr</text>
<text text-anchor="middle" x="3027" y="-208" font-family="Helvetica,sans-Serif" font-size="10.00">&lt; sorted_runs_data_type &gt;</text>
</a>
</g>
<!-- Node3&#45;&gt;Node1 -->
<g id="edge4" class="edge"><title>Node3&#45;&gt;Node1</title>
<path fill="none" stroke="#9a32cd" stroke-dasharray="5,2" d="M3104.49,-226.77C3189.46,-237.484 3324.99,-254.572 3409.83,-265.27"/>
<polygon fill="#9a32cd" stroke="#9a32cd" points="3104.74,-223.274 3094.38,-225.496 3103.86,-230.219 3104.74,-223.274"/>
<text text-anchor="middle" x="3289" y="-260" font-family="Helvetica,sans-Serif" font-size="10.00"> result_</text>
</g>
<!-- Node4&#45;&gt;Node3 -->
<g id="edge6" class="edge"><title>Node4&#45;&gt;Node3</title>
<path fill="none" stroke="#9a32cd" stroke-dasharray="5,2" d="M880.715,-82.0849C914.881,-78.3555 955.924,-75 993,-75 993,-75 993,-75 2756,-75 2862.5,-75 2968.41,-162.104 3009.33,-199.871"/>
<polygon fill="#9a32cd" stroke="#9a32cd" points="879.891,-78.6554 870.345,-83.251 880.673,-85.6116 879.891,-78.6554"/>
<text text-anchor="middle" x="1818" y="-79" font-family="Helvetica,sans-Serif" font-size="10.00"> m_ptr</text>
</g>
<!-- Node5 -->
<g id="node9" class="node"><title>Node5</title>
<a xlink:href="classstxxl_1_1counted__object.html" target="_top" xlink:title="Provides reference counting abilities for use with counting_ptr. ">
<polygon fill="none" stroke="black" points="528,-81.5 528,-102.5 638,-102.5 638,-81.5 528,-81.5"/>
<text text-anchor="middle" x="583" y="-89.5" font-family="Helvetica,sans-Serif" font-size="10.00">stxxl::counted_object</text>
</a>
</g>
<!-- Node5&#45;&gt;Node4 -->
<g id="edge10" class="edge"><title>Node5&#45;&gt;Node4</title>
<path fill="none" stroke="midnightblue" d="M648.292,-92C677.704,-92 712.326,-92 741.628,-92"/>
<polygon fill="midnightblue" stroke="midnightblue" points="648.124,-88.5001 638.124,-92 648.124,-95.5001 648.124,-88.5001"/>
</g>
<!-- Node6 -->
<g id="node11" class="node"><title>Node6</title>
<a xlink:href="structstxxl_1_1choose__int__types.html" target="_top" xlink:title="stxxl::choose_int_types\l\&lt; my_pointer_size \&gt;">
<polygon fill="none" stroke="black" points="250,-75 250,-109 370,-109 370,-75 250,-75"/>
<text text-anchor="start" x="258" y="-96" font-family="Helvetica,sans-Serif" font-size="10.00">stxxl::choose_int_types</text>
<text text-anchor="middle" x="310" y="-83" font-family="Helvetica,sans-Serif" font-size="10.00">&lt; my_pointer_size &gt;</text>
</a>
</g>
<!-- Node6&#45;&gt;Node1 -->
<g id="edge18" class="edge"><title>Node6&#45;&gt;Node1</title>
<path fill="none" stroke="#9a32cd" stroke-dasharray="5,2" d="M348.737,-70.0249C400.442,-42.8105 495.659,-0 583,-0 583,-0 583,-0 3289,-0 3405.19,-0 3459.95,-163.677 3478.91,-238.482"/>
<polygon fill="#9a32cd" stroke="#9a32cd" points="346.768,-67.1087 339.601,-74.9111 350.069,-73.2814 346.768,-67.1087"/>
<text text-anchor="middle" x="1818" y="-43" font-family="Helvetica,sans-Serif" font-size="10.00"> irun</text>
<text text-anchor="middle" x="1818" y="-30" font-family="Helvetica,sans-Serif" font-size="10.00">offset</text>
<text text-anchor="middle" x="1818" y="-17" font-family="Helvetica,sans-Serif" font-size="10.00">m_</text>
<text text-anchor="middle" x="1818" y="-4" font-family="Helvetica,sans-Serif" font-size="10.00">iblock</text>
</g>
<!-- Node6&#45;&gt;Node5 -->
<g id="edge12" class="edge"><title>Node6&#45;&gt;Node5</title>
<path fill="none" stroke="#9a32cd" stroke-dasharray="5,2" d="M380.402,-92C426.199,-92 485.081,-92 527.551,-92"/>
<polygon fill="#9a32cd" stroke="#9a32cd" points="380.249,-88.5001 370.249,-92 380.249,-95.5001 380.249,-88.5001"/>
<text text-anchor="middle" x="448" y="-96" font-family="Helvetica,sans-Serif" font-size="10.00"> m_reference_count</text>
</g>
<!-- Node17 -->
<g id="node35" class="node"><title>Node17</title>
<a xlink:href="classstxxl_1_1atomic__counted__object.html" target="_top" xlink:title="Provides reference counting abilities for use with counting_ptr with mutex locking. ">
<polygon fill="none" stroke="black" points="526.5,-297 526.5,-331 639.5,-331 639.5,-297 526.5,-297"/>
<text text-anchor="start" x="534.5" y="-318" font-family="Helvetica,sans-Serif" font-size="10.00">stxxl::atomic_counted</text>
<text text-anchor="middle" x="583" y="-305" font-family="Helvetica,sans-Serif" font-size="10.00">_object</text>
</a>
</g>
<!-- Node6&#45;&gt;Node17 -->
<g id="edge44" class="edge"><title>Node6&#45;&gt;Node17</title>
<path fill="none" stroke="#9a32cd" stroke-dasharray="5,2" d="M338.955,-115.546C394.224,-160.49 513.555,-257.528 561.96,-296.891"/>
<polygon fill="#9a32cd" stroke="#9a32cd" points="340.935,-112.645 330.969,-109.051 336.519,-118.076 340.935,-112.645"/>
<text text-anchor="middle" x="448" y="-252" font-family="Helvetica,sans-Serif" font-size="10.00"> m_reference_count</text>
</g>
<!-- Node7 -->
<g id="node13" class="node"><title>Node7</title>
<a xlink:href="structstxxl_1_1choose__int__types.html" target="_top" xlink:title="stxxl::choose_int_types\l\&lt; PtrSize \&gt;">
<polygon fill="none" stroke="black" points="0,-75 0,-109 120,-109 120,-75 0,-75"/>
<text text-anchor="start" x="8" y="-96" font-family="Helvetica,sans-Serif" font-size="10.00">stxxl::choose_int_types</text>
<text text-anchor="middle" x="60" y="-83" font-family="Helvetica,sans-Serif" font-size="10.00">&lt; PtrSize &gt;</text>
</a>
</g>
<!-- Node7&#45;&gt;Node6 -->
<g id="edge14" class="edge"><title>Node7&#45;&gt;Node6</title>
<path fill="none" stroke="orange" stroke-dasharray="5,2" d="M130.578,-92C168.196,-92 213.985,-92 249.89,-92"/>
<polygon fill="orange" stroke="orange" points="130.199,-88.5001 120.199,-92 130.199,-95.5001 130.199,-88.5001"/>
<text text-anchor="middle" x="185" y="-96" font-family="Helvetica,sans-Serif" font-size="10.00"> &lt; my_pointer_size &gt;</text>
</g>
<!-- Node8 -->
<g id="node15" class="node"><title>Node8</title>
<a xlink:href="classstxxl_1_1counting__ptr.html" target="_top" xlink:title="High&#45;performance smart pointer used as a wrapping reference counting pointer. ">
<polygon fill="none" stroke="black" points="2707.5,-319 2707.5,-353 2804.5,-353 2804.5,-319 2707.5,-319"/>
<text text-anchor="start" x="2715.5" y="-340" font-family="Helvetica,sans-Serif" font-size="10.00">stxxl::counting_ptr</text>
<text text-anchor="middle" x="2756" y="-327" font-family="Helvetica,sans-Serif" font-size="10.00">&lt; Type &gt;</text>
</a>
</g>
<!-- Node8&#45;&gt;Node3 -->
<g id="edge16" class="edge"><title>Node8&#45;&gt;Node3</title>
<path fill="none" stroke="orange" stroke-dasharray="5,2" d="M2804.85,-314.86C2815.16,-310.334 2825.95,-305.546 2836,-301 2891.43,-275.916 2904.05,-266.908 2960,-243 2967,-240.009 2974.47,-236.968 2981.78,-234.069"/>
<polygon fill="orange" stroke="orange" points="2803.31,-311.712 2795.56,-318.928 2806.12,-318.124 2803.31,-311.712"/>
<text text-anchor="start" x="2854" y="-309" font-family="Helvetica,sans-Serif" font-size="10.00"> &lt; sorted_runs_data</text>
<text text-anchor="middle" x="2898" y="-296" font-family="Helvetica,sans-Serif" font-size="10.00">_type &gt;</text>
</g>
<!-- Node8&#45;&gt;Node27 -->
<g id="edge80" class="edge"><title>Node8&#45;&gt;Node27</title>
<path fill="none" stroke="#9a32cd" stroke-dasharray="5,2" d="M2814.95,-336C2918.08,-336 3129.96,-336 3231.83,-336"/>
<polygon fill="#9a32cd" stroke="#9a32cd" points="2814.71,-332.5 2804.71,-336 2814.71,-339.5 2814.71,-332.5"/>
<text text-anchor="middle" x="3027" y="-340" font-family="Helvetica,sans-Serif" font-size="10.00"> write_reqs</text>
</g>
<!-- Node8&#45;&gt;Node28 -->
<g id="edge88" class="edge"><title>Node8&#45;&gt;Node28</title>
<path fill="none" stroke="#9a32cd" stroke-dasharray="5,2" d="M2814.78,-346.41C2861.67,-354.717 2926.86,-366.264 2972.58,-374.361"/>
<polygon fill="#9a32cd" stroke="#9a32cd" points="2815.22,-342.935 2804.76,-344.637 2814,-349.827 2815.22,-342.935"/>
<text text-anchor="middle" x="2898" y="-372" font-family="Helvetica,sans-Serif" font-size="10.00"> write_reqs</text>
</g>
<!-- Node9 -->
<g id="node18" class="node"><title>Node9</title>
<a xlink:href="classstxxl_1_1typed__block.html" target="_top" xlink:title="Block containing elements of fixed length. ">
<polygon fill="none" stroke="black" points="2964.5,-252.5 2964.5,-299.5 3089.5,-299.5 3089.5,-252.5 2964.5,-252.5"/>
<text text-anchor="start" x="2972.5" y="-286.5" font-family="Helvetica,sans-Serif" font-size="10.00">stxxl::typed_block</text>
<text text-anchor="start" x="2972.5" y="-273.5" font-family="Helvetica,sans-Serif" font-size="10.00">&lt; RawSize, Type, NRef,</text>
<text text-anchor="middle" x="3027" y="-260.5" font-family="Helvetica,sans-Serif" font-size="10.00"> MetaInfoType &gt;</text>
</a>
</g>
<!-- Node9&#45;&gt;Node1 -->
<g id="edge20" class="edge"><title>Node9&#45;&gt;Node1</title>
<path fill="none" stroke="#9a32cd" stroke-dasharray="5,2" d="M3099.55,-275.842C3184.06,-275.659 3323.13,-275.356 3409.65,-275.168"/>
<polygon fill="#9a32cd" stroke="#9a32cd" points="3099.51,-272.342 3089.52,-275.864 3099.52,-279.342 3099.51,-272.342"/>
<text text-anchor="middle" x="3289" y="-279" font-family="Helvetica,sans-Serif" font-size="10.00"> cur_block</text>
</g>
<!-- Node9&#45;&gt;Node27 -->
<g id="edge82" class="edge"><title>Node9&#45;&gt;Node27</title>
<path fill="none" stroke="#9a32cd" stroke-dasharray="5,2" d="M3100,-285.918C3134.82,-291.401 3176.89,-299.122 3214,-309 3224.3,-311.741 3235.19,-315.275 3245.38,-318.878"/>
<polygon fill="#9a32cd" stroke="#9a32cd" points="3100.33,-282.428 3089.92,-284.36 3099.26,-289.346 3100.33,-282.428"/>
<text text-anchor="middle" x="3163" y="-313" font-family="Helvetica,sans-Serif" font-size="10.00"> write_buffers</text>
</g>
<!-- Node10 -->
<g id="node20" class="node"><title>Node10</title>
<a xlink:href="classstxxl_1_1mng__local_1_1expand__struct.html" target="_top" xlink:title="stxxl::mng_local::expand\l_struct\&lt; mng_local::block\l_w_info\&lt; Type, RawSize, NRef,\l MetaInfoType \&gt;, RawSize \&gt;">
<polygon fill="none" stroke="black" points="2676.5,-232 2676.5,-292 2835.5,-292 2835.5,-232 2676.5,-232"/>
<text text-anchor="start" x="2684.5" y="-279" font-family="Helvetica,sans-Serif" font-size="10.00">stxxl::mng_local::expand</text>
<text text-anchor="start" x="2684.5" y="-266" font-family="Helvetica,sans-Serif" font-size="10.00">_struct&lt; mng_local::block</text>
<text text-anchor="start" x="2684.5" y="-253" font-family="Helvetica,sans-Serif" font-size="10.00">_w_info&lt; Type, RawSize, NRef,</text>
<text text-anchor="middle" x="2756" y="-240" font-family="Helvetica,sans-Serif" font-size="10.00"> MetaInfoType &gt;, RawSize &gt;</text>
</a>
</g>
<!-- Node10&#45;&gt;Node9 -->
<g id="edge22" class="edge"><title>Node10&#45;&gt;Node9</title>
<path fill="none" stroke="midnightblue" d="M2846.1,-266.655C2884.92,-268.66 2929.36,-270.956 2964.48,-272.77"/>
<polygon fill="midnightblue" stroke="midnightblue" points="2846.01,-263.145 2835.84,-266.125 2845.65,-270.136 2846.01,-263.145"/>
</g>
<!-- Node11 -->
<g id="node22" class="node"><title>Node11</title>
<a xlink:href="classstxxl_1_1mng__local_1_1add__filler.html" target="_top" xlink:title="stxxl::mng_local::add\l_filler\&lt; mng_local::block\l_w_info\&lt; Type, RawSize,\l NRef, MetaInfoType \&gt;, RawSize\l&#45;sizeof(mng_local::block_w_info\l\&lt; Type, RawSize, NRef, MetaInfoType \&gt;)\&gt;">
<polygon fill="none" stroke="black" points="2320,-242 2320,-328 2526,-328 2526,-242 2320,-242"/>
<text text-anchor="start" x="2328" y="-315" font-family="Helvetica,sans-Serif" font-size="10.00">stxxl::mng_local::add</text>
<text text-anchor="start" x="2328" y="-302" font-family="Helvetica,sans-Serif" font-size="10.00">_filler&lt; mng_local::block</text>
<text text-anchor="start" x="2328" y="-289" font-family="Helvetica,sans-Serif" font-size="10.00">_w_info&lt; Type, RawSize,</text>
<text text-anchor="start" x="2328" y="-276" font-family="Helvetica,sans-Serif" font-size="10.00"> NRef, MetaInfoType &gt;, RawSize</text>
<text text-anchor="start" x="2328" y="-263" font-family="Helvetica,sans-Serif" font-size="10.00">&#45;sizeof(mng_local::block_w_info</text>
<text text-anchor="middle" x="2423" y="-250" font-family="Helvetica,sans-Serif" font-size="10.00">&lt; Type, RawSize, NRef, MetaInfoType &gt;)&gt;</text>
</a>
</g>
<!-- Node11&#45;&gt;Node10 -->
<g id="edge24" class="edge"><title>Node11&#45;&gt;Node10</title>
<path fill="none" stroke="midnightblue" d="M2536.12,-277.187C2582.22,-274.003 2634.42,-270.397 2676.39,-267.499"/>
<polygon fill="midnightblue" stroke="midnightblue" points="2535.82,-273.699 2526.08,-277.88 2536.3,-280.683 2535.82,-273.699"/>
</g>
<!-- Node12 -->
<g id="node24" class="node"><title>Node12</title>
<a xlink:href="classstxxl_1_1mng__local_1_1block__w__info.html" target="_top" xlink:title="stxxl::mng_local::block\l_w_info\&lt; Type, RawSize,\l NRef, MetaInfoType \&gt;">
<polygon fill="none" stroke="black" points="2145,-321.5 2145,-368.5 2275,-368.5 2275,-321.5 2145,-321.5"/>
<text text-anchor="start" x="2153" y="-355.5" font-family="Helvetica,sans-Serif" font-size="10.00">stxxl::mng_local::block</text>
<text text-anchor="start" x="2153" y="-342.5" font-family="Helvetica,sans-Serif" font-size="10.00">_w_info&lt; Type, RawSize,</text>
<text text-anchor="middle" x="2210" y="-329.5" font-family="Helvetica,sans-Serif" font-size="10.00"> NRef, MetaInfoType &gt;</text>
</a>
</g>
<!-- Node12&#45;&gt;Node11 -->
<g id="edge26" class="edge"><title>Node12&#45;&gt;Node11</title>
<path fill="none" stroke="midnightblue" d="M2284.87,-323.908C2296.21,-320.716 2308.07,-317.375 2319.87,-314.05"/>
<polygon fill="midnightblue" stroke="midnightblue" points="2283.74,-320.592 2275.06,-326.672 2285.64,-327.329 2283.74,-320.592"/>
</g>
<!-- Node13 -->
<g id="node26" class="node"><title>Node13</title>
<a xlink:href="classstxxl_1_1mng__local_1_1block__w__bids.html" target="_top" xlink:title="stxxl::mng_local::block\l_w_bids\&lt; Type,((RawSize\l&#45;sizeof(BID\&lt; RawSize \&gt;)*NBids\l&#45;sizeof(MetaInfoType))/sizeof\l(Type)), RawSize, NBids \&gt;">
<polygon fill="none" stroke="black" points="1628,-256.5 1628,-329.5 1786,-329.5 1786,-256.5 1628,-256.5"/>
<text text-anchor="start" x="1636" y="-316.5" font-family="Helvetica,sans-Serif" font-size="10.00">stxxl::mng_local::block</text>
<text text-anchor="start" x="1636" y="-303.5" font-family="Helvetica,sans-Serif" font-size="10.00">_w_bids&lt; Type,((RawSize</text>
<text text-anchor="start" x="1636" y="-290.5" font-family="Helvetica,sans-Serif" font-size="10.00">&#45;sizeof(BID&lt; RawSize &gt;)*NBids</text>
<text text-anchor="start" x="1636" y="-277.5" font-family="Helvetica,sans-Serif" font-size="10.00">&#45;sizeof(MetaInfoType))/sizeof</text>
<text text-anchor="middle" x="1707" y="-264.5" font-family="Helvetica,sans-Serif" font-size="10.00">(Type)), RawSize, NBids &gt;</text>
</a>
</g>
<!-- Node13&#45;&gt;Node12 -->
<g id="edge28" class="edge"><title>Node13&#45;&gt;Node12</title>
<path fill="none" stroke="midnightblue" d="M1796.34,-297.123C1852.12,-300.161 1925.36,-304.994 1990,-312 2042.22,-317.66 2101.05,-326.62 2144.72,-333.776"/>
<polygon fill="midnightblue" stroke="midnightblue" points="1796.31,-293.616 1786.14,-296.576 1795.94,-300.606 1796.31,-293.616"/>
</g>
<!-- Node21 -->
<g id="node48" class="node"><title>Node21</title>
<a xlink:href="classstxxl_1_1mng__local_1_1block__w__info.html" target="_top" xlink:title="Contains per block information for stxxl::typed_block , not intended for direct use. ">
<polygon fill="none" stroke="black" points="1855,-321.5 1855,-368.5 1985,-368.5 1985,-321.5 1855,-321.5"/>
<text text-anchor="start" x="1863" y="-355.5" font-family="Helvetica,sans-Serif" font-size="10.00">stxxl::mng_local::block</text>
<text text-anchor="start" x="1863" y="-342.5" font-family="Helvetica,sans-Serif" font-size="10.00">_w_info&lt; Type, RawSize,</text>
<text text-anchor="middle" x="1920" y="-329.5" font-family="Helvetica,sans-Serif" font-size="10.00"> NBids, MetaInfoType &gt;</text>
</a>
</g>
<!-- Node13&#45;&gt;Node21 -->
<g id="edge58" class="edge"><title>Node13&#45;&gt;Node21</title>
<path fill="none" stroke="midnightblue" d="M1795.91,-314.707C1815.62,-319.517 1836.15,-324.529 1854.7,-329.059"/>
<polygon fill="midnightblue" stroke="midnightblue" points="1796.56,-311.261 1786.01,-312.289 1794.9,-318.061 1796.56,-311.261"/>
</g>
<!-- Node14 -->
<g id="node28" class="node"><title>Node14</title>
<a xlink:href="classstxxl_1_1mng__local_1_1element__block.html" target="_top" xlink:title="Contains data elements for stxxl::typed_block , not intended for direct use. ">
<polygon fill="none" stroke="black" points="1142,-320 1142,-354 1270,-354 1270,-320 1142,-320"/>
<text text-anchor="start" x="1150" y="-341" font-family="Helvetica,sans-Serif" font-size="10.00">stxxl::mng_local::element</text>
<text text-anchor="middle" x="1206" y="-328" font-family="Helvetica,sans-Serif" font-size="10.00">_block&lt; Type, Size &gt;</text>
</a>
</g>
<!-- Node14&#45;&gt;Node13 -->
<g id="edge30" class="edge"><title>Node14&#45;&gt;Node13</title>
<path fill="none" stroke="midnightblue" d="M1280.13,-349.977C1362.17,-361.705 1497.66,-373.213 1610,-345 1623.53,-341.603 1637.23,-335.914 1649.9,-329.518"/>
<polygon fill="midnightblue" stroke="midnightblue" points="1280.55,-346.502 1270.15,-348.512 1279.53,-353.428 1280.55,-346.502"/>
</g>
<!-- Node20 -->
<g id="node44" class="node"><title>Node20</title>
<a xlink:href="classstxxl_1_1mng__local_1_1block__w__bids.html" target="_top" xlink:title="Contains BID references for stxxl::typed_block , not intended for direct use. ">
<polygon fill="none" stroke="black" points="1322,-277.5 1322,-324.5 1480,-324.5 1480,-277.5 1322,-277.5"/>
<text text-anchor="start" x="1330" y="-311.5" font-family="Helvetica,sans-Serif" font-size="10.00">stxxl::mng_local::block</text>
<text text-anchor="start" x="1330" y="-298.5" font-family="Helvetica,sans-Serif" font-size="10.00">_w_bids&lt; Type, Size, RawSize,</text>
<text text-anchor="middle" x="1401" y="-285.5" font-family="Helvetica,sans-Serif" font-size="10.00"> NBids &gt;</text>
</a>
</g>
<!-- Node14&#45;&gt;Node20 -->
<g id="edge52" class="edge"><title>Node14&#45;&gt;Node20</title>
<path fill="none" stroke="midnightblue" d="M1279.96,-323.346C1293.66,-320.817 1308.02,-318.166 1321.86,-315.61"/>
<polygon fill="midnightblue" stroke="midnightblue" points="1279.32,-319.905 1270.12,-325.162 1280.59,-326.789 1279.32,-319.905"/>
</g>
<!-- Node15 -->
<g id="node30" class="node"><title>Node15</title>
<a xlink:href="structstxxl_1_1BID.html" target="_top" xlink:title="stxxl::BID\&lt; raw_size \&gt;">
<polygon fill="none" stroke="black" points="1147,-277.5 1147,-298.5 1265,-298.5 1265,-277.5 1147,-277.5"/>
<text text-anchor="middle" x="1206" y="-285.5" font-family="Helvetica,sans-Serif" font-size="10.00">stxxl::BID&lt; raw_size &gt;</text>
</a>
</g>
<!-- Node15&#45;&gt;Node13 -->
<g id="edge32" class="edge"><title>Node15&#45;&gt;Node13</title>
<path fill="none" stroke="#9a32cd" stroke-dasharray="5,2" d="M1244.37,-274.187C1266.69,-266.885 1295.56,-258.687 1322,-255 1427.44,-240.294 1549.9,-258.365 1627.88,-274.263"/>
<polygon fill="#9a32cd" stroke="#9a32cd" points="1242.97,-270.963 1234.6,-277.459 1245.2,-277.6 1242.97,-270.963"/>
<text text-anchor="middle" x="1401" y="-259" font-family="Helvetica,sans-Serif" font-size="10.00"> ref</text>
</g>
<!-- Node15&#45;&gt;Node20 -->
<g id="edge54" class="edge"><title>Node15&#45;&gt;Node20</title>
<path fill="none" stroke="#9a32cd" stroke-dasharray="5,2" d="M1275.26,-292.617C1290.28,-293.618 1306.27,-294.685 1321.65,-295.71"/>
<polygon fill="#9a32cd" stroke="#9a32cd" points="1275.25,-289.109 1265.04,-291.936 1274.78,-296.093 1275.25,-289.109"/>
<text text-anchor="middle" x="1296" y="-298" font-family="Helvetica,sans-Serif" font-size="10.00"> ref</text>
</g>
<!-- Node16&#45;&gt;Node15 -->
<g id="edge34" class="edge"><title>Node16&#45;&gt;Node15</title>
<path fill="none" stroke="#9a32cd" stroke-dasharray="5,2" d="M844.226,-315.478C904,-312.927 1023.2,-307.149 1124,-298 1131.43,-297.326 1139.22,-296.513 1146.92,-295.646"/>
<polygon fill="#9a32cd" stroke="#9a32cd" points="843.963,-311.986 834.119,-315.903 844.257,-318.98 843.963,-311.986"/>
<text text-anchor="middle" x="993" y="-314" font-family="Helvetica,sans-Serif" font-size="10.00"> storage</text>
</g>
<!-- Node19 -->
<g id="node41" class="node"><title>Node19</title>
<a xlink:href="structstxxl_1_1BID.html" target="_top" xlink:title="Block identifier class. ">
<polygon fill="none" stroke="black" points="942.5,-262.5 942.5,-283.5 1043.5,-283.5 1043.5,-262.5 942.5,-262.5"/>
<text text-anchor="middle" x="993" y="-270.5" font-family="Helvetica,sans-Serif" font-size="10.00">stxxl::BID&lt; SIZE &gt;</text>
</a>
</g>
<!-- Node16&#45;&gt;Node19 -->
<g id="edge48" class="edge"><title>Node16&#45;&gt;Node19</title>
<path fill="none" stroke="#9a32cd" stroke-dasharray="5,2" d="M843.933,-305.069C857.729,-300.949 873.495,-296.495 888,-293 905.589,-288.761 925.011,-284.85 942.318,-281.632"/>
<polygon fill="#9a32cd" stroke="#9a32cd" points="842.838,-301.743 834.281,-307.991 844.866,-308.443 842.838,-301.743"/>
<text text-anchor="middle" x="906" y="-297" font-family="Helvetica,sans-Serif" font-size="10.00"> storage</text>
</g>
<!-- Node17&#45;&gt;Node16 -->
<g id="edge38" class="edge"><title>Node17&#45;&gt;Node16</title>
<path fill="none" stroke="#9a32cd" stroke-dasharray="5,2" d="M649.623,-314.896C692.377,-315.471 745.696,-316.189 777.733,-316.62"/>
<polygon fill="#9a32cd" stroke="#9a32cd" points="649.607,-311.396 639.561,-314.761 649.513,-318.395 649.607,-311.396"/>
<text text-anchor="middle" x="691" y="-319" font-family="Helvetica,sans-Serif" font-size="10.00"> m_request_ref</text>
</g>
<!-- Node18&#45;&gt;Node17 -->
<g id="edge40" class="edge"><title>Node18&#45;&gt;Node17</title>
<path fill="none" stroke="#9a32cd" stroke-dasharray="5,2" d="M355.875,-316.496C402.83,-315.98 475.885,-315.177 526.403,-314.622"/>
<polygon fill="#9a32cd" stroke="#9a32cd" points="355.651,-312.998 345.69,-316.608 355.728,-319.998 355.651,-312.998"/>
<text text-anchor="middle" x="448" y="-320" font-family="Helvetica,sans-Serif" font-size="10.00"> m_reference_count_mutex</text>
</g>
<!-- Node19&#45;&gt;Node15 -->
<g id="edge46" class="edge"><title>Node19&#45;&gt;Node15</title>
<path fill="none" stroke="orange" stroke-dasharray="5,2" d="M1053.83,-277.284C1083.07,-279.343 1117.97,-281.8 1146.96,-283.842"/>
<polygon fill="orange" stroke="orange" points="1053.97,-273.785 1043.75,-276.574 1053.48,-280.768 1053.97,-273.785"/>
<text text-anchor="middle" x="1093" y="-285" font-family="Helvetica,sans-Serif" font-size="10.00"> &lt; raw_size &gt;</text>
</g>
<!-- Node20&#45;&gt;Node13 -->
<g id="edge50" class="edge"><title>Node20&#45;&gt;Node13</title>
<path fill="none" stroke="orange" stroke-dasharray="5,2" d="M1490.27,-280.93C1492.87,-280.585 1495.45,-280.273 1498,-280 1547.5,-274.704 1560.33,-276.687 1610,-280 1615.85,-280.39 1621.88,-280.911 1627.95,-281.521"/>
<polygon fill="orange" stroke="orange" points="1489.56,-277.497 1480.18,-282.419 1490.58,-284.422 1489.56,-277.497"/>
<text text-anchor="start" x="1498" y="-336" font-family="Helvetica,sans-Serif" font-size="10.00"> &lt; Type,((RawSize&#45;sizeof</text>
<text text-anchor="start" x="1498" y="-323" font-family="Helvetica,sans-Serif" font-size="10.00">(BID&lt; RawSize &gt;)*NBids</text>
<text text-anchor="start" x="1498" y="-310" font-family="Helvetica,sans-Serif" font-size="10.00">&#45;sizeof(MetaInfoType))</text>
<text text-anchor="start" x="1498" y="-297" font-family="Helvetica,sans-Serif" font-size="10.00">/sizeof(Type)), RawSize,</text>
<text text-anchor="middle" x="1554" y="-284" font-family="Helvetica,sans-Serif" font-size="10.00"> NBids &gt;</text>
</g>
<!-- Node21&#45;&gt;Node12 -->
<g id="edge56" class="edge"><title>Node21&#45;&gt;Node12</title>
<path fill="none" stroke="orange" stroke-dasharray="5,2" d="M1995.08,-345C2041.49,-345 2100.46,-345 2144.89,-345"/>
<polygon fill="orange" stroke="orange" points="1995.08,-341.5 1985.08,-345 1995.08,-348.5 1995.08,-341.5"/>
<text text-anchor="start" x="2008" y="-362" font-family="Helvetica,sans-Serif" font-size="10.00"> &lt; Type, RawSize, NRef,</text>
<text text-anchor="middle" x="2064" y="-349" font-family="Helvetica,sans-Serif" font-size="10.00"> MetaInfoType &gt;</text>
</g>
<!-- Node22 -->
<g id="node51" class="node"><title>Node22</title>
<a xlink:href="classstxxl_1_1mng__local_1_1filler__struct.html" target="_top" xlink:title="stxxl::mng_local::filler\l_struct\&lt; FillSize \&gt;">
<polygon fill="none" stroke="black" points="1651,-164 1651,-198 1763,-198 1763,-164 1651,-164"/>
<text text-anchor="start" x="1659" y="-185" font-family="Helvetica,sans-Serif" font-size="10.00">stxxl::mng_local::filler</text>
<text text-anchor="middle" x="1707" y="-172" font-family="Helvetica,sans-Serif" font-size="10.00">_struct&lt; FillSize &gt;</text>
</a>
</g>
<!-- Node22&#45;&gt;Node11 -->
<g id="edge60" class="edge"><title>Node22&#45;&gt;Node11</title>
<path fill="none" stroke="#9a32cd" stroke-dasharray="5,2" d="M1772.83,-200.354C1856.73,-224.003 2006.68,-262.857 2138,-279 2197.93,-286.367 2265.46,-288.075 2319.75,-287.844"/>
<polygon fill="#9a32cd" stroke="#9a32cd" points="1773.75,-196.978 1763.18,-197.619 1771.84,-203.713 1773.75,-196.978"/>
<text text-anchor="middle" x="2064" y="-280" font-family="Helvetica,sans-Serif" font-size="10.00"> filler</text>
</g>
<!-- Node24 -->
<g id="node55" class="node"><title>Node24</title>
<a xlink:href="classstxxl_1_1mng__local_1_1add__filler.html" target="_top" xlink:title="Contains per block filler for stxxl::typed_block , not intended for direct use. ">
<polygon fill="none" stroke="black" points="1850,-164 1850,-198 1990,-198 1990,-164 1850,-164"/>
<text text-anchor="start" x="1858" y="-185" font-family="Helvetica,sans-Serif" font-size="10.00">stxxl::mng_local::add</text>
<text text-anchor="middle" x="1920" y="-172" font-family="Helvetica,sans-Serif" font-size="10.00">_filler&lt; BaseType, FillSize &gt;</text>
</a>
</g>
<!-- Node22&#45;&gt;Node24 -->
<g id="edge66" class="edge"><title>Node22&#45;&gt;Node24</title>
<path fill="none" stroke="#9a32cd" stroke-dasharray="5,2" d="M1773.41,-181C1797.65,-181 1825.14,-181 1849.7,-181"/>
<polygon fill="#9a32cd" stroke="#9a32cd" points="1773.24,-177.5 1763.24,-181 1773.24,-184.5 1773.24,-177.5"/>
<text text-anchor="middle" x="1818" y="-185" font-family="Helvetica,sans-Serif" font-size="10.00"> filler</text>
</g>
<!-- Node26 -->
<g id="node60" class="node"><title>Node26</title>
<a xlink:href="classstxxl_1_1mng__local_1_1add__filler.html" target="_top" xlink:title="stxxl::mng_local::add\l_filler\&lt; Type, RawSize\l&#45;sizeof(Type)\&gt;">
<polygon fill="none" stroke="black" points="2152,-103.5 2152,-150.5 2268,-150.5 2268,-103.5 2152,-103.5"/>
<text text-anchor="start" x="2160" y="-137.5" font-family="Helvetica,sans-Serif" font-size="10.00">stxxl::mng_local::add</text>
<text text-anchor="start" x="2160" y="-124.5" font-family="Helvetica,sans-Serif" font-size="10.00">_filler&lt; Type, RawSize</text>
<text text-anchor="middle" x="2210" y="-111.5" font-family="Helvetica,sans-Serif" font-size="10.00">&#45;sizeof(Type)&gt;</text>
</a>
</g>
<!-- Node22&#45;&gt;Node26 -->
<g id="edge72" class="edge"><title>Node22&#45;&gt;Node26</title>
<path fill="none" stroke="#9a32cd" stroke-dasharray="5,2" d="M1768.74,-161.032C1793.71,-153.782 1822.97,-146.319 1850,-142 1955.47,-125.15 2080.4,-124.104 2151.91,-125.277"/>
<polygon fill="#9a32cd" stroke="#9a32cd" points="1767.64,-157.708 1759.04,-163.9 1769.62,-164.421 1767.64,-157.708"/>
<text text-anchor="middle" x="1920" y="-146" font-family="Helvetica,sans-Serif" font-size="10.00"> filler</text>
</g>
<!-- Node23 -->
<g id="node53" class="node"><title>Node23</title>
<a xlink:href="classstxxl_1_1mng__local_1_1filler__struct.html" target="_top" xlink:title="stxxl::mng_local::filler\l_struct\&lt; Bytes \&gt;">
<polygon fill="none" stroke="black" points="1345,-164 1345,-198 1457,-198 1457,-164 1345,-164"/>
<text text-anchor="start" x="1353" y="-185" font-family="Helvetica,sans-Serif" font-size="10.00">stxxl::mng_local::filler</text>
<text text-anchor="middle" x="1401" y="-172" font-family="Helvetica,sans-Serif" font-size="10.00">_struct&lt; Bytes &gt;</text>
</a>
</g>
<!-- Node23&#45;&gt;Node22 -->
<g id="edge62" class="edge"><title>Node23&#45;&gt;Node22</title>
<path fill="none" stroke="orange" stroke-dasharray="5,2" d="M1467.44,-181C1522.27,-181 1599.22,-181 1650.97,-181"/>
<polygon fill="orange" stroke="orange" points="1467.13,-177.5 1457.13,-181 1467.13,-184.5 1467.13,-177.5"/>
<text text-anchor="middle" x="1554" y="-185" font-family="Helvetica,sans-Serif" font-size="10.00"> &lt; FillSize &gt;</text>
</g>
<!-- Node24&#45;&gt;Node11 -->
<g id="edge64" class="edge"><title>Node24&#45;&gt;Node11</title>
<path fill="none" stroke="orange" stroke-dasharray="5,2" d="M2000.56,-180.99C2090.89,-181.763 2231.35,-185.541 2282,-201 2311.16,-209.9 2340.58,-226.035 2364.94,-241.802"/>
<polygon fill="orange" stroke="orange" points="2000.38,-177.489 1990.35,-180.913 2000.33,-184.488 2000.38,-177.489"/>
<text text-anchor="start" x="2138.5" y="-270" font-family="Helvetica,sans-Serif" font-size="10.00"> &lt; mng_local::block</text>
<text text-anchor="start" x="2138.5" y="-257" font-family="Helvetica,sans-Serif" font-size="10.00">_w_info&lt; Type, RawSize,</text>
<text text-anchor="start" x="2138.5" y="-244" font-family="Helvetica,sans-Serif" font-size="10.00"> NRef, MetaInfoType &gt;,</text>
<text text-anchor="start" x="2138.5" y="-231" font-family="Helvetica,sans-Serif" font-size="10.00"> RawSize&#45;sizeof(mng_local</text>
<text text-anchor="start" x="2138.5" y="-218" font-family="Helvetica,sans-Serif" font-size="10.00">::block_w_info&lt; Type, RawSize,</text>
<text text-anchor="middle" x="2210" y="-205" font-family="Helvetica,sans-Serif" font-size="10.00"> NRef, MetaInfoType &gt;)&gt;</text>
</g>
<!-- Node24&#45;&gt;Node26 -->
<g id="edge74" class="edge"><title>Node24&#45;&gt;Node26</title>
<path fill="none" stroke="orange" stroke-dasharray="5,2" d="M1979.94,-161.17C1989.27,-158.503 1998.85,-156.002 2008,-154 2055.87,-143.532 2111.07,-136.487 2151.65,-132.227"/>
<polygon fill="orange" stroke="orange" points="1978.95,-157.814 1970.34,-163.995 1980.93,-164.529 1978.95,-157.814"/>
<text text-anchor="start" x="2009.5" y="-171" font-family="Helvetica,sans-Serif" font-size="10.00"> &lt; Type, RawSize&#45;sizeof</text>
<text text-anchor="middle" x="2064" y="-158" font-family="Helvetica,sans-Serif" font-size="10.00">(Type)&gt;</text>
</g>
<!-- Node25 -->
<g id="node58" class="node"><title>Node25</title>
<a xlink:href="classstxxl_1_1mng__local_1_1expand__struct.html" target="_top" xlink:title="Helper to compute the size of the filler , not intended for direct use. ">
<polygon fill="none" stroke="black" points="2357,-137 2357,-171 2489,-171 2489,-137 2357,-137"/>
<text text-anchor="start" x="2365" y="-158" font-family="Helvetica,sans-Serif" font-size="10.00">stxxl::mng_local::expand</text>
<text text-anchor="middle" x="2423" y="-145" font-family="Helvetica,sans-Serif" font-size="10.00">_struct&lt; Type, RawSize &gt;</text>
</a>
</g>
<!-- Node25&#45;&gt;Node10 -->
<g id="edge68" class="edge"><title>Node25&#45;&gt;Node10</title>
<path fill="none" stroke="orange" stroke-dasharray="5,2" d="M2499.09,-168.144C2545.76,-177.95 2606.28,-192.715 2658,-212 2672.85,-217.538 2688.38,-224.741 2702.58,-231.947"/>
<polygon fill="orange" stroke="orange" points="2499.55,-164.666 2489.05,-166.066 2498.13,-171.52 2499.55,-164.666"/>
<text text-anchor="start" x="2544" y="-255" font-family="Helvetica,sans-Serif" font-size="10.00"> &lt; mng_local::block</text>
<text text-anchor="start" x="2544" y="-242" font-family="Helvetica,sans-Serif" font-size="10.00">_w_info&lt; Type, RawSize,</text>
<text text-anchor="start" x="2544" y="-229" font-family="Helvetica,sans-Serif" font-size="10.00"> NRef, MetaInfoType &gt;,</text>
<text text-anchor="middle" x="2601" y="-216" font-family="Helvetica,sans-Serif" font-size="10.00"> RawSize &gt;</text>
</g>
<!-- Node26&#45;&gt;Node25 -->
<g id="edge70" class="edge"><title>Node26&#45;&gt;Node25</title>
<path fill="none" stroke="midnightblue" d="M2278.4,-135.671C2303.57,-138.862 2332.02,-142.467 2356.97,-145.63"/>
<polygon fill="midnightblue" stroke="midnightblue" points="2278.56,-132.163 2268.2,-134.378 2277.68,-139.108 2278.56,-132.163"/>
</g>
<!-- Node27&#45;&gt;Node1 -->
<g id="edge76" class="edge"><title>Node27&#45;&gt;Node1</title>
<path fill="none" stroke="#9a32cd" stroke-dasharray="5,2" d="M3354.11,-315.939C3371.91,-310.457 3391.36,-304.464 3409.76,-298.795"/>
<polygon fill="#9a32cd" stroke="#9a32cd" points="3352.94,-312.638 3344.42,-318.927 3355,-319.328 3352.94,-312.638"/>
<text text-anchor="middle" x="3378" y="-316" font-family="Helvetica,sans-Serif" font-size="10.00"> writer</text>
</g>
<!-- Node28&#45;&gt;Node27 -->
<g id="edge84" class="edge"><title>Node28&#45;&gt;Node27</title>
<path fill="none" stroke="orange" stroke-dasharray="5,2" d="M3090.94,-372.451C3127.07,-365.906 3173.07,-357.542 3214,-350 3219.73,-348.944 3225.71,-347.837 3231.68,-346.729"/>
<polygon fill="orange" stroke="orange" points="3090.24,-369.021 3081.02,-374.247 3091.48,-375.909 3090.24,-369.021"/>
<text text-anchor="middle" x="3163" y="-372" font-family="Helvetica,sans-Serif" font-size="10.00"> &lt; stxxl::typed_block &gt;</text>
</g>
</g>
</svg>
