<?xml version="1.0" encoding="UTF-8" standalone="no"?>
<!DOCTYPE svg PUBLIC "-//W3C//DTD SVG 1.1//EN"
 "http://www.w3.org/Graphics/SVG/1.1/DTD/svg11.dtd">
<!-- Generated by graphviz version 2.26.3 (20100126.1600)
 -->
<!-- Title: stxxl::vector&lt; ValueType, PageSize, PagerType, BlockSize, AllocStr, SizeType &gt; Pages: 1 -->
<svg width="1524pt" height="380pt"
 viewBox="0.00 0.00 1524.00 380.17" xmlns="http://www.w3.org/2000/svg" xmlns:xlink="http://www.w3.org/1999/xlink">
<g id="graph1" class="graph" transform="scale(1 1) rotate(0) translate(4 376.171)">
<title>stxxl::vector&lt; ValueType, PageSize, PagerType, BlockSize, AllocStr, SizeType &gt;</title>
<!-- Node1 -->
<g id="node1" class="node"><title>Node1</title>
<polygon fill="#bfbfbf" stroke="black" points="1348,-167.5 1348,-214.5 1516,-214.5 1516,-167.5 1348,-167.5"/>
<text text-anchor="start" x="1356" y="-201.5" font-family="Helvetica,sans-Serif" font-size="10.00">stxxl::vector&lt; ValueType,</text>
<text text-anchor="start" x="1356" y="-188.5" font-family="Helvetica,sans-Serif" font-size="10.00"> PageSize, PagerType, BlockSize,</text>
<text text-anchor="middle" x="1432" y="-175.5" font-family="Helvetica,sans-Serif" font-size="10.00"> AllocStr, SizeType &gt;</text>
</g>
<!-- Node2 -->
<g id="node2" class="node"><title>Node2</title>
<a xlink:href="classstxxl_1_1file.html" target="_top" xlink:title="Defines interface of file. ">
<polygon fill="none" stroke="black" points="770,-40.5 770,-61.5 826,-61.5 826,-40.5 770,-40.5"/>
<text text-anchor="middle" x="798" y="-48.5" font-family="Helvetica,sans-Serif" font-size="10.00">stxxl::file</text>
</a>
</g>
<!-- Node2&#45;&gt;Node1 -->
<g id="edge2" class="edge"><title>Node2&#45;&gt;Node1</title>
<path fill="none" stroke="#9a32cd" stroke-dasharray="5,2" d="M836.242,-50.5809C918.82,-50.7725 1119.03,-57.1731 1276,-110 1318.66,-124.358 1363.95,-149.06 1394.68,-167.42"/>
<polygon fill="#9a32cd" stroke="#9a32cd" points="836.072,-47.0809 826.075,-50.5881 836.077,-54.0809 836.072,-47.0809"/>
<text text-anchor="middle" x="1055" y="-72" font-family="Helvetica,sans-Serif" font-size="10.00"> m_from</text>
</g>
<!-- Node8 -->
<g id="node15" class="node"><title>Node8</title>
<a xlink:href="classstxxl_1_1block__manager.html" target="_top" xlink:title="Block manager class. ">
<polygon fill="none" stroke="black" points="1137,-119.5 1137,-140.5 1247,-140.5 1247,-119.5 1137,-119.5"/>
<text text-anchor="middle" x="1192" y="-127.5" font-family="Helvetica,sans-Serif" font-size="10.00">stxxl::block_manager</text>
</a>
</g>
<!-- Node2&#45;&gt;Node8 -->
<g id="edge26" class="edge"><title>Node2&#45;&gt;Node8</title>
<path fill="none" stroke="#9a32cd" stroke-dasharray="5,2" d="M836.243,-57.8223C850.045,-60.3302 865.735,-63.2339 880,-66 972.825,-83.9987 1080.85,-106.508 1142.35,-119.471"/>
<polygon fill="#9a32cd" stroke="#9a32cd" points="836.575,-54.3255 826.112,-55.9904 835.329,-61.2139 836.575,-54.3255"/>
<text text-anchor="middle" x="950" y="-94" font-family="Helvetica,sans-Serif" font-size="10.00"> disk_files</text>
</g>
<!-- Node11 -->
<g id="node24" class="node"><title>Node11</title>
<a xlink:href="classstxxl_1_1disk__allocator.html" target="_top" xlink:title="stxxl::disk_allocator">
<polygon fill="none" stroke="black" points="898,-113.5 898,-134.5 1002,-134.5 1002,-113.5 898,-113.5"/>
<text text-anchor="middle" x="950" y="-121.5" font-family="Helvetica,sans-Serif" font-size="10.00">stxxl::disk_allocator</text>
</a>
</g>
<!-- Node2&#45;&gt;Node11 -->
<g id="edge32" class="edge"><title>Node2&#45;&gt;Node11</title>
<path fill="none" stroke="#9a32cd" stroke-dasharray="5,2" d="M835.137,-65.3416C849.334,-71.0982 865.573,-78.0186 880,-85 898.283,-93.8471 918.48,-105.288 932.461,-113.487"/>
<polygon fill="#9a32cd" stroke="#9a32cd" points="836.267,-62.0237 825.682,-61.5556 833.665,-68.5221 836.267,-62.0237"/>
<text text-anchor="middle" x="862" y="-89" font-family="Helvetica,sans-Serif" font-size="10.00"> storage</text>
</g>
<!-- Node3 -->
<g id="node4" class="node"><title>Node3</title>
<a xlink:href="classstxxl_1_1noncopyable.html" target="_top" xlink:title="stxxl::noncopyable">
<polygon fill="none" stroke="black" points="11,-205.5 11,-226.5 109,-226.5 109,-205.5 11,-205.5"/>
<text text-anchor="middle" x="60" y="-213.5" font-family="Helvetica,sans-Serif" font-size="10.00">stxxl::noncopyable</text>
</a>
</g>
<!-- Node3&#45;&gt;Node2 -->
<g id="edge4" class="edge"><title>Node3&#45;&gt;Node2</title>
<path fill="none" stroke="#8b1a1a" d="M71.4149,-196.823C84.6555,-176.485 108.49,-145.237 138,-130 195.037,-100.549 651.495,-62.6152 769.982,-53.1914"/>
<polygon fill="#8b1a1a" stroke="#8b1a1a" points="68.4446,-194.972 66.0946,-205.303 74.3741,-198.692 68.4446,-194.972"/>
</g>
<!-- Node5 -->
<g id="node8" class="node"><title>Node5</title>
<a xlink:href="classstxxl_1_1mutex.html" target="_top" xlink:title="stxxl::mutex">
<polygon fill="none" stroke="black" points="287.5,-56.5 287.5,-77.5 358.5,-77.5 358.5,-56.5 287.5,-56.5"/>
<text text-anchor="middle" x="323" y="-64.5" font-family="Helvetica,sans-Serif" font-size="10.00">stxxl::mutex</text>
</a>
</g>
<!-- Node3&#45;&gt;Node5 -->
<g id="edge10" class="edge"><title>Node3&#45;&gt;Node5</title>
<path fill="none" stroke="#8b1a1a" d="M66.5144,-195.836C76.806,-167.511 99.6924,-116.652 138,-92 183.242,-62.8855 247.598,-61.0171 287.257,-63.3018"/>
<polygon fill="#8b1a1a" stroke="#8b1a1a" points="63.1376,-194.892 63.1809,-205.487 69.754,-197.177 63.1376,-194.892"/>
</g>
<!-- Node9 -->
<g id="node17" class="node"><title>Node9</title>
<a xlink:href="classstxxl_1_1singleton.html" target="_top" xlink:title="stxxl::singleton\&lt; block\l_manager \&gt;">
<polygon fill="none" stroke="black" points="552.5,-172 552.5,-206 667.5,-206 667.5,-172 552.5,-172"/>
<text text-anchor="start" x="560.5" y="-193" font-family="Helvetica,sans-Serif" font-size="10.00">stxxl::singleton&lt; block</text>
<text text-anchor="middle" x="610" y="-180" font-family="Helvetica,sans-Serif" font-size="10.00">_manager &gt;</text>
</a>
</g>
<!-- Node3&#45;&gt;Node9 -->
<g id="edge20" class="edge"><title>Node3&#45;&gt;Node9</title>
<path fill="none" stroke="#8b1a1a" d="M119.128,-219.33C209.193,-223.373 385.924,-227.259 534,-206 540.022,-205.135 546.276,-204.049 552.493,-202.847"/>
<polygon fill="#8b1a1a" stroke="#8b1a1a" points="119.26,-215.832 109.108,-218.863 118.934,-222.825 119.26,-215.832"/>
</g>
<!-- Node10 -->
<g id="node20" class="node"><title>Node10</title>
<a xlink:href="classstxxl_1_1singleton.html" target="_top" xlink:title="stxxl::singleton\&lt; INSTANCE,\l destroy_on_exit \&gt;">
<polygon fill="none" stroke="black" points="250,-172 250,-206 396,-206 396,-172 250,-172"/>
<text text-anchor="start" x="258" y="-193" font-family="Helvetica,sans-Serif" font-size="10.00">stxxl::singleton&lt; INSTANCE,</text>
<text text-anchor="middle" x="323" y="-180" font-family="Helvetica,sans-Serif" font-size="10.00"> destroy_on_exit &gt;</text>
</a>
</g>
<!-- Node3&#45;&gt;Node10 -->
<g id="edge24" class="edge"><title>Node3&#45;&gt;Node10</title>
<path fill="none" stroke="#8b1a1a" d="M119.232,-209.919C157.943,-205.945 208.774,-200.727 249.983,-196.496"/>
<polygon fill="#8b1a1a" stroke="#8b1a1a" points="118.75,-206.45 109.16,-210.953 119.465,-213.414 118.75,-206.45"/>
</g>
<!-- Node3&#45;&gt;Node11 -->
<g id="edge30" class="edge"><title>Node3&#45;&gt;Node11</title>
<path fill="none" stroke="#8b1a1a" d="M92.0296,-201.255C140.796,-180.19 237.08,-144 323,-144 323,-144 323,-144 798,-144 831.404,-144 868.586,-139.193 897.815,-134.293"/>
<polygon fill="#8b1a1a" stroke="#8b1a1a" points="90.3943,-198.15 82.6461,-205.376 93.2094,-204.559 90.3943,-198.15"/>
</g>
<!-- Node13 -->
<g id="node31" class="node"><title>Node13</title>
<a xlink:href="classstxxl_1_1simple__vector.html" target="_top" xlink:title="stxxl::simple_vector\l\&lt; stxxl::typed_block \&gt;">
<polygon fill="none" stroke="black" points="553,-255 553,-289 667,-289 667,-255 553,-255"/>
<text text-anchor="start" x="561" y="-276" font-family="Helvetica,sans-Serif" font-size="10.00">stxxl::simple_vector</text>
<text text-anchor="middle" x="610" y="-263" font-family="Helvetica,sans-Serif" font-size="10.00">&lt; stxxl::typed_block &gt;</text>
</a>
</g>
<!-- Node3&#45;&gt;Node13 -->
<g id="edge40" class="edge"><title>Node3&#45;&gt;Node13</title>
<path fill="none" stroke="#8b1a1a" d="M107.604,-228.881C117.586,-231.219 128.091,-233.415 138,-235 286.531,-258.754 463.902,-267.454 552.981,-270.485"/>
<polygon fill="#8b1a1a" stroke="#8b1a1a" points="108.38,-225.468 97.8372,-226.512 106.731,-232.27 108.38,-225.468"/>
</g>
<!-- Node14 -->
<g id="node34" class="node"><title>Node14</title>
<a xlink:href="classstxxl_1_1simple__vector.html" target="_top" xlink:title="Simpler non&#45;growing vector without initialization. ">
<polygon fill="none" stroke="black" points="271,-300 271,-334 375,-334 375,-300 271,-300"/>
<text text-anchor="start" x="279" y="-321" font-family="Helvetica,sans-Serif" font-size="10.00">stxxl::simple_vector</text>
<text text-anchor="middle" x="323" y="-308" font-family="Helvetica,sans-Serif" font-size="10.00">&lt; ValueType &gt;</text>
</a>
</g>
<!-- Node3&#45;&gt;Node14 -->
<g id="edge44" class="edge"><title>Node3&#45;&gt;Node14</title>
<path fill="none" stroke="#8b1a1a" d="M74.9816,-234.382C89.3598,-250.689 112.592,-273.767 138,-286 179.812,-306.131 232.398,-313.456 270.807,-315.994"/>
<polygon fill="#8b1a1a" stroke="#8b1a1a" points="77.461,-231.896 68.3051,-226.565 72.138,-236.442 77.461,-231.896"/>
</g>
<!-- Node15 -->
<g id="node37" class="node"><title>Node15</title>
<a xlink:href="classstxxl_1_1simple__vector.html" target="_top" xlink:title="stxxl::simple_vector\l\&lt; int_type \&gt;">
<polygon fill="none" stroke="black" points="558,-324 558,-358 662,-358 662,-324 558,-324"/>
<text text-anchor="start" x="566" y="-345" font-family="Helvetica,sans-Serif" font-size="10.00">stxxl::simple_vector</text>
<text text-anchor="middle" x="610" y="-332" font-family="Helvetica,sans-Serif" font-size="10.00">&lt; int_type &gt;</text>
</a>
</g>
<!-- Node3&#45;&gt;Node15 -->
<g id="edge48" class="edge"><title>Node3&#45;&gt;Node15</title>
<path fill="none" stroke="#8b1a1a" d="M70.7863,-235.525C83.867,-257.393 107.943,-292.34 138,-312 268.37,-397.275 464.791,-372.069 557.722,-353.312"/>
<polygon fill="#8b1a1a" stroke="#8b1a1a" points="73.7565,-233.67 65.7178,-226.768 67.6981,-237.176 73.7565,-233.67"/>
</g>
<!-- Node4 -->
<g id="node6" class="node"><title>Node4</title>
<a xlink:href="classstxxl_1_1atomic__counted__object.html" target="_top" xlink:title="Provides reference counting abilities for use with counting_ptr with mutex locking. ">
<polygon fill="none" stroke="black" points="553.5,-6 553.5,-40 666.5,-40 666.5,-6 553.5,-6"/>
<text text-anchor="start" x="561.5" y="-27" font-family="Helvetica,sans-Serif" font-size="10.00">stxxl::atomic_counted</text>
<text text-anchor="middle" x="610" y="-14" font-family="Helvetica,sans-Serif" font-size="10.00">_object</text>
</a>
</g>
<!-- Node4&#45;&gt;Node2 -->
<g id="edge6" class="edge"><title>Node4&#45;&gt;Node2</title>
<path fill="none" stroke="#9a32cd" stroke-dasharray="5,2" d="M676.82,-30.2423C700.619,-33.1457 727.57,-36.8045 752,-41 757.799,-41.996 763.975,-43.2227 769.857,-44.4716"/>
<polygon fill="#9a32cd" stroke="#9a32cd" points="677.176,-26.76 666.831,-29.0449 676.343,-33.7102 677.176,-26.76"/>
<text text-anchor="middle" x="719" y="-45" font-family="Helvetica,sans-Serif" font-size="10.00"> m_request_ref</text>
</g>
<!-- Node5&#45;&gt;Node4 -->
<g id="edge8" class="edge"><title>Node5&#45;&gt;Node4</title>
<path fill="none" stroke="#9a32cd" stroke-dasharray="5,2" d="M368.682,-59.9965C418.831,-52.3082 499.396,-39.9567 553.484,-31.6645"/>
<polygon fill="#9a32cd" stroke="#9a32cd" points="368.123,-56.5413 358.768,-61.5163 369.183,-63.4604 368.123,-56.5413"/>
<text text-anchor="middle" x="474" y="-57" font-family="Helvetica,sans-Serif" font-size="10.00"> m_reference_count_mutex</text>
</g>
<!-- Node5&#45;&gt;Node11 -->
<g id="edge34" class="edge"><title>Node5&#45;&gt;Node11</title>
<path fill="none" stroke="#9a32cd" stroke-dasharray="5,2" d="M368.612,-71.1466C482.302,-81.482 777.741,-108.34 897.964,-119.269"/>
<polygon fill="#9a32cd" stroke="#9a32cd" points="368.783,-67.6477 358.507,-70.2279 368.149,-74.619 368.783,-67.6477"/>
<text text-anchor="middle" x="719" y="-110" font-family="Helvetica,sans-Serif" font-size="10.00"> mutex</text>
</g>
<!-- Node6 -->
<g id="node11" class="node"><title>Node6</title>
<a xlink:href="structstxxl_1_1choose__int__types.html" target="_top" xlink:title="stxxl::choose_int_types\l\&lt; my_pointer_size \&gt;">
<polygon fill="none" stroke="black" points="263,-0 263,-34 383,-34 383,-0 263,-0"/>
<text text-anchor="start" x="271" y="-21" font-family="Helvetica,sans-Serif" font-size="10.00">stxxl::choose_int_types</text>
<text text-anchor="middle" x="323" y="-8" font-family="Helvetica,sans-Serif" font-size="10.00">&lt; my_pointer_size &gt;</text>
</a>
</g>
<!-- Node6&#45;&gt;Node4 -->
<g id="edge12" class="edge"><title>Node6&#45;&gt;Node4</title>
<path fill="none" stroke="#9a32cd" stroke-dasharray="5,2" d="M393.22,-16.2623C434.274,-16.0985 487.088,-16.3472 534,-18 540.211,-18.2188 546.703,-18.5258 553.164,-18.8813"/>
<polygon fill="#9a32cd" stroke="#9a32cd" points="393.029,-12.7631 383.046,-16.3122 393.063,-19.763 393.029,-12.7631"/>
<text text-anchor="middle" x="474" y="-22" font-family="Helvetica,sans-Serif" font-size="10.00"> m_reference_count</text>
</g>
<!-- Node7 -->
<g id="node13" class="node"><title>Node7</title>
<a xlink:href="structstxxl_1_1choose__int__types.html" target="_top" xlink:title="stxxl::choose_int_types\l\&lt; PtrSize \&gt;">
<polygon fill="none" stroke="black" points="0,-0 0,-34 120,-34 120,-0 0,-0"/>
<text text-anchor="start" x="8" y="-21" font-family="Helvetica,sans-Serif" font-size="10.00">stxxl::choose_int_types</text>
<text text-anchor="middle" x="60" y="-8" font-family="Helvetica,sans-Serif" font-size="10.00">&lt; PtrSize &gt;</text>
</a>
</g>
<!-- Node7&#45;&gt;Node6 -->
<g id="edge14" class="edge"><title>Node7&#45;&gt;Node6</title>
<path fill="none" stroke="orange" stroke-dasharray="5,2" d="M130.017,-17C171.397,-17 223.258,-17 262.795,-17"/>
<polygon fill="orange" stroke="orange" points="130.008,-13.5001 120.008,-17 130.008,-20.5001 130.008,-13.5001"/>
<text text-anchor="middle" x="185" y="-21" font-family="Helvetica,sans-Serif" font-size="10.00"> &lt; my_pointer_size &gt;</text>
</g>
<!-- Node8&#45;&gt;Node1 -->
<g id="edge16" class="edge"><title>Node8&#45;&gt;Node1</title>
<path fill="none" stroke="#9a32cd" stroke-dasharray="5,2" d="M1243.47,-143.082C1273.84,-150.8 1313.01,-160.756 1347.77,-169.592"/>
<polygon fill="#9a32cd" stroke="#9a32cd" points="1244.08,-139.627 1233.53,-140.556 1242.36,-146.411 1244.08,-139.627"/>
<text text-anchor="middle" x="1312" y="-168" font-family="Helvetica,sans-Serif" font-size="10.00"> m_bm</text>
</g>
<!-- Node9&#45;&gt;Node8 -->
<g id="edge18" class="edge"><title>Node9&#45;&gt;Node8</title>
<path fill="none" stroke="midnightblue" d="M677.841,-183.563C770.906,-175.894 943.34,-160.932 1090,-144 1105.18,-142.247 1121.6,-140.104 1136.74,-138.026"/>
<polygon fill="midnightblue" stroke="midnightblue" points="677.395,-180.088 667.715,-184.395 677.968,-187.064 677.395,-180.088"/>
</g>
<!-- Node10&#45;&gt;Node9 -->
<g id="edge22" class="edge"><title>Node10&#45;&gt;Node9</title>
<path fill="none" stroke="orange" stroke-dasharray="5,2" d="M406.299,-189C453.153,-189 510.464,-189 552.347,-189"/>
<polygon fill="orange" stroke="orange" points="406.165,-185.5 396.165,-189 406.165,-192.5 406.165,-185.5"/>
<text text-anchor="middle" x="474" y="-193" font-family="Helvetica,sans-Serif" font-size="10.00"> &lt; block_manager &gt;</text>
</g>
<!-- Node11&#45;&gt;Node8 -->
<g id="edge28" class="edge"><title>Node11&#45;&gt;Node8</title>
<path fill="none" stroke="#9a32cd" stroke-dasharray="5,2" d="M1012.28,-125.544C1050.81,-126.499 1099.83,-127.715 1136.94,-128.635"/>
<polygon fill="#9a32cd" stroke="#9a32cd" points="1012.3,-122.044 1002.21,-125.295 1012.12,-129.041 1012.3,-122.044"/>
<text text-anchor="middle" x="1055" y="-131" font-family="Helvetica,sans-Serif" font-size="10.00"> disk_allocators</text>
</g>
<!-- Node12 -->
<g id="node29" class="node"><title>Node12</title>
<a xlink:href="classstxxl_1_1vector_1_1bid__vector.html" target="_top" xlink:title="stxxl::vector\&lt; ValueType,\l PageSize, PagerType, BlockSize,\l AllocStr, SizeType \&gt;::bid_vector">
<polygon fill="none" stroke="black" points="1108,-167.5 1108,-214.5 1276,-214.5 1276,-167.5 1108,-167.5"/>
<text text-anchor="start" x="1116" y="-201.5" font-family="Helvetica,sans-Serif" font-size="10.00">stxxl::vector&lt; ValueType,</text>
<text text-anchor="start" x="1116" y="-188.5" font-family="Helvetica,sans-Serif" font-size="10.00"> PageSize, PagerType, BlockSize,</text>
<text text-anchor="middle" x="1192" y="-175.5" font-family="Helvetica,sans-Serif" font-size="10.00"> AllocStr, SizeType &gt;::bid_vector</text>
</a>
</g>
<!-- Node12&#45;&gt;Node1 -->
<g id="edge36" class="edge"><title>Node12&#45;&gt;Node1</title>
<path fill="none" stroke="#9a32cd" stroke-dasharray="5,2" d="M1286.46,-191C1306.75,-191 1328.06,-191 1347.93,-191"/>
<polygon fill="#9a32cd" stroke="#9a32cd" points="1286.28,-187.5 1276.28,-191 1286.28,-194.5 1286.28,-187.5"/>
<text text-anchor="middle" x="1312" y="-195" font-family="Helvetica,sans-Serif" font-size="10.00"> m_bids</text>
</g>
<!-- Node13&#45;&gt;Node1 -->
<g id="edge38" class="edge"><title>Node13&#45;&gt;Node1</title>
<path fill="none" stroke="#9a32cd" stroke-dasharray="5,2" d="M677.343,-261.879C713.101,-257.345 757.841,-253 798,-253 798,-253 798,-253 1192,-253 1255.91,-253 1326.43,-232.138 1374.39,-214.616"/>
<polygon fill="#9a32cd" stroke="#9a32cd" points="676.493,-258.46 667.029,-263.223 677.398,-265.401 676.493,-258.46"/>
<text text-anchor="middle" x="950" y="-257" font-family="Helvetica,sans-Serif" font-size="10.00"> m_cache</text>
</g>
<!-- Node14&#45;&gt;Node13 -->
<g id="edge42" class="edge"><title>Node14&#45;&gt;Node13</title>
<path fill="none" stroke="orange" stroke-dasharray="5,2" d="M385.317,-307.229C435.158,-299.414 504.471,-288.546 552.887,-280.955"/>
<polygon fill="orange" stroke="orange" points="384.644,-303.792 375.307,-308.799 385.728,-310.707 384.644,-303.792"/>
<text text-anchor="middle" x="474" y="-306" font-family="Helvetica,sans-Serif" font-size="10.00"> &lt; stxxl::typed_block &gt;</text>
</g>
<!-- Node14&#45;&gt;Node15 -->
<g id="edge50" class="edge"><title>Node14&#45;&gt;Node15</title>
<path fill="none" stroke="orange" stroke-dasharray="5,2" d="M385.311,-322.211C436.782,-326.515 509.023,-332.556 557.568,-336.615"/>
<polygon fill="orange" stroke="orange" points="385.563,-318.72 375.307,-321.374 384.98,-325.695 385.563,-318.72"/>
<text text-anchor="middle" x="474" y="-338" font-family="Helvetica,sans-Serif" font-size="10.00"> &lt; int_type &gt;</text>
</g>
<!-- Node15&#45;&gt;Node1 -->
<g id="edge46" class="edge"><title>Node15&#45;&gt;Node1</title>
<path fill="none" stroke="#9a32cd" stroke-dasharray="5,2" d="M672.159,-332.045C708.718,-327.53 755.892,-323 798,-323 798,-323 798,-323 1192,-323 1280.92,-323 1368,-252.567 1408.47,-214.599"/>
<polygon fill="#9a32cd" stroke="#9a32cd" points="671.623,-328.585 662.142,-333.314 672.503,-335.529 671.623,-328.585"/>
<text text-anchor="middle" x="950" y="-327" font-family="Helvetica,sans-Serif" font-size="10.00"> m_slot_to_page</text>
</g>
</g>
</svg>
