<?xml version="1.0" encoding="UTF-8" standalone="no"?>
<!DOCTYPE svg PUBLIC "-//W3C//DTD SVG 1.1//EN"
 "http://www.w3.org/Graphics/SVG/1.1/DTD/svg11.dtd">
<!-- Generated by graphviz version 2.26.3 (20100126.1600)
 -->
<!-- Title: stxxl::priority_queue_local::loser_tree&lt; ValueType, CompareType, MaxArity &gt; Pages: 1 -->
<svg width="752pt" height="176pt"
 viewBox="0.00 0.00 752.00 176.00" xmlns="http://www.w3.org/2000/svg" xmlns:xlink="http://www.w3.org/1999/xlink">
<g id="graph1" class="graph" transform="scale(1 1) rotate(0) translate(4 172)">
<title>stxxl::priority_queue_local::loser_tree&lt; ValueType, CompareType, MaxArity &gt;</title>
<!-- Node1 -->
<g id="node1" class="node"><title>Node1</title>
<polygon fill="#bfbfbf" stroke="black" points="594.5,-53.5 594.5,-100.5 743.5,-100.5 743.5,-53.5 594.5,-53.5"/>
<text text-anchor="start" x="602.5" y="-87.5" font-family="Helvetica,sans-Serif" font-size="10.00">stxxl::priority_queue</text>
<text text-anchor="start" x="602.5" y="-74.5" font-family="Helvetica,sans-Serif" font-size="10.00">_local::loser_tree&lt; ValueType,</text>
<text text-anchor="middle" x="669" y="-61.5" font-family="Helvetica,sans-Serif" font-size="10.00"> CompareType, MaxArity &gt;</text>
</g>
<!-- Node2 -->
<g id="node2" class="node"><title>Node2</title>
<a xlink:href="classstxxl_1_1noncopyable.html" target="_top" xlink:title="stxxl::noncopyable">
<polygon fill="none" stroke="black" points="359,-146.5 359,-167.5 457,-167.5 457,-146.5 359,-146.5"/>
<text text-anchor="middle" x="408" y="-154.5" font-family="Helvetica,sans-Serif" font-size="10.00">stxxl::noncopyable</text>
</a>
</g>
<!-- Node2&#45;&gt;Node1 -->
<g id="edge2" class="edge"><title>Node2&#45;&gt;Node1</title>
<path fill="none" stroke="#8b1a1a" d="M467.622,-159.618C500.497,-159.207 541.518,-155.593 576,-143 601.292,-133.763 625.958,-115.713 643.526,-100.821"/>
<polygon fill="#8b1a1a" stroke="#8b1a1a" points="467.243,-156.118 457.253,-159.646 467.262,-163.118 467.243,-156.118"/>
</g>
<!-- Node3 -->
<g id="node4" class="node"><title>Node3</title>
<a xlink:href="structstxxl_1_1choose__int__types.html" target="_top" xlink:title="stxxl::choose_int_types\l\&lt; my_pointer_size \&gt;">
<polygon fill="none" stroke="black" points="348,-66 348,-100 468,-100 468,-66 348,-66"/>
<text text-anchor="start" x="356" y="-87" font-family="Helvetica,sans-Serif" font-size="10.00">stxxl::choose_int_types</text>
<text text-anchor="middle" x="408" y="-74" font-family="Helvetica,sans-Serif" font-size="10.00">&lt; my_pointer_size &gt;</text>
</a>
</g>
<!-- Node3&#45;&gt;Node1 -->
<g id="edge4" class="edge"><title>Node3&#45;&gt;Node1</title>
<path fill="none" stroke="#9a32cd" stroke-dasharray="5,2" d="M478.416,-79.2165C489.647,-78.7279 501.14,-78.2955 512,-78 538.839,-77.2697 568.267,-76.9533 594.319,-76.8405"/>
<polygon fill="#9a32cd" stroke="#9a32cd" points="478.034,-75.7301 468.203,-79.6788 478.351,-82.723 478.034,-75.7301"/>
<text text-anchor="middle" x="544" y="-134" font-family="Helvetica,sans-Serif" font-size="10.00"> segment_size</text>
<text text-anchor="middle" x="544" y="-121" font-family="Helvetica,sans-Serif" font-size="10.00">mem_cons_</text>
<text text-anchor="middle" x="544" y="-108" font-family="Helvetica,sans-Serif" font-size="10.00">k</text>
<text text-anchor="middle" x="544" y="-95" font-family="Helvetica,sans-Serif" font-size="10.00">size_</text>
<text text-anchor="middle" x="544" y="-82" font-family="Helvetica,sans-Serif" font-size="10.00">logK</text>
</g>
<!-- Node4 -->
<g id="node6" class="node"><title>Node4</title>
<a xlink:href="structstxxl_1_1choose__int__types.html" target="_top" xlink:title="stxxl::choose_int_types\l\&lt; PtrSize \&gt;">
<polygon fill="none" stroke="black" points="18,-66 18,-100 138,-100 138,-66 18,-66"/>
<text text-anchor="start" x="26" y="-87" font-family="Helvetica,sans-Serif" font-size="10.00">stxxl::choose_int_types</text>
<text text-anchor="middle" x="78" y="-74" font-family="Helvetica,sans-Serif" font-size="10.00">&lt; PtrSize &gt;</text>
</a>
</g>
<!-- Node4&#45;&gt;Node3 -->
<g id="edge6" class="edge"><title>Node4&#45;&gt;Node3</title>
<path fill="none" stroke="orange" stroke-dasharray="5,2" d="M148.188,-83C207.556,-83 291.712,-83 347.992,-83"/>
<polygon fill="orange" stroke="orange" points="148.143,-79.5001 138.143,-83 148.143,-86.5001 148.143,-79.5001"/>
<text text-anchor="middle" x="239" y="-87" font-family="Helvetica,sans-Serif" font-size="10.00"> &lt; my_pointer_size &gt;</text>
</g>
<!-- Node5 -->
<g id="node8" class="node"><title>Node5</title>
<a xlink:href="classstxxl_1_1priority__queue__local_1_1internal__bounded__stack.html" target="_top" xlink:title="stxxl::priority_queue\l_local::internal_bounded\l_stack\&lt; unsigned_type, MaxArity \&gt;">
<polygon fill="none" stroke="black" points="322,-0.5 322,-47.5 494,-47.5 494,-0.5 322,-0.5"/>
<text text-anchor="start" x="330" y="-34.5" font-family="Helvetica,sans-Serif" font-size="10.00">stxxl::priority_queue</text>
<text text-anchor="start" x="330" y="-21.5" font-family="Helvetica,sans-Serif" font-size="10.00">_local::internal_bounded</text>
<text text-anchor="middle" x="408" y="-8.5" font-family="Helvetica,sans-Serif" font-size="10.00">_stack&lt; unsigned_type, MaxArity &gt;</text>
</a>
</g>
<!-- Node5&#45;&gt;Node1 -->
<g id="edge8" class="edge"><title>Node5&#45;&gt;Node1</title>
<path fill="none" stroke="#9a32cd" stroke-dasharray="5,2" d="M504.165,-43.5277C533.913,-49.5686 566.224,-56.1298 594.293,-61.8295"/>
<polygon fill="#9a32cd" stroke="#9a32cd" points="504.681,-40.0612 494.185,-41.5011 503.288,-46.9212 504.681,-40.0612"/>
<text text-anchor="middle" x="544" y="-60" font-family="Helvetica,sans-Serif" font-size="10.00"> free_slots</text>
</g>
<!-- Node6 -->
<g id="node10" class="node"><title>Node6</title>
<a xlink:href="classstxxl_1_1priority__queue__local_1_1internal__bounded__stack.html" target="_top" xlink:title="Similar to std::stack, with the following differences: ">
<polygon fill="none" stroke="black" points="0.5,-0.5 0.5,-47.5 155.5,-47.5 155.5,-0.5 0.5,-0.5"/>
<text text-anchor="start" x="8.5" y="-34.5" font-family="Helvetica,sans-Serif" font-size="10.00">stxxl::priority_queue</text>
<text text-anchor="start" x="8.5" y="-21.5" font-family="Helvetica,sans-Serif" font-size="10.00">_local::internal_bounded</text>
<text text-anchor="middle" x="78" y="-8.5" font-family="Helvetica,sans-Serif" font-size="10.00">_stack&lt; ValueType, MaxSize &gt;</text>
</a>
</g>
<!-- Node6&#45;&gt;Node5 -->
<g id="edge10" class="edge"><title>Node6&#45;&gt;Node5</title>
<path fill="none" stroke="orange" stroke-dasharray="5,2" d="M165.903,-24C214.154,-24 273.751,-24 321.74,-24"/>
<polygon fill="orange" stroke="orange" points="165.788,-20.5001 155.788,-24 165.787,-27.5001 165.788,-20.5001"/>
<text text-anchor="middle" x="239" y="-28" font-family="Helvetica,sans-Serif" font-size="10.00"> &lt; unsigned_type, MaxArity &gt;</text>
</g>
</g>
</svg>
