<?xml version="1.0" encoding="UTF-8" standalone="no"?>
<!DOCTYPE svg PUBLIC "-//W3C//DTD SVG 1.1//EN"
 "http://www.w3.org/Graphics/SVG/1.1/DTD/svg11.dtd">
<!-- Generated by graphviz version 2.26.3 (20100126.1600)
 -->
<!-- Title: stxxl::block_manager Pages: 1 -->
<svg width="223pt" height="250pt"
 viewBox="0.00 0.00 223.00 250.00" xmlns="http://www.w3.org/2000/svg" xmlns:xlink="http://www.w3.org/1999/xlink">
<g id="graph1" class="graph" transform="scale(1 1) rotate(0) translate(4 246)">
<title>stxxl::block_manager</title>
<!-- Node1 -->
<g id="node1" class="node"><title>Node1</title>
<polygon fill="#bfbfbf" stroke="black" points="2,-0.5 2,-21.5 112,-21.5 112,-0.5 2,-0.5"/>
<text text-anchor="middle" x="57" y="-8.5" font-family="Helvetica,sans-Serif" font-size="10.00">stxxl::block_manager</text>
</g>
<!-- Node2 -->
<g id="node2" class="node"><title>Node2</title>
<a xlink:href="classstxxl_1_1singleton.html" target="_top" xlink:title="stxxl::singleton\&lt; block\l_manager \&gt;">
<polygon fill="none" stroke="black" points="-0.5,-61 -0.5,-95 114.5,-95 114.5,-61 -0.5,-61"/>
<text text-anchor="start" x="7.5" y="-82" font-family="Helvetica,sans-Serif" font-size="10.00">stxxl::singleton&lt; block</text>
<text text-anchor="middle" x="57" y="-69" font-family="Helvetica,sans-Serif" font-size="10.00">_manager &gt;</text>
</a>
</g>
<!-- Node2&#45;&gt;Node1 -->
<g id="edge2" class="edge"><title>Node2&#45;&gt;Node1</title>
<path fill="none" stroke="midnightblue" d="M57,-50.5344C57,-40.3057 57,-29.3007 57,-21.5056"/>
<polygon fill="midnightblue" stroke="midnightblue" points="53.5001,-50.7458 57,-60.7458 60.5001,-50.7459 53.5001,-50.7458"/>
</g>
<!-- Node3 -->
<g id="node4" class="node"><title>Node3</title>
<a xlink:href="classstxxl_1_1noncopyable.html" target="_top" xlink:title="stxxl::noncopyable">
<polygon fill="none" stroke="black" points="23,-220.5 23,-241.5 121,-241.5 121,-220.5 23,-220.5"/>
<text text-anchor="middle" x="72" y="-228.5" font-family="Helvetica,sans-Serif" font-size="10.00">stxxl::noncopyable</text>
</a>
</g>
<!-- Node3&#45;&gt;Node2 -->
<g id="edge4" class="edge"><title>Node3&#45;&gt;Node2</title>
<path fill="none" stroke="#8b1a1a" d="M65.9708,-210.559C63.6667,-201.839 61.2859,-191.502 60,-182 55.8822,-151.57 55.9104,-115.693 56.3941,-95.0224"/>
<polygon fill="#8b1a1a" stroke="#8b1a1a" points="62.6091,-211.534 68.6644,-220.228 69.3523,-209.655 62.6091,-211.534"/>
</g>
<!-- Node4 -->
<g id="node6" class="node"><title>Node4</title>
<a xlink:href="classstxxl_1_1singleton.html" target="_top" xlink:title="stxxl::singleton\&lt; INSTANCE,\l destroy_on_exit \&gt;">
<polygon fill="none" stroke="black" points="69,-147 69,-181 215,-181 215,-147 69,-147"/>
<text text-anchor="start" x="77" y="-168" font-family="Helvetica,sans-Serif" font-size="10.00">stxxl::singleton&lt; INSTANCE,</text>
<text text-anchor="middle" x="142" y="-155" font-family="Helvetica,sans-Serif" font-size="10.00"> destroy_on_exit &gt;</text>
</a>
</g>
<!-- Node3&#45;&gt;Node4 -->
<g id="edge8" class="edge"><title>Node3&#45;&gt;Node4</title>
<path fill="none" stroke="#8b1a1a" d="M90.638,-213.161C101.05,-203.195 113.955,-190.843 124.224,-181.014"/>
<polygon fill="#8b1a1a" stroke="#8b1a1a" points="88.0508,-210.792 83.2467,-220.235 92.891,-215.849 88.0508,-210.792"/>
</g>
<!-- Node4&#45;&gt;Node2 -->
<g id="edge6" class="edge"><title>Node4&#45;&gt;Node2</title>
<path fill="none" stroke="orange" stroke-dasharray="5,2" d="M117.416,-139.127C103.453,-125 86.3319,-107.677 73.8854,-95.084"/>
<polygon fill="orange" stroke="orange" points="115.28,-141.945 124.799,-146.597 120.259,-137.024 115.28,-141.945"/>
<text text-anchor="middle" x="148" y="-118.5" font-family="Helvetica,sans-Serif" font-size="10.00"> &lt; block_manager &gt;</text>
</g>
</g>
</svg>
