<?xml version="1.0" encoding="UTF-8" standalone="no"?>
<!DOCTYPE svg PUBLIC "-//W3C//DTD SVG 1.1//EN"
 "http://www.w3.org/Graphics/SVG/1.1/DTD/svg11.dtd">
<!-- Generated by graphviz version 2.26.3 (20100126.1600)
 -->
<!-- Title: stxxl::parallel::LoserTreeCopyUnguardedBase&lt; ValueType, Comparator &gt; Pages: 1 -->
<svg width="514pt" height="122pt"
 viewBox="0.00 0.00 514.00 122.00" xmlns="http://www.w3.org/2000/svg" xmlns:xlink="http://www.w3.org/1999/xlink">
<g id="graph1" class="graph" transform="scale(1 1) rotate(0) translate(4 118)">
<title>stxxl::parallel::LoserTreeCopyUnguardedBase&lt; ValueType, Comparator &gt;</title>
<!-- Node1 -->
<g id="node1" class="node"><title>Node1</title>
<polygon fill="#bfbfbf" stroke="black" points="134,-33.5 134,-80.5 302,-80.5 302,-33.5 134,-33.5"/>
<text text-anchor="start" x="142" y="-67.5" font-family="Helvetica,sans-Serif" font-size="10.00">stxxl::parallel::LoserTree</text>
<text text-anchor="start" x="142" y="-54.5" font-family="Helvetica,sans-Serif" font-size="10.00">CopyUnguardedBase&lt; ValueType,</text>
<text text-anchor="middle" x="218" y="-41.5" font-family="Helvetica,sans-Serif" font-size="10.00"> Comparator &gt;</text>
</g>
<!-- Node3 -->
<g id="node5" class="node"><title>Node3</title>
<a xlink:href="classstxxl_1_1parallel_1_1LoserTreeCopyUnguarded.html" target="_top" xlink:title="stxxl::parallel::LoserTree\lCopyUnguarded\&lt; ValueType,\l Comparator \&gt;">
<polygon fill="none" stroke="black" points="349,-66.5 349,-113.5 495,-113.5 495,-66.5 349,-66.5"/>
<text text-anchor="start" x="357" y="-100.5" font-family="Helvetica,sans-Serif" font-size="10.00">stxxl::parallel::LoserTree</text>
<text text-anchor="start" x="357" y="-87.5" font-family="Helvetica,sans-Serif" font-size="10.00">CopyUnguarded&lt; ValueType,</text>
<text text-anchor="middle" x="422" y="-74.5" font-family="Helvetica,sans-Serif" font-size="10.00"> Comparator &gt;</text>
</a>
</g>
<!-- Node1&#45;&gt;Node3 -->
<g id="edge4" class="edge"><title>Node1&#45;&gt;Node3</title>
<path fill="none" stroke="midnightblue" d="M312.374,-72.2663C324.602,-74.2444 336.977,-76.2462 348.79,-78.1573"/>
<polygon fill="midnightblue" stroke="midnightblue" points="312.583,-68.7548 302.152,-70.6129 311.465,-75.6649 312.583,-68.7548"/>
</g>
<!-- Node4 -->
<g id="node7" class="node"><title>Node4</title>
<a xlink:href="classstxxl_1_1parallel_1_1LoserTreeCopyUnguarded_3_01true_00_01ValueType_00_01Comparator_01_4.html" target="_top" xlink:title="stxxl::parallel::LoserTree\lCopyUnguarded\&lt; true, ValueType,\l Comparator \&gt;">
<polygon fill="none" stroke="black" points="338,-0.5 338,-47.5 506,-47.5 506,-0.5 338,-0.5"/>
<text text-anchor="start" x="346" y="-34.5" font-family="Helvetica,sans-Serif" font-size="10.00">stxxl::parallel::LoserTree</text>
<text text-anchor="start" x="346" y="-21.5" font-family="Helvetica,sans-Serif" font-size="10.00">CopyUnguarded&lt; true, ValueType,</text>
<text text-anchor="middle" x="422" y="-8.5" font-family="Helvetica,sans-Serif" font-size="10.00"> Comparator &gt;</text>
</a>
</g>
<!-- Node1&#45;&gt;Node4 -->
<g id="edge6" class="edge"><title>Node1&#45;&gt;Node4</title>
<path fill="none" stroke="midnightblue" d="M312.124,-41.7741C320.66,-40.3933 329.269,-39.0006 337.712,-37.6349"/>
<polygon fill="midnightblue" stroke="midnightblue" points="311.465,-38.3351 302.152,-43.3871 312.583,-45.2452 311.465,-38.3351"/>
</g>
<!-- Node2 -->
<g id="node2" class="node"><title>Node2</title>
<a xlink:href="classstxxl_1_1noncopyable.html" target="_top" xlink:title="stxxl::noncopyable">
<polygon fill="none" stroke="black" points="0,-46.5 0,-67.5 98,-67.5 98,-46.5 0,-46.5"/>
<text text-anchor="middle" x="49" y="-54.5" font-family="Helvetica,sans-Serif" font-size="10.00">stxxl::noncopyable</text>
</a>
</g>
<!-- Node2&#45;&gt;Node1 -->
<g id="edge2" class="edge"><title>Node2&#45;&gt;Node1</title>
<path fill="none" stroke="#8b1a1a" d="M108.554,-57C116.788,-57 125.369,-57 133.944,-57"/>
<polygon fill="#8b1a1a" stroke="#8b1a1a" points="108.336,-53.5001 98.3361,-57 108.336,-60.5001 108.336,-53.5001"/>
</g>
</g>
</svg>
