<?xml version="1.0" encoding="UTF-8" standalone="no"?>
<!DOCTYPE svg PUBLIC "-//W3C//DTD SVG 1.1//EN"
 "http://www.w3.org/Graphics/SVG/1.1/DTD/svg11.dtd">
<!-- Generated by graphviz version 2.26.3 (20100126.1600)
 -->
<!-- Title: stxxl::fileperblock_file&lt; base_file_type &gt; Pages: 1 -->
<svg width="335pt" height="422pt"
 viewBox="0.00 0.00 335.00 422.00" xmlns="http://www.w3.org/2000/svg" xmlns:xlink="http://www.w3.org/1999/xlink">
<g id="graph1" class="graph" transform="scale(1 1) rotate(0) translate(4 418)">
<title>stxxl::fileperblock_file&lt; base_file_type &gt;</title>
<!-- Node1 -->
<g id="node1" class="node"><title>Node1</title>
<polygon fill="#bfbfbf" stroke="black" points="0,-1 0,-35 116,-35 116,-1 0,-1"/>
<text text-anchor="start" x="8" y="-22" font-family="Helvetica,sans-Serif" font-size="10.00">stxxl::fileperblock</text>
<text text-anchor="middle" x="58" y="-9" font-family="Helvetica,sans-Serif" font-size="10.00">_file&lt; base_file_type &gt;</text>
</g>
<!-- Node2 -->
<g id="node2" class="node"><title>Node2</title>
<a xlink:href="classstxxl_1_1disk__queued__file.html" target="_top" xlink:title="Implementation of some file methods based on serving_request. ">
<polygon fill="none" stroke="black" points="0,-74.5 0,-95.5 116,-95.5 116,-74.5 0,-74.5"/>
<text text-anchor="middle" x="58" y="-82.5" font-family="Helvetica,sans-Serif" font-size="10.00">stxxl::disk_queued_file</text>
</a>
</g>
<!-- Node2&#45;&gt;Node1 -->
<g id="edge2" class="edge"><title>Node2&#45;&gt;Node1</title>
<path fill="none" stroke="midnightblue" d="M58,-64.1655C58,-54.7973 58,-43.8796 58,-35.0139"/>
<polygon fill="midnightblue" stroke="midnightblue" points="54.5001,-64.2353 58,-74.2353 61.5001,-64.2353 54.5001,-64.2353"/>
</g>
<!-- Node3 -->
<g id="node4" class="node"><title>Node3</title>
<a xlink:href="classstxxl_1_1file.html" target="_top" xlink:title="Defines interface of file. ">
<polygon fill="none" stroke="black" points="30,-134.5 30,-155.5 86,-155.5 86,-134.5 30,-134.5"/>
<text text-anchor="middle" x="58" y="-142.5" font-family="Helvetica,sans-Serif" font-size="10.00">stxxl::file</text>
</a>
</g>
<!-- Node3&#45;&gt;Node2 -->
<g id="edge4" class="edge"><title>Node3&#45;&gt;Node2</title>
<path fill="none" stroke="midnightblue" d="M58,-124.231C58,-114.592 58,-103.544 58,-95.6339"/>
<polygon fill="midnightblue" stroke="midnightblue" points="54.5001,-124.273 58,-134.273 61.5001,-124.273 54.5001,-124.273"/>
</g>
<!-- Node4 -->
<g id="node6" class="node"><title>Node4</title>
<a xlink:href="classstxxl_1_1noncopyable.html" target="_top" xlink:title="stxxl::noncopyable">
<polygon fill="none" stroke="black" points="2,-385.5 2,-406.5 100,-406.5 100,-385.5 2,-385.5"/>
<text text-anchor="middle" x="51" y="-393.5" font-family="Helvetica,sans-Serif" font-size="10.00">stxxl::noncopyable</text>
</a>
</g>
<!-- Node4&#45;&gt;Node3 -->
<g id="edge6" class="edge"><title>Node4&#45;&gt;Node3</title>
<path fill="none" stroke="#8b1a1a" d="M49.3318,-374.856C46.8594,-339.728 43.0208,-267.152 48,-206 49.4457,-188.244 53.2212,-167.867 55.6972,-155.733"/>
<polygon fill="#8b1a1a" stroke="#8b1a1a" points="45.8735,-375.549 50.1032,-385.263 52.8543,-375.032 45.8735,-375.549"/>
</g>
<!-- Node6 -->
<g id="node10" class="node"><title>Node6</title>
<a xlink:href="classstxxl_1_1mutex.html" target="_top" xlink:title="stxxl::mutex">
<polygon fill="none" stroke="black" points="56.5,-299.5 56.5,-320.5 127.5,-320.5 127.5,-299.5 56.5,-299.5"/>
<text text-anchor="middle" x="92" y="-307.5" font-family="Helvetica,sans-Serif" font-size="10.00">stxxl::mutex</text>
</a>
</g>
<!-- Node4&#45;&gt;Node6 -->
<g id="edge12" class="edge"><title>Node4&#45;&gt;Node6</title>
<path fill="none" stroke="#8b1a1a" d="M60.4235,-376.234C68.6694,-358.937 80.3324,-334.474 86.9315,-320.632"/>
<polygon fill="#8b1a1a" stroke="#8b1a1a" points="57.1715,-374.922 56.0274,-385.455 63.4902,-377.934 57.1715,-374.922"/>
</g>
<!-- Node5 -->
<g id="node8" class="node"><title>Node5</title>
<a xlink:href="classstxxl_1_1atomic__counted__object.html" target="_top" xlink:title="Provides reference counting abilities for use with counting_ptr with mutex locking. ">
<polygon fill="none" stroke="black" points="56.5,-207 56.5,-241 169.5,-241 169.5,-207 56.5,-207"/>
<text text-anchor="start" x="64.5" y="-228" font-family="Helvetica,sans-Serif" font-size="10.00">stxxl::atomic_counted</text>
<text text-anchor="middle" x="113" y="-215" font-family="Helvetica,sans-Serif" font-size="10.00">_object</text>
</a>
</g>
<!-- Node5&#45;&gt;Node3 -->
<g id="edge8" class="edge"><title>Node5&#45;&gt;Node3</title>
<path fill="none" stroke="#9a32cd" stroke-dasharray="5,2" d="M95.0912,-198.276C84.9932,-183.772 72.9227,-166.434 65.3569,-155.567"/>
<polygon fill="#9a32cd" stroke="#9a32cd" points="92.4797,-200.651 101.066,-206.858 98.2245,-196.651 92.4797,-200.651"/>
<text text-anchor="middle" x="121" y="-178.5" font-family="Helvetica,sans-Serif" font-size="10.00"> m_request_ref</text>
</g>
<!-- Node6&#45;&gt;Node5 -->
<g id="edge10" class="edge"><title>Node6&#45;&gt;Node5</title>
<path fill="none" stroke="#9a32cd" stroke-dasharray="5,2" d="M90.1907,-289.329C89.9558,-280.195 90.4594,-269.416 93,-260 94.7508,-253.511 97.9124,-246.934 101.213,-241.208"/>
<polygon fill="#9a32cd" stroke="#9a32cd" points="86.7038,-289.662 90.7563,-299.451 93.6929,-289.271 86.7038,-289.662"/>
<text text-anchor="middle" x="152.5" y="-264.5" font-family="Helvetica,sans-Serif" font-size="10.00"> m_reference_count_mutex</text>
</g>
<!-- Node7 -->
<g id="node13" class="node"><title>Node7</title>
<a xlink:href="structstxxl_1_1choose__int__types.html" target="_top" xlink:title="stxxl::choose_int_types\l\&lt; my_pointer_size \&gt;">
<polygon fill="none" stroke="black" points="174,-293 174,-327 294,-327 294,-293 174,-293"/>
<text text-anchor="start" x="182" y="-314" font-family="Helvetica,sans-Serif" font-size="10.00">stxxl::choose_int_types</text>
<text text-anchor="middle" x="234" y="-301" font-family="Helvetica,sans-Serif" font-size="10.00">&lt; my_pointer_size &gt;</text>
</a>
</g>
<!-- Node7&#45;&gt;Node5 -->
<g id="edge14" class="edge"><title>Node7&#45;&gt;Node5</title>
<path fill="none" stroke="#9a32cd" stroke-dasharray="5,2" d="M226.782,-283.194C223.432,-274.866 218.667,-266.243 212,-260 200.185,-248.937 184.708,-241.221 169.512,-235.86"/>
<polygon fill="#9a32cd" stroke="#9a32cd" points="223.491,-284.388 230.093,-292.675 230.1,-282.08 223.491,-284.388"/>
<text text-anchor="middle" x="264.5" y="-264.5" font-family="Helvetica,sans-Serif" font-size="10.00"> m_reference_count</text>
</g>
<!-- Node8 -->
<g id="node15" class="node"><title>Node8</title>
<a xlink:href="structstxxl_1_1choose__int__types.html" target="_top" xlink:title="stxxl::choose_int_types\l\&lt; PtrSize \&gt;">
<polygon fill="none" stroke="black" points="174,-379 174,-413 294,-413 294,-379 174,-379"/>
<text text-anchor="start" x="182" y="-400" font-family="Helvetica,sans-Serif" font-size="10.00">stxxl::choose_int_types</text>
<text text-anchor="middle" x="234" y="-387" font-family="Helvetica,sans-Serif" font-size="10.00">&lt; PtrSize &gt;</text>
</a>
</g>
<!-- Node8&#45;&gt;Node7 -->
<g id="edge16" class="edge"><title>Node8&#45;&gt;Node7</title>
<path fill="none" stroke="orange" stroke-dasharray="5,2" d="M234,-368.342C234,-354.774 234,-338.861 234,-327.084"/>
<polygon fill="orange" stroke="orange" points="230.5,-368.597 234,-378.597 237.5,-368.597 230.5,-368.597"/>
<text text-anchor="middle" x="280.5" y="-350.5" font-family="Helvetica,sans-Serif" font-size="10.00"> &lt; my_pointer_size &gt;</text>
</g>
</g>
</svg>
