<?xml version="1.0" encoding="UTF-8" standalone="no"?>
<!DOCTYPE svg PUBLIC "-//W3C//DTD SVG 1.1//EN"
 "http://www.w3.org/Graphics/SVG/1.1/DTD/svg11.dtd">
<!-- Generated by graphviz version 2.26.3 (20100126.1600)
 -->
<!-- Title: stxxl::stream::basic_runs_creator&lt; Input_, CompareType_, BlockSize_, AllocStr_ &gt; Pages: 1 -->
<svg width="954pt" height="152pt"
 viewBox="0.00 0.00 954.00 152.00" xmlns="http://www.w3.org/2000/svg" xmlns:xlink="http://www.w3.org/1999/xlink">
<g id="graph1" class="graph" transform="scale(1 1) rotate(0) translate(4 148)">
<title>stxxl::stream::basic_runs_creator&lt; Input_, CompareType_, BlockSize_, AllocStr_ &gt;</title>
<!-- Node1 -->
<g id="node1" class="node"><title>Node1</title>
<polygon fill="#bfbfbf" stroke="black" points="136.5,-40 136.5,-100 281.5,-100 281.5,-40 136.5,-40"/>
<text text-anchor="start" x="144.5" y="-87" font-family="Helvetica,sans-Serif" font-size="10.00">stxxl::stream::basic</text>
<text text-anchor="start" x="144.5" y="-74" font-family="Helvetica,sans-Serif" font-size="10.00">_runs_creator&lt; Input</text>
<text text-anchor="start" x="144.5" y="-61" font-family="Helvetica,sans-Serif" font-size="10.00">_, CompareType_, BlockSize</text>
<text text-anchor="middle" x="209" y="-48" font-family="Helvetica,sans-Serif" font-size="10.00">_, AllocStr_ &gt;</text>
</g>
<!-- Node3 -->
<g id="node5" class="node"><title>Node3</title>
<a xlink:href="classstxxl_1_1stream_1_1runs__creator.html" target="_top" xlink:title="Forms sorted runs of data from a stream. ">
<polygon fill="none" stroke="black" points="472.5,-92.5 472.5,-139.5 627.5,-139.5 627.5,-92.5 472.5,-92.5"/>
<text text-anchor="start" x="480.5" y="-126.5" font-family="Helvetica,sans-Serif" font-size="10.00">stxxl::stream::runs</text>
<text text-anchor="start" x="480.5" y="-113.5" font-family="Helvetica,sans-Serif" font-size="10.00">_creator&lt; Input_, CompareType</text>
<text text-anchor="middle" x="550" y="-100.5" font-family="Helvetica,sans-Serif" font-size="10.00">_, BlockSize_, AllocStr_ &gt;</text>
</a>
</g>
<!-- Node1&#45;&gt;Node3 -->
<g id="edge4" class="edge"><title>Node1&#45;&gt;Node3</title>
<path fill="none" stroke="midnightblue" d="M291.795,-93.4326C294.555,-93.9941 297.296,-94.5192 300,-95 357.249,-105.179 422.776,-110.452 472.378,-113.168"/>
<polygon fill="midnightblue" stroke="midnightblue" points="292.257,-89.9517 281.743,-91.2545 290.775,-96.7929 292.257,-89.9517"/>
</g>
<!-- Node5 -->
<g id="node9" class="node"><title>Node5</title>
<a xlink:href="classstxxl_1_1stream_1_1basic__runs__creator.html" target="_top" xlink:title="stxxl::stream::basic\l_runs_creator\&lt; stream\l::use_push\&lt; ValueType\l \&gt;, cmp_type, BlockSize\l_, alloc_strategy_type \&gt;">
<polygon fill="none" stroke="black" points="487.5,-0.5 487.5,-73.5 612.5,-73.5 612.5,-0.5 487.5,-0.5"/>
<text text-anchor="start" x="495.5" y="-60.5" font-family="Helvetica,sans-Serif" font-size="10.00">stxxl::stream::basic</text>
<text text-anchor="start" x="495.5" y="-47.5" font-family="Helvetica,sans-Serif" font-size="10.00">_runs_creator&lt; stream</text>
<text text-anchor="start" x="495.5" y="-34.5" font-family="Helvetica,sans-Serif" font-size="10.00">::use_push&lt; ValueType</text>
<text text-anchor="start" x="495.5" y="-21.5" font-family="Helvetica,sans-Serif" font-size="10.00"> &gt;, cmp_type, BlockSize</text>
<text text-anchor="middle" x="550" y="-8.5" font-family="Helvetica,sans-Serif" font-size="10.00">_, alloc_strategy_type &gt;</text>
</a>
</g>
<!-- Node1&#45;&gt;Node5 -->
<g id="edge8" class="edge"><title>Node1&#45;&gt;Node5</title>
<path fill="none" stroke="orange" stroke-dasharray="5,2" d="M291.905,-56.9727C294.634,-56.6311 297.338,-56.3055 300,-56 363.677,-48.693 436.813,-43.5057 487.459,-40.4172"/>
<polygon fill="orange" stroke="orange" points="291.409,-53.5076 281.947,-58.2731 292.316,-60.4487 291.409,-53.5076"/>
<text text-anchor="start" x="300.5" y="-86" font-family="Helvetica,sans-Serif" font-size="10.00"> &lt; stream::use_push</text>
<text text-anchor="start" x="300.5" y="-73" font-family="Helvetica,sans-Serif" font-size="10.00">&lt; ValueType &gt;, cmp_type,</text>
<text text-anchor="middle" x="377" y="-60" font-family="Helvetica,sans-Serif" font-size="10.00"> BlockSize_, alloc_strategy_type &gt;</text>
</g>
<!-- Node2 -->
<g id="node2" class="node"><title>Node2</title>
<a xlink:href="classstxxl_1_1noncopyable.html" target="_top" xlink:title="stxxl::noncopyable">
<polygon fill="none" stroke="black" points="0,-59.5 0,-80.5 98,-80.5 98,-59.5 0,-59.5"/>
<text text-anchor="middle" x="49" y="-67.5" font-family="Helvetica,sans-Serif" font-size="10.00">stxxl::noncopyable</text>
</a>
</g>
<!-- Node2&#45;&gt;Node1 -->
<g id="edge2" class="edge"><title>Node2&#45;&gt;Node1</title>
<path fill="none" stroke="#8b1a1a" d="M108.395,-70C117.495,-70 126.976,-70 136.323,-70"/>
<polygon fill="#8b1a1a" stroke="#8b1a1a" points="108.311,-66.5001 98.3108,-70 108.311,-73.5001 108.311,-66.5001"/>
</g>
<!-- Node4 -->
<g id="node7" class="node"><title>Node4</title>
<a xlink:href="classstxxl_1_1stream_1_1runs__creator.html" target="_top" xlink:title="stxxl::stream::runs\l_creator\&lt; stream::use\l_push\&lt; ValueType \&gt;, cmp\l_type, block_size, alloc\l_strategy_type \&gt;">
<polygon fill="none" stroke="black" points="814,-45.5 814,-118.5 946,-118.5 946,-45.5 814,-45.5"/>
<text text-anchor="start" x="822" y="-105.5" font-family="Helvetica,sans-Serif" font-size="10.00">stxxl::stream::runs</text>
<text text-anchor="start" x="822" y="-92.5" font-family="Helvetica,sans-Serif" font-size="10.00">_creator&lt; stream::use</text>
<text text-anchor="start" x="822" y="-79.5" font-family="Helvetica,sans-Serif" font-size="10.00">_push&lt; ValueType &gt;, cmp</text>
<text text-anchor="start" x="822" y="-66.5" font-family="Helvetica,sans-Serif" font-size="10.00">_type, block_size, alloc</text>
<text text-anchor="middle" x="880" y="-53.5" font-family="Helvetica,sans-Serif" font-size="10.00">_strategy_type &gt;</text>
</a>
</g>
<!-- Node3&#45;&gt;Node4 -->
<g id="edge6" class="edge"><title>Node3&#45;&gt;Node4</title>
<path fill="none" stroke="orange" stroke-dasharray="5,2" d="M637.925,-106.941C693.189,-101.247 763.33,-94.0205 813.868,-88.8136"/>
<polygon fill="orange" stroke="orange" points="637.376,-103.479 627.788,-107.986 638.094,-110.442 637.376,-103.479"/>
<text text-anchor="start" x="646" y="-135" font-family="Helvetica,sans-Serif" font-size="10.00"> &lt; stream::use_push</text>
<text text-anchor="start" x="646" y="-122" font-family="Helvetica,sans-Serif" font-size="10.00">&lt; ValueType &gt;, cmp_type,</text>
<text text-anchor="middle" x="721" y="-109" font-family="Helvetica,sans-Serif" font-size="10.00"> block_size, alloc_strategy_type &gt;</text>
</g>
<!-- Node5&#45;&gt;Node4 -->
<g id="edge10" class="edge"><title>Node5&#45;&gt;Node4</title>
<path fill="none" stroke="midnightblue" d="M622.888,-46.9393C679.986,-54.7254 758.739,-65.4645 813.994,-72.9992"/>
<polygon fill="midnightblue" stroke="midnightblue" points="623.228,-43.4534 612.847,-45.5701 622.283,-50.3892 623.228,-43.4534"/>
</g>
</g>
</svg>
