<?xml version="1.0" encoding="UTF-8" standalone="no"?>
<!DOCTYPE svg PUBLIC "-//W3C//DTD SVG 1.1//EN"
 "http://www.w3.org/Graphics/SVG/1.1/DTD/svg11.dtd">
<!-- Generated by graphviz version 2.26.3 (20100126.1600)
 -->
<!-- Title: stxxl::hash_map::block_cache&lt; BlockType &gt; Pages: 1 -->
<svg width="1066pt" height="258pt"
 viewBox="0.00 0.00 1066.00 258.00" xmlns="http://www.w3.org/2000/svg" xmlns:xlink="http://www.w3.org/1999/xlink">
<g id="graph1" class="graph" transform="scale(1 1) rotate(0) translate(4 254)">
<title>stxxl::hash_map::block_cache&lt; BlockType &gt;</title>
<!-- Node1 -->
<g id="node1" class="node"><title>Node1</title>
<polygon fill="#bfbfbf" stroke="black" points="940,-110 940,-144 1058,-144 1058,-110 940,-110"/>
<text text-anchor="start" x="948" y="-131" font-family="Helvetica,sans-Serif" font-size="10.00">stxxl::hash_map::block</text>
<text text-anchor="middle" x="999" y="-118" font-family="Helvetica,sans-Serif" font-size="10.00">_cache&lt; BlockType &gt;</text>
</g>
<!-- Node2 -->
<g id="node2" class="node"><title>Node2</title>
<a xlink:href="classstxxl_1_1noncopyable.html" target="_top" xlink:title="stxxl::noncopyable">
<polygon fill="none" stroke="black" points="0,-145.5 0,-166.5 98,-166.5 98,-145.5 0,-145.5"/>
<text text-anchor="middle" x="49" y="-153.5" font-family="Helvetica,sans-Serif" font-size="10.00">stxxl::noncopyable</text>
</a>
</g>
<!-- Node2&#45;&gt;Node1 -->
<g id="edge2" class="edge"><title>Node2&#45;&gt;Node1</title>
<path fill="none" stroke="#8b1a1a" d="M66.9964,-173.84C96.496,-201.101 158.168,-250 221,-250 221,-250 221,-250 789,-250 871.813,-250 950.917,-177.9 983.448,-144.103"/>
<polygon fill="#8b1a1a" stroke="#8b1a1a" points="69.2195,-171.124 59.5549,-166.783 64.4029,-176.204 69.2195,-171.124"/>
</g>
<!-- Node5 -->
<g id="node8" class="node"><title>Node5</title>
<a xlink:href="classstxxl_1_1lru__pager.html" target="_top" xlink:title="Pager with LRU replacement strategy. ">
<polygon fill="none" stroke="black" points="720,-150.5 720,-171.5 858,-171.5 858,-150.5 720,-150.5"/>
<text text-anchor="middle" x="789" y="-158.5" font-family="Helvetica,sans-Serif" font-size="10.00">stxxl::lru_pager&lt; npages_ &gt;</text>
</a>
</g>
<!-- Node2&#45;&gt;Node5 -->
<g id="edge10" class="edge"><title>Node2&#45;&gt;Node5</title>
<path fill="none" stroke="#8b1a1a" d="M94.9681,-168.939C101.968,-170.538 109.143,-171.969 116,-173 124.801,-174.323 127.11,-173.585 136,-174 337.641,-183.41 388.302,-195.091 590,-187 639.898,-184.998 652.527,-184.799 702,-178 714.502,-176.282 727.921,-173.92 740.387,-171.503"/>
<polygon fill="#8b1a1a" stroke="#8b1a1a" points="95.4374,-165.451 84.895,-166.504 93.7926,-172.255 95.4374,-165.451"/>
</g>
<!-- Node6 -->
<g id="node11" class="node"><title>Node6</title>
<a xlink:href="classstxxl_1_1simple__vector.html" target="_top" xlink:title="stxxl::simple_vector\l\&lt; list_type::iterator \&gt;">
<polygon fill="none" stroke="black" points="459.5,-144 459.5,-178 566.5,-178 566.5,-144 459.5,-144"/>
<text text-anchor="start" x="467.5" y="-165" font-family="Helvetica,sans-Serif" font-size="10.00">stxxl::simple_vector</text>
<text text-anchor="middle" x="513" y="-152" font-family="Helvetica,sans-Serif" font-size="10.00">&lt; list_type::iterator &gt;</text>
</a>
</g>
<!-- Node2&#45;&gt;Node6 -->
<g id="edge14" class="edge"><title>Node2&#45;&gt;Node6</title>
<path fill="none" stroke="#8b1a1a" d="M108.227,-158.779C110.853,-158.862 113.454,-158.937 116,-159 238.82,-162.058 383.076,-161.827 459.372,-161.405"/>
<polygon fill="#8b1a1a" stroke="#8b1a1a" points="108.142,-155.274 98.0251,-158.42 107.896,-162.27 108.142,-155.274"/>
</g>
<!-- Node7 -->
<g id="node14" class="node"><title>Node7</title>
<a xlink:href="classstxxl_1_1simple__vector.html" target="_top" xlink:title="Simpler non&#45;growing vector without initialization. ">
<polygon fill="none" stroke="black" points="169,-112 169,-146 273,-146 273,-112 169,-112"/>
<text text-anchor="start" x="177" y="-133" font-family="Helvetica,sans-Serif" font-size="10.00">stxxl::simple_vector</text>
<text text-anchor="middle" x="221" y="-120" font-family="Helvetica,sans-Serif" font-size="10.00">&lt; ValueType &gt;</text>
</a>
</g>
<!-- Node2&#45;&gt;Node7 -->
<g id="edge18" class="edge"><title>Node2&#45;&gt;Node7</title>
<path fill="none" stroke="#8b1a1a" d="M108.339,-146.685C127.964,-143.604 149.645,-140.201 168.703,-137.209"/>
<polygon fill="#8b1a1a" stroke="#8b1a1a" points="107.625,-143.254 98.2883,-148.263 108.71,-150.17 107.625,-143.254"/>
</g>
<!-- Node8 -->
<g id="node17" class="node"><title>Node8</title>
<a xlink:href="classstxxl_1_1hash__map_1_1block__cache__write__buffer.html" target="_top" xlink:title="stxxl::hash_map::block\l_cache_write_buffer\&lt; block\l_type \&gt;">
<polygon fill="none" stroke="black" points="444.5,-66.5 444.5,-113.5 581.5,-113.5 581.5,-66.5 444.5,-66.5"/>
<text text-anchor="start" x="452.5" y="-100.5" font-family="Helvetica,sans-Serif" font-size="10.00">stxxl::hash_map::block</text>
<text text-anchor="start" x="452.5" y="-87.5" font-family="Helvetica,sans-Serif" font-size="10.00">_cache_write_buffer&lt; block</text>
<text text-anchor="middle" x="513" y="-74.5" font-family="Helvetica,sans-Serif" font-size="10.00">_type &gt;</text>
</a>
</g>
<!-- Node2&#45;&gt;Node8 -->
<g id="edge22" class="edge"><title>Node2&#45;&gt;Node8</title>
<path fill="none" stroke="#8b1a1a" d="M69.5215,-139.275C86.2844,-126.705 111.183,-110.428 136,-103 239.992,-71.8755 367.363,-75.6051 444.245,-82.1031"/>
<polygon fill="#8b1a1a" stroke="#8b1a1a" points="67.3125,-136.559 61.5407,-145.443 71.5932,-142.097 67.3125,-136.559"/>
</g>
<!-- Node9 -->
<g id="node20" class="node"><title>Node9</title>
<a xlink:href="classstxxl_1_1hash__map_1_1block__cache__write__buffer.html" target="_top" xlink:title="Used inside block_cache for buffering write requests of cached blocks. ">
<polygon fill="none" stroke="black" points="136.5,-22 136.5,-56 305.5,-56 305.5,-22 136.5,-22"/>
<text text-anchor="start" x="144.5" y="-43" font-family="Helvetica,sans-Serif" font-size="10.00">stxxl::hash_map::block</text>
<text text-anchor="middle" x="221" y="-30" font-family="Helvetica,sans-Serif" font-size="10.00">_cache_write_buffer&lt; BlockType &gt;</text>
</a>
</g>
<!-- Node2&#45;&gt;Node9 -->
<g id="edge26" class="edge"><title>Node2&#45;&gt;Node9</title>
<path fill="none" stroke="#8b1a1a" d="M59.4642,-136.285C70.8515,-116.685 90.843,-87.1376 116,-70 124.168,-64.4355 133.351,-59.8525 142.798,-56.0818"/>
<polygon fill="#8b1a1a" stroke="#8b1a1a" points="56.2714,-134.824 54.4459,-145.26 62.3812,-138.24 56.2714,-134.824"/>
</g>
<!-- Node3 -->
<g id="node4" class="node"><title>Node3</title>
<a xlink:href="structstxxl_1_1compat__hash__map.html" target="_top" xlink:title="stxxl::compat_hash\l_map\&lt; bid_type, unsigned\l_type, bid_hash \&gt;">
<polygon fill="none" stroke="black" points="723.5,-11.5 723.5,-58.5 854.5,-58.5 854.5,-11.5 723.5,-11.5"/>
<text text-anchor="start" x="731.5" y="-45.5" font-family="Helvetica,sans-Serif" font-size="10.00">stxxl::compat_hash</text>
<text text-anchor="start" x="731.5" y="-32.5" font-family="Helvetica,sans-Serif" font-size="10.00">_map&lt; bid_type, unsigned</text>
<text text-anchor="middle" x="789" y="-19.5" font-family="Helvetica,sans-Serif" font-size="10.00">_type, bid_hash &gt;</text>
</a>
</g>
<!-- Node3&#45;&gt;Node1 -->
<g id="edge4" class="edge"><title>Node3&#45;&gt;Node1</title>
<path fill="none" stroke="#9a32cd" stroke-dasharray="5,2" d="M864.167,-55.6286C883.396,-61.8953 903.779,-69.4281 922,-78 940.926,-86.9035 960.807,-99.6528 975.625,-109.915"/>
<polygon fill="#9a32cd" stroke="#9a32cd" points="865.127,-52.261 854.536,-52.5618 863.003,-58.931 865.127,-52.261"/>
<text text-anchor="middle" x="899" y="-82" font-family="Helvetica,sans-Serif" font-size="10.00"> bid_map_</text>
</g>
<!-- Node4 -->
<g id="node6" class="node"><title>Node4</title>
<a xlink:href="structstxxl_1_1compat__hash__map.html" target="_top" xlink:title="stxxl::compat_hash\l_map\&lt; KeyType, MappedType,\l HashType \&gt;">
<polygon fill="none" stroke="black" points="436,-0.5 436,-47.5 590,-47.5 590,-0.5 436,-0.5"/>
<text text-anchor="start" x="444" y="-34.5" font-family="Helvetica,sans-Serif" font-size="10.00">stxxl::compat_hash</text>
<text text-anchor="start" x="444" y="-21.5" font-family="Helvetica,sans-Serif" font-size="10.00">_map&lt; KeyType, MappedType,</text>
<text text-anchor="middle" x="513" y="-8.5" font-family="Helvetica,sans-Serif" font-size="10.00"> HashType &gt;</text>
</a>
</g>
<!-- Node4&#45;&gt;Node3 -->
<g id="edge6" class="edge"><title>Node4&#45;&gt;Node3</title>
<path fill="none" stroke="orange" stroke-dasharray="5,2" d="M600.494,-27.4871C640.333,-29.0749 686.686,-30.9223 723.459,-32.3878"/>
<polygon fill="orange" stroke="orange" points="600.38,-23.9798 590.248,-27.0787 600.101,-30.9743 600.38,-23.9798"/>
<text text-anchor="start" x="608" y="-49" font-family="Helvetica,sans-Serif" font-size="10.00"> &lt; bid_type, unsigned</text>
<text text-anchor="middle" x="655" y="-36" font-family="Helvetica,sans-Serif" font-size="10.00">_type, bid_hash &gt;</text>
</g>
<!-- Node5&#45;&gt;Node1 -->
<g id="edge8" class="edge"><title>Node5&#45;&gt;Node1</title>
<path fill="none" stroke="#9a32cd" stroke-dasharray="5,2" d="M864.112,-148.839C888.932,-144.82 916.184,-140.408 939.655,-136.608"/>
<polygon fill="#9a32cd" stroke="#9a32cd" points="863.319,-145.422 854.007,-150.475 864.438,-152.332 863.319,-145.422"/>
<text text-anchor="middle" x="899" y="-150" font-family="Helvetica,sans-Serif" font-size="10.00"> pager_</text>
</g>
<!-- Node6&#45;&gt;Node5 -->
<g id="edge12" class="edge"><title>Node6&#45;&gt;Node5</title>
<path fill="none" stroke="#9a32cd" stroke-dasharray="5,2" d="M576.571,-161C619.421,-161 675.931,-161 719.894,-161"/>
<polygon fill="#9a32cd" stroke="#9a32cd" points="576.543,-157.5 566.543,-161 576.543,-164.5 576.543,-157.5"/>
<text text-anchor="middle" x="655" y="-165" font-family="Helvetica,sans-Serif" font-size="10.00"> history_entry</text>
</g>
<!-- Node7&#45;&gt;Node6 -->
<g id="edge16" class="edge"><title>Node7&#45;&gt;Node6</title>
<path fill="none" stroke="orange" stroke-dasharray="5,2" d="M283.44,-133.819C322.225,-137.032 373.078,-141.642 418,-147 431.409,-148.599 445.843,-150.588 459.311,-152.56"/>
<polygon fill="orange" stroke="orange" points="283.597,-130.32 273.344,-132.992 283.025,-137.297 283.597,-130.32"/>
<text text-anchor="middle" x="371" y="-151" font-family="Helvetica,sans-Serif" font-size="10.00"> &lt; list_type::iterator &gt;</text>
</g>
<!-- Node8&#45;&gt;Node1 -->
<g id="edge20" class="edge"><title>Node8&#45;&gt;Node1</title>
<path fill="none" stroke="#9a32cd" stroke-dasharray="5,2" d="M591.682,-95.9902C689.038,-103.402 852.598,-115.854 939.897,-122.5"/>
<polygon fill="#9a32cd" stroke="#9a32cd" points="591.838,-92.492 581.601,-95.2227 591.307,-99.4718 591.838,-92.492"/>
<text text-anchor="middle" x="789" y="-119" font-family="Helvetica,sans-Serif" font-size="10.00"> write_buffer_</text>
</g>
<!-- Node9&#45;&gt;Node8 -->
<g id="edge24" class="edge"><title>Node9&#45;&gt;Node8</title>
<path fill="none" stroke="orange" stroke-dasharray="5,2" d="M315.572,-42.9599C348.277,-45.5622 384.992,-49.8705 418,-57 429.264,-59.4329 441.034,-62.8047 452.301,-66.4696"/>
<polygon fill="orange" stroke="orange" points="315.795,-39.4668 305.56,-42.2057 315.269,-46.447 315.795,-39.4668"/>
<text text-anchor="middle" x="371" y="-61" font-family="Helvetica,sans-Serif" font-size="10.00"> &lt; block_type &gt;</text>
</g>
</g>
</svg>
