<?xml version="1.0" encoding="UTF-8" standalone="no"?>
<!DOCTYPE svg PUBLIC "-//W3C//DTD SVG 1.1//EN"
 "http://www.w3.org/Graphics/SVG/1.1/DTD/svg11.dtd">
<!-- Generated by graphviz version 2.38.0 (20140413.2041)
 -->
<!-- Title: stxxl::hash_map::block_cache&lt; BlockType &gt; Pages: 1 -->
<svg width="136pt" height="174pt"
 viewBox="0.00 0.00 136.00 174.00" xmlns="http://www.w3.org/2000/svg" xmlns:xlink="http://www.w3.org/1999/xlink">
<g id="graph0" class="graph" transform="scale(1 1) rotate(0) translate(4 170)">
<title>stxxl::hash_map::block_cache&lt; BlockType &gt;</title>
<!-- Node1 -->
<g id="node1" class="node"><title>Node1</title>
<polygon fill="#bfbfbf" stroke="black" points="0,-78.5 0,-108.5 118,-108.5 118,-78.5 0,-78.5"/>
<text text-anchor="start" x="8" y="-96.5" font-family="Helvetica,sans-Serif" font-size="10.00">stxxl::hash_map::block</text>
<text text-anchor="middle" x="59" y="-85.5" font-family="Helvetica,sans-Serif" font-size="10.00">_cache&lt; BlockType &gt;</text>
</g>
<!-- Node3 -->
<g id="node3" class="node"><title>Node3</title>
<g id="a_node3"><a xlink:href="classstxxl_1_1hash__map_1_1block__cache.html" target="_top" xlink:title="stxxl::hash_map::block\l_cache\&lt; block_type \&gt;">
<polygon fill="none" stroke="black" points="0,-0.5 0,-30.5 118,-30.5 118,-0.5 0,-0.5"/>
<text text-anchor="start" x="8" y="-18.5" font-family="Helvetica,sans-Serif" font-size="10.00">stxxl::hash_map::block</text>
<text text-anchor="middle" x="59" y="-7.5" font-family="Helvetica,sans-Serif" font-size="10.00">_cache&lt; block_type &gt;</text>
</a>
</g>
</g>
<!-- Node1&#45;&gt;Node3 -->
<g id="edge2" class="edge"><title>Node1&#45;&gt;Node3</title>
<path fill="none" stroke="orange" stroke-dasharray="5,2" d="M59,-68.0898C59,-55.7565 59,-41.2237 59,-30.7309"/>
<polygon fill="orange" stroke="orange" points="55.5001,-68.2049 59,-78.205 62.5001,-68.205 55.5001,-68.2049"/>
<text text-anchor="middle" x="93.5" y="-52" font-family="Helvetica,sans-Serif" font-size="10.00"> &lt; block_type &gt;</text>
</g>
<!-- Node2 -->
<g id="node2" class="node"><title>Node2</title>
<g id="a_node2"><a xlink:href="classstxxl_1_1noncopyable.html" target="_top" xlink:title="stxxl::noncopyable">
<polygon fill="none" stroke="black" points="10,-146.5 10,-165.5 108,-165.5 108,-146.5 10,-146.5"/>
<text text-anchor="middle" x="59" y="-153.5" font-family="Helvetica,sans-Serif" font-size="10.00">stxxl::noncopyable</text>
</a>
</g>
</g>
<!-- Node2&#45;&gt;Node1 -->
<g id="edge1" class="edge"><title>Node2&#45;&gt;Node1</title>
<path fill="none" stroke="#8b1a1a" d="M59,-136.215C59,-127.356 59,-116.958 59,-108.759"/>
<polygon fill="#8b1a1a" stroke="#8b1a1a" points="55.5001,-136.332 59,-146.332 62.5001,-136.332 55.5001,-136.332"/>
</g>
</g>
</svg>
