<?xml version="1.0" encoding="UTF-8" standalone="no"?>
<!DOCTYPE svg PUBLIC "-//W3C//DTD SVG 1.1//EN"
 "http://www.w3.org/Graphics/SVG/1.1/DTD/svg11.dtd">
<!-- Generated by graphviz version 2.38.0 (20140413.2041)
 -->
<!-- Title: stxxl::const_matrix_row_major_iterator&lt; ValueType, BlockSideLength &gt; Pages: 1 -->
<svg width="2487pt" height="364pt"
 viewBox="0.00 0.00 2487.00 363.50" xmlns="http://www.w3.org/2000/svg" xmlns:xlink="http://www.w3.org/1999/xlink">
<g id="graph0" class="graph" transform="scale(1 1) rotate(0) translate(4 359.5)">
<title>stxxl::const_matrix_row_major_iterator&lt; ValueType, BlockSideLength &gt;</title>
<!-- Node1 -->
<g id="node1" class="node"><title>Node1</title>
<polygon fill="#bfbfbf" stroke="black" points="2318,-199 2318,-240 2479,-240 2479,-199 2318,-199"/>
<text text-anchor="start" x="2326" y="-228" font-family="Helvetica,sans-Serif" font-size="10.00">stxxl::const_matrix</text>
<text text-anchor="start" x="2326" y="-217" font-family="Helvetica,sans-Serif" font-size="10.00">_row_major_iterator</text>
<text text-anchor="middle" x="2398.5" y="-206" font-family="Helvetica,sans-Serif" font-size="10.00">&lt; ValueType, BlockSideLength &gt;</text>
</g>
<!-- Node2 -->
<g id="node2" class="node"><title>Node2</title>
<g id="a_node2"><a xlink:href="classstxxl_1_1const__matrix__iterator.html" target="_top" xlink:title="general const_iterator type that points to single elements inside a matrix ">
<polygon fill="none" stroke="black" points="2171,-199 2171,-240 2281,-240 2281,-199 2171,-199"/>
<text text-anchor="start" x="2179" y="-228" font-family="Helvetica,sans-Serif" font-size="10.00">stxxl::const_matrix</text>
<text text-anchor="start" x="2179" y="-217" font-family="Helvetica,sans-Serif" font-size="10.00">_iterator&lt; ValueType,</text>
<text text-anchor="middle" x="2226" y="-206" font-family="Helvetica,sans-Serif" font-size="10.00"> BlockSideLength &gt;</text>
</a>
</g>
</g>
<!-- Node2&#45;&gt;Node1 -->
<g id="edge1" class="edge"><title>Node2&#45;&gt;Node1</title>
<path fill="none" stroke="midnightblue" d="M2291.67,-219.5C2300.21,-219.5 2309.05,-219.5 2317.81,-219.5"/>
<polygon fill="midnightblue" stroke="midnightblue" points="2291.42,-216 2281.42,-219.5 2291.42,-223 2291.42,-216"/>
</g>
<!-- Node3 -->
<g id="node3" class="node"><title>Node3</title>
<g id="a_node3"><a xlink:href="classstxxl_1_1matrix.html" target="_top" xlink:title="External matrix container. &#160;&#160;Introduction &#160;to matrix container: see STXXL Matrix tutorial. &#160;&#160;Design and Internals &#160;of matrix container: see Matrix. ">
<polygon fill="none" stroke="black" points="1994,-204.5 1994,-234.5 2123,-234.5 2123,-204.5 1994,-204.5"/>
<text text-anchor="start" x="2002" y="-222.5" font-family="Helvetica,sans-Serif" font-size="10.00">stxxl::matrix&lt; ValueType,</text>
<text text-anchor="middle" x="2058.5" y="-211.5" font-family="Helvetica,sans-Serif" font-size="10.00"> BlockSideLength &gt;</text>
</a>
</g>
</g>
<!-- Node3&#45;&gt;Node2 -->
<g id="edge2" class="edge"><title>Node3&#45;&gt;Node2</title>
<path fill="none" stroke="#9a32cd" stroke-dasharray="5,2" d="M2133.1,-219.5C2145.79,-219.5 2158.76,-219.5 2170.82,-219.5"/>
<polygon fill="#9a32cd" stroke="#9a32cd" points="2133.01,-216 2123.01,-219.5 2133.01,-223 2133.01,-216"/>
<text text-anchor="middle" x="2147" y="-222.5" font-family="Helvetica,sans-Serif" font-size="10.00"> m</text>
</g>
<!-- Node4 -->
<g id="node4" class="node"><title>Node4</title>
<g id="a_node4"><a xlink:href="classstxxl_1_1counting__ptr.html" target="_top" xlink:title="stxxl::counting_ptr\l\&lt; swappable_block_matrix\l_type \&gt;">
<polygon fill="none" stroke="black" points="1803,-199 1803,-240 1936,-240 1936,-199 1803,-199"/>
<text text-anchor="start" x="1811" y="-228" font-family="Helvetica,sans-Serif" font-size="10.00">stxxl::counting_ptr</text>
<text text-anchor="start" x="1811" y="-217" font-family="Helvetica,sans-Serif" font-size="10.00">&lt; swappable_block_matrix</text>
<text text-anchor="middle" x="1869.5" y="-206" font-family="Helvetica,sans-Serif" font-size="10.00">_type &gt;</text>
</a>
</g>
</g>
<!-- Node4&#45;&gt;Node3 -->
<g id="edge3" class="edge"><title>Node4&#45;&gt;Node3</title>
<path fill="none" stroke="#9a32cd" stroke-dasharray="5,2" d="M1946.4,-219.5C1962.16,-219.5 1978.61,-219.5 1993.88,-219.5"/>
<polygon fill="#9a32cd" stroke="#9a32cd" points="1946.17,-216 1936.17,-219.5 1946.17,-223 1946.17,-216"/>
<text text-anchor="middle" x="1965" y="-222.5" font-family="Helvetica,sans-Serif" font-size="10.00"> data</text>
</g>
<!-- Node5 -->
<g id="node5" class="node"><title>Node5</title>
<g id="a_node5"><a xlink:href="classstxxl_1_1swappable__block__matrix.html" target="_top" xlink:title="External container for a (sub)matrix. Not intended for direct use. ">
<polygon fill="none" stroke="black" points="1492,-229 1492,-270 1647,-270 1647,-229 1492,-229"/>
<text text-anchor="start" x="1500" y="-258" font-family="Helvetica,sans-Serif" font-size="10.00">stxxl::swappable_block</text>
<text text-anchor="start" x="1500" y="-247" font-family="Helvetica,sans-Serif" font-size="10.00">_matrix&lt; ValueType, BlockSide</text>
<text text-anchor="middle" x="1569.5" y="-236" font-family="Helvetica,sans-Serif" font-size="10.00">Length &gt;</text>
</a>
</g>
</g>
<!-- Node5&#45;&gt;Node4 -->
<g id="edge4" class="edge"><title>Node5&#45;&gt;Node4</title>
<path fill="none" stroke="#9a32cd" stroke-dasharray="5,2" d="M1657.29,-240.763C1703.68,-236.093 1759.87,-230.436 1802.63,-226.131"/>
<polygon fill="#9a32cd" stroke="#9a32cd" points="1656.84,-237.29 1647.24,-241.774 1657.54,-244.255 1656.84,-237.29"/>
<text text-anchor="middle" x="1725" y="-243.5" font-family="Helvetica,sans-Serif" font-size="10.00"> m_ptr</text>
</g>
<!-- Node6 -->
<g id="node6" class="node"><title>Node6</title>
<g id="a_node6"><a xlink:href="classstxxl_1_1atomic__counted__object.html" target="_top" xlink:title="Provides reference counting abilities for use with counting_ptr with mutex locking. ">
<polygon fill="none" stroke="black" points="551,-224.5 551,-254.5 664,-254.5 664,-224.5 551,-224.5"/>
<text text-anchor="start" x="559" y="-242.5" font-family="Helvetica,sans-Serif" font-size="10.00">stxxl::atomic_counted</text>
<text text-anchor="middle" x="607.5" y="-231.5" font-family="Helvetica,sans-Serif" font-size="10.00">_object</text>
</a>
</g>
</g>
<!-- Node6&#45;&gt;Node5 -->
<g id="edge5" class="edge"><title>Node6&#45;&gt;Node5</title>
<path fill="none" stroke="midnightblue" d="M674.308,-236.336C709.761,-234.892 754.262,-233.5 794,-233.5 794,-233.5 794,-233.5 1378.5,-233.5 1415.91,-233.5 1457.31,-236.617 1491.89,-240.1"/>
<polygon fill="midnightblue" stroke="midnightblue" points="673.932,-232.848 664.087,-236.763 674.225,-239.842 673.932,-232.848"/>
</g>
<!-- Node15 -->
<g id="node15" class="node"><title>Node15</title>
<g id="a_node15"><a xlink:href="classstxxl_1_1file.html" target="_top" xlink:title="Defines interface of file. ">
<polygon fill="none" stroke="black" points="767,-126 767,-145 823,-145 823,-126 767,-126"/>
<text text-anchor="middle" x="795" y="-133" font-family="Helvetica,sans-Serif" font-size="10.00">stxxl::file</text>
</a>
</g>
</g>
<!-- Node6&#45;&gt;Node15 -->
<g id="edge19" class="edge"><title>Node6&#45;&gt;Node15</title>
<path fill="none" stroke="#9a32cd" stroke-dasharray="5,2" d="M625.107,-216.271C638.737,-198.904 659.559,-175.929 683,-162.5 709.157,-147.515 743.385,-140.806 766.877,-137.828"/>
<polygon fill="#9a32cd" stroke="#9a32cd" points="622.283,-214.202 619.014,-224.28 627.854,-218.441 622.283,-214.202"/>
<text text-anchor="middle" x="716" y="-165.5" font-family="Helvetica,sans-Serif" font-size="10.00"> m_request_ref</text>
</g>
<!-- Node7 -->
<g id="node7" class="node"><title>Node7</title>
<g id="a_node7"><a xlink:href="classstxxl_1_1mutex.html" target="_top" xlink:title="stxxl::mutex">
<polygon fill="none" stroke="black" points="286.5,-186 286.5,-205 357.5,-205 357.5,-186 286.5,-186"/>
<text text-anchor="middle" x="322" y="-193" font-family="Helvetica,sans-Serif" font-size="10.00">stxxl::mutex</text>
</a>
</g>
</g>
<!-- Node7&#45;&gt;Node6 -->
<g id="edge6" class="edge"><title>Node7&#45;&gt;Node6</title>
<path fill="none" stroke="#9a32cd" stroke-dasharray="5,2" d="M367.867,-202.463C417.473,-210.162 497.432,-222.572 550.954,-230.879"/>
<polygon fill="#9a32cd" stroke="#9a32cd" points="368.181,-198.97 357.763,-200.895 367.108,-205.888 368.181,-198.97"/>
<text text-anchor="middle" x="472.5" y="-231.5" font-family="Helvetica,sans-Serif" font-size="10.00"> m_reference_count_mutex</text>
</g>
<!-- Node16 -->
<g id="node16" class="node"><title>Node16</title>
<g id="a_node16"><a xlink:href="classstxxl_1_1disk__allocator.html" target="_top" xlink:title="stxxl::disk_allocator">
<polygon fill="none" stroke="black" points="941,-119 941,-138 1045,-138 1045,-119 941,-119"/>
<text text-anchor="middle" x="993" y="-126" font-family="Helvetica,sans-Serif" font-size="10.00">stxxl::disk_allocator</text>
</a>
</g>
</g>
<!-- Node7&#45;&gt;Node16 -->
<g id="edge23" class="edge"><title>Node7&#45;&gt;Node16</title>
<path fill="none" stroke="#9a32cd" stroke-dasharray="5,2" d="M367.753,-196.3C468.301,-197.182 719.245,-194.263 923,-149.5 936.698,-146.491 951.617,-142.095 964.067,-138.102"/>
<polygon fill="#9a32cd" stroke="#9a32cd" points="367.688,-192.799 357.651,-196.194 367.614,-199.799 367.688,-192.799"/>
<text text-anchor="middle" x="716" y="-187.5" font-family="Helvetica,sans-Serif" font-size="10.00"> mutex</text>
</g>
<!-- Node8 -->
<g id="node8" class="node"><title>Node8</title>
<g id="a_node8"><a xlink:href="classstxxl_1_1noncopyable.html" target="_top" xlink:title="stxxl::noncopyable">
<polygon fill="none" stroke="black" points="11,-107 11,-126 109,-126 109,-107 11,-107"/>
<text text-anchor="middle" x="60" y="-114" font-family="Helvetica,sans-Serif" font-size="10.00">stxxl::noncopyable</text>
</a>
</g>
</g>
<!-- Node8&#45;&gt;Node7 -->
<g id="edge7" class="edge"><title>Node8&#45;&gt;Node7</title>
<path fill="none" stroke="#8b1a1a" d="M90.1912,-130.308C104.408,-136.696 121.877,-144.057 138,-149.5 188.747,-166.632 249.319,-180.644 286.466,-188.533"/>
<polygon fill="#8b1a1a" stroke="#8b1a1a" points="91.4748,-127.046 80.9245,-126.076 88.5668,-133.414 91.4748,-127.046"/>
</g>
<!-- Node11 -->
<g id="node11" class="node"><title>Node11</title>
<g id="a_node11"><a xlink:href="classstxxl_1_1block__scheduler.html" target="_top" xlink:title="Schedules swapping of blocks and provides blocks for temporary storage. ">
<polygon fill="none" stroke="black" points="1313,-269.5 1313,-299.5 1442,-299.5 1442,-269.5 1313,-269.5"/>
<text text-anchor="start" x="1321" y="-287.5" font-family="Helvetica,sans-Serif" font-size="10.00">stxxl::block_scheduler</text>
<text text-anchor="middle" x="1377.5" y="-276.5" font-family="Helvetica,sans-Serif" font-size="10.00">&lt; SwappableBlockType &gt;</text>
</a>
</g>
</g>
<!-- Node8&#45;&gt;Node11 -->
<g id="edge11" class="edge"><title>Node8&#45;&gt;Node11</title>
<path fill="none" stroke="#8b1a1a" d="M74.141,-134.161C108.994,-178.778 208.832,-292.5 321,-292.5 321,-292.5 321,-292.5 1206,-292.5 1241.41,-292.5 1280.92,-290.757 1312.97,-288.898"/>
<polygon fill="#8b1a1a" stroke="#8b1a1a" points="76.9122,-132.023 68.0524,-126.213 71.3554,-136.28 76.9122,-132.023"/>
</g>
<!-- Node13 -->
<g id="node13" class="node"><title>Node13</title>
<g id="a_node13"><a xlink:href="classstxxl_1_1singleton.html" target="_top" xlink:title="stxxl::singleton\&lt; block\l_manager \&gt;">
<polygon fill="none" stroke="black" points="550,-13.5 550,-43.5 665,-43.5 665,-13.5 550,-13.5"/>
<text text-anchor="start" x="558" y="-31.5" font-family="Helvetica,sans-Serif" font-size="10.00">stxxl::singleton&lt; block</text>
<text text-anchor="middle" x="607.5" y="-20.5" font-family="Helvetica,sans-Serif" font-size="10.00">_manager &gt;</text>
</a>
</g>
</g>
<!-- Node8&#45;&gt;Node13 -->
<g id="edge14" class="edge"><title>Node8&#45;&gt;Node13</title>
<path fill="none" stroke="#8b1a1a" d="M88.4324,-102.387C102.827,-95.5943 120.97,-87.972 138,-83.5 308.375,-38.7601 357.433,-64.0693 532,-40.5 537.712,-39.7287 543.662,-38.8681 549.599,-37.9716"/>
<polygon fill="#8b1a1a" stroke="#8b1a1a" points="86.5908,-99.3908 79.1254,-106.909 89.6496,-105.687 86.5908,-99.3908"/>
</g>
<!-- Node14 -->
<g id="node14" class="node"><title>Node14</title>
<g id="a_node14"><a xlink:href="classstxxl_1_1singleton.html" target="_top" xlink:title="stxxl::singleton\&lt; INSTANCE,\l destroy_on_exit \&gt;">
<polygon fill="none" stroke="black" points="249,-0.5 249,-30.5 395,-30.5 395,-0.5 249,-0.5"/>
<text text-anchor="start" x="257" y="-18.5" font-family="Helvetica,sans-Serif" font-size="10.00">stxxl::singleton&lt; INSTANCE,</text>
<text text-anchor="middle" x="322" y="-7.5" font-family="Helvetica,sans-Serif" font-size="10.00"> destroy_on_exit &gt;</text>
</a>
</g>
</g>
<!-- Node8&#45;&gt;Node14 -->
<g id="edge16" class="edge"><title>Node8&#45;&gt;Node14</title>
<path fill="none" stroke="#8b1a1a" d="M74.7557,-98.9108C88.7827,-82.3052 112.112,-58.123 138,-45.5 172.147,-28.8497 213.695,-21.175 248.567,-17.7391"/>
<polygon fill="#8b1a1a" stroke="#8b1a1a" points="71.9237,-96.8451 68.3041,-106.802 77.3432,-101.276 71.9237,-96.8451"/>
</g>
<!-- Node8&#45;&gt;Node15 -->
<g id="edge18" class="edge"><title>Node8&#45;&gt;Node15</title>
<path fill="none" stroke="#8b1a1a" d="M119.426,-118.014C268.839,-121.887 660.571,-132.041 766.988,-134.8"/>
<polygon fill="#8b1a1a" stroke="#8b1a1a" points="119.182,-114.507 109.094,-117.747 119,-121.505 119.182,-114.507"/>
</g>
<!-- Node8&#45;&gt;Node16 -->
<g id="edge21" class="edge"><title>Node8&#45;&gt;Node16</title>
<path fill="none" stroke="#8b1a1a" d="M119.479,-109.778C172.116,-104.312 251.626,-97.5 321,-97.5 321,-97.5 321,-97.5 717,-97.5 795.434,-97.5 885.664,-110.106 940.75,-119.241"/>
<polygon fill="#8b1a1a" stroke="#8b1a1a" points="118.898,-106.32 109.321,-110.851 119.634,-113.281 118.898,-106.32"/>
</g>
<!-- Node9 -->
<g id="node9" class="node"><title>Node9</title>
<g id="a_node9"><a xlink:href="structstxxl_1_1choose__int__types.html" target="_top" xlink:title="stxxl::choose_int_types\l\&lt; my_pointer_size \&gt;">
<polygon fill="none" stroke="black" points="262,-321.5 262,-351.5 382,-351.5 382,-321.5 262,-321.5"/>
<text text-anchor="start" x="270" y="-339.5" font-family="Helvetica,sans-Serif" font-size="10.00">stxxl::choose_int_types</text>
<text text-anchor="middle" x="322" y="-328.5" font-family="Helvetica,sans-Serif" font-size="10.00">&lt; my_pointer_size &gt;</text>
</a>
</g>
</g>
<!-- Node9&#45;&gt;Node6 -->
<g id="edge8" class="edge"><title>Node9&#45;&gt;Node6</title>
<path fill="none" stroke="#9a32cd" stroke-dasharray="5,2" d="M376.69,-318.13C430.483,-299.725 512.294,-271.733 562.411,-254.585"/>
<polygon fill="#9a32cd" stroke="#9a32cd" points="375.314,-314.901 366.986,-321.45 377.58,-321.524 375.314,-314.901"/>
<text text-anchor="middle" x="472.5" y="-308.5" font-family="Helvetica,sans-Serif" font-size="10.00"> m_reference_count</text>
</g>
<!-- Node9&#45;&gt;Node11 -->
<g id="edge24" class="edge"><title>Node9&#45;&gt;Node11</title>
<path fill="none" stroke="#9a32cd" stroke-dasharray="5,2" d="M392.229,-335.359C449.628,-334.511 533.367,-333.5 606.5,-333.5 606.5,-333.5 606.5,-333.5 1206,-333.5 1255.74,-333.5 1310.58,-313.999 1344.29,-299.601"/>
<polygon fill="#9a32cd" stroke="#9a32cd" points="392.13,-331.86 382.183,-335.509 392.235,-338.859 392.13,-331.86"/>
<text text-anchor="start" x="841" y="-347.5" font-family="Helvetica,sans-Serif" font-size="10.00"> remaining_internal</text>
<text text-anchor="middle" x="882" y="-336.5" font-family="Helvetica,sans-Serif" font-size="10.00">_blocks</text>
</g>
<!-- Node10 -->
<g id="node10" class="node"><title>Node10</title>
<g id="a_node10"><a xlink:href="structstxxl_1_1choose__int__types.html" target="_top" xlink:title="stxxl::choose_int_types\l\&lt; PtrSize \&gt;">
<polygon fill="none" stroke="black" points="0,-321.5 0,-351.5 120,-351.5 120,-321.5 0,-321.5"/>
<text text-anchor="start" x="8" y="-339.5" font-family="Helvetica,sans-Serif" font-size="10.00">stxxl::choose_int_types</text>
<text text-anchor="middle" x="60" y="-328.5" font-family="Helvetica,sans-Serif" font-size="10.00">&lt; PtrSize &gt;</text>
</a>
</g>
</g>
<!-- Node10&#45;&gt;Node9 -->
<g id="edge9" class="edge"><title>Node10&#45;&gt;Node9</title>
<path fill="none" stroke="orange" stroke-dasharray="5,2" d="M130.515,-336.5C171.531,-336.5 222.884,-336.5 261.931,-336.5"/>
<polygon fill="orange" stroke="orange" points="130.323,-333 120.323,-336.5 130.323,-340 130.323,-333"/>
<text text-anchor="middle" x="184.5" y="-339.5" font-family="Helvetica,sans-Serif" font-size="10.00"> &lt; my_pointer_size &gt;</text>
</g>
<!-- Node11&#45;&gt;Node5 -->
<g id="edge10" class="edge"><title>Node11&#45;&gt;Node5</title>
<path fill="none" stroke="#9a32cd" stroke-dasharray="5,2" d="M1451.91,-270.977C1465,-268.567 1478.66,-266.05 1491.83,-263.623"/>
<polygon fill="#9a32cd" stroke="#9a32cd" points="1451.23,-267.543 1442.03,-272.797 1452.5,-274.427 1451.23,-267.543"/>
<text text-anchor="middle" x="1467" y="-272.5" font-family="Helvetica,sans-Serif" font-size="10.00"> bs</text>
</g>
<!-- Node12 -->
<g id="node12" class="node"><title>Node12</title>
<g id="a_node12"><a xlink:href="classstxxl_1_1block__manager.html" target="_top" xlink:title="Block manager class. ">
<polygon fill="none" stroke="black" points="1150,-88 1150,-107 1260,-107 1260,-88 1150,-88"/>
<text text-anchor="middle" x="1205" y="-95" font-family="Helvetica,sans-Serif" font-size="10.00">stxxl::block_manager</text>
</a>
</g>
</g>
<!-- Node12&#45;&gt;Node11 -->
<g id="edge12" class="edge"><title>Node12&#45;&gt;Node11</title>
<path fill="none" stroke="#9a32cd" stroke-dasharray="5,2" d="M1221.78,-114.805C1254.9,-151.132 1331.21,-234.823 1362.61,-269.266"/>
<polygon fill="#9a32cd" stroke="#9a32cd" points="1224.01,-112.062 1214.69,-107.03 1218.84,-116.778 1224.01,-112.062"/>
<text text-anchor="middle" x="1286.5" y="-194.5" font-family="Helvetica,sans-Serif" font-size="10.00"> bm</text>
</g>
<!-- Node13&#45;&gt;Node12 -->
<g id="edge13" class="edge"><title>Node13&#45;&gt;Node12</title>
<path fill="none" stroke="midnightblue" d="M675.283,-35.9327C774.813,-47.0602 967.952,-68.8465 1132,-88.5 1137.75,-89.1893 1143.76,-89.9215 1149.75,-90.6589"/>
<polygon fill="midnightblue" stroke="midnightblue" points="675.4,-32.4241 665.073,-34.7919 674.623,-39.3808 675.4,-32.4241"/>
</g>
<!-- Node14&#45;&gt;Node13 -->
<g id="edge15" class="edge"><title>Node14&#45;&gt;Node13</title>
<path fill="none" stroke="orange" stroke-dasharray="5,2" d="M405.283,-19.2731C451.565,-21.3954 508.178,-23.9914 549.55,-25.8886"/>
<polygon fill="orange" stroke="orange" points="405.422,-15.7759 395.273,-18.8141 405.102,-22.7686 405.422,-15.7759"/>
<text text-anchor="middle" x="472.5" y="-28.5" font-family="Helvetica,sans-Serif" font-size="10.00"> &lt; block_manager &gt;</text>
</g>
<!-- Node15&#45;&gt;Node12 -->
<g id="edge17" class="edge"><title>Node15&#45;&gt;Node12</title>
<path fill="none" stroke="#9a32cd" stroke-dasharray="5,2" d="M832.849,-123.417C861.869,-114.558 903.538,-103.277 941,-98.5 1012.79,-89.3464 1096.5,-91.1442 1149.85,-93.8414"/>
<polygon fill="#9a32cd" stroke="#9a32cd" points="831.649,-120.125 823.139,-126.435 833.727,-126.809 831.649,-120.125"/>
<text text-anchor="middle" x="993" y="-101.5" font-family="Helvetica,sans-Serif" font-size="10.00"> disk_files</text>
</g>
<!-- Node15&#45;&gt;Node16 -->
<g id="edge22" class="edge"><title>Node15&#45;&gt;Node16</title>
<path fill="none" stroke="#9a32cd" stroke-dasharray="5,2" d="M833.446,-134.163C863.877,-133.076 907.119,-131.531 940.759,-130.33"/>
<polygon fill="#9a32cd" stroke="#9a32cd" points="833.122,-130.672 823.253,-134.527 833.372,-137.667 833.122,-130.672"/>
<text text-anchor="middle" x="882" y="-137.5" font-family="Helvetica,sans-Serif" font-size="10.00"> storage</text>
</g>
<!-- Node16&#45;&gt;Node12 -->
<g id="edge20" class="edge"><title>Node16&#45;&gt;Node12</title>
<path fill="none" stroke="#9a32cd" stroke-dasharray="5,2" d="M1055.02,-119.493C1084.97,-115.072 1120.74,-109.791 1149.73,-105.512"/>
<polygon fill="#9a32cd" stroke="#9a32cd" points="1054.48,-116.033 1045.1,-120.956 1055.51,-122.958 1054.48,-116.033"/>
<text text-anchor="middle" x="1097.5" y="-121.5" font-family="Helvetica,sans-Serif" font-size="10.00"> disk_allocators</text>
</g>
<!-- Node17 -->
<g id="node17" class="node"><title>Node17</title>
<g id="a_node17"><a xlink:href="classstxxl_1_1counting__ptr.html" target="_top" xlink:title="High&#45;performance smart pointer used as a wrapping reference counting pointer. ">
<polygon fill="none" stroke="black" points="1521,-180.5 1521,-210.5 1618,-210.5 1618,-180.5 1521,-180.5"/>
<text text-anchor="start" x="1529" y="-198.5" font-family="Helvetica,sans-Serif" font-size="10.00">stxxl::counting_ptr</text>
<text text-anchor="middle" x="1569.5" y="-187.5" font-family="Helvetica,sans-Serif" font-size="10.00">&lt; Type &gt;</text>
</a>
</g>
</g>
<!-- Node17&#45;&gt;Node4 -->
<g id="edge25" class="edge"><title>Node17&#45;&gt;Node4</title>
<path fill="none" stroke="orange" stroke-dasharray="5,2" d="M1628.48,-193.721C1671.77,-193.151 1732.3,-193.957 1785,-200.5 1790.75,-201.214 1796.69,-202.152 1802.63,-203.228"/>
<polygon fill="orange" stroke="orange" points="1628.35,-190.223 1618.41,-193.883 1628.46,-197.222 1628.35,-190.223"/>
<text text-anchor="start" x="1665" y="-214.5" font-family="Helvetica,sans-Serif" font-size="10.00"> &lt; swappable_block_matrix</text>
<text text-anchor="middle" x="1725" y="-203.5" font-family="Helvetica,sans-Serif" font-size="10.00">_type &gt;</text>
</g>
</g>
</svg>
