<?xml version="1.0" encoding="UTF-8" standalone="no"?>
<!DOCTYPE svg PUBLIC "-//W3C//DTD SVG 1.1//EN"
 "http://www.w3.org/Graphics/SVG/1.1/DTD/svg11.dtd">
<!-- Generated by graphviz version 2.26.3 (20100126.1600)
 -->
<!-- Title: stxxl::sequence&lt; ValueType, BlockSize, AllocStr, SizeType &gt;::stream Pages: 1 -->
<svg width="3820pt" height="766pt"
 viewBox="0.00 0.00 3820.00 766.00" xmlns="http://www.w3.org/2000/svg" xmlns:xlink="http://www.w3.org/1999/xlink">
<g id="graph1" class="graph" transform="scale(1 1) rotate(0) translate(4 762)">
<title>stxxl::sequence&lt; ValueType, BlockSize, AllocStr, SizeType &gt;::stream</title>
<!-- Node1 -->
<g id="node1" class="node"><title>Node1</title>
<polygon fill="#bfbfbf" stroke="black" points="3660,-321.5 3660,-368.5 3812,-368.5 3812,-321.5 3660,-321.5"/>
<text text-anchor="start" x="3668" y="-355.5" font-family="Helvetica,sans-Serif" font-size="10.00">stxxl::sequence&lt; ValueType,</text>
<text text-anchor="start" x="3668" y="-342.5" font-family="Helvetica,sans-Serif" font-size="10.00"> BlockSize, AllocStr, SizeType</text>
<text text-anchor="middle" x="3736" y="-329.5" font-family="Helvetica,sans-Serif" font-size="10.00"> &gt;::stream</text>
</g>
<!-- Node2 -->
<g id="node2" class="node"><title>Node2</title>
<a xlink:href="classstxxl_1_1sequence.html" target="_top" xlink:title="External sequence or deque container without random access. &#160;&#160;Introduction &#160;to sequence container: se...">
<polygon fill="none" stroke="black" points="3402.5,-391 3402.5,-425 3563.5,-425 3563.5,-391 3402.5,-391"/>
<text text-anchor="start" x="3410.5" y="-412" font-family="Helvetica,sans-Serif" font-size="10.00">stxxl::sequence&lt; ValueType,</text>
<text text-anchor="middle" x="3483" y="-399" font-family="Helvetica,sans-Serif" font-size="10.00"> BlockSize, AllocStr, SizeType &gt;</text>
</a>
</g>
<!-- Node2&#45;&gt;Node1 -->
<g id="edge2" class="edge"><title>Node2&#45;&gt;Node1</title>
<path fill="none" stroke="#9a32cd" stroke-dasharray="5,2" d="M3561.47,-388.46C3592.82,-380.653 3628.79,-371.695 3659.91,-363.948"/>
<polygon fill="#9a32cd" stroke="#9a32cd" points="3560.32,-385.139 3551.47,-390.951 3562.01,-391.931 3560.32,-385.139"/>
<text text-anchor="middle" x="3612" y="-386" font-family="Helvetica,sans-Serif" font-size="10.00"> m_sequence</text>
</g>
<!-- Node3 -->
<g id="node4" class="node"><title>Node3</title>
<a xlink:href="classstxxl_1_1noncopyable.html" target="_top" xlink:title="stxxl::noncopyable">
<polygon fill="none" stroke="black" points="307,-399.5 307,-420.5 405,-420.5 405,-399.5 307,-399.5"/>
<text text-anchor="middle" x="356" y="-407.5" font-family="Helvetica,sans-Serif" font-size="10.00">stxxl::noncopyable</text>
</a>
</g>
<!-- Node3&#45;&gt;Node2 -->
<g id="edge4" class="edge"><title>Node3&#45;&gt;Node2</title>
<path fill="none" stroke="#8b1a1a" d="M415.105,-417.109C465.082,-422.504 538.621,-429 603,-429 603,-429 603,-429 3237,-429 3292.29,-429 3354.33,-423.668 3402.27,-418.377"/>
<polygon fill="#8b1a1a" stroke="#8b1a1a" points="415.444,-413.625 405.122,-416.012 414.679,-420.583 415.444,-413.625"/>
</g>
<!-- Node5 -->
<g id="node8" class="node"><title>Node5</title>
<a xlink:href="classstxxl_1_1singleton.html" target="_top" xlink:title="stxxl::singleton\&lt; block\l_manager \&gt;">
<polygon fill="none" stroke="black" points="832.5,-199 832.5,-233 947.5,-233 947.5,-199 832.5,-199"/>
<text text-anchor="start" x="840.5" y="-220" font-family="Helvetica,sans-Serif" font-size="10.00">stxxl::singleton&lt; block</text>
<text text-anchor="middle" x="890" y="-207" font-family="Helvetica,sans-Serif" font-size="10.00">_manager &gt;</text>
</a>
</g>
<!-- Node3&#45;&gt;Node5 -->
<g id="edge10" class="edge"><title>Node3&#45;&gt;Node5</title>
<path fill="none" stroke="#8b1a1a" d="M359.293,-389.228C366.14,-353.689 385.523,-281.877 434,-249 466.23,-227.142 717.026,-219.403 832.341,-216.982"/>
<polygon fill="#8b1a1a" stroke="#8b1a1a" points="355.79,-388.939 357.489,-399.397 362.682,-390.162 355.79,-388.939"/>
</g>
<!-- Node6 -->
<g id="node11" class="node"><title>Node6</title>
<a xlink:href="classstxxl_1_1singleton.html" target="_top" xlink:title="stxxl::singleton\&lt; INSTANCE,\l destroy_on_exit \&gt;">
<polygon fill="none" stroke="black" points="530,-163 530,-197 676,-197 676,-163 530,-163"/>
<text text-anchor="start" x="538" y="-184" font-family="Helvetica,sans-Serif" font-size="10.00">stxxl::singleton&lt; INSTANCE,</text>
<text text-anchor="middle" x="603" y="-171" font-family="Helvetica,sans-Serif" font-size="10.00"> destroy_on_exit &gt;</text>
</a>
</g>
<!-- Node3&#45;&gt;Node6 -->
<g id="edge14" class="edge"><title>Node3&#45;&gt;Node6</title>
<path fill="none" stroke="#8b1a1a" d="M357.685,-389.135C362.183,-348.11 378.249,-256.95 434,-211 460.472,-189.182 497.264,-180.71 529.763,-177.997"/>
<polygon fill="#8b1a1a" stroke="#8b1a1a" points="354.182,-389.007 356.7,-399.298 361.149,-389.682 354.182,-389.007"/>
</g>
<!-- Node7 -->
<g id="node14" class="node"><title>Node7</title>
<a xlink:href="classstxxl_1_1file.html" target="_top" xlink:title="Defines interface of file. ">
<polygon fill="none" stroke="black" points="1082,-266.5 1082,-287.5 1138,-287.5 1138,-266.5 1082,-266.5"/>
<text text-anchor="middle" x="1110" y="-274.5" font-family="Helvetica,sans-Serif" font-size="10.00">stxxl::file</text>
</a>
</g>
<!-- Node3&#45;&gt;Node7 -->
<g id="edge18" class="edge"><title>Node3&#45;&gt;Node7</title>
<path fill="none" stroke="#8b1a1a" d="M376.803,-392.948C391.877,-381.345 413.185,-366.44 434,-357 474.153,-338.789 486.874,-341.166 530,-332 663.077,-303.717 696.514,-294.367 832,-282 923.096,-273.685 1031.66,-274.94 1081.91,-276.154"/>
<polygon fill="#8b1a1a" stroke="#8b1a1a" points="374.389,-390.394 368.699,-399.331 378.72,-395.893 374.389,-390.394"/>
</g>
<!-- Node9 -->
<g id="node19" class="node"><title>Node9</title>
<a xlink:href="classstxxl_1_1mutex.html" target="_top" xlink:title="stxxl::mutex">
<polygon fill="none" stroke="black" points="567.5,-341.5 567.5,-362.5 638.5,-362.5 638.5,-341.5 567.5,-341.5"/>
<text text-anchor="middle" x="603" y="-349.5" font-family="Helvetica,sans-Serif" font-size="10.00">stxxl::mutex</text>
</a>
</g>
<!-- Node3&#45;&gt;Node9 -->
<g id="edge24" class="edge"><title>Node3&#45;&gt;Node9</title>
<path fill="none" stroke="#8b1a1a" d="M386.267,-395.079C400.458,-388.637 417.781,-381.551 434,-377 479.12,-364.34 532.92,-357.784 567.499,-354.62"/>
<polygon fill="#8b1a1a" stroke="#8b1a1a" points="384.583,-392.002 376.995,-399.396 387.537,-398.348 384.583,-392.002"/>
</g>
<!-- Node12 -->
<g id="node26" class="node"><title>Node12</title>
<a xlink:href="classstxxl_1_1disk__allocator.html" target="_top" xlink:title="stxxl::disk_allocator">
<polygon fill="none" stroke="black" points="1238,-342.5 1238,-363.5 1342,-363.5 1342,-342.5 1238,-342.5"/>
<text text-anchor="middle" x="1290" y="-350.5" font-family="Helvetica,sans-Serif" font-size="10.00">stxxl::disk_allocator</text>
</a>
</g>
<!-- Node3&#45;&gt;Node12 -->
<g id="edge32" class="edge"><title>Node3&#45;&gt;Node12</title>
<path fill="none" stroke="#8b1a1a" d="M415.105,-402.891C465.082,-397.496 538.621,-391 603,-391 603,-391 603,-391 1110,-391 1163.34,-391 1223.69,-374.829 1259.2,-363.585"/>
<polygon fill="#8b1a1a" stroke="#8b1a1a" points="414.679,-399.417 405.122,-403.988 415.444,-406.375 414.679,-399.417"/>
</g>
<!-- Node28 -->
<g id="node70" class="node"><title>Node28</title>
<a xlink:href="classstxxl_1_1read__write__pool.html" target="_top" xlink:title="stxxl::read_write_pool\l\&lt; block_type \&gt;">
<polygon fill="none" stroke="black" points="1054,-521 1054,-555 1166,-555 1166,-521 1054,-521"/>
<text text-anchor="start" x="1062" y="-542" font-family="Helvetica,sans-Serif" font-size="10.00">stxxl::read_write_pool</text>
<text text-anchor="middle" x="1110" y="-529" font-family="Helvetica,sans-Serif" font-size="10.00">&lt; block_type &gt;</text>
</a>
</g>
<!-- Node3&#45;&gt;Node28 -->
<g id="edge88" class="edge"><title>Node3&#45;&gt;Node28</title>
<path fill="none" stroke="#8b1a1a" d="M386.252,-424.975C400.44,-431.428 417.765,-438.508 434,-443 463.894,-451.271 897.074,-509.56 1053.87,-530.517"/>
<polygon fill="#8b1a1a" stroke="#8b1a1a" points="387.524,-421.707 376.982,-420.648 384.563,-428.05 387.524,-421.707"/>
</g>
<!-- Node29 -->
<g id="node73" class="node"><title>Node29</title>
<a xlink:href="classstxxl_1_1prefetch__pool.html" target="_top" xlink:title="Implements dynamically resizable prefetching pool. ">
<polygon fill="none" stroke="black" points="552,-636 552,-670 654,-670 654,-636 552,-636"/>
<text text-anchor="start" x="560" y="-657" font-family="Helvetica,sans-Serif" font-size="10.00">stxxl::prefetch_pool</text>
<text text-anchor="middle" x="603" y="-644" font-family="Helvetica,sans-Serif" font-size="10.00">&lt; BlockType &gt;</text>
</a>
</g>
<!-- Node3&#45;&gt;Node29 -->
<g id="edge92" class="edge"><title>Node3&#45;&gt;Node29</title>
<path fill="none" stroke="#8b1a1a" d="M361.601,-430.27C371.473,-462.82 394.73,-527.215 434,-568 466.461,-601.713 515.148,-624.231 551.939,-637.572"/>
<polygon fill="#8b1a1a" stroke="#8b1a1a" points="364.921,-429.153 358.762,-420.532 358.201,-431.112 364.921,-429.153"/>
</g>
<!-- Node32 -->
<g id="node81" class="node"><title>Node32</title>
<a xlink:href="classstxxl_1_1write__pool.html" target="_top" xlink:title="Implements dynamically resizable buffered writing pool. ">
<polygon fill="none" stroke="black" points="556,-544 556,-578 650,-578 650,-544 556,-544"/>
<text text-anchor="start" x="564" y="-565" font-family="Helvetica,sans-Serif" font-size="10.00">stxxl::write_pool&lt;</text>
<text text-anchor="middle" x="603" y="-552" font-family="Helvetica,sans-Serif" font-size="10.00"> BlockType &gt;</text>
</a>
</g>
<!-- Node3&#45;&gt;Node32 -->
<g id="edge102" class="edge"><title>Node3&#45;&gt;Node32</title>
<path fill="none" stroke="#8b1a1a" d="M372.952,-427.92C388.033,-443.226 411.173,-465.209 434,-481 473.395,-508.253 486.594,-509.737 530,-530 540.106,-534.718 551.125,-539.554 561.467,-543.96"/>
<polygon fill="#8b1a1a" stroke="#8b1a1a" points="375.32,-425.334 365.845,-420.593 370.295,-430.208 375.32,-425.334"/>
</g>
<!-- Node33 -->
<g id="node84" class="node"><title>Node33</title>
<a xlink:href="classstxxl_1_1read__write__pool.html" target="_top" xlink:title="Implements dynamically resizable buffered writing and prefetched reading pool. ">
<polygon fill="none" stroke="black" points="834,-576 834,-610 946,-610 946,-576 834,-576"/>
<text text-anchor="start" x="842" y="-597" font-family="Helvetica,sans-Serif" font-size="10.00">stxxl::read_write_pool</text>
<text text-anchor="middle" x="890" y="-584" font-family="Helvetica,sans-Serif" font-size="10.00">&lt; BlockType &gt;</text>
</a>
</g>
<!-- Node3&#45;&gt;Node33 -->
<g id="edge106" class="edge"><title>Node3&#45;&gt;Node33</title>
<path fill="none" stroke="#8b1a1a" d="M367.674,-429.207C381.712,-451.385 406.805,-488.244 434,-515 464.421,-544.93 478.673,-544.343 512,-571 520.359,-577.686 520.027,-583.113 530,-587 583.655,-607.913 746.558,-601.831 833.659,-596.779"/>
<polygon fill="#8b1a1a" stroke="#8b1a1a" points="370.617,-427.312 362.36,-420.673 364.674,-431.012 370.617,-427.312"/>
</g>
<!-- Node4 -->
<g id="node6" class="node"><title>Node4</title>
<a xlink:href="classstxxl_1_1block__manager.html" target="_top" xlink:title="Block manager class. ">
<polygon fill="none" stroke="black" points="1457,-318.5 1457,-339.5 1567,-339.5 1567,-318.5 1457,-318.5"/>
<text text-anchor="middle" x="1512" y="-326.5" font-family="Helvetica,sans-Serif" font-size="10.00">stxxl::block_manager</text>
</a>
</g>
<!-- Node4&#45;&gt;Node2 -->
<g id="edge6" class="edge"><title>Node4&#45;&gt;Node2</title>
<path fill="none" stroke="#9a32cd" stroke-dasharray="5,2" d="M1541.78,-343.992C1579.32,-361.472 1646.28,-388 1707,-388 1707,-388 1707,-388 3237,-388 3292.28,-388 3354.31,-393.078 3402.25,-398.117"/>
<polygon fill="#9a32cd" stroke="#9a32cd" points="1542.98,-340.687 1532.45,-339.548 1539.97,-347.007 1542.98,-340.687"/>
<text text-anchor="middle" x="2510" y="-392" font-family="Helvetica,sans-Serif" font-size="10.00"> m_bm</text>
</g>
<!-- Node5&#45;&gt;Node4 -->
<g id="edge8" class="edge"><title>Node5&#45;&gt;Node4</title>
<path fill="none" stroke="midnightblue" d="M957.786,-217.737C1047.01,-221.258 1208.21,-231.898 1342,-264 1397,-277.197 1458.2,-303.718 1490.04,-318.478"/>
<polygon fill="midnightblue" stroke="midnightblue" points="957.657,-214.23 947.532,-217.351 957.394,-221.225 957.657,-214.23"/>
</g>
<!-- Node6&#45;&gt;Node5 -->
<g id="edge12" class="edge"><title>Node6&#45;&gt;Node5</title>
<path fill="none" stroke="orange" stroke-dasharray="5,2" d="M686.315,-184.266C725.266,-186.986 772.178,-191.301 814,-198 820.025,-198.965 826.28,-200.147 832.498,-201.44"/>
<polygon fill="orange" stroke="orange" points="686.286,-180.756 676.073,-183.575 685.815,-187.74 686.286,-180.756"/>
<text text-anchor="middle" x="754" y="-202" font-family="Helvetica,sans-Serif" font-size="10.00"> &lt; block_manager &gt;</text>
</g>
<!-- Node7&#45;&gt;Node4 -->
<g id="edge16" class="edge"><title>Node7&#45;&gt;Node4</title>
<path fill="none" stroke="#9a32cd" stroke-dasharray="5,2" d="M1148.2,-281.942C1219.76,-291.197 1374.19,-311.174 1456.96,-321.881"/>
<polygon fill="#9a32cd" stroke="#9a32cd" points="1148.63,-278.468 1138.27,-280.657 1147.74,-285.411 1148.63,-278.468"/>
<text text-anchor="middle" x="1290" y="-310" font-family="Helvetica,sans-Serif" font-size="10.00"> disk_files</text>
</g>
<!-- Node7&#45;&gt;Node12 -->
<g id="edge34" class="edge"><title>Node7&#45;&gt;Node12</title>
<path fill="none" stroke="#9a32cd" stroke-dasharray="5,2" d="M1144.43,-291.538C1179.65,-306.407 1233.51,-329.15 1264.89,-342.4"/>
<polygon fill="#9a32cd" stroke="#9a32cd" points="1145.6,-288.233 1135.03,-287.567 1142.88,-294.682 1145.6,-288.233"/>
<text text-anchor="middle" x="1202" y="-325" font-family="Helvetica,sans-Serif" font-size="10.00"> storage</text>
</g>
<!-- Node19 -->
<g id="node44" class="node"><title>Node19</title>
<a xlink:href="structstxxl_1_1BID.html" target="_top" xlink:title="stxxl::BID\&lt; raw_size \&gt;">
<polygon fill="none" stroke="black" points="1453,-251.5 1453,-272.5 1571,-272.5 1571,-251.5 1453,-251.5"/>
<text text-anchor="middle" x="1512" y="-259.5" font-family="Helvetica,sans-Serif" font-size="10.00">stxxl::BID&lt; raw_size &gt;</text>
</a>
</g>
<!-- Node7&#45;&gt;Node19 -->
<g id="edge54" class="edge"><title>Node7&#45;&gt;Node19</title>
<path fill="none" stroke="#9a32cd" stroke-dasharray="5,2" d="M1148.47,-275.565C1218.91,-272.936 1369.07,-267.333 1452.68,-264.214"/>
<polygon fill="#9a32cd" stroke="#9a32cd" points="1148.13,-272.075 1138.27,-275.945 1148.39,-279.07 1148.13,-272.075"/>
<text text-anchor="middle" x="1290" y="-276" font-family="Helvetica,sans-Serif" font-size="10.00"> storage</text>
</g>
<!-- Node20 -->
<g id="node47" class="node"><title>Node20</title>
<a xlink:href="structstxxl_1_1BID.html" target="_top" xlink:title="Block identifier class. ">
<polygon fill="none" stroke="black" points="1241,-166.5 1241,-187.5 1339,-187.5 1339,-166.5 1241,-166.5"/>
<text text-anchor="middle" x="1290" y="-174.5" font-family="Helvetica,sans-Serif" font-size="10.00">stxxl::BID&lt; Size &gt;</text>
</a>
</g>
<!-- Node7&#45;&gt;Node20 -->
<g id="edge58" class="edge"><title>Node7&#45;&gt;Node20</title>
<path fill="none" stroke="#9a32cd" stroke-dasharray="5,2" d="M1137.55,-261.229C1151.45,-253.306 1168.59,-243.589 1184,-235 1214.05,-218.252 1249.1,-199.159 1270.41,-187.599"/>
<polygon fill="#9a32cd" stroke="#9a32cd" points="1135.46,-258.394 1128.51,-266.391 1138.93,-264.473 1135.46,-258.394"/>
<text text-anchor="middle" x="1202" y="-239" font-family="Helvetica,sans-Serif" font-size="10.00"> storage</text>
</g>
<!-- Node8 -->
<g id="node17" class="node"><title>Node8</title>
<a xlink:href="classstxxl_1_1atomic__counted__object.html" target="_top" xlink:title="Provides reference counting abilities for use with counting_ptr with mutex locking. ">
<polygon fill="none" stroke="black" points="833.5,-291 833.5,-325 946.5,-325 946.5,-291 833.5,-291"/>
<text text-anchor="start" x="841.5" y="-312" font-family="Helvetica,sans-Serif" font-size="10.00">stxxl::atomic_counted</text>
<text text-anchor="middle" x="890" y="-299" font-family="Helvetica,sans-Serif" font-size="10.00">_object</text>
</a>
</g>
<!-- Node8&#45;&gt;Node7 -->
<g id="edge20" class="edge"><title>Node8&#45;&gt;Node7</title>
<path fill="none" stroke="#9a32cd" stroke-dasharray="5,2" d="M956.783,-298.59C998.613,-292.695 1050.36,-285.404 1081.74,-280.982"/>
<polygon fill="#9a32cd" stroke="#9a32cd" points="956.069,-295.156 946.655,-300.017 957.046,-302.087 956.069,-295.156"/>
<text text-anchor="middle" x="1001" y="-301" font-family="Helvetica,sans-Serif" font-size="10.00"> m_request_ref</text>
</g>
<!-- Node9&#45;&gt;Node8 -->
<g id="edge22" class="edge"><title>Node9&#45;&gt;Node8</title>
<path fill="none" stroke="#9a32cd" stroke-dasharray="5,2" d="M644.416,-338.401C659.832,-333.809 677.572,-329.073 694,-326 740.52,-317.297 794.072,-312.743 833.432,-310.395"/>
<polygon fill="#9a32cd" stroke="#9a32cd" points="643.201,-335.112 634.659,-341.379 645.245,-341.808 643.201,-335.112"/>
<text text-anchor="middle" x="754" y="-330" font-family="Helvetica,sans-Serif" font-size="10.00"> m_reference_count_mutex</text>
</g>
<!-- Node9&#45;&gt;Node12 -->
<g id="edge36" class="edge"><title>Node9&#45;&gt;Node12</title>
<path fill="none" stroke="#9a32cd" stroke-dasharray="5,2" d="M649.183,-352.067C772.314,-352.246 1107.89,-352.735 1237.73,-352.924"/>
<polygon fill="#9a32cd" stroke="#9a32cd" points="648.974,-348.567 638.969,-352.052 648.964,-355.567 648.974,-348.567"/>
<text text-anchor="middle" x="1001" y="-356" font-family="Helvetica,sans-Serif" font-size="10.00"> mutex</text>
</g>
<!-- Node10 -->
<g id="node22" class="node"><title>Node10</title>
<a xlink:href="structstxxl_1_1choose__int__types.html" target="_top" xlink:title="stxxl::choose_int_types\l\&lt; my_pointer_size \&gt;">
<polygon fill="none" stroke="black" points="296,-636 296,-670 416,-670 416,-636 296,-636"/>
<text text-anchor="start" x="304" y="-657" font-family="Helvetica,sans-Serif" font-size="10.00">stxxl::choose_int_types</text>
<text text-anchor="middle" x="356" y="-644" font-family="Helvetica,sans-Serif" font-size="10.00">&lt; my_pointer_size &gt;</text>
</a>
</g>
<!-- Node10&#45;&gt;Node2 -->
<g id="edge38" class="edge"><title>Node10&#45;&gt;Node2</title>
<path fill="none" stroke="#9a32cd" stroke-dasharray="5,2" d="M424.219,-672.686C473.464,-685.177 541.788,-699 603,-699 603,-699 603,-699 3237,-699 3381.22,-699 3458.2,-487.979 3477.88,-425.332"/>
<polygon fill="#9a32cd" stroke="#9a32cd" points="424.878,-669.242 414.321,-670.129 423.127,-676.019 424.878,-669.242"/>
<text text-anchor="middle" x="1860" y="-716" font-family="Helvetica,sans-Serif" font-size="10.00"> m_blocks2prefetch</text>
<text text-anchor="middle" x="1860" y="-703" font-family="Helvetica,sans-Serif" font-size="10.00">m_alloc_count</text>
</g>
<!-- Node10&#45;&gt;Node8 -->
<g id="edge26" class="edge"><title>Node10&#45;&gt;Node8</title>
<path fill="none" stroke="#9a32cd" stroke-dasharray="5,2" d="M385.258,-629.419C419.267,-602.379 477.457,-557.244 530,-522 647.747,-443.02 794.991,-360.195 858.477,-325.208"/>
<polygon fill="#9a32cd" stroke="#9a32cd" points="382.785,-626.915 377.15,-635.887 387.15,-632.387 382.785,-626.915"/>
<text text-anchor="middle" x="603" y="-526" font-family="Helvetica,sans-Serif" font-size="10.00"> m_reference_count</text>
</g>
<!-- Node10&#45;&gt;Node29 -->
<g id="edge94" class="edge"><title>Node10&#45;&gt;Node29</title>
<path fill="none" stroke="#9a32cd" stroke-dasharray="5,2" d="M426.328,-653C466.323,-653 515.513,-653 551.824,-653"/>
<polygon fill="#9a32cd" stroke="#9a32cd" points="426.107,-649.5 416.107,-653 426.107,-656.5 426.107,-649.5"/>
<text text-anchor="middle" x="473" y="-657" font-family="Helvetica,sans-Serif" font-size="10.00"> free_blocks_size</text>
</g>
<!-- Node11 -->
<g id="node24" class="node"><title>Node11</title>
<a xlink:href="structstxxl_1_1choose__int__types.html" target="_top" xlink:title="stxxl::choose_int_types\l\&lt; PtrSize \&gt;">
<polygon fill="none" stroke="black" points="17,-636 17,-670 137,-670 137,-636 17,-636"/>
<text text-anchor="start" x="25" y="-657" font-family="Helvetica,sans-Serif" font-size="10.00">stxxl::choose_int_types</text>
<text text-anchor="middle" x="77" y="-644" font-family="Helvetica,sans-Serif" font-size="10.00">&lt; PtrSize &gt;</text>
</a>
</g>
<!-- Node11&#45;&gt;Node10 -->
<g id="edge28" class="edge"><title>Node11&#45;&gt;Node10</title>
<path fill="none" stroke="orange" stroke-dasharray="5,2" d="M147.35,-653C193.165,-653 252.302,-653 295.913,-653"/>
<polygon fill="orange" stroke="orange" points="147.195,-649.5 137.195,-653 147.195,-656.5 147.195,-649.5"/>
<text text-anchor="middle" x="225" y="-657" font-family="Helvetica,sans-Serif" font-size="10.00"> &lt; my_pointer_size &gt;</text>
</g>
<!-- Node12&#45;&gt;Node4 -->
<g id="edge30" class="edge"><title>Node12&#45;&gt;Node4</title>
<path fill="none" stroke="#9a32cd" stroke-dasharray="5,2" d="M1352.01,-346.296C1384.9,-342.74 1424.98,-338.408 1456.79,-334.969"/>
<polygon fill="#9a32cd" stroke="#9a32cd" points="1351.61,-342.818 1342.05,-347.373 1352.37,-349.778 1351.61,-342.818"/>
<text text-anchor="middle" x="1395" y="-349" font-family="Helvetica,sans-Serif" font-size="10.00"> disk_allocators</text>
</g>
<!-- Node13 -->
<g id="node32" class="node"><title>Node13</title>
<a xlink:href="classstxxl_1_1typed__block.html" target="_top" xlink:title="Block containing elements of fixed length. ">
<polygon fill="none" stroke="black" points="3174.5,-290.5 3174.5,-337.5 3299.5,-337.5 3299.5,-290.5 3174.5,-290.5"/>
<text text-anchor="start" x="3182.5" y="-324.5" font-family="Helvetica,sans-Serif" font-size="10.00">stxxl::typed_block</text>
<text text-anchor="start" x="3182.5" y="-311.5" font-family="Helvetica,sans-Serif" font-size="10.00">&lt; RawSize, Type, NRef,</text>
<text text-anchor="middle" x="3237" y="-298.5" font-family="Helvetica,sans-Serif" font-size="10.00"> MetaInfoType &gt;</text>
</a>
</g>
<!-- Node13&#45;&gt;Node1 -->
<g id="edge112" class="edge"><title>Node13&#45;&gt;Node1</title>
<path fill="none" stroke="#9a32cd" stroke-dasharray="5,2" d="M3309.91,-318.529C3403.36,-324.335 3564.63,-334.354 3659.69,-340.26"/>
<polygon fill="#9a32cd" stroke="#9a32cd" points="3309.89,-315.022 3299.69,-317.895 3309.46,-322.008 3309.89,-315.022"/>
<text text-anchor="middle" x="3483" y="-338" font-family="Helvetica,sans-Serif" font-size="10.00"> m_current_block</text>
</g>
<!-- Node13&#45;&gt;Node2 -->
<g id="edge40" class="edge"><title>Node13&#45;&gt;Node2</title>
<path fill="none" stroke="#9a32cd" stroke-dasharray="5,2" d="M3309.68,-326.034C3333.83,-331.281 3360.54,-338.464 3384,-348 3411.56,-359.201 3440.34,-377.504 3459.72,-390.954"/>
<polygon fill="#9a32cd" stroke="#9a32cd" points="3310.36,-322.601 3299.86,-323.975 3308.92,-329.452 3310.36,-322.601"/>
<text text-anchor="middle" x="3351" y="-365" font-family="Helvetica,sans-Serif" font-size="10.00"> m_front_block</text>
<text text-anchor="middle" x="3351" y="-352" font-family="Helvetica,sans-Serif" font-size="10.00">m_back_block</text>
</g>
<!-- Node14 -->
<g id="node34" class="node"><title>Node14</title>
<a xlink:href="classstxxl_1_1mng__local_1_1expand__struct.html" target="_top" xlink:title="stxxl::mng_local::expand\l_struct\&lt; mng_local::block\l_w_info\&lt; Type, RawSize, NRef,\l MetaInfoType \&gt;, RawSize \&gt;">
<polygon fill="none" stroke="black" points="2976.5,-160 2976.5,-220 3135.5,-220 3135.5,-160 2976.5,-160"/>
<text text-anchor="start" x="2984.5" y="-207" font-family="Helvetica,sans-Serif" font-size="10.00">stxxl::mng_local::expand</text>
<text text-anchor="start" x="2984.5" y="-194" font-family="Helvetica,sans-Serif" font-size="10.00">_struct&lt; mng_local::block</text>
<text text-anchor="start" x="2984.5" y="-181" font-family="Helvetica,sans-Serif" font-size="10.00">_w_info&lt; Type, RawSize, NRef,</text>
<text text-anchor="middle" x="3056" y="-168" font-family="Helvetica,sans-Serif" font-size="10.00"> MetaInfoType &gt;, RawSize &gt;</text>
</a>
</g>
<!-- Node14&#45;&gt;Node13 -->
<g id="edge42" class="edge"><title>Node14&#45;&gt;Node13</title>
<path fill="none" stroke="midnightblue" d="M3108.18,-225.746C3138.54,-246.549 3175.97,-272.19 3202.64,-290.462"/>
<polygon fill="midnightblue" stroke="midnightblue" points="3110.04,-222.781 3099.82,-220.017 3106.09,-228.556 3110.04,-222.781"/>
</g>
<!-- Node15 -->
<g id="node36" class="node"><title>Node15</title>
<a xlink:href="classstxxl_1_1mng__local_1_1add__filler.html" target="_top" xlink:title="stxxl::mng_local::add\l_filler\&lt; mng_local::block\l_w_info\&lt; Type, RawSize,\l NRef, MetaInfoType \&gt;, RawSize\l&#45;sizeof(mng_local::block_w_info\l\&lt; Type, RawSize, NRef, MetaInfoType \&gt;)\&gt;">
<polygon fill="none" stroke="black" points="2620,-147 2620,-233 2826,-233 2826,-147 2620,-147"/>
<text text-anchor="start" x="2628" y="-220" font-family="Helvetica,sans-Serif" font-size="10.00">stxxl::mng_local::add</text>
<text text-anchor="start" x="2628" y="-207" font-family="Helvetica,sans-Serif" font-size="10.00">_filler&lt; mng_local::block</text>
<text text-anchor="start" x="2628" y="-194" font-family="Helvetica,sans-Serif" font-size="10.00">_w_info&lt; Type, RawSize,</text>
<text text-anchor="start" x="2628" y="-181" font-family="Helvetica,sans-Serif" font-size="10.00"> NRef, MetaInfoType &gt;, RawSize</text>
<text text-anchor="start" x="2628" y="-168" font-family="Helvetica,sans-Serif" font-size="10.00">&#45;sizeof(mng_local::block_w_info</text>
<text text-anchor="middle" x="2723" y="-155" font-family="Helvetica,sans-Serif" font-size="10.00">&lt; Type, RawSize, NRef, MetaInfoType &gt;)&gt;</text>
</a>
</g>
<!-- Node15&#45;&gt;Node14 -->
<g id="edge44" class="edge"><title>Node15&#45;&gt;Node14</title>
<path fill="none" stroke="midnightblue" d="M2836.12,-190C2882.22,-190 2934.42,-190 2976.39,-190"/>
<polygon fill="midnightblue" stroke="midnightblue" points="2836.08,-186.5 2826.08,-190 2836.08,-193.5 2836.08,-186.5"/>
</g>
<!-- Node16 -->
<g id="node38" class="node"><title>Node16</title>
<a xlink:href="classstxxl_1_1mng__local_1_1block__w__info.html" target="_top" xlink:title="stxxl::mng_local::block\l_w_info\&lt; Type, RawSize,\l NRef, MetaInfoType \&gt;">
<polygon fill="none" stroke="black" points="2445,-218.5 2445,-265.5 2575,-265.5 2575,-218.5 2445,-218.5"/>
<text text-anchor="start" x="2453" y="-252.5" font-family="Helvetica,sans-Serif" font-size="10.00">stxxl::mng_local::block</text>
<text text-anchor="start" x="2453" y="-239.5" font-family="Helvetica,sans-Serif" font-size="10.00">_w_info&lt; Type, RawSize,</text>
<text text-anchor="middle" x="2510" y="-226.5" font-family="Helvetica,sans-Serif" font-size="10.00"> NRef, MetaInfoType &gt;</text>
</a>
</g>
<!-- Node16&#45;&gt;Node15 -->
<g id="edge46" class="edge"><title>Node16&#45;&gt;Node15</title>
<path fill="none" stroke="midnightblue" d="M2584.87,-223.721C2596.21,-220.954 2608.07,-218.058 2619.87,-215.177"/>
<polygon fill="midnightblue" stroke="midnightblue" points="2583.95,-220.344 2575.06,-226.116 2585.61,-227.144 2583.95,-220.344"/>
</g>
<!-- Node17 -->
<g id="node40" class="node"><title>Node17</title>
<a xlink:href="classstxxl_1_1mng__local_1_1block__w__bids.html" target="_top" xlink:title="stxxl::mng_local::block\l_w_bids\&lt; Type,((RawSize\l&#45;sizeof(BID\&lt; RawSize \&gt;)*NBids\l&#45;sizeof(MetaInfoType))/sizeof\l(Type)), RawSize, NBids \&gt;">
<polygon fill="none" stroke="black" points="1934,-205.5 1934,-278.5 2092,-278.5 2092,-205.5 1934,-205.5"/>
<text text-anchor="start" x="1942" y="-265.5" font-family="Helvetica,sans-Serif" font-size="10.00">stxxl::mng_local::block</text>
<text text-anchor="start" x="1942" y="-252.5" font-family="Helvetica,sans-Serif" font-size="10.00">_w_bids&lt; Type,((RawSize</text>
<text text-anchor="start" x="1942" y="-239.5" font-family="Helvetica,sans-Serif" font-size="10.00">&#45;sizeof(BID&lt; RawSize &gt;)*NBids</text>
<text text-anchor="start" x="1942" y="-226.5" font-family="Helvetica,sans-Serif" font-size="10.00">&#45;sizeof(MetaInfoType))/sizeof</text>
<text text-anchor="middle" x="2013" y="-213.5" font-family="Helvetica,sans-Serif" font-size="10.00">(Type)), RawSize, NBids &gt;</text>
</a>
</g>
<!-- Node17&#45;&gt;Node16 -->
<g id="edge48" class="edge"><title>Node17&#45;&gt;Node16</title>
<path fill="none" stroke="midnightblue" d="M2101.92,-266.632C2117.81,-270.113 2134.31,-273.137 2150,-275 2269.17,-289.15 2301.77,-292.588 2420,-272 2428.92,-270.446 2438.17,-268.175 2447.18,-265.567"/>
<polygon fill="midnightblue" stroke="midnightblue" points="2102.64,-263.207 2092.11,-264.413 2101.09,-270.034 2102.64,-263.207"/>
</g>
<!-- Node22 -->
<g id="node54" class="node"><title>Node22</title>
<a xlink:href="classstxxl_1_1mng__local_1_1block__w__info.html" target="_top" xlink:title="Contains per block information for stxxl::typed_block , not intended for direct use. ">
<polygon fill="none" stroke="black" points="2155,-218.5 2155,-265.5 2285,-265.5 2285,-218.5 2155,-218.5"/>
<text text-anchor="start" x="2163" y="-252.5" font-family="Helvetica,sans-Serif" font-size="10.00">stxxl::mng_local::block</text>
<text text-anchor="start" x="2163" y="-239.5" font-family="Helvetica,sans-Serif" font-size="10.00">_w_info&lt; Type, RawSize,</text>
<text text-anchor="middle" x="2220" y="-226.5" font-family="Helvetica,sans-Serif" font-size="10.00"> NBids, MetaInfoType &gt;</text>
</a>
</g>
<!-- Node17&#45;&gt;Node22 -->
<g id="edge68" class="edge"><title>Node17&#45;&gt;Node22</title>
<path fill="none" stroke="midnightblue" d="M2102.41,-242C2119.97,-242 2138.09,-242 2154.68,-242"/>
<polygon fill="midnightblue" stroke="midnightblue" points="2102.14,-238.5 2092.14,-242 2102.14,-245.5 2102.14,-238.5"/>
</g>
<!-- Node18 -->
<g id="node42" class="node"><title>Node18</title>
<a xlink:href="classstxxl_1_1mng__local_1_1element__block.html" target="_top" xlink:title="Contains data elements for stxxl::typed_block , not intended for direct use. ">
<polygon fill="none" stroke="black" points="1448,-187 1448,-221 1576,-221 1576,-187 1448,-187"/>
<text text-anchor="start" x="1456" y="-208" font-family="Helvetica,sans-Serif" font-size="10.00">stxxl::mng_local::element</text>
<text text-anchor="middle" x="1512" y="-195" font-family="Helvetica,sans-Serif" font-size="10.00">_block&lt; Type, Size &gt;</text>
</a>
</g>
<!-- Node18&#45;&gt;Node17 -->
<g id="edge50" class="edge"><title>Node18&#45;&gt;Node17</title>
<path fill="none" stroke="midnightblue" d="M1586.07,-213.588C1599.99,-215.205 1614.43,-216.759 1628,-218 1733.54,-227.65 1855.72,-234.541 1933.63,-238.396"/>
<polygon fill="midnightblue" stroke="midnightblue" points="1586.39,-210.101 1576.05,-212.402 1585.57,-217.053 1586.39,-210.101"/>
</g>
<!-- Node21 -->
<g id="node50" class="node"><title>Node21</title>
<a xlink:href="classstxxl_1_1mng__local_1_1block__w__bids.html" target="_top" xlink:title="Contains BID references for stxxl::typed_block , not intended for direct use. ">
<polygon fill="none" stroke="black" points="1628,-161.5 1628,-208.5 1786,-208.5 1786,-161.5 1628,-161.5"/>
<text text-anchor="start" x="1636" y="-195.5" font-family="Helvetica,sans-Serif" font-size="10.00">stxxl::mng_local::block</text>
<text text-anchor="start" x="1636" y="-182.5" font-family="Helvetica,sans-Serif" font-size="10.00">_w_bids&lt; Type, Size, RawSize,</text>
<text text-anchor="middle" x="1707" y="-169.5" font-family="Helvetica,sans-Serif" font-size="10.00"> NBids &gt;</text>
</a>
</g>
<!-- Node18&#45;&gt;Node21 -->
<g id="edge62" class="edge"><title>Node18&#45;&gt;Node21</title>
<path fill="none" stroke="midnightblue" d="M1586.36,-196.755C1599.94,-195.432 1614.15,-194.047 1627.86,-192.711"/>
<polygon fill="midnightblue" stroke="midnightblue" points="1585.73,-193.299 1576.12,-197.752 1586.41,-200.266 1585.73,-193.299"/>
</g>
<!-- Node19&#45;&gt;Node17 -->
<g id="edge52" class="edge"><title>Node19&#45;&gt;Node17</title>
<path fill="none" stroke="#9a32cd" stroke-dasharray="5,2" d="M1581.28,-261.488C1661.8,-260.574 1798.63,-258.036 1916,-251 1921.82,-250.651 1927.84,-250.232 1933.89,-249.77"/>
<polygon fill="#9a32cd" stroke="#9a32cd" points="1581.23,-257.988 1571.27,-261.596 1581.31,-264.988 1581.23,-257.988"/>
<text text-anchor="middle" x="1707" y="-264" font-family="Helvetica,sans-Serif" font-size="10.00"> ref</text>
</g>
<!-- Node19&#45;&gt;Node21 -->
<g id="edge64" class="edge"><title>Node19&#45;&gt;Node21</title>
<path fill="none" stroke="#9a32cd" stroke-dasharray="5,2" d="M1548.05,-247.767C1575.86,-236.782 1614.95,-221.347 1647.4,-208.533"/>
<polygon fill="#9a32cd" stroke="#9a32cd" points="1546.72,-244.527 1538.71,-251.455 1549.29,-251.038 1546.72,-244.527"/>
<text text-anchor="middle" x="1602" y="-232" font-family="Helvetica,sans-Serif" font-size="10.00"> ref</text>
</g>
<!-- Node20&#45;&gt;Node19 -->
<g id="edge56" class="edge"><title>Node20&#45;&gt;Node19</title>
<path fill="none" stroke="orange" stroke-dasharray="5,2" d="M1349.37,-169.058C1376.24,-168.539 1407.05,-172.568 1430,-189 1446.18,-200.584 1434.28,-215.581 1448,-230 1456.9,-239.361 1469.14,-246.397 1480.52,-251.453"/>
<polygon fill="orange" stroke="orange" points="1349.14,-165.565 1339.29,-169.464 1349.42,-172.559 1349.14,-165.565"/>
<text text-anchor="middle" x="1395" y="-193" font-family="Helvetica,sans-Serif" font-size="10.00"> &lt; raw_size &gt;</text>
</g>
<!-- Node21&#45;&gt;Node17 -->
<g id="edge60" class="edge"><title>Node21&#45;&gt;Node17</title>
<path fill="none" stroke="orange" stroke-dasharray="5,2" d="M1780.17,-158.818C1821.2,-148.223 1872.68,-141.849 1916,-158 1941.67,-167.572 1965.07,-187.337 1982.45,-205.291"/>
<polygon fill="orange" stroke="orange" points="1779.25,-155.442 1770.52,-161.439 1781.08,-162.198 1779.25,-155.442"/>
<text text-anchor="start" x="1804" y="-214" font-family="Helvetica,sans-Serif" font-size="10.00"> &lt; Type,((RawSize&#45;sizeof</text>
<text text-anchor="start" x="1804" y="-201" font-family="Helvetica,sans-Serif" font-size="10.00">(BID&lt; RawSize &gt;)*NBids</text>
<text text-anchor="start" x="1804" y="-188" font-family="Helvetica,sans-Serif" font-size="10.00">&#45;sizeof(MetaInfoType))</text>
<text text-anchor="start" x="1804" y="-175" font-family="Helvetica,sans-Serif" font-size="10.00">/sizeof(Type)), RawSize,</text>
<text text-anchor="middle" x="1860" y="-162" font-family="Helvetica,sans-Serif" font-size="10.00"> NBids &gt;</text>
</g>
<!-- Node22&#45;&gt;Node16 -->
<g id="edge66" class="edge"><title>Node22&#45;&gt;Node16</title>
<path fill="none" stroke="orange" stroke-dasharray="5,2" d="M2295.08,-242C2341.49,-242 2400.46,-242 2444.89,-242"/>
<polygon fill="orange" stroke="orange" points="2295.08,-238.5 2285.08,-242 2295.08,-245.5 2295.08,-238.5"/>
<text text-anchor="start" x="2308" y="-259" font-family="Helvetica,sans-Serif" font-size="10.00"> &lt; Type, RawSize, NRef,</text>
<text text-anchor="middle" x="2364" y="-246" font-family="Helvetica,sans-Serif" font-size="10.00"> MetaInfoType &gt;</text>
</g>
<!-- Node23 -->
<g id="node57" class="node"><title>Node23</title>
<a xlink:href="classstxxl_1_1mng__local_1_1filler__struct.html" target="_top" xlink:title="stxxl::mng_local::filler\l_struct\&lt; FillSize \&gt;">
<polygon fill="none" stroke="black" points="1957,-96 1957,-130 2069,-130 2069,-96 1957,-96"/>
<text text-anchor="start" x="1965" y="-117" font-family="Helvetica,sans-Serif" font-size="10.00">stxxl::mng_local::filler</text>
<text text-anchor="middle" x="2013" y="-104" font-family="Helvetica,sans-Serif" font-size="10.00">_struct&lt; FillSize &gt;</text>
</a>
</g>
<!-- Node23&#45;&gt;Node15 -->
<g id="edge70" class="edge"><title>Node23&#45;&gt;Node15</title>
<path fill="none" stroke="#9a32cd" stroke-dasharray="5,2" d="M2078.94,-125.668C2089.32,-127.537 2099.94,-129.378 2110,-131 2255.27,-154.43 2291.49,-162.377 2438,-176 2498.18,-181.595 2565.73,-185.037 2619.95,-187.107"/>
<polygon fill="#9a32cd" stroke="#9a32cd" points="2079.55,-122.222 2069.09,-123.873 2078.3,-129.109 2079.55,-122.222"/>
<text text-anchor="middle" x="2364" y="-179" font-family="Helvetica,sans-Serif" font-size="10.00"> filler</text>
</g>
<!-- Node25 -->
<g id="node61" class="node"><title>Node25</title>
<a xlink:href="classstxxl_1_1mng__local_1_1add__filler.html" target="_top" xlink:title="Contains per block filler for stxxl::typed_block , not intended for direct use. ">
<polygon fill="none" stroke="black" points="2150,-43 2150,-77 2290,-77 2290,-43 2150,-43"/>
<text text-anchor="start" x="2158" y="-64" font-family="Helvetica,sans-Serif" font-size="10.00">stxxl::mng_local::add</text>
<text text-anchor="middle" x="2220" y="-51" font-family="Helvetica,sans-Serif" font-size="10.00">_filler&lt; BaseType, FillSize &gt;</text>
</a>
</g>
<!-- Node23&#45;&gt;Node25 -->
<g id="edge76" class="edge"><title>Node23&#45;&gt;Node25</title>
<path fill="none" stroke="#9a32cd" stroke-dasharray="5,2" d="M2078.92,-94.2761C2089.3,-91.4354 2099.93,-88.5908 2110,-86 2122.83,-82.6999 2136.54,-79.3326 2149.78,-76.1628"/>
<polygon fill="#9a32cd" stroke="#9a32cd" points="2077.78,-90.9601 2069.06,-96.99 2079.64,-97.7088 2077.78,-90.9601"/>
<text text-anchor="middle" x="2121" y="-90" font-family="Helvetica,sans-Serif" font-size="10.00"> filler</text>
</g>
<!-- Node27 -->
<g id="node66" class="node"><title>Node27</title>
<a xlink:href="classstxxl_1_1mng__local_1_1add__filler.html" target="_top" xlink:title="stxxl::mng_local::add\l_filler\&lt; Type, RawSize\l&#45;sizeof(Type)\&gt;">
<polygon fill="none" stroke="black" points="2452,-0.5 2452,-47.5 2568,-47.5 2568,-0.5 2452,-0.5"/>
<text text-anchor="start" x="2460" y="-34.5" font-family="Helvetica,sans-Serif" font-size="10.00">stxxl::mng_local::add</text>
<text text-anchor="start" x="2460" y="-21.5" font-family="Helvetica,sans-Serif" font-size="10.00">_filler&lt; Type, RawSize</text>
<text text-anchor="middle" x="2510" y="-8.5" font-family="Helvetica,sans-Serif" font-size="10.00">&#45;sizeof(Type)&gt;</text>
</a>
</g>
<!-- Node23&#45;&gt;Node27 -->
<g id="edge82" class="edge"><title>Node23&#45;&gt;Node27</title>
<path fill="none" stroke="#9a32cd" stroke-dasharray="5,2" d="M2079.39,-116.396C2161.76,-118.434 2305.36,-114.781 2420,-74 2429.06,-70.7776 2429.74,-66.917 2438,-62 2446.14,-57.1571 2454.95,-52.2463 2463.52,-47.6348"/>
<polygon fill="#9a32cd" stroke="#9a32cd" points="2079.25,-112.891 2069.16,-116.106 2079.06,-119.889 2079.25,-112.891"/>
<text text-anchor="middle" x="2220" y="-121" font-family="Helvetica,sans-Serif" font-size="10.00"> filler</text>
</g>
<!-- Node24 -->
<g id="node59" class="node"><title>Node24</title>
<a xlink:href="classstxxl_1_1mng__local_1_1filler__struct.html" target="_top" xlink:title="stxxl::mng_local::filler\l_struct\&lt; Bytes \&gt;">
<polygon fill="none" stroke="black" points="1651,-96 1651,-130 1763,-130 1763,-96 1651,-96"/>
<text text-anchor="start" x="1659" y="-117" font-family="Helvetica,sans-Serif" font-size="10.00">stxxl::mng_local::filler</text>
<text text-anchor="middle" x="1707" y="-104" font-family="Helvetica,sans-Serif" font-size="10.00">_struct&lt; Bytes &gt;</text>
</a>
</g>
<!-- Node24&#45;&gt;Node23 -->
<g id="edge72" class="edge"><title>Node24&#45;&gt;Node23</title>
<path fill="none" stroke="orange" stroke-dasharray="5,2" d="M1773.44,-113C1828.27,-113 1905.22,-113 1956.97,-113"/>
<polygon fill="orange" stroke="orange" points="1773.13,-109.5 1763.13,-113 1773.13,-116.5 1773.13,-109.5"/>
<text text-anchor="middle" x="1860" y="-117" font-family="Helvetica,sans-Serif" font-size="10.00"> &lt; FillSize &gt;</text>
</g>
<!-- Node25&#45;&gt;Node15 -->
<g id="edge74" class="edge"><title>Node25&#45;&gt;Node15</title>
<path fill="none" stroke="orange" stroke-dasharray="5,2" d="M2300.27,-69.1596C2302.88,-69.4449 2305.46,-69.7257 2308,-70 2429.71,-83.1332 2466.59,-57.1798 2582,-98 2613.55,-109.16 2645.09,-128.742 2670.31,-146.978"/>
<polygon fill="orange" stroke="orange" points="2300.44,-65.6579 2290.12,-68.0407 2299.68,-72.6157 2300.44,-65.6579"/>
<text text-anchor="start" x="2438.5" y="-167" font-family="Helvetica,sans-Serif" font-size="10.00"> &lt; mng_local::block</text>
<text text-anchor="start" x="2438.5" y="-154" font-family="Helvetica,sans-Serif" font-size="10.00">_w_info&lt; Type, RawSize,</text>
<text text-anchor="start" x="2438.5" y="-141" font-family="Helvetica,sans-Serif" font-size="10.00"> NRef, MetaInfoType &gt;,</text>
<text text-anchor="start" x="2438.5" y="-128" font-family="Helvetica,sans-Serif" font-size="10.00"> RawSize&#45;sizeof(mng_local</text>
<text text-anchor="start" x="2438.5" y="-115" font-family="Helvetica,sans-Serif" font-size="10.00">::block_w_info&lt; Type, RawSize,</text>
<text text-anchor="middle" x="2510" y="-102" font-family="Helvetica,sans-Serif" font-size="10.00"> NRef, MetaInfoType &gt;)&gt;</text>
</g>
<!-- Node25&#45;&gt;Node27 -->
<g id="edge84" class="edge"><title>Node25&#45;&gt;Node27</title>
<path fill="none" stroke="orange" stroke-dasharray="5,2" d="M2299.95,-45.1762C2302.66,-44.7648 2305.35,-44.3712 2308,-44 2356.34,-37.2243 2411.5,-31.9262 2451.95,-28.4901"/>
<polygon fill="orange" stroke="orange" points="2299.38,-41.7224 2290.05,-46.735 2300.47,-48.6373 2299.38,-41.7224"/>
<text text-anchor="start" x="2309.5" y="-61" font-family="Helvetica,sans-Serif" font-size="10.00"> &lt; Type, RawSize&#45;sizeof</text>
<text text-anchor="middle" x="2364" y="-48" font-family="Helvetica,sans-Serif" font-size="10.00">(Type)&gt;</text>
</g>
<!-- Node26 -->
<g id="node64" class="node"><title>Node26</title>
<a xlink:href="classstxxl_1_1mng__local_1_1expand__struct.html" target="_top" xlink:title="Helper to compute the size of the filler , not intended for direct use. ">
<polygon fill="none" stroke="black" points="2657,-60 2657,-94 2789,-94 2789,-60 2657,-60"/>
<text text-anchor="start" x="2665" y="-81" font-family="Helvetica,sans-Serif" font-size="10.00">stxxl::mng_local::expand</text>
<text text-anchor="middle" x="2723" y="-68" font-family="Helvetica,sans-Serif" font-size="10.00">_struct&lt; Type, RawSize &gt;</text>
</a>
</g>
<!-- Node26&#45;&gt;Node14 -->
<g id="edge78" class="edge"><title>Node26&#45;&gt;Node14</title>
<path fill="none" stroke="orange" stroke-dasharray="5,2" d="M2799.18,-89.8348C2846.01,-99.0945 2906.67,-113.583 2958,-134 2975.48,-140.952 2993.63,-150.566 3009.49,-159.866"/>
<polygon fill="orange" stroke="orange" points="2799.59,-86.3488 2789.11,-87.8807 2798.26,-93.2207 2799.59,-86.3488"/>
<text text-anchor="start" x="2844" y="-177" font-family="Helvetica,sans-Serif" font-size="10.00"> &lt; mng_local::block</text>
<text text-anchor="start" x="2844" y="-164" font-family="Helvetica,sans-Serif" font-size="10.00">_w_info&lt; Type, RawSize,</text>
<text text-anchor="start" x="2844" y="-151" font-family="Helvetica,sans-Serif" font-size="10.00"> NRef, MetaInfoType &gt;,</text>
<text text-anchor="middle" x="2901" y="-138" font-family="Helvetica,sans-Serif" font-size="10.00"> RawSize &gt;</text>
</g>
<!-- Node27&#45;&gt;Node26 -->
<g id="edge80" class="edge"><title>Node27&#45;&gt;Node26</title>
<path fill="none" stroke="midnightblue" d="M2578.07,-40.9371C2603.32,-47.2208 2631.9,-54.3331 2656.97,-60.5708"/>
<polygon fill="midnightblue" stroke="midnightblue" points="2578.75,-37.5008 2568.2,-38.4825 2577.06,-44.2936 2578.75,-37.5008"/>
</g>
<!-- Node28&#45;&gt;Node2 -->
<g id="edge86" class="edge"><title>Node28&#45;&gt;Node2</title>
<path fill="none" stroke="#9a32cd" stroke-dasharray="5,2" d="M1176.09,-521.074C1209.92,-513.827 1251.9,-507 1290,-507 1290,-507 1290,-507 3237,-507 3323.78,-507 3416.14,-453.324 3458.81,-425.019"/>
<polygon fill="#9a32cd" stroke="#9a32cd" points="1175.33,-517.657 1166.32,-523.226 1176.84,-524.493 1175.33,-517.657"/>
<text text-anchor="middle" x="2220" y="-511" font-family="Helvetica,sans-Serif" font-size="10.00"> m_pool</text>
</g>
<!-- Node29&#45;&gt;Node28 -->
<g id="edge90" class="edge"><title>Node29&#45;&gt;Node28</title>
<path fill="none" stroke="#9a32cd" stroke-dasharray="5,2" d="M664.098,-655.896C751.359,-657.508 914.544,-651 1036,-590 1055.22,-580.345 1075.06,-566.132 1089.36,-555.004"/>
<polygon fill="#9a32cd" stroke="#9a32cd" points="664.174,-652.397 654.097,-655.669 664.015,-659.395 664.174,-652.397"/>
<text text-anchor="middle" x="890" y="-650" font-family="Helvetica,sans-Serif" font-size="10.00"> p_pool</text>
</g>
<!-- Node29&#45;&gt;Node33 -->
<g id="edge108" class="edge"><title>Node29&#45;&gt;Node33</title>
<path fill="none" stroke="#9a32cd" stroke-dasharray="5,2" d="M664.261,-639.299C674.193,-637.146 684.375,-634.98 694,-633 747.191,-622.06 760.83,-621.039 814,-610 820.354,-608.681 826.998,-607.258 833.598,-605.818"/>
<polygon fill="#9a32cd" stroke="#9a32cd" points="663.467,-635.89 654.443,-641.44 664.959,-642.729 663.467,-635.89"/>
<text text-anchor="middle" x="754" y="-637" font-family="Helvetica,sans-Serif" font-size="10.00"> p_pool</text>
</g>
<!-- Node30 -->
<g id="node77" class="node"><title>Node30</title>
<a xlink:href="structstxxl_1_1compat__hash__map.html" target="_top" xlink:title="stxxl::compat_hash\l_map\&lt; bid_type, busy\l_entry, bid_hash \&gt;">
<polygon fill="none" stroke="black" points="299.5,-708.5 299.5,-755.5 412.5,-755.5 412.5,-708.5 299.5,-708.5"/>
<text text-anchor="start" x="307.5" y="-742.5" font-family="Helvetica,sans-Serif" font-size="10.00">stxxl::compat_hash</text>
<text text-anchor="start" x="307.5" y="-729.5" font-family="Helvetica,sans-Serif" font-size="10.00">_map&lt; bid_type, busy</text>
<text text-anchor="middle" x="356" y="-716.5" font-family="Helvetica,sans-Serif" font-size="10.00">_entry, bid_hash &gt;</text>
</a>
</g>
<!-- Node30&#45;&gt;Node29 -->
<g id="edge96" class="edge"><title>Node30&#45;&gt;Node29</title>
<path fill="none" stroke="#9a32cd" stroke-dasharray="5,2" d="M422.22,-710.82C462.845,-697.827 514.093,-681.436 551.641,-669.427"/>
<polygon fill="#9a32cd" stroke="#9a32cd" points="421.125,-707.496 412.667,-713.876 423.258,-714.163 421.125,-707.496"/>
<text text-anchor="middle" x="473" y="-710" font-family="Helvetica,sans-Serif" font-size="10.00"> busy_blocks</text>
</g>
<!-- Node31 -->
<g id="node79" class="node"><title>Node31</title>
<a xlink:href="structstxxl_1_1compat__hash__map.html" target="_top" xlink:title="stxxl::compat_hash\l_map\&lt; KeyType, MappedType,\l HashType \&gt;">
<polygon fill="none" stroke="black" points="0,-708.5 0,-755.5 154,-755.5 154,-708.5 0,-708.5"/>
<text text-anchor="start" x="8" y="-742.5" font-family="Helvetica,sans-Serif" font-size="10.00">stxxl::compat_hash</text>
<text text-anchor="start" x="8" y="-729.5" font-family="Helvetica,sans-Serif" font-size="10.00">_map&lt; KeyType, MappedType,</text>
<text text-anchor="middle" x="77" y="-716.5" font-family="Helvetica,sans-Serif" font-size="10.00"> HashType &gt;</text>
</a>
</g>
<!-- Node31&#45;&gt;Node30 -->
<g id="edge98" class="edge"><title>Node31&#45;&gt;Node30</title>
<path fill="none" stroke="orange" stroke-dasharray="5,2" d="M164.478,-732C208.505,-732 260.6,-732 299.336,-732"/>
<polygon fill="orange" stroke="orange" points="164.347,-728.5 154.347,-732 164.347,-735.5 164.347,-728.5"/>
<text text-anchor="start" x="172" y="-749" font-family="Helvetica,sans-Serif" font-size="10.00"> &lt; bid_type, busy_entry,</text>
<text text-anchor="middle" x="225" y="-736" font-family="Helvetica,sans-Serif" font-size="10.00"> bid_hash &gt;</text>
</g>
<!-- Node32&#45;&gt;Node28 -->
<g id="edge100" class="edge"><title>Node32&#45;&gt;Node28</title>
<path fill="none" stroke="#9a32cd" stroke-dasharray="5,2" d="M660.254,-558.403C758.204,-553.959 956.745,-544.952 1053.9,-540.545"/>
<polygon fill="#9a32cd" stroke="#9a32cd" points="660.073,-554.907 650.242,-558.857 660.39,-561.9 660.073,-554.907"/>
<text text-anchor="middle" x="890" y="-554" font-family="Helvetica,sans-Serif" font-size="10.00"> w_pool</text>
</g>
<!-- Node32&#45;&gt;Node33 -->
<g id="edge110" class="edge"><title>Node32&#45;&gt;Node33</title>
<path fill="none" stroke="#9a32cd" stroke-dasharray="5,2" d="M660.43,-560.636C703.063,-561.177 762.487,-563.643 814,-572 820.486,-573.052 827.211,-574.448 833.859,-576.022"/>
<polygon fill="#9a32cd" stroke="#9a32cd" points="660.274,-557.134 650.241,-560.539 660.207,-564.134 660.274,-557.134"/>
<text text-anchor="middle" x="754" y="-576" font-family="Helvetica,sans-Serif" font-size="10.00"> w_pool</text>
</g>
<!-- Node33&#45;&gt;Node28 -->
<g id="edge104" class="edge"><title>Node33&#45;&gt;Node28</title>
<path fill="none" stroke="orange" stroke-dasharray="5,2" d="M955.974,-576.506C987.092,-568.727 1023.84,-559.54 1053.64,-552.091"/>
<polygon fill="orange" stroke="orange" points="954.937,-573.158 946.085,-578.979 956.635,-579.949 954.937,-573.158"/>
<text text-anchor="middle" x="1001" y="-577" font-family="Helvetica,sans-Serif" font-size="10.00"> &lt; block_type &gt;</text>
</g>
</g>
</svg>
