<?xml version="1.0" encoding="UTF-8" standalone="no"?>
<!DOCTYPE svg PUBLIC "-//W3C//DTD SVG 1.1//EN"
 "http://www.w3.org/Graphics/SVG/1.1/DTD/svg11.dtd">
<!-- Generated by graphviz version 2.26.3 (20100126.1600)
 -->
<!-- Title: stxxl::state&lt; ValueType &gt; Pages: 1 -->
<svg width="248pt" height="162pt"
 viewBox="0.00 0.00 248.00 162.00" xmlns="http://www.w3.org/2000/svg" xmlns:xlink="http://www.w3.org/1999/xlink">
<g id="graph1" class="graph" transform="scale(1 1) rotate(0) translate(4 158)">
<title>stxxl::state&lt; ValueType &gt;</title>
<!-- Node1 -->
<g id="node1" class="node"><title>Node1</title>
<polygon fill="#bfbfbf" stroke="black" points="0,-0.5 0,-21.5 130,-21.5 130,-0.5 0,-0.5"/>
<text text-anchor="middle" x="65" y="-8.5" font-family="Helvetica,sans-Serif" font-size="10.00">stxxl::state&lt; ValueType &gt;</text>
</g>
<!-- Node2 -->
<g id="node2" class="node"><title>Node2</title>
<a xlink:href="classstxxl_1_1noncopyable.html" target="_top" xlink:title="stxxl::noncopyable">
<polygon fill="none" stroke="black" points="16,-132.5 16,-153.5 114,-153.5 114,-132.5 16,-132.5"/>
<text text-anchor="middle" x="65" y="-140.5" font-family="Helvetica,sans-Serif" font-size="10.00">stxxl::noncopyable</text>
</a>
</g>
<!-- Node2&#45;&gt;Node1 -->
<g id="edge2" class="edge"><title>Node2&#45;&gt;Node1</title>
<path fill="none" stroke="#8b1a1a" d="M43.4588,-125.489C34.7238,-117.01 25.6186,-106.056 21,-94 17.5021,-84.8693 17.9945,-81.3044 21,-72 27.422,-52.119 43.004,-33.2611 53.7874,-21.9135"/>
<polygon fill="#8b1a1a" stroke="#8b1a1a" points="41.1633,-128.132 50.9177,-132.268 45.8714,-122.952 41.1633,-128.132"/>
</g>
<!-- Node3 -->
<g id="node4" class="node"><title>Node3</title>
<a xlink:href="classstxxl_1_1mutex.html" target="_top" xlink:title="stxxl::mutex">
<polygon fill="none" stroke="black" points="29.5,-72.5 29.5,-93.5 100.5,-93.5 100.5,-72.5 29.5,-72.5"/>
<text text-anchor="middle" x="65" y="-80.5" font-family="Helvetica,sans-Serif" font-size="10.00">stxxl::mutex</text>
</a>
</g>
<!-- Node2&#45;&gt;Node3 -->
<g id="edge6" class="edge"><title>Node2&#45;&gt;Node3</title>
<path fill="none" stroke="#8b1a1a" d="M65,-122.231C65,-112.592 65,-101.544 65,-93.6339"/>
<polygon fill="#8b1a1a" stroke="#8b1a1a" points="61.5001,-122.273 65,-132.273 68.5001,-122.273 61.5001,-122.273"/>
</g>
<!-- Node4 -->
<g id="node7" class="node"><title>Node4</title>
<a xlink:href="classstxxl_1_1condition__variable.html" target="_top" xlink:title="stxxl::condition_variable">
<polygon fill="none" stroke="black" points="118,-72.5 118,-93.5 240,-93.5 240,-72.5 118,-72.5"/>
<text text-anchor="middle" x="179" y="-80.5" font-family="Helvetica,sans-Serif" font-size="10.00">stxxl::condition_variable</text>
</a>
</g>
<!-- Node2&#45;&gt;Node4 -->
<g id="edge10" class="edge"><title>Node2&#45;&gt;Node4</title>
<path fill="none" stroke="#8b1a1a" d="M94.1932,-127.635C114.393,-117.004 140.763,-103.125 158.699,-93.6846"/>
<polygon fill="#8b1a1a" stroke="#8b1a1a" points="92.3376,-124.657 85.1185,-132.411 95.5978,-130.851 92.3376,-124.657"/>
</g>
<!-- Node3&#45;&gt;Node1 -->
<g id="edge4" class="edge"><title>Node3&#45;&gt;Node1</title>
<path fill="none" stroke="#9a32cd" stroke-dasharray="5,2" d="M65,-62.2348C65,-48.969 65,-32.3188 65,-21.6674"/>
<polygon fill="#9a32cd" stroke="#9a32cd" points="61.5001,-62.3761 65,-72.3762 68.5001,-62.3762 61.5001,-62.3761"/>
<text text-anchor="middle" x="87" y="-44.5" font-family="Helvetica,sans-Serif" font-size="10.00"> m_mutex</text>
</g>
<!-- Node4&#45;&gt;Node1 -->
<g id="edge8" class="edge"><title>Node4&#45;&gt;Node1</title>
<path fill="none" stroke="#9a32cd" stroke-dasharray="5,2" d="M154.648,-66.8524C142.245,-58.7001 126.888,-48.7162 113,-40 103.104,-33.7894 91.9387,-27.0292 82.8684,-21.5992"/>
<polygon fill="#9a32cd" stroke="#9a32cd" points="152.818,-69.8384 163.094,-72.4204 156.671,-63.9941 152.818,-69.8384"/>
<text text-anchor="middle" x="153" y="-44.5" font-family="Helvetica,sans-Serif" font-size="10.00"> m_cond</text>
</g>
</g>
</svg>
