<?xml version="1.0" encoding="UTF-8" standalone="no"?>
<!DOCTYPE svg PUBLIC "-//W3C//DTD SVG 1.1//EN"
 "http://www.w3.org/Graphics/SVG/1.1/DTD/svg11.dtd">
<!-- Generated by graphviz version 2.26.3 (20100126.1600)
 -->
<!-- Title: stxxl::vector_iterator&lt; ValueType, AllocStr, SizeType, DiffType, BlockSize, PagerType, PageSize &gt; Pages: 1 -->
<svg width="1836pt" height="420pt"
 viewBox="0.00 0.00 1836.00 420.02" xmlns="http://www.w3.org/2000/svg" xmlns:xlink="http://www.w3.org/1999/xlink">
<g id="graph1" class="graph" transform="scale(1 1) rotate(0) translate(4 416.015)">
<title>stxxl::vector_iterator&lt; ValueType, AllocStr, SizeType, DiffType, BlockSize, PagerType, PageSize &gt;</title>
<!-- Node1 -->
<g id="node1" class="node"><title>Node1</title>
<polygon fill="#bfbfbf" stroke="black" points="1670,-277.015 1670,-337.015 1828,-337.015 1828,-277.015 1670,-277.015"/>
<text text-anchor="start" x="1678" y="-324.015" font-family="Helvetica,sans-Serif" font-size="10.00">stxxl::vector_iterator</text>
<text text-anchor="start" x="1678" y="-311.015" font-family="Helvetica,sans-Serif" font-size="10.00">&lt; ValueType, AllocStr,</text>
<text text-anchor="start" x="1678" y="-298.015" font-family="Helvetica,sans-Serif" font-size="10.00"> SizeType, DiffType, BlockSize,</text>
<text text-anchor="middle" x="1749" y="-285.015" font-family="Helvetica,sans-Serif" font-size="10.00"> PagerType, PageSize &gt;</text>
</g>
<!-- Node2 -->
<g id="node2" class="node"><title>Node2</title>
<a xlink:href="classstxxl_1_1double__blocked__index.html" target="_top" xlink:title="stxxl::double_blocked\l_index\&lt; size_type, modulo2,\l modulo1 \&gt;">
<polygon fill="none" stroke="black" points="686,-346.515 686,-393.515 828,-393.515 828,-346.515 686,-346.515"/>
<text text-anchor="start" x="694" y="-380.515" font-family="Helvetica,sans-Serif" font-size="10.00">stxxl::double_blocked</text>
<text text-anchor="start" x="694" y="-367.515" font-family="Helvetica,sans-Serif" font-size="10.00">_index&lt; size_type, modulo2,</text>
<text text-anchor="middle" x="757" y="-354.515" font-family="Helvetica,sans-Serif" font-size="10.00"> modulo1 &gt;</text>
</a>
</g>
<!-- Node2&#45;&gt;Node1 -->
<g id="edge2" class="edge"><title>Node2&#45;&gt;Node1</title>
<path fill="none" stroke="#9a32cd" stroke-dasharray="5,2" d="M838.661,-364.23C869.742,-362.481 905.493,-361.015 938,-361.015 938,-361.015 938,-361.015 1508,-361.015 1562.99,-361.015 1623.37,-347.463 1669.94,-333.936"/>
<polygon fill="#9a32cd" stroke="#9a32cd" points="838.091,-360.757 828.311,-364.832 838.498,-367.745 838.091,-360.757"/>
<text text-anchor="middle" x="1131" y="-365.015" font-family="Helvetica,sans-Serif" font-size="10.00"> offset</text>
</g>
<!-- Node3 -->
<g id="node4" class="node"><title>Node3</title>
<a xlink:href="structstxxl_1_1choose__int__types.html" target="_top" xlink:title="stxxl::choose_int_types\l\&lt; my_pointer_size \&gt;">
<polygon fill="none" stroke="black" points="263,-357.015 263,-391.015 383,-391.015 383,-357.015 263,-357.015"/>
<text text-anchor="start" x="271" y="-378.015" font-family="Helvetica,sans-Serif" font-size="10.00">stxxl::choose_int_types</text>
<text text-anchor="middle" x="323" y="-365.015" font-family="Helvetica,sans-Serif" font-size="10.00">&lt; my_pointer_size &gt;</text>
</a>
</g>
<!-- Node3&#45;&gt;Node2 -->
<g id="edge4" class="edge"><title>Node3&#45;&gt;Node2</title>
<path fill="none" stroke="#9a32cd" stroke-dasharray="5,2" d="M393.383,-373.367C473.83,-372.625 604.784,-371.418 685.638,-370.673"/>
<polygon fill="#9a32cd" stroke="#9a32cd" points="393.313,-369.867 383.346,-373.459 393.378,-376.867 393.313,-369.867"/>
<text text-anchor="middle" x="474" y="-403.015" font-family="Helvetica,sans-Serif" font-size="10.00"> offset</text>
<text text-anchor="middle" x="474" y="-390.015" font-family="Helvetica,sans-Serif" font-size="10.00">block1</text>
<text text-anchor="middle" x="474" y="-377.015" font-family="Helvetica,sans-Serif" font-size="10.00">block2</text>
</g>
<!-- Node8 -->
<g id="node14" class="node"><title>Node8</title>
<a xlink:href="classstxxl_1_1atomic__counted__object.html" target="_top" xlink:title="Provides reference counting abilities for use with counting_ptr with mutex locking. ">
<polygon fill="none" stroke="black" points="553.5,-265.015 553.5,-299.015 666.5,-299.015 666.5,-265.015 553.5,-265.015"/>
<text text-anchor="start" x="561.5" y="-286.015" font-family="Helvetica,sans-Serif" font-size="10.00">stxxl::atomic_counted</text>
<text text-anchor="middle" x="610" y="-273.015" font-family="Helvetica,sans-Serif" font-size="10.00">_object</text>
</a>
</g>
<!-- Node3&#45;&gt;Node8 -->
<g id="edge20" class="edge"><title>Node3&#45;&gt;Node8</title>
<path fill="none" stroke="#9a32cd" stroke-dasharray="5,2" d="M370.468,-352.858C384.359,-347.032 399.666,-340.96 414,-336.015 460.212,-320.073 513.79,-305.575 553.237,-295.625"/>
<polygon fill="#9a32cd" stroke="#9a32cd" points="368.941,-349.704 361.106,-356.836 371.678,-356.147 368.941,-349.704"/>
<text text-anchor="middle" x="474" y="-340.015" font-family="Helvetica,sans-Serif" font-size="10.00"> m_reference_count</text>
</g>
<!-- Node4 -->
<g id="node6" class="node"><title>Node4</title>
<a xlink:href="structstxxl_1_1choose__int__types.html" target="_top" xlink:title="stxxl::choose_int_types\l\&lt; PtrSize \&gt;">
<polygon fill="none" stroke="black" points="0,-357.015 0,-391.015 120,-391.015 120,-357.015 0,-357.015"/>
<text text-anchor="start" x="8" y="-378.015" font-family="Helvetica,sans-Serif" font-size="10.00">stxxl::choose_int_types</text>
<text text-anchor="middle" x="60" y="-365.015" font-family="Helvetica,sans-Serif" font-size="10.00">&lt; PtrSize &gt;</text>
</a>
</g>
<!-- Node4&#45;&gt;Node3 -->
<g id="edge6" class="edge"><title>Node4&#45;&gt;Node3</title>
<path fill="none" stroke="orange" stroke-dasharray="5,2" d="M130.017,-374.015C171.397,-374.015 223.258,-374.015 262.795,-374.015"/>
<polygon fill="orange" stroke="orange" points="130.008,-370.516 120.008,-374.015 130.008,-377.516 130.008,-370.516"/>
<text text-anchor="middle" x="185" y="-378.015" font-family="Helvetica,sans-Serif" font-size="10.00"> &lt; my_pointer_size &gt;</text>
</g>
<!-- Node5 -->
<g id="node8" class="node"><title>Node5</title>
<a xlink:href="classstxxl_1_1vector.html" target="_top" xlink:title="External vector container. &#160;Introduction to vector container: see STXXL Vector tutorial. &#160;Design and Internals of vector container: see Vector. ">
<polygon fill="none" stroke="black" points="1424,-173.515 1424,-220.515 1592,-220.515 1592,-173.515 1424,-173.515"/>
<text text-anchor="start" x="1432" y="-207.515" font-family="Helvetica,sans-Serif" font-size="10.00">stxxl::vector&lt; ValueType,</text>
<text text-anchor="start" x="1432" y="-194.515" font-family="Helvetica,sans-Serif" font-size="10.00"> PageSize, PagerType, BlockSize,</text>
<text text-anchor="middle" x="1508" y="-181.515" font-family="Helvetica,sans-Serif" font-size="10.00"> AllocStr, SizeType &gt;</text>
</a>
</g>
<!-- Node5&#45;&gt;Node1 -->
<g id="edge8" class="edge"><title>Node5&#45;&gt;Node1</title>
<path fill="none" stroke="#9a32cd" stroke-dasharray="5,2" d="M1568.82,-224.777C1603.69,-240.691 1647.47,-260.676 1683.15,-276.959"/>
<polygon fill="#9a32cd" stroke="#9a32cd" points="1570.25,-221.581 1559.7,-220.613 1567.34,-227.95 1570.25,-221.581"/>
<text text-anchor="middle" x="1631" y="-266.015" font-family="Helvetica,sans-Serif" font-size="10.00"> p_vector</text>
</g>
<!-- Node6 -->
<g id="node10" class="node"><title>Node6</title>
<a xlink:href="classstxxl_1_1file.html" target="_top" xlink:title="Defines interface of file. ">
<polygon fill="none" stroke="black" points="846,-271.515 846,-292.515 902,-292.515 902,-271.515 846,-271.515"/>
<text text-anchor="middle" x="874" y="-279.515" font-family="Helvetica,sans-Serif" font-size="10.00">stxxl::file</text>
</a>
</g>
<!-- Node6&#45;&gt;Node5 -->
<g id="edge10" class="edge"><title>Node6&#45;&gt;Node5</title>
<path fill="none" stroke="#9a32cd" stroke-dasharray="5,2" d="M912.241,-287.386C914.863,-287.636 917.468,-287.851 920,-288.015 935.966,-289.052 940.001,-288.147 956,-288.015 1132.89,-286.566 1179.1,-285.398 1352,-248.015 1383.47,-241.211 1417.55,-230.477 1445.81,-220.608"/>
<polygon fill="#9a32cd" stroke="#9a32cd" points="912.486,-283.892 902.163,-286.276 911.72,-290.85 912.486,-283.892"/>
<text text-anchor="middle" x="1131" y="-290.015" font-family="Helvetica,sans-Serif" font-size="10.00"> m_from</text>
</g>
<!-- Node10 -->
<g id="node20" class="node"><title>Node10</title>
<a xlink:href="classstxxl_1_1block__manager.html" target="_top" xlink:title="Block manager class. ">
<polygon fill="none" stroke="black" points="1213,-217.515 1213,-238.515 1323,-238.515 1323,-217.515 1213,-217.515"/>
<text text-anchor="middle" x="1268" y="-225.515" font-family="Helvetica,sans-Serif" font-size="10.00">stxxl::block_manager</text>
</a>
</g>
<!-- Node6&#45;&gt;Node10 -->
<g id="edge32" class="edge"><title>Node6&#45;&gt;Node10</title>
<path fill="none" stroke="#9a32cd" stroke-dasharray="5,2" d="M912.324,-276.769C968.134,-269.128 1075.04,-254.488 1166,-242.015 1181.23,-239.927 1197.74,-237.662 1212.95,-235.574"/>
<polygon fill="#9a32cd" stroke="#9a32cd" points="911.621,-273.332 902.188,-278.157 912.571,-280.268 911.621,-273.332"/>
<text text-anchor="middle" x="1026" y="-273.015" font-family="Helvetica,sans-Serif" font-size="10.00"> disk_files</text>
</g>
<!-- Node13 -->
<g id="node29" class="node"><title>Node13</title>
<a xlink:href="classstxxl_1_1disk__allocator.html" target="_top" xlink:title="stxxl::disk_allocator">
<polygon fill="none" stroke="black" points="974,-167.515 974,-188.515 1078,-188.515 1078,-167.515 974,-167.515"/>
<text text-anchor="middle" x="1026" y="-175.515" font-family="Helvetica,sans-Serif" font-size="10.00">stxxl::disk_allocator</text>
</a>
</g>
<!-- Node6&#45;&gt;Node13 -->
<g id="edge38" class="edge"><title>Node6&#45;&gt;Node13</title>
<path fill="none" stroke="#9a32cd" stroke-dasharray="5,2" d="M895.809,-264.904C903.379,-259.103 911.981,-252.665 920,-247.015 950.696,-225.39 987.679,-201.869 1008.85,-188.633"/>
<polygon fill="#9a32cd" stroke="#9a32cd" points="893.262,-262.449 887.492,-271.335 897.544,-267.986 893.262,-262.449"/>
<text text-anchor="middle" x="938" y="-251.015" font-family="Helvetica,sans-Serif" font-size="10.00"> storage</text>
</g>
<!-- Node7 -->
<g id="node12" class="node"><title>Node7</title>
<a xlink:href="classstxxl_1_1noncopyable.html" target="_top" xlink:title="stxxl::noncopyable">
<polygon fill="none" stroke="black" points="11,-153.515 11,-174.515 109,-174.515 109,-153.515 11,-153.515"/>
<text text-anchor="middle" x="60" y="-161.515" font-family="Helvetica,sans-Serif" font-size="10.00">stxxl::noncopyable</text>
</a>
</g>
<!-- Node7&#45;&gt;Node6 -->
<g id="edge12" class="edge"><title>Node7&#45;&gt;Node6</title>
<path fill="none" stroke="#8b1a1a" d="M68.2818,-183.829C79.9078,-208.991 103.573,-251.694 138,-273.015 180.862,-299.561 200.167,-283.365 250,-291.015 322.812,-302.194 340.529,-309.668 414,-315.015 467.193,-318.887 480.685,-316.407 534,-315.015 593.616,-313.459 608.451,-311.246 668,-308.015 739.119,-304.158 758.269,-313.521 828,-299.015 835.169,-297.524 842.712,-295.116 849.57,-292.576"/>
<polygon fill="#8b1a1a" stroke="#8b1a1a" points="71.4135,-182.257 64.1653,-174.53 65.0125,-185.09 71.4135,-182.257"/>
</g>
<!-- Node9 -->
<g id="node16" class="node"><title>Node9</title>
<a xlink:href="classstxxl_1_1mutex.html" target="_top" xlink:title="stxxl::mutex">
<polygon fill="none" stroke="black" points="287.5,-260.515 287.5,-281.515 358.5,-281.515 358.5,-260.515 287.5,-260.515"/>
<text text-anchor="middle" x="323" y="-268.515" font-family="Helvetica,sans-Serif" font-size="10.00">stxxl::mutex</text>
</a>
</g>
<!-- Node7&#45;&gt;Node9 -->
<g id="edge18" class="edge"><title>Node7&#45;&gt;Node9</title>
<path fill="none" stroke="#8b1a1a" d="M72.2871,-183.1C85.8625,-202.437 109.604,-231.507 138,-246.015 185.476,-270.273 248.326,-273.678 287.188,-273.014"/>
<polygon fill="#8b1a1a" stroke="#8b1a1a" points="75.1307,-181.057 66.624,-174.741 69.3356,-184.983 75.1307,-181.057"/>
</g>
<!-- Node11 -->
<g id="node22" class="node"><title>Node11</title>
<a xlink:href="classstxxl_1_1singleton.html" target="_top" xlink:title="stxxl::singleton\&lt; block\l_manager \&gt;">
<polygon fill="none" stroke="black" points="552.5,-211.015 552.5,-245.015 667.5,-245.015 667.5,-211.015 552.5,-211.015"/>
<text text-anchor="start" x="560.5" y="-232.015" font-family="Helvetica,sans-Serif" font-size="10.00">stxxl::singleton&lt; block</text>
<text text-anchor="middle" x="610" y="-219.015" font-family="Helvetica,sans-Serif" font-size="10.00">_manager &gt;</text>
</a>
</g>
<!-- Node7&#45;&gt;Node11 -->
<g id="edge26" class="edge"><title>Node7&#45;&gt;Node11</title>
<path fill="none" stroke="#8b1a1a" d="M98.6453,-177.91C111.112,-182.119 125.055,-186.542 138,-190.015 187.08,-203.185 199.562,-206.827 250,-213.015 356.171,-226.043 481.13,-228.359 552.406,-228.461"/>
<polygon fill="#8b1a1a" stroke="#8b1a1a" points="99.6055,-174.539 89.0109,-174.602 97.3327,-181.159 99.6055,-174.539"/>
</g>
<!-- Node12 -->
<g id="node25" class="node"><title>Node12</title>
<a xlink:href="classstxxl_1_1singleton.html" target="_top" xlink:title="stxxl::singleton\&lt; INSTANCE,\l destroy_on_exit \&gt;">
<polygon fill="none" stroke="black" points="250,-170.015 250,-204.015 396,-204.015 396,-170.015 250,-170.015"/>
<text text-anchor="start" x="258" y="-191.015" font-family="Helvetica,sans-Serif" font-size="10.00">stxxl::singleton&lt; INSTANCE,</text>
<text text-anchor="middle" x="323" y="-178.015" font-family="Helvetica,sans-Serif" font-size="10.00"> destroy_on_exit &gt;</text>
</a>
</g>
<!-- Node7&#45;&gt;Node12 -->
<g id="edge30" class="edge"><title>Node7&#45;&gt;Node12</title>
<path fill="none" stroke="#8b1a1a" d="M119.232,-169.195C157.943,-172.581 208.774,-177.026 249.983,-180.63"/>
<polygon fill="#8b1a1a" stroke="#8b1a1a" points="119.427,-165.699 109.16,-168.315 118.817,-172.673 119.427,-165.699"/>
</g>
<!-- Node7&#45;&gt;Node13 -->
<g id="edge36" class="edge"><title>Node7&#45;&gt;Node13</title>
<path fill="none" stroke="#8b1a1a" d="M119.441,-162.836C156.898,-162.152 206.276,-161.361 250,-161.015 314.887,-160.503 331.117,-160.14 396,-161.015 610.434,-163.908 865.81,-172.336 973.739,-176.128"/>
<polygon fill="#8b1a1a" stroke="#8b1a1a" points="119.14,-159.341 109.206,-163.025 119.27,-166.34 119.14,-159.341"/>
</g>
<!-- Node15 -->
<g id="node36" class="node"><title>Node15</title>
<a xlink:href="classstxxl_1_1simple__vector.html" target="_top" xlink:title="stxxl::simple_vector\l\&lt; stxxl::typed_block \&gt;">
<polygon fill="none" stroke="black" points="553,-67.0154 553,-101.015 667,-101.015 667,-67.0154 553,-67.0154"/>
<text text-anchor="start" x="561" y="-88.0154" font-family="Helvetica,sans-Serif" font-size="10.00">stxxl::simple_vector</text>
<text text-anchor="middle" x="610" y="-75.0154" font-family="Helvetica,sans-Serif" font-size="10.00">&lt; stxxl::typed_block &gt;</text>
</a>
</g>
<!-- Node7&#45;&gt;Node15 -->
<g id="edge46" class="edge"><title>Node7&#45;&gt;Node15</title>
<path fill="none" stroke="#8b1a1a" d="M87.2159,-148.676C101.821,-141.169 120.396,-132.749 138,-128.015 157.745,-122.706 431.327,-99.1199 552.704,-88.8362"/>
<polygon fill="#8b1a1a" stroke="#8b1a1a" points="85.44,-145.656 78.2413,-153.43 88.7165,-151.842 85.44,-145.656"/>
</g>
<!-- Node16 -->
<g id="node39" class="node"><title>Node16</title>
<a xlink:href="classstxxl_1_1simple__vector.html" target="_top" xlink:title="Simpler non&#45;growing vector without initialization. ">
<polygon fill="none" stroke="black" points="271,-42.0154 271,-76.0154 375,-76.0154 375,-42.0154 271,-42.0154"/>
<text text-anchor="start" x="279" y="-63.0154" font-family="Helvetica,sans-Serif" font-size="10.00">stxxl::simple_vector</text>
<text text-anchor="middle" x="323" y="-50.0154" font-family="Helvetica,sans-Serif" font-size="10.00">&lt; ValueType &gt;</text>
</a>
</g>
<!-- Node7&#45;&gt;Node16 -->
<g id="edge50" class="edge"><title>Node7&#45;&gt;Node16</title>
<path fill="none" stroke="#8b1a1a" d="M74.2911,-145.138C88.4718,-127.863 111.826,-103.067 138,-90.0154 179.53,-69.3072 232.147,-62.0477 270.641,-59.6812"/>
<polygon fill="#8b1a1a" stroke="#8b1a1a" points="71.2213,-143.376 67.7452,-153.385 76.7039,-147.728 71.2213,-143.376"/>
</g>
<!-- Node17 -->
<g id="node42" class="node"><title>Node17</title>
<a xlink:href="classstxxl_1_1simple__vector.html" target="_top" xlink:title="stxxl::simple_vector\l\&lt; int_type \&gt;">
<polygon fill="none" stroke="black" points="558,-15.0154 558,-49.0154 662,-49.0154 662,-15.0154 558,-15.0154"/>
<text text-anchor="start" x="566" y="-36.0154" font-family="Helvetica,sans-Serif" font-size="10.00">stxxl::simple_vector</text>
<text text-anchor="middle" x="610" y="-23.0154" font-family="Helvetica,sans-Serif" font-size="10.00">&lt; int_type &gt;</text>
</a>
</g>
<!-- Node7&#45;&gt;Node17 -->
<g id="edge54" class="edge"><title>Node7&#45;&gt;Node17</title>
<path fill="none" stroke="#8b1a1a" d="M69.5051,-144.092C81.8926,-120.333 105.829,-81.1814 138,-60.0154 268.125,25.5972 464.664,-0.32117 557.673,-19.4696"/>
<polygon fill="#8b1a1a" stroke="#8b1a1a" points="66.2736,-142.728 64.9129,-153.235 72.5289,-145.87 66.2736,-142.728"/>
</g>
<!-- Node8&#45;&gt;Node6 -->
<g id="edge14" class="edge"><title>Node8&#45;&gt;Node6</title>
<path fill="none" stroke="#9a32cd" stroke-dasharray="5,2" d="M676.928,-282.015C731.515,-282.015 805.902,-282.015 845.861,-282.015"/>
<polygon fill="#9a32cd" stroke="#9a32cd" points="676.635,-278.516 666.635,-282.015 676.635,-285.516 676.635,-278.516"/>
<text text-anchor="middle" x="757" y="-286.015" font-family="Helvetica,sans-Serif" font-size="10.00"> m_request_ref</text>
</g>
<!-- Node9&#45;&gt;Node8 -->
<g id="edge16" class="edge"><title>Node9&#45;&gt;Node8</title>
<path fill="none" stroke="#9a32cd" stroke-dasharray="5,2" d="M368.685,-266.591C411.513,-263.234 477.268,-260.108 534,-266.015 540.303,-266.672 546.854,-267.626 553.348,-268.748"/>
<polygon fill="#9a32cd" stroke="#9a32cd" points="368.257,-263.114 358.577,-267.421 368.83,-270.091 368.257,-263.114"/>
<text text-anchor="middle" x="474" y="-270.015" font-family="Helvetica,sans-Serif" font-size="10.00"> m_reference_count_mutex</text>
</g>
<!-- Node9&#45;&gt;Node13 -->
<g id="edge40" class="edge"><title>Node9&#45;&gt;Node13</title>
<path fill="none" stroke="#9a32cd" stroke-dasharray="5,2" d="M347.202,-254.577C362.182,-243.753 381.296,-228.721 396,-213.015 405.606,-202.756 402.154,-194.578 414,-187.015 570.087,-87.3695 643.055,-130.648 828,-140.015 885.108,-142.908 900.223,-140.418 956,-153.015 971.357,-156.484 987.974,-162.324 1001.16,-167.488"/>
<polygon fill="#9a32cd" stroke="#9a32cd" points="345.063,-251.802 338.923,-260.437 349.108,-257.516 345.063,-251.802"/>
<text text-anchor="middle" x="757" y="-144.015" font-family="Helvetica,sans-Serif" font-size="10.00"> mutex</text>
</g>
<!-- Node10&#45;&gt;Node5 -->
<g id="edge22" class="edge"><title>Node10&#45;&gt;Node5</title>
<path fill="none" stroke="#9a32cd" stroke-dasharray="5,2" d="M1333.08,-219.609C1360.94,-216.01 1393.84,-211.761 1423.54,-207.925"/>
<polygon fill="#9a32cd" stroke="#9a32cd" points="1332.53,-216.151 1323.06,-220.903 1333.43,-223.093 1332.53,-216.151"/>
<text text-anchor="middle" x="1388" y="-219.015" font-family="Helvetica,sans-Serif" font-size="10.00"> m_bm</text>
</g>
<!-- Node11&#45;&gt;Node10 -->
<g id="edge24" class="edge"><title>Node11&#45;&gt;Node10</title>
<path fill="none" stroke="midnightblue" d="M677.8,-228.015C808.462,-228.015 1092.82,-228.015 1212.81,-228.015"/>
<polygon fill="midnightblue" stroke="midnightblue" points="677.529,-224.516 667.529,-228.015 677.529,-231.516 677.529,-224.516"/>
</g>
<!-- Node12&#45;&gt;Node11 -->
<g id="edge28" class="edge"><title>Node12&#45;&gt;Node11</title>
<path fill="none" stroke="orange" stroke-dasharray="5,2" d="M406.519,-190.121C445.514,-192.595 492.403,-197.038 534,-205.015 542.123,-206.573 550.613,-208.664 558.853,-210.953"/>
<polygon fill="orange" stroke="orange" points="406.456,-186.611 396.264,-189.504 406.036,-193.598 406.456,-186.611"/>
<text text-anchor="middle" x="474" y="-209.015" font-family="Helvetica,sans-Serif" font-size="10.00"> &lt; block_manager &gt;</text>
</g>
<!-- Node13&#45;&gt;Node10 -->
<g id="edge34" class="edge"><title>Node13&#45;&gt;Node10</title>
<path fill="none" stroke="#9a32cd" stroke-dasharray="5,2" d="M1087.99,-185.369C1112.53,-189.012 1140.84,-194.136 1166,-201.015 1174.28,-203.279 1175.81,-205.46 1184,-208.015 1195.16,-211.497 1207.32,-214.713 1218.83,-217.503"/>
<polygon fill="#9a32cd" stroke="#9a32cd" points="1088.48,-181.903 1078.08,-183.947 1087.48,-188.832 1088.48,-181.903"/>
<text text-anchor="middle" x="1131" y="-205.015" font-family="Helvetica,sans-Serif" font-size="10.00"> disk_allocators</text>
</g>
<!-- Node14 -->
<g id="node34" class="node"><title>Node14</title>
<a xlink:href="classstxxl_1_1vector_1_1bid__vector.html" target="_top" xlink:title="stxxl::vector\&lt; ValueType,\l PageSize, PagerType, BlockSize,\l AllocStr, SizeType \&gt;::bid_vector">
<polygon fill="none" stroke="black" points="1184,-151.515 1184,-198.515 1352,-198.515 1352,-151.515 1184,-151.515"/>
<text text-anchor="start" x="1192" y="-185.515" font-family="Helvetica,sans-Serif" font-size="10.00">stxxl::vector&lt; ValueType,</text>
<text text-anchor="start" x="1192" y="-172.515" font-family="Helvetica,sans-Serif" font-size="10.00"> PageSize, PagerType, BlockSize,</text>
<text text-anchor="middle" x="1268" y="-159.515" font-family="Helvetica,sans-Serif" font-size="10.00"> AllocStr, SizeType &gt;::bid_vector</text>
</a>
</g>
<!-- Node14&#45;&gt;Node5 -->
<g id="edge42" class="edge"><title>Node14&#45;&gt;Node5</title>
<path fill="none" stroke="#9a32cd" stroke-dasharray="5,2" d="M1362.39,-181.291C1377,-182.425 1391.91,-183.677 1406,-185.015 1411.86,-185.572 1417.9,-186.184 1423.98,-186.829"/>
<polygon fill="#9a32cd" stroke="#9a32cd" points="1362.58,-177.795 1352.34,-180.525 1362.05,-184.775 1362.58,-177.795"/>
<text text-anchor="middle" x="1388" y="-189.015" font-family="Helvetica,sans-Serif" font-size="10.00"> m_bids</text>
</g>
<!-- Node15&#45;&gt;Node5 -->
<g id="edge44" class="edge"><title>Node15&#45;&gt;Node5</title>
<path fill="none" stroke="#9a32cd" stroke-dasharray="5,2" d="M677.178,-85.5944C730.53,-86.7129 807.037,-88.0154 874,-88.0154 874,-88.0154 874,-88.0154 1268,-88.0154 1349.92,-88.0154 1434.61,-141.306 1478.16,-173.364"/>
<polygon fill="#9a32cd" stroke="#9a32cd" points="677.232,-82.0948 667.159,-85.3808 677.082,-89.0933 677.232,-82.0948"/>
<text text-anchor="middle" x="1026" y="-92.0154" font-family="Helvetica,sans-Serif" font-size="10.00"> m_cache</text>
</g>
<!-- Node16&#45;&gt;Node15 -->
<g id="edge48" class="edge"><title>Node16&#45;&gt;Node15</title>
<path fill="none" stroke="orange" stroke-dasharray="5,2" d="M385.121,-64.204C427.155,-67.7422 483.929,-72.5739 534,-77.0154 540.071,-77.554 546.415,-78.125 552.736,-78.6995"/>
<polygon fill="orange" stroke="orange" points="385.294,-60.7063 375.036,-63.3562 384.707,-67.6817 385.294,-60.7063"/>
<text text-anchor="middle" x="474" y="-81.0154" font-family="Helvetica,sans-Serif" font-size="10.00"> &lt; stxxl::typed_block &gt;</text>
</g>
<!-- Node16&#45;&gt;Node17 -->
<g id="edge56" class="edge"><title>Node16&#45;&gt;Node17</title>
<path fill="none" stroke="orange" stroke-dasharray="5,2" d="M385.311,-53.1535C436.782,-48.3112 509.023,-41.515 557.568,-36.948"/>
<polygon fill="orange" stroke="orange" points="384.935,-49.6733 375.307,-54.0946 385.59,-56.6425 384.935,-49.6733"/>
<text text-anchor="middle" x="474" y="-55.0154" font-family="Helvetica,sans-Serif" font-size="10.00"> &lt; int_type &gt;</text>
</g>
<!-- Node17&#45;&gt;Node5 -->
<g id="edge52" class="edge"><title>Node17&#45;&gt;Node5</title>
<path fill="none" stroke="#9a32cd" stroke-dasharray="5,2" d="M672.104,-33.4871C725.6,-34.6278 804.884,-36.0154 874,-36.0154 874,-36.0154 874,-36.0154 1268,-36.0154 1365.34,-36.0154 1452.97,-128.474 1489.71,-173.259"/>
<polygon fill="#9a32cd" stroke="#9a32cd" points="672.165,-29.9877 662.092,-33.2701 672.013,-36.9861 672.165,-29.9877"/>
<text text-anchor="middle" x="1026" y="-40.0154" font-family="Helvetica,sans-Serif" font-size="10.00"> m_slot_to_page</text>
</g>
</g>
</svg>
