<?xml version="1.0" encoding="UTF-8" standalone="no"?>
<!DOCTYPE svg PUBLIC "-//W3C//DTD SVG 1.1//EN"
 "http://www.w3.org/Graphics/SVG/1.1/DTD/svg11.dtd">
<!-- Generated by graphviz version 2.38.0 (20140413.2041)
 -->
<!-- Title: stxxl::block_scheduler_algorithm&lt; SwappableBlockType &gt; Pages: 1 -->
<svg width="1674pt" height="360pt"
 viewBox="0.00 0.00 1674.00 359.50" xmlns="http://www.w3.org/2000/svg" xmlns:xlink="http://www.w3.org/1999/xlink">
<g id="graph0" class="graph" transform="scale(1 1) rotate(0) translate(4 355.5)">
<title>stxxl::block_scheduler_algorithm&lt; SwappableBlockType &gt;</title>
<!-- Node1 -->
<g id="node1" class="node"><title>Node1</title>
<polygon fill="#bfbfbf" stroke="black" points="1492,-303.5 1492,-333.5 1666,-333.5 1666,-303.5 1492,-303.5"/>
<text text-anchor="start" x="1500" y="-321.5" font-family="Helvetica,sans-Serif" font-size="10.00">stxxl::block_scheduler</text>
<text text-anchor="middle" x="1579" y="-310.5" font-family="Helvetica,sans-Serif" font-size="10.00">_algorithm&lt; SwappableBlockType &gt;</text>
</g>
<!-- Node2 -->
<g id="node2" class="node"><title>Node2</title>
<g id="a_node2"><a xlink:href="classstxxl_1_1noncopyable.html" target="_top" xlink:title="stxxl::noncopyable">
<polygon fill="none" stroke="black" points="11,-222 11,-241 109,-241 109,-222 11,-222"/>
<text text-anchor="middle" x="60" y="-229" font-family="Helvetica,sans-Serif" font-size="10.00">stxxl::noncopyable</text>
</a>
</g>
</g>
<!-- Node2&#45;&gt;Node1 -->
<g id="edge1" class="edge"><title>Node2&#45;&gt;Node1</title>
<path fill="none" stroke="#8b1a1a" d="M76.576,-249.142C91.0601,-264.521 113.967,-286.367 138,-299.5 212.197,-340.047 236.447,-351.5 321,-351.5 321,-351.5 321,-351.5 1378.5,-351.5 1426.07,-351.5 1479.17,-342.255 1518.63,-333.551"/>
<polygon fill="#8b1a1a" stroke="#8b1a1a" points="78.7793,-246.366 69.4421,-241.359 73.6191,-251.096 78.7793,-246.366"/>
</g>
<!-- Node3 -->
<g id="node3" class="node"><title>Node3</title>
<g id="a_node3"><a xlink:href="classstxxl_1_1block__scheduler.html" target="_top" xlink:title="Schedules swapping of blocks and provides blocks for temporary storage. ">
<polygon fill="none" stroke="black" points="1313,-250.5 1313,-280.5 1442,-280.5 1442,-250.5 1313,-250.5"/>
<text text-anchor="start" x="1321" y="-268.5" font-family="Helvetica,sans-Serif" font-size="10.00">stxxl::block_scheduler</text>
<text text-anchor="middle" x="1377.5" y="-257.5" font-family="Helvetica,sans-Serif" font-size="10.00">&lt; SwappableBlockType &gt;</text>
</a>
</g>
</g>
<!-- Node2&#45;&gt;Node3 -->
<g id="edge3" class="edge"><title>Node2&#45;&gt;Node3</title>
<path fill="none" stroke="#8b1a1a" d="M87.3663,-245.739C133.384,-269.221 231.962,-313.5 321,-313.5 321,-313.5 321,-313.5 1206,-313.5 1255.36,-313.5 1309.84,-294.633 1343.63,-280.556"/>
<polygon fill="#8b1a1a" stroke="#8b1a1a" points="88.8548,-242.568 78.3668,-241.067 85.6296,-248.781 88.8548,-242.568"/>
</g>
<!-- Node5 -->
<g id="node5" class="node"><title>Node5</title>
<g id="a_node5"><a xlink:href="classstxxl_1_1singleton.html" target="_top" xlink:title="stxxl::singleton\&lt; block\l_manager \&gt;">
<polygon fill="none" stroke="black" points="550,-221.5 550,-251.5 665,-251.5 665,-221.5 550,-221.5"/>
<text text-anchor="start" x="558" y="-239.5" font-family="Helvetica,sans-Serif" font-size="10.00">stxxl::singleton&lt; block</text>
<text text-anchor="middle" x="607.5" y="-228.5" font-family="Helvetica,sans-Serif" font-size="10.00">_manager &gt;</text>
</a>
</g>
</g>
<!-- Node2&#45;&gt;Node5 -->
<g id="edge6" class="edge"><title>Node2&#45;&gt;Node5</title>
<path fill="none" stroke="#8b1a1a" d="M119.233,-242.66C125.554,-243.7 131.903,-244.673 138,-245.5 311.535,-269.044 357.955,-269.919 532,-250.5 537.755,-249.858 543.732,-249.023 549.686,-248.08"/>
<polygon fill="#8b1a1a" stroke="#8b1a1a" points="119.808,-239.207 109.363,-240.979 118.634,-246.108 119.808,-239.207"/>
</g>
<!-- Node6 -->
<g id="node6" class="node"><title>Node6</title>
<g id="a_node6"><a xlink:href="classstxxl_1_1singleton.html" target="_top" xlink:title="stxxl::singleton\&lt; INSTANCE,\l destroy_on_exit \&gt;">
<polygon fill="none" stroke="black" points="249,-216.5 249,-246.5 395,-246.5 395,-216.5 249,-216.5"/>
<text text-anchor="start" x="257" y="-234.5" font-family="Helvetica,sans-Serif" font-size="10.00">stxxl::singleton&lt; INSTANCE,</text>
<text text-anchor="middle" x="322" y="-223.5" font-family="Helvetica,sans-Serif" font-size="10.00"> destroy_on_exit &gt;</text>
</a>
</g>
</g>
<!-- Node2&#45;&gt;Node6 -->
<g id="edge8" class="edge"><title>Node2&#45;&gt;Node6</title>
<path fill="none" stroke="#8b1a1a" d="M119.755,-231.5C158.027,-231.5 208.218,-231.5 248.901,-231.5"/>
<polygon fill="#8b1a1a" stroke="#8b1a1a" points="119.295,-228 109.295,-231.5 119.295,-235 119.295,-228"/>
</g>
<!-- Node7 -->
<g id="node7" class="node"><title>Node7</title>
<g id="a_node7"><a xlink:href="classstxxl_1_1file.html" target="_top" xlink:title="Defines interface of file. ">
<polygon fill="none" stroke="black" points="767,-162 767,-181 823,-181 823,-162 767,-162"/>
<text text-anchor="middle" x="795" y="-169" font-family="Helvetica,sans-Serif" font-size="10.00">stxxl::file</text>
</a>
</g>
</g>
<!-- Node2&#45;&gt;Node7 -->
<g id="edge10" class="edge"><title>Node2&#45;&gt;Node7</title>
<path fill="none" stroke="#8b1a1a" d="M119.304,-222.58C156.364,-217.2 205.403,-210.613 249,-206.5 470.586,-185.593 527.658,-201.856 749,-178.5 754.818,-177.886 761.033,-177.042 766.929,-176.152"/>
<polygon fill="#8b1a1a" stroke="#8b1a1a" points="118.571,-219.15 109.184,-224.063 119.585,-226.077 118.571,-219.15"/>
</g>
<!-- Node9 -->
<g id="node9" class="node"><title>Node9</title>
<g id="a_node9"><a xlink:href="classstxxl_1_1mutex.html" target="_top" xlink:title="stxxl::mutex">
<polygon fill="none" stroke="black" points="286.5,-139 286.5,-158 357.5,-158 357.5,-139 286.5,-139"/>
<text text-anchor="middle" x="322" y="-146" font-family="Helvetica,sans-Serif" font-size="10.00">stxxl::mutex</text>
</a>
</g>
</g>
<!-- Node2&#45;&gt;Node9 -->
<g id="edge13" class="edge"><title>Node2&#45;&gt;Node9</title>
<path fill="none" stroke="#8b1a1a" d="M77.6779,-214.871C92.285,-201.375 114.758,-183.072 138,-173.5 186.774,-153.413 248.428,-148.818 286.27,-148.1"/>
<polygon fill="#8b1a1a" stroke="#8b1a1a" points="75.2436,-212.356 70.4172,-221.787 80.0719,-217.424 75.2436,-212.356"/>
</g>
<!-- Node12 -->
<g id="node12" class="node"><title>Node12</title>
<g id="a_node12"><a xlink:href="classstxxl_1_1disk__allocator.html" target="_top" xlink:title="stxxl::disk_allocator">
<polygon fill="none" stroke="black" points="941,-109 941,-128 1045,-128 1045,-109 941,-109"/>
<text text-anchor="middle" x="993" y="-116" font-family="Helvetica,sans-Serif" font-size="10.00">stxxl::disk_allocator</text>
</a>
</g>
</g>
<!-- Node2&#45;&gt;Node12 -->
<g id="edge17" class="edge"><title>Node2&#45;&gt;Node12</title>
<path fill="none" stroke="#8b1a1a" d="M73.9441,-213.794C88.0368,-195.511 112.055,-167.103 138,-148.5 210.43,-96.565 231.875,-66.5 321,-66.5 321,-66.5 321,-66.5 796,-66.5 861.481,-66.5 935.277,-93.9504 970.738,-108.962"/>
<polygon fill="#8b1a1a" stroke="#8b1a1a" points="71.0822,-211.776 67.8582,-221.869 76.6723,-215.989 71.0822,-211.776"/>
</g>
<!-- Node3&#45;&gt;Node1 -->
<g id="edge2" class="edge"><title>Node3&#45;&gt;Node1</title>
<path fill="none" stroke="#9a32cd" stroke-dasharray="5,2" d="M1444.81,-283.116C1469.56,-289.691 1497.41,-297.09 1521.22,-303.416"/>
<polygon fill="#9a32cd" stroke="#9a32cd" points="1445.7,-279.731 1435.14,-280.546 1443.9,-286.496 1445.7,-279.731"/>
<text text-anchor="middle" x="1467" y="-293.5" font-family="Helvetica,sans-Serif" font-size="10.00"> bs</text>
</g>
<!-- Node4 -->
<g id="node4" class="node"><title>Node4</title>
<g id="a_node4"><a xlink:href="classstxxl_1_1block__manager.html" target="_top" xlink:title="Block manager class. ">
<polygon fill="none" stroke="black" points="1150,-193 1150,-212 1260,-212 1260,-193 1150,-193"/>
<text text-anchor="middle" x="1205" y="-200" font-family="Helvetica,sans-Serif" font-size="10.00">stxxl::block_manager</text>
</a>
</g>
</g>
<!-- Node4&#45;&gt;Node3 -->
<g id="edge4" class="edge"><title>Node4&#45;&gt;Node3</title>
<path fill="none" stroke="#9a32cd" stroke-dasharray="5,2" d="M1241.5,-215.616C1268.96,-225.763 1307.02,-239.826 1335.73,-250.435"/>
<polygon fill="#9a32cd" stroke="#9a32cd" points="1242.49,-212.251 1231.9,-212.068 1240.06,-218.817 1242.49,-212.251"/>
<text text-anchor="middle" x="1286.5" y="-237.5" font-family="Helvetica,sans-Serif" font-size="10.00"> bm</text>
</g>
<!-- Node5&#45;&gt;Node4 -->
<g id="edge5" class="edge"><title>Node5&#45;&gt;Node4</title>
<path fill="none" stroke="midnightblue" d="M675.296,-233.563C774.843,-229.043 968.002,-219.717 1132,-208.5 1137.76,-208.106 1143.77,-207.66 1149.76,-207.194"/>
<polygon fill="midnightblue" stroke="midnightblue" points="674.916,-230.077 665.084,-234.025 675.232,-237.07 674.916,-230.077"/>
</g>
<!-- Node6&#45;&gt;Node5 -->
<g id="edge7" class="edge"><title>Node6&#45;&gt;Node5</title>
<path fill="none" stroke="orange" stroke-dasharray="5,2" d="M405.283,-232.951C451.565,-233.767 508.178,-234.766 549.55,-235.496"/>
<polygon fill="orange" stroke="orange" points="405.333,-229.452 395.273,-232.775 405.209,-236.451 405.333,-229.452"/>
<text text-anchor="middle" x="472.5" y="-238.5" font-family="Helvetica,sans-Serif" font-size="10.00"> &lt; block_manager &gt;</text>
</g>
<!-- Node7&#45;&gt;Node4 -->
<g id="edge9" class="edge"><title>Node7&#45;&gt;Node4</title>
<path fill="none" stroke="#9a32cd" stroke-dasharray="5,2" d="M833.097,-174.319C905.397,-179.812 1065.44,-191.972 1149.7,-198.374"/>
<polygon fill="#9a32cd" stroke="#9a32cd" points="833.322,-170.826 823.086,-173.558 832.792,-177.806 833.322,-170.826"/>
<text text-anchor="middle" x="993" y="-193.5" font-family="Helvetica,sans-Serif" font-size="10.00"> disk_files</text>
</g>
<!-- Node7&#45;&gt;Node12 -->
<g id="edge18" class="edge"><title>Node7&#45;&gt;Node12</title>
<path fill="none" stroke="#9a32cd" stroke-dasharray="5,2" d="M827.656,-158.138C832.099,-156.468 836.637,-154.869 841,-153.5 874.249,-143.064 912.5,-134.23 942.183,-128.048"/>
<polygon fill="#9a32cd" stroke="#9a32cd" points="826.224,-154.94 818.188,-161.844 828.776,-161.458 826.224,-154.94"/>
<text text-anchor="middle" x="882" y="-156.5" font-family="Helvetica,sans-Serif" font-size="10.00"> storage</text>
</g>
<!-- Node8 -->
<g id="node8" class="node"><title>Node8</title>
<g id="a_node8"><a xlink:href="classstxxl_1_1atomic__counted__object.html" target="_top" xlink:title="Provides reference counting abilities for use with counting_ptr with mutex locking. ">
<polygon fill="none" stroke="black" points="551,-133.5 551,-163.5 664,-163.5 664,-133.5 551,-133.5"/>
<text text-anchor="start" x="559" y="-151.5" font-family="Helvetica,sans-Serif" font-size="10.00">stxxl::atomic_counted</text>
<text text-anchor="middle" x="607.5" y="-140.5" font-family="Helvetica,sans-Serif" font-size="10.00">_object</text>
</a>
</g>
</g>
<!-- Node8&#45;&gt;Node7 -->
<g id="edge11" class="edge"><title>Node8&#45;&gt;Node7</title>
<path fill="none" stroke="#9a32cd" stroke-dasharray="5,2" d="M674.304,-156.659C706.127,-160.605 742.585,-165.125 766.819,-168.13"/>
<polygon fill="#9a32cd" stroke="#9a32cd" points="674.511,-153.158 664.156,-155.401 673.649,-160.105 674.511,-153.158"/>
<text text-anchor="middle" x="716" y="-168.5" font-family="Helvetica,sans-Serif" font-size="10.00"> m_request_ref</text>
</g>
<!-- Node9&#45;&gt;Node8 -->
<g id="edge12" class="edge"><title>Node9&#45;&gt;Node8</title>
<path fill="none" stroke="#9a32cd" stroke-dasharray="5,2" d="M367.867,-148.5C417.473,-148.5 497.432,-148.5 550.954,-148.5"/>
<polygon fill="#9a32cd" stroke="#9a32cd" points="367.763,-145 357.763,-148.5 367.763,-152 367.763,-145"/>
<text text-anchor="middle" x="472.5" y="-151.5" font-family="Helvetica,sans-Serif" font-size="10.00"> m_reference_count_mutex</text>
</g>
<!-- Node9&#45;&gt;Node12 -->
<g id="edge19" class="edge"><title>Node9&#45;&gt;Node12</title>
<path fill="none" stroke="#9a32cd" stroke-dasharray="5,2" d="M367.685,-142.265C413.384,-136.197 486.482,-127.348 550,-123.5 691.328,-114.939 858.526,-116.121 940.896,-117.449"/>
<polygon fill="#9a32cd" stroke="#9a32cd" points="366.967,-138.829 357.522,-143.628 367.898,-145.767 366.967,-138.829"/>
<text text-anchor="middle" x="716" y="-121.5" font-family="Helvetica,sans-Serif" font-size="10.00"> mutex</text>
</g>
<!-- Node10 -->
<g id="node10" class="node"><title>Node10</title>
<g id="a_node10"><a xlink:href="structstxxl_1_1choose__int__types.html" target="_top" xlink:title="stxxl::choose_int_types\l\&lt; my_pointer_size \&gt;">
<polygon fill="none" stroke="black" points="262,-0.5 262,-30.5 382,-30.5 382,-0.5 262,-0.5"/>
<text text-anchor="start" x="270" y="-18.5" font-family="Helvetica,sans-Serif" font-size="10.00">stxxl::choose_int_types</text>
<text text-anchor="middle" x="322" y="-7.5" font-family="Helvetica,sans-Serif" font-size="10.00">&lt; my_pointer_size &gt;</text>
</a>
</g>
</g>
<!-- Node10&#45;&gt;Node3 -->
<g id="edge20" class="edge"><title>Node10&#45;&gt;Node3</title>
<path fill="none" stroke="#9a32cd" stroke-dasharray="5,2" d="M392.216,-12.4563C449.607,-10.1948 533.342,-7.5 606.5,-7.5 606.5,-7.5 606.5,-7.5 1206,-7.5 1323.04,-7.5 1364.39,-194.591 1374.08,-250.134"/>
<polygon fill="#9a32cd" stroke="#9a32cd" points="392.023,-8.96114 382.171,-12.8583 392.303,-15.9555 392.023,-8.96114"/>
<text text-anchor="start" x="841" y="-21.5" font-family="Helvetica,sans-Serif" font-size="10.00"> remaining_internal</text>
<text text-anchor="middle" x="882" y="-10.5" font-family="Helvetica,sans-Serif" font-size="10.00">_blocks</text>
</g>
<!-- Node10&#45;&gt;Node8 -->
<g id="edge14" class="edge"><title>Node10&#45;&gt;Node8</title>
<path fill="none" stroke="#9a32cd" stroke-dasharray="5,2" d="M364.323,-34.8863C421.252,-61.5938 522.614,-109.146 574.285,-133.387"/>
<polygon fill="#9a32cd" stroke="#9a32cd" points="365.785,-31.7059 355.245,-30.6273 362.812,-38.0432 365.785,-31.7059"/>
<text text-anchor="middle" x="472.5" y="-116.5" font-family="Helvetica,sans-Serif" font-size="10.00"> m_reference_count</text>
</g>
<!-- Node11 -->
<g id="node11" class="node"><title>Node11</title>
<g id="a_node11"><a xlink:href="structstxxl_1_1choose__int__types.html" target="_top" xlink:title="stxxl::choose_int_types\l\&lt; PtrSize \&gt;">
<polygon fill="none" stroke="black" points="0,-0.5 0,-30.5 120,-30.5 120,-0.5 0,-0.5"/>
<text text-anchor="start" x="8" y="-18.5" font-family="Helvetica,sans-Serif" font-size="10.00">stxxl::choose_int_types</text>
<text text-anchor="middle" x="60" y="-7.5" font-family="Helvetica,sans-Serif" font-size="10.00">&lt; PtrSize &gt;</text>
</a>
</g>
</g>
<!-- Node11&#45;&gt;Node10 -->
<g id="edge15" class="edge"><title>Node11&#45;&gt;Node10</title>
<path fill="none" stroke="orange" stroke-dasharray="5,2" d="M130.515,-15.5C171.531,-15.5 222.884,-15.5 261.931,-15.5"/>
<polygon fill="orange" stroke="orange" points="130.323,-12.0001 120.323,-15.5 130.323,-19.0001 130.323,-12.0001"/>
<text text-anchor="middle" x="184.5" y="-18.5" font-family="Helvetica,sans-Serif" font-size="10.00"> &lt; my_pointer_size &gt;</text>
</g>
<!-- Node12&#45;&gt;Node4 -->
<g id="edge16" class="edge"><title>Node12&#45;&gt;Node4</title>
<path fill="none" stroke="#9a32cd" stroke-dasharray="5,2" d="M1055.16,-129.2C1079.7,-134.715 1107.83,-142.621 1132,-153.5 1155.16,-163.927 1178.93,-181.771 1192.54,-192.807"/>
<polygon fill="#9a32cd" stroke="#9a32cd" points="1055.76,-125.749 1045.25,-127.056 1054.28,-132.591 1055.76,-125.749"/>
<text text-anchor="middle" x="1097.5" y="-156.5" font-family="Helvetica,sans-Serif" font-size="10.00"> disk_allocators</text>
</g>
</g>
</svg>
