<?xml version="1.0" encoding="UTF-8" standalone="no"?>
<!DOCTYPE svg PUBLIC "-//W3C//DTD SVG 1.1//EN"
 "http://www.w3.org/Graphics/SVG/1.1/DTD/svg11.dtd">
<!-- Generated by graphviz version 2.38.0 (20140413.2041)
 -->
<!-- Title: stxxl::btree::btree_iterator&lt; BTreeType &gt; Pages: 1 -->
<svg width="173pt" height="263pt"
 viewBox="0.00 0.00 173.00 263.00" xmlns="http://www.w3.org/2000/svg" xmlns:xlink="http://www.w3.org/1999/xlink">
<g id="graph0" class="graph" transform="scale(1 1) rotate(0) translate(4 259)">
<title>stxxl::btree::btree_iterator&lt; BTreeType &gt;</title>
<!-- Node1 -->
<g id="node1" class="node"><title>Node1</title>
<polygon fill="#bfbfbf" stroke="black" points="13,-0.5 13,-30.5 131,-30.5 131,-0.5 13,-0.5"/>
<text text-anchor="start" x="21" y="-18.5" font-family="Helvetica,sans-Serif" font-size="10.00">stxxl::btree::btree</text>
<text text-anchor="middle" x="72" y="-7.5" font-family="Helvetica,sans-Serif" font-size="10.00">_iterator&lt; BTreeType &gt;</text>
</g>
<!-- Node2 -->
<g id="node2" class="node"><title>Node2</title>
<g id="a_node2"><a xlink:href="classstxxl_1_1btree_1_1btree__iterator__base.html" target="_top" xlink:title="stxxl::btree::btree\l_iterator_base\&lt; BTreeType \&gt;">
<polygon fill="none" stroke="black" points="0,-68.5 0,-98.5 144,-98.5 144,-68.5 0,-68.5"/>
<text text-anchor="start" x="8" y="-86.5" font-family="Helvetica,sans-Serif" font-size="10.00">stxxl::btree::btree</text>
<text text-anchor="middle" x="72" y="-75.5" font-family="Helvetica,sans-Serif" font-size="10.00">_iterator_base&lt; BTreeType &gt;</text>
</a>
</g>
</g>
<!-- Node2&#45;&gt;Node1 -->
<g id="edge1" class="edge"><title>Node2&#45;&gt;Node1</title>
<path fill="none" stroke="midnightblue" d="M72,-58.0322C72,-48.8606 72,-38.7449 72,-30.7931"/>
<polygon fill="midnightblue" stroke="midnightblue" points="68.5001,-58.1789 72,-68.179 75.5001,-58.179 68.5001,-58.1789"/>
</g>
<!-- Node3 -->
<g id="node3" class="node"><title>Node3</title>
<g id="a_node3"><a xlink:href="structstxxl_1_1choose__int__types.html" target="_top" xlink:title="stxxl::choose_int_types\l\&lt; my_pointer_size \&gt;">
<polygon fill="none" stroke="black" points="12,-146.5 12,-176.5 132,-176.5 132,-146.5 12,-146.5"/>
<text text-anchor="start" x="20" y="-164.5" font-family="Helvetica,sans-Serif" font-size="10.00">stxxl::choose_int_types</text>
<text text-anchor="middle" x="72" y="-153.5" font-family="Helvetica,sans-Serif" font-size="10.00">&lt; my_pointer_size &gt;</text>
</a>
</g>
</g>
<!-- Node3&#45;&gt;Node2 -->
<g id="edge2" class="edge"><title>Node3&#45;&gt;Node2</title>
<path fill="none" stroke="#9a32cd" stroke-dasharray="5,2" d="M72,-136.09C72,-123.757 72,-109.224 72,-98.7309"/>
<polygon fill="#9a32cd" stroke="#9a32cd" points="68.5001,-136.205 72,-146.205 75.5001,-136.205 68.5001,-136.205"/>
<text text-anchor="middle" x="81.5" y="-120" font-family="Helvetica,sans-Serif" font-size="10.00"> pos</text>
</g>
<!-- Node4 -->
<g id="node4" class="node"><title>Node4</title>
<g id="a_node4"><a xlink:href="structstxxl_1_1choose__int__types.html" target="_top" xlink:title="stxxl::choose_int_types\l\&lt; PtrSize \&gt;">
<polygon fill="none" stroke="black" points="12,-224.5 12,-254.5 132,-254.5 132,-224.5 12,-224.5"/>
<text text-anchor="start" x="20" y="-242.5" font-family="Helvetica,sans-Serif" font-size="10.00">stxxl::choose_int_types</text>
<text text-anchor="middle" x="72" y="-231.5" font-family="Helvetica,sans-Serif" font-size="10.00">&lt; PtrSize &gt;</text>
</a>
</g>
</g>
<!-- Node4&#45;&gt;Node3 -->
<g id="edge3" class="edge"><title>Node4&#45;&gt;Node3</title>
<path fill="none" stroke="orange" stroke-dasharray="5,2" d="M72,-214.09C72,-201.757 72,-187.224 72,-176.731"/>
<polygon fill="orange" stroke="orange" points="68.5001,-214.205 72,-224.205 75.5001,-214.205 68.5001,-214.205"/>
<text text-anchor="middle" x="118.5" y="-198" font-family="Helvetica,sans-Serif" font-size="10.00"> &lt; my_pointer_size &gt;</text>
</g>
</g>
</svg>
