<?xml version="1.0" encoding="UTF-8" standalone="no"?>
<!DOCTYPE svg PUBLIC "-//W3C//DTD SVG 1.1//EN"
 "http://www.w3.org/Graphics/SVG/1.1/DTD/svg11.dtd">
<!-- Generated by graphviz version 2.38.0 (20140413.2041)
 -->
<!-- Title: stxxl::block_manager Pages: 1 -->
<svg width="1222pt" height="286pt"
 viewBox="0.00 0.00 1222.00 286.13" xmlns="http://www.w3.org/2000/svg" xmlns:xlink="http://www.w3.org/1999/xlink">
<g id="graph0" class="graph" transform="scale(1 1) rotate(0) translate(4 282.128)">
<title>stxxl::block_manager</title>
<!-- Node1 -->
<g id="node1" class="node"><title>Node1</title>
<polygon fill="#bfbfbf" stroke="black" points="1104,-162 1104,-181 1214,-181 1214,-162 1104,-162"/>
<text text-anchor="middle" x="1159" y="-169" font-family="Helvetica,sans-Serif" font-size="10.00">stxxl::block_manager</text>
</g>
<!-- Node2 -->
<g id="node2" class="node"><title>Node2</title>
<g id="a_node2"><a xlink:href="classstxxl_1_1singleton.html" target="_top" xlink:title="stxxl::singleton\&lt; block\l_manager \&gt;">
<polygon fill="none" stroke="black" points="550,-229.5 550,-259.5 665,-259.5 665,-229.5 550,-229.5"/>
<text text-anchor="start" x="558" y="-247.5" font-family="Helvetica,sans-Serif" font-size="10.00">stxxl::singleton&lt; block</text>
<text text-anchor="middle" x="607.5" y="-236.5" font-family="Helvetica,sans-Serif" font-size="10.00">_manager &gt;</text>
</a>
</g>
</g>
<!-- Node2&#45;&gt;Node1 -->
<g id="edge1" class="edge"><title>Node2&#45;&gt;Node1</title>
<path fill="none" stroke="midnightblue" d="M675.246,-236.787C767.664,-225.921 939.76,-205.02 1086,-183.5 1091.77,-182.651 1097.79,-181.72 1103.78,-180.764"/>
<polygon fill="midnightblue" stroke="midnightblue" points="674.718,-233.324 665.194,-237.966 675.534,-240.277 674.718,-233.324"/>
</g>
<!-- Node3 -->
<g id="node3" class="node"><title>Node3</title>
<g id="a_node3"><a xlink:href="classstxxl_1_1noncopyable.html" target="_top" xlink:title="stxxl::noncopyable">
<polygon fill="none" stroke="black" points="11,-191 11,-210 109,-210 109,-191 11,-191"/>
<text text-anchor="middle" x="60" y="-198" font-family="Helvetica,sans-Serif" font-size="10.00">stxxl::noncopyable</text>
</a>
</g>
</g>
<!-- Node3&#45;&gt;Node2 -->
<g id="edge2" class="edge"><title>Node3&#45;&gt;Node2</title>
<path fill="none" stroke="#8b1a1a" d="M88.5891,-214.596C124.43,-231.93 189.471,-260.09 249,-268.5 373.604,-286.103 407.256,-276.081 532,-259.5 537.755,-258.735 543.732,-257.79 549.685,-256.749"/>
<polygon fill="#8b1a1a" stroke="#8b1a1a" points="89.8014,-211.292 79.2833,-210.019 86.7122,-217.573 89.8014,-211.292"/>
</g>
<!-- Node4 -->
<g id="node4" class="node"><title>Node4</title>
<g id="a_node4"><a xlink:href="classstxxl_1_1singleton.html" target="_top" xlink:title="stxxl::singleton\&lt; INSTANCE,\l destroy_on_exit \&gt;">
<polygon fill="none" stroke="black" points="249,-229.5 249,-259.5 395,-259.5 395,-229.5 249,-229.5"/>
<text text-anchor="start" x="257" y="-247.5" font-family="Helvetica,sans-Serif" font-size="10.00">stxxl::singleton&lt; INSTANCE,</text>
<text text-anchor="middle" x="322" y="-236.5" font-family="Helvetica,sans-Serif" font-size="10.00"> destroy_on_exit &gt;</text>
</a>
</g>
</g>
<!-- Node3&#45;&gt;Node4 -->
<g id="edge4" class="edge"><title>Node3&#45;&gt;Node4</title>
<path fill="none" stroke="#8b1a1a" d="M119.028,-211.162C125.427,-212.304 131.85,-213.437 138,-214.5 174.483,-220.807 215.117,-227.501 248.811,-232.962"/>
<polygon fill="#8b1a1a" stroke="#8b1a1a" points="119.496,-207.69 109.035,-209.366 118.258,-214.58 119.496,-207.69"/>
</g>
<!-- Node5 -->
<g id="node5" class="node"><title>Node5</title>
<g id="a_node5"><a xlink:href="classstxxl_1_1file.html" target="_top" xlink:title="Defines interface of file. ">
<polygon fill="none" stroke="black" points="767,-155 767,-174 823,-174 823,-155 767,-155"/>
<text text-anchor="middle" x="795" y="-162" font-family="Helvetica,sans-Serif" font-size="10.00">stxxl::file</text>
</a>
</g>
</g>
<!-- Node3&#45;&gt;Node5 -->
<g id="edge6" class="edge"><title>Node3&#45;&gt;Node5</title>
<path fill="none" stroke="#8b1a1a" d="M119.163,-198.624C226.863,-195.14 464.634,-187.395 665,-180.5 702.335,-179.215 712.111,-183.395 749,-177.5 754.782,-176.576 760.871,-175.144 766.637,-173.562"/>
<polygon fill="#8b1a1a" stroke="#8b1a1a" points="119.034,-195.127 109.152,-198.948 119.26,-202.123 119.034,-195.127"/>
</g>
<!-- Node7 -->
<g id="node7" class="node"><title>Node7</title>
<g id="a_node7"><a xlink:href="classstxxl_1_1mutex.html" target="_top" xlink:title="stxxl::mutex">
<polygon fill="none" stroke="black" points="286.5,-147 286.5,-166 357.5,-166 357.5,-147 286.5,-147"/>
<text text-anchor="middle" x="322" y="-154" font-family="Helvetica,sans-Serif" font-size="10.00">stxxl::mutex</text>
</a>
</g>
</g>
<!-- Node3&#45;&gt;Node7 -->
<g id="edge9" class="edge"><title>Node3&#45;&gt;Node7</title>
<path fill="none" stroke="#8b1a1a" d="M119.028,-189.838C125.427,-188.696 131.85,-187.563 138,-186.5 189.552,-177.589 249.393,-167.903 286.228,-162.016"/>
<polygon fill="#8b1a1a" stroke="#8b1a1a" points="118.258,-186.42 109.035,-191.634 119.496,-193.31 118.258,-186.42"/>
</g>
<!-- Node10 -->
<g id="node10" class="node"><title>Node10</title>
<g id="a_node10"><a xlink:href="classstxxl_1_1disk__allocator.html" target="_top" xlink:title="stxxl::disk_allocator">
<polygon fill="none" stroke="black" points="895,-110 895,-129 999,-129 999,-110 895,-110"/>
<text text-anchor="middle" x="947" y="-117" font-family="Helvetica,sans-Serif" font-size="10.00">stxxl::disk_allocator</text>
</a>
</g>
</g>
<!-- Node3&#45;&gt;Node10 -->
<g id="edge13" class="edge"><title>Node3&#45;&gt;Node10</title>
<path fill="none" stroke="#8b1a1a" d="M77.7153,-183.617C116.649,-146.183 217.93,-59.5 321,-59.5 321,-59.5 321,-59.5 796,-59.5 849.571,-59.5 906.702,-92.8994 932.261,-109.86"/>
<polygon fill="#8b1a1a" stroke="#8b1a1a" points="75.0688,-181.31 70.3755,-190.808 79.9678,-186.31 75.0688,-181.31"/>
</g>
<!-- Node4&#45;&gt;Node2 -->
<g id="edge3" class="edge"><title>Node4&#45;&gt;Node2</title>
<path fill="none" stroke="orange" stroke-dasharray="5,2" d="M405.283,-244.5C451.565,-244.5 508.178,-244.5 549.55,-244.5"/>
<polygon fill="orange" stroke="orange" points="405.273,-241 395.273,-244.5 405.273,-248 405.273,-241"/>
<text text-anchor="middle" x="472.5" y="-247.5" font-family="Helvetica,sans-Serif" font-size="10.00"> &lt; block_manager &gt;</text>
</g>
<!-- Node5&#45;&gt;Node1 -->
<g id="edge5" class="edge"><title>Node5&#45;&gt;Node1</title>
<path fill="none" stroke="#9a32cd" stroke-dasharray="5,2" d="M833.298,-165.221C897.605,-166.465 1029.59,-169.017 1103.96,-170.455"/>
<polygon fill="#9a32cd" stroke="#9a32cd" points="833.275,-161.72 823.209,-165.026 833.139,-168.719 833.275,-161.72"/>
<text text-anchor="middle" x="947" y="-171.5" font-family="Helvetica,sans-Serif" font-size="10.00"> disk_files</text>
</g>
<!-- Node5&#45;&gt;Node10 -->
<g id="edge14" class="edge"><title>Node5&#45;&gt;Node10</title>
<path fill="none" stroke="#9a32cd" stroke-dasharray="5,2" d="M827.687,-151.235C832.125,-149.551 836.654,-147.921 841,-146.5 861.394,-139.83 884.447,-133.746 903.746,-129.049"/>
<polygon fill="#9a32cd" stroke="#9a32cd" points="826.251,-148.039 818.223,-154.952 828.81,-154.554 826.251,-148.039"/>
<text text-anchor="middle" x="859" y="-149.5" font-family="Helvetica,sans-Serif" font-size="10.00"> storage</text>
</g>
<!-- Node6 -->
<g id="node6" class="node"><title>Node6</title>
<g id="a_node6"><a xlink:href="classstxxl_1_1atomic__counted__object.html" target="_top" xlink:title="Provides reference counting abilities for use with counting_ptr with mutex locking. ">
<polygon fill="none" stroke="black" points="551,-141.5 551,-171.5 664,-171.5 664,-141.5 551,-141.5"/>
<text text-anchor="start" x="559" y="-159.5" font-family="Helvetica,sans-Serif" font-size="10.00">stxxl::atomic_counted</text>
<text text-anchor="middle" x="607.5" y="-148.5" font-family="Helvetica,sans-Serif" font-size="10.00">_object</text>
</a>
</g>
</g>
<!-- Node6&#45;&gt;Node5 -->
<g id="edge7" class="edge"><title>Node6&#45;&gt;Node5</title>
<path fill="none" stroke="#9a32cd" stroke-dasharray="5,2" d="M674.304,-159.338C706.127,-160.71 742.585,-162.283 766.819,-163.328"/>
<polygon fill="#9a32cd" stroke="#9a32cd" points="674.298,-155.834 664.156,-158.9 673.996,-162.828 674.298,-155.834"/>
<text text-anchor="middle" x="716" y="-165.5" font-family="Helvetica,sans-Serif" font-size="10.00"> m_request_ref</text>
</g>
<!-- Node7&#45;&gt;Node6 -->
<g id="edge8" class="edge"><title>Node7&#45;&gt;Node6</title>
<path fill="none" stroke="#9a32cd" stroke-dasharray="5,2" d="M367.867,-156.5C417.473,-156.5 497.432,-156.5 550.954,-156.5"/>
<polygon fill="#9a32cd" stroke="#9a32cd" points="367.763,-153 357.763,-156.5 367.763,-160 367.763,-153"/>
<text text-anchor="middle" x="472.5" y="-159.5" font-family="Helvetica,sans-Serif" font-size="10.00"> m_reference_count_mutex</text>
</g>
<!-- Node7&#45;&gt;Node10 -->
<g id="edge15" class="edge"><title>Node7&#45;&gt;Node10</title>
<path fill="none" stroke="#9a32cd" stroke-dasharray="5,2" d="M367.701,-150.516C413.413,-144.647 486.522,-135.95 550,-131.5 673.675,-122.83 819.511,-120.42 894.988,-119.753"/>
<polygon fill="#9a32cd" stroke="#9a32cd" points="367.002,-147.077 357.535,-151.833 367.902,-154.019 367.002,-147.077"/>
<text text-anchor="middle" x="716" y="-128.5" font-family="Helvetica,sans-Serif" font-size="10.00"> mutex</text>
</g>
<!-- Node8 -->
<g id="node8" class="node"><title>Node8</title>
<g id="a_node8"><a xlink:href="structstxxl_1_1choose__int__types.html" target="_top" xlink:title="stxxl::choose_int_types\l\&lt; my_pointer_size \&gt;">
<polygon fill="none" stroke="black" points="262,-0.5 262,-30.5 382,-30.5 382,-0.5 262,-0.5"/>
<text text-anchor="start" x="270" y="-18.5" font-family="Helvetica,sans-Serif" font-size="10.00">stxxl::choose_int_types</text>
<text text-anchor="middle" x="322" y="-7.5" font-family="Helvetica,sans-Serif" font-size="10.00">&lt; my_pointer_size &gt;</text>
</a>
</g>
</g>
<!-- Node8&#45;&gt;Node6 -->
<g id="edge10" class="edge"><title>Node8&#45;&gt;Node6</title>
<path fill="none" stroke="#9a32cd" stroke-dasharray="5,2" d="M362.426,-35.1086C419.581,-63.5349 524.253,-115.594 575.95,-141.306"/>
<polygon fill="#9a32cd" stroke="#9a32cd" points="363.852,-31.9089 353.339,-30.5895 360.735,-38.1765 363.852,-31.9089"/>
<text text-anchor="middle" x="472.5" y="-122.5" font-family="Helvetica,sans-Serif" font-size="10.00"> m_reference_count</text>
</g>
<!-- Node9 -->
<g id="node9" class="node"><title>Node9</title>
<g id="a_node9"><a xlink:href="structstxxl_1_1choose__int__types.html" target="_top" xlink:title="stxxl::choose_int_types\l\&lt; PtrSize \&gt;">
<polygon fill="none" stroke="black" points="0,-0.5 0,-30.5 120,-30.5 120,-0.5 0,-0.5"/>
<text text-anchor="start" x="8" y="-18.5" font-family="Helvetica,sans-Serif" font-size="10.00">stxxl::choose_int_types</text>
<text text-anchor="middle" x="60" y="-7.5" font-family="Helvetica,sans-Serif" font-size="10.00">&lt; PtrSize &gt;</text>
</a>
</g>
</g>
<!-- Node9&#45;&gt;Node8 -->
<g id="edge11" class="edge"><title>Node9&#45;&gt;Node8</title>
<path fill="none" stroke="orange" stroke-dasharray="5,2" d="M130.515,-15.5C171.531,-15.5 222.884,-15.5 261.931,-15.5"/>
<polygon fill="orange" stroke="orange" points="130.323,-12.0001 120.323,-15.5 130.323,-19.0001 130.323,-12.0001"/>
<text text-anchor="middle" x="184.5" y="-18.5" font-family="Helvetica,sans-Serif" font-size="10.00"> &lt; my_pointer_size &gt;</text>
</g>
<!-- Node10&#45;&gt;Node1 -->
<g id="edge12" class="edge"><title>Node10&#45;&gt;Node1</title>
<path fill="none" stroke="#9a32cd" stroke-dasharray="5,2" d="M1009.27,-129.57C1033.36,-134.028 1061.15,-139.791 1086,-146.5 1101.97,-150.811 1119.51,-156.873 1133.28,-161.947"/>
<polygon fill="#9a32cd" stroke="#9a32cd" points="1009.65,-126.083 999.188,-127.741 1008.4,-132.97 1009.65,-126.083"/>
<text text-anchor="middle" x="1051.5" y="-149.5" font-family="Helvetica,sans-Serif" font-size="10.00"> disk_allocators</text>
</g>
</g>
</svg>
