<?xml version="1.0" encoding="UTF-8" standalone="no"?>
<!DOCTYPE svg PUBLIC "-//W3C//DTD SVG 1.1//EN"
 "http://www.w3.org/Graphics/SVG/1.1/DTD/svg11.dtd">
<!-- Generated by graphviz version 2.26.3 (20100126.1600)
 -->
<!-- Title: stxxl::disk_queued_file Pages: 1 -->
<svg width="335pt" height="348pt"
 viewBox="0.00 0.00 335.00 348.00" xmlns="http://www.w3.org/2000/svg" xmlns:xlink="http://www.w3.org/1999/xlink">
<g id="graph1" class="graph" transform="scale(1 1) rotate(0) translate(4 344)">
<title>stxxl::disk_queued_file</title>
<!-- Node1 -->
<g id="node1" class="node"><title>Node1</title>
<polygon fill="#bfbfbf" stroke="black" points="0,-0.5 0,-21.5 116,-21.5 116,-0.5 0,-0.5"/>
<text text-anchor="middle" x="58" y="-8.5" font-family="Helvetica,sans-Serif" font-size="10.00">stxxl::disk_queued_file</text>
</g>
<!-- Node2 -->
<g id="node2" class="node"><title>Node2</title>
<a xlink:href="classstxxl_1_1file.html" target="_top" xlink:title="Defines interface of file. ">
<polygon fill="none" stroke="black" points="30,-60.5 30,-81.5 86,-81.5 86,-60.5 30,-60.5"/>
<text text-anchor="middle" x="58" y="-68.5" font-family="Helvetica,sans-Serif" font-size="10.00">stxxl::file</text>
</a>
</g>
<!-- Node2&#45;&gt;Node1 -->
<g id="edge2" class="edge"><title>Node2&#45;&gt;Node1</title>
<path fill="none" stroke="midnightblue" d="M58,-50.2312C58,-40.5922 58,-29.5444 58,-21.6339"/>
<polygon fill="midnightblue" stroke="midnightblue" points="54.5001,-50.2732 58,-60.2732 61.5001,-50.2732 54.5001,-50.2732"/>
</g>
<!-- Node3 -->
<g id="node4" class="node"><title>Node3</title>
<a xlink:href="classstxxl_1_1noncopyable.html" target="_top" xlink:title="stxxl::noncopyable">
<polygon fill="none" stroke="black" points="2,-311.5 2,-332.5 100,-332.5 100,-311.5 2,-311.5"/>
<text text-anchor="middle" x="51" y="-319.5" font-family="Helvetica,sans-Serif" font-size="10.00">stxxl::noncopyable</text>
</a>
</g>
<!-- Node3&#45;&gt;Node2 -->
<g id="edge4" class="edge"><title>Node3&#45;&gt;Node2</title>
<path fill="none" stroke="#8b1a1a" d="M49.3318,-300.856C46.8594,-265.728 43.0208,-193.152 48,-132 49.4457,-114.244 53.2212,-93.8667 55.6972,-81.7334"/>
<polygon fill="#8b1a1a" stroke="#8b1a1a" points="45.8735,-301.549 50.1032,-311.263 52.8543,-301.032 45.8735,-301.549"/>
</g>
<!-- Node5 -->
<g id="node8" class="node"><title>Node5</title>
<a xlink:href="classstxxl_1_1mutex.html" target="_top" xlink:title="stxxl::mutex">
<polygon fill="none" stroke="black" points="56.5,-225.5 56.5,-246.5 127.5,-246.5 127.5,-225.5 56.5,-225.5"/>
<text text-anchor="middle" x="92" y="-233.5" font-family="Helvetica,sans-Serif" font-size="10.00">stxxl::mutex</text>
</a>
</g>
<!-- Node3&#45;&gt;Node5 -->
<g id="edge10" class="edge"><title>Node3&#45;&gt;Node5</title>
<path fill="none" stroke="#8b1a1a" d="M60.4235,-302.234C68.6694,-284.937 80.3324,-260.474 86.9315,-246.632"/>
<polygon fill="#8b1a1a" stroke="#8b1a1a" points="57.1715,-300.922 56.0274,-311.455 63.4902,-303.934 57.1715,-300.922"/>
</g>
<!-- Node4 -->
<g id="node6" class="node"><title>Node4</title>
<a xlink:href="classstxxl_1_1atomic__counted__object.html" target="_top" xlink:title="Provides reference counting abilities for use with counting_ptr with mutex locking. ">
<polygon fill="none" stroke="black" points="56.5,-133 56.5,-167 169.5,-167 169.5,-133 56.5,-133"/>
<text text-anchor="start" x="64.5" y="-154" font-family="Helvetica,sans-Serif" font-size="10.00">stxxl::atomic_counted</text>
<text text-anchor="middle" x="113" y="-141" font-family="Helvetica,sans-Serif" font-size="10.00">_object</text>
</a>
</g>
<!-- Node4&#45;&gt;Node2 -->
<g id="edge6" class="edge"><title>Node4&#45;&gt;Node2</title>
<path fill="none" stroke="#9a32cd" stroke-dasharray="5,2" d="M95.0912,-124.276C84.9932,-109.772 72.9227,-92.4344 65.3569,-81.5672"/>
<polygon fill="#9a32cd" stroke="#9a32cd" points="92.4797,-126.651 101.066,-132.858 98.2245,-122.651 92.4797,-126.651"/>
<text text-anchor="middle" x="121" y="-104.5" font-family="Helvetica,sans-Serif" font-size="10.00"> m_request_ref</text>
</g>
<!-- Node5&#45;&gt;Node4 -->
<g id="edge8" class="edge"><title>Node5&#45;&gt;Node4</title>
<path fill="none" stroke="#9a32cd" stroke-dasharray="5,2" d="M90.1907,-215.329C89.9558,-206.195 90.4594,-195.416 93,-186 94.7508,-179.511 97.9124,-172.934 101.213,-167.208"/>
<polygon fill="#9a32cd" stroke="#9a32cd" points="86.7038,-215.662 90.7563,-225.451 93.6929,-215.271 86.7038,-215.662"/>
<text text-anchor="middle" x="152.5" y="-190.5" font-family="Helvetica,sans-Serif" font-size="10.00"> m_reference_count_mutex</text>
</g>
<!-- Node6 -->
<g id="node11" class="node"><title>Node6</title>
<a xlink:href="structstxxl_1_1choose__int__types.html" target="_top" xlink:title="stxxl::choose_int_types\l\&lt; my_pointer_size \&gt;">
<polygon fill="none" stroke="black" points="174,-219 174,-253 294,-253 294,-219 174,-219"/>
<text text-anchor="start" x="182" y="-240" font-family="Helvetica,sans-Serif" font-size="10.00">stxxl::choose_int_types</text>
<text text-anchor="middle" x="234" y="-227" font-family="Helvetica,sans-Serif" font-size="10.00">&lt; my_pointer_size &gt;</text>
</a>
</g>
<!-- Node6&#45;&gt;Node4 -->
<g id="edge12" class="edge"><title>Node6&#45;&gt;Node4</title>
<path fill="none" stroke="#9a32cd" stroke-dasharray="5,2" d="M226.782,-209.194C223.432,-200.866 218.667,-192.243 212,-186 200.185,-174.937 184.708,-167.221 169.512,-161.86"/>
<polygon fill="#9a32cd" stroke="#9a32cd" points="223.491,-210.388 230.093,-218.675 230.1,-208.08 223.491,-210.388"/>
<text text-anchor="middle" x="264.5" y="-190.5" font-family="Helvetica,sans-Serif" font-size="10.00"> m_reference_count</text>
</g>
<!-- Node7 -->
<g id="node13" class="node"><title>Node7</title>
<a xlink:href="structstxxl_1_1choose__int__types.html" target="_top" xlink:title="stxxl::choose_int_types\l\&lt; PtrSize \&gt;">
<polygon fill="none" stroke="black" points="174,-305 174,-339 294,-339 294,-305 174,-305"/>
<text text-anchor="start" x="182" y="-326" font-family="Helvetica,sans-Serif" font-size="10.00">stxxl::choose_int_types</text>
<text text-anchor="middle" x="234" y="-313" font-family="Helvetica,sans-Serif" font-size="10.00">&lt; PtrSize &gt;</text>
</a>
</g>
<!-- Node7&#45;&gt;Node6 -->
<g id="edge14" class="edge"><title>Node7&#45;&gt;Node6</title>
<path fill="none" stroke="orange" stroke-dasharray="5,2" d="M234,-294.342C234,-280.774 234,-264.861 234,-253.084"/>
<polygon fill="orange" stroke="orange" points="230.5,-294.597 234,-304.597 237.5,-294.597 230.5,-294.597"/>
<text text-anchor="middle" x="280.5" y="-276.5" font-family="Helvetica,sans-Serif" font-size="10.00"> &lt; my_pointer_size &gt;</text>
</g>
</g>
</svg>
