<?xml version="1.0" encoding="UTF-8" standalone="no"?>
<!DOCTYPE svg PUBLIC "-//W3C//DTD SVG 1.1//EN"
 "http://www.w3.org/Graphics/SVG/1.1/DTD/svg11.dtd">
<!-- Generated by graphviz version 2.38.0 (20140413.2041)
 -->
<!-- Title: stxxl::state&lt; ValueType &gt; Pages: 1 -->
<svg width="249pt" height="152pt"
 viewBox="0.00 0.00 249.00 152.00" xmlns="http://www.w3.org/2000/svg" xmlns:xlink="http://www.w3.org/1999/xlink">
<g id="graph0" class="graph" transform="scale(1 1) rotate(0) translate(4 148)">
<title>stxxl::state&lt; ValueType &gt;</title>
<!-- Node1 -->
<g id="node1" class="node"><title>Node1</title>
<polygon fill="#bfbfbf" stroke="black" points="0,-0.5 0,-19.5 130,-19.5 130,-0.5 0,-0.5"/>
<text text-anchor="middle" x="65" y="-7.5" font-family="Helvetica,sans-Serif" font-size="10.00">stxxl::state&lt; ValueType &gt;</text>
</g>
<!-- Node2 -->
<g id="node2" class="node"><title>Node2</title>
<g id="a_node2"><a xlink:href="classstxxl_1_1noncopyable.html" target="_top" xlink:title="stxxl::noncopyable">
<polygon fill="none" stroke="black" points="16,-124.5 16,-143.5 114,-143.5 114,-124.5 16,-124.5"/>
<text text-anchor="middle" x="65" y="-131.5" font-family="Helvetica,sans-Serif" font-size="10.00">stxxl::noncopyable</text>
</a>
</g>
</g>
<!-- Node2&#45;&gt;Node1 -->
<g id="edge1" class="edge"><title>Node2&#45;&gt;Node1</title>
<path fill="none" stroke="#8b1a1a" d="M44.4698,-118.177C35.1152,-110.136 25.0247,-99.3217 20,-87 16.6435,-78.7692 17.0486,-75.3846 20,-67 26.8744,-47.4707 43.7547,-29.722 54.7741,-19.6563"/>
<polygon fill="#8b1a1a" stroke="#8b1a1a" points="42.3637,-120.975 52.3552,-124.499 46.7421,-115.513 42.3637,-120.975"/>
</g>
<!-- Node3 -->
<g id="node3" class="node"><title>Node3</title>
<g id="a_node3"><a xlink:href="classstxxl_1_1mutex.html" target="_top" xlink:title="stxxl::mutex">
<polygon fill="none" stroke="black" points="29.5,-67.5 29.5,-86.5 100.5,-86.5 100.5,-67.5 29.5,-67.5"/>
<text text-anchor="middle" x="65" y="-74.5" font-family="Helvetica,sans-Serif" font-size="10.00">stxxl::mutex</text>
</a>
</g>
</g>
<!-- Node2&#45;&gt;Node3 -->
<g id="edge3" class="edge"><title>Node2&#45;&gt;Node3</title>
<path fill="none" stroke="#8b1a1a" d="M65,-114.117C65,-104.817 65,-94.0557 65,-86.7149"/>
<polygon fill="#8b1a1a" stroke="#8b1a1a" points="61.5001,-114.406 65,-124.406 68.5001,-114.406 61.5001,-114.406"/>
</g>
<!-- Node4 -->
<g id="node4" class="node"><title>Node4</title>
<g id="a_node4"><a xlink:href="classstxxl_1_1condition__variable.html" target="_top" xlink:title="stxxl::condition_variable">
<polygon fill="none" stroke="black" points="119,-67.5 119,-86.5 241,-86.5 241,-67.5 119,-67.5"/>
<text text-anchor="middle" x="180" y="-74.5" font-family="Helvetica,sans-Serif" font-size="10.00">stxxl::condition_variable</text>
</a>
</g>
</g>
<!-- Node2&#45;&gt;Node4 -->
<g id="edge5" class="edge"><title>Node2&#45;&gt;Node4</title>
<path fill="none" stroke="#8b1a1a" d="M92.2728,-119.957C113.89,-109.618 143.471,-95.4704 162.157,-86.5334"/>
<polygon fill="#8b1a1a" stroke="#8b1a1a" points="90.48,-116.934 82.9688,-124.406 93.5002,-123.249 90.48,-116.934"/>
</g>
<!-- Node3&#45;&gt;Node1 -->
<g id="edge2" class="edge"><title>Node3&#45;&gt;Node1</title>
<path fill="none" stroke="#9a32cd" stroke-dasharray="5,2" d="M65,-57.037C65,-44.6703 65,-29.1198 65,-19.6273"/>
<polygon fill="#9a32cd" stroke="#9a32cd" points="61.5001,-57.2338 65,-67.2338 68.5001,-57.2338 61.5001,-57.2338"/>
<text text-anchor="middle" x="87" y="-41" font-family="Helvetica,sans-Serif" font-size="10.00"> m_mutex</text>
</g>
<!-- Node4&#45;&gt;Node1 -->
<g id="edge4" class="edge"><title>Node4&#45;&gt;Node1</title>
<path fill="none" stroke="#9a32cd" stroke-dasharray="5,2" d="M155.798,-62.2462C143.067,-55.0183 127.196,-46.0184 113,-38 102.177,-31.8871 89.9686,-25.02 80.5723,-19.7411"/>
<polygon fill="#9a32cd" stroke="#9a32cd" points="154.417,-65.4871 164.841,-67.3823 157.874,-59.4003 154.417,-65.4871"/>
<text text-anchor="middle" x="151" y="-41" font-family="Helvetica,sans-Serif" font-size="10.00"> m_cond</text>
</g>
</g>
</svg>
