<?xml version="1.0" encoding="UTF-8" standalone="no"?>
<!DOCTYPE svg PUBLIC "-//W3C//DTD SVG 1.1//EN"
 "http://www.w3.org/Graphics/SVG/1.1/DTD/svg11.dtd">
<!-- Generated by graphviz version 2.38.0 (20140413.2041)
 -->
<!-- Title: stxxl::ufs_file_base Pages: 1 -->
<svg width="440pt" height="196pt"
 viewBox="0.00 0.00 439.50 196.00" xmlns="http://www.w3.org/2000/svg" xmlns:xlink="http://www.w3.org/1999/xlink">
<g id="graph0" class="graph" transform="scale(1 1) rotate(0) translate(4 192)">
<title>stxxl::ufs_file_base</title>
<!-- Node1 -->
<g id="node1" class="node"><title>Node1</title>
<polygon fill="#bfbfbf" stroke="black" points="163,-56.5 163,-75.5 264,-75.5 264,-56.5 163,-56.5"/>
<text text-anchor="middle" x="213.5" y="-63.5" font-family="Helvetica,sans-Serif" font-size="10.00">stxxl::ufs_file_base</text>
</g>
<!-- Node4 -->
<g id="node4" class="node"><title>Node4</title>
<g id="a_node4"><a xlink:href="classstxxl_1_1linuxaio__file.html" target="_top" xlink:title="Implementation of file based on the Linux kernel interface for asynchronous I/O. ">
<polygon fill="none" stroke="black" points="0,-0.5 0,-19.5 95,-19.5 95,-0.5 0,-0.5"/>
<text text-anchor="middle" x="47.5" y="-7.5" font-family="Helvetica,sans-Serif" font-size="10.00">stxxl::linuxaio_file</text>
</a>
</g>
</g>
<!-- Node1&#45;&gt;Node4 -->
<g id="edge3" class="edge"><title>Node1&#45;&gt;Node4</title>
<path fill="none" stroke="midnightblue" d="M177.547,-53.3044C146.268,-43.1294 101.679,-28.6246 73.6801,-19.5164"/>
<polygon fill="midnightblue" stroke="midnightblue" points="176.605,-56.6783 187.197,-56.4435 178.77,-50.0217 176.605,-56.6783"/>
</g>
<!-- Node5 -->
<g id="node5" class="node"><title>Node5</title>
<g id="a_node5"><a xlink:href="classstxxl_1_1mmap__file.html" target="_top" xlink:title="Implementation of memory mapped access file. ">
<polygon fill="none" stroke="black" points="113,-0.5 113,-19.5 202,-19.5 202,-0.5 113,-0.5"/>
<text text-anchor="middle" x="157.5" y="-7.5" font-family="Helvetica,sans-Serif" font-size="10.00">stxxl::mmap_file</text>
</a>
</g>
</g>
<!-- Node1&#45;&gt;Node5 -->
<g id="edge4" class="edge"><title>Node1&#45;&gt;Node5</title>
<path fill="none" stroke="midnightblue" d="M197.17,-49.2533C187.235,-39.6731 174.912,-27.7906 166.661,-19.8339"/>
<polygon fill="midnightblue" stroke="midnightblue" points="194.875,-51.902 204.503,-56.324 199.734,-46.8631 194.875,-51.902"/>
</g>
<!-- Node6 -->
<g id="node6" class="node"><title>Node6</title>
<g id="a_node6"><a xlink:href="classstxxl_1_1sim__disk__file.html" target="_top" xlink:title="Implementation of disk emulation. ">
<polygon fill="none" stroke="black" points="220,-0.5 220,-19.5 321,-19.5 321,-0.5 220,-0.5"/>
<text text-anchor="middle" x="270.5" y="-7.5" font-family="Helvetica,sans-Serif" font-size="10.00">stxxl::sim_disk_file</text>
</a>
</g>
</g>
<!-- Node1&#45;&gt;Node6 -->
<g id="edge5" class="edge"><title>Node1&#45;&gt;Node6</title>
<path fill="none" stroke="midnightblue" d="M230.121,-49.2533C240.234,-39.6731 252.777,-27.7906 261.175,-19.8339"/>
<polygon fill="midnightblue" stroke="midnightblue" points="227.51,-46.9056 222.658,-56.324 232.325,-51.9873 227.51,-46.9056"/>
</g>
<!-- Node7 -->
<g id="node7" class="node"><title>Node7</title>
<g id="a_node7"><a xlink:href="classstxxl_1_1syscall__file.html" target="_top" xlink:title="Implementation of file based on UNIX syscalls. ">
<polygon fill="none" stroke="black" points="339.5,-0.5 339.5,-19.5 431.5,-19.5 431.5,-0.5 339.5,-0.5"/>
<text text-anchor="middle" x="385.5" y="-7.5" font-family="Helvetica,sans-Serif" font-size="10.00">stxxl::syscall_file</text>
</a>
</g>
</g>
<!-- Node1&#45;&gt;Node7 -->
<g id="edge6" class="edge"><title>Node1&#45;&gt;Node7</title>
<path fill="none" stroke="midnightblue" d="M250.332,-53.4363C282.762,-43.2551 329.237,-28.664 358.374,-19.5164"/>
<polygon fill="midnightblue" stroke="midnightblue" points="249.246,-50.1088 240.754,-56.4435 251.343,-56.7874 249.246,-50.1088"/>
</g>
<!-- Node2 -->
<g id="node2" class="node"><title>Node2</title>
<g id="a_node2"><a xlink:href="classstxxl_1_1file.html" target="_top" xlink:title="Defines interface of file. ">
<polygon fill="none" stroke="black" points="185.5,-112.5 185.5,-131.5 241.5,-131.5 241.5,-112.5 185.5,-112.5"/>
<text text-anchor="middle" x="213.5" y="-119.5" font-family="Helvetica,sans-Serif" font-size="10.00">stxxl::file</text>
</a>
</g>
</g>
<!-- Node2&#45;&gt;Node1 -->
<g id="edge1" class="edge"><title>Node2&#45;&gt;Node1</title>
<path fill="none" stroke="midnightblue" d="M213.5,-101.805C213.5,-92.9102 213.5,-82.7798 213.5,-75.7511"/>
<polygon fill="midnightblue" stroke="midnightblue" points="210,-102.083 213.5,-112.083 217,-102.083 210,-102.083"/>
</g>
<!-- Node3 -->
<g id="node3" class="node"><title>Node3</title>
<g id="a_node3"><a xlink:href="classstxxl_1_1noncopyable.html" target="_top" xlink:title="stxxl::noncopyable">
<polygon fill="none" stroke="black" points="164.5,-168.5 164.5,-187.5 262.5,-187.5 262.5,-168.5 164.5,-168.5"/>
<text text-anchor="middle" x="213.5" y="-175.5" font-family="Helvetica,sans-Serif" font-size="10.00">stxxl::noncopyable</text>
</a>
</g>
</g>
<!-- Node3&#45;&gt;Node2 -->
<g id="edge2" class="edge"><title>Node3&#45;&gt;Node2</title>
<path fill="none" stroke="#8b1a1a" d="M213.5,-157.805C213.5,-148.91 213.5,-138.78 213.5,-131.751"/>
<polygon fill="#8b1a1a" stroke="#8b1a1a" points="210,-158.083 213.5,-168.083 217,-158.083 210,-158.083"/>
</g>
</g>
</svg>
