<?xml version="1.0" encoding="UTF-8" standalone="no"?>
<!DOCTYPE svg PUBLIC "-//W3C//DTD SVG 1.1//EN"
 "http://www.w3.org/Graphics/SVG/1.1/DTD/svg11.dtd">
<!-- Generated by graphviz version 2.26.3 (20100126.1600)
 -->
<!-- Title: stxxl::linuxaio_request Pages: 1 -->
<svg width="1592pt" height="454pt"
 viewBox="0.00 0.00 1592.00 453.59" xmlns="http://www.w3.org/2000/svg" xmlns:xlink="http://www.w3.org/1999/xlink">
<g id="graph1" class="graph" transform="scale(1 1) rotate(0) translate(4 449.589)">
<title>stxxl::linuxaio_request</title>
<!-- Node1 -->
<g id="node1" class="node"><title>Node1</title>
<polygon fill="#bfbfbf" stroke="black" points="1470,-126.089 1470,-147.089 1584,-147.089 1584,-126.089 1470,-126.089"/>
<text text-anchor="middle" x="1527" y="-134.089" font-family="Helvetica,sans-Serif" font-size="10.00">stxxl::linuxaio_request</text>
</g>
<!-- Node2 -->
<g id="node2" class="node"><title>Node2</title>
<a xlink:href="classstxxl_1_1request__with__state.html" target="_top" xlink:title="Request with completion state. ">
<polygon fill="none" stroke="black" points="1332.5,-119.589 1332.5,-153.589 1431.5,-153.589 1431.5,-119.589 1332.5,-119.589"/>
<text text-anchor="start" x="1340.5" y="-140.589" font-family="Helvetica,sans-Serif" font-size="10.00">stxxl::request_with</text>
<text text-anchor="middle" x="1382" y="-127.589" font-family="Helvetica,sans-Serif" font-size="10.00">_state</text>
</a>
</g>
<!-- Node2&#45;&gt;Node1 -->
<g id="edge2" class="edge"><title>Node2&#45;&gt;Node1</title>
<path fill="none" stroke="midnightblue" d="M1442.09,-136.589C1451.25,-136.589 1460.69,-136.589 1469.78,-136.589"/>
<polygon fill="midnightblue" stroke="midnightblue" points="1441.9,-133.089 1431.9,-136.589 1441.9,-140.089 1441.9,-133.089"/>
</g>
<!-- Node3 -->
<g id="node4" class="node"><title>Node3</title>
<a xlink:href="classstxxl_1_1request__with__waiters.html" target="_top" xlink:title="Request that is aware of threads waiting for it to complete. ">
<polygon fill="none" stroke="black" points="1194.5,-163.589 1194.5,-197.589 1293.5,-197.589 1293.5,-163.589 1194.5,-163.589"/>
<text text-anchor="start" x="1202.5" y="-184.589" font-family="Helvetica,sans-Serif" font-size="10.00">stxxl::request_with</text>
<text text-anchor="middle" x="1244" y="-171.589" font-family="Helvetica,sans-Serif" font-size="10.00">_waiters</text>
</a>
</g>
<!-- Node3&#45;&gt;Node2 -->
<g id="edge4" class="edge"><title>Node3&#45;&gt;Node2</title>
<path fill="none" stroke="midnightblue" d="M1303.65,-161.571C1313.19,-158.529 1322.97,-155.409 1332.25,-152.451"/>
<polygon fill="midnightblue" stroke="midnightblue" points="1302.29,-158.331 1293.82,-164.704 1304.41,-165.001 1302.29,-158.331"/>
</g>
<!-- Node4 -->
<g id="node6" class="node"><title>Node4</title>
<a xlink:href="classstxxl_1_1request.html" target="_top" xlink:title="Request object encapsulating basic properties like file and offset. ">
<polygon fill="none" stroke="black" points="1042,-301.089 1042,-322.089 1118,-322.089 1118,-301.089 1042,-301.089"/>
<text text-anchor="middle" x="1080" y="-309.089" font-family="Helvetica,sans-Serif" font-size="10.00">stxxl::request</text>
</a>
</g>
<!-- Node4&#45;&gt;Node3 -->
<g id="edge6" class="edge"><title>Node4&#45;&gt;Node3</title>
<path fill="none" stroke="midnightblue" d="M1101.53,-294.388C1132.96,-269.282 1191.07,-222.869 1222.49,-197.773"/>
<polygon fill="midnightblue" stroke="midnightblue" points="1099.05,-291.893 1093.42,-300.869 1103.42,-297.362 1099.05,-291.893"/>
</g>
<!-- Node5 -->
<g id="node8" class="node"><title>Node5</title>
<a xlink:href="classstxxl_1_1request__interface.html" target="_top" xlink:title="Functional interface of a request. ">
<polygon fill="none" stroke="black" points="390.5,-262.089 390.5,-283.089 509.5,-283.089 509.5,-262.089 390.5,-262.089"/>
<text text-anchor="middle" x="450" y="-270.089" font-family="Helvetica,sans-Serif" font-size="10.00">stxxl::request_interface</text>
</a>
</g>
<!-- Node5&#45;&gt;Node4 -->
<g id="edge8" class="edge"><title>Node5&#45;&gt;Node4</title>
<path fill="none" stroke="midnightblue" d="M509.851,-288.909C519.57,-296.937 519.167,-303.541 528,-307.589 698.548,-385.734 762.412,-314.589 950,-316.589 982.887,-316.939 991.144,-318.053 1024,-316.589 1029.75,-316.332 1035.83,-315.929 1041.77,-315.459"/>
<polygon fill="midnightblue" stroke="midnightblue" points="511.519,-285.813 501.267,-283.137 507.613,-291.622 511.519,-285.813"/>
</g>
<!-- Node6 -->
<g id="node10" class="node"><title>Node6</title>
<a xlink:href="classstxxl_1_1noncopyable.html" target="_top" xlink:title="stxxl::noncopyable">
<polygon fill="none" stroke="black" points="11,-101.089 11,-122.089 109,-122.089 109,-101.089 11,-101.089"/>
<text text-anchor="middle" x="60" y="-109.089" font-family="Helvetica,sans-Serif" font-size="10.00">stxxl::noncopyable</text>
</a>
</g>
<!-- Node6&#45;&gt;Node5 -->
<g id="edge10" class="edge"><title>Node6&#45;&gt;Node5</title>
<path fill="none" stroke="#8b1a1a" d="M65.46,-132.288C74.7304,-162.891 96.6935,-219.404 138,-245.589 214.457,-294.056 323.438,-290.899 390.295,-282.768"/>
<polygon fill="#8b1a1a" stroke="#8b1a1a" points="68.7166,-130.945 62.6066,-122.29 61.9854,-132.867 68.7166,-130.945"/>
</g>
<!-- Node8 -->
<g id="node14" class="node"><title>Node8</title>
<a xlink:href="classstxxl_1_1mutex.html" target="_top" xlink:title="stxxl::mutex">
<polygon fill="none" stroke="black" points="275.5,-135.089 275.5,-156.089 346.5,-156.089 346.5,-135.089 275.5,-135.089"/>
<text text-anchor="middle" x="311" y="-143.089" font-family="Helvetica,sans-Serif" font-size="10.00">stxxl::mutex</text>
</a>
</g>
<!-- Node6&#45;&gt;Node8 -->
<g id="edge16" class="edge"><title>Node6&#45;&gt;Node8</title>
<path fill="none" stroke="#8b1a1a" d="M119.329,-119.625C167.759,-126.186 234.602,-135.24 275.203,-140.74"/>
<polygon fill="#8b1a1a" stroke="#8b1a1a" points="119.669,-116.14 109.29,-118.266 118.73,-123.076 119.669,-116.14"/>
</g>
<!-- Node11 -->
<g id="node21" class="node"><title>Node11</title>
<a xlink:href="classstxxl_1_1file.html" target="_top" xlink:title="Defines interface of file. ">
<polygon fill="none" stroke="black" points="840,-243.089 840,-264.089 896,-264.089 896,-243.089 840,-243.089"/>
<text text-anchor="middle" x="868" y="-251.089" font-family="Helvetica,sans-Serif" font-size="10.00">stxxl::file</text>
</a>
</g>
<!-- Node6&#45;&gt;Node11 -->
<g id="edge24" class="edge"><title>Node6&#45;&gt;Node11</title>
<path fill="none" stroke="#8b1a1a" d="M94.461,-126.051C107.941,-131.506 123.598,-137.595 138,-142.589 248.406,-180.873 275.08,-196.413 390,-217.589 477.265,-233.669 750.83,-247.94 839.763,-252.258"/>
<polygon fill="#8b1a1a" stroke="#8b1a1a" points="95.6595,-122.759 85.0787,-122.215 93.0107,-129.239 95.6595,-122.759"/>
</g>
<!-- Node16 -->
<g id="node35" class="node"><title>Node16</title>
<a xlink:href="classstxxl_1_1state.html" target="_top" xlink:title="stxxl::state\&lt; request\l_state \&gt;">
<polygon fill="none" stroke="black" points="814.5,-75.5888 814.5,-109.589 921.5,-109.589 921.5,-75.5888 814.5,-75.5888"/>
<text text-anchor="start" x="822.5" y="-96.5888" font-family="Helvetica,sans-Serif" font-size="10.00">stxxl::state&lt; request</text>
<text text-anchor="middle" x="868" y="-83.5888" font-family="Helvetica,sans-Serif" font-size="10.00">_state &gt;</text>
</a>
</g>
<!-- Node6&#45;&gt;Node16 -->
<g id="edge42" class="edge"><title>Node6&#45;&gt;Node16</title>
<path fill="none" stroke="#8b1a1a" d="M119.176,-103.304C226.496,-89.2666 460.425,-63.2017 658,-72.5888 711.227,-75.1177 771.787,-81.2326 814.15,-86.0403"/>
<polygon fill="#8b1a1a" stroke="#8b1a1a" points="118.647,-99.8436 109.191,-104.623 119.564,-106.783 118.647,-99.8436"/>
</g>
<!-- Node17 -->
<g id="node39" class="node"><title>Node17</title>
<a xlink:href="classstxxl_1_1condition__variable.html" target="_top" xlink:title="stxxl::condition_variable">
<polygon fill="none" stroke="black" points="250,-4.08883 250,-25.0888 372,-25.0888 372,-4.08883 250,-4.08883"/>
<text text-anchor="middle" x="311" y="-12.0888" font-family="Helvetica,sans-Serif" font-size="10.00">stxxl::condition_variable</text>
</a>
</g>
<!-- Node6&#45;&gt;Node17 -->
<g id="edge48" class="edge"><title>Node6&#45;&gt;Node17</title>
<path fill="none" stroke="#8b1a1a" d="M74.5705,-92.8182C88.8066,-75.932 112.071,-51.9373 138,-39.5888 172.796,-23.0174 215.644,-16.7352 249.993,-14.6118"/>
<polygon fill="#8b1a1a" stroke="#8b1a1a" points="71.5873,-90.9385 67.9827,-100.901 77.0134,-95.3609 71.5873,-90.9385"/>
</g>
<!-- Node18 -->
<g id="node42" class="node"><title>Node18</title>
<a xlink:href="classstxxl_1_1state.html" target="_top" xlink:title="stxxl::state\&lt; ValueType \&gt;">
<polygon fill="none" stroke="black" points="528,-82.0888 528,-103.089 658,-103.089 658,-82.0888 528,-82.0888"/>
<text text-anchor="middle" x="593" y="-90.0888" font-family="Helvetica,sans-Serif" font-size="10.00">stxxl::state&lt; ValueType &gt;</text>
</a>
</g>
<!-- Node6&#45;&gt;Node18 -->
<g id="edge52" class="edge"><title>Node6&#45;&gt;Node18</title>
<path fill="none" stroke="#8b1a1a" d="M119.412,-109.073C185.475,-106.315 295.358,-101.852 390,-98.5888 435.985,-97.0035 487.839,-95.4753 527.628,-94.358"/>
<polygon fill="#8b1a1a" stroke="#8b1a1a" points="119.039,-105.585 109.194,-109.5 119.332,-112.579 119.039,-105.585"/>
</g>
<!-- Node7 -->
<g id="node12" class="node"><title>Node7</title>
<a xlink:href="classstxxl_1_1atomic__counted__object.html" target="_top" xlink:title="Provides reference counting abilities for use with counting_ptr with mutex locking. ">
<polygon fill="none" stroke="black" points="536.5,-264.589 536.5,-298.589 649.5,-298.589 649.5,-264.589 536.5,-264.589"/>
<text text-anchor="start" x="544.5" y="-285.589" font-family="Helvetica,sans-Serif" font-size="10.00">stxxl::atomic_counted</text>
<text text-anchor="middle" x="593" y="-272.589" font-family="Helvetica,sans-Serif" font-size="10.00">_object</text>
</a>
</g>
<!-- Node7&#45;&gt;Node4 -->
<g id="edge12" class="edge"><title>Node7&#45;&gt;Node4</title>
<path fill="none" stroke="midnightblue" d="M659.856,-285.707C763.491,-292.091 959.55,-304.169 1041.98,-309.247"/>
<polygon fill="midnightblue" stroke="midnightblue" points="660.015,-282.21 649.818,-285.089 659.584,-289.197 660.015,-282.21"/>
</g>
<!-- Node7&#45;&gt;Node11 -->
<g id="edge26" class="edge"><title>Node7&#45;&gt;Node11</title>
<path fill="none" stroke="#9a32cd" stroke-dasharray="5,2" d="M659.53,-267.989C665.088,-267.089 670.632,-266.271 676,-265.589 733.981,-258.219 802.413,-255.318 839.913,-254.219"/>
<polygon fill="#9a32cd" stroke="#9a32cd" points="658.819,-264.559 649.547,-269.686 659.993,-271.46 658.819,-264.559"/>
<text text-anchor="middle" x="731" y="-269.589" font-family="Helvetica,sans-Serif" font-size="10.00"> m_request_ref</text>
</g>
<!-- Node8&#45;&gt;Node3 -->
<g id="edge38" class="edge"><title>Node8&#45;&gt;Node3</title>
<path fill="none" stroke="#9a32cd" stroke-dasharray="5,2" d="M356.912,-151.93C434.033,-162.017 594.554,-180.589 731,-180.589 731,-180.589 731,-180.589 1080,-180.589 1118.44,-180.589 1161.94,-180.589 1194.48,-180.589"/>
<polygon fill="#9a32cd" stroke="#9a32cd" points="356.967,-148.407 346.594,-150.566 356.049,-155.347 356.967,-148.407"/>
<text text-anchor="middle" x="868" y="-184.589" font-family="Helvetica,sans-Serif" font-size="10.00"> m_waiters_mutex</text>
</g>
<!-- Node8&#45;&gt;Node7 -->
<g id="edge14" class="edge"><title>Node8&#45;&gt;Node7</title>
<path fill="none" stroke="#9a32cd" stroke-dasharray="5,2" d="M343.149,-160.448C382.599,-178.756 451.462,-210.959 510,-239.589 526.393,-247.607 544.486,-256.729 559.584,-264.42"/>
<polygon fill="#9a32cd" stroke="#9a32cd" points="344.322,-157.134 333.777,-156.103 341.378,-163.484 344.322,-157.134"/>
<text text-anchor="middle" x="450" y="-243.589" font-family="Helvetica,sans-Serif" font-size="10.00"> m_reference_count_mutex</text>
</g>
<!-- Node8&#45;&gt;Node16 -->
<g id="edge44" class="edge"><title>Node8&#45;&gt;Node16</title>
<path fill="none" stroke="#9a32cd" stroke-dasharray="5,2" d="M356.711,-144.141C441.647,-141.005 629.406,-131.973 786,-109.589 795.211,-108.272 804.942,-106.551 814.356,-104.711"/>
<polygon fill="#9a32cd" stroke="#9a32cd" points="356.497,-140.647 346.629,-144.503 356.749,-147.642 356.497,-140.647"/>
<text text-anchor="middle" x="593" y="-139.589" font-family="Helvetica,sans-Serif" font-size="10.00"> m_mutex</text>
</g>
<!-- Node8&#45;&gt;Node18 -->
<g id="edge54" class="edge"><title>Node8&#45;&gt;Node18</title>
<path fill="none" stroke="#9a32cd" stroke-dasharray="5,2" d="M347.366,-131.442C360.616,-126.747 375.825,-121.883 390,-118.589 435.51,-108.012 487.829,-101.441 527.954,-97.5509"/>
<polygon fill="#9a32cd" stroke="#9a32cd" points="345.865,-128.263 337.664,-134.971 348.258,-134.842 345.865,-128.263"/>
<text text-anchor="middle" x="450" y="-122.589" font-family="Helvetica,sans-Serif" font-size="10.00"> m_mutex</text>
</g>
<!-- Node9 -->
<g id="node17" class="node"><title>Node9</title>
<a xlink:href="structstxxl_1_1choose__int__types.html" target="_top" xlink:title="stxxl::choose_int_types\l\&lt; my_pointer_size \&gt;">
<polygon fill="none" stroke="black" points="251,-297.589 251,-331.589 371,-331.589 371,-297.589 251,-297.589"/>
<text text-anchor="start" x="259" y="-318.589" font-family="Helvetica,sans-Serif" font-size="10.00">stxxl::choose_int_types</text>
<text text-anchor="middle" x="311" y="-305.589" font-family="Helvetica,sans-Serif" font-size="10.00">&lt; my_pointer_size &gt;</text>
</a>
</g>
<!-- Node9&#45;&gt;Node7 -->
<g id="edge18" class="edge"><title>Node9&#45;&gt;Node7</title>
<path fill="none" stroke="#9a32cd" stroke-dasharray="5,2" d="M381.129,-306.382C428.996,-300.781 491.589,-293.456 536.305,-288.223"/>
<polygon fill="#9a32cd" stroke="#9a32cd" points="380.676,-302.911 371.15,-307.55 381.489,-309.864 380.676,-302.911"/>
<text text-anchor="middle" x="450" y="-308.589" font-family="Helvetica,sans-Serif" font-size="10.00"> m_reference_count</text>
</g>
<!-- Node10 -->
<g id="node19" class="node"><title>Node10</title>
<a xlink:href="structstxxl_1_1choose__int__types.html" target="_top" xlink:title="stxxl::choose_int_types\l\&lt; PtrSize \&gt;">
<polygon fill="none" stroke="black" points="0,-297.589 0,-331.589 120,-331.589 120,-297.589 0,-297.589"/>
<text text-anchor="start" x="8" y="-318.589" font-family="Helvetica,sans-Serif" font-size="10.00">stxxl::choose_int_types</text>
<text text-anchor="middle" x="60" y="-305.589" font-family="Helvetica,sans-Serif" font-size="10.00">&lt; PtrSize &gt;</text>
</a>
</g>
<!-- Node10&#45;&gt;Node9 -->
<g id="edge20" class="edge"><title>Node10&#45;&gt;Node9</title>
<path fill="none" stroke="orange" stroke-dasharray="5,2" d="M130.58,-314.589C168.501,-314.589 214.755,-314.589 250.935,-314.589"/>
<polygon fill="orange" stroke="orange" points="130.121,-311.089 120.121,-314.589 130.121,-318.089 130.121,-311.089"/>
<text text-anchor="middle" x="185" y="-318.589" font-family="Helvetica,sans-Serif" font-size="10.00"> &lt; my_pointer_size &gt;</text>
</g>
<!-- Node11&#45;&gt;Node4 -->
<g id="edge22" class="edge"><title>Node11&#45;&gt;Node4</title>
<path fill="none" stroke="#9a32cd" stroke-dasharray="5,2" d="M906.196,-250.26C938.701,-248.87 986.021,-250.322 1024,-265.589 1043.15,-273.285 1060.74,-289.999 1070.92,-301.018"/>
<polygon fill="#9a32cd" stroke="#9a32cd" points="905.991,-246.765 896.193,-250.797 906.367,-253.755 905.991,-246.765"/>
<text text-anchor="middle" x="987" y="-269.589" font-family="Helvetica,sans-Serif" font-size="10.00"> m_file</text>
</g>
<!-- Node12 -->
<g id="node25" class="node"><title>Node12</title>
<a xlink:href="structstxxl_1_1compat__unique__ptr.html" target="_top" xlink:title="stxxl::compat_unique\l_ptr\&lt; stxxl::stxxl::io\l_error \&gt;">
<polygon fill="none" stroke="black" points="676,-347.089 676,-394.089 786,-394.089 786,-347.089 676,-347.089"/>
<text text-anchor="start" x="684" y="-381.089" font-family="Helvetica,sans-Serif" font-size="10.00">stxxl::compat_unique</text>
<text text-anchor="start" x="684" y="-368.089" font-family="Helvetica,sans-Serif" font-size="10.00">_ptr&lt; stxxl::stxxl::io</text>
<text text-anchor="middle" x="731" y="-355.089" font-family="Helvetica,sans-Serif" font-size="10.00">_error &gt;</text>
</a>
</g>
<!-- Node12&#45;&gt;Node4 -->
<g id="edge28" class="edge"><title>Node12&#45;&gt;Node4</title>
<path fill="none" stroke="#9a32cd" stroke-dasharray="5,2" d="M796.326,-372.933C856.801,-373.219 948.5,-368.816 1024,-344.589 1039.47,-339.624 1055.26,-329.803 1066.11,-322.16"/>
<polygon fill="#9a32cd" stroke="#9a32cd" points="796.185,-369.432 786.153,-372.839 796.12,-376.432 796.185,-369.432"/>
<text text-anchor="middle" x="868" y="-376.589" font-family="Helvetica,sans-Serif" font-size="10.00"> m_error</text>
</g>
<!-- Node13 -->
<g id="node27" class="node"><title>Node13</title>
<a xlink:href="structstxxl_1_1compat__unique__ptr.html" target="_top" xlink:title="stxxl::compat_unique\l_ptr\&lt; Type \&gt;">
<polygon fill="none" stroke="black" points="256,-377.589 256,-411.589 366,-411.589 366,-377.589 256,-377.589"/>
<text text-anchor="start" x="264" y="-398.589" font-family="Helvetica,sans-Serif" font-size="10.00">stxxl::compat_unique</text>
<text text-anchor="middle" x="311" y="-385.589" font-family="Helvetica,sans-Serif" font-size="10.00">_ptr&lt; Type &gt;</text>
</a>
</g>
<!-- Node13&#45;&gt;Node12 -->
<g id="edge30" class="edge"><title>Node13&#45;&gt;Node12</title>
<path fill="none" stroke="orange" stroke-dasharray="5,2" d="M372.026,-375.001C378.05,-373.618 384.113,-372.437 390,-371.589 489.907,-357.192 607.994,-361.528 675.729,-366.031"/>
<polygon fill="orange" stroke="orange" points="370.824,-371.693 361.96,-377.496 372.508,-378.487 370.824,-371.693"/>
<text text-anchor="start" x="413" y="-388.589" font-family="Helvetica,sans-Serif" font-size="10.00"> &lt; stxxl::stxxl::io</text>
<text text-anchor="middle" x="450" y="-375.589" font-family="Helvetica,sans-Serif" font-size="10.00">_error &gt;</text>
</g>
<!-- Node15 -->
<g id="node31" class="node"><title>Node15</title>
<a xlink:href="structstxxl_1_1compat__unique__ptr.html" target="_top" xlink:title="stxxl::compat_unique\l_ptr\&lt; stxxl::completion\l_handler_impl \&gt;">
<polygon fill="none" stroke="black" points="535,-398.089 535,-445.089 651,-445.089 651,-398.089 535,-398.089"/>
<text text-anchor="start" x="543" y="-432.089" font-family="Helvetica,sans-Serif" font-size="10.00">stxxl::compat_unique</text>
<text text-anchor="start" x="543" y="-419.089" font-family="Helvetica,sans-Serif" font-size="10.00">_ptr&lt; stxxl::completion</text>
<text text-anchor="middle" x="593" y="-406.089" font-family="Helvetica,sans-Serif" font-size="10.00">_handler_impl &gt;</text>
</a>
</g>
<!-- Node13&#45;&gt;Node15 -->
<g id="edge36" class="edge"><title>Node13&#45;&gt;Node15</title>
<path fill="none" stroke="orange" stroke-dasharray="5,2" d="M376.297,-400.841C424.159,-405.423 488.564,-411.59 534.699,-416.007"/>
<polygon fill="orange" stroke="orange" points="376.33,-397.328 366.042,-399.859 375.663,-404.296 376.33,-397.328"/>
<text text-anchor="start" x="406.5" y="-430.589" font-family="Helvetica,sans-Serif" font-size="10.00"> &lt; stxxl::completion</text>
<text text-anchor="middle" x="450" y="-417.589" font-family="Helvetica,sans-Serif" font-size="10.00">_handler_impl &gt;</text>
</g>
<!-- Node14 -->
<g id="node29" class="node"><title>Node14</title>
<a xlink:href="classstxxl_1_1completion__handler.html" target="_top" xlink:title="Completion handler class (Loki&#45;style). ">
<polygon fill="none" stroke="black" points="804,-409.089 804,-430.089 932,-430.089 932,-409.089 804,-409.089"/>
<text text-anchor="middle" x="868" y="-417.089" font-family="Helvetica,sans-Serif" font-size="10.00">stxxl::completion_handler</text>
</a>
</g>
<!-- Node14&#45;&gt;Node4 -->
<g id="edge32" class="edge"><title>Node14&#45;&gt;Node4</title>
<path fill="none" stroke="#9a32cd" stroke-dasharray="5,2" d="M941.993,-417.405C969.475,-413.734 999.817,-406.054 1024,-390.589 1050.34,-373.742 1067.97,-339.672 1075.64,-322.3"/>
<polygon fill="#9a32cd" stroke="#9a32cd" points="941.536,-413.934 932.015,-418.582 942.356,-420.886 941.536,-413.934"/>
<text text-anchor="middle" x="987" y="-419.589" font-family="Helvetica,sans-Serif" font-size="10.00"> m_on_complete</text>
</g>
<!-- Node15&#45;&gt;Node14 -->
<g id="edge34" class="edge"><title>Node15&#45;&gt;Node14</title>
<path fill="none" stroke="#9a32cd" stroke-dasharray="5,2" d="M661.521,-421.09C704.982,-420.774 760.852,-420.368 803.514,-420.058"/>
<polygon fill="#9a32cd" stroke="#9a32cd" points="661.295,-417.592 651.32,-421.165 661.346,-424.592 661.295,-417.592"/>
<text text-anchor="middle" x="731" y="-424.589" font-family="Helvetica,sans-Serif" font-size="10.00"> m_ptr</text>
</g>
<!-- Node16&#45;&gt;Node2 -->
<g id="edge40" class="edge"><title>Node16&#45;&gt;Node2</title>
<path fill="none" stroke="#9a32cd" stroke-dasharray="5,2" d="M931.569,-98.0306C1035.23,-106.905 1238.53,-124.307 1332.36,-132.34"/>
<polygon fill="#9a32cd" stroke="#9a32cd" points="931.815,-94.5388 921.552,-97.1731 931.217,-101.513 931.815,-94.5388"/>
<text text-anchor="middle" x="1156" y="-123.589" font-family="Helvetica,sans-Serif" font-size="10.00"> m_state</text>
</g>
<!-- Node17&#45;&gt;Node16 -->
<g id="edge46" class="edge"><title>Node17&#45;&gt;Node16</title>
<path fill="none" stroke="#9a32cd" stroke-dasharray="5,2" d="M382.42,-6.15853C477.507,2.36811 649.546,8.29753 786,-39.5888 808.872,-47.6155 831.778,-63.2123 847.543,-75.4174"/>
<polygon fill="#9a32cd" stroke="#9a32cd" points="381.969,-2.68525 372.337,-7.09846 382.619,-9.65503 381.969,-2.68525"/>
<text text-anchor="middle" x="593" y="-13.5888" font-family="Helvetica,sans-Serif" font-size="10.00"> m_cond</text>
</g>
<!-- Node17&#45;&gt;Node18 -->
<g id="edge56" class="edge"><title>Node17&#45;&gt;Node18</title>
<path fill="none" stroke="#9a32cd" stroke-dasharray="5,2" d="M382.323,-26.662C420.624,-33.9774 468.386,-44.445 510,-57.5888 531.325,-64.3242 554.724,-74.4559 571.226,-82.0879"/>
<polygon fill="#9a32cd" stroke="#9a32cd" points="382.768,-23.1843 372.293,-24.7767 381.475,-30.0639 382.768,-23.1843"/>
<text text-anchor="middle" x="450" y="-61.5888" font-family="Helvetica,sans-Serif" font-size="10.00"> m_cond</text>
</g>
<!-- Node18&#45;&gt;Node16 -->
<g id="edge50" class="edge"><title>Node18&#45;&gt;Node16</title>
<path fill="none" stroke="orange" stroke-dasharray="5,2" d="M668.45,-92.5888C714.704,-92.5888 772.813,-92.5888 814.376,-92.5888"/>
<polygon fill="orange" stroke="orange" points="668.171,-89.0889 658.171,-92.5888 668.171,-96.0889 668.171,-89.0889"/>
<text text-anchor="middle" x="731" y="-96.5888" font-family="Helvetica,sans-Serif" font-size="10.00"> &lt; request_state &gt;</text>
</g>
</g>
</svg>
