<?xml version="1.0" encoding="UTF-8" standalone="no"?>
<!DOCTYPE svg PUBLIC "-//W3C//DTD SVG 1.1//EN"
 "http://www.w3.org/Graphics/SVG/1.1/DTD/svg11.dtd">
<!-- Generated by graphviz version 2.26.3 (20100126.1600)
 -->
<!-- Title: stxxl::stream::basic_runs_creator&lt; Input, CompareType, BlockSize, AllocStr &gt; Pages: 1 -->
<svg width="934pt" height="152pt"
 viewBox="0.00 0.00 934.00 152.00" xmlns="http://www.w3.org/2000/svg" xmlns:xlink="http://www.w3.org/1999/xlink">
<g id="graph1" class="graph" transform="scale(1 1) rotate(0) translate(4 148)">
<title>stxxl::stream::basic_runs_creator&lt; Input, CompareType, BlockSize, AllocStr &gt;</title>
<!-- Node1 -->
<g id="node1" class="node"><title>Node1</title>
<polygon fill="#bfbfbf" stroke="black" points="136,-40 136,-100 270,-100 270,-40 136,-40"/>
<text text-anchor="start" x="144" y="-87" font-family="Helvetica,sans-Serif" font-size="10.00">stxxl::stream::basic</text>
<text text-anchor="start" x="144" y="-74" font-family="Helvetica,sans-Serif" font-size="10.00">_runs_creator&lt; Input,</text>
<text text-anchor="start" x="144" y="-61" font-family="Helvetica,sans-Serif" font-size="10.00"> CompareType, BlockSize,</text>
<text text-anchor="middle" x="203" y="-48" font-family="Helvetica,sans-Serif" font-size="10.00"> AllocStr &gt;</text>
</g>
<!-- Node3 -->
<g id="node5" class="node"><title>Node3</title>
<a xlink:href="classstxxl_1_1stream_1_1runs__creator.html" target="_top" xlink:title="Forms sorted runs of data from a stream. ">
<polygon fill="none" stroke="black" points="454.5,-92.5 454.5,-139.5 607.5,-139.5 607.5,-92.5 454.5,-92.5"/>
<text text-anchor="start" x="462.5" y="-126.5" font-family="Helvetica,sans-Serif" font-size="10.00">stxxl::stream::runs</text>
<text text-anchor="start" x="462.5" y="-113.5" font-family="Helvetica,sans-Serif" font-size="10.00">_creator&lt; Input, CompareType,</text>
<text text-anchor="middle" x="531" y="-100.5" font-family="Helvetica,sans-Serif" font-size="10.00"> BlockSize, AllocStr &gt;</text>
</a>
</g>
<!-- Node1&#45;&gt;Node3 -->
<g id="edge4" class="edge"><title>Node1&#45;&gt;Node3</title>
<path fill="none" stroke="midnightblue" d="M280.379,-93.4561C282.942,-94.0096 285.487,-94.5268 288,-95 343.138,-105.383 406.296,-110.643 454.401,-113.303"/>
<polygon fill="midnightblue" stroke="midnightblue" points="280.973,-90.001 270.441,-91.1578 279.395,-96.821 280.973,-90.001"/>
</g>
<!-- Node5 -->
<g id="node9" class="node"><title>Node5</title>
<a xlink:href="classstxxl_1_1stream_1_1basic__runs__creator.html" target="_top" xlink:title="stxxl::stream::basic\l_runs_creator\&lt; stream\l::use_push\&lt; ValueType\l \&gt;, cmp_type, BlockSize,\l alloc_strategy_type \&gt;">
<polygon fill="none" stroke="black" points="467,-0.5 467,-73.5 595,-73.5 595,-0.5 467,-0.5"/>
<text text-anchor="start" x="475" y="-60.5" font-family="Helvetica,sans-Serif" font-size="10.00">stxxl::stream::basic</text>
<text text-anchor="start" x="475" y="-47.5" font-family="Helvetica,sans-Serif" font-size="10.00">_runs_creator&lt; stream</text>
<text text-anchor="start" x="475" y="-34.5" font-family="Helvetica,sans-Serif" font-size="10.00">::use_push&lt; ValueType</text>
<text text-anchor="start" x="475" y="-21.5" font-family="Helvetica,sans-Serif" font-size="10.00"> &gt;, cmp_type, BlockSize,</text>
<text text-anchor="middle" x="531" y="-8.5" font-family="Helvetica,sans-Serif" font-size="10.00"> alloc_strategy_type &gt;</text>
</a>
</g>
<!-- Node1&#45;&gt;Node5 -->
<g id="edge8" class="edge"><title>Node1&#45;&gt;Node5</title>
<path fill="none" stroke="orange" stroke-dasharray="5,2" d="M280.297,-56.9809C282.894,-56.6354 285.467,-56.3071 288,-56 348.493,-48.6668 417.818,-43.5718 466.899,-40.5172"/>
<polygon fill="orange" stroke="orange" points="279.622,-53.541 270.201,-58.3888 280.589,-60.4739 279.622,-53.541"/>
<text text-anchor="start" x="288" y="-86" font-family="Helvetica,sans-Serif" font-size="10.00"> &lt; stream::use_push</text>
<text text-anchor="start" x="288" y="-73" font-family="Helvetica,sans-Serif" font-size="10.00">&lt; ValueType &gt;, cmp_type,</text>
<text text-anchor="middle" x="362" y="-60" font-family="Helvetica,sans-Serif" font-size="10.00"> BlockSize, alloc_strategy_type &gt;</text>
</g>
<!-- Node2 -->
<g id="node2" class="node"><title>Node2</title>
<a xlink:href="classstxxl_1_1noncopyable.html" target="_top" xlink:title="stxxl::noncopyable">
<polygon fill="none" stroke="black" points="0,-59.5 0,-80.5 98,-80.5 98,-59.5 0,-59.5"/>
<text text-anchor="middle" x="49" y="-67.5" font-family="Helvetica,sans-Serif" font-size="10.00">stxxl::noncopyable</text>
</a>
</g>
<!-- Node2&#45;&gt;Node1 -->
<g id="edge2" class="edge"><title>Node2&#45;&gt;Node1</title>
<path fill="none" stroke="#8b1a1a" d="M108.175,-70C117.209,-70 126.59,-70 135.782,-70"/>
<polygon fill="#8b1a1a" stroke="#8b1a1a" points="108.15,-66.5001 98.15,-70 108.15,-73.5001 108.15,-66.5001"/>
</g>
<!-- Node4 -->
<g id="node7" class="node"><title>Node4</title>
<a xlink:href="classstxxl_1_1stream_1_1runs__creator.html" target="_top" xlink:title="stxxl::stream::runs\l_creator\&lt; stream::use\l_push\&lt; ValueType \&gt;, cmp\l_type, block_size, alloc\l_strategy_type \&gt;">
<polygon fill="none" stroke="black" points="794,-45.5 794,-118.5 926,-118.5 926,-45.5 794,-45.5"/>
<text text-anchor="start" x="802" y="-105.5" font-family="Helvetica,sans-Serif" font-size="10.00">stxxl::stream::runs</text>
<text text-anchor="start" x="802" y="-92.5" font-family="Helvetica,sans-Serif" font-size="10.00">_creator&lt; stream::use</text>
<text text-anchor="start" x="802" y="-79.5" font-family="Helvetica,sans-Serif" font-size="10.00">_push&lt; ValueType &gt;, cmp</text>
<text text-anchor="start" x="802" y="-66.5" font-family="Helvetica,sans-Serif" font-size="10.00">_type, block_size, alloc</text>
<text text-anchor="middle" x="860" y="-53.5" font-family="Helvetica,sans-Serif" font-size="10.00">_strategy_type &gt;</text>
</a>
</g>
<!-- Node3&#45;&gt;Node4 -->
<g id="edge6" class="edge"><title>Node3&#45;&gt;Node4</title>
<path fill="none" stroke="orange" stroke-dasharray="5,2" d="M617.826,-107.027C672.928,-101.333 743.122,-94.0786 793.737,-88.8479"/>
<polygon fill="orange" stroke="orange" points="617.308,-103.562 607.721,-108.071 618.028,-110.525 617.308,-103.562"/>
<text text-anchor="start" x="626" y="-135" font-family="Helvetica,sans-Serif" font-size="10.00"> &lt; stream::use_push</text>
<text text-anchor="start" x="626" y="-122" font-family="Helvetica,sans-Serif" font-size="10.00">&lt; ValueType &gt;, cmp_type,</text>
<text text-anchor="middle" x="701" y="-109" font-family="Helvetica,sans-Serif" font-size="10.00"> block_size, alloc_strategy_type &gt;</text>
</g>
<!-- Node5&#45;&gt;Node4 -->
<g id="edge10" class="edge"><title>Node5&#45;&gt;Node4</title>
<path fill="none" stroke="midnightblue" d="M605.198,-47.1487C661.917,-54.9066 739.391,-65.5033 793.974,-72.9691"/>
<polygon fill="midnightblue" stroke="midnightblue" points="605.598,-43.6708 595.216,-45.7833 604.649,-50.6062 605.598,-43.6708"/>
</g>
</g>
</svg>
