<?xml version="1.0" encoding="UTF-8" standalone="no"?>
<!DOCTYPE svg PUBLIC "-//W3C//DTD SVG 1.1//EN"
 "http://www.w3.org/Graphics/SVG/1.1/DTD/svg11.dtd">
<!-- Generated by graphviz version 2.38.0 (20140413.2041)
 -->
<!-- Title: stxxl::typed_block&lt; RawSize, Type, NRef, MetaInfoType &gt; Pages: 1 -->
<svg width="3246pt" height="291pt"
 viewBox="0.00 0.00 3246.00 290.86" xmlns="http://www.w3.org/2000/svg" xmlns:xlink="http://www.w3.org/1999/xlink">
<g id="graph0" class="graph" transform="scale(1 1) rotate(0) translate(4 286.858)">
<title>stxxl::typed_block&lt; RawSize, Type, NRef, MetaInfoType &gt;</title>
<!-- Node1 -->
<g id="node1" class="node"><title>Node1</title>
<polygon fill="#bfbfbf" stroke="black" points="3113,-67.5 3113,-108.5 3238,-108.5 3238,-67.5 3113,-67.5"/>
<text text-anchor="start" x="3121" y="-96.5" font-family="Helvetica,sans-Serif" font-size="10.00">stxxl::typed_block</text>
<text text-anchor="start" x="3121" y="-85.5" font-family="Helvetica,sans-Serif" font-size="10.00">&lt; RawSize, Type, NRef,</text>
<text text-anchor="middle" x="3175.5" y="-74.5" font-family="Helvetica,sans-Serif" font-size="10.00"> MetaInfoType &gt;</text>
</g>
<!-- Node2 -->
<g id="node2" class="node"><title>Node2</title>
<g id="a_node2"><a xlink:href="classstxxl_1_1mng__local_1_1expand__struct.html" target="_top" xlink:title="stxxl::mng_local::expand\l_struct\&lt; mng_local::block\l_w_info\&lt; Type, RawSize, NRef,\l MetaInfoType \&gt;, RawSize \&gt;">
<polygon fill="none" stroke="black" points="2917,-62 2917,-114 3076,-114 3076,-62 2917,-62"/>
<text text-anchor="start" x="2925" y="-102" font-family="Helvetica,sans-Serif" font-size="10.00">stxxl::mng_local::expand</text>
<text text-anchor="start" x="2925" y="-91" font-family="Helvetica,sans-Serif" font-size="10.00">_struct&lt; mng_local::block</text>
<text text-anchor="start" x="2925" y="-80" font-family="Helvetica,sans-Serif" font-size="10.00">_w_info&lt; Type, RawSize, NRef,</text>
<text text-anchor="middle" x="2996.5" y="-69" font-family="Helvetica,sans-Serif" font-size="10.00"> MetaInfoType &gt;, RawSize &gt;</text>
</a>
</g>
</g>
<!-- Node2&#45;&gt;Node1 -->
<g id="edge1" class="edge"><title>Node2&#45;&gt;Node1</title>
<path fill="none" stroke="midnightblue" d="M3086.28,-88C3095.25,-88 3104.22,-88 3112.81,-88"/>
<polygon fill="midnightblue" stroke="midnightblue" points="3086.17,-84.5001 3076.17,-88 3086.17,-91.5001 3086.17,-84.5001"/>
</g>
<!-- Node3 -->
<g id="node3" class="node"><title>Node3</title>
<g id="a_node3"><a xlink:href="classstxxl_1_1mng__local_1_1add__filler.html" target="_top" xlink:title="stxxl::mng_local::add\l_filler\&lt; mng_local::block\l_w_info\&lt; Type, RawSize,\l NRef, MetaInfoType \&gt;, RawSize\l&#45;sizeof(mng_local::block_w_info\l\&lt; Type, RawSize, NRef, MetaInfoType \&gt;)\&gt;">
<polygon fill="none" stroke="black" points="2392,-85 2392,-159 2598,-159 2598,-85 2392,-85"/>
<text text-anchor="start" x="2400" y="-147" font-family="Helvetica,sans-Serif" font-size="10.00">stxxl::mng_local::add</text>
<text text-anchor="start" x="2400" y="-136" font-family="Helvetica,sans-Serif" font-size="10.00">_filler&lt; mng_local::block</text>
<text text-anchor="start" x="2400" y="-125" font-family="Helvetica,sans-Serif" font-size="10.00">_w_info&lt; Type, RawSize,</text>
<text text-anchor="start" x="2400" y="-114" font-family="Helvetica,sans-Serif" font-size="10.00"> NRef, MetaInfoType &gt;, RawSize</text>
<text text-anchor="start" x="2400" y="-103" font-family="Helvetica,sans-Serif" font-size="10.00">&#45;sizeof(mng_local::block_w_info</text>
<text text-anchor="middle" x="2495" y="-92" font-family="Helvetica,sans-Serif" font-size="10.00">&lt; Type, RawSize, NRef, MetaInfoType &gt;)&gt;</text>
</a>
</g>
</g>
<!-- Node3&#45;&gt;Node2 -->
<g id="edge2" class="edge"><title>Node3&#45;&gt;Node2</title>
<path fill="none" stroke="midnightblue" d="M2608.36,-121.233C2689.36,-119.713 2801.19,-115.631 2899,-105 2904.83,-104.366 2910.85,-103.594 2916.89,-102.733"/>
<polygon fill="midnightblue" stroke="midnightblue" points="2608.08,-117.738 2598.14,-121.414 2608.2,-124.736 2608.08,-117.738"/>
</g>
<!-- Node4 -->
<g id="node4" class="node"><title>Node4</title>
<g id="a_node4"><a xlink:href="classstxxl_1_1mng__local_1_1block__w__info.html" target="_top" xlink:title="stxxl::mng_local::block\l_w_info\&lt; Type, RawSize,\l NRef, MetaInfoType \&gt;">
<polygon fill="none" stroke="black" points="2078,-176.5 2078,-217.5 2208,-217.5 2208,-176.5 2078,-176.5"/>
<text text-anchor="start" x="2086" y="-205.5" font-family="Helvetica,sans-Serif" font-size="10.00">stxxl::mng_local::block</text>
<text text-anchor="start" x="2086" y="-194.5" font-family="Helvetica,sans-Serif" font-size="10.00">_w_info&lt; Type, RawSize,</text>
<text text-anchor="middle" x="2143" y="-183.5" font-family="Helvetica,sans-Serif" font-size="10.00"> NRef, MetaInfoType &gt;</text>
</a>
</g>
</g>
<!-- Node4&#45;&gt;Node3 -->
<g id="edge3" class="edge"><title>Node4&#45;&gt;Node3</title>
<path fill="none" stroke="midnightblue" d="M2218.52,-188.389C2263.83,-182.4 2322.66,-173.279 2374,-161 2379.86,-159.599 2385.84,-158.049 2391.86,-156.398"/>
<polygon fill="midnightblue" stroke="midnightblue" points="2217.95,-184.934 2208.48,-189.694 2218.85,-191.876 2217.95,-184.934"/>
</g>
<!-- Node5 -->
<g id="node5" class="node"><title>Node5</title>
<g id="a_node5"><a xlink:href="classstxxl_1_1mng__local_1_1block__w__bids.html" target="_top" xlink:title="stxxl::mng_local::block\l_w_bids\&lt; Type,((RawSize\l&#45;sizeof(BID\&lt; RawSize \&gt;)*NBids\l&#45;sizeof(MetaInfoType))/sizeof\l(Type)), RawSize, NBids \&gt;">
<polygon fill="none" stroke="black" points="1547,-175.5 1547,-238.5 1705,-238.5 1705,-175.5 1547,-175.5"/>
<text text-anchor="start" x="1555" y="-226.5" font-family="Helvetica,sans-Serif" font-size="10.00">stxxl::mng_local::block</text>
<text text-anchor="start" x="1555" y="-215.5" font-family="Helvetica,sans-Serif" font-size="10.00">_w_bids&lt; Type,((RawSize</text>
<text text-anchor="start" x="1555" y="-204.5" font-family="Helvetica,sans-Serif" font-size="10.00">&#45;sizeof(BID&lt; RawSize &gt;)*NBids</text>
<text text-anchor="start" x="1555" y="-193.5" font-family="Helvetica,sans-Serif" font-size="10.00">&#45;sizeof(MetaInfoType))/sizeof</text>
<text text-anchor="middle" x="1626" y="-182.5" font-family="Helvetica,sans-Serif" font-size="10.00">(Type)), RawSize, NBids &gt;</text>
</a>
</g>
</g>
<!-- Node5&#45;&gt;Node4 -->
<g id="edge4" class="edge"><title>Node5&#45;&gt;Node4</title>
<path fill="none" stroke="midnightblue" d="M1715.46,-216.063C1802.22,-223.307 1938.14,-230.259 2055,-217 2062.39,-216.161 2070.07,-214.934 2077.67,-213.493"/>
<polygon fill="midnightblue" stroke="midnightblue" points="1715.65,-212.566 1705.39,-215.202 1715.05,-219.541 1715.65,-212.566"/>
</g>
<!-- Node16 -->
<g id="node16" class="node"><title>Node16</title>
<g id="a_node16"><a xlink:href="classstxxl_1_1mng__local_1_1block__w__info.html" target="_top" xlink:title="Contains per block information for stxxl::typed_block , not intended for direct use. ">
<polygon fill="none" stroke="black" points="1795,-161.5 1795,-202.5 1925,-202.5 1925,-161.5 1795,-161.5"/>
<text text-anchor="start" x="1803" y="-190.5" font-family="Helvetica,sans-Serif" font-size="10.00">stxxl::mng_local::block</text>
<text text-anchor="start" x="1803" y="-179.5" font-family="Helvetica,sans-Serif" font-size="10.00">_w_info&lt; Type, RawSize,</text>
<text text-anchor="middle" x="1860" y="-168.5" font-family="Helvetica,sans-Serif" font-size="10.00"> NBids, MetaInfoType &gt;</text>
</a>
</g>
</g>
<!-- Node5&#45;&gt;Node16 -->
<g id="edge20" class="edge"><title>Node5&#45;&gt;Node16</title>
<path fill="none" stroke="midnightblue" d="M1715.27,-197.488C1741.79,-194.63 1770.36,-191.552 1794.99,-188.898"/>
<polygon fill="midnightblue" stroke="midnightblue" points="1714.79,-194.02 1705.22,-198.571 1715.54,-200.979 1714.79,-194.02"/>
</g>
<!-- Node6 -->
<g id="node6" class="node"><title>Node6</title>
<g id="a_node6"><a xlink:href="classstxxl_1_1mng__local_1_1element__block.html" target="_top" xlink:title="Contains data elements for stxxl::typed_block , not intended for direct use. ">
<polygon fill="none" stroke="black" points="1062,-244 1062,-274 1190,-274 1190,-244 1062,-244"/>
<text text-anchor="start" x="1070" y="-262" font-family="Helvetica,sans-Serif" font-size="10.00">stxxl::mng_local::element</text>
<text text-anchor="middle" x="1126" y="-251" font-family="Helvetica,sans-Serif" font-size="10.00">_block&lt; Type, Size &gt;</text>
</a>
</g>
</g>
<!-- Node6&#45;&gt;Node5 -->
<g id="edge5" class="edge"><title>Node6&#45;&gt;Node5</title>
<path fill="none" stroke="midnightblue" d="M1200.25,-271.43C1282,-282.631 1417.43,-293.163 1529,-263 1547.44,-258.015 1565.97,-248.51 1581.77,-238.728"/>
<polygon fill="midnightblue" stroke="midnightblue" points="1200.7,-267.958 1190.31,-270.028 1199.72,-274.89 1200.7,-267.958"/>
</g>
<!-- Node15 -->
<g id="node15" class="node"><title>Node15</title>
<g id="a_node15"><a xlink:href="classstxxl_1_1mng__local_1_1block__w__bids.html" target="_top" xlink:title="Contains BID references for stxxl::typed_block , not intended for direct use. ">
<polygon fill="none" stroke="black" points="1241,-203.5 1241,-244.5 1399,-244.5 1399,-203.5 1241,-203.5"/>
<text text-anchor="start" x="1249" y="-232.5" font-family="Helvetica,sans-Serif" font-size="10.00">stxxl::mng_local::block</text>
<text text-anchor="start" x="1249" y="-221.5" font-family="Helvetica,sans-Serif" font-size="10.00">_w_bids&lt; Type, Size, RawSize,</text>
<text text-anchor="middle" x="1320" y="-210.5" font-family="Helvetica,sans-Serif" font-size="10.00"> NBids &gt;</text>
</a>
</g>
</g>
<!-- Node6&#45;&gt;Node15 -->
<g id="edge17" class="edge"><title>Node6&#45;&gt;Node15</title>
<path fill="none" stroke="midnightblue" d="M1200.15,-245.666C1213.43,-243.245 1227.32,-240.712 1240.74,-238.266"/>
<polygon fill="midnightblue" stroke="midnightblue" points="1199.34,-242.255 1190.13,-247.491 1200.6,-249.141 1199.34,-242.255"/>
</g>
<!-- Node7 -->
<g id="node7" class="node"><title>Node7</title>
<g id="a_node7"><a xlink:href="structstxxl_1_1BID.html" target="_top" xlink:title="stxxl::BID\&lt; raw_size \&gt;">
<polygon fill="none" stroke="black" points="1067,-191.5 1067,-210.5 1185,-210.5 1185,-191.5 1067,-191.5"/>
<text text-anchor="middle" x="1126" y="-198.5" font-family="Helvetica,sans-Serif" font-size="10.00">stxxl::BID&lt; raw_size &gt;</text>
</a>
</g>
</g>
<!-- Node7&#45;&gt;Node5 -->
<g id="edge6" class="edge"><title>Node7&#45;&gt;Node5</title>
<path fill="none" stroke="#9a32cd" stroke-dasharray="5,2" d="M1186.53,-189.797C1204.01,-186.997 1223.22,-184.395 1241,-183 1346.88,-174.692 1469.37,-185.963 1546.99,-195.696"/>
<polygon fill="#9a32cd" stroke="#9a32cd" points="1185.76,-186.378 1176.46,-191.462 1186.9,-193.284 1185.76,-186.378"/>
<text text-anchor="middle" x="1320" y="-186" font-family="Helvetica,sans-Serif" font-size="10.00"> ref</text>
</g>
<!-- Node7&#45;&gt;Node15 -->
<g id="edge18" class="edge"><title>Node7&#45;&gt;Node15</title>
<path fill="none" stroke="#9a32cd" stroke-dasharray="5,2" d="M1195.19,-209.169C1209.98,-210.94 1225.73,-212.827 1240.87,-214.64"/>
<polygon fill="#9a32cd" stroke="#9a32cd" points="1195.47,-205.678 1185.13,-207.963 1194.64,-212.628 1195.47,-205.678"/>
<text text-anchor="middle" x="1215.5" y="-216" font-family="Helvetica,sans-Serif" font-size="10.00"> ref</text>
</g>
<!-- Node8 -->
<g id="node8" class="node"><title>Node8</title>
<g id="a_node8"><a xlink:href="classstxxl_1_1file.html" target="_top" xlink:title="Defines interface of file. ">
<polygon fill="none" stroke="black" points="739,-186.5 739,-205.5 795,-205.5 795,-186.5 739,-186.5"/>
<text text-anchor="middle" x="767" y="-193.5" font-family="Helvetica,sans-Serif" font-size="10.00">stxxl::file</text>
</a>
</g>
</g>
<!-- Node8&#45;&gt;Node7 -->
<g id="edge7" class="edge"><title>Node8&#45;&gt;Node7</title>
<path fill="none" stroke="#9a32cd" stroke-dasharray="5,2" d="M805.216,-199.557C807.849,-199.732 810.463,-199.883 813,-200 901.47,-204.066 1004.2,-203.346 1066.89,-202.295"/>
<polygon fill="#9a32cd" stroke="#9a32cd" points="805.339,-196.057 795.102,-198.786 804.807,-203.036 805.339,-196.057"/>
<text text-anchor="middle" x="916" y="-207" font-family="Helvetica,sans-Serif" font-size="10.00"> storage</text>
</g>
<!-- Node14 -->
<g id="node14" class="node"><title>Node14</title>
<g id="a_node14"><a xlink:href="structstxxl_1_1BID.html" target="_top" xlink:title="Block identifier class. ">
<polygon fill="none" stroke="black" points="867,-158.5 867,-177.5 965,-177.5 965,-158.5 867,-158.5"/>
<text text-anchor="middle" x="916" y="-165.5" font-family="Helvetica,sans-Serif" font-size="10.00">stxxl::BID&lt; Size &gt;</text>
</a>
</g>
</g>
<!-- Node8&#45;&gt;Node14 -->
<g id="edge15" class="edge"><title>Node8&#45;&gt;Node14</title>
<path fill="none" stroke="#9a32cd" stroke-dasharray="5,2" d="M805.203,-188.914C823.872,-185.358 846.712,-181.007 866.716,-177.197"/>
<polygon fill="#9a32cd" stroke="#9a32cd" points="804.474,-185.49 795.305,-190.799 805.783,-192.366 804.474,-185.49"/>
<text text-anchor="middle" x="831" y="-190" font-family="Helvetica,sans-Serif" font-size="10.00"> storage</text>
</g>
<!-- Node9 -->
<g id="node9" class="node"><title>Node9</title>
<g id="a_node9"><a xlink:href="classstxxl_1_1noncopyable.html" target="_top" xlink:title="stxxl::noncopyable">
<polygon fill="none" stroke="black" points="11,-186.5 11,-205.5 109,-205.5 109,-186.5 11,-186.5"/>
<text text-anchor="middle" x="60" y="-193.5" font-family="Helvetica,sans-Serif" font-size="10.00">stxxl::noncopyable</text>
</a>
</g>
</g>
<!-- Node9&#45;&gt;Node8 -->
<g id="edge8" class="edge"><title>Node9&#45;&gt;Node8</title>
<path fill="none" stroke="#8b1a1a" d="M119.192,-196C263.783,-196 635.17,-196 738.792,-196"/>
<polygon fill="#8b1a1a" stroke="#8b1a1a" points="119.18,-192.5 109.18,-196 119.18,-199.5 119.18,-192.5"/>
</g>
<!-- Node11 -->
<g id="node11" class="node"><title>Node11</title>
<g id="a_node11"><a xlink:href="classstxxl_1_1mutex.html" target="_top" xlink:title="stxxl::mutex">
<polygon fill="none" stroke="black" points="273.5,-161.5 273.5,-180.5 344.5,-180.5 344.5,-161.5 273.5,-161.5"/>
<text text-anchor="middle" x="309" y="-168.5" font-family="Helvetica,sans-Serif" font-size="10.00">stxxl::mutex</text>
</a>
</g>
</g>
<!-- Node9&#45;&gt;Node11 -->
<g id="edge11" class="edge"><title>Node9&#45;&gt;Node11</title>
<path fill="none" stroke="#8b1a1a" d="M119.445,-190.084C167.363,-185.235 233.567,-178.534 273.436,-174.498"/>
<polygon fill="#8b1a1a" stroke="#8b1a1a" points="118.807,-186.631 109.21,-191.12 119.512,-193.596 118.807,-186.631"/>
</g>
<!-- Node10 -->
<g id="node10" class="node"><title>Node10</title>
<g id="a_node10"><a xlink:href="classstxxl_1_1atomic__counted__object.html" target="_top" xlink:title="Provides reference counting abilities for use with counting_ptr with mutex locking. ">
<polygon fill="none" stroke="black" points="524,-150 524,-180 637,-180 637,-150 524,-150"/>
<text text-anchor="start" x="532" y="-168" font-family="Helvetica,sans-Serif" font-size="10.00">stxxl::atomic_counted</text>
<text text-anchor="middle" x="580.5" y="-157" font-family="Helvetica,sans-Serif" font-size="10.00">_object</text>
</a>
</g>
</g>
<!-- Node10&#45;&gt;Node8 -->
<g id="edge9" class="edge"><title>Node10&#45;&gt;Node8</title>
<path fill="none" stroke="#9a32cd" stroke-dasharray="5,2" d="M647.257,-172.235C670.645,-175.262 697.097,-179.205 721,-184 726.708,-185.145 732.765,-186.595 738.522,-188.088"/>
<polygon fill="#9a32cd" stroke="#9a32cd" points="647.454,-168.732 637.094,-170.952 646.577,-175.677 647.454,-168.732"/>
<text text-anchor="middle" x="688" y="-187" font-family="Helvetica,sans-Serif" font-size="10.00"> m_request_ref</text>
</g>
<!-- Node11&#45;&gt;Node10 -->
<g id="edge10" class="edge"><title>Node11&#45;&gt;Node10</title>
<path fill="none" stroke="#9a32cd" stroke-dasharray="5,2" d="M354.739,-170.004C401.151,-168.971 473.812,-167.353 523.888,-166.238"/>
<polygon fill="#9a32cd" stroke="#9a32cd" points="354.6,-166.506 344.681,-170.228 354.756,-173.504 354.6,-166.506"/>
<text text-anchor="middle" x="446.5" y="-173" font-family="Helvetica,sans-Serif" font-size="10.00"> m_reference_count_mutex</text>
</g>
<!-- Node12 -->
<g id="node12" class="node"><title>Node12</title>
<g id="a_node12"><a xlink:href="structstxxl_1_1choose__int__types.html" target="_top" xlink:title="stxxl::choose_int_types\l\&lt; my_pointer_size \&gt;">
<polygon fill="none" stroke="black" points="249,-112 249,-142 369,-142 369,-112 249,-112"/>
<text text-anchor="start" x="257" y="-130" font-family="Helvetica,sans-Serif" font-size="10.00">stxxl::choose_int_types</text>
<text text-anchor="middle" x="309" y="-119" font-family="Helvetica,sans-Serif" font-size="10.00">&lt; my_pointer_size &gt;</text>
</a>
</g>
</g>
<!-- Node12&#45;&gt;Node10 -->
<g id="edge12" class="edge"><title>Node12&#45;&gt;Node10</title>
<path fill="none" stroke="#9a32cd" stroke-dasharray="5,2" d="M379.599,-135.05C417.107,-139.596 464.151,-145.634 506,-152 511.765,-152.877 517.774,-153.847 523.764,-154.851"/>
<polygon fill="#9a32cd" stroke="#9a32cd" points="379.631,-131.529 369.285,-133.808 378.795,-138.478 379.631,-131.529"/>
<text text-anchor="middle" x="446.5" y="-155" font-family="Helvetica,sans-Serif" font-size="10.00"> m_reference_count</text>
</g>
<!-- Node13 -->
<g id="node13" class="node"><title>Node13</title>
<g id="a_node13"><a xlink:href="structstxxl_1_1choose__int__types.html" target="_top" xlink:title="stxxl::choose_int_types\l\&lt; PtrSize \&gt;">
<polygon fill="none" stroke="black" points="0,-112 0,-142 120,-142 120,-112 0,-112"/>
<text text-anchor="start" x="8" y="-130" font-family="Helvetica,sans-Serif" font-size="10.00">stxxl::choose_int_types</text>
<text text-anchor="middle" x="60" y="-119" font-family="Helvetica,sans-Serif" font-size="10.00">&lt; PtrSize &gt;</text>
</a>
</g>
</g>
<!-- Node13&#45;&gt;Node12 -->
<g id="edge13" class="edge"><title>Node13&#45;&gt;Node12</title>
<path fill="none" stroke="orange" stroke-dasharray="5,2" d="M130.455,-127C167.772,-127 213.289,-127 248.893,-127"/>
<polygon fill="orange" stroke="orange" points="130.163,-123.5 120.163,-127 130.163,-130.5 130.163,-123.5"/>
<text text-anchor="middle" x="184.5" y="-130" font-family="Helvetica,sans-Serif" font-size="10.00"> &lt; my_pointer_size &gt;</text>
</g>
<!-- Node14&#45;&gt;Node7 -->
<g id="edge14" class="edge"><title>Node14&#45;&gt;Node7</title>
<path fill="none" stroke="orange" stroke-dasharray="5,2" d="M975.465,-177.276C1003.97,-181.798 1038.16,-187.222 1066.65,-191.742"/>
<polygon fill="orange" stroke="orange" points="975.667,-173.764 965.242,-175.654 974.57,-180.678 975.667,-173.764"/>
<text text-anchor="middle" x="1013.5" y="-191" font-family="Helvetica,sans-Serif" font-size="10.00"> &lt; raw_size &gt;</text>
</g>
<!-- Node15&#45;&gt;Node5 -->
<g id="edge16" class="edge"><title>Node15&#45;&gt;Node5</title>
<path fill="none" stroke="orange" stroke-dasharray="5,2" d="M1409.29,-208.735C1411.88,-208.463 1414.46,-208.216 1417,-208 1459.82,-204.353 1507.77,-203.88 1546.84,-204.419"/>
<polygon fill="orange" stroke="orange" points="1408.73,-205.277 1399.19,-209.905 1409.53,-212.23 1408.73,-205.277"/>
<text text-anchor="start" x="1417" y="-255" font-family="Helvetica,sans-Serif" font-size="10.00"> &lt; Type,((RawSize&#45;sizeof</text>
<text text-anchor="start" x="1417" y="-244" font-family="Helvetica,sans-Serif" font-size="10.00">(BID&lt; RawSize &gt;)*NBids</text>
<text text-anchor="start" x="1417" y="-233" font-family="Helvetica,sans-Serif" font-size="10.00">&#45;sizeof(MetaInfoType))</text>
<text text-anchor="start" x="1417" y="-222" font-family="Helvetica,sans-Serif" font-size="10.00">/sizeof(Type)), RawSize,</text>
<text text-anchor="middle" x="1473" y="-211" font-family="Helvetica,sans-Serif" font-size="10.00"> NBids &gt;</text>
</g>
<!-- Node16&#45;&gt;Node4 -->
<g id="edge19" class="edge"><title>Node16&#45;&gt;Node4</title>
<path fill="none" stroke="orange" stroke-dasharray="5,2" d="M1935.25,-185.963C1979.55,-188.328 2035.25,-191.302 2077.67,-193.566"/>
<polygon fill="orange" stroke="orange" points="1935.29,-182.461 1925.11,-185.423 1934.91,-189.451 1935.29,-182.461"/>
<text text-anchor="start" x="1943" y="-207" font-family="Helvetica,sans-Serif" font-size="10.00"> &lt; Type, RawSize, NRef,</text>
<text text-anchor="middle" x="1999" y="-196" font-family="Helvetica,sans-Serif" font-size="10.00"> MetaInfoType &gt;</text>
</g>
<!-- Node17 -->
<g id="node17" class="node"><title>Node17</title>
<g id="a_node17"><a xlink:href="classstxxl_1_1mng__local_1_1filler__struct.html" target="_top" xlink:title="stxxl::mng_local::filler\l_struct\&lt; FillSize \&gt;">
<polygon fill="none" stroke="black" points="1804,-35 1804,-65 1916,-65 1916,-35 1804,-35"/>
<text text-anchor="start" x="1812" y="-53" font-family="Helvetica,sans-Serif" font-size="10.00">stxxl::mng_local::filler</text>
<text text-anchor="middle" x="1860" y="-42" font-family="Helvetica,sans-Serif" font-size="10.00">_struct&lt; FillSize &gt;</text>
</a>
</g>
</g>
<!-- Node17&#45;&gt;Node3 -->
<g id="edge21" class="edge"><title>Node17&#45;&gt;Node3</title>
<path fill="none" stroke="#9a32cd" stroke-dasharray="5,2" d="M1921.47,-67.8933C1994.16,-88.3916 2120.23,-120.728 2231,-133 2294.17,-139.998 2310.51,-135.904 2374,-133 2379.85,-132.732 2385.86,-132.392 2391.92,-131.997"/>
<polygon fill="#9a32cd" stroke="#9a32cd" points="1922.15,-64.4479 1911.57,-65.0827 1920.24,-71.1816 1922.15,-64.4479"/>
<text text-anchor="middle" x="2143" y="-134" font-family="Helvetica,sans-Serif" font-size="10.00"> filler</text>
</g>
<!-- Node19 -->
<g id="node19" class="node"><title>Node19</title>
<g id="a_node19"><a xlink:href="classstxxl_1_1mng__local_1_1add__filler.html" target="_top" xlink:title="Contains per block filler for stxxl::typed_block , not intended for direct use. ">
<polygon fill="none" stroke="black" points="2073,-35 2073,-65 2213,-65 2213,-35 2073,-35"/>
<text text-anchor="start" x="2081" y="-53" font-family="Helvetica,sans-Serif" font-size="10.00">stxxl::mng_local::add</text>
<text text-anchor="middle" x="2143" y="-42" font-family="Helvetica,sans-Serif" font-size="10.00">_filler&lt; BaseType, FillSize &gt;</text>
</a>
</g>
</g>
<!-- Node17&#45;&gt;Node19 -->
<g id="edge24" class="edge"><title>Node17&#45;&gt;Node19</title>
<path fill="none" stroke="#9a32cd" stroke-dasharray="5,2" d="M1926.46,-50C1970.35,-50 2028.08,-50 2072.75,-50"/>
<polygon fill="#9a32cd" stroke="#9a32cd" points="1926.18,-46.5001 1916.18,-50 1926.18,-53.5001 1926.18,-46.5001"/>
<text text-anchor="middle" x="1999" y="-53" font-family="Helvetica,sans-Serif" font-size="10.00"> filler</text>
</g>
<!-- Node21 -->
<g id="node21" class="node"><title>Node21</title>
<g id="a_node21"><a xlink:href="classstxxl_1_1mng__local_1_1add__filler.html" target="_top" xlink:title="stxxl::mng_local::add\l_filler\&lt; Type, RawSize\l&#45;sizeof(Type)\&gt;">
<polygon fill="none" stroke="black" points="2437,-0.5 2437,-41.5 2553,-41.5 2553,-0.5 2437,-0.5"/>
<text text-anchor="start" x="2445" y="-29.5" font-family="Helvetica,sans-Serif" font-size="10.00">stxxl::mng_local::add</text>
<text text-anchor="start" x="2445" y="-18.5" font-family="Helvetica,sans-Serif" font-size="10.00">_filler&lt; Type, RawSize</text>
<text text-anchor="middle" x="2495" y="-7.5" font-family="Helvetica,sans-Serif" font-size="10.00">&#45;sizeof(Type)&gt;</text>
</a>
</g>
</g>
<!-- Node17&#45;&gt;Node21 -->
<g id="edge27" class="edge"><title>Node17&#45;&gt;Node21</title>
<path fill="none" stroke="#9a32cd" stroke-dasharray="5,2" d="M1926.1,-36.4657C1967.88,-28.397 2023.4,-18.8146 2073,-14 2206.16,-1.07486 2240.35,-3.8872 2374,-10 2394.48,-10.9367 2416.87,-12.7683 2436.7,-14.6723"/>
<polygon fill="#9a32cd" stroke="#9a32cd" points="1925.2,-33.075 1916.06,-38.4271 1926.55,-39.9452 1925.2,-33.075"/>
<text text-anchor="middle" x="2143" y="-17" font-family="Helvetica,sans-Serif" font-size="10.00"> filler</text>
</g>
<!-- Node18 -->
<g id="node18" class="node"><title>Node18</title>
<g id="a_node18"><a xlink:href="classstxxl_1_1mng__local_1_1filler__struct.html" target="_top" xlink:title="stxxl::mng_local::filler\l_struct\&lt; Bytes \&gt;">
<polygon fill="none" stroke="black" points="1570,-35 1570,-65 1682,-65 1682,-35 1570,-35"/>
<text text-anchor="start" x="1578" y="-53" font-family="Helvetica,sans-Serif" font-size="10.00">stxxl::mng_local::filler</text>
<text text-anchor="middle" x="1626" y="-42" font-family="Helvetica,sans-Serif" font-size="10.00">_struct&lt; Bytes &gt;</text>
</a>
</g>
</g>
<!-- Node18&#45;&gt;Node17 -->
<g id="edge22" class="edge"><title>Node18&#45;&gt;Node17</title>
<path fill="none" stroke="orange" stroke-dasharray="5,2" d="M1692.43,-50C1727.54,-50 1770.33,-50 1803.75,-50"/>
<polygon fill="orange" stroke="orange" points="1692.28,-46.5001 1682.28,-50 1692.27,-53.5001 1692.28,-46.5001"/>
<text text-anchor="middle" x="1750" y="-53" font-family="Helvetica,sans-Serif" font-size="10.00"> &lt; FillSize &gt;</text>
</g>
<!-- Node19&#45;&gt;Node3 -->
<g id="edge23" class="edge"><title>Node19&#45;&gt;Node3</title>
<path fill="none" stroke="orange" stroke-dasharray="5,2" d="M2223.47,-48.9655C2268.3,-50.0898 2324.98,-54.3917 2374,-67 2390.76,-71.3104 2408.07,-77.8622 2424.15,-84.9584"/>
<polygon fill="orange" stroke="orange" points="2223.28,-45.4612 2213.22,-48.7581 2223.14,-52.4597 2223.28,-45.4612"/>
<text text-anchor="start" x="2231" y="-125" font-family="Helvetica,sans-Serif" font-size="10.00"> &lt; mng_local::block</text>
<text text-anchor="start" x="2231" y="-114" font-family="Helvetica,sans-Serif" font-size="10.00">_w_info&lt; Type, RawSize,</text>
<text text-anchor="start" x="2231" y="-103" font-family="Helvetica,sans-Serif" font-size="10.00"> NRef, MetaInfoType &gt;,</text>
<text text-anchor="start" x="2231" y="-92" font-family="Helvetica,sans-Serif" font-size="10.00"> RawSize&#45;sizeof(mng_local</text>
<text text-anchor="start" x="2231" y="-81" font-family="Helvetica,sans-Serif" font-size="10.00">::block_w_info&lt; Type, RawSize,</text>
<text text-anchor="middle" x="2302.5" y="-70" font-family="Helvetica,sans-Serif" font-size="10.00"> NRef, MetaInfoType &gt;)&gt;</text>
</g>
<!-- Node19&#45;&gt;Node21 -->
<g id="edge28" class="edge"><title>Node19&#45;&gt;Node21</title>
<path fill="none" stroke="orange" stroke-dasharray="5,2" d="M2191.74,-31.7314C2204.32,-27.7236 2218.02,-24.0631 2231,-22 2301.23,-10.8395 2383.36,-12.8889 2436.9,-16.2055"/>
<polygon fill="orange" stroke="orange" points="2190.31,-28.5195 2181.92,-34.9962 2192.52,-35.1619 2190.31,-28.5195"/>
<text text-anchor="start" x="2248" y="-36" font-family="Helvetica,sans-Serif" font-size="10.00"> &lt; Type, RawSize&#45;sizeof</text>
<text text-anchor="middle" x="2302.5" y="-25" font-family="Helvetica,sans-Serif" font-size="10.00">(Type)&gt;</text>
</g>
<!-- Node20 -->
<g id="node20" class="node"><title>Node20</title>
<g id="a_node20"><a xlink:href="classstxxl_1_1mng__local_1_1expand__struct.html" target="_top" xlink:title="Helper to compute the size of the filler , not intended for direct use. ">
<polygon fill="none" stroke="black" points="2635,-37 2635,-67 2767,-67 2767,-37 2635,-37"/>
<text text-anchor="start" x="2643" y="-55" font-family="Helvetica,sans-Serif" font-size="10.00">stxxl::mng_local::expand</text>
<text text-anchor="middle" x="2701" y="-44" font-family="Helvetica,sans-Serif" font-size="10.00">_struct&lt; Type, RawSize &gt;</text>
</a>
</g>
</g>
<!-- Node20&#45;&gt;Node2 -->
<g id="edge25" class="edge"><title>Node20&#45;&gt;Node2</title>
<path fill="none" stroke="orange" stroke-dasharray="5,2" d="M2777.33,-51.4434C2814.21,-52.185 2859.14,-54.5988 2899,-61 2904.84,-61.9379 2910.83,-63.1029 2916.83,-64.4182"/>
<polygon fill="orange" stroke="orange" points="2777.21,-47.9411 2767.15,-51.2767 2777.09,-54.9402 2777.21,-47.9411"/>
<text text-anchor="start" x="2785" y="-97" font-family="Helvetica,sans-Serif" font-size="10.00"> &lt; mng_local::block</text>
<text text-anchor="start" x="2785" y="-86" font-family="Helvetica,sans-Serif" font-size="10.00">_w_info&lt; Type, RawSize,</text>
<text text-anchor="start" x="2785" y="-75" font-family="Helvetica,sans-Serif" font-size="10.00"> NRef, MetaInfoType &gt;,</text>
<text text-anchor="middle" x="2842" y="-64" font-family="Helvetica,sans-Serif" font-size="10.00"> RawSize &gt;</text>
</g>
<!-- Node21&#45;&gt;Node20 -->
<g id="edge26" class="edge"><title>Node21&#45;&gt;Node20</title>
<path fill="none" stroke="midnightblue" d="M2563.11,-31.198C2586.1,-34.692 2611.78,-38.5946 2634.64,-42.0672"/>
<polygon fill="midnightblue" stroke="midnightblue" points="2563.51,-27.7186 2553.1,-29.6764 2562.46,-34.6392 2563.51,-27.7186"/>
</g>
</g>
</svg>
