<?xml version="1.0" encoding="UTF-8" standalone="no"?>
<!DOCTYPE svg PUBLIC "-//W3C//DTD SVG 1.1//EN"
 "http://www.w3.org/Graphics/SVG/1.1/DTD/svg11.dtd">
<!-- Generated by graphviz version 2.38.0 (20140413.2041)
 -->
<!-- Title: stxxl::hash_map::hash_map_iterator_base&lt; HashMap &gt; Pages: 1 -->
<svg width="342pt" height="99pt"
 viewBox="0.00 0.00 342.00 98.50" xmlns="http://www.w3.org/2000/svg" xmlns:xlink="http://www.w3.org/1999/xlink">
<g id="graph0" class="graph" transform="scale(1 1) rotate(0) translate(4 94.5)">
<title>stxxl::hash_map::hash_map_iterator_base&lt; HashMap &gt;</title>
<!-- Node1 -->
<g id="node1" class="node"><title>Node1</title>
<polygon fill="#bfbfbf" stroke="black" points="0,-27.5 0,-57.5 162,-57.5 162,-27.5 0,-27.5"/>
<text text-anchor="start" x="8" y="-45.5" font-family="Helvetica,sans-Serif" font-size="10.00">stxxl::hash_map::hash</text>
<text text-anchor="middle" x="81" y="-34.5" font-family="Helvetica,sans-Serif" font-size="10.00">_map_iterator_base&lt; HashMap &gt;</text>
</g>
<!-- Node2 -->
<g id="node2" class="node"><title>Node2</title>
<g id="a_node2"><a xlink:href="classstxxl_1_1hash__map_1_1hash__map__const__iterator.html" target="_top" xlink:title="stxxl::hash_map::hash\l_map_const_iterator\&lt;\l HashMap \&gt;">
<polygon fill="none" stroke="black" points="208,-49 208,-90 324,-90 324,-49 208,-49"/>
<text text-anchor="start" x="216" y="-78" font-family="Helvetica,sans-Serif" font-size="10.00">stxxl::hash_map::hash</text>
<text text-anchor="start" x="216" y="-67" font-family="Helvetica,sans-Serif" font-size="10.00">_map_const_iterator&lt;</text>
<text text-anchor="middle" x="266" y="-56" font-family="Helvetica,sans-Serif" font-size="10.00"> HashMap &gt;</text>
</a>
</g>
</g>
<!-- Node1&#45;&gt;Node2 -->
<g id="edge1" class="edge"><title>Node1&#45;&gt;Node2</title>
<path fill="none" stroke="midnightblue" d="M172.207,-55.8092C184.389,-57.6066 196.602,-59.4085 207.981,-61.0874"/>
<polygon fill="midnightblue" stroke="midnightblue" points="172.404,-52.3005 162,-54.3033 171.382,-59.2255 172.404,-52.3005"/>
</g>
<!-- Node3 -->
<g id="node3" class="node"><title>Node3</title>
<g id="a_node3"><a xlink:href="classstxxl_1_1hash__map_1_1hash__map__iterator.html" target="_top" xlink:title="stxxl::hash_map::hash\l_map_iterator\&lt; HashMap \&gt;">
<polygon fill="none" stroke="black" points="198,-0.5 198,-30.5 334,-30.5 334,-0.5 198,-0.5"/>
<text text-anchor="start" x="206" y="-18.5" font-family="Helvetica,sans-Serif" font-size="10.00">stxxl::hash_map::hash</text>
<text text-anchor="middle" x="266" y="-7.5" font-family="Helvetica,sans-Serif" font-size="10.00">_map_iterator&lt; HashMap &gt;</text>
</a>
</g>
</g>
<!-- Node1&#45;&gt;Node3 -->
<g id="edge2" class="edge"><title>Node1&#45;&gt;Node3</title>
<path fill="none" stroke="midnightblue" d="M172.107,-29.2055C180.739,-27.932 189.387,-26.656 197.745,-25.4229"/>
<polygon fill="midnightblue" stroke="midnightblue" points="171.382,-25.7745 162,-30.6967 172.404,-32.6995 171.382,-25.7745"/>
</g>
</g>
</svg>
