<?xml version="1.0" encoding="UTF-8" standalone="no"?>
<!DOCTYPE svg PUBLIC "-//W3C//DTD SVG 1.1//EN"
 "http://www.w3.org/Graphics/SVG/1.1/DTD/svg11.dtd">
<!-- Generated by graphviz version 2.38.0 (20140413.2041)
 -->
<!-- Title: stxxl::ppq_local::minima_tree&lt; ParentType &gt; Pages: 1 -->
<svg width="1577pt" height="331pt"
 viewBox="0.00 0.00 1577.00 331.00" xmlns="http://www.w3.org/2000/svg" xmlns:xlink="http://www.w3.org/1999/xlink">
<g id="graph0" class="graph" transform="scale(1 1) rotate(0) translate(4 327)">
<title>stxxl::ppq_local::minima_tree&lt; ParentType &gt;</title>
<!-- Node1 -->
<g id="node1" class="node"><title>Node1</title>
<polygon fill="#bfbfbf" stroke="black" points="975,-110 975,-140 1097,-140 1097,-110 975,-110"/>
<text text-anchor="start" x="983" y="-128" font-family="Helvetica,sans-Serif" font-size="10.00">stxxl::ppq_local::minima</text>
<text text-anchor="middle" x="1036" y="-117" font-family="Helvetica,sans-Serif" font-size="10.00">_tree&lt; ParentType &gt;</text>
</g>
<!-- Node8 -->
<g id="node8" class="node"><title>Node8</title>
<g id="a_node8"><a xlink:href="structstxxl_1_1ppq__local_1_1minima__tree_1_1head__comp.html" target="_top" xlink:title="WinnerTree&#45;Comparator for the head winner tree. It accesses all relevant data structures from the pri...">
<polygon fill="none" stroke="black" points="1200,-122 1200,-152 1363,-152 1363,-122 1200,-122"/>
<text text-anchor="start" x="1208" y="-140" font-family="Helvetica,sans-Serif" font-size="10.00">stxxl::ppq_local::minima</text>
<text text-anchor="middle" x="1281.5" y="-129" font-family="Helvetica,sans-Serif" font-size="10.00">_tree&lt; ParentType &gt;::head_comp</text>
</a>
</g>
</g>
<!-- Node1&#45;&gt;Node8 -->
<g id="edge11" class="edge"><title>Node1&#45;&gt;Node8</title>
<path fill="none" stroke="#9a32cd" stroke-dasharray="5,2" d="M1107.02,-124.01C1130.83,-124.065 1157.59,-124.557 1182,-126 1187.84,-126.345 1193.87,-126.793 1199.93,-127.31"/>
<polygon fill="#9a32cd" stroke="#9a32cd" points="1107.01,-120.51 1097.01,-124.012 1107.01,-127.51 1107.01,-120.51"/>
<text text-anchor="middle" x="1148.5" y="-129" font-family="Helvetica,sans-Serif" font-size="10.00"> m_parent</text>
</g>
<!-- Node2 -->
<g id="node2" class="node"><title>Node2</title>
<g id="a_node2"><a xlink:href="classstxxl_1_1winner__tree.html" target="_top" xlink:title="stxxl::winner_tree\l\&lt; stxxl::ppq_local::\lminima_tree::heaps_comp \&gt;">
<polygon fill="none" stroke="black" points="756,-206.5 756,-247.5 896,-247.5 896,-206.5 756,-206.5"/>
<text text-anchor="start" x="764" y="-235.5" font-family="Helvetica,sans-Serif" font-size="10.00">stxxl::winner_tree</text>
<text text-anchor="start" x="764" y="-224.5" font-family="Helvetica,sans-Serif" font-size="10.00">&lt; stxxl::ppq_local::</text>
<text text-anchor="middle" x="826" y="-213.5" font-family="Helvetica,sans-Serif" font-size="10.00">minima_tree::heaps_comp &gt;</text>
</a>
</g>
</g>
<!-- Node2&#45;&gt;Node1 -->
<g id="edge1" class="edge"><title>Node2&#45;&gt;Node1</title>
<path fill="none" stroke="#9a32cd" stroke-dasharray="5,2" d="M882.68,-202.212C905.821,-191.674 932.861,-179.055 957,-167 974.062,-158.479 992.895,-148.359 1007.78,-140.188"/>
<polygon fill="#9a32cd" stroke="#9a32cd" points="881.015,-199.123 873.354,-206.442 883.907,-205.498 881.015,-199.123"/>
<text text-anchor="middle" x="935.5" y="-191" font-family="Helvetica,sans-Serif" font-size="10.00"> m_heaps</text>
</g>
<!-- Node3 -->
<g id="node3" class="node"><title>Node3</title>
<g id="a_node3"><a xlink:href="structstxxl_1_1ppq__local_1_1minima__tree_1_1heaps__comp.html" target="_top" xlink:title="Comparator for the insertion heaps winner tree. ">
<polygon fill="none" stroke="black" points="440,-142 440,-172 608,-172 608,-142 440,-142"/>
<text text-anchor="start" x="448" y="-160" font-family="Helvetica,sans-Serif" font-size="10.00">stxxl::ppq_local::minima</text>
<text text-anchor="middle" x="524" y="-149" font-family="Helvetica,sans-Serif" font-size="10.00">_tree&lt; ParentType &gt;::heaps_comp</text>
</a>
</g>
</g>
<!-- Node3&#45;&gt;Node1 -->
<g id="edge7" class="edge"><title>Node3&#45;&gt;Node1</title>
<path fill="none" stroke="#9a32cd" stroke-dasharray="5,2" d="M618.286,-145.677C620.884,-145.438 623.459,-145.212 626,-145 772.772,-132.749 809.899,-136.327 957,-129 962.823,-128.71 968.891,-128.404 974.957,-128.097"/>
<polygon fill="#9a32cd" stroke="#9a32cd" points="617.797,-142.207 608.179,-146.65 618.468,-149.175 617.797,-142.207"/>
<text text-anchor="middle" x="826" y="-140" font-family="Helvetica,sans-Serif" font-size="10.00"> m_heaps_comp</text>
</g>
<!-- Node3&#45;&gt;Node2 -->
<g id="edge2" class="edge"><title>Node3&#45;&gt;Node2</title>
<path fill="none" stroke="#9a32cd" stroke-dasharray="5,2" d="M618.255,-148.339C656.304,-147.786 700.163,-151.048 738,-164 763.407,-172.697 787.758,-191.543 804.203,-206.369"/>
<polygon fill="#9a32cd" stroke="#9a32cd" points="618.117,-144.842 608.202,-148.575 618.281,-151.84 618.117,-144.842"/>
<text text-anchor="middle" x="682" y="-167" font-family="Helvetica,sans-Serif" font-size="10.00"> m_less</text>
</g>
<!-- Node4 -->
<g id="node4" class="node"><title>Node4</title>
<g id="a_node4"><a xlink:href="structstxxl_1_1winner__tree_1_1stats__type.html" target="_top" xlink:title="Collection of stats from the winner_tree. ">
<polygon fill="none" stroke="black" points="228,-128 228,-158 365,-158 365,-128 228,-128"/>
<text text-anchor="start" x="236" y="-146" font-family="Helvetica,sans-Serif" font-size="10.00">stxxl::winner_tree</text>
<text text-anchor="middle" x="296.5" y="-135" font-family="Helvetica,sans-Serif" font-size="10.00">&lt; Comparator &gt;::stats_type</text>
</a>
</g>
</g>
<!-- Node4&#45;&gt;Node2 -->
<g id="edge3" class="edge"><title>Node4&#45;&gt;Node2</title>
<path fill="none" stroke="#9a32cd" stroke-dasharray="5,2" d="M319.474,-165.391C345.607,-190.425 391.789,-229.83 440,-248 564.113,-294.776 608.037,-290.488 738,-264 754.244,-260.689 771.212,-254.232 785.805,-247.626"/>
<polygon fill="#9a32cd" stroke="#9a32cd" points="321.628,-162.603 312.027,-158.123 316.739,-167.613 321.628,-162.603"/>
<text text-anchor="middle" x="524" y="-287" font-family="Helvetica,sans-Serif" font-size="10.00"> m_stats</text>
</g>
<!-- Node6 -->
<g id="node6" class="node"><title>Node6</title>
<g id="a_node6"><a xlink:href="classstxxl_1_1winner__tree.html" target="_top" xlink:title="The class winner_tree is a binary tournament tree. ">
<polygon fill="none" stroke="black" points="477,-209 477,-239 571,-239 571,-209 477,-209"/>
<text text-anchor="start" x="485" y="-227" font-family="Helvetica,sans-Serif" font-size="10.00">stxxl::winner_tree</text>
<text text-anchor="middle" x="524" y="-216" font-family="Helvetica,sans-Serif" font-size="10.00">&lt; Comparator &gt;</text>
</a>
</g>
</g>
<!-- Node4&#45;&gt;Node6 -->
<g id="edge6" class="edge"><title>Node4&#45;&gt;Node6</title>
<path fill="none" stroke="#9a32cd" stroke-dasharray="5,2" d="M348.95,-161.481C388.901,-175.832 443.607,-195.482 480.956,-208.898"/>
<polygon fill="#9a32cd" stroke="#9a32cd" points="349.981,-158.132 339.386,-158.046 347.614,-164.72 349.981,-158.132"/>
<text text-anchor="middle" x="402.5" y="-189" font-family="Helvetica,sans-Serif" font-size="10.00"> m_stats</text>
</g>
<!-- Node7 -->
<g id="node7" class="node"><title>Node7</title>
<g id="a_node7"><a xlink:href="classstxxl_1_1winner__tree.html" target="_top" xlink:title="stxxl::winner_tree\l\&lt; stxxl::ppq_local::\lminima_tree::head_comp \&gt;">
<polygon fill="none" stroke="black" points="1434,-90.5 1434,-131.5 1569,-131.5 1569,-90.5 1434,-90.5"/>
<text text-anchor="start" x="1442" y="-119.5" font-family="Helvetica,sans-Serif" font-size="10.00">stxxl::winner_tree</text>
<text text-anchor="start" x="1442" y="-108.5" font-family="Helvetica,sans-Serif" font-size="10.00">&lt; stxxl::ppq_local::</text>
<text text-anchor="middle" x="1501.5" y="-97.5" font-family="Helvetica,sans-Serif" font-size="10.00">minima_tree::head_comp &gt;</text>
</a>
</g>
</g>
<!-- Node4&#45;&gt;Node7 -->
<g id="edge9" class="edge"><title>Node4&#45;&gt;Node7</title>
<path fill="none" stroke="#9a32cd" stroke-dasharray="5,2" d="M316.426,-120.227C352.237,-79.8682 434.309,-0 523,-0 523,-0 523,-0 1282.5,-0 1361.28,-0 1440.36,-58.2815 1477.93,-90.3819"/>
<polygon fill="#9a32cd" stroke="#9a32cd" points="313.617,-118.124 309.696,-127.967 318.899,-122.717 313.617,-118.124"/>
<text text-anchor="middle" x="935.5" y="-3" font-family="Helvetica,sans-Serif" font-size="10.00"> m_stats</text>
</g>
<!-- Node9 -->
<g id="node9" class="node"><title>Node9</title>
<g id="a_node9"><a xlink:href="classstxxl_1_1winner__tree.html" target="_top" xlink:title="stxxl::winner_tree\l\&lt; stxxl::ppq_local::\lminima_tree::ia_comp \&gt;">
<polygon fill="none" stroke="black" points="765,-75.5 765,-116.5 887,-116.5 887,-75.5 765,-75.5"/>
<text text-anchor="start" x="773" y="-104.5" font-family="Helvetica,sans-Serif" font-size="10.00">stxxl::winner_tree</text>
<text text-anchor="start" x="773" y="-93.5" font-family="Helvetica,sans-Serif" font-size="10.00">&lt; stxxl::ppq_local::</text>
<text text-anchor="middle" x="826" y="-82.5" font-family="Helvetica,sans-Serif" font-size="10.00">minima_tree::ia_comp &gt;</text>
</a>
</g>
</g>
<!-- Node4&#45;&gt;Node9 -->
<g id="edge14" class="edge"><title>Node4&#45;&gt;Node9</title>
<path fill="none" stroke="#9a32cd" stroke-dasharray="5,2" d="M375.252,-129.724C396.222,-126.491 418.936,-123.305 440,-121 554.524,-108.466 688.951,-101.489 764.839,-98.2601"/>
<polygon fill="#9a32cd" stroke="#9a32cd" points="374.451,-126.307 365.112,-131.311 375.533,-133.222 374.451,-126.307"/>
<text text-anchor="middle" x="524" y="-124" font-family="Helvetica,sans-Serif" font-size="10.00"> m_stats</text>
</g>
<!-- Node5 -->
<g id="node5" class="node"><title>Node5</title>
<g id="a_node5"><a xlink:href="classstxxl_1_1fake__timer.html" target="_top" xlink:title="Class fake_timer is a drop&#45;in replacement for timer, which does nothing. ">
<polygon fill="none" stroke="black" points="0,-133.5 0,-152.5 89,-152.5 89,-133.5 0,-133.5"/>
<text text-anchor="middle" x="44.5" y="-140.5" font-family="Helvetica,sans-Serif" font-size="10.00">stxxl::fake_timer</text>
</a>
</g>
</g>
<!-- Node5&#45;&gt;Node4 -->
<g id="edge4" class="edge"><title>Node5&#45;&gt;Node4</title>
<path fill="none" stroke="#9a32cd" stroke-dasharray="5,2" d="M99.3108,-143C136.987,-143 187.606,-143 227.991,-143"/>
<polygon fill="#9a32cd" stroke="#9a32cd" points="99.0467,-139.5 89.0467,-143 99.0466,-146.5 99.0467,-139.5"/>
<text text-anchor="middle" x="158.5" y="-168" font-family="Helvetica,sans-Serif" font-size="10.00"> remove_player_time</text>
<text text-anchor="middle" x="158.5" y="-157" font-family="Helvetica,sans-Serif" font-size="10.00">replay_time</text>
<text text-anchor="middle" x="158.5" y="-146" font-family="Helvetica,sans-Serif" font-size="10.00">double_num_slots_time</text>
</g>
<!-- Node6&#45;&gt;Node2 -->
<g id="edge5" class="edge"><title>Node6&#45;&gt;Node2</title>
<path fill="none" stroke="orange" stroke-dasharray="5,2" d="M581.414,-224.564C630.875,-225.059 702.944,-225.779 755.862,-226.309"/>
<polygon fill="orange" stroke="orange" points="581.252,-221.062 571.218,-224.462 581.182,-228.062 581.252,-221.062"/>
<text text-anchor="start" x="636" y="-252" font-family="Helvetica,sans-Serif" font-size="10.00"> &lt; stxxl::ppq_local</text>
<text text-anchor="start" x="636" y="-241" font-family="Helvetica,sans-Serif" font-size="10.00">::minima_tree::heaps</text>
<text text-anchor="middle" x="682" y="-230" font-family="Helvetica,sans-Serif" font-size="10.00">_comp &gt;</text>
</g>
<!-- Node6&#45;&gt;Node7 -->
<g id="edge12" class="edge"><title>Node6&#45;&gt;Node7</title>
<path fill="none" stroke="orange" stroke-dasharray="5,2" d="M581.029,-232.609C590.422,-235.403 599.777,-239.102 608,-244 618.274,-250.12 615.415,-258.436 626,-264 704.953,-305.501 735.804,-290 825,-290 825,-290 825,-290 1282.5,-290 1381.42,-290 1459.96,-178.551 1488.7,-131.534"/>
<polygon fill="orange" stroke="orange" points="581.837,-229.202 571.273,-230.013 580.037,-235.966 581.837,-229.202"/>
<text text-anchor="start" x="992.5" y="-315" font-family="Helvetica,sans-Serif" font-size="10.00"> &lt; stxxl::ppq_local</text>
<text text-anchor="start" x="992.5" y="-304" font-family="Helvetica,sans-Serif" font-size="10.00">::minima_tree::head</text>
<text text-anchor="middle" x="1036" y="-293" font-family="Helvetica,sans-Serif" font-size="10.00">_comp &gt;</text>
</g>
<!-- Node6&#45;&gt;Node9 -->
<g id="edge16" class="edge"><title>Node6&#45;&gt;Node9</title>
<path fill="none" stroke="orange" stroke-dasharray="5,2" d="M581.128,-210.518C595.729,-207.051 611.445,-203.354 626,-200 675.701,-188.549 699.025,-207.898 738,-175 754.146,-161.372 741.678,-146.534 756,-131 761.099,-125.47 767.269,-120.684 773.797,-116.582"/>
<polygon fill="orange" stroke="orange" points="580.145,-207.155 571.227,-212.875 581.766,-213.964 580.145,-207.155"/>
<text text-anchor="start" x="626" y="-214" font-family="Helvetica,sans-Serif" font-size="10.00"> &lt; stxxl::ppq_local</text>
<text text-anchor="middle" x="682" y="-203" font-family="Helvetica,sans-Serif" font-size="10.00">::minima_tree::ia_comp &gt;</text>
</g>
<!-- Node7&#45;&gt;Node1 -->
<g id="edge8" class="edge"><title>Node7&#45;&gt;Node1</title>
<path fill="none" stroke="#9a32cd" stroke-dasharray="5,2" d="M1423.59,-104.417C1403.86,-103 1382.66,-101.714 1363,-101 1290.6,-98.3709 1272.25,-95.7094 1200,-101 1165.77,-103.507 1127.81,-108.937 1097.15,-113.999"/>
<polygon fill="#9a32cd" stroke="#9a32cd" points="1423.53,-107.922 1433.76,-105.168 1424.05,-100.941 1423.53,-107.922"/>
<text text-anchor="middle" x="1281.5" y="-104" font-family="Helvetica,sans-Serif" font-size="10.00"> m_head</text>
</g>
<!-- Node8&#45;&gt;Node1 -->
<g id="edge18" class="edge"><title>Node8&#45;&gt;Node1</title>
<path fill="none" stroke="#9a32cd" stroke-dasharray="5,2" d="M1189.35,-139.492C1165.16,-139.473 1139.07,-138.84 1115,-137 1109.26,-136.561 1103.31,-135.943 1097.36,-135.217"/>
<polygon fill="#9a32cd" stroke="#9a32cd" points="1189.6,-142.992 1199.6,-139.465 1189.59,-135.992 1189.6,-142.992"/>
<text text-anchor="middle" x="1148.5" y="-143" font-family="Helvetica,sans-Serif" font-size="10.00"> m_head_comp</text>
</g>
<!-- Node8&#45;&gt;Node7 -->
<g id="edge10" class="edge"><title>Node8&#45;&gt;Node7</title>
<path fill="none" stroke="#9a32cd" stroke-dasharray="5,2" d="M1373.26,-126.176C1393.55,-123.755 1414.72,-121.23 1433.83,-118.951"/>
<polygon fill="#9a32cd" stroke="#9a32cd" points="1372.57,-122.733 1363.06,-127.392 1373.4,-129.683 1372.57,-122.733"/>
<text text-anchor="middle" x="1398.5" y="-128" font-family="Helvetica,sans-Serif" font-size="10.00"> m_less</text>
</g>
<!-- Node9&#45;&gt;Node1 -->
<g id="edge13" class="edge"><title>Node9&#45;&gt;Node1</title>
<path fill="none" stroke="#9a32cd" stroke-dasharray="5,2" d="M897.391,-105.814C922.588,-109.327 950.734,-113.251 974.973,-116.631"/>
<polygon fill="#9a32cd" stroke="#9a32cd" points="897.55,-102.302 887.162,-104.388 896.583,-109.235 897.55,-102.302"/>
<text text-anchor="middle" x="935.5" y="-117" font-family="Helvetica,sans-Serif" font-size="10.00"> m_ia</text>
</g>
<!-- Node10 -->
<g id="node10" class="node"><title>Node10</title>
<g id="a_node10"><a xlink:href="structstxxl_1_1ppq__local_1_1minima__tree_1_1ia__comp.html" target="_top" xlink:title="Comparator for the internal arrays winner tree. ">
<polygon fill="none" stroke="black" points="449.5,-35 449.5,-65 598.5,-65 598.5,-35 449.5,-35"/>
<text text-anchor="start" x="457.5" y="-53" font-family="Helvetica,sans-Serif" font-size="10.00">stxxl::ppq_local::minima</text>
<text text-anchor="middle" x="524" y="-42" font-family="Helvetica,sans-Serif" font-size="10.00">_tree&lt; ParentType &gt;::ia_comp</text>
</a>
</g>
</g>
<!-- Node10&#45;&gt;Node1 -->
<g id="edge17" class="edge"><title>Node10&#45;&gt;Node1</title>
<path fill="none" stroke="#9a32cd" stroke-dasharray="5,2" d="M608.746,-40.5284C684.837,-34.4035 799.592,-31.4075 896,-55 940.091,-65.7898 986.175,-92.5645 1012.65,-109.697"/>
<polygon fill="#9a32cd" stroke="#9a32cd" points="608.407,-37.0444 598.736,-41.3702 608.994,-44.0198 608.407,-37.0444"/>
<text text-anchor="middle" x="826" y="-58" font-family="Helvetica,sans-Serif" font-size="10.00"> m_ia_comp</text>
</g>
<!-- Node10&#45;&gt;Node9 -->
<g id="edge15" class="edge"><title>Node10&#45;&gt;Node9</title>
<path fill="none" stroke="#9a32cd" stroke-dasharray="5,2" d="M608.629,-60.953C647.95,-66.3142 695.443,-73.0929 738,-80 746.641,-81.4024 755.747,-82.9735 764.682,-84.5687"/>
<polygon fill="#9a32cd" stroke="#9a32cd" points="608.935,-57.4625 598.555,-59.586 607.994,-64.3989 608.935,-57.4625"/>
<text text-anchor="middle" x="682" y="-83" font-family="Helvetica,sans-Serif" font-size="10.00"> m_less</text>
</g>
</g>
</svg>
