<?xml version="1.0" encoding="UTF-8" standalone="no"?>
<!DOCTYPE svg PUBLIC "-//W3C//DTD SVG 1.1//EN"
 "http://www.w3.org/Graphics/SVG/1.1/DTD/svg11.dtd">
<!-- Generated by graphviz version 2.26.3 (20100126.1600)
 -->
<!-- Title: stxxl::simple_vector&lt; ValueType &gt; Pages: 1 -->
<svg width="920pt" height="306pt"
 viewBox="0.00 0.00 920.00 306.00" xmlns="http://www.w3.org/2000/svg" xmlns:xlink="http://www.w3.org/1999/xlink">
<g id="graph1" class="graph" transform="scale(1 1) rotate(0) translate(4 302)">
<title>stxxl::simple_vector&lt; ValueType &gt;</title>
<!-- Node1 -->
<g id="node1" class="node"><title>Node1</title>
<polygon fill="#bfbfbf" stroke="black" points="136,-130 136,-164 240,-164 240,-130 136,-130"/>
<text text-anchor="start" x="144" y="-151" font-family="Helvetica,sans-Serif" font-size="10.00">stxxl::simple_vector</text>
<text text-anchor="middle" x="188" y="-138" font-family="Helvetica,sans-Serif" font-size="10.00">&lt; ValueType &gt;</text>
</g>
<!-- Node3 -->
<g id="node5" class="node"><title>Node3</title>
<a xlink:href="classstxxl_1_1simple__vector.html" target="_top" xlink:title="stxxl::simple_vector\l\&lt; BID\&lt; BLK_SIZE \&gt; \&gt;">
<polygon fill="none" stroke="black" points="380,-260 380,-294 496,-294 496,-260 380,-260"/>
<text text-anchor="start" x="388" y="-281" font-family="Helvetica,sans-Serif" font-size="10.00">stxxl::simple_vector</text>
<text text-anchor="middle" x="438" y="-268" font-family="Helvetica,sans-Serif" font-size="10.00">&lt; BID&lt; BLK_SIZE &gt; &gt;</text>
</a>
</g>
<!-- Node1&#45;&gt;Node3 -->
<g id="edge4" class="edge"><title>Node1&#45;&gt;Node3</title>
<path fill="none" stroke="orange" stroke-dasharray="5,2" d="M204.048,-172.593C216.626,-190.62 235.698,-213.957 258,-228 294.862,-251.211 342.676,-263.558 379.759,-270.05"/>
<polygon fill="orange" stroke="orange" points="206.903,-170.567 198.41,-164.234 201.1,-174.482 206.903,-170.567"/>
<text text-anchor="middle" x="310" y="-271" font-family="Helvetica,sans-Serif" font-size="10.00"> &lt; BID&lt; BLK_SIZE &gt; &gt;</text>
</g>
<!-- Node6 -->
<g id="node12" class="node"><title>Node6</title>
<a xlink:href="classstxxl_1_1simple__vector.html" target="_top" xlink:title="stxxl::simple_vector\l\&lt; bid_type \&gt;">
<polygon fill="none" stroke="black" points="386,-208 386,-242 490,-242 490,-208 386,-208"/>
<text text-anchor="start" x="394" y="-229" font-family="Helvetica,sans-Serif" font-size="10.00">stxxl::simple_vector</text>
<text text-anchor="middle" x="438" y="-216" font-family="Helvetica,sans-Serif" font-size="10.00">&lt; bid_type &gt;</text>
</a>
</g>
<!-- Node1&#45;&gt;Node6 -->
<g id="edge12" class="edge"><title>Node1&#45;&gt;Node6</title>
<path fill="none" stroke="orange" stroke-dasharray="5,2" d="M227.44,-168.689C237.234,-173.522 247.841,-178.302 258,-182 299.966,-197.275 349.427,-208.639 385.87,-215.836"/>
<polygon fill="orange" stroke="orange" points="228.841,-165.475 218.339,-164.073 225.674,-171.718 228.841,-165.475"/>
<text text-anchor="middle" x="310" y="-215" font-family="Helvetica,sans-Serif" font-size="10.00"> &lt; bid_type &gt;</text>
</g>
<!-- Node7 -->
<g id="node14" class="node"><title>Node7</title>
<a xlink:href="classstxxl_1_1simple__vector.html" target="_top" xlink:title="stxxl::simple_vector\l\&lt; stxxl::typed_block \&gt;">
<polygon fill="none" stroke="black" points="381,-156 381,-190 495,-190 495,-156 381,-156"/>
<text text-anchor="start" x="389" y="-177" font-family="Helvetica,sans-Serif" font-size="10.00">stxxl::simple_vector</text>
<text text-anchor="middle" x="438" y="-164" font-family="Helvetica,sans-Serif" font-size="10.00">&lt; stxxl::typed_block &gt;</text>
</a>
</g>
<!-- Node1&#45;&gt;Node7 -->
<g id="edge14" class="edge"><title>Node1&#45;&gt;Node7</title>
<path fill="none" stroke="orange" stroke-dasharray="5,2" d="M250.265,-153.476C290.241,-157.633 341.773,-162.992 380.731,-167.044"/>
<polygon fill="orange" stroke="orange" points="250.412,-149.972 240.104,-152.419 249.688,-156.935 250.412,-149.972"/>
<text text-anchor="middle" x="310" y="-169" font-family="Helvetica,sans-Serif" font-size="10.00"> &lt; stxxl::typed_block &gt;</text>
</g>
<!-- Node8 -->
<g id="node16" class="node"><title>Node8</title>
<a xlink:href="classstxxl_1_1simple__vector.html" target="_top" xlink:title="stxxl::simple_vector\l\&lt; list_type::iterator \&gt;">
<polygon fill="none" stroke="black" points="384.5,-104 384.5,-138 491.5,-138 491.5,-104 384.5,-104"/>
<text text-anchor="start" x="392.5" y="-125" font-family="Helvetica,sans-Serif" font-size="10.00">stxxl::simple_vector</text>
<text text-anchor="middle" x="438" y="-112" font-family="Helvetica,sans-Serif" font-size="10.00">&lt; list_type::iterator &gt;</text>
</a>
</g>
<!-- Node1&#45;&gt;Node8 -->
<g id="edge16" class="edge"><title>Node1&#45;&gt;Node8</title>
<path fill="none" stroke="orange" stroke-dasharray="5,2" d="M250.364,-138.873C252.943,-138.571 255.496,-138.279 258,-138 300.426,-133.27 348.575,-128.768 384.393,-125.587"/>
<polygon fill="orange" stroke="orange" points="249.856,-135.409 240.344,-140.074 250.689,-142.359 249.856,-135.409"/>
<text text-anchor="middle" x="310" y="-142" font-family="Helvetica,sans-Serif" font-size="10.00"> &lt; list_type::iterator &gt;</text>
</g>
<!-- Node9 -->
<g id="node18" class="node"><title>Node9</title>
<a xlink:href="classstxxl_1_1simple__vector.html" target="_top" xlink:title="stxxl::simple_vector\l\&lt; int_type \&gt;">
<polygon fill="none" stroke="black" points="386,-52 386,-86 490,-86 490,-52 386,-52"/>
<text text-anchor="start" x="394" y="-73" font-family="Helvetica,sans-Serif" font-size="10.00">stxxl::simple_vector</text>
<text text-anchor="middle" x="438" y="-60" font-family="Helvetica,sans-Serif" font-size="10.00">&lt; int_type &gt;</text>
</a>
</g>
<!-- Node1&#45;&gt;Node9 -->
<g id="edge18" class="edge"><title>Node1&#45;&gt;Node9</title>
<path fill="none" stroke="orange" stroke-dasharray="5,2" d="M226.225,-125.2C236.336,-120.033 247.393,-114.897 258,-111 299.868,-95.6164 349.336,-84.5562 385.809,-77.6598"/>
<polygon fill="orange" stroke="orange" points="224.469,-122.169 217.246,-129.919 227.726,-128.365 224.469,-122.169"/>
<text text-anchor="middle" x="310" y="-115" font-family="Helvetica,sans-Serif" font-size="10.00"> &lt; int_type &gt;</text>
</g>
<!-- Node10 -->
<g id="node20" class="node"><title>Node10</title>
<a xlink:href="classstxxl_1_1simple__vector.html" target="_top" xlink:title="stxxl::simple_vector\l\&lt; stxxl::counting_ptr \&gt;">
<polygon fill="none" stroke="black" points="380.5,-0 380.5,-34 495.5,-34 495.5,-0 380.5,-0"/>
<text text-anchor="start" x="388.5" y="-21" font-family="Helvetica,sans-Serif" font-size="10.00">stxxl::simple_vector</text>
<text text-anchor="middle" x="438" y="-8" font-family="Helvetica,sans-Serif" font-size="10.00">&lt; stxxl::counting_ptr &gt;</text>
</a>
</g>
<!-- Node1&#45;&gt;Node10 -->
<g id="edge20" class="edge"><title>Node1&#45;&gt;Node10</title>
<path fill="none" stroke="orange" stroke-dasharray="5,2" d="M204.048,-121.407C216.626,-103.38 235.698,-80.0427 258,-66 294.999,-42.7029 343.032,-30.3505 380.173,-23.8783"/>
<polygon fill="orange" stroke="orange" points="201.1,-119.518 198.41,-129.766 206.903,-123.433 201.1,-119.518"/>
<text text-anchor="middle" x="310" y="-70" font-family="Helvetica,sans-Serif" font-size="10.00"> &lt; stxxl::counting_ptr &gt;</text>
</g>
<!-- Node2 -->
<g id="node2" class="node"><title>Node2</title>
<a xlink:href="classstxxl_1_1noncopyable.html" target="_top" xlink:title="stxxl::noncopyable">
<polygon fill="none" stroke="black" points="0,-136.5 0,-157.5 98,-157.5 98,-136.5 0,-136.5"/>
<text text-anchor="middle" x="49" y="-144.5" font-family="Helvetica,sans-Serif" font-size="10.00">stxxl::noncopyable</text>
</a>
</g>
<!-- Node2&#45;&gt;Node1 -->
<g id="edge2" class="edge"><title>Node2&#45;&gt;Node1</title>
<path fill="none" stroke="#8b1a1a" d="M108.181,-147C117.315,-147 126.693,-147 135.664,-147"/>
<polygon fill="#8b1a1a" stroke="#8b1a1a" points="108.006,-143.5 98.0062,-147 108.006,-150.5 108.006,-143.5"/>
</g>
<!-- Node4 -->
<g id="node7" class="node"><title>Node4</title>
<a xlink:href="classstxxl_1_1BIDArray.html" target="_top" xlink:title="stxxl::BIDArray\&lt; block\l_type::raw_size \&gt;">
<polygon fill="none" stroke="black" points="796,-264 796,-298 912,-298 912,-264 796,-264"/>
<text text-anchor="start" x="804" y="-285" font-family="Helvetica,sans-Serif" font-size="10.00">stxxl::BIDArray&lt; block</text>
<text text-anchor="middle" x="854" y="-272" font-family="Helvetica,sans-Serif" font-size="10.00">_type::raw_size &gt;</text>
</a>
</g>
<!-- Node3&#45;&gt;Node4 -->
<g id="edge6" class="edge"><title>Node3&#45;&gt;Node4</title>
<path fill="none" stroke="midnightblue" d="M506.305,-280.605C574.961,-283.758 683.822,-287.477 778,-285 783.812,-284.847 789.871,-284.629 795.92,-284.372"/>
<polygon fill="midnightblue" stroke="midnightblue" points="506.21,-277.097 496.057,-280.125 505.883,-284.089 506.21,-277.097"/>
</g>
<!-- Node5 -->
<g id="node9" class="node"><title>Node5</title>
<a xlink:href="classstxxl_1_1BIDArray.html" target="_top" xlink:title="stxxl::BIDArray\&lt; BLK\l_SIZE \&gt;">
<polygon fill="none" stroke="black" points="534,-237 534,-271 646,-271 646,-237 534,-237"/>
<text text-anchor="start" x="542" y="-258" font-family="Helvetica,sans-Serif" font-size="10.00">stxxl::BIDArray&lt; BLK</text>
<text text-anchor="middle" x="590" y="-245" font-family="Helvetica,sans-Serif" font-size="10.00">_SIZE &gt;</text>
</a>
</g>
<!-- Node3&#45;&gt;Node5 -->
<g id="edge8" class="edge"><title>Node3&#45;&gt;Node5</title>
<path fill="none" stroke="midnightblue" d="M506.476,-266.638C515.54,-265.267 524.747,-263.874 533.576,-262.538"/>
<polygon fill="midnightblue" stroke="midnightblue" points="505.696,-263.217 496.332,-268.173 506.744,-270.138 505.696,-263.217"/>
</g>
<!-- Node5&#45;&gt;Node4 -->
<g id="edge10" class="edge"><title>Node5&#45;&gt;Node4</title>
<path fill="none" stroke="orange" stroke-dasharray="5,2" d="M656.749,-260.024C692.695,-263.361 737.793,-267.695 778,-272 783.813,-272.622 789.873,-273.297 795.923,-273.987"/>
<polygon fill="orange" stroke="orange" points="656.665,-256.501 646.385,-259.066 656.02,-263.472 656.665,-256.501"/>
<text text-anchor="middle" x="721" y="-276" font-family="Helvetica,sans-Serif" font-size="10.00"> &lt; block_type::raw_size &gt;</text>
</g>
</g>
</svg>
