<?xml version="1.0" encoding="UTF-8" standalone="no"?>
<!DOCTYPE svg PUBLIC "-//W3C//DTD SVG 1.1//EN"
 "http://www.w3.org/Graphics/SVG/1.1/DTD/svg11.dtd">
<!-- Generated by graphviz version 2.26.3 (20100126.1600)
 -->
<!-- Title: stxxl::priority_queue_local::ext_merger&lt; BlockType, Cmp, Arity, AllocStr &gt; Pages: 1 -->
<svg width="1514pt" height="370pt"
 viewBox="0.00 0.00 1514.00 370.00" xmlns="http://www.w3.org/2000/svg" xmlns:xlink="http://www.w3.org/1999/xlink">
<g id="graph1" class="graph" transform="scale(1 1) rotate(0) translate(4 366)">
<title>stxxl::priority_queue_local::ext_merger&lt; BlockType, Cmp, Arity, AllocStr &gt;</title>
<!-- Node1 -->
<g id="node1" class="node"><title>Node1</title>
<polygon fill="#bfbfbf" stroke="black" points="1088.5,-108.5 1088.5,-155.5 1243.5,-155.5 1243.5,-108.5 1088.5,-108.5"/>
<text text-anchor="start" x="1096.5" y="-142.5" font-family="Helvetica,sans-Serif" font-size="10.00">stxxl::priority_queue</text>
<text text-anchor="start" x="1096.5" y="-129.5" font-family="Helvetica,sans-Serif" font-size="10.00">_local::ext_merger&lt; BlockType,</text>
<text text-anchor="middle" x="1166" y="-116.5" font-family="Helvetica,sans-Serif" font-size="10.00"> Cmp, Arity, AllocStr &gt;</text>
</g>
<!-- Node12 -->
<g id="node26" class="node"><title>Node12</title>
<a xlink:href="structstxxl_1_1priority__queue__local_1_1ext__merger_1_1sequence__state.html" target="_top" xlink:title="stxxl::priority_queue\l_local::ext_merger\&lt; BlockType,\l Cmp, Arity, AllocStr \&gt;::sequence_state">
<polygon fill="none" stroke="black" points="1314.5,-108.5 1314.5,-155.5 1505.5,-155.5 1505.5,-108.5 1314.5,-108.5"/>
<text text-anchor="start" x="1322.5" y="-142.5" font-family="Helvetica,sans-Serif" font-size="10.00">stxxl::priority_queue</text>
<text text-anchor="start" x="1322.5" y="-129.5" font-family="Helvetica,sans-Serif" font-size="10.00">_local::ext_merger&lt; BlockType,</text>
<text text-anchor="middle" x="1410" y="-116.5" font-family="Helvetica,sans-Serif" font-size="10.00"> Cmp, Arity, AllocStr &gt;::sequence_state</text>
</a>
</g>
<!-- Node1&#45;&gt;Node12 -->
<g id="edge34" class="edge"><title>Node1&#45;&gt;Node12</title>
<path fill="none" stroke="#9a32cd" stroke-dasharray="5,2" d="M1253.69,-132C1273.34,-132 1294.28,-132 1314.24,-132"/>
<polygon fill="#9a32cd" stroke="#9a32cd" points="1253.54,-128.5 1243.54,-132 1253.54,-135.5 1253.54,-128.5"/>
<text text-anchor="middle" x="1279" y="-136" font-family="Helvetica,sans-Serif" font-size="10.00"> merger</text>
</g>
<!-- Node2 -->
<g id="node2" class="node"><title>Node2</title>
<a xlink:href="classstxxl_1_1noncopyable.html" target="_top" xlink:title="stxxl::noncopyable">
<polygon fill="none" stroke="black" points="307,-138.5 307,-159.5 405,-159.5 405,-138.5 307,-138.5"/>
<text text-anchor="middle" x="356" y="-146.5" font-family="Helvetica,sans-Serif" font-size="10.00">stxxl::noncopyable</text>
</a>
</g>
<!-- Node2&#45;&gt;Node1 -->
<g id="edge2" class="edge"><title>Node2&#45;&gt;Node1</title>
<path fill="none" stroke="#8b1a1a" d="M378.535,-132.408C410.365,-110.111 471.188,-71.5909 530,-57 592.369,-41.5264 918.891,-55.6456 984,-68 1028.59,-76.4606 1076.96,-93.8948 1112.63,-108.433"/>
<polygon fill="#8b1a1a" stroke="#8b1a1a" points="376.469,-129.583 370.353,-138.234 380.529,-135.286 376.469,-129.583"/>
</g>
<!-- Node3 -->
<g id="node4" class="node"><title>Node3</title>
<a xlink:href="classstxxl_1_1read__write__pool.html" target="_top" xlink:title="Implements dynamically resizable buffered writing and prefetched reading pool. ">
<polygon fill="none" stroke="black" points="852,-155 852,-189 964,-189 964,-155 852,-155"/>
<text text-anchor="start" x="860" y="-176" font-family="Helvetica,sans-Serif" font-size="10.00">stxxl::read_write_pool</text>
<text text-anchor="middle" x="908" y="-163" font-family="Helvetica,sans-Serif" font-size="10.00">&lt; BlockType &gt;</text>
</a>
</g>
<!-- Node2&#45;&gt;Node3 -->
<g id="edge6" class="edge"><title>Node2&#45;&gt;Node3</title>
<path fill="none" stroke="#8b1a1a" d="M415.024,-159.936C421.421,-161.019 427.841,-162.063 434,-163 601.135,-188.427 645.094,-187.175 814,-180 826.273,-179.479 839.423,-178.576 851.882,-177.561"/>
<polygon fill="#8b1a1a" stroke="#8b1a1a" points="415.482,-156.464 405.032,-158.212 414.291,-163.362 415.482,-156.464"/>
</g>
<!-- Node4 -->
<g id="node7" class="node"><title>Node4</title>
<a xlink:href="classstxxl_1_1prefetch__pool.html" target="_top" xlink:title="Implements dynamically resizable prefetching pool. ">
<polygon fill="none" stroke="black" points="557,-222 557,-256 659,-256 659,-222 557,-222"/>
<text text-anchor="start" x="565" y="-243" font-family="Helvetica,sans-Serif" font-size="10.00">stxxl::prefetch_pool</text>
<text text-anchor="middle" x="608" y="-230" font-family="Helvetica,sans-Serif" font-size="10.00">&lt; BlockType &gt;</text>
</a>
</g>
<!-- Node2&#45;&gt;Node4 -->
<g id="edge10" class="edge"><title>Node2&#45;&gt;Node4</title>
<path fill="none" stroke="#8b1a1a" d="M381.11,-164.866C396.038,-173.778 415.596,-184.567 434,-192 474.04,-208.17 521.474,-220.564 556.695,-228.555"/>
<polygon fill="#8b1a1a" stroke="#8b1a1a" points="382.828,-161.814 372.465,-159.607 379.189,-167.795 382.828,-161.814"/>
</g>
<!-- Node9 -->
<g id="node18" class="node"><title>Node9</title>
<a xlink:href="classstxxl_1_1write__pool.html" target="_top" xlink:title="Implements dynamically resizable buffered writing pool. ">
<polygon fill="none" stroke="black" points="561,-132 561,-166 655,-166 655,-132 561,-132"/>
<text text-anchor="start" x="569" y="-153" font-family="Helvetica,sans-Serif" font-size="10.00">stxxl::write_pool&lt;</text>
<text text-anchor="middle" x="608" y="-140" font-family="Helvetica,sans-Serif" font-size="10.00"> BlockType &gt;</text>
</a>
</g>
<!-- Node2&#45;&gt;Node9 -->
<g id="edge22" class="edge"><title>Node2&#45;&gt;Node9</title>
<path fill="none" stroke="#8b1a1a" d="M415.252,-149C459.601,-149 519.461,-149 560.645,-149"/>
<polygon fill="#8b1a1a" stroke="#8b1a1a" points="415.186,-145.5 405.186,-149 415.186,-152.5 415.186,-145.5"/>
</g>
<!-- Node2&#45;&gt;Node12 -->
<g id="edge32" class="edge"><title>Node2&#45;&gt;Node12</title>
<path fill="none" stroke="#8b1a1a" d="M368.102,-129.775C381.791,-109.493 405.875,-77.9051 434,-59 501.771,-13.4459 526.342,-0 608,-0 608,-0 608,-0 1166,-0 1256.06,-0 1344.74,-70.4332 1386.01,-108.401"/>
<polygon fill="#8b1a1a" stroke="#8b1a1a" points="365.126,-127.931 362.567,-138.213 370.979,-131.771 365.126,-127.931"/>
</g>
<!-- Node3&#45;&gt;Node1 -->
<g id="edge4" class="edge"><title>Node3&#45;&gt;Node1</title>
<path fill="none" stroke="#9a32cd" stroke-dasharray="5,2" d="M974.354,-161.713C1009.14,-156.319 1051.96,-149.681 1088.29,-144.048"/>
<polygon fill="#9a32cd" stroke="#9a32cd" points="973.646,-158.28 964.3,-163.271 974.719,-165.198 973.646,-158.28"/>
<text text-anchor="middle" x="1036" y="-160" font-family="Helvetica,sans-Serif" font-size="10.00"> pool</text>
</g>
<!-- Node4&#45;&gt;Node3 -->
<g id="edge8" class="edge"><title>Node4&#45;&gt;Node3</title>
<path fill="none" stroke="#9a32cd" stroke-dasharray="5,2" d="M669.605,-233.255C710.915,-228.546 766.283,-220.569 814,-208 832.42,-203.148 852.195,-195.901 868.833,-189.179"/>
<polygon fill="#9a32cd" stroke="#9a32cd" points="668.973,-229.804 659.419,-234.383 669.743,-236.761 668.973,-229.804"/>
<text text-anchor="middle" x="759" y="-232" font-family="Helvetica,sans-Serif" font-size="10.00"> p_pool</text>
</g>
<!-- Node5 -->
<g id="node10" class="node"><title>Node5</title>
<a xlink:href="structstxxl_1_1choose__int__types.html" target="_top" xlink:title="stxxl::choose_int_types\l\&lt; my_pointer_size \&gt;">
<polygon fill="none" stroke="black" points="296,-286 296,-320 416,-320 416,-286 296,-286"/>
<text text-anchor="start" x="304" y="-307" font-family="Helvetica,sans-Serif" font-size="10.00">stxxl::choose_int_types</text>
<text text-anchor="middle" x="356" y="-294" font-family="Helvetica,sans-Serif" font-size="10.00">&lt; my_pointer_size &gt;</text>
</a>
</g>
<!-- Node5&#45;&gt;Node1 -->
<g id="edge28" class="edge"><title>Node5&#45;&gt;Node1</title>
<path fill="none" stroke="#9a32cd" stroke-dasharray="5,2" d="M426.16,-297.418C453.038,-295.093 483.97,-292.189 512,-289 646.77,-273.667 681.408,-273.589 814,-245 890.629,-228.478 908.584,-219.386 984,-198 1022.29,-187.141 1032.52,-186.397 1070,-173 1084.51,-167.815 1099.96,-161.554 1114.14,-155.502"/>
<polygon fill="#9a32cd" stroke="#9a32cd" points="425.737,-293.942 416.072,-298.281 426.334,-300.916 425.737,-293.942"/>
<text text-anchor="middle" x="759" y="-282" font-family="Helvetica,sans-Serif" font-size="10.00"> k</text>
<text text-anchor="middle" x="759" y="-269" font-family="Helvetica,sans-Serif" font-size="10.00">log_k</text>
</g>
<!-- Node5&#45;&gt;Node4 -->
<g id="edge12" class="edge"><title>Node5&#45;&gt;Node4</title>
<path fill="none" stroke="#9a32cd" stroke-dasharray="5,2" d="M412.163,-282.634C419.466,-280.259 426.882,-277.981 434,-276 474.911,-264.617 522.071,-254.787 556.965,-248.127"/>
<polygon fill="#9a32cd" stroke="#9a32cd" points="410.692,-279.435 402.31,-285.915 412.904,-286.076 410.692,-279.435"/>
<text text-anchor="middle" x="473" y="-280" font-family="Helvetica,sans-Serif" font-size="10.00"> free_blocks_size</text>
</g>
<!-- Node5&#45;&gt;Node12 -->
<g id="edge36" class="edge"><title>Node5&#45;&gt;Node12</title>
<path fill="none" stroke="#9a32cd" stroke-dasharray="5,2" d="M425.059,-322.546C475.355,-335.073 545.356,-349 608,-349 608,-349 608,-349 1166,-349 1281.36,-349 1367.5,-211.878 1397.98,-155.636"/>
<polygon fill="#9a32cd" stroke="#9a32cd" points="425.824,-319.129 415.271,-320.063 424.103,-325.914 425.824,-319.129"/>
<text text-anchor="middle" x="908" y="-353" font-family="Helvetica,sans-Serif" font-size="10.00"> current</text>
</g>
<!-- Node6 -->
<g id="node12" class="node"><title>Node6</title>
<a xlink:href="structstxxl_1_1choose__int__types.html" target="_top" xlink:title="stxxl::choose_int_types\l\&lt; PtrSize \&gt;">
<polygon fill="none" stroke="black" points="17,-286 17,-320 137,-320 137,-286 17,-286"/>
<text text-anchor="start" x="25" y="-307" font-family="Helvetica,sans-Serif" font-size="10.00">stxxl::choose_int_types</text>
<text text-anchor="middle" x="77" y="-294" font-family="Helvetica,sans-Serif" font-size="10.00">&lt; PtrSize &gt;</text>
</a>
</g>
<!-- Node6&#45;&gt;Node5 -->
<g id="edge14" class="edge"><title>Node6&#45;&gt;Node5</title>
<path fill="none" stroke="orange" stroke-dasharray="5,2" d="M147.35,-303C193.165,-303 252.302,-303 295.913,-303"/>
<polygon fill="orange" stroke="orange" points="147.195,-299.5 137.195,-303 147.195,-306.5 147.195,-299.5"/>
<text text-anchor="middle" x="225" y="-307" font-family="Helvetica,sans-Serif" font-size="10.00"> &lt; my_pointer_size &gt;</text>
</g>
<!-- Node7 -->
<g id="node14" class="node"><title>Node7</title>
<a xlink:href="structstxxl_1_1compat__hash__map.html" target="_top" xlink:title="stxxl::compat_hash\l_map\&lt; bid_type, busy\l_entry, bid_hash \&gt;">
<polygon fill="none" stroke="black" points="299.5,-215.5 299.5,-262.5 412.5,-262.5 412.5,-215.5 299.5,-215.5"/>
<text text-anchor="start" x="307.5" y="-249.5" font-family="Helvetica,sans-Serif" font-size="10.00">stxxl::compat_hash</text>
<text text-anchor="start" x="307.5" y="-236.5" font-family="Helvetica,sans-Serif" font-size="10.00">_map&lt; bid_type, busy</text>
<text text-anchor="middle" x="356" y="-223.5" font-family="Helvetica,sans-Serif" font-size="10.00">_entry, bid_hash &gt;</text>
</a>
</g>
<!-- Node7&#45;&gt;Node4 -->
<g id="edge16" class="edge"><title>Node7&#45;&gt;Node4</title>
<path fill="none" stroke="#9a32cd" stroke-dasharray="5,2" d="M422.697,-239C464.703,-239 518.101,-239 556.774,-239"/>
<polygon fill="#9a32cd" stroke="#9a32cd" points="422.554,-235.5 412.554,-239 422.554,-242.5 422.554,-235.5"/>
<text text-anchor="middle" x="473" y="-243" font-family="Helvetica,sans-Serif" font-size="10.00"> busy_blocks</text>
</g>
<!-- Node8 -->
<g id="node16" class="node"><title>Node8</title>
<a xlink:href="structstxxl_1_1compat__hash__map.html" target="_top" xlink:title="stxxl::compat_hash\l_map\&lt; KeyType, MappedType,\l HashType \&gt;">
<polygon fill="none" stroke="black" points="0,-215.5 0,-262.5 154,-262.5 154,-215.5 0,-215.5"/>
<text text-anchor="start" x="8" y="-249.5" font-family="Helvetica,sans-Serif" font-size="10.00">stxxl::compat_hash</text>
<text text-anchor="start" x="8" y="-236.5" font-family="Helvetica,sans-Serif" font-size="10.00">_map&lt; KeyType, MappedType,</text>
<text text-anchor="middle" x="77" y="-223.5" font-family="Helvetica,sans-Serif" font-size="10.00"> HashType &gt;</text>
</a>
</g>
<!-- Node8&#45;&gt;Node7 -->
<g id="edge18" class="edge"><title>Node8&#45;&gt;Node7</title>
<path fill="none" stroke="orange" stroke-dasharray="5,2" d="M164.478,-239C208.505,-239 260.6,-239 299.336,-239"/>
<polygon fill="orange" stroke="orange" points="164.347,-235.5 154.347,-239 164.347,-242.5 164.347,-235.5"/>
<text text-anchor="start" x="172" y="-256" font-family="Helvetica,sans-Serif" font-size="10.00"> &lt; bid_type, busy_entry,</text>
<text text-anchor="middle" x="225" y="-243" font-family="Helvetica,sans-Serif" font-size="10.00"> bid_hash &gt;</text>
</g>
<!-- Node9&#45;&gt;Node3 -->
<g id="edge20" class="edge"><title>Node9&#45;&gt;Node3</title>
<path fill="none" stroke="#9a32cd" stroke-dasharray="5,2" d="M665.239,-153.388C718.887,-157.501 798.596,-163.612 851.878,-167.697"/>
<polygon fill="#9a32cd" stroke="#9a32cd" points="665.443,-149.894 655.205,-152.619 664.908,-156.873 665.443,-149.894"/>
<text text-anchor="middle" x="759" y="-168" font-family="Helvetica,sans-Serif" font-size="10.00"> w_pool</text>
</g>
<!-- Node10 -->
<g id="node21" class="node"><title>Node10</title>
<a xlink:href="classstxxl_1_1priority__queue__local_1_1internal__bounded__stack.html" target="_top" xlink:title="stxxl::priority_queue\l_local::internal_bounded\l_stack\&lt; unsigned_type, arity \&gt;">
<polygon fill="none" stroke="black" points="832,-77.5 832,-124.5 984,-124.5 984,-77.5 832,-77.5"/>
<text text-anchor="start" x="840" y="-111.5" font-family="Helvetica,sans-Serif" font-size="10.00">stxxl::priority_queue</text>
<text text-anchor="start" x="840" y="-98.5" font-family="Helvetica,sans-Serif" font-size="10.00">_local::internal_bounded</text>
<text text-anchor="middle" x="908" y="-85.5" font-family="Helvetica,sans-Serif" font-size="10.00">_stack&lt; unsigned_type, arity &gt;</text>
</a>
</g>
<!-- Node10&#45;&gt;Node1 -->
<g id="edge24" class="edge"><title>Node10&#45;&gt;Node1</title>
<path fill="none" stroke="#9a32cd" stroke-dasharray="5,2" d="M994.231,-110.99C1018.72,-113.861 1045.42,-117.022 1070,-120 1076,-120.727 1082.22,-121.487 1088.46,-122.256"/>
<polygon fill="#9a32cd" stroke="#9a32cd" points="994.584,-107.508 984.245,-109.821 993.77,-114.46 994.584,-107.508"/>
<text text-anchor="middle" x="1036" y="-124" font-family="Helvetica,sans-Serif" font-size="10.00"> free_segments</text>
</g>
<!-- Node11 -->
<g id="node23" class="node"><title>Node11</title>
<a xlink:href="classstxxl_1_1priority__queue__local_1_1internal__bounded__stack.html" target="_top" xlink:title="Similar to std::stack, with the following differences: ">
<polygon fill="none" stroke="black" points="530.5,-66.5 530.5,-113.5 685.5,-113.5 685.5,-66.5 530.5,-66.5"/>
<text text-anchor="start" x="538.5" y="-100.5" font-family="Helvetica,sans-Serif" font-size="10.00">stxxl::priority_queue</text>
<text text-anchor="start" x="538.5" y="-87.5" font-family="Helvetica,sans-Serif" font-size="10.00">_local::internal_bounded</text>
<text text-anchor="middle" x="608" y="-74.5" font-family="Helvetica,sans-Serif" font-size="10.00">_stack&lt; ValueType, MaxSize &gt;</text>
</a>
</g>
<!-- Node11&#45;&gt;Node10 -->
<g id="edge26" class="edge"><title>Node11&#45;&gt;Node10</title>
<path fill="none" stroke="orange" stroke-dasharray="5,2" d="M695.858,-93.2215C739.022,-94.8041 790.525,-96.6926 831.975,-98.2124"/>
<polygon fill="orange" stroke="orange" points="695.769,-89.7159 685.648,-92.8471 695.513,-96.7112 695.769,-89.7159"/>
<text text-anchor="middle" x="759" y="-101" font-family="Helvetica,sans-Serif" font-size="10.00"> &lt; unsigned_type, arity &gt;</text>
</g>
<!-- Node12&#45;&gt;Node1 -->
<g id="edge30" class="edge"><title>Node12&#45;&gt;Node1</title>
<path fill="none" stroke="#9a32cd" stroke-dasharray="5,2" d="M1303.93,-114.608C1289.84,-113.826 1275.58,-113.807 1262,-115 1256.01,-115.526 1249.84,-116.233 1243.65,-117.061"/>
<polygon fill="#9a32cd" stroke="#9a32cd" points="1303.93,-118.116 1314.14,-115.306 1304.4,-111.132 1303.93,-118.116"/>
<text text-anchor="middle" x="1279" y="-119" font-family="Helvetica,sans-Serif" font-size="10.00"> states</text>
</g>
</g>
</svg>
