<?xml version="1.0" encoding="UTF-8" standalone="no"?>
<!DOCTYPE svg PUBLIC "-//W3C//DTD SVG 1.1//EN"
 "http://www.w3.org/Graphics/SVG/1.1/DTD/svg11.dtd">
<!-- Generated by graphviz version 2.38.0 (20140413.2041)
 -->
<!-- Title: stxxl::parallel::LoserTreePointerBase&lt; ValueType, Comparator &gt; Pages: 1 -->
<svg width="341pt" height="99pt"
 viewBox="0.00 0.00 341.00 98.50" xmlns="http://www.w3.org/2000/svg" xmlns:xlink="http://www.w3.org/1999/xlink">
<g id="graph0" class="graph" transform="scale(1 1) rotate(0) translate(4 94.5)">
<title>stxxl::parallel::LoserTreePointerBase&lt; ValueType, Comparator &gt;</title>
<!-- Node1 -->
<g id="node1" class="node"><title>Node1</title>
<polygon fill="#bfbfbf" stroke="black" points="0,-27.5 0,-68.5 128,-68.5 128,-27.5 0,-27.5"/>
<text text-anchor="start" x="8" y="-56.5" font-family="Helvetica,sans-Serif" font-size="10.00">stxxl::parallel::LoserTree</text>
<text text-anchor="start" x="8" y="-45.5" font-family="Helvetica,sans-Serif" font-size="10.00">PointerBase&lt; ValueType,</text>
<text text-anchor="middle" x="64" y="-34.5" font-family="Helvetica,sans-Serif" font-size="10.00"> Comparator &gt;</text>
</g>
<!-- Node2 -->
<g id="node2" class="node"><title>Node2</title>
<g id="a_node2"><a xlink:href="classstxxl_1_1parallel_1_1LoserTreePointer.html" target="_top" xlink:title="stxxl::parallel::LoserTree\lPointer\&lt; ValueType, Comparator \&gt;">
<polygon fill="none" stroke="black" points="164,-60 164,-90 333,-90 333,-60 164,-60"/>
<text text-anchor="start" x="172" y="-78" font-family="Helvetica,sans-Serif" font-size="10.00">stxxl::parallel::LoserTree</text>
<text text-anchor="middle" x="248.5" y="-67" font-family="Helvetica,sans-Serif" font-size="10.00">Pointer&lt; ValueType, Comparator &gt;</text>
</a>
</g>
</g>
<!-- Node1&#45;&gt;Node2 -->
<g id="edge1" class="edge"><title>Node1&#45;&gt;Node2</title>
<path fill="none" stroke="midnightblue" d="M138.215,-58.8318C146.643,-60.0787 155.284,-61.3571 163.836,-62.6223"/>
<polygon fill="midnightblue" stroke="midnightblue" points="138.466,-55.331 128.062,-57.3297 137.442,-62.2556 138.466,-55.331"/>
</g>
<!-- Node3 -->
<g id="node3" class="node"><title>Node3</title>
<g id="a_node3"><a xlink:href="classstxxl_1_1parallel_1_1LoserTreePointer_3_01true_00_01ValueType_00_01Comparator_01_4.html" target="_top" xlink:title="stxxl::parallel::LoserTree\lPointer\&lt; true, ValueType,\l Comparator \&gt;">
<polygon fill="none" stroke="black" points="184.5,-0.5 184.5,-41.5 312.5,-41.5 312.5,-0.5 184.5,-0.5"/>
<text text-anchor="start" x="192.5" y="-29.5" font-family="Helvetica,sans-Serif" font-size="10.00">stxxl::parallel::LoserTree</text>
<text text-anchor="start" x="192.5" y="-18.5" font-family="Helvetica,sans-Serif" font-size="10.00">Pointer&lt; true, ValueType,</text>
<text text-anchor="middle" x="248.5" y="-7.5" font-family="Helvetica,sans-Serif" font-size="10.00"> Comparator &gt;</text>
</a>
</g>
</g>
<!-- Node1&#45;&gt;Node3 -->
<g id="edge2" class="edge"><title>Node1&#45;&gt;Node3</title>
<path fill="none" stroke="midnightblue" d="M138.034,-37.195C153.396,-34.9222 169.476,-32.5432 184.436,-30.33"/>
<polygon fill="midnightblue" stroke="midnightblue" points="137.442,-33.7444 128.062,-38.6703 138.466,-40.669 137.442,-33.7444"/>
</g>
</g>
</svg>
