<?xml version="1.0" encoding="UTF-8" standalone="no"?>
<!DOCTYPE svg PUBLIC "-//W3C//DTD SVG 1.1//EN"
 "http://www.w3.org/Graphics/SVG/1.1/DTD/svg11.dtd">
<!-- Generated by graphviz version 2.38.0 (20140413.2041)
 -->
<!-- Title: stxxl::grow_shrink_stack2&lt; StackConfig &gt; Pages: 1 -->
<svg width="3426pt" height="405pt"
 viewBox="0.00 0.00 3426.00 405.00" xmlns="http://www.w3.org/2000/svg" xmlns:xlink="http://www.w3.org/1999/xlink">
<g id="graph0" class="graph" transform="scale(1 1) rotate(0) translate(4 401)">
<title>stxxl::grow_shrink_stack2&lt; StackConfig &gt;</title>
<!-- Node1 -->
<g id="node1" class="node"><title>Node1</title>
<polygon fill="#bfbfbf" stroke="black" points="3295,-284 3295,-314 3418,-314 3418,-284 3295,-284"/>
<text text-anchor="start" x="3303" y="-302" font-family="Helvetica,sans-Serif" font-size="10.00">stxxl::grow_shrink</text>
<text text-anchor="middle" x="3356.5" y="-291" font-family="Helvetica,sans-Serif" font-size="10.00">_stack2&lt; StackConfig &gt;</text>
</g>
<!-- Node2 -->
<g id="node2" class="node"><title>Node2</title>
<g id="a_node2"><a xlink:href="classstxxl_1_1noncopyable.html" target="_top" xlink:title="stxxl::noncopyable">
<polygon fill="none" stroke="black" points="307,-132.5 307,-151.5 405,-151.5 405,-132.5 307,-132.5"/>
<text text-anchor="middle" x="356" y="-139.5" font-family="Helvetica,sans-Serif" font-size="10.00">stxxl::noncopyable</text>
</a>
</g>
</g>
<!-- Node2&#45;&gt;Node1 -->
<g id="edge1" class="edge"><title>Node2&#45;&gt;Node1</title>
<path fill="none" stroke="#8b1a1a" d="M371.143,-124.521C403.568,-86.5684 487.55,-0 579,-0 579,-0 579,-0 3167.5,-0 3303.01,-0 3344.66,-222.831 3353.52,-283.761"/>
<polygon fill="#8b1a1a" stroke="#8b1a1a" points="368.419,-122.323 364.69,-132.24 373.789,-126.813 368.419,-122.323"/>
</g>
<!-- Node12 -->
<g id="node12" class="node"><title>Node12</title>
<g id="a_node12"><a xlink:href="classstxxl_1_1file.html" target="_top" xlink:title="Defines interface of file. ">
<polygon fill="none" stroke="black" points="1032,-94.5 1032,-113.5 1088,-113.5 1088,-94.5 1032,-94.5"/>
<text text-anchor="middle" x="1060" y="-101.5" font-family="Helvetica,sans-Serif" font-size="10.00">stxxl::file</text>
</a>
</g>
</g>
<!-- Node2&#45;&gt;Node12 -->
<g id="edge12" class="edge"><title>Node2&#45;&gt;Node12</title>
<path fill="none" stroke="#8b1a1a" d="M387.176,-128.506C420.928,-114.248 477.618,-92.7723 529,-85 691.616,-60.4021 735.028,-66.2669 899,-79 946.091,-82.6568 1000.28,-92.2807 1031.97,-98.465"/>
<polygon fill="#8b1a1a" stroke="#8b1a1a" points="385.687,-125.336 377.878,-132.497 388.448,-131.769 385.687,-125.336"/>
</g>
<!-- Node14 -->
<g id="node14" class="node"><title>Node14</title>
<g id="a_node14"><a xlink:href="classstxxl_1_1mutex.html" target="_top" xlink:title="stxxl::mutex">
<polygon fill="none" stroke="black" points="544.5,-94.5 544.5,-113.5 615.5,-113.5 615.5,-94.5 544.5,-94.5"/>
<text text-anchor="middle" x="580" y="-101.5" font-family="Helvetica,sans-Serif" font-size="10.00">stxxl::mutex</text>
</a>
</g>
</g>
<!-- Node2&#45;&gt;Node14 -->
<g id="edge15" class="edge"><title>Node2&#45;&gt;Node14</title>
<path fill="none" stroke="#8b1a1a" d="M415.03,-131.348C421.428,-130.203 427.85,-129.068 434,-128 471.71,-121.451 515.01,-114.337 544.403,-109.569"/>
<polygon fill="#8b1a1a" stroke="#8b1a1a" points="414.259,-127.93 405.037,-133.145 415.498,-134.82 414.259,-127.93"/>
</g>
<!-- Node23 -->
<g id="node23" class="node"><title>Node23</title>
<g id="a_node23"><a xlink:href="classstxxl_1_1read__write__pool.html" target="_top" xlink:title="stxxl::read_write_pool\l\&lt; block_type \&gt;">
<polygon fill="none" stroke="black" points="1004,-262 1004,-292 1116,-292 1116,-262 1004,-262"/>
<text text-anchor="start" x="1012" y="-280" font-family="Helvetica,sans-Serif" font-size="10.00">stxxl::read_write_pool</text>
<text text-anchor="middle" x="1060" y="-269" font-family="Helvetica,sans-Serif" font-size="10.00">&lt; block_type &gt;</text>
</a>
</g>
</g>
<!-- Node2&#45;&gt;Node23 -->
<g id="edge33" class="edge"><title>Node2&#45;&gt;Node23</title>
<path fill="none" stroke="#8b1a1a" d="M415.302,-141.882C470.978,-142.499 557.103,-145.358 631,-156 791.581,-179.126 833.409,-185.89 986,-241 1001.68,-246.664 1018.42,-254.755 1031.9,-261.833"/>
<polygon fill="#8b1a1a" stroke="#8b1a1a" points="415.301,-138.382 405.27,-141.792 415.238,-145.382 415.301,-138.382"/>
</g>
<!-- Node24 -->
<g id="node24" class="node"><title>Node24</title>
<g id="a_node24"><a xlink:href="classstxxl_1_1prefetch__pool.html" target="_top" xlink:title="Implements dynamically resizable prefetching pool. ">
<polygon fill="none" stroke="black" points="529,-306 529,-336 631,-336 631,-306 529,-306"/>
<text text-anchor="start" x="537" y="-324" font-family="Helvetica,sans-Serif" font-size="10.00">stxxl::prefetch_pool</text>
<text text-anchor="middle" x="580" y="-313" font-family="Helvetica,sans-Serif" font-size="10.00">&lt; BlockType &gt;</text>
</a>
</g>
</g>
<!-- Node2&#45;&gt;Node24 -->
<g id="edge35" class="edge"><title>Node2&#45;&gt;Node24</title>
<path fill="none" stroke="#8b1a1a" d="M370.404,-159.793C384.876,-178.326 409.204,-207.589 434,-229 472.161,-261.951 486.265,-264.247 529,-291 536.894,-295.942 545.572,-301.206 553.45,-305.923"/>
<polygon fill="#8b1a1a" stroke="#8b1a1a" points="373.004,-157.432 364.133,-151.639 367.455,-161.699 373.004,-157.432"/>
</g>
<!-- Node27 -->
<g id="node27" class="node"><title>Node27</title>
<g id="a_node27"><a xlink:href="classstxxl_1_1write__pool.html" target="_top" xlink:title="Implements dynamically resizable buffered writing pool. ">
<polygon fill="none" stroke="black" points="533,-218 533,-248 627,-248 627,-218 533,-218"/>
<text text-anchor="start" x="541" y="-236" font-family="Helvetica,sans-Serif" font-size="10.00">stxxl::write_pool&lt;</text>
<text text-anchor="middle" x="580" y="-225" font-family="Helvetica,sans-Serif" font-size="10.00"> BlockType &gt;</text>
</a>
</g>
</g>
<!-- Node2&#45;&gt;Node27 -->
<g id="edge40" class="edge"><title>Node2&#45;&gt;Node27</title>
<path fill="none" stroke="#8b1a1a" d="M390.604,-155.301C421.856,-167.724 469.677,-186.872 511,-204 521.789,-208.472 533.5,-213.429 544.115,-217.961"/>
<polygon fill="#8b1a1a" stroke="#8b1a1a" points="391.655,-151.952 381.069,-151.514 389.071,-158.458 391.655,-151.952"/>
</g>
<!-- Node28 -->
<g id="node28" class="node"><title>Node28</title>
<g id="a_node28"><a xlink:href="classstxxl_1_1read__write__pool.html" target="_top" xlink:title="Implements dynamically resizable buffered writing and prefetched reading pool. ">
<polygon fill="none" stroke="black" points="786.5,-262 786.5,-292 898.5,-292 898.5,-262 786.5,-262"/>
<text text-anchor="start" x="794.5" y="-280" font-family="Helvetica,sans-Serif" font-size="10.00">stxxl::read_write_pool</text>
<text text-anchor="middle" x="842.5" y="-269" font-family="Helvetica,sans-Serif" font-size="10.00">&lt; BlockType &gt;</text>
</a>
</g>
</g>
<!-- Node2&#45;&gt;Node28 -->
<g id="edge42" class="edge"><title>Node2&#45;&gt;Node28</title>
<path fill="none" stroke="#8b1a1a" d="M374.671,-158.636C389.58,-171.996 411.96,-190.524 434,-203 465.824,-221.014 481.965,-209.768 511,-232 521.871,-240.324 517.02,-250.372 529,-257 571.753,-280.654 708.534,-280.951 786.223,-279.029"/>
<polygon fill="#8b1a1a" stroke="#8b1a1a" points="376.95,-155.977 367.206,-151.816 372.228,-161.145 376.95,-155.977"/>
</g>
<!-- Node3 -->
<g id="node3" class="node"><title>Node3</title>
<g id="a_node3"><a xlink:href="structstxxl_1_1choose__int__types.html" target="_top" xlink:title="stxxl::choose_int_types\l\&lt; my_pointer_size \&gt;">
<polygon fill="none" stroke="black" points="296,-320 296,-350 416,-350 416,-320 296,-320"/>
<text text-anchor="start" x="304" y="-338" font-family="Helvetica,sans-Serif" font-size="10.00">stxxl::choose_int_types</text>
<text text-anchor="middle" x="356" y="-327" font-family="Helvetica,sans-Serif" font-size="10.00">&lt; my_pointer_size &gt;</text>
</a>
</g>
</g>
<!-- Node3&#45;&gt;Node1 -->
<g id="edge2" class="edge"><title>Node3&#45;&gt;Node1</title>
<path fill="none" stroke="#9a32cd" stroke-dasharray="5,2" d="M419.627,-352.431C463.804,-363.209 524.569,-375 579,-375 579,-375 579,-375 3167.5,-375 3231.93,-375 3300.31,-336.164 3334.07,-314.015"/>
<polygon fill="#9a32cd" stroke="#9a32cd" points="420.447,-349.028 409.898,-350.008 418.756,-355.821 420.447,-349.028"/>
<text text-anchor="middle" x="1794" y="-389" font-family="Helvetica,sans-Serif" font-size="10.00"> cache_offset</text>
<text text-anchor="middle" x="1794" y="-378" font-family="Helvetica,sans-Serif" font-size="10.00">pref_aggr</text>
</g>
<!-- Node13 -->
<g id="node13" class="node"><title>Node13</title>
<g id="a_node13"><a xlink:href="classstxxl_1_1atomic__counted__object.html" target="_top" xlink:title="Provides reference counting abilities for use with counting_ptr with mutex locking. ">
<polygon fill="none" stroke="black" points="786,-89 786,-119 899,-119 899,-89 786,-89"/>
<text text-anchor="start" x="794" y="-107" font-family="Helvetica,sans-Serif" font-size="10.00">stxxl::atomic_counted</text>
<text text-anchor="middle" x="842.5" y="-96" font-family="Helvetica,sans-Serif" font-size="10.00">_object</text>
</a>
</g>
</g>
<!-- Node3&#45;&gt;Node13 -->
<g id="edge16" class="edge"><title>Node3&#45;&gt;Node13</title>
<path fill="none" stroke="#9a32cd" stroke-dasharray="5,2" d="M426.171,-321.176C461.344,-312.765 499.135,-301.127 511,-288 538.645,-257.414 501.249,-227.49 529,-197 546.551,-177.718 700.715,-138.017 785.753,-117.277"/>
<polygon fill="#9a32cd" stroke="#9a32cd" points="425.291,-317.787 416.343,-323.461 426.876,-324.605 425.291,-317.787"/>
<text text-anchor="middle" x="580" y="-200" font-family="Helvetica,sans-Serif" font-size="10.00"> m_reference_count</text>
</g>
<!-- Node3&#45;&gt;Node24 -->
<g id="edge36" class="edge"><title>Node3&#45;&gt;Node24</title>
<path fill="none" stroke="#9a32cd" stroke-dasharray="5,2" d="M426.319,-330.629C459.578,-328.531 498.68,-326.065 528.985,-324.154"/>
<polygon fill="#9a32cd" stroke="#9a32cd" points="425.96,-327.144 416.2,-331.267 426.401,-334.13 425.96,-327.144"/>
<text text-anchor="middle" x="472.5" y="-333" font-family="Helvetica,sans-Serif" font-size="10.00"> free_blocks_size</text>
</g>
<!-- Node4 -->
<g id="node4" class="node"><title>Node4</title>
<g id="a_node4"><a xlink:href="structstxxl_1_1choose__int__types.html" target="_top" xlink:title="stxxl::choose_int_types\l\&lt; PtrSize \&gt;">
<polygon fill="none" stroke="black" points="17,-320 17,-350 137,-350 137,-320 17,-320"/>
<text text-anchor="start" x="25" y="-338" font-family="Helvetica,sans-Serif" font-size="10.00">stxxl::choose_int_types</text>
<text text-anchor="middle" x="77" y="-327" font-family="Helvetica,sans-Serif" font-size="10.00">&lt; PtrSize &gt;</text>
</a>
</g>
</g>
<!-- Node4&#45;&gt;Node3 -->
<g id="edge3" class="edge"><title>Node4&#45;&gt;Node3</title>
<path fill="none" stroke="orange" stroke-dasharray="5,2" d="M147.195,-335C192.837,-335 252.008,-335 295.53,-335"/>
<polygon fill="orange" stroke="orange" points="147.084,-331.5 137.084,-335 147.084,-338.5 147.084,-331.5"/>
<text text-anchor="middle" x="225" y="-338" font-family="Helvetica,sans-Serif" font-size="10.00"> &lt; my_pointer_size &gt;</text>
</g>
<!-- Node5 -->
<g id="node5" class="node"><title>Node5</title>
<g id="a_node5"><a xlink:href="classstxxl_1_1typed__block.html" target="_top" xlink:title="Block containing elements of fixed length. ">
<polygon fill="none" stroke="black" points="3104,-236.5 3104,-277.5 3229,-277.5 3229,-236.5 3104,-236.5"/>
<text text-anchor="start" x="3112" y="-265.5" font-family="Helvetica,sans-Serif" font-size="10.00">stxxl::typed_block</text>
<text text-anchor="start" x="3112" y="-254.5" font-family="Helvetica,sans-Serif" font-size="10.00">&lt; RawSize, Type, NRef,</text>
<text text-anchor="middle" x="3166.5" y="-243.5" font-family="Helvetica,sans-Serif" font-size="10.00"> MetaInfoType &gt;</text>
</a>
</g>
</g>
<!-- Node5&#45;&gt;Node1 -->
<g id="edge4" class="edge"><title>Node5&#45;&gt;Node1</title>
<path fill="none" stroke="#9a32cd" stroke-dasharray="5,2" d="M3238.86,-272.941C3257.28,-277.057 3276.94,-281.449 3294.77,-285.432"/>
<polygon fill="#9a32cd" stroke="#9a32cd" points="3239.58,-269.517 3229.06,-270.752 3238.05,-276.349 3239.58,-269.517"/>
<text text-anchor="middle" x="3262" y="-284" font-family="Helvetica,sans-Serif" font-size="10.00"> cache</text>
</g>
<!-- Node6 -->
<g id="node6" class="node"><title>Node6</title>
<g id="a_node6"><a xlink:href="classstxxl_1_1mng__local_1_1expand__struct.html" target="_top" xlink:title="stxxl::mng_local::expand\l_struct\&lt; mng_local::block\l_w_info\&lt; Type, RawSize, NRef,\l MetaInfoType \&gt;, RawSize \&gt;">
<polygon fill="none" stroke="black" points="2908,-184 2908,-236 3067,-236 3067,-184 2908,-184"/>
<text text-anchor="start" x="2916" y="-224" font-family="Helvetica,sans-Serif" font-size="10.00">stxxl::mng_local::expand</text>
<text text-anchor="start" x="2916" y="-213" font-family="Helvetica,sans-Serif" font-size="10.00">_struct&lt; mng_local::block</text>
<text text-anchor="start" x="2916" y="-202" font-family="Helvetica,sans-Serif" font-size="10.00">_w_info&lt; Type, RawSize, NRef,</text>
<text text-anchor="middle" x="2987.5" y="-191" font-family="Helvetica,sans-Serif" font-size="10.00"> MetaInfoType &gt;, RawSize &gt;</text>
</a>
</g>
</g>
<!-- Node6&#45;&gt;Node5 -->
<g id="edge5" class="edge"><title>Node6&#45;&gt;Node5</title>
<path fill="none" stroke="midnightblue" d="M3076.99,-233.497C3086.05,-235.904 3095.12,-238.312 3103.81,-240.619"/>
<polygon fill="midnightblue" stroke="midnightblue" points="3077.73,-230.072 3067.17,-230.889 3075.93,-236.838 3077.73,-230.072"/>
</g>
<!-- Node7 -->
<g id="node7" class="node"><title>Node7</title>
<g id="a_node7"><a xlink:href="classstxxl_1_1mng__local_1_1add__filler.html" target="_top" xlink:title="stxxl::mng_local::add\l_filler\&lt; mng_local::block\l_w_info\&lt; Type, RawSize,\l NRef, MetaInfoType \&gt;, RawSize\l&#45;sizeof(mng_local::block_w_info\l\&lt; Type, RawSize, NRef, MetaInfoType \&gt;)\&gt;">
<polygon fill="none" stroke="black" points="2552,-173 2552,-247 2758,-247 2758,-173 2552,-173"/>
<text text-anchor="start" x="2560" y="-235" font-family="Helvetica,sans-Serif" font-size="10.00">stxxl::mng_local::add</text>
<text text-anchor="start" x="2560" y="-224" font-family="Helvetica,sans-Serif" font-size="10.00">_filler&lt; mng_local::block</text>
<text text-anchor="start" x="2560" y="-213" font-family="Helvetica,sans-Serif" font-size="10.00">_w_info&lt; Type, RawSize,</text>
<text text-anchor="start" x="2560" y="-202" font-family="Helvetica,sans-Serif" font-size="10.00"> NRef, MetaInfoType &gt;, RawSize</text>
<text text-anchor="start" x="2560" y="-191" font-family="Helvetica,sans-Serif" font-size="10.00">&#45;sizeof(mng_local::block_w_info</text>
<text text-anchor="middle" x="2655" y="-180" font-family="Helvetica,sans-Serif" font-size="10.00">&lt; Type, RawSize, NRef, MetaInfoType &gt;)&gt;</text>
</a>
</g>
</g>
<!-- Node7&#45;&gt;Node6 -->
<g id="edge6" class="edge"><title>Node7&#45;&gt;Node6</title>
<path fill="none" stroke="midnightblue" d="M2768.58,-210C2814.35,-210 2866.14,-210 2907.75,-210"/>
<polygon fill="midnightblue" stroke="midnightblue" points="2768.31,-206.5 2758.31,-210 2768.31,-213.5 2768.31,-206.5"/>
</g>
<!-- Node8 -->
<g id="node8" class="node"><title>Node8</title>
<g id="a_node8"><a xlink:href="classstxxl_1_1mng__local_1_1block__w__info.html" target="_top" xlink:title="stxxl::mng_local::block\l_w_info\&lt; Type, RawSize,\l NRef, MetaInfoType \&gt;">
<polygon fill="none" stroke="black" points="2378.5,-238.5 2378.5,-279.5 2508.5,-279.5 2508.5,-238.5 2378.5,-238.5"/>
<text text-anchor="start" x="2386.5" y="-267.5" font-family="Helvetica,sans-Serif" font-size="10.00">stxxl::mng_local::block</text>
<text text-anchor="start" x="2386.5" y="-256.5" font-family="Helvetica,sans-Serif" font-size="10.00">_w_info&lt; Type, RawSize,</text>
<text text-anchor="middle" x="2443.5" y="-245.5" font-family="Helvetica,sans-Serif" font-size="10.00"> NRef, MetaInfoType &gt;</text>
</a>
</g>
</g>
<!-- Node8&#45;&gt;Node7 -->
<g id="edge7" class="edge"><title>Node8&#45;&gt;Node7</title>
<path fill="none" stroke="midnightblue" d="M2518.83,-241.615C2529.47,-239.126 2540.58,-236.529 2551.64,-233.941"/>
<polygon fill="midnightblue" stroke="midnightblue" points="2517.72,-238.28 2508.78,-243.965 2519.31,-245.096 2517.72,-238.28"/>
</g>
<!-- Node9 -->
<g id="node9" class="node"><title>Node9</title>
<g id="a_node9"><a xlink:href="classstxxl_1_1mng__local_1_1block__w__bids.html" target="_top" xlink:title="stxxl::mng_local::block\l_w_bids\&lt; Type,((RawSize\l&#45;sizeof(BID\&lt; RawSize \&gt;)*NBids\l&#45;sizeof(MetaInfoType))/sizeof\l(Type)), RawSize, NBids \&gt;">
<polygon fill="none" stroke="black" points="1868,-184.5 1868,-247.5 2026,-247.5 2026,-184.5 1868,-184.5"/>
<text text-anchor="start" x="1876" y="-235.5" font-family="Helvetica,sans-Serif" font-size="10.00">stxxl::mng_local::block</text>
<text text-anchor="start" x="1876" y="-224.5" font-family="Helvetica,sans-Serif" font-size="10.00">_w_bids&lt; Type,((RawSize</text>
<text text-anchor="start" x="1876" y="-213.5" font-family="Helvetica,sans-Serif" font-size="10.00">&#45;sizeof(BID&lt; RawSize &gt;)*NBids</text>
<text text-anchor="start" x="1876" y="-202.5" font-family="Helvetica,sans-Serif" font-size="10.00">&#45;sizeof(MetaInfoType))/sizeof</text>
<text text-anchor="middle" x="1947" y="-191.5" font-family="Helvetica,sans-Serif" font-size="10.00">(Type)), RawSize, NBids &gt;</text>
</a>
</g>
</g>
<!-- Node9&#45;&gt;Node8 -->
<g id="edge8" class="edge"><title>Node9&#45;&gt;Node8</title>
<path fill="none" stroke="midnightblue" d="M2036.55,-221.177C2090.72,-224.573 2161.42,-229.411 2224,-235 2275.88,-239.633 2334.56,-246.149 2378.03,-251.222"/>
<polygon fill="midnightblue" stroke="midnightblue" points="2036.49,-217.667 2026.29,-220.539 2036.05,-224.653 2036.49,-217.667"/>
</g>
<!-- Node17 -->
<g id="node17" class="node"><title>Node17</title>
<g id="a_node17"><a xlink:href="classstxxl_1_1mng__local_1_1block__w__info.html" target="_top" xlink:title="Contains per block information for stxxl::typed_block , not intended for direct use. ">
<polygon fill="none" stroke="black" points="2089,-244.5 2089,-285.5 2219,-285.5 2219,-244.5 2089,-244.5"/>
<text text-anchor="start" x="2097" y="-273.5" font-family="Helvetica,sans-Serif" font-size="10.00">stxxl::mng_local::block</text>
<text text-anchor="start" x="2097" y="-262.5" font-family="Helvetica,sans-Serif" font-size="10.00">_w_info&lt; Type, RawSize,</text>
<text text-anchor="middle" x="2154" y="-251.5" font-family="Helvetica,sans-Serif" font-size="10.00"> NBids, MetaInfoType &gt;</text>
</a>
</g>
</g>
<!-- Node9&#45;&gt;Node17 -->
<g id="edge23" class="edge"><title>Node9&#45;&gt;Node17</title>
<path fill="none" stroke="midnightblue" d="M2035.88,-237.006C2053.65,-241.253 2072.02,-245.643 2088.79,-249.651"/>
<polygon fill="midnightblue" stroke="midnightblue" points="2036.63,-233.585 2026.09,-234.665 2035,-240.394 2036.63,-233.585"/>
</g>
<!-- Node10 -->
<g id="node10" class="node"><title>Node10</title>
<g id="a_node10"><a xlink:href="classstxxl_1_1mng__local_1_1element__block.html" target="_top" xlink:title="Contains data elements for stxxl::typed_block , not intended for direct use. ">
<polygon fill="none" stroke="black" points="1383,-231 1383,-261 1511,-261 1511,-231 1383,-231"/>
<text text-anchor="start" x="1391" y="-249" font-family="Helvetica,sans-Serif" font-size="10.00">stxxl::mng_local::element</text>
<text text-anchor="middle" x="1447" y="-238" font-family="Helvetica,sans-Serif" font-size="10.00">_block&lt; Type, Size &gt;</text>
</a>
</g>
</g>
<!-- Node10&#45;&gt;Node9 -->
<g id="edge9" class="edge"><title>Node10&#45;&gt;Node9</title>
<path fill="none" stroke="midnightblue" d="M1521.07,-242.163C1601.65,-237.852 1735.1,-230.475 1850,-223 1855.84,-222.62 1861.87,-222.214 1867.94,-221.794"/>
<polygon fill="midnightblue" stroke="midnightblue" points="1520.83,-238.671 1511.03,-242.699 1521.2,-245.661 1520.83,-238.671"/>
</g>
<!-- Node16 -->
<g id="node16" class="node"><title>Node16</title>
<g id="a_node16"><a xlink:href="classstxxl_1_1mng__local_1_1block__w__bids.html" target="_top" xlink:title="Contains BID references for stxxl::typed_block , not intended for direct use. ">
<polygon fill="none" stroke="black" points="1562,-129.5 1562,-170.5 1720,-170.5 1720,-129.5 1562,-129.5"/>
<text text-anchor="start" x="1570" y="-158.5" font-family="Helvetica,sans-Serif" font-size="10.00">stxxl::mng_local::block</text>
<text text-anchor="start" x="1570" y="-147.5" font-family="Helvetica,sans-Serif" font-size="10.00">_w_bids&lt; Type, Size, RawSize,</text>
<text text-anchor="middle" x="1641" y="-136.5" font-family="Helvetica,sans-Serif" font-size="10.00"> NBids &gt;</text>
</a>
</g>
</g>
<!-- Node10&#45;&gt;Node16 -->
<g id="edge20" class="edge"><title>Node10&#45;&gt;Node16</title>
<path fill="none" stroke="midnightblue" d="M1485.51,-226.172C1507.66,-214.564 1536.32,-199.732 1562,-187 1572.88,-181.608 1584.68,-175.923 1595.73,-170.672"/>
<polygon fill="midnightblue" stroke="midnightblue" points="1483.67,-223.187 1476.44,-230.934 1486.92,-229.384 1483.67,-223.187"/>
</g>
<!-- Node11 -->
<g id="node11" class="node"><title>Node11</title>
<g id="a_node11"><a xlink:href="structstxxl_1_1BID.html" target="_top" xlink:title="stxxl::BID\&lt; raw_size \&gt;">
<polygon fill="none" stroke="black" points="1388,-140.5 1388,-159.5 1506,-159.5 1506,-140.5 1388,-140.5"/>
<text text-anchor="middle" x="1447" y="-147.5" font-family="Helvetica,sans-Serif" font-size="10.00">stxxl::BID&lt; raw_size &gt;</text>
</a>
</g>
</g>
<!-- Node11&#45;&gt;Node9 -->
<g id="edge10" class="edge"><title>Node11&#45;&gt;Node9</title>
<path fill="none" stroke="#9a32cd" stroke-dasharray="5,2" d="M1488.49,-162.384C1510.11,-168.558 1537.3,-175.622 1562,-180 1667,-198.608 1789.96,-207.996 1867.91,-212.434"/>
<polygon fill="#9a32cd" stroke="#9a32cd" points="1489.24,-158.959 1478.66,-159.532 1487.29,-165.681 1489.24,-158.959"/>
<text text-anchor="middle" x="1641" y="-204" font-family="Helvetica,sans-Serif" font-size="10.00"> ref</text>
</g>
<!-- Node11&#45;&gt;Node16 -->
<g id="edge21" class="edge"><title>Node11&#45;&gt;Node16</title>
<path fill="none" stroke="#9a32cd" stroke-dasharray="5,2" d="M1516.19,-150C1530.98,-150 1546.73,-150 1561.87,-150"/>
<polygon fill="#9a32cd" stroke="#9a32cd" points="1516.13,-146.5 1506.13,-150 1516.13,-153.5 1516.13,-146.5"/>
<text text-anchor="middle" x="1536.5" y="-153" font-family="Helvetica,sans-Serif" font-size="10.00"> ref</text>
</g>
<!-- Node12&#45;&gt;Node11 -->
<g id="edge11" class="edge"><title>Node12&#45;&gt;Node11</title>
<path fill="none" stroke="#9a32cd" stroke-dasharray="5,2" d="M1098.34,-112.443C1109.74,-114.813 1122.35,-117.225 1134,-119 1222.12,-132.423 1325.16,-141.357 1387.98,-146.054"/>
<polygon fill="#9a32cd" stroke="#9a32cd" points="1098.78,-108.958 1088.27,-110.298 1097.32,-115.804 1098.78,-108.958"/>
<text text-anchor="middle" x="1237" y="-141" font-family="Helvetica,sans-Serif" font-size="10.00"> storage</text>
</g>
<!-- Node15 -->
<g id="node15" class="node"><title>Node15</title>
<g id="a_node15"><a xlink:href="structstxxl_1_1BID.html" target="_top" xlink:title="Block identifier class. ">
<polygon fill="none" stroke="black" points="1188,-94.5 1188,-113.5 1286,-113.5 1286,-94.5 1188,-94.5"/>
<text text-anchor="middle" x="1237" y="-101.5" font-family="Helvetica,sans-Serif" font-size="10.00">stxxl::BID&lt; Size &gt;</text>
</a>
</g>
</g>
<!-- Node12&#45;&gt;Node15 -->
<g id="edge18" class="edge"><title>Node12&#45;&gt;Node15</title>
<path fill="none" stroke="#9a32cd" stroke-dasharray="5,2" d="M1098.57,-104C1124.64,-104 1159.59,-104 1187.72,-104"/>
<polygon fill="#9a32cd" stroke="#9a32cd" points="1098.34,-100.5 1088.34,-104 1098.34,-107.5 1098.34,-100.5"/>
<text text-anchor="middle" x="1152" y="-107" font-family="Helvetica,sans-Serif" font-size="10.00"> storage</text>
</g>
<!-- Node13&#45;&gt;Node12 -->
<g id="edge13" class="edge"><title>Node13&#45;&gt;Node12</title>
<path fill="none" stroke="#9a32cd" stroke-dasharray="5,2" d="M909.517,-104C950.679,-104 1001.45,-104 1031.97,-104"/>
<polygon fill="#9a32cd" stroke="#9a32cd" points="909.277,-100.5 899.277,-104 909.277,-107.5 909.277,-100.5"/>
<text text-anchor="middle" x="951.5" y="-107" font-family="Helvetica,sans-Serif" font-size="10.00"> m_request_ref</text>
</g>
<!-- Node14&#45;&gt;Node13 -->
<g id="edge14" class="edge"><title>Node14&#45;&gt;Node13</title>
<path fill="none" stroke="#9a32cd" stroke-dasharray="5,2" d="M625.769,-104C670.071,-104 738.001,-104 785.774,-104"/>
<polygon fill="#9a32cd" stroke="#9a32cd" points="625.592,-100.5 615.592,-104 625.592,-107.5 625.592,-100.5"/>
<text text-anchor="middle" x="708.5" y="-107" font-family="Helvetica,sans-Serif" font-size="10.00"> m_reference_count_mutex</text>
</g>
<!-- Node15&#45;&gt;Node11 -->
<g id="edge17" class="edge"><title>Node15&#45;&gt;Node11</title>
<path fill="none" stroke="orange" stroke-dasharray="5,2" d="M1296.31,-111.945C1318,-115.345 1342.75,-119.752 1365,-125 1382.91,-129.223 1402.64,-135.282 1418.14,-140.378"/>
<polygon fill="orange" stroke="orange" points="1296.66,-108.459 1286.25,-110.406 1295.6,-115.378 1296.66,-108.459"/>
<text text-anchor="middle" x="1334.5" y="-128" font-family="Helvetica,sans-Serif" font-size="10.00"> &lt; raw_size &gt;</text>
</g>
<!-- Node16&#45;&gt;Node9 -->
<g id="edge19" class="edge"><title>Node16&#45;&gt;Node9</title>
<path fill="none" stroke="orange" stroke-dasharray="5,2" d="M1730.04,-131.327C1767.9,-126.942 1812.07,-126.805 1850,-140 1875.5,-148.871 1899.32,-167.645 1916.86,-184.312"/>
<polygon fill="orange" stroke="orange" points="1729.53,-127.864 1720.05,-132.598 1730.42,-134.808 1729.53,-127.864"/>
<text text-anchor="start" x="1738" y="-187" font-family="Helvetica,sans-Serif" font-size="10.00"> &lt; Type,((RawSize&#45;sizeof</text>
<text text-anchor="start" x="1738" y="-176" font-family="Helvetica,sans-Serif" font-size="10.00">(BID&lt; RawSize &gt;)*NBids</text>
<text text-anchor="start" x="1738" y="-165" font-family="Helvetica,sans-Serif" font-size="10.00">&#45;sizeof(MetaInfoType))</text>
<text text-anchor="start" x="1738" y="-154" font-family="Helvetica,sans-Serif" font-size="10.00">/sizeof(Type)), RawSize,</text>
<text text-anchor="middle" x="1794" y="-143" font-family="Helvetica,sans-Serif" font-size="10.00"> NBids &gt;</text>
</g>
<!-- Node17&#45;&gt;Node8 -->
<g id="edge22" class="edge"><title>Node17&#45;&gt;Node8</title>
<path fill="none" stroke="orange" stroke-dasharray="5,2" d="M2229.38,-263.448C2275.43,-262.487 2333.97,-261.265 2378.04,-260.345"/>
<polygon fill="orange" stroke="orange" points="2229.09,-259.953 2219.16,-263.661 2229.23,-266.951 2229.09,-259.953"/>
<text text-anchor="start" x="2242" y="-278" font-family="Helvetica,sans-Serif" font-size="10.00"> &lt; Type, RawSize, NRef,</text>
<text text-anchor="middle" x="2298" y="-267" font-family="Helvetica,sans-Serif" font-size="10.00"> MetaInfoType &gt;</text>
</g>
<!-- Node18 -->
<g id="node18" class="node"><title>Node18</title>
<g id="a_node18"><a xlink:href="classstxxl_1_1mng__local_1_1filler__struct.html" target="_top" xlink:title="stxxl::mng_local::filler\l_struct\&lt; FillSize \&gt;">
<polygon fill="none" stroke="black" points="1891,-77 1891,-107 2003,-107 2003,-77 1891,-77"/>
<text text-anchor="start" x="1899" y="-95" font-family="Helvetica,sans-Serif" font-size="10.00">stxxl::mng_local::filler</text>
<text text-anchor="middle" x="1947" y="-84" font-family="Helvetica,sans-Serif" font-size="10.00">_struct&lt; FillSize &gt;</text>
</a>
</g>
</g>
<!-- Node18&#45;&gt;Node7 -->
<g id="edge24" class="edge"><title>Node18&#45;&gt;Node7</title>
<path fill="none" stroke="#9a32cd" stroke-dasharray="5,2" d="M2006.38,-110.086C2087.5,-134.346 2239.31,-176.614 2372,-196 2431.17,-204.645 2497.99,-208.23 2551.73,-209.614"/>
<polygon fill="#9a32cd" stroke="#9a32cd" points="2006.95,-106.603 1996.37,-107.076 2004.94,-113.307 2006.95,-106.603"/>
<text text-anchor="middle" x="2298" y="-196" font-family="Helvetica,sans-Serif" font-size="10.00"> filler</text>
</g>
<!-- Node20 -->
<g id="node20" class="node"><title>Node20</title>
<g id="a_node20"><a xlink:href="classstxxl_1_1mng__local_1_1add__filler.html" target="_top" xlink:title="Contains per block filler for stxxl::typed_block , not intended for direct use. ">
<polygon fill="none" stroke="black" points="2084,-77 2084,-107 2224,-107 2224,-77 2084,-77"/>
<text text-anchor="start" x="2092" y="-95" font-family="Helvetica,sans-Serif" font-size="10.00">stxxl::mng_local::add</text>
<text text-anchor="middle" x="2154" y="-84" font-family="Helvetica,sans-Serif" font-size="10.00">_filler&lt; BaseType, FillSize &gt;</text>
</a>
</g>
</g>
<!-- Node18&#45;&gt;Node20 -->
<g id="edge27" class="edge"><title>Node18&#45;&gt;Node20</title>
<path fill="none" stroke="#9a32cd" stroke-dasharray="5,2" d="M2013.31,-92C2035.77,-92 2060.99,-92 2083.75,-92"/>
<polygon fill="#9a32cd" stroke="#9a32cd" points="2013.21,-88.5001 2003.21,-92 2013.21,-95.5001 2013.21,-88.5001"/>
<text text-anchor="middle" x="2055" y="-95" font-family="Helvetica,sans-Serif" font-size="10.00"> filler</text>
</g>
<!-- Node22 -->
<g id="node22" class="node"><title>Node22</title>
<g id="a_node22"><a xlink:href="classstxxl_1_1mng__local_1_1add__filler.html" target="_top" xlink:title="stxxl::mng_local::add\l_filler\&lt; Type, RawSize\l&#45;sizeof(Type)\&gt;">
<polygon fill="none" stroke="black" points="2385.5,-38.5 2385.5,-79.5 2501.5,-79.5 2501.5,-38.5 2385.5,-38.5"/>
<text text-anchor="start" x="2393.5" y="-67.5" font-family="Helvetica,sans-Serif" font-size="10.00">stxxl::mng_local::add</text>
<text text-anchor="start" x="2393.5" y="-56.5" font-family="Helvetica,sans-Serif" font-size="10.00">_filler&lt; Type, RawSize</text>
<text text-anchor="middle" x="2443.5" y="-45.5" font-family="Helvetica,sans-Serif" font-size="10.00">&#45;sizeof(Type)&gt;</text>
</a>
</g>
</g>
<!-- Node18&#45;&gt;Node22 -->
<g id="edge30" class="edge"><title>Node18&#45;&gt;Node22</title>
<path fill="none" stroke="#9a32cd" stroke-dasharray="5,2" d="M2002.89,-74.0044C2027.42,-66.8692 2056.86,-59.5314 2084,-56 2189.7,-42.2474 2314.41,-48.2367 2385.4,-53.7096"/>
<polygon fill="#9a32cd" stroke="#9a32cd" points="2001.64,-70.7251 1993.06,-76.9316 2003.64,-77.4344 2001.64,-70.7251"/>
<text text-anchor="middle" x="2154" y="-59" font-family="Helvetica,sans-Serif" font-size="10.00"> filler</text>
</g>
<!-- Node19 -->
<g id="node19" class="node"><title>Node19</title>
<g id="a_node19"><a xlink:href="classstxxl_1_1mng__local_1_1filler__struct.html" target="_top" xlink:title="stxxl::mng_local::filler\l_struct\&lt; Bytes \&gt;">
<polygon fill="none" stroke="black" points="1585,-77 1585,-107 1697,-107 1697,-77 1585,-77"/>
<text text-anchor="start" x="1593" y="-95" font-family="Helvetica,sans-Serif" font-size="10.00">stxxl::mng_local::filler</text>
<text text-anchor="middle" x="1641" y="-84" font-family="Helvetica,sans-Serif" font-size="10.00">_struct&lt; Bytes &gt;</text>
</a>
</g>
</g>
<!-- Node19&#45;&gt;Node18 -->
<g id="edge25" class="edge"><title>Node19&#45;&gt;Node18</title>
<path fill="none" stroke="orange" stroke-dasharray="5,2" d="M1707.33,-92C1762.03,-92 1839.21,-92 1890.84,-92"/>
<polygon fill="orange" stroke="orange" points="1707.05,-88.5001 1697.05,-92 1707.05,-95.5001 1707.05,-88.5001"/>
<text text-anchor="middle" x="1794" y="-95" font-family="Helvetica,sans-Serif" font-size="10.00"> &lt; FillSize &gt;</text>
</g>
<!-- Node20&#45;&gt;Node7 -->
<g id="edge26" class="edge"><title>Node20&#45;&gt;Node7</title>
<path fill="none" stroke="orange" stroke-dasharray="5,2" d="M2234.36,-101.162C2236.93,-101.447 2239.49,-101.727 2242,-102 2363.25,-115.186 2398.93,-92.5339 2515,-130 2545.47,-139.836 2576.62,-156.978 2601.68,-172.878"/>
<polygon fill="orange" stroke="orange" points="2234.65,-97.6733 2224.32,-100.046 2233.87,-104.63 2234.65,-97.6733"/>
<text text-anchor="start" x="2372" y="-188" font-family="Helvetica,sans-Serif" font-size="10.00"> &lt; mng_local::block</text>
<text text-anchor="start" x="2372" y="-177" font-family="Helvetica,sans-Serif" font-size="10.00">_w_info&lt; Type, RawSize,</text>
<text text-anchor="start" x="2372" y="-166" font-family="Helvetica,sans-Serif" font-size="10.00"> NRef, MetaInfoType &gt;,</text>
<text text-anchor="start" x="2372" y="-155" font-family="Helvetica,sans-Serif" font-size="10.00"> RawSize&#45;sizeof(mng_local</text>
<text text-anchor="start" x="2372" y="-144" font-family="Helvetica,sans-Serif" font-size="10.00">::block_w_info&lt; Type, RawSize,</text>
<text text-anchor="middle" x="2443.5" y="-133" font-family="Helvetica,sans-Serif" font-size="10.00"> NRef, MetaInfoType &gt;)&gt;</text>
</g>
<!-- Node20&#45;&gt;Node22 -->
<g id="edge31" class="edge"><title>Node20&#45;&gt;Node22</title>
<path fill="none" stroke="orange" stroke-dasharray="5,2" d="M2234.35,-80.9459C2236.93,-80.6214 2239.48,-80.3052 2242,-80 2290.3,-74.1417 2345.26,-68.454 2385.4,-64.4788"/>
<polygon fill="orange" stroke="orange" points="2233.78,-77.4898 2224.31,-82.2325 2234.67,-84.4331 2233.78,-77.4898"/>
<text text-anchor="start" x="2243.5" y="-94" font-family="Helvetica,sans-Serif" font-size="10.00"> &lt; Type, RawSize&#45;sizeof</text>
<text text-anchor="middle" x="2298" y="-83" font-family="Helvetica,sans-Serif" font-size="10.00">(Type)&gt;</text>
</g>
<!-- Node21 -->
<g id="node21" class="node"><title>Node21</title>
<g id="a_node21"><a xlink:href="classstxxl_1_1mng__local_1_1expand__struct.html" target="_top" xlink:title="Helper to compute the size of the filler , not intended for direct use. ">
<polygon fill="none" stroke="black" points="2589,-92 2589,-122 2721,-122 2721,-92 2589,-92"/>
<text text-anchor="start" x="2597" y="-110" font-family="Helvetica,sans-Serif" font-size="10.00">stxxl::mng_local::expand</text>
<text text-anchor="middle" x="2655" y="-99" font-family="Helvetica,sans-Serif" font-size="10.00">_struct&lt; Type, RawSize &gt;</text>
</a>
</g>
</g>
<!-- Node21&#45;&gt;Node6 -->
<g id="edge28" class="edge"><title>Node21&#45;&gt;Node6</title>
<path fill="none" stroke="orange" stroke-dasharray="5,2" d="M2731.23,-120.09C2777.75,-129.305 2838.25,-143.332 2890,-162 2906.55,-167.969 2923.95,-176.026 2939.35,-183.833"/>
<polygon fill="orange" stroke="orange" points="2731.71,-116.618 2721.22,-118.14 2730.37,-123.489 2731.71,-116.618"/>
<text text-anchor="start" x="2776" y="-198" font-family="Helvetica,sans-Serif" font-size="10.00"> &lt; mng_local::block</text>
<text text-anchor="start" x="2776" y="-187" font-family="Helvetica,sans-Serif" font-size="10.00">_w_info&lt; Type, RawSize,</text>
<text text-anchor="start" x="2776" y="-176" font-family="Helvetica,sans-Serif" font-size="10.00"> NRef, MetaInfoType &gt;,</text>
<text text-anchor="middle" x="2833" y="-165" font-family="Helvetica,sans-Serif" font-size="10.00"> RawSize &gt;</text>
</g>
<!-- Node22&#45;&gt;Node21 -->
<g id="edge29" class="edge"><title>Node22&#45;&gt;Node21</title>
<path fill="none" stroke="midnightblue" d="M2511.73,-74.4043C2536.38,-80.0503 2564.21,-86.4276 2588.68,-92.0346"/>
<polygon fill="midnightblue" stroke="midnightblue" points="2512.28,-70.938 2501.75,-72.1162 2510.71,-77.7612 2512.28,-70.938"/>
</g>
<!-- Node23&#45;&gt;Node1 -->
<g id="edge32" class="edge"><title>Node23&#45;&gt;Node1</title>
<path fill="none" stroke="#9a32cd" stroke-dasharray="5,2" d="M1106.93,-295.55C1141.76,-307.949 1191.12,-322 1236,-322 1236,-322 1236,-322 3167.5,-322 3210.25,-322 3258.06,-316.069 3294.77,-310.23"/>
<polygon fill="#9a32cd" stroke="#9a32cd" points="1108.1,-292.252 1097.51,-292.11 1105.7,-298.827 1108.1,-292.252"/>
<text text-anchor="middle" x="2154" y="-336" font-family="Helvetica,sans-Serif" font-size="10.00"> owned_pool</text>
<text text-anchor="middle" x="2154" y="-325" font-family="Helvetica,sans-Serif" font-size="10.00">pool</text>
</g>
<!-- Node24&#45;&gt;Node23 -->
<g id="edge34" class="edge"><title>Node24&#45;&gt;Node23</title>
<path fill="none" stroke="#9a32cd" stroke-dasharray="5,2" d="M641.275,-321.933C643.885,-321.959 646.469,-321.981 649,-322 701.887,-322.389 715.235,-325.614 768,-322 865.573,-315.318 889.603,-308.518 986,-292 991.739,-291.017 997.715,-289.916 1003.67,-288.768"/>
<polygon fill="#9a32cd" stroke="#9a32cd" points="641.171,-318.432 631.132,-321.821 641.093,-325.432 641.171,-318.432"/>
<text text-anchor="middle" x="842.5" y="-324" font-family="Helvetica,sans-Serif" font-size="10.00"> p_pool</text>
</g>
<!-- Node24&#45;&gt;Node28 -->
<g id="edge43" class="edge"><title>Node24&#45;&gt;Node28</title>
<path fill="none" stroke="#9a32cd" stroke-dasharray="5,2" d="M641.179,-310.835C685.003,-303.433 743.897,-293.486 786.474,-286.294"/>
<polygon fill="#9a32cd" stroke="#9a32cd" points="640.504,-307.4 631.227,-312.516 641.67,-314.302 640.504,-307.4"/>
<text text-anchor="middle" x="708.5" y="-313" font-family="Helvetica,sans-Serif" font-size="10.00"> p_pool</text>
</g>
<!-- Node25 -->
<g id="node25" class="node"><title>Node25</title>
<g id="a_node25"><a xlink:href="structstxxl_1_1compat__hash__map.html" target="_top" xlink:title="stxxl::compat_hash\l_map\&lt; bid_type, busy\l_entry, bid_hash \&gt;">
<polygon fill="none" stroke="black" points="299.5,-255.5 299.5,-296.5 412.5,-296.5 412.5,-255.5 299.5,-255.5"/>
<text text-anchor="start" x="307.5" y="-284.5" font-family="Helvetica,sans-Serif" font-size="10.00">stxxl::compat_hash</text>
<text text-anchor="start" x="307.5" y="-273.5" font-family="Helvetica,sans-Serif" font-size="10.00">_map&lt; bid_type, busy</text>
<text text-anchor="middle" x="356" y="-262.5" font-family="Helvetica,sans-Serif" font-size="10.00">_entry, bid_hash &gt;</text>
</a>
</g>
</g>
<!-- Node25&#45;&gt;Node24 -->
<g id="edge37" class="edge"><title>Node25&#45;&gt;Node24</title>
<path fill="none" stroke="#9a32cd" stroke-dasharray="5,2" d="M422.59,-289.295C456.604,-296.19 497.492,-304.478 528.931,-310.851"/>
<polygon fill="#9a32cd" stroke="#9a32cd" points="423.229,-285.854 412.733,-287.297 421.839,-292.714 423.229,-285.854"/>
<text text-anchor="middle" x="472.5" y="-310" font-family="Helvetica,sans-Serif" font-size="10.00"> busy_blocks</text>
</g>
<!-- Node26 -->
<g id="node26" class="node"><title>Node26</title>
<g id="a_node26"><a xlink:href="structstxxl_1_1compat__hash__map.html" target="_top" xlink:title="stxxl::compat_hash\l_map\&lt; KeyType, MappedType,\l HashType \&gt;">
<polygon fill="none" stroke="black" points="0,-255.5 0,-296.5 154,-296.5 154,-255.5 0,-255.5"/>
<text text-anchor="start" x="8" y="-284.5" font-family="Helvetica,sans-Serif" font-size="10.00">stxxl::compat_hash</text>
<text text-anchor="start" x="8" y="-273.5" font-family="Helvetica,sans-Serif" font-size="10.00">_map&lt; KeyType, MappedType,</text>
<text text-anchor="middle" x="77" y="-262.5" font-family="Helvetica,sans-Serif" font-size="10.00"> HashType &gt;</text>
</a>
</g>
</g>
<!-- Node26&#45;&gt;Node25 -->
<g id="edge38" class="edge"><title>Node26&#45;&gt;Node25</title>
<path fill="none" stroke="orange" stroke-dasharray="5,2" d="M164.195,-276C208.263,-276 260.612,-276 299.32,-276"/>
<polygon fill="orange" stroke="orange" points="164.058,-272.5 154.058,-276 164.058,-279.5 164.058,-272.5"/>
<text text-anchor="start" x="172" y="-290" font-family="Helvetica,sans-Serif" font-size="10.00"> &lt; bid_type, busy_entry,</text>
<text text-anchor="middle" x="225" y="-279" font-family="Helvetica,sans-Serif" font-size="10.00"> bid_hash &gt;</text>
</g>
<!-- Node27&#45;&gt;Node23 -->
<g id="edge39" class="edge"><title>Node27&#45;&gt;Node23</title>
<path fill="none" stroke="#9a32cd" stroke-dasharray="5,2" d="M637.339,-230.497C701.157,-228.569 808.103,-228.084 899,-241 934.236,-246.007 973.209,-254.707 1003.87,-262.301"/>
<polygon fill="#9a32cd" stroke="#9a32cd" points="636.973,-227.007 627.092,-230.831 637.2,-234.004 636.973,-227.007"/>
<text text-anchor="middle" x="842.5" y="-244" font-family="Helvetica,sans-Serif" font-size="10.00"> w_pool</text>
</g>
<!-- Node27&#45;&gt;Node28 -->
<g id="edge44" class="edge"><title>Node27&#45;&gt;Node28</title>
<path fill="none" stroke="#9a32cd" stroke-dasharray="5,2" d="M637.378,-235.396C674.764,-237.797 724.721,-242.569 768,-252 779.457,-254.497 791.616,-258.184 802.676,-261.964"/>
<polygon fill="#9a32cd" stroke="#9a32cd" points="637.376,-231.889 627.183,-234.779 636.953,-238.876 637.376,-231.889"/>
<text text-anchor="middle" x="708.5" y="-255" font-family="Helvetica,sans-Serif" font-size="10.00"> w_pool</text>
</g>
<!-- Node28&#45;&gt;Node23 -->
<g id="edge41" class="edge"><title>Node28&#45;&gt;Node23</title>
<path fill="none" stroke="orange" stroke-dasharray="5,2" d="M908.798,-277C939.184,-277 974.931,-277 1003.93,-277"/>
<polygon fill="orange" stroke="orange" points="908.717,-273.5 898.717,-277 908.717,-280.5 908.717,-273.5"/>
<text text-anchor="middle" x="951.5" y="-280" font-family="Helvetica,sans-Serif" font-size="10.00"> &lt; block_type &gt;</text>
</g>
</g>
</svg>
