<?xml version="1.0" encoding="UTF-8" standalone="no"?>
<!DOCTYPE svg PUBLIC "-//W3C//DTD SVG 1.1//EN"
 "http://www.w3.org/Graphics/SVG/1.1/DTD/svg11.dtd">
<!-- Generated by graphviz version 2.26.3 (20100126.1600)
 -->
<!-- Title: stxxl::ppq_local::external_array_writer&lt; ExternalArrayType &gt; Pages: 1 -->
<svg width="180pt" height="176pt"
 viewBox="0.00 0.00 180.00 176.00" xmlns="http://www.w3.org/2000/svg" xmlns:xlink="http://www.w3.org/1999/xlink">
<g id="graph1" class="graph" transform="scale(1 1) rotate(0) translate(4 172)">
<title>stxxl::ppq_local::external_array_writer&lt; ExternalArrayType &gt;</title>
<!-- Node1 -->
<g id="node1" class="node"><title>Node1</title>
<polygon fill="#bfbfbf" stroke="black" points="0,-1 0,-35 172,-35 172,-1 0,-1"/>
<text text-anchor="start" x="8" y="-22" font-family="Helvetica,sans-Serif" font-size="10.00">stxxl::ppq_local::external</text>
<text text-anchor="middle" x="86" y="-9" font-family="Helvetica,sans-Serif" font-size="10.00">_array_writer&lt; ExternalArrayType &gt;</text>
</g>
<!-- Node2 -->
<g id="node2" class="node"><title>Node2</title>
<a xlink:href="classstxxl_1_1noncopyable.html" target="_top" xlink:title="stxxl::noncopyable">
<polygon fill="none" stroke="black" points="43,-146.5 43,-167.5 141,-167.5 141,-146.5 43,-146.5"/>
<text text-anchor="middle" x="92" y="-154.5" font-family="Helvetica,sans-Serif" font-size="10.00">stxxl::noncopyable</text>
</a>
</g>
<!-- Node2&#45;&gt;Node1 -->
<g id="edge2" class="edge"><title>Node2&#45;&gt;Node1</title>
<path fill="none" stroke="midnightblue" d="M90.6129,-136.429C90.0553,-127.67 89.4414,-117.338 89,-108 87.8042,-82.7017 86.9204,-53.3809 86.4327,-35.2593"/>
<polygon fill="midnightblue" stroke="midnightblue" points="87.1257,-136.74 91.2717,-146.49 94.1107,-136.283 87.1257,-136.74"/>
</g>
<!-- Node3 -->
<g id="node4" class="node"><title>Node3</title>
<a xlink:href="classstxxl_1_1mutex.html" target="_top" xlink:title="stxxl::mutex">
<polygon fill="none" stroke="black" points="97.5,-86.5 97.5,-107.5 168.5,-107.5 168.5,-86.5 97.5,-86.5"/>
<text text-anchor="middle" x="133" y="-94.5" font-family="Helvetica,sans-Serif" font-size="10.00">stxxl::mutex</text>
</a>
</g>
<!-- Node2&#45;&gt;Node3 -->
<g id="edge6" class="edge"><title>Node2&#45;&gt;Node3</title>
<path fill="none" stroke="#8b1a1a" d="M105.138,-137.773C111.961,-127.789 120.037,-115.97 125.733,-107.634"/>
<polygon fill="#8b1a1a" stroke="#8b1a1a" points="102.082,-136.042 99.33,-146.273 107.862,-139.991 102.082,-136.042"/>
</g>
<!-- Node3&#45;&gt;Node1 -->
<g id="edge4" class="edge"><title>Node3&#45;&gt;Node1</title>
<path fill="none" stroke="#9a32cd" stroke-dasharray="5,2" d="M121.515,-77.696C113.771,-64.6787 103.645,-47.6581 96.1874,-35.1236"/>
<polygon fill="#9a32cd" stroke="#9a32cd" points="118.54,-79.5412 126.661,-86.3457 124.556,-75.9621 118.54,-79.5412"/>
<text text-anchor="middle" x="137" y="-58.5" font-family="Helvetica,sans-Serif" font-size="10.00"> m_mutex</text>
</g>
</g>
</svg>
