<?xml version="1.0" encoding="UTF-8" standalone="no"?>
<!DOCTYPE svg PUBLIC "-//W3C//DTD SVG 1.1//EN"
 "http://www.w3.org/Graphics/SVG/1.1/DTD/svg11.dtd">
<!-- Generated by graphviz version 2.38.0 (20140413.2041)
 -->
<!-- Title: stxxl::semaphore Pages: 1 -->
<svg width="233pt" height="152pt"
 viewBox="0.00 0.00 233.00 152.00" xmlns="http://www.w3.org/2000/svg" xmlns:xlink="http://www.w3.org/1999/xlink">
<g id="graph0" class="graph" transform="scale(1 1) rotate(0) translate(4 148)">
<title>stxxl::semaphore</title>
<!-- Node1 -->
<g id="node1" class="node"><title>Node1</title>
<polygon fill="#bfbfbf" stroke="black" points="3,-0.5 3,-19.5 95,-19.5 95,-0.5 3,-0.5"/>
<text text-anchor="middle" x="49" y="-7.5" font-family="Helvetica,sans-Serif" font-size="10.00">stxxl::semaphore</text>
</g>
<!-- Node2 -->
<g id="node2" class="node"><title>Node2</title>
<g id="a_node2"><a xlink:href="classstxxl_1_1noncopyable.html" target="_top" xlink:title="stxxl::noncopyable">
<polygon fill="none" stroke="black" points="0,-124.5 0,-143.5 98,-143.5 98,-124.5 0,-124.5"/>
<text text-anchor="middle" x="49" y="-131.5" font-family="Helvetica,sans-Serif" font-size="10.00">stxxl::noncopyable</text>
</a>
</g>
</g>
<!-- Node2&#45;&gt;Node1 -->
<g id="edge1" class="edge"><title>Node2&#45;&gt;Node1</title>
<path fill="none" stroke="#8b1a1a" d="M28.4698,-118.177C19.1152,-110.136 9.0247,-99.3217 4,-87 0.643541,-78.7692 1.0486,-75.3846 4,-67 10.8744,-47.4707 27.7547,-29.722 38.7741,-19.6563"/>
<polygon fill="#8b1a1a" stroke="#8b1a1a" points="26.3637,-120.975 36.3552,-124.499 30.7421,-115.513 26.3637,-120.975"/>
</g>
<!-- Node3 -->
<g id="node3" class="node"><title>Node3</title>
<g id="a_node3"><a xlink:href="classstxxl_1_1mutex.html" target="_top" xlink:title="stxxl::mutex">
<polygon fill="none" stroke="black" points="13.5,-67.5 13.5,-86.5 84.5,-86.5 84.5,-67.5 13.5,-67.5"/>
<text text-anchor="middle" x="49" y="-74.5" font-family="Helvetica,sans-Serif" font-size="10.00">stxxl::mutex</text>
</a>
</g>
</g>
<!-- Node2&#45;&gt;Node3 -->
<g id="edge3" class="edge"><title>Node2&#45;&gt;Node3</title>
<path fill="none" stroke="#8b1a1a" d="M49,-114.117C49,-104.817 49,-94.0557 49,-86.7149"/>
<polygon fill="#8b1a1a" stroke="#8b1a1a" points="45.5001,-114.406 49,-124.406 52.5001,-114.406 45.5001,-114.406"/>
</g>
<!-- Node4 -->
<g id="node4" class="node"><title>Node4</title>
<g id="a_node4"><a xlink:href="classstxxl_1_1condition__variable.html" target="_top" xlink:title="stxxl::condition_variable">
<polygon fill="none" stroke="black" points="103,-67.5 103,-86.5 225,-86.5 225,-67.5 103,-67.5"/>
<text text-anchor="middle" x="164" y="-74.5" font-family="Helvetica,sans-Serif" font-size="10.00">stxxl::condition_variable</text>
</a>
</g>
</g>
<!-- Node2&#45;&gt;Node4 -->
<g id="edge5" class="edge"><title>Node2&#45;&gt;Node4</title>
<path fill="none" stroke="#8b1a1a" d="M76.2728,-119.957C97.8898,-109.618 127.471,-95.4704 146.157,-86.5334"/>
<polygon fill="#8b1a1a" stroke="#8b1a1a" points="74.48,-116.934 66.9688,-124.406 77.5002,-123.249 74.48,-116.934"/>
</g>
<!-- Node3&#45;&gt;Node1 -->
<g id="edge2" class="edge"><title>Node3&#45;&gt;Node1</title>
<path fill="none" stroke="#9a32cd" stroke-dasharray="5,2" d="M49,-57.037C49,-44.6703 49,-29.1198 49,-19.6273"/>
<polygon fill="#9a32cd" stroke="#9a32cd" points="45.5001,-57.2338 49,-67.2338 52.5001,-57.2338 45.5001,-57.2338"/>
<text text-anchor="middle" x="71" y="-41" font-family="Helvetica,sans-Serif" font-size="10.00"> m_mutex</text>
</g>
<!-- Node4&#45;&gt;Node1 -->
<g id="edge4" class="edge"><title>Node4&#45;&gt;Node1</title>
<path fill="none" stroke="#9a32cd" stroke-dasharray="5,2" d="M139.798,-62.2462C127.067,-55.0183 111.196,-46.0184 97,-38 86.1775,-31.8871 73.9686,-25.02 64.5723,-19.7411"/>
<polygon fill="#9a32cd" stroke="#9a32cd" points="138.417,-65.4871 148.841,-67.3823 141.874,-59.4003 138.417,-65.4871"/>
<text text-anchor="middle" x="135" y="-41" font-family="Helvetica,sans-Serif" font-size="10.00"> m_cond</text>
</g>
</g>
</svg>
