<?xml version="1.0" encoding="UTF-8" standalone="no"?>
<!DOCTYPE svg PUBLIC "-//W3C//DTD SVG 1.1//EN"
 "http://www.w3.org/Graphics/SVG/1.1/DTD/svg11.dtd">
<!-- Generated by graphviz version 2.26.3 (20100126.1600)
 -->
<!-- Title: stxxl::btree::node_cache&lt; NodeType, BTreeType &gt; Pages: 1 -->
<svg width="1542pt" height="438pt"
 viewBox="0.00 0.00 1542.00 438.23" xmlns="http://www.w3.org/2000/svg" xmlns:xlink="http://www.w3.org/1999/xlink">
<g id="graph1" class="graph" transform="scale(1 1) rotate(0) translate(4 434.232)">
<title>stxxl::btree::node_cache&lt; NodeType, BTreeType &gt;</title>
<!-- Node1 -->
<g id="node1" class="node"><title>Node1</title>
<polygon fill="#bfbfbf" stroke="black" points="1368.5,-214.232 1368.5,-248.232 1533.5,-248.232 1533.5,-214.232 1368.5,-214.232"/>
<text text-anchor="start" x="1376.5" y="-235.232" font-family="Helvetica,sans-Serif" font-size="10.00">stxxl::btree::node</text>
<text text-anchor="middle" x="1451" y="-222.232" font-family="Helvetica,sans-Serif" font-size="10.00">_cache&lt; NodeType, BTreeType &gt;</text>
</g>
<!-- Node2 -->
<g id="node2" class="node"><title>Node2</title>
<a xlink:href="classstxxl_1_1noncopyable.html" target="_top" xlink:title="stxxl::noncopyable">
<polygon fill="none" stroke="black" points="11,-149.732 11,-170.732 109,-170.732 109,-149.732 11,-149.732"/>
<text text-anchor="middle" x="60" y="-157.732" font-family="Helvetica,sans-Serif" font-size="10.00">stxxl::noncopyable</text>
</a>
</g>
<!-- Node2&#45;&gt;Node1 -->
<g id="edge2" class="edge"><title>Node2&#45;&gt;Node1</title>
<path fill="none" stroke="#8b1a1a" d="M67.3962,-180.549C78.6305,-208.849 102.511,-260.148 138,-291.232 204.996,-349.911 233.94,-368.232 323,-368.232 323,-368.232 323,-368.232 1245,-368.232 1330.69,-368.232 1407.93,-285.031 1437.85,-248.306"/>
<polygon fill="#8b1a1a" stroke="#8b1a1a" points="70.5542,-179.009 63.7119,-170.919 64.0163,-181.51 70.5542,-179.009"/>
</g>
<!-- Node4 -->
<g id="node6" class="node"><title>Node4</title>
<a xlink:href="classstxxl_1_1singleton.html" target="_top" xlink:title="stxxl::singleton\&lt; block\l_manager \&gt;">
<polygon fill="none" stroke="black" points="552.5,-140.232 552.5,-174.232 667.5,-174.232 667.5,-140.232 552.5,-140.232"/>
<text text-anchor="start" x="560.5" y="-161.232" font-family="Helvetica,sans-Serif" font-size="10.00">stxxl::singleton&lt; block</text>
<text text-anchor="middle" x="610" y="-148.232" font-family="Helvetica,sans-Serif" font-size="10.00">_manager &gt;</text>
</a>
</g>
<!-- Node2&#45;&gt;Node4 -->
<g id="edge8" class="edge"><title>Node2&#45;&gt;Node4</title>
<path fill="none" stroke="#8b1a1a" d="M119.23,-150.015C156.608,-144.093 205.975,-137.23 250,-134.232 314.739,-129.823 331.204,-130.76 396,-134.232 449.171,-137.081 509.456,-143.885 552.459,-149.358"/>
<polygon fill="#8b1a1a" stroke="#8b1a1a" points="118.338,-146.613 109.02,-151.656 119.449,-153.525 118.338,-146.613"/>
</g>
<!-- Node5 -->
<g id="node9" class="node"><title>Node5</title>
<a xlink:href="classstxxl_1_1singleton.html" target="_top" xlink:title="stxxl::singleton\&lt; INSTANCE,\l destroy_on_exit \&gt;">
<polygon fill="none" stroke="black" points="250,-143.232 250,-177.232 396,-177.232 396,-143.232 250,-143.232"/>
<text text-anchor="start" x="258" y="-164.232" font-family="Helvetica,sans-Serif" font-size="10.00">stxxl::singleton&lt; INSTANCE,</text>
<text text-anchor="middle" x="323" y="-151.232" font-family="Helvetica,sans-Serif" font-size="10.00"> destroy_on_exit &gt;</text>
</a>
</g>
<!-- Node2&#45;&gt;Node5 -->
<g id="edge12" class="edge"><title>Node2&#45;&gt;Node5</title>
<path fill="none" stroke="#8b1a1a" d="M119.232,-160.232C157.943,-160.232 208.774,-160.232 249.983,-160.232"/>
<polygon fill="#8b1a1a" stroke="#8b1a1a" points="119.16,-156.732 109.16,-160.232 119.16,-163.732 119.16,-156.732"/>
</g>
<!-- Node6 -->
<g id="node12" class="node"><title>Node6</title>
<a xlink:href="classstxxl_1_1file.html" target="_top" xlink:title="Defines interface of file. ">
<polygon fill="none" stroke="black" points="811,-225.732 811,-246.732 867,-246.732 867,-225.732 811,-225.732"/>
<text text-anchor="middle" x="839" y="-233.732" font-family="Helvetica,sans-Serif" font-size="10.00">stxxl::file</text>
</a>
</g>
<!-- Node2&#45;&gt;Node6 -->
<g id="edge16" class="edge"><title>Node2&#45;&gt;Node6</title>
<path fill="none" stroke="#8b1a1a" d="M119.007,-171.278C125.407,-172.341 131.833,-173.349 138,-174.232 187.558,-181.325 200.164,-181.476 250,-186.232 435.585,-203.941 482.253,-205.308 668,-221.232 718.329,-225.546 776.976,-230.723 810.862,-233.729"/>
<polygon fill="#8b1a1a" stroke="#8b1a1a" points="119.458,-167.805 109.012,-169.576 118.283,-174.705 119.458,-167.805"/>
</g>
<!-- Node8 -->
<g id="node17" class="node"><title>Node8</title>
<a xlink:href="classstxxl_1_1mutex.html" target="_top" xlink:title="stxxl::mutex">
<polygon fill="none" stroke="black" points="287.5,-236.732 287.5,-257.732 358.5,-257.732 358.5,-236.732 287.5,-236.732"/>
<text text-anchor="middle" x="323" y="-244.732" font-family="Helvetica,sans-Serif" font-size="10.00">stxxl::mutex</text>
</a>
</g>
<!-- Node2&#45;&gt;Node8 -->
<g id="edge22" class="edge"><title>Node2&#45;&gt;Node8</title>
<path fill="none" stroke="#8b1a1a" d="M77.928,-177.991C92.7523,-191.568 115.029,-209.55 138,-219.232 186.941,-239.86 248.83,-245.56 287.164,-246.986"/>
<polygon fill="#8b1a1a" stroke="#8b1a1a" points="80.1766,-175.301 70.5019,-170.982 75.3718,-180.391 80.1766,-175.301"/>
</g>
<!-- Node11 -->
<g id="node24" class="node"><title>Node11</title>
<a xlink:href="classstxxl_1_1disk__allocator.html" target="_top" xlink:title="stxxl::disk_allocator">
<polygon fill="none" stroke="black" points="980,-272.732 980,-293.732 1084,-293.732 1084,-272.732 980,-272.732"/>
<text text-anchor="middle" x="1032" y="-280.732" font-family="Helvetica,sans-Serif" font-size="10.00">stxxl::disk_allocator</text>
</a>
</g>
<!-- Node2&#45;&gt;Node11 -->
<g id="edge30" class="edge"><title>Node2&#45;&gt;Node11</title>
<path fill="none" stroke="#8b1a1a" d="M73.662,-178.712C88.0462,-197.173 112.156,-225.437 138,-244.232 211.331,-297.561 232.328,-330.232 323,-330.232 323,-330.232 323,-330.232 839,-330.232 900.213,-330.232 969.325,-307.637 1005.95,-293.779"/>
<polygon fill="#8b1a1a" stroke="#8b1a1a" points="76.4399,-176.583 67.5915,-170.755 70.8746,-180.829 76.4399,-176.583"/>
</g>
<!-- Node12 -->
<g id="node29" class="node"><title>Node12</title>
<a xlink:href="classstxxl_1_1lru__pager.html" target="_top" xlink:title="Pager with LRU replacement strategy. ">
<polygon fill="none" stroke="black" points="770,-44.7317 770,-65.7317 908,-65.7317 908,-44.7317 770,-44.7317"/>
<text text-anchor="middle" x="839" y="-52.7317" font-family="Helvetica,sans-Serif" font-size="10.00">stxxl::lru_pager&lt; npages_ &gt;</text>
</a>
</g>
<!-- Node2&#45;&gt;Node12 -->
<g id="edge38" class="edge"><title>Node2&#45;&gt;Node12</title>
<path fill="none" stroke="#8b1a1a" d="M66.368,-139.902C76.5796,-110.808 99.4816,-57.7731 138,-30.2317 179.411,-0.622001 199.375,-11.5949 250,-6.23168 449.231,14.875 687.181,-24.7178 788.894,-44.6974"/>
<polygon fill="#8b1a1a" stroke="#8b1a1a" points="63.0285,-138.853 63.1746,-149.447 69.6668,-141.074 63.0285,-138.853"/>
</g>
<!-- Node13 -->
<g id="node32" class="node"><title>Node13</title>
<a xlink:href="classstxxl_1_1simple__vector.html" target="_top" xlink:title="stxxl::simple_vector\l\&lt; list_type::iterator \&gt;">
<polygon fill="none" stroke="black" points="556.5,-38.2317 556.5,-72.2317 663.5,-72.2317 663.5,-38.2317 556.5,-38.2317"/>
<text text-anchor="start" x="564.5" y="-59.2317" font-family="Helvetica,sans-Serif" font-size="10.00">stxxl::simple_vector</text>
<text text-anchor="middle" x="610" y="-46.2317" font-family="Helvetica,sans-Serif" font-size="10.00">&lt; list_type::iterator &gt;</text>
</a>
</g>
<!-- Node2&#45;&gt;Node13 -->
<g id="edge42" class="edge"><title>Node2&#45;&gt;Node13</title>
<path fill="none" stroke="#8b1a1a" d="M93.9291,-145.964C107.45,-140.717 123.274,-135.115 138,-131.232 216.351,-110.573 449.75,-77.2173 556.112,-62.5498"/>
<polygon fill="#8b1a1a" stroke="#8b1a1a" points="92.5419,-142.749 84.5396,-149.693 95.1254,-149.255 92.5419,-142.749"/>
</g>
<!-- Node14 -->
<g id="node35" class="node"><title>Node14</title>
<a xlink:href="classstxxl_1_1simple__vector.html" target="_top" xlink:title="Simpler non&#45;growing vector without initialization. ">
<polygon fill="none" stroke="black" points="271,-15.2317 271,-49.2317 375,-49.2317 375,-15.2317 271,-15.2317"/>
<text text-anchor="start" x="279" y="-36.2317" font-family="Helvetica,sans-Serif" font-size="10.00">stxxl::simple_vector</text>
<text text-anchor="middle" x="323" y="-23.2317" font-family="Helvetica,sans-Serif" font-size="10.00">&lt; ValueType &gt;</text>
</a>
</g>
<!-- Node2&#45;&gt;Node14 -->
<g id="edge46" class="edge"><title>Node2&#45;&gt;Node14</title>
<path fill="none" stroke="#8b1a1a" d="M69.9854,-140.629C82.5898,-118.045 106.488,-81.6862 138,-63.2317 178.466,-39.5335 231.943,-32.6871 270.99,-31.2326"/>
<polygon fill="#8b1a1a" stroke="#8b1a1a" points="66.7903,-139.181 65.1436,-149.647 72.9576,-142.492 66.7903,-139.181"/>
</g>
<!-- Node3 -->
<g id="node4" class="node"><title>Node3</title>
<a xlink:href="classstxxl_1_1block__manager.html" target="_top" xlink:title="Block manager class. ">
<polygon fill="none" stroke="black" points="1190,-220.732 1190,-241.732 1300,-241.732 1300,-220.732 1190,-220.732"/>
<text text-anchor="middle" x="1245" y="-228.732" font-family="Helvetica,sans-Serif" font-size="10.00">stxxl::block_manager</text>
</a>
</g>
<!-- Node3&#45;&gt;Node1 -->
<g id="edge4" class="edge"><title>Node3&#45;&gt;Node1</title>
<path fill="none" stroke="#9a32cd" stroke-dasharray="5,2" d="M1310.21,-231.232C1328.59,-231.232 1348.85,-231.232 1368.12,-231.232"/>
<polygon fill="#9a32cd" stroke="#9a32cd" points="1310.2,-227.732 1300.2,-231.232 1310.2,-234.732 1310.2,-227.732"/>
<text text-anchor="middle" x="1334" y="-235.232" font-family="Helvetica,sans-Serif" font-size="10.00"> m_bm</text>
</g>
<!-- Node4&#45;&gt;Node3 -->
<g id="edge6" class="edge"><title>Node4&#45;&gt;Node3</title>
<path fill="none" stroke="midnightblue" d="M677.706,-165.122C804.157,-179.858 1073.89,-211.292 1189.99,-224.821"/>
<polygon fill="midnightblue" stroke="midnightblue" points="678.091,-161.643 667.753,-163.962 677.281,-168.596 678.091,-161.643"/>
</g>
<!-- Node5&#45;&gt;Node4 -->
<g id="edge10" class="edge"><title>Node5&#45;&gt;Node4</title>
<path fill="none" stroke="orange" stroke-dasharray="5,2" d="M406.299,-159.361C453.153,-158.871 510.464,-158.272 552.347,-157.834"/>
<polygon fill="orange" stroke="orange" points="406.128,-155.862 396.165,-159.467 406.201,-162.862 406.128,-155.862"/>
<text text-anchor="middle" x="474" y="-163.232" font-family="Helvetica,sans-Serif" font-size="10.00"> &lt; block_manager &gt;</text>
</g>
<!-- Node6&#45;&gt;Node3 -->
<g id="edge14" class="edge"><title>Node6&#45;&gt;Node3</title>
<path fill="none" stroke="#9a32cd" stroke-dasharray="5,2" d="M877.246,-235.761C949.428,-234.872 1105.99,-232.944 1189.65,-231.913"/>
<polygon fill="#9a32cd" stroke="#9a32cd" points="877.183,-232.261 867.227,-235.884 877.269,-239.261 877.183,-232.261"/>
<text text-anchor="middle" x="1032" y="-238.232" font-family="Helvetica,sans-Serif" font-size="10.00"> disk_files</text>
</g>
<!-- Node6&#45;&gt;Node11 -->
<g id="edge32" class="edge"><title>Node6&#45;&gt;Node11</title>
<path fill="none" stroke="#9a32cd" stroke-dasharray="5,2" d="M877.277,-245.047C901.575,-250.695 933.668,-258.25 962,-265.232 971.625,-267.604 981.976,-270.226 991.688,-272.718"/>
<polygon fill="#9a32cd" stroke="#9a32cd" points="877.906,-241.6 867.374,-242.751 876.325,-248.419 877.906,-241.6"/>
<text text-anchor="middle" x="944" y="-269.232" font-family="Helvetica,sans-Serif" font-size="10.00"> storage</text>
</g>
<!-- Node7 -->
<g id="node15" class="node"><title>Node7</title>
<a xlink:href="classstxxl_1_1atomic__counted__object.html" target="_top" xlink:title="Provides reference counting abilities for use with counting_ptr with mutex locking. ">
<polygon fill="none" stroke="black" points="553.5,-230.232 553.5,-264.232 666.5,-264.232 666.5,-230.232 553.5,-230.232"/>
<text text-anchor="start" x="561.5" y="-251.232" font-family="Helvetica,sans-Serif" font-size="10.00">stxxl::atomic_counted</text>
<text text-anchor="middle" x="610" y="-238.232" font-family="Helvetica,sans-Serif" font-size="10.00">_object</text>
</a>
</g>
<!-- Node7&#45;&gt;Node6 -->
<g id="edge18" class="edge"><title>Node7&#45;&gt;Node6</title>
<path fill="none" stroke="#9a32cd" stroke-dasharray="5,2" d="M676.789,-244.023C721.344,-241.883 777.637,-239.179 810.838,-237.584"/>
<polygon fill="#9a32cd" stroke="#9a32cd" points="676.427,-240.537 666.607,-244.513 676.763,-247.529 676.427,-240.537"/>
<text text-anchor="middle" x="719" y="-247.232" font-family="Helvetica,sans-Serif" font-size="10.00"> m_request_ref</text>
</g>
<!-- Node8&#45;&gt;Node7 -->
<g id="edge20" class="edge"><title>Node8&#45;&gt;Node7</title>
<path fill="none" stroke="#9a32cd" stroke-dasharray="5,2" d="M368.996,-247.232C419.167,-247.232 499.509,-247.232 553.484,-247.232"/>
<polygon fill="#9a32cd" stroke="#9a32cd" points="368.768,-243.732 358.768,-247.232 368.768,-250.732 368.768,-243.732"/>
<text text-anchor="middle" x="474" y="-251.232" font-family="Helvetica,sans-Serif" font-size="10.00"> m_reference_count_mutex</text>
</g>
<!-- Node8&#45;&gt;Node11 -->
<g id="edge34" class="edge"><title>Node8&#45;&gt;Node11</title>
<path fill="none" stroke="#9a32cd" stroke-dasharray="5,2" d="M368.875,-256.907C383.264,-259.644 399.243,-262.379 414,-264.232 622.219,-290.375 872.831,-287.669 979.654,-284.93"/>
<polygon fill="#9a32cd" stroke="#9a32cd" points="369.203,-253.405 358.718,-254.927 367.863,-260.276 369.203,-253.405"/>
<text text-anchor="middle" x="719" y="-289.232" font-family="Helvetica,sans-Serif" font-size="10.00"> mutex</text>
</g>
<!-- Node9 -->
<g id="node20" class="node"><title>Node9</title>
<a xlink:href="structstxxl_1_1choose__int__types.html" target="_top" xlink:title="stxxl::choose_int_types\l\&lt; my_pointer_size \&gt;">
<polygon fill="none" stroke="black" points="263,-396.232 263,-430.232 383,-430.232 383,-396.232 263,-396.232"/>
<text text-anchor="start" x="271" y="-417.232" font-family="Helvetica,sans-Serif" font-size="10.00">stxxl::choose_int_types</text>
<text text-anchor="middle" x="323" y="-404.232" font-family="Helvetica,sans-Serif" font-size="10.00">&lt; my_pointer_size &gt;</text>
</a>
</g>
<!-- Node9&#45;&gt;Node7 -->
<g id="edge24" class="edge"><title>Node9&#45;&gt;Node7</title>
<path fill="none" stroke="#9a32cd" stroke-dasharray="5,2" d="M361.501,-390.963C419.568,-357.377 528.305,-294.484 580.528,-264.278"/>
<polygon fill="#9a32cd" stroke="#9a32cd" points="359.537,-388.055 352.633,-396.092 363.042,-394.115 359.537,-388.055"/>
<text text-anchor="middle" x="474" y="-363.232" font-family="Helvetica,sans-Serif" font-size="10.00"> m_reference_count</text>
</g>
<!-- Node10 -->
<g id="node22" class="node"><title>Node10</title>
<a xlink:href="structstxxl_1_1choose__int__types.html" target="_top" xlink:title="stxxl::choose_int_types\l\&lt; PtrSize \&gt;">
<polygon fill="none" stroke="black" points="0,-396.232 0,-430.232 120,-430.232 120,-396.232 0,-396.232"/>
<text text-anchor="start" x="8" y="-417.232" font-family="Helvetica,sans-Serif" font-size="10.00">stxxl::choose_int_types</text>
<text text-anchor="middle" x="60" y="-404.232" font-family="Helvetica,sans-Serif" font-size="10.00">&lt; PtrSize &gt;</text>
</a>
</g>
<!-- Node10&#45;&gt;Node9 -->
<g id="edge26" class="edge"><title>Node10&#45;&gt;Node9</title>
<path fill="none" stroke="orange" stroke-dasharray="5,2" d="M130.017,-413.232C171.397,-413.232 223.258,-413.232 262.795,-413.232"/>
<polygon fill="orange" stroke="orange" points="130.008,-409.732 120.008,-413.232 130.008,-416.732 130.008,-409.732"/>
<text text-anchor="middle" x="185" y="-417.232" font-family="Helvetica,sans-Serif" font-size="10.00"> &lt; my_pointer_size &gt;</text>
</g>
<!-- Node11&#45;&gt;Node3 -->
<g id="edge28" class="edge"><title>Node11&#45;&gt;Node3</title>
<path fill="none" stroke="#9a32cd" stroke-dasharray="5,2" d="M1084.97,-270.301C1121.04,-261.493 1168.2,-249.981 1201.96,-241.739"/>
<polygon fill="#9a32cd" stroke="#9a32cd" points="1083.99,-266.937 1075.1,-272.709 1085.65,-273.737 1083.99,-266.937"/>
<text text-anchor="middle" x="1137" y="-268.232" font-family="Helvetica,sans-Serif" font-size="10.00"> disk_allocators</text>
</g>
<!-- Node12&#45;&gt;Node1 -->
<g id="edge36" class="edge"><title>Node12&#45;&gt;Node1</title>
<path fill="none" stroke="#9a32cd" stroke-dasharray="5,2" d="M885.7,-68.6619C995.534,-100.248 1270.09,-179.206 1391.58,-214.142"/>
<polygon fill="#9a32cd" stroke="#9a32cd" points="886.483,-65.2451 875.905,-65.8449 884.548,-71.9725 886.483,-65.2451"/>
<text text-anchor="middle" x="1137" y="-153.232" font-family="Helvetica,sans-Serif" font-size="10.00"> m_pager</text>
</g>
<!-- Node13&#45;&gt;Node12 -->
<g id="edge40" class="edge"><title>Node13&#45;&gt;Node12</title>
<path fill="none" stroke="#9a32cd" stroke-dasharray="5,2" d="M673.96,-55.2317C703.716,-55.2317 739.169,-55.2317 769.575,-55.2317"/>
<polygon fill="#9a32cd" stroke="#9a32cd" points="673.69,-51.7318 663.69,-55.2317 673.69,-58.7318 673.69,-51.7318"/>
<text text-anchor="middle" x="719" y="-59.2317" font-family="Helvetica,sans-Serif" font-size="10.00"> history_entry</text>
</g>
<!-- Node14&#45;&gt;Node13 -->
<g id="edge44" class="edge"><title>Node14&#45;&gt;Node13</title>
<path fill="none" stroke="orange" stroke-dasharray="5,2" d="M385.533,-37.243C436.474,-41.3254 507.651,-47.0295 556.105,-50.9126"/>
<polygon fill="orange" stroke="orange" points="385.554,-33.7336 375.307,-36.4235 384.995,-40.7112 385.554,-33.7336"/>
<text text-anchor="middle" x="474" y="-52.2317" font-family="Helvetica,sans-Serif" font-size="10.00"> &lt; list_type::iterator &gt;</text>
</g>
</g>
</svg>
