<?xml version="1.0" encoding="UTF-8" standalone="no"?>
<!DOCTYPE svg PUBLIC "-//W3C//DTD SVG 1.1//EN"
 "http://www.w3.org/Graphics/SVG/1.1/DTD/svg11.dtd">
<!-- Generated by graphviz version 2.38.0 (20140413.2041)
 -->
<!-- Title: stxxl::mng_local::block_w_bids&lt; Type, Size, RawSize, NBids &gt; Pages: 1 -->
<svg width="465pt" height="496pt"
 viewBox="0.00 0.00 465.00 496.00" xmlns="http://www.w3.org/2000/svg" xmlns:xlink="http://www.w3.org/1999/xlink">
<g id="graph0" class="graph" transform="scale(1 1) rotate(0) translate(4 492)">
<title>stxxl::mng_local::block_w_bids&lt; Type, Size, RawSize, NBids &gt;</title>
<!-- Node1 -->
<g id="node1" class="node"><title>Node1</title>
<polygon fill="#bfbfbf" stroke="black" points="28,-0.5 28,-41.5 186,-41.5 186,-0.5 28,-0.5"/>
<text text-anchor="start" x="36" y="-29.5" font-family="Helvetica,sans-Serif" font-size="10.00">stxxl::mng_local::block</text>
<text text-anchor="start" x="36" y="-18.5" font-family="Helvetica,sans-Serif" font-size="10.00">_w_bids&lt; Type, Size, RawSize,</text>
<text text-anchor="middle" x="107" y="-7.5" font-family="Helvetica,sans-Serif" font-size="10.00"> NBids &gt;</text>
</g>
<!-- Node2 -->
<g id="node2" class="node"><title>Node2</title>
<g id="a_node2"><a xlink:href="classstxxl_1_1mng__local_1_1element__block.html" target="_top" xlink:title="Contains data elements for stxxl::typed_block , not intended for direct use. ">
<polygon fill="none" stroke="black" points="0,-89.5 0,-119.5 128,-119.5 128,-89.5 0,-89.5"/>
<text text-anchor="start" x="8" y="-107.5" font-family="Helvetica,sans-Serif" font-size="10.00">stxxl::mng_local::element</text>
<text text-anchor="middle" x="64" y="-96.5" font-family="Helvetica,sans-Serif" font-size="10.00">_block&lt; Type, Size &gt;</text>
</a>
</g>
</g>
<!-- Node2&#45;&gt;Node1 -->
<g id="edge1" class="edge"><title>Node2&#45;&gt;Node1</title>
<path fill="none" stroke="midnightblue" d="M76.3132,-80.1622C82.7629,-67.9377 90.5711,-53.1386 96.697,-41.5278"/>
<polygon fill="midnightblue" stroke="midnightblue" points="73.0609,-78.826 71.49,-89.3038 79.2521,-82.0926 73.0609,-78.826"/>
</g>
<!-- Node3 -->
<g id="node3" class="node"><title>Node3</title>
<g id="a_node3"><a xlink:href="structstxxl_1_1BID.html" target="_top" xlink:title="stxxl::BID\&lt; raw_size \&gt;">
<polygon fill="none" stroke="black" points="146,-95 146,-114 264,-114 264,-95 146,-95"/>
<text text-anchor="middle" x="205" y="-102" font-family="Helvetica,sans-Serif" font-size="10.00">stxxl::BID&lt; raw_size &gt;</text>
</a>
</g>
</g>
<!-- Node3&#45;&gt;Node1 -->
<g id="edge2" class="edge"><title>Node3&#45;&gt;Node1</title>
<path fill="none" stroke="#9a32cd" stroke-dasharray="5,2" d="M186.544,-88.1512C170.751,-75.0176 147.918,-56.0288 130.762,-41.7614"/>
<polygon fill="#9a32cd" stroke="#9a32cd" points="184.586,-91.0749 194.512,-94.7781 189.062,-85.6929 184.586,-91.0749"/>
<text text-anchor="middle" x="172.5" y="-63" font-family="Helvetica,sans-Serif" font-size="10.00"> ref</text>
</g>
<!-- Node4 -->
<g id="node4" class="node"><title>Node4</title>
<g id="a_node4"><a xlink:href="classstxxl_1_1file.html" target="_top" xlink:title="Defines interface of file. ">
<polygon fill="none" stroke="black" points="159,-234.5 159,-253.5 215,-253.5 215,-234.5 159,-234.5"/>
<text text-anchor="middle" x="187" y="-241.5" font-family="Helvetica,sans-Serif" font-size="10.00">stxxl::file</text>
</a>
</g>
</g>
<!-- Node4&#45;&gt;Node3 -->
<g id="edge3" class="edge"><title>Node4&#45;&gt;Node3</title>
<path fill="none" stroke="#9a32cd" stroke-dasharray="5,2" d="M182.411,-224.632C179.232,-209.147 176.195,-186.464 180,-167 183.848,-147.318 194.014,-125.98 200.132,-114.329"/>
<polygon fill="#9a32cd" stroke="#9a32cd" points="179.022,-225.513 184.656,-234.486 185.847,-223.958 179.022,-225.513"/>
<text text-anchor="middle" x="198" y="-174.5" font-family="Helvetica,sans-Serif" font-size="10.00"> storage</text>
</g>
<!-- Node10 -->
<g id="node10" class="node"><title>Node10</title>
<g id="a_node10"><a xlink:href="structstxxl_1_1BID.html" target="_top" xlink:title="Block identifier class. ">
<polygon fill="none" stroke="black" points="225,-167.5 225,-186.5 323,-186.5 323,-167.5 225,-167.5"/>
<text text-anchor="middle" x="274" y="-174.5" font-family="Helvetica,sans-Serif" font-size="10.00">stxxl::BID&lt; Size &gt;</text>
</a>
</g>
</g>
<!-- Node4&#45;&gt;Node10 -->
<g id="edge11" class="edge"><title>Node4&#45;&gt;Node10</title>
<path fill="none" stroke="#9a32cd" stroke-dasharray="5,2" d="M206.986,-228.068C224.159,-215.238 248.321,-197.185 262.453,-186.627"/>
<polygon fill="#9a32cd" stroke="#9a32cd" points="204.649,-225.445 198.733,-234.234 208.839,-231.052 204.649,-225.445"/>
<text text-anchor="middle" x="253" y="-208" font-family="Helvetica,sans-Serif" font-size="10.00"> storage</text>
</g>
<!-- Node5 -->
<g id="node5" class="node"><title>Node5</title>
<g id="a_node5"><a xlink:href="classstxxl_1_1noncopyable.html" target="_top" xlink:title="stxxl::noncopyable">
<polygon fill="none" stroke="black" points="132,-463 132,-482 230,-482 230,-463 132,-463"/>
<text text-anchor="middle" x="181" y="-470" font-family="Helvetica,sans-Serif" font-size="10.00">stxxl::noncopyable</text>
</a>
</g>
</g>
<!-- Node5&#45;&gt;Node4 -->
<g id="edge4" class="edge"><title>Node5&#45;&gt;Node4</title>
<path fill="none" stroke="#8b1a1a" d="M179.186,-452.64C176.464,-421.154 172.135,-355.92 177,-301 178.499,-284.08 182.498,-264.617 184.961,-253.666"/>
<polygon fill="#8b1a1a" stroke="#8b1a1a" points="175.733,-453.322 180.128,-462.963 182.704,-452.686 175.733,-453.322"/>
</g>
<!-- Node7 -->
<g id="node7" class="node"><title>Node7</title>
<g id="a_node7"><a xlink:href="classstxxl_1_1mutex.html" target="_top" xlink:title="stxxl::mutex">
<polygon fill="none" stroke="black" points="186.5,-385 186.5,-404 257.5,-404 257.5,-385 186.5,-385"/>
<text text-anchor="middle" x="222" y="-392" font-family="Helvetica,sans-Serif" font-size="10.00">stxxl::mutex</text>
</a>
</g>
</g>
<!-- Node5&#45;&gt;Node7 -->
<g id="edge7" class="edge"><title>Node5&#45;&gt;Node7</title>
<path fill="none" stroke="#8b1a1a" d="M190.645,-453.622C199.056,-438.03 210.894,-416.086 217.352,-404.116"/>
<polygon fill="#8b1a1a" stroke="#8b1a1a" points="187.371,-452.319 185.703,-462.782 193.532,-455.643 187.371,-452.319"/>
</g>
<!-- Node6 -->
<g id="node6" class="node"><title>Node6</title>
<g id="a_node6"><a xlink:href="classstxxl_1_1atomic__counted__object.html" target="_top" xlink:title="Provides reference counting abilities for use with counting_ptr with mutex locking. ">
<polygon fill="none" stroke="black" points="186.5,-301.5 186.5,-331.5 299.5,-331.5 299.5,-301.5 186.5,-301.5"/>
<text text-anchor="start" x="194.5" y="-319.5" font-family="Helvetica,sans-Serif" font-size="10.00">stxxl::atomic_counted</text>
<text text-anchor="middle" x="243" y="-308.5" font-family="Helvetica,sans-Serif" font-size="10.00">_object</text>
</a>
</g>
</g>
<!-- Node6&#45;&gt;Node4 -->
<g id="edge5" class="edge"><title>Node6&#45;&gt;Node4</title>
<path fill="none" stroke="#9a32cd" stroke-dasharray="5,2" d="M225.433,-293.385C214.83,-280.036 201.898,-263.756 194.064,-253.893"/>
<polygon fill="#9a32cd" stroke="#9a32cd" points="222.707,-295.58 231.668,-301.233 228.188,-291.226 222.707,-295.58"/>
<text text-anchor="middle" x="250" y="-275" font-family="Helvetica,sans-Serif" font-size="10.00"> m_request_ref</text>
</g>
<!-- Node7&#45;&gt;Node6 -->
<g id="edge6" class="edge"><title>Node7&#45;&gt;Node6</title>
<path fill="none" stroke="#9a32cd" stroke-dasharray="5,2" d="M220.302,-374.72C220.141,-366.929 220.67,-357.885 223,-350 224.915,-343.519 228.479,-337.044 232.074,-331.597"/>
<polygon fill="#9a32cd" stroke="#9a32cd" points="216.823,-375.181 220.903,-384.959 223.811,-374.771 216.823,-375.181"/>
<text text-anchor="middle" x="282.5" y="-353" font-family="Helvetica,sans-Serif" font-size="10.00"> m_reference_count_mutex</text>
</g>
<!-- Node8 -->
<g id="node8" class="node"><title>Node8</title>
<g id="a_node8"><a xlink:href="structstxxl_1_1choose__int__types.html" target="_top" xlink:title="stxxl::choose_int_types\l\&lt; my_pointer_size \&gt;">
<polygon fill="none" stroke="black" points="304,-379.5 304,-409.5 424,-409.5 424,-379.5 304,-379.5"/>
<text text-anchor="start" x="312" y="-397.5" font-family="Helvetica,sans-Serif" font-size="10.00">stxxl::choose_int_types</text>
<text text-anchor="middle" x="364" y="-386.5" font-family="Helvetica,sans-Serif" font-size="10.00">&lt; my_pointer_size &gt;</text>
</a>
</g>
</g>
<!-- Node8&#45;&gt;Node6 -->
<g id="edge8" class="edge"><title>Node8&#45;&gt;Node6</title>
<path fill="none" stroke="#9a32cd" stroke-dasharray="5,2" d="M356.062,-369.714C352.687,-362.562 348.09,-355.233 342,-350 329.995,-339.684 314.631,-332.623 299.606,-327.797"/>
<polygon fill="#9a32cd" stroke="#9a32cd" points="352.898,-371.223 359.932,-379.145 359.374,-368.565 352.898,-371.223"/>
<text text-anchor="middle" x="393.5" y="-353" font-family="Helvetica,sans-Serif" font-size="10.00"> m_reference_count</text>
</g>
<!-- Node9 -->
<g id="node9" class="node"><title>Node9</title>
<g id="a_node9"><a xlink:href="structstxxl_1_1choose__int__types.html" target="_top" xlink:title="stxxl::choose_int_types\l\&lt; PtrSize \&gt;">
<polygon fill="none" stroke="black" points="304,-457.5 304,-487.5 424,-487.5 424,-457.5 304,-457.5"/>
<text text-anchor="start" x="312" y="-475.5" font-family="Helvetica,sans-Serif" font-size="10.00">stxxl::choose_int_types</text>
<text text-anchor="middle" x="364" y="-464.5" font-family="Helvetica,sans-Serif" font-size="10.00">&lt; PtrSize &gt;</text>
</a>
</g>
</g>
<!-- Node9&#45;&gt;Node8 -->
<g id="edge9" class="edge"><title>Node9&#45;&gt;Node8</title>
<path fill="none" stroke="orange" stroke-dasharray="5,2" d="M364,-447.09C364,-434.757 364,-420.224 364,-409.731"/>
<polygon fill="orange" stroke="orange" points="360.5,-447.205 364,-457.205 367.5,-447.205 360.5,-447.205"/>
<text text-anchor="middle" x="410.5" y="-431" font-family="Helvetica,sans-Serif" font-size="10.00"> &lt; my_pointer_size &gt;</text>
</g>
<!-- Node10&#45;&gt;Node3 -->
<g id="edge10" class="edge"><title>Node10&#45;&gt;Node3</title>
<path fill="none" stroke="orange" stroke-dasharray="5,2" d="M258.528,-160.192C244.631,-145.993 224.74,-125.669 213.53,-114.215"/>
<polygon fill="orange" stroke="orange" points="256.043,-162.657 265.539,-167.355 261.046,-157.76 256.043,-162.657"/>
<text text-anchor="middle" x="275.5" y="-141" font-family="Helvetica,sans-Serif" font-size="10.00"> &lt; raw_size &gt;</text>
</g>
</g>
</svg>
