<?xml version="1.0" encoding="UTF-8" standalone="no"?>
<!DOCTYPE svg PUBLIC "-//W3C//DTD SVG 1.1//EN"
 "http://www.w3.org/Graphics/SVG/1.1/DTD/svg11.dtd">
<!-- Generated by graphviz version 2.38.0 (20140413.2041)
 -->
<!-- Title: stxxl::lru_pager&lt; npages_ &gt; Pages: 1 -->
<svg width="245pt" height="241pt"
 viewBox="0.00 0.00 245.00 241.00" xmlns="http://www.w3.org/2000/svg" xmlns:xlink="http://www.w3.org/1999/xlink">
<g id="graph0" class="graph" transform="scale(1 1) rotate(0) translate(4 237)">
<title>stxxl::lru_pager&lt; npages_ &gt;</title>
<!-- Node1 -->
<g id="node1" class="node"><title>Node1</title>
<polygon fill="#bfbfbf" stroke="black" points="0,-0.5 0,-19.5 138,-19.5 138,-0.5 0,-0.5"/>
<text text-anchor="middle" x="69" y="-7.5" font-family="Helvetica,sans-Serif" font-size="10.00">stxxl::lru_pager&lt; npages_ &gt;</text>
</g>
<!-- Node2 -->
<g id="node2" class="node"><title>Node2</title>
<g id="a_node2"><a xlink:href="classstxxl_1_1noncopyable.html" target="_top" xlink:title="stxxl::noncopyable">
<polygon fill="none" stroke="black" points="30,-213.5 30,-232.5 128,-232.5 128,-213.5 30,-213.5"/>
<text text-anchor="middle" x="79" y="-220.5" font-family="Helvetica,sans-Serif" font-size="10.00">stxxl::noncopyable</text>
</a>
</g>
</g>
<!-- Node2&#45;&gt;Node1 -->
<g id="edge1" class="edge"><title>Node2&#45;&gt;Node1</title>
<path fill="none" stroke="#8b1a1a" d="M74.2541,-203.319C67.4249,-174.247 56.0568,-116.386 60,-67 61.348,-50.1169 64.9474,-30.6412 67.1643,-19.678"/>
<polygon fill="#8b1a1a" stroke="#8b1a1a" points="70.9156,-204.402 76.6873,-213.286 77.716,-202.742 70.9156,-204.402"/>
</g>
<!-- Node3 -->
<g id="node3" class="node"><title>Node3</title>
<g id="a_node3"><a xlink:href="classstxxl_1_1simple__vector.html" target="_top" xlink:title="stxxl::simple_vector\l\&lt; list_type::iterator \&gt;">
<polygon fill="none" stroke="black" points="69.5,-67.5 69.5,-97.5 176.5,-97.5 176.5,-67.5 69.5,-67.5"/>
<text text-anchor="start" x="77.5" y="-85.5" font-family="Helvetica,sans-Serif" font-size="10.00">stxxl::simple_vector</text>
<text text-anchor="middle" x="123" y="-74.5" font-family="Helvetica,sans-Serif" font-size="10.00">&lt; list_type::iterator &gt;</text>
</a>
</g>
</g>
<!-- Node2&#45;&gt;Node3 -->
<g id="edge3" class="edge"><title>Node2&#45;&gt;Node3</title>
<path fill="none" stroke="#8b1a1a" d="M82.8161,-203.328C86.2177,-187.602 91.6346,-164.601 98,-145 103.34,-128.557 111.005,-110.269 116.437,-97.943"/>
<polygon fill="#8b1a1a" stroke="#8b1a1a" points="79.3434,-202.834 80.7106,-213.341 86.1936,-204.275 79.3434,-202.834"/>
</g>
<!-- Node4 -->
<g id="node4" class="node"><title>Node4</title>
<g id="a_node4"><a xlink:href="classstxxl_1_1simple__vector.html" target="_top" xlink:title="Simpler non&#45;growing vector without initialization. ">
<polygon fill="none" stroke="black" points="107,-145.5 107,-175.5 211,-175.5 211,-145.5 107,-145.5"/>
<text text-anchor="start" x="115" y="-163.5" font-family="Helvetica,sans-Serif" font-size="10.00">stxxl::simple_vector</text>
<text text-anchor="middle" x="159" y="-152.5" font-family="Helvetica,sans-Serif" font-size="10.00">&lt; ValueType &gt;</text>
</a>
</g>
</g>
<!-- Node2&#45;&gt;Node4 -->
<g id="edge5" class="edge"><title>Node2&#45;&gt;Node4</title>
<path fill="none" stroke="#8b1a1a" d="M98.5973,-207.18C111.36,-197.528 127.906,-185.015 140.453,-175.526"/>
<polygon fill="#8b1a1a" stroke="#8b1a1a" points="96.3269,-204.508 90.462,-213.332 100.549,-210.092 96.3269,-204.508"/>
</g>
<!-- Node3&#45;&gt;Node1 -->
<g id="edge2" class="edge"><title>Node3&#45;&gt;Node1</title>
<path fill="none" stroke="#9a32cd" stroke-dasharray="5,2" d="M105.771,-59.006C95.6014,-45.7295 83.2948,-29.6626 75.8118,-19.8932"/>
<polygon fill="#9a32cd" stroke="#9a32cd" points="103.213,-61.4228 112.072,-67.2333 108.77,-57.1662 103.213,-61.4228"/>
<text text-anchor="middle" x="128" y="-41" font-family="Helvetica,sans-Serif" font-size="10.00"> history_entry</text>
</g>
<!-- Node4&#45;&gt;Node3 -->
<g id="edge4" class="edge"><title>Node4&#45;&gt;Node3</title>
<path fill="none" stroke="orange" stroke-dasharray="5,2" d="M147.79,-135.834C141.874,-123.345 134.812,-108.436 129.741,-97.7309"/>
<polygon fill="orange" stroke="orange" points="144.785,-137.666 152.229,-145.205 151.111,-134.669 144.785,-137.666"/>
<text text-anchor="middle" x="190" y="-119" font-family="Helvetica,sans-Serif" font-size="10.00"> &lt; list_type::iterator &gt;</text>
</g>
</g>
</svg>
