<?xml version="1.0" encoding="UTF-8" standalone="no"?>
<!DOCTYPE svg PUBLIC "-//W3C//DTD SVG 1.1//EN"
 "http://www.w3.org/Graphics/SVG/1.1/DTD/svg11.dtd">
<!-- Generated by graphviz version 2.26.3 (20100126.1600)
 -->
<!-- Title: stxxl::btree::node_cache&lt; NodeType, BTreeType &gt; Pages: 1 -->
<svg width="614pt" height="94pt"
 viewBox="0.00 0.00 614.00 94.00" xmlns="http://www.w3.org/2000/svg" xmlns:xlink="http://www.w3.org/1999/xlink">
<g id="graph1" class="graph" transform="scale(1 1) rotate(0) translate(4 90)">
<title>stxxl::btree::node_cache&lt; NodeType, BTreeType &gt;</title>
<!-- Node1 -->
<g id="node1" class="node"><title>Node1</title>
<polygon fill="#bfbfbf" stroke="black" points="136.5,-26 136.5,-60 301.5,-60 301.5,-26 136.5,-26"/>
<text text-anchor="start" x="144.5" y="-47" font-family="Helvetica,sans-Serif" font-size="10.00">stxxl::btree::node</text>
<text text-anchor="middle" x="219" y="-34" font-family="Helvetica,sans-Serif" font-size="10.00">_cache&lt; NodeType, BTreeType &gt;</text>
</g>
<!-- Node3 -->
<g id="node5" class="node"><title>Node3</title>
<a xlink:href="classstxxl_1_1btree_1_1node__cache.html" target="_top" xlink:title="stxxl::btree::node\l_cache\&lt; node_type, SelfType \&gt;">
<polygon fill="none" stroke="black" points="450,-52 450,-86 606,-86 606,-52 450,-52"/>
<text text-anchor="start" x="458" y="-73" font-family="Helvetica,sans-Serif" font-size="10.00">stxxl::btree::node</text>
<text text-anchor="middle" x="528" y="-60" font-family="Helvetica,sans-Serif" font-size="10.00">_cache&lt; node_type, SelfType &gt;</text>
</a>
</g>
<!-- Node1&#45;&gt;Node3 -->
<g id="edge4" class="edge"><title>Node1&#45;&gt;Node3</title>
<path fill="none" stroke="orange" stroke-dasharray="5,2" d="M311.929,-50.8192C355.9,-54.5191 407.827,-58.8884 449.755,-62.4163"/>
<polygon fill="orange" stroke="orange" points="312.065,-47.3184 301.806,-49.9675 311.478,-54.2937 312.065,-47.3184"/>
<text text-anchor="middle" x="376" y="-64" font-family="Helvetica,sans-Serif" font-size="10.00"> &lt; node_type, SelfType &gt;</text>
</g>
<!-- Node4 -->
<g id="node7" class="node"><title>Node4</title>
<a xlink:href="classstxxl_1_1btree_1_1node__cache.html" target="_top" xlink:title="stxxl::btree::node\l_cache\&lt; leaf_type, SelfType \&gt;">
<polygon fill="none" stroke="black" points="452.5,-0 452.5,-34 603.5,-34 603.5,-0 452.5,-0"/>
<text text-anchor="start" x="460.5" y="-21" font-family="Helvetica,sans-Serif" font-size="10.00">stxxl::btree::node</text>
<text text-anchor="middle" x="528" y="-8" font-family="Helvetica,sans-Serif" font-size="10.00">_cache&lt; leaf_type, SelfType &gt;</text>
</a>
</g>
<!-- Node1&#45;&gt;Node4 -->
<g id="edge6" class="edge"><title>Node1&#45;&gt;Node4</title>
<path fill="none" stroke="orange" stroke-dasharray="5,2" d="M311.845,-35.1878C356.757,-31.4088 409.983,-26.9303 452.379,-23.3629"/>
<polygon fill="orange" stroke="orange" points="311.478,-31.7062 301.806,-36.0325 312.065,-38.6816 311.478,-31.7062"/>
<text text-anchor="middle" x="376" y="-38" font-family="Helvetica,sans-Serif" font-size="10.00"> &lt; leaf_type, SelfType &gt;</text>
</g>
<!-- Node2 -->
<g id="node2" class="node"><title>Node2</title>
<a xlink:href="classstxxl_1_1noncopyable.html" target="_top" xlink:title="stxxl::noncopyable">
<polygon fill="none" stroke="black" points="0,-32.5 0,-53.5 98,-53.5 98,-32.5 0,-32.5"/>
<text text-anchor="middle" x="49" y="-40.5" font-family="Helvetica,sans-Serif" font-size="10.00">stxxl::noncopyable</text>
</a>
</g>
<!-- Node2&#45;&gt;Node1 -->
<g id="edge2" class="edge"><title>Node2&#45;&gt;Node1</title>
<path fill="none" stroke="#8b1a1a" d="M108.22,-43C117.306,-43 126.825,-43 136.307,-43"/>
<polygon fill="#8b1a1a" stroke="#8b1a1a" points="108.171,-39.5001 98.171,-43 108.171,-46.5001 108.171,-39.5001"/>
</g>
</g>
</svg>
