<?xml version="1.0" encoding="UTF-8" standalone="no"?>
<!DOCTYPE svg PUBLIC "-//W3C//DTD SVG 1.1//EN"
 "http://www.w3.org/Graphics/SVG/1.1/DTD/svg11.dtd">
<!-- Generated by graphviz version 2.26.3 (20100126.1600)
 -->
<!-- Title: stxxl::stream::sort&lt; Input, CompareType, BlockSize, AllocStr, RunsCreatorType &gt; Pages: 1 -->
<svg width="1948pt" height="498pt"
 viewBox="0.00 0.00 1948.00 498.00" xmlns="http://www.w3.org/2000/svg" xmlns:xlink="http://www.w3.org/1999/xlink">
<g id="graph1" class="graph" transform="scale(1 1) rotate(0) translate(4 494)">
<title>stxxl::stream::sort&lt; Input, CompareType, BlockSize, AllocStr, RunsCreatorType &gt;</title>
<!-- Node1 -->
<g id="node1" class="node"><title>Node1</title>
<polygon fill="#bfbfbf" stroke="black" points="1822,-424 1822,-484 1940,-484 1940,-424 1822,-424"/>
<text text-anchor="start" x="1830" y="-471" font-family="Helvetica,sans-Serif" font-size="10.00">stxxl::stream::sort</text>
<text text-anchor="start" x="1830" y="-458" font-family="Helvetica,sans-Serif" font-size="10.00">&lt; Input, CompareType,</text>
<text text-anchor="start" x="1830" y="-445" font-family="Helvetica,sans-Serif" font-size="10.00"> BlockSize, AllocStr,</text>
<text text-anchor="middle" x="1881" y="-432" font-family="Helvetica,sans-Serif" font-size="10.00"> RunsCreatorType &gt;</text>
</g>
<!-- Node2 -->
<g id="node2" class="node"><title>Node2</title>
<a xlink:href="classstxxl_1_1noncopyable.html" target="_top" xlink:title="stxxl::noncopyable">
<polygon fill="none" stroke="black" points="6,-296.5 6,-317.5 104,-317.5 104,-296.5 6,-296.5"/>
<text text-anchor="middle" x="55" y="-304.5" font-family="Helvetica,sans-Serif" font-size="10.00">stxxl::noncopyable</text>
</a>
</g>
<!-- Node2&#45;&gt;Node1 -->
<g id="edge2" class="edge"><title>Node2&#45;&gt;Node1</title>
<path fill="none" stroke="midnightblue" d="M62.5391,-327.152C73.2934,-353.345 95.4135,-398.926 128,-426 189.138,-476.795 215.514,-490 295,-490 295,-490 295,-490 1673,-490 1723.76,-490 1780.47,-479.463 1821.85,-469.79"/>
<polygon fill="midnightblue" stroke="midnightblue" points="65.788,-325.85 58.8593,-317.835 59.2774,-328.421 65.788,-325.85"/>
</g>
<!-- Node4 -->
<g id="node6" class="node"><title>Node4</title>
<a xlink:href="classstxxl_1_1stream_1_1basic__runs__merger.html" target="_top" xlink:title="stxxl::stream::basic\l_runs_merger\&lt; sorted\l_runs_type, CompareType,\l AllocStr \&gt;">
<polygon fill="none" stroke="black" points="1298.5,-343 1298.5,-403 1433.5,-403 1433.5,-343 1298.5,-343"/>
<text text-anchor="start" x="1306.5" y="-390" font-family="Helvetica,sans-Serif" font-size="10.00">stxxl::stream::basic</text>
<text text-anchor="start" x="1306.5" y="-377" font-family="Helvetica,sans-Serif" font-size="10.00">_runs_merger&lt; sorted</text>
<text text-anchor="start" x="1306.5" y="-364" font-family="Helvetica,sans-Serif" font-size="10.00">_runs_type, CompareType,</text>
<text text-anchor="middle" x="1366" y="-351" font-family="Helvetica,sans-Serif" font-size="10.00"> AllocStr &gt;</text>
</a>
</g>
<!-- Node2&#45;&gt;Node4 -->
<g id="edge8" class="edge"><title>Node2&#45;&gt;Node4</title>
<path fill="none" stroke="#8b1a1a" d="M68.8257,-325.983C82.2824,-343.325 104.146,-368.68 128,-385 194.004,-430.157 215.027,-452 295,-452 295,-452 295,-452 1071,-452 1151.06,-452 1239.31,-424.515 1298.23,-401.968"/>
<polygon fill="#8b1a1a" stroke="#8b1a1a" points="71.4121,-323.601 62.589,-317.735 65.8285,-327.823 71.4121,-323.601"/>
</g>
<!-- Node5 -->
<g id="node9" class="node"><title>Node5</title>
<a xlink:href="classstxxl_1_1block__prefetcher.html" target="_top" xlink:title="Encapsulates asynchronous prefetching engine. ">
<polygon fill="none" stroke="black" points="721,-218 721,-252 875,-252 875,-218 721,-218"/>
<text text-anchor="start" x="729" y="-239" font-family="Helvetica,sans-Serif" font-size="10.00">stxxl::block_prefetcher</text>
<text text-anchor="middle" x="798" y="-226" font-family="Helvetica,sans-Serif" font-size="10.00">&lt; BlockType, BidIteratorType &gt;</text>
</a>
</g>
<!-- Node2&#45;&gt;Node5 -->
<g id="edge12" class="edge"><title>Node2&#45;&gt;Node5</title>
<path fill="none" stroke="#8b1a1a" d="M76.0789,-289.958C89.9703,-279.717 109.039,-267.456 128,-261 172.795,-245.748 186.807,-254.47 234,-251 410.658,-238.012 454.927,-234.668 632,-230 661.323,-229.227 668.676,-229.267 698,-230 705.385,-230.185 713.075,-230.446 720.764,-230.753"/>
<polygon fill="#8b1a1a" stroke="#8b1a1a" points="73.5764,-287.465 67.751,-296.314 77.8236,-293.029 73.5764,-287.465"/>
</g>
<!-- Node8 -->
<g id="node16" class="node"><title>Node8</title>
<a xlink:href="classstxxl_1_1onoff__switch.html" target="_top" xlink:title="stxxl::onoff_switch">
<polygon fill="none" stroke="black" points="500.5,-251.5 500.5,-272.5 599.5,-272.5 599.5,-251.5 500.5,-251.5"/>
<text text-anchor="middle" x="550" y="-259.5" font-family="Helvetica,sans-Serif" font-size="10.00">stxxl::onoff_switch</text>
</a>
</g>
<!-- Node2&#45;&gt;Node8 -->
<g id="edge20" class="edge"><title>Node2&#45;&gt;Node8</title>
<path fill="none" stroke="#8b1a1a" d="M102.274,-293.717C110.819,-291.41 119.662,-289.085 128,-287 174.861,-275.282 186.004,-268.443 234,-263 327.624,-252.383 437.857,-255.562 500.272,-258.804"/>
<polygon fill="#8b1a1a" stroke="#8b1a1a" points="101.156,-290.394 92.4278,-296.4 102.996,-297.147 101.156,-290.394"/>
</g>
<!-- Node9 -->
<g id="node19" class="node"><title>Node9</title>
<a xlink:href="classstxxl_1_1mutex.html" target="_top" xlink:title="stxxl::mutex">
<polygon fill="none" stroke="black" points="259.5,-312.5 259.5,-333.5 330.5,-333.5 330.5,-312.5 259.5,-312.5"/>
<text text-anchor="middle" x="295" y="-320.5" font-family="Helvetica,sans-Serif" font-size="10.00">stxxl::mutex</text>
</a>
</g>
<!-- Node2&#45;&gt;Node9 -->
<g id="edge24" class="edge"><title>Node2&#45;&gt;Node9</title>
<path fill="none" stroke="#8b1a1a" d="M114.172,-310.945C159.627,-313.975 220.914,-318.061 259.183,-320.612"/>
<polygon fill="#8b1a1a" stroke="#8b1a1a" points="114.357,-307.449 104.147,-310.276 113.892,-314.434 114.357,-307.449"/>
</g>
<!-- Node10 -->
<g id="node22" class="node"><title>Node10</title>
<a xlink:href="classstxxl_1_1condition__variable.html" target="_top" xlink:title="stxxl::condition_variable">
<polygon fill="none" stroke="black" points="234,-272.5 234,-293.5 356,-293.5 356,-272.5 234,-272.5"/>
<text text-anchor="middle" x="295" y="-280.5" font-family="Helvetica,sans-Serif" font-size="10.00">stxxl::condition_variable</text>
</a>
</g>
<!-- Node2&#45;&gt;Node10 -->
<g id="edge28" class="edge"><title>Node2&#45;&gt;Node10</title>
<path fill="none" stroke="#8b1a1a" d="M114.138,-301.086C150.576,-297.442 197.198,-292.78 233.98,-289.102"/>
<polygon fill="#8b1a1a" stroke="#8b1a1a" points="113.749,-297.608 104.147,-302.085 114.445,-304.573 113.749,-297.608"/>
</g>
<!-- Node15 -->
<g id="node34" class="node"><title>Node15</title>
<a xlink:href="classstxxl_1_1loser__tree.html" target="_top" xlink:title="stxxl::loser_tree\&lt;\l RunCursorType, RunCursorCmp\lType \&gt;">
<polygon fill="none" stroke="black" points="716.5,-338.5 716.5,-385.5 879.5,-385.5 879.5,-338.5 716.5,-338.5"/>
<text text-anchor="start" x="724.5" y="-372.5" font-family="Helvetica,sans-Serif" font-size="10.00">stxxl::loser_tree&lt;</text>
<text text-anchor="start" x="724.5" y="-359.5" font-family="Helvetica,sans-Serif" font-size="10.00"> RunCursorType, RunCursorCmp</text>
<text text-anchor="middle" x="798" y="-346.5" font-family="Helvetica,sans-Serif" font-size="10.00">Type &gt;</text>
</a>
</g>
<!-- Node2&#45;&gt;Node15 -->
<g id="edge42" class="edge"><title>Node2&#45;&gt;Node15</title>
<path fill="none" stroke="#8b1a1a" d="M78.891,-323.215C111.999,-344.608 174.497,-381.164 234,-395 402.143,-434.097 605.667,-403.838 716.45,-381.108"/>
<polygon fill="#8b1a1a" stroke="#8b1a1a" points="80.6396,-320.177 70.359,-317.615 76.7985,-326.029 80.6396,-320.177"/>
</g>
<!-- Node16 -->
<g id="node38" class="node"><title>Node16</title>
<a xlink:href="classstxxl_1_1stream_1_1basic__runs__merger.html" target="_top" xlink:title="Merges sorted runs. ">
<polygon fill="none" stroke="black" points="1004.5,-232.5 1004.5,-279.5 1137.5,-279.5 1137.5,-232.5 1004.5,-232.5"/>
<text text-anchor="start" x="1012.5" y="-266.5" font-family="Helvetica,sans-Serif" font-size="10.00">stxxl::stream::basic</text>
<text text-anchor="start" x="1012.5" y="-253.5" font-family="Helvetica,sans-Serif" font-size="10.00">_runs_merger&lt; RunsType,</text>
<text text-anchor="middle" x="1071" y="-240.5" font-family="Helvetica,sans-Serif" font-size="10.00"> CompareType, AllocStr &gt;</text>
</a>
</g>
<!-- Node2&#45;&gt;Node16 -->
<g id="edge48" class="edge"><title>Node2&#45;&gt;Node16</title>
<path fill="none" stroke="#8b1a1a" d="M63.7235,-287.252C89.9094,-231.345 173.593,-76 295,-76 295,-76 295,-76 798,-76 910.406,-76 1012.24,-183.677 1052.62,-232.468"/>
<polygon fill="#8b1a1a" stroke="#8b1a1a" points="60.4822,-285.924 59.507,-296.474 66.8483,-288.835 60.4822,-285.924"/>
</g>
<!-- Node3 -->
<g id="node4" class="node"><title>Node3</title>
<a xlink:href="classstxxl_1_1stream_1_1runs__merger.html" target="_top" xlink:title="stxxl::stream::runs\l_merger\&lt; sorted_runs\l_type, CompareType, AllocStr \&gt;">
<polygon fill="none" stroke="black" points="1594,-349.5 1594,-396.5 1752,-396.5 1752,-349.5 1594,-349.5"/>
<text text-anchor="start" x="1602" y="-383.5" font-family="Helvetica,sans-Serif" font-size="10.00">stxxl::stream::runs</text>
<text text-anchor="start" x="1602" y="-370.5" font-family="Helvetica,sans-Serif" font-size="10.00">_merger&lt; sorted_runs</text>
<text text-anchor="middle" x="1673" y="-357.5" font-family="Helvetica,sans-Serif" font-size="10.00">_type, CompareType, AllocStr &gt;</text>
</a>
</g>
<!-- Node3&#45;&gt;Node1 -->
<g id="edge4" class="edge"><title>Node3&#45;&gt;Node1</title>
<path fill="none" stroke="#9a32cd" stroke-dasharray="5,2" d="M1743.08,-400.29C1768.66,-410.251 1797.31,-421.409 1821.84,-430.963"/>
<polygon fill="#9a32cd" stroke="#9a32cd" points="1744.03,-396.905 1733.44,-396.537 1741.49,-403.428 1744.03,-396.905"/>
<text text-anchor="middle" x="1787" y="-427" font-family="Helvetica,sans-Serif" font-size="10.00"> merger</text>
</g>
<!-- Node4&#45;&gt;Node3 -->
<g id="edge6" class="edge"><title>Node4&#45;&gt;Node3</title>
<path fill="none" stroke="midnightblue" d="M1443.94,-373C1489.81,-373 1547.66,-373 1593.75,-373"/>
<polygon fill="midnightblue" stroke="midnightblue" points="1443.75,-369.5 1433.75,-373 1443.75,-376.5 1443.75,-369.5"/>
</g>
<!-- Node5&#45;&gt;Node4 -->
<g id="edge10" class="edge"><title>Node5&#45;&gt;Node4</title>
<path fill="none" stroke="#9a32cd" stroke-dasharray="5,2" d="M846.712,-257.022C858.417,-263.687 870.319,-271.738 880,-281 890.961,-291.487 885.266,-301.756 898,-310 914.624,-320.763 1172.84,-351.177 1298.43,-365.44"/>
<polygon fill="#9a32cd" stroke="#9a32cd" points="848.298,-253.9 837.841,-252.198 844.954,-260.05 848.298,-253.9"/>
<text text-anchor="middle" x="1071" y="-349" font-family="Helvetica,sans-Serif" font-size="10.00"> m_prefetcher</text>
</g>
<!-- Node5&#45;&gt;Node16 -->
<g id="edge50" class="edge"><title>Node5&#45;&gt;Node16</title>
<path fill="none" stroke="#9a32cd" stroke-dasharray="5,2" d="M885.24,-231.381C917.051,-231.135 953.244,-232.11 986,-236 992.022,-236.715 998.237,-237.695 1004.44,-238.84"/>
<polygon fill="#9a32cd" stroke="#9a32cd" points="885.033,-227.883 875.076,-231.501 885.116,-234.882 885.033,-227.883"/>
<text text-anchor="middle" x="942" y="-240" font-family="Helvetica,sans-Serif" font-size="10.00"> m_prefetcher</text>
</g>
<!-- Node6 -->
<g id="node12" class="node"><title>Node6</title>
<a xlink:href="structstxxl_1_1choose__int__types.html" target="_top" xlink:title="stxxl::choose_int_types\l\&lt; my_pointer_size \&gt;">
<polygon fill="none" stroke="black" points="490,-345 490,-379 610,-379 610,-345 490,-345"/>
<text text-anchor="start" x="498" y="-366" font-family="Helvetica,sans-Serif" font-size="10.00">stxxl::choose_int_types</text>
<text text-anchor="middle" x="550" y="-353" font-family="Helvetica,sans-Serif" font-size="10.00">&lt; my_pointer_size &gt;</text>
</a>
</g>
<!-- Node6&#45;&gt;Node4 -->
<g id="edge38" class="edge"><title>Node6&#45;&gt;Node4</title>
<path fill="none" stroke="#9a32cd" stroke-dasharray="5,2" d="M620.05,-379.094C649.485,-385.448 684.211,-391.871 716,-395 817.897,-405.03 1171.55,-391.273 1272,-384 1280.52,-383.383 1289.46,-382.563 1298.29,-381.647"/>
<polygon fill="#9a32cd" stroke="#9a32cd" points="620.801,-375.676 610.283,-376.946 619.298,-382.512 620.801,-375.676"/>
<text text-anchor="middle" x="942" y="-401" font-family="Helvetica,sans-Serif" font-size="10.00"> m_memory_to_use</text>
</g>
<!-- Node6&#45;&gt;Node5 -->
<g id="edge14" class="edge"><title>Node6&#45;&gt;Node5</title>
<path fill="none" stroke="#9a32cd" stroke-dasharray="5,2" d="M567.872,-336.519C582.831,-317.082 605.886,-291.149 632,-276 647.471,-267.025 685.156,-257.415 720.716,-249.757"/>
<polygon fill="#9a32cd" stroke="#9a32cd" points="564.966,-334.561 561.78,-344.665 570.572,-338.754 564.966,-334.561"/>
<text text-anchor="middle" x="665" y="-306" font-family="Helvetica,sans-Serif" font-size="10.00"> seq_length</text>
<text text-anchor="middle" x="665" y="-293" font-family="Helvetica,sans-Serif" font-size="10.00">nextconsume</text>
<text text-anchor="middle" x="665" y="-280" font-family="Helvetica,sans-Serif" font-size="10.00">nextread</text>
</g>
<!-- Node6&#45;&gt;Node15 -->
<g id="edge44" class="edge"><title>Node6&#45;&gt;Node15</title>
<path fill="none" stroke="#9a32cd" stroke-dasharray="5,2" d="M620.347,-362C650.149,-362 685.073,-362 716.033,-362"/>
<polygon fill="#9a32cd" stroke="#9a32cd" points="620.034,-358.5 610.034,-362 620.034,-365.5 620.034,-358.5"/>
<text text-anchor="middle" x="665" y="-366" font-family="Helvetica,sans-Serif" font-size="10.00"> k</text>
</g>
<!-- Node6&#45;&gt;Node16 -->
<g id="edge52" class="edge"><title>Node6&#45;&gt;Node16</title>
<path fill="none" stroke="#9a32cd" stroke-dasharray="5,2" d="M615.728,-342.108C646.069,-333.36 682.678,-323.412 716,-316 815.607,-293.843 932.538,-275.546 1004.19,-265.196"/>
<polygon fill="#9a32cd" stroke="#9a32cd" points="614.737,-338.751 606.11,-344.902 616.689,-345.474 614.737,-338.751"/>
<text text-anchor="middle" x="798" y="-320" font-family="Helvetica,sans-Serif" font-size="10.00"> m_memory_to_use</text>
</g>
<!-- Node7 -->
<g id="node14" class="node"><title>Node7</title>
<a xlink:href="structstxxl_1_1choose__int__types.html" target="_top" xlink:title="stxxl::choose_int_types\l\&lt; PtrSize \&gt;">
<polygon fill="none" stroke="black" points="235,-352 235,-386 355,-386 355,-352 235,-352"/>
<text text-anchor="start" x="243" y="-373" font-family="Helvetica,sans-Serif" font-size="10.00">stxxl::choose_int_types</text>
<text text-anchor="middle" x="295" y="-360" font-family="Helvetica,sans-Serif" font-size="10.00">&lt; PtrSize &gt;</text>
</a>
</g>
<!-- Node7&#45;&gt;Node6 -->
<g id="edge16" class="edge"><title>Node7&#45;&gt;Node6</title>
<path fill="none" stroke="orange" stroke-dasharray="5,2" d="M365.354,-367.069C404.432,-365.996 452.541,-364.675 489.854,-363.651"/>
<polygon fill="orange" stroke="orange" points="365.009,-363.577 355.109,-367.35 365.201,-370.574 365.009,-363.577"/>
<text text-anchor="middle" x="421" y="-370" font-family="Helvetica,sans-Serif" font-size="10.00"> &lt; my_pointer_size &gt;</text>
</g>
<!-- Node8&#45;&gt;Node5 -->
<g id="edge18" class="edge"><title>Node8&#45;&gt;Node5</title>
<path fill="none" stroke="#9a32cd" stroke-dasharray="5,2" d="M592.186,-248.676C604.859,-245.221 618.883,-241.93 632,-240 660.811,-235.76 692.726,-234.087 720.813,-233.616"/>
<polygon fill="#9a32cd" stroke="#9a32cd" points="591.023,-245.368 582.355,-251.461 592.93,-252.103 591.023,-245.368"/>
<text text-anchor="middle" x="665" y="-244" font-family="Helvetica,sans-Serif" font-size="10.00"> completed</text>
</g>
<!-- Node9&#45;&gt;Node8 -->
<g id="edge22" class="edge"><title>Node9&#45;&gt;Node8</title>
<path fill="none" stroke="#9a32cd" stroke-dasharray="5,2" d="M340.528,-317.509C375.719,-312.69 425.445,-304.621 468,-293 487.821,-287.588 509.54,-279.263 525.644,-272.602"/>
<polygon fill="#9a32cd" stroke="#9a32cd" points="340.001,-314.049 330.552,-318.842 340.928,-320.987 340.001,-314.049"/>
<text text-anchor="middle" x="421" y="-316" font-family="Helvetica,sans-Serif" font-size="10.00"> m_mutex</text>
</g>
<!-- Node10&#45;&gt;Node8 -->
<g id="edge26" class="edge"><title>Node10&#45;&gt;Node8</title>
<path fill="none" stroke="#9a32cd" stroke-dasharray="5,2" d="M366.118,-277.143C408.756,-273.632 461.93,-269.253 500.113,-266.108"/>
<polygon fill="#9a32cd" stroke="#9a32cd" points="365.758,-273.661 356.079,-277.97 366.332,-280.637 365.758,-273.661"/>
<text text-anchor="middle" x="421" y="-280" font-family="Helvetica,sans-Serif" font-size="10.00"> m_cond</text>
</g>
<!-- Node11 -->
<g id="node25" class="node"><title>Node11</title>
<a xlink:href="classstxxl_1_1counting__ptr.html" target="_top" xlink:title="High&#45;performance smart pointer used as a wrapping reference counting pointer. ">
<polygon fill="none" stroke="black" points="501.5,-144 501.5,-178 598.5,-178 598.5,-144 501.5,-144"/>
<text text-anchor="start" x="509.5" y="-165" font-family="Helvetica,sans-Serif" font-size="10.00">stxxl::counting_ptr</text>
<text text-anchor="middle" x="550" y="-152" font-family="Helvetica,sans-Serif" font-size="10.00">&lt; Type &gt;</text>
</a>
</g>
<!-- Node11&#45;&gt;Node5 -->
<g id="edge30" class="edge"><title>Node11&#45;&gt;Node5</title>
<path fill="none" stroke="#9a32cd" stroke-dasharray="5,2" d="M608.971,-162.913C636.557,-165.128 669.529,-169.699 698,-179 725.615,-188.021 754.257,-204.967 773.773,-217.864"/>
<polygon fill="#9a32cd" stroke="#9a32cd" points="608.908,-159.399 598.683,-162.174 608.406,-166.381 608.908,-159.399"/>
<text text-anchor="middle" x="665" y="-183" font-family="Helvetica,sans-Serif" font-size="10.00"> read_reqs</text>
</g>
<!-- Node12 -->
<g id="node27" class="node"><title>Node12</title>
<a xlink:href="classstxxl_1_1completion__handler.html" target="_top" xlink:title="Completion handler class (Loki&#45;style). ">
<polygon fill="none" stroke="black" points="486,-104.5 486,-125.5 614,-125.5 614,-104.5 486,-104.5"/>
<text text-anchor="middle" x="550" y="-112.5" font-family="Helvetica,sans-Serif" font-size="10.00">stxxl::completion_handler</text>
</a>
</g>
<!-- Node12&#45;&gt;Node5 -->
<g id="edge32" class="edge"><title>Node12&#45;&gt;Node5</title>
<path fill="none" stroke="#9a32cd" stroke-dasharray="5,2" d="M624.221,-124.103C648.615,-129.012 675.282,-136.526 698,-148 732.714,-165.533 765.175,-197.832 783.229,-217.76"/>
<polygon fill="#9a32cd" stroke="#9a32cd" points="624.762,-120.643 614.285,-122.219 623.457,-127.521 624.762,-120.643"/>
<text text-anchor="middle" x="665" y="-152" font-family="Helvetica,sans-Serif" font-size="10.00"> do_after_fetch</text>
</g>
<!-- Node13 -->
<g id="node29" class="node"><title>Node13</title>
<a xlink:href="structstxxl_1_1compat__unique__ptr.html" target="_top" xlink:title="stxxl::compat_unique\l_ptr\&lt; stxxl::completion\l_handler_impl \&gt;">
<polygon fill="none" stroke="black" points="237,-0.5 237,-47.5 353,-47.5 353,-0.5 237,-0.5"/>
<text text-anchor="start" x="245" y="-34.5" font-family="Helvetica,sans-Serif" font-size="10.00">stxxl::compat_unique</text>
<text text-anchor="start" x="245" y="-21.5" font-family="Helvetica,sans-Serif" font-size="10.00">_ptr&lt; stxxl::completion</text>
<text text-anchor="middle" x="295" y="-8.5" font-family="Helvetica,sans-Serif" font-size="10.00">_handler_impl &gt;</text>
</a>
</g>
<!-- Node13&#45;&gt;Node12 -->
<g id="edge34" class="edge"><title>Node13&#45;&gt;Node12</title>
<path fill="none" stroke="#9a32cd" stroke-dasharray="5,2" d="M362.893,-48.2286C414.256,-66.558 482.272,-90.8303 520.55,-104.491"/>
<polygon fill="#9a32cd" stroke="#9a32cd" points="363.777,-44.8279 353.183,-44.7632 361.424,-51.4207 363.777,-44.8279"/>
<text text-anchor="middle" x="421" y="-89" font-family="Helvetica,sans-Serif" font-size="10.00"> m_ptr</text>
</g>
<!-- Node14 -->
<g id="node31" class="node"><title>Node14</title>
<a xlink:href="structstxxl_1_1compat__unique__ptr.html" target="_top" xlink:title="stxxl::compat_unique\l_ptr\&lt; Type \&gt;">
<polygon fill="none" stroke="black" points="0,-7 0,-41 110,-41 110,-7 0,-7"/>
<text text-anchor="start" x="8" y="-28" font-family="Helvetica,sans-Serif" font-size="10.00">stxxl::compat_unique</text>
<text text-anchor="middle" x="55" y="-15" font-family="Helvetica,sans-Serif" font-size="10.00">_ptr&lt; Type &gt;</text>
</a>
</g>
<!-- Node14&#45;&gt;Node13 -->
<g id="edge36" class="edge"><title>Node14&#45;&gt;Node13</title>
<path fill="none" stroke="orange" stroke-dasharray="5,2" d="M120.096,-24C156.538,-24 201.593,-24 236.848,-24"/>
<polygon fill="orange" stroke="orange" points="120.061,-20.5001 110.061,-24 120.061,-27.5001 120.061,-20.5001"/>
<text text-anchor="start" x="128.5" y="-41" font-family="Helvetica,sans-Serif" font-size="10.00"> &lt; stxxl::completion</text>
<text text-anchor="middle" x="172" y="-28" font-family="Helvetica,sans-Serif" font-size="10.00">_handler_impl &gt;</text>
</g>
<!-- Node15&#45;&gt;Node4 -->
<g id="edge40" class="edge"><title>Node15&#45;&gt;Node4</title>
<path fill="none" stroke="#9a32cd" stroke-dasharray="5,2" d="M889.808,-363.778C1004.04,-365.99 1196.44,-369.716 1298.19,-371.687"/>
<polygon fill="#9a32cd" stroke="#9a32cd" points="889.749,-360.276 879.683,-363.582 889.613,-367.275 889.749,-360.276"/>
<text text-anchor="middle" x="1071" y="-372" font-family="Helvetica,sans-Serif" font-size="10.00"> m_losers</text>
</g>
<!-- Node15&#45;&gt;Node16 -->
<g id="edge54" class="edge"><title>Node15&#45;&gt;Node16</title>
<path fill="none" stroke="#9a32cd" stroke-dasharray="5,2" d="M868.05,-334.801C911.974,-317.746 968.041,-295.977 1010.11,-279.642"/>
<polygon fill="#9a32cd" stroke="#9a32cd" points="866.643,-331.593 858.588,-338.475 869.176,-338.118 866.643,-331.593"/>
<text text-anchor="middle" x="942" y="-325" font-family="Helvetica,sans-Serif" font-size="10.00"> m_losers</text>
</g>
<!-- Node16&#45;&gt;Node4 -->
<g id="edge46" class="edge"><title>Node16&#45;&gt;Node4</title>
<path fill="none" stroke="orange" stroke-dasharray="5,2" d="M1147.76,-260.467C1195.41,-264.419 1251.37,-271.559 1272,-284 1283.73,-291.07 1280.69,-298.958 1290,-309 1301.02,-320.892 1314.2,-332.68 1326.46,-342.836"/>
<polygon fill="orange" stroke="orange" points="1147.98,-256.974 1137.73,-259.672 1147.42,-263.952 1147.98,-256.974"/>
<text text-anchor="start" x="1156.5" y="-301" font-family="Helvetica,sans-Serif" font-size="10.00"> &lt; sorted_runs_type,</text>
<text text-anchor="middle" x="1214" y="-288" font-family="Helvetica,sans-Serif" font-size="10.00"> CompareType, AllocStr &gt;</text>
</g>
<!-- Node17 -->
<g id="node44" class="node"><title>Node17</title>
<a xlink:href="classstxxl_1_1stream_1_1runs__merger.html" target="_top" xlink:title="Merges sorted runs. ">
<polygon fill="none" stroke="black" points="1290,-252.5 1290,-299.5 1442,-299.5 1442,-252.5 1290,-252.5"/>
<text text-anchor="start" x="1298" y="-286.5" font-family="Helvetica,sans-Serif" font-size="10.00">stxxl::stream::runs</text>
<text text-anchor="start" x="1298" y="-273.5" font-family="Helvetica,sans-Serif" font-size="10.00">_merger&lt; RunsType, Compare</text>
<text text-anchor="middle" x="1366" y="-260.5" font-family="Helvetica,sans-Serif" font-size="10.00">Type, AllocStr &gt;</text>
</a>
</g>
<!-- Node16&#45;&gt;Node17 -->
<g id="edge58" class="edge"><title>Node16&#45;&gt;Node17</title>
<path fill="none" stroke="midnightblue" d="M1147.97,-257.492C1185.44,-258.618 1231.12,-260.584 1272,-264 1277.82,-264.486 1283.83,-265.069 1289.88,-265.711"/>
<polygon fill="midnightblue" stroke="midnightblue" points="1147.73,-253.983 1137.63,-257.195 1147.53,-260.98 1147.73,-253.983"/>
</g>
<!-- Node17&#45;&gt;Node3 -->
<g id="edge56" class="edge"><title>Node17&#45;&gt;Node3</title>
<path fill="none" stroke="orange" stroke-dasharray="5,2" d="M1450.43,-302.677C1496.8,-317.327 1553.79,-335.333 1598.49,-349.458"/>
<polygon fill="orange" stroke="orange" points="1451.3,-299.28 1440.71,-299.605 1449.19,-305.955 1451.3,-299.28"/>
<text text-anchor="start" x="1460.5" y="-358" font-family="Helvetica,sans-Serif" font-size="10.00"> &lt; sorted_runs_type,</text>
<text text-anchor="middle" x="1518" y="-345" font-family="Helvetica,sans-Serif" font-size="10.00"> CompareType, AllocStr &gt;</text>
</g>
</g>
</svg>
