<?xml version="1.0" encoding="UTF-8" standalone="no"?>
<!DOCTYPE svg PUBLIC "-//W3C//DTD SVG 1.1//EN"
 "http://www.w3.org/Graphics/SVG/1.1/DTD/svg11.dtd">
<!-- Generated by graphviz version 2.26.3 (20100126.1600)
 -->
<!-- Title: stxxl::mmap_file Pages: 1 -->
<svg width="242pt" height="204pt"
 viewBox="0.00 0.00 242.00 204.00" xmlns="http://www.w3.org/2000/svg" xmlns:xlink="http://www.w3.org/1999/xlink">
<g id="graph1" class="graph" transform="scale(1 1) rotate(0) translate(4 200)">
<title>stxxl::mmap_file</title>
<!-- Node1 -->
<g id="node1" class="node"><title>Node1</title>
<polygon fill="#bfbfbf" stroke="black" points="68.5,-0.5 68.5,-21.5 157.5,-21.5 157.5,-0.5 68.5,-0.5"/>
<text text-anchor="middle" x="113" y="-8.5" font-family="Helvetica,sans-Serif" font-size="10.00">stxxl::mmap_file</text>
</g>
<!-- Node2 -->
<g id="node2" class="node"><title>Node2</title>
<a xlink:href="classstxxl_1_1ufs__file__base.html" target="_top" xlink:title="Base for UNIX file system implementations. ">
<polygon fill="none" stroke="black" points="-0.5,-58.5 -0.5,-79.5 100.5,-79.5 100.5,-58.5 -0.5,-58.5"/>
<text text-anchor="middle" x="50" y="-66.5" font-family="Helvetica,sans-Serif" font-size="10.00">stxxl::ufs_file_base</text>
</a>
</g>
<!-- Node2&#45;&gt;Node1 -->
<g id="edge2" class="edge"><title>Node2&#45;&gt;Node1</title>
<path fill="none" stroke="midnightblue" d="M69.1118,-51.405C79.6878,-41.6683 92.48,-29.8914 101.518,-21.5707"/>
<polygon fill="midnightblue" stroke="midnightblue" points="66.5416,-49.0138 61.5552,-58.3619 71.2828,-54.1637 66.5416,-49.0138"/>
</g>
<!-- Node3 -->
<g id="node4" class="node"><title>Node3</title>
<a xlink:href="classstxxl_1_1file.html" target="_top" xlink:title="Defines interface of file. ">
<polygon fill="none" stroke="black" points="85,-116.5 85,-137.5 141,-137.5 141,-116.5 85,-116.5"/>
<text text-anchor="middle" x="113" y="-124.5" font-family="Helvetica,sans-Serif" font-size="10.00">stxxl::file</text>
</a>
</g>
<!-- Node3&#45;&gt;Node2 -->
<g id="edge4" class="edge"><title>Node3&#45;&gt;Node2</title>
<path fill="none" stroke="midnightblue" d="M93.8882,-109.405C83.3122,-99.6683 70.52,-87.8914 61.4819,-79.5707"/>
<polygon fill="midnightblue" stroke="midnightblue" points="91.7172,-112.164 101.445,-116.362 96.4584,-107.014 91.7172,-112.164"/>
</g>
<!-- Node5 -->
<g id="node8" class="node"><title>Node5</title>
<a xlink:href="classstxxl_1_1disk__queued__file.html" target="_top" xlink:title="Implementation of some file methods based on serving_request. ">
<polygon fill="none" stroke="black" points="118,-58.5 118,-79.5 234,-79.5 234,-58.5 118,-58.5"/>
<text text-anchor="middle" x="176" y="-66.5" font-family="Helvetica,sans-Serif" font-size="10.00">stxxl::disk_queued_file</text>
</a>
</g>
<!-- Node3&#45;&gt;Node5 -->
<g id="edge10" class="edge"><title>Node3&#45;&gt;Node5</title>
<path fill="none" stroke="midnightblue" d="M132.112,-109.405C142.688,-99.6683 155.48,-87.8914 164.518,-79.5707"/>
<polygon fill="midnightblue" stroke="midnightblue" points="129.542,-107.014 124.555,-116.362 134.283,-112.164 129.542,-107.014"/>
</g>
<!-- Node4 -->
<g id="node6" class="node"><title>Node4</title>
<a xlink:href="classstxxl_1_1noncopyable.html" target="_top" xlink:title="stxxl::noncopyable">
<polygon fill="none" stroke="black" points="64,-174.5 64,-195.5 162,-195.5 162,-174.5 64,-174.5"/>
<text text-anchor="middle" x="113" y="-182.5" font-family="Helvetica,sans-Serif" font-size="10.00">stxxl::noncopyable</text>
</a>
</g>
<!-- Node4&#45;&gt;Node3 -->
<g id="edge6" class="edge"><title>Node4&#45;&gt;Node3</title>
<path fill="none" stroke="#8b1a1a" d="M113,-164.191C113,-155.168 113,-144.994 113,-137.571"/>
<polygon fill="#8b1a1a" stroke="#8b1a1a" points="109.5,-164.362 113,-174.362 116.5,-164.362 109.5,-164.362"/>
</g>
<!-- Node5&#45;&gt;Node1 -->
<g id="edge8" class="edge"><title>Node5&#45;&gt;Node1</title>
<path fill="none" stroke="midnightblue" d="M156.888,-51.405C146.312,-41.6683 133.52,-29.8914 124.482,-21.5707"/>
<polygon fill="midnightblue" stroke="midnightblue" points="154.717,-54.1637 164.445,-58.3619 159.458,-49.0138 154.717,-54.1637"/>
</g>
</g>
</svg>
