<?xml version="1.0" encoding="UTF-8" standalone="no"?>
<!DOCTYPE svg PUBLIC "-//W3C//DTD SVG 1.1//EN"
 "http://www.w3.org/Graphics/SVG/1.1/DTD/svg11.dtd">
<!-- Generated by graphviz version 2.26.3 (20100126.1600)
 -->
<!-- Title: stxxl::winner_tree&lt; Comparator &gt; Pages: 1 -->
<svg width="179pt" height="228pt"
 viewBox="0.00 0.00 179.00 228.00" xmlns="http://www.w3.org/2000/svg" xmlns:xlink="http://www.w3.org/1999/xlink">
<g id="graph1" class="graph" transform="scale(1 1) rotate(0) translate(4 224)">
<title>stxxl::winner_tree&lt; Comparator &gt;</title>
<!-- Node1 -->
<g id="node1" class="node"><title>Node1</title>
<polygon fill="#bfbfbf" stroke="black" points="21,-1 21,-35 115,-35 115,-1 21,-1"/>
<text text-anchor="start" x="29" y="-22" font-family="Helvetica,sans-Serif" font-size="10.00">stxxl::winner_tree</text>
<text text-anchor="middle" x="68" y="-9" font-family="Helvetica,sans-Serif" font-size="10.00">&lt; Comparator &gt;</text>
</g>
<!-- Node2 -->
<g id="node2" class="node"><title>Node2</title>
<a xlink:href="structstxxl_1_1winner__tree_1_1stats__type.html" target="_top" xlink:title="Collection of stats from the winner_tree. ">
<polygon fill="none" stroke="black" points="-0.5,-87 -0.5,-121 136.5,-121 136.5,-87 -0.5,-87"/>
<text text-anchor="start" x="7.5" y="-108" font-family="Helvetica,sans-Serif" font-size="10.00">stxxl::winner_tree</text>
<text text-anchor="middle" x="68" y="-95" font-family="Helvetica,sans-Serif" font-size="10.00">&lt; Comparator &gt;::stats_type</text>
</a>
</g>
<!-- Node2&#45;&gt;Node1 -->
<g id="edge2" class="edge"><title>Node2&#45;&gt;Node1</title>
<path fill="none" stroke="#9a32cd" stroke-dasharray="5,2" d="M68,-76.342C68,-62.7741 68,-46.8607 68,-35.084"/>
<polygon fill="#9a32cd" stroke="#9a32cd" points="64.5001,-76.5966 68,-86.5966 71.5001,-76.5967 64.5001,-76.5966"/>
<text text-anchor="middle" x="87.5" y="-58.5" font-family="Helvetica,sans-Serif" font-size="10.00"> m_stats</text>
</g>
<!-- Node3 -->
<g id="node4" class="node"><title>Node3</title>
<a xlink:href="classstxxl_1_1fake__timer.html" target="_top" xlink:title="Class fake_timer is a drop&#45;in replacement for timer, which does nothing. ">
<polygon fill="none" stroke="black" points="23.5,-198.5 23.5,-219.5 112.5,-219.5 112.5,-198.5 23.5,-198.5"/>
<text text-anchor="middle" x="68" y="-206.5" font-family="Helvetica,sans-Serif" font-size="10.00">stxxl::fake_timer</text>
</a>
</g>
<!-- Node3&#45;&gt;Node2 -->
<g id="edge4" class="edge"><title>Node3&#45;&gt;Node2</title>
<path fill="none" stroke="#9a32cd" stroke-dasharray="5,2" d="M68,-188.097C68,-168.479 68,-139.487 68,-121.181"/>
<polygon fill="#9a32cd" stroke="#9a32cd" points="64.5001,-188.159 68,-198.159 71.5001,-188.159 64.5001,-188.159"/>
<text text-anchor="middle" x="119.5" y="-170.5" font-family="Helvetica,sans-Serif" font-size="10.00"> remove_player_time</text>
<text text-anchor="middle" x="119.5" y="-157.5" font-family="Helvetica,sans-Serif" font-size="10.00">replay_time</text>
<text text-anchor="middle" x="119.5" y="-144.5" font-family="Helvetica,sans-Serif" font-size="10.00">double_num_slots_time</text>
</g>
</g>
</svg>
