<?xml version="1.0" encoding="UTF-8" standalone="no"?>
<!DOCTYPE svg PUBLIC "-//W3C//DTD SVG 1.1//EN"
 "http://www.w3.org/Graphics/SVG/1.1/DTD/svg11.dtd">
<!-- Generated by graphviz version 2.26.3 (20100126.1600)
 -->
<!-- Title: stxxl::sorter&lt; ValueType, CompareType, BlockSize, AllocStrategy &gt; Pages: 1 -->
<svg width="2134pt" height="669pt"
 viewBox="0.00 0.00 2134.00 669.00" xmlns="http://www.w3.org/2000/svg" xmlns:xlink="http://www.w3.org/1999/xlink">
<g id="graph1" class="graph" transform="scale(1 1) rotate(0) translate(4 665)">
<title>stxxl::sorter&lt; ValueType, CompareType, BlockSize, AllocStrategy &gt;</title>
<!-- Node1 -->
<g id="node1" class="node"><title>Node1</title>
<polygon fill="#bfbfbf" stroke="black" points="1992,-517.5 1992,-564.5 2126,-564.5 2126,-517.5 1992,-517.5"/>
<text text-anchor="start" x="2000" y="-551.5" font-family="Helvetica,sans-Serif" font-size="10.00">stxxl::sorter&lt; ValueType,</text>
<text text-anchor="start" x="2000" y="-538.5" font-family="Helvetica,sans-Serif" font-size="10.00"> CompareType, BlockSize,</text>
<text text-anchor="middle" x="2059" y="-525.5" font-family="Helvetica,sans-Serif" font-size="10.00"> AllocStrategy &gt;</text>
</g>
<!-- Node2 -->
<g id="node2" class="node"><title>Node2</title>
<a xlink:href="classstxxl_1_1noncopyable.html" target="_top" xlink:title="stxxl::noncopyable">
<polygon fill="none" stroke="black" points="6,-246.5 6,-267.5 104,-267.5 104,-246.5 6,-246.5"/>
<text text-anchor="middle" x="55" y="-254.5" font-family="Helvetica,sans-Serif" font-size="10.00">stxxl::noncopyable</text>
</a>
</g>
<!-- Node2&#45;&gt;Node1 -->
<g id="edge2" class="edge"><title>Node2&#45;&gt;Node1</title>
<path fill="none" stroke="#8b1a1a" d="M57.7944,-277.541C66.4203,-338.629 94.1026,-517.849 128,-565 177.974,-634.513 209.388,-661 295,-661 295,-661 295,-661 1814,-661 1900.67,-661 1988.63,-599.68 2031.74,-564.708"/>
<polygon fill="#8b1a1a" stroke="#8b1a1a" points="61.2516,-276.99 56.4083,-267.567 54.3182,-277.954 61.2516,-276.99"/>
</g>
<!-- Node4 -->
<g id="node6" class="node"><title>Node4</title>
<a xlink:href="classstxxl_1_1stream_1_1basic__runs__merger.html" target="_top" xlink:title="stxxl::stream::basic\l_runs_merger\&lt; typename\l runs_creator_type::sorted\l_runs_type, cmp_type, alloc\l_strategy_type \&gt;">
<polygon fill="none" stroke="black" points="1416,-282.5 1416,-355.5 1556,-355.5 1556,-282.5 1416,-282.5"/>
<text text-anchor="start" x="1424" y="-342.5" font-family="Helvetica,sans-Serif" font-size="10.00">stxxl::stream::basic</text>
<text text-anchor="start" x="1424" y="-329.5" font-family="Helvetica,sans-Serif" font-size="10.00">_runs_merger&lt; typename</text>
<text text-anchor="start" x="1424" y="-316.5" font-family="Helvetica,sans-Serif" font-size="10.00"> runs_creator_type::sorted</text>
<text text-anchor="start" x="1424" y="-303.5" font-family="Helvetica,sans-Serif" font-size="10.00">_runs_type, cmp_type, alloc</text>
<text text-anchor="middle" x="1486" y="-290.5" font-family="Helvetica,sans-Serif" font-size="10.00">_strategy_type &gt;</text>
</a>
</g>
<!-- Node2&#45;&gt;Node4 -->
<g id="edge8" class="edge"><title>Node2&#45;&gt;Node4</title>
<path fill="none" stroke="#8b1a1a" d="M59.1767,-236.383C66.8482,-204.098 86.3704,-142.001 128,-110 188.053,-63.8377 219.255,-76 295,-76 295,-76 295,-76 1147,-76 1277.79,-76 1301.7,-144.389 1392,-239 1402.74,-250.248 1399.24,-257.779 1410,-269 1414.48,-273.673 1419.48,-278.131 1424.71,-282.324"/>
<polygon fill="#8b1a1a" stroke="#8b1a1a" points="55.6898,-235.941 56.9406,-246.462 62.5236,-237.457 55.6898,-235.941"/>
</g>
<!-- Node5 -->
<g id="node9" class="node"><title>Node5</title>
<a xlink:href="classstxxl_1_1block__prefetcher.html" target="_top" xlink:title="Encapsulates asynchronous prefetching engine. ">
<polygon fill="none" stroke="black" points="727,-213 727,-247 881,-247 881,-213 727,-213"/>
<text text-anchor="start" x="735" y="-234" font-family="Helvetica,sans-Serif" font-size="10.00">stxxl::block_prefetcher</text>
<text text-anchor="middle" x="804" y="-221" font-family="Helvetica,sans-Serif" font-size="10.00">&lt; BlockType, BidIteratorType &gt;</text>
</a>
</g>
<!-- Node2&#45;&gt;Node5 -->
<g id="edge12" class="edge"><title>Node2&#45;&gt;Node5</title>
<path fill="none" stroke="#8b1a1a" d="M114.348,-257.049C144.749,-256.968 182.356,-256.705 216,-256 403.746,-252.065 450.389,-243.146 638,-235 666.949,-233.743 698.753,-232.702 726.707,-231.902"/>
<polygon fill="#8b1a1a" stroke="#8b1a1a" points="114.322,-253.549 104.33,-257.07 114.337,-260.549 114.322,-253.549"/>
</g>
<!-- Node8 -->
<g id="node16" class="node"><title>Node8</title>
<a xlink:href="classstxxl_1_1onoff__switch.html" target="_top" xlink:title="stxxl::onoff_switch">
<polygon fill="none" stroke="black" points="503.5,-176.5 503.5,-197.5 602.5,-197.5 602.5,-176.5 503.5,-176.5"/>
<text text-anchor="middle" x="553" y="-184.5" font-family="Helvetica,sans-Serif" font-size="10.00">stxxl::onoff_switch</text>
</a>
</g>
<!-- Node2&#45;&gt;Node8 -->
<g id="edge20" class="edge"><title>Node2&#45;&gt;Node8</title>
<path fill="none" stroke="#8b1a1a" d="M100.272,-243.607C109.429,-241.003 119.005,-238.353 128,-236 174.828,-223.75 186.164,-218.394 234,-211 328.542,-196.387 440.279,-190.573 503.27,-188.333"/>
<polygon fill="#8b1a1a" stroke="#8b1a1a" points="99.1947,-240.275 90.5493,-246.399 101.127,-247.003 99.1947,-240.275"/>
</g>
<!-- Node9 -->
<g id="node19" class="node"><title>Node9</title>
<a xlink:href="classstxxl_1_1mutex.html" target="_top" xlink:title="stxxl::mutex">
<polygon fill="none" stroke="black" points="259.5,-142.5 259.5,-163.5 330.5,-163.5 330.5,-142.5 259.5,-142.5"/>
<text text-anchor="middle" x="295" y="-150.5" font-family="Helvetica,sans-Serif" font-size="10.00">stxxl::mutex</text>
</a>
</g>
<!-- Node2&#45;&gt;Node9 -->
<g id="edge24" class="edge"><title>Node2&#45;&gt;Node9</title>
<path fill="none" stroke="#8b1a1a" d="M66.9629,-237.89C79.6851,-219.332 101.595,-191.973 128,-178 169.329,-156.129 223.986,-151.807 259.319,-151.656"/>
<polygon fill="#8b1a1a" stroke="#8b1a1a" points="63.9101,-236.162 61.3241,-246.436 69.7529,-240.017 63.9101,-236.162"/>
</g>
<!-- Node10 -->
<g id="node22" class="node"><title>Node10</title>
<a xlink:href="classstxxl_1_1condition__variable.html" target="_top" xlink:title="stxxl::condition_variable">
<polygon fill="none" stroke="black" points="234,-220.5 234,-241.5 356,-241.5 356,-220.5 234,-220.5"/>
<text text-anchor="middle" x="295" y="-228.5" font-family="Helvetica,sans-Serif" font-size="10.00">stxxl::condition_variable</text>
</a>
</g>
<!-- Node2&#45;&gt;Node10 -->
<g id="edge28" class="edge"><title>Node2&#45;&gt;Node10</title>
<path fill="none" stroke="#8b1a1a" d="M114.138,-250.593C150.576,-246.646 197.198,-241.595 233.98,-237.611"/>
<polygon fill="#8b1a1a" stroke="#8b1a1a" points="113.712,-247.119 104.147,-251.676 114.466,-254.078 113.712,-247.119"/>
</g>
<!-- Node15 -->
<g id="node34" class="node"><title>Node15</title>
<a xlink:href="classstxxl_1_1loser__tree.html" target="_top" xlink:title="stxxl::loser_tree\&lt;\l RunCursorType, RunCursorCmp\lType \&gt;">
<polygon fill="none" stroke="black" points="722.5,-284.5 722.5,-331.5 885.5,-331.5 885.5,-284.5 722.5,-284.5"/>
<text text-anchor="start" x="730.5" y="-318.5" font-family="Helvetica,sans-Serif" font-size="10.00">stxxl::loser_tree&lt;</text>
<text text-anchor="start" x="730.5" y="-305.5" font-family="Helvetica,sans-Serif" font-size="10.00"> RunCursorType, RunCursorCmp</text>
<text text-anchor="middle" x="804" y="-292.5" font-family="Helvetica,sans-Serif" font-size="10.00">Type &gt;</text>
</a>
</g>
<!-- Node2&#45;&gt;Node15 -->
<g id="edge42" class="edge"><title>Node2&#45;&gt;Node15</title>
<path fill="none" stroke="#8b1a1a" d="M114.203,-267.891C118.865,-268.642 123.506,-269.356 128,-270 286.433,-292.71 326.183,-300.321 486,-309 582.746,-314.254 607.112,-309.484 704,-309 709.99,-308.97 716.181,-308.93 722.411,-308.883"/>
<polygon fill="#8b1a1a" stroke="#8b1a1a" points="114.449,-264.384 104.011,-266.198 113.302,-271.29 114.449,-264.384"/>
</g>
<!-- Node16 -->
<g id="node38" class="node"><title>Node16</title>
<a xlink:href="classstxxl_1_1stream_1_1basic__runs__merger.html" target="_top" xlink:title="Merges sorted runs. ">
<polygon fill="none" stroke="black" points="1080.5,-221.5 1080.5,-268.5 1213.5,-268.5 1213.5,-221.5 1080.5,-221.5"/>
<text text-anchor="start" x="1088.5" y="-255.5" font-family="Helvetica,sans-Serif" font-size="10.00">stxxl::stream::basic</text>
<text text-anchor="start" x="1088.5" y="-242.5" font-family="Helvetica,sans-Serif" font-size="10.00">_runs_merger&lt; RunsType,</text>
<text text-anchor="middle" x="1147" y="-229.5" font-family="Helvetica,sans-Serif" font-size="10.00"> CompareType, AllocStr &gt;</text>
</a>
</g>
<!-- Node2&#45;&gt;Node16 -->
<g id="edge48" class="edge"><title>Node2&#45;&gt;Node16</title>
<path fill="none" stroke="#8b1a1a" d="M63.1508,-236.759C74.1135,-212.233 96.0008,-171.528 128,-150 190.998,-107.618 219.073,-114 295,-114 295,-114 295,-114 804,-114 922.882,-114 1050.59,-183.526 1111.17,-221.277"/>
<polygon fill="#8b1a1a" stroke="#8b1a1a" points="59.8373,-235.606 59.1237,-246.177 66.2736,-238.358 59.8373,-235.606"/>
</g>
<!-- Node19 -->
<g id="node49" class="node"><title>Node19</title>
<a xlink:href="classstxxl_1_1stream_1_1basic__runs__creator.html" target="_top" xlink:title="stxxl::stream::basic\l_runs_creator\&lt; stream\l::use_push\&lt; ValueType\l \&gt;, cmp_type, BlockSize,\l alloc_strategy_type \&gt;">
<polygon fill="none" stroke="black" points="1083,-537.5 1083,-610.5 1211,-610.5 1211,-537.5 1083,-537.5"/>
<text text-anchor="start" x="1091" y="-597.5" font-family="Helvetica,sans-Serif" font-size="10.00">stxxl::stream::basic</text>
<text text-anchor="start" x="1091" y="-584.5" font-family="Helvetica,sans-Serif" font-size="10.00">_runs_creator&lt; stream</text>
<text text-anchor="start" x="1091" y="-571.5" font-family="Helvetica,sans-Serif" font-size="10.00">::use_push&lt; ValueType</text>
<text text-anchor="start" x="1091" y="-558.5" font-family="Helvetica,sans-Serif" font-size="10.00"> &gt;, cmp_type, BlockSize,</text>
<text text-anchor="middle" x="1147" y="-545.5" font-family="Helvetica,sans-Serif" font-size="10.00"> alloc_strategy_type &gt;</text>
</a>
</g>
<!-- Node2&#45;&gt;Node19 -->
<g id="edge64" class="edge"><title>Node2&#45;&gt;Node19</title>
<path fill="none" stroke="#8b1a1a" d="M58.1237,-277.495C71.1454,-354.616 128.428,-623 295,-623 295,-623 295,-623 804,-623 914.923,-623 942.584,-613.218 1052,-595 1062,-593.335 1072.53,-591.298 1082.79,-589.153"/>
<polygon fill="#8b1a1a" stroke="#8b1a1a" points="61.5684,-276.871 56.5158,-267.559 54.6583,-277.99 61.5684,-276.871"/>
</g>
<!-- Node21 -->
<g id="node56" class="node"><title>Node21</title>
<a xlink:href="classstxxl_1_1stream_1_1basic__runs__creator.html" target="_top" xlink:title="Forms sorted runs of data from a stream. ">
<polygon fill="none" stroke="black" points="737,-486 737,-546 871,-546 871,-486 737,-486"/>
<text text-anchor="start" x="745" y="-533" font-family="Helvetica,sans-Serif" font-size="10.00">stxxl::stream::basic</text>
<text text-anchor="start" x="745" y="-520" font-family="Helvetica,sans-Serif" font-size="10.00">_runs_creator&lt; Input,</text>
<text text-anchor="start" x="745" y="-507" font-family="Helvetica,sans-Serif" font-size="10.00"> CompareType, BlockSize,</text>
<text text-anchor="middle" x="804" y="-494" font-family="Helvetica,sans-Serif" font-size="10.00"> AllocStr &gt;</text>
</a>
</g>
<!-- Node2&#45;&gt;Node21 -->
<g id="edge74" class="edge"><title>Node2&#45;&gt;Node21</title>
<path fill="none" stroke="#8b1a1a" d="M66.4228,-276.291C91.2984,-316.431 154.565,-408.867 234,-453 393.639,-541.694 456.145,-511.263 638,-528 670.514,-530.992 706.667,-529.005 736.912,-525.851"/>
<polygon fill="#8b1a1a" stroke="#8b1a1a" points="69.381,-274.419 61.1917,-267.697 63.4016,-278.059 69.381,-274.419"/>
</g>
<!-- Node3 -->
<g id="node4" class="node"><title>Node3</title>
<a xlink:href="classstxxl_1_1stream_1_1runs__merger.html" target="_top" xlink:title="stxxl::stream::runs\l_merger\&lt; typename runs\l_creator_type::sorted\l_runs_type, cmp_type, alloc\l_strategy_type \&gt;">
<polygon fill="none" stroke="black" points="1744,-282.5 1744,-355.5 1884,-355.5 1884,-282.5 1744,-282.5"/>
<text text-anchor="start" x="1752" y="-342.5" font-family="Helvetica,sans-Serif" font-size="10.00">stxxl::stream::runs</text>
<text text-anchor="start" x="1752" y="-329.5" font-family="Helvetica,sans-Serif" font-size="10.00">_merger&lt; typename runs</text>
<text text-anchor="start" x="1752" y="-316.5" font-family="Helvetica,sans-Serif" font-size="10.00">_creator_type::sorted</text>
<text text-anchor="start" x="1752" y="-303.5" font-family="Helvetica,sans-Serif" font-size="10.00">_runs_type, cmp_type, alloc</text>
<text text-anchor="middle" x="1814" y="-290.5" font-family="Helvetica,sans-Serif" font-size="10.00">_strategy_type &gt;</text>
</a>
</g>
<!-- Node3&#45;&gt;Node1 -->
<g id="edge4" class="edge"><title>Node3&#45;&gt;Node1</title>
<path fill="none" stroke="#9a32cd" stroke-dasharray="5,2" d="M1862.1,-362.585C1913.22,-408.908 1992.17,-480.444 2032.82,-517.282"/>
<polygon fill="#9a32cd" stroke="#9a32cd" points="1864.22,-359.78 1854.46,-355.659 1859.52,-364.967 1864.22,-359.78"/>
<text text-anchor="middle" x="1938" y="-466" font-family="Helvetica,sans-Serif" font-size="10.00"> m_runs_merger</text>
</g>
<!-- Node4&#45;&gt;Node3 -->
<g id="edge6" class="edge"><title>Node4&#45;&gt;Node3</title>
<path fill="none" stroke="midnightblue" d="M1566.64,-319C1620.92,-319 1691.79,-319 1743.75,-319"/>
<polygon fill="midnightblue" stroke="midnightblue" points="1566.36,-315.5 1556.36,-319 1566.36,-322.5 1566.36,-315.5"/>
</g>
<!-- Node5&#45;&gt;Node4 -->
<g id="edge10" class="edge"><title>Node5&#45;&gt;Node4</title>
<path fill="none" stroke="#9a32cd" stroke-dasharray="5,2" d="M843.602,-251.892C870.061,-266.434 900.623,-283.034 904,-284 1082.83,-335.15 1304.79,-330.904 1415.83,-324.433"/>
<polygon fill="#9a32cd" stroke="#9a32cd" points="845.28,-248.82 834.832,-247.064 841.905,-254.953 845.28,-248.82"/>
<text text-anchor="middle" x="1147" y="-331" font-family="Helvetica,sans-Serif" font-size="10.00"> m_prefetcher</text>
</g>
<!-- Node5&#45;&gt;Node16 -->
<g id="edge50" class="edge"><title>Node5&#45;&gt;Node16</title>
<path fill="none" stroke="#9a32cd" stroke-dasharray="5,2" d="M891.453,-227.324C939.001,-226.631 998.801,-226.993 1052,-231 1061.23,-231.695 1070.92,-232.746 1080.44,-233.967"/>
<polygon fill="#9a32cd" stroke="#9a32cd" points="891.133,-223.828 881.192,-227.492 891.248,-230.827 891.133,-223.828"/>
<text text-anchor="middle" x="978" y="-235" font-family="Helvetica,sans-Serif" font-size="10.00"> m_prefetcher</text>
</g>
<!-- Node6 -->
<g id="node12" class="node"><title>Node6</title>
<a xlink:href="structstxxl_1_1choose__int__types.html" target="_top" xlink:title="stxxl::choose_int_types\l\&lt; my_pointer_size \&gt;">
<polygon fill="none" stroke="black" points="493,-367 493,-401 613,-401 613,-367 493,-367"/>
<text text-anchor="start" x="501" y="-388" font-family="Helvetica,sans-Serif" font-size="10.00">stxxl::choose_int_types</text>
<text text-anchor="middle" x="553" y="-375" font-family="Helvetica,sans-Serif" font-size="10.00">&lt; my_pointer_size &gt;</text>
</a>
</g>
<!-- Node6&#45;&gt;Node4 -->
<g id="edge38" class="edge"><title>Node6&#45;&gt;Node4</title>
<path fill="none" stroke="#9a32cd" stroke-dasharray="5,2" d="M623.467,-386.679C628.385,-386.807 633.266,-386.916 638,-387 667.329,-387.517 674.668,-387.242 704,-387 935.274,-385.094 993.232,-382.414 1224,-367 1298.76,-362.006 1318.8,-368.993 1392,-353 1399.8,-351.296 1407.83,-349.107 1415.76,-346.661"/>
<polygon fill="#9a32cd" stroke="#9a32cd" points="623.453,-383.177 613.358,-386.393 623.255,-390.174 623.453,-383.177"/>
<text text-anchor="middle" x="978" y="-387" font-family="Helvetica,sans-Serif" font-size="10.00"> m_memory_to_use</text>
</g>
<!-- Node6&#45;&gt;Node5 -->
<g id="edge14" class="edge"><title>Node6&#45;&gt;Node5</title>
<path fill="none" stroke="#9a32cd" stroke-dasharray="5,2" d="M571.557,-358.873C587.345,-338.988 611.609,-311.708 638,-294 669.163,-273.091 708.138,-257.613 740.49,-247.12"/>
<polygon fill="#9a32cd" stroke="#9a32cd" points="568.698,-356.849 565.328,-366.893 574.226,-361.143 568.698,-356.849"/>
<text text-anchor="middle" x="671" y="-324" font-family="Helvetica,sans-Serif" font-size="10.00"> seq_length</text>
<text text-anchor="middle" x="671" y="-311" font-family="Helvetica,sans-Serif" font-size="10.00">nextconsume</text>
<text text-anchor="middle" x="671" y="-298" font-family="Helvetica,sans-Serif" font-size="10.00">nextread</text>
</g>
<!-- Node6&#45;&gt;Node15 -->
<g id="edge44" class="edge"><title>Node6&#45;&gt;Node15</title>
<path fill="none" stroke="#9a32cd" stroke-dasharray="5,2" d="M615.772,-363.901C623.256,-361.552 630.794,-359.208 638,-357 665.581,-348.55 695.82,-339.546 722.845,-331.593"/>
<polygon fill="#9a32cd" stroke="#9a32cd" points="614.484,-360.637 605.998,-366.98 616.588,-367.313 614.484,-360.637"/>
<text text-anchor="middle" x="671" y="-361" font-family="Helvetica,sans-Serif" font-size="10.00"> k</text>
</g>
<!-- Node6&#45;&gt;Node16 -->
<g id="edge52" class="edge"><title>Node6&#45;&gt;Node16</title>
<path fill="none" stroke="#9a32cd" stroke-dasharray="5,2" d="M623.63,-378.416C649.011,-376.155 677.827,-373.295 704,-370 785.268,-359.769 806.741,-361.668 886,-341 962.058,-321.167 978.234,-307.142 1052,-280 1062.06,-276.298 1072.72,-272.372 1083.13,-268.541"/>
<polygon fill="#9a32cd" stroke="#9a32cd" points="623.007,-374.957 613.351,-379.316 623.618,-381.931 623.007,-374.957"/>
<text text-anchor="middle" x="804" y="-371" font-family="Helvetica,sans-Serif" font-size="10.00"> m_memory_to_use</text>
</g>
<!-- Node6&#45;&gt;Node19 -->
<g id="edge70" class="edge"><title>Node6&#45;&gt;Node19</title>
<path fill="none" stroke="#9a32cd" stroke-dasharray="5,2" d="M601.743,-406.775C608.753,-411.897 615.204,-417.949 620,-425 646.137,-463.425 607.483,-492.952 638,-528 694.663,-593.076 959.042,-585.82 1082.8,-578.578"/>
<polygon fill="#9a32cd" stroke="#9a32cd" points="603.589,-403.8 593.321,-401.187 599.718,-409.633 603.589,-403.8"/>
<text text-anchor="middle" x="804" y="-586" font-family="Helvetica,sans-Serif" font-size="10.00"> m_memsize</text>
</g>
<!-- Node6&#45;&gt;Node21 -->
<g id="edge78" class="edge"><title>Node6&#45;&gt;Node21</title>
<path fill="none" stroke="#9a32cd" stroke-dasharray="5,2" d="M594.569,-405.861C636.081,-427.692 700.21,-461.417 746.57,-485.798"/>
<polygon fill="#9a32cd" stroke="#9a32cd" points="596.036,-402.678 585.557,-401.121 592.778,-408.874 596.036,-402.678"/>
<text text-anchor="middle" x="671" y="-465" font-family="Helvetica,sans-Serif" font-size="10.00"> m_memsize</text>
</g>
<!-- Node7 -->
<g id="node14" class="node"><title>Node7</title>
<a xlink:href="structstxxl_1_1choose__int__types.html" target="_top" xlink:title="stxxl::choose_int_types\l\&lt; PtrSize \&gt;">
<polygon fill="none" stroke="black" points="235,-351 235,-385 355,-385 355,-351 235,-351"/>
<text text-anchor="start" x="243" y="-372" font-family="Helvetica,sans-Serif" font-size="10.00">stxxl::choose_int_types</text>
<text text-anchor="middle" x="295" y="-359" font-family="Helvetica,sans-Serif" font-size="10.00">&lt; PtrSize &gt;</text>
</a>
</g>
<!-- Node7&#45;&gt;Node6 -->
<g id="edge16" class="edge"><title>Node7&#45;&gt;Node6</title>
<path fill="none" stroke="orange" stroke-dasharray="5,2" d="M365.352,-372.363C405.244,-374.837 454.642,-377.9 492.741,-380.263"/>
<polygon fill="orange" stroke="orange" points="365.361,-368.857 355.164,-371.731 364.928,-375.843 365.361,-368.857"/>
<text text-anchor="middle" x="421" y="-382" font-family="Helvetica,sans-Serif" font-size="10.00"> &lt; my_pointer_size &gt;</text>
</g>
<!-- Node8&#45;&gt;Node5 -->
<g id="edge18" class="edge"><title>Node8&#45;&gt;Node5</title>
<path fill="none" stroke="#9a32cd" stroke-dasharray="5,2" d="M612.587,-179.441C640.627,-177.5 674.344,-177.506 704,-184 729.388,-189.559 756.024,-202.194 775.417,-212.818"/>
<polygon fill="#9a32cd" stroke="#9a32cd" points="612.225,-175.959 602.532,-180.236 612.776,-182.937 612.225,-175.959"/>
<text text-anchor="middle" x="671" y="-188" font-family="Helvetica,sans-Serif" font-size="10.00"> completed</text>
</g>
<!-- Node9&#45;&gt;Node8 -->
<g id="edge22" class="edge"><title>Node9&#45;&gt;Node8</title>
<path fill="none" stroke="#9a32cd" stroke-dasharray="5,2" d="M341.057,-153.893C376.066,-155.127 425.315,-158.056 468,-165 484.7,-167.717 502.899,-172.214 518.156,-176.436"/>
<polygon fill="#9a32cd" stroke="#9a32cd" points="340.778,-150.382 330.672,-153.562 340.555,-157.379 340.778,-150.382"/>
<text text-anchor="middle" x="421" y="-169" font-family="Helvetica,sans-Serif" font-size="10.00"> m_mutex</text>
</g>
<!-- Node10&#45;&gt;Node8 -->
<g id="edge26" class="edge"><title>Node10&#45;&gt;Node8</title>
<path fill="none" stroke="#9a32cd" stroke-dasharray="5,2" d="M365.995,-221.986C397.352,-217.684 434.604,-212.136 468,-206 481.385,-203.541 495.864,-200.462 509.014,-197.504"/>
<polygon fill="#9a32cd" stroke="#9a32cd" points="365.472,-218.525 356.034,-223.338 366.414,-225.461 365.472,-218.525"/>
<text text-anchor="middle" x="421" y="-224" font-family="Helvetica,sans-Serif" font-size="10.00"> m_cond</text>
</g>
<!-- Node11 -->
<g id="node25" class="node"><title>Node11</title>
<a xlink:href="classstxxl_1_1counting__ptr.html" target="_top" xlink:title="High&#45;performance smart pointer used as a wrapping reference counting pointer. ">
<polygon fill="none" stroke="black" points="246.5,-410 246.5,-444 343.5,-444 343.5,-410 246.5,-410"/>
<text text-anchor="start" x="254.5" y="-431" font-family="Helvetica,sans-Serif" font-size="10.00">stxxl::counting_ptr</text>
<text text-anchor="middle" x="295" y="-418" font-family="Helvetica,sans-Serif" font-size="10.00">&lt; Type &gt;</text>
</a>
</g>
<!-- Node11&#45;&gt;Node5 -->
<g id="edge30" class="edge"><title>Node11&#45;&gt;Node5</title>
<path fill="none" stroke="#9a32cd" stroke-dasharray="5,2" d="M353.754,-420.806C389.834,-414.481 435.247,-401.72 468,-376 480.53,-366.16 474.755,-356.286 486,-345 541.254,-289.544 564.264,-282.294 638,-256 666.163,-245.957 698.386,-239.788 726.902,-236.001"/>
<polygon fill="#9a32cd" stroke="#9a32cd" points="353.148,-417.358 343.843,-422.425 354.277,-424.267 353.148,-417.358"/>
<text text-anchor="middle" x="553" y="-349" font-family="Helvetica,sans-Serif" font-size="10.00"> read_reqs</text>
</g>
<!-- Node20 -->
<g id="node52" class="node"><title>Node20</title>
<a xlink:href="classstxxl_1_1counting__ptr.html" target="_top" xlink:title="stxxl::counting_ptr\l\&lt; sorted_runs_data_type \&gt;">
<polygon fill="none" stroke="black" points="486,-434 486,-468 620,-468 620,-434 486,-434"/>
<text text-anchor="start" x="494" y="-455" font-family="Helvetica,sans-Serif" font-size="10.00">stxxl::counting_ptr</text>
<text text-anchor="middle" x="553" y="-442" font-family="Helvetica,sans-Serif" font-size="10.00">&lt; sorted_runs_data_type &gt;</text>
</a>
</g>
<!-- Node11&#45;&gt;Node20 -->
<g id="edge68" class="edge"><title>Node11&#45;&gt;Node20</title>
<path fill="none" stroke="orange" stroke-dasharray="5,2" d="M353.489,-432.441C392.788,-436.097 444.69,-440.925 485.706,-444.74"/>
<polygon fill="orange" stroke="orange" points="353.809,-428.956 343.528,-431.514 353.161,-435.925 353.809,-428.956"/>
<text text-anchor="start" x="377" y="-459" font-family="Helvetica,sans-Serif" font-size="10.00"> &lt; sorted_runs_data</text>
<text text-anchor="middle" x="421" y="-446" font-family="Helvetica,sans-Serif" font-size="10.00">_type &gt;</text>
</g>
<!-- Node12 -->
<g id="node27" class="node"><title>Node12</title>
<a xlink:href="classstxxl_1_1completion__handler.html" target="_top" xlink:title="Completion handler class (Loki&#45;style). ">
<polygon fill="none" stroke="black" points="489,-23.5 489,-44.5 617,-44.5 617,-23.5 489,-23.5"/>
<text text-anchor="middle" x="553" y="-31.5" font-family="Helvetica,sans-Serif" font-size="10.00">stxxl::completion_handler</text>
</a>
</g>
<!-- Node12&#45;&gt;Node5 -->
<g id="edge32" class="edge"><title>Node12&#45;&gt;Node5</title>
<path fill="none" stroke="#9a32cd" stroke-dasharray="5,2" d="M574.527,-50.8101C621.763,-87.6955 734.086,-175.406 781.87,-212.719"/>
<polygon fill="#9a32cd" stroke="#9a32cd" points="576.531,-47.9339 566.495,-44.5378 572.222,-53.4511 576.531,-47.9339"/>
<text text-anchor="middle" x="671" y="-153" font-family="Helvetica,sans-Serif" font-size="10.00"> do_after_fetch</text>
</g>
<!-- Node13 -->
<g id="node29" class="node"><title>Node13</title>
<a xlink:href="structstxxl_1_1compat__unique__ptr.html" target="_top" xlink:title="stxxl::compat_unique\l_ptr\&lt; stxxl::completion\l_handler_impl \&gt;">
<polygon fill="none" stroke="black" points="237,-0.5 237,-47.5 353,-47.5 353,-0.5 237,-0.5"/>
<text text-anchor="start" x="245" y="-34.5" font-family="Helvetica,sans-Serif" font-size="10.00">stxxl::compat_unique</text>
<text text-anchor="start" x="245" y="-21.5" font-family="Helvetica,sans-Serif" font-size="10.00">_ptr&lt; stxxl::completion</text>
<text text-anchor="middle" x="295" y="-8.5" font-family="Helvetica,sans-Serif" font-size="10.00">_handler_impl &gt;</text>
</a>
</g>
<!-- Node13&#45;&gt;Node12 -->
<g id="edge34" class="edge"><title>Node13&#45;&gt;Node12</title>
<path fill="none" stroke="#9a32cd" stroke-dasharray="5,2" d="M363.389,-26.6507C402.212,-28.1555 450.515,-30.0277 488.651,-31.5059"/>
<polygon fill="#9a32cd" stroke="#9a32cd" points="363.35,-23.1467 353.222,-26.2567 363.079,-30.1414 363.35,-23.1467"/>
<text text-anchor="middle" x="421" y="-34" font-family="Helvetica,sans-Serif" font-size="10.00"> m_ptr</text>
</g>
<!-- Node14 -->
<g id="node31" class="node"><title>Node14</title>
<a xlink:href="structstxxl_1_1compat__unique__ptr.html" target="_top" xlink:title="stxxl::compat_unique\l_ptr\&lt; Type \&gt;">
<polygon fill="none" stroke="black" points="0,-7 0,-41 110,-41 110,-7 0,-7"/>
<text text-anchor="start" x="8" y="-28" font-family="Helvetica,sans-Serif" font-size="10.00">stxxl::compat_unique</text>
<text text-anchor="middle" x="55" y="-15" font-family="Helvetica,sans-Serif" font-size="10.00">_ptr&lt; Type &gt;</text>
</a>
</g>
<!-- Node14&#45;&gt;Node13 -->
<g id="edge36" class="edge"><title>Node14&#45;&gt;Node13</title>
<path fill="none" stroke="orange" stroke-dasharray="5,2" d="M120.096,-24C156.538,-24 201.593,-24 236.848,-24"/>
<polygon fill="orange" stroke="orange" points="120.061,-20.5001 110.061,-24 120.061,-27.5001 120.061,-20.5001"/>
<text text-anchor="start" x="128.5" y="-41" font-family="Helvetica,sans-Serif" font-size="10.00"> &lt; stxxl::completion</text>
<text text-anchor="middle" x="172" y="-28" font-family="Helvetica,sans-Serif" font-size="10.00">_handler_impl &gt;</text>
</g>
<!-- Node15&#45;&gt;Node4 -->
<g id="edge40" class="edge"><title>Node15&#45;&gt;Node4</title>
<path fill="none" stroke="#9a32cd" stroke-dasharray="5,2" d="M895.426,-331.735C898.31,-332.202 901.173,-332.626 904,-333 1119.02,-361.444 1175.86,-350.949 1392,-333 1399.73,-332.358 1407.79,-331.48 1415.79,-330.474"/>
<polygon fill="#9a32cd" stroke="#9a32cd" points="896.025,-328.286 885.569,-329.994 894.808,-335.18 896.025,-328.286"/>
<text text-anchor="middle" x="1147" y="-354" font-family="Helvetica,sans-Serif" font-size="10.00"> m_losers</text>
</g>
<!-- Node15&#45;&gt;Node16 -->
<g id="edge54" class="edge"><title>Node15&#45;&gt;Node16</title>
<path fill="none" stroke="#9a32cd" stroke-dasharray="5,2" d="M862.652,-280.556C875.996,-275.275 890.286,-270.352 904,-267 962.534,-252.695 1031.05,-247.494 1080.38,-245.698"/>
<polygon fill="#9a32cd" stroke="#9a32cd" points="861.059,-277.426 853.125,-284.447 863.706,-283.906 861.059,-277.426"/>
<text text-anchor="middle" x="978" y="-271" font-family="Helvetica,sans-Serif" font-size="10.00"> m_losers</text>
</g>
<!-- Node16&#45;&gt;Node4 -->
<g id="edge46" class="edge"><title>Node16&#45;&gt;Node4</title>
<path fill="none" stroke="orange" stroke-dasharray="5,2" d="M1223.94,-243.27C1273.03,-244.181 1337.45,-249.158 1392,-266 1404.89,-269.979 1417.96,-275.912 1430.1,-282.386"/>
<polygon fill="orange" stroke="orange" points="1223.75,-239.767 1213.71,-243.134 1223.66,-246.766 1223.75,-239.767"/>
<text text-anchor="start" x="1244" y="-296" font-family="Helvetica,sans-Serif" font-size="10.00"> &lt; typename runs_creator</text>
<text text-anchor="start" x="1244" y="-283" font-family="Helvetica,sans-Serif" font-size="10.00">_type::sorted_runs_type,</text>
<text text-anchor="middle" x="1317" y="-270" font-family="Helvetica,sans-Serif" font-size="10.00"> cmp_type, alloc_strategy_type &gt;</text>
</g>
<!-- Node17 -->
<g id="node44" class="node"><title>Node17</title>
<a xlink:href="classstxxl_1_1stream_1_1runs__merger.html" target="_top" xlink:title="Merges sorted runs. ">
<polygon fill="none" stroke="black" points="1410,-212.5 1410,-259.5 1562,-259.5 1562,-212.5 1410,-212.5"/>
<text text-anchor="start" x="1418" y="-246.5" font-family="Helvetica,sans-Serif" font-size="10.00">stxxl::stream::runs</text>
<text text-anchor="start" x="1418" y="-233.5" font-family="Helvetica,sans-Serif" font-size="10.00">_merger&lt; RunsType, Compare</text>
<text text-anchor="middle" x="1486" y="-220.5" font-family="Helvetica,sans-Serif" font-size="10.00">Type, AllocStr &gt;</text>
</a>
</g>
<!-- Node16&#45;&gt;Node17 -->
<g id="edge58" class="edge"><title>Node16&#45;&gt;Node17</title>
<path fill="none" stroke="midnightblue" d="M1223.73,-242.963C1279.37,-241.486 1354.3,-239.496 1409.82,-238.023"/>
<polygon fill="midnightblue" stroke="midnightblue" points="1223.47,-239.468 1213.57,-243.233 1223.66,-246.466 1223.47,-239.468"/>
</g>
<!-- Node17&#45;&gt;Node3 -->
<g id="edge56" class="edge"><title>Node17&#45;&gt;Node3</title>
<path fill="none" stroke="orange" stroke-dasharray="5,2" d="M1572.2,-244.246C1618.55,-250.198 1676.25,-260.071 1726,-276 1731.83,-277.866 1737.76,-280.058 1743.65,-282.447"/>
<polygon fill="orange" stroke="orange" points="1572.54,-240.762 1562.19,-242.998 1571.68,-247.708 1572.54,-240.762"/>
<text text-anchor="start" x="1580" y="-306" font-family="Helvetica,sans-Serif" font-size="10.00"> &lt; typename runs_creator</text>
<text text-anchor="start" x="1580" y="-293" font-family="Helvetica,sans-Serif" font-size="10.00">_type::sorted_runs_type,</text>
<text text-anchor="middle" x="1653" y="-280" font-family="Helvetica,sans-Serif" font-size="10.00"> cmp_type, alloc_strategy_type &gt;</text>
</g>
<!-- Node18 -->
<g id="node47" class="node"><title>Node18</title>
<a xlink:href="classstxxl_1_1stream_1_1runs__creator.html" target="_top" xlink:title="stxxl::stream::runs\l_creator\&lt; stream::use\l_push\&lt; ValueType \&gt;, cmp\l_type, block_size, alloc\l_strategy_type \&gt;">
<polygon fill="none" stroke="black" points="1420,-504.5 1420,-577.5 1552,-577.5 1552,-504.5 1420,-504.5"/>
<text text-anchor="start" x="1428" y="-564.5" font-family="Helvetica,sans-Serif" font-size="10.00">stxxl::stream::runs</text>
<text text-anchor="start" x="1428" y="-551.5" font-family="Helvetica,sans-Serif" font-size="10.00">_creator&lt; stream::use</text>
<text text-anchor="start" x="1428" y="-538.5" font-family="Helvetica,sans-Serif" font-size="10.00">_push&lt; ValueType &gt;, cmp</text>
<text text-anchor="start" x="1428" y="-525.5" font-family="Helvetica,sans-Serif" font-size="10.00">_type, block_size, alloc</text>
<text text-anchor="middle" x="1486" y="-512.5" font-family="Helvetica,sans-Serif" font-size="10.00">_strategy_type &gt;</text>
</a>
</g>
<!-- Node18&#45;&gt;Node1 -->
<g id="edge60" class="edge"><title>Node18&#45;&gt;Node1</title>
<path fill="none" stroke="#9a32cd" stroke-dasharray="5,2" d="M1562.29,-541C1675.1,-541 1884.62,-541 1991.9,-541"/>
<polygon fill="#9a32cd" stroke="#9a32cd" points="1562.01,-537.5 1552.01,-541 1562.01,-544.5 1562.01,-537.5"/>
<text text-anchor="middle" x="1814" y="-545" font-family="Helvetica,sans-Serif" font-size="10.00"> m_runs_creator</text>
</g>
<!-- Node19&#45;&gt;Node18 -->
<g id="edge62" class="edge"><title>Node19&#45;&gt;Node18</title>
<path fill="none" stroke="midnightblue" d="M1221.21,-566.776C1280.46,-561.008 1362.74,-552.999 1419.79,-547.446"/>
<polygon fill="midnightblue" stroke="midnightblue" points="1220.78,-563.302 1211.16,-567.754 1221.45,-570.269 1220.78,-563.302"/>
</g>
<!-- Node20&#45;&gt;Node19 -->
<g id="edge66" class="edge"><title>Node20&#45;&gt;Node19</title>
<path fill="none" stroke="#9a32cd" stroke-dasharray="5,2" d="M630.132,-440.798C734.016,-431.049 920.951,-427.916 1052,-508 1062.2,-514.236 1060.76,-520.404 1070,-528 1074.09,-531.363 1078.45,-534.644 1082.94,-537.806"/>
<polygon fill="#9a32cd" stroke="#9a32cd" points="629.645,-437.329 620.036,-441.792 630.331,-444.296 629.645,-437.329"/>
<text text-anchor="middle" x="804" y="-451" font-family="Helvetica,sans-Serif" font-size="10.00"> m_result</text>
</g>
<!-- Node20&#45;&gt;Node21 -->
<g id="edge76" class="edge"><title>Node20&#45;&gt;Node21</title>
<path fill="none" stroke="#9a32cd" stroke-dasharray="5,2" d="M586.755,-473.725C601.815,-482.771 620.16,-492.353 638,-498 669.644,-508.016 706.189,-512.674 736.921,-514.762"/>
<polygon fill="#9a32cd" stroke="#9a32cd" points="588.181,-470.492 577.836,-468.203 584.496,-476.443 588.181,-470.492"/>
<text text-anchor="middle" x="671" y="-515" font-family="Helvetica,sans-Serif" font-size="10.00"> m_result</text>
</g>
<!-- Node21&#45;&gt;Node19 -->
<g id="edge72" class="edge"><title>Node21&#45;&gt;Node19</title>
<path fill="none" stroke="orange" stroke-dasharray="5,2" d="M881.104,-512.405C930.645,-511.954 995.978,-514.852 1052,-529 1062.26,-531.592 1072.75,-535.319 1082.84,-539.534"/>
<polygon fill="orange" stroke="orange" points="881.048,-508.905 871.097,-512.543 881.145,-515.905 881.048,-508.905"/>
<text text-anchor="start" x="904" y="-559" font-family="Helvetica,sans-Serif" font-size="10.00"> &lt; stream::use_push</text>
<text text-anchor="start" x="904" y="-546" font-family="Helvetica,sans-Serif" font-size="10.00">&lt; ValueType &gt;, cmp_type,</text>
<text text-anchor="middle" x="978" y="-533" font-family="Helvetica,sans-Serif" font-size="10.00"> BlockSize, alloc_strategy_type &gt;</text>
</g>
<!-- Node22 -->
<g id="node61" class="node"><title>Node22</title>
<a xlink:href="classstxxl_1_1stream_1_1runs__creator.html" target="_top" xlink:title="Forms sorted runs of data from a stream. ">
<polygon fill="none" stroke="black" points="1070.5,-471.5 1070.5,-518.5 1223.5,-518.5 1223.5,-471.5 1070.5,-471.5"/>
<text text-anchor="start" x="1078.5" y="-505.5" font-family="Helvetica,sans-Serif" font-size="10.00">stxxl::stream::runs</text>
<text text-anchor="start" x="1078.5" y="-492.5" font-family="Helvetica,sans-Serif" font-size="10.00">_creator&lt; Input, CompareType,</text>
<text text-anchor="middle" x="1147" y="-479.5" font-family="Helvetica,sans-Serif" font-size="10.00"> BlockSize, AllocStr &gt;</text>
</a>
</g>
<!-- Node21&#45;&gt;Node22 -->
<g id="edge82" class="edge"><title>Node21&#45;&gt;Node22</title>
<path fill="none" stroke="midnightblue" d="M881.291,-510.494C888.963,-509.976 896.633,-509.47 904,-509 959.667,-505.448 1022.53,-501.837 1070.37,-499.172"/>
<polygon fill="midnightblue" stroke="midnightblue" points="880.97,-507.008 871.231,-511.18 881.446,-513.992 880.97,-507.008"/>
</g>
<!-- Node22&#45;&gt;Node18 -->
<g id="edge80" class="edge"><title>Node22&#45;&gt;Node18</title>
<path fill="none" stroke="orange" stroke-dasharray="5,2" d="M1233.78,-492.994C1280.99,-493.465 1340.17,-496.601 1392,-507 1401.19,-508.843 1410.68,-511.422 1419.95,-514.343"/>
<polygon fill="orange" stroke="orange" points="1233.61,-489.493 1223.59,-492.932 1233.57,-496.493 1233.61,-489.493"/>
<text text-anchor="start" x="1242" y="-537" font-family="Helvetica,sans-Serif" font-size="10.00"> &lt; stream::use_push</text>
<text text-anchor="start" x="1242" y="-524" font-family="Helvetica,sans-Serif" font-size="10.00">&lt; ValueType &gt;, cmp_type,</text>
<text text-anchor="middle" x="1317" y="-511" font-family="Helvetica,sans-Serif" font-size="10.00"> block_size, alloc_strategy_type &gt;</text>
</g>
</g>
</svg>
