<?xml version="1.0" encoding="UTF-8" standalone="no"?>
<!DOCTYPE svg PUBLIC "-//W3C//DTD SVG 1.1//EN"
 "http://www.w3.org/Graphics/SVG/1.1/DTD/svg11.dtd">
<!-- Generated by graphviz version 2.38.0 (20140413.2041)
 -->
<!-- Title: stxxl::block_prefetcher&lt; BlockType, BidIteratorType &gt; Pages: 1 -->
<svg width="876pt" height="215pt"
 viewBox="0.00 0.00 876.00 215.18" xmlns="http://www.w3.org/2000/svg" xmlns:xlink="http://www.w3.org/1999/xlink">
<g id="graph0" class="graph" transform="scale(1 1) rotate(0) translate(4 211.179)">
<title>stxxl::block_prefetcher&lt; BlockType, BidIteratorType &gt;</title>
<!-- Node1 -->
<g id="node1" class="node"><title>Node1</title>
<polygon fill="#bfbfbf" stroke="black" points="714,-93 714,-123 868,-123 868,-93 714,-93"/>
<text text-anchor="start" x="722" y="-111" font-family="Helvetica,sans-Serif" font-size="10.00">stxxl::block_prefetcher</text>
<text text-anchor="middle" x="791" y="-100" font-family="Helvetica,sans-Serif" font-size="10.00">&lt; BlockType, BidIteratorType &gt;</text>
</g>
<!-- Node2 -->
<g id="node2" class="node"><title>Node2</title>
<g id="a_node2"><a xlink:href="classstxxl_1_1noncopyable.html" target="_top" xlink:title="stxxl::noncopyable">
<polygon fill="none" stroke="black" points="6,-179.5 6,-198.5 104,-198.5 104,-179.5 6,-179.5"/>
<text text-anchor="middle" x="55" y="-186.5" font-family="Helvetica,sans-Serif" font-size="10.00">stxxl::noncopyable</text>
</a>
</g>
</g>
<!-- Node2&#45;&gt;Node1 -->
<g id="edge1" class="edge"><title>Node2&#45;&gt;Node1</title>
<path fill="none" stroke="#8b1a1a" d="M101.624,-200.711C110.325,-202.496 119.4,-204.056 128,-205 166.436,-209.219 176.334,-205.276 215,-205 391.711,-203.738 436.581,-204.361 612,-183 649.501,-178.433 660.756,-183.601 696,-170 724.999,-158.809 754.237,-137.602 772.231,-123.138"/>
<polygon fill="#8b1a1a" stroke="#8b1a1a" points="102.148,-197.243 91.6325,-198.535 100.659,-204.082 102.148,-197.243"/>
</g>
<!-- Node5 -->
<g id="node5" class="node"><title>Node5</title>
<g id="a_node5"><a xlink:href="classstxxl_1_1onoff__switch.html" target="_top" xlink:title="stxxl::onoff_switch">
<polygon fill="none" stroke="black" points="498.5,-154.5 498.5,-173.5 597.5,-173.5 597.5,-154.5 498.5,-154.5"/>
<text text-anchor="middle" x="548" y="-161.5" font-family="Helvetica,sans-Serif" font-size="10.00">stxxl::onoff_switch</text>
</a>
</g>
</g>
<!-- Node2&#45;&gt;Node5 -->
<g id="edge5" class="edge"><title>Node2&#45;&gt;Node5</title>
<path fill="none" stroke="#8b1a1a" d="M114.472,-190.693C194.202,-192.29 341.37,-192.71 466,-179 477.799,-177.702 490.462,-175.669 502.188,-173.514"/>
<polygon fill="#8b1a1a" stroke="#8b1a1a" points="114.222,-187.187 104.149,-190.471 114.072,-194.185 114.222,-187.187"/>
</g>
<!-- Node6 -->
<g id="node6" class="node"><title>Node6</title>
<g id="a_node6"><a xlink:href="classstxxl_1_1mutex.html" target="_top" xlink:title="stxxl::mutex">
<polygon fill="none" stroke="black" points="258.5,-154.5 258.5,-173.5 329.5,-173.5 329.5,-154.5 258.5,-154.5"/>
<text text-anchor="middle" x="294" y="-161.5" font-family="Helvetica,sans-Serif" font-size="10.00">stxxl::mutex</text>
</a>
</g>
</g>
<!-- Node2&#45;&gt;Node6 -->
<g id="edge7" class="edge"><title>Node2&#45;&gt;Node6</title>
<path fill="none" stroke="#8b1a1a" d="M114.203,-182.86C159.366,-178.096 220.459,-171.652 258.267,-167.664"/>
<polygon fill="#8b1a1a" stroke="#8b1a1a" points="113.824,-179.381 104.246,-183.911 114.558,-186.342 113.824,-179.381"/>
</g>
<!-- Node7 -->
<g id="node7" class="node"><title>Node7</title>
<g id="a_node7"><a xlink:href="classstxxl_1_1condition__variable.html" target="_top" xlink:title="stxxl::condition_variable">
<polygon fill="none" stroke="black" points="233,-116.5 233,-135.5 355,-135.5 355,-116.5 233,-116.5"/>
<text text-anchor="middle" x="294" y="-123.5" font-family="Helvetica,sans-Serif" font-size="10.00">stxxl::condition_variable</text>
</a>
</g>
</g>
<!-- Node2&#45;&gt;Node7 -->
<g id="edge9" class="edge"><title>Node2&#45;&gt;Node7</title>
<path fill="none" stroke="#8b1a1a" d="M99.8695,-176.694C109.15,-174.124 118.892,-171.452 128,-169 171.735,-157.228 222.13,-144.168 255.602,-135.564"/>
<polygon fill="#8b1a1a" stroke="#8b1a1a" points="98.7295,-173.378 90.0312,-179.426 100.603,-180.122 98.7295,-173.378"/>
</g>
<!-- Node3 -->
<g id="node3" class="node"><title>Node3</title>
<g id="a_node3"><a xlink:href="structstxxl_1_1choose__int__types.html" target="_top" xlink:title="stxxl::choose_int_types\l\&lt; my_pointer_size \&gt;">
<polygon fill="none" stroke="black" points="488,-99 488,-129 608,-129 608,-99 488,-99"/>
<text text-anchor="start" x="496" y="-117" font-family="Helvetica,sans-Serif" font-size="10.00">stxxl::choose_int_types</text>
<text text-anchor="middle" x="548" y="-106" font-family="Helvetica,sans-Serif" font-size="10.00">&lt; my_pointer_size &gt;</text>
</a>
</g>
</g>
<!-- Node3&#45;&gt;Node1 -->
<g id="edge2" class="edge"><title>Node3&#45;&gt;Node1</title>
<path fill="none" stroke="#9a32cd" stroke-dasharray="5,2" d="M618.552,-109.456C622.424,-109.282 626.26,-109.127 630,-109 657.346,-108.071 687.335,-107.709 713.886,-107.615"/>
<polygon fill="#9a32cd" stroke="#9a32cd" points="618.077,-105.975 608.261,-109.962 618.42,-112.967 618.077,-105.975"/>
<text text-anchor="middle" x="663" y="-134" font-family="Helvetica,sans-Serif" font-size="10.00"> seq_length</text>
<text text-anchor="middle" x="663" y="-123" font-family="Helvetica,sans-Serif" font-size="10.00">nextconsume</text>
<text text-anchor="middle" x="663" y="-112" font-family="Helvetica,sans-Serif" font-size="10.00">nextread</text>
</g>
<!-- Node4 -->
<g id="node4" class="node"><title>Node4</title>
<g id="a_node4"><a xlink:href="structstxxl_1_1choose__int__types.html" target="_top" xlink:title="stxxl::choose_int_types\l\&lt; PtrSize \&gt;">
<polygon fill="none" stroke="black" points="234,-67 234,-97 354,-97 354,-67 234,-67"/>
<text text-anchor="start" x="242" y="-85" font-family="Helvetica,sans-Serif" font-size="10.00">stxxl::choose_int_types</text>
<text text-anchor="middle" x="294" y="-74" font-family="Helvetica,sans-Serif" font-size="10.00">&lt; PtrSize &gt;</text>
</a>
</g>
</g>
<!-- Node4&#45;&gt;Node3 -->
<g id="edge3" class="edge"><title>Node4&#45;&gt;Node3</title>
<path fill="none" stroke="orange" stroke-dasharray="5,2" d="M364.54,-84.8457C395.698,-86.7473 432.822,-89.8791 466,-95 473.138,-96.1017 480.577,-97.4978 487.928,-99.0313"/>
<polygon fill="orange" stroke="orange" points="364.402,-81.332 354.216,-84.247 363.997,-88.3202 364.402,-81.332"/>
<text text-anchor="middle" x="419.5" y="-98" font-family="Helvetica,sans-Serif" font-size="10.00"> &lt; my_pointer_size &gt;</text>
</g>
<!-- Node5&#45;&gt;Node1 -->
<g id="edge4" class="edge"><title>Node5&#45;&gt;Node1</title>
<path fill="none" stroke="#9a32cd" stroke-dasharray="5,2" d="M607.912,-157.898C634.992,-154.402 667.384,-149.24 696,-142 715.348,-137.105 736.282,-129.747 753.472,-123.126"/>
<polygon fill="#9a32cd" stroke="#9a32cd" points="607.302,-154.447 597.812,-159.157 608.168,-161.393 607.302,-154.447"/>
<text text-anchor="middle" x="663" y="-158" font-family="Helvetica,sans-Serif" font-size="10.00"> completed</text>
</g>
<!-- Node6&#45;&gt;Node5 -->
<g id="edge6" class="edge"><title>Node6&#45;&gt;Node5</title>
<path fill="none" stroke="#9a32cd" stroke-dasharray="5,2" d="M339.738,-164C384.249,-164 452.356,-164 498.23,-164"/>
<polygon fill="#9a32cd" stroke="#9a32cd" points="339.511,-160.5 329.511,-164 339.511,-167.5 339.511,-160.5"/>
<text text-anchor="middle" x="419.5" y="-167" font-family="Helvetica,sans-Serif" font-size="10.00"> m_mutex</text>
</g>
<!-- Node7&#45;&gt;Node5 -->
<g id="edge8" class="edge"><title>Node7&#45;&gt;Node5</title>
<path fill="none" stroke="#9a32cd" stroke-dasharray="5,2" d="M365.494,-134.686C396.39,-138.698 433.046,-143.736 466,-149 476.451,-150.669 487.628,-152.627 498.238,-154.567"/>
<polygon fill="#9a32cd" stroke="#9a32cd" points="365.616,-131.172 355.251,-133.366 364.722,-138.115 365.616,-131.172"/>
<text text-anchor="middle" x="419.5" y="-152" font-family="Helvetica,sans-Serif" font-size="10.00"> m_cond</text>
</g>
<!-- Node8 -->
<g id="node8" class="node"><title>Node8</title>
<g id="a_node8"><a xlink:href="classstxxl_1_1counting__ptr.html" target="_top" xlink:title="High&#45;performance smart pointer used as a wrapping reference counting pointer. ">
<polygon fill="none" stroke="black" points="499.5,-50 499.5,-80 596.5,-80 596.5,-50 499.5,-50"/>
<text text-anchor="start" x="507.5" y="-68" font-family="Helvetica,sans-Serif" font-size="10.00">stxxl::counting_ptr</text>
<text text-anchor="middle" x="548" y="-57" font-family="Helvetica,sans-Serif" font-size="10.00">&lt; Type &gt;</text>
</a>
</g>
</g>
<!-- Node8&#45;&gt;Node1 -->
<g id="edge10" class="edge"><title>Node8&#45;&gt;Node1</title>
<path fill="none" stroke="#9a32cd" stroke-dasharray="5,2" d="M606.703,-75.2956C638.721,-81.0083 678.947,-88.1855 713.552,-94.3599"/>
<polygon fill="#9a32cd" stroke="#9a32cd" points="607.073,-71.8064 596.614,-73.4954 605.844,-78.6976 607.073,-71.8064"/>
<text text-anchor="middle" x="663" y="-94" font-family="Helvetica,sans-Serif" font-size="10.00"> read_reqs</text>
</g>
<!-- Node9 -->
<g id="node9" class="node"><title>Node9</title>
<g id="a_node9"><a xlink:href="classstxxl_1_1completion__handler.html" target="_top" xlink:title="Completion handler class (Loki&#45;style). ">
<polygon fill="none" stroke="black" points="484,-11.5 484,-30.5 612,-30.5 612,-11.5 484,-11.5"/>
<text text-anchor="middle" x="548" y="-18.5" font-family="Helvetica,sans-Serif" font-size="10.00">stxxl::completion_handler</text>
</a>
</g>
</g>
<!-- Node9&#45;&gt;Node1 -->
<g id="edge11" class="edge"><title>Node9&#45;&gt;Node1</title>
<path fill="none" stroke="#9a32cd" stroke-dasharray="5,2" d="M590.378,-33.4323C597.589,-35.6122 605.015,-37.8656 612,-40 649.375,-51.42 659.427,-52.2261 696,-66 717.244,-74.0007 740.544,-84.3998 758.632,-92.8485"/>
<polygon fill="#9a32cd" stroke="#9a32cd" points="591.325,-30.0623 580.74,-30.5235 589.302,-36.7637 591.325,-30.0623"/>
<text text-anchor="middle" x="663" y="-69" font-family="Helvetica,sans-Serif" font-size="10.00"> do_after_fetch</text>
</g>
<!-- Node10 -->
<g id="node10" class="node"><title>Node10</title>
<g id="a_node10"><a xlink:href="structstxxl_1_1compat__unique__ptr.html" target="_top" xlink:title="stxxl::compat_unique\l_ptr\&lt; stxxl::completion\l_handler_impl \&gt;">
<polygon fill="none" stroke="black" points="236,-0.5 236,-41.5 352,-41.5 352,-0.5 236,-0.5"/>
<text text-anchor="start" x="244" y="-29.5" font-family="Helvetica,sans-Serif" font-size="10.00">stxxl::compat_unique</text>
<text text-anchor="start" x="244" y="-18.5" font-family="Helvetica,sans-Serif" font-size="10.00">_ptr&lt; stxxl::completion</text>
<text text-anchor="middle" x="294" y="-7.5" font-family="Helvetica,sans-Serif" font-size="10.00">_handler_impl &gt;</text>
</a>
</g>
</g>
<!-- Node10&#45;&gt;Node9 -->
<g id="edge12" class="edge"><title>Node10&#45;&gt;Node9</title>
<path fill="none" stroke="#9a32cd" stroke-dasharray="5,2" d="M362.56,-21C400.248,-21 446.898,-21 483.852,-21"/>
<polygon fill="#9a32cd" stroke="#9a32cd" points="362.183,-17.5001 352.183,-21 362.183,-24.5001 362.183,-17.5001"/>
<text text-anchor="middle" x="419.5" y="-24" font-family="Helvetica,sans-Serif" font-size="10.00"> m_ptr</text>
</g>
<!-- Node11 -->
<g id="node11" class="node"><title>Node11</title>
<g id="a_node11"><a xlink:href="structstxxl_1_1compat__unique__ptr.html" target="_top" xlink:title="stxxl::compat_unique\l_ptr\&lt; Type \&gt;">
<polygon fill="none" stroke="black" points="0,-6 0,-36 110,-36 110,-6 0,-6"/>
<text text-anchor="start" x="8" y="-24" font-family="Helvetica,sans-Serif" font-size="10.00">stxxl::compat_unique</text>
<text text-anchor="middle" x="55" y="-13" font-family="Helvetica,sans-Serif" font-size="10.00">_ptr&lt; Type &gt;</text>
</a>
</g>
</g>
<!-- Node11&#45;&gt;Node10 -->
<g id="edge13" class="edge"><title>Node11&#45;&gt;Node10</title>
<path fill="none" stroke="orange" stroke-dasharray="5,2" d="M120.485,-21C156.532,-21 201.062,-21 235.851,-21"/>
<polygon fill="orange" stroke="orange" points="120.076,-17.5001 110.076,-21 120.075,-24.5001 120.076,-17.5001"/>
<text text-anchor="start" x="128" y="-35" font-family="Helvetica,sans-Serif" font-size="10.00"> &lt; stxxl::completion</text>
<text text-anchor="middle" x="171.5" y="-24" font-family="Helvetica,sans-Serif" font-size="10.00">_handler_impl &gt;</text>
</g>
</g>
</svg>
