<?xml version="1.0" encoding="UTF-8" standalone="no"?>
<!DOCTYPE svg PUBLIC "-//W3C//DTD SVG 1.1//EN"
 "http://www.w3.org/Graphics/SVG/1.1/DTD/svg11.dtd">
<!-- Generated by graphviz version 2.38.0 (20140413.2041)
 -->
<!-- Title: stxxl::ppq_local::external_array_writer&lt; ExternalArrayType &gt; Pages: 1 -->
<svg width="180pt" height="163pt"
 viewBox="0.00 0.00 180.00 163.00" xmlns="http://www.w3.org/2000/svg" xmlns:xlink="http://www.w3.org/1999/xlink">
<g id="graph0" class="graph" transform="scale(1 1) rotate(0) translate(4 159)">
<title>stxxl::ppq_local::external_array_writer&lt; ExternalArrayType &gt;</title>
<!-- Node1 -->
<g id="node1" class="node"><title>Node1</title>
<polygon fill="#bfbfbf" stroke="black" points="0,-0.5 0,-30.5 172,-30.5 172,-0.5 0,-0.5"/>
<text text-anchor="start" x="8" y="-18.5" font-family="Helvetica,sans-Serif" font-size="10.00">stxxl::ppq_local::external</text>
<text text-anchor="middle" x="86" y="-7.5" font-family="Helvetica,sans-Serif" font-size="10.00">_array_writer&lt; ExternalArrayType &gt;</text>
</g>
<!-- Node2 -->
<g id="node2" class="node"><title>Node2</title>
<g id="a_node2"><a xlink:href="classstxxl_1_1noncopyable.html" target="_top" xlink:title="stxxl::noncopyable">
<polygon fill="none" stroke="black" points="43,-135.5 43,-154.5 141,-154.5 141,-135.5 43,-135.5"/>
<text text-anchor="middle" x="92" y="-142.5" font-family="Helvetica,sans-Serif" font-size="10.00">stxxl::noncopyable</text>
</a>
</g>
</g>
<!-- Node2&#45;&gt;Node1 -->
<g id="edge1" class="edge"><title>Node2&#45;&gt;Node1</title>
<path fill="none" stroke="midnightblue" d="M90.6441,-125.068C90.0808,-116.765 89.454,-106.902 89,-98 87.7956,-74.3854 86.8859,-46.8979 86.3989,-30.6397"/>
<polygon fill="midnightblue" stroke="midnightblue" points="87.1625,-125.454 91.3507,-135.186 94.1455,-124.966 87.1625,-125.454"/>
</g>
<!-- Node3 -->
<g id="node3" class="node"><title>Node3</title>
<g id="a_node3"><a xlink:href="classstxxl_1_1mutex.html" target="_top" xlink:title="stxxl::mutex">
<polygon fill="none" stroke="black" points="98.5,-78.5 98.5,-97.5 169.5,-97.5 169.5,-78.5 98.5,-78.5"/>
<text text-anchor="middle" x="134" y="-85.5" font-family="Helvetica,sans-Serif" font-size="10.00">stxxl::mutex</text>
</a>
</g>
</g>
<!-- Node2&#45;&gt;Node3 -->
<g id="edge3" class="edge"><title>Node2&#45;&gt;Node3</title>
<path fill="none" stroke="#8b1a1a" d="M104.803,-127.234C112.242,-117.493 121.308,-105.62 127.345,-97.7149"/>
<polygon fill="#8b1a1a" stroke="#8b1a1a" points="101.85,-125.334 98.5625,-135.406 107.413,-129.583 101.85,-125.334"/>
</g>
<!-- Node3&#45;&gt;Node1 -->
<g id="edge2" class="edge"><title>Node3&#45;&gt;Node1</title>
<path fill="none" stroke="#9a32cd" stroke-dasharray="5,2" d="M122.452,-70.0389C114.234,-57.968 103.321,-41.94 95.5838,-30.5762"/>
<polygon fill="#9a32cd" stroke="#9a32cd" points="119.593,-72.0591 128.114,-78.3553 125.379,-68.1195 119.593,-72.0591"/>
<text text-anchor="middle" x="137" y="-52" font-family="Helvetica,sans-Serif" font-size="10.00"> m_mutex</text>
</g>
</g>
</svg>
