<?xml version="1.0" encoding="UTF-8" standalone="no"?>
<!DOCTYPE svg PUBLIC "-//W3C//DTD SVG 1.1//EN"
 "http://www.w3.org/Graphics/SVG/1.1/DTD/svg11.dtd">
<!-- Generated by graphviz version 2.38.0 (20140413.2041)
 -->
<!-- Title: stxxl::parallel::LoserTreePointerUnguarded&lt; Stable, ValueType, Comparator &gt; Pages: 1 -->
<svg width="597pt" height="88pt"
 viewBox="0.00 0.00 597.00 88.00" xmlns="http://www.w3.org/2000/svg" xmlns:xlink="http://www.w3.org/1999/xlink">
<g id="graph0" class="graph" transform="scale(1 1) rotate(0) translate(4 84)">
<title>stxxl::parallel::LoserTreePointerUnguarded&lt; Stable, ValueType, Comparator &gt;</title>
<!-- Node1 -->
<g id="node1" class="node"><title>Node1</title>
<polygon fill="#bfbfbf" stroke="black" points="455,-24.5 455,-65.5 589,-65.5 589,-24.5 455,-24.5"/>
<text text-anchor="start" x="463" y="-53.5" font-family="Helvetica,sans-Serif" font-size="10.00">stxxl::parallel::LoserTree</text>
<text text-anchor="start" x="463" y="-42.5" font-family="Helvetica,sans-Serif" font-size="10.00">PointerUnguarded&lt; Stable,</text>
<text text-anchor="middle" x="522" y="-31.5" font-family="Helvetica,sans-Serif" font-size="10.00"> ValueType, Comparator &gt;</text>
</g>
<!-- Node2 -->
<g id="node2" class="node"><title>Node2</title>
<g id="a_node2"><a xlink:href="classstxxl_1_1parallel_1_1LoserTreePointerUnguardedBase.html" target="_top" xlink:title="stxxl::parallel::LoserTree\lPointerUnguardedBase\&lt; ValueType,\l Comparator \&gt;">
<polygon fill="none" stroke="black" points="242,-24.5 242,-65.5 418,-65.5 418,-24.5 242,-24.5"/>
<text text-anchor="start" x="250" y="-53.5" font-family="Helvetica,sans-Serif" font-size="10.00">stxxl::parallel::LoserTree</text>
<text text-anchor="start" x="250" y="-42.5" font-family="Helvetica,sans-Serif" font-size="10.00">PointerUnguardedBase&lt; ValueType,</text>
<text text-anchor="middle" x="330" y="-31.5" font-family="Helvetica,sans-Serif" font-size="10.00"> Comparator &gt;</text>
</a>
</g>
</g>
<!-- Node2&#45;&gt;Node1 -->
<g id="edge1" class="edge"><title>Node2&#45;&gt;Node1</title>
<path fill="none" stroke="midnightblue" d="M428.32,-45C437.275,-45 446.203,-45 454.785,-45"/>
<polygon fill="midnightblue" stroke="midnightblue" points="428.215,-41.5001 418.215,-45 428.215,-48.5001 428.215,-41.5001"/>
</g>
<!-- Node3 -->
<g id="node3" class="node"><title>Node3</title>
<g id="a_node3"><a xlink:href="classstxxl_1_1noncopyable.html" target="_top" xlink:title="stxxl::noncopyable">
<polygon fill="none" stroke="black" points="39,-60.5 39,-79.5 137,-79.5 137,-60.5 39,-60.5"/>
<text text-anchor="middle" x="88" y="-67.5" font-family="Helvetica,sans-Serif" font-size="10.00">stxxl::noncopyable</text>
</a>
</g>
</g>
<!-- Node3&#45;&gt;Node2 -->
<g id="edge2" class="edge"><title>Node3&#45;&gt;Node2</title>
<path fill="none" stroke="#8b1a1a" d="M147.436,-63.9129C175.828,-60.9555 210.525,-57.3411 241.953,-54.0673"/>
<polygon fill="#8b1a1a" stroke="#8b1a1a" points="146.862,-60.4536 137.279,-64.971 147.588,-67.416 146.862,-60.4536"/>
</g>
<!-- Node4 -->
<g id="node4" class="node"><title>Node4</title>
<g id="a_node4"><a xlink:href="structstxxl_1_1parallel_1_1LoserTreePointerUnguardedBase_1_1Loser.html" target="_top" xlink:title="Internal representation of a loser tree player/node. ">
<polygon fill="none" stroke="black" points="0,-0.5 0,-41.5 176,-41.5 176,-0.5 0,-0.5"/>
<text text-anchor="start" x="8" y="-29.5" font-family="Helvetica,sans-Serif" font-size="10.00">stxxl::parallel::LoserTree</text>
<text text-anchor="start" x="8" y="-18.5" font-family="Helvetica,sans-Serif" font-size="10.00">PointerUnguardedBase&lt; ValueType,</text>
<text text-anchor="middle" x="88" y="-7.5" font-family="Helvetica,sans-Serif" font-size="10.00"> Comparator &gt;::Loser</text>
</a>
</g>
</g>
<!-- Node4&#45;&gt;Node2 -->
<g id="edge3" class="edge"><title>Node4&#45;&gt;Node2</title>
<path fill="none" stroke="#9a32cd" stroke-dasharray="5,2" d="M186.411,-30.7411C204.723,-32.5723 223.763,-34.4763 241.741,-36.2741"/>
<polygon fill="#9a32cd" stroke="#9a32cd" points="186.623,-27.2449 176.324,-29.7324 185.927,-34.2102 186.623,-27.2449"/>
<text text-anchor="middle" x="209" y="-37" font-family="Helvetica,sans-Serif" font-size="10.00"> losers</text>
</g>
</g>
</svg>
