<?xml version="1.0" encoding="UTF-8" standalone="no"?>
<!DOCTYPE svg PUBLIC "-//W3C//DTD SVG 1.1//EN"
 "http://www.w3.org/Graphics/SVG/1.1/DTD/svg11.dtd">
<!-- Generated by graphviz version 2.38.0 (20140413.2041)
 -->
<!-- Title: stxxl::parallel_priority_queue&lt; ValueType, CompareType, AllocStrategy, BlockSize, DefaultMemSize, MaxItems &gt; Pages: 1 -->
<svg width="2032pt" height="1154pt"
 viewBox="0.00 0.00 2032.00 1154.29" xmlns="http://www.w3.org/2000/svg" xmlns:xlink="http://www.w3.org/1999/xlink">
<g id="graph0" class="graph" transform="scale(1 1) rotate(0) translate(4 1150.29)">
<title>stxxl::parallel_priority_queue&lt; ValueType, CompareType, AllocStrategy, BlockSize, DefaultMemSize, MaxItems &gt;</title>
<!-- Node1 -->
<g id="node1" class="node"><title>Node1</title>
<polygon fill="#bfbfbf" stroke="black" points="1836,-611.294 1836,-663.294 2024,-663.294 2024,-611.294 1836,-611.294"/>
<text text-anchor="start" x="1844" y="-651.294" font-family="Helvetica,sans-Serif" font-size="10.00">stxxl::parallel_priority</text>
<text text-anchor="start" x="1844" y="-640.294" font-family="Helvetica,sans-Serif" font-size="10.00">_queue&lt; ValueType, CompareType,</text>
<text text-anchor="start" x="1844" y="-629.294" font-family="Helvetica,sans-Serif" font-size="10.00"> AllocStrategy, BlockSize, DefaultMem</text>
<text text-anchor="middle" x="1930" y="-618.294" font-family="Helvetica,sans-Serif" font-size="10.00">Size, MaxItems &gt;</text>
</g>
<!-- Node2 -->
<g id="node2" class="node"><title>Node2</title>
<g id="a_node2"><a xlink:href="classstxxl_1_1noncopyable.html" target="_top" xlink:title="stxxl::noncopyable">
<polygon fill="none" stroke="black" points="307,-922.794 307,-941.794 405,-941.794 405,-922.794 307,-922.794"/>
<text text-anchor="middle" x="356" y="-929.794" font-family="Helvetica,sans-Serif" font-size="10.00">stxxl::noncopyable</text>
</a>
</g>
</g>
<!-- Node2&#45;&gt;Node1 -->
<g id="edge1" class="edge"><title>Node2&#45;&gt;Node1</title>
<path fill="none" stroke="#8b1a1a" d="M369.608,-950.43C400.242,-992.134 483.159,-1091.29 579,-1091.29 579,-1091.29 579,-1091.29 1613,-1091.29 1823.07,-1091.29 1904.86,-759.802 1924.22,-663.333"/>
<polygon fill="#8b1a1a" stroke="#8b1a1a" points="372.401,-948.32 363.724,-942.24 366.716,-952.404 372.401,-948.32"/>
</g>
<!-- Node3 -->
<g id="node3" class="node"><title>Node3</title>
<g id="a_node3"><a xlink:href="classstxxl_1_1swap__vector.html" target="_top" xlink:title="stxxl::swap_vector\l\&lt; internal_array_type \&gt;">
<polygon fill="none" stroke="black" points="809.5,-830.294 809.5,-860.294 926.5,-860.294 926.5,-830.294 809.5,-830.294"/>
<text text-anchor="start" x="817.5" y="-848.294" font-family="Helvetica,sans-Serif" font-size="10.00">stxxl::swap_vector</text>
<text text-anchor="middle" x="868" y="-837.294" font-family="Helvetica,sans-Serif" font-size="10.00">&lt; internal_array_type &gt;</text>
</a>
</g>
</g>
<!-- Node2&#45;&gt;Node3 -->
<g id="edge3" class="edge"><title>Node2&#45;&gt;Node3</title>
<path fill="none" stroke="#8b1a1a" d="M372.907,-915.115C387.319,-900.828 409.93,-881.412 434,-872.294 561.136,-824.133 724.25,-830.464 809.403,-838.387"/>
<polygon fill="#8b1a1a" stroke="#8b1a1a" points="370.256,-912.82 365.787,-922.426 375.271,-917.704 370.256,-912.82"/>
</g>
<!-- Node4 -->
<g id="node4" class="node"><title>Node4</title>
<g id="a_node4"><a xlink:href="classstxxl_1_1swap__vector.html" target="_top" xlink:title="Vector that avoids copying of ValueType objects in push_back() (here: swap_back()) and resize() opera...">
<polygon fill="none" stroke="black" points="530.5,-786.294 530.5,-816.294 629.5,-816.294 629.5,-786.294 530.5,-786.294"/>
<text text-anchor="start" x="538.5" y="-804.294" font-family="Helvetica,sans-Serif" font-size="10.00">stxxl::swap_vector</text>
<text text-anchor="middle" x="580" y="-793.294" font-family="Helvetica,sans-Serif" font-size="10.00">&lt; ValueType &gt;</text>
</a>
</g>
</g>
<!-- Node2&#45;&gt;Node4 -->
<g id="edge5" class="edge"><title>Node2&#45;&gt;Node4</title>
<path fill="none" stroke="#8b1a1a" d="M365.963,-913.524C378.046,-890.357 401.814,-851.55 434,-831.294 462.828,-813.151 500.658,-805.752 530.449,-802.836"/>
<polygon fill="#8b1a1a" stroke="#8b1a1a" points="362.73,-912.163 361.377,-922.671 368.987,-915.3 362.73,-912.163"/>
</g>
<!-- Node8 -->
<g id="node8" class="node"><title>Node8</title>
<g id="a_node8"><a xlink:href="classstxxl_1_1swap__vector.html" target="_top" xlink:title="stxxl::swap_vector\l\&lt; external_array_type \&gt;">
<polygon fill="none" stroke="black" points="808,-693.294 808,-723.294 928,-723.294 928,-693.294 808,-693.294"/>
<text text-anchor="start" x="816" y="-711.294" font-family="Helvetica,sans-Serif" font-size="10.00">stxxl::swap_vector</text>
<text text-anchor="middle" x="868" y="-700.294" font-family="Helvetica,sans-Serif" font-size="10.00">&lt; external_array_type &gt;</text>
</a>
</g>
</g>
<!-- Node2&#45;&gt;Node8 -->
<g id="edge11" class="edge"><title>Node2&#45;&gt;Node8</title>
<path fill="none" stroke="#8b1a1a" d="M369.634,-914.125C382.094,-895.866 401.347,-866.718 416,-840.294 425.063,-823.95 419.814,-814.459 434,-802.294 541.006,-710.529 716.686,-701.973 807.894,-704.521"/>
<polygon fill="#8b1a1a" stroke="#8b1a1a" points="366.582,-912.386 363.798,-922.609 372.349,-916.354 366.582,-912.386"/>
</g>
<!-- Node19 -->
<g id="node19" class="node"><title>Node19</title>
<g id="a_node19"><a xlink:href="classstxxl_1_1read__write__pool.html" target="_top" xlink:title="stxxl::read_write_pool\l\&lt; block_type \&gt;">
<polygon fill="none" stroke="black" points="1164,-932.294 1164,-962.294 1276,-962.294 1276,-932.294 1164,-932.294"/>
<text text-anchor="start" x="1172" y="-950.294" font-family="Helvetica,sans-Serif" font-size="10.00">stxxl::read_write_pool</text>
<text text-anchor="middle" x="1220" y="-939.294" font-family="Helvetica,sans-Serif" font-size="10.00">&lt; block_type &gt;</text>
</a>
</g>
</g>
<!-- Node2&#45;&gt;Node19 -->
<g id="edge33" class="edge"><title>Node2&#45;&gt;Node19</title>
<path fill="none" stroke="#8b1a1a" d="M415.296,-929.049C523.233,-923.57 761.489,-913.952 962,-923.294 1031.83,-926.547 1111.99,-934.748 1163.96,-940.658"/>
<polygon fill="#8b1a1a" stroke="#8b1a1a" points="415.069,-925.556 405.262,-929.566 415.429,-932.547 415.069,-925.556"/>
</g>
<!-- Node20 -->
<g id="node20" class="node"><title>Node20</title>
<g id="a_node20"><a xlink:href="classstxxl_1_1prefetch__pool.html" target="_top" xlink:title="Implements dynamically resizable prefetching pool. ">
<polygon fill="none" stroke="black" points="529,-1019.29 529,-1049.29 631,-1049.29 631,-1019.29 529,-1019.29"/>
<text text-anchor="start" x="537" y="-1037.29" font-family="Helvetica,sans-Serif" font-size="10.00">stxxl::prefetch_pool</text>
<text text-anchor="middle" x="580" y="-1026.29" font-family="Helvetica,sans-Serif" font-size="10.00">&lt; BlockType &gt;</text>
</a>
</g>
</g>
<!-- Node2&#45;&gt;Node20 -->
<g id="edge35" class="edge"><title>Node2&#45;&gt;Node20</title>
<path fill="none" stroke="#8b1a1a" d="M380.583,-947.355C395.564,-956.598 415.542,-968.338 434,-977.294 467.34,-993.469 506.523,-1008.66 535.746,-1019.28"/>
<polygon fill="#8b1a1a" stroke="#8b1a1a" points="382.296,-944.298 371.96,-941.97 378.588,-950.236 382.296,-944.298"/>
</g>
<!-- Node23 -->
<g id="node23" class="node"><title>Node23</title>
<g id="a_node23"><a xlink:href="classstxxl_1_1write__pool.html" target="_top" xlink:title="Implements dynamically resizable buffered writing pool. ">
<polygon fill="none" stroke="black" points="533,-970.294 533,-1000.29 627,-1000.29 627,-970.294 533,-970.294"/>
<text text-anchor="start" x="541" y="-988.294" font-family="Helvetica,sans-Serif" font-size="10.00">stxxl::write_pool&lt;</text>
<text text-anchor="middle" x="580" y="-977.294" font-family="Helvetica,sans-Serif" font-size="10.00"> BlockType &gt;</text>
</a>
</g>
</g>
<!-- Node2&#45;&gt;Node23 -->
<g id="edge40" class="edge"><title>Node2&#45;&gt;Node23</title>
<path fill="none" stroke="#8b1a1a" d="M396.535,-944.815C408.511,-948.415 421.74,-952.201 434,-955.294 466.777,-963.563 504.141,-971.253 532.73,-976.776"/>
<polygon fill="#8b1a1a" stroke="#8b1a1a" points="397.405,-941.421 386.819,-941.854 395.364,-948.117 397.405,-941.421"/>
</g>
<!-- Node24 -->
<g id="node24" class="node"><title>Node24</title>
<g id="a_node24"><a xlink:href="classstxxl_1_1read__write__pool.html" target="_top" xlink:title="Implements dynamically resizable buffered writing and prefetched reading pool. ">
<polygon fill="none" stroke="black" points="812,-932.294 812,-962.294 924,-962.294 924,-932.294 812,-932.294"/>
<text text-anchor="start" x="820" y="-950.294" font-family="Helvetica,sans-Serif" font-size="10.00">stxxl::read_write_pool</text>
<text text-anchor="middle" x="868" y="-939.294" font-family="Helvetica,sans-Serif" font-size="10.00">&lt; BlockType &gt;</text>
</a>
</g>
</g>
<!-- Node2&#45;&gt;Node24 -->
<g id="edge42" class="edge"><title>Node2&#45;&gt;Node24</title>
<path fill="none" stroke="#8b1a1a" d="M415.587,-934.017C514.813,-936.935 714.586,-942.811 811.607,-945.664"/>
<polygon fill="#8b1a1a" stroke="#8b1a1a" points="415.538,-930.514 405.439,-933.718 415.332,-937.511 415.538,-930.514"/>
</g>
<!-- Node3&#45;&gt;Node1 -->
<g id="edge2" class="edge"><title>Node3&#45;&gt;Node1</title>
<path fill="none" stroke="#9a32cd" stroke-dasharray="5,2" d="M925.661,-863.073C942.927,-867.681 962.082,-871.992 980,-874.294 1031.58,-880.92 1045.14,-878.05 1097,-874.294 1419.98,-850.899 1535.09,-926.843 1818,-769.294 1862.6,-744.456 1897.03,-694.151 1915.05,-663.319"/>
<polygon fill="#9a32cd" stroke="#9a32cd" points="926.308,-859.621 915.737,-860.339 924.449,-866.369 926.308,-859.621"/>
<text text-anchor="middle" x="1421.5" y="-875.294" font-family="Helvetica,sans-Serif" font-size="10.00"> m_internal_arrays</text>
</g>
<!-- Node4&#45;&gt;Node3 -->
<g id="edge4" class="edge"><title>Node4&#45;&gt;Node3</title>
<path fill="none" stroke="orange" stroke-dasharray="5,2" d="M640.097,-806.029C674.122,-809.175 717.615,-813.908 756,-820.294 773.44,-823.195 792.253,-827.123 809.347,-831.006"/>
<polygon fill="orange" stroke="orange" points="640.133,-802.518 629.858,-805.104 639.503,-809.49 640.133,-802.518"/>
<text text-anchor="middle" x="702.5" y="-823.294" font-family="Helvetica,sans-Serif" font-size="10.00"> &lt; internal_array_type &gt;</text>
</g>
<!-- Node4&#45;&gt;Node8 -->
<g id="edge12" class="edge"><title>Node4&#45;&gt;Node8</title>
<path fill="none" stroke="orange" stroke-dasharray="5,2" d="M636.968,-783.094C690.626,-765.646 770.668,-739.618 820.798,-723.317"/>
<polygon fill="orange" stroke="orange" points="635.696,-779.827 627.269,-786.248 637.861,-786.484 635.696,-779.827"/>
<text text-anchor="middle" x="702.5" y="-782.294" font-family="Helvetica,sans-Serif" font-size="10.00"> &lt; external_array_type &gt;</text>
</g>
<!-- Node5 -->
<g id="node5" class="node"><title>Node5</title>
<g id="a_node5"><a xlink:href="structstxxl_1_1parallel__priority__queue_1_1inv__compare__type.html" target="_top" xlink:title="Inverse comparison functor. ">
<polygon fill="none" stroke="black" points="774,-563.294 774,-615.294 962,-615.294 962,-563.294 774,-563.294"/>
<text text-anchor="start" x="782" y="-603.294" font-family="Helvetica,sans-Serif" font-size="10.00">stxxl::parallel_priority</text>
<text text-anchor="start" x="782" y="-592.294" font-family="Helvetica,sans-Serif" font-size="10.00">_queue&lt; ValueType, CompareType,</text>
<text text-anchor="start" x="782" y="-581.294" font-family="Helvetica,sans-Serif" font-size="10.00"> AllocStrategy, BlockSize, DefaultMem</text>
<text text-anchor="middle" x="868" y="-570.294" font-family="Helvetica,sans-Serif" font-size="10.00">Size, MaxItems &gt;::inv_compare_type</text>
</a>
</g>
</g>
<!-- Node5&#45;&gt;Node1 -->
<g id="edge6" class="edge"><title>Node5&#45;&gt;Node1</title>
<path fill="none" stroke="#9a32cd" stroke-dasharray="5,2" d="M972.24,-571.811C1016.11,-565.218 1067.91,-558.532 1115,-555.294 1376.79,-537.288 1684.67,-587.978 1835.77,-617.589"/>
<polygon fill="#9a32cd" stroke="#9a32cd" points="971.498,-568.384 962.138,-573.349 972.551,-575.304 971.498,-568.384"/>
<text text-anchor="middle" x="1421.5" y="-569.294" font-family="Helvetica,sans-Serif" font-size="10.00"> m_inv_compare</text>
</g>
<!-- Node7 -->
<g id="node7" class="node"><title>Node7</title>
<g id="a_node7"><a xlink:href="structstxxl_1_1parallel__priority__queue_1_1hint__comparator.html" target="_top" xlink:title="Compares the largest value of the block hinted the latest of two external arrays. ...">
<polygon fill="none" stroke="black" points="1126,-565.294 1126,-617.294 1314,-617.294 1314,-565.294 1126,-565.294"/>
<text text-anchor="start" x="1134" y="-605.294" font-family="Helvetica,sans-Serif" font-size="10.00">stxxl::parallel_priority</text>
<text text-anchor="start" x="1134" y="-594.294" font-family="Helvetica,sans-Serif" font-size="10.00">_queue&lt; ValueType, CompareType,</text>
<text text-anchor="start" x="1134" y="-583.294" font-family="Helvetica,sans-Serif" font-size="10.00"> AllocStrategy, BlockSize, DefaultMem</text>
<text text-anchor="middle" x="1220" y="-572.294" font-family="Helvetica,sans-Serif" font-size="10.00">Size, MaxItems &gt;::hint_comparator</text>
</a>
</g>
</g>
<!-- Node5&#45;&gt;Node7 -->
<g id="edge9" class="edge"><title>Node5&#45;&gt;Node7</title>
<path fill="none" stroke="#9a32cd" stroke-dasharray="5,2" d="M972.498,-589.664C1011.52,-589.826 1056.3,-590.038 1097,-590.294 1106.32,-590.352 1116.04,-590.42 1125.75,-590.493"/>
<polygon fill="#9a32cd" stroke="#9a32cd" points="972.196,-586.163 962.182,-589.622 972.168,-593.163 972.196,-586.163"/>
<text text-anchor="middle" x="1038.5" y="-593.294" font-family="Helvetica,sans-Serif" font-size="10.00"> m_compare</text>
</g>
<!-- Node16 -->
<g id="node16" class="node"><title>Node16</title>
<g id="a_node16"><a xlink:href="structstxxl_1_1parallel__priority__queue_1_1external__min__comparator.html" target="_top" xlink:title="Compares the largest accessible value of two external arrays. ">
<polygon fill="none" stroke="black" points="1115,-636.294 1115,-688.294 1325,-688.294 1325,-636.294 1115,-636.294"/>
<text text-anchor="start" x="1123" y="-676.294" font-family="Helvetica,sans-Serif" font-size="10.00">stxxl::parallel_priority</text>
<text text-anchor="start" x="1123" y="-665.294" font-family="Helvetica,sans-Serif" font-size="10.00">_queue&lt; ValueType, CompareType,</text>
<text text-anchor="start" x="1123" y="-654.294" font-family="Helvetica,sans-Serif" font-size="10.00"> AllocStrategy, BlockSize, DefaultMem</text>
<text text-anchor="middle" x="1220" y="-643.294" font-family="Helvetica,sans-Serif" font-size="10.00">Size, MaxItems &gt;::external_min_comparator</text>
</a>
</g>
</g>
<!-- Node5&#45;&gt;Node16 -->
<g id="edge26" class="edge"><title>Node5&#45;&gt;Node16</title>
<path fill="none" stroke="#9a32cd" stroke-dasharray="5,2" d="M972.348,-601.822C1011.63,-607.454 1056.62,-614.961 1097,-624.294 1111.48,-627.641 1126.74,-631.839 1141.38,-636.213"/>
<polygon fill="#9a32cd" stroke="#9a32cd" points="972.619,-598.325 962.228,-600.393 971.641,-605.257 972.619,-598.325"/>
<text text-anchor="middle" x="1038.5" y="-627.294" font-family="Helvetica,sans-Serif" font-size="10.00"> m_compare</text>
</g>
<!-- Node6 -->
<g id="node6" class="node"><title>Node6</title>
<g id="a_node6"><a xlink:href="classstxxl_1_1winner__tree.html" target="_top" xlink:title="stxxl::winner_tree\l\&lt; stxxl::parallel_priority\l_queue::hint_comparator \&gt;">
<polygon fill="none" stroke="black" points="1545.5,-384.794 1545.5,-425.794 1678.5,-425.794 1678.5,-384.794 1545.5,-384.794"/>
<text text-anchor="start" x="1553.5" y="-413.794" font-family="Helvetica,sans-Serif" font-size="10.00">stxxl::winner_tree</text>
<text text-anchor="start" x="1553.5" y="-402.794" font-family="Helvetica,sans-Serif" font-size="10.00">&lt; stxxl::parallel_priority</text>
<text text-anchor="middle" x="1612" y="-391.794" font-family="Helvetica,sans-Serif" font-size="10.00">_queue::hint_comparator &gt;</text>
</a>
</g>
</g>
<!-- Node6&#45;&gt;Node1 -->
<g id="edge7" class="edge"><title>Node6&#45;&gt;Node1</title>
<path fill="none" stroke="#9a32cd" stroke-dasharray="5,2" d="M1686.27,-429.361C1727.56,-445.161 1778.59,-468.605 1818,-499.294 1858.88,-531.127 1894.03,-580.84 1913.29,-611.106"/>
<polygon fill="#9a32cd" stroke="#9a32cd" points="1687.4,-426.047 1676.81,-425.808 1684.94,-432.6 1687.4,-426.047"/>
<text text-anchor="middle" x="1771" y="-502.294" font-family="Helvetica,sans-Serif" font-size="10.00"> m_hint_tree</text>
</g>
<!-- Node7&#45;&gt;Node1 -->
<g id="edge21" class="edge"><title>Node7&#45;&gt;Node1</title>
<path fill="none" stroke="#9a32cd" stroke-dasharray="5,2" d="M1324.42,-598.013C1462.08,-606.957 1703.49,-622.642 1835.79,-631.238"/>
<polygon fill="#9a32cd" stroke="#9a32cd" points="1324.49,-594.51 1314.29,-597.355 1324.04,-601.496 1324.49,-594.51"/>
<text text-anchor="middle" x="1612" y="-626.294" font-family="Helvetica,sans-Serif" font-size="10.00"> m_hint_comparator</text>
</g>
<!-- Node7&#45;&gt;Node6 -->
<g id="edge8" class="edge"><title>Node7&#45;&gt;Node6</title>
<path fill="none" stroke="#9a32cd" stroke-dasharray="5,2" d="M1277.86,-559.281C1295.43,-546.764 1313.23,-530.905 1325,-512.294 1345.87,-479.286 1313.68,-452.082 1343,-426.294 1357.87,-413.214 1470.86,-408.247 1545.3,-406.385"/>
<polygon fill="#9a32cd" stroke="#9a32cd" points="1275.56,-556.617 1269.28,-565.155 1279.51,-562.393 1275.56,-556.617"/>
<text text-anchor="middle" x="1421.5" y="-429.294" font-family="Helvetica,sans-Serif" font-size="10.00"> m_less</text>
</g>
<!-- Node8&#45;&gt;Node1 -->
<g id="edge22" class="edge"><title>Node8&#45;&gt;Node1</title>
<path fill="none" stroke="#9a32cd" stroke-dasharray="5,2" d="M938.327,-706.852C983.511,-705.893 1043.75,-704.578 1097,-703.294 1198.34,-700.849 1223.77,-702.607 1325,-697.294 1494.62,-688.39 1536.74,-681.513 1706,-667.294 1755.8,-663.11 1768.47,-663.953 1818,-657.294 1823.82,-656.511 1829.8,-655.637 1835.83,-654.704"/>
<polygon fill="#9a32cd" stroke="#9a32cd" points="937.976,-703.359 928.052,-707.07 938.124,-710.357 937.976,-703.359"/>
<text text-anchor="middle" x="1421.5" y="-699.294" font-family="Helvetica,sans-Serif" font-size="10.00"> m_external_arrays</text>
</g>
<!-- Node8&#45;&gt;Node7 -->
<g id="edge10" class="edge"><title>Node8&#45;&gt;Node7</title>
<path fill="none" stroke="#9a32cd" stroke-dasharray="5,2" d="M911.841,-689.17C932.222,-680.527 957.092,-670.632 980,-663.294 1030.92,-646.981 1046.76,-653.591 1097,-635.294 1105.4,-632.233 1106.74,-629.728 1115,-626.294 1122.39,-623.221 1130.15,-620.215 1137.97,-617.335"/>
<polygon fill="#9a32cd" stroke="#9a32cd" points="910.332,-686.009 902.521,-693.167 913.091,-692.442 910.332,-686.009"/>
<text text-anchor="middle" x="1038.5" y="-666.294" font-family="Helvetica,sans-Serif" font-size="10.00"> m_eas</text>
</g>
<!-- Node8&#45;&gt;Node16 -->
<g id="edge27" class="edge"><title>Node8&#45;&gt;Node16</title>
<path fill="none" stroke="#9a32cd" stroke-dasharray="5,2" d="M938.008,-698.147C951.905,-696.16 966.414,-694.125 980,-692.294 1024.14,-686.343 1072.91,-680.151 1114.83,-674.949"/>
<polygon fill="#9a32cd" stroke="#9a32cd" points="937.419,-694.695 928.018,-699.582 938.415,-701.624 937.419,-694.695"/>
<text text-anchor="middle" x="1038.5" y="-695.294" font-family="Helvetica,sans-Serif" font-size="10.00"> m_eas</text>
</g>
<!-- Node9 -->
<g id="node9" class="node"><title>Node9</title>
<g id="a_node9"><a xlink:href="structstxxl_1_1winner__tree_1_1stats__type.html" target="_top" xlink:title="Collection of stats from the winner_tree. ">
<polygon fill="none" stroke="black" points="799.5,-353.294 799.5,-383.294 936.5,-383.294 936.5,-353.294 799.5,-353.294"/>
<text text-anchor="start" x="807.5" y="-371.294" font-family="Helvetica,sans-Serif" font-size="10.00">stxxl::winner_tree</text>
<text text-anchor="middle" x="868" y="-360.294" font-family="Helvetica,sans-Serif" font-size="10.00">&lt; Comparator &gt;::stats_type</text>
</a>
</g>
</g>
<!-- Node9&#45;&gt;Node6 -->
<g id="edge13" class="edge"><title>Node9&#45;&gt;Node6</title>
<path fill="none" stroke="#9a32cd" stroke-dasharray="5,2" d="M947.133,-361.041C1067.15,-351.746 1303.59,-340.751 1500,-376.294 1514.8,-378.971 1530.52,-382.592 1545.34,-386.367"/>
<polygon fill="#9a32cd" stroke="#9a32cd" points="946.632,-357.57 936.94,-361.849 947.185,-364.548 946.632,-357.57"/>
<text text-anchor="middle" x="1220" y="-359.294" font-family="Helvetica,sans-Serif" font-size="10.00"> m_stats</text>
</g>
<!-- Node11 -->
<g id="node11" class="node"><title>Node11</title>
<g id="a_node11"><a xlink:href="classstxxl_1_1winner__tree.html" target="_top" xlink:title="The class winner_tree is a binary tournament tree. ">
<polygon fill="none" stroke="black" points="1173,-379.294 1173,-409.294 1267,-409.294 1267,-379.294 1173,-379.294"/>
<text text-anchor="start" x="1181" y="-397.294" font-family="Helvetica,sans-Serif" font-size="10.00">stxxl::winner_tree</text>
<text text-anchor="middle" x="1220" y="-386.294" font-family="Helvetica,sans-Serif" font-size="10.00">&lt; Comparator &gt;</text>
</a>
</g>
</g>
<!-- Node9&#45;&gt;Node11 -->
<g id="edge16" class="edge"><title>Node9&#45;&gt;Node11</title>
<path fill="none" stroke="#9a32cd" stroke-dasharray="5,2" d="M946.902,-374.081C1016.22,-379.23 1115.28,-386.589 1172.78,-390.86"/>
<polygon fill="#9a32cd" stroke="#9a32cd" points="947.13,-370.588 936.899,-373.338 946.612,-377.569 947.13,-370.588"/>
<text text-anchor="middle" x="1038.5" y="-388.294" font-family="Helvetica,sans-Serif" font-size="10.00"> m_stats</text>
</g>
<!-- Node15 -->
<g id="node15" class="node"><title>Node15</title>
<g id="a_node15"><a xlink:href="classstxxl_1_1winner__tree.html" target="_top" xlink:title="stxxl::winner_tree\l\&lt; stxxl::parallel_priority\l_queue::external_min_comparator \&gt;">
<polygon fill="none" stroke="black" points="1525.5,-486.794 1525.5,-527.794 1698.5,-527.794 1698.5,-486.794 1525.5,-486.794"/>
<text text-anchor="start" x="1533.5" y="-515.794" font-family="Helvetica,sans-Serif" font-size="10.00">stxxl::winner_tree</text>
<text text-anchor="start" x="1533.5" y="-504.794" font-family="Helvetica,sans-Serif" font-size="10.00">&lt; stxxl::parallel_priority</text>
<text text-anchor="middle" x="1612" y="-493.794" font-family="Helvetica,sans-Serif" font-size="10.00">_queue::external_min_comparator &gt;</text>
</a>
</g>
</g>
<!-- Node9&#45;&gt;Node15 -->
<g id="edge24" class="edge"><title>Node9&#45;&gt;Node15</title>
<path fill="none" stroke="#9a32cd" stroke-dasharray="5,2" d="M929.157,-386.269C945.595,-391.008 963.442,-395.994 980,-400.294 1140.28,-441.911 1179.43,-458.482 1343,-484.294 1403.54,-493.847 1472.45,-499.65 1525.23,-503.037"/>
<polygon fill="#9a32cd" stroke="#9a32cd" points="929.707,-382.784 919.128,-383.358 927.756,-389.507 929.707,-382.784"/>
<text text-anchor="middle" x="1220" y="-484.294" font-family="Helvetica,sans-Serif" font-size="10.00"> m_stats</text>
</g>
<!-- Node10 -->
<g id="node10" class="node"><title>Node10</title>
<g id="a_node10"><a xlink:href="classstxxl_1_1fake__timer.html" target="_top" xlink:title="Class fake_timer is a drop&#45;in replacement for timer, which does nothing. ">
<polygon fill="none" stroke="black" points="535.5,-220.794 535.5,-239.794 624.5,-239.794 624.5,-220.794 535.5,-220.794"/>
<text text-anchor="middle" x="580" y="-227.794" font-family="Helvetica,sans-Serif" font-size="10.00">stxxl::fake_timer</text>
</a>
</g>
</g>
<!-- Node10&#45;&gt;Node9 -->
<g id="edge14" class="edge"><title>Node10&#45;&gt;Node9</title>
<path fill="none" stroke="#9a32cd" stroke-dasharray="5,2" d="M610.167,-244.367C664.271,-270.473 779.742,-326.19 835.534,-353.111"/>
<polygon fill="#9a32cd" stroke="#9a32cd" points="611.638,-241.191 601.111,-239.998 608.596,-247.496 611.638,-241.191"/>
<text text-anchor="middle" x="702.5" y="-337.294" font-family="Helvetica,sans-Serif" font-size="10.00"> remove_player_time</text>
<text text-anchor="middle" x="702.5" y="-326.294" font-family="Helvetica,sans-Serif" font-size="10.00">replay_time</text>
<text text-anchor="middle" x="702.5" y="-315.294" font-family="Helvetica,sans-Serif" font-size="10.00">double_num_slots_time</text>
</g>
<!-- Node12 -->
<g id="node12" class="node"><title>Node12</title>
<g id="a_node12"><a xlink:href="structstxxl_1_1parallel__priority__queue_1_1stats__type.html" target="_top" xlink:title="Struct of all statistical counters and timers. Turn on/off statistics using the stats_counter and sta...">
<polygon fill="none" stroke="black" points="1518,-223.294 1518,-275.294 1706,-275.294 1706,-223.294 1518,-223.294"/>
<text text-anchor="start" x="1526" y="-263.294" font-family="Helvetica,sans-Serif" font-size="10.00">stxxl::parallel_priority</text>
<text text-anchor="start" x="1526" y="-252.294" font-family="Helvetica,sans-Serif" font-size="10.00">_queue&lt; ValueType, CompareType,</text>
<text text-anchor="start" x="1526" y="-241.294" font-family="Helvetica,sans-Serif" font-size="10.00"> AllocStrategy, BlockSize, DefaultMem</text>
<text text-anchor="middle" x="1612" y="-230.294" font-family="Helvetica,sans-Serif" font-size="10.00">Size, MaxItems &gt;::stats_type</text>
</a>
</g>
</g>
<!-- Node10&#45;&gt;Node12 -->
<g id="edge20" class="edge"><title>Node10&#45;&gt;Node12</title>
<path fill="none" stroke="#9a32cd" stroke-dasharray="5,2" d="M634.883,-222.091C711.391,-210.898 856.001,-191.418 980,-184.294 1171.72,-173.279 1395.02,-207.427 1517.93,-230.324"/>
<polygon fill="#9a32cd" stroke="#9a32cd" points="633.932,-218.693 624.549,-223.613 634.952,-225.618 633.932,-218.693"/>
<text text-anchor="middle" x="1038.5" y="-341.294" font-family="Helvetica,sans-Serif" font-size="10.00"> extract_min_time</text>
<text text-anchor="start" x="993.5" y="-330.294" font-family="Helvetica,sans-Serif" font-size="10.00">refill_time_after</text>
<text text-anchor="middle" x="1038.5" y="-319.294" font-family="Helvetica,sans-Serif" font-size="10.00">_merge</text>
<text text-anchor="start" x="993.5" y="-308.294" font-family="Helvetica,sans-Serif" font-size="10.00">refill_time_before</text>
<text text-anchor="middle" x="1038.5" y="-297.294" font-family="Helvetica,sans-Serif" font-size="10.00">_merge</text>
<text text-anchor="middle" x="1038.5" y="-286.294" font-family="Helvetica,sans-Serif" font-size="10.00">pop_heap_time</text>
<text text-anchor="start" x="993.5" y="-275.294" font-family="Helvetica,sans-Serif" font-size="10.00">external_array</text>
<text text-anchor="middle" x="1038.5" y="-264.294" font-family="Helvetica,sans-Serif" font-size="10.00">_merge_time</text>
<text text-anchor="middle" x="1038.5" y="-253.294" font-family="Helvetica,sans-Serif" font-size="10.00">hint_time</text>
<text text-anchor="middle" x="1038.5" y="-242.294" font-family="Helvetica,sans-Serif" font-size="10.00">refill_wait_time</text>
<text text-anchor="middle" x="1038.5" y="-231.294" font-family="Helvetica,sans-Serif" font-size="10.00">refill_minmax_time</text>
<text text-anchor="middle" x="1038.5" y="-220.294" font-family="Helvetica,sans-Serif" font-size="10.00">direct_flush_time</text>
<text text-anchor="start" x="993.5" y="-209.294" font-family="Helvetica,sans-Serif" font-size="10.00">insertion_heap_flush</text>
<text text-anchor="middle" x="1038.5" y="-198.294" font-family="Helvetica,sans-Serif" font-size="10.00">_time</text>
<text text-anchor="middle" x="1038.5" y="-187.294" font-family="Helvetica,sans-Serif" font-size="10.00">...</text>
</g>
<!-- Node11&#45;&gt;Node6 -->
<g id="edge15" class="edge"><title>Node11&#45;&gt;Node6</title>
<path fill="none" stroke="orange" stroke-dasharray="5,2" d="M1277.17,-387.571C1333.61,-381.875 1423.02,-375.738 1500,-383.294 1514.76,-384.742 1530.47,-387.25 1545.28,-390.066"/>
<polygon fill="orange" stroke="orange" points="1276.61,-384.11 1267.03,-388.626 1277.33,-391.073 1276.61,-384.11"/>
<text text-anchor="start" x="1363" y="-397.294" font-family="Helvetica,sans-Serif" font-size="10.00"> &lt; stxxl::parallel_priority</text>
<text text-anchor="middle" x="1421.5" y="-386.294" font-family="Helvetica,sans-Serif" font-size="10.00">_queue::hint_comparator &gt;</text>
</g>
<!-- Node11&#45;&gt;Node15 -->
<g id="edge28" class="edge"><title>Node11&#45;&gt;Node15</title>
<path fill="none" stroke="orange" stroke-dasharray="5,2" d="M1265.31,-413.168C1288.15,-422.247 1316.68,-432.589 1343,-439.294 1411.34,-456.701 1431.94,-443.802 1500,-462.294 1522.78,-468.482 1547.17,-478.029 1567.28,-486.739"/>
<polygon fill="orange" stroke="orange" points="1266.47,-409.863 1255.89,-409.368 1263.85,-416.355 1266.47,-409.863"/>
<text text-anchor="start" x="1343" y="-476.294" font-family="Helvetica,sans-Serif" font-size="10.00"> &lt; stxxl::parallel_priority</text>
<text text-anchor="middle" x="1421.5" y="-465.294" font-family="Helvetica,sans-Serif" font-size="10.00">_queue::external_min_comparator &gt;</text>
</g>
<!-- Node12&#45;&gt;Node1 -->
<g id="edge17" class="edge"><title>Node12&#45;&gt;Node1</title>
<path fill="none" stroke="#9a32cd" stroke-dasharray="5,2" d="M1657.46,-281.614C1701.97,-315.546 1770.5,-372.231 1818,-432.294 1863.94,-490.386 1900.92,-570.18 1918.28,-610.964"/>
<polygon fill="#9a32cd" stroke="#9a32cd" points="1659.53,-278.788 1649.44,-275.547 1655.31,-284.371 1659.53,-278.788"/>
<text text-anchor="middle" x="1771" y="-435.294" font-family="Helvetica,sans-Serif" font-size="10.00"> m_stats</text>
</g>
<!-- Node13 -->
<g id="node13" class="node"><title>Node13</title>
<g id="a_node13"><a xlink:href="classstxxl_1_1dummy__custom__stats__counter.html" target="_top" xlink:title="stxxl::dummy_custom\l_stats_counter\&lt; uint64 \&gt;">
<polygon fill="none" stroke="black" points="1157.5,-21.2937 1157.5,-51.2937 1282.5,-51.2937 1282.5,-21.2937 1157.5,-21.2937"/>
<text text-anchor="start" x="1165.5" y="-39.2937" font-family="Helvetica,sans-Serif" font-size="10.00">stxxl::dummy_custom</text>
<text text-anchor="middle" x="1220" y="-28.2937" font-family="Helvetica,sans-Serif" font-size="10.00">_stats_counter&lt; uint64 &gt;</text>
</a>
</g>
</g>
<!-- Node13&#45;&gt;Node12 -->
<g id="edge18" class="edge"><title>Node13&#45;&gt;Node12</title>
<path fill="none" stroke="#9a32cd" stroke-dasharray="5,2" d="M1271.93,-18.3388C1334.06,-0.0354031 1438.42,18.5116 1500,-37.2937 1529.13,-63.6938 1494.15,-182.036 1518,-213.294 1520.73,-216.873 1523.87,-220.096 1527.29,-222.999"/>
<polygon fill="#9a32cd" stroke="#9a32cd" points="1270.88,-15.0001 1262.33,-21.2629 1272.92,-21.6962 1270.88,-15.0001"/>
<text text-anchor="middle" x="1421.5" y="-150.294" font-family="Helvetica,sans-Serif" font-size="10.00"> max_num_internal_arrays</text>
<text text-anchor="middle" x="1421.5" y="-139.294" font-family="Helvetica,sans-Serif" font-size="10.00">num_internal_array_flushes</text>
<text text-anchor="middle" x="1421.5" y="-128.294" font-family="Helvetica,sans-Serif" font-size="10.00">max_num_new_external_arrays</text>
<text text-anchor="middle" x="1421.5" y="-117.294" font-family="Helvetica,sans-Serif" font-size="10.00">num_new_internal_arrays</text>
<text text-anchor="middle" x="1421.5" y="-106.294" font-family="Helvetica,sans-Serif" font-size="10.00">num_extracts</text>
<text text-anchor="middle" x="1421.5" y="-95.2937" font-family="Helvetica,sans-Serif" font-size="10.00">num_extract_buffer_refills</text>
<text text-anchor="middle" x="1421.5" y="-84.2937" font-family="Helvetica,sans-Serif" font-size="10.00">max_num_new_internal_arrays</text>
<text text-anchor="middle" x="1421.5" y="-73.2937" font-family="Helvetica,sans-Serif" font-size="10.00">num_insertion_heap_flushes</text>
<text text-anchor="middle" x="1421.5" y="-62.2937" font-family="Helvetica,sans-Serif" font-size="10.00">max_merge_buffer_size</text>
<text text-anchor="middle" x="1421.5" y="-51.2937" font-family="Helvetica,sans-Serif" font-size="10.00">max_num_external_arrays</text>
<text text-anchor="middle" x="1421.5" y="-40.2937" font-family="Helvetica,sans-Serif" font-size="10.00">...</text>
</g>
<!-- Node14 -->
<g id="node14" class="node"><title>Node14</title>
<g id="a_node14"><a xlink:href="classstxxl_1_1dummy__custom__stats__counter.html" target="_top" xlink:title="Dummy class for custom_stats_counter. ">
<polygon fill="none" stroke="black" points="795,-21.2937 795,-51.2937 941,-51.2937 941,-21.2937 795,-21.2937"/>
<text text-anchor="start" x="803" y="-39.2937" font-family="Helvetica,sans-Serif" font-size="10.00">stxxl::dummy_custom</text>
<text text-anchor="middle" x="868" y="-28.2937" font-family="Helvetica,sans-Serif" font-size="10.00">_stats_counter&lt; ValueType &gt;</text>
</a>
</g>
</g>
<!-- Node14&#45;&gt;Node13 -->
<g id="edge19" class="edge"><title>Node14&#45;&gt;Node13</title>
<path fill="none" stroke="orange" stroke-dasharray="5,2" d="M951.406,-36.2937C1014.45,-36.2937 1100,-36.2937 1157.23,-36.2937"/>
<polygon fill="orange" stroke="orange" points="951.096,-32.7938 941.096,-36.2937 951.096,-39.7938 951.096,-32.7938"/>
<text text-anchor="middle" x="1038.5" y="-39.2937" font-family="Helvetica,sans-Serif" font-size="10.00"> &lt; uint64 &gt;</text>
</g>
<!-- Node15&#45;&gt;Node1 -->
<g id="edge23" class="edge"><title>Node15&#45;&gt;Node1</title>
<path fill="none" stroke="#9a32cd" stroke-dasharray="5,2" d="M1709.05,-511.649C1744.58,-516.08 1784.36,-524.504 1818,-540.294 1853.44,-556.933 1886.17,-588.331 1906.77,-610.903"/>
<polygon fill="#9a32cd" stroke="#9a32cd" points="1709,-508.12 1698.67,-510.45 1708.2,-515.074 1709,-508.12"/>
<text text-anchor="middle" x="1771" y="-543.294" font-family="Helvetica,sans-Serif" font-size="10.00"> m_external_min_tree</text>
</g>
<!-- Node16&#45;&gt;Node1 -->
<g id="edge31" class="edge"><title>Node16&#45;&gt;Node1</title>
<path fill="none" stroke="#9a32cd" stroke-dasharray="5,2" d="M1335.36,-658.255C1474.58,-653.339 1707.02,-645.132 1835.86,-640.583"/>
<polygon fill="#9a32cd" stroke="#9a32cd" points="1334.96,-654.767 1325.09,-658.618 1335.2,-661.763 1334.96,-654.767"/>
<text text-anchor="middle" x="1612" y="-655.294" font-family="Helvetica,sans-Serif" font-size="10.00"> m_external_min_comparator</text>
</g>
<!-- Node16&#45;&gt;Node15 -->
<g id="edge25" class="edge"><title>Node16&#45;&gt;Node15</title>
<path fill="none" stroke="#9a32cd" stroke-dasharray="5,2" d="M1322.27,-629.256C1323.21,-628.297 1324.12,-627.31 1325,-626.294 1352.84,-594.129 1311.51,-560.891 1343,-532.294 1356.43,-520.1 1452.13,-513.502 1525.38,-510.197"/>
<polygon fill="#9a32cd" stroke="#9a32cd" points="1319.74,-626.825 1314.58,-636.079 1324.39,-632.061 1319.74,-626.825"/>
<text text-anchor="middle" x="1421.5" y="-535.294" font-family="Helvetica,sans-Serif" font-size="10.00"> m_less</text>
</g>
<!-- Node17 -->
<g id="node17" class="node"><title>Node17</title>
<g id="a_node17"><a xlink:href="structstxxl_1_1choose__int__types.html" target="_top" xlink:title="stxxl::choose_int_types\l\&lt; my_pointer_size \&gt;">
<polygon fill="none" stroke="black" points="296,-800.294 296,-830.294 416,-830.294 416,-800.294 296,-800.294"/>
<text text-anchor="start" x="304" y="-818.294" font-family="Helvetica,sans-Serif" font-size="10.00">stxxl::choose_int_types</text>
<text text-anchor="middle" x="356" y="-807.294" font-family="Helvetica,sans-Serif" font-size="10.00">&lt; my_pointer_size &gt;</text>
</a>
</g>
</g>
<!-- Node17&#45;&gt;Node1 -->
<g id="edge29" class="edge"><title>Node17&#45;&gt;Node1</title>
<path fill="none" stroke="#9a32cd" stroke-dasharray="5,2" d="M423.974,-797.819C455.623,-790.151 494.048,-781.685 529,-776.294 581.893,-768.134 595.628,-770.242 649,-766.294 1118.71,-731.547 1238.01,-743.39 1706,-690.294 1755.85,-684.638 1769.17,-687.785 1818,-676.294 1832.51,-672.878 1847.78,-668.239 1862.18,-663.353"/>
<polygon fill="#9a32cd" stroke="#9a32cd" points="422.829,-794.496 413.949,-800.275 424.495,-801.294 422.829,-794.496"/>
<text text-anchor="start" x="980" y="-859.294" font-family="Helvetica,sans-Serif" font-size="10.00"> c_max_external_level</text>
<text text-anchor="middle" x="1038.5" y="-848.294" font-family="Helvetica,sans-Serif" font-size="10.00">_size</text>
<text text-anchor="middle" x="1038.5" y="-837.294" font-family="Helvetica,sans-Serif" font-size="10.00">m_external_levels</text>
<text text-anchor="middle" x="1038.5" y="-826.294" font-family="Helvetica,sans-Serif" font-size="10.00">m_num_read_blocks</text>
<text text-anchor="start" x="980" y="-815.294" font-family="Helvetica,sans-Serif" font-size="10.00">c_max_internal_level</text>
<text text-anchor="middle" x="1038.5" y="-804.294" font-family="Helvetica,sans-Serif" font-size="10.00">_size</text>
<text text-anchor="middle" x="1038.5" y="-793.294" font-family="Helvetica,sans-Serif" font-size="10.00">m_num_used_read_blocks</text>
<text text-anchor="middle" x="1038.5" y="-782.294" font-family="Helvetica,sans-Serif" font-size="10.00">m_internal_levels</text>
<text text-anchor="start" x="980" y="-771.294" font-family="Helvetica,sans-Serif" font-size="10.00">m_bulk_first_delayed</text>
<text text-anchor="middle" x="1038.5" y="-760.294" font-family="Helvetica,sans-Serif" font-size="10.00">_external_array</text>
<text text-anchor="middle" x="1038.5" y="-749.294" font-family="Helvetica,sans-Serif" font-size="10.00">m_num_hinted_blocks</text>
</g>
<!-- Node17&#45;&gt;Node20 -->
<g id="edge36" class="edge"><title>Node17&#45;&gt;Node20</title>
<path fill="none" stroke="#9a32cd" stroke-dasharray="5,2" d="M386.242,-836.552C420.378,-862.712 476.541,-910.121 511,-962.294 523.557,-981.305 513.62,-993.484 529,-1010.29 532.12,-1013.7 535.828,-1016.68 539.793,-1019.26"/>
<polygon fill="#9a32cd" stroke="#9a32cd" points="388.152,-833.608 378.064,-830.369 383.93,-839.191 388.152,-833.608"/>
<text text-anchor="middle" x="472.5" y="-965.294" font-family="Helvetica,sans-Serif" font-size="10.00"> free_blocks_size</text>
</g>
<!-- Node18 -->
<g id="node18" class="node"><title>Node18</title>
<g id="a_node18"><a xlink:href="structstxxl_1_1choose__int__types.html" target="_top" xlink:title="stxxl::choose_int_types\l\&lt; PtrSize \&gt;">
<polygon fill="none" stroke="black" points="17,-800.294 17,-830.294 137,-830.294 137,-800.294 17,-800.294"/>
<text text-anchor="start" x="25" y="-818.294" font-family="Helvetica,sans-Serif" font-size="10.00">stxxl::choose_int_types</text>
<text text-anchor="middle" x="77" y="-807.294" font-family="Helvetica,sans-Serif" font-size="10.00">&lt; PtrSize &gt;</text>
</a>
</g>
</g>
<!-- Node18&#45;&gt;Node17 -->
<g id="edge30" class="edge"><title>Node18&#45;&gt;Node17</title>
<path fill="none" stroke="orange" stroke-dasharray="5,2" d="M147.195,-815.294C192.837,-815.294 252.008,-815.294 295.53,-815.294"/>
<polygon fill="orange" stroke="orange" points="147.084,-811.794 137.084,-815.294 147.084,-818.794 147.084,-811.794"/>
<text text-anchor="middle" x="225" y="-818.294" font-family="Helvetica,sans-Serif" font-size="10.00"> &lt; my_pointer_size &gt;</text>
</g>
<!-- Node19&#45;&gt;Node1 -->
<g id="edge32" class="edge"><title>Node19&#45;&gt;Node1</title>
<path fill="none" stroke="#9a32cd" stroke-dasharray="5,2" d="M1286.35,-962.634C1404.72,-986.406 1657.23,-1018.21 1818,-902.294 1897.91,-844.679 1920.59,-718.237 1926.78,-663.458"/>
<polygon fill="#9a32cd" stroke="#9a32cd" points="1286.84,-959.163 1276.34,-960.58 1285.43,-966.02 1286.84,-959.163"/>
<text text-anchor="middle" x="1612" y="-987.294" font-family="Helvetica,sans-Serif" font-size="10.00"> m_pool</text>
</g>
<!-- Node20&#45;&gt;Node19 -->
<g id="edge34" class="edge"><title>Node20&#45;&gt;Node19</title>
<path fill="none" stroke="#9a32cd" stroke-dasharray="5,2" d="M641.419,-1037.7C675.179,-1038.92 717.985,-1039.34 756,-1036.29 909.024,-1024.03 947.048,-1014.17 1097,-981.294 1121.16,-975.996 1147.65,-968.788 1169.75,-962.372"/>
<polygon fill="#9a32cd" stroke="#9a32cd" points="641.377,-1034.19 631.247,-1037.3 641.101,-1041.19 641.377,-1034.19"/>
<text text-anchor="middle" x="868" y="-1037.29" font-family="Helvetica,sans-Serif" font-size="10.00"> p_pool</text>
</g>
<!-- Node20&#45;&gt;Node24 -->
<g id="edge43" class="edge"><title>Node20&#45;&gt;Node24</title>
<path fill="none" stroke="#9a32cd" stroke-dasharray="5,2" d="M641.1,-1024.05C675.667,-1016.89 719.369,-1005.65 756,-989.294 764.78,-985.374 765.342,-981.476 774,-977.294 785.915,-971.538 799.203,-966.504 811.921,-962.287"/>
<polygon fill="#9a32cd" stroke="#9a32cd" points="640.259,-1020.65 631.146,-1026.05 641.639,-1027.51 640.259,-1020.65"/>
<text text-anchor="middle" x="702.5" y="-1024.29" font-family="Helvetica,sans-Serif" font-size="10.00"> p_pool</text>
</g>
<!-- Node21 -->
<g id="node21" class="node"><title>Node21</title>
<g id="a_node21"><a xlink:href="structstxxl_1_1compat__hash__map.html" target="_top" xlink:title="stxxl::compat_hash\l_map\&lt; bid_type, busy\l_entry, bid_hash \&gt;">
<polygon fill="none" stroke="black" points="299.5,-1103.79 299.5,-1144.79 412.5,-1144.79 412.5,-1103.79 299.5,-1103.79"/>
<text text-anchor="start" x="307.5" y="-1132.79" font-family="Helvetica,sans-Serif" font-size="10.00">stxxl::compat_hash</text>
<text text-anchor="start" x="307.5" y="-1121.79" font-family="Helvetica,sans-Serif" font-size="10.00">_map&lt; bid_type, busy</text>
<text text-anchor="middle" x="356" y="-1110.79" font-family="Helvetica,sans-Serif" font-size="10.00">_entry, bid_hash &gt;</text>
</a>
</g>
</g>
<!-- Node21&#45;&gt;Node20 -->
<g id="edge37" class="edge"><title>Node21&#45;&gt;Node20</title>
<path fill="none" stroke="#9a32cd" stroke-dasharray="5,2" d="M416.987,-1099.97C456.749,-1083.85 507.673,-1063.21 541.716,-1049.41"/>
<polygon fill="#9a32cd" stroke="#9a32cd" points="415.605,-1096.76 407.653,-1103.76 418.235,-1103.25 415.605,-1096.76"/>
<text text-anchor="middle" x="472.5" y="-1095.29" font-family="Helvetica,sans-Serif" font-size="10.00"> busy_blocks</text>
</g>
<!-- Node22 -->
<g id="node22" class="node"><title>Node22</title>
<g id="a_node22"><a xlink:href="structstxxl_1_1compat__hash__map.html" target="_top" xlink:title="stxxl::compat_hash\l_map\&lt; KeyType, MappedType,\l HashType \&gt;">
<polygon fill="none" stroke="black" points="0,-1103.79 0,-1144.79 154,-1144.79 154,-1103.79 0,-1103.79"/>
<text text-anchor="start" x="8" y="-1132.79" font-family="Helvetica,sans-Serif" font-size="10.00">stxxl::compat_hash</text>
<text text-anchor="start" x="8" y="-1121.79" font-family="Helvetica,sans-Serif" font-size="10.00">_map&lt; KeyType, MappedType,</text>
<text text-anchor="middle" x="77" y="-1110.79" font-family="Helvetica,sans-Serif" font-size="10.00"> HashType &gt;</text>
</a>
</g>
</g>
<!-- Node22&#45;&gt;Node21 -->
<g id="edge38" class="edge"><title>Node22&#45;&gt;Node21</title>
<path fill="none" stroke="orange" stroke-dasharray="5,2" d="M164.195,-1124.29C208.263,-1124.29 260.612,-1124.29 299.32,-1124.29"/>
<polygon fill="orange" stroke="orange" points="164.058,-1120.79 154.058,-1124.29 164.058,-1127.79 164.058,-1120.79"/>
<text text-anchor="start" x="172" y="-1138.29" font-family="Helvetica,sans-Serif" font-size="10.00"> &lt; bid_type, busy_entry,</text>
<text text-anchor="middle" x="225" y="-1127.29" font-family="Helvetica,sans-Serif" font-size="10.00"> bid_hash &gt;</text>
</g>
<!-- Node23&#45;&gt;Node19 -->
<g id="edge39" class="edge"><title>Node23&#45;&gt;Node19</title>
<path fill="none" stroke="#9a32cd" stroke-dasharray="5,2" d="M637.365,-986.194C671.67,-986.518 716.371,-986.543 756,-985.294 907.824,-980.508 945.831,-977.177 1097,-962.294 1118.87,-960.14 1142.9,-957.291 1163.8,-954.655"/>
<polygon fill="#9a32cd" stroke="#9a32cd" points="637.106,-982.691 627.07,-986.085 637.032,-989.691 637.106,-982.691"/>
<text text-anchor="middle" x="868" y="-987.294" font-family="Helvetica,sans-Serif" font-size="10.00"> w_pool</text>
</g>
<!-- Node23&#45;&gt;Node24 -->
<g id="edge44" class="edge"><title>Node23&#45;&gt;Node24</title>
<path fill="none" stroke="#9a32cd" stroke-dasharray="5,2" d="M637.077,-976.054C641.109,-975.441 645.115,-974.848 649,-974.294 704.309,-966.398 767.708,-958.697 811.824,-953.554"/>
<polygon fill="#9a32cd" stroke="#9a32cd" points="636.4,-972.617 627.053,-977.606 637.471,-979.535 636.4,-972.617"/>
<text text-anchor="middle" x="702.5" y="-977.294" font-family="Helvetica,sans-Serif" font-size="10.00"> w_pool</text>
</g>
<!-- Node24&#45;&gt;Node19 -->
<g id="edge41" class="edge"><title>Node24&#45;&gt;Node19</title>
<path fill="none" stroke="orange" stroke-dasharray="5,2" d="M934.382,-947.294C1000.56,-947.294 1101.75,-947.294 1163.96,-947.294"/>
<polygon fill="orange" stroke="orange" points="934.073,-943.794 924.073,-947.294 934.072,-950.794 934.073,-943.794"/>
<text text-anchor="middle" x="1038.5" y="-950.294" font-family="Helvetica,sans-Serif" font-size="10.00"> &lt; block_type &gt;</text>
</g>
<!-- Node25 -->
<g id="node25" class="node"><title>Node25</title>
<g id="a_node25"><a xlink:href="structstxxl_1_1random__number32__r.html" target="_top" xlink:title="Fast uniform [0, 2^32) pseudo&#45;random generator with period 2^32, random bits: 32. Reentrant variant o...">
<polygon fill="none" stroke="black" points="1546,-184.794 1546,-203.794 1678,-203.794 1678,-184.794 1546,-184.794"/>
<text text-anchor="middle" x="1612" y="-191.794" font-family="Helvetica,sans-Serif" font-size="10.00">stxxl::random_number32_r</text>
</a>
</g>
</g>
<!-- Node25&#45;&gt;Node1 -->
<g id="edge45" class="edge"><title>Node25&#45;&gt;Node1</title>
<path fill="none" stroke="#9a32cd" stroke-dasharray="5,2" d="M1688.13,-205.563C1694.35,-207.707 1700.39,-210.259 1706,-213.294 1768.2,-246.926 1780.33,-266.454 1818,-326.294 1878.32,-422.11 1911.64,-555.188 1923.71,-611.006"/>
<polygon fill="#9a32cd" stroke="#9a32cd" points="1688.85,-202.122 1678.26,-202.516 1686.79,-208.81 1688.85,-202.122"/>
<text text-anchor="middle" x="1771" y="-329.294" font-family="Helvetica,sans-Serif" font-size="10.00"> m_rng</text>
</g>
</g>
</svg>
