<?xml version="1.0" encoding="UTF-8" standalone="no"?>
<!DOCTYPE svg PUBLIC "-//W3C//DTD SVG 1.1//EN"
 "http://www.w3.org/Graphics/SVG/1.1/DTD/svg11.dtd">
<!-- Generated by graphviz version 2.26.3 (20100126.1600)
 -->
<!-- Title: stxxl::priority_queue_local::ext_merger&lt; BlockType_, Cmp_, Arity_, AllocStr_ &gt; Pages: 1 -->
<svg width="1432pt" height="370pt"
 viewBox="0.00 0.00 1432.00 370.00" xmlns="http://www.w3.org/2000/svg" xmlns:xlink="http://www.w3.org/1999/xlink">
<g id="graph1" class="graph" transform="scale(1 1) rotate(0) translate(4 366)">
<title>stxxl::priority_queue_local::ext_merger&lt; BlockType_, Cmp_, Arity_, AllocStr_ &gt;</title>
<!-- Node1 -->
<g id="node1" class="node"><title>Node1</title>
<polygon fill="#bfbfbf" stroke="black" points="1050,-108.5 1050,-155.5 1202,-155.5 1202,-108.5 1050,-108.5"/>
<text text-anchor="start" x="1058" y="-142.5" font-family="Helvetica,sans-Serif" font-size="10.00">stxxl::priority_queue</text>
<text text-anchor="start" x="1058" y="-129.5" font-family="Helvetica,sans-Serif" font-size="10.00">_local::ext_merger&lt; BlockType</text>
<text text-anchor="middle" x="1126" y="-116.5" font-family="Helvetica,sans-Serif" font-size="10.00">_, Cmp_, Arity_, AllocStr_ &gt;</text>
</g>
<!-- Node12 -->
<g id="node26" class="node"><title>Node12</title>
<a xlink:href="structstxxl_1_1priority__queue__local_1_1ext__merger_1_1sequence__state.html" target="_top" xlink:title="stxxl::priority_queue\l_local::ext_merger\&lt; BlockType\l_, Cmp_, Arity_, AllocStr\l_ \&gt;::sequence_state">
<polygon fill="none" stroke="black" points="1272,-102 1272,-162 1424,-162 1424,-102 1272,-102"/>
<text text-anchor="start" x="1280" y="-149" font-family="Helvetica,sans-Serif" font-size="10.00">stxxl::priority_queue</text>
<text text-anchor="start" x="1280" y="-136" font-family="Helvetica,sans-Serif" font-size="10.00">_local::ext_merger&lt; BlockType</text>
<text text-anchor="start" x="1280" y="-123" font-family="Helvetica,sans-Serif" font-size="10.00">_, Cmp_, Arity_, AllocStr</text>
<text text-anchor="middle" x="1348" y="-110" font-family="Helvetica,sans-Serif" font-size="10.00">_ &gt;::sequence_state</text>
</a>
</g>
<!-- Node1&#45;&gt;Node12 -->
<g id="edge34" class="edge"><title>Node1&#45;&gt;Node12</title>
<path fill="none" stroke="#9a32cd" stroke-dasharray="5,2" d="M1212.22,-132C1231.81,-132 1252.49,-132 1271.63,-132"/>
<polygon fill="#9a32cd" stroke="#9a32cd" points="1212.09,-128.5 1202.09,-132 1212.09,-135.5 1212.09,-128.5"/>
<text text-anchor="middle" x="1237" y="-136" font-family="Helvetica,sans-Serif" font-size="10.00"> merger</text>
</g>
<!-- Node2 -->
<g id="node2" class="node"><title>Node2</title>
<a xlink:href="classstxxl_1_1noncopyable.html" target="_top" xlink:title="stxxl::noncopyable">
<polygon fill="none" stroke="black" points="291,-138.5 291,-159.5 389,-159.5 389,-138.5 291,-138.5"/>
<text text-anchor="middle" x="340" y="-146.5" font-family="Helvetica,sans-Serif" font-size="10.00">stxxl::noncopyable</text>
</a>
</g>
<!-- Node2&#45;&gt;Node1 -->
<g id="edge2" class="edge"><title>Node2&#45;&gt;Node1</title>
<path fill="none" stroke="#8b1a1a" d="M362.535,-132.408C394.365,-110.111 455.188,-71.5909 514,-57 577.381,-41.2754 851.351,-49.8701 946,-68 990.138,-76.4546 1037.98,-93.8891 1073.24,-108.429"/>
<polygon fill="#8b1a1a" stroke="#8b1a1a" points="360.469,-129.583 354.353,-138.234 364.529,-135.286 360.469,-129.583"/>
</g>
<!-- Node3 -->
<g id="node4" class="node"><title>Node3</title>
<a xlink:href="classstxxl_1_1read__write__pool.html" target="_top" xlink:title="Implements dynamically resizable buffered writing and prefetched reading pool. ">
<polygon fill="none" stroke="black" points="814,-155 814,-189 926,-189 926,-155 814,-155"/>
<text text-anchor="start" x="822" y="-176" font-family="Helvetica,sans-Serif" font-size="10.00">stxxl::read_write_pool</text>
<text text-anchor="middle" x="870" y="-163" font-family="Helvetica,sans-Serif" font-size="10.00">&lt; BlockType &gt;</text>
</a>
</g>
<!-- Node2&#45;&gt;Node3 -->
<g id="edge6" class="edge"><title>Node2&#45;&gt;Node3</title>
<path fill="none" stroke="#8b1a1a" d="M399.024,-159.936C405.421,-161.019 411.841,-162.063 418,-163 575.478,-186.958 616.853,-186.76 776,-180 788.273,-179.479 801.423,-178.576 813.882,-177.561"/>
<polygon fill="#8b1a1a" stroke="#8b1a1a" points="399.482,-156.464 389.032,-158.212 398.291,-163.362 399.482,-156.464"/>
</g>
<!-- Node4 -->
<g id="node7" class="node"><title>Node4</title>
<a xlink:href="classstxxl_1_1prefetch__pool.html" target="_top" xlink:title="Implements dynamically resizable prefetching pool. ">
<polygon fill="none" stroke="black" points="530,-222 530,-256 632,-256 632,-222 530,-222"/>
<text text-anchor="start" x="538" y="-243" font-family="Helvetica,sans-Serif" font-size="10.00">stxxl::prefetch_pool</text>
<text text-anchor="middle" x="581" y="-230" font-family="Helvetica,sans-Serif" font-size="10.00">&lt; BlockType &gt;</text>
</a>
</g>
<!-- Node2&#45;&gt;Node4 -->
<g id="edge10" class="edge"><title>Node2&#45;&gt;Node4</title>
<path fill="none" stroke="#8b1a1a" d="M365.157,-164.75C380.101,-173.623 399.659,-184.412 418,-192 454.331,-207.031 497.097,-219.167 529.707,-227.339"/>
<polygon fill="#8b1a1a" stroke="#8b1a1a" points="366.87,-161.696 356.501,-159.519 363.25,-167.687 366.87,-161.696"/>
</g>
<!-- Node9 -->
<g id="node18" class="node"><title>Node9</title>
<a xlink:href="classstxxl_1_1write__pool.html" target="_top" xlink:title="Implements dynamically resizable buffered writing pool. ">
<polygon fill="none" stroke="black" points="534,-132 534,-166 628,-166 628,-132 534,-132"/>
<text text-anchor="start" x="542" y="-153" font-family="Helvetica,sans-Serif" font-size="10.00">stxxl::write_pool&lt;</text>
<text text-anchor="middle" x="581" y="-140" font-family="Helvetica,sans-Serif" font-size="10.00"> BlockType &gt;</text>
</a>
</g>
<!-- Node2&#45;&gt;Node9 -->
<g id="edge22" class="edge"><title>Node2&#45;&gt;Node9</title>
<path fill="none" stroke="#8b1a1a" d="M399.281,-149C440.664,-149 495.164,-149 533.65,-149"/>
<polygon fill="#8b1a1a" stroke="#8b1a1a" points="399.06,-145.5 389.06,-149 399.06,-152.5 399.06,-145.5"/>
</g>
<!-- Node2&#45;&gt;Node12 -->
<g id="edge32" class="edge"><title>Node2&#45;&gt;Node12</title>
<path fill="none" stroke="#8b1a1a" d="M352.178,-129.886C365.931,-109.699 390.069,-78.1907 418,-59 481.5,-15.3706 503.956,-0 581,-0 581,-0 581,-0 1126,-0 1205.14,-0 1280.68,-62.7456 1319.97,-101.717"/>
<polygon fill="#8b1a1a" stroke="#8b1a1a" points="349.221,-128.011 346.613,-138.28 355.056,-131.879 349.221,-128.011"/>
</g>
<!-- Node3&#45;&gt;Node1 -->
<g id="edge4" class="edge"><title>Node3&#45;&gt;Node1</title>
<path fill="none" stroke="#9a32cd" stroke-dasharray="5,2" d="M936.2,-161.656C970.866,-156.24 1013.49,-149.58 1049.56,-143.944"/>
<polygon fill="#9a32cd" stroke="#9a32cd" points="935.52,-158.22 926.18,-163.222 936.601,-165.136 935.52,-158.22"/>
<text text-anchor="middle" x="998" y="-160" font-family="Helvetica,sans-Serif" font-size="10.00"> pool</text>
</g>
<!-- Node4&#45;&gt;Node3 -->
<g id="edge8" class="edge"><title>Node4&#45;&gt;Node3</title>
<path fill="none" stroke="#9a32cd" stroke-dasharray="5,2" d="M642.199,-232.588C680.967,-227.715 731.926,-219.805 776,-208 794.4,-203.072 814.172,-195.814 830.812,-189.103"/>
<polygon fill="#9a32cd" stroke="#9a32cd" points="641.612,-229.134 632.111,-233.823 642.462,-236.082 641.612,-229.134"/>
<text text-anchor="middle" x="721" y="-232" font-family="Helvetica,sans-Serif" font-size="10.00"> p_pool</text>
</g>
<!-- Node5 -->
<g id="node10" class="node"><title>Node5</title>
<a xlink:href="structstxxl_1_1choose__int__types.html" target="_top" xlink:title="stxxl::choose_int_types\l\&lt; my_pointer_size \&gt;">
<polygon fill="none" stroke="black" points="280,-286 280,-320 400,-320 400,-286 280,-286"/>
<text text-anchor="start" x="288" y="-307" font-family="Helvetica,sans-Serif" font-size="10.00">stxxl::choose_int_types</text>
<text text-anchor="middle" x="340" y="-294" font-family="Helvetica,sans-Serif" font-size="10.00">&lt; my_pointer_size &gt;</text>
</a>
</g>
<!-- Node5&#45;&gt;Node1 -->
<g id="edge28" class="edge"><title>Node5&#45;&gt;Node1</title>
<path fill="none" stroke="#9a32cd" stroke-dasharray="5,2" d="M410.193,-297.698C437.075,-295.406 468.001,-292.452 496,-289 621.025,-273.584 652.87,-271.605 776,-245 852.622,-228.444 870.584,-219.386 946,-198 984.295,-187.141 994.569,-186.54 1032,-173 1046.23,-167.852 1061.37,-161.603 1075.26,-155.551"/>
<polygon fill="#9a32cd" stroke="#9a32cd" points="409.776,-294.22 400.103,-298.543 410.36,-301.196 409.776,-294.22"/>
<text text-anchor="middle" x="721" y="-283" font-family="Helvetica,sans-Serif" font-size="10.00"> k</text>
<text text-anchor="middle" x="721" y="-270" font-family="Helvetica,sans-Serif" font-size="10.00">log_k</text>
</g>
<!-- Node5&#45;&gt;Node4 -->
<g id="edge12" class="edge"><title>Node5&#45;&gt;Node4</title>
<path fill="none" stroke="#9a32cd" stroke-dasharray="5,2" d="M396.481,-282.632C403.686,-280.275 410.99,-278.002 418,-276 455.11,-265.4 497.657,-255.827 529.974,-249.075"/>
<polygon fill="#9a32cd" stroke="#9a32cd" points="395.131,-279.393 386.755,-285.88 397.348,-286.032 395.131,-279.393"/>
<text text-anchor="middle" x="457" y="-280" font-family="Helvetica,sans-Serif" font-size="10.00"> free_blocks_size</text>
</g>
<!-- Node5&#45;&gt;Node12 -->
<g id="edge36" class="edge"><title>Node5&#45;&gt;Node12</title>
<path fill="none" stroke="#9a32cd" stroke-dasharray="5,2" d="M406.832,-322.765C454.843,-335.235 521.349,-349 581,-349 581,-349 581,-349 1126,-349 1231.64,-349 1305.65,-221.799 1334.54,-162.173"/>
<polygon fill="#9a32cd" stroke="#9a32cd" points="407.439,-319.305 396.876,-320.129 405.647,-326.072 407.439,-319.305"/>
<text text-anchor="middle" x="870" y="-353" font-family="Helvetica,sans-Serif" font-size="10.00"> current</text>
</g>
<!-- Node6 -->
<g id="node12" class="node"><title>Node6</title>
<a xlink:href="structstxxl_1_1choose__int__types.html" target="_top" xlink:title="stxxl::choose_int_types\l\&lt; PtrSize \&gt;">
<polygon fill="none" stroke="black" points="9,-286 9,-320 129,-320 129,-286 9,-286"/>
<text text-anchor="start" x="17" y="-307" font-family="Helvetica,sans-Serif" font-size="10.00">stxxl::choose_int_types</text>
<text text-anchor="middle" x="69" y="-294" font-family="Helvetica,sans-Serif" font-size="10.00">&lt; PtrSize &gt;</text>
</a>
</g>
<!-- Node6&#45;&gt;Node5 -->
<g id="edge14" class="edge"><title>Node6&#45;&gt;Node5</title>
<path fill="none" stroke="orange" stroke-dasharray="5,2" d="M139.361,-303C182.839,-303 238.058,-303 279.556,-303"/>
<polygon fill="orange" stroke="orange" points="139.144,-299.5 129.144,-303 139.144,-306.5 139.144,-299.5"/>
<text text-anchor="middle" x="209" y="-307" font-family="Helvetica,sans-Serif" font-size="10.00"> &lt; my_pointer_size &gt;</text>
</g>
<!-- Node7 -->
<g id="node14" class="node"><title>Node7</title>
<a xlink:href="structstxxl_1_1compat__hash__map.html" target="_top" xlink:title="stxxl::compat_hash\l_map\&lt; bid_type, busy\l_entry, bid_hash \&gt;">
<polygon fill="none" stroke="black" points="283.5,-215.5 283.5,-262.5 396.5,-262.5 396.5,-215.5 283.5,-215.5"/>
<text text-anchor="start" x="291.5" y="-249.5" font-family="Helvetica,sans-Serif" font-size="10.00">stxxl::compat_hash</text>
<text text-anchor="start" x="291.5" y="-236.5" font-family="Helvetica,sans-Serif" font-size="10.00">_map&lt; bid_type, busy</text>
<text text-anchor="middle" x="340" y="-223.5" font-family="Helvetica,sans-Serif" font-size="10.00">_entry, bid_hash &gt;</text>
</a>
</g>
<!-- Node7&#45;&gt;Node4 -->
<g id="edge16" class="edge"><title>Node7&#45;&gt;Node4</title>
<path fill="none" stroke="#9a32cd" stroke-dasharray="5,2" d="M406.689,-239C445.583,-239 493.888,-239 529.777,-239"/>
<polygon fill="#9a32cd" stroke="#9a32cd" points="406.504,-235.5 396.504,-239 406.504,-242.5 406.504,-235.5"/>
<text text-anchor="middle" x="457" y="-243" font-family="Helvetica,sans-Serif" font-size="10.00"> busy_blocks</text>
</g>
<!-- Node8 -->
<g id="node16" class="node"><title>Node8</title>
<a xlink:href="structstxxl_1_1compat__hash__map.html" target="_top" xlink:title="stxxl::compat_hash\l_map\&lt; _Key, _Tp, _Hash \&gt;">
<polygon fill="none" stroke="black" points="0,-222 0,-256 138,-256 138,-222 0,-222"/>
<text text-anchor="start" x="8" y="-243" font-family="Helvetica,sans-Serif" font-size="10.00">stxxl::compat_hash</text>
<text text-anchor="middle" x="69" y="-230" font-family="Helvetica,sans-Serif" font-size="10.00">_map&lt; _Key, _Tp, _Hash &gt;</text>
</a>
</g>
<!-- Node8&#45;&gt;Node7 -->
<g id="edge18" class="edge"><title>Node8&#45;&gt;Node7</title>
<path fill="none" stroke="orange" stroke-dasharray="5,2" d="M148.31,-239C191.614,-239 244.224,-239 283.366,-239"/>
<polygon fill="orange" stroke="orange" points="148.086,-235.5 138.086,-239 148.086,-242.5 148.086,-235.5"/>
<text text-anchor="start" x="156" y="-256" font-family="Helvetica,sans-Serif" font-size="10.00"> &lt; bid_type, busy_entry,</text>
<text text-anchor="middle" x="209" y="-243" font-family="Helvetica,sans-Serif" font-size="10.00"> bid_hash &gt;</text>
</g>
<!-- Node9&#45;&gt;Node3 -->
<g id="edge20" class="edge"><title>Node9&#45;&gt;Node3</title>
<path fill="none" stroke="#9a32cd" stroke-dasharray="5,2" d="M638.255,-153.557C689.167,-157.608 763.175,-163.498 813.774,-167.525"/>
<polygon fill="#9a32cd" stroke="#9a32cd" points="638.322,-150.051 628.076,-152.747 637.767,-157.029 638.322,-150.051"/>
<text text-anchor="middle" x="721" y="-167" font-family="Helvetica,sans-Serif" font-size="10.00"> w_pool</text>
</g>
<!-- Node10 -->
<g id="node21" class="node"><title>Node10</title>
<a xlink:href="classstxxl_1_1priority__queue__local_1_1internal__bounded__stack.html" target="_top" xlink:title="stxxl::priority_queue\l_local::internal_bounded\l_stack\&lt; unsigned_type, arity \&gt;">
<polygon fill="none" stroke="black" points="794,-77.5 794,-124.5 946,-124.5 946,-77.5 794,-77.5"/>
<text text-anchor="start" x="802" y="-111.5" font-family="Helvetica,sans-Serif" font-size="10.00">stxxl::priority_queue</text>
<text text-anchor="start" x="802" y="-98.5" font-family="Helvetica,sans-Serif" font-size="10.00">_local::internal_bounded</text>
<text text-anchor="middle" x="870" y="-85.5" font-family="Helvetica,sans-Serif" font-size="10.00">_stack&lt; unsigned_type, arity &gt;</text>
</a>
</g>
<!-- Node10&#45;&gt;Node1 -->
<g id="edge24" class="edge"><title>Node10&#45;&gt;Node1</title>
<path fill="none" stroke="#9a32cd" stroke-dasharray="5,2" d="M956.236,-110.948C980.728,-113.819 1007.42,-116.99 1032,-120 1037.8,-120.71 1043.79,-121.454 1049.82,-122.208"/>
<polygon fill="#9a32cd" stroke="#9a32cd" points="956.589,-107.466 946.25,-109.78 955.775,-114.418 956.589,-107.466"/>
<text text-anchor="middle" x="998" y="-124" font-family="Helvetica,sans-Serif" font-size="10.00"> free_segments</text>
</g>
<!-- Node11 -->
<g id="node23" class="node"><title>Node11</title>
<a xlink:href="classstxxl_1_1priority__queue__local_1_1internal__bounded__stack.html" target="_top" xlink:title="Similar to std::stack, with the following differences: ">
<polygon fill="none" stroke="black" points="514,-66.5 514,-113.5 648,-113.5 648,-66.5 514,-66.5"/>
<text text-anchor="start" x="522" y="-100.5" font-family="Helvetica,sans-Serif" font-size="10.00">stxxl::priority_queue</text>
<text text-anchor="start" x="522" y="-87.5" font-family="Helvetica,sans-Serif" font-size="10.00">_local::internal_bounded</text>
<text text-anchor="middle" x="581" y="-74.5" font-family="Helvetica,sans-Serif" font-size="10.00">_stack&lt; Tp_, max_size_ &gt;</text>
</a>
</g>
<!-- Node11&#45;&gt;Node10 -->
<g id="edge26" class="edge"><title>Node11&#45;&gt;Node10</title>
<path fill="none" stroke="orange" stroke-dasharray="5,2" d="M658.215,-92.939C700.243,-94.5387 752.05,-96.5105 793.903,-98.1036"/>
<polygon fill="orange" stroke="orange" points="658.155,-89.4342 648.029,-92.5513 657.888,-96.4292 658.155,-89.4342"/>
<text text-anchor="middle" x="721" y="-101" font-family="Helvetica,sans-Serif" font-size="10.00"> &lt; unsigned_type, arity &gt;</text>
</g>
<!-- Node12&#45;&gt;Node1 -->
<g id="edge30" class="edge"><title>Node12&#45;&gt;Node1</title>
<path fill="none" stroke="#9a32cd" stroke-dasharray="5,2" d="M1261.79,-115.789C1259.17,-115.495 1256.57,-115.23 1254,-115 1237.14,-113.488 1219.1,-114.346 1202.03,-116.309"/>
<polygon fill="#9a32cd" stroke="#9a32cd" points="1261.62,-119.295 1271.97,-117.061 1262.48,-112.349 1261.62,-119.295"/>
<text text-anchor="middle" x="1237" y="-119" font-family="Helvetica,sans-Serif" font-size="10.00"> states</text>
</g>
</g>
</svg>
