<?xml version="1.0" encoding="UTF-8" standalone="no"?>
<!DOCTYPE svg PUBLIC "-//W3C//DTD SVG 1.1//EN"
 "http://www.w3.org/Graphics/SVG/1.1/DTD/svg11.dtd">
<!-- Generated by graphviz version 2.26.3 (20100126.1600)
 -->
<!-- Title: stxxl::matrix&lt; ValueType, BlockSideLength &gt; Pages: 1 -->
<svg width="2140pt" height="375pt"
 viewBox="0.00 0.00 2140.00 375.00" xmlns="http://www.w3.org/2000/svg" xmlns:xlink="http://www.w3.org/1999/xlink">
<g id="graph1" class="graph" transform="scale(1 1) rotate(0) translate(4 371)">
<title>stxxl::matrix&lt; ValueType, BlockSideLength &gt;</title>
<!-- Node1 -->
<g id="node1" class="node"><title>Node1</title>
<polygon fill="#bfbfbf" stroke="black" points="2002.5,-212 2002.5,-246 2131.5,-246 2131.5,-212 2002.5,-212"/>
<text text-anchor="start" x="2010.5" y="-233" font-family="Helvetica,sans-Serif" font-size="10.00">stxxl::matrix&lt; ValueType,</text>
<text text-anchor="middle" x="2067" y="-220" font-family="Helvetica,sans-Serif" font-size="10.00"> BlockSideLength &gt;</text>
</g>
<!-- Node2 -->
<g id="node2" class="node"><title>Node2</title>
<a xlink:href="classstxxl_1_1counting__ptr.html" target="_top" xlink:title="stxxl::counting_ptr\l\&lt; swappable_block_matrix\l_type \&gt;">
<polygon fill="none" stroke="black" points="1810.5,-205.5 1810.5,-252.5 1943.5,-252.5 1943.5,-205.5 1810.5,-205.5"/>
<text text-anchor="start" x="1818.5" y="-239.5" font-family="Helvetica,sans-Serif" font-size="10.00">stxxl::counting_ptr</text>
<text text-anchor="start" x="1818.5" y="-226.5" font-family="Helvetica,sans-Serif" font-size="10.00">&lt; swappable_block_matrix</text>
<text text-anchor="middle" x="1877" y="-213.5" font-family="Helvetica,sans-Serif" font-size="10.00">_type &gt;</text>
</a>
</g>
<!-- Node2&#45;&gt;Node1 -->
<g id="edge2" class="edge"><title>Node2&#45;&gt;Node1</title>
<path fill="none" stroke="#9a32cd" stroke-dasharray="5,2" d="M1954.12,-229C1970.13,-229 1986.85,-229 2002.36,-229"/>
<polygon fill="#9a32cd" stroke="#9a32cd" points="1953.72,-225.5 1943.72,-229 1953.72,-232.5 1953.72,-225.5"/>
<text text-anchor="middle" x="1973" y="-233" font-family="Helvetica,sans-Serif" font-size="10.00"> data</text>
</g>
<!-- Node3 -->
<g id="node4" class="node"><title>Node3</title>
<a xlink:href="classstxxl_1_1swappable__block__matrix.html" target="_top" xlink:title="External container for a (sub)matrix. Not intended for direct use. ">
<polygon fill="none" stroke="black" points="1498.5,-237.5 1498.5,-284.5 1653.5,-284.5 1653.5,-237.5 1498.5,-237.5"/>
<text text-anchor="start" x="1506.5" y="-271.5" font-family="Helvetica,sans-Serif" font-size="10.00">stxxl::swappable_block</text>
<text text-anchor="start" x="1506.5" y="-258.5" font-family="Helvetica,sans-Serif" font-size="10.00">_matrix&lt; ValueType, BlockSide</text>
<text text-anchor="middle" x="1576" y="-245.5" font-family="Helvetica,sans-Serif" font-size="10.00">Length &gt;</text>
</a>
</g>
<!-- Node3&#45;&gt;Node2 -->
<g id="edge4" class="edge"><title>Node3&#45;&gt;Node2</title>
<path fill="none" stroke="#9a32cd" stroke-dasharray="5,2" d="M1663.66,-251.681C1710.52,-246.699 1767.28,-240.665 1810.47,-236.073"/>
<polygon fill="#9a32cd" stroke="#9a32cd" points="1663.09,-248.222 1653.51,-252.759 1663.83,-255.182 1663.09,-248.222"/>
<text text-anchor="middle" x="1732" y="-254" font-family="Helvetica,sans-Serif" font-size="10.00"> m_ptr</text>
</g>
<!-- Node4 -->
<g id="node6" class="node"><title>Node4</title>
<a xlink:href="classstxxl_1_1atomic__counted__object.html" target="_top" xlink:title="Provides reference counting abilities for use with counting_ptr with mutex locking. ">
<polygon fill="none" stroke="black" points="553.5,-228 553.5,-262 666.5,-262 666.5,-228 553.5,-228"/>
<text text-anchor="start" x="561.5" y="-249" font-family="Helvetica,sans-Serif" font-size="10.00">stxxl::atomic_counted</text>
<text text-anchor="middle" x="610" y="-236" font-family="Helvetica,sans-Serif" font-size="10.00">_object</text>
</a>
</g>
<!-- Node4&#45;&gt;Node3 -->
<g id="edge6" class="edge"><title>Node4&#45;&gt;Node3</title>
<path fill="none" stroke="midnightblue" d="M677.088,-241.29C712.951,-239.613 757.868,-238 798,-238 798,-238 798,-238 1383,-238 1421.13,-238 1463.2,-242.481 1498.31,-247.488"/>
<polygon fill="midnightblue" stroke="midnightblue" points="676.565,-237.811 666.745,-241.787 676.902,-244.803 676.565,-237.811"/>
</g>
<!-- Node13 -->
<g id="node27" class="node"><title>Node13</title>
<a xlink:href="classstxxl_1_1file.html" target="_top" xlink:title="Defines interface of file. ">
<polygon fill="none" stroke="black" points="770,-128.5 770,-149.5 826,-149.5 826,-128.5 770,-128.5"/>
<text text-anchor="middle" x="798" y="-136.5" font-family="Helvetica,sans-Serif" font-size="10.00">stxxl::file</text>
</a>
</g>
<!-- Node4&#45;&gt;Node13 -->
<g id="edge34" class="edge"><title>Node4&#45;&gt;Node13</title>
<path fill="none" stroke="#9a32cd" stroke-dasharray="5,2" d="M627.802,-219.494C641.645,-201.577 662.421,-178.487 686,-165 711.991,-150.134 745.976,-143.762 769.664,-141.035"/>
<polygon fill="#9a32cd" stroke="#9a32cd" points="624.769,-217.706 621.581,-227.81 630.374,-221.899 624.769,-217.706"/>
<text text-anchor="middle" x="719" y="-169" font-family="Helvetica,sans-Serif" font-size="10.00"> m_request_ref</text>
</g>
<!-- Node5 -->
<g id="node8" class="node"><title>Node5</title>
<a xlink:href="classstxxl_1_1mutex.html" target="_top" xlink:title="stxxl::mutex">
<polygon fill="none" stroke="black" points="287.5,-189.5 287.5,-210.5 358.5,-210.5 358.5,-189.5 287.5,-189.5"/>
<text text-anchor="middle" x="323" y="-197.5" font-family="Helvetica,sans-Serif" font-size="10.00">stxxl::mutex</text>
</a>
</g>
<!-- Node5&#45;&gt;Node4 -->
<g id="edge8" class="edge"><title>Node5&#45;&gt;Node4</title>
<path fill="none" stroke="#9a32cd" stroke-dasharray="5,2" d="M368.682,-207.163C418.831,-215.026 499.396,-227.658 553.484,-236.139"/>
<polygon fill="#9a32cd" stroke="#9a32cd" points="369.19,-203.7 358.768,-205.608 368.106,-210.615 369.19,-203.7"/>
<text text-anchor="middle" x="474" y="-236" font-family="Helvetica,sans-Serif" font-size="10.00"> m_reference_count_mutex</text>
</g>
<!-- Node14 -->
<g id="node31" class="node"><title>Node14</title>
<a xlink:href="classstxxl_1_1disk__allocator.html" target="_top" xlink:title="stxxl::disk_allocator">
<polygon fill="none" stroke="black" points="944,-121.5 944,-142.5 1048,-142.5 1048,-121.5 944,-121.5"/>
<text text-anchor="middle" x="996" y="-129.5" font-family="Helvetica,sans-Serif" font-size="10.00">stxxl::disk_allocator</text>
</a>
</g>
<!-- Node5&#45;&gt;Node14 -->
<g id="edge42" class="edge"><title>Node5&#45;&gt;Node14</title>
<path fill="none" stroke="#9a32cd" stroke-dasharray="5,2" d="M368.772,-201.211C470.427,-202.899 722.127,-201.541 926,-155 940.092,-151.783 955.383,-146.925 968.067,-142.501"/>
<polygon fill="#9a32cd" stroke="#9a32cd" points="368.615,-197.707 358.552,-201.022 368.486,-204.706 368.615,-197.707"/>
<text text-anchor="middle" x="719" y="-195" font-family="Helvetica,sans-Serif" font-size="10.00"> mutex</text>
</g>
<!-- Node6 -->
<g id="node10" class="node"><title>Node6</title>
<a xlink:href="classstxxl_1_1noncopyable.html" target="_top" xlink:title="stxxl::noncopyable">
<polygon fill="none" stroke="black" points="11,-108.5 11,-129.5 109,-129.5 109,-108.5 11,-108.5"/>
<text text-anchor="middle" x="60" y="-116.5" font-family="Helvetica,sans-Serif" font-size="10.00">stxxl::noncopyable</text>
</a>
</g>
<!-- Node6&#45;&gt;Node5 -->
<g id="edge10" class="edge"><title>Node6&#45;&gt;Node5</title>
<path fill="none" stroke="#8b1a1a" d="M91.7302,-133.67C105.733,-139.817 122.5,-146.742 138,-152 189.062,-169.322 249.841,-183.994 287.426,-192.4"/>
<polygon fill="#8b1a1a" stroke="#8b1a1a" points="93.0861,-130.442 82.5275,-129.568 90.2362,-136.836 93.0861,-130.442"/>
</g>
<!-- Node9 -->
<g id="node16" class="node"><title>Node9</title>
<a xlink:href="classstxxl_1_1block__scheduler.html" target="_top" xlink:title="Schedules swapping of blocks and provides blocks for temporary storage. ">
<polygon fill="none" stroke="black" points="1318.5,-274 1318.5,-308 1447.5,-308 1447.5,-274 1318.5,-274"/>
<text text-anchor="start" x="1326.5" y="-295" font-family="Helvetica,sans-Serif" font-size="10.00">stxxl::block_scheduler</text>
<text text-anchor="middle" x="1383" y="-282" font-family="Helvetica,sans-Serif" font-size="10.00">&lt; SwappableBlockType &gt;</text>
</a>
</g>
<!-- Node6&#45;&gt;Node9 -->
<g id="edge18" class="edge"><title>Node6&#45;&gt;Node9</title>
<path fill="none" stroke="#8b1a1a" d="M73.7538,-137.719C109.353,-183.799 209.684,-299 323,-299 323,-299 323,-299 1209,-299 1245.14,-299 1285.45,-297.257 1318.17,-295.398"/>
<polygon fill="#8b1a1a" stroke="#8b1a1a" points="76.521,-135.576 67.6912,-129.721 70.9423,-139.804 76.521,-135.576"/>
</g>
<!-- Node11 -->
<g id="node21" class="node"><title>Node11</title>
<a xlink:href="classstxxl_1_1singleton.html" target="_top" xlink:title="stxxl::singleton\&lt; block\l_manager \&gt;">
<polygon fill="none" stroke="black" points="552.5,-14 552.5,-48 667.5,-48 667.5,-14 552.5,-14"/>
<text text-anchor="start" x="560.5" y="-35" font-family="Helvetica,sans-Serif" font-size="10.00">stxxl::singleton&lt; block</text>
<text text-anchor="middle" x="610" y="-22" font-family="Helvetica,sans-Serif" font-size="10.00">_manager &gt;</text>
</a>
</g>
<!-- Node6&#45;&gt;Node11 -->
<g id="edge24" class="edge"><title>Node6&#45;&gt;Node11</title>
<path fill="none" stroke="#8b1a1a" d="M89.5781,-104.03C103.861,-97.445 121.454,-90.2548 138,-86 309.365,-41.932 358.857,-70.1582 534,-45 539.976,-44.1416 546.199,-43.1524 552.399,-42.1048"/>
<polygon fill="#8b1a1a" stroke="#8b1a1a" points="87.805,-100.997 80.2729,-108.448 90.8076,-107.32 87.805,-100.997"/>
</g>
<!-- Node12 -->
<g id="node24" class="node"><title>Node12</title>
<a xlink:href="classstxxl_1_1singleton.html" target="_top" xlink:title="stxxl::singleton\&lt; INSTANCE,\l destroy_on_exit \&gt;">
<polygon fill="none" stroke="black" points="250,-0 250,-34 396,-34 396,-0 250,-0"/>
<text text-anchor="start" x="258" y="-21" font-family="Helvetica,sans-Serif" font-size="10.00">stxxl::singleton&lt; INSTANCE,</text>
<text text-anchor="middle" x="323" y="-8" font-family="Helvetica,sans-Serif" font-size="10.00"> destroy_on_exit &gt;</text>
</a>
</g>
<!-- Node6&#45;&gt;Node12 -->
<g id="edge28" class="edge"><title>Node6&#45;&gt;Node12</title>
<path fill="none" stroke="#8b1a1a" d="M74.926,-100.353C89.2659,-83.81 112.473,-60.4016 138,-48 172.565,-31.2078 214.571,-23.3096 249.814,-19.6739"/>
<polygon fill="#8b1a1a" stroke="#8b1a1a" points="72.0181,-98.3729 68.2701,-108.283 77.3799,-102.873 72.0181,-98.3729"/>
</g>
<!-- Node6&#45;&gt;Node13 -->
<g id="edge32" class="edge"><title>Node6&#45;&gt;Node13</title>
<path fill="none" stroke="#8b1a1a" d="M119.701,-120.618C270.301,-124.699 661.36,-135.297 769.771,-138.235"/>
<polygon fill="#8b1a1a" stroke="#8b1a1a" points="119.372,-117.108 109.281,-120.336 119.182,-124.105 119.372,-117.108"/>
</g>
<!-- Node6&#45;&gt;Node14 -->
<g id="edge38" class="edge"><title>Node6&#45;&gt;Node14</title>
<path fill="none" stroke="#8b1a1a" d="M119.313,-112.262C172.559,-106.798 252.899,-100 323,-100 323,-100 323,-100 719,-100 797.787,-100 888.352,-112.933 943.877,-122.356"/>
<polygon fill="#8b1a1a" stroke="#8b1a1a" points="118.948,-108.781 109.365,-113.299 119.675,-115.743 118.948,-108.781"/>
</g>
<!-- Node7 -->
<g id="node12" class="node"><title>Node7</title>
<a xlink:href="structstxxl_1_1choose__int__types.html" target="_top" xlink:title="stxxl::choose_int_types\l\&lt; my_pointer_size \&gt;">
<polygon fill="none" stroke="black" points="263,-327 263,-361 383,-361 383,-327 263,-327"/>
<text text-anchor="start" x="271" y="-348" font-family="Helvetica,sans-Serif" font-size="10.00">stxxl::choose_int_types</text>
<text text-anchor="middle" x="323" y="-335" font-family="Helvetica,sans-Serif" font-size="10.00">&lt; my_pointer_size &gt;</text>
</a>
</g>
<!-- Node7&#45;&gt;Node4 -->
<g id="edge12" class="edge"><title>Node7&#45;&gt;Node4</title>
<path fill="none" stroke="#9a32cd" stroke-dasharray="5,2" d="M381.876,-323.691C434.499,-305.539 510.745,-279.238 560.346,-262.128"/>
<polygon fill="#9a32cd" stroke="#9a32cd" points="380.649,-320.412 372.337,-326.981 382.932,-327.029 380.649,-320.412"/>
<text text-anchor="middle" x="474" y="-315" font-family="Helvetica,sans-Serif" font-size="10.00"> m_reference_count</text>
</g>
<!-- Node7&#45;&gt;Node9 -->
<g id="edge44" class="edge"><title>Node7&#45;&gt;Node9</title>
<path fill="none" stroke="#9a32cd" stroke-dasharray="5,2" d="M393.361,-342.855C451.461,-342.007 536.082,-341 610,-341 610,-341 610,-341 1209,-341 1257.87,-341 1311.57,-322.552 1346.2,-308.067"/>
<polygon fill="#9a32cd" stroke="#9a32cd" points="393.138,-339.357 383.191,-343.005 393.241,-346.357 393.138,-339.357"/>
<text text-anchor="start" x="844" y="-358" font-family="Helvetica,sans-Serif" font-size="10.00"> remaining_internal</text>
<text text-anchor="middle" x="885" y="-345" font-family="Helvetica,sans-Serif" font-size="10.00">_blocks</text>
</g>
<!-- Node8 -->
<g id="node14" class="node"><title>Node8</title>
<a xlink:href="structstxxl_1_1choose__int__types.html" target="_top" xlink:title="stxxl::choose_int_types\l\&lt; PtrSize \&gt;">
<polygon fill="none" stroke="black" points="0,-327 0,-361 120,-361 120,-327 0,-327"/>
<text text-anchor="start" x="8" y="-348" font-family="Helvetica,sans-Serif" font-size="10.00">stxxl::choose_int_types</text>
<text text-anchor="middle" x="60" y="-335" font-family="Helvetica,sans-Serif" font-size="10.00">&lt; PtrSize &gt;</text>
</a>
</g>
<!-- Node8&#45;&gt;Node7 -->
<g id="edge14" class="edge"><title>Node8&#45;&gt;Node7</title>
<path fill="none" stroke="orange" stroke-dasharray="5,2" d="M130.017,-344C171.397,-344 223.258,-344 262.795,-344"/>
<polygon fill="orange" stroke="orange" points="130.008,-340.5 120.008,-344 130.008,-347.5 130.008,-340.5"/>
<text text-anchor="middle" x="185" y="-348" font-family="Helvetica,sans-Serif" font-size="10.00"> &lt; my_pointer_size &gt;</text>
</g>
<!-- Node9&#45;&gt;Node3 -->
<g id="edge16" class="edge"><title>Node9&#45;&gt;Node3</title>
<path fill="none" stroke="#9a32cd" stroke-dasharray="5,2" d="M1457.64,-279.398C1471.02,-277.318 1485,-275.145 1498.46,-273.052"/>
<polygon fill="#9a32cd" stroke="#9a32cd" points="1456.88,-275.974 1447.53,-280.969 1457.95,-282.891 1456.88,-275.974"/>
<text text-anchor="middle" x="1473" y="-281" font-family="Helvetica,sans-Serif" font-size="10.00"> bs</text>
</g>
<!-- Node10 -->
<g id="node19" class="node"><title>Node10</title>
<a xlink:href="classstxxl_1_1block__manager.html" target="_top" xlink:title="Block manager class. ">
<polygon fill="none" stroke="black" points="1154,-89.5 1154,-110.5 1264,-110.5 1264,-89.5 1154,-89.5"/>
<text text-anchor="middle" x="1209" y="-97.5" font-family="Helvetica,sans-Serif" font-size="10.00">stxxl::block_manager</text>
</a>
</g>
<!-- Node10&#45;&gt;Node9 -->
<g id="edge20" class="edge"><title>Node10&#45;&gt;Node9</title>
<path fill="none" stroke="#9a32cd" stroke-dasharray="5,2" d="M1225.44,-118.05C1258.95,-154.832 1334.73,-238.015 1367.46,-273.944"/>
<polygon fill="#9a32cd" stroke="#9a32cd" points="1227.92,-115.576 1218.6,-110.541 1222.75,-120.291 1227.92,-115.576"/>
<text text-anchor="middle" x="1291" y="-200" font-family="Helvetica,sans-Serif" font-size="10.00"> bm</text>
</g>
<!-- Node11&#45;&gt;Node10 -->
<g id="edge22" class="edge"><title>Node11&#45;&gt;Node10</title>
<path fill="none" stroke="midnightblue" d="M677.679,-37.5944C777.928,-47.5588 971.737,-67.5763 1136,-89 1141.72,-89.7459 1147.68,-90.5695 1153.63,-91.4203"/>
<polygon fill="midnightblue" stroke="midnightblue" points="677.983,-34.1074 667.687,-36.6037 677.293,-41.0733 677.983,-34.1074"/>
</g>
<!-- Node12&#45;&gt;Node11 -->
<g id="edge26" class="edge"><title>Node12&#45;&gt;Node11</title>
<path fill="none" stroke="orange" stroke-dasharray="5,2" d="M406.299,-21.0634C453.153,-23.3489 510.464,-26.1446 552.347,-28.1877"/>
<polygon fill="orange" stroke="orange" points="406.323,-17.5605 396.165,-20.569 405.982,-24.5522 406.323,-17.5605"/>
<text text-anchor="middle" x="474" y="-32" font-family="Helvetica,sans-Serif" font-size="10.00"> &lt; block_manager &gt;</text>
</g>
<!-- Node13&#45;&gt;Node10 -->
<g id="edge30" class="edge"><title>Node13&#45;&gt;Node10</title>
<path fill="none" stroke="#9a32cd" stroke-dasharray="5,2" d="M835.835,-125.631C864.975,-116.074 906.488,-104.046 944,-99 1016.04,-89.3097 1100.1,-91.9618 1153.9,-95.4124"/>
<polygon fill="#9a32cd" stroke="#9a32cd" points="834.446,-122.405 826.07,-128.893 836.664,-129.044 834.446,-122.405"/>
<text text-anchor="middle" x="996" y="-103" font-family="Helvetica,sans-Serif" font-size="10.00"> disk_files</text>
</g>
<!-- Node13&#45;&gt;Node14 -->
<g id="edge40" class="edge"><title>Node13&#45;&gt;Node14</title>
<path fill="none" stroke="#9a32cd" stroke-dasharray="5,2" d="M836.635,-137.634C867.229,-136.553 910.263,-135.031 943.901,-133.842"/>
<polygon fill="#9a32cd" stroke="#9a32cd" points="836.239,-134.146 826.369,-137.997 836.486,-141.141 836.239,-134.146"/>
<text text-anchor="middle" x="885" y="-142" font-family="Helvetica,sans-Serif" font-size="10.00"> storage</text>
</g>
<!-- Node14&#45;&gt;Node10 -->
<g id="edge36" class="edge"><title>Node14&#45;&gt;Node10</title>
<path fill="none" stroke="#9a32cd" stroke-dasharray="5,2" d="M1058.12,-122.667C1088.37,-118.123 1124.43,-112.706 1153.71,-108.306"/>
<polygon fill="#9a32cd" stroke="#9a32cd" points="1057.47,-119.225 1048.11,-124.172 1058.51,-126.147 1057.47,-119.225"/>
<text text-anchor="middle" x="1101" y="-125" font-family="Helvetica,sans-Serif" font-size="10.00"> disk_allocators</text>
</g>
<!-- Node15 -->
<g id="node37" class="node"><title>Node15</title>
<a xlink:href="classstxxl_1_1counting__ptr.html" target="_top" xlink:title="High&#45;performance smart pointer used as a wrapping reference counting pointer. ">
<polygon fill="none" stroke="black" points="1527.5,-185 1527.5,-219 1624.5,-219 1624.5,-185 1527.5,-185"/>
<text text-anchor="start" x="1535.5" y="-206" font-family="Helvetica,sans-Serif" font-size="10.00">stxxl::counting_ptr</text>
<text text-anchor="middle" x="1576" y="-193" font-family="Helvetica,sans-Serif" font-size="10.00">&lt; Type &gt;</text>
</a>
</g>
<!-- Node15&#45;&gt;Node2 -->
<g id="edge46" class="edge"><title>Node15&#45;&gt;Node2</title>
<path fill="none" stroke="orange" stroke-dasharray="5,2" d="M1634.85,-200.246C1678.44,-199.767 1739.17,-200.825 1792,-208 1798.02,-208.818 1804.24,-209.894 1810.44,-211.126"/>
<polygon fill="orange" stroke="orange" points="1634.66,-196.748 1624.71,-200.388 1634.76,-203.747 1634.66,-196.748"/>
<text text-anchor="start" x="1672" y="-225" font-family="Helvetica,sans-Serif" font-size="10.00"> &lt; swappable_block_matrix</text>
<text text-anchor="middle" x="1732" y="-212" font-family="Helvetica,sans-Serif" font-size="10.00">_type &gt;</text>
</g>
</g>
</svg>
