<?xml version="1.0" encoding="UTF-8" standalone="no"?>
<!DOCTYPE svg PUBLIC "-//W3C//DTD SVG 1.1//EN"
 "http://www.w3.org/Graphics/SVG/1.1/DTD/svg11.dtd">
<!-- Generated by graphviz version 2.38.0 (20140413.2041)
 -->
<!-- Title: stxxl::ppq_local::external_array&lt; ValueType, BlockSize, AllocStrategy &gt; Pages: 1 -->
<svg width="1261pt" height="326pt"
 viewBox="0.00 0.00 1261.00 326.00" xmlns="http://www.w3.org/2000/svg" xmlns:xlink="http://www.w3.org/1999/xlink">
<g id="graph0" class="graph" transform="scale(1 1) rotate(0) translate(4 322)">
<title>stxxl::ppq_local::external_array&lt; ValueType, BlockSize, AllocStrategy &gt;</title>
<!-- Node1 -->
<g id="node1" class="node"><title>Node1</title>
<polygon fill="#bfbfbf" stroke="black" points="1101,-121.5 1101,-162.5 1253,-162.5 1253,-121.5 1101,-121.5"/>
<text text-anchor="start" x="1109" y="-150.5" font-family="Helvetica,sans-Serif" font-size="10.00">stxxl::ppq_local::external</text>
<text text-anchor="start" x="1109" y="-139.5" font-family="Helvetica,sans-Serif" font-size="10.00">_array&lt; ValueType, BlockSize,</text>
<text text-anchor="middle" x="1177" y="-128.5" font-family="Helvetica,sans-Serif" font-size="10.00"> AllocStrategy &gt;</text>
</g>
<!-- Node2 -->
<g id="node2" class="node"><title>Node2</title>
<g id="a_node2"><a xlink:href="classstxxl_1_1noncopyable.html" target="_top" xlink:title="stxxl::noncopyable">
<polygon fill="none" stroke="black" points="307,-86.5 307,-105.5 405,-105.5 405,-86.5 307,-86.5"/>
<text text-anchor="middle" x="356" y="-93.5" font-family="Helvetica,sans-Serif" font-size="10.00">stxxl::noncopyable</text>
</a>
</g>
</g>
<!-- Node2&#45;&gt;Node1 -->
<g id="edge1" class="edge"><title>Node2&#45;&gt;Node1</title>
<path fill="none" stroke="#8b1a1a" d="M377.327,-80.4526C414.949,-53.2773 498.919,-0 579,-0 579,-0 579,-0 975,-0 1058.1,-0 1130.95,-81.9686 1161.16,-121.352"/>
<polygon fill="#8b1a1a" stroke="#8b1a1a" points="375.171,-77.6935 369.199,-86.4442 379.325,-83.3282 375.171,-77.6935"/>
</g>
<!-- Node5 -->
<g id="node5" class="node"><title>Node5</title>
<g id="a_node5"><a xlink:href="classstxxl_1_1read__write__pool.html" target="_top" xlink:title="stxxl::read_write_pool\l\&lt; block_type \&gt;">
<polygon fill="none" stroke="black" points="918,-127 918,-157 1030,-157 1030,-127 918,-127"/>
<text text-anchor="start" x="926" y="-145" font-family="Helvetica,sans-Serif" font-size="10.00">stxxl::read_write_pool</text>
<text text-anchor="middle" x="974" y="-134" font-family="Helvetica,sans-Serif" font-size="10.00">&lt; block_type &gt;</text>
</a>
</g>
</g>
<!-- Node2&#45;&gt;Node5 -->
<g id="edge5" class="edge"><title>Node2&#45;&gt;Node5</title>
<path fill="none" stroke="#8b1a1a" d="M415.006,-106.793C421.409,-107.911 427.839,-109.002 434,-110 552.32,-129.169 581.437,-139.534 701,-148 789.224,-154.247 811.63,-151.626 900,-148 905.718,-147.765 911.681,-147.428 917.626,-147.031"/>
<polygon fill="#8b1a1a" stroke="#8b1a1a" points="415.465,-103.32 405.008,-105.023 414.245,-110.213 415.465,-103.32"/>
</g>
<!-- Node6 -->
<g id="node6" class="node"><title>Node6</title>
<g id="a_node6"><a xlink:href="classstxxl_1_1prefetch__pool.html" target="_top" xlink:title="Implements dynamically resizable prefetching pool. ">
<polygon fill="none" stroke="black" points="529,-193 529,-223 631,-223 631,-193 529,-193"/>
<text text-anchor="start" x="537" y="-211" font-family="Helvetica,sans-Serif" font-size="10.00">stxxl::prefetch_pool</text>
<text text-anchor="middle" x="580" y="-200" font-family="Helvetica,sans-Serif" font-size="10.00">&lt; BlockType &gt;</text>
</a>
</g>
</g>
<!-- Node2&#45;&gt;Node6 -->
<g id="edge7" class="edge"><title>Node2&#45;&gt;Node6</title>
<path fill="none" stroke="#8b1a1a" d="M371.548,-113.483C385.864,-129.606 409.137,-153.086 434,-167 463.335,-183.417 499.754,-193.683 528.754,-199.837"/>
<polygon fill="#8b1a1a" stroke="#8b1a1a" points="374.105,-111.089 364.918,-105.812 368.809,-115.666 374.105,-111.089"/>
</g>
<!-- Node9 -->
<g id="node9" class="node"><title>Node9</title>
<g id="a_node9"><a xlink:href="classstxxl_1_1write__pool.html" target="_top" xlink:title="Implements dynamically resizable buffered writing pool. ">
<polygon fill="none" stroke="black" points="533,-81 533,-111 627,-111 627,-81 533,-81"/>
<text text-anchor="start" x="541" y="-99" font-family="Helvetica,sans-Serif" font-size="10.00">stxxl::write_pool&lt;</text>
<text text-anchor="middle" x="580" y="-88" font-family="Helvetica,sans-Serif" font-size="10.00"> BlockType &gt;</text>
</a>
</g>
</g>
<!-- Node2&#45;&gt;Node9 -->
<g id="edge12" class="edge"><title>Node2&#45;&gt;Node9</title>
<path fill="none" stroke="#8b1a1a" d="M415.239,-96C451.945,-96 498.681,-96 532.822,-96"/>
<polygon fill="#8b1a1a" stroke="#8b1a1a" points="415.171,-92.5001 405.171,-96 415.171,-99.5001 415.171,-92.5001"/>
</g>
<!-- Node10 -->
<g id="node10" class="node"><title>Node10</title>
<g id="a_node10"><a xlink:href="classstxxl_1_1read__write__pool.html" target="_top" xlink:title="Implements dynamically resizable buffered writing and prefetched reading pool. ">
<polygon fill="none" stroke="black" points="701,-56 701,-86 813,-86 813,-56 701,-56"/>
<text text-anchor="start" x="709" y="-74" font-family="Helvetica,sans-Serif" font-size="10.00">stxxl::read_write_pool</text>
<text text-anchor="middle" x="757" y="-63" font-family="Helvetica,sans-Serif" font-size="10.00">&lt; BlockType &gt;</text>
</a>
</g>
</g>
<!-- Node2&#45;&gt;Node10 -->
<g id="edge14" class="edge"><title>Node2&#45;&gt;Node10</title>
<path fill="none" stroke="#8b1a1a" d="M415.288,-85.6519C480.411,-75.2124 589.044,-61.1453 683,-65 688.718,-65.2346 694.681,-65.5721 700.626,-65.9691"/>
<polygon fill="#8b1a1a" stroke="#8b1a1a" points="414.525,-82.2299 405.219,-87.2929 415.651,-89.1388 414.525,-82.2299"/>
</g>
<!-- Node3 -->
<g id="node3" class="node"><title>Node3</title>
<g id="a_node3"><a xlink:href="structstxxl_1_1choose__int__types.html" target="_top" xlink:title="stxxl::choose_int_types\l\&lt; my_pointer_size \&gt;">
<polygon fill="none" stroke="black" points="296,-256 296,-286 416,-286 416,-256 296,-256"/>
<text text-anchor="start" x="304" y="-274" font-family="Helvetica,sans-Serif" font-size="10.00">stxxl::choose_int_types</text>
<text text-anchor="middle" x="356" y="-263" font-family="Helvetica,sans-Serif" font-size="10.00">&lt; my_pointer_size &gt;</text>
</a>
</g>
</g>
<!-- Node3&#45;&gt;Node1 -->
<g id="edge2" class="edge"><title>Node3&#45;&gt;Node1</title>
<path fill="none" stroke="#9a32cd" stroke-dasharray="5,2" d="M426.603,-272.423C470.351,-273.198 527.971,-274 579,-274 579,-274 579,-274 975,-274 1055.16,-274 1128.14,-199.75 1159.62,-162.625"/>
<polygon fill="#9a32cd" stroke="#9a32cd" points="426.421,-268.919 416.359,-272.238 426.294,-275.918 426.421,-268.919"/>
<text text-anchor="middle" x="757" y="-310" font-family="Helvetica,sans-Serif" font-size="10.00"> m_num_blocks</text>
<text text-anchor="middle" x="757" y="-299" font-family="Helvetica,sans-Serif" font-size="10.00">m_old_unhinted_block</text>
<text text-anchor="middle" x="757" y="-288" font-family="Helvetica,sans-Serif" font-size="10.00">m_unhinted_block</text>
<text text-anchor="middle" x="757" y="-277" font-family="Helvetica,sans-Serif" font-size="10.00">m_level</text>
</g>
<!-- Node3&#45;&gt;Node6 -->
<g id="edge8" class="edge"><title>Node3&#45;&gt;Node6</title>
<path fill="none" stroke="#9a32cd" stroke-dasharray="5,2" d="M419.598,-253.099C424.471,-251.711 429.315,-250.332 434,-249 465.581,-240.024 501.045,-229.995 528.996,-222.103"/>
<polygon fill="#9a32cd" stroke="#9a32cd" points="418.255,-249.843 409.598,-255.951 420.175,-256.574 418.255,-249.843"/>
<text text-anchor="middle" x="472.5" y="-252" font-family="Helvetica,sans-Serif" font-size="10.00"> free_blocks_size</text>
</g>
<!-- Node4 -->
<g id="node4" class="node"><title>Node4</title>
<g id="a_node4"><a xlink:href="structstxxl_1_1choose__int__types.html" target="_top" xlink:title="stxxl::choose_int_types\l\&lt; PtrSize \&gt;">
<polygon fill="none" stroke="black" points="17,-256 17,-286 137,-286 137,-256 17,-256"/>
<text text-anchor="start" x="25" y="-274" font-family="Helvetica,sans-Serif" font-size="10.00">stxxl::choose_int_types</text>
<text text-anchor="middle" x="77" y="-263" font-family="Helvetica,sans-Serif" font-size="10.00">&lt; PtrSize &gt;</text>
</a>
</g>
</g>
<!-- Node4&#45;&gt;Node3 -->
<g id="edge3" class="edge"><title>Node4&#45;&gt;Node3</title>
<path fill="none" stroke="orange" stroke-dasharray="5,2" d="M147.195,-271C192.837,-271 252.008,-271 295.53,-271"/>
<polygon fill="orange" stroke="orange" points="147.084,-267.5 137.084,-271 147.084,-274.5 147.084,-267.5"/>
<text text-anchor="middle" x="225" y="-274" font-family="Helvetica,sans-Serif" font-size="10.00"> &lt; my_pointer_size &gt;</text>
</g>
<!-- Node5&#45;&gt;Node1 -->
<g id="edge4" class="edge"><title>Node5&#45;&gt;Node1</title>
<path fill="none" stroke="#9a32cd" stroke-dasharray="5,2" d="M1040.41,-142C1059.75,-142 1081.08,-142 1100.98,-142"/>
<polygon fill="#9a32cd" stroke="#9a32cd" points="1040.19,-138.5 1030.19,-142 1040.19,-145.5 1040.19,-138.5"/>
<text text-anchor="middle" x="1065.5" y="-145" font-family="Helvetica,sans-Serif" font-size="10.00"> m_pool</text>
</g>
<!-- Node6&#45;&gt;Node5 -->
<g id="edge6" class="edge"><title>Node6&#45;&gt;Node5</title>
<path fill="none" stroke="#9a32cd" stroke-dasharray="5,2" d="M641.188,-207.928C706.15,-206.482 812.114,-200.127 900,-176 916.044,-171.596 932.945,-163.939 946.441,-157.006"/>
<polygon fill="#9a32cd" stroke="#9a32cd" points="641.055,-204.43 631.124,-208.12 641.189,-211.429 641.055,-204.43"/>
<text text-anchor="middle" x="757" y="-209" font-family="Helvetica,sans-Serif" font-size="10.00"> p_pool</text>
</g>
<!-- Node6&#45;&gt;Node10 -->
<g id="edge15" class="edge"><title>Node6&#45;&gt;Node10</title>
<path fill="none" stroke="#9a32cd" stroke-dasharray="5,2" d="M602.825,-185.73C625.932,-162.849 664.099,-126.998 701,-101 708.558,-95.6752 717.16,-90.5791 725.28,-86.1468"/>
<polygon fill="#9a32cd" stroke="#9a32cd" points="600.19,-183.415 595.589,-192.959 605.137,-188.367 600.19,-183.415"/>
<text text-anchor="middle" x="666" y="-146" font-family="Helvetica,sans-Serif" font-size="10.00"> p_pool</text>
</g>
<!-- Node7 -->
<g id="node7" class="node"><title>Node7</title>
<g id="a_node7"><a xlink:href="structstxxl_1_1compat__hash__map.html" target="_top" xlink:title="stxxl::compat_hash\l_map\&lt; bid_type, busy\l_entry, bid_hash \&gt;">
<polygon fill="none" stroke="black" points="299.5,-193.5 299.5,-234.5 412.5,-234.5 412.5,-193.5 299.5,-193.5"/>
<text text-anchor="start" x="307.5" y="-222.5" font-family="Helvetica,sans-Serif" font-size="10.00">stxxl::compat_hash</text>
<text text-anchor="start" x="307.5" y="-211.5" font-family="Helvetica,sans-Serif" font-size="10.00">_map&lt; bid_type, busy</text>
<text text-anchor="middle" x="356" y="-200.5" font-family="Helvetica,sans-Serif" font-size="10.00">_entry, bid_hash &gt;</text>
</a>
</g>
</g>
<!-- Node7&#45;&gt;Node6 -->
<g id="edge9" class="edge"><title>Node7&#45;&gt;Node6</title>
<path fill="none" stroke="#9a32cd" stroke-dasharray="5,2" d="M423.028,-212.215C456.955,-211.299 497.627,-210.199 528.931,-209.353"/>
<polygon fill="#9a32cd" stroke="#9a32cd" points="422.635,-208.725 412.733,-212.494 422.824,-215.722 422.635,-208.725"/>
<text text-anchor="middle" x="472.5" y="-215" font-family="Helvetica,sans-Serif" font-size="10.00"> busy_blocks</text>
</g>
<!-- Node8 -->
<g id="node8" class="node"><title>Node8</title>
<g id="a_node8"><a xlink:href="structstxxl_1_1compat__hash__map.html" target="_top" xlink:title="stxxl::compat_hash\l_map\&lt; KeyType, MappedType,\l HashType \&gt;">
<polygon fill="none" stroke="black" points="0,-193.5 0,-234.5 154,-234.5 154,-193.5 0,-193.5"/>
<text text-anchor="start" x="8" y="-222.5" font-family="Helvetica,sans-Serif" font-size="10.00">stxxl::compat_hash</text>
<text text-anchor="start" x="8" y="-211.5" font-family="Helvetica,sans-Serif" font-size="10.00">_map&lt; KeyType, MappedType,</text>
<text text-anchor="middle" x="77" y="-200.5" font-family="Helvetica,sans-Serif" font-size="10.00"> HashType &gt;</text>
</a>
</g>
</g>
<!-- Node8&#45;&gt;Node7 -->
<g id="edge10" class="edge"><title>Node8&#45;&gt;Node7</title>
<path fill="none" stroke="orange" stroke-dasharray="5,2" d="M164.195,-214C208.263,-214 260.612,-214 299.32,-214"/>
<polygon fill="orange" stroke="orange" points="164.058,-210.5 154.058,-214 164.058,-217.5 164.058,-210.5"/>
<text text-anchor="start" x="172" y="-228" font-family="Helvetica,sans-Serif" font-size="10.00"> &lt; bid_type, busy_entry,</text>
<text text-anchor="middle" x="225" y="-217" font-family="Helvetica,sans-Serif" font-size="10.00"> bid_hash &gt;</text>
</g>
<!-- Node9&#45;&gt;Node5 -->
<g id="edge11" class="edge"><title>Node9&#45;&gt;Node5</title>
<path fill="none" stroke="#9a32cd" stroke-dasharray="5,2" d="M634.473,-113.724C639.35,-114.973 644.244,-116.094 649,-117 742.245,-134.766 852.874,-139.978 917.76,-141.464"/>
<polygon fill="#9a32cd" stroke="#9a32cd" points="635.102,-110.268 624.533,-111.01 633.258,-117.021 635.102,-110.268"/>
<text text-anchor="middle" x="757" y="-140" font-family="Helvetica,sans-Serif" font-size="10.00"> w_pool</text>
</g>
<!-- Node9&#45;&gt;Node10 -->
<g id="edge16" class="edge"><title>Node9&#45;&gt;Node10</title>
<path fill="none" stroke="#9a32cd" stroke-dasharray="5,2" d="M626.354,-77.6851C633.811,-75.3463 641.542,-73.3135 649,-72 665.741,-69.0519 684.183,-68.0835 700.973,-68.0562"/>
<polygon fill="#9a32cd" stroke="#9a32cd" points="625.123,-74.406 616.753,-80.9013 627.347,-81.0435 625.123,-74.406"/>
<text text-anchor="middle" x="666" y="-75" font-family="Helvetica,sans-Serif" font-size="10.00"> w_pool</text>
</g>
<!-- Node10&#45;&gt;Node5 -->
<g id="edge13" class="edge"><title>Node10&#45;&gt;Node5</title>
<path fill="none" stroke="orange" stroke-dasharray="5,2" d="M823.158,-78.4297C847.772,-82.5112 875.69,-88.7061 900,-98 918.798,-105.187 938.226,-117.155 952.309,-126.797"/>
<polygon fill="orange" stroke="orange" points="823.614,-74.9584 813.191,-76.8605 822.525,-81.8732 823.614,-74.9584"/>
<text text-anchor="middle" x="865.5" y="-101" font-family="Helvetica,sans-Serif" font-size="10.00"> &lt; block_type &gt;</text>
</g>
</g>
</svg>
