<?xml version="1.0" encoding="UTF-8" standalone="no"?>
<!DOCTYPE svg PUBLIC "-//W3C//DTD SVG 1.1//EN"
 "http://www.w3.org/Graphics/SVG/1.1/DTD/svg11.dtd">
<!-- Generated by graphviz version 2.38.0 (20140413.2041)
 -->
<!-- Title: stxxl::stream::runs_merger&lt; RunsType, CompareType, AllocStr &gt; Pages: 1 -->
<svg width="1304pt" height="354pt"
 viewBox="0.00 0.00 1304.00 354.00" xmlns="http://www.w3.org/2000/svg" xmlns:xlink="http://www.w3.org/1999/xlink">
<g id="graph0" class="graph" transform="scale(1 1) rotate(0) translate(4 350)">
<title>stxxl::stream::runs_merger&lt; RunsType, CompareType, AllocStr &gt;</title>
<!-- Node1 -->
<g id="node1" class="node"><title>Node1</title>
<polygon fill="#bfbfbf" stroke="black" points="1144,-247.5 1144,-288.5 1296,-288.5 1296,-247.5 1144,-247.5"/>
<text text-anchor="start" x="1152" y="-276.5" font-family="Helvetica,sans-Serif" font-size="10.00">stxxl::stream::runs</text>
<text text-anchor="start" x="1152" y="-265.5" font-family="Helvetica,sans-Serif" font-size="10.00">_merger&lt; RunsType, Compare</text>
<text text-anchor="middle" x="1220" y="-254.5" font-family="Helvetica,sans-Serif" font-size="10.00">Type, AllocStr &gt;</text>
</g>
<!-- Node2 -->
<g id="node2" class="node"><title>Node2</title>
<g id="a_node2"><a xlink:href="classstxxl_1_1stream_1_1basic__runs__merger.html" target="_top" xlink:title="Merges sorted runs. ">
<polygon fill="none" stroke="black" points="974,-247.5 974,-288.5 1107,-288.5 1107,-247.5 974,-247.5"/>
<text text-anchor="start" x="982" y="-276.5" font-family="Helvetica,sans-Serif" font-size="10.00">stxxl::stream::basic</text>
<text text-anchor="start" x="982" y="-265.5" font-family="Helvetica,sans-Serif" font-size="10.00">_runs_merger&lt; RunsType,</text>
<text text-anchor="middle" x="1040.5" y="-254.5" font-family="Helvetica,sans-Serif" font-size="10.00"> CompareType, AllocStr &gt;</text>
</a>
</g>
</g>
<!-- Node2&#45;&gt;Node1 -->
<g id="edge1" class="edge"><title>Node2&#45;&gt;Node1</title>
<path fill="none" stroke="midnightblue" d="M1117.29,-268C1126.07,-268 1135.02,-268 1143.79,-268"/>
<polygon fill="midnightblue" stroke="midnightblue" points="1117.09,-264.5 1107.09,-268 1117.09,-271.5 1117.09,-264.5"/>
</g>
<!-- Node3 -->
<g id="node3" class="node"><title>Node3</title>
<g id="a_node3"><a xlink:href="classstxxl_1_1noncopyable.html" target="_top" xlink:title="stxxl::noncopyable">
<polygon fill="none" stroke="black" points="6,-161.5 6,-180.5 104,-180.5 104,-161.5 6,-161.5"/>
<text text-anchor="middle" x="55" y="-168.5" font-family="Helvetica,sans-Serif" font-size="10.00">stxxl::noncopyable</text>
</a>
</g>
</g>
<!-- Node3&#45;&gt;Node2 -->
<g id="edge2" class="edge"><title>Node3&#45;&gt;Node2</title>
<path fill="none" stroke="#8b1a1a" d="M68.0213,-189.119C99.3128,-233.865 188.187,-346 293,-346 293,-346 293,-346 796.5,-346 871.601,-346 953.781,-311.806 1000.74,-288.698"/>
<polygon fill="#8b1a1a" stroke="#8b1a1a" points="70.7681,-186.935 62.233,-180.658 64.9907,-190.888 70.7681,-186.935"/>
</g>
<!-- Node4 -->
<g id="node4" class="node"><title>Node4</title>
<g id="a_node4"><a xlink:href="classstxxl_1_1block__prefetcher.html" target="_top" xlink:title="Encapsulates asynchronous prefetching engine. ">
<polygon fill="none" stroke="black" points="718.5,-138 718.5,-168 872.5,-168 872.5,-138 718.5,-138"/>
<text text-anchor="start" x="726.5" y="-156" font-family="Helvetica,sans-Serif" font-size="10.00">stxxl::block_prefetcher</text>
<text text-anchor="middle" x="795.5" y="-145" font-family="Helvetica,sans-Serif" font-size="10.00">&lt; BlockType, BidIteratorType &gt;</text>
</a>
</g>
</g>
<!-- Node3&#45;&gt;Node4 -->
<g id="edge4" class="edge"><title>Node3&#45;&gt;Node4</title>
<path fill="none" stroke="#8b1a1a" d="M114.328,-170.756C144.4,-170.599 181.666,-170.357 215,-170 391.454,-168.112 435.661,-170.643 612,-164 646.891,-162.686 685.493,-160.47 718.174,-158.37"/>
<polygon fill="#8b1a1a" stroke="#8b1a1a" points="113.992,-167.258 104.01,-170.808 114.028,-174.258 113.992,-167.258"/>
</g>
<!-- Node7 -->
<g id="node7" class="node"><title>Node7</title>
<g id="a_node7"><a xlink:href="classstxxl_1_1onoff__switch.html" target="_top" xlink:title="stxxl::onoff_switch">
<polygon fill="none" stroke="black" points="498.5,-86.5 498.5,-105.5 597.5,-105.5 597.5,-86.5 498.5,-86.5"/>
<text text-anchor="middle" x="548" y="-93.5" font-family="Helvetica,sans-Serif" font-size="10.00">stxxl::onoff_switch</text>
</a>
</g>
</g>
<!-- Node3&#45;&gt;Node7 -->
<g id="edge8" class="edge"><title>Node3&#45;&gt;Node7</title>
<path fill="none" stroke="#8b1a1a" d="M77.3629,-155.437C91.2907,-145.781 110.136,-133.616 128,-125 172.435,-103.568 184.338,-97.1104 233,-89 325.915,-73.5142 436.414,-82.1157 498.456,-89.3477"/>
<polygon fill="#8b1a1a" stroke="#8b1a1a" points="75.1293,-152.729 68.9802,-161.357 79.1676,-158.447 75.1293,-152.729"/>
</g>
<!-- Node8 -->
<g id="node8" class="node"><title>Node8</title>
<g id="a_node8"><a xlink:href="classstxxl_1_1mutex.html" target="_top" xlink:title="stxxl::mutex">
<polygon fill="none" stroke="black" points="258.5,-136.5 258.5,-155.5 329.5,-155.5 329.5,-136.5 258.5,-136.5"/>
<text text-anchor="middle" x="294" y="-143.5" font-family="Helvetica,sans-Serif" font-size="10.00">stxxl::mutex</text>
</a>
</g>
</g>
<!-- Node3&#45;&gt;Node8 -->
<g id="edge10" class="edge"><title>Node3&#45;&gt;Node8</title>
<path fill="none" stroke="#8b1a1a" d="M114.203,-164.86C159.366,-160.096 220.459,-153.652 258.267,-149.664"/>
<polygon fill="#8b1a1a" stroke="#8b1a1a" points="113.824,-161.381 104.246,-165.911 114.558,-168.342 113.824,-161.381"/>
</g>
<!-- Node9 -->
<g id="node9" class="node"><title>Node9</title>
<g id="a_node9"><a xlink:href="classstxxl_1_1condition__variable.html" target="_top" xlink:title="stxxl::condition_variable">
<polygon fill="none" stroke="black" points="233,-98.5 233,-117.5 355,-117.5 355,-98.5 233,-98.5"/>
<text text-anchor="middle" x="294" y="-105.5" font-family="Helvetica,sans-Serif" font-size="10.00">stxxl::condition_variable</text>
</a>
</g>
</g>
<!-- Node3&#45;&gt;Node9 -->
<g id="edge12" class="edge"><title>Node3&#45;&gt;Node9</title>
<path fill="none" stroke="#8b1a1a" d="M99.8695,-158.694C109.15,-156.124 118.892,-153.452 128,-151 171.735,-139.228 222.13,-126.168 255.602,-117.564"/>
<polygon fill="#8b1a1a" stroke="#8b1a1a" points="98.7295,-155.378 90.0312,-161.426 100.603,-162.122 98.7295,-155.378"/>
</g>
<!-- Node14 -->
<g id="node14" class="node"><title>Node14</title>
<g id="a_node14"><a xlink:href="classstxxl_1_1loser__tree.html" target="_top" xlink:title="stxxl::loser_tree\&lt;\l RunCursorType, RunCursorCmp\lType \&gt;">
<polygon fill="none" stroke="black" points="714,-276.5 714,-317.5 877,-317.5 877,-276.5 714,-276.5"/>
<text text-anchor="start" x="722" y="-305.5" font-family="Helvetica,sans-Serif" font-size="10.00">stxxl::loser_tree&lt;</text>
<text text-anchor="start" x="722" y="-294.5" font-family="Helvetica,sans-Serif" font-size="10.00"> RunCursorType, RunCursorCmp</text>
<text text-anchor="middle" x="795.5" y="-283.5" font-family="Helvetica,sans-Serif" font-size="10.00">Type &gt;</text>
</a>
</g>
</g>
<!-- Node3&#45;&gt;Node14 -->
<g id="edge19" class="edge"><title>Node3&#45;&gt;Node14</title>
<path fill="none" stroke="#8b1a1a" d="M76.4067,-186.79C107.943,-210.16 171.341,-253.116 233,-271 398.423,-318.98 602.65,-313.159 713.541,-304.917"/>
<polygon fill="#8b1a1a" stroke="#8b1a1a" points="78.48,-183.97 68.3847,-180.755 74.2717,-189.564 78.48,-183.97"/>
</g>
<!-- Node4&#45;&gt;Node2 -->
<g id="edge3" class="edge"><title>Node4&#45;&gt;Node2</title>
<path fill="none" stroke="#9a32cd" stroke-dasharray="5,2" d="M843.587,-171.984C875.631,-185.24 918.807,-203.762 956,-222 971.9,-229.797 989.096,-239.112 1003.73,-247.315"/>
<polygon fill="#9a32cd" stroke="#9a32cd" points="844.598,-168.616 834.019,-168.046 841.934,-175.089 844.598,-168.616"/>
<text text-anchor="middle" x="925.5" y="-225" font-family="Helvetica,sans-Serif" font-size="10.00"> m_prefetcher</text>
</g>
<!-- Node5 -->
<g id="node5" class="node"><title>Node5</title>
<g id="a_node5"><a xlink:href="structstxxl_1_1choose__int__types.html" target="_top" xlink:title="stxxl::choose_int_types\l\&lt; my_pointer_size \&gt;">
<polygon fill="none" stroke="black" points="488,-232 488,-262 608,-262 608,-232 488,-232"/>
<text text-anchor="start" x="496" y="-250" font-family="Helvetica,sans-Serif" font-size="10.00">stxxl::choose_int_types</text>
<text text-anchor="middle" x="548" y="-239" font-family="Helvetica,sans-Serif" font-size="10.00">&lt; my_pointer_size &gt;</text>
</a>
</g>
</g>
<!-- Node5&#45;&gt;Node2 -->
<g id="edge17" class="edge"><title>Node5&#45;&gt;Node2</title>
<path fill="none" stroke="#9a32cd" stroke-dasharray="5,2" d="M618.626,-247.977C685.047,-249.13 787.893,-251.49 877,-256 908.925,-257.616 944.328,-260.143 973.918,-262.463"/>
<polygon fill="#9a32cd" stroke="#9a32cd" points="618.344,-244.472 608.286,-247.802 618.226,-251.471 618.344,-244.472"/>
<text text-anchor="middle" x="795.5" y="-259" font-family="Helvetica,sans-Serif" font-size="10.00"> m_memory_to_use</text>
</g>
<!-- Node5&#45;&gt;Node4 -->
<g id="edge5" class="edge"><title>Node5&#45;&gt;Node4</title>
<path fill="none" stroke="#9a32cd" stroke-dasharray="5,2" d="M580.266,-226.421C594.927,-217.416 612.901,-207.27 630,-200 649.202,-191.836 696.876,-178.476 735.986,-168.083"/>
<polygon fill="#9a32cd" stroke="#9a32cd" points="578.222,-223.571 571.603,-231.844 581.936,-229.504 578.222,-223.571"/>
<text text-anchor="middle" x="663" y="-225" font-family="Helvetica,sans-Serif" font-size="10.00"> seq_length</text>
<text text-anchor="middle" x="663" y="-214" font-family="Helvetica,sans-Serif" font-size="10.00">nextconsume</text>
<text text-anchor="middle" x="663" y="-203" font-family="Helvetica,sans-Serif" font-size="10.00">nextread</text>
</g>
<!-- Node5&#45;&gt;Node14 -->
<g id="edge20" class="edge"><title>Node5&#45;&gt;Node14</title>
<path fill="none" stroke="#9a32cd" stroke-dasharray="5,2" d="M617.984,-261.05C647.714,-267.105 682.689,-274.228 713.63,-280.53"/>
<polygon fill="#9a32cd" stroke="#9a32cd" points="618.613,-257.606 608.116,-259.04 617.216,-264.465 618.613,-257.606"/>
<text text-anchor="middle" x="663" y="-279" font-family="Helvetica,sans-Serif" font-size="10.00"> k</text>
</g>
<!-- Node6 -->
<g id="node6" class="node"><title>Node6</title>
<g id="a_node6"><a xlink:href="structstxxl_1_1choose__int__types.html" target="_top" xlink:title="stxxl::choose_int_types\l\&lt; PtrSize \&gt;">
<polygon fill="none" stroke="black" points="234,-232 234,-262 354,-262 354,-232 234,-232"/>
<text text-anchor="start" x="242" y="-250" font-family="Helvetica,sans-Serif" font-size="10.00">stxxl::choose_int_types</text>
<text text-anchor="middle" x="294" y="-239" font-family="Helvetica,sans-Serif" font-size="10.00">&lt; PtrSize &gt;</text>
</a>
</g>
</g>
<!-- Node6&#45;&gt;Node5 -->
<g id="edge6" class="edge"><title>Node6&#45;&gt;Node5</title>
<path fill="none" stroke="orange" stroke-dasharray="5,2" d="M364.245,-247C403.015,-247 450.847,-247 487.851,-247"/>
<polygon fill="orange" stroke="orange" points="364.083,-243.5 354.083,-247 364.083,-250.5 364.083,-243.5"/>
<text text-anchor="middle" x="419.5" y="-250" font-family="Helvetica,sans-Serif" font-size="10.00"> &lt; my_pointer_size &gt;</text>
</g>
<!-- Node7&#45;&gt;Node4 -->
<g id="edge7" class="edge"><title>Node7&#45;&gt;Node4</title>
<path fill="none" stroke="#9a32cd" stroke-dasharray="5,2" d="M607.665,-105.813C634.695,-110.682 667.115,-117.015 696,-124 712.634,-128.023 730.644,-133.106 746.659,-137.89"/>
<polygon fill="#9a32cd" stroke="#9a32cd" points="608.046,-102.326 597.588,-104.02 606.82,-109.217 608.046,-102.326"/>
<text text-anchor="middle" x="663" y="-127" font-family="Helvetica,sans-Serif" font-size="10.00"> completed</text>
</g>
<!-- Node8&#45;&gt;Node7 -->
<g id="edge9" class="edge"><title>Node8&#45;&gt;Node7</title>
<path fill="none" stroke="#9a32cd" stroke-dasharray="5,2" d="M339.924,-140.88C374.595,-136.518 423.636,-129.45 466,-120 471.01,-118.882 494.765,-111.809 515.265,-105.629"/>
<polygon fill="#9a32cd" stroke="#9a32cd" points="339.145,-137.45 329.648,-142.147 340.001,-144.397 339.145,-137.45"/>
<text text-anchor="middle" x="419.5" y="-140" font-family="Helvetica,sans-Serif" font-size="10.00"> m_mutex</text>
</g>
<!-- Node9&#45;&gt;Node7 -->
<g id="edge11" class="edge"><title>Node9&#45;&gt;Node7</title>
<path fill="none" stroke="#9a32cd" stroke-dasharray="5,2" d="M365.297,-104.653C407.69,-102.634 460.616,-100.114 498.393,-98.3146"/>
<polygon fill="#9a32cd" stroke="#9a32cd" points="364.862,-101.169 355.04,-105.141 365.195,-108.161 364.862,-101.169"/>
<text text-anchor="middle" x="419.5" y="-108" font-family="Helvetica,sans-Serif" font-size="10.00"> m_cond</text>
</g>
<!-- Node10 -->
<g id="node10" class="node"><title>Node10</title>
<g id="a_node10"><a xlink:href="classstxxl_1_1counting__ptr.html" target="_top" xlink:title="High&#45;performance smart pointer used as a wrapping reference counting pointer. ">
<polygon fill="none" stroke="black" points="499.5,-125 499.5,-155 596.5,-155 596.5,-125 499.5,-125"/>
<text text-anchor="start" x="507.5" y="-143" font-family="Helvetica,sans-Serif" font-size="10.00">stxxl::counting_ptr</text>
<text text-anchor="middle" x="548" y="-132" font-family="Helvetica,sans-Serif" font-size="10.00">&lt; Type &gt;</text>
</a>
</g>
</g>
<!-- Node10&#45;&gt;Node4 -->
<g id="edge13" class="edge"><title>Node10&#45;&gt;Node4</title>
<path fill="none" stroke="#9a32cd" stroke-dasharray="5,2" d="M606.81,-138.868C633.916,-138.728 666.641,-139.118 696,-141 703.307,-141.468 710.902,-142.112 718.489,-142.86"/>
<polygon fill="#9a32cd" stroke="#9a32cd" points="606.688,-135.369 596.715,-138.946 606.742,-142.369 606.688,-135.369"/>
<text text-anchor="middle" x="663" y="-144" font-family="Helvetica,sans-Serif" font-size="10.00"> read_reqs</text>
</g>
<!-- Node11 -->
<g id="node11" class="node"><title>Node11</title>
<g id="a_node11"><a xlink:href="classstxxl_1_1completion__handler.html" target="_top" xlink:title="Completion handler class (Loki&#45;style). ">
<polygon fill="none" stroke="black" points="484,-36.5 484,-55.5 612,-55.5 612,-36.5 484,-36.5"/>
<text text-anchor="middle" x="548" y="-43.5" font-family="Helvetica,sans-Serif" font-size="10.00">stxxl::completion_handler</text>
</a>
</g>
</g>
<!-- Node11&#45;&gt;Node4 -->
<g id="edge14" class="edge"><title>Node11&#45;&gt;Node4</title>
<path fill="none" stroke="#9a32cd" stroke-dasharray="5,2" d="M592.955,-58.4676C622.631,-67.4831 662.371,-80.7301 696,-96 722.805,-108.171 751.775,-125.484 771.31,-137.83"/>
<polygon fill="#9a32cd" stroke="#9a32cd" points="593.884,-55.0922 583.3,-55.5756 591.875,-61.7979 593.884,-55.0922"/>
<text text-anchor="middle" x="663" y="-99" font-family="Helvetica,sans-Serif" font-size="10.00"> do_after_fetch</text>
</g>
<!-- Node12 -->
<g id="node12" class="node"><title>Node12</title>
<g id="a_node12"><a xlink:href="structstxxl_1_1compat__unique__ptr.html" target="_top" xlink:title="stxxl::compat_unique\l_ptr\&lt; stxxl::completion\l_handler_impl \&gt;">
<polygon fill="none" stroke="black" points="236,-0.5 236,-41.5 352,-41.5 352,-0.5 236,-0.5"/>
<text text-anchor="start" x="244" y="-29.5" font-family="Helvetica,sans-Serif" font-size="10.00">stxxl::compat_unique</text>
<text text-anchor="start" x="244" y="-18.5" font-family="Helvetica,sans-Serif" font-size="10.00">_ptr&lt; stxxl::completion</text>
<text text-anchor="middle" x="294" y="-7.5" font-family="Helvetica,sans-Serif" font-size="10.00">_handler_impl &gt;</text>
</a>
</g>
</g>
<!-- Node12&#45;&gt;Node11 -->
<g id="edge15" class="edge"><title>Node12&#45;&gt;Node11</title>
<path fill="none" stroke="#9a32cd" stroke-dasharray="5,2" d="M362.56,-27.7024C400.248,-31.4413 446.898,-36.0693 483.852,-39.7353"/>
<polygon fill="#9a32cd" stroke="#9a32cd" points="362.479,-24.1773 352.183,-26.6729 361.788,-31.1431 362.479,-24.1773"/>
<text text-anchor="middle" x="419.5" y="-41" font-family="Helvetica,sans-Serif" font-size="10.00"> m_ptr</text>
</g>
<!-- Node13 -->
<g id="node13" class="node"><title>Node13</title>
<g id="a_node13"><a xlink:href="structstxxl_1_1compat__unique__ptr.html" target="_top" xlink:title="stxxl::compat_unique\l_ptr\&lt; Type \&gt;">
<polygon fill="none" stroke="black" points="0,-6 0,-36 110,-36 110,-6 0,-6"/>
<text text-anchor="start" x="8" y="-24" font-family="Helvetica,sans-Serif" font-size="10.00">stxxl::compat_unique</text>
<text text-anchor="middle" x="55" y="-13" font-family="Helvetica,sans-Serif" font-size="10.00">_ptr&lt; Type &gt;</text>
</a>
</g>
</g>
<!-- Node13&#45;&gt;Node12 -->
<g id="edge16" class="edge"><title>Node13&#45;&gt;Node12</title>
<path fill="none" stroke="orange" stroke-dasharray="5,2" d="M120.485,-21C156.532,-21 201.062,-21 235.851,-21"/>
<polygon fill="orange" stroke="orange" points="120.076,-17.5001 110.076,-21 120.075,-24.5001 120.076,-17.5001"/>
<text text-anchor="start" x="128" y="-35" font-family="Helvetica,sans-Serif" font-size="10.00"> &lt; stxxl::completion</text>
<text text-anchor="middle" x="171.5" y="-24" font-family="Helvetica,sans-Serif" font-size="10.00">_handler_impl &gt;</text>
</g>
<!-- Node14&#45;&gt;Node2 -->
<g id="edge18" class="edge"><title>Node14&#45;&gt;Node2</title>
<path fill="none" stroke="#9a32cd" stroke-dasharray="5,2" d="M887.127,-286.184C915.86,-282.755 947.06,-279.032 973.7,-275.853"/>
<polygon fill="#9a32cd" stroke="#9a32cd" points="886.593,-282.723 877.078,-287.384 887.422,-289.674 886.593,-282.723"/>
<text text-anchor="middle" x="925.5" y="-288" font-family="Helvetica,sans-Serif" font-size="10.00"> m_losers</text>
</g>
</g>
</svg>
