<?xml version="1.0" encoding="UTF-8" standalone="no"?>
<!DOCTYPE svg PUBLIC "-//W3C//DTD SVG 1.1//EN"
 "http://www.w3.org/Graphics/SVG/1.1/DTD/svg11.dtd">
<!-- Generated by graphviz version 2.26.3 (20100126.1600)
 -->
<!-- Title: stxxl::stable_ksort_local::bid_sequence&lt; BIDType, AllocStrategy &gt; Pages: 1 -->
<svg width="193pt" height="288pt"
 viewBox="0.00 0.00 193.00 288.00" xmlns="http://www.w3.org/2000/svg" xmlns:xlink="http://www.w3.org/1999/xlink">
<g id="graph1" class="graph" transform="scale(1 1) rotate(0) translate(4 284)">
<title>stxxl::stable_ksort_local::bid_sequence&lt; BIDType, AllocStrategy &gt;</title>
<!-- Node1 -->
<g id="node1" class="node"><title>Node1</title>
<polygon fill="#bfbfbf" stroke="black" points="0,-0.5 0,-47.5 138,-47.5 138,-0.5 0,-0.5"/>
<text text-anchor="start" x="8" y="-34.5" font-family="Helvetica,sans-Serif" font-size="10.00">stxxl::stable_ksort</text>
<text text-anchor="start" x="8" y="-21.5" font-family="Helvetica,sans-Serif" font-size="10.00">_local::bid_sequence</text>
<text text-anchor="middle" x="69" y="-8.5" font-family="Helvetica,sans-Serif" font-size="10.00">&lt; BIDType, AllocStrategy &gt;</text>
</g>
<!-- Node2 -->
<g id="node2" class="node"><title>Node2</title>
<a xlink:href="classstxxl_1_1simple__vector.html" target="_top" xlink:title="stxxl::simple_vector\l\&lt; bid_type \&gt;">
<polygon fill="none" stroke="black" points="17,-99 17,-133 121,-133 121,-99 17,-99"/>
<text text-anchor="start" x="25" y="-120" font-family="Helvetica,sans-Serif" font-size="10.00">stxxl::simple_vector</text>
<text text-anchor="middle" x="69" y="-107" font-family="Helvetica,sans-Serif" font-size="10.00">&lt; bid_type &gt;</text>
</a>
</g>
<!-- Node2&#45;&gt;Node1 -->
<g id="edge2" class="edge"><title>Node2&#45;&gt;Node1</title>
<path fill="none" stroke="#9a32cd" stroke-dasharray="5,2" d="M69,-88.4891C69,-75.5472 69,-60.263 69,-47.8232"/>
<polygon fill="#9a32cd" stroke="#9a32cd" points="65.5001,-88.6955 69,-98.6955 72.5001,-88.6955 65.5001,-88.6955"/>
<text text-anchor="middle" x="80" y="-70.5" font-family="Helvetica,sans-Serif" font-size="10.00"> bids</text>
</g>
<!-- Node3 -->
<g id="node4" class="node"><title>Node3</title>
<a xlink:href="classstxxl_1_1noncopyable.html" target="_top" xlink:title="stxxl::noncopyable">
<polygon fill="none" stroke="black" points="30,-258.5 30,-279.5 128,-279.5 128,-258.5 30,-258.5"/>
<text text-anchor="middle" x="79" y="-266.5" font-family="Helvetica,sans-Serif" font-size="10.00">stxxl::noncopyable</text>
</a>
</g>
<!-- Node3&#45;&gt;Node2 -->
<g id="edge4" class="edge"><title>Node3&#45;&gt;Node2</title>
<path fill="none" stroke="#8b1a1a" d="M75.4901,-248.144C74.1679,-239.466 72.7934,-229.271 72,-220 69.3972,-189.585 68.9235,-154.003 68.9021,-133.332"/>
<polygon fill="#8b1a1a" stroke="#8b1a1a" points="72.0537,-248.82 77.0891,-258.142 78.9658,-247.715 72.0537,-248.82"/>
</g>
<!-- Node4 -->
<g id="node6" class="node"><title>Node4</title>
<a xlink:href="classstxxl_1_1simple__vector.html" target="_top" xlink:title="Simpler non&#45;growing vector without initialization. ">
<polygon fill="none" stroke="black" points="81,-185 81,-219 185,-219 185,-185 81,-185"/>
<text text-anchor="start" x="89" y="-206" font-family="Helvetica,sans-Serif" font-size="10.00">stxxl::simple_vector</text>
<text text-anchor="middle" x="133" y="-193" font-family="Helvetica,sans-Serif" font-size="10.00">&lt; ValueType &gt;</text>
</a>
</g>
<!-- Node3&#45;&gt;Node4 -->
<g id="edge8" class="edge"><title>Node3&#45;&gt;Node4</title>
<path fill="none" stroke="#8b1a1a" d="M94.0915,-250.275C101.994,-240.471 111.598,-228.554 119.287,-219.014"/>
<polygon fill="#8b1a1a" stroke="#8b1a1a" points="91.2262,-248.253 87.676,-258.235 96.6764,-252.646 91.2262,-248.253"/>
</g>
<!-- Node4&#45;&gt;Node2 -->
<g id="edge6" class="edge"><title>Node4&#45;&gt;Node2</title>
<path fill="none" stroke="orange" stroke-dasharray="5,2" d="M113.903,-176.339C103.5,-162.36 90.9116,-145.444 81.7137,-133.084"/>
<polygon fill="orange" stroke="orange" points="111.271,-178.664 120.049,-184.597 116.886,-174.485 111.271,-178.664"/>
<text text-anchor="middle" x="133" y="-156.5" font-family="Helvetica,sans-Serif" font-size="10.00"> &lt; bid_type &gt;</text>
</g>
</g>
</svg>
