<?xml version="1.0" encoding="UTF-8" standalone="no"?>
<!DOCTYPE svg PUBLIC "-//W3C//DTD SVG 1.1//EN"
 "http://www.w3.org/Graphics/SVG/1.1/DTD/svg11.dtd">
<!-- Generated by graphviz version 2.38.0 (20140413.2041)
 -->
<!-- Title: stxxl::stream::make_tuple&lt; Input1, Input2, Input3, Stopper, Stopper, Stopper &gt; Pages: 1 -->
<svg width="603pt" height="127pt"
 viewBox="0.00 0.00 603.00 126.50" xmlns="http://www.w3.org/2000/svg" xmlns:xlink="http://www.w3.org/1999/xlink">
<g id="graph0" class="graph" transform="scale(1 1) rotate(0) translate(4 122.5)">
<title>stxxl::stream::make_tuple&lt; Input1, Input2, Input3, Stopper, Stopper, Stopper &gt;</title>
<!-- Node1 -->
<g id="node1" class="node"><title>Node1</title>
<polygon fill="#bfbfbf" stroke="black" points="466,-28.5 466,-80.5 595,-80.5 595,-28.5 466,-28.5"/>
<text text-anchor="start" x="474" y="-68.5" font-family="Helvetica,sans-Serif" font-size="10.00">stxxl::stream::make</text>
<text text-anchor="start" x="474" y="-57.5" font-family="Helvetica,sans-Serif" font-size="10.00">_tuple&lt; Input1, Input2,</text>
<text text-anchor="start" x="474" y="-46.5" font-family="Helvetica,sans-Serif" font-size="10.00"> Input3, Stopper, Stopper,</text>
<text text-anchor="middle" x="530.5" y="-35.5" font-family="Helvetica,sans-Serif" font-size="10.00"> Stopper &gt;</text>
</g>
<!-- Node2 -->
<g id="node2" class="node"><title>Node2</title>
<g id="a_node2"><a xlink:href="structstxxl_1_1tuple.html" target="_top" xlink:title="stxxl::tuple\&lt; typename\l Input1::value_type, typename\l Input2::value_type, typename\l Input3::value_type \&gt;">
<polygon fill="none" stroke="black" points="247,-28.5 247,-80.5 396,-80.5 396,-28.5 247,-28.5"/>
<text text-anchor="start" x="255" y="-68.5" font-family="Helvetica,sans-Serif" font-size="10.00">stxxl::tuple&lt; typename</text>
<text text-anchor="start" x="255" y="-57.5" font-family="Helvetica,sans-Serif" font-size="10.00"> Input1::value_type, typename</text>
<text text-anchor="start" x="255" y="-46.5" font-family="Helvetica,sans-Serif" font-size="10.00"> Input2::value_type, typename</text>
<text text-anchor="middle" x="321.5" y="-35.5" font-family="Helvetica,sans-Serif" font-size="10.00"> Input3::value_type &gt;</text>
</a>
</g>
</g>
<!-- Node2&#45;&gt;Node1 -->
<g id="edge1" class="edge"><title>Node2&#45;&gt;Node1</title>
<path fill="none" stroke="#9a32cd" stroke-dasharray="5,2" d="M406.33,-54.5C426.167,-54.5 447.006,-54.5 465.784,-54.5"/>
<polygon fill="#9a32cd" stroke="#9a32cd" points="406.063,-51.0001 396.063,-54.5 406.063,-58.0001 406.063,-51.0001"/>
<text text-anchor="middle" x="431" y="-57.5" font-family="Helvetica,sans-Serif" font-size="10.00"> current</text>
</g>
<!-- Node3 -->
<g id="node3" class="node"><title>Node3</title>
<g id="a_node3"><a xlink:href="structstxxl_1_1Plug.html" target="_top" xlink:title="stxxl::Plug">
<polygon fill="none" stroke="black" points="21,-84 21,-103 84,-103 84,-84 21,-84"/>
<text text-anchor="middle" x="52.5" y="-91" font-family="Helvetica,sans-Serif" font-size="10.00">stxxl::Plug</text>
</a>
</g>
</g>
<!-- Node3&#45;&gt;Node2 -->
<g id="edge2" class="edge"><title>Node3&#45;&gt;Node2</title>
<path fill="none" stroke="#9a32cd" stroke-dasharray="5,2" d="M94.0269,-89.1066C129.659,-85.0802 182.88,-78.6687 229,-71.5 234.748,-70.6066 240.688,-69.6283 246.654,-68.6067"/>
<polygon fill="#9a32cd" stroke="#9a32cd" points="93.5614,-85.6368 84.0129,-90.2277 94.3403,-92.5933 93.5614,-85.6368"/>
<text text-anchor="middle" x="176" y="-110.5" font-family="Helvetica,sans-Serif" font-size="10.00"> fifth</text>
<text text-anchor="middle" x="176" y="-99.5" font-family="Helvetica,sans-Serif" font-size="10.00">fourth</text>
<text text-anchor="middle" x="176" y="-88.5" font-family="Helvetica,sans-Serif" font-size="10.00">sixth</text>
</g>
<!-- Node4 -->
<g id="node4" class="node"><title>Node4</title>
<g id="a_node4"><a xlink:href="structstxxl_1_1tuple.html" target="_top" xlink:title="k&#45;Tuple data type ">
<polygon fill="none" stroke="black" points="0,-0.5 0,-30.5 105,-30.5 105,-0.5 0,-0.5"/>
<text text-anchor="start" x="8" y="-18.5" font-family="Helvetica,sans-Serif" font-size="10.00">stxxl::tuple&lt; T1, T2,</text>
<text text-anchor="middle" x="52.5" y="-7.5" font-family="Helvetica,sans-Serif" font-size="10.00"> T3, T4, T5, T6 &gt;</text>
</a>
</g>
</g>
<!-- Node4&#45;&gt;Node2 -->
<g id="edge3" class="edge"><title>Node4&#45;&gt;Node2</title>
<path fill="none" stroke="orange" stroke-dasharray="5,2" d="M115.42,-7.53347C149.339,-4.88865 191.903,-4.39261 229,-12.5 244.198,-15.8214 259.887,-21.9097 273.89,-28.4396"/>
<polygon fill="orange" stroke="orange" points="114.848,-4.06966 105.186,-8.41612 115.45,-11.0438 114.848,-4.06966"/>
<text text-anchor="start" x="123" y="-59.5" font-family="Helvetica,sans-Serif" font-size="10.00"> &lt; typename Input1::</text>
<text text-anchor="start" x="123" y="-48.5" font-family="Helvetica,sans-Serif" font-size="10.00">value_type, typename</text>
<text text-anchor="start" x="123" y="-37.5" font-family="Helvetica,sans-Serif" font-size="10.00"> Input2::value_type,</text>
<text text-anchor="start" x="123" y="-26.5" font-family="Helvetica,sans-Serif" font-size="10.00"> typename Input3::value</text>
<text text-anchor="middle" x="176" y="-15.5" font-family="Helvetica,sans-Serif" font-size="10.00">_type &gt;</text>
</g>
</g>
</svg>
