<?xml version="1.0" encoding="UTF-8" standalone="no"?>
<!DOCTYPE svg PUBLIC "-//W3C//DTD SVG 1.1//EN"
 "http://www.w3.org/Graphics/SVG/1.1/DTD/svg11.dtd">
<!-- Generated by graphviz version 2.26.3 (20100126.1600)
 -->
<!-- Title: stxxl::hash_map::iterator_map&lt; HashMap &gt; Pages: 1 -->
<svg width="594pt" height="108pt"
 viewBox="0.00 0.00 594.00 108.00" xmlns="http://www.w3.org/2000/svg" xmlns:xlink="http://www.w3.org/1999/xlink">
<g id="graph1" class="graph" transform="scale(1 1) rotate(0) translate(4 104)">
<title>stxxl::hash_map::iterator_map&lt; HashMap &gt;</title>
<!-- Node1 -->
<g id="node1" class="node"><title>Node1</title>
<polygon fill="#bfbfbf" stroke="black" points="460.5,-50 460.5,-84 585.5,-84 585.5,-50 460.5,-50"/>
<text text-anchor="start" x="468.5" y="-71" font-family="Helvetica,sans-Serif" font-size="10.00">stxxl::hash_map::iterator</text>
<text text-anchor="middle" x="523" y="-58" font-family="Helvetica,sans-Serif" font-size="10.00">_map&lt; HashMap &gt;</text>
</g>
<!-- Node2 -->
<g id="node2" class="node"><title>Node2</title>
<a xlink:href="classstxxl_1_1noncopyable.html" target="_top" xlink:title="stxxl::noncopyable">
<polygon fill="none" stroke="black" points="286,-78.5 286,-99.5 384,-99.5 384,-78.5 286,-78.5"/>
<text text-anchor="middle" x="335" y="-86.5" font-family="Helvetica,sans-Serif" font-size="10.00">stxxl::noncopyable</text>
</a>
</g>
<!-- Node2&#45;&gt;Node1 -->
<g id="edge2" class="edge"><title>Node2&#45;&gt;Node1</title>
<path fill="none" stroke="#8b1a1a" d="M394.476,-82.04C415.496,-79.5803 439.19,-76.8076 460.456,-74.319"/>
<polygon fill="#8b1a1a" stroke="#8b1a1a" points="393.92,-78.5811 384.395,-83.2198 394.734,-85.5337 393.92,-78.5811"/>
</g>
<!-- Node3 -->
<g id="node4" class="node"><title>Node3</title>
<a xlink:href="structstxxl_1_1compat__hash__multimap.html" target="_top" xlink:title="stxxl::compat_hash\l_multimap\&lt; internal\l_size_type, iterator\l_base *, hasher \&gt;">
<polygon fill="none" stroke="black" points="284,-0 284,-60 386,-60 386,-0 284,-0"/>
<text text-anchor="start" x="292" y="-47" font-family="Helvetica,sans-Serif" font-size="10.00">stxxl::compat_hash</text>
<text text-anchor="start" x="292" y="-34" font-family="Helvetica,sans-Serif" font-size="10.00">_multimap&lt; internal</text>
<text text-anchor="start" x="292" y="-21" font-family="Helvetica,sans-Serif" font-size="10.00">_size_type, iterator</text>
<text text-anchor="middle" x="335" y="-8" font-family="Helvetica,sans-Serif" font-size="10.00">_base *, hasher &gt;</text>
</a>
</g>
<!-- Node3&#45;&gt;Node1 -->
<g id="edge4" class="edge"><title>Node3&#45;&gt;Node1</title>
<path fill="none" stroke="#9a32cd" stroke-dasharray="5,2" d="M396.236,-42.0517C416.76,-46.091 439.666,-50.5992 460.301,-54.6603"/>
<polygon fill="#9a32cd" stroke="#9a32cd" points="396.86,-38.6074 386.372,-40.1104 395.508,-45.4757 396.86,-38.6074"/>
<text text-anchor="middle" x="423" y="-54" font-family="Helvetica,sans-Serif" font-size="10.00"> it_map_</text>
</g>
<!-- Node4 -->
<g id="node6" class="node"><title>Node4</title>
<a xlink:href="structstxxl_1_1compat__hash__multimap.html" target="_top" xlink:title="stxxl::compat_hash\l_multimap\&lt; KeyType,\l MappedType, HashType \&gt;">
<polygon fill="none" stroke="black" points="0,-6.5 0,-53.5 136,-53.5 136,-6.5 0,-6.5"/>
<text text-anchor="start" x="8" y="-40.5" font-family="Helvetica,sans-Serif" font-size="10.00">stxxl::compat_hash</text>
<text text-anchor="start" x="8" y="-27.5" font-family="Helvetica,sans-Serif" font-size="10.00">_multimap&lt; KeyType,</text>
<text text-anchor="middle" x="68" y="-14.5" font-family="Helvetica,sans-Serif" font-size="10.00"> MappedType, HashType &gt;</text>
</a>
</g>
<!-- Node4&#45;&gt;Node3 -->
<g id="edge6" class="edge"><title>Node4&#45;&gt;Node3</title>
<path fill="none" stroke="orange" stroke-dasharray="5,2" d="M146.252,-30C190.663,-30 244.979,-30 283.922,-30"/>
<polygon fill="orange" stroke="orange" points="146.066,-26.5001 136.066,-30 146.066,-33.5001 146.066,-26.5001"/>
<text text-anchor="start" x="154.5" y="-47" font-family="Helvetica,sans-Serif" font-size="10.00"> &lt; internal_size_type,</text>
<text text-anchor="middle" x="210" y="-34" font-family="Helvetica,sans-Serif" font-size="10.00"> iterator_base *, hasher &gt;</text>
</g>
</g>
</svg>
