<?xml version="1.0" encoding="UTF-8" standalone="no"?>
<!DOCTYPE svg PUBLIC "-//W3C//DTD SVG 1.1//EN"
 "http://www.w3.org/Graphics/SVG/1.1/DTD/svg11.dtd">
<!-- Generated by graphviz version 2.38.0 (20140413.2041)
 -->
<!-- Title: stxxl::block_scheduler_algorithm_offline_lfd&lt; SwappableBlockType &gt; Pages: 1 -->
<svg width="2043pt" height="468pt"
 viewBox="0.00 0.00 2043.00 468.00" xmlns="http://www.w3.org/2000/svg" xmlns:xlink="http://www.w3.org/1999/xlink">
<g id="graph0" class="graph" transform="scale(1 1) rotate(0) translate(4 464)">
<title>stxxl::block_scheduler_algorithm_offline_lfd&lt; SwappableBlockType &gt;</title>
<!-- Node1 -->
<g id="node1" class="node"><title>Node1</title>
<polygon fill="#bfbfbf" stroke="black" points="1906,-49.5 1906,-90.5 2035,-90.5 2035,-49.5 1906,-49.5"/>
<text text-anchor="start" x="1914" y="-78.5" font-family="Helvetica,sans-Serif" font-size="10.00">stxxl::block_scheduler</text>
<text text-anchor="start" x="1914" y="-67.5" font-family="Helvetica,sans-Serif" font-size="10.00">_algorithm_offline_lfd</text>
<text text-anchor="middle" x="1970.5" y="-56.5" font-family="Helvetica,sans-Serif" font-size="10.00">&lt; SwappableBlockType &gt;</text>
</g>
<!-- Node2 -->
<g id="node2" class="node"><title>Node2</title>
<g id="a_node2"><a xlink:href="classstxxl_1_1block__scheduler__algorithm.html" target="_top" xlink:title="Interface of a block scheduling algorithm. ">
<polygon fill="none" stroke="black" points="1620,-83 1620,-113 1794,-113 1794,-83 1620,-83"/>
<text text-anchor="start" x="1628" y="-101" font-family="Helvetica,sans-Serif" font-size="10.00">stxxl::block_scheduler</text>
<text text-anchor="middle" x="1707" y="-90" font-family="Helvetica,sans-Serif" font-size="10.00">_algorithm&lt; SwappableBlockType &gt;</text>
</a>
</g>
</g>
<!-- Node2&#45;&gt;Node1 -->
<g id="edge1" class="edge"><title>Node2&#45;&gt;Node1</title>
<path fill="none" stroke="midnightblue" d="M1804.68,-87.6475C1838.36,-84.0422 1875.27,-80.0899 1905.61,-76.8412"/>
<polygon fill="midnightblue" stroke="midnightblue" points="1803.92,-84.2093 1794.35,-88.7542 1804.67,-91.1695 1803.92,-84.2093"/>
</g>
<!-- Node3 -->
<g id="node3" class="node"><title>Node3</title>
<g id="a_node3"><a xlink:href="classstxxl_1_1noncopyable.html" target="_top" xlink:title="stxxl::noncopyable">
<polygon fill="none" stroke="black" points="11,-205.5 11,-224.5 109,-224.5 109,-205.5 11,-205.5"/>
<text text-anchor="middle" x="60" y="-212.5" font-family="Helvetica,sans-Serif" font-size="10.00">stxxl::noncopyable</text>
</a>
</g>
</g>
<!-- Node3&#45;&gt;Node2 -->
<g id="edge2" class="edge"><title>Node3&#45;&gt;Node2</title>
<path fill="none" stroke="#8b1a1a" d="M74.2868,-197.047C88.2464,-179.45 111.787,-153.131 138,-138 210.922,-95.9072 236.802,-89 321,-89 321,-89 321,-89 1381,-89 1462,-89 1554.31,-91.8279 1619.8,-94.3134"/>
<polygon fill="#8b1a1a" stroke="#8b1a1a" points="71.223,-195.289 67.8968,-205.349 76.77,-199.559 71.223,-195.289"/>
</g>
<!-- Node4 -->
<g id="node4" class="node"><title>Node4</title>
<g id="a_node4"><a xlink:href="classstxxl_1_1block__scheduler.html" target="_top" xlink:title="Schedules swapping of blocks and provides blocks for temporary storage. ">
<polygon fill="none" stroke="black" points="1315.5,-159 1315.5,-189 1444.5,-189 1444.5,-159 1315.5,-159"/>
<text text-anchor="start" x="1323.5" y="-177" font-family="Helvetica,sans-Serif" font-size="10.00">stxxl::block_scheduler</text>
<text text-anchor="middle" x="1380" y="-166" font-family="Helvetica,sans-Serif" font-size="10.00">&lt; SwappableBlockType &gt;</text>
</a>
</g>
</g>
<!-- Node3&#45;&gt;Node4 -->
<g id="edge4" class="edge"><title>Node3&#45;&gt;Node4</title>
<path fill="none" stroke="#8b1a1a" d="M85.889,-200.463C131.109,-175.467 230.463,-127 321,-127 321,-127 321,-127 1206,-127 1255.64,-127 1310.58,-145.245 1344.95,-159"/>
<polygon fill="#8b1a1a" stroke="#8b1a1a" points="84.0845,-197.462 77.0839,-205.415 87.5158,-203.564 84.0845,-197.462"/>
</g>
<!-- Node6 -->
<g id="node6" class="node"><title>Node6</title>
<g id="a_node6"><a xlink:href="classstxxl_1_1singleton.html" target="_top" xlink:title="stxxl::singleton\&lt; block\l_manager \&gt;">
<polygon fill="none" stroke="black" points="550,-194 550,-224 665,-224 665,-194 550,-194"/>
<text text-anchor="start" x="558" y="-212" font-family="Helvetica,sans-Serif" font-size="10.00">stxxl::singleton&lt; block</text>
<text text-anchor="middle" x="607.5" y="-201" font-family="Helvetica,sans-Serif" font-size="10.00">_manager &gt;</text>
</a>
</g>
</g>
<!-- Node3&#45;&gt;Node6 -->
<g id="edge7" class="edge"><title>Node3&#45;&gt;Node6</title>
<path fill="none" stroke="#8b1a1a" d="M119.553,-214.356C225.007,-213.196 445.55,-210.77 549.708,-209.625"/>
<polygon fill="#8b1a1a" stroke="#8b1a1a" points="119.37,-210.858 109.409,-214.468 119.447,-217.857 119.37,-210.858"/>
</g>
<!-- Node7 -->
<g id="node7" class="node"><title>Node7</title>
<g id="a_node7"><a xlink:href="classstxxl_1_1singleton.html" target="_top" xlink:title="stxxl::singleton\&lt; INSTANCE,\l destroy_on_exit \&gt;">
<polygon fill="none" stroke="black" points="249,-156 249,-186 395,-186 395,-156 249,-156"/>
<text text-anchor="start" x="257" y="-174" font-family="Helvetica,sans-Serif" font-size="10.00">stxxl::singleton&lt; INSTANCE,</text>
<text text-anchor="middle" x="322" y="-163" font-family="Helvetica,sans-Serif" font-size="10.00"> destroy_on_exit &gt;</text>
</a>
</g>
</g>
<!-- Node3&#45;&gt;Node7 -->
<g id="edge9" class="edge"><title>Node3&#45;&gt;Node7</title>
<path fill="none" stroke="#8b1a1a" d="M119.028,-204.338C125.427,-203.196 131.85,-202.063 138,-201 174.483,-194.693 215.117,-187.999 248.811,-182.538"/>
<polygon fill="#8b1a1a" stroke="#8b1a1a" points="118.258,-200.92 109.035,-206.134 119.496,-207.81 118.258,-200.92"/>
</g>
<!-- Node8 -->
<g id="node8" class="node"><title>Node8</title>
<g id="a_node8"><a xlink:href="classstxxl_1_1file.html" target="_top" xlink:title="Defines interface of file. ">
<polygon fill="none" stroke="black" points="767,-340.5 767,-359.5 823,-359.5 823,-340.5 767,-340.5"/>
<text text-anchor="middle" x="795" y="-347.5" font-family="Helvetica,sans-Serif" font-size="10.00">stxxl::file</text>
</a>
</g>
</g>
<!-- Node3&#45;&gt;Node8 -->
<g id="edge11" class="edge"><title>Node3&#45;&gt;Node8</title>
<path fill="none" stroke="#8b1a1a" d="M73.7615,-233.23C87.4514,-251.27 110.915,-278.136 138,-292 182.489,-314.771 199.653,-302.087 249,-310 321.868,-321.684 339.548,-328.854 413,-336 545.088,-348.85 703.981,-350.159 766.667,-350.123"/>
<polygon fill="#8b1a1a" stroke="#8b1a1a" points="76.2586,-230.716 67.5261,-224.717 70.6113,-234.852 76.2586,-230.716"/>
</g>
<!-- Node10 -->
<g id="node10" class="node"><title>Node10</title>
<g id="a_node10"><a xlink:href="classstxxl_1_1mutex.html" target="_top" xlink:title="stxxl::mutex">
<polygon fill="none" stroke="black" points="286.5,-281.5 286.5,-300.5 357.5,-300.5 357.5,-281.5 286.5,-281.5"/>
<text text-anchor="middle" x="322" y="-288.5" font-family="Helvetica,sans-Serif" font-size="10.00">stxxl::mutex</text>
</a>
</g>
</g>
<!-- Node3&#45;&gt;Node10 -->
<g id="edge14" class="edge"><title>Node3&#45;&gt;Node10</title>
<path fill="none" stroke="#8b1a1a" d="M79.4005,-231.065C94.1935,-243.033 116.059,-258.687 138,-267 187.291,-285.676 248.797,-290.261 286.468,-291.151"/>
<polygon fill="#8b1a1a" stroke="#8b1a1a" points="81.4823,-228.243 71.5608,-224.527 76.9991,-233.619 81.4823,-228.243"/>
</g>
<!-- Node13 -->
<g id="node13" class="node"><title>Node13</title>
<g id="a_node13"><a xlink:href="classstxxl_1_1disk__allocator.html" target="_top" xlink:title="stxxl::disk_allocator">
<polygon fill="none" stroke="black" points="941,-272.5 941,-291.5 1045,-291.5 1045,-272.5 941,-272.5"/>
<text text-anchor="middle" x="993" y="-279.5" font-family="Helvetica,sans-Serif" font-size="10.00">stxxl::disk_allocator</text>
</a>
</g>
</g>
<!-- Node3&#45;&gt;Node13 -->
<g id="edge18" class="edge"><title>Node3&#45;&gt;Node13</title>
<path fill="none" stroke="#8b1a1a" d="M111.255,-226.763C163.393,-237.923 247.44,-253 321,-253 321,-253 321,-253 796,-253 850.177,-253 911.88,-263.977 951.341,-272.424"/>
<polygon fill="#8b1a1a" stroke="#8b1a1a" points="111.781,-223.296 101.265,-224.589 110.292,-230.136 111.781,-223.296"/>
</g>
<!-- Node4&#45;&gt;Node2 -->
<g id="edge3" class="edge"><title>Node4&#45;&gt;Node2</title>
<path fill="none" stroke="#9a32cd" stroke-dasharray="5,2" d="M1454.74,-156.757C1511.07,-143.583 1587.94,-125.608 1641.77,-113.02"/>
<polygon fill="#9a32cd" stroke="#9a32cd" points="1453.76,-153.39 1444.82,-159.076 1455.36,-160.206 1453.76,-153.39"/>
<text text-anchor="middle" x="1533.5" y="-157" font-family="Helvetica,sans-Serif" font-size="10.00"> bs</text>
</g>
<!-- Node5 -->
<g id="node5" class="node"><title>Node5</title>
<g id="a_node5"><a xlink:href="classstxxl_1_1block__manager.html" target="_top" xlink:title="Block manager class. ">
<polygon fill="none" stroke="black" points="1150,-240.5 1150,-259.5 1260,-259.5 1260,-240.5 1150,-240.5"/>
<text text-anchor="middle" x="1205" y="-247.5" font-family="Helvetica,sans-Serif" font-size="10.00">stxxl::block_manager</text>
</a>
</g>
</g>
<!-- Node5&#45;&gt;Node4 -->
<g id="edge5" class="edge"><title>Node5&#45;&gt;Node4</title>
<path fill="none" stroke="#9a32cd" stroke-dasharray="5,2" d="M1237.17,-236.308C1267.49,-222.988 1313.44,-202.802 1344.76,-189.041"/>
<polygon fill="#9a32cd" stroke="#9a32cd" points="1235.66,-233.148 1227.91,-240.375 1238.47,-239.557 1235.66,-233.148"/>
<text text-anchor="middle" x="1286.5" y="-220" font-family="Helvetica,sans-Serif" font-size="10.00"> bm</text>
</g>
<!-- Node6&#45;&gt;Node5 -->
<g id="edge6" class="edge"><title>Node6&#45;&gt;Node5</title>
<path fill="none" stroke="midnightblue" d="M675.13,-213.587C794.09,-221.778 1040.77,-238.762 1149.97,-246.28"/>
<polygon fill="midnightblue" stroke="midnightblue" points="675.277,-210.089 665.06,-212.894 674.796,-217.073 675.277,-210.089"/>
</g>
<!-- Node7&#45;&gt;Node6 -->
<g id="edge8" class="edge"><title>Node7&#45;&gt;Node6</title>
<path fill="none" stroke="orange" stroke-dasharray="5,2" d="M405.578,-175.469C444.171,-178.333 490.632,-182.891 532,-190 538.446,-191.108 545.154,-192.488 551.787,-193.995"/>
<polygon fill="orange" stroke="orange" points="405.654,-171.965 395.43,-174.741 405.154,-178.947 405.654,-171.965"/>
<text text-anchor="middle" x="472.5" y="-193" font-family="Helvetica,sans-Serif" font-size="10.00"> &lt; block_manager &gt;</text>
</g>
<!-- Node8&#45;&gt;Node5 -->
<g id="edge10" class="edge"><title>Node8&#45;&gt;Node5</title>
<path fill="none" stroke="#9a32cd" stroke-dasharray="5,2" d="M833.684,-347.09C859.044,-344.827 893.17,-341.191 923,-336 1017.1,-319.624 1042.26,-318.681 1132,-286 1151.83,-278.779 1173.32,-267.552 1187.61,-259.556"/>
<polygon fill="#9a32cd" stroke="#9a32cd" points="833.053,-343.631 823.39,-347.976 833.654,-350.605 833.053,-343.631"/>
<text text-anchor="middle" x="993" y="-335" font-family="Helvetica,sans-Serif" font-size="10.00"> disk_files</text>
</g>
<!-- Node8&#45;&gt;Node13 -->
<g id="edge19" class="edge"><title>Node8&#45;&gt;Node13</title>
<path fill="none" stroke="#9a32cd" stroke-dasharray="5,2" d="M820.404,-335.087C826.944,-331.469 834.114,-327.833 841,-325 876.005,-310.6 886.6,-312.38 923,-302 934.874,-298.614 947.883,-294.856 959.374,-291.52"/>
<polygon fill="#9a32cd" stroke="#9a32cd" points="818.303,-332.257 811.38,-340.277 821.793,-338.325 818.303,-332.257"/>
<text text-anchor="middle" x="882" y="-328" font-family="Helvetica,sans-Serif" font-size="10.00"> storage</text>
</g>
<!-- Node9 -->
<g id="node9" class="node"><title>Node9</title>
<g id="a_node9"><a xlink:href="classstxxl_1_1atomic__counted__object.html" target="_top" xlink:title="Provides reference counting abilities for use with counting_ptr with mutex locking. ">
<polygon fill="none" stroke="black" points="551,-379 551,-409 664,-409 664,-379 551,-379"/>
<text text-anchor="start" x="559" y="-397" font-family="Helvetica,sans-Serif" font-size="10.00">stxxl::atomic_counted</text>
<text text-anchor="middle" x="607.5" y="-386" font-family="Helvetica,sans-Serif" font-size="10.00">_object</text>
</a>
</g>
</g>
<!-- Node9&#45;&gt;Node8 -->
<g id="edge12" class="edge"><title>Node9&#45;&gt;Node8</title>
<path fill="none" stroke="#9a32cd" stroke-dasharray="5,2" d="M674.11,-381.284C697.82,-376.349 724.72,-370.355 749,-364 754.857,-362.467 761.088,-360.65 766.988,-358.842"/>
<polygon fill="#9a32cd" stroke="#9a32cd" points="673.251,-377.888 664.162,-383.332 674.662,-384.744 673.251,-377.888"/>
<text text-anchor="middle" x="716" y="-382" font-family="Helvetica,sans-Serif" font-size="10.00"> m_request_ref</text>
</g>
<!-- Node10&#45;&gt;Node9 -->
<g id="edge13" class="edge"><title>Node10&#45;&gt;Node9</title>
<path fill="none" stroke="#9a32cd" stroke-dasharray="5,2" d="M358.739,-303.984C411.313,-323.085 509.276,-358.677 564.973,-378.913"/>
<polygon fill="#9a32cd" stroke="#9a32cd" points="359.757,-300.631 349.163,-300.505 357.367,-307.21 359.757,-300.631"/>
<text text-anchor="middle" x="472.5" y="-369" font-family="Helvetica,sans-Serif" font-size="10.00"> m_reference_count_mutex</text>
</g>
<!-- Node10&#45;&gt;Node13 -->
<g id="edge20" class="edge"><title>Node10&#45;&gt;Node13</title>
<path fill="none" stroke="#9a32cd" stroke-dasharray="5,2" d="M367.825,-290.397C487.574,-288.786 814.421,-284.389 940.989,-282.686"/>
<polygon fill="#9a32cd" stroke="#9a32cd" points="367.512,-286.901 357.56,-290.535 367.606,-293.9 367.512,-286.901"/>
<text text-anchor="middle" x="716" y="-290" font-family="Helvetica,sans-Serif" font-size="10.00"> mutex</text>
</g>
<!-- Node11 -->
<g id="node11" class="node"><title>Node11</title>
<g id="a_node11"><a xlink:href="structstxxl_1_1choose__int__types.html" target="_top" xlink:title="stxxl::choose_int_types\l\&lt; my_pointer_size \&gt;">
<polygon fill="none" stroke="black" points="262,-379 262,-409 382,-409 382,-379 262,-379"/>
<text text-anchor="start" x="270" y="-397" font-family="Helvetica,sans-Serif" font-size="10.00">stxxl::choose_int_types</text>
<text text-anchor="middle" x="322" y="-386" font-family="Helvetica,sans-Serif" font-size="10.00">&lt; my_pointer_size &gt;</text>
</a>
</g>
</g>
<!-- Node11&#45;&gt;Node4 -->
<g id="edge21" class="edge"><title>Node11&#45;&gt;Node4</title>
<path fill="none" stroke="#9a32cd" stroke-dasharray="5,2" d="M392.041,-410.799C449.162,-423.226 532.613,-438 606.5,-438 606.5,-438 606.5,-438 1206,-438 1325.73,-438 1367.11,-245.679 1376.66,-189.335"/>
<polygon fill="#9a32cd" stroke="#9a32cd" points="392.565,-407.331 382.045,-408.59 391.054,-414.166 392.565,-407.331"/>
<text text-anchor="start" x="841" y="-452" font-family="Helvetica,sans-Serif" font-size="10.00"> remaining_internal</text>
<text text-anchor="middle" x="882" y="-441" font-family="Helvetica,sans-Serif" font-size="10.00">_blocks</text>
</g>
<!-- Node11&#45;&gt;Node9 -->
<g id="edge15" class="edge"><title>Node11&#45;&gt;Node9</title>
<path fill="none" stroke="#9a32cd" stroke-dasharray="5,2" d="M392.241,-394C441.004,-394 505.434,-394 550.863,-394"/>
<polygon fill="#9a32cd" stroke="#9a32cd" points="392.086,-390.5 382.086,-394 392.086,-397.5 392.086,-390.5"/>
<text text-anchor="middle" x="472.5" y="-397" font-family="Helvetica,sans-Serif" font-size="10.00"> m_reference_count</text>
</g>
<!-- Node12 -->
<g id="node12" class="node"><title>Node12</title>
<g id="a_node12"><a xlink:href="structstxxl_1_1choose__int__types.html" target="_top" xlink:title="stxxl::choose_int_types\l\&lt; PtrSize \&gt;">
<polygon fill="none" stroke="black" points="0,-379 0,-409 120,-409 120,-379 0,-379"/>
<text text-anchor="start" x="8" y="-397" font-family="Helvetica,sans-Serif" font-size="10.00">stxxl::choose_int_types</text>
<text text-anchor="middle" x="60" y="-386" font-family="Helvetica,sans-Serif" font-size="10.00">&lt; PtrSize &gt;</text>
</a>
</g>
</g>
<!-- Node12&#45;&gt;Node11 -->
<g id="edge16" class="edge"><title>Node12&#45;&gt;Node11</title>
<path fill="none" stroke="orange" stroke-dasharray="5,2" d="M130.515,-394C171.531,-394 222.884,-394 261.931,-394"/>
<polygon fill="orange" stroke="orange" points="130.323,-390.5 120.323,-394 130.323,-397.5 130.323,-390.5"/>
<text text-anchor="middle" x="184.5" y="-397" font-family="Helvetica,sans-Serif" font-size="10.00"> &lt; my_pointer_size &gt;</text>
</g>
<!-- Node13&#45;&gt;Node5 -->
<g id="edge17" class="edge"><title>Node13&#45;&gt;Node5</title>
<path fill="none" stroke="#9a32cd" stroke-dasharray="5,2" d="M1055.02,-272.702C1084.97,-268.139 1120.74,-262.687 1149.73,-258.27"/>
<polygon fill="#9a32cd" stroke="#9a32cd" points="1054.46,-269.246 1045.1,-274.213 1055.52,-276.166 1054.46,-269.246"/>
<text text-anchor="middle" x="1097.5" y="-274" font-family="Helvetica,sans-Serif" font-size="10.00"> disk_allocators</text>
</g>
<!-- Node14 -->
<g id="node14" class="node"><title>Node14</title>
<g id="a_node14"><a xlink:href="classstxxl_1_1addressable__priority__queue.html" target="_top" xlink:title="stxxl::addressable\l_priority_queue\&lt; swappable\l_block_identifier_type,\l stxxl::block_scheduler_algorithm\l_offline_lfd::priority \&gt;">
<polygon fill="none" stroke="black" points="1626,-0.5 1626,-63.5 1788,-63.5 1788,-0.5 1626,-0.5"/>
<text text-anchor="start" x="1634" y="-51.5" font-family="Helvetica,sans-Serif" font-size="10.00">stxxl::addressable</text>
<text text-anchor="start" x="1634" y="-40.5" font-family="Helvetica,sans-Serif" font-size="10.00">_priority_queue&lt; swappable</text>
<text text-anchor="start" x="1634" y="-29.5" font-family="Helvetica,sans-Serif" font-size="10.00">_block_identifier_type,</text>
<text text-anchor="start" x="1634" y="-18.5" font-family="Helvetica,sans-Serif" font-size="10.00"> stxxl::block_scheduler_algorithm</text>
<text text-anchor="middle" x="1707" y="-7.5" font-family="Helvetica,sans-Serif" font-size="10.00">_offline_lfd::priority &gt;</text>
</a>
</g>
</g>
<!-- Node14&#45;&gt;Node1 -->
<g id="edge22" class="edge"><title>Node14&#45;&gt;Node1</title>
<path fill="none" stroke="#9a32cd" stroke-dasharray="5,2" d="M1798.54,-45.1571C1833.81,-50.2818 1873.4,-56.0347 1905.59,-60.713"/>
<polygon fill="#9a32cd" stroke="#9a32cd" points="1798.64,-41.634 1788.24,-43.6595 1797.63,-48.5613 1798.64,-41.634"/>
<text text-anchor="middle" x="1850" y="-61" font-family="Helvetica,sans-Serif" font-size="10.00"> evictable_blocks</text>
</g>
<!-- Node15 -->
<g id="node15" class="node"><title>Node15</title>
<g id="a_node15"><a xlink:href="classstxxl_1_1addressable__priority__queue.html" target="_top" xlink:title="An internal priority queue that allows removing elements addressed with (a copy of) themselves...">
<polygon fill="none" stroke="black" points="1313,-11.5 1313,-52.5 1447,-52.5 1447,-11.5 1313,-11.5"/>
<text text-anchor="start" x="1321" y="-40.5" font-family="Helvetica,sans-Serif" font-size="10.00">stxxl::addressable</text>
<text text-anchor="start" x="1321" y="-29.5" font-family="Helvetica,sans-Serif" font-size="10.00">_priority_queue&lt; KeyType,</text>
<text text-anchor="middle" x="1380" y="-18.5" font-family="Helvetica,sans-Serif" font-size="10.00"> PriorityType, Cmp &gt;</text>
</a>
</g>
</g>
<!-- Node15&#45;&gt;Node14 -->
<g id="edge23" class="edge"><title>Node15&#45;&gt;Node14</title>
<path fill="none" stroke="orange" stroke-dasharray="5,2" d="M1457.4,-32C1508.06,-32 1574.43,-32 1625.85,-32"/>
<polygon fill="orange" stroke="orange" points="1457.16,-28.5001 1447.16,-32 1457.16,-35.5001 1457.16,-28.5001"/>
<text text-anchor="start" x="1465" y="-57" font-family="Helvetica,sans-Serif" font-size="10.00"> &lt; swappable_block_identifier</text>
<text text-anchor="start" x="1465" y="-46" font-family="Helvetica,sans-Serif" font-size="10.00">_type, stxxl::block_scheduler</text>
<text text-anchor="middle" x="1533.5" y="-35" font-family="Helvetica,sans-Serif" font-size="10.00">_algorithm_offline_lfd::priority &gt;</text>
</g>
</g>
</svg>
