<?xml version="1.0" encoding="UTF-8" standalone="no"?>
<!DOCTYPE svg PUBLIC "-//W3C//DTD SVG 1.1//EN"
 "http://www.w3.org/Graphics/SVG/1.1/DTD/svg11.dtd">
<!-- Generated by graphviz version 2.26.3 (20100126.1600)
 -->
<!-- Title: stxxl::swappable_block&lt; ValueType, BlockSize &gt; Pages: 1 -->
<svg width="3154pt" height="392pt"
 viewBox="0.00 0.00 3154.00 392.00" xmlns="http://www.w3.org/2000/svg" xmlns:xlink="http://www.w3.org/1999/xlink">
<g id="graph1" class="graph" transform="scale(1 1) rotate(0) translate(4 388)">
<title>stxxl::swappable_block&lt; ValueType, BlockSize &gt;</title>
<!-- Node1 -->
<g id="node1" class="node"><title>Node1</title>
<polygon fill="#bfbfbf" stroke="black" points="3014.5,-35 3014.5,-69 3145.5,-69 3145.5,-35 3014.5,-35"/>
<text text-anchor="start" x="3022.5" y="-56" font-family="Helvetica,sans-Serif" font-size="10.00">stxxl::swappable_block</text>
<text text-anchor="middle" x="3080" y="-43" font-family="Helvetica,sans-Serif" font-size="10.00">&lt; ValueType, BlockSize &gt;</text>
</g>
<!-- Node2 -->
<g id="node2" class="node"><title>Node2</title>
<a xlink:href="structstxxl_1_1choose__int__types.html" target="_top" xlink:title="stxxl::choose_int_types\l\&lt; my_pointer_size \&gt;">
<polygon fill="none" stroke="black" points="250,-0 250,-34 370,-34 370,-0 250,-0"/>
<text text-anchor="start" x="258" y="-21" font-family="Helvetica,sans-Serif" font-size="10.00">stxxl::choose_int_types</text>
<text text-anchor="middle" x="310" y="-8" font-family="Helvetica,sans-Serif" font-size="10.00">&lt; my_pointer_size &gt;</text>
</a>
</g>
<!-- Node2&#45;&gt;Node1 -->
<g id="edge2" class="edge"><title>Node2&#45;&gt;Node1</title>
<path fill="none" stroke="#9a32cd" stroke-dasharray="5,2" d="M380.165,-12.6176C435.288,-9.55078 514.008,-6 583,-6 583,-6 583,-6 2855,-6 2914.81,-6 2981.77,-21.7928 3026.98,-34.8713"/>
<polygon fill="#9a32cd" stroke="#9a32cd" points="379.941,-9.12455 370.154,-13.1836 380.336,-16.1134 379.941,-9.12455"/>
<text text-anchor="middle" x="1631" y="-10" font-family="Helvetica,sans-Serif" font-size="10.00"> reference_count</text>
</g>
<!-- Node7 -->
<g id="node12" class="node"><title>Node7</title>
<a xlink:href="classstxxl_1_1atomic__counted__object.html" target="_top" xlink:title="Provides reference counting abilities for use with counting_ptr with mutex locking. ">
<polygon fill="none" stroke="black" points="526.5,-52 526.5,-86 639.5,-86 639.5,-52 526.5,-52"/>
<text text-anchor="start" x="534.5" y="-73" font-family="Helvetica,sans-Serif" font-size="10.00">stxxl::atomic_counted</text>
<text text-anchor="middle" x="583" y="-60" font-family="Helvetica,sans-Serif" font-size="10.00">_object</text>
</a>
</g>
<!-- Node2&#45;&gt;Node7 -->
<g id="edge18" class="edge"><title>Node2&#45;&gt;Node7</title>
<path fill="none" stroke="#9a32cd" stroke-dasharray="5,2" d="M380.229,-29.2344C418.125,-35.9708 465.68,-44.6406 508,-53 513.878,-54.161 520.006,-55.4082 526.116,-56.6755"/>
<polygon fill="#9a32cd" stroke="#9a32cd" points="380.769,-25.7756 370.312,-27.4763 379.547,-32.6681 380.769,-25.7756"/>
<text text-anchor="middle" x="448" y="-57" font-family="Helvetica,sans-Serif" font-size="10.00"> m_reference_count</text>
</g>
<!-- Node3 -->
<g id="node4" class="node"><title>Node3</title>
<a xlink:href="structstxxl_1_1choose__int__types.html" target="_top" xlink:title="stxxl::choose_int_types\l\&lt; PtrSize \&gt;">
<polygon fill="none" stroke="black" points="0,-0 0,-34 120,-34 120,-0 0,-0"/>
<text text-anchor="start" x="8" y="-21" font-family="Helvetica,sans-Serif" font-size="10.00">stxxl::choose_int_types</text>
<text text-anchor="middle" x="60" y="-8" font-family="Helvetica,sans-Serif" font-size="10.00">&lt; PtrSize &gt;</text>
</a>
</g>
<!-- Node3&#45;&gt;Node2 -->
<g id="edge4" class="edge"><title>Node3&#45;&gt;Node2</title>
<path fill="none" stroke="orange" stroke-dasharray="5,2" d="M130.578,-17C168.196,-17 213.985,-17 249.89,-17"/>
<polygon fill="orange" stroke="orange" points="130.199,-13.5001 120.199,-17 130.199,-20.5001 130.199,-13.5001"/>
<text text-anchor="middle" x="185" y="-21" font-family="Helvetica,sans-Serif" font-size="10.00"> &lt; my_pointer_size &gt;</text>
</g>
<!-- Node4 -->
<g id="node6" class="node"><title>Node4</title>
<a xlink:href="structstxxl_1_1BID.html" target="_top" xlink:title="stxxl::BID\&lt; raw_size \&gt;">
<polygon fill="none" stroke="black" points="1071,-87.5 1071,-108.5 1189,-108.5 1189,-87.5 1071,-87.5"/>
<text text-anchor="middle" x="1130" y="-95.5" font-family="Helvetica,sans-Serif" font-size="10.00">stxxl::BID&lt; raw_size &gt;</text>
</a>
</g>
<!-- Node4&#45;&gt;Node1 -->
<g id="edge6" class="edge"><title>Node4&#45;&gt;Node1</title>
<path fill="none" stroke="#9a32cd" stroke-dasharray="5,2" d="M1166.76,-83.9539C1205.51,-70.4257 1268.64,-52 1325,-52 1325,-52 1325,-52 2855,-52 2908.52,-52 2969.19,-52 3014.04,-52"/>
<polygon fill="#9a32cd" stroke="#9a32cd" points="1165.22,-80.7882 1156.97,-87.4467 1167.57,-87.3807 1165.22,-80.7882"/>
<text text-anchor="middle" x="2128" y="-56" font-family="Helvetica,sans-Serif" font-size="10.00"> external_data</text>
</g>
<!-- Node14 -->
<g id="node29" class="node"><title>Node14</title>
<a xlink:href="classstxxl_1_1mng__local_1_1block__w__bids.html" target="_top" xlink:title="stxxl::mng_local::block\l_w_bids\&lt; Type,((RawSize\l&#45;sizeof(BID\&lt; RawSize \&gt;)*NBids\l&#45;sizeof(MetaInfoType))/sizeof\l(Type)), RawSize, NBids \&gt;">
<polygon fill="none" stroke="black" points="1552,-94.5 1552,-167.5 1710,-167.5 1710,-94.5 1552,-94.5"/>
<text text-anchor="start" x="1560" y="-154.5" font-family="Helvetica,sans-Serif" font-size="10.00">stxxl::mng_local::block</text>
<text text-anchor="start" x="1560" y="-141.5" font-family="Helvetica,sans-Serif" font-size="10.00">_w_bids&lt; Type,((RawSize</text>
<text text-anchor="start" x="1560" y="-128.5" font-family="Helvetica,sans-Serif" font-size="10.00">&#45;sizeof(BID&lt; RawSize &gt;)*NBids</text>
<text text-anchor="start" x="1560" y="-115.5" font-family="Helvetica,sans-Serif" font-size="10.00">&#45;sizeof(MetaInfoType))/sizeof</text>
<text text-anchor="middle" x="1631" y="-102.5" font-family="Helvetica,sans-Serif" font-size="10.00">(Type)), RawSize, NBids &gt;</text>
</a>
</g>
<!-- Node4&#45;&gt;Node14 -->
<g id="edge36" class="edge"><title>Node4&#45;&gt;Node14</title>
<path fill="none" stroke="#9a32cd" stroke-dasharray="5,2" d="M1199.19,-98.8867C1254.63,-99.9312 1334.38,-102.183 1404,-107 1453.22,-110.406 1508.26,-116.175 1551.81,-121.204"/>
<polygon fill="#9a32cd" stroke="#9a32cd" points="1199.19,-95.3862 1189.12,-98.7054 1199.06,-102.385 1199.19,-95.3862"/>
<text text-anchor="middle" x="1325" y="-111" font-family="Helvetica,sans-Serif" font-size="10.00"> ref</text>
</g>
<!-- Node16 -->
<g id="node34" class="node"><title>Node16</title>
<a xlink:href="classstxxl_1_1mng__local_1_1block__w__bids.html" target="_top" xlink:title="Contains BID references for stxxl::typed_block , not intended for direct use. ">
<polygon fill="none" stroke="black" points="1246,-129.5 1246,-176.5 1404,-176.5 1404,-129.5 1246,-129.5"/>
<text text-anchor="start" x="1254" y="-163.5" font-family="Helvetica,sans-Serif" font-size="10.00">stxxl::mng_local::block</text>
<text text-anchor="start" x="1254" y="-150.5" font-family="Helvetica,sans-Serif" font-size="10.00">_w_bids&lt; Type, Size, RawSize,</text>
<text text-anchor="middle" x="1325" y="-137.5" font-family="Helvetica,sans-Serif" font-size="10.00"> NBids &gt;</text>
</a>
</g>
<!-- Node4&#45;&gt;Node16 -->
<g id="edge42" class="edge"><title>Node4&#45;&gt;Node16</title>
<path fill="none" stroke="#9a32cd" stroke-dasharray="5,2" d="M1177.36,-111.358C1197.97,-117.171 1222.69,-124.143 1245.95,-130.704"/>
<polygon fill="#9a32cd" stroke="#9a32cd" points="1178.17,-107.951 1167.6,-108.605 1176.27,-114.688 1178.17,-107.951"/>
<text text-anchor="middle" x="1220" y="-129" font-family="Helvetica,sans-Serif" font-size="10.00"> ref</text>
</g>
<!-- Node5 -->
<g id="node8" class="node"><title>Node5</title>
<a xlink:href="classstxxl_1_1file.html" target="_top" xlink:title="Defines interface of file. ">
<polygon fill="none" stroke="black" points="742,-79.5 742,-100.5 798,-100.5 798,-79.5 742,-79.5"/>
<text text-anchor="middle" x="770" y="-87.5" font-family="Helvetica,sans-Serif" font-size="10.00">stxxl::file</text>
</a>
</g>
<!-- Node5&#45;&gt;Node4 -->
<g id="edge8" class="edge"><title>Node5&#45;&gt;Node4</title>
<path fill="none" stroke="#9a32cd" stroke-dasharray="5,2" d="M808.196,-98.0543C810.829,-98.4301 813.449,-98.7528 816,-99 918.63,-108.946 944.891,-99.6287 1048,-99 1055.4,-98.9549 1063.18,-98.8868 1070.88,-98.807"/>
<polygon fill="#9a32cd" stroke="#9a32cd" points="808.529,-94.5621 798.093,-96.3889 807.39,-101.469 808.529,-94.5621"/>
<text text-anchor="middle" x="919" y="-107" font-family="Helvetica,sans-Serif" font-size="10.00"> storage</text>
</g>
<!-- Node9 -->
<g id="node18" class="node"><title>Node9</title>
<a xlink:href="structstxxl_1_1BID.html" target="_top" xlink:title="Block identifier class. ">
<polygon fill="none" stroke="black" points="870,-55.5 870,-76.5 968,-76.5 968,-55.5 870,-55.5"/>
<text text-anchor="middle" x="919" y="-63.5" font-family="Helvetica,sans-Serif" font-size="10.00">stxxl::BID&lt; Size &gt;</text>
</a>
</g>
<!-- Node5&#45;&gt;Node9 -->
<g id="edge22" class="edge"><title>Node5&#45;&gt;Node9</title>
<path fill="none" stroke="#9a32cd" stroke-dasharray="5,2" d="M808.023,-83.8755C826.863,-80.8409 849.834,-77.1408 869.98,-73.8959"/>
<polygon fill="#9a32cd" stroke="#9a32cd" points="807.342,-80.44 798.026,-85.4858 808.455,-87.3509 807.342,-80.44"/>
<text text-anchor="middle" x="834" y="-86" font-family="Helvetica,sans-Serif" font-size="10.00"> storage</text>
</g>
<!-- Node6 -->
<g id="node10" class="node"><title>Node6</title>
<a xlink:href="classstxxl_1_1noncopyable.html" target="_top" xlink:title="stxxl::noncopyable">
<polygon fill="none" stroke="black" points="11,-90.5 11,-111.5 109,-111.5 109,-90.5 11,-90.5"/>
<text text-anchor="middle" x="60" y="-98.5" font-family="Helvetica,sans-Serif" font-size="10.00">stxxl::noncopyable</text>
</a>
</g>
<!-- Node6&#45;&gt;Node5 -->
<g id="edge10" class="edge"><title>Node6&#45;&gt;Node5</title>
<path fill="none" stroke="#8b1a1a" d="M119.472,-105.124C235.929,-112.269 502.054,-124.015 724,-100 729.85,-99.367 736.048,-98.299 741.936,-97.0909"/>
<polygon fill="#8b1a1a" stroke="#8b1a1a" points="119.541,-101.621 109.342,-104.491 119.104,-108.608 119.541,-101.621"/>
</g>
<!-- Node8 -->
<g id="node14" class="node"><title>Node8</title>
<a xlink:href="classstxxl_1_1mutex.html" target="_top" xlink:title="stxxl::mutex">
<polygon fill="none" stroke="black" points="274.5,-64.5 274.5,-85.5 345.5,-85.5 345.5,-64.5 274.5,-64.5"/>
<text text-anchor="middle" x="310" y="-72.5" font-family="Helvetica,sans-Serif" font-size="10.00">stxxl::mutex</text>
</a>
</g>
<!-- Node6&#45;&gt;Node8 -->
<g id="edge16" class="edge"><title>Node6&#45;&gt;Node8</title>
<path fill="none" stroke="#8b1a1a" d="M119.093,-94.8544C167.33,-89.8377 233.906,-82.9138 274.346,-78.708"/>
<polygon fill="#8b1a1a" stroke="#8b1a1a" points="118.678,-91.3785 109.094,-95.8943 119.402,-98.341 118.678,-91.3785"/>
</g>
<!-- Node7&#45;&gt;Node5 -->
<g id="edge12" class="edge"><title>Node7&#45;&gt;Node5</title>
<path fill="none" stroke="#9a32cd" stroke-dasharray="5,2" d="M649.733,-76.4941C681.451,-80.056 717.657,-84.1219 741.984,-86.8539"/>
<polygon fill="#9a32cd" stroke="#9a32cd" points="649.942,-72.9956 639.614,-75.3577 649.161,-79.9519 649.942,-72.9956"/>
<text text-anchor="middle" x="691" y="-88" font-family="Helvetica,sans-Serif" font-size="10.00"> m_request_ref</text>
</g>
<!-- Node8&#45;&gt;Node7 -->
<g id="edge14" class="edge"><title>Node8&#45;&gt;Node7</title>
<path fill="none" stroke="#9a32cd" stroke-dasharray="5,2" d="M355.875,-73.9918C402.83,-72.9598 475.885,-71.3542 526.403,-70.2439"/>
<polygon fill="#9a32cd" stroke="#9a32cd" points="355.611,-70.4966 345.69,-74.2156 355.765,-77.4949 355.611,-70.4966"/>
<text text-anchor="middle" x="448" y="-77" font-family="Helvetica,sans-Serif" font-size="10.00"> m_reference_count_mutex</text>
</g>
<!-- Node9&#45;&gt;Node4 -->
<g id="edge20" class="edge"><title>Node9&#45;&gt;Node4</title>
<path fill="none" stroke="orange" stroke-dasharray="5,2" d="M978.194,-74.9773C1007.18,-79.3731 1041.98,-84.6511 1070.95,-89.044"/>
<polygon fill="orange" stroke="orange" points="978.616,-71.5013 968.204,-73.4622 977.566,-78.4221 978.616,-71.5013"/>
<text text-anchor="middle" x="1017" y="-88" font-family="Helvetica,sans-Serif" font-size="10.00"> &lt; raw_size &gt;</text>
</g>
<!-- Node10 -->
<g id="node21" class="node"><title>Node10</title>
<a xlink:href="classstxxl_1_1typed__block.html" target="_top" xlink:title="Block containing elements of fixed length. ">
<polygon fill="none" stroke="black" points="2792.5,-102.5 2792.5,-149.5 2917.5,-149.5 2917.5,-102.5 2792.5,-102.5"/>
<text text-anchor="start" x="2800.5" y="-136.5" font-family="Helvetica,sans-Serif" font-size="10.00">stxxl::typed_block</text>
<text text-anchor="start" x="2800.5" y="-123.5" font-family="Helvetica,sans-Serif" font-size="10.00">&lt; RawSize, Type, NRef,</text>
<text text-anchor="middle" x="2855" y="-110.5" font-family="Helvetica,sans-Serif" font-size="10.00"> MetaInfoType &gt;</text>
</a>
</g>
<!-- Node10&#45;&gt;Node1 -->
<g id="edge24" class="edge"><title>Node10&#45;&gt;Node1</title>
<path fill="none" stroke="#9a32cd" stroke-dasharray="5,2" d="M2927.25,-102.238C2960.14,-91.4202 2998.32,-78.8629 3028.28,-69.009"/>
<polygon fill="#9a32cd" stroke="#9a32cd" points="2926.08,-98.9378 2917.68,-105.387 2928.27,-105.587 2926.08,-98.9378"/>
<text text-anchor="middle" x="2966" y="-101" font-family="Helvetica,sans-Serif" font-size="10.00"> internal_data</text>
</g>
<!-- Node11 -->
<g id="node23" class="node"><title>Node11</title>
<a xlink:href="classstxxl_1_1mng__local_1_1expand__struct.html" target="_top" xlink:title="stxxl::mng_local::expand\l_struct\&lt; mng_local::block\l_w_info\&lt; Type, RawSize, NRef,\l MetaInfoType \&gt;, RawSize \&gt;">
<polygon fill="none" stroke="black" points="2594.5,-164 2594.5,-224 2753.5,-224 2753.5,-164 2594.5,-164"/>
<text text-anchor="start" x="2602.5" y="-211" font-family="Helvetica,sans-Serif" font-size="10.00">stxxl::mng_local::expand</text>
<text text-anchor="start" x="2602.5" y="-198" font-family="Helvetica,sans-Serif" font-size="10.00">_struct&lt; mng_local::block</text>
<text text-anchor="start" x="2602.5" y="-185" font-family="Helvetica,sans-Serif" font-size="10.00">_w_info&lt; Type, RawSize, NRef,</text>
<text text-anchor="middle" x="2674" y="-172" font-family="Helvetica,sans-Serif" font-size="10.00"> MetaInfoType &gt;, RawSize &gt;</text>
</a>
</g>
<!-- Node11&#45;&gt;Node10 -->
<g id="edge26" class="edge"><title>Node11&#45;&gt;Node10</title>
<path fill="none" stroke="midnightblue" d="M2763.13,-160.514C2773.04,-156.791 2782.97,-153.06 2792.45,-149.5"/>
<polygon fill="midnightblue" stroke="midnightblue" points="2761.78,-157.282 2753.65,-164.075 2764.24,-163.835 2761.78,-157.282"/>
</g>
<!-- Node12 -->
<g id="node25" class="node"><title>Node12</title>
<a xlink:href="classstxxl_1_1mng__local_1_1add__filler.html" target="_top" xlink:title="stxxl::mng_local::add\l_filler\&lt; mng_local::block\l_w_info\&lt; Type, RawSize,\l NRef, MetaInfoType \&gt;, RawSize\l&#45;sizeof(mng_local::block_w_info\l\&lt; Type, RawSize, NRef, MetaInfoType \&gt;)\&gt;">
<polygon fill="none" stroke="black" points="2238,-151 2238,-237 2444,-237 2444,-151 2238,-151"/>
<text text-anchor="start" x="2246" y="-224" font-family="Helvetica,sans-Serif" font-size="10.00">stxxl::mng_local::add</text>
<text text-anchor="start" x="2246" y="-211" font-family="Helvetica,sans-Serif" font-size="10.00">_filler&lt; mng_local::block</text>
<text text-anchor="start" x="2246" y="-198" font-family="Helvetica,sans-Serif" font-size="10.00">_w_info&lt; Type, RawSize,</text>
<text text-anchor="start" x="2246" y="-185" font-family="Helvetica,sans-Serif" font-size="10.00"> NRef, MetaInfoType &gt;, RawSize</text>
<text text-anchor="start" x="2246" y="-172" font-family="Helvetica,sans-Serif" font-size="10.00">&#45;sizeof(mng_local::block_w_info</text>
<text text-anchor="middle" x="2341" y="-159" font-family="Helvetica,sans-Serif" font-size="10.00">&lt; Type, RawSize, NRef, MetaInfoType &gt;)&gt;</text>
</a>
</g>
<!-- Node12&#45;&gt;Node11 -->
<g id="edge28" class="edge"><title>Node12&#45;&gt;Node11</title>
<path fill="none" stroke="midnightblue" d="M2454.12,-194C2500.22,-194 2552.42,-194 2594.39,-194"/>
<polygon fill="midnightblue" stroke="midnightblue" points="2454.08,-190.5 2444.08,-194 2454.08,-197.5 2454.08,-190.5"/>
</g>
<!-- Node13 -->
<g id="node27" class="node"><title>Node13</title>
<a xlink:href="classstxxl_1_1mng__local_1_1block__w__info.html" target="_top" xlink:title="stxxl::mng_local::block\l_w_info\&lt; Type, RawSize,\l NRef, MetaInfoType \&gt;">
<polygon fill="none" stroke="black" points="2063,-118.5 2063,-165.5 2193,-165.5 2193,-118.5 2063,-118.5"/>
<text text-anchor="start" x="2071" y="-152.5" font-family="Helvetica,sans-Serif" font-size="10.00">stxxl::mng_local::block</text>
<text text-anchor="start" x="2071" y="-139.5" font-family="Helvetica,sans-Serif" font-size="10.00">_w_info&lt; Type, RawSize,</text>
<text text-anchor="middle" x="2128" y="-126.5" font-family="Helvetica,sans-Serif" font-size="10.00"> NRef, MetaInfoType &gt;</text>
</a>
</g>
<!-- Node13&#45;&gt;Node12 -->
<g id="edge30" class="edge"><title>Node13&#45;&gt;Node12</title>
<path fill="none" stroke="midnightblue" d="M2202.87,-160.279C2214.21,-163.046 2226.07,-165.942 2237.87,-168.823"/>
<polygon fill="midnightblue" stroke="midnightblue" points="2203.61,-156.856 2193.06,-157.884 2201.95,-163.656 2203.61,-156.856"/>
</g>
<!-- Node14&#45;&gt;Node13 -->
<g id="edge32" class="edge"><title>Node14&#45;&gt;Node13</title>
<path fill="none" stroke="midnightblue" d="M1720.37,-114.549C1736.18,-112.239 1752.54,-110.234 1768,-109 1830.03,-104.052 1845.95,-104.372 1908,-109 1960.38,-112.907 2019.2,-121.976 2062.83,-129.62"/>
<polygon fill="midnightblue" stroke="midnightblue" points="1719.43,-111.151 1710.07,-116.106 1720.48,-118.072 1719.43,-111.151"/>
</g>
<!-- Node17 -->
<g id="node38" class="node"><title>Node17</title>
<a xlink:href="classstxxl_1_1mng__local_1_1block__w__info.html" target="_top" xlink:title="Contains per block information for stxxl::typed_block , not intended for direct use. ">
<polygon fill="none" stroke="black" points="1773,-118.5 1773,-165.5 1903,-165.5 1903,-118.5 1773,-118.5"/>
<text text-anchor="start" x="1781" y="-152.5" font-family="Helvetica,sans-Serif" font-size="10.00">stxxl::mng_local::block</text>
<text text-anchor="start" x="1781" y="-139.5" font-family="Helvetica,sans-Serif" font-size="10.00">_w_info&lt; Type, RawSize,</text>
<text text-anchor="middle" x="1838" y="-126.5" font-family="Helvetica,sans-Serif" font-size="10.00"> NBids, MetaInfoType &gt;</text>
</a>
</g>
<!-- Node14&#45;&gt;Node17 -->
<g id="edge46" class="edge"><title>Node14&#45;&gt;Node17</title>
<path fill="none" stroke="midnightblue" d="M1720.41,-135.751C1737.97,-136.685 1756.09,-137.647 1772.68,-138.529"/>
<polygon fill="midnightblue" stroke="midnightblue" points="1720.32,-132.241 1710.14,-135.206 1719.94,-139.232 1720.32,-132.241"/>
</g>
<!-- Node15 -->
<g id="node31" class="node"><title>Node15</title>
<a xlink:href="classstxxl_1_1mng__local_1_1element__block.html" target="_top" xlink:title="Contains data elements for stxxl::typed_block , not intended for direct use. ">
<polygon fill="none" stroke="black" points="1066,-186 1066,-220 1194,-220 1194,-186 1066,-186"/>
<text text-anchor="start" x="1074" y="-207" font-family="Helvetica,sans-Serif" font-size="10.00">stxxl::mng_local::element</text>
<text text-anchor="middle" x="1130" y="-194" font-family="Helvetica,sans-Serif" font-size="10.00">_block&lt; Type, Size &gt;</text>
</a>
</g>
<!-- Node15&#45;&gt;Node14 -->
<g id="edge34" class="edge"><title>Node15&#45;&gt;Node14</title>
<path fill="none" stroke="midnightblue" d="M1204.13,-214.382C1286.73,-224.238 1423.24,-232.009 1534,-197 1553.42,-190.861 1572.47,-179.447 1588.48,-167.816"/>
<polygon fill="midnightblue" stroke="midnightblue" points="1204.43,-210.893 1194.08,-213.141 1203.58,-217.841 1204.43,-210.893"/>
</g>
<!-- Node15&#45;&gt;Node16 -->
<g id="edge40" class="edge"><title>Node15&#45;&gt;Node16</title>
<path fill="none" stroke="midnightblue" d="M1203.96,-184.035C1217.66,-180.523 1232.02,-176.842 1245.86,-173.291"/>
<polygon fill="midnightblue" stroke="midnightblue" points="1202.94,-180.685 1194.12,-186.559 1204.68,-187.465 1202.94,-180.685"/>
</g>
<!-- Node16&#45;&gt;Node14 -->
<g id="edge38" class="edge"><title>Node16&#45;&gt;Node14</title>
<path fill="none" stroke="orange" stroke-dasharray="5,2" d="M1414.27,-132.946C1416.87,-132.596 1419.45,-132.279 1422,-132 1464.74,-127.323 1512.7,-126.761 1551.88,-127.508"/>
<polygon fill="orange" stroke="orange" points="1413.56,-129.515 1404.18,-134.451 1414.59,-136.438 1413.56,-129.515"/>
<text text-anchor="start" x="1422" y="-188" font-family="Helvetica,sans-Serif" font-size="10.00"> &lt; Type,((RawSize&#45;sizeof</text>
<text text-anchor="start" x="1422" y="-175" font-family="Helvetica,sans-Serif" font-size="10.00">(BID&lt; RawSize &gt;)*NBids</text>
<text text-anchor="start" x="1422" y="-162" font-family="Helvetica,sans-Serif" font-size="10.00">&#45;sizeof(MetaInfoType))</text>
<text text-anchor="start" x="1422" y="-149" font-family="Helvetica,sans-Serif" font-size="10.00">/sizeof(Type)), RawSize,</text>
<text text-anchor="middle" x="1478" y="-136" font-family="Helvetica,sans-Serif" font-size="10.00"> NBids &gt;</text>
</g>
<!-- Node17&#45;&gt;Node13 -->
<g id="edge44" class="edge"><title>Node17&#45;&gt;Node13</title>
<path fill="none" stroke="orange" stroke-dasharray="5,2" d="M1913.08,-142C1959.49,-142 2018.46,-142 2062.89,-142"/>
<polygon fill="orange" stroke="orange" points="1913.08,-138.5 1903.08,-142 1913.08,-145.5 1913.08,-138.5"/>
<text text-anchor="start" x="1926" y="-159" font-family="Helvetica,sans-Serif" font-size="10.00"> &lt; Type, RawSize, NRef,</text>
<text text-anchor="middle" x="1982" y="-146" font-family="Helvetica,sans-Serif" font-size="10.00"> MetaInfoType &gt;</text>
</g>
<!-- Node18 -->
<g id="node41" class="node"><title>Node18</title>
<a xlink:href="classstxxl_1_1mng__local_1_1filler__struct.html" target="_top" xlink:title="stxxl::mng_local::filler\l_struct\&lt; FillSize \&gt;">
<polygon fill="none" stroke="black" points="1575,-260 1575,-294 1687,-294 1687,-260 1575,-260"/>
<text text-anchor="start" x="1583" y="-281" font-family="Helvetica,sans-Serif" font-size="10.00">stxxl::mng_local::filler</text>
<text text-anchor="middle" x="1631" y="-268" font-family="Helvetica,sans-Serif" font-size="10.00">_struct&lt; FillSize &gt;</text>
</a>
</g>
<!-- Node18&#45;&gt;Node12 -->
<g id="edge48" class="edge"><title>Node18&#45;&gt;Node12</title>
<path fill="none" stroke="#9a32cd" stroke-dasharray="5,2" d="M1697.32,-263.904C1719.74,-259.614 1744.93,-254.941 1768,-251 1895.27,-229.265 1927.38,-224.209 2056,-213 2116.15,-207.759 2183.55,-203.205 2237.69,-199.871"/>
<polygon fill="#9a32cd" stroke="#9a32cd" points="1696.4,-260.518 1687.24,-265.844 1697.72,-267.391 1696.4,-260.518"/>
<text text-anchor="middle" x="1982" y="-230" font-family="Helvetica,sans-Serif" font-size="10.00"> filler</text>
</g>
<!-- Node20 -->
<g id="node45" class="node"><title>Node20</title>
<a xlink:href="classstxxl_1_1mng__local_1_1add__filler.html" target="_top" xlink:title="Contains per block filler for stxxl::typed_block , not intended for direct use. ">
<polygon fill="none" stroke="black" points="1768,-260 1768,-294 1908,-294 1908,-260 1768,-260"/>
<text text-anchor="start" x="1776" y="-281" font-family="Helvetica,sans-Serif" font-size="10.00">stxxl::mng_local::add</text>
<text text-anchor="middle" x="1838" y="-268" font-family="Helvetica,sans-Serif" font-size="10.00">_filler&lt; BaseType, FillSize &gt;</text>
</a>
</g>
<!-- Node18&#45;&gt;Node20 -->
<g id="edge54" class="edge"><title>Node18&#45;&gt;Node20</title>
<path fill="none" stroke="#9a32cd" stroke-dasharray="5,2" d="M1697.17,-277C1719.72,-277 1745.01,-277 1767.87,-277"/>
<polygon fill="#9a32cd" stroke="#9a32cd" points="1697.02,-273.5 1687.02,-277 1697.02,-280.5 1697.02,-273.5"/>
<text text-anchor="middle" x="1739" y="-281" font-family="Helvetica,sans-Serif" font-size="10.00"> filler</text>
</g>
<!-- Node22 -->
<g id="node50" class="node"><title>Node22</title>
<a xlink:href="classstxxl_1_1mng__local_1_1add__filler.html" target="_top" xlink:title="stxxl::mng_local::add\l_filler\&lt; Type, RawSize\l&#45;sizeof(Type)\&gt;">
<polygon fill="none" stroke="black" points="2070,-336.5 2070,-383.5 2186,-383.5 2186,-336.5 2070,-336.5"/>
<text text-anchor="start" x="2078" y="-370.5" font-family="Helvetica,sans-Serif" font-size="10.00">stxxl::mng_local::add</text>
<text text-anchor="start" x="2078" y="-357.5" font-family="Helvetica,sans-Serif" font-size="10.00">_filler&lt; Type, RawSize</text>
<text text-anchor="middle" x="2128" y="-344.5" font-family="Helvetica,sans-Serif" font-size="10.00">&#45;sizeof(Type)&gt;</text>
</a>
</g>
<!-- Node18&#45;&gt;Node22 -->
<g id="edge60" class="edge"><title>Node18&#45;&gt;Node22</title>
<path fill="none" stroke="#9a32cd" stroke-dasharray="5,2" d="M1697.07,-291.772C1756.68,-304.727 1846.89,-323.409 1926,-336 1974.3,-343.688 2029.47,-350.082 2069.93,-354.332"/>
<polygon fill="#9a32cd" stroke="#9a32cd" points="1697.56,-288.296 1687.04,-289.584 1696.06,-295.135 1697.56,-288.296"/>
<text text-anchor="middle" x="1838" y="-336" font-family="Helvetica,sans-Serif" font-size="10.00"> filler</text>
</g>
<!-- Node19 -->
<g id="node43" class="node"><title>Node19</title>
<a xlink:href="classstxxl_1_1mng__local_1_1filler__struct.html" target="_top" xlink:title="stxxl::mng_local::filler\l_struct\&lt; Bytes \&gt;">
<polygon fill="none" stroke="black" points="1269,-260 1269,-294 1381,-294 1381,-260 1269,-260"/>
<text text-anchor="start" x="1277" y="-281" font-family="Helvetica,sans-Serif" font-size="10.00">stxxl::mng_local::filler</text>
<text text-anchor="middle" x="1325" y="-268" font-family="Helvetica,sans-Serif" font-size="10.00">_struct&lt; Bytes &gt;</text>
</a>
</g>
<!-- Node19&#45;&gt;Node18 -->
<g id="edge50" class="edge"><title>Node19&#45;&gt;Node18</title>
<path fill="none" stroke="orange" stroke-dasharray="5,2" d="M1391.44,-277C1446.27,-277 1523.22,-277 1574.97,-277"/>
<polygon fill="orange" stroke="orange" points="1391.13,-273.5 1381.13,-277 1391.13,-280.5 1391.13,-273.5"/>
<text text-anchor="middle" x="1478" y="-281" font-family="Helvetica,sans-Serif" font-size="10.00"> &lt; FillSize &gt;</text>
</g>
<!-- Node20&#45;&gt;Node12 -->
<g id="edge52" class="edge"><title>Node20&#45;&gt;Node12</title>
<path fill="none" stroke="orange" stroke-dasharray="5,2" d="M1918.24,-263.759C2004.86,-249.466 2143.09,-226.657 2237.75,-211.037"/>
<polygon fill="orange" stroke="orange" points="1917.5,-260.334 1908.2,-265.416 1918.64,-267.241 1917.5,-260.334"/>
<text text-anchor="start" x="2056.5" y="-310" font-family="Helvetica,sans-Serif" font-size="10.00"> &lt; mng_local::block</text>
<text text-anchor="start" x="2056.5" y="-297" font-family="Helvetica,sans-Serif" font-size="10.00">_w_info&lt; Type, RawSize,</text>
<text text-anchor="start" x="2056.5" y="-284" font-family="Helvetica,sans-Serif" font-size="10.00"> NRef, MetaInfoType &gt;,</text>
<text text-anchor="start" x="2056.5" y="-271" font-family="Helvetica,sans-Serif" font-size="10.00"> RawSize&#45;sizeof(mng_local</text>
<text text-anchor="start" x="2056.5" y="-258" font-family="Helvetica,sans-Serif" font-size="10.00">::block_w_info&lt; Type, RawSize,</text>
<text text-anchor="middle" x="2128" y="-245" font-family="Helvetica,sans-Serif" font-size="10.00"> NRef, MetaInfoType &gt;)&gt;</text>
</g>
<!-- Node20&#45;&gt;Node22 -->
<g id="edge62" class="edge"><title>Node20&#45;&gt;Node22</title>
<path fill="none" stroke="orange" stroke-dasharray="5,2" d="M1918.75,-282.468C1956.04,-286.956 2000.3,-295.126 2038,-310 2046.94,-313.528 2047.74,-317.083 2056,-322 2064.14,-326.843 2072.95,-331.754 2081.52,-336.365"/>
<polygon fill="orange" stroke="orange" points="1918.76,-278.947 1908.43,-281.298 1917.98,-285.903 1918.76,-278.947"/>
<text text-anchor="start" x="1927.5" y="-327" font-family="Helvetica,sans-Serif" font-size="10.00"> &lt; Type, RawSize&#45;sizeof</text>
<text text-anchor="middle" x="1982" y="-314" font-family="Helvetica,sans-Serif" font-size="10.00">(Type)&gt;</text>
</g>
<!-- Node21 -->
<g id="node48" class="node"><title>Node21</title>
<a xlink:href="classstxxl_1_1mng__local_1_1expand__struct.html" target="_top" xlink:title="Helper to compute the size of the filler , not intended for direct use. ">
<polygon fill="none" stroke="black" points="2275,-299 2275,-333 2407,-333 2407,-299 2275,-299"/>
<text text-anchor="start" x="2283" y="-320" font-family="Helvetica,sans-Serif" font-size="10.00">stxxl::mng_local::expand</text>
<text text-anchor="middle" x="2341" y="-307" font-family="Helvetica,sans-Serif" font-size="10.00">_struct&lt; Type, RawSize &gt;</text>
</a>
</g>
<!-- Node21&#45;&gt;Node11 -->
<g id="edge56" class="edge"><title>Node21&#45;&gt;Node11</title>
<path fill="none" stroke="orange" stroke-dasharray="5,2" d="M2397.07,-295.456C2451.14,-275.649 2533.49,-245.477 2594.35,-223.182"/>
<polygon fill="orange" stroke="orange" points="2395.84,-292.181 2387.65,-298.908 2398.25,-298.754 2395.84,-292.181"/>
<text text-anchor="start" x="2462" y="-312" font-family="Helvetica,sans-Serif" font-size="10.00"> &lt; mng_local::block</text>
<text text-anchor="start" x="2462" y="-299" font-family="Helvetica,sans-Serif" font-size="10.00">_w_info&lt; Type, RawSize,</text>
<text text-anchor="start" x="2462" y="-286" font-family="Helvetica,sans-Serif" font-size="10.00"> NRef, MetaInfoType &gt;,</text>
<text text-anchor="middle" x="2519" y="-273" font-family="Helvetica,sans-Serif" font-size="10.00"> RawSize &gt;</text>
</g>
<!-- Node22&#45;&gt;Node21 -->
<g id="edge58" class="edge"><title>Node22&#45;&gt;Node21</title>
<path fill="none" stroke="midnightblue" d="M2196.07,-345.939C2221.32,-340.722 2249.9,-334.818 2274.97,-329.639"/>
<polygon fill="midnightblue" stroke="midnightblue" points="2195.29,-342.526 2186.2,-347.977 2196.7,-349.381 2195.29,-342.526"/>
</g>
</g>
</svg>
