<?xml version="1.0" encoding="UTF-8" standalone="no"?>
<!DOCTYPE svg PUBLIC "-//W3C//DTD SVG 1.1//EN"
 "http://www.w3.org/Graphics/SVG/1.1/DTD/svg11.dtd">
<!-- Generated by graphviz version 2.38.0 (20140413.2041)
 -->
<!-- Title: stxxl::random_pager&lt; npages_ &gt; Pages: 1 -->
<svg width="314pt" height="284pt"
 viewBox="0.00 0.00 313.50 284.00" xmlns="http://www.w3.org/2000/svg" xmlns:xlink="http://www.w3.org/1999/xlink">
<g id="graph0" class="graph" transform="scale(1 1) rotate(0) translate(4 280)">
<title>stxxl::random_pager&lt; npages_ &gt;</title>
<!-- Node1 -->
<g id="node1" class="node"><title>Node1</title>
<polygon fill="#bfbfbf" stroke="black" points="121,-0.5 121,-30.5 226,-30.5 226,-0.5 121,-0.5"/>
<text text-anchor="start" x="129" y="-18.5" font-family="Helvetica,sans-Serif" font-size="10.00">stxxl::random_pager</text>
<text text-anchor="middle" x="173.5" y="-7.5" font-family="Helvetica,sans-Serif" font-size="10.00">&lt; npages_ &gt;</text>
</g>
<!-- Node2 -->
<g id="node2" class="node"><title>Node2</title>
<g id="a_node2"><a xlink:href="structstxxl_1_1random__number.html" target="_top" xlink:title="stxxl::random_number\l\&lt; stxxl::random_uniform\l_fast \&gt;">
<polygon fill="none" stroke="black" points="112.5,-78.5 112.5,-119.5 234.5,-119.5 234.5,-78.5 112.5,-78.5"/>
<text text-anchor="start" x="120.5" y="-107.5" font-family="Helvetica,sans-Serif" font-size="10.00">stxxl::random_number</text>
<text text-anchor="start" x="120.5" y="-96.5" font-family="Helvetica,sans-Serif" font-size="10.00">&lt; stxxl::random_uniform</text>
<text text-anchor="middle" x="173.5" y="-85.5" font-family="Helvetica,sans-Serif" font-size="10.00">_fast &gt;</text>
</a>
</g>
</g>
<!-- Node2&#45;&gt;Node1 -->
<g id="edge1" class="edge"><title>Node2&#45;&gt;Node1</title>
<path fill="none" stroke="#9a32cd" stroke-dasharray="5,2" d="M173.5,-68.0254C173.5,-55.258 173.5,-40.9702 173.5,-30.6846"/>
<polygon fill="#9a32cd" stroke="#9a32cd" points="170,-68.2711 173.5,-78.2711 177,-68.2712 170,-68.2711"/>
<text text-anchor="middle" x="182" y="-52" font-family="Helvetica,sans-Serif" font-size="10.00"> rnd</text>
</g>
<!-- Node3 -->
<g id="node3" class="node"><title>Node3</title>
<g id="a_node3"><a xlink:href="structstxxl_1_1random__uniform__fast.html" target="_top" xlink:title="Fast uniform [0.0, 1.0) pseudo&#45;random generator. ">
<polygon fill="none" stroke="black" points="0,-184 0,-203 135,-203 135,-184 0,-184"/>
<text text-anchor="middle" x="67.5" y="-191" font-family="Helvetica,sans-Serif" font-size="10.00">stxxl::random_uniform_fast</text>
</a>
</g>
</g>
<!-- Node3&#45;&gt;Node2 -->
<g id="edge2" class="edge"><title>Node3&#45;&gt;Node2</title>
<path fill="none" stroke="#9a32cd" stroke-dasharray="5,2" d="M85.2467,-177.014C103.261,-161.294 131.216,-136.898 150.825,-119.787"/>
<polygon fill="#9a32cd" stroke="#9a32cd" points="82.5156,-174.752 77.2822,-183.964 87.1181,-180.026 82.5156,-174.752"/>
<text text-anchor="middle" x="145.5" y="-146.5" font-family="Helvetica,sans-Serif" font-size="10.00"> uniform</text>
</g>
<!-- Node4 -->
<g id="node4" class="node"><title>Node4</title>
<g id="a_node4"><a xlink:href="structstxxl_1_1random__number32.html" target="_top" xlink:title="Fast uniform [0, 2^32) pseudo&#45;random generator with period 2^32, random bits: 32. ...">
<polygon fill="none" stroke="black" points="5.5,-256.5 5.5,-275.5 129.5,-275.5 129.5,-256.5 5.5,-256.5"/>
<text text-anchor="middle" x="67.5" y="-263.5" font-family="Helvetica,sans-Serif" font-size="10.00">stxxl::random_number32</text>
</a>
</g>
</g>
<!-- Node4&#45;&gt;Node3 -->
<g id="edge3" class="edge"><title>Node4&#45;&gt;Node3</title>
<path fill="none" stroke="#9a32cd" stroke-dasharray="5,2" d="M67.5,-245.942C67.5,-232.03 67.5,-213.82 67.5,-203.215"/>
<polygon fill="#9a32cd" stroke="#9a32cd" points="64.0001,-246.355 67.5,-256.355 71.0001,-246.355 64.0001,-246.355"/>
<text text-anchor="middle" x="81.5" y="-230" font-family="Helvetica,sans-Serif" font-size="10.00"> rnd32</text>
</g>
<!-- Node5 -->
<g id="node5" class="node"><title>Node5</title>
<g id="a_node5"><a xlink:href="structstxxl_1_1random__number.html" target="_top" xlink:title="Uniform [0, N) pseudo&#45;random generator. ">
<polygon fill="none" stroke="black" points="153,-178.5 153,-208.5 266,-208.5 266,-178.5 153,-178.5"/>
<text text-anchor="start" x="161" y="-196.5" font-family="Helvetica,sans-Serif" font-size="10.00">stxxl::random_number</text>
<text text-anchor="middle" x="209.5" y="-185.5" font-family="Helvetica,sans-Serif" font-size="10.00">&lt; UniformRGen &gt;</text>
</a>
</g>
</g>
<!-- Node5&#45;&gt;Node2 -->
<g id="edge4" class="edge"><title>Node5&#45;&gt;Node2</title>
<path fill="none" stroke="orange" stroke-dasharray="5,2" d="M200.246,-168.722C194.327,-153.513 186.74,-134.02 181.16,-119.682"/>
<polygon fill="orange" stroke="orange" points="197.144,-170.402 204.032,-178.451 203.667,-167.863 197.144,-170.402"/>
<text text-anchor="start" x="196.5" y="-152" font-family="Helvetica,sans-Serif" font-size="10.00"> &lt; stxxl::random_uniform</text>
<text text-anchor="middle" x="251" y="-141" font-family="Helvetica,sans-Serif" font-size="10.00">_fast &gt;</text>
</g>
</g>
</svg>
