<?xml version="1.0" encoding="UTF-8" standalone="no"?>
<!DOCTYPE svg PUBLIC "-//W3C//DTD SVG 1.1//EN"
 "http://www.w3.org/Graphics/SVG/1.1/DTD/svg11.dtd">
<!-- Generated by graphviz version 2.26.3 (20100126.1600)
 -->
<!-- Title: stxxl::btree::btree_iterator_base&lt; BTreeType &gt; Pages: 1 -->
<svg width="606pt" height="146pt"
 viewBox="0.00 0.00 606.00 146.00" xmlns="http://www.w3.org/2000/svg" xmlns:xlink="http://www.w3.org/1999/xlink">
<g id="graph1" class="graph" transform="scale(1 1) rotate(0) translate(4 142)">
<title>stxxl::btree::btree_iterator_base&lt; BTreeType &gt;</title>
<!-- Node1 -->
<g id="node1" class="node"><title>Node1</title>
<polygon fill="#bfbfbf" stroke="black" points="0,-52 0,-86 144,-86 144,-52 0,-52"/>
<text text-anchor="start" x="8" y="-73" font-family="Helvetica,sans-Serif" font-size="10.00">stxxl::btree::btree</text>
<text text-anchor="middle" x="72" y="-60" font-family="Helvetica,sans-Serif" font-size="10.00">_iterator_base&lt; BTreeType &gt;</text>
</g>
<!-- Node2 -->
<g id="node3" class="node"><title>Node2</title>
<a xlink:href="classstxxl_1_1btree_1_1btree__const__iterator.html" target="_top" xlink:title="stxxl::btree::btree\l_const_iterator\&lt; BTreeType \&gt;">
<polygon fill="none" stroke="black" points="242.5,-104 242.5,-138 389.5,-138 389.5,-104 242.5,-104"/>
<text text-anchor="start" x="250.5" y="-125" font-family="Helvetica,sans-Serif" font-size="10.00">stxxl::btree::btree</text>
<text text-anchor="middle" x="316" y="-112" font-family="Helvetica,sans-Serif" font-size="10.00">_const_iterator&lt; BTreeType &gt;</text>
</a>
</g>
<!-- Node1&#45;&gt;Node2 -->
<g id="edge2" class="edge"><title>Node1&#45;&gt;Node2</title>
<path fill="none" stroke="midnightblue" d="M154.16,-86.5094C182.685,-92.5887 214.475,-99.3636 242.277,-105.289"/>
<polygon fill="midnightblue" stroke="midnightblue" points="154.728,-83.0519 144.218,-84.3907 153.269,-89.8982 154.728,-83.0519"/>
</g>
<!-- Node3 -->
<g id="node5" class="node"><title>Node3</title>
<a xlink:href="classstxxl_1_1btree_1_1btree__iterator.html" target="_top" xlink:title="stxxl::btree::btree\l_iterator\&lt; BTreeType \&gt;">
<polygon fill="none" stroke="black" points="257,-52 257,-86 375,-86 375,-52 257,-52"/>
<text text-anchor="start" x="265" y="-73" font-family="Helvetica,sans-Serif" font-size="10.00">stxxl::btree::btree</text>
<text text-anchor="middle" x="316" y="-60" font-family="Helvetica,sans-Serif" font-size="10.00">_iterator&lt; BTreeType &gt;</text>
</a>
</g>
<!-- Node1&#45;&gt;Node3 -->
<g id="edge4" class="edge"><title>Node1&#45;&gt;Node3</title>
<path fill="none" stroke="midnightblue" d="M154.465,-69C187.99,-69 225.98,-69 256.692,-69"/>
<polygon fill="midnightblue" stroke="midnightblue" points="154.218,-65.5001 144.218,-69 154.218,-72.5001 154.218,-65.5001"/>
</g>
<!-- Node5 -->
<g id="node9" class="node"><title>Node5</title>
<a xlink:href="classstxxl_1_1btree_1_1btree__iterator__base.html" target="_top" xlink:title="stxxl::btree::btree\l_iterator_base\&lt; SelfType \&gt;">
<polygon fill="none" stroke="black" points="248.5,-0 248.5,-34 383.5,-34 383.5,-0 248.5,-0"/>
<text text-anchor="start" x="256.5" y="-21" font-family="Helvetica,sans-Serif" font-size="10.00">stxxl::btree::btree</text>
<text text-anchor="middle" x="316" y="-8" font-family="Helvetica,sans-Serif" font-size="10.00">_iterator_base&lt; SelfType &gt;</text>
</a>
</g>
<!-- Node1&#45;&gt;Node5 -->
<g id="edge8" class="edge"><title>Node1&#45;&gt;Node5</title>
<path fill="none" stroke="orange" stroke-dasharray="5,2" d="M154.007,-51.5232C184.6,-45.0032 218.966,-37.6793 248.148,-31.4603"/>
<polygon fill="orange" stroke="orange" points="153.269,-48.1018 144.218,-53.6093 154.728,-54.9481 153.269,-48.1018"/>
<text text-anchor="middle" x="193" y="-53" font-family="Helvetica,sans-Serif" font-size="10.00"> &lt; SelfType &gt;</text>
</g>
<!-- Node4 -->
<g id="node7" class="node"><title>Node4</title>
<a xlink:href="classstxxl_1_1btree_1_1btree__iterator.html" target="_top" xlink:title="stxxl::btree::btree\l_iterator\&lt; SelfType \&gt;">
<polygon fill="none" stroke="black" points="488.5,-28 488.5,-62 597.5,-62 597.5,-28 488.5,-28"/>
<text text-anchor="start" x="496.5" y="-49" font-family="Helvetica,sans-Serif" font-size="10.00">stxxl::btree::btree</text>
<text text-anchor="middle" x="543" y="-36" font-family="Helvetica,sans-Serif" font-size="10.00">_iterator&lt; SelfType &gt;</text>
</a>
</g>
<!-- Node3&#45;&gt;Node4 -->
<g id="edge6" class="edge"><title>Node3&#45;&gt;Node4</title>
<path fill="none" stroke="orange" stroke-dasharray="5,2" d="M385.099,-61.6944C418.15,-58.2 457.164,-54.0752 488.142,-50.7999"/>
<polygon fill="orange" stroke="orange" points="384.626,-58.2248 375.049,-62.7569 385.362,-65.186 384.626,-58.2248"/>
<text text-anchor="middle" x="439" y="-63" font-family="Helvetica,sans-Serif" font-size="10.00"> &lt; SelfType &gt;</text>
</g>
<!-- Node5&#45;&gt;Node4 -->
<g id="edge10" class="edge"><title>Node5&#45;&gt;Node4</title>
<path fill="none" stroke="midnightblue" d="M393.766,-26.5923C424.938,-30.4373 460.115,-34.7763 488.483,-38.2755"/>
<polygon fill="midnightblue" stroke="midnightblue" points="394.153,-23.1136 383.8,-25.363 393.296,-30.061 394.153,-23.1136"/>
</g>
</g>
</svg>
