<?xml version="1.0" encoding="UTF-8" standalone="no"?>
<!DOCTYPE svg PUBLIC "-//W3C//DTD SVG 1.1//EN"
 "http://www.w3.org/Graphics/SVG/1.1/DTD/svg11.dtd">
<!-- Generated by graphviz version 2.26.3 (20100126.1600)
 -->
<!-- Title: stxxl::typed_block&lt; RawSize, Type, NRef, MetaInfoType &gt; Pages: 1 -->
<svg width="3260pt" height="326pt"
 viewBox="0.00 0.00 3260.00 326.24" xmlns="http://www.w3.org/2000/svg" xmlns:xlink="http://www.w3.org/1999/xlink">
<g id="graph1" class="graph" transform="scale(1 1) rotate(0) translate(4 322.242)">
<title>stxxl::typed_block&lt; RawSize, Type, NRef, MetaInfoType &gt;</title>
<!-- Node1 -->
<g id="node1" class="node"><title>Node1</title>
<polygon fill="#bfbfbf" stroke="black" points="3126.5,-75.5 3126.5,-122.5 3251.5,-122.5 3251.5,-75.5 3126.5,-75.5"/>
<text text-anchor="start" x="3134.5" y="-109.5" font-family="Helvetica,sans-Serif" font-size="10.00">stxxl::typed_block</text>
<text text-anchor="start" x="3134.5" y="-96.5" font-family="Helvetica,sans-Serif" font-size="10.00">&lt; RawSize, Type, NRef,</text>
<text text-anchor="middle" x="3189" y="-83.5" font-family="Helvetica,sans-Serif" font-size="10.00"> MetaInfoType &gt;</text>
</g>
<!-- Node2 -->
<g id="node2" class="node"><title>Node2</title>
<a xlink:href="classstxxl_1_1mng__local_1_1expand__struct.html" target="_top" xlink:title="stxxl::mng_local::expand\l_struct\&lt; mng_local::block\l_w_info\&lt; Type, RawSize, NRef,\l MetaInfoType \&gt;, RawSize \&gt;">
<polygon fill="none" stroke="black" points="2928.5,-69 2928.5,-129 3087.5,-129 3087.5,-69 2928.5,-69"/>
<text text-anchor="start" x="2936.5" y="-116" font-family="Helvetica,sans-Serif" font-size="10.00">stxxl::mng_local::expand</text>
<text text-anchor="start" x="2936.5" y="-103" font-family="Helvetica,sans-Serif" font-size="10.00">_struct&lt; mng_local::block</text>
<text text-anchor="start" x="2936.5" y="-90" font-family="Helvetica,sans-Serif" font-size="10.00">_w_info&lt; Type, RawSize, NRef,</text>
<text text-anchor="middle" x="3008" y="-77" font-family="Helvetica,sans-Serif" font-size="10.00"> MetaInfoType &gt;, RawSize &gt;</text>
</a>
</g>
<!-- Node2&#45;&gt;Node1 -->
<g id="edge2" class="edge"><title>Node2&#45;&gt;Node1</title>
<path fill="none" stroke="midnightblue" d="M3097.74,-99C3107.45,-99 3117.17,-99 3126.45,-99"/>
<polygon fill="midnightblue" stroke="midnightblue" points="3097.65,-95.5001 3087.65,-99 3097.65,-102.5 3097.65,-95.5001"/>
</g>
<!-- Node3 -->
<g id="node4" class="node"><title>Node3</title>
<a xlink:href="classstxxl_1_1mng__local_1_1add__filler.html" target="_top" xlink:title="stxxl::mng_local::add\l_filler\&lt; mng_local::block\l_w_info\&lt; Type, RawSize,\l NRef, MetaInfoType \&gt;, RawSize\l&#45;sizeof(mng_local::block_w_info\l\&lt; Type, RawSize, NRef, MetaInfoType \&gt;)\&gt;">
<polygon fill="none" stroke="black" points="2402,-94 2402,-180 2608,-180 2608,-94 2402,-94"/>
<text text-anchor="start" x="2410" y="-167" font-family="Helvetica,sans-Serif" font-size="10.00">stxxl::mng_local::add</text>
<text text-anchor="start" x="2410" y="-154" font-family="Helvetica,sans-Serif" font-size="10.00">_filler&lt; mng_local::block</text>
<text text-anchor="start" x="2410" y="-141" font-family="Helvetica,sans-Serif" font-size="10.00">_w_info&lt; Type, RawSize,</text>
<text text-anchor="start" x="2410" y="-128" font-family="Helvetica,sans-Serif" font-size="10.00"> NRef, MetaInfoType &gt;, RawSize</text>
<text text-anchor="start" x="2410" y="-115" font-family="Helvetica,sans-Serif" font-size="10.00">&#45;sizeof(mng_local::block_w_info</text>
<text text-anchor="middle" x="2505" y="-102" font-family="Helvetica,sans-Serif" font-size="10.00">&lt; Type, RawSize, NRef, MetaInfoType &gt;)&gt;</text>
</a>
</g>
<!-- Node3&#45;&gt;Node2 -->
<g id="edge4" class="edge"><title>Node3&#45;&gt;Node2</title>
<path fill="none" stroke="midnightblue" d="M2618.47,-137.355C2699.9,-136.365 2812.09,-132.455 2910,-120 2915.96,-119.243 2922.08,-118.308 2928.23,-117.257"/>
<polygon fill="midnightblue" stroke="midnightblue" points="2618.15,-133.858 2608.19,-137.466 2618.23,-140.858 2618.15,-133.858"/>
</g>
<!-- Node4 -->
<g id="node6" class="node"><title>Node4</title>
<a xlink:href="classstxxl_1_1mng__local_1_1block__w__info.html" target="_top" xlink:title="stxxl::mng_local::block\l_w_info\&lt; Type, RawSize,\l NRef, MetaInfoType \&gt;">
<polygon fill="none" stroke="black" points="2087,-197.5 2087,-244.5 2217,-244.5 2217,-197.5 2087,-197.5"/>
<text text-anchor="start" x="2095" y="-231.5" font-family="Helvetica,sans-Serif" font-size="10.00">stxxl::mng_local::block</text>
<text text-anchor="start" x="2095" y="-218.5" font-family="Helvetica,sans-Serif" font-size="10.00">_w_info&lt; Type, RawSize,</text>
<text text-anchor="middle" x="2152" y="-205.5" font-family="Helvetica,sans-Serif" font-size="10.00"> NRef, MetaInfoType &gt;</text>
</a>
</g>
<!-- Node4&#45;&gt;Node3 -->
<g id="edge6" class="edge"><title>Node4&#45;&gt;Node3</title>
<path fill="none" stroke="midnightblue" d="M2227.27,-210.946C2273,-204.036 2332.34,-193.641 2384,-180 2389.82,-178.463 2395.76,-176.772 2401.72,-174.977"/>
<polygon fill="midnightblue" stroke="midnightblue" points="2226.51,-207.52 2217.13,-212.454 2227.54,-214.444 2226.51,-207.52"/>
</g>
<!-- Node5 -->
<g id="node8" class="node"><title>Node5</title>
<a xlink:href="classstxxl_1_1mng__local_1_1block__w__bids.html" target="_top" xlink:title="stxxl::mng_local::block\l_w_bids\&lt; Type,((RawSize\l&#45;sizeof(BID\&lt; RawSize \&gt;)*NBids\l&#45;sizeof(MetaInfoType))/sizeof\l(Type)), RawSize, NBids \&gt;">
<polygon fill="none" stroke="black" points="1556,-193.5 1556,-266.5 1714,-266.5 1714,-193.5 1556,-193.5"/>
<text text-anchor="start" x="1564" y="-253.5" font-family="Helvetica,sans-Serif" font-size="10.00">stxxl::mng_local::block</text>
<text text-anchor="start" x="1564" y="-240.5" font-family="Helvetica,sans-Serif" font-size="10.00">_w_bids&lt; Type,((RawSize</text>
<text text-anchor="start" x="1564" y="-227.5" font-family="Helvetica,sans-Serif" font-size="10.00">&#45;sizeof(BID&lt; RawSize &gt;)*NBids</text>
<text text-anchor="start" x="1564" y="-214.5" font-family="Helvetica,sans-Serif" font-size="10.00">&#45;sizeof(MetaInfoType))/sizeof</text>
<text text-anchor="middle" x="1635" y="-201.5" font-family="Helvetica,sans-Serif" font-size="10.00">(Type)), RawSize, NBids &gt;</text>
</a>
</g>
<!-- Node5&#45;&gt;Node4 -->
<g id="edge8" class="edge"><title>Node5&#45;&gt;Node4</title>
<path fill="none" stroke="midnightblue" d="M1724.48,-240.015C1811.49,-247.986 1947.27,-255.736 2064,-242 2071.49,-241.119 2079.26,-239.83 2086.95,-238.317"/>
<polygon fill="midnightblue" stroke="midnightblue" points="1724.66,-236.516 1714.37,-239.068 1724,-243.486 1724.66,-236.516"/>
</g>
<!-- Node16 -->
<g id="node34" class="node"><title>Node16</title>
<a xlink:href="classstxxl_1_1mng__local_1_1block__w__info.html" target="_top" xlink:title="Contains per block information for stxxl::typed_block , not intended for direct use. ">
<polygon fill="none" stroke="black" points="1804,-180.5 1804,-227.5 1934,-227.5 1934,-180.5 1804,-180.5"/>
<text text-anchor="start" x="1812" y="-214.5" font-family="Helvetica,sans-Serif" font-size="10.00">stxxl::mng_local::block</text>
<text text-anchor="start" x="1812" y="-201.5" font-family="Helvetica,sans-Serif" font-size="10.00">_w_info&lt; Type, RawSize,</text>
<text text-anchor="middle" x="1869" y="-188.5" font-family="Helvetica,sans-Serif" font-size="10.00"> NBids, MetaInfoType &gt;</text>
</a>
</g>
<!-- Node5&#45;&gt;Node16 -->
<g id="edge40" class="edge"><title>Node5&#45;&gt;Node16</title>
<path fill="none" stroke="midnightblue" d="M1724.26,-220.082C1750.73,-217.141 1779.22,-213.976 1803.86,-211.238"/>
<polygon fill="midnightblue" stroke="midnightblue" points="1723.77,-216.615 1714.22,-221.198 1724.55,-223.572 1723.77,-216.615"/>
</g>
<!-- Node6 -->
<g id="node10" class="node"><title>Node6</title>
<a xlink:href="classstxxl_1_1mng__local_1_1element__block.html" target="_top" xlink:title="Contains data elements for stxxl::typed_block , not intended for direct use. ">
<polygon fill="none" stroke="black" points="1070,-273 1070,-307 1198,-307 1198,-273 1070,-273"/>
<text text-anchor="start" x="1078" y="-294" font-family="Helvetica,sans-Serif" font-size="10.00">stxxl::mng_local::element</text>
<text text-anchor="middle" x="1134" y="-281" font-family="Helvetica,sans-Serif" font-size="10.00">_block&lt; Type, Size &gt;</text>
</a>
</g>
<!-- Node6&#45;&gt;Node5 -->
<g id="edge10" class="edge"><title>Node6&#45;&gt;Node5</title>
<path fill="none" stroke="midnightblue" d="M1208.39,-304.564C1290.95,-317.671 1427.15,-330.136 1538,-296 1557.66,-289.945 1576.91,-278.395 1593.01,-266.628"/>
<polygon fill="midnightblue" stroke="midnightblue" points="1208.78,-301.081 1198.35,-302.924 1207.65,-307.99 1208.78,-301.081"/>
</g>
<!-- Node15 -->
<g id="node30" class="node"><title>Node15</title>
<a xlink:href="classstxxl_1_1mng__local_1_1block__w__bids.html" target="_top" xlink:title="Contains BID references for stxxl::typed_block , not intended for direct use. ">
<polygon fill="none" stroke="black" points="1250,-228.5 1250,-275.5 1408,-275.5 1408,-228.5 1250,-228.5"/>
<text text-anchor="start" x="1258" y="-262.5" font-family="Helvetica,sans-Serif" font-size="10.00">stxxl::mng_local::block</text>
<text text-anchor="start" x="1258" y="-249.5" font-family="Helvetica,sans-Serif" font-size="10.00">_w_bids&lt; Type, Size, RawSize,</text>
<text text-anchor="middle" x="1329" y="-236.5" font-family="Helvetica,sans-Serif" font-size="10.00"> NBids &gt;</text>
</a>
</g>
<!-- Node6&#45;&gt;Node15 -->
<g id="edge34" class="edge"><title>Node6&#45;&gt;Node15</title>
<path fill="none" stroke="midnightblue" d="M1207.96,-275.587C1221.66,-272.917 1236.02,-270.12 1249.86,-267.421"/>
<polygon fill="midnightblue" stroke="midnightblue" points="1207.27,-272.157 1198.12,-277.505 1208.61,-279.027 1207.27,-272.157"/>
</g>
<!-- Node7 -->
<g id="node12" class="node"><title>Node7</title>
<a xlink:href="structstxxl_1_1BID.html" target="_top" xlink:title="stxxl::BID\&lt; raw_size \&gt;">
<polygon fill="none" stroke="black" points="1075,-216.5 1075,-237.5 1193,-237.5 1193,-216.5 1075,-216.5"/>
<text text-anchor="middle" x="1134" y="-224.5" font-family="Helvetica,sans-Serif" font-size="10.00">stxxl::BID&lt; raw_size &gt;</text>
</a>
</g>
<!-- Node7&#45;&gt;Node5 -->
<g id="edge12" class="edge"><title>Node7&#45;&gt;Node5</title>
<path fill="none" stroke="#9a32cd" stroke-dasharray="5,2" d="M1190.99,-214.586C1209.7,-211.075 1230.65,-207.738 1250,-206 1355.56,-196.522 1477.73,-207.933 1555.64,-218.029"/>
<polygon fill="#9a32cd" stroke="#9a32cd" points="1190.3,-211.154 1181.15,-216.487 1191.63,-218.027 1190.3,-211.154"/>
<text text-anchor="middle" x="1329" y="-210" font-family="Helvetica,sans-Serif" font-size="10.00"> ref</text>
</g>
<!-- Node7&#45;&gt;Node15 -->
<g id="edge36" class="edge"><title>Node7&#45;&gt;Node15</title>
<path fill="none" stroke="#9a32cd" stroke-dasharray="5,2" d="M1203.26,-235.879C1218.28,-237.805 1234.27,-239.855 1249.65,-241.826"/>
<polygon fill="#9a32cd" stroke="#9a32cd" points="1203.4,-232.369 1193.04,-234.569 1202.51,-239.312 1203.4,-232.369"/>
<text text-anchor="middle" x="1224" y="-243" font-family="Helvetica,sans-Serif" font-size="10.00"> ref</text>
</g>
<!-- Node8 -->
<g id="node14" class="node"><title>Node8</title>
<a xlink:href="classstxxl_1_1file.html" target="_top" xlink:title="Defines interface of file. ">
<polygon fill="none" stroke="black" points="742,-212.5 742,-233.5 798,-233.5 798,-212.5 742,-212.5"/>
<text text-anchor="middle" x="770" y="-220.5" font-family="Helvetica,sans-Serif" font-size="10.00">stxxl::file</text>
</a>
</g>
<!-- Node8&#45;&gt;Node7 -->
<g id="edge14" class="edge"><title>Node8&#45;&gt;Node7</title>
<path fill="none" stroke="#9a32cd" stroke-dasharray="5,2" d="M808.252,-227.476C810.872,-227.684 813.473,-227.863 816,-228 920.735,-233.675 947.113,-228.64 1052,-228 1059.4,-227.955 1067.18,-227.887 1074.88,-227.807"/>
<polygon fill="#9a32cd" stroke="#9a32cd" points="808.458,-223.98 798.18,-226.551 807.818,-230.951 808.458,-223.98"/>
<text text-anchor="middle" x="921" y="-234" font-family="Helvetica,sans-Serif" font-size="10.00"> storage</text>
</g>
<!-- Node14 -->
<g id="node27" class="node"><title>Node14</title>
<a xlink:href="structstxxl_1_1BID.html" target="_top" xlink:title="Block identifier class. ">
<polygon fill="none" stroke="black" points="870.5,-184.5 870.5,-205.5 971.5,-205.5 971.5,-184.5 870.5,-184.5"/>
<text text-anchor="middle" x="921" y="-192.5" font-family="Helvetica,sans-Serif" font-size="10.00">stxxl::BID&lt; SIZE &gt;</text>
</a>
</g>
<!-- Node8&#45;&gt;Node14 -->
<g id="edge30" class="edge"><title>Node8&#45;&gt;Node14</title>
<path fill="none" stroke="#9a32cd" stroke-dasharray="5,2" d="M808.083,-215.938C827.001,-212.43 850.115,-208.144 870.491,-204.366"/>
<polygon fill="#9a32cd" stroke="#9a32cd" points="807.242,-212.534 798.048,-217.799 808.519,-219.417 807.242,-212.534"/>
<text text-anchor="middle" x="834" y="-217" font-family="Helvetica,sans-Serif" font-size="10.00"> storage</text>
</g>
<!-- Node9 -->
<g id="node16" class="node"><title>Node9</title>
<a xlink:href="classstxxl_1_1noncopyable.html" target="_top" xlink:title="stxxl::noncopyable">
<polygon fill="none" stroke="black" points="11,-214.5 11,-235.5 109,-235.5 109,-214.5 11,-214.5"/>
<text text-anchor="middle" x="60" y="-222.5" font-family="Helvetica,sans-Serif" font-size="10.00">stxxl::noncopyable</text>
</a>
</g>
<!-- Node9&#45;&gt;Node8 -->
<g id="edge16" class="edge"><title>Node9&#45;&gt;Node8</title>
<path fill="none" stroke="#8b1a1a" d="M119.244,-225.313C235.306,-225.836 500.773,-226.594 724,-224 729.751,-223.933 735.906,-223.825 741.782,-223.704"/>
<polygon fill="#8b1a1a" stroke="#8b1a1a" points="119.165,-221.812 109.149,-225.266 119.133,-228.812 119.165,-221.812"/>
</g>
<!-- Node11 -->
<g id="node20" class="node"><title>Node11</title>
<a xlink:href="classstxxl_1_1mutex.html" target="_top" xlink:title="stxxl::mutex">
<polygon fill="none" stroke="black" points="274.5,-188.5 274.5,-209.5 345.5,-209.5 345.5,-188.5 274.5,-188.5"/>
<text text-anchor="middle" x="310" y="-196.5" font-family="Helvetica,sans-Serif" font-size="10.00">stxxl::mutex</text>
</a>
</g>
<!-- Node9&#45;&gt;Node11 -->
<g id="edge22" class="edge"><title>Node9&#45;&gt;Node11</title>
<path fill="none" stroke="#8b1a1a" d="M119.093,-218.854C167.33,-213.838 233.906,-206.914 274.346,-202.708"/>
<polygon fill="#8b1a1a" stroke="#8b1a1a" points="118.678,-215.379 109.094,-219.894 119.402,-222.341 118.678,-215.379"/>
</g>
<!-- Node10 -->
<g id="node18" class="node"><title>Node10</title>
<a xlink:href="classstxxl_1_1atomic__counted__object.html" target="_top" xlink:title="Provides reference counting abilities for use with counting_ptr with mutex locking. ">
<polygon fill="none" stroke="black" points="526.5,-176 526.5,-210 639.5,-210 639.5,-176 526.5,-176"/>
<text text-anchor="start" x="534.5" y="-197" font-family="Helvetica,sans-Serif" font-size="10.00">stxxl::atomic_counted</text>
<text text-anchor="middle" x="583" y="-184" font-family="Helvetica,sans-Serif" font-size="10.00">_object</text>
</a>
</g>
<!-- Node10&#45;&gt;Node8 -->
<g id="edge18" class="edge"><title>Node10&#45;&gt;Node8</title>
<path fill="none" stroke="#9a32cd" stroke-dasharray="5,2" d="M649.767,-199.745C673.329,-202.594 699.94,-206.346 724,-211 729.834,-212.129 736.025,-213.572 741.911,-215.063"/>
<polygon fill="#9a32cd" stroke="#9a32cd" points="649.866,-196.232 639.525,-198.539 649.048,-203.184 649.866,-196.232"/>
<text text-anchor="middle" x="691" y="-215" font-family="Helvetica,sans-Serif" font-size="10.00"> m_request_ref</text>
</g>
<!-- Node11&#45;&gt;Node10 -->
<g id="edge20" class="edge"><title>Node11&#45;&gt;Node10</title>
<path fill="none" stroke="#9a32cd" stroke-dasharray="5,2" d="M355.875,-197.992C402.83,-196.96 475.885,-195.354 526.403,-194.244"/>
<polygon fill="#9a32cd" stroke="#9a32cd" points="355.611,-194.497 345.69,-198.216 355.765,-201.495 355.611,-194.497"/>
<text text-anchor="middle" x="448" y="-201" font-family="Helvetica,sans-Serif" font-size="10.00"> m_reference_count_mutex</text>
</g>
<!-- Node12 -->
<g id="node23" class="node"><title>Node12</title>
<a xlink:href="structstxxl_1_1choose__int__types.html" target="_top" xlink:title="stxxl::choose_int_types\l\&lt; my_pointer_size \&gt;">
<polygon fill="none" stroke="black" points="250,-136 250,-170 370,-170 370,-136 250,-136"/>
<text text-anchor="start" x="258" y="-157" font-family="Helvetica,sans-Serif" font-size="10.00">stxxl::choose_int_types</text>
<text text-anchor="middle" x="310" y="-144" font-family="Helvetica,sans-Serif" font-size="10.00">&lt; my_pointer_size &gt;</text>
</a>
</g>
<!-- Node12&#45;&gt;Node10 -->
<g id="edge24" class="edge"><title>Node12&#45;&gt;Node10</title>
<path fill="none" stroke="#9a32cd" stroke-dasharray="5,2" d="M380.835,-160.03C418.686,-164.179 466.011,-169.991 508,-177 513.909,-177.986 520.059,-179.12 526.181,-180.32"/>
<polygon fill="#9a32cd" stroke="#9a32cd" points="380.741,-156.5 370.423,-158.905 379.989,-163.459 380.741,-156.5"/>
<text text-anchor="middle" x="448" y="-181" font-family="Helvetica,sans-Serif" font-size="10.00"> m_reference_count</text>
</g>
<!-- Node13 -->
<g id="node25" class="node"><title>Node13</title>
<a xlink:href="structstxxl_1_1choose__int__types.html" target="_top" xlink:title="stxxl::choose_int_types\l\&lt; PtrSize \&gt;">
<polygon fill="none" stroke="black" points="0,-136 0,-170 120,-170 120,-136 0,-136"/>
<text text-anchor="start" x="8" y="-157" font-family="Helvetica,sans-Serif" font-size="10.00">stxxl::choose_int_types</text>
<text text-anchor="middle" x="60" y="-144" font-family="Helvetica,sans-Serif" font-size="10.00">&lt; PtrSize &gt;</text>
</a>
</g>
<!-- Node13&#45;&gt;Node12 -->
<g id="edge26" class="edge"><title>Node13&#45;&gt;Node12</title>
<path fill="none" stroke="orange" stroke-dasharray="5,2" d="M130.578,-153C168.196,-153 213.985,-153 249.89,-153"/>
<polygon fill="orange" stroke="orange" points="130.199,-149.5 120.199,-153 130.199,-156.5 130.199,-149.5"/>
<text text-anchor="middle" x="185" y="-157" font-family="Helvetica,sans-Serif" font-size="10.00"> &lt; my_pointer_size &gt;</text>
</g>
<!-- Node14&#45;&gt;Node7 -->
<g id="edge28" class="edge"><title>Node14&#45;&gt;Node7</title>
<path fill="none" stroke="orange" stroke-dasharray="5,2" d="M981.834,-204.139C1011.07,-208.531 1045.97,-213.774 1074.96,-218.13"/>
<polygon fill="orange" stroke="orange" points="982.157,-200.649 971.748,-202.624 981.117,-207.571 982.157,-200.649"/>
<text text-anchor="middle" x="1021" y="-217" font-family="Helvetica,sans-Serif" font-size="10.00"> &lt; raw_size &gt;</text>
</g>
<!-- Node15&#45;&gt;Node5 -->
<g id="edge32" class="edge"><title>Node15&#45;&gt;Node5</title>
<path fill="none" stroke="orange" stroke-dasharray="5,2" d="M1418.27,-231.946C1420.87,-231.596 1423.45,-231.279 1426,-231 1468.74,-226.323 1516.7,-225.761 1555.88,-226.508"/>
<polygon fill="orange" stroke="orange" points="1417.56,-228.515 1408.18,-233.451 1418.59,-235.438 1417.56,-228.515"/>
<text text-anchor="start" x="1426" y="-287" font-family="Helvetica,sans-Serif" font-size="10.00"> &lt; Type,((RawSize&#45;sizeof</text>
<text text-anchor="start" x="1426" y="-274" font-family="Helvetica,sans-Serif" font-size="10.00">(BID&lt; RawSize &gt;)*NBids</text>
<text text-anchor="start" x="1426" y="-261" font-family="Helvetica,sans-Serif" font-size="10.00">&#45;sizeof(MetaInfoType))</text>
<text text-anchor="start" x="1426" y="-248" font-family="Helvetica,sans-Serif" font-size="10.00">/sizeof(Type)), RawSize,</text>
<text text-anchor="middle" x="1482" y="-235" font-family="Helvetica,sans-Serif" font-size="10.00"> NBids &gt;</text>
</g>
<!-- Node16&#45;&gt;Node4 -->
<g id="edge38" class="edge"><title>Node16&#45;&gt;Node4</title>
<path fill="none" stroke="orange" stroke-dasharray="5,2" d="M1944.42,-208.53C1988.7,-211.19 2044.12,-214.52 2086.56,-217.069"/>
<polygon fill="orange" stroke="orange" points="1944.47,-205.028 1934.28,-207.921 1944.05,-212.015 1944.47,-205.028"/>
<text text-anchor="start" x="1952" y="-232" font-family="Helvetica,sans-Serif" font-size="10.00"> &lt; Type, RawSize, NRef,</text>
<text text-anchor="middle" x="2008" y="-219" font-family="Helvetica,sans-Serif" font-size="10.00"> MetaInfoType &gt;</text>
</g>
<!-- Node17 -->
<g id="node37" class="node"><title>Node17</title>
<a xlink:href="classstxxl_1_1mng__local_1_1filler__struct.html" target="_top" xlink:title="stxxl::mng_local::filler\l_struct\&lt; FillSize \&gt;">
<polygon fill="none" stroke="black" points="1813,-39 1813,-73 1925,-73 1925,-39 1813,-39"/>
<text text-anchor="start" x="1821" y="-60" font-family="Helvetica,sans-Serif" font-size="10.00">stxxl::mng_local::filler</text>
<text text-anchor="middle" x="1869" y="-47" font-family="Helvetica,sans-Serif" font-size="10.00">_struct&lt; FillSize &gt;</text>
</a>
</g>
<!-- Node17&#45;&gt;Node3 -->
<g id="edge42" class="edge"><title>Node17&#45;&gt;Node3</title>
<path fill="none" stroke="#9a32cd" stroke-dasharray="5,2" d="M1928.18,-76.2865C2000.65,-99.9635 2127.64,-137.699 2240,-152 2303.49,-160.081 2320.12,-155.944 2384,-152 2389.81,-151.641 2395.77,-151.186 2401.78,-150.66"/>
<polygon fill="#9a32cd" stroke="#9a32cd" points="1928.92,-72.8441 1918.32,-73.0428 1926.73,-79.4933 1928.92,-72.8441"/>
<text text-anchor="middle" x="2152" y="-152" font-family="Helvetica,sans-Serif" font-size="10.00"> filler</text>
</g>
<!-- Node19 -->
<g id="node41" class="node"><title>Node19</title>
<a xlink:href="classstxxl_1_1mng__local_1_1add__filler.html" target="_top" xlink:title="Contains per block filler for stxxl::typed_block , not intended for direct use. ">
<polygon fill="none" stroke="black" points="2082,-39 2082,-73 2222,-73 2222,-39 2082,-39"/>
<text text-anchor="start" x="2090" y="-60" font-family="Helvetica,sans-Serif" font-size="10.00">stxxl::mng_local::add</text>
<text text-anchor="middle" x="2152" y="-47" font-family="Helvetica,sans-Serif" font-size="10.00">_filler&lt; BaseType, FillSize &gt;</text>
</a>
</g>
<!-- Node17&#45;&gt;Node19 -->
<g id="edge48" class="edge"><title>Node17&#45;&gt;Node19</title>
<path fill="none" stroke="#9a32cd" stroke-dasharray="5,2" d="M1935.27,-56C1979.29,-56 2037,-56 2081.8,-56"/>
<polygon fill="#9a32cd" stroke="#9a32cd" points="1935.25,-52.5001 1925.25,-56 1935.25,-59.5001 1935.25,-52.5001"/>
<text text-anchor="middle" x="2008" y="-60" font-family="Helvetica,sans-Serif" font-size="10.00"> filler</text>
</g>
<!-- Node21 -->
<g id="node46" class="node"><title>Node21</title>
<a xlink:href="classstxxl_1_1mng__local_1_1add__filler.html" target="_top" xlink:title="stxxl::mng_local::add\l_filler\&lt; Type, RawSize\l&#45;sizeof(Type)\&gt;">
<polygon fill="none" stroke="black" points="2447,-0.5 2447,-47.5 2563,-47.5 2563,-0.5 2447,-0.5"/>
<text text-anchor="start" x="2455" y="-34.5" font-family="Helvetica,sans-Serif" font-size="10.00">stxxl::mng_local::add</text>
<text text-anchor="start" x="2455" y="-21.5" font-family="Helvetica,sans-Serif" font-size="10.00">_filler&lt; Type, RawSize</text>
<text text-anchor="middle" x="2505" y="-8.5" font-family="Helvetica,sans-Serif" font-size="10.00">&#45;sizeof(Type)&gt;</text>
</a>
</g>
<!-- Node17&#45;&gt;Node21 -->
<g id="edge54" class="edge"><title>Node17&#45;&gt;Node21</title>
<path fill="none" stroke="#9a32cd" stroke-dasharray="5,2" d="M1934.97,-41.2887C1976.86,-32.6041 2032.34,-22.3022 2082,-17 2215.48,-2.74856 2249.92,-5.36784 2384,-12 2404.56,-13.0169 2427.01,-14.9998 2446.93,-17.0655"/>
<polygon fill="#9a32cd" stroke="#9a32cd" points="1934.24,-37.866 1925.17,-43.3428 1935.68,-44.7172 1934.24,-37.866"/>
<text text-anchor="middle" x="2152" y="-21" font-family="Helvetica,sans-Serif" font-size="10.00"> filler</text>
</g>
<!-- Node18 -->
<g id="node39" class="node"><title>Node18</title>
<a xlink:href="classstxxl_1_1mng__local_1_1filler__struct.html" target="_top" xlink:title="stxxl::mng_local::filler\l_struct\&lt; Bytes \&gt;">
<polygon fill="none" stroke="black" points="1579,-39 1579,-73 1691,-73 1691,-39 1579,-39"/>
<text text-anchor="start" x="1587" y="-60" font-family="Helvetica,sans-Serif" font-size="10.00">stxxl::mng_local::filler</text>
<text text-anchor="middle" x="1635" y="-47" font-family="Helvetica,sans-Serif" font-size="10.00">_struct&lt; Bytes &gt;</text>
</a>
</g>
<!-- Node18&#45;&gt;Node17 -->
<g id="edge44" class="edge"><title>Node18&#45;&gt;Node17</title>
<path fill="none" stroke="orange" stroke-dasharray="5,2" d="M1701.22,-56C1736.35,-56 1779.06,-56 1812.6,-56"/>
<polygon fill="orange" stroke="orange" points="1701.05,-52.5001 1691.05,-56 1701.05,-59.5001 1701.05,-52.5001"/>
<text text-anchor="middle" x="1759" y="-60" font-family="Helvetica,sans-Serif" font-size="10.00"> &lt; FillSize &gt;</text>
</g>
<!-- Node19&#45;&gt;Node3 -->
<g id="edge46" class="edge"><title>Node19&#45;&gt;Node3</title>
<path fill="none" stroke="orange" stroke-dasharray="5,2" d="M2232.14,-54.3598C2277.49,-55.3669 2334.8,-59.9202 2384,-74 2400.74,-78.7895 2417.84,-86.022 2433.71,-93.8999"/>
<polygon fill="orange" stroke="orange" points="2232.12,-50.8591 2222.06,-54.1896 2232,-57.8581 2232.12,-50.8591"/>
<text text-anchor="start" x="2240.5" y="-143" font-family="Helvetica,sans-Serif" font-size="10.00"> &lt; mng_local::block</text>
<text text-anchor="start" x="2240.5" y="-130" font-family="Helvetica,sans-Serif" font-size="10.00">_w_info&lt; Type, RawSize,</text>
<text text-anchor="start" x="2240.5" y="-117" font-family="Helvetica,sans-Serif" font-size="10.00"> NRef, MetaInfoType &gt;,</text>
<text text-anchor="start" x="2240.5" y="-104" font-family="Helvetica,sans-Serif" font-size="10.00"> RawSize&#45;sizeof(mng_local</text>
<text text-anchor="start" x="2240.5" y="-91" font-family="Helvetica,sans-Serif" font-size="10.00">::block_w_info&lt; Type, RawSize,</text>
<text text-anchor="middle" x="2312" y="-78" font-family="Helvetica,sans-Serif" font-size="10.00"> NRef, MetaInfoType &gt;)&gt;</text>
</g>
<!-- Node19&#45;&gt;Node21 -->
<g id="edge56" class="edge"><title>Node19&#45;&gt;Node21</title>
<path fill="none" stroke="orange" stroke-dasharray="5,2" d="M2201.26,-35.3984C2213.69,-31.1103 2227.15,-27.2215 2240,-25 2310.38,-12.8289 2392.86,-15.0523 2446.88,-18.6874"/>
<polygon fill="orange" stroke="orange" points="2199.77,-32.2153 2191.55,-38.8987 2202.14,-38.8007 2199.77,-32.2153"/>
<text text-anchor="start" x="2257.5" y="-42" font-family="Helvetica,sans-Serif" font-size="10.00"> &lt; Type, RawSize&#45;sizeof</text>
<text text-anchor="middle" x="2312" y="-29" font-family="Helvetica,sans-Serif" font-size="10.00">(Type)&gt;</text>
</g>
<!-- Node20 -->
<g id="node44" class="node"><title>Node20</title>
<a xlink:href="classstxxl_1_1mng__local_1_1expand__struct.html" target="_top" xlink:title="Helper to compute the size of the filler , not intended for direct use. ">
<polygon fill="none" stroke="black" points="2646,-41 2646,-75 2778,-75 2778,-41 2646,-41"/>
<text text-anchor="start" x="2654" y="-62" font-family="Helvetica,sans-Serif" font-size="10.00">stxxl::mng_local::expand</text>
<text text-anchor="middle" x="2712" y="-49" font-family="Helvetica,sans-Serif" font-size="10.00">_struct&lt; Type, RawSize &gt;</text>
</a>
</g>
<!-- Node20&#45;&gt;Node2 -->
<g id="edge50" class="edge"><title>Node20&#45;&gt;Node2</title>
<path fill="none" stroke="orange" stroke-dasharray="5,2" d="M2788.25,-57.3125C2825.26,-58.1293 2870.21,-60.8254 2910,-68 2916.06,-69.0926 2922.26,-70.4537 2928.47,-71.9911"/>
<polygon fill="orange" stroke="orange" points="2788.09,-53.8092 2778.03,-57.1297 2787.97,-60.8081 2788.09,-53.8092"/>
<text text-anchor="start" x="2796" y="-111" font-family="Helvetica,sans-Serif" font-size="10.00"> &lt; mng_local::block</text>
<text text-anchor="start" x="2796" y="-98" font-family="Helvetica,sans-Serif" font-size="10.00">_w_info&lt; Type, RawSize,</text>
<text text-anchor="start" x="2796" y="-85" font-family="Helvetica,sans-Serif" font-size="10.00"> NRef, MetaInfoType &gt;,</text>
<text text-anchor="middle" x="2853" y="-72" font-family="Helvetica,sans-Serif" font-size="10.00"> RawSize &gt;</text>
</g>
<!-- Node21&#45;&gt;Node20 -->
<g id="edge52" class="edge"><title>Node21&#45;&gt;Node20</title>
<path fill="none" stroke="midnightblue" d="M2573.37,-35.2295C2596.68,-39.0593 2622.7,-43.3324 2645.84,-47.1332"/>
<polygon fill="midnightblue" stroke="midnightblue" points="2573.65,-31.7285 2563.21,-33.5614 2572.51,-38.636 2573.65,-31.7285"/>
</g>
</g>
</svg>
