<?xml version="1.0" encoding="UTF-8" standalone="no"?>
<!DOCTYPE svg PUBLIC "-//W3C//DTD SVG 1.1//EN"
 "http://www.w3.org/Graphics/SVG/1.1/DTD/svg11.dtd">
<!-- Generated by graphviz version 2.26.3 (20100126.1600)
 -->
<!-- Title: stxxl::priority_queue&lt; ConfigType &gt; Pages: 1 -->
<svg width="1670pt" height="801pt"
 viewBox="0.00 0.00 1670.00 801.00" xmlns="http://www.w3.org/2000/svg" xmlns:xlink="http://www.w3.org/1999/xlink">
<g id="graph1" class="graph" transform="scale(1 1) rotate(0) translate(4 797)">
<title>stxxl::priority_queue&lt; ConfigType &gt;</title>
<!-- Node1 -->
<g id="node1" class="node"><title>Node1</title>
<polygon fill="#bfbfbf" stroke="black" points="1534,-206 1534,-240 1638,-240 1638,-206 1534,-206"/>
<text text-anchor="start" x="1542" y="-227" font-family="Helvetica,sans-Serif" font-size="10.00">stxxl::priority_queue</text>
<text text-anchor="middle" x="1586" y="-214" font-family="Helvetica,sans-Serif" font-size="10.00">&lt; ConfigType &gt;</text>
</g>
<!-- Node2 -->
<g id="node2" class="node"><title>Node2</title>
<a xlink:href="classstxxl_1_1noncopyable.html" target="_top" xlink:title="stxxl::noncopyable">
<polygon fill="none" stroke="black" points="347,-526.5 347,-547.5 445,-547.5 445,-526.5 347,-526.5"/>
<text text-anchor="middle" x="396" y="-534.5" font-family="Helvetica,sans-Serif" font-size="10.00">stxxl::noncopyable</text>
</a>
</g>
<!-- Node2&#45;&gt;Node1 -->
<g id="edge2" class="edge"><title>Node2&#45;&gt;Node1</title>
<path fill="none" stroke="#8b1a1a" d="M448.471,-523.986C500.602,-511.056 582.824,-490.661 654,-473 777.558,-442.341 808.715,-435.735 932,-404 1156.76,-346.144 1422.88,-270.148 1533.61,-238.191"/>
<polygon fill="#8b1a1a" stroke="#8b1a1a" points="447.322,-520.665 438.458,-526.47 449.007,-527.459 447.322,-520.665"/>
</g>
<!-- Node3 -->
<g id="node4" class="node"><title>Node3</title>
<a xlink:href="classstxxl_1_1read__write__pool.html" target="_top" xlink:title="Implements dynamically resizable buffered writing and prefetched reading pool. ">
<polygon fill="none" stroke="black" points="960,-515 960,-549 1072,-549 1072,-515 960,-515"/>
<text text-anchor="start" x="968" y="-536" font-family="Helvetica,sans-Serif" font-size="10.00">stxxl::read_write_pool</text>
<text text-anchor="middle" x="1016" y="-523" font-family="Helvetica,sans-Serif" font-size="10.00">&lt; BlockType &gt;</text>
</a>
</g>
<!-- Node2&#45;&gt;Node3 -->
<g id="edge6" class="edge"><title>Node2&#45;&gt;Node3</title>
<path fill="none" stroke="#8b1a1a" d="M455.272,-539.384C554.143,-542.899 758.959,-548.221 932,-540 940.926,-539.576 950.368,-538.9 959.572,-538.116"/>
<polygon fill="#8b1a1a" stroke="#8b1a1a" points="455.3,-535.882 445.18,-539.018 455.046,-542.878 455.3,-535.882"/>
</g>
<!-- Node4 -->
<g id="node7" class="node"><title>Node4</title>
<a xlink:href="classstxxl_1_1prefetch__pool.html" target="_top" xlink:title="Implements dynamically resizable prefetching pool. ">
<polygon fill="none" stroke="black" points="684,-582 684,-616 786,-616 786,-582 684,-582"/>
<text text-anchor="start" x="692" y="-603" font-family="Helvetica,sans-Serif" font-size="10.00">stxxl::prefetch_pool</text>
<text text-anchor="middle" x="735" y="-590" font-family="Helvetica,sans-Serif" font-size="10.00">&lt; BlockType &gt;</text>
</a>
</g>
<!-- Node2&#45;&gt;Node4 -->
<g id="edge10" class="edge"><title>Node2&#45;&gt;Node4</title>
<path fill="none" stroke="#8b1a1a" d="M437.433,-550.708C456.862,-556.724 480.435,-563.44 502,-568 563.884,-581.086 636.246,-589.69 683.712,-594.442"/>
<polygon fill="#8b1a1a" stroke="#8b1a1a" points="438.273,-547.303 427.684,-547.641 436.173,-553.98 438.273,-547.303"/>
</g>
<!-- Node9 -->
<g id="node18" class="node"><title>Node9</title>
<a xlink:href="classstxxl_1_1write__pool.html" target="_top" xlink:title="Implements dynamically resizable buffered writing pool. ">
<polygon fill="none" stroke="black" points="688,-492 688,-526 782,-526 782,-492 688,-492"/>
<text text-anchor="start" x="696" y="-513" font-family="Helvetica,sans-Serif" font-size="10.00">stxxl::write_pool&lt;</text>
<text text-anchor="middle" x="735" y="-500" font-family="Helvetica,sans-Serif" font-size="10.00"> BlockType &gt;</text>
</a>
</g>
<!-- Node2&#45;&gt;Node9 -->
<g id="edge22" class="edge"><title>Node2&#45;&gt;Node9</title>
<path fill="none" stroke="#8b1a1a" d="M455.56,-532.081C521.71,-526.617 627.153,-517.908 687.833,-512.896"/>
<polygon fill="#8b1a1a" stroke="#8b1a1a" points="454.971,-528.617 445.294,-532.929 455.548,-535.593 454.971,-528.617"/>
</g>
<!-- Node10 -->
<g id="node21" class="node"><title>Node10</title>
<a xlink:href="classstxxl_1_1priority__queue__local_1_1ext__merger.html" target="_top" xlink:title="External merger, based on the loser tree data structure. ">
<polygon fill="none" stroke="black" points="1238,-508.5 1238,-555.5 1390,-555.5 1390,-508.5 1238,-508.5"/>
<text text-anchor="start" x="1246" y="-542.5" font-family="Helvetica,sans-Serif" font-size="10.00">stxxl::priority_queue</text>
<text text-anchor="start" x="1246" y="-529.5" font-family="Helvetica,sans-Serif" font-size="10.00">_local::ext_merger&lt; BlockType</text>
<text text-anchor="middle" x="1314" y="-516.5" font-family="Helvetica,sans-Serif" font-size="10.00">_, Cmp_, Arity_, AllocStr_ &gt;</text>
</a>
</g>
<!-- Node2&#45;&gt;Node10 -->
<g id="edge26" class="edge"><title>Node2&#45;&gt;Node10</title>
<path fill="none" stroke="#8b1a1a" d="M420.748,-552.823C441.636,-565.491 472.732,-582.777 502,-593 574.582,-618.352 595.45,-617.858 672,-625 877.487,-644.172 1117.75,-588.243 1237.71,-554.908"/>
<polygon fill="#8b1a1a" stroke="#8b1a1a" points="422.534,-549.812 412.185,-547.54 418.858,-555.769 422.534,-549.812"/>
</g>
<!-- Node13 -->
<g id="node30" class="node"><title>Node13</title>
<a xlink:href="structstxxl_1_1priority__queue__local_1_1ext__merger_1_1sequence__state.html" target="_top" xlink:title="stxxl::priority_queue\l_local::ext_merger\&lt; BlockType\l_, Cmp_, Arity_, AllocStr\l_ \&gt;::sequence_state">
<polygon fill="none" stroke="black" points="1510,-502 1510,-562 1662,-562 1662,-502 1510,-502"/>
<text text-anchor="start" x="1518" y="-549" font-family="Helvetica,sans-Serif" font-size="10.00">stxxl::priority_queue</text>
<text text-anchor="start" x="1518" y="-536" font-family="Helvetica,sans-Serif" font-size="10.00">_local::ext_merger&lt; BlockType</text>
<text text-anchor="start" x="1518" y="-523" font-family="Helvetica,sans-Serif" font-size="10.00">_, Cmp_, Arity_, AllocStr</text>
<text text-anchor="middle" x="1586" y="-510" font-family="Helvetica,sans-Serif" font-size="10.00">_ &gt;::sequence_state</text>
</a>
</g>
<!-- Node2&#45;&gt;Node13 -->
<g id="edge38" class="edge"><title>Node2&#45;&gt;Node13</title>
<path fill="none" stroke="#8b1a1a" d="M413.412,-554.839C433.182,-574.105 467.226,-604.395 502,-622 654.54,-699.225 703.026,-720 874,-720 874,-720 874,-720 1314,-720 1423.64,-720 1521.09,-615.349 1563.5,-562.205"/>
<polygon fill="#8b1a1a" stroke="#8b1a1a" points="415.651,-552.13 406.089,-547.566 410.718,-557.096 415.651,-552.13"/>
</g>
<!-- Node14 -->
<g id="node36" class="node"><title>Node14</title>
<a xlink:href="classstxxl_1_1priority__queue__local_1_1loser__tree.html" target="_top" xlink:title="stxxl::priority_queue\l_local::loser_tree\&lt; value\l_type, comparator_type,\l IntKMAX \&gt;">
<polygon fill="none" stroke="black" points="954.5,-295 954.5,-355 1077.5,-355 1077.5,-295 954.5,-295"/>
<text text-anchor="start" x="962.5" y="-342" font-family="Helvetica,sans-Serif" font-size="10.00">stxxl::priority_queue</text>
<text text-anchor="start" x="962.5" y="-329" font-family="Helvetica,sans-Serif" font-size="10.00">_local::loser_tree&lt; value</text>
<text text-anchor="start" x="962.5" y="-316" font-family="Helvetica,sans-Serif" font-size="10.00">_type, comparator_type,</text>
<text text-anchor="middle" x="1016" y="-303" font-family="Helvetica,sans-Serif" font-size="10.00"> IntKMAX &gt;</text>
</a>
</g>
<!-- Node2&#45;&gt;Node14 -->
<g id="edge48" class="edge"><title>Node2&#45;&gt;Node14</title>
<path fill="none" stroke="#8b1a1a" d="M410.179,-518.385C428.618,-495.69 463.104,-458.124 502,-440 677.078,-358.421 751.626,-446.084 932,-377 946.575,-371.418 961.403,-363.233 974.461,-355.002"/>
<polygon fill="#8b1a1a" stroke="#8b1a1a" points="407.388,-516.272 403.922,-526.284 412.875,-520.619 407.388,-516.272"/>
</g>
<!-- Node16 -->
<g id="node43" class="node"><title>Node16</title>
<a xlink:href="classstxxl_1_1priority__queue__local_1_1loser__tree.html" target="_top" xlink:title="Loser tree from Knuth, &quot;Sorting and Searching&quot;, Section 5.4.1. ">
<polygon fill="none" stroke="black" points="672.5,-301.5 672.5,-348.5 797.5,-348.5 797.5,-301.5 672.5,-301.5"/>
<text text-anchor="start" x="680.5" y="-335.5" font-family="Helvetica,sans-Serif" font-size="10.00">stxxl::priority_queue</text>
<text text-anchor="start" x="680.5" y="-322.5" font-family="Helvetica,sans-Serif" font-size="10.00">_local::loser_tree&lt; ValTp</text>
<text text-anchor="middle" x="735" y="-309.5" font-family="Helvetica,sans-Serif" font-size="10.00">_, Cmp_, KNKMAX &gt;</text>
</a>
</g>
<!-- Node2&#45;&gt;Node16 -->
<g id="edge58" class="edge"><title>Node2&#45;&gt;Node16</title>
<path fill="none" stroke="#8b1a1a" d="M407.717,-517.781C425.142,-490.674 460.346,-441.263 502,-412 530.133,-392.236 613.429,-363.395 672.371,-344.418"/>
<polygon fill="#8b1a1a" stroke="#8b1a1a" points="404.676,-516.041 402.313,-526.369 410.601,-519.769 404.676,-516.041"/>
</g>
<!-- Node3&#45;&gt;Node1 -->
<g id="edge4" class="edge"><title>Node3&#45;&gt;Node1</title>
<path fill="none" stroke="#9a32cd" stroke-dasharray="5,2" d="M1079.88,-511.75C1175.04,-479.782 1357.24,-411.508 1492,-318 1524.41,-295.514 1555.23,-260.999 1572.27,-240.347"/>
<polygon fill="#9a32cd" stroke="#9a32cd" points="1078.77,-508.431 1070.39,-514.914 1080.98,-515.071 1078.77,-508.431"/>
<text text-anchor="middle" x="1314" y="-465" font-family="Helvetica,sans-Serif" font-size="10.00"> pool</text>
</g>
<!-- Node3&#45;&gt;Node10 -->
<g id="edge28" class="edge"><title>Node3&#45;&gt;Node10</title>
<path fill="none" stroke="#9a32cd" stroke-dasharray="5,2" d="M1082.23,-532C1128.31,-532 1189.86,-532 1237.95,-532"/>
<polygon fill="#9a32cd" stroke="#9a32cd" points="1082.05,-528.5 1072.05,-532 1082.05,-535.5 1082.05,-528.5"/>
<text text-anchor="middle" x="1147" y="-536" font-family="Helvetica,sans-Serif" font-size="10.00"> pool</text>
</g>
<!-- Node4&#45;&gt;Node3 -->
<g id="edge8" class="edge"><title>Node4&#45;&gt;Node3</title>
<path fill="none" stroke="#9a32cd" stroke-dasharray="5,2" d="M796.338,-593.324C835.651,-588.717 887.47,-580.828 932,-568 948.771,-563.169 966.638,-555.843 981.563,-549.058"/>
<polygon fill="#9a32cd" stroke="#9a32cd" points="795.911,-589.85 786.369,-594.453 796.7,-596.805 795.911,-589.85"/>
<text text-anchor="middle" x="874" y="-594" font-family="Helvetica,sans-Serif" font-size="10.00"> p_pool</text>
</g>
<!-- Node5 -->
<g id="node10" class="node"><title>Node5</title>
<a xlink:href="structstxxl_1_1choose__int__types.html" target="_top" xlink:title="stxxl::choose_int_types\l\&lt; my_pointer_size \&gt;">
<polygon fill="none" stroke="black" points="336,-175 336,-209 456,-209 456,-175 336,-175"/>
<text text-anchor="start" x="344" y="-196" font-family="Helvetica,sans-Serif" font-size="10.00">stxxl::choose_int_types</text>
<text text-anchor="middle" x="396" y="-183" font-family="Helvetica,sans-Serif" font-size="10.00">&lt; my_pointer_size &gt;</text>
</a>
</g>
<!-- Node5&#45;&gt;Node1 -->
<g id="edge44" class="edge"><title>Node5&#45;&gt;Node1</title>
<path fill="none" stroke="#9a32cd" stroke-dasharray="5,2" d="M422.896,-168.147C443.159,-151.645 472.425,-130.784 502,-120 599.804,-84.3372 630.897,-96 735,-96 735,-96 735,-96 1314,-96 1416.67,-96 1522.4,-171.207 1565.68,-205.872"/>
<polygon fill="#9a32cd" stroke="#9a32cd" points="420.496,-165.591 415.056,-174.682 424.979,-170.968 420.496,-165.591"/>
<text text-anchor="middle" x="1016" y="-100" font-family="Helvetica,sans-Serif" font-size="10.00"> num_active_groups</text>
</g>
<!-- Node5&#45;&gt;Node4 -->
<g id="edge12" class="edge"><title>Node5&#45;&gt;Node4</title>
<path fill="none" stroke="#9a32cd" stroke-dasharray="5,2" d="M411.702,-217.95C431.454,-249.963 467.033,-305.594 502,-350 571.084,-437.73 595.043,-454.088 672,-535 687.258,-551.042 704.973,-568.979 717.724,-581.773"/>
<polygon fill="#9a32cd" stroke="#9a32cd" points="414.544,-215.889 406.332,-209.194 408.577,-219.549 414.544,-215.889"/>
<text text-anchor="middle" x="578" y="-516" font-family="Helvetica,sans-Serif" font-size="10.00"> free_blocks_size</text>
</g>
<!-- Node5&#45;&gt;Node10 -->
<g id="edge34" class="edge"><title>Node5&#45;&gt;Node10</title>
<path fill="none" stroke="#9a32cd" stroke-dasharray="5,2" d="M466.279,-181.887C570.387,-169.434 770.659,-155.222 932,-202 1005.39,-223.277 1025.73,-234.307 1082,-286 1157.89,-355.72 1135.29,-409.18 1212,-478 1225.35,-489.976 1241.83,-500.178 1257.62,-508.383"/>
<polygon fill="#9a32cd" stroke="#9a32cd" points="465.703,-178.432 456.203,-183.123 466.555,-185.38 465.703,-178.432"/>
<text text-anchor="middle" x="874" y="-219" font-family="Helvetica,sans-Serif" font-size="10.00"> k</text>
<text text-anchor="middle" x="874" y="-206" font-family="Helvetica,sans-Serif" font-size="10.00">log_k</text>
</g>
<!-- Node5&#45;&gt;Node13 -->
<g id="edge42" class="edge"><title>Node5&#45;&gt;Node13</title>
<path fill="none" stroke="#9a32cd" stroke-dasharray="5,2" d="M461.824,-172.534C475.016,-169.4 488.861,-166.647 502,-165 758.013,-132.907 834.814,-116.028 1082,-190 1278.33,-248.755 1336.83,-267.13 1492,-401 1525.49,-429.891 1553.45,-473.02 1569.94,-501.807"/>
<polygon fill="#9a32cd" stroke="#9a32cd" points="460.753,-169.193 451.886,-174.993 462.434,-175.989 460.753,-169.193"/>
<text text-anchor="middle" x="1016" y="-194" font-family="Helvetica,sans-Serif" font-size="10.00"> current</text>
</g>
<!-- Node5&#45;&gt;Node14 -->
<g id="edge54" class="edge"><title>Node5&#45;&gt;Node14</title>
<path fill="none" stroke="#9a32cd" stroke-dasharray="5,2" d="M466.427,-191.06C547.644,-191.589 684.548,-197.467 798,-227 856.83,-242.314 919.72,-272.195 962.757,-294.955"/>
<polygon fill="#9a32cd" stroke="#9a32cd" points="466.331,-187.559 456.318,-191.02 466.304,-194.559 466.331,-187.559"/>
<text text-anchor="middle" x="735" y="-283" font-family="Helvetica,sans-Serif" font-size="10.00"> segment_size</text>
<text text-anchor="middle" x="735" y="-270" font-family="Helvetica,sans-Serif" font-size="10.00">mem_cons_</text>
<text text-anchor="middle" x="735" y="-257" font-family="Helvetica,sans-Serif" font-size="10.00">k</text>
<text text-anchor="middle" x="735" y="-244" font-family="Helvetica,sans-Serif" font-size="10.00">size_</text>
<text text-anchor="middle" x="735" y="-231" font-family="Helvetica,sans-Serif" font-size="10.00">logK</text>
</g>
<!-- Node5&#45;&gt;Node16 -->
<g id="edge62" class="edge"><title>Node5&#45;&gt;Node16</title>
<path fill="none" stroke="#9a32cd" stroke-dasharray="5,2" d="M462.29,-211.79C475.394,-215.41 489.087,-218.99 502,-222 568.899,-237.593 599.319,-208.423 654,-250 668.557,-261.068 659.664,-273.501 672,-287 676.825,-292.28 682.554,-297.069 688.56,-301.328"/>
<polygon fill="#9a32cd" stroke="#9a32cd" points="462.981,-208.349 452.407,-209.022 461.093,-215.09 462.981,-208.349"/>
<text text-anchor="middle" x="578" y="-306" font-family="Helvetica,sans-Serif" font-size="10.00"> segment_size</text>
<text text-anchor="middle" x="578" y="-293" font-family="Helvetica,sans-Serif" font-size="10.00">mem_cons_</text>
<text text-anchor="middle" x="578" y="-280" font-family="Helvetica,sans-Serif" font-size="10.00">k</text>
<text text-anchor="middle" x="578" y="-267" font-family="Helvetica,sans-Serif" font-size="10.00">size_</text>
<text text-anchor="middle" x="578" y="-254" font-family="Helvetica,sans-Serif" font-size="10.00">logK</text>
</g>
<!-- Node6 -->
<g id="node12" class="node"><title>Node6</title>
<a xlink:href="structstxxl_1_1choose__int__types.html" target="_top" xlink:title="stxxl::choose_int_types\l\&lt; PtrSize \&gt;">
<polygon fill="none" stroke="black" points="9,-175 9,-209 129,-209 129,-175 9,-175"/>
<text text-anchor="start" x="17" y="-196" font-family="Helvetica,sans-Serif" font-size="10.00">stxxl::choose_int_types</text>
<text text-anchor="middle" x="69" y="-183" font-family="Helvetica,sans-Serif" font-size="10.00">&lt; PtrSize &gt;</text>
</a>
</g>
<!-- Node6&#45;&gt;Node5 -->
<g id="edge14" class="edge"><title>Node6&#45;&gt;Node5</title>
<path fill="none" stroke="orange" stroke-dasharray="5,2" d="M139.64,-192C198.214,-192 280.574,-192 335.994,-192"/>
<polygon fill="orange" stroke="orange" points="139.358,-188.5 129.358,-192 139.358,-195.5 139.358,-188.5"/>
<text text-anchor="middle" x="223" y="-196" font-family="Helvetica,sans-Serif" font-size="10.00"> &lt; my_pointer_size &gt;</text>
</g>
<!-- Node7 -->
<g id="node14" class="node"><title>Node7</title>
<a xlink:href="structstxxl_1_1compat__hash__map.html" target="_top" xlink:title="stxxl::compat_hash\l_map\&lt; bid_type, busy\l_entry, bid_hash \&gt;">
<polygon fill="none" stroke="black" points="339.5,-677.5 339.5,-724.5 452.5,-724.5 452.5,-677.5 339.5,-677.5"/>
<text text-anchor="start" x="347.5" y="-711.5" font-family="Helvetica,sans-Serif" font-size="10.00">stxxl::compat_hash</text>
<text text-anchor="start" x="347.5" y="-698.5" font-family="Helvetica,sans-Serif" font-size="10.00">_map&lt; bid_type, busy</text>
<text text-anchor="middle" x="396" y="-685.5" font-family="Helvetica,sans-Serif" font-size="10.00">_entry, bid_hash &gt;</text>
</a>
</g>
<!-- Node7&#45;&gt;Node4 -->
<g id="edge16" class="edge"><title>Node7&#45;&gt;Node4</title>
<path fill="none" stroke="#9a32cd" stroke-dasharray="5,2" d="M462.474,-680.999C527.401,-661.463 624.825,-632.15 683.903,-614.374"/>
<polygon fill="#9a32cd" stroke="#9a32cd" points="461.308,-677.695 452.741,-683.927 463.325,-684.398 461.308,-677.695"/>
<text text-anchor="middle" x="578" y="-672" font-family="Helvetica,sans-Serif" font-size="10.00"> busy_blocks</text>
</g>
<!-- Node8 -->
<g id="node16" class="node"><title>Node8</title>
<a xlink:href="structstxxl_1_1compat__hash__map.html" target="_top" xlink:title="stxxl::compat_hash\l_map\&lt; _Key, _Tp, _Hash \&gt;">
<polygon fill="none" stroke="black" points="0,-667 0,-701 138,-701 138,-667 0,-667"/>
<text text-anchor="start" x="8" y="-688" font-family="Helvetica,sans-Serif" font-size="10.00">stxxl::compat_hash</text>
<text text-anchor="middle" x="69" y="-675" font-family="Helvetica,sans-Serif" font-size="10.00">_map&lt; _Key, _Tp, _Hash &gt;</text>
</a>
</g>
<!-- Node8&#45;&gt;Node7 -->
<g id="edge18" class="edge"><title>Node8&#45;&gt;Node7</title>
<path fill="none" stroke="orange" stroke-dasharray="5,2" d="M148.482,-681.575C190.601,-680.992 243.174,-681.379 290,-685 306.051,-686.241 323.357,-688.47 339.237,-690.878"/>
<polygon fill="orange" stroke="orange" points="148.229,-678.078 138.286,-681.737 148.341,-685.077 148.229,-678.078"/>
<text text-anchor="start" x="170" y="-702" font-family="Helvetica,sans-Serif" font-size="10.00"> &lt; bid_type, busy_entry,</text>
<text text-anchor="middle" x="223" y="-689" font-family="Helvetica,sans-Serif" font-size="10.00"> bid_hash &gt;</text>
</g>
<!-- Node9&#45;&gt;Node3 -->
<g id="edge20" class="edge"><title>Node9&#45;&gt;Node3</title>
<path fill="none" stroke="#9a32cd" stroke-dasharray="5,2" d="M792.126,-513.676C840.995,-517.676 910.947,-523.401 959.604,-527.384"/>
<polygon fill="#9a32cd" stroke="#9a32cd" points="792.285,-510.177 782.033,-512.85 791.714,-517.154 792.285,-510.177"/>
<text text-anchor="middle" x="874" y="-528" font-family="Helvetica,sans-Serif" font-size="10.00"> w_pool</text>
</g>
<!-- Node10&#45;&gt;Node1 -->
<g id="edge24" class="edge"><title>Node10&#45;&gt;Node1</title>
<path fill="none" stroke="#9a32cd" stroke-dasharray="5,2" d="M1367.37,-503.166C1405.72,-480.414 1456.68,-445.773 1492,-405 1537.41,-352.587 1568.18,-274.423 1580.27,-240.148"/>
<polygon fill="#9a32cd" stroke="#9a32cd" points="1365.27,-500.338 1358.41,-508.406 1368.81,-506.382 1365.27,-500.338"/>
<text text-anchor="middle" x="1463" y="-461" font-family="Helvetica,sans-Serif" font-size="10.00"> ext_mergers</text>
</g>
<!-- Node10&#45;&gt;Node13 -->
<g id="edge40" class="edge"><title>Node10&#45;&gt;Node13</title>
<path fill="none" stroke="#9a32cd" stroke-dasharray="5,2" d="M1400.34,-517.32C1429.45,-514.085 1462.13,-512.321 1492,-515 1497.86,-515.526 1503.91,-516.233 1509.97,-517.061"/>
<polygon fill="#9a32cd" stroke="#9a32cd" points="1399.73,-513.869 1390.21,-518.521 1400.55,-520.82 1399.73,-513.869"/>
<text text-anchor="middle" x="1463" y="-519" font-family="Helvetica,sans-Serif" font-size="10.00"> merger</text>
</g>
<!-- Node11 -->
<g id="node25" class="node"><title>Node11</title>
<a xlink:href="classstxxl_1_1priority__queue__local_1_1internal__bounded__stack.html" target="_top" xlink:title="stxxl::priority_queue\l_local::internal_bounded\l_stack\&lt; unsigned_type, arity \&gt;">
<polygon fill="none" stroke="black" points="502,-745.5 502,-792.5 654,-792.5 654,-745.5 502,-745.5"/>
<text text-anchor="start" x="510" y="-779.5" font-family="Helvetica,sans-Serif" font-size="10.00">stxxl::priority_queue</text>
<text text-anchor="start" x="510" y="-766.5" font-family="Helvetica,sans-Serif" font-size="10.00">_local::internal_bounded</text>
<text text-anchor="middle" x="578" y="-753.5" font-family="Helvetica,sans-Serif" font-size="10.00">_stack&lt; unsigned_type, arity &gt;</text>
</a>
</g>
<!-- Node11&#45;&gt;Node10 -->
<g id="edge30" class="edge"><title>Node11&#45;&gt;Node10</title>
<path fill="none" stroke="#9a32cd" stroke-dasharray="5,2" d="M664.48,-754.13C831.322,-725.346 1182.34,-664.277 1194,-658 1239.88,-633.291 1278.41,-584.672 1298.67,-555.584"/>
<polygon fill="#9a32cd" stroke="#9a32cd" points="663.507,-750.746 654.247,-755.895 664.696,-757.644 663.507,-750.746"/>
<text text-anchor="middle" x="874" y="-730" font-family="Helvetica,sans-Serif" font-size="10.00"> free_segments</text>
</g>
<!-- Node12 -->
<g id="node27" class="node"><title>Node12</title>
<a xlink:href="classstxxl_1_1priority__queue__local_1_1internal__bounded__stack.html" target="_top" xlink:title="Similar to std::stack, with the following differences: ">
<polygon fill="none" stroke="black" points="2,-732.5 2,-779.5 136,-779.5 136,-732.5 2,-732.5"/>
<text text-anchor="start" x="10" y="-766.5" font-family="Helvetica,sans-Serif" font-size="10.00">stxxl::priority_queue</text>
<text text-anchor="start" x="10" y="-753.5" font-family="Helvetica,sans-Serif" font-size="10.00">_local::internal_bounded</text>
<text text-anchor="middle" x="69" y="-740.5" font-family="Helvetica,sans-Serif" font-size="10.00">_stack&lt; Tp_, max_size_ &gt;</text>
</a>
</g>
<!-- Node12&#45;&gt;Node11 -->
<g id="edge32" class="edge"><title>Node12&#45;&gt;Node11</title>
<path fill="none" stroke="orange" stroke-dasharray="5,2" d="M146.312,-757.975C242.541,-760.432 405.862,-764.604 501.645,-767.05"/>
<polygon fill="orange" stroke="orange" points="146.152,-754.469 136.066,-757.713 145.974,-761.467 146.152,-754.469"/>
<text text-anchor="middle" x="223" y="-765" font-family="Helvetica,sans-Serif" font-size="10.00"> &lt; unsigned_type, arity &gt;</text>
</g>
<!-- Node15 -->
<g id="node39" class="node"><title>Node15</title>
<a xlink:href="classstxxl_1_1priority__queue__local_1_1internal__bounded__stack.html" target="_top" xlink:title="stxxl::priority_queue\l_local::internal_bounded\l_stack\&lt; unsigned_type, KNKMAX \&gt;">
<polygon fill="none" stroke="black" points="308,-361.5 308,-408.5 484,-408.5 484,-361.5 308,-361.5"/>
<text text-anchor="start" x="316" y="-395.5" font-family="Helvetica,sans-Serif" font-size="10.00">stxxl::priority_queue</text>
<text text-anchor="start" x="316" y="-382.5" font-family="Helvetica,sans-Serif" font-size="10.00">_local::internal_bounded</text>
<text text-anchor="middle" x="396" y="-369.5" font-family="Helvetica,sans-Serif" font-size="10.00">_stack&lt; unsigned_type, KNKMAX &gt;</text>
</a>
</g>
<!-- Node12&#45;&gt;Node15 -->
<g id="edge52" class="edge"><title>Node12&#45;&gt;Node15</title>
<path fill="none" stroke="orange" stroke-dasharray="5,2" d="M146.249,-736.135C149.538,-735.393 152.799,-734.678 156,-734 185.557,-727.736 269.479,-733.175 290,-711 319.407,-679.222 293.551,-557.814 308,-517 322.799,-475.199 353.79,-433.767 374.752,-408.773"/>
<polygon fill="orange" stroke="orange" points="145.28,-732.766 136.324,-738.426 146.855,-739.587 145.28,-732.766"/>
<text text-anchor="middle" x="223" y="-738" font-family="Helvetica,sans-Serif" font-size="10.00"> &lt; unsigned_type, KNKMAX &gt;</text>
</g>
<!-- Node13&#45;&gt;Node10 -->
<g id="edge36" class="edge"><title>Node13&#45;&gt;Node10</title>
<path fill="none" stroke="#9a32cd" stroke-dasharray="5,2" d="M1499.64,-532C1464.47,-532 1424.17,-532 1390.13,-532"/>
<polygon fill="#9a32cd" stroke="#9a32cd" points="1499.89,-535.5 1509.89,-532 1499.89,-528.5 1499.89,-535.5"/>
<text text-anchor="middle" x="1463" y="-536" font-family="Helvetica,sans-Serif" font-size="10.00"> states</text>
</g>
<!-- Node14&#45;&gt;Node1 -->
<g id="edge46" class="edge"><title>Node14&#45;&gt;Node1</title>
<path fill="none" stroke="#9a32cd" stroke-dasharray="5,2" d="M1084.4,-290.532C1165.42,-251.843 1305.63,-191.536 1434,-169 1459.39,-164.543 1467.09,-162.355 1492,-169 1518.73,-176.132 1545.76,-192.878 1563.93,-205.846"/>
<polygon fill="#9a32cd" stroke="#9a32cd" points="1082.8,-287.419 1075.3,-294.905 1085.83,-293.728 1082.8,-287.419"/>
<text text-anchor="middle" x="1314" y="-238" font-family="Helvetica,sans-Serif" font-size="10.00"> int_mergers</text>
</g>
<!-- Node15&#45;&gt;Node14 -->
<g id="edge50" class="edge"><title>Node15&#45;&gt;Node14</title>
<path fill="none" stroke="#9a32cd" stroke-dasharray="5,2" d="M494.51,-387.881C602.851,-389.112 781.553,-385.414 932,-355 939.286,-353.527 946.792,-351.552 954.181,-349.315"/>
<polygon fill="#9a32cd" stroke="#9a32cd" points="494.294,-384.378 484.249,-387.747 494.202,-391.377 494.294,-384.378"/>
<text text-anchor="middle" x="735" y="-388" font-family="Helvetica,sans-Serif" font-size="10.00"> free_slots</text>
</g>
<!-- Node15&#45;&gt;Node16 -->
<g id="edge60" class="edge"><title>Node15&#45;&gt;Node16</title>
<path fill="none" stroke="#9a32cd" stroke-dasharray="5,2" d="M443.256,-356.515C461.043,-347.241 481.85,-338.042 502,-333 558.345,-318.901 624.733,-318.094 672.201,-320.109"/>
<polygon fill="#9a32cd" stroke="#9a32cd" points="441.405,-353.536 434.25,-361.35 444.716,-359.703 441.405,-353.536"/>
<text text-anchor="middle" x="578" y="-337" font-family="Helvetica,sans-Serif" font-size="10.00"> free_slots</text>
</g>
<!-- Node16&#45;&gt;Node14 -->
<g id="edge56" class="edge"><title>Node16&#45;&gt;Node14</title>
<path fill="none" stroke="orange" stroke-dasharray="5,2" d="M807.81,-325C853.307,-325 911.248,-325 954.447,-325"/>
<polygon fill="orange" stroke="orange" points="807.712,-321.5 797.712,-325 807.712,-328.5 807.712,-321.5"/>
<text text-anchor="start" x="816.5" y="-342" font-family="Helvetica,sans-Serif" font-size="10.00"> &lt; value_type, comparator</text>
<text text-anchor="middle" x="874" y="-329" font-family="Helvetica,sans-Serif" font-size="10.00">_type, IntKMAX &gt;</text>
</g>
<!-- Node17 -->
<g id="node48" class="node"><title>Node17</title>
<a xlink:href="classstxxl_1_1priority__queue__local_1_1internal__priority__queue.html" target="_top" xlink:title="stxxl::priority_queue\l_local::internal_priority\l_queue\&lt; value_type, std\l::vector\&lt; value_type \&gt;, comparator_type \&gt;">
<polygon fill="none" stroke="black" points="1212.5,-4 1212.5,-64 1415.5,-64 1415.5,-4 1212.5,-4"/>
<text text-anchor="start" x="1220.5" y="-51" font-family="Helvetica,sans-Serif" font-size="10.00">stxxl::priority_queue</text>
<text text-anchor="start" x="1220.5" y="-38" font-family="Helvetica,sans-Serif" font-size="10.00">_local::internal_priority</text>
<text text-anchor="start" x="1220.5" y="-25" font-family="Helvetica,sans-Serif" font-size="10.00">_queue&lt; value_type, std</text>
<text text-anchor="middle" x="1314" y="-12" font-family="Helvetica,sans-Serif" font-size="10.00">::vector&lt; value_type &gt;, comparator_type &gt;</text>
</a>
</g>
<!-- Node17&#45;&gt;Node1 -->
<g id="edge64" class="edge"><title>Node17&#45;&gt;Node1</title>
<path fill="none" stroke="#9a32cd" stroke-dasharray="5,2" d="M1425.82,-41.4456C1449.16,-46.8462 1472.55,-55.4531 1492,-69 1541.6,-103.556 1569.84,-173.538 1580.74,-205.889"/>
<polygon fill="#9a32cd" stroke="#9a32cd" points="1426.34,-37.9782 1415.83,-39.3223 1424.88,-44.8252 1426.34,-37.9782"/>
<text text-anchor="middle" x="1463" y="-73" font-family="Helvetica,sans-Serif" font-size="10.00"> insert_heap</text>
</g>
<!-- Node18 -->
<g id="node50" class="node"><title>Node18</title>
<a xlink:href="classstxxl_1_1priority__queue__local_1_1internal__priority__queue.html" target="_top" xlink:title="Similar to std::priority_queue, with the following differences: ">
<polygon fill="none" stroke="black" points="950.5,-0 950.5,-60 1081.5,-60 1081.5,-0 950.5,-0"/>
<text text-anchor="start" x="958.5" y="-47" font-family="Helvetica,sans-Serif" font-size="10.00">stxxl::priority_queue</text>
<text text-anchor="start" x="958.5" y="-34" font-family="Helvetica,sans-Serif" font-size="10.00">_local::internal_priority</text>
<text text-anchor="start" x="958.5" y="-21" font-family="Helvetica,sans-Serif" font-size="10.00">_queue&lt; _Tp, _Sequence,</text>
<text text-anchor="middle" x="1016" y="-8" font-family="Helvetica,sans-Serif" font-size="10.00"> _Compare &gt;</text>
</a>
</g>
<!-- Node18&#45;&gt;Node17 -->
<g id="edge66" class="edge"><title>Node18&#45;&gt;Node17</title>
<path fill="none" stroke="orange" stroke-dasharray="5,2" d="M1091.87,-31.0184C1128.47,-31.5097 1172.9,-32.1061 1212.38,-32.636"/>
<polygon fill="orange" stroke="orange" points="1091.81,-27.5174 1081.77,-30.8828 1091.72,-34.5168 1091.81,-27.5174"/>
<text text-anchor="start" x="1100.5" y="-62" font-family="Helvetica,sans-Serif" font-size="10.00"> &lt; value_type, std::</text>
<text text-anchor="start" x="1100.5" y="-49" font-family="Helvetica,sans-Serif" font-size="10.00">vector&lt; value_type &gt;</text>
<text text-anchor="middle" x="1147" y="-36" font-family="Helvetica,sans-Serif" font-size="10.00">, comparator_type &gt;</text>
</g>
</g>
</svg>
