<?xml version="1.0" encoding="UTF-8" standalone="no"?>
<!DOCTYPE svg PUBLIC "-//W3C//DTD SVG 1.1//EN"
 "http://www.w3.org/Graphics/SVG/1.1/DTD/svg11.dtd">
<!-- Generated by graphviz version 2.26.3 (20100126.1600)
 -->
<!-- Title: stxxl::btree::btree&lt; KeyType, DataType, CompareType, RawNodeSize, RawLeafSize, PDAllocStrategy &gt; Pages: 1 -->
<svg width="1630pt" height="424pt"
 viewBox="0.00 0.00 1630.00 424.00" xmlns="http://www.w3.org/2000/svg" xmlns:xlink="http://www.w3.org/1999/xlink">
<g id="graph1" class="graph" transform="scale(1 1) rotate(0) translate(4 420)">
<title>stxxl::btree::btree&lt; KeyType, DataType, CompareType, RawNodeSize, RawLeafSize, PDAllocStrategy &gt;</title>
<!-- Node1 -->
<g id="node1" class="node"><title>Node1</title>
<polygon fill="#bfbfbf" stroke="black" points="1456,-243 1456,-303 1622,-303 1622,-243 1456,-243"/>
<text text-anchor="start" x="1464" y="-290" font-family="Helvetica,sans-Serif" font-size="10.00">stxxl::btree::btree</text>
<text text-anchor="start" x="1464" y="-277" font-family="Helvetica,sans-Serif" font-size="10.00">&lt; KeyType, DataType,</text>
<text text-anchor="start" x="1464" y="-264" font-family="Helvetica,sans-Serif" font-size="10.00"> CompareType, RawNodeSize,</text>
<text text-anchor="middle" x="1539" y="-251" font-family="Helvetica,sans-Serif" font-size="10.00"> RawLeafSize, PDAllocStrategy &gt;</text>
</g>
<!-- Node2 -->
<g id="node2" class="node"><title>Node2</title>
<a xlink:href="classstxxl_1_1noncopyable.html" target="_top" xlink:title="stxxl::noncopyable">
<polygon fill="none" stroke="black" points="11,-259.5 11,-280.5 109,-280.5 109,-259.5 11,-259.5"/>
<text text-anchor="middle" x="60" y="-267.5" font-family="Helvetica,sans-Serif" font-size="10.00">stxxl::noncopyable</text>
</a>
</g>
<!-- Node2&#45;&gt;Node1 -->
<g id="edge2" class="edge"><title>Node2&#45;&gt;Node1</title>
<path fill="none" stroke="#8b1a1a" d="M73.0154,-288.789C87.0371,-307.731 111.003,-336.585 138,-354 210.871,-401.006 236.283,-416 323,-416 323,-416 323,-416 1309,-416 1393.63,-416 1472.96,-345.303 1512.6,-303.327"/>
<polygon fill="#8b1a1a" stroke="#8b1a1a" points="75.815,-286.688 67.1292,-280.621 70.1359,-290.78 75.815,-286.688"/>
</g>
<!-- Node4 -->
<g id="node6" class="node"><title>Node4</title>
<a xlink:href="classstxxl_1_1singleton.html" target="_top" xlink:title="stxxl::singleton\&lt; block\l_manager \&gt;">
<polygon fill="none" stroke="black" points="552.5,-226 552.5,-260 667.5,-260 667.5,-226 552.5,-226"/>
<text text-anchor="start" x="560.5" y="-247" font-family="Helvetica,sans-Serif" font-size="10.00">stxxl::singleton&lt; block</text>
<text text-anchor="middle" x="610" y="-234" font-family="Helvetica,sans-Serif" font-size="10.00">_manager &gt;</text>
</a>
</g>
<!-- Node2&#45;&gt;Node4 -->
<g id="edge8" class="edge"><title>Node2&#45;&gt;Node4</title>
<path fill="none" stroke="#8b1a1a" d="M119.128,-273.33C209.193,-277.373 385.924,-281.259 534,-260 540.022,-259.135 546.276,-258.049 552.493,-256.847"/>
<polygon fill="#8b1a1a" stroke="#8b1a1a" points="119.26,-269.832 109.108,-272.863 118.934,-276.825 119.26,-269.832"/>
</g>
<!-- Node5 -->
<g id="node9" class="node"><title>Node5</title>
<a xlink:href="classstxxl_1_1singleton.html" target="_top" xlink:title="stxxl::singleton\&lt; INSTANCE,\l destroy_on_exit \&gt;">
<polygon fill="none" stroke="black" points="250,-226 250,-260 396,-260 396,-226 250,-226"/>
<text text-anchor="start" x="258" y="-247" font-family="Helvetica,sans-Serif" font-size="10.00">stxxl::singleton&lt; INSTANCE,</text>
<text text-anchor="middle" x="323" y="-234" font-family="Helvetica,sans-Serif" font-size="10.00"> destroy_on_exit &gt;</text>
</a>
</g>
<!-- Node2&#45;&gt;Node5 -->
<g id="edge12" class="edge"><title>Node2&#45;&gt;Node5</title>
<path fill="none" stroke="#8b1a1a" d="M119.232,-263.919C157.943,-259.945 208.774,-254.727 249.983,-250.496"/>
<polygon fill="#8b1a1a" stroke="#8b1a1a" points="118.75,-260.45 109.16,-264.953 119.465,-267.414 118.75,-260.45"/>
</g>
<!-- Node6 -->
<g id="node12" class="node"><title>Node6</title>
<a xlink:href="classstxxl_1_1file.html" target="_top" xlink:title="Defines interface of file. ">
<polygon fill="none" stroke="black" points="814,-141.5 814,-162.5 870,-162.5 870,-141.5 814,-141.5"/>
<text text-anchor="middle" x="842" y="-149.5" font-family="Helvetica,sans-Serif" font-size="10.00">stxxl::file</text>
</a>
</g>
<!-- Node2&#45;&gt;Node6 -->
<g id="edge16" class="edge"><title>Node2&#45;&gt;Node6</title>
<path fill="none" stroke="#8b1a1a" d="M71.0033,-250.73C84.0205,-230.036 107.791,-198.214 138,-184 199.857,-154.895 690.302,-152.219 813.832,-152.009"/>
<polygon fill="#8b1a1a" stroke="#8b1a1a" points="67.9696,-248.984 65.7946,-259.353 73.9612,-252.603 67.9696,-248.984"/>
</g>
<!-- Node8 -->
<g id="node17" class="node"><title>Node8</title>
<a xlink:href="classstxxl_1_1mutex.html" target="_top" xlink:title="stxxl::mutex">
<polygon fill="none" stroke="black" points="287.5,-104.5 287.5,-125.5 358.5,-125.5 358.5,-104.5 287.5,-104.5"/>
<text text-anchor="middle" x="323" y="-112.5" font-family="Helvetica,sans-Serif" font-size="10.00">stxxl::mutex</text>
</a>
</g>
<!-- Node2&#45;&gt;Node8 -->
<g id="edge22" class="edge"><title>Node2&#45;&gt;Node8</title>
<path fill="none" stroke="#8b1a1a" d="M66.7772,-249.58C77.2721,-221.373 100.276,-171.131 138,-146 182.99,-116.029 247.421,-111.892 287.163,-112.687"/>
<polygon fill="#8b1a1a" stroke="#8b1a1a" points="63.4047,-248.618 63.3627,-259.213 70.0025,-250.957 63.4047,-248.618"/>
</g>
<!-- Node11 -->
<g id="node24" class="node"><title>Node11</title>
<a xlink:href="classstxxl_1_1disk__allocator.html" target="_top" xlink:title="stxxl::disk_allocator">
<polygon fill="none" stroke="black" points="1028,-115.5 1028,-136.5 1132,-136.5 1132,-115.5 1028,-115.5"/>
<text text-anchor="middle" x="1080" y="-123.5" font-family="Helvetica,sans-Serif" font-size="10.00">stxxl::disk_allocator</text>
</a>
</g>
<!-- Node2&#45;&gt;Node11 -->
<g id="edge30" class="edge"><title>Node2&#45;&gt;Node11</title>
<path fill="none" stroke="#8b1a1a" d="M92.0296,-255.255C140.796,-234.19 237.08,-198 323,-198 323,-198 323,-198 842,-198 925.747,-198 1019.24,-156.652 1059.62,-136.624"/>
<polygon fill="#8b1a1a" stroke="#8b1a1a" points="90.3943,-252.15 82.6461,-259.376 93.2094,-258.559 90.3943,-252.15"/>
</g>
<!-- Node16 -->
<g id="node38" class="node"><title>Node16</title>
<a xlink:href="classstxxl_1_1btree_1_1iterator__map.html" target="_top" xlink:title="stxxl::btree::iterator\l_map\&lt; SelfType \&gt;">
<polygon fill="none" stroke="black" points="559.5,-316 559.5,-350 660.5,-350 660.5,-316 559.5,-316"/>
<text text-anchor="start" x="567.5" y="-337" font-family="Helvetica,sans-Serif" font-size="10.00">stxxl::btree::iterator</text>
<text text-anchor="middle" x="610" y="-324" font-family="Helvetica,sans-Serif" font-size="10.00">_map&lt; SelfType &gt;</text>
</a>
</g>
<!-- Node2&#45;&gt;Node16 -->
<g id="edge48" class="edge"><title>Node2&#45;&gt;Node16</title>
<path fill="none" stroke="#8b1a1a" d="M80.5518,-287.26C95.6498,-299.226 117.092,-314.785 138,-325 184.741,-347.835 198.543,-351.362 250,-359 374.917,-377.543 408.996,-367.947 534,-350 542.164,-348.828 550.752,-347.249 559.099,-345.524"/>
<polygon fill="#8b1a1a" stroke="#8b1a1a" points="82.4216,-284.27 72.4474,-280.697 78.0164,-289.71 82.4216,-284.27"/>
</g>
<!-- Node17 -->
<g id="node41" class="node"><title>Node17</title>
<a xlink:href="classstxxl_1_1btree_1_1iterator__map.html" target="_top" xlink:title="stxxl::btree::iterator\l_map\&lt; BTreeType \&gt;">
<polygon fill="none" stroke="black" points="269.5,-316 269.5,-350 376.5,-350 376.5,-316 269.5,-316"/>
<text text-anchor="start" x="277.5" y="-337" font-family="Helvetica,sans-Serif" font-size="10.00">stxxl::btree::iterator</text>
<text text-anchor="middle" x="323" y="-324" font-family="Helvetica,sans-Serif" font-size="10.00">_map&lt; BTreeType &gt;</text>
</a>
</g>
<!-- Node2&#45;&gt;Node17 -->
<g id="edge52" class="edge"><title>Node2&#45;&gt;Node17</title>
<path fill="none" stroke="#8b1a1a" d="M91.2626,-284.698C105.296,-290.805 122.217,-297.501 138,-302 181.376,-314.364 231.967,-322.423 269.27,-327.217"/>
<polygon fill="#8b1a1a" stroke="#8b1a1a" points="92.6165,-281.47 82.0575,-280.6 89.7691,-287.865 92.6165,-281.47"/>
</g>
<!-- Node3 -->
<g id="node4" class="node"><title>Node3</title>
<a xlink:href="classstxxl_1_1block__manager.html" target="_top" xlink:title="Block manager class. ">
<polygon fill="none" stroke="black" points="1254,-197.5 1254,-218.5 1364,-218.5 1364,-197.5 1254,-197.5"/>
<text text-anchor="middle" x="1309" y="-205.5" font-family="Helvetica,sans-Serif" font-size="10.00">stxxl::block_manager</text>
</a>
</g>
<!-- Node3&#45;&gt;Node1 -->
<g id="edge4" class="edge"><title>Node3&#45;&gt;Node1</title>
<path fill="none" stroke="#9a32cd" stroke-dasharray="5,2" d="M1355.95,-221.268C1384.58,-229.361 1422.01,-239.938 1455.55,-249.417"/>
<polygon fill="#9a32cd" stroke="#9a32cd" points="1356.78,-217.867 1346.21,-218.516 1354.88,-224.603 1356.78,-217.867"/>
<text text-anchor="middle" x="1410" y="-248" font-family="Helvetica,sans-Serif" font-size="10.00"> bm_</text>
</g>
<!-- Node4&#45;&gt;Node3 -->
<g id="edge6" class="edge"><title>Node4&#45;&gt;Node3</title>
<path fill="none" stroke="midnightblue" d="M677.824,-239.604C815.785,-232.696 1126.74,-217.126 1253.57,-210.776"/>
<polygon fill="midnightblue" stroke="midnightblue" points="677.609,-236.11 667.797,-240.106 677.959,-243.101 677.609,-236.11"/>
</g>
<!-- Node5&#45;&gt;Node4 -->
<g id="edge10" class="edge"><title>Node5&#45;&gt;Node4</title>
<path fill="none" stroke="orange" stroke-dasharray="5,2" d="M406.299,-243C453.153,-243 510.464,-243 552.347,-243"/>
<polygon fill="orange" stroke="orange" points="406.165,-239.5 396.165,-243 406.165,-246.5 406.165,-239.5"/>
<text text-anchor="middle" x="474" y="-247" font-family="Helvetica,sans-Serif" font-size="10.00"> &lt; block_manager &gt;</text>
</g>
<!-- Node6&#45;&gt;Node3 -->
<g id="edge14" class="edge"><title>Node6&#45;&gt;Node3</title>
<path fill="none" stroke="#9a32cd" stroke-dasharray="5,2" d="M880.107,-156.57C962.577,-166.459 1157.89,-189.879 1253.85,-201.387"/>
<polygon fill="#9a32cd" stroke="#9a32cd" points="880.507,-153.093 870.161,-155.377 879.673,-160.043 880.507,-153.093"/>
<text text-anchor="middle" x="1080" y="-192" font-family="Helvetica,sans-Serif" font-size="10.00"> disk_files</text>
</g>
<!-- Node6&#45;&gt;Node11 -->
<g id="edge32" class="edge"><title>Node6&#45;&gt;Node11</title>
<path fill="none" stroke="#9a32cd" stroke-dasharray="5,2" d="M880.391,-147.806C920.435,-143.431 983.459,-136.546 1027.96,-131.685"/>
<polygon fill="#9a32cd" stroke="#9a32cd" points="879.797,-144.35 870.236,-148.915 880.557,-151.309 879.797,-144.35"/>
<text text-anchor="middle" x="963" y="-146" font-family="Helvetica,sans-Serif" font-size="10.00"> storage</text>
</g>
<!-- Node7 -->
<g id="node15" class="node"><title>Node7</title>
<a xlink:href="classstxxl_1_1atomic__counted__object.html" target="_top" xlink:title="Provides reference counting abilities for use with counting_ptr with mutex locking. ">
<polygon fill="none" stroke="black" points="553.5,-98 553.5,-132 666.5,-132 666.5,-98 553.5,-98"/>
<text text-anchor="start" x="561.5" y="-119" font-family="Helvetica,sans-Serif" font-size="10.00">stxxl::atomic_counted</text>
<text text-anchor="middle" x="610" y="-106" font-family="Helvetica,sans-Serif" font-size="10.00">_object</text>
</a>
</g>
<!-- Node7&#45;&gt;Node6 -->
<g id="edge18" class="edge"><title>Node7&#45;&gt;Node6</title>
<path fill="none" stroke="#9a32cd" stroke-dasharray="5,2" d="M676.806,-122.324C700.603,-125.235 727.557,-128.878 752,-133 772.786,-136.505 796.065,-141.447 813.739,-145.413"/>
<polygon fill="#9a32cd" stroke="#9a32cd" points="677.164,-118.842 666.817,-121.122 676.328,-125.792 677.164,-118.842"/>
<text text-anchor="middle" x="719" y="-137" font-family="Helvetica,sans-Serif" font-size="10.00"> m_request_ref</text>
</g>
<!-- Node8&#45;&gt;Node7 -->
<g id="edge20" class="edge"><title>Node8&#45;&gt;Node7</title>
<path fill="none" stroke="#9a32cd" stroke-dasharray="5,2" d="M368.996,-115C419.167,-115 499.509,-115 553.484,-115"/>
<polygon fill="#9a32cd" stroke="#9a32cd" points="368.768,-111.5 358.768,-115 368.768,-118.5 368.768,-111.5"/>
<text text-anchor="middle" x="474" y="-119" font-family="Helvetica,sans-Serif" font-size="10.00"> m_reference_count_mutex</text>
</g>
<!-- Node8&#45;&gt;Node11 -->
<g id="edge34" class="edge"><title>Node8&#45;&gt;Node11</title>
<path fill="none" stroke="#9a32cd" stroke-dasharray="5,2" d="M368.573,-108.288C414.695,-101.858 488.12,-92.6148 552,-89 726.544,-79.1231 933.269,-104.361 1027.94,-117.977"/>
<polygon fill="#9a32cd" stroke="#9a32cd" points="368.006,-104.833 358.593,-109.695 368.983,-111.765 368.006,-104.833"/>
<text text-anchor="middle" x="719" y="-94" font-family="Helvetica,sans-Serif" font-size="10.00"> mutex</text>
</g>
<!-- Node9 -->
<g id="node20" class="node"><title>Node9</title>
<a xlink:href="structstxxl_1_1choose__int__types.html" target="_top" xlink:title="stxxl::choose_int_types\l\&lt; my_pointer_size \&gt;">
<polygon fill="none" stroke="black" points="263,-25 263,-59 383,-59 383,-25 263,-25"/>
<text text-anchor="start" x="271" y="-46" font-family="Helvetica,sans-Serif" font-size="10.00">stxxl::choose_int_types</text>
<text text-anchor="middle" x="323" y="-33" font-family="Helvetica,sans-Serif" font-size="10.00">&lt; my_pointer_size &gt;</text>
</a>
</g>
<!-- Node9&#45;&gt;Node7 -->
<g id="edge24" class="edge"><title>Node9&#45;&gt;Node7</title>
<path fill="none" stroke="#9a32cd" stroke-dasharray="5,2" d="M393.106,-59.8318C442.347,-72.3564 507.364,-88.894 553.332,-100.586"/>
<polygon fill="#9a32cd" stroke="#9a32cd" points="393.719,-56.3763 383.165,-57.3032 391.993,-63.1603 393.719,-56.3763"/>
<text text-anchor="middle" x="474" y="-99" font-family="Helvetica,sans-Serif" font-size="10.00"> m_reference_count</text>
</g>
<!-- Node10 -->
<g id="node22" class="node"><title>Node10</title>
<a xlink:href="structstxxl_1_1choose__int__types.html" target="_top" xlink:title="stxxl::choose_int_types\l\&lt; PtrSize \&gt;">
<polygon fill="none" stroke="black" points="0,-25 0,-59 120,-59 120,-25 0,-25"/>
<text text-anchor="start" x="8" y="-46" font-family="Helvetica,sans-Serif" font-size="10.00">stxxl::choose_int_types</text>
<text text-anchor="middle" x="60" y="-33" font-family="Helvetica,sans-Serif" font-size="10.00">&lt; PtrSize &gt;</text>
</a>
</g>
<!-- Node10&#45;&gt;Node9 -->
<g id="edge26" class="edge"><title>Node10&#45;&gt;Node9</title>
<path fill="none" stroke="orange" stroke-dasharray="5,2" d="M130.017,-42C171.397,-42 223.258,-42 262.795,-42"/>
<polygon fill="orange" stroke="orange" points="130.008,-38.5001 120.008,-42 130.008,-45.5001 130.008,-38.5001"/>
<text text-anchor="middle" x="185" y="-46" font-family="Helvetica,sans-Serif" font-size="10.00"> &lt; my_pointer_size &gt;</text>
</g>
<!-- Node11&#45;&gt;Node3 -->
<g id="edge28" class="edge"><title>Node11&#45;&gt;Node3</title>
<path fill="none" stroke="#9a32cd" stroke-dasharray="5,2" d="M1142.38,-125.886C1171.84,-127.833 1206.84,-133.125 1236,-146 1262.77,-157.821 1287.24,-182.693 1299.91,-197.083"/>
<polygon fill="#9a32cd" stroke="#9a32cd" points="1142.39,-122.381 1132.21,-125.33 1142.01,-129.371 1142.39,-122.381"/>
<text text-anchor="middle" x="1201" y="-150" font-family="Helvetica,sans-Serif" font-size="10.00"> disk_allocators</text>
</g>
<!-- Node12 -->
<g id="node29" class="node"><title>Node12</title>
<a xlink:href="classstxxl_1_1btree_1_1btree__iterator.html" target="_top" xlink:title="stxxl::btree::btree\l_iterator\&lt; SelfType \&gt;">
<polygon fill="none" stroke="black" points="1254.5,-52 1254.5,-86 1363.5,-86 1363.5,-52 1254.5,-52"/>
<text text-anchor="start" x="1262.5" y="-73" font-family="Helvetica,sans-Serif" font-size="10.00">stxxl::btree::btree</text>
<text text-anchor="middle" x="1309" y="-60" font-family="Helvetica,sans-Serif" font-size="10.00">_iterator&lt; SelfType &gt;</text>
</a>
</g>
<!-- Node12&#45;&gt;Node1 -->
<g id="edge36" class="edge"><title>Node12&#45;&gt;Node1</title>
<path fill="none" stroke="#9a32cd" stroke-dasharray="5,2" d="M1335.82,-92.7897C1377.8,-130.02 1458.96,-202.007 1504.98,-242.828"/>
<polygon fill="#9a32cd" stroke="#9a32cd" points="1338.02,-90.0592 1328.21,-86.042 1333.37,-95.2961 1338.02,-90.0592"/>
<text text-anchor="middle" x="1410" y="-187" font-family="Helvetica,sans-Serif" font-size="10.00"> end_iterator</text>
</g>
<!-- Node13 -->
<g id="node31" class="node"><title>Node13</title>
<a xlink:href="classstxxl_1_1btree_1_1btree__iterator__base.html" target="_top" xlink:title="stxxl::btree::btree\l_iterator_base\&lt; SelfType \&gt;">
<polygon fill="none" stroke="black" points="1012.5,-0 1012.5,-34 1147.5,-34 1147.5,-0 1012.5,-0"/>
<text text-anchor="start" x="1020.5" y="-21" font-family="Helvetica,sans-Serif" font-size="10.00">stxxl::btree::btree</text>
<text text-anchor="middle" x="1080" y="-8" font-family="Helvetica,sans-Serif" font-size="10.00">_iterator_base&lt; SelfType &gt;</text>
</a>
</g>
<!-- Node13&#45;&gt;Node12 -->
<g id="edge38" class="edge"><title>Node13&#45;&gt;Node12</title>
<path fill="none" stroke="midnightblue" d="M1157.92,-34.6943C1189.67,-41.9023 1225.6,-50.062 1254.46,-56.6146"/>
<polygon fill="midnightblue" stroke="midnightblue" points="1158.3,-31.192 1147.78,-32.3907 1156.75,-38.0182 1158.3,-31.192"/>
</g>
<!-- Node14 -->
<g id="node33" class="node"><title>Node14</title>
<a xlink:href="classstxxl_1_1btree_1_1btree__iterator__base.html" target="_top" xlink:title="stxxl::btree::btree\l_iterator_base\&lt; BTreeType \&gt;">
<polygon fill="none" stroke="black" points="770,-4 770,-38 914,-38 914,-4 770,-4"/>
<text text-anchor="start" x="778" y="-25" font-family="Helvetica,sans-Serif" font-size="10.00">stxxl::btree::btree</text>
<text text-anchor="middle" x="842" y="-12" font-family="Helvetica,sans-Serif" font-size="10.00">_iterator_base&lt; BTreeType &gt;</text>
</a>
</g>
<!-- Node14&#45;&gt;Node13 -->
<g id="edge40" class="edge"><title>Node14&#45;&gt;Node13</title>
<path fill="none" stroke="orange" stroke-dasharray="5,2" d="M924.305,-18.168C926.9,-18.107 929.47,-18.0507 932,-18 958.204,-17.4748 987.022,-17.2094 1012.21,-17.0801"/>
<polygon fill="orange" stroke="orange" points="924.114,-14.6716 914.206,-18.4244 924.292,-21.6693 924.114,-14.6716"/>
<text text-anchor="middle" x="963" y="-22" font-family="Helvetica,sans-Serif" font-size="10.00"> &lt; SelfType &gt;</text>
</g>
<!-- Node15 -->
<g id="node35" class="node"><title>Node15</title>
<a xlink:href="classstxxl_1_1btree_1_1btree__iterator.html" target="_top" xlink:title="stxxl::btree::btree\l_iterator\&lt; BTreeType \&gt;">
<polygon fill="none" stroke="black" points="1021,-52 1021,-86 1139,-86 1139,-52 1021,-52"/>
<text text-anchor="start" x="1029" y="-73" font-family="Helvetica,sans-Serif" font-size="10.00">stxxl::btree::btree</text>
<text text-anchor="middle" x="1080" y="-60" font-family="Helvetica,sans-Serif" font-size="10.00">_iterator&lt; BTreeType &gt;</text>
</a>
</g>
<!-- Node14&#45;&gt;Node15 -->
<g id="edge44" class="edge"><title>Node14&#45;&gt;Node15</title>
<path fill="none" stroke="midnightblue" d="M924.238,-37.5857C956.065,-44.0048 991.784,-51.2085 1020.98,-57.0968"/>
<polygon fill="midnightblue" stroke="midnightblue" points="924.548,-34.078 914.054,-35.5318 923.164,-40.9398 924.548,-34.078"/>
</g>
<!-- Node15&#45;&gt;Node12 -->
<g id="edge42" class="edge"><title>Node15&#45;&gt;Node12</title>
<path fill="none" stroke="orange" stroke-dasharray="5,2" d="M1149.49,-69C1183.11,-69 1222.88,-69 1254.3,-69"/>
<polygon fill="orange" stroke="orange" points="1149.27,-65.5001 1139.27,-69 1149.27,-72.5001 1149.27,-65.5001"/>
<text text-anchor="middle" x="1201" y="-73" font-family="Helvetica,sans-Serif" font-size="10.00"> &lt; SelfType &gt;</text>
</g>
<!-- Node16&#45;&gt;Node1 -->
<g id="edge46" class="edge"><title>Node16&#45;&gt;Node1</title>
<path fill="none" stroke="#9a32cd" stroke-dasharray="5,2" d="M670.473,-322.89C717.179,-315.955 783.5,-308 842,-308 842,-308 842,-308 1309,-308 1358.07,-308 1412.37,-300.116 1455.89,-291.832"/>
<polygon fill="#9a32cd" stroke="#9a32cd" points="669.883,-319.439 660.52,-324.396 670.931,-326.36 669.883,-319.439"/>
<text text-anchor="middle" x="1080" y="-312" font-family="Helvetica,sans-Serif" font-size="10.00"> iterator_map_</text>
</g>
<!-- Node17&#45;&gt;Node16 -->
<g id="edge50" class="edge"><title>Node17&#45;&gt;Node16</title>
<path fill="none" stroke="orange" stroke-dasharray="5,2" d="M386.74,-333C438.634,-333 510.923,-333 559.027,-333"/>
<polygon fill="orange" stroke="orange" points="386.646,-329.5 376.646,-333 386.646,-336.5 386.646,-329.5"/>
<text text-anchor="middle" x="474" y="-337" font-family="Helvetica,sans-Serif" font-size="10.00"> &lt; SelfType &gt;</text>
</g>
</g>
</svg>
