<?xml version="1.0" encoding="UTF-8" standalone="no"?>
<!DOCTYPE svg PUBLIC "-//W3C//DTD SVG 1.1//EN"
 "http://www.w3.org/Graphics/SVG/1.1/DTD/svg11.dtd">
<!-- Generated by graphviz version 2.38.0 (20140413.2041)
 -->
<!-- Title: stxxl::block_scheduler_algorithm_offline_lru_prefetching&lt; SwappableBlockType &gt; Pages: 1 -->
<svg width="190pt" height="173pt"
 viewBox="0.00 0.00 190.00 173.00" xmlns="http://www.w3.org/2000/svg" xmlns:xlink="http://www.w3.org/1999/xlink">
<g id="graph0" class="graph" transform="scale(1 1) rotate(0) translate(4 169)">
<title>stxxl::block_scheduler_algorithm_offline_lru_prefetching&lt; SwappableBlockType &gt;</title>
<!-- Node1 -->
<g id="node1" class="node"><title>Node1</title>
<polygon fill="#bfbfbf" stroke="black" points="0,-0.5 0,-41.5 182,-41.5 182,-0.5 0,-0.5"/>
<text text-anchor="start" x="8" y="-29.5" font-family="Helvetica,sans-Serif" font-size="10.00">stxxl::block_scheduler</text>
<text text-anchor="start" x="8" y="-18.5" font-family="Helvetica,sans-Serif" font-size="10.00">_algorithm_offline_lru</text>
<text text-anchor="middle" x="91" y="-7.5" font-family="Helvetica,sans-Serif" font-size="10.00">_prefetching&lt; SwappableBlockType &gt;</text>
</g>
<!-- Node2 -->
<g id="node2" class="node"><title>Node2</title>
<g id="a_node2"><a xlink:href="classstxxl_1_1block__scheduler__algorithm.html" target="_top" xlink:title="Interface of a block scheduling algorithm. ">
<polygon fill="none" stroke="black" points="4,-78.5 4,-108.5 178,-108.5 178,-78.5 4,-78.5"/>
<text text-anchor="start" x="12" y="-96.5" font-family="Helvetica,sans-Serif" font-size="10.00">stxxl::block_scheduler</text>
<text text-anchor="middle" x="91" y="-85.5" font-family="Helvetica,sans-Serif" font-size="10.00">_algorithm&lt; SwappableBlockType &gt;</text>
</a>
</g>
</g>
<!-- Node2&#45;&gt;Node1 -->
<g id="edge1" class="edge"><title>Node2&#45;&gt;Node1</title>
<path fill="none" stroke="midnightblue" d="M91,-67.9815C91,-59.3468 91,-49.7625 91,-41.5884"/>
<polygon fill="midnightblue" stroke="midnightblue" points="87.5001,-68.2332 91,-78.2333 94.5001,-68.2333 87.5001,-68.2332"/>
</g>
<!-- Node3 -->
<g id="node3" class="node"><title>Node3</title>
<g id="a_node3"><a xlink:href="classstxxl_1_1noncopyable.html" target="_top" xlink:title="stxxl::noncopyable">
<polygon fill="none" stroke="black" points="42,-145.5 42,-164.5 140,-164.5 140,-145.5 42,-145.5"/>
<text text-anchor="middle" x="91" y="-152.5" font-family="Helvetica,sans-Serif" font-size="10.00">stxxl::noncopyable</text>
</a>
</g>
</g>
<!-- Node3&#45;&gt;Node2 -->
<g id="edge2" class="edge"><title>Node3&#45;&gt;Node2</title>
<path fill="none" stroke="#8b1a1a" d="M91,-135.235C91,-126.586 91,-116.497 91,-108.523"/>
<polygon fill="#8b1a1a" stroke="#8b1a1a" points="87.5001,-135.475 91,-145.475 94.5001,-135.475 87.5001,-135.475"/>
</g>
</g>
</svg>
