<?xml version="1.0" encoding="UTF-8" standalone="no"?>
<!DOCTYPE svg PUBLIC "-//W3C//DTD SVG 1.1//EN"
 "http://www.w3.org/Graphics/SVG/1.1/DTD/svg11.dtd">
<!-- Generated by graphviz version 2.38.0 (20140413.2041)
 -->
<!-- Title: stxxl::stream::basic_runs_merger&lt; RunsType, CompareType, AllocStr &gt; Pages: 1 -->
<svg width="950pt" height="204pt"
 viewBox="0.00 0.00 950.00 203.50" xmlns="http://www.w3.org/2000/svg" xmlns:xlink="http://www.w3.org/1999/xlink">
<g id="graph0" class="graph" transform="scale(1 1) rotate(0) translate(4 199.5)">
<title>stxxl::stream::basic_runs_merger&lt; RunsType, CompareType, AllocStr &gt;</title>
<!-- Node1 -->
<g id="node1" class="node"><title>Node1</title>
<polygon fill="#bfbfbf" stroke="black" points="135,-82.5 135,-123.5 268,-123.5 268,-82.5 135,-82.5"/>
<text text-anchor="start" x="143" y="-111.5" font-family="Helvetica,sans-Serif" font-size="10.00">stxxl::stream::basic</text>
<text text-anchor="start" x="143" y="-100.5" font-family="Helvetica,sans-Serif" font-size="10.00">_runs_merger&lt; RunsType,</text>
<text text-anchor="middle" x="201.5" y="-89.5" font-family="Helvetica,sans-Serif" font-size="10.00"> CompareType, AllocStr &gt;</text>
</g>
<!-- Node3 -->
<g id="node3" class="node"><title>Node3</title>
<g id="a_node3"><a xlink:href="classstxxl_1_1stream_1_1runs__merger.html" target="_top" xlink:title="Merges sorted runs. ">
<polygon fill="none" stroke="black" points="450,-82.5 450,-123.5 602,-123.5 602,-82.5 450,-82.5"/>
<text text-anchor="start" x="458" y="-111.5" font-family="Helvetica,sans-Serif" font-size="10.00">stxxl::stream::runs</text>
<text text-anchor="start" x="458" y="-100.5" font-family="Helvetica,sans-Serif" font-size="10.00">_merger&lt; RunsType, Compare</text>
<text text-anchor="middle" x="526" y="-89.5" font-family="Helvetica,sans-Serif" font-size="10.00">Type, AllocStr &gt;</text>
</a>
</g>
</g>
<!-- Node1&#45;&gt;Node3 -->
<g id="edge2" class="edge"><title>Node1&#45;&gt;Node3</title>
<path fill="none" stroke="midnightblue" d="M278.267,-103C329.996,-103 398.235,-103 449.835,-103"/>
<polygon fill="midnightblue" stroke="midnightblue" points="278.151,-99.5001 268.151,-103 278.151,-106.5 278.151,-99.5001"/>
</g>
<!-- Node6 -->
<g id="node6" class="node"><title>Node6</title>
<g id="a_node6"><a xlink:href="classstxxl_1_1stream_1_1basic__runs__merger.html" target="_top" xlink:title="stxxl::stream::basic\l_runs_merger\&lt; sorted\l_runs_type, CompareType,\l AllocStr \&gt;">
<polygon fill="none" stroke="black" points="458.5,-143 458.5,-195 593.5,-195 593.5,-143 458.5,-143"/>
<text text-anchor="start" x="466.5" y="-183" font-family="Helvetica,sans-Serif" font-size="10.00">stxxl::stream::basic</text>
<text text-anchor="start" x="466.5" y="-172" font-family="Helvetica,sans-Serif" font-size="10.00">_runs_merger&lt; sorted</text>
<text text-anchor="start" x="466.5" y="-161" font-family="Helvetica,sans-Serif" font-size="10.00">_runs_type, CompareType,</text>
<text text-anchor="middle" x="526" y="-150" font-family="Helvetica,sans-Serif" font-size="10.00"> AllocStr &gt;</text>
</a>
</g>
</g>
<!-- Node1&#45;&gt;Node6 -->
<g id="edge5" class="edge"><title>Node1&#45;&gt;Node6</title>
<path fill="none" stroke="orange" stroke-dasharray="5,2" d="M278.129,-118.478C332.767,-129.659 405.877,-144.621 458.333,-155.357"/>
<polygon fill="orange" stroke="orange" points="278.65,-115.012 268.151,-116.436 277.247,-121.87 278.65,-115.012"/>
<text text-anchor="start" x="301.5" y="-164" font-family="Helvetica,sans-Serif" font-size="10.00"> &lt; sorted_runs_type,</text>
<text text-anchor="middle" x="359" y="-153" font-family="Helvetica,sans-Serif" font-size="10.00"> CompareType, AllocStr &gt;</text>
</g>
<!-- Node7 -->
<g id="node7" class="node"><title>Node7</title>
<g id="a_node7"><a xlink:href="classstxxl_1_1stream_1_1basic__runs__merger.html" target="_top" xlink:title="stxxl::stream::basic\l_runs_merger\&lt; typename\l runs_creator_type::sorted\l_runs_type, cmp_type, alloc\l_strategy_type \&gt;">
<polygon fill="none" stroke="black" points="456,-0.5 456,-63.5 596,-63.5 596,-0.5 456,-0.5"/>
<text text-anchor="start" x="464" y="-51.5" font-family="Helvetica,sans-Serif" font-size="10.00">stxxl::stream::basic</text>
<text text-anchor="start" x="464" y="-40.5" font-family="Helvetica,sans-Serif" font-size="10.00">_runs_merger&lt; typename</text>
<text text-anchor="start" x="464" y="-29.5" font-family="Helvetica,sans-Serif" font-size="10.00"> runs_creator_type::sorted</text>
<text text-anchor="start" x="464" y="-18.5" font-family="Helvetica,sans-Serif" font-size="10.00">_runs_type, cmp_type, alloc</text>
<text text-anchor="middle" x="526" y="-7.5" font-family="Helvetica,sans-Serif" font-size="10.00">_strategy_type &gt;</text>
</a>
</g>
</g>
<!-- Node1&#45;&gt;Node7 -->
<g id="edge7" class="edge"><title>Node1&#45;&gt;Node7</title>
<path fill="none" stroke="orange" stroke-dasharray="5,2" d="M252.233,-78.291C263.152,-73.6266 274.801,-69.2108 286,-66 342,-49.9447 407.648,-41.3008 455.958,-36.7532"/>
<polygon fill="orange" stroke="orange" points="250.591,-75.1899 242.856,-82.4301 253.418,-81.5938 250.591,-75.1899"/>
<text text-anchor="start" x="286" y="-91" font-family="Helvetica,sans-Serif" font-size="10.00"> &lt; typename runs_creator</text>
<text text-anchor="start" x="286" y="-80" font-family="Helvetica,sans-Serif" font-size="10.00">_type::sorted_runs_type,</text>
<text text-anchor="middle" x="359" y="-69" font-family="Helvetica,sans-Serif" font-size="10.00"> cmp_type, alloc_strategy_type &gt;</text>
</g>
<!-- Node2 -->
<g id="node2" class="node"><title>Node2</title>
<g id="a_node2"><a xlink:href="classstxxl_1_1noncopyable.html" target="_top" xlink:title="stxxl::noncopyable">
<polygon fill="none" stroke="black" points="0,-93.5 0,-112.5 98,-112.5 98,-93.5 0,-93.5"/>
<text text-anchor="middle" x="49" y="-100.5" font-family="Helvetica,sans-Serif" font-size="10.00">stxxl::noncopyable</text>
</a>
</g>
</g>
<!-- Node2&#45;&gt;Node1 -->
<g id="edge1" class="edge"><title>Node2&#45;&gt;Node1</title>
<path fill="none" stroke="#8b1a1a" d="M108.115,-103C116.856,-103 125.924,-103 134.81,-103"/>
<polygon fill="#8b1a1a" stroke="#8b1a1a" points="108.033,-99.5001 98.0329,-103 108.033,-106.5 108.033,-99.5001"/>
</g>
<!-- Node4 -->
<g id="node4" class="node"><title>Node4</title>
<g id="a_node4"><a xlink:href="classstxxl_1_1stream_1_1runs__merger.html" target="_top" xlink:title="stxxl::stream::runs\l_merger\&lt; sorted_runs\l_type, CompareType, AllocStr \&gt;">
<polygon fill="none" stroke="black" points="784,-121.5 784,-162.5 942,-162.5 942,-121.5 784,-121.5"/>
<text text-anchor="start" x="792" y="-150.5" font-family="Helvetica,sans-Serif" font-size="10.00">stxxl::stream::runs</text>
<text text-anchor="start" x="792" y="-139.5" font-family="Helvetica,sans-Serif" font-size="10.00">_merger&lt; sorted_runs</text>
<text text-anchor="middle" x="863" y="-128.5" font-family="Helvetica,sans-Serif" font-size="10.00">_type, CompareType, AllocStr &gt;</text>
</a>
</g>
</g>
<!-- Node3&#45;&gt;Node4 -->
<g id="edge3" class="edge"><title>Node3&#45;&gt;Node4</title>
<path fill="none" stroke="orange" stroke-dasharray="5,2" d="M612.323,-111.077C657.966,-115.611 715.103,-121.629 766,-128 771.849,-128.732 777.894,-129.526 783.971,-130.35"/>
<polygon fill="orange" stroke="orange" points="612.468,-107.574 602.172,-110.074 611.779,-114.54 612.468,-107.574"/>
<text text-anchor="start" x="635.5" y="-142" font-family="Helvetica,sans-Serif" font-size="10.00"> &lt; sorted_runs_type,</text>
<text text-anchor="middle" x="693" y="-131" font-family="Helvetica,sans-Serif" font-size="10.00"> CompareType, AllocStr &gt;</text>
</g>
<!-- Node5 -->
<g id="node5" class="node"><title>Node5</title>
<g id="a_node5"><a xlink:href="classstxxl_1_1stream_1_1runs__merger.html" target="_top" xlink:title="stxxl::stream::runs\l_merger\&lt; typename runs\l_creator_type::sorted\l_runs_type, cmp_type, alloc\l_strategy_type \&gt;">
<polygon fill="none" stroke="black" points="793,-28.5 793,-91.5 933,-91.5 933,-28.5 793,-28.5"/>
<text text-anchor="start" x="801" y="-79.5" font-family="Helvetica,sans-Serif" font-size="10.00">stxxl::stream::runs</text>
<text text-anchor="start" x="801" y="-68.5" font-family="Helvetica,sans-Serif" font-size="10.00">_merger&lt; typename runs</text>
<text text-anchor="start" x="801" y="-57.5" font-family="Helvetica,sans-Serif" font-size="10.00">_creator_type::sorted</text>
<text text-anchor="start" x="801" y="-46.5" font-family="Helvetica,sans-Serif" font-size="10.00">_runs_type, cmp_type, alloc</text>
<text text-anchor="middle" x="863" y="-35.5" font-family="Helvetica,sans-Serif" font-size="10.00">_strategy_type &gt;</text>
</a>
</g>
</g>
<!-- Node3&#45;&gt;Node5 -->
<g id="edge4" class="edge"><title>Node3&#45;&gt;Node5</title>
<path fill="none" stroke="orange" stroke-dasharray="5,2" d="M600.908,-79.986C607.325,-78.4625 613.752,-77.1001 620,-76 677.744,-65.8328 744.271,-61.9924 792.941,-60.6041"/>
<polygon fill="orange" stroke="orange" points="599.712,-76.6772 590.86,-82.4981 601.41,-83.4682 599.712,-76.6772"/>
<text text-anchor="start" x="620" y="-101" font-family="Helvetica,sans-Serif" font-size="10.00"> &lt; typename runs_creator</text>
<text text-anchor="start" x="620" y="-90" font-family="Helvetica,sans-Serif" font-size="10.00">_type::sorted_runs_type,</text>
<text text-anchor="middle" x="693" y="-79" font-family="Helvetica,sans-Serif" font-size="10.00"> cmp_type, alloc_strategy_type &gt;</text>
</g>
<!-- Node6&#45;&gt;Node4 -->
<g id="edge6" class="edge"><title>Node6&#45;&gt;Node4</title>
<path fill="none" stroke="midnightblue" d="M603.627,-165.395C650.56,-162.888 711.818,-159.082 766,-154 771.853,-153.451 777.9,-152.828 783.979,-152.161"/>
<polygon fill="midnightblue" stroke="midnightblue" points="603.338,-161.906 593.536,-165.926 603.706,-168.896 603.338,-161.906"/>
</g>
<!-- Node7&#45;&gt;Node5 -->
<g id="edge8" class="edge"><title>Node7&#45;&gt;Node5</title>
<path fill="none" stroke="midnightblue" d="M606.074,-38.0039C652.641,-41.6102 712.685,-46.3819 766,-51 774.672,-51.7512 783.782,-52.5685 792.794,-53.3942"/>
<polygon fill="midnightblue" stroke="midnightblue" points="606.289,-34.5102 596.049,-37.2295 605.749,-41.4894 606.289,-34.5102"/>
</g>
</g>
</svg>
