<?xml version="1.0" encoding="UTF-8" standalone="no"?>
<!DOCTYPE svg PUBLIC "-//W3C//DTD SVG 1.1//EN"
 "http://www.w3.org/Graphics/SVG/1.1/DTD/svg11.dtd">
<!-- Generated by graphviz version 2.38.0 (20140413.2041)
 -->
<!-- Title: stxxl::vector&lt; ValueType, PageSize, PagerType, BlockSize, AllocStr, SizeType &gt; Pages: 1 -->
<svg width="231pt" height="185pt"
 viewBox="0.00 0.00 230.50 185.00" xmlns="http://www.w3.org/2000/svg" xmlns:xlink="http://www.w3.org/1999/xlink">
<g id="graph0" class="graph" transform="scale(1 1) rotate(0) translate(4 181)">
<title>stxxl::vector&lt; ValueType, PageSize, PagerType, BlockSize, AllocStr, SizeType &gt;</title>
<!-- Node1 -->
<g id="node1" class="node"><title>Node1</title>
<polygon fill="#bfbfbf" stroke="black" points="29.5,-135.5 29.5,-176.5 197.5,-176.5 197.5,-135.5 29.5,-135.5"/>
<text text-anchor="start" x="37.5" y="-164.5" font-family="Helvetica,sans-Serif" font-size="10.00">stxxl::vector&lt; ValueType,</text>
<text text-anchor="start" x="37.5" y="-153.5" font-family="Helvetica,sans-Serif" font-size="10.00"> PageSize, PagerType, BlockSize,</text>
<text text-anchor="middle" x="113.5" y="-142.5" font-family="Helvetica,sans-Serif" font-size="10.00"> AllocStr, SizeType &gt;</text>
</g>
<!-- Node2 -->
<g id="node2" class="node"><title>Node2</title>
<g id="a_node2"><a xlink:href="classstxxl_1_1vector.html" target="_top" xlink:title="stxxl::vector\&lt; ValueType \&gt;">
<polygon fill="none" stroke="black" points="46,-68.5 46,-87.5 181,-87.5 181,-68.5 46,-68.5"/>
<text text-anchor="middle" x="113.5" y="-75.5" font-family="Helvetica,sans-Serif" font-size="10.00">stxxl::vector&lt; ValueType &gt;</text>
</a>
</g>
</g>
<!-- Node1&#45;&gt;Node2 -->
<g id="edge1" class="edge"><title>Node1&#45;&gt;Node2</title>
<path fill="none" stroke="orange" stroke-dasharray="5,2" d="M113.5,-125.051C113.5,-111.56 113.5,-96.6493 113.5,-87.552"/>
<polygon fill="orange" stroke="orange" points="110,-125.428 113.5,-135.428 117,-125.428 110,-125.428"/>
<text text-anchor="middle" x="147.5" y="-109" font-family="Helvetica,sans-Serif" font-size="10.00"> &lt; ValueType &gt;</text>
</g>
<!-- Node3 -->
<g id="node3" class="node"><title>Node3</title>
<g id="a_node3"><a xlink:href="classstxxl_1_1column__vector.html" target="_top" xlink:title="external column&#45;vector container for matrix multiplication ">
<polygon fill="none" stroke="black" points="0,-0.5 0,-30.5 107,-30.5 107,-0.5 0,-0.5"/>
<text text-anchor="start" x="8" y="-18.5" font-family="Helvetica,sans-Serif" font-size="10.00">stxxl::column_vector</text>
<text text-anchor="middle" x="53.5" y="-7.5" font-family="Helvetica,sans-Serif" font-size="10.00">&lt; ValueType &gt;</text>
</a>
</g>
</g>
<!-- Node2&#45;&gt;Node3 -->
<g id="edge2" class="edge"><title>Node2&#45;&gt;Node3</title>
<path fill="none" stroke="midnightblue" d="M97.7376,-61.1063C88.4036,-51.6944 76.6755,-39.8687 67.6408,-30.7587"/>
<polygon fill="midnightblue" stroke="midnightblue" points="95.3766,-63.696 104.903,-68.3318 100.347,-58.7669 95.3766,-63.696"/>
</g>
<!-- Node4 -->
<g id="node4" class="node"><title>Node4</title>
<g id="a_node4"><a xlink:href="classstxxl_1_1row__vector.html" target="_top" xlink:title="external row&#45;vector container for matrix multiplication ">
<polygon fill="none" stroke="black" points="124.5,-0.5 124.5,-30.5 222.5,-30.5 222.5,-0.5 124.5,-0.5"/>
<text text-anchor="start" x="132.5" y="-18.5" font-family="Helvetica,sans-Serif" font-size="10.00">stxxl::row_vector&lt;</text>
<text text-anchor="middle" x="173.5" y="-7.5" font-family="Helvetica,sans-Serif" font-size="10.00"> ValueType &gt;</text>
</a>
</g>
</g>
<!-- Node2&#45;&gt;Node4 -->
<g id="edge3" class="edge"><title>Node2&#45;&gt;Node4</title>
<path fill="none" stroke="midnightblue" d="M129.262,-61.1063C138.596,-51.6944 150.324,-39.8687 159.359,-30.7587"/>
<polygon fill="midnightblue" stroke="midnightblue" points="126.653,-58.7669 122.097,-68.3318 131.623,-63.696 126.653,-58.7669"/>
</g>
</g>
</svg>
