<?xml version="1.0" encoding="UTF-8" standalone="no"?>
<!DOCTYPE svg PUBLIC "-//W3C//DTD SVG 1.1//EN"
 "http://www.w3.org/Graphics/SVG/1.1/DTD/svg11.dtd">
<!-- Generated by graphviz version 2.38.0 (20140413.2041)
 -->
<!-- Title: stxxl::file Pages: 1 -->
<svg width="333pt" height="262pt"
 viewBox="0.00 0.00 333.00 262.00" xmlns="http://www.w3.org/2000/svg" xmlns:xlink="http://www.w3.org/1999/xlink">
<g id="graph0" class="graph" transform="scale(1 1) rotate(0) translate(4 258)">
<title>stxxl::file</title>
<!-- Node1 -->
<g id="node1" class="node"><title>Node1</title>
<polygon fill="#bfbfbf" stroke="black" points="27,-0.5 27,-19.5 83,-19.5 83,-0.5 27,-0.5"/>
<text text-anchor="middle" x="55" y="-7.5" font-family="Helvetica,sans-Serif" font-size="10.00">stxxl::file</text>
</g>
<!-- Node2 -->
<g id="node2" class="node"><title>Node2</title>
<g id="a_node2"><a xlink:href="classstxxl_1_1noncopyable.html" target="_top" xlink:title="stxxl::noncopyable">
<polygon fill="none" stroke="black" points="0,-229 0,-248 98,-248 98,-229 0,-229"/>
<text text-anchor="middle" x="49" y="-236" font-family="Helvetica,sans-Serif" font-size="10.00">stxxl::noncopyable</text>
</a>
</g>
</g>
<!-- Node2&#45;&gt;Node1 -->
<g id="edge1" class="edge"><title>Node2&#45;&gt;Node1</title>
<path fill="none" stroke="#8b1a1a" d="M47.1856,-218.64C44.4638,-187.154 40.1349,-121.92 45,-67 46.4989,-50.0795 50.4978,-30.6166 52.9607,-19.6659"/>
<polygon fill="#8b1a1a" stroke="#8b1a1a" points="43.7332,-219.322 48.1275,-228.963 50.7043,-218.686 43.7332,-219.322"/>
</g>
<!-- Node4 -->
<g id="node4" class="node"><title>Node4</title>
<g id="a_node4"><a xlink:href="classstxxl_1_1mutex.html" target="_top" xlink:title="stxxl::mutex">
<polygon fill="none" stroke="black" points="54.5,-151 54.5,-170 125.5,-170 125.5,-151 54.5,-151"/>
<text text-anchor="middle" x="90" y="-158" font-family="Helvetica,sans-Serif" font-size="10.00">stxxl::mutex</text>
</a>
</g>
</g>
<!-- Node2&#45;&gt;Node4 -->
<g id="edge4" class="edge"><title>Node2&#45;&gt;Node4</title>
<path fill="none" stroke="#8b1a1a" d="M58.6449,-219.622C67.0563,-204.03 78.8943,-182.086 85.3516,-170.116"/>
<polygon fill="#8b1a1a" stroke="#8b1a1a" points="55.3708,-218.319 53.7032,-228.782 61.5315,-221.643 55.3708,-218.319"/>
</g>
<!-- Node3 -->
<g id="node3" class="node"><title>Node3</title>
<g id="a_node3"><a xlink:href="classstxxl_1_1atomic__counted__object.html" target="_top" xlink:title="Provides reference counting abilities for use with counting_ptr with mutex locking. ">
<polygon fill="none" stroke="black" points="54.5,-67.5 54.5,-97.5 167.5,-97.5 167.5,-67.5 54.5,-67.5"/>
<text text-anchor="start" x="62.5" y="-85.5" font-family="Helvetica,sans-Serif" font-size="10.00">stxxl::atomic_counted</text>
<text text-anchor="middle" x="111" y="-74.5" font-family="Helvetica,sans-Serif" font-size="10.00">_object</text>
</a>
</g>
</g>
<!-- Node3&#45;&gt;Node1 -->
<g id="edge2" class="edge"><title>Node3&#45;&gt;Node1</title>
<path fill="none" stroke="#9a32cd" stroke-dasharray="5,2" d="M93.4331,-59.3845C82.8301,-46.0362 69.8981,-29.7556 62.0641,-19.8932"/>
<polygon fill="#9a32cd" stroke="#9a32cd" points="90.7071,-61.5799 99.6676,-67.2333 96.1883,-57.226 90.7071,-61.5799"/>
<text text-anchor="middle" x="118" y="-41" font-family="Helvetica,sans-Serif" font-size="10.00"> m_request_ref</text>
</g>
<!-- Node4&#45;&gt;Node3 -->
<g id="edge3" class="edge"><title>Node4&#45;&gt;Node3</title>
<path fill="none" stroke="#9a32cd" stroke-dasharray="5,2" d="M88.3017,-140.72C88.1405,-132.929 88.67,-123.885 91,-116 92.915,-109.519 96.479,-103.044 100.074,-97.5975"/>
<polygon fill="#9a32cd" stroke="#9a32cd" points="84.8227,-141.181 88.9028,-150.959 91.8106,-140.771 84.8227,-141.181"/>
<text text-anchor="middle" x="150.5" y="-119" font-family="Helvetica,sans-Serif" font-size="10.00"> m_reference_count_mutex</text>
</g>
<!-- Node5 -->
<g id="node5" class="node"><title>Node5</title>
<g id="a_node5"><a xlink:href="structstxxl_1_1choose__int__types.html" target="_top" xlink:title="stxxl::choose_int_types\l\&lt; my_pointer_size \&gt;">
<polygon fill="none" stroke="black" points="172,-145.5 172,-175.5 292,-175.5 292,-145.5 172,-145.5"/>
<text text-anchor="start" x="180" y="-163.5" font-family="Helvetica,sans-Serif" font-size="10.00">stxxl::choose_int_types</text>
<text text-anchor="middle" x="232" y="-152.5" font-family="Helvetica,sans-Serif" font-size="10.00">&lt; my_pointer_size &gt;</text>
</a>
</g>
</g>
<!-- Node5&#45;&gt;Node3 -->
<g id="edge5" class="edge"><title>Node5&#45;&gt;Node3</title>
<path fill="none" stroke="#9a32cd" stroke-dasharray="5,2" d="M224.062,-135.714C220.687,-128.562 216.09,-121.233 210,-116 197.995,-105.684 182.631,-98.6228 167.606,-93.7971"/>
<polygon fill="#9a32cd" stroke="#9a32cd" points="220.898,-137.223 227.932,-145.145 227.374,-134.565 220.898,-137.223"/>
<text text-anchor="middle" x="262.5" y="-119" font-family="Helvetica,sans-Serif" font-size="10.00"> m_reference_count</text>
</g>
<!-- Node6 -->
<g id="node6" class="node"><title>Node6</title>
<g id="a_node6"><a xlink:href="structstxxl_1_1choose__int__types.html" target="_top" xlink:title="stxxl::choose_int_types\l\&lt; PtrSize \&gt;">
<polygon fill="none" stroke="black" points="172,-223.5 172,-253.5 292,-253.5 292,-223.5 172,-223.5"/>
<text text-anchor="start" x="180" y="-241.5" font-family="Helvetica,sans-Serif" font-size="10.00">stxxl::choose_int_types</text>
<text text-anchor="middle" x="232" y="-230.5" font-family="Helvetica,sans-Serif" font-size="10.00">&lt; PtrSize &gt;</text>
</a>
</g>
</g>
<!-- Node6&#45;&gt;Node5 -->
<g id="edge6" class="edge"><title>Node6&#45;&gt;Node5</title>
<path fill="none" stroke="orange" stroke-dasharray="5,2" d="M232,-213.09C232,-200.757 232,-186.224 232,-175.731"/>
<polygon fill="orange" stroke="orange" points="228.5,-213.205 232,-223.205 235.5,-213.205 228.5,-213.205"/>
<text text-anchor="middle" x="278.5" y="-197" font-family="Helvetica,sans-Serif" font-size="10.00"> &lt; my_pointer_size &gt;</text>
</g>
</g>
</svg>
