<?xml version="1.0" encoding="UTF-8" standalone="no"?>
<!DOCTYPE svg PUBLIC "-//W3C//DTD SVG 1.1//EN"
 "http://www.w3.org/Graphics/SVG/1.1/DTD/svg11.dtd">
<!-- Generated by graphviz version 2.26.3 (20100126.1600)
 -->
<!-- Title: stxxl::priority_queue_local::internal_bounded_stack&lt; Tp_, max_size_ &gt; Pages: 1 -->
<svg width="488pt" height="122pt"
 viewBox="0.00 0.00 488.00 122.00" xmlns="http://www.w3.org/2000/svg" xmlns:xlink="http://www.w3.org/1999/xlink">
<g id="graph1" class="graph" transform="scale(1 1) rotate(0) translate(4 118)">
<title>stxxl::priority_queue_local::internal_bounded_stack&lt; Tp_, max_size_ &gt;</title>
<!-- Node1 -->
<g id="node1" class="node"><title>Node1</title>
<polygon fill="#bfbfbf" stroke="black" points="0,-33.5 0,-80.5 134,-80.5 134,-33.5 0,-33.5"/>
<text text-anchor="start" x="8" y="-67.5" font-family="Helvetica,sans-Serif" font-size="10.00">stxxl::priority_queue</text>
<text text-anchor="start" x="8" y="-54.5" font-family="Helvetica,sans-Serif" font-size="10.00">_local::internal_bounded</text>
<text text-anchor="middle" x="67" y="-41.5" font-family="Helvetica,sans-Serif" font-size="10.00">_stack&lt; Tp_, max_size_ &gt;</text>
</g>
<!-- Node2 -->
<g id="node3" class="node"><title>Node2</title>
<a xlink:href="classstxxl_1_1priority__queue__local_1_1internal__bounded__stack.html" target="_top" xlink:title="stxxl::priority_queue\l_local::internal_bounded\l_stack\&lt; unsigned_type, arity \&gt;">
<polygon fill="none" stroke="black" points="316,-66.5 316,-113.5 468,-113.5 468,-66.5 316,-66.5"/>
<text text-anchor="start" x="324" y="-100.5" font-family="Helvetica,sans-Serif" font-size="10.00">stxxl::priority_queue</text>
<text text-anchor="start" x="324" y="-87.5" font-family="Helvetica,sans-Serif" font-size="10.00">_local::internal_bounded</text>
<text text-anchor="middle" x="392" y="-74.5" font-family="Helvetica,sans-Serif" font-size="10.00">_stack&lt; unsigned_type, arity &gt;</text>
</a>
</g>
<!-- Node1&#45;&gt;Node2 -->
<g id="edge2" class="edge"><title>Node1&#45;&gt;Node2</title>
<path fill="none" stroke="orange" stroke-dasharray="5,2" d="M144.492,-64.8684C196.372,-70.1362 264.342,-77.0378 315.925,-82.2755"/>
<polygon fill="orange" stroke="orange" points="144.643,-61.3658 134.34,-63.8376 143.935,-68.33 144.643,-61.3658"/>
<text text-anchor="middle" x="219" y="-82" font-family="Helvetica,sans-Serif" font-size="10.00"> &lt; unsigned_type, arity &gt;</text>
</g>
<!-- Node3 -->
<g id="node5" class="node"><title>Node3</title>
<a xlink:href="classstxxl_1_1priority__queue__local_1_1internal__bounded__stack.html" target="_top" xlink:title="stxxl::priority_queue\l_local::internal_bounded\l_stack\&lt; unsigned_type, KNKMAX \&gt;">
<polygon fill="none" stroke="black" points="304,-0.5 304,-47.5 480,-47.5 480,-0.5 304,-0.5"/>
<text text-anchor="start" x="312" y="-34.5" font-family="Helvetica,sans-Serif" font-size="10.00">stxxl::priority_queue</text>
<text text-anchor="start" x="312" y="-21.5" font-family="Helvetica,sans-Serif" font-size="10.00">_local::internal_bounded</text>
<text text-anchor="middle" x="392" y="-8.5" font-family="Helvetica,sans-Serif" font-size="10.00">_stack&lt; unsigned_type, KNKMAX &gt;</text>
</a>
</g>
<!-- Node1&#45;&gt;Node3 -->
<g id="edge4" class="edge"><title>Node1&#45;&gt;Node3</title>
<path fill="none" stroke="orange" stroke-dasharray="5,2" d="M144.335,-48.7922C146.921,-48.524 149.481,-48.2593 152,-48 202.298,-42.8223 258.542,-37.1895 303.933,-32.6828"/>
<polygon fill="orange" stroke="orange" points="143.857,-45.323 134.273,-49.8404 144.582,-52.2853 143.857,-45.323"/>
<text text-anchor="middle" x="219" y="-52" font-family="Helvetica,sans-Serif" font-size="10.00"> &lt; unsigned_type, KNKMAX &gt;</text>
</g>
</g>
</svg>
