<?xml version="1.0" encoding="UTF-8" standalone="no"?>
<!DOCTYPE svg PUBLIC "-//W3C//DTD SVG 1.1//EN"
 "http://www.w3.org/Graphics/SVG/1.1/DTD/svg11.dtd">
<!-- Generated by graphviz version 2.26.3 (20100126.1600)
 -->
<!-- Title: stxxl::read_write_pool&lt; BlockType &gt; Pages: 1 -->
<svg width="822pt" height="202pt"
 viewBox="0.00 0.00 822.00 202.00" xmlns="http://www.w3.org/2000/svg" xmlns:xlink="http://www.w3.org/1999/xlink">
<g id="graph1" class="graph" transform="scale(1 1) rotate(0) translate(4 198)">
<title>stxxl::read_write_pool&lt; BlockType &gt;</title>
<!-- Node1 -->
<g id="node1" class="node"><title>Node1</title>
<polygon fill="#bfbfbf" stroke="black" points="702,-115 702,-149 814,-149 814,-115 702,-115"/>
<text text-anchor="start" x="710" y="-136" font-family="Helvetica,sans-Serif" font-size="10.00">stxxl::read_write_pool</text>
<text text-anchor="middle" x="758" y="-123" font-family="Helvetica,sans-Serif" font-size="10.00">&lt; BlockType &gt;</text>
</g>
<!-- Node2 -->
<g id="node2" class="node"><title>Node2</title>
<a xlink:href="classstxxl_1_1noncopyable.html" target="_top" xlink:title="stxxl::noncopyable">
<polygon fill="none" stroke="black" points="307,-121.5 307,-142.5 405,-142.5 405,-121.5 307,-121.5"/>
<text text-anchor="middle" x="356" y="-129.5" font-family="Helvetica,sans-Serif" font-size="10.00">stxxl::noncopyable</text>
</a>
</g>
<!-- Node2&#45;&gt;Node1 -->
<g id="edge2" class="edge"><title>Node2&#45;&gt;Node1</title>
<path fill="none" stroke="#8b1a1a" d="M415.332,-132C492.483,-132 626.279,-132 701.839,-132"/>
<polygon fill="#8b1a1a" stroke="#8b1a1a" points="415.293,-128.5 405.293,-132 415.293,-135.5 415.293,-128.5"/>
</g>
<!-- Node3 -->
<g id="node4" class="node"><title>Node3</title>
<a xlink:href="classstxxl_1_1prefetch__pool.html" target="_top" xlink:title="Implements dynamically resizable prefetching pool. ">
<polygon fill="none" stroke="black" points="530,-66 530,-100 632,-100 632,-66 530,-66"/>
<text text-anchor="start" x="538" y="-87" font-family="Helvetica,sans-Serif" font-size="10.00">stxxl::prefetch_pool</text>
<text text-anchor="middle" x="581" y="-74" font-family="Helvetica,sans-Serif" font-size="10.00">&lt; BlockType &gt;</text>
</a>
</g>
<!-- Node2&#45;&gt;Node3 -->
<g id="edge6" class="edge"><title>Node2&#45;&gt;Node3</title>
<path fill="none" stroke="#8b1a1a" d="M414.08,-119.352C449.835,-111.565 495.252,-101.674 529.682,-94.1759"/>
<polygon fill="#8b1a1a" stroke="#8b1a1a" points="413.294,-115.94 404.268,-121.488 414.784,-122.78 413.294,-115.94"/>
</g>
<!-- Node8 -->
<g id="node15" class="node"><title>Node8</title>
<a xlink:href="classstxxl_1_1write__pool.html" target="_top" xlink:title="Implements dynamically resizable buffered writing pool. ">
<polygon fill="none" stroke="black" points="534,-160 534,-194 628,-194 628,-160 534,-160"/>
<text text-anchor="start" x="542" y="-181" font-family="Helvetica,sans-Serif" font-size="10.00">stxxl::write_pool&lt;</text>
<text text-anchor="middle" x="581" y="-168" font-family="Helvetica,sans-Serif" font-size="10.00"> BlockType &gt;</text>
</a>
</g>
<!-- Node2&#45;&gt;Node8 -->
<g id="edge18" class="edge"><title>Node2&#45;&gt;Node8</title>
<path fill="none" stroke="#8b1a1a" d="M415.27,-143.854C452.339,-151.268 499.428,-160.686 533.931,-167.586"/>
<polygon fill="#8b1a1a" stroke="#8b1a1a" points="415.591,-140.349 405.099,-141.82 414.219,-147.213 415.591,-140.349"/>
</g>
<!-- Node3&#45;&gt;Node1 -->
<g id="edge4" class="edge"><title>Node3&#45;&gt;Node1</title>
<path fill="none" stroke="#9a32cd" stroke-dasharray="5,2" d="M642.106,-94.5825C655.972,-97.6167 670.567,-101.135 684,-105 693.988,-107.874 704.568,-111.421 714.508,-114.988"/>
<polygon fill="#9a32cd" stroke="#9a32cd" points="642.677,-91.1254 632.166,-92.4606 641.215,-97.9712 642.677,-91.1254"/>
<text text-anchor="middle" x="667" y="-109" font-family="Helvetica,sans-Serif" font-size="10.00"> p_pool</text>
</g>
<!-- Node4 -->
<g id="node7" class="node"><title>Node4</title>
<a xlink:href="structstxxl_1_1choose__int__types.html" target="_top" xlink:title="stxxl::choose_int_types\l\&lt; my_pointer_size \&gt;">
<polygon fill="none" stroke="black" points="296,-66 296,-100 416,-100 416,-66 296,-66"/>
<text text-anchor="start" x="304" y="-87" font-family="Helvetica,sans-Serif" font-size="10.00">stxxl::choose_int_types</text>
<text text-anchor="middle" x="356" y="-74" font-family="Helvetica,sans-Serif" font-size="10.00">&lt; my_pointer_size &gt;</text>
</a>
</g>
<!-- Node4&#45;&gt;Node3 -->
<g id="edge8" class="edge"><title>Node4&#45;&gt;Node3</title>
<path fill="none" stroke="#9a32cd" stroke-dasharray="5,2" d="M426.234,-80.1724C428.856,-80.107 431.451,-80.049 434,-80 468.66,-79.3337 477.342,-79.2469 512,-80 517.754,-80.125 523.776,-80.3086 529.763,-80.5245"/>
<polygon fill="#9a32cd" stroke="#9a32cd" points="425.935,-76.6793 416.037,-80.4581 426.132,-83.6766 425.935,-76.6793"/>
<text text-anchor="middle" x="473" y="-84" font-family="Helvetica,sans-Serif" font-size="10.00"> free_blocks_size</text>
</g>
<!-- Node5 -->
<g id="node9" class="node"><title>Node5</title>
<a xlink:href="structstxxl_1_1choose__int__types.html" target="_top" xlink:title="stxxl::choose_int_types\l\&lt; PtrSize \&gt;">
<polygon fill="none" stroke="black" points="17,-66 17,-100 137,-100 137,-66 17,-66"/>
<text text-anchor="start" x="25" y="-87" font-family="Helvetica,sans-Serif" font-size="10.00">stxxl::choose_int_types</text>
<text text-anchor="middle" x="77" y="-74" font-family="Helvetica,sans-Serif" font-size="10.00">&lt; PtrSize &gt;</text>
</a>
</g>
<!-- Node5&#45;&gt;Node4 -->
<g id="edge10" class="edge"><title>Node5&#45;&gt;Node4</title>
<path fill="none" stroke="orange" stroke-dasharray="5,2" d="M147.35,-83C193.165,-83 252.302,-83 295.913,-83"/>
<polygon fill="orange" stroke="orange" points="147.195,-79.5001 137.195,-83 147.195,-86.5001 147.195,-79.5001"/>
<text text-anchor="middle" x="225" y="-87" font-family="Helvetica,sans-Serif" font-size="10.00"> &lt; my_pointer_size &gt;</text>
</g>
<!-- Node6 -->
<g id="node11" class="node"><title>Node6</title>
<a xlink:href="structstxxl_1_1compat__hash__map.html" target="_top" xlink:title="stxxl::compat_hash\l_map\&lt; bid_type, busy\l_entry, bid_hash \&gt;">
<polygon fill="none" stroke="black" points="299.5,-0.5 299.5,-47.5 412.5,-47.5 412.5,-0.5 299.5,-0.5"/>
<text text-anchor="start" x="307.5" y="-34.5" font-family="Helvetica,sans-Serif" font-size="10.00">stxxl::compat_hash</text>
<text text-anchor="start" x="307.5" y="-21.5" font-family="Helvetica,sans-Serif" font-size="10.00">_map&lt; bid_type, busy</text>
<text text-anchor="middle" x="356" y="-8.5" font-family="Helvetica,sans-Serif" font-size="10.00">_entry, bid_hash &gt;</text>
</a>
</g>
<!-- Node6&#45;&gt;Node3 -->
<g id="edge12" class="edge"><title>Node6&#45;&gt;Node3</title>
<path fill="none" stroke="#9a32cd" stroke-dasharray="5,2" d="M422.783,-40.1176C450.452,-46.9452 482.834,-55.1302 512,-63 517.78,-64.5596 523.818,-66.2375 529.815,-67.9344"/>
<polygon fill="#9a32cd" stroke="#9a32cd" points="423.364,-36.6563 412.818,-37.6667 421.692,-43.4537 423.364,-36.6563"/>
<text text-anchor="middle" x="473" y="-67" font-family="Helvetica,sans-Serif" font-size="10.00"> busy_blocks</text>
</g>
<!-- Node7 -->
<g id="node13" class="node"><title>Node7</title>
<a xlink:href="structstxxl_1_1compat__hash__map.html" target="_top" xlink:title="stxxl::compat_hash\l_map\&lt; KeyType, MappedType,\l HashType \&gt;">
<polygon fill="none" stroke="black" points="0,-0.5 0,-47.5 154,-47.5 154,-0.5 0,-0.5"/>
<text text-anchor="start" x="8" y="-34.5" font-family="Helvetica,sans-Serif" font-size="10.00">stxxl::compat_hash</text>
<text text-anchor="start" x="8" y="-21.5" font-family="Helvetica,sans-Serif" font-size="10.00">_map&lt; KeyType, MappedType,</text>
<text text-anchor="middle" x="77" y="-8.5" font-family="Helvetica,sans-Serif" font-size="10.00"> HashType &gt;</text>
</a>
</g>
<!-- Node7&#45;&gt;Node6 -->
<g id="edge14" class="edge"><title>Node7&#45;&gt;Node6</title>
<path fill="none" stroke="orange" stroke-dasharray="5,2" d="M164.478,-24C208.505,-24 260.6,-24 299.336,-24"/>
<polygon fill="orange" stroke="orange" points="164.347,-20.5001 154.347,-24 164.347,-27.5001 164.347,-20.5001"/>
<text text-anchor="start" x="172" y="-41" font-family="Helvetica,sans-Serif" font-size="10.00"> &lt; bid_type, busy_entry,</text>
<text text-anchor="middle" x="225" y="-28" font-family="Helvetica,sans-Serif" font-size="10.00"> bid_hash &gt;</text>
</g>
<!-- Node8&#45;&gt;Node1 -->
<g id="edge16" class="edge"><title>Node8&#45;&gt;Node1</title>
<path fill="none" stroke="#9a32cd" stroke-dasharray="5,2" d="M638.23,-162.45C658.652,-157.258 681.623,-151.418 701.945,-146.251"/>
<polygon fill="#9a32cd" stroke="#9a32cd" points="637.262,-159.085 628.433,-164.941 638.987,-165.869 637.262,-159.085"/>
<text text-anchor="middle" x="667" y="-162" font-family="Helvetica,sans-Serif" font-size="10.00"> w_pool</text>
</g>
</g>
</svg>
