<?xml version="1.0" encoding="UTF-8" standalone="no"?>
<!DOCTYPE svg PUBLIC "-//W3C//DTD SVG 1.1//EN"
 "http://www.w3.org/Graphics/SVG/1.1/DTD/svg11.dtd">
<!-- Generated by graphviz version 2.38.0 (20140413.2041)
 -->
<!-- Title: stxxl::hash_map::block_cache&lt; BlockType &gt; Pages: 1 -->
<svg width="1064pt" height="246pt"
 viewBox="0.00 0.00 1064.00 246.00" xmlns="http://www.w3.org/2000/svg" xmlns:xlink="http://www.w3.org/1999/xlink">
<g id="graph0" class="graph" transform="scale(1 1) rotate(0) translate(4 242)">
<title>stxxl::hash_map::block_cache&lt; BlockType &gt;</title>
<!-- Node1 -->
<g id="node1" class="node"><title>Node1</title>
<polygon fill="#bfbfbf" stroke="black" points="938,-102 938,-132 1056,-132 1056,-102 938,-102"/>
<text text-anchor="start" x="946" y="-120" font-family="Helvetica,sans-Serif" font-size="10.00">stxxl::hash_map::block</text>
<text text-anchor="middle" x="997" y="-109" font-family="Helvetica,sans-Serif" font-size="10.00">_cache&lt; BlockType &gt;</text>
</g>
<!-- Node2 -->
<g id="node2" class="node"><title>Node2</title>
<g id="a_node2"><a xlink:href="classstxxl_1_1noncopyable.html" target="_top" xlink:title="stxxl::noncopyable">
<polygon fill="none" stroke="black" points="0,-134.5 0,-153.5 98,-153.5 98,-134.5 0,-134.5"/>
<text text-anchor="middle" x="49" y="-141.5" font-family="Helvetica,sans-Serif" font-size="10.00">stxxl::noncopyable</text>
</a>
</g>
</g>
<!-- Node2&#45;&gt;Node1 -->
<g id="edge1" class="edge"><title>Node2&#45;&gt;Node1</title>
<path fill="none" stroke="#8b1a1a" d="M66.6631,-160.987C95.0967,-188.067 155.999,-238 218.5,-238 218.5,-238 218.5,-238 788,-238 871.136,-238 950.708,-164.884 982.021,-132.325"/>
<polygon fill="#8b1a1a" stroke="#8b1a1a" points="68.817,-158.198 59.2217,-153.706 63.9214,-163.201 68.817,-158.198"/>
</g>
<!-- Node5 -->
<g id="node5" class="node"><title>Node5</title>
<g id="a_node5"><a xlink:href="classstxxl_1_1lru__pager.html" target="_top" xlink:title="Pager with LRU replacement strategy. ">
<polygon fill="none" stroke="black" points="718,-139.5 718,-158.5 856,-158.5 856,-139.5 718,-139.5"/>
<text text-anchor="middle" x="787" y="-146.5" font-family="Helvetica,sans-Serif" font-size="10.00">stxxl::lru_pager&lt; npages_ &gt;</text>
</a>
</g>
</g>
<!-- Node2&#45;&gt;Node5 -->
<g id="edge5" class="edge"><title>Node2&#45;&gt;Node5</title>
<path fill="none" stroke="#8b1a1a" d="M90.8192,-156.234C99.0973,-158.403 107.784,-160.458 116,-162 124.345,-163.567 126.528,-163.427 135,-164 335.915,-177.579 386.789,-181.071 588,-173 637.898,-170.998 650.46,-170.297 700,-164 711.727,-162.509 724.292,-160.535 736.095,-158.509"/>
<polygon fill="#8b1a1a" stroke="#8b1a1a" points="91.5517,-152.806 80.9836,-153.558 89.7143,-159.561 91.5517,-152.806"/>
</g>
<!-- Node6 -->
<g id="node6" class="node"><title>Node6</title>
<g id="a_node6"><a xlink:href="classstxxl_1_1simple__vector.html" target="_top" xlink:title="stxxl::simple_vector\l\&lt; list_type::iterator \&gt;">
<polygon fill="none" stroke="black" points="457.5,-134 457.5,-164 564.5,-164 564.5,-134 457.5,-134"/>
<text text-anchor="start" x="465.5" y="-152" font-family="Helvetica,sans-Serif" font-size="10.00">stxxl::simple_vector</text>
<text text-anchor="middle" x="511" y="-141" font-family="Helvetica,sans-Serif" font-size="10.00">&lt; list_type::iterator &gt;</text>
</a>
</g>
</g>
<!-- Node2&#45;&gt;Node6 -->
<g id="edge7" class="edge"><title>Node2&#45;&gt;Node6</title>
<path fill="none" stroke="#8b1a1a" d="M108.339,-147.719C110.927,-147.826 113.49,-147.921 116,-148 238.21,-151.855 381.847,-150.814 457.406,-149.835"/>
<polygon fill="#8b1a1a" stroke="#8b1a1a" points="108.438,-144.22 98.2862,-147.25 108.112,-151.212 108.438,-144.22"/>
</g>
<!-- Node7 -->
<g id="node7" class="node"><title>Node7</title>
<g id="a_node7"><a xlink:href="classstxxl_1_1simple__vector.html" target="_top" xlink:title="Simpler non&#45;growing vector without initialization. ">
<polygon fill="none" stroke="black" points="167.5,-103 167.5,-133 271.5,-133 271.5,-103 167.5,-103"/>
<text text-anchor="start" x="175.5" y="-121" font-family="Helvetica,sans-Serif" font-size="10.00">stxxl::simple_vector</text>
<text text-anchor="middle" x="219.5" y="-110" font-family="Helvetica,sans-Serif" font-size="10.00">&lt; ValueType &gt;</text>
</a>
</g>
</g>
<!-- Node2&#45;&gt;Node7 -->
<g id="edge9" class="edge"><title>Node2&#45;&gt;Node7</title>
<path fill="none" stroke="#8b1a1a" d="M108.396,-134.989C127.552,-132.033 148.683,-128.773 167.267,-125.905"/>
<polygon fill="#8b1a1a" stroke="#8b1a1a" points="107.635,-131.565 98.2853,-136.549 108.702,-138.483 107.635,-131.565"/>
</g>
<!-- Node8 -->
<g id="node8" class="node"><title>Node8</title>
<g id="a_node8"><a xlink:href="classstxxl_1_1hash__map_1_1block__cache__write__buffer.html" target="_top" xlink:title="stxxl::hash_map::block\l_cache_write_buffer\&lt; block\l_type \&gt;">
<polygon fill="none" stroke="black" points="442.5,-60.5 442.5,-101.5 579.5,-101.5 579.5,-60.5 442.5,-60.5"/>
<text text-anchor="start" x="450.5" y="-89.5" font-family="Helvetica,sans-Serif" font-size="10.00">stxxl::hash_map::block</text>
<text text-anchor="start" x="450.5" y="-78.5" font-family="Helvetica,sans-Serif" font-size="10.00">_cache_write_buffer&lt; block</text>
<text text-anchor="middle" x="511" y="-67.5" font-family="Helvetica,sans-Serif" font-size="10.00">_type &gt;</text>
</a>
</g>
</g>
<!-- Node2&#45;&gt;Node8 -->
<g id="edge11" class="edge"><title>Node2&#45;&gt;Node8</title>
<path fill="none" stroke="#8b1a1a" d="M69.6884,-128.182C86.0887,-116.039 110.623,-100.174 135,-93 238.886,-62.428 365.994,-66.5029 442.35,-73.1178"/>
<polygon fill="#8b1a1a" stroke="#8b1a1a" points="67.2858,-125.614 61.4666,-134.467 71.5369,-131.175 67.2858,-125.614"/>
</g>
<!-- Node9 -->
<g id="node9" class="node"><title>Node9</title>
<g id="a_node9"><a xlink:href="classstxxl_1_1hash__map_1_1block__cache__write__buffer.html" target="_top" xlink:title="Used inside block_cache for buffering write requests of cached blocks. ">
<polygon fill="none" stroke="black" points="135,-15 135,-45 304,-45 304,-15 135,-15"/>
<text text-anchor="start" x="143" y="-33" font-family="Helvetica,sans-Serif" font-size="10.00">stxxl::hash_map::block</text>
<text text-anchor="middle" x="219.5" y="-22" font-family="Helvetica,sans-Serif" font-size="10.00">_cache_write_buffer&lt; BlockType &gt;</text>
</a>
</g>
</g>
<!-- Node2&#45;&gt;Node9 -->
<g id="edge13" class="edge"><title>Node2&#45;&gt;Node9</title>
<path fill="none" stroke="#8b1a1a" d="M59.961,-125.38C71.1363,-106.235 91.0149,-76.9024 116,-60 125.061,-53.8703 135.39,-48.9725 145.921,-45.0644"/>
<polygon fill="#8b1a1a" stroke="#8b1a1a" points="56.7726,-123.909 54.9295,-134.343 62.8766,-127.336 56.7726,-123.909"/>
</g>
<!-- Node3 -->
<g id="node3" class="node"><title>Node3</title>
<g id="a_node3"><a xlink:href="structstxxl_1_1compat__hash__map.html" target="_top" xlink:title="stxxl::compat_hash\l_map\&lt; bid_type, unsigned\l_type, bid_hash \&gt;">
<polygon fill="none" stroke="black" points="721.5,-9.5 721.5,-50.5 852.5,-50.5 852.5,-9.5 721.5,-9.5"/>
<text text-anchor="start" x="729.5" y="-38.5" font-family="Helvetica,sans-Serif" font-size="10.00">stxxl::compat_hash</text>
<text text-anchor="start" x="729.5" y="-27.5" font-family="Helvetica,sans-Serif" font-size="10.00">_map&lt; bid_type, unsigned</text>
<text text-anchor="middle" x="787" y="-16.5" font-family="Helvetica,sans-Serif" font-size="10.00">_type, bid_hash &gt;</text>
</a>
</g>
</g>
<!-- Node3&#45;&gt;Node1 -->
<g id="edge2" class="edge"><title>Node3&#45;&gt;Node1</title>
<path fill="none" stroke="#9a32cd" stroke-dasharray="5,2" d="M862.204,-49.5826C881.375,-55.5761 901.747,-62.7889 920,-71 939.129,-79.605 959.383,-92.0496 974.167,-101.826"/>
<polygon fill="#9a32cd" stroke="#9a32cd" points="863.192,-46.2248 852.605,-46.6503 861.146,-52.9194 863.192,-46.2248"/>
<text text-anchor="middle" x="897" y="-74" font-family="Helvetica,sans-Serif" font-size="10.00"> bid_map_</text>
</g>
<!-- Node4 -->
<g id="node4" class="node"><title>Node4</title>
<g id="a_node4"><a xlink:href="structstxxl_1_1compat__hash__map.html" target="_top" xlink:title="stxxl::compat_hash\l_map\&lt; KeyType, MappedType,\l HashType \&gt;">
<polygon fill="none" stroke="black" points="434,-0.5 434,-41.5 588,-41.5 588,-0.5 434,-0.5"/>
<text text-anchor="start" x="442" y="-29.5" font-family="Helvetica,sans-Serif" font-size="10.00">stxxl::compat_hash</text>
<text text-anchor="start" x="442" y="-18.5" font-family="Helvetica,sans-Serif" font-size="10.00">_map&lt; KeyType, MappedType,</text>
<text text-anchor="middle" x="511" y="-7.5" font-family="Helvetica,sans-Serif" font-size="10.00"> HashType &gt;</text>
</a>
</g>
</g>
<!-- Node4&#45;&gt;Node3 -->
<g id="edge3" class="edge"><title>Node4&#45;&gt;Node3</title>
<path fill="none" stroke="orange" stroke-dasharray="5,2" d="M598.538,-23.8425C638.263,-25.1473 684.568,-26.6683 721.218,-27.8721"/>
<polygon fill="orange" stroke="orange" points="598.434,-20.3373 588.324,-23.507 598.204,-27.3335 598.434,-20.3373"/>
<text text-anchor="start" x="606" y="-42" font-family="Helvetica,sans-Serif" font-size="10.00"> &lt; bid_type, unsigned</text>
<text text-anchor="middle" x="653" y="-31" font-family="Helvetica,sans-Serif" font-size="10.00">_type, bid_hash &gt;</text>
</g>
<!-- Node5&#45;&gt;Node1 -->
<g id="edge4" class="edge"><title>Node5&#45;&gt;Node1</title>
<path fill="none" stroke="#9a32cd" stroke-dasharray="5,2" d="M859.837,-137.948C885.354,-134.022 913.736,-129.656 937.956,-125.93"/>
<polygon fill="#9a32cd" stroke="#9a32cd" points="859.195,-134.506 849.844,-139.486 860.26,-141.424 859.195,-134.506"/>
<text text-anchor="middle" x="897" y="-138" font-family="Helvetica,sans-Serif" font-size="10.00"> pager_</text>
</g>
<!-- Node6&#45;&gt;Node5 -->
<g id="edge6" class="edge"><title>Node6&#45;&gt;Node5</title>
<path fill="none" stroke="#9a32cd" stroke-dasharray="5,2" d="M574.506,-149C617.26,-149 673.922,-149 717.835,-149"/>
<polygon fill="#9a32cd" stroke="#9a32cd" points="574.506,-145.5 564.506,-149 574.506,-152.5 574.506,-145.5"/>
<text text-anchor="middle" x="653" y="-152" font-family="Helvetica,sans-Serif" font-size="10.00"> history_entry</text>
</g>
<!-- Node7&#45;&gt;Node6 -->
<g id="edge8" class="edge"><title>Node7&#45;&gt;Node6</title>
<path fill="none" stroke="orange" stroke-dasharray="5,2" d="M281.62,-123.464C320.193,-127.03 371.049,-131.948 416,-137 429.406,-138.507 443.868,-140.28 457.335,-141.993"/>
<polygon fill="orange" stroke="orange" points="281.865,-119.972 271.586,-122.541 281.224,-126.942 281.865,-119.972"/>
<text text-anchor="middle" x="369" y="-140" font-family="Helvetica,sans-Serif" font-size="10.00"> &lt; list_type::iterator &gt;</text>
</g>
<!-- Node8&#45;&gt;Node1 -->
<g id="edge10" class="edge"><title>Node8&#45;&gt;Node1</title>
<path fill="none" stroke="#9a32cd" stroke-dasharray="5,2" d="M589.6,-86.7719C686.659,-93.9912 850.64,-106.188 937.671,-112.662"/>
<polygon fill="#9a32cd" stroke="#9a32cd" points="589.785,-83.2761 579.553,-86.0246 589.266,-90.2568 589.785,-83.2761"/>
<text text-anchor="middle" x="787" y="-110" font-family="Helvetica,sans-Serif" font-size="10.00"> write_buffer_</text>
</g>
<!-- Node9&#45;&gt;Node8 -->
<g id="edge12" class="edge"><title>Node9&#45;&gt;Node8</title>
<path fill="none" stroke="orange" stroke-dasharray="5,2" d="M314.75,-34.7324C347.098,-37.5242 383.365,-41.9587 416,-49 429.313,-51.8723 443.36,-56.0192 456.422,-60.3806"/>
<polygon fill="orange" stroke="orange" points="314.648,-31.2124 304.395,-33.8825 314.075,-38.1889 314.648,-31.2124"/>
<text text-anchor="middle" x="369" y="-52" font-family="Helvetica,sans-Serif" font-size="10.00"> &lt; block_type &gt;</text>
</g>
</g>
</svg>
