<?xml version="1.0" encoding="UTF-8" standalone="no"?>
<!DOCTYPE svg PUBLIC "-//W3C//DTD SVG 1.1//EN"
 "http://www.w3.org/Graphics/SVG/1.1/DTD/svg11.dtd">
<!-- Generated by graphviz version 2.38.0 (20140413.2041)
 -->
<!-- Title: stxxl::btree::node_cache&lt; NodeType, BTreeType &gt; Pages: 1 -->
<svg width="1536pt" height="430pt"
 viewBox="0.00 0.00 1536.00 429.90" xmlns="http://www.w3.org/2000/svg" xmlns:xlink="http://www.w3.org/1999/xlink">
<g id="graph0" class="graph" transform="scale(1 1) rotate(0) translate(4 425.896)">
<title>stxxl::btree::node_cache&lt; NodeType, BTreeType &gt;</title>
<!-- Node1 -->
<g id="node1" class="node"><title>Node1</title>
<polygon fill="#bfbfbf" stroke="black" points="1363,-212.396 1363,-242.396 1528,-242.396 1528,-212.396 1363,-212.396"/>
<text text-anchor="start" x="1371" y="-230.396" font-family="Helvetica,sans-Serif" font-size="10.00">stxxl::btree::node</text>
<text text-anchor="middle" x="1445.5" y="-219.396" font-family="Helvetica,sans-Serif" font-size="10.00">_cache&lt; NodeType, BTreeType &gt;</text>
</g>
<!-- Node2 -->
<g id="node2" class="node"><title>Node2</title>
<g id="a_node2"><a xlink:href="classstxxl_1_1noncopyable.html" target="_top" xlink:title="stxxl::noncopyable">
<polygon fill="none" stroke="black" points="11,-147.896 11,-166.896 109,-166.896 109,-147.896 11,-147.896"/>
<text text-anchor="middle" x="60" y="-154.896" font-family="Helvetica,sans-Serif" font-size="10.00">stxxl::noncopyable</text>
</a>
</g>
</g>
<!-- Node2&#45;&gt;Node1 -->
<g id="edge1" class="edge"><title>Node2&#45;&gt;Node1</title>
<path fill="none" stroke="#8b1a1a" d="M67.668,-176.555C78.3608,-204.688 101.882,-257.208 138,-288.396 204.401,-345.734 233.269,-362.396 321,-362.396 321,-362.396 321,-362.396 1242,-362.396 1327.56,-362.396 1404.47,-277.926 1432.87,-242.62"/>
<polygon fill="#8b1a1a" stroke="#8b1a1a" points="70.9186,-175.252 64.1985,-167.062 64.3439,-177.655 70.9186,-175.252"/>
</g>
<!-- Node4 -->
<g id="node4" class="node"><title>Node4</title>
<g id="a_node4"><a xlink:href="classstxxl_1_1singleton.html" target="_top" xlink:title="stxxl::singleton\&lt; block\l_manager \&gt;">
<polygon fill="none" stroke="black" points="550,-139.396 550,-169.396 665,-169.396 665,-139.396 550,-139.396"/>
<text text-anchor="start" x="558" y="-157.396" font-family="Helvetica,sans-Serif" font-size="10.00">stxxl::singleton&lt; block</text>
<text text-anchor="middle" x="607.5" y="-146.396" font-family="Helvetica,sans-Serif" font-size="10.00">_manager &gt;</text>
</a>
</g>
</g>
<!-- Node2&#45;&gt;Node4 -->
<g id="edge4" class="edge"><title>Node2&#45;&gt;Node4</title>
<path fill="none" stroke="#8b1a1a" d="M119.236,-147.631C156.27,-141.923 205.305,-135.288 249,-132.396 313.747,-128.11 330.198,-129.035 395,-132.396 447.536,-135.121 507.118,-141.629 549.623,-146.864"/>
<polygon fill="#8b1a1a" stroke="#8b1a1a" points="118.463,-144.209 109.124,-149.212 119.544,-151.125 118.463,-144.209"/>
</g>
<!-- Node5 -->
<g id="node5" class="node"><title>Node5</title>
<g id="a_node5"><a xlink:href="classstxxl_1_1singleton.html" target="_top" xlink:title="stxxl::singleton\&lt; INSTANCE,\l destroy_on_exit \&gt;">
<polygon fill="none" stroke="black" points="249,-142.396 249,-172.396 395,-172.396 395,-142.396 249,-142.396"/>
<text text-anchor="start" x="257" y="-160.396" font-family="Helvetica,sans-Serif" font-size="10.00">stxxl::singleton&lt; INSTANCE,</text>
<text text-anchor="middle" x="322" y="-149.396" font-family="Helvetica,sans-Serif" font-size="10.00"> destroy_on_exit &gt;</text>
</a>
</g>
</g>
<!-- Node2&#45;&gt;Node5 -->
<g id="edge6" class="edge"><title>Node2&#45;&gt;Node5</title>
<path fill="none" stroke="#8b1a1a" d="M119.755,-157.396C158.027,-157.396 208.218,-157.396 248.901,-157.396"/>
<polygon fill="#8b1a1a" stroke="#8b1a1a" points="119.295,-153.896 109.295,-157.396 119.295,-160.896 119.295,-153.896"/>
</g>
<!-- Node6 -->
<g id="node6" class="node"><title>Node6</title>
<g id="a_node6"><a xlink:href="classstxxl_1_1file.html" target="_top" xlink:title="Defines interface of file. ">
<polygon fill="none" stroke="black" points="808,-222.896 808,-241.896 864,-241.896 864,-222.896 808,-222.896"/>
<text text-anchor="middle" x="836" y="-229.896" font-family="Helvetica,sans-Serif" font-size="10.00">stxxl::file</text>
</a>
</g>
</g>
<!-- Node2&#45;&gt;Node6 -->
<g id="edge8" class="edge"><title>Node2&#45;&gt;Node6</title>
<path fill="none" stroke="#8b1a1a" d="M119.233,-168.556C125.554,-169.596 131.903,-170.569 138,-171.396 187.083,-178.055 199.659,-177.038 249,-181.396 433.86,-197.722 480.125,-201.24 665,-217.396 715.472,-221.807 774.368,-227.018 807.914,-229.992"/>
<polygon fill="#8b1a1a" stroke="#8b1a1a" points="119.808,-165.103 109.363,-166.875 118.634,-172.004 119.808,-165.103"/>
</g>
<!-- Node8 -->
<g id="node8" class="node"><title>Node8</title>
<g id="a_node8"><a xlink:href="classstxxl_1_1mutex.html" target="_top" xlink:title="stxxl::mutex">
<polygon fill="none" stroke="black" points="286.5,-232.896 286.5,-251.896 357.5,-251.896 357.5,-232.896 286.5,-232.896"/>
<text text-anchor="middle" x="322" y="-239.896" font-family="Helvetica,sans-Serif" font-size="10.00">stxxl::mutex</text>
</a>
</g>
</g>
<!-- Node2&#45;&gt;Node8 -->
<g id="edge11" class="edge"><title>Node2&#45;&gt;Node8</title>
<path fill="none" stroke="#8b1a1a" d="M77.7044,-173.962C92.3277,-187.418 114.81,-205.7 138,-215.396 186.74,-235.775 248.403,-241.112 286.256,-242.324"/>
<polygon fill="#8b1a1a" stroke="#8b1a1a" points="80.0988,-171.409 70.4343,-167.067 75.2822,-176.488 80.0988,-171.409"/>
</g>
<!-- Node11 -->
<g id="node11" class="node"><title>Node11</title>
<g id="a_node11"><a xlink:href="classstxxl_1_1disk__allocator.html" target="_top" xlink:title="stxxl::disk_allocator">
<polygon fill="none" stroke="black" points="977,-266.896 977,-285.896 1081,-285.896 1081,-266.896 977,-266.896"/>
<text text-anchor="middle" x="1029" y="-273.896" font-family="Helvetica,sans-Serif" font-size="10.00">stxxl::disk_allocator</text>
</a>
</g>
</g>
<!-- Node2&#45;&gt;Node11 -->
<g id="edge15" class="edge"><title>Node2&#45;&gt;Node11</title>
<path fill="none" stroke="#8b1a1a" d="M73.9161,-175.302C87.9859,-193.794 111.986,-222.535 138,-241.396 210.304,-293.818 231.692,-324.396 321,-324.396 321,-324.396 321,-324.396 837,-324.396 899.398,-324.396 969.899,-300.002 1005.24,-285.994"/>
<polygon fill="#8b1a1a" stroke="#8b1a1a" points="76.6183,-173.07 67.8416,-167.135 71.0018,-177.248 76.6183,-173.07"/>
</g>
<!-- Node12 -->
<g id="node12" class="node"><title>Node12</title>
<g id="a_node12"><a xlink:href="classstxxl_1_1lru__pager.html" target="_top" xlink:title="Pager with LRU replacement strategy. ">
<polygon fill="none" stroke="black" points="767,-43.8959 767,-62.8959 905,-62.8959 905,-43.8959 767,-43.8959"/>
<text text-anchor="middle" x="836" y="-50.8959" font-family="Helvetica,sans-Serif" font-size="10.00">stxxl::lru_pager&lt; npages_ &gt;</text>
</a>
</g>
</g>
<!-- Node2&#45;&gt;Node12 -->
<g id="edge19" class="edge"><title>Node2&#45;&gt;Node12</title>
<path fill="none" stroke="#8b1a1a" d="M67.1876,-138.006C77.2692,-109.694 100.021,-57.4718 138,-30.3959 179.098,-1.09594 198.812,-11.7596 249,-6.39593 449.686,15.0521 689.992,-24.6801 788.959,-43.8718"/>
<polygon fill="#8b1a1a" stroke="#8b1a1a" points="63.8365,-136.99 63.9388,-147.584 70.4656,-139.238 63.8365,-136.99"/>
</g>
<!-- Node13 -->
<g id="node13" class="node"><title>Node13</title>
<g id="a_node13"><a xlink:href="classstxxl_1_1simple__vector.html" target="_top" xlink:title="stxxl::simple_vector\l\&lt; list_type::iterator \&gt;">
<polygon fill="none" stroke="black" points="554,-38.3959 554,-68.3959 661,-68.3959 661,-38.3959 554,-38.3959"/>
<text text-anchor="start" x="562" y="-56.3959" font-family="Helvetica,sans-Serif" font-size="10.00">stxxl::simple_vector</text>
<text text-anchor="middle" x="607.5" y="-45.3959" font-family="Helvetica,sans-Serif" font-size="10.00">&lt; list_type::iterator &gt;</text>
</a>
</g>
</g>
<!-- Node2&#45;&gt;Node13 -->
<g id="edge21" class="edge"><title>Node2&#45;&gt;Node13</title>
<path fill="none" stroke="#8b1a1a" d="M94.6518,-144.165C107.99,-139.299 123.563,-134.084 138,-130.396 286.547,-92.4537 466.555,-68.9985 553.89,-59.0083"/>
<polygon fill="#8b1a1a" stroke="#8b1a1a" points="93.0899,-141.011 84.9437,-147.786 95.5364,-147.57 93.0899,-141.011"/>
</g>
<!-- Node14 -->
<g id="node14" class="node"><title>Node14</title>
<g id="a_node14"><a xlink:href="classstxxl_1_1simple__vector.html" target="_top" xlink:title="Simpler non&#45;growing vector without initialization. ">
<polygon fill="none" stroke="black" points="270,-16.3959 270,-46.3959 374,-46.3959 374,-16.3959 270,-16.3959"/>
<text text-anchor="start" x="278" y="-34.3959" font-family="Helvetica,sans-Serif" font-size="10.00">stxxl::simple_vector</text>
<text text-anchor="middle" x="322" y="-23.3959" font-family="Helvetica,sans-Serif" font-size="10.00">&lt; ValueType &gt;</text>
</a>
</g>
</g>
<!-- Node2&#45;&gt;Node14 -->
<g id="edge23" class="edge"><title>Node2&#45;&gt;Node14</title>
<path fill="none" stroke="#8b1a1a" d="M70.4309,-138.704C82.7399,-116.396 106.483,-79.8049 138,-61.3959 178.171,-37.9324 231.298,-31.3988 269.956,-30.1584"/>
<polygon fill="#8b1a1a" stroke="#8b1a1a" points="67.1836,-137.357 65.5932,-147.832 73.3686,-140.635 67.1836,-137.357"/>
</g>
<!-- Node3 -->
<g id="node3" class="node"><title>Node3</title>
<g id="a_node3"><a xlink:href="classstxxl_1_1block__manager.html" target="_top" xlink:title="Block manager class. ">
<polygon fill="none" stroke="black" points="1186,-217.896 1186,-236.896 1296,-236.896 1296,-217.896 1186,-217.896"/>
<text text-anchor="middle" x="1241" y="-224.896" font-family="Helvetica,sans-Serif" font-size="10.00">stxxl::block_manager</text>
</a>
</g>
</g>
<!-- Node3&#45;&gt;Node1 -->
<g id="edge2" class="edge"><title>Node3&#45;&gt;Node1</title>
<path fill="none" stroke="#9a32cd" stroke-dasharray="5,2" d="M1306.09,-227.396C1324.1,-227.396 1343.94,-227.396 1362.83,-227.396"/>
<polygon fill="#9a32cd" stroke="#9a32cd" points="1306,-223.896 1296,-227.396 1306,-230.896 1306,-223.896"/>
<text text-anchor="middle" x="1329.5" y="-230.396" font-family="Helvetica,sans-Serif" font-size="10.00"> m_bm</text>
</g>
<!-- Node4&#45;&gt;Node3 -->
<g id="edge3" class="edge"><title>Node4&#45;&gt;Node3</title>
<path fill="none" stroke="midnightblue" d="M675.347,-162.123C800.991,-176.647 1070.1,-207.755 1185.56,-221.102"/>
<polygon fill="midnightblue" stroke="midnightblue" points="675.433,-158.61 665.097,-160.938 674.629,-165.564 675.433,-158.61"/>
</g>
<!-- Node5&#45;&gt;Node4 -->
<g id="edge5" class="edge"><title>Node5&#45;&gt;Node4</title>
<path fill="none" stroke="orange" stroke-dasharray="5,2" d="M405.283,-156.525C451.565,-156.035 508.178,-155.436 549.55,-154.999"/>
<polygon fill="orange" stroke="orange" points="405.235,-153.025 395.273,-156.631 405.309,-160.025 405.235,-153.025"/>
<text text-anchor="middle" x="472.5" y="-160.396" font-family="Helvetica,sans-Serif" font-size="10.00"> &lt; block_manager &gt;</text>
</g>
<!-- Node6&#45;&gt;Node3 -->
<g id="edge7" class="edge"><title>Node6&#45;&gt;Node3</title>
<path fill="none" stroke="#9a32cd" stroke-dasharray="5,2" d="M874.4,-231.932C945.999,-231.044 1102.69,-229.1 1185.77,-228.069"/>
<polygon fill="#9a32cd" stroke="#9a32cd" points="874.024,-228.436 864.068,-232.06 874.11,-235.436 874.024,-228.436"/>
<text text-anchor="middle" x="1029" y="-234.396" font-family="Helvetica,sans-Serif" font-size="10.00"> disk_files</text>
</g>
<!-- Node6&#45;&gt;Node11 -->
<g id="edge16" class="edge"><title>Node6&#45;&gt;Node11</title>
<path fill="none" stroke="#9a32cd" stroke-dasharray="5,2" d="M874.307,-240.99C906.587,-248.426 953.201,-259.165 986.618,-266.863"/>
<polygon fill="#9a32cd" stroke="#9a32cd" points="874.896,-237.534 864.366,-238.7 873.325,-244.356 874.896,-237.534"/>
<text text-anchor="middle" x="941" y="-263.396" font-family="Helvetica,sans-Serif" font-size="10.00"> storage</text>
</g>
<!-- Node7 -->
<g id="node7" class="node"><title>Node7</title>
<g id="a_node7"><a xlink:href="classstxxl_1_1atomic__counted__object.html" target="_top" xlink:title="Provides reference counting abilities for use with counting_ptr with mutex locking. ">
<polygon fill="none" stroke="black" points="551,-227.396 551,-257.396 664,-257.396 664,-227.396 551,-227.396"/>
<text text-anchor="start" x="559" y="-245.396" font-family="Helvetica,sans-Serif" font-size="10.00">stxxl::atomic_counted</text>
<text text-anchor="middle" x="607.5" y="-234.396" font-family="Helvetica,sans-Serif" font-size="10.00">_object</text>
</a>
</g>
</g>
<!-- Node7&#45;&gt;Node6 -->
<g id="edge9" class="edge"><title>Node7&#45;&gt;Node6</title>
<path fill="none" stroke="#9a32cd" stroke-dasharray="5,2" d="M674.359,-239.488C718.839,-237.524 775.218,-235.035 807.988,-233.588"/>
<polygon fill="#9a32cd" stroke="#9a32cd" points="674.034,-235.999 664.198,-239.937 674.343,-242.992 674.034,-235.999"/>
<text text-anchor="middle" x="716" y="-242.396" font-family="Helvetica,sans-Serif" font-size="10.00"> m_request_ref</text>
</g>
<!-- Node8&#45;&gt;Node7 -->
<g id="edge10" class="edge"><title>Node8&#45;&gt;Node7</title>
<path fill="none" stroke="#9a32cd" stroke-dasharray="5,2" d="M367.867,-242.396C417.473,-242.396 497.432,-242.396 550.954,-242.396"/>
<polygon fill="#9a32cd" stroke="#9a32cd" points="367.763,-238.896 357.763,-242.396 367.763,-245.896 367.763,-238.896"/>
<text text-anchor="middle" x="472.5" y="-245.396" font-family="Helvetica,sans-Serif" font-size="10.00"> m_reference_count_mutex</text>
</g>
<!-- Node8&#45;&gt;Node11 -->
<g id="edge17" class="edge"><title>Node8&#45;&gt;Node11</title>
<path fill="none" stroke="#9a32cd" stroke-dasharray="5,2" d="M367.67,-250.743C382.095,-253.196 398.186,-255.679 413,-257.396 620.979,-281.498 870.992,-279.831 976.761,-277.726"/>
<polygon fill="#9a32cd" stroke="#9a32cd" points="367.956,-247.24 357.504,-248.973 366.755,-254.136 367.956,-247.24"/>
<text text-anchor="middle" x="716" y="-281.396" font-family="Helvetica,sans-Serif" font-size="10.00"> mutex</text>
</g>
<!-- Node9 -->
<g id="node9" class="node"><title>Node9</title>
<g id="a_node9"><a xlink:href="structstxxl_1_1choose__int__types.html" target="_top" xlink:title="stxxl::choose_int_types\l\&lt; my_pointer_size \&gt;">
<polygon fill="none" stroke="black" points="262,-391.396 262,-421.396 382,-421.396 382,-391.396 262,-391.396"/>
<text text-anchor="start" x="270" y="-409.396" font-family="Helvetica,sans-Serif" font-size="10.00">stxxl::choose_int_types</text>
<text text-anchor="middle" x="322" y="-398.396" font-family="Helvetica,sans-Serif" font-size="10.00">&lt; my_pointer_size &gt;</text>
</a>
</g>
</g>
<!-- Node9&#45;&gt;Node7 -->
<g id="edge12" class="edge"><title>Node9&#45;&gt;Node7</title>
<path fill="none" stroke="#9a32cd" stroke-dasharray="5,2" d="M357.908,-386.202C415.512,-352.879 529.186,-287.121 580.4,-257.494"/>
<polygon fill="#9a32cd" stroke="#9a32cd" points="356.066,-383.224 349.163,-391.261 359.571,-389.283 356.066,-383.224"/>
<text text-anchor="middle" x="472.5" y="-355.396" font-family="Helvetica,sans-Serif" font-size="10.00"> m_reference_count</text>
</g>
<!-- Node10 -->
<g id="node10" class="node"><title>Node10</title>
<g id="a_node10"><a xlink:href="structstxxl_1_1choose__int__types.html" target="_top" xlink:title="stxxl::choose_int_types\l\&lt; PtrSize \&gt;">
<polygon fill="none" stroke="black" points="0,-391.396 0,-421.396 120,-421.396 120,-391.396 0,-391.396"/>
<text text-anchor="start" x="8" y="-409.396" font-family="Helvetica,sans-Serif" font-size="10.00">stxxl::choose_int_types</text>
<text text-anchor="middle" x="60" y="-398.396" font-family="Helvetica,sans-Serif" font-size="10.00">&lt; PtrSize &gt;</text>
</a>
</g>
</g>
<!-- Node10&#45;&gt;Node9 -->
<g id="edge13" class="edge"><title>Node10&#45;&gt;Node9</title>
<path fill="none" stroke="orange" stroke-dasharray="5,2" d="M130.515,-406.396C171.531,-406.396 222.884,-406.396 261.931,-406.396"/>
<polygon fill="orange" stroke="orange" points="130.323,-402.896 120.323,-406.396 130.323,-409.896 130.323,-402.896"/>
<text text-anchor="middle" x="184.5" y="-409.396" font-family="Helvetica,sans-Serif" font-size="10.00"> &lt; my_pointer_size &gt;</text>
</g>
<!-- Node11&#45;&gt;Node3 -->
<g id="edge14" class="edge"><title>Node11&#45;&gt;Node3</title>
<path fill="none" stroke="#9a32cd" stroke-dasharray="5,2" d="M1080.63,-264.582C1116.91,-256.116 1165.15,-244.861 1199.02,-236.959"/>
<polygon fill="#9a32cd" stroke="#9a32cd" points="1079.68,-261.209 1070.74,-266.89 1081.27,-268.026 1079.68,-261.209"/>
<text text-anchor="middle" x="1133.5" y="-262.396" font-family="Helvetica,sans-Serif" font-size="10.00"> disk_allocators</text>
</g>
<!-- Node12&#45;&gt;Node1 -->
<g id="edge18" class="edge"><title>Node12&#45;&gt;Node1</title>
<path fill="none" stroke="#9a32cd" stroke-dasharray="5,2" d="M880.19,-65.7664C988.976,-96.9248 1273.98,-178.554 1392.07,-212.38"/>
<polygon fill="#9a32cd" stroke="#9a32cd" points="881.104,-62.3876 870.527,-62.9988 879.177,-69.117 881.104,-62.3876"/>
<text text-anchor="middle" x="1133.5" y="-150.396" font-family="Helvetica,sans-Serif" font-size="10.00"> m_pager</text>
</g>
<!-- Node13&#45;&gt;Node12 -->
<g id="edge20" class="edge"><title>Node13&#45;&gt;Node12</title>
<path fill="none" stroke="#9a32cd" stroke-dasharray="5,2" d="M671.277,-53.3959C700.976,-53.3959 736.497,-53.3959 766.851,-53.3959"/>
<polygon fill="#9a32cd" stroke="#9a32cd" points="671.033,-49.896 661.033,-53.3959 671.033,-56.896 671.033,-49.896"/>
<text text-anchor="middle" x="716" y="-56.3959" font-family="Helvetica,sans-Serif" font-size="10.00"> history_entry</text>
</g>
<!-- Node14&#45;&gt;Node13 -->
<g id="edge22" class="edge"><title>Node14&#45;&gt;Node13</title>
<path fill="none" stroke="orange" stroke-dasharray="5,2" d="M384.165,-36.1424C434.776,-40.0699 505.911,-45.5901 553.978,-49.3201"/>
<polygon fill="orange" stroke="orange" points="384.252,-32.6388 374.012,-35.3545 383.711,-39.6178 384.252,-32.6388"/>
<text text-anchor="middle" x="472.5" y="-51.3959" font-family="Helvetica,sans-Serif" font-size="10.00"> &lt; list_type::iterator &gt;</text>
</g>
</g>
</svg>
