<?xml version="1.0" encoding="UTF-8" standalone="no"?>
<!DOCTYPE svg PUBLIC "-//W3C//DTD SVG 1.1//EN"
 "http://www.w3.org/Graphics/SVG/1.1/DTD/svg11.dtd">
<!-- Generated by graphviz version 2.26.3 (20100126.1600)
 -->
<!-- Title: stxxl::ppq_local::minima_tree&lt; ParentType &gt; Pages: 1 -->
<svg width="1586pt" height="351pt"
 viewBox="0.00 0.00 1586.00 351.00" xmlns="http://www.w3.org/2000/svg" xmlns:xlink="http://www.w3.org/1999/xlink">
<g id="graph1" class="graph" transform="scale(1 1) rotate(0) translate(4 347)">
<title>stxxl::ppq_local::minima_tree&lt; ParentType &gt;</title>
<!-- Node1 -->
<g id="node1" class="node"><title>Node1</title>
<polygon fill="#bfbfbf" stroke="black" points="980,-114 980,-148 1102,-148 1102,-114 980,-114"/>
<text text-anchor="start" x="988" y="-135" font-family="Helvetica,sans-Serif" font-size="10.00">stxxl::ppq_local::minima</text>
<text text-anchor="middle" x="1041" y="-122" font-family="Helvetica,sans-Serif" font-size="10.00">_tree&lt; ParentType &gt;</text>
</g>
<!-- Node8 -->
<g id="node17" class="node"><title>Node8</title>
<a xlink:href="structstxxl_1_1ppq__local_1_1minima__tree_1_1head__comp.html" target="_top" xlink:title="WinnerTree&#45;Comparator for the head winner tree. It accesses all relevant data structures from the pri...">
<polygon fill="none" stroke="black" points="1206.5,-129 1206.5,-163 1369.5,-163 1369.5,-129 1206.5,-129"/>
<text text-anchor="start" x="1214.5" y="-150" font-family="Helvetica,sans-Serif" font-size="10.00">stxxl::ppq_local::minima</text>
<text text-anchor="middle" x="1288" y="-137" font-family="Helvetica,sans-Serif" font-size="10.00">_tree&lt; ParentType &gt;::head_comp</text>
</a>
</g>
<!-- Node1&#45;&gt;Node8 -->
<g id="edge22" class="edge"><title>Node1&#45;&gt;Node8</title>
<path fill="none" stroke="#9a32cd" stroke-dasharray="5,2" d="M1112.34,-129.59C1136.4,-129.619 1163.39,-130.201 1188,-132 1193.94,-132.434 1200.07,-133 1206.23,-133.655"/>
<polygon fill="#9a32cd" stroke="#9a32cd" points="1112.22,-126.09 1102.22,-129.61 1112.23,-133.09 1112.22,-126.09"/>
<text text-anchor="middle" x="1154" y="-136" font-family="Helvetica,sans-Serif" font-size="10.00"> m_parent</text>
</g>
<!-- Node2 -->
<g id="node2" class="node"><title>Node2</title>
<a xlink:href="classstxxl_1_1winner__tree.html" target="_top" xlink:title="stxxl::winner_tree\l\&lt; stxxl::ppq_local::\lminima_tree::heaps_comp \&gt;">
<polygon fill="none" stroke="black" points="760,-212.5 760,-259.5 900,-259.5 900,-212.5 760,-212.5"/>
<text text-anchor="start" x="768" y="-246.5" font-family="Helvetica,sans-Serif" font-size="10.00">stxxl::winner_tree</text>
<text text-anchor="start" x="768" y="-233.5" font-family="Helvetica,sans-Serif" font-size="10.00">&lt; stxxl::ppq_local::</text>
<text text-anchor="middle" x="830" y="-220.5" font-family="Helvetica,sans-Serif" font-size="10.00">minima_tree::heaps_comp &gt;</text>
</a>
</g>
<!-- Node2&#45;&gt;Node1 -->
<g id="edge2" class="edge"><title>Node2&#45;&gt;Node1</title>
<path fill="none" stroke="#9a32cd" stroke-dasharray="5,2" d="M892.702,-208.192C914.779,-198.094 939.653,-186.367 962,-175 978.652,-166.53 996.893,-156.427 1011.65,-148.04"/>
<polygon fill="#9a32cd" stroke="#9a32cd" points="891.078,-205.086 883.427,-212.415 893.978,-211.457 891.078,-205.086"/>
<text text-anchor="middle" x="940" y="-200" font-family="Helvetica,sans-Serif" font-size="10.00"> m_heaps</text>
</g>
<!-- Node3 -->
<g id="node4" class="node"><title>Node3</title>
<a xlink:href="structstxxl_1_1ppq__local_1_1minima__tree_1_1heaps__comp.html" target="_top" xlink:title="Comparator for the insertion heaps winner tree. ">
<polygon fill="none" stroke="black" points="444,-143 444,-177 612,-177 612,-143 444,-143"/>
<text text-anchor="start" x="452" y="-164" font-family="Helvetica,sans-Serif" font-size="10.00">stxxl::ppq_local::minima</text>
<text text-anchor="middle" x="528" y="-151" font-family="Helvetica,sans-Serif" font-size="10.00">_tree&lt; ParentType &gt;::heaps_comp</text>
</a>
</g>
<!-- Node3&#45;&gt;Node1 -->
<g id="edge14" class="edge"><title>Node3&#45;&gt;Node1</title>
<path fill="none" stroke="#9a32cd" stroke-dasharray="5,2" d="M622.313,-146.69C624.901,-146.442 627.467,-146.211 630,-146 777.111,-133.724 814.538,-142.885 962,-136 967.766,-135.731 973.766,-135.415 979.768,-135.076"/>
<polygon fill="#9a32cd" stroke="#9a32cd" points="621.838,-143.221 612.248,-147.724 622.553,-150.184 621.838,-143.221"/>
<text text-anchor="middle" x="830" y="-143" font-family="Helvetica,sans-Serif" font-size="10.00"> m_heaps_comp</text>
</g>
<!-- Node3&#45;&gt;Node2 -->
<g id="edge4" class="edge"><title>Node3&#45;&gt;Node2</title>
<path fill="none" stroke="#9a32cd" stroke-dasharray="5,2" d="M622.213,-149.893C660.427,-149.026 704.341,-152.254 742,-166 749.014,-168.56 779.077,-193.064 802.133,-212.367"/>
<polygon fill="#9a32cd" stroke="#9a32cd" points="621.995,-146.398 612.114,-150.219 622.221,-153.394 621.995,-146.398"/>
<text text-anchor="middle" x="686" y="-170" font-family="Helvetica,sans-Serif" font-size="10.00"> m_less</text>
</g>
<!-- Node4 -->
<g id="node6" class="node"><title>Node4</title>
<a xlink:href="structstxxl_1_1winner__tree_1_1stats__type.html" target="_top" xlink:title="Collection of stats from the winner_tree. ">
<polygon fill="none" stroke="black" points="230.5,-129 230.5,-163 367.5,-163 367.5,-129 230.5,-129"/>
<text text-anchor="start" x="238.5" y="-150" font-family="Helvetica,sans-Serif" font-size="10.00">stxxl::winner_tree</text>
<text text-anchor="middle" x="299" y="-137" font-family="Helvetica,sans-Serif" font-size="10.00">&lt; Comparator &gt;::stats_type</text>
</a>
</g>
<!-- Node4&#45;&gt;Node2 -->
<g id="edge6" class="edge"><title>Node4&#45;&gt;Node2</title>
<path fill="none" stroke="#9a32cd" stroke-dasharray="5,2" d="M322.213,-170.436C348.868,-196.767 395.235,-237.509 444,-257 567.262,-306.266 612.399,-305.709 742,-277 757.962,-273.464 774.462,-266.721 788.801,-259.71"/>
<polygon fill="#9a32cd" stroke="#9a32cd" points="324.445,-167.718 314.912,-163.094 319.482,-172.653 324.445,-167.718"/>
<text text-anchor="middle" x="528" y="-300" font-family="Helvetica,sans-Serif" font-size="10.00"> m_stats</text>
</g>
<!-- Node6 -->
<g id="node10" class="node"><title>Node6</title>
<a xlink:href="classstxxl_1_1winner__tree.html" target="_top" xlink:title="The class winner_tree is a binary tournament tree. ">
<polygon fill="none" stroke="black" points="481,-214 481,-248 575,-248 575,-214 481,-214"/>
<text text-anchor="start" x="489" y="-235" font-family="Helvetica,sans-Serif" font-size="10.00">stxxl::winner_tree</text>
<text text-anchor="middle" x="528" y="-222" font-family="Helvetica,sans-Serif" font-size="10.00">&lt; Comparator &gt;</text>
</a>
</g>
<!-- Node4&#45;&gt;Node6 -->
<g id="edge12" class="edge"><title>Node4&#45;&gt;Node6</title>
<path fill="none" stroke="#9a32cd" stroke-dasharray="5,2" d="M354.706,-166.677C393.747,-181.168 445.304,-200.305 482.008,-213.929"/>
<polygon fill="#9a32cd" stroke="#9a32cd" points="355.659,-163.297 345.066,-163.099 353.223,-169.86 355.659,-163.297"/>
<text text-anchor="middle" x="406" y="-195" font-family="Helvetica,sans-Serif" font-size="10.00"> m_stats</text>
</g>
<!-- Node7 -->
<g id="node14" class="node"><title>Node7</title>
<a xlink:href="classstxxl_1_1winner__tree.html" target="_top" xlink:title="stxxl::winner_tree\l\&lt; stxxl::ppq_local::\lminima_tree::head_comp \&gt;">
<polygon fill="none" stroke="black" points="1442.5,-94.5 1442.5,-141.5 1577.5,-141.5 1577.5,-94.5 1442.5,-94.5"/>
<text text-anchor="start" x="1450.5" y="-128.5" font-family="Helvetica,sans-Serif" font-size="10.00">stxxl::winner_tree</text>
<text text-anchor="start" x="1450.5" y="-115.5" font-family="Helvetica,sans-Serif" font-size="10.00">&lt; stxxl::ppq_local::</text>
<text text-anchor="middle" x="1510" y="-102.5" font-family="Helvetica,sans-Serif" font-size="10.00">minima_tree::head_comp &gt;</text>
</a>
</g>
<!-- Node4&#45;&gt;Node7 -->
<g id="edge18" class="edge"><title>Node4&#45;&gt;Node7</title>
<path fill="none" stroke="#9a32cd" stroke-dasharray="5,2" d="M319.59,-121.171C356.618,-79.4997 438.931,-0 528,-0 528,-0 528,-0 1288,-0 1367.66,-0 1446.56,-59.9691 1485.31,-94.4045"/>
<polygon fill="#9a32cd" stroke="#9a32cd" points="316.729,-119.127 312.8,-128.966 322.007,-123.725 316.729,-119.127"/>
<text text-anchor="middle" x="940" y="-4" font-family="Helvetica,sans-Serif" font-size="10.00"> m_stats</text>
</g>
<!-- Node9 -->
<g id="node21" class="node"><title>Node9</title>
<a xlink:href="classstxxl_1_1winner__tree.html" target="_top" xlink:title="stxxl::winner_tree\l\&lt; stxxl::ppq_local::\lminima_tree::ia_comp \&gt;">
<polygon fill="none" stroke="black" points="769,-77.5 769,-124.5 891,-124.5 891,-77.5 769,-77.5"/>
<text text-anchor="start" x="777" y="-111.5" font-family="Helvetica,sans-Serif" font-size="10.00">stxxl::winner_tree</text>
<text text-anchor="start" x="777" y="-98.5" font-family="Helvetica,sans-Serif" font-size="10.00">&lt; stxxl::ppq_local::</text>
<text text-anchor="middle" x="830" y="-85.5" font-family="Helvetica,sans-Serif" font-size="10.00">minima_tree::ia_comp &gt;</text>
</a>
</g>
<!-- Node4&#45;&gt;Node9 -->
<g id="edge28" class="edge"><title>Node4&#45;&gt;Node9</title>
<path fill="none" stroke="#9a32cd" stroke-dasharray="5,2" d="M377.749,-130.669C399.168,-126.979 422.413,-123.412 444,-121 558.372,-108.223 692.738,-103.589 768.98,-101.922"/>
<polygon fill="#9a32cd" stroke="#9a32cd" points="376.969,-127.253 367.724,-132.427 378.178,-134.147 376.969,-127.253"/>
<text text-anchor="middle" x="528" y="-125" font-family="Helvetica,sans-Serif" font-size="10.00"> m_stats</text>
</g>
<!-- Node5 -->
<g id="node8" class="node"><title>Node5</title>
<a xlink:href="classstxxl_1_1fake__timer.html" target="_top" xlink:title="Class fake_timer is a drop&#45;in replacement for timer, which does nothing. ">
<polygon fill="none" stroke="black" points="0.5,-135.5 0.5,-156.5 89.5,-156.5 89.5,-135.5 0.5,-135.5"/>
<text text-anchor="middle" x="45" y="-143.5" font-family="Helvetica,sans-Serif" font-size="10.00">stxxl::fake_timer</text>
</a>
</g>
<!-- Node5&#45;&gt;Node4 -->
<g id="edge8" class="edge"><title>Node5&#45;&gt;Node4</title>
<path fill="none" stroke="#9a32cd" stroke-dasharray="5,2" d="M99.9304,-146C138.078,-146 189.192,-146 230.075,-146"/>
<polygon fill="#9a32cd" stroke="#9a32cd" points="99.5341,-142.5 89.5341,-146 99.534,-149.5 99.5341,-142.5"/>
<text text-anchor="middle" x="160" y="-176" font-family="Helvetica,sans-Serif" font-size="10.00"> remove_player_time</text>
<text text-anchor="middle" x="160" y="-163" font-family="Helvetica,sans-Serif" font-size="10.00">replay_time</text>
<text text-anchor="middle" x="160" y="-150" font-family="Helvetica,sans-Serif" font-size="10.00">double_num_slots_time</text>
</g>
<!-- Node6&#45;&gt;Node2 -->
<g id="edge10" class="edge"><title>Node6&#45;&gt;Node2</title>
<path fill="none" stroke="orange" stroke-dasharray="5,2" d="M585.42,-231.951C635.022,-232.772 706.866,-233.961 759.861,-234.839"/>
<polygon fill="orange" stroke="orange" points="585.244,-228.447 575.188,-231.781 585.128,-235.446 585.244,-228.447"/>
<text text-anchor="start" x="640" y="-264" font-family="Helvetica,sans-Serif" font-size="10.00"> &lt; stxxl::ppq_local</text>
<text text-anchor="start" x="640" y="-251" font-family="Helvetica,sans-Serif" font-size="10.00">::minima_tree::heaps</text>
<text text-anchor="middle" x="686" y="-238" font-family="Helvetica,sans-Serif" font-size="10.00">_comp &gt;</text>
</g>
<!-- Node6&#45;&gt;Node7 -->
<g id="edge24" class="edge"><title>Node6&#45;&gt;Node7</title>
<path fill="none" stroke="orange" stroke-dasharray="5,2" d="M585.111,-240.399C594.573,-243.48 603.921,-247.57 612,-253 623.066,-260.437 618.501,-270.251 630,-277 707.356,-322.401 740.305,-304 830,-304 830,-304 830,-304 1288,-304 1388.06,-304 1466.7,-191.607 1496.77,-141.557"/>
<polygon fill="orange" stroke="orange" points="585.837,-236.965 575.258,-237.54 583.886,-243.688 585.837,-236.965"/>
<text text-anchor="start" x="997.5" y="-334" font-family="Helvetica,sans-Serif" font-size="10.00"> &lt; stxxl::ppq_local</text>
<text text-anchor="start" x="997.5" y="-321" font-family="Helvetica,sans-Serif" font-size="10.00">::minima_tree::head</text>
<text text-anchor="middle" x="1041" y="-308" font-family="Helvetica,sans-Serif" font-size="10.00">_comp &gt;</text>
</g>
<!-- Node6&#45;&gt;Node9 -->
<g id="edge32" class="edge"><title>Node6&#45;&gt;Node9</title>
<path fill="none" stroke="orange" stroke-dasharray="5,2" d="M584.951,-213.998C599.576,-209.855 615.324,-205.588 630,-202 679.363,-189.932 702.335,-210.765 742,-179 757.217,-166.814 746.738,-153.289 760,-139 764.986,-133.628 770.907,-128.852 777.164,-124.655"/>
<polygon fill="orange" stroke="orange" points="583.684,-210.72 575.033,-216.837 585.61,-217.45 583.684,-210.72"/>
<text text-anchor="start" x="630" y="-219" font-family="Helvetica,sans-Serif" font-size="10.00"> &lt; stxxl::ppq_local</text>
<text text-anchor="middle" x="686" y="-206" font-family="Helvetica,sans-Serif" font-size="10.00">::minima_tree::ia_comp &gt;</text>
</g>
<!-- Node7&#45;&gt;Node1 -->
<g id="edge16" class="edge"><title>Node7&#45;&gt;Node1</title>
<path fill="none" stroke="#9a32cd" stroke-dasharray="5,2" d="M1432.29,-110.805C1412.04,-109.228 1390.22,-107.793 1370,-107 1297.17,-104.143 1278.7,-101.74 1206,-107 1171.5,-109.496 1133.25,-114.891 1102.28,-119.935"/>
<polygon fill="#9a32cd" stroke="#9a32cd" points="1432.17,-114.306 1442.41,-111.614 1432.73,-107.328 1432.17,-114.306"/>
<text text-anchor="middle" x="1288" y="-111" font-family="Helvetica,sans-Serif" font-size="10.00"> m_head</text>
</g>
<!-- Node8&#45;&gt;Node1 -->
<g id="edge36" class="edge"><title>Node8&#45;&gt;Node1</title>
<path fill="none" stroke="#9a32cd" stroke-dasharray="5,2" d="M1196.15,-148.261C1171.39,-148.106 1144.64,-147.24 1120,-145 1114.17,-144.47 1108.13,-143.738 1102.1,-142.883"/>
<polygon fill="#9a32cd" stroke="#9a32cd" points="1196.25,-151.762 1206.26,-148.287 1196.27,-144.762 1196.25,-151.762"/>
<text text-anchor="middle" x="1154" y="-152" font-family="Helvetica,sans-Serif" font-size="10.00"> m_head_comp</text>
</g>
<!-- Node8&#45;&gt;Node7 -->
<g id="edge20" class="edge"><title>Node8&#45;&gt;Node7</title>
<path fill="none" stroke="#9a32cd" stroke-dasharray="5,2" d="M1379.89,-134.411C1400.78,-131.776 1422.6,-129.023 1442.28,-126.542"/>
<polygon fill="#9a32cd" stroke="#9a32cd" points="1379.2,-130.969 1369.72,-135.693 1380.08,-137.914 1379.2,-130.969"/>
<text text-anchor="middle" x="1406" y="-136" font-family="Helvetica,sans-Serif" font-size="10.00"> m_less</text>
</g>
<!-- Node9&#45;&gt;Node1 -->
<g id="edge26" class="edge"><title>Node9&#45;&gt;Node1</title>
<path fill="none" stroke="#9a32cd" stroke-dasharray="5,2" d="M901.021,-111.098C926.553,-114.728 955.112,-118.788 979.742,-122.29"/>
<polygon fill="#9a32cd" stroke="#9a32cd" points="901.423,-107.62 891.03,-109.677 900.438,-114.55 901.423,-107.62"/>
<text text-anchor="middle" x="940" y="-123" font-family="Helvetica,sans-Serif" font-size="10.00"> m_ia</text>
</g>
<!-- Node10 -->
<g id="node24" class="node"><title>Node10</title>
<a xlink:href="structstxxl_1_1ppq__local_1_1minima__tree_1_1ia__comp.html" target="_top" xlink:title="Comparator for the internal arrays winner tree. ">
<polygon fill="none" stroke="black" points="453.5,-33 453.5,-67 602.5,-67 602.5,-33 453.5,-33"/>
<text text-anchor="start" x="461.5" y="-54" font-family="Helvetica,sans-Serif" font-size="10.00">stxxl::ppq_local::minima</text>
<text text-anchor="middle" x="528" y="-41" font-family="Helvetica,sans-Serif" font-size="10.00">_tree&lt; ParentType &gt;::ia_comp</text>
</a>
</g>
<!-- Node10&#45;&gt;Node1 -->
<g id="edge34" class="edge"><title>Node10&#45;&gt;Node1</title>
<path fill="none" stroke="#9a32cd" stroke-dasharray="5,2" d="M612.845,-39.799C689.252,-33.2645 803.97,-30.0798 900,-55 944.682,-66.5952 990.704,-95.1087 1017.54,-113.724"/>
<polygon fill="#9a32cd" stroke="#9a32cd" points="612.439,-36.3213 602.79,-40.6972 613.062,-43.2935 612.439,-36.3213"/>
<text text-anchor="middle" x="830" y="-59" font-family="Helvetica,sans-Serif" font-size="10.00"> m_ia_comp</text>
</g>
<!-- Node10&#45;&gt;Node9 -->
<g id="edge30" class="edge"><title>Node10&#45;&gt;Node9</title>
<path fill="none" stroke="#9a32cd" stroke-dasharray="5,2" d="M612.674,-59.9879C652.125,-65.1226 699.61,-71.9897 742,-80 750.643,-81.6332 759.715,-83.5568 768.616,-85.5655"/>
<polygon fill="#9a32cd" stroke="#9a32cd" points="612.927,-56.4918 602.562,-58.6868 612.034,-63.4346 612.927,-56.4918"/>
<text text-anchor="middle" x="686" y="-84" font-family="Helvetica,sans-Serif" font-size="10.00"> m_less</text>
</g>
</g>
</svg>
