<?xml version="1.0" encoding="UTF-8" standalone="no"?>
<!DOCTYPE svg PUBLIC "-//W3C//DTD SVG 1.1//EN"
 "http://www.w3.org/Graphics/SVG/1.1/DTD/svg11.dtd">
<!-- Generated by graphviz version 2.26.3 (20100126.1600)
 -->
<!-- Title: stxxl::mmap_file Pages: 1 -->
<svg width="341pt" height="408pt"
 viewBox="0.00 0.00 341.00 408.00" xmlns="http://www.w3.org/2000/svg" xmlns:xlink="http://www.w3.org/1999/xlink">
<g id="graph1" class="graph" transform="scale(1 1) rotate(0) translate(4 404)">
<title>stxxl::mmap_file</title>
<!-- Node1 -->
<g id="node1" class="node"><title>Node1</title>
<polygon fill="#bfbfbf" stroke="black" points="95.5,-0.5 95.5,-21.5 184.5,-21.5 184.5,-0.5 95.5,-0.5"/>
<text text-anchor="middle" x="140" y="-8.5" font-family="Helvetica,sans-Serif" font-size="10.00">stxxl::mmap_file</text>
</g>
<!-- Node2 -->
<g id="node2" class="node"><title>Node2</title>
<a xlink:href="classstxxl_1_1ufs__file__base.html" target="_top" xlink:title="Base for UNIX file system implementations. ">
<polygon fill="none" stroke="black" points="14.5,-60.5 14.5,-81.5 115.5,-81.5 115.5,-60.5 14.5,-60.5"/>
<text text-anchor="middle" x="65" y="-68.5" font-family="Helvetica,sans-Serif" font-size="10.00">stxxl::ufs_file_base</text>
</a>
</g>
<!-- Node2&#45;&gt;Node1 -->
<g id="edge2" class="edge"><title>Node2&#45;&gt;Node1</title>
<path fill="none" stroke="midnightblue" d="M86.397,-53.8824C99.3807,-43.4954 115.544,-30.5651 126.708,-21.6339"/>
<polygon fill="midnightblue" stroke="midnightblue" points="84.0308,-51.2932 78.4085,-60.2732 88.4037,-56.7593 84.0308,-51.2932"/>
</g>
<!-- Node3 -->
<g id="node4" class="node"><title>Node3</title>
<a xlink:href="classstxxl_1_1file.html" target="_top" xlink:title="Defines interface of file. ">
<polygon fill="none" stroke="black" points="102,-120.5 102,-141.5 158,-141.5 158,-120.5 102,-120.5"/>
<text text-anchor="middle" x="130" y="-128.5" font-family="Helvetica,sans-Serif" font-size="10.00">stxxl::file</text>
</a>
</g>
<!-- Node3&#45;&gt;Node2 -->
<g id="edge4" class="edge"><title>Node3&#45;&gt;Node2</title>
<path fill="none" stroke="midnightblue" d="M110.81,-113.286C99.6713,-103.004 86.0112,-90.395 76.5201,-81.6339"/>
<polygon fill="midnightblue" stroke="midnightblue" points="108.657,-116.062 118.379,-120.273 113.405,-110.919 108.657,-116.062"/>
</g>
<!-- Node9 -->
<g id="node18" class="node"><title>Node9</title>
<a xlink:href="classstxxl_1_1disk__queued__file.html" target="_top" xlink:title="Implementation of some file methods based on serving_request. ">
<polygon fill="none" stroke="black" points="133,-60.5 133,-81.5 249,-81.5 249,-60.5 133,-60.5"/>
<text text-anchor="middle" x="191" y="-68.5" font-family="Helvetica,sans-Serif" font-size="10.00">stxxl::disk_queued_file</text>
</a>
</g>
<!-- Node3&#45;&gt;Node9 -->
<g id="edge22" class="edge"><title>Node3&#45;&gt;Node9</title>
<path fill="none" stroke="midnightblue" d="M148.314,-112.986C158.711,-102.76 171.368,-90.3099 180.189,-81.6339"/>
<polygon fill="midnightblue" stroke="midnightblue" points="145.581,-110.766 140.906,-120.273 150.489,-115.756 145.581,-110.766"/>
</g>
<!-- Node4 -->
<g id="node6" class="node"><title>Node4</title>
<a xlink:href="classstxxl_1_1noncopyable.html" target="_top" xlink:title="stxxl::noncopyable">
<polygon fill="none" stroke="black" points="0,-371.5 0,-392.5 98,-392.5 98,-371.5 0,-371.5"/>
<text text-anchor="middle" x="49" y="-379.5" font-family="Helvetica,sans-Serif" font-size="10.00">stxxl::noncopyable</text>
</a>
</g>
<!-- Node4&#45;&gt;Node3 -->
<g id="edge6" class="edge"><title>Node4&#45;&gt;Node3</title>
<path fill="none" stroke="#8b1a1a" d="M44.4309,-361.295C36.303,-318.66 24.2696,-220.042 71,-160 78.7111,-150.092 90.6888,-143.345 101.843,-138.871"/>
<polygon fill="#8b1a1a" stroke="#8b1a1a" points="41.0464,-362.215 46.4715,-371.316 47.9056,-360.819 41.0464,-362.215"/>
</g>
<!-- Node6 -->
<g id="node10" class="node"><title>Node6</title>
<a xlink:href="classstxxl_1_1mutex.html" target="_top" xlink:title="stxxl::mutex">
<polygon fill="none" stroke="black" points="54.5,-285.5 54.5,-306.5 125.5,-306.5 125.5,-285.5 54.5,-285.5"/>
<text text-anchor="middle" x="90" y="-293.5" font-family="Helvetica,sans-Serif" font-size="10.00">stxxl::mutex</text>
</a>
</g>
<!-- Node4&#45;&gt;Node6 -->
<g id="edge12" class="edge"><title>Node4&#45;&gt;Node6</title>
<path fill="none" stroke="#8b1a1a" d="M58.4235,-362.234C66.6694,-344.937 78.3324,-320.474 84.9315,-306.632"/>
<polygon fill="#8b1a1a" stroke="#8b1a1a" points="55.1715,-360.922 54.0274,-371.455 61.4902,-363.934 55.1715,-360.922"/>
</g>
<!-- Node5 -->
<g id="node8" class="node"><title>Node5</title>
<a xlink:href="classstxxl_1_1atomic__counted__object.html" target="_top" xlink:title="Provides reference counting abilities for use with counting_ptr with mutex locking. ">
<polygon fill="none" stroke="black" points="92.5,-193 92.5,-227 205.5,-227 205.5,-193 92.5,-193"/>
<text text-anchor="start" x="100.5" y="-214" font-family="Helvetica,sans-Serif" font-size="10.00">stxxl::atomic_counted</text>
<text text-anchor="middle" x="149" y="-201" font-family="Helvetica,sans-Serif" font-size="10.00">_object</text>
</a>
</g>
<!-- Node5&#45;&gt;Node3 -->
<g id="edge8" class="edge"><title>Node5&#45;&gt;Node3</title>
<path fill="none" stroke="#9a32cd" stroke-dasharray="5,2" d="M142.516,-183.038C139.09,-168.796 135.081,-152.127 132.541,-141.567"/>
<polygon fill="#9a32cd" stroke="#9a32cd" points="139.136,-183.954 144.877,-192.858 145.942,-182.317 139.136,-183.954"/>
<text text-anchor="middle" x="174" y="-164.5" font-family="Helvetica,sans-Serif" font-size="10.00"> m_request_ref</text>
</g>
<!-- Node6&#45;&gt;Node2 -->
<g id="edge18" class="edge"><title>Node6&#45;&gt;Node2</title>
<path fill="none" stroke="#9a32cd" stroke-dasharray="5,2" d="M87.7018,-275.317C82.5139,-228.625 70.0454,-116.409 66.1697,-81.5276"/>
<polygon fill="#9a32cd" stroke="#9a32cd" points="84.2447,-275.897 88.8277,-285.45 91.2019,-275.124 84.2447,-275.897"/>
<text text-anchor="middle" x="99" y="-164.5" font-family="Helvetica,sans-Serif" font-size="10.00"> fd_mutex</text>
</g>
<!-- Node6&#45;&gt;Node5 -->
<g id="edge10" class="edge"><title>Node6&#45;&gt;Node5</title>
<path fill="none" stroke="#9a32cd" stroke-dasharray="5,2" d="M90.2608,-275.014C91.2257,-265.542 93.5912,-254.581 99,-246 103.677,-238.58 110.488,-232.22 117.586,-227.002"/>
<polygon fill="#9a32cd" stroke="#9a32cd" points="86.7541,-275.031 89.673,-285.216 93.7425,-275.434 86.7541,-275.031"/>
<text text-anchor="middle" x="158.5" y="-250.5" font-family="Helvetica,sans-Serif" font-size="10.00"> m_reference_count_mutex</text>
</g>
<!-- Node7 -->
<g id="node13" class="node"><title>Node7</title>
<a xlink:href="structstxxl_1_1choose__int__types.html" target="_top" xlink:title="stxxl::choose_int_types\l\&lt; my_pointer_size \&gt;">
<polygon fill="none" stroke="black" points="180,-279 180,-313 300,-313 300,-279 180,-279"/>
<text text-anchor="start" x="188" y="-300" font-family="Helvetica,sans-Serif" font-size="10.00">stxxl::choose_int_types</text>
<text text-anchor="middle" x="240" y="-287" font-family="Helvetica,sans-Serif" font-size="10.00">&lt; my_pointer_size &gt;</text>
</a>
</g>
<!-- Node7&#45;&gt;Node5 -->
<g id="edge14" class="edge"><title>Node7&#45;&gt;Node5</title>
<path fill="none" stroke="#9a32cd" stroke-dasharray="5,2" d="M232.021,-269.053C228.66,-260.952 224.081,-252.499 218,-246 210.891,-238.403 201.817,-232.12 192.602,-227.046"/>
<polygon fill="#9a32cd" stroke="#9a32cd" points="228.798,-270.429 235.536,-278.605 235.367,-268.012 228.798,-270.429"/>
<text text-anchor="middle" x="270.5" y="-250.5" font-family="Helvetica,sans-Serif" font-size="10.00"> m_reference_count</text>
</g>
<!-- Node8 -->
<g id="node15" class="node"><title>Node8</title>
<a xlink:href="structstxxl_1_1choose__int__types.html" target="_top" xlink:title="stxxl::choose_int_types\l\&lt; PtrSize \&gt;">
<polygon fill="none" stroke="black" points="180,-365 180,-399 300,-399 300,-365 180,-365"/>
<text text-anchor="start" x="188" y="-386" font-family="Helvetica,sans-Serif" font-size="10.00">stxxl::choose_int_types</text>
<text text-anchor="middle" x="240" y="-373" font-family="Helvetica,sans-Serif" font-size="10.00">&lt; PtrSize &gt;</text>
</a>
</g>
<!-- Node8&#45;&gt;Node7 -->
<g id="edge16" class="edge"><title>Node8&#45;&gt;Node7</title>
<path fill="none" stroke="orange" stroke-dasharray="5,2" d="M240,-354.342C240,-340.774 240,-324.861 240,-313.084"/>
<polygon fill="orange" stroke="orange" points="236.5,-354.597 240,-364.597 243.5,-354.597 236.5,-354.597"/>
<text text-anchor="middle" x="286.5" y="-336.5" font-family="Helvetica,sans-Serif" font-size="10.00"> &lt; my_pointer_size &gt;</text>
</g>
<!-- Node9&#45;&gt;Node1 -->
<g id="edge20" class="edge"><title>Node9&#45;&gt;Node1</title>
<path fill="none" stroke="midnightblue" d="M175.175,-52.3819C166.582,-42.273 156.269,-30.1398 149.039,-21.6339"/>
<polygon fill="midnightblue" stroke="midnightblue" points="172.739,-54.9206 181.882,-60.2732 178.072,-50.387 172.739,-54.9206"/>
</g>
</g>
</svg>
