<?xml version="1.0" encoding="UTF-8" standalone="no"?>
<!DOCTYPE svg PUBLIC "-//W3C//DTD SVG 1.1//EN"
 "http://www.w3.org/Graphics/SVG/1.1/DTD/svg11.dtd">
<!-- Generated by graphviz version 2.38.0 (20140413.2041)
 -->
<!-- Title: stxxl::normal_stack&lt; StackConfig &gt; Pages: 1 -->
<svg width="718pt" height="139pt"
 viewBox="0.00 0.00 718.00 138.63" xmlns="http://www.w3.org/2000/svg" xmlns:xlink="http://www.w3.org/1999/xlink">
<g id="graph0" class="graph" transform="scale(1 1) rotate(0) translate(4 134.632)">
<title>stxxl::normal_stack&lt; StackConfig &gt;</title>
<!-- Node1 -->
<g id="node1" class="node"><title>Node1</title>
<polygon fill="#bfbfbf" stroke="black" points="608,-75.5 608,-105.5 710,-105.5 710,-75.5 608,-75.5"/>
<text text-anchor="start" x="616" y="-93.5" font-family="Helvetica,sans-Serif" font-size="10.00">stxxl::normal_stack</text>
<text text-anchor="middle" x="659" y="-82.5" font-family="Helvetica,sans-Serif" font-size="10.00">&lt; StackConfig &gt;</text>
</g>
<!-- Node2 -->
<g id="node2" class="node"><title>Node2</title>
<g id="a_node2"><a xlink:href="classstxxl_1_1noncopyable.html" target="_top" xlink:title="stxxl::noncopyable">
<polygon fill="none" stroke="black" points="0,-99 0,-118 98,-118 98,-99 0,-99"/>
<text text-anchor="middle" x="49" y="-106" font-family="Helvetica,sans-Serif" font-size="10.00">stxxl::noncopyable</text>
</a>
</g>
</g>
<!-- Node2&#45;&gt;Node1 -->
<g id="edge1" class="edge"><title>Node2&#45;&gt;Node1</title>
<path fill="none" stroke="#8b1a1a" d="M107.213,-119.488C110.179,-119.874 113.121,-120.216 116,-120.5 299.136,-138.575 345.98,-125.944 530,-127.5 556.666,-127.725 564.157,-134.076 590,-127.5 606.802,-123.225 623.938,-113.863 636.804,-105.627"/>
<polygon fill="#8b1a1a" stroke="#8b1a1a" points="107.495,-115.992 97.0972,-118.026 106.494,-122.92 107.495,-115.992"/>
</g>
<!-- Node5 -->
<g id="node5" class="node"><title>Node5</title>
<g id="a_node5"><a xlink:href="classstxxl_1_1simple__vector.html" target="_top" xlink:title="stxxl::simple_vector\l\&lt; stxxl::typed_block \&gt;">
<polygon fill="none" stroke="black" points="395,-75.5 395,-105.5 509,-105.5 509,-75.5 395,-75.5"/>
<text text-anchor="start" x="403" y="-93.5" font-family="Helvetica,sans-Serif" font-size="10.00">stxxl::simple_vector</text>
<text text-anchor="middle" x="452" y="-82.5" font-family="Helvetica,sans-Serif" font-size="10.00">&lt; stxxl::typed_block &gt;</text>
</a>
</g>
</g>
<!-- Node2&#45;&gt;Node5 -->
<g id="edge5" class="edge"><title>Node2&#45;&gt;Node5</title>
<path fill="none" stroke="#8b1a1a" d="M108.066,-106.144C172.909,-103.477 280.98,-98.9257 374,-94.5 380.685,-94.1819 387.697,-93.8355 394.652,-93.4839"/>
<polygon fill="#8b1a1a" stroke="#8b1a1a" points="107.887,-102.648 98.0388,-106.555 108.174,-109.642 107.887,-102.648"/>
</g>
<!-- Node6 -->
<g id="node6" class="node"><title>Node6</title>
<g id="a_node6"><a xlink:href="classstxxl_1_1simple__vector.html" target="_top" xlink:title="Simpler non&#45;growing vector without initialization. ">
<polygon fill="none" stroke="black" points="143,-49.5 143,-79.5 247,-79.5 247,-49.5 143,-49.5"/>
<text text-anchor="start" x="151" y="-67.5" font-family="Helvetica,sans-Serif" font-size="10.00">stxxl::simple_vector</text>
<text text-anchor="middle" x="195" y="-56.5" font-family="Helvetica,sans-Serif" font-size="10.00">&lt; ValueType &gt;</text>
</a>
</g>
</g>
<!-- Node2&#45;&gt;Node6 -->
<g id="edge7" class="edge"><title>Node2&#45;&gt;Node6</title>
<path fill="none" stroke="#8b1a1a" d="M91.2337,-95.9008C107.905,-90.8069 127.286,-84.8849 144.695,-79.5654"/>
<polygon fill="#8b1a1a" stroke="#8b1a1a" points="89.7866,-92.6832 81.2459,-98.9527 91.8322,-99.3776 89.7866,-92.6832"/>
</g>
<!-- Node3 -->
<g id="node3" class="node"><title>Node3</title>
<g id="a_node3"><a xlink:href="structstxxl_1_1choose__int__types.html" target="_top" xlink:title="stxxl::choose_int_types\l\&lt; my_pointer_size \&gt;">
<polygon fill="none" stroke="black" points="392,-9.5 392,-39.5 512,-39.5 512,-9.5 392,-9.5"/>
<text text-anchor="start" x="400" y="-27.5" font-family="Helvetica,sans-Serif" font-size="10.00">stxxl::choose_int_types</text>
<text text-anchor="middle" x="452" y="-16.5" font-family="Helvetica,sans-Serif" font-size="10.00">&lt; my_pointer_size &gt;</text>
</a>
</g>
</g>
<!-- Node3&#45;&gt;Node1 -->
<g id="edge2" class="edge"><title>Node3&#45;&gt;Node1</title>
<path fill="none" stroke="#9a32cd" stroke-dasharray="5,2" d="M509.426,-42.6663C541.365,-52.9492 580.841,-65.6585 611.072,-75.3916"/>
<polygon fill="#9a32cd" stroke="#9a32cd" points="510.366,-39.2921 499.774,-39.559 508.22,-45.9553 510.366,-39.2921"/>
<text text-anchor="middle" x="560" y="-70.5" font-family="Helvetica,sans-Serif" font-size="10.00"> cache_offset</text>
</g>
<!-- Node4 -->
<g id="node4" class="node"><title>Node4</title>
<g id="a_node4"><a xlink:href="structstxxl_1_1choose__int__types.html" target="_top" xlink:title="stxxl::choose_int_types\l\&lt; PtrSize \&gt;">
<polygon fill="none" stroke="black" points="135,-0.5 135,-30.5 255,-30.5 255,-0.5 135,-0.5"/>
<text text-anchor="start" x="143" y="-18.5" font-family="Helvetica,sans-Serif" font-size="10.00">stxxl::choose_int_types</text>
<text text-anchor="middle" x="195" y="-7.5" font-family="Helvetica,sans-Serif" font-size="10.00">&lt; PtrSize &gt;</text>
</a>
</g>
</g>
<!-- Node4&#45;&gt;Node3 -->
<g id="edge3" class="edge"><title>Node4&#45;&gt;Node3</title>
<path fill="none" stroke="orange" stroke-dasharray="5,2" d="M265.249,-17.9441C304.83,-19.341 353.951,-21.0747 391.737,-22.4083"/>
<polygon fill="orange" stroke="orange" points="265.26,-14.4424 255.143,-17.5874 265.013,-21.438 265.26,-14.4424"/>
<text text-anchor="middle" x="323.5" y="-25.5" font-family="Helvetica,sans-Serif" font-size="10.00"> &lt; my_pointer_size &gt;</text>
</g>
<!-- Node5&#45;&gt;Node1 -->
<g id="edge4" class="edge"><title>Node5&#45;&gt;Node1</title>
<path fill="none" stroke="#9a32cd" stroke-dasharray="5,2" d="M519.028,-90.5C547.906,-90.5 581.225,-90.5 607.999,-90.5"/>
<polygon fill="#9a32cd" stroke="#9a32cd" points="519.017,-87.0001 509.017,-90.5 519.017,-94.0001 519.017,-87.0001"/>
<text text-anchor="middle" x="560" y="-115.5" font-family="Helvetica,sans-Serif" font-size="10.00"> back_page</text>
<text text-anchor="middle" x="560" y="-104.5" font-family="Helvetica,sans-Serif" font-size="10.00">front_page</text>
<text text-anchor="middle" x="560" y="-93.5" font-family="Helvetica,sans-Serif" font-size="10.00">cache</text>
</g>
<!-- Node6&#45;&gt;Node5 -->
<g id="edge6" class="edge"><title>Node6&#45;&gt;Node5</title>
<path fill="none" stroke="orange" stroke-dasharray="5,2" d="M257.366,-70.757C299.223,-75.0247 354.229,-80.6332 394.915,-84.7815"/>
<polygon fill="orange" stroke="orange" points="257.6,-67.2627 247.296,-69.7302 256.89,-74.2266 257.6,-67.2627"/>
<text text-anchor="middle" x="323.5" y="-85.5" font-family="Helvetica,sans-Serif" font-size="10.00"> &lt; stxxl::typed_block &gt;</text>
</g>
</g>
</svg>
