<?xml version="1.0" encoding="UTF-8" standalone="no"?>
<!DOCTYPE svg PUBLIC "-//W3C//DTD SVG 1.1//EN"
 "http://www.w3.org/Graphics/SVG/1.1/DTD/svg11.dtd">
<!-- Generated by graphviz version 2.26.3 (20100126.1600)
 -->
<!-- Title: stxxl::mng_local::block_w_info&lt; Type, RawSize, NBids, MetaInfoType &gt; Pages: 1 -->
<svg width="1886pt" height="197pt"
 viewBox="0.00 0.00 1886.00 197.12" xmlns="http://www.w3.org/2000/svg" xmlns:xlink="http://www.w3.org/1999/xlink">
<g id="graph1" class="graph" transform="scale(1 1) rotate(0) translate(4 193.116)">
<title>stxxl::mng_local::block_w_info&lt; Type, RawSize, NBids, MetaInfoType &gt;</title>
<!-- Node1 -->
<g id="node1" class="node"><title>Node1</title>
<polygon fill="#bfbfbf" stroke="black" points="1748,-73.5 1748,-120.5 1878,-120.5 1878,-73.5 1748,-73.5"/>
<text text-anchor="start" x="1756" y="-107.5" font-family="Helvetica,sans-Serif" font-size="10.00">stxxl::mng_local::block</text>
<text text-anchor="start" x="1756" y="-94.5" font-family="Helvetica,sans-Serif" font-size="10.00">_w_info&lt; Type, RawSize,</text>
<text text-anchor="middle" x="1813" y="-81.5" font-family="Helvetica,sans-Serif" font-size="10.00"> NBids, MetaInfoType &gt;</text>
</g>
<!-- Node2 -->
<g id="node2" class="node"><title>Node2</title>
<a xlink:href="classstxxl_1_1mng__local_1_1block__w__bids.html" target="_top" xlink:title="stxxl::mng_local::block\l_w_bids\&lt; Type,((RawSize\l&#45;sizeof(BID\&lt; RawSize \&gt;)*NBids\l&#45;sizeof(MetaInfoType))/sizeof\l(Type)), RawSize, NBids \&gt;">
<polygon fill="none" stroke="black" points="1552,-60.5 1552,-133.5 1710,-133.5 1710,-60.5 1552,-60.5"/>
<text text-anchor="start" x="1560" y="-120.5" font-family="Helvetica,sans-Serif" font-size="10.00">stxxl::mng_local::block</text>
<text text-anchor="start" x="1560" y="-107.5" font-family="Helvetica,sans-Serif" font-size="10.00">_w_bids&lt; Type,((RawSize</text>
<text text-anchor="start" x="1560" y="-94.5" font-family="Helvetica,sans-Serif" font-size="10.00">&#45;sizeof(BID&lt; RawSize &gt;)*NBids</text>
<text text-anchor="start" x="1560" y="-81.5" font-family="Helvetica,sans-Serif" font-size="10.00">&#45;sizeof(MetaInfoType))/sizeof</text>
<text text-anchor="middle" x="1631" y="-68.5" font-family="Helvetica,sans-Serif" font-size="10.00">(Type)), RawSize, NBids &gt;</text>
</a>
</g>
<!-- Node2&#45;&gt;Node1 -->
<g id="edge2" class="edge"><title>Node2&#45;&gt;Node1</title>
<path fill="none" stroke="midnightblue" d="M1720.17,-97C1729.54,-97 1738.94,-97 1747.96,-97"/>
<polygon fill="midnightblue" stroke="midnightblue" points="1720.03,-93.5001 1710.03,-97 1720.03,-100.5 1720.03,-93.5001"/>
</g>
<!-- Node3 -->
<g id="node4" class="node"><title>Node3</title>
<a xlink:href="classstxxl_1_1mng__local_1_1element__block.html" target="_top" xlink:title="Contains data elements for stxxl::typed_block , not intended for direct use. ">
<polygon fill="none" stroke="black" points="1066,-152 1066,-186 1194,-186 1194,-152 1066,-152"/>
<text text-anchor="start" x="1074" y="-173" font-family="Helvetica,sans-Serif" font-size="10.00">stxxl::mng_local::element</text>
<text text-anchor="middle" x="1130" y="-160" font-family="Helvetica,sans-Serif" font-size="10.00">_block&lt; Type, Size &gt;</text>
</a>
</g>
<!-- Node3&#45;&gt;Node2 -->
<g id="edge4" class="edge"><title>Node3&#45;&gt;Node2</title>
<path fill="none" stroke="midnightblue" d="M1204.13,-180.382C1286.73,-190.238 1423.24,-198.009 1534,-163 1553.42,-156.861 1572.47,-145.447 1588.48,-133.816"/>
<polygon fill="midnightblue" stroke="midnightblue" points="1204.43,-176.893 1194.08,-179.141 1203.58,-183.841 1204.43,-176.893"/>
</g>
<!-- Node12 -->
<g id="node24" class="node"><title>Node12</title>
<a xlink:href="classstxxl_1_1mng__local_1_1block__w__bids.html" target="_top" xlink:title="Contains BID references for stxxl::typed_block , not intended for direct use. ">
<polygon fill="none" stroke="black" points="1246,-95.5 1246,-142.5 1404,-142.5 1404,-95.5 1246,-95.5"/>
<text text-anchor="start" x="1254" y="-129.5" font-family="Helvetica,sans-Serif" font-size="10.00">stxxl::mng_local::block</text>
<text text-anchor="start" x="1254" y="-116.5" font-family="Helvetica,sans-Serif" font-size="10.00">_w_bids&lt; Type, Size, RawSize,</text>
<text text-anchor="middle" x="1325" y="-103.5" font-family="Helvetica,sans-Serif" font-size="10.00"> NBids &gt;</text>
</a>
</g>
<!-- Node3&#45;&gt;Node12 -->
<g id="edge28" class="edge"><title>Node3&#45;&gt;Node12</title>
<path fill="none" stroke="midnightblue" d="M1203.96,-150.035C1217.66,-146.523 1232.02,-142.842 1245.86,-139.291"/>
<polygon fill="midnightblue" stroke="midnightblue" points="1202.94,-146.685 1194.12,-152.559 1204.68,-153.465 1202.94,-146.685"/>
</g>
<!-- Node4 -->
<g id="node6" class="node"><title>Node4</title>
<a xlink:href="structstxxl_1_1BID.html" target="_top" xlink:title="stxxl::BID\&lt; raw_size \&gt;">
<polygon fill="none" stroke="black" points="1071,-69.5 1071,-90.5 1189,-90.5 1189,-69.5 1071,-69.5"/>
<text text-anchor="middle" x="1130" y="-77.5" font-family="Helvetica,sans-Serif" font-size="10.00">stxxl::BID&lt; raw_size &gt;</text>
</a>
</g>
<!-- Node4&#45;&gt;Node2 -->
<g id="edge6" class="edge"><title>Node4&#45;&gt;Node2</title>
<path fill="none" stroke="#9a32cd" stroke-dasharray="5,2" d="M1199.69,-75.1109C1214.94,-74.2317 1231.01,-73.4519 1246,-73 1316.19,-70.8841 1333.88,-69.3033 1404,-73 1453.27,-75.5974 1508.31,-81.3447 1551.85,-86.5639"/>
<polygon fill="#9a32cd" stroke="#9a32cd" points="1199.05,-71.6424 1189.28,-75.7325 1199.47,-78.6299 1199.05,-71.6424"/>
<text text-anchor="middle" x="1325" y="-77" font-family="Helvetica,sans-Serif" font-size="10.00"> ref</text>
</g>
<!-- Node4&#45;&gt;Node12 -->
<g id="edge30" class="edge"><title>Node4&#45;&gt;Node12</title>
<path fill="none" stroke="#9a32cd" stroke-dasharray="5,2" d="M1192.35,-92.4696C1209.41,-95.8818 1228.13,-99.6257 1245.99,-103.198"/>
<polygon fill="#9a32cd" stroke="#9a32cd" points="1193.01,-89.0318 1182.51,-90.5026 1191.63,-95.8959 1193.01,-89.0318"/>
<text text-anchor="middle" x="1220" y="-103" font-family="Helvetica,sans-Serif" font-size="10.00"> ref</text>
</g>
<!-- Node5 -->
<g id="node8" class="node"><title>Node5</title>
<a xlink:href="classstxxl_1_1file.html" target="_top" xlink:title="Defines interface of file. ">
<polygon fill="none" stroke="black" points="742,-73.5 742,-94.5 798,-94.5 798,-73.5 742,-73.5"/>
<text text-anchor="middle" x="770" y="-81.5" font-family="Helvetica,sans-Serif" font-size="10.00">stxxl::file</text>
</a>
</g>
<!-- Node5&#45;&gt;Node4 -->
<g id="edge8" class="edge"><title>Node5&#45;&gt;Node4</title>
<path fill="none" stroke="#9a32cd" stroke-dasharray="5,2" d="M808.092,-84.9571C861.66,-86.1162 962.295,-87.6105 1048,-85 1055.41,-84.7742 1063.2,-84.4338 1070.9,-84.0348"/>
<polygon fill="#9a32cd" stroke="#9a32cd" points="808.101,-81.4565 798.025,-84.7311 807.944,-88.4547 808.101,-81.4565"/>
<text text-anchor="middle" x="919" y="-90" font-family="Helvetica,sans-Serif" font-size="10.00"> storage</text>
</g>
<!-- Node11 -->
<g id="node21" class="node"><title>Node11</title>
<a xlink:href="structstxxl_1_1BID.html" target="_top" xlink:title="Block identifier class. ">
<polygon fill="none" stroke="black" points="870,-41.5 870,-62.5 968,-62.5 968,-41.5 870,-41.5"/>
<text text-anchor="middle" x="919" y="-49.5" font-family="Helvetica,sans-Serif" font-size="10.00">stxxl::BID&lt; Size &gt;</text>
</a>
</g>
<!-- Node5&#45;&gt;Node11 -->
<g id="edge24" class="edge"><title>Node5&#45;&gt;Node11</title>
<path fill="none" stroke="#9a32cd" stroke-dasharray="5,2" d="M807.952,-73.8981C810.671,-73.2363 813.374,-72.5968 816,-72 833.496,-68.0234 852.777,-64.146 869.879,-60.8802"/>
<polygon fill="#9a32cd" stroke="#9a32cd" points="806.999,-70.5285 798.15,-76.3548 808.701,-77.3185 806.999,-70.5285"/>
<text text-anchor="middle" x="834" y="-76" font-family="Helvetica,sans-Serif" font-size="10.00"> storage</text>
</g>
<!-- Node6 -->
<g id="node10" class="node"><title>Node6</title>
<a xlink:href="classstxxl_1_1noncopyable.html" target="_top" xlink:title="stxxl::noncopyable">
<polygon fill="none" stroke="black" points="11,-78.5 11,-99.5 109,-99.5 109,-78.5 11,-78.5"/>
<text text-anchor="middle" x="60" y="-86.5" font-family="Helvetica,sans-Serif" font-size="10.00">stxxl::noncopyable</text>
</a>
</g>
<!-- Node6&#45;&gt;Node5 -->
<g id="edge10" class="edge"><title>Node6&#45;&gt;Node5</title>
<path fill="none" stroke="#8b1a1a" d="M119.28,-90.603C235.404,-93.3683 500.976,-97.8467 724,-88 729.766,-87.7454 735.927,-87.3176 741.806,-86.8342"/>
<polygon fill="#8b1a1a" stroke="#8b1a1a" points="119.261,-87.1016 109.179,-90.3577 119.091,-94.0995 119.261,-87.1016"/>
</g>
<!-- Node8 -->
<g id="node14" class="node"><title>Node8</title>
<a xlink:href="classstxxl_1_1mutex.html" target="_top" xlink:title="stxxl::mutex">
<polygon fill="none" stroke="black" points="274.5,-52.5 274.5,-73.5 345.5,-73.5 345.5,-52.5 274.5,-52.5"/>
<text text-anchor="middle" x="310" y="-60.5" font-family="Helvetica,sans-Serif" font-size="10.00">stxxl::mutex</text>
</a>
</g>
<!-- Node6&#45;&gt;Node8 -->
<g id="edge16" class="edge"><title>Node6&#45;&gt;Node8</title>
<path fill="none" stroke="#8b1a1a" d="M119.093,-82.8544C167.33,-77.8377 233.906,-70.9138 274.346,-66.708"/>
<polygon fill="#8b1a1a" stroke="#8b1a1a" points="118.678,-79.3785 109.094,-83.8943 119.402,-86.341 118.678,-79.3785"/>
</g>
<!-- Node7 -->
<g id="node12" class="node"><title>Node7</title>
<a xlink:href="classstxxl_1_1atomic__counted__object.html" target="_top" xlink:title="Provides reference counting abilities for use with counting_ptr with mutex locking. ">
<polygon fill="none" stroke="black" points="526.5,-40 526.5,-74 639.5,-74 639.5,-40 526.5,-40"/>
<text text-anchor="start" x="534.5" y="-61" font-family="Helvetica,sans-Serif" font-size="10.00">stxxl::atomic_counted</text>
<text text-anchor="middle" x="583" y="-48" font-family="Helvetica,sans-Serif" font-size="10.00">_object</text>
</a>
</g>
<!-- Node7&#45;&gt;Node5 -->
<g id="edge12" class="edge"><title>Node7&#45;&gt;Node5</title>
<path fill="none" stroke="#9a32cd" stroke-dasharray="5,2" d="M649.928,-64.6235C673.4,-67.5406 699.913,-71.1106 724,-75 729.784,-75.934 735.953,-77.0545 741.833,-78.1828"/>
<polygon fill="#9a32cd" stroke="#9a32cd" points="650.077,-61.1156 639.725,-63.3724 649.225,-68.0635 650.077,-61.1156"/>
<text text-anchor="middle" x="691" y="-79" font-family="Helvetica,sans-Serif" font-size="10.00"> m_request_ref</text>
</g>
<!-- Node8&#45;&gt;Node7 -->
<g id="edge14" class="edge"><title>Node8&#45;&gt;Node7</title>
<path fill="none" stroke="#9a32cd" stroke-dasharray="5,2" d="M355.875,-61.9918C402.83,-60.9598 475.885,-59.3542 526.403,-58.2439"/>
<polygon fill="#9a32cd" stroke="#9a32cd" points="355.611,-58.4966 345.69,-62.2156 355.765,-65.4949 355.611,-58.4966"/>
<text text-anchor="middle" x="448" y="-65" font-family="Helvetica,sans-Serif" font-size="10.00"> m_reference_count_mutex</text>
</g>
<!-- Node9 -->
<g id="node17" class="node"><title>Node9</title>
<a xlink:href="structstxxl_1_1choose__int__types.html" target="_top" xlink:title="stxxl::choose_int_types\l\&lt; my_pointer_size \&gt;">
<polygon fill="none" stroke="black" points="250,-0 250,-34 370,-34 370,-0 250,-0"/>
<text text-anchor="start" x="258" y="-21" font-family="Helvetica,sans-Serif" font-size="10.00">stxxl::choose_int_types</text>
<text text-anchor="middle" x="310" y="-8" font-family="Helvetica,sans-Serif" font-size="10.00">&lt; my_pointer_size &gt;</text>
</a>
</g>
<!-- Node9&#45;&gt;Node7 -->
<g id="edge18" class="edge"><title>Node9&#45;&gt;Node7</title>
<path fill="none" stroke="#9a32cd" stroke-dasharray="5,2" d="M380.835,-24.0304C418.686,-28.1786 466.011,-33.9908 508,-41 513.909,-41.9865 520.059,-43.1205 526.181,-44.3198"/>
<polygon fill="#9a32cd" stroke="#9a32cd" points="380.741,-20.4999 370.423,-22.9048 379.989,-27.4593 380.741,-20.4999"/>
<text text-anchor="middle" x="448" y="-45" font-family="Helvetica,sans-Serif" font-size="10.00"> m_reference_count</text>
</g>
<!-- Node10 -->
<g id="node19" class="node"><title>Node10</title>
<a xlink:href="structstxxl_1_1choose__int__types.html" target="_top" xlink:title="stxxl::choose_int_types\l\&lt; PtrSize \&gt;">
<polygon fill="none" stroke="black" points="0,-0 0,-34 120,-34 120,-0 0,-0"/>
<text text-anchor="start" x="8" y="-21" font-family="Helvetica,sans-Serif" font-size="10.00">stxxl::choose_int_types</text>
<text text-anchor="middle" x="60" y="-8" font-family="Helvetica,sans-Serif" font-size="10.00">&lt; PtrSize &gt;</text>
</a>
</g>
<!-- Node10&#45;&gt;Node9 -->
<g id="edge20" class="edge"><title>Node10&#45;&gt;Node9</title>
<path fill="none" stroke="orange" stroke-dasharray="5,2" d="M130.578,-17C168.196,-17 213.985,-17 249.89,-17"/>
<polygon fill="orange" stroke="orange" points="130.199,-13.5001 120.199,-17 130.199,-20.5001 130.199,-13.5001"/>
<text text-anchor="middle" x="185" y="-21" font-family="Helvetica,sans-Serif" font-size="10.00"> &lt; my_pointer_size &gt;</text>
</g>
<!-- Node11&#45;&gt;Node4 -->
<g id="edge22" class="edge"><title>Node11&#45;&gt;Node4</title>
<path fill="none" stroke="orange" stroke-dasharray="5,2" d="M978.194,-59.8552C1007.18,-63.7015 1041.98,-68.3197 1070.95,-72.1635"/>
<polygon fill="orange" stroke="orange" points="978.577,-56.3754 968.204,-58.5294 977.656,-63.3146 978.577,-56.3754"/>
<text text-anchor="middle" x="1017" y="-72" font-family="Helvetica,sans-Serif" font-size="10.00"> &lt; raw_size &gt;</text>
</g>
<!-- Node12&#45;&gt;Node2 -->
<g id="edge26" class="edge"><title>Node12&#45;&gt;Node2</title>
<path fill="none" stroke="orange" stroke-dasharray="5,2" d="M1414.27,-98.9465C1416.87,-98.5961 1419.45,-98.2788 1422,-98 1464.74,-93.3227 1512.7,-92.7613 1551.88,-93.5076"/>
<polygon fill="orange" stroke="orange" points="1413.56,-95.5145 1404.18,-100.451 1414.59,-102.438 1413.56,-95.5145"/>
<text text-anchor="start" x="1422" y="-154" font-family="Helvetica,sans-Serif" font-size="10.00"> &lt; Type,((RawSize&#45;sizeof</text>
<text text-anchor="start" x="1422" y="-141" font-family="Helvetica,sans-Serif" font-size="10.00">(BID&lt; RawSize &gt;)*NBids</text>
<text text-anchor="start" x="1422" y="-128" font-family="Helvetica,sans-Serif" font-size="10.00">&#45;sizeof(MetaInfoType))</text>
<text text-anchor="start" x="1422" y="-115" font-family="Helvetica,sans-Serif" font-size="10.00">/sizeof(Type)), RawSize,</text>
<text text-anchor="middle" x="1478" y="-102" font-family="Helvetica,sans-Serif" font-size="10.00"> NBids &gt;</text>
</g>
</g>
</svg>
