<?xml version="1.0" encoding="UTF-8" standalone="no"?>
<!DOCTYPE svg PUBLIC "-//W3C//DTD SVG 1.1//EN"
 "http://www.w3.org/Graphics/SVG/1.1/DTD/svg11.dtd">
<!-- Generated by graphviz version 2.26.3 (20100126.1600)
 -->
<!-- Title: stxxl::block_prefetcher&lt; block_type, bid_iterator_type &gt; Pages: 1 -->
<svg width="852pt" height="229pt"
 viewBox="0.00 0.00 852.00 229.30" xmlns="http://www.w3.org/2000/svg" xmlns:xlink="http://www.w3.org/1999/xlink">
<g id="graph1" class="graph" transform="scale(1 1) rotate(0) translate(4 225.302)">
<title>stxxl::block_prefetcher&lt; block_type, bid_iterator_type &gt;</title>
<!-- Node1 -->
<g id="node1" class="node"><title>Node1</title>
<polygon fill="#bfbfbf" stroke="black" points="716.5,-90.5 716.5,-137.5 843.5,-137.5 843.5,-90.5 716.5,-90.5"/>
<text text-anchor="start" x="724.5" y="-124.5" font-family="Helvetica,sans-Serif" font-size="10.00">stxxl::block_prefetcher</text>
<text text-anchor="start" x="724.5" y="-111.5" font-family="Helvetica,sans-Serif" font-size="10.00">&lt; block_type, bid_iterator</text>
<text text-anchor="middle" x="780" y="-98.5" font-family="Helvetica,sans-Serif" font-size="10.00">_type &gt;</text>
</g>
<!-- Node2 -->
<g id="node2" class="node"><title>Node2</title>
<a xlink:href="classstxxl_1_1noncopyable.html" target="_top" xlink:title="stxxl::noncopyable">
<polygon fill="none" stroke="black" points="6,-191.5 6,-212.5 104,-212.5 104,-191.5 6,-191.5"/>
<text text-anchor="middle" x="55" y="-199.5" font-family="Helvetica,sans-Serif" font-size="10.00">stxxl::noncopyable</text>
</a>
</g>
<!-- Node2&#45;&gt;Node1 -->
<g id="edge2" class="edge"><title>Node2&#45;&gt;Node1</title>
<path fill="none" stroke="#8b1a1a" d="M102.918,-214.8C111.224,-216.546 119.82,-218.06 128,-219 166.855,-223.465 176.89,-219.279 216,-219 393.179,-217.734 438.013,-216.559 614,-196 651.398,-191.631 663.65,-200.419 698,-185 722.223,-174.127 744.639,-153.693 759.889,-137.528"/>
<polygon fill="#8b1a1a" stroke="#8b1a1a" points="103.499,-211.343 92.9767,-212.577 101.972,-218.175 103.499,-211.343"/>
</g>
<!-- Node5 -->
<g id="node8" class="node"><title>Node5</title>
<a xlink:href="classstxxl_1_1onoff__switch.html" target="_top" xlink:title="stxxl::onoff_switch">
<polygon fill="none" stroke="black" points="500.5,-165.5 500.5,-186.5 599.5,-186.5 599.5,-165.5 500.5,-165.5"/>
<text text-anchor="middle" x="550" y="-173.5" font-family="Helvetica,sans-Serif" font-size="10.00">stxxl::onoff_switch</text>
</a>
</g>
<!-- Node2&#45;&gt;Node5 -->
<g id="edge10" class="edge"><title>Node2&#45;&gt;Node5</title>
<path fill="none" stroke="#8b1a1a" d="M114.594,-204.284C195.1,-206.553 342.929,-207.837 468,-193 480.416,-191.527 493.744,-189.125 505.971,-186.585"/>
<polygon fill="#8b1a1a" stroke="#8b1a1a" points="114.266,-200.773 104.166,-203.974 114.058,-207.77 114.266,-200.773"/>
</g>
<!-- Node6 -->
<g id="node11" class="node"><title>Node6</title>
<a xlink:href="classstxxl_1_1mutex.html" target="_top" xlink:title="stxxl::mutex">
<polygon fill="none" stroke="black" points="259.5,-165.5 259.5,-186.5 330.5,-186.5 330.5,-165.5 259.5,-165.5"/>
<text text-anchor="middle" x="295" y="-173.5" font-family="Helvetica,sans-Serif" font-size="10.00">stxxl::mutex</text>
</a>
</g>
<!-- Node2&#45;&gt;Node6 -->
<g id="edge14" class="edge"><title>Node2&#45;&gt;Node6</title>
<path fill="none" stroke="#8b1a1a" d="M114.172,-195.59C159.627,-190.665 220.914,-184.026 259.183,-179.88"/>
<polygon fill="#8b1a1a" stroke="#8b1a1a" points="113.712,-192.119 104.147,-196.676 114.466,-199.078 113.712,-192.119"/>
</g>
<!-- Node7 -->
<g id="node14" class="node"><title>Node7</title>
<a xlink:href="classstxxl_1_1condition__variable.html" target="_top" xlink:title="stxxl::condition_variable">
<polygon fill="none" stroke="black" points="234,-125.5 234,-146.5 356,-146.5 356,-125.5 234,-125.5"/>
<text text-anchor="middle" x="295" y="-133.5" font-family="Helvetica,sans-Serif" font-size="10.00">stxxl::condition_variable</text>
</a>
</g>
<!-- Node2&#45;&gt;Node7 -->
<g id="edge18" class="edge"><title>Node2&#45;&gt;Node7</title>
<path fill="none" stroke="#8b1a1a" d="M101.192,-188.584C110.081,-186.039 119.324,-183.417 128,-181 171.389,-168.914 221.266,-155.542 255.132,-146.54"/>
<polygon fill="#8b1a1a" stroke="#8b1a1a" points="99.9992,-185.285 91.3547,-191.411 101.932,-192.013 99.9992,-185.285"/>
</g>
<!-- Node3 -->
<g id="node4" class="node"><title>Node3</title>
<a xlink:href="structstxxl_1_1choose__int__types.html" target="_top" xlink:title="stxxl::choose_int_types\l\&lt; my_pointer_size \&gt;">
<polygon fill="none" stroke="black" points="490,-105 490,-139 610,-139 610,-105 490,-105"/>
<text text-anchor="start" x="498" y="-126" font-family="Helvetica,sans-Serif" font-size="10.00">stxxl::choose_int_types</text>
<text text-anchor="middle" x="550" y="-113" font-family="Helvetica,sans-Serif" font-size="10.00">&lt; my_pointer_size &gt;</text>
</a>
</g>
<!-- Node3&#45;&gt;Node1 -->
<g id="edge4" class="edge"><title>Node3&#45;&gt;Node1</title>
<path fill="none" stroke="#9a32cd" stroke-dasharray="5,2" d="M620.634,-115.616C624.477,-115.379 628.285,-115.171 632,-115 659.593,-113.731 690.11,-113.351 716.229,-113.338"/>
<polygon fill="#9a32cd" stroke="#9a32cd" points="620.163,-112.14 610.42,-116.302 620.632,-119.124 620.163,-112.14"/>
<text text-anchor="middle" x="665" y="-145" font-family="Helvetica,sans-Serif" font-size="10.00"> seq_length</text>
<text text-anchor="middle" x="665" y="-132" font-family="Helvetica,sans-Serif" font-size="10.00">nextconsume</text>
<text text-anchor="middle" x="665" y="-119" font-family="Helvetica,sans-Serif" font-size="10.00">nextread</text>
</g>
<!-- Node4 -->
<g id="node6" class="node"><title>Node4</title>
<a xlink:href="structstxxl_1_1choose__int__types.html" target="_top" xlink:title="stxxl::choose_int_types\l\&lt; PtrSize \&gt;">
<polygon fill="none" stroke="black" points="235,-73 235,-107 355,-107 355,-73 235,-73"/>
<text text-anchor="start" x="243" y="-94" font-family="Helvetica,sans-Serif" font-size="10.00">stxxl::choose_int_types</text>
<text text-anchor="middle" x="295" y="-81" font-family="Helvetica,sans-Serif" font-size="10.00">&lt; PtrSize &gt;</text>
</a>
</g>
<!-- Node4&#45;&gt;Node3 -->
<g id="edge6" class="edge"><title>Node4&#45;&gt;Node3</title>
<path fill="none" stroke="orange" stroke-dasharray="5,2" d="M365.314,-92.8444C396.842,-94.7458 434.416,-97.878 468,-103 475.079,-104.08 482.452,-105.442 489.747,-106.939"/>
<polygon fill="orange" stroke="orange" points="365.487,-89.3486 355.302,-92.2693 365.085,-96.3371 365.487,-89.3486"/>
<text text-anchor="middle" x="421" y="-107" font-family="Helvetica,sans-Serif" font-size="10.00"> &lt; my_pointer_size &gt;</text>
</g>
<!-- Node5&#45;&gt;Node1 -->
<g id="edge8" class="edge"><title>Node5&#45;&gt;Node1</title>
<path fill="none" stroke="#9a32cd" stroke-dasharray="5,2" d="M609.707,-171.331C637.053,-168.129 669.619,-162.801 698,-154 711.465,-149.824 725.478,-143.718 738.031,-137.527"/>
<polygon fill="#9a32cd" stroke="#9a32cd" points="609.058,-167.882 599.502,-172.457 609.825,-174.839 609.058,-167.882"/>
<text text-anchor="middle" x="665" y="-172" font-family="Helvetica,sans-Serif" font-size="10.00"> completed</text>
</g>
<!-- Node6&#45;&gt;Node5 -->
<g id="edge12" class="edge"><title>Node6&#45;&gt;Node5</title>
<path fill="none" stroke="#9a32cd" stroke-dasharray="5,2" d="M340.761,-176C385.619,-176 453.813,-176 500.056,-176"/>
<polygon fill="#9a32cd" stroke="#9a32cd" points="340.725,-172.5 330.725,-176 340.725,-179.5 340.725,-172.5"/>
<text text-anchor="middle" x="421" y="-180" font-family="Helvetica,sans-Serif" font-size="10.00"> m_mutex</text>
</g>
<!-- Node7&#45;&gt;Node5 -->
<g id="edge16" class="edge"><title>Node7&#45;&gt;Node5</title>
<path fill="none" stroke="#9a32cd" stroke-dasharray="5,2" d="M365.97,-144.261C397.322,-148.213 434.577,-153.321 468,-159 479.037,-160.875 490.853,-163.16 501.981,-165.439"/>
<polygon fill="#9a32cd" stroke="#9a32cd" points="366.366,-140.783 356.01,-143.019 365.5,-147.73 366.366,-140.783"/>
<text text-anchor="middle" x="421" y="-163" font-family="Helvetica,sans-Serif" font-size="10.00"> m_cond</text>
</g>
<!-- Node8 -->
<g id="node17" class="node"><title>Node8</title>
<a xlink:href="classstxxl_1_1counting__ptr.html" target="_top" xlink:title="High&#45;performance smart pointer used as a wrapping reference counting pointer. ">
<polygon fill="none" stroke="black" points="501.5,-53 501.5,-87 598.5,-87 598.5,-53 501.5,-53"/>
<text text-anchor="start" x="509.5" y="-74" font-family="Helvetica,sans-Serif" font-size="10.00">stxxl::counting_ptr</text>
<text text-anchor="middle" x="550" y="-61" font-family="Helvetica,sans-Serif" font-size="10.00">&lt; Type &gt;</text>
</a>
</g>
<!-- Node8&#45;&gt;Node1 -->
<g id="edge20" class="edge"><title>Node8&#45;&gt;Node1</title>
<path fill="none" stroke="#9a32cd" stroke-dasharray="5,2" d="M608.885,-79.7581C636.062,-84.4121 668.724,-90.218 698,-96 704.006,-97.1861 710.248,-98.4675 716.487,-99.781"/>
<polygon fill="#9a32cd" stroke="#9a32cd" points="609.202,-76.2618 598.756,-78.0333 608.027,-83.1624 609.202,-76.2618"/>
<text text-anchor="middle" x="665" y="-100" font-family="Helvetica,sans-Serif" font-size="10.00"> read_reqs</text>
</g>
<!-- Node9 -->
<g id="node19" class="node"><title>Node9</title>
<a xlink:href="classstxxl_1_1completion__handler.html" target="_top" xlink:title="Completion handler class (Loki&#45;style). ">
<polygon fill="none" stroke="black" points="486,-13.5 486,-34.5 614,-34.5 614,-13.5 486,-13.5"/>
<text text-anchor="middle" x="550" y="-21.5" font-family="Helvetica,sans-Serif" font-size="10.00">stxxl::completion_handler</text>
</a>
</g>
<!-- Node9&#45;&gt;Node1 -->
<g id="edge22" class="edge"><title>Node9&#45;&gt;Node1</title>
<path fill="none" stroke="#9a32cd" stroke-dasharray="5,2" d="M608.643,-37.0001C636.311,-44.0469 669.445,-53.8241 698,-66 713.781,-72.7289 730.273,-81.9125 744.294,-90.4457"/>
<polygon fill="#9a32cd" stroke="#9a32cd" points="609.265,-33.5481 598.716,-34.5281 607.574,-40.3407 609.265,-33.5481"/>
<text text-anchor="middle" x="665" y="-70" font-family="Helvetica,sans-Serif" font-size="10.00"> do_after_fetch</text>
</g>
<!-- Node10 -->
<g id="node21" class="node"><title>Node10</title>
<a xlink:href="structstxxl_1_1compat__unique__ptr.html" target="_top" xlink:title="stxxl::compat_unique\l_ptr\&lt; stxxl::completion\l_handler_impl \&gt;">
<polygon fill="none" stroke="black" points="237,-0.5 237,-47.5 353,-47.5 353,-0.5 237,-0.5"/>
<text text-anchor="start" x="245" y="-34.5" font-family="Helvetica,sans-Serif" font-size="10.00">stxxl::compat_unique</text>
<text text-anchor="start" x="245" y="-21.5" font-family="Helvetica,sans-Serif" font-size="10.00">_ptr&lt; stxxl::completion</text>
<text text-anchor="middle" x="295" y="-8.5" font-family="Helvetica,sans-Serif" font-size="10.00">_handler_impl &gt;</text>
</a>
</g>
<!-- Node10&#45;&gt;Node9 -->
<g id="edge24" class="edge"><title>Node10&#45;&gt;Node9</title>
<path fill="none" stroke="#9a32cd" stroke-dasharray="5,2" d="M363.644,-24C401.631,-24 448.547,-24 485.801,-24"/>
<polygon fill="#9a32cd" stroke="#9a32cd" points="363.183,-20.5001 353.183,-24 363.182,-27.5001 363.183,-20.5001"/>
<text text-anchor="middle" x="421" y="-28" font-family="Helvetica,sans-Serif" font-size="10.00"> sp_impl_</text>
</g>
<!-- Node11 -->
<g id="node23" class="node"><title>Node11</title>
<a xlink:href="structstxxl_1_1compat__unique__ptr.html" target="_top" xlink:title="stxxl::compat_unique\l_ptr\&lt; Type \&gt;">
<polygon fill="none" stroke="black" points="0,-7 0,-41 110,-41 110,-7 0,-7"/>
<text text-anchor="start" x="8" y="-28" font-family="Helvetica,sans-Serif" font-size="10.00">stxxl::compat_unique</text>
<text text-anchor="middle" x="55" y="-15" font-family="Helvetica,sans-Serif" font-size="10.00">_ptr&lt; Type &gt;</text>
</a>
</g>
<!-- Node11&#45;&gt;Node10 -->
<g id="edge26" class="edge"><title>Node11&#45;&gt;Node10</title>
<path fill="none" stroke="orange" stroke-dasharray="5,2" d="M120.096,-24C156.538,-24 201.593,-24 236.848,-24"/>
<polygon fill="orange" stroke="orange" points="120.061,-20.5001 110.061,-24 120.061,-27.5001 120.061,-20.5001"/>
<text text-anchor="start" x="128.5" y="-41" font-family="Helvetica,sans-Serif" font-size="10.00"> &lt; stxxl::completion</text>
<text text-anchor="middle" x="172" y="-28" font-family="Helvetica,sans-Serif" font-size="10.00">_handler_impl &gt;</text>
</g>
</g>
</svg>
