<?xml version="1.0" encoding="UTF-8" standalone="no"?>
<!DOCTYPE svg PUBLIC "-//W3C//DTD SVG 1.1//EN"
 "http://www.w3.org/Graphics/SVG/1.1/DTD/svg11.dtd">
<!-- Generated by graphviz version 2.26.3 (20100126.1600)
 -->
<!-- Title: stxxl::ufs_file_base Pages: 1 -->
<svg width="436pt" height="204pt"
 viewBox="0.00 0.00 436.00 204.00" xmlns="http://www.w3.org/2000/svg" xmlns:xlink="http://www.w3.org/1999/xlink">
<g id="graph1" class="graph" transform="scale(1 1) rotate(0) translate(4 200)">
<title>stxxl::ufs_file_base</title>
<!-- Node1 -->
<g id="node1" class="node"><title>Node1</title>
<polygon fill="#bfbfbf" stroke="black" points="161.5,-58.5 161.5,-79.5 262.5,-79.5 262.5,-58.5 161.5,-58.5"/>
<text text-anchor="middle" x="212" y="-66.5" font-family="Helvetica,sans-Serif" font-size="10.00">stxxl::ufs_file_base</text>
</g>
<!-- Node4 -->
<g id="node7" class="node"><title>Node4</title>
<a xlink:href="classstxxl_1_1linuxaio__file.html" target="_top" xlink:title="Implementation of file based on the Linux kernel interface for asynchronous I/O. ">
<polygon fill="none" stroke="black" points="-0.5,-0.5 -0.5,-21.5 94.5,-21.5 94.5,-0.5 -0.5,-0.5"/>
<text text-anchor="middle" x="47" y="-8.5" font-family="Helvetica,sans-Serif" font-size="10.00">stxxl::linuxaio_file</text>
</a>
</g>
<!-- Node1&#45;&gt;Node4 -->
<g id="edge6" class="edge"><title>Node1&#45;&gt;Node4</title>
<path fill="none" stroke="midnightblue" d="M172.583,-55.1443C143.22,-44.8229 103.737,-30.9439 76.9363,-21.5231"/>
<polygon fill="midnightblue" stroke="midnightblue" points="171.525,-58.4823 182.12,-58.4966 173.846,-51.8784 171.525,-58.4823"/>
</g>
<!-- Node5 -->
<g id="node9" class="node"><title>Node5</title>
<a xlink:href="classstxxl_1_1mmap__file.html" target="_top" xlink:title="Implementation of memory mapped access file. ">
<polygon fill="none" stroke="black" points="111.5,-0.5 111.5,-21.5 200.5,-21.5 200.5,-0.5 111.5,-0.5"/>
<text text-anchor="middle" x="156" y="-8.5" font-family="Helvetica,sans-Serif" font-size="10.00">stxxl::mmap_file</text>
</a>
</g>
<!-- Node1&#45;&gt;Node5 -->
<g id="edge8" class="edge"><title>Node1&#45;&gt;Node5</title>
<path fill="none" stroke="midnightblue" d="M194.735,-51.118C185.388,-41.4377 174.161,-29.8098 166.206,-21.5707"/>
<polygon fill="midnightblue" stroke="midnightblue" points="192.265,-53.599 201.729,-58.3619 197.301,-48.7368 192.265,-53.599"/>
</g>
<!-- Node6 -->
<g id="node11" class="node"><title>Node6</title>
<a xlink:href="classstxxl_1_1sim__disk__file.html" target="_top" xlink:title="Implementation of disk emulation. ">
<polygon fill="none" stroke="black" points="217.5,-0.5 217.5,-21.5 318.5,-21.5 318.5,-0.5 217.5,-0.5"/>
<text text-anchor="middle" x="268" y="-8.5" font-family="Helvetica,sans-Serif" font-size="10.00">stxxl::sim_disk_file</text>
</a>
</g>
<!-- Node1&#45;&gt;Node6 -->
<g id="edge10" class="edge"><title>Node1&#45;&gt;Node6</title>
<path fill="none" stroke="midnightblue" d="M229.265,-51.118C238.612,-41.4377 249.839,-29.8098 257.794,-21.5707"/>
<polygon fill="midnightblue" stroke="midnightblue" points="226.699,-48.7368 222.271,-58.3619 231.735,-53.599 226.699,-48.7368"/>
</g>
<!-- Node7 -->
<g id="node13" class="node"><title>Node7</title>
<a xlink:href="classstxxl_1_1syscall__file.html" target="_top" xlink:title="Implementation of file based on UNIX syscalls. ">
<polygon fill="none" stroke="black" points="336,-0.5 336,-21.5 428,-21.5 428,-0.5 336,-0.5"/>
<text text-anchor="middle" x="382" y="-8.5" font-family="Helvetica,sans-Serif" font-size="10.00">stxxl::syscall_file</text>
</a>
</g>
<!-- Node1&#45;&gt;Node7 -->
<g id="edge12" class="edge"><title>Node1&#45;&gt;Node7</title>
<path fill="none" stroke="midnightblue" d="M252.612,-55.1443C282.864,-44.8229 323.544,-30.9439 351.157,-21.5231"/>
<polygon fill="midnightblue" stroke="midnightblue" points="251.12,-51.955 242.786,-58.4966 253.38,-58.5801 251.12,-51.955"/>
</g>
<!-- Node2 -->
<g id="node2" class="node"><title>Node2</title>
<a xlink:href="classstxxl_1_1file.html" target="_top" xlink:title="Defines interface of file. ">
<polygon fill="none" stroke="black" points="184,-116.5 184,-137.5 240,-137.5 240,-116.5 184,-116.5"/>
<text text-anchor="middle" x="212" y="-124.5" font-family="Helvetica,sans-Serif" font-size="10.00">stxxl::file</text>
</a>
</g>
<!-- Node2&#45;&gt;Node1 -->
<g id="edge2" class="edge"><title>Node2&#45;&gt;Node1</title>
<path fill="none" stroke="midnightblue" d="M212,-106.191C212,-97.1684 212,-86.9941 212,-79.5707"/>
<polygon fill="midnightblue" stroke="midnightblue" points="208.5,-106.362 212,-116.362 215.5,-106.362 208.5,-106.362"/>
</g>
<!-- Node3 -->
<g id="node4" class="node"><title>Node3</title>
<a xlink:href="classstxxl_1_1noncopyable.html" target="_top" xlink:title="stxxl::noncopyable">
<polygon fill="none" stroke="black" points="163,-174.5 163,-195.5 261,-195.5 261,-174.5 163,-174.5"/>
<text text-anchor="middle" x="212" y="-182.5" font-family="Helvetica,sans-Serif" font-size="10.00">stxxl::noncopyable</text>
</a>
</g>
<!-- Node3&#45;&gt;Node2 -->
<g id="edge4" class="edge"><title>Node3&#45;&gt;Node2</title>
<path fill="none" stroke="#8b1a1a" d="M212,-164.191C212,-155.168 212,-144.994 212,-137.571"/>
<polygon fill="#8b1a1a" stroke="#8b1a1a" points="208.5,-164.362 212,-174.362 215.5,-164.362 208.5,-164.362"/>
</g>
</g>
</svg>
