<?xml version="1.0" encoding="UTF-8" standalone="no"?>
<!DOCTYPE svg PUBLIC "-//W3C//DTD SVG 1.1//EN"
 "http://www.w3.org/Graphics/SVG/1.1/DTD/svg11.dtd">
<!-- Generated by graphviz version 2.26.3 (20100126.1600)
 -->
<!-- Title: stxxl::stream::make_tuple&lt; Input1, Input2, Input3, Stopper, Stopper, Stopper &gt; Pages: 1 -->
<svg width="606pt" height="144pt"
 viewBox="0.00 0.00 606.00 144.00" xmlns="http://www.w3.org/2000/svg" xmlns:xlink="http://www.w3.org/1999/xlink">
<g id="graph1" class="graph" transform="scale(1 1) rotate(0) translate(4 140)">
<title>stxxl::stream::make_tuple&lt; Input1, Input2, Input3, Stopper, Stopper, Stopper &gt;</title>
<!-- Node1 -->
<g id="node1" class="node"><title>Node1</title>
<polygon fill="#bfbfbf" stroke="black" points="468.5,-31 468.5,-91 597.5,-91 597.5,-31 468.5,-31"/>
<text text-anchor="start" x="476.5" y="-78" font-family="Helvetica,sans-Serif" font-size="10.00">stxxl::stream::make</text>
<text text-anchor="start" x="476.5" y="-65" font-family="Helvetica,sans-Serif" font-size="10.00">_tuple&lt; Input1, Input2,</text>
<text text-anchor="start" x="476.5" y="-52" font-family="Helvetica,sans-Serif" font-size="10.00"> Input3, Stopper, Stopper,</text>
<text text-anchor="middle" x="533" y="-39" font-family="Helvetica,sans-Serif" font-size="10.00"> Stopper &gt;</text>
</g>
<!-- Node2 -->
<g id="node2" class="node"><title>Node2</title>
<a xlink:href="structstxxl_1_1tuple.html" target="_top" xlink:title="stxxl::tuple\&lt; typename\l Input1::value_type, typename\l Input2::value_type, typename\l Input3::value_type \&gt;">
<polygon fill="none" stroke="black" points="248.5,-31 248.5,-91 397.5,-91 397.5,-31 248.5,-31"/>
<text text-anchor="start" x="256.5" y="-78" font-family="Helvetica,sans-Serif" font-size="10.00">stxxl::tuple&lt; typename</text>
<text text-anchor="start" x="256.5" y="-65" font-family="Helvetica,sans-Serif" font-size="10.00"> Input1::value_type, typename</text>
<text text-anchor="start" x="256.5" y="-52" font-family="Helvetica,sans-Serif" font-size="10.00"> Input2::value_type, typename</text>
<text text-anchor="middle" x="323" y="-39" font-family="Helvetica,sans-Serif" font-size="10.00"> Input3::value_type &gt;</text>
</a>
</g>
<!-- Node2&#45;&gt;Node1 -->
<g id="edge2" class="edge"><title>Node2&#45;&gt;Node1</title>
<path fill="none" stroke="#9a32cd" stroke-dasharray="5,2" d="M407.768,-61C427.976,-61 449.223,-61 468.36,-61"/>
<polygon fill="#9a32cd" stroke="#9a32cd" points="407.629,-57.5001 397.629,-61 407.629,-64.5001 407.629,-57.5001"/>
<text text-anchor="middle" x="433" y="-65" font-family="Helvetica,sans-Serif" font-size="10.00"> current</text>
</g>
<!-- Node3 -->
<g id="node4" class="node"><title>Node3</title>
<a xlink:href="structstxxl_1_1Plug.html" target="_top" xlink:title="stxxl::Plug">
<polygon fill="none" stroke="black" points="21.5,-94.5 21.5,-115.5 84.5,-115.5 84.5,-94.5 21.5,-94.5"/>
<text text-anchor="middle" x="53" y="-102.5" font-family="Helvetica,sans-Serif" font-size="10.00">stxxl::Plug</text>
</a>
</g>
<!-- Node3&#45;&gt;Node2 -->
<g id="edge4" class="edge"><title>Node3&#45;&gt;Node2</title>
<path fill="none" stroke="#9a32cd" stroke-dasharray="5,2" d="M94.9421,-101.084C130.929,-97.4144 184.093,-91.2576 230,-83 235.96,-81.9279 242.111,-80.7143 248.278,-79.4213"/>
<polygon fill="#9a32cd" stroke="#9a32cd" points="94.4126,-97.6191 84.8107,-102.097 95.1094,-104.584 94.4126,-97.6191"/>
<text text-anchor="middle" x="177" y="-127" font-family="Helvetica,sans-Serif" font-size="10.00"> fifth</text>
<text text-anchor="middle" x="177" y="-114" font-family="Helvetica,sans-Serif" font-size="10.00">fourth</text>
<text text-anchor="middle" x="177" y="-101" font-family="Helvetica,sans-Serif" font-size="10.00">sixth</text>
</g>
<!-- Node4 -->
<g id="node6" class="node"><title>Node4</title>
<a xlink:href="structstxxl_1_1tuple.html" target="_top" xlink:title="k&#45;Tuple data type ">
<polygon fill="none" stroke="black" points="0.5,-0 0.5,-34 105.5,-34 105.5,-0 0.5,-0"/>
<text text-anchor="start" x="8.5" y="-21" font-family="Helvetica,sans-Serif" font-size="10.00">stxxl::tuple&lt; T1, T2,</text>
<text text-anchor="middle" x="53" y="-8" font-family="Helvetica,sans-Serif" font-size="10.00"> T3, T4, T5, T6 &gt;</text>
</a>
</g>
<!-- Node4&#45;&gt;Node2 -->
<g id="edge6" class="edge"><title>Node4&#45;&gt;Node2</title>
<path fill="none" stroke="orange" stroke-dasharray="5,2" d="M115.95,-8.39311C150.135,-5.59347 192.882,-5.15349 230,-14 244.958,-17.565 260.236,-23.9441 273.972,-30.8756"/>
<polygon fill="orange" stroke="orange" points="115.273,-4.94002 105.631,-9.33005 115.907,-11.9113 115.273,-4.94002"/>
<text text-anchor="start" x="124" y="-70" font-family="Helvetica,sans-Serif" font-size="10.00"> &lt; typename Input1::</text>
<text text-anchor="start" x="124" y="-57" font-family="Helvetica,sans-Serif" font-size="10.00">value_type, typename</text>
<text text-anchor="start" x="124" y="-44" font-family="Helvetica,sans-Serif" font-size="10.00"> Input2::value_type,</text>
<text text-anchor="start" x="124" y="-31" font-family="Helvetica,sans-Serif" font-size="10.00"> typename Input3::value</text>
<text text-anchor="middle" x="177" y="-18" font-family="Helvetica,sans-Serif" font-size="10.00">_type &gt;</text>
</g>
</g>
</svg>
