<?xml version="1.0" encoding="UTF-8" standalone="no"?>
<!DOCTYPE svg PUBLIC "-//W3C//DTD SVG 1.1//EN"
 "http://www.w3.org/Graphics/SVG/1.1/DTD/svg11.dtd">
<!-- Generated by graphviz version 2.38.0 (20140413.2041)
 -->
<!-- Title: stxxl::request_with_waiters Pages: 1 -->
<svg width="258pt" height="341pt"
 viewBox="0.00 0.00 258.00 341.00" xmlns="http://www.w3.org/2000/svg" xmlns:xlink="http://www.w3.org/1999/xlink">
<g id="graph0" class="graph" transform="scale(1 1) rotate(0) translate(4 337)">
<title>stxxl::request_with_waiters</title>
<!-- Node1 -->
<g id="node1" class="node"><title>Node1</title>
<polygon fill="#bfbfbf" stroke="black" points="77,-123.5 77,-153.5 176,-153.5 176,-123.5 77,-123.5"/>
<text text-anchor="start" x="85" y="-141.5" font-family="Helvetica,sans-Serif" font-size="10.00">stxxl::request_with</text>
<text text-anchor="middle" x="126.5" y="-130.5" font-family="Helvetica,sans-Serif" font-size="10.00">_waiters</text>
</g>
<!-- Node6 -->
<g id="node6" class="node"><title>Node6</title>
<g id="a_node6"><a xlink:href="classstxxl_1_1request__with__state.html" target="_top" xlink:title="Request with completion state. ">
<polygon fill="none" stroke="black" points="77,-56.5 77,-86.5 176,-86.5 176,-56.5 77,-56.5"/>
<text text-anchor="start" x="85" y="-74.5" font-family="Helvetica,sans-Serif" font-size="10.00">stxxl::request_with</text>
<text text-anchor="middle" x="126.5" y="-63.5" font-family="Helvetica,sans-Serif" font-size="10.00">_state</text>
</a>
</g>
</g>
<!-- Node1&#45;&gt;Node6 -->
<g id="edge5" class="edge"><title>Node1&#45;&gt;Node6</title>
<path fill="none" stroke="midnightblue" d="M126.5,-113.108C126.5,-104.154 126.5,-94.3227 126.5,-86.5765"/>
<polygon fill="midnightblue" stroke="midnightblue" points="123,-113.396 126.5,-123.396 130,-113.396 123,-113.396"/>
</g>
<!-- Node2 -->
<g id="node2" class="node"><title>Node2</title>
<g id="a_node2"><a xlink:href="classstxxl_1_1request.html" target="_top" xlink:title="Request object encapsulating basic properties like file and offset. ">
<polygon fill="none" stroke="black" points="88.5,-190.5 88.5,-209.5 164.5,-209.5 164.5,-190.5 88.5,-190.5"/>
<text text-anchor="middle" x="126.5" y="-197.5" font-family="Helvetica,sans-Serif" font-size="10.00">stxxl::request</text>
</a>
</g>
</g>
<!-- Node2&#45;&gt;Node1 -->
<g id="edge1" class="edge"><title>Node2&#45;&gt;Node1</title>
<path fill="none" stroke="midnightblue" d="M126.5,-180.235C126.5,-171.586 126.5,-161.497 126.5,-153.523"/>
<polygon fill="midnightblue" stroke="midnightblue" points="123,-180.475 126.5,-190.475 130,-180.475 123,-180.475"/>
</g>
<!-- Node3 -->
<g id="node3" class="node"><title>Node3</title>
<g id="a_node3"><a xlink:href="classstxxl_1_1request__interface.html" target="_top" xlink:title="Functional interface of a request. ">
<polygon fill="none" stroke="black" points="0,-252 0,-271 119,-271 119,-252 0,-252"/>
<text text-anchor="middle" x="59.5" y="-259" font-family="Helvetica,sans-Serif" font-size="10.00">stxxl::request_interface</text>
</a>
</g>
</g>
<!-- Node3&#45;&gt;Node2 -->
<g id="edge2" class="edge"><title>Node3&#45;&gt;Node2</title>
<path fill="none" stroke="midnightblue" d="M76.7853,-245.15C89.559,-233.806 106.478,-218.781 116.918,-209.509"/>
<polygon fill="midnightblue" stroke="midnightblue" points="74.2526,-242.718 69.0995,-251.975 78.9007,-247.952 74.2526,-242.718"/>
</g>
<!-- Node4 -->
<g id="node4" class="node"><title>Node4</title>
<g id="a_node4"><a xlink:href="classstxxl_1_1noncopyable.html" target="_top" xlink:title="stxxl::noncopyable">
<polygon fill="none" stroke="black" points="10.5,-313.5 10.5,-332.5 108.5,-332.5 108.5,-313.5 10.5,-313.5"/>
<text text-anchor="middle" x="59.5" y="-320.5" font-family="Helvetica,sans-Serif" font-size="10.00">stxxl::noncopyable</text>
</a>
</g>
</g>
<!-- Node4&#45;&gt;Node3 -->
<g id="edge3" class="edge"><title>Node4&#45;&gt;Node3</title>
<path fill="none" stroke="#8b1a1a" d="M59.5,-303.317C59.5,-292.496 59.5,-279.398 59.5,-271.009"/>
<polygon fill="#8b1a1a" stroke="#8b1a1a" points="56.0001,-303.475 59.5,-313.475 63.0001,-303.475 56.0001,-303.475"/>
</g>
<!-- Node5 -->
<g id="node5" class="node"><title>Node5</title>
<g id="a_node5"><a xlink:href="classstxxl_1_1atomic__counted__object.html" target="_top" xlink:title="Provides reference counting abilities for use with counting_ptr with mutex locking. ">
<polygon fill="none" stroke="black" points="137,-246.5 137,-276.5 250,-276.5 250,-246.5 137,-246.5"/>
<text text-anchor="start" x="145" y="-264.5" font-family="Helvetica,sans-Serif" font-size="10.00">stxxl::atomic_counted</text>
<text text-anchor="middle" x="193.5" y="-253.5" font-family="Helvetica,sans-Serif" font-size="10.00">_object</text>
</a>
</g>
</g>
<!-- Node5&#45;&gt;Node2 -->
<g id="edge4" class="edge"><title>Node5&#45;&gt;Node2</title>
<path fill="none" stroke="midnightblue" d="M169.962,-239.597C158.384,-229.315 145.06,-217.482 136.249,-209.658"/>
<polygon fill="midnightblue" stroke="midnightblue" points="167.821,-242.376 177.622,-246.399 172.469,-237.142 167.821,-242.376"/>
</g>
<!-- Node7 -->
<g id="node7" class="node"><title>Node7</title>
<g id="a_node7"><a xlink:href="classstxxl_1_1linuxaio__request.html" target="_top" xlink:title="Request for an linuxaio_file. ">
<polygon fill="none" stroke="black" points="3.5,-0.5 3.5,-19.5 117.5,-19.5 117.5,-0.5 3.5,-0.5"/>
<text text-anchor="middle" x="60.5" y="-7.5" font-family="Helvetica,sans-Serif" font-size="10.00">stxxl::linuxaio_request</text>
</a>
</g>
</g>
<!-- Node6&#45;&gt;Node7 -->
<g id="edge6" class="edge"><title>Node6&#45;&gt;Node7</title>
<path fill="none" stroke="midnightblue" d="M103.314,-49.5972C91.9086,-39.3153 78.783,-27.4824 70.1036,-19.6578"/>
<polygon fill="midnightblue" stroke="midnightblue" points="101.088,-52.303 110.859,-56.3993 105.775,-47.1039 101.088,-52.303"/>
</g>
<!-- Node8 -->
<g id="node8" class="node"><title>Node8</title>
<g id="a_node8"><a xlink:href="classstxxl_1_1serving__request.html" target="_top" xlink:title="Request which serves an I/O by calling the synchronous routine of the file. ">
<polygon fill="none" stroke="black" points="136,-0.5 136,-19.5 249,-19.5 249,-0.5 136,-0.5"/>
<text text-anchor="middle" x="192.5" y="-7.5" font-family="Helvetica,sans-Serif" font-size="10.00">stxxl::serving_request</text>
</a>
</g>
</g>
<!-- Node6&#45;&gt;Node8 -->
<g id="edge7" class="edge"><title>Node6&#45;&gt;Node8</title>
<path fill="none" stroke="midnightblue" d="M149.686,-49.5972C161.091,-39.3153 174.217,-27.4824 182.896,-19.6578"/>
<polygon fill="midnightblue" stroke="midnightblue" points="147.225,-47.1039 142.141,-56.3993 151.912,-52.303 147.225,-47.1039"/>
</g>
</g>
</svg>
