<?xml version="1.0" encoding="UTF-8" standalone="no"?>
<!DOCTYPE svg PUBLIC "-//W3C//DTD SVG 1.1//EN"
 "http://www.w3.org/Graphics/SVG/1.1/DTD/svg11.dtd">
<!-- Generated by graphviz version 2.38.0 (20140413.2041)
 -->
<!-- Title: stxxl::stream::sort&lt; Input, CompareType, BlockSize, AllocStr, RunsCreatorType &gt; Pages: 1 -->
<svg width="1941pt" height="482pt"
 viewBox="0.00 0.00 1941.00 482.00" xmlns="http://www.w3.org/2000/svg" xmlns:xlink="http://www.w3.org/1999/xlink">
<g id="graph0" class="graph" transform="scale(1 1) rotate(0) translate(4 478)">
<title>stxxl::stream::sort&lt; Input, CompareType, BlockSize, AllocStr, RunsCreatorType &gt;</title>
<!-- Node1 -->
<g id="node1" class="node"><title>Node1</title>
<polygon fill="#bfbfbf" stroke="black" points="1815,-412 1815,-464 1933,-464 1933,-412 1815,-412"/>
<text text-anchor="start" x="1823" y="-452" font-family="Helvetica,sans-Serif" font-size="10.00">stxxl::stream::sort</text>
<text text-anchor="start" x="1823" y="-441" font-family="Helvetica,sans-Serif" font-size="10.00">&lt; Input, CompareType,</text>
<text text-anchor="start" x="1823" y="-430" font-family="Helvetica,sans-Serif" font-size="10.00"> BlockSize, AllocStr,</text>
<text text-anchor="middle" x="1874" y="-419" font-family="Helvetica,sans-Serif" font-size="10.00"> RunsCreatorType &gt;</text>
</g>
<!-- Node2 -->
<g id="node2" class="node"><title>Node2</title>
<g id="a_node2"><a xlink:href="classstxxl_1_1noncopyable.html" target="_top" xlink:title="stxxl::noncopyable">
<polygon fill="none" stroke="black" points="6,-284.5 6,-303.5 104,-303.5 104,-284.5 6,-284.5"/>
<text text-anchor="middle" x="55" y="-291.5" font-family="Helvetica,sans-Serif" font-size="10.00">stxxl::noncopyable</text>
</a>
</g>
</g>
<!-- Node2&#45;&gt;Node1 -->
<g id="edge1" class="edge"><title>Node2&#45;&gt;Node1</title>
<path fill="none" stroke="midnightblue" d="M63.5409,-313.341C74.2914,-338.589 96.2955,-382.654 128,-409 188.62,-459.374 214.182,-474 293,-474 293,-474 293,-474 1667,-474 1717.47,-474 1773.86,-463.387 1814.87,-453.685"/>
<polygon fill="midnightblue" stroke="midnightblue" points="66.6544,-311.708 59.6271,-303.779 60.1761,-314.36 66.6544,-311.708"/>
</g>
<!-- Node4 -->
<g id="node4" class="node"><title>Node4</title>
<g id="a_node4"><a xlink:href="classstxxl_1_1stream_1_1basic__runs__merger.html" target="_top" xlink:title="stxxl::stream::basic\l_runs_merger\&lt; sorted\l_runs_type, CompareType,\l AllocStr \&gt;">
<polygon fill="none" stroke="black" points="1292.5,-332 1292.5,-384 1427.5,-384 1427.5,-332 1292.5,-332"/>
<text text-anchor="start" x="1300.5" y="-372" font-family="Helvetica,sans-Serif" font-size="10.00">stxxl::stream::basic</text>
<text text-anchor="start" x="1300.5" y="-361" font-family="Helvetica,sans-Serif" font-size="10.00">_runs_merger&lt; sorted</text>
<text text-anchor="start" x="1300.5" y="-350" font-family="Helvetica,sans-Serif" font-size="10.00">_runs_type, CompareType,</text>
<text text-anchor="middle" x="1360" y="-339" font-family="Helvetica,sans-Serif" font-size="10.00"> AllocStr &gt;</text>
</a>
</g>
</g>
<!-- Node2&#45;&gt;Node4 -->
<g id="edge4" class="edge"><title>Node2&#45;&gt;Node4</title>
<path fill="none" stroke="#8b1a1a" d="M69.4672,-311.859C82.7954,-328.512 104.553,-353.105 128,-369 193.513,-413.413 213.851,-436 293,-436 293,-436 293,-436 1067.5,-436 1149.62,-436 1240.46,-406.756 1298.56,-384.081"/>
<polygon fill="#8b1a1a" stroke="#8b1a1a" points="71.882,-309.264 62.9728,-303.531 66.3618,-313.569 71.882,-309.264"/>
</g>
<!-- Node5 -->
<g id="node5" class="node"><title>Node5</title>
<g id="a_node5"><a xlink:href="classstxxl_1_1block__prefetcher.html" target="_top" xlink:title="Encapsulates asynchronous prefetching engine. ">
<polygon fill="none" stroke="black" points="718.5,-211 718.5,-241 872.5,-241 872.5,-211 718.5,-211"/>
<text text-anchor="start" x="726.5" y="-229" font-family="Helvetica,sans-Serif" font-size="10.00">stxxl::block_prefetcher</text>
<text text-anchor="middle" x="795.5" y="-218" font-family="Helvetica,sans-Serif" font-size="10.00">&lt; BlockType, BidIteratorType &gt;</text>
</a>
</g>
</g>
<!-- Node2&#45;&gt;Node5 -->
<g id="edge6" class="edge"><title>Node2&#45;&gt;Node5</title>
<path fill="none" stroke="#8b1a1a" d="M76.7306,-278.636C90.5304,-269.261 109.469,-257.967 128,-252 172.622,-237.632 186.25,-245.461 233,-242 409.209,-228.954 453.371,-225.668 630,-221 659.323,-220.225 666.676,-220.256 696,-221 703.275,-221.185 710.849,-221.446 718.422,-221.753"/>
<polygon fill="#8b1a1a" stroke="#8b1a1a" points="74.6323,-275.833 68.4602,-284.444 78.6553,-281.561 74.6323,-275.833"/>
</g>
<!-- Node8 -->
<g id="node8" class="node"><title>Node8</title>
<g id="a_node8"><a xlink:href="classstxxl_1_1onoff__switch.html" target="_top" xlink:title="stxxl::onoff_switch">
<polygon fill="none" stroke="black" points="498.5,-241.5 498.5,-260.5 597.5,-260.5 597.5,-241.5 498.5,-241.5"/>
<text text-anchor="middle" x="548" y="-248.5" font-family="Helvetica,sans-Serif" font-size="10.00">stxxl::onoff_switch</text>
</a>
</g>
</g>
<!-- Node2&#45;&gt;Node8 -->
<g id="edge10" class="edge"><title>Node2&#45;&gt;Node8</title>
<path fill="none" stroke="#8b1a1a" d="M103.208,-281.988C111.461,-279.948 119.973,-277.882 128,-276 174.512,-265.094 185.521,-258.292 233,-253 326.46,-242.583 436.538,-245.296 498.403,-248.175"/>
<polygon fill="#8b1a1a" stroke="#8b1a1a" points="102.177,-278.637 93.3189,-284.449 103.868,-285.43 102.177,-278.637"/>
</g>
<!-- Node9 -->
<g id="node9" class="node"><title>Node9</title>
<g id="a_node9"><a xlink:href="classstxxl_1_1mutex.html" target="_top" xlink:title="stxxl::mutex">
<polygon fill="none" stroke="black" points="258.5,-300.5 258.5,-319.5 329.5,-319.5 329.5,-300.5 258.5,-300.5"/>
<text text-anchor="middle" x="294" y="-307.5" font-family="Helvetica,sans-Serif" font-size="10.00">stxxl::mutex</text>
</a>
</g>
</g>
<!-- Node2&#45;&gt;Node9 -->
<g id="edge12" class="edge"><title>Node2&#45;&gt;Node9</title>
<path fill="none" stroke="#8b1a1a" d="M114.488,-297.949C159.623,-300.996 220.538,-305.108 258.267,-307.655"/>
<polygon fill="#8b1a1a" stroke="#8b1a1a" points="114.459,-294.439 104.246,-297.257 113.988,-301.423 114.459,-294.439"/>
</g>
<!-- Node10 -->
<g id="node10" class="node"><title>Node10</title>
<g id="a_node10"><a xlink:href="classstxxl_1_1condition__variable.html" target="_top" xlink:title="stxxl::condition_variable">
<polygon fill="none" stroke="black" points="233,-262.5 233,-281.5 355,-281.5 355,-262.5 233,-262.5"/>
<text text-anchor="middle" x="294" y="-269.5" font-family="Helvetica,sans-Serif" font-size="10.00">stxxl::condition_variable</text>
</a>
</g>
</g>
<!-- Node2&#45;&gt;Node10 -->
<g id="edge14" class="edge"><title>Node2&#45;&gt;Node10</title>
<path fill="none" stroke="#8b1a1a" d="M114.57,-288.563C150.481,-285.23 196.358,-280.971 232.6,-277.607"/>
<polygon fill="#8b1a1a" stroke="#8b1a1a" points="113.88,-285.112 104.246,-289.521 114.527,-292.082 113.88,-285.112"/>
</g>
<!-- Node15 -->
<g id="node15" class="node"><title>Node15</title>
<g id="a_node15"><a xlink:href="classstxxl_1_1loser__tree.html" target="_top" xlink:title="stxxl::loser_tree\&lt;\l RunCursorType, RunCursorCmp\lType \&gt;">
<polygon fill="none" stroke="black" points="714,-326.5 714,-367.5 877,-367.5 877,-326.5 714,-326.5"/>
<text text-anchor="start" x="722" y="-355.5" font-family="Helvetica,sans-Serif" font-size="10.00">stxxl::loser_tree&lt;</text>
<text text-anchor="start" x="722" y="-344.5" font-family="Helvetica,sans-Serif" font-size="10.00"> RunCursorType, RunCursorCmp</text>
<text text-anchor="middle" x="795.5" y="-333.5" font-family="Helvetica,sans-Serif" font-size="10.00">Type &gt;</text>
</a>
</g>
</g>
<!-- Node2&#45;&gt;Node15 -->
<g id="edge21" class="edge"><title>Node2&#45;&gt;Node15</title>
<path fill="none" stroke="#8b1a1a" d="M79.0906,-309.294C111.739,-329.907 174.008,-365.57 233,-379 400.798,-417.202 603.697,-387.634 713.828,-365.504"/>
<polygon fill="#8b1a1a" stroke="#8b1a1a" points="80.6261,-306.12 70.3196,-303.665 76.8454,-312.011 80.6261,-306.12"/>
</g>
<!-- Node16 -->
<g id="node16" class="node"><title>Node16</title>
<g id="a_node16"><a xlink:href="classstxxl_1_1stream_1_1basic__runs__merger.html" target="_top" xlink:title="Merges sorted runs. ">
<polygon fill="none" stroke="black" points="1000,-225.5 1000,-266.5 1133,-266.5 1133,-225.5 1000,-225.5"/>
<text text-anchor="start" x="1008" y="-254.5" font-family="Helvetica,sans-Serif" font-size="10.00">stxxl::stream::basic</text>
<text text-anchor="start" x="1008" y="-243.5" font-family="Helvetica,sans-Serif" font-size="10.00">_runs_merger&lt; RunsType,</text>
<text text-anchor="middle" x="1066.5" y="-232.5" font-family="Helvetica,sans-Serif" font-size="10.00"> CompareType, AllocStr &gt;</text>
</a>
</g>
</g>
<!-- Node2&#45;&gt;Node16 -->
<g id="edge24" class="edge"><title>Node2&#45;&gt;Node16</title>
<path fill="none" stroke="#8b1a1a" d="M64.5278,-275.239C90.4456,-221.361 173.86,-70 293,-70 293,-70 293,-70 796.5,-70 908.955,-70 1011.04,-179.039 1049.41,-225.466"/>
<polygon fill="#8b1a1a" stroke="#8b1a1a" points="61.3203,-273.835 60.239,-284.375 67.6568,-276.81 61.3203,-273.835"/>
</g>
<!-- Node3 -->
<g id="node3" class="node"><title>Node3</title>
<g id="a_node3"><a xlink:href="classstxxl_1_1stream_1_1runs__merger.html" target="_top" xlink:title="stxxl::stream::runs\l_merger\&lt; sorted_runs\l_type, CompareType, AllocStr \&gt;">
<polygon fill="none" stroke="black" points="1587,-337.5 1587,-378.5 1745,-378.5 1745,-337.5 1587,-337.5"/>
<text text-anchor="start" x="1595" y="-366.5" font-family="Helvetica,sans-Serif" font-size="10.00">stxxl::stream::runs</text>
<text text-anchor="start" x="1595" y="-355.5" font-family="Helvetica,sans-Serif" font-size="10.00">_merger&lt; sorted_runs</text>
<text text-anchor="middle" x="1666" y="-344.5" font-family="Helvetica,sans-Serif" font-size="10.00">_type, CompareType, AllocStr &gt;</text>
</a>
</g>
</g>
<!-- Node3&#45;&gt;Node1 -->
<g id="edge2" class="edge"><title>Node3&#45;&gt;Node1</title>
<path fill="none" stroke="#9a32cd" stroke-dasharray="5,2" d="M1729.43,-382.246C1756.53,-392.768 1788.08,-405.021 1814.69,-415.357"/>
<polygon fill="#9a32cd" stroke="#9a32cd" points="1730.64,-378.96 1720.05,-378.602 1728.1,-385.485 1730.64,-378.96"/>
<text text-anchor="middle" x="1780" y="-410" font-family="Helvetica,sans-Serif" font-size="10.00"> merger</text>
</g>
<!-- Node4&#45;&gt;Node3 -->
<g id="edge3" class="edge"><title>Node4&#45;&gt;Node3</title>
<path fill="none" stroke="midnightblue" d="M1437.84,-358C1483.43,-358 1541.07,-358 1586.88,-358"/>
<polygon fill="midnightblue" stroke="midnightblue" points="1437.71,-354.5 1427.71,-358 1437.71,-361.5 1437.71,-354.5"/>
</g>
<!-- Node5&#45;&gt;Node4 -->
<g id="edge5" class="edge"><title>Node5&#45;&gt;Node4</title>
<path fill="none" stroke="#9a32cd" stroke-dasharray="5,2" d="M838.797,-245.729C851.841,-252.938 865.725,-261.85 877,-272 887.175,-281.161 883.248,-289.975 895,-297 911.847,-307.07 1167.67,-336.697 1292.07,-350.617"/>
<polygon fill="#9a32cd" stroke="#9a32cd" points="840.415,-242.626 829.943,-241.016 837.126,-248.805 840.415,-242.626"/>
<text text-anchor="middle" x="1066.5" y="-334" font-family="Helvetica,sans-Serif" font-size="10.00"> m_prefetcher</text>
</g>
<!-- Node5&#45;&gt;Node16 -->
<g id="edge25" class="edge"><title>Node5&#45;&gt;Node16</title>
<path fill="none" stroke="#9a32cd" stroke-dasharray="5,2" d="M882.565,-222.567C913.951,-222.341 949.666,-223.279 982,-227 987.76,-227.663 993.703,-228.565 999.64,-229.617"/>
<polygon fill="#9a32cd" stroke="#9a32cd" points="882.496,-219.067 872.536,-222.679 882.575,-226.067 882.496,-219.067"/>
<text text-anchor="middle" x="938.5" y="-230" font-family="Helvetica,sans-Serif" font-size="10.00"> m_prefetcher</text>
</g>
<!-- Node6 -->
<g id="node6" class="node"><title>Node6</title>
<g id="a_node6"><a xlink:href="structstxxl_1_1choose__int__types.html" target="_top" xlink:title="stxxl::choose_int_types\l\&lt; my_pointer_size \&gt;">
<polygon fill="none" stroke="black" points="488,-332 488,-362 608,-362 608,-332 488,-332"/>
<text text-anchor="start" x="496" y="-350" font-family="Helvetica,sans-Serif" font-size="10.00">stxxl::choose_int_types</text>
<text text-anchor="middle" x="548" y="-339" font-family="Helvetica,sans-Serif" font-size="10.00">&lt; my_pointer_size &gt;</text>
</a>
</g>
</g>
<!-- Node6&#45;&gt;Node4 -->
<g id="edge19" class="edge"><title>Node6&#45;&gt;Node4</title>
<path fill="none" stroke="#9a32cd" stroke-dasharray="5,2" d="M618.361,-362.475C647.703,-368.274 682.354,-374.146 714,-377 807.903,-385.467 1149.69,-377.055 1266,-369 1274.52,-368.41 1283.45,-367.6 1292.27,-366.684"/>
<polygon fill="#9a32cd" stroke="#9a32cd" points="618.712,-358.975 608.218,-360.432 617.33,-365.838 618.712,-358.975"/>
<text text-anchor="middle" x="938.5" y="-383" font-family="Helvetica,sans-Serif" font-size="10.00"> m_memory_to_use</text>
</g>
<!-- Node6&#45;&gt;Node5 -->
<g id="edge7" class="edge"><title>Node6&#45;&gt;Node5</title>
<path fill="none" stroke="#9a32cd" stroke-dasharray="5,2" d="M565.615,-323.717C580.384,-304.764 603.672,-278.807 630,-264 645.457,-255.307 683.052,-246.343 718.405,-239.305"/>
<polygon fill="#9a32cd" stroke="#9a32cd" points="562.691,-321.781 559.448,-331.868 568.273,-326.005 562.691,-321.781"/>
<text text-anchor="middle" x="663" y="-289" font-family="Helvetica,sans-Serif" font-size="10.00"> seq_length</text>
<text text-anchor="middle" x="663" y="-278" font-family="Helvetica,sans-Serif" font-size="10.00">nextconsume</text>
<text text-anchor="middle" x="663" y="-267" font-family="Helvetica,sans-Serif" font-size="10.00">nextread</text>
</g>
<!-- Node6&#45;&gt;Node15 -->
<g id="edge22" class="edge"><title>Node6&#45;&gt;Node15</title>
<path fill="none" stroke="#9a32cd" stroke-dasharray="5,2" d="M618.372,-347C648.018,-347 682.823,-347 713.63,-347"/>
<polygon fill="#9a32cd" stroke="#9a32cd" points="618.116,-343.5 608.116,-347 618.116,-350.5 618.116,-343.5"/>
<text text-anchor="middle" x="663" y="-350" font-family="Helvetica,sans-Serif" font-size="10.00"> k</text>
</g>
<!-- Node6&#45;&gt;Node16 -->
<g id="edge26" class="edge"><title>Node6&#45;&gt;Node16</title>
<path fill="none" stroke="#9a32cd" stroke-dasharray="5,2" d="M615.216,-329.359C645.252,-321.663 681.296,-312.854 714,-306 813.066,-285.238 928.968,-266.522 999.792,-255.708"/>
<polygon fill="#9a32cd" stroke="#9a32cd" points="614.083,-326.036 605.273,-331.921 615.83,-332.815 614.083,-326.036"/>
<text text-anchor="middle" x="795.5" y="-309" font-family="Helvetica,sans-Serif" font-size="10.00"> m_memory_to_use</text>
</g>
<!-- Node7 -->
<g id="node7" class="node"><title>Node7</title>
<g id="a_node7"><a xlink:href="structstxxl_1_1choose__int__types.html" target="_top" xlink:title="stxxl::choose_int_types\l\&lt; PtrSize \&gt;">
<polygon fill="none" stroke="black" points="234,-339 234,-369 354,-369 354,-339 234,-339"/>
<text text-anchor="start" x="242" y="-357" font-family="Helvetica,sans-Serif" font-size="10.00">stxxl::choose_int_types</text>
<text text-anchor="middle" x="294" y="-346" font-family="Helvetica,sans-Serif" font-size="10.00">&lt; PtrSize &gt;</text>
</a>
</g>
</g>
<!-- Node7&#45;&gt;Node6 -->
<g id="edge8" class="edge"><title>Node7&#45;&gt;Node6</title>
<path fill="none" stroke="orange" stroke-dasharray="5,2" d="M364.245,-352.077C403.015,-351 450.847,-349.671 487.851,-348.643"/>
<polygon fill="orange" stroke="orange" points="363.982,-348.582 354.083,-352.359 364.176,-355.58 363.982,-348.582"/>
<text text-anchor="middle" x="419.5" y="-354" font-family="Helvetica,sans-Serif" font-size="10.00"> &lt; my_pointer_size &gt;</text>
</g>
<!-- Node8&#45;&gt;Node5 -->
<g id="edge9" class="edge"><title>Node8&#45;&gt;Node5</title>
<path fill="none" stroke="#9a32cd" stroke-dasharray="5,2" d="M589.052,-238.676C601.994,-235.219 616.491,-231.89 630,-230 658.716,-225.983 690.521,-224.522 718.451,-224.223"/>
<polygon fill="#9a32cd" stroke="#9a32cd" points="587.754,-235.404 579.055,-241.452 589.626,-242.149 587.754,-235.404"/>
<text text-anchor="middle" x="663" y="-233" font-family="Helvetica,sans-Serif" font-size="10.00"> completed</text>
</g>
<!-- Node9&#45;&gt;Node8 -->
<g id="edge11" class="edge"><title>Node9&#45;&gt;Node8</title>
<path fill="none" stroke="#9a32cd" stroke-dasharray="5,2" d="M340.104,-304.691C374.871,-300.038 423.953,-292.246 466,-281 486.282,-275.575 508.605,-267.112 524.671,-260.555"/>
<polygon fill="#9a32cd" stroke="#9a32cd" points="339.261,-301.271 329.798,-306.034 340.166,-308.212 339.261,-301.271"/>
<text text-anchor="middle" x="419.5" y="-303" font-family="Helvetica,sans-Serif" font-size="10.00"> m_mutex</text>
</g>
<!-- Node10&#45;&gt;Node8 -->
<g id="edge13" class="edge"><title>Node10&#45;&gt;Node8</title>
<path fill="none" stroke="#9a32cd" stroke-dasharray="5,2" d="M365.028,-266.164C407.466,-262.628 460.536,-258.205 498.393,-255.051"/>
<polygon fill="#9a32cd" stroke="#9a32cd" points="364.715,-262.678 355.04,-266.997 365.296,-269.654 364.715,-262.678"/>
<text text-anchor="middle" x="419.5" y="-269" font-family="Helvetica,sans-Serif" font-size="10.00"> m_cond</text>
</g>
<!-- Node11 -->
<g id="node11" class="node"><title>Node11</title>
<g id="a_node11"><a xlink:href="classstxxl_1_1counting__ptr.html" target="_top" xlink:title="High&#45;performance smart pointer used as a wrapping reference counting pointer. ">
<polygon fill="none" stroke="black" points="499.5,-137 499.5,-167 596.5,-167 596.5,-137 499.5,-137"/>
<text text-anchor="start" x="507.5" y="-155" font-family="Helvetica,sans-Serif" font-size="10.00">stxxl::counting_ptr</text>
<text text-anchor="middle" x="548" y="-144" font-family="Helvetica,sans-Serif" font-size="10.00">&lt; Type &gt;</text>
</a>
</g>
</g>
<!-- Node11&#45;&gt;Node5 -->
<g id="edge15" class="edge"><title>Node11&#45;&gt;Node5</title>
<path fill="none" stroke="#9a32cd" stroke-dasharray="5,2" d="M606.946,-154.398C634.473,-156.813 667.507,-161.593 696,-171 724.27,-180.334 753.694,-197.973 772.936,-210.765"/>
<polygon fill="#9a32cd" stroke="#9a32cd" points="606.932,-150.886 596.686,-153.583 606.378,-157.864 606.932,-150.886"/>
<text text-anchor="middle" x="663" y="-174" font-family="Helvetica,sans-Serif" font-size="10.00"> read_reqs</text>
</g>
<!-- Node12 -->
<g id="node12" class="node"><title>Node12</title>
<g id="a_node12"><a xlink:href="classstxxl_1_1completion__handler.html" target="_top" xlink:title="Completion handler class (Loki&#45;style). ">
<polygon fill="none" stroke="black" points="484,-98.5 484,-117.5 612,-117.5 612,-98.5 484,-98.5"/>
<text text-anchor="middle" x="548" y="-105.5" font-family="Helvetica,sans-Serif" font-size="10.00">stxxl::completion_handler</text>
</a>
</g>
</g>
<!-- Node12&#45;&gt;Node5 -->
<g id="edge16" class="edge"><title>Node12&#45;&gt;Node5</title>
<path fill="none" stroke="#9a32cd" stroke-dasharray="5,2" d="M621.963,-118.385C646.363,-123.655 673.146,-131.478 696,-143 730.545,-160.416 763.383,-192.198 781.046,-210.975"/>
<polygon fill="#9a32cd" stroke="#9a32cd" points="622.53,-114.928 612.031,-116.349 621.124,-121.785 622.53,-114.928"/>
<text text-anchor="middle" x="663" y="-146" font-family="Helvetica,sans-Serif" font-size="10.00"> do_after_fetch</text>
</g>
<!-- Node13 -->
<g id="node13" class="node"><title>Node13</title>
<g id="a_node13"><a xlink:href="structstxxl_1_1compat__unique__ptr.html" target="_top" xlink:title="stxxl::compat_unique\l_ptr\&lt; stxxl::completion\l_handler_impl \&gt;">
<polygon fill="none" stroke="black" points="236,-0.5 236,-41.5 352,-41.5 352,-0.5 236,-0.5"/>
<text text-anchor="start" x="244" y="-29.5" font-family="Helvetica,sans-Serif" font-size="10.00">stxxl::compat_unique</text>
<text text-anchor="start" x="244" y="-18.5" font-family="Helvetica,sans-Serif" font-size="10.00">_ptr&lt; stxxl::completion</text>
<text text-anchor="middle" x="294" y="-7.5" font-family="Helvetica,sans-Serif" font-size="10.00">_handler_impl &gt;</text>
</a>
</g>
</g>
<!-- Node13&#45;&gt;Node12 -->
<g id="edge17" class="edge"><title>Node13&#45;&gt;Node12</title>
<path fill="none" stroke="#9a32cd" stroke-dasharray="5,2" d="M361.889,-44.0925C413.246,-61.8231 481.545,-85.4026 519.173,-98.393"/>
<polygon fill="#9a32cd" stroke="#9a32cd" points="362.777,-40.6967 352.183,-40.7416 360.493,-47.3135 362.777,-40.6967"/>
<text text-anchor="middle" x="419.5" y="-83" font-family="Helvetica,sans-Serif" font-size="10.00"> m_ptr</text>
</g>
<!-- Node14 -->
<g id="node14" class="node"><title>Node14</title>
<g id="a_node14"><a xlink:href="structstxxl_1_1compat__unique__ptr.html" target="_top" xlink:title="stxxl::compat_unique\l_ptr\&lt; Type \&gt;">
<polygon fill="none" stroke="black" points="0,-6 0,-36 110,-36 110,-6 0,-6"/>
<text text-anchor="start" x="8" y="-24" font-family="Helvetica,sans-Serif" font-size="10.00">stxxl::compat_unique</text>
<text text-anchor="middle" x="55" y="-13" font-family="Helvetica,sans-Serif" font-size="10.00">_ptr&lt; Type &gt;</text>
</a>
</g>
</g>
<!-- Node14&#45;&gt;Node13 -->
<g id="edge18" class="edge"><title>Node14&#45;&gt;Node13</title>
<path fill="none" stroke="orange" stroke-dasharray="5,2" d="M120.485,-21C156.532,-21 201.062,-21 235.851,-21"/>
<polygon fill="orange" stroke="orange" points="120.076,-17.5001 110.076,-21 120.075,-24.5001 120.076,-17.5001"/>
<text text-anchor="start" x="128" y="-35" font-family="Helvetica,sans-Serif" font-size="10.00"> &lt; stxxl::completion</text>
<text text-anchor="middle" x="171.5" y="-24" font-family="Helvetica,sans-Serif" font-size="10.00">_handler_impl &gt;</text>
</g>
<!-- Node15&#45;&gt;Node4 -->
<g id="edge20" class="edge"><title>Node15&#45;&gt;Node4</title>
<path fill="none" stroke="#9a32cd" stroke-dasharray="5,2" d="M887.127,-348.772C1000.35,-350.986 1191.43,-354.723 1292.19,-356.693"/>
<polygon fill="#9a32cd" stroke="#9a32cd" points="887.159,-345.272 877.093,-348.576 887.022,-352.271 887.159,-345.272"/>
<text text-anchor="middle" x="1066.5" y="-356" font-family="Helvetica,sans-Serif" font-size="10.00"> m_losers</text>
</g>
<!-- Node15&#45;&gt;Node16 -->
<g id="edge27" class="edge"><title>Node15&#45;&gt;Node16</title>
<path fill="none" stroke="#9a32cd" stroke-dasharray="5,2" d="M860.785,-322.863C906.548,-305.681 967.382,-282.84 1010.82,-266.532"/>
<polygon fill="#9a32cd" stroke="#9a32cd" points="859.392,-319.648 851.26,-326.439 861.853,-326.201 859.392,-319.648"/>
<text text-anchor="middle" x="938.5" y="-312" font-family="Helvetica,sans-Serif" font-size="10.00"> m_losers</text>
</g>
<!-- Node16&#45;&gt;Node4 -->
<g id="edge23" class="edge"><title>Node16&#45;&gt;Node4</title>
<path fill="none" stroke="orange" stroke-dasharray="5,2" d="M1143.37,-251.405C1190.26,-255.825 1245.32,-263.292 1266,-275 1276.99,-281.223 1275.05,-288.08 1284,-297 1296.24,-309.206 1310.77,-321.465 1323.77,-331.758"/>
<polygon fill="orange" stroke="orange" points="1143.47,-247.9 1133.2,-250.481 1142.84,-254.871 1143.47,-247.9"/>
<text text-anchor="start" x="1151" y="-289" font-family="Helvetica,sans-Serif" font-size="10.00"> &lt; sorted_runs_type,</text>
<text text-anchor="middle" x="1208.5" y="-278" font-family="Helvetica,sans-Serif" font-size="10.00"> CompareType, AllocStr &gt;</text>
</g>
<!-- Node17 -->
<g id="node17" class="node"><title>Node17</title>
<g id="a_node17"><a xlink:href="classstxxl_1_1stream_1_1runs__merger.html" target="_top" xlink:title="Merges sorted runs. ">
<polygon fill="none" stroke="black" points="1284,-246.5 1284,-287.5 1436,-287.5 1436,-246.5 1284,-246.5"/>
<text text-anchor="start" x="1292" y="-275.5" font-family="Helvetica,sans-Serif" font-size="10.00">stxxl::stream::runs</text>
<text text-anchor="start" x="1292" y="-264.5" font-family="Helvetica,sans-Serif" font-size="10.00">_merger&lt; RunsType, Compare</text>
<text text-anchor="middle" x="1360" y="-253.5" font-family="Helvetica,sans-Serif" font-size="10.00">Type, AllocStr &gt;</text>
</a>
</g>
</g>
<!-- Node16&#45;&gt;Node17 -->
<g id="edge29" class="edge"><title>Node16&#45;&gt;Node17</title>
<path fill="none" stroke="midnightblue" d="M1143.52,-247.968C1180.52,-249.303 1225.63,-251.487 1266,-255 1271.84,-255.508 1277.87,-256.111 1283.94,-256.771"/>
<polygon fill="midnightblue" stroke="midnightblue" points="1143.42,-244.462 1133.31,-247.613 1143.18,-251.458 1143.42,-244.462"/>
</g>
<!-- Node17&#45;&gt;Node3 -->
<g id="edge28" class="edge"><title>Node17&#45;&gt;Node3</title>
<path fill="none" stroke="orange" stroke-dasharray="5,2" d="M1439.44,-290.481C1488.01,-305.018 1549.77,-323.507 1596.38,-337.46"/>
<polygon fill="orange" stroke="orange" points="1440.19,-287.05 1429.6,-287.536 1438.18,-293.756 1440.19,-287.05"/>
<text text-anchor="start" x="1454" y="-342" font-family="Helvetica,sans-Serif" font-size="10.00"> &lt; sorted_runs_type,</text>
<text text-anchor="middle" x="1511.5" y="-331" font-family="Helvetica,sans-Serif" font-size="10.00"> CompareType, AllocStr &gt;</text>
</g>
</g>
</svg>
