<?xml version="1.0" encoding="UTF-8" standalone="no"?>
<!DOCTYPE svg PUBLIC "-//W3C//DTD SVG 1.1//EN"
 "http://www.w3.org/Graphics/SVG/1.1/DTD/svg11.dtd">
<!-- Generated by graphviz version 2.26.3 (20100126.1600)
 -->
<!-- Title: stxxl::stream::make_tuple&lt; Input1_, Input2_, Input3_, Input4_, Stopper, Stopper &gt; Pages: 1 -->
<svg width="622pt" height="146pt"
 viewBox="0.00 0.00 622.00 146.00" xmlns="http://www.w3.org/2000/svg" xmlns:xlink="http://www.w3.org/1999/xlink">
<g id="graph1" class="graph" transform="scale(1 1) rotate(0) translate(4 142)">
<title>stxxl::stream::make_tuple&lt; Input1_, Input2_, Input3_, Input4_, Stopper, Stopper &gt;</title>
<!-- Node1 -->
<g id="node1" class="node"><title>Node1</title>
<polygon fill="#bfbfbf" stroke="black" points="472.5,-37 472.5,-97 613.5,-97 613.5,-37 472.5,-37"/>
<text text-anchor="start" x="480.5" y="-84" font-family="Helvetica,sans-Serif" font-size="10.00">stxxl::stream::make</text>
<text text-anchor="start" x="480.5" y="-71" font-family="Helvetica,sans-Serif" font-size="10.00">_tuple&lt; Input1_, Input2</text>
<text text-anchor="start" x="480.5" y="-58" font-family="Helvetica,sans-Serif" font-size="10.00">_, Input3_, Input4_, Stopper,</text>
<text text-anchor="middle" x="543" y="-45" font-family="Helvetica,sans-Serif" font-size="10.00"> Stopper &gt;</text>
</g>
<!-- Node2 -->
<g id="node2" class="node"><title>Node2</title>
<a xlink:href="structstxxl_1_1tuple.html" target="_top" xlink:title="stxxl::tuple\&lt; typename\l Input1_::value_type,\l typename Input2_::value\l_type, typename Input3_::\lvalue_type, typename Input4\l_::value_type \&gt;">
<polygon fill="none" stroke="black" points="258.5,-24 258.5,-110 401.5,-110 401.5,-24 258.5,-24"/>
<text text-anchor="start" x="266.5" y="-97" font-family="Helvetica,sans-Serif" font-size="10.00">stxxl::tuple&lt; typename</text>
<text text-anchor="start" x="266.5" y="-84" font-family="Helvetica,sans-Serif" font-size="10.00"> Input1_::value_type,</text>
<text text-anchor="start" x="266.5" y="-71" font-family="Helvetica,sans-Serif" font-size="10.00"> typename Input2_::value</text>
<text text-anchor="start" x="266.5" y="-58" font-family="Helvetica,sans-Serif" font-size="10.00">_type, typename Input3_::</text>
<text text-anchor="start" x="266.5" y="-45" font-family="Helvetica,sans-Serif" font-size="10.00">value_type, typename Input4</text>
<text text-anchor="middle" x="330" y="-32" font-family="Helvetica,sans-Serif" font-size="10.00">_::value_type &gt;</text>
</a>
</g>
<!-- Node2&#45;&gt;Node1 -->
<g id="edge2" class="edge"><title>Node2&#45;&gt;Node1</title>
<path fill="none" stroke="#9a32cd" stroke-dasharray="5,2" d="M411.559,-67C431.609,-67 452.909,-67 472.394,-67"/>
<polygon fill="#9a32cd" stroke="#9a32cd" points="411.518,-63.5001 401.518,-67 411.518,-70.5001 411.518,-63.5001"/>
<text text-anchor="middle" x="437" y="-71" font-family="Helvetica,sans-Serif" font-size="10.00"> current</text>
</g>
<!-- Node3 -->
<g id="node4" class="node"><title>Node3</title>
<a xlink:href="structstxxl_1_1Plug.html" target="_top" xlink:title="stxxl::Plug">
<polygon fill="none" stroke="black" points="21.5,-107.5 21.5,-128.5 84.5,-128.5 84.5,-107.5 21.5,-107.5"/>
<text text-anchor="middle" x="53" y="-115.5" font-family="Helvetica,sans-Serif" font-size="10.00">stxxl::Plug</text>
</a>
</g>
<!-- Node3&#45;&gt;Node2 -->
<g id="edge4" class="edge"><title>Node3&#45;&gt;Node2</title>
<path fill="none" stroke="#9a32cd" stroke-dasharray="5,2" d="M94.9626,-115.408C133.117,-112.498 190.805,-106.713 240,-96 245.935,-94.7076 252.034,-93.183 258.127,-91.5203"/>
<polygon fill="#9a32cd" stroke="#9a32cd" points="94.4609,-111.935 84.7423,-116.154 94.9706,-118.917 94.4609,-111.935"/>
<text text-anchor="middle" x="182" y="-129" font-family="Helvetica,sans-Serif" font-size="10.00"> fifth</text>
<text text-anchor="middle" x="182" y="-116" font-family="Helvetica,sans-Serif" font-size="10.00">sixth</text>
</g>
<!-- Node4 -->
<g id="node6" class="node"><title>Node4</title>
<a xlink:href="structstxxl_1_1tuple.html" target="_top" xlink:title="k&#45;Tuple data type ">
<polygon fill="none" stroke="black" points="0.5,-0 0.5,-34 105.5,-34 105.5,-0 0.5,-0"/>
<text text-anchor="start" x="8.5" y="-21" font-family="Helvetica,sans-Serif" font-size="10.00">stxxl::tuple&lt; T1, T2,</text>
<text text-anchor="middle" x="53" y="-8" font-family="Helvetica,sans-Serif" font-size="10.00"> T3, T4, T5, T6 &gt;</text>
</a>
</g>
<!-- Node4&#45;&gt;Node2 -->
<g id="edge6" class="edge"><title>Node4&#45;&gt;Node2</title>
<path fill="none" stroke="orange" stroke-dasharray="5,2" d="M115.951,-9.75347C152.695,-7.38849 199.622,-7.60558 240,-18 246.116,-19.5745 252.267,-21.6546 258.325,-24.0698"/>
<polygon fill="orange" stroke="orange" points="115.593,-6.27014 105.872,-10.4827 116.098,-13.2519 115.593,-6.27014"/>
<text text-anchor="start" x="124.5" y="-87" font-family="Helvetica,sans-Serif" font-size="10.00"> &lt; typename Input1_</text>
<text text-anchor="start" x="124.5" y="-74" font-family="Helvetica,sans-Serif" font-size="10.00">::value_type, typename</text>
<text text-anchor="start" x="124.5" y="-61" font-family="Helvetica,sans-Serif" font-size="10.00"> Input2_::value_type,</text>
<text text-anchor="start" x="124.5" y="-48" font-family="Helvetica,sans-Serif" font-size="10.00"> typename Input3_::value</text>
<text text-anchor="start" x="124.5" y="-35" font-family="Helvetica,sans-Serif" font-size="10.00">_type, typename Input4_::</text>
<text text-anchor="middle" x="182" y="-22" font-family="Helvetica,sans-Serif" font-size="10.00">value_type &gt;</text>
</g>
</g>
</svg>
