<?xml version="1.0" encoding="UTF-8" standalone="no"?>
<!DOCTYPE svg PUBLIC "-//W3C//DTD SVG 1.1//EN"
 "http://www.w3.org/Graphics/SVG/1.1/DTD/svg11.dtd">
<!-- Generated by graphviz version 2.26.3 (20100126.1600)
 -->
<!-- Title: stxxl::buf_istream_reverse&lt; BlockType, BIDIteratorType &gt; Pages: 1 -->
<svg width="1306pt" height="431pt"
 viewBox="0.00 0.00 1306.00 431.26" xmlns="http://www.w3.org/2000/svg" xmlns:xlink="http://www.w3.org/1999/xlink">
<g id="graph1" class="graph" transform="scale(1 1) rotate(0) translate(4 427.256)">
<title>stxxl::buf_istream_reverse&lt; BlockType, BIDIteratorType &gt;</title>
<!-- Node1 -->
<g id="node1" class="node"><title>Node1</title>
<polygon fill="#bfbfbf" stroke="black" points="1184.5,-212.756 1184.5,-259.756 1297.5,-259.756 1297.5,-212.756 1184.5,-212.756"/>
<text text-anchor="start" x="1192.5" y="-246.756" font-family="Helvetica,sans-Serif" font-size="10.00">stxxl::buf_istream</text>
<text text-anchor="start" x="1192.5" y="-233.756" font-family="Helvetica,sans-Serif" font-size="10.00">_reverse&lt; BlockType,</text>
<text text-anchor="middle" x="1241" y="-220.756" font-family="Helvetica,sans-Serif" font-size="10.00"> BIDIteratorType &gt;</text>
</g>
<!-- Node2 -->
<g id="node2" class="node"><title>Node2</title>
<a xlink:href="classstxxl_1_1noncopyable.html" target="_top" xlink:title="stxxl::noncopyable">
<polygon fill="none" stroke="black" points="6,-119.756 6,-140.756 104,-140.756 104,-119.756 6,-119.756"/>
<text text-anchor="middle" x="55" y="-127.756" font-family="Helvetica,sans-Serif" font-size="10.00">stxxl::noncopyable</text>
</a>
</g>
<!-- Node2&#45;&gt;Node1 -->
<g id="edge2" class="edge"><title>Node2&#45;&gt;Node1</title>
<path fill="none" stroke="#8b1a1a" d="M61.7817,-150.465C72.1283,-178.667 94.2795,-229.985 128,-262.256 187.88,-319.562 212.116,-345.256 295,-345.256 295,-345.256 295,-345.256 1062,-345.256 1127.13,-345.256 1188.69,-291.965 1219.84,-259.907"/>
<polygon fill="#8b1a1a" stroke="#8b1a1a" points="65.0256,-149.14 58.3948,-140.877 58.4253,-151.471 65.0256,-149.14"/>
</g>
<!-- Node3 -->
<g id="node4" class="node"><title>Node3</title>
<a xlink:href="classstxxl_1_1block__prefetcher.html" target="_top" xlink:title="Encapsulates asynchronous prefetching engine. ">
<polygon fill="none" stroke="black" points="726.5,-123.756 726.5,-170.756 853.5,-170.756 853.5,-123.756 726.5,-123.756"/>
<text text-anchor="start" x="734.5" y="-157.756" font-family="Helvetica,sans-Serif" font-size="10.00">stxxl::block_prefetcher</text>
<text text-anchor="start" x="734.5" y="-144.756" font-family="Helvetica,sans-Serif" font-size="10.00">&lt; block_type, bid_iterator</text>
<text text-anchor="middle" x="790" y="-131.756" font-family="Helvetica,sans-Serif" font-size="10.00">_type &gt;</text>
</a>
</g>
<!-- Node2&#45;&gt;Node3 -->
<g id="edge6" class="edge"><title>Node2&#45;&gt;Node3</title>
<path fill="none" stroke="#8b1a1a" d="M114.329,-131.628C250.724,-134.783 585.648,-142.529 726.236,-145.781"/>
<polygon fill="#8b1a1a" stroke="#8b1a1a" points="114.159,-128.123 104.08,-131.391 113.997,-135.121 114.159,-128.123"/>
</g>
<!-- Node6 -->
<g id="node11" class="node"><title>Node6</title>
<a xlink:href="classstxxl_1_1onoff__switch.html" target="_top" xlink:title="stxxl::onoff_switch">
<polygon fill="none" stroke="black" points="510.5,-80.7557 510.5,-101.756 609.5,-101.756 609.5,-80.7557 510.5,-80.7557"/>
<text text-anchor="middle" x="560" y="-88.7557" font-family="Helvetica,sans-Serif" font-size="10.00">stxxl::onoff_switch</text>
</a>
</g>
<!-- Node2&#45;&gt;Node6 -->
<g id="edge14" class="edge"><title>Node2&#45;&gt;Node6</title>
<path fill="none" stroke="#8b1a1a" d="M86.7782,-115.697C121.911,-100.58 180.612,-78.1881 234,-71.2557 331.421,-58.6057 446.29,-72.2377 510.371,-82.3723"/>
<polygon fill="#8b1a1a" stroke="#8b1a1a" points="85.2765,-112.533 77.5181,-119.749 88.0826,-118.946 85.2765,-112.533"/>
</g>
<!-- Node7 -->
<g id="node14" class="node"><title>Node7</title>
<a xlink:href="classstxxl_1_1mutex.html" target="_top" xlink:title="stxxl::mutex">
<polygon fill="none" stroke="black" points="259.5,-2.75573 259.5,-23.7557 330.5,-23.7557 330.5,-2.75573 259.5,-2.75573"/>
<text text-anchor="middle" x="295" y="-10.7557" font-family="Helvetica,sans-Serif" font-size="10.00">stxxl::mutex</text>
</a>
</g>
<!-- Node2&#45;&gt;Node7 -->
<g id="edge18" class="edge"><title>Node2&#45;&gt;Node7</title>
<path fill="none" stroke="#8b1a1a" d="M64.7528,-110.616C76.5718,-89.056 98.612,-55.2512 128,-38.2557 168.605,-14.7735 223.688,-10.8784 259.29,-11.2593"/>
<polygon fill="#8b1a1a" stroke="#8b1a1a" points="61.6084,-109.076 60.0521,-119.555 67.804,-112.333 61.6084,-109.076"/>
</g>
<!-- Node8 -->
<g id="node17" class="node"><title>Node8</title>
<a xlink:href="classstxxl_1_1condition__variable.html" target="_top" xlink:title="stxxl::condition_variable">
<polygon fill="none" stroke="black" points="234,-80.7557 234,-101.756 356,-101.756 356,-80.7557 234,-80.7557"/>
<text text-anchor="middle" x="295" y="-88.7557" font-family="Helvetica,sans-Serif" font-size="10.00">stxxl::condition_variable</text>
</a>
</g>
<!-- Node2&#45;&gt;Node8 -->
<g id="edge22" class="edge"><title>Node2&#45;&gt;Node8</title>
<path fill="none" stroke="#8b1a1a" d="M114.22,-118.687C118.879,-117.842 123.514,-117.021 128,-116.256 162.967,-110.288 202.188,-104.377 233.829,-99.8014"/>
<polygon fill="#8b1a1a" stroke="#8b1a1a" points="113.233,-115.31 104.034,-120.567 114.503,-122.194 113.233,-115.31"/>
</g>
<!-- Node14 -->
<g id="node31" class="node"><title>Node14</title>
<a xlink:href="classstxxl_1_1simple__vector.html" target="_top" xlink:title="stxxl::simple_vector\l\&lt; BID\&lt; BLK_SIZE \&gt; \&gt;">
<polygon fill="none" stroke="black" points="502,-243.256 502,-277.256 618,-277.256 618,-243.256 502,-243.256"/>
<text text-anchor="start" x="510" y="-264.256" font-family="Helvetica,sans-Serif" font-size="10.00">stxxl::simple_vector</text>
<text text-anchor="middle" x="560" y="-251.256" font-family="Helvetica,sans-Serif" font-size="10.00">&lt; BID&lt; BLK_SIZE &gt; &gt;</text>
</a>
</g>
<!-- Node2&#45;&gt;Node14 -->
<g id="edge38" class="edge"><title>Node2&#45;&gt;Node14</title>
<path fill="none" stroke="#8b1a1a" d="M86.6758,-145.05C121.94,-160.99 180.964,-186.101 234,-201.256 325.942,-227.528 435.954,-244.559 501.79,-253.273"/>
<polygon fill="#8b1a1a" stroke="#8b1a1a" points="87.9351,-141.778 77.3842,-140.813 85.0309,-148.147 87.9351,-141.778"/>
</g>
<!-- Node15 -->
<g id="node34" class="node"><title>Node15</title>
<a xlink:href="classstxxl_1_1simple__vector.html" target="_top" xlink:title="Simpler non&#45;growing vector without initialization. ">
<polygon fill="none" stroke="black" points="243,-248.256 243,-282.256 347,-282.256 347,-248.256 243,-248.256"/>
<text text-anchor="start" x="251" y="-269.256" font-family="Helvetica,sans-Serif" font-size="10.00">stxxl::simple_vector</text>
<text text-anchor="middle" x="295" y="-256.256" font-family="Helvetica,sans-Serif" font-size="10.00">&lt; ValueType &gt;</text>
</a>
</g>
<!-- Node2&#45;&gt;Node15 -->
<g id="edge42" class="edge"><title>Node2&#45;&gt;Node15</title>
<path fill="none" stroke="#8b1a1a" d="M63.207,-150.083C74.227,-174.079 96.1728,-213.803 128,-234.256 162.111,-256.176 207.756,-263.492 242.705,-265.568"/>
<polygon fill="#8b1a1a" stroke="#8b1a1a" points="66.3833,-148.612 59.1561,-140.865 59.9747,-151.428 66.3833,-148.612"/>
</g>
<!-- Node3&#45;&gt;Node1 -->
<g id="edge4" class="edge"><title>Node3&#45;&gt;Node1</title>
<path fill="none" stroke="#9a32cd" stroke-dasharray="5,2" d="M863.847,-149.72C941.208,-154.245 1065.25,-167.052 1166,-203.256 1173.9,-206.094 1182.14,-209.377 1190.15,-212.748"/>
<polygon fill="#9a32cd" stroke="#9a32cd" points="863.894,-146.217 853.716,-149.159 863.507,-153.206 863.894,-146.217"/>
<text text-anchor="middle" x="1062" y="-191.256" font-family="Helvetica,sans-Serif" font-size="10.00"> prefetcher</text>
</g>
<!-- Node4 -->
<g id="node7" class="node"><title>Node4</title>
<a xlink:href="structstxxl_1_1choose__int__types.html" target="_top" xlink:title="stxxl::choose_int_types\l\&lt; my_pointer_size \&gt;">
<polygon fill="none" stroke="black" points="500,-158.256 500,-192.256 620,-192.256 620,-158.256 500,-158.256"/>
<text text-anchor="start" x="508" y="-179.256" font-family="Helvetica,sans-Serif" font-size="10.00">stxxl::choose_int_types</text>
<text text-anchor="middle" x="560" y="-166.256" font-family="Helvetica,sans-Serif" font-size="10.00">&lt; my_pointer_size &gt;</text>
</a>
</g>
<!-- Node4&#45;&gt;Node1 -->
<g id="edge32" class="edge"><title>Node4&#45;&gt;Node1</title>
<path fill="none" stroke="#9a32cd" stroke-dasharray="5,2" d="M612.354,-195.501C622.083,-198.582 632.254,-201.361 642,-203.256 744.747,-223.234 1055.41,-232.184 1184.16,-235.107"/>
<polygon fill="#9a32cd" stroke="#9a32cd" points="613.397,-192.159 602.804,-192.34 611.198,-198.805 613.397,-192.159"/>
<text text-anchor="middle" x="929" y="-232.256" font-family="Helvetica,sans-Serif" font-size="10.00"> current_elem</text>
</g>
<!-- Node4&#45;&gt;Node3 -->
<g id="edge8" class="edge"><title>Node4&#45;&gt;Node3</title>
<path fill="none" stroke="#9a32cd" stroke-dasharray="5,2" d="M630.646,-165.692C634.486,-165.199 638.29,-164.718 642,-164.256 669.59,-160.821 700.106,-157.273 726.226,-154.313"/>
<polygon fill="#9a32cd" stroke="#9a32cd" points="629.905,-162.259 620.438,-167.016 630.805,-169.201 629.905,-162.259"/>
<text text-anchor="middle" x="675" y="-194.256" font-family="Helvetica,sans-Serif" font-size="10.00"> seq_length</text>
<text text-anchor="middle" x="675" y="-181.256" font-family="Helvetica,sans-Serif" font-size="10.00">nextconsume</text>
<text text-anchor="middle" x="675" y="-168.256" font-family="Helvetica,sans-Serif" font-size="10.00">nextread</text>
</g>
<!-- Node5 -->
<g id="node9" class="node"><title>Node5</title>
<a xlink:href="structstxxl_1_1choose__int__types.html" target="_top" xlink:title="stxxl::choose_int_types\l\&lt; PtrSize \&gt;">
<polygon fill="none" stroke="black" points="235,-158.256 235,-192.256 355,-192.256 355,-158.256 235,-158.256"/>
<text text-anchor="start" x="243" y="-179.256" font-family="Helvetica,sans-Serif" font-size="10.00">stxxl::choose_int_types</text>
<text text-anchor="middle" x="295" y="-166.256" font-family="Helvetica,sans-Serif" font-size="10.00">&lt; PtrSize &gt;</text>
</a>
</g>
<!-- Node5&#45;&gt;Node4 -->
<g id="edge10" class="edge"><title>Node5&#45;&gt;Node4</title>
<path fill="none" stroke="orange" stroke-dasharray="5,2" d="M365.253,-175.256C407.104,-175.256 459.677,-175.256 499.647,-175.256"/>
<polygon fill="orange" stroke="orange" points="365.133,-171.756 355.133,-175.256 365.133,-178.756 365.133,-171.756"/>
<text text-anchor="middle" x="426" y="-179.256" font-family="Helvetica,sans-Serif" font-size="10.00"> &lt; my_pointer_size &gt;</text>
</g>
<!-- Node6&#45;&gt;Node3 -->
<g id="edge12" class="edge"><title>Node6&#45;&gt;Node3</title>
<path fill="none" stroke="#9a32cd" stroke-dasharray="5,2" d="M619.796,-90.5544C647.16,-91.6345 679.716,-94.9172 708,-103.256 723.807,-107.916 740.035,-115.847 753.84,-123.704"/>
<polygon fill="#9a32cd" stroke="#9a32cd" points="619.684,-87.0494 609.582,-90.2423 619.471,-94.0462 619.684,-87.0494"/>
<text text-anchor="middle" x="675" y="-107.256" font-family="Helvetica,sans-Serif" font-size="10.00"> completed</text>
</g>
<!-- Node7&#45;&gt;Node6 -->
<g id="edge16" class="edge"><title>Node7&#45;&gt;Node6</title>
<path fill="none" stroke="#9a32cd" stroke-dasharray="5,2" d="M340.81,-3.56998C380.872,2.17379 438.642,3.53981 478,-25.2557 495.718,-38.2189 479.942,-56.2855 496,-71.2557 500.172,-75.1453 505.092,-78.2786 510.32,-80.8027"/>
<polygon fill="#9a32cd" stroke="#9a32cd" points="340.107,-0.137457 330.775,-5.15245 341.198,-7.05202 340.107,-0.137457"/>
<text text-anchor="middle" x="426" y="-29.2557" font-family="Helvetica,sans-Serif" font-size="10.00"> m_mutex</text>
</g>
<!-- Node8&#45;&gt;Node6 -->
<g id="edge20" class="edge"><title>Node8&#45;&gt;Node6</title>
<path fill="none" stroke="#9a32cd" stroke-dasharray="5,2" d="M366.233,-91.2557C411.759,-91.2557 469.659,-91.2557 510.264,-91.2557"/>
<polygon fill="#9a32cd" stroke="#9a32cd" points="366.129,-87.7558 356.129,-91.2557 366.129,-94.7558 366.129,-87.7558"/>
<text text-anchor="middle" x="426" y="-95.2557" font-family="Helvetica,sans-Serif" font-size="10.00"> m_cond</text>
</g>
<!-- Node9 -->
<g id="node20" class="node"><title>Node9</title>
<a xlink:href="classstxxl_1_1counting__ptr.html" target="_top" xlink:title="High&#45;performance smart pointer used as a wrapping reference counting pointer. ">
<polygon fill="none" stroke="black" points="511.5,-28.2557 511.5,-62.2557 608.5,-62.2557 608.5,-28.2557 511.5,-28.2557"/>
<text text-anchor="start" x="519.5" y="-49.2557" font-family="Helvetica,sans-Serif" font-size="10.00">stxxl::counting_ptr</text>
<text text-anchor="middle" x="560" y="-36.2557" font-family="Helvetica,sans-Serif" font-size="10.00">&lt; Type &gt;</text>
</a>
</g>
<!-- Node9&#45;&gt;Node3 -->
<g id="edge24" class="edge"><title>Node9&#45;&gt;Node3</title>
<path fill="none" stroke="#9a32cd" stroke-dasharray="5,2" d="M618.806,-50.0756C646.923,-54.122 680.386,-61.5651 708,-75.2557 731.763,-87.0371 754.059,-107.466 769.386,-123.56"/>
<polygon fill="#9a32cd" stroke="#9a32cd" points="619.083,-46.5818 608.709,-48.7332 618.161,-53.5207 619.083,-46.5818"/>
<text text-anchor="middle" x="675" y="-79.2557" font-family="Helvetica,sans-Serif" font-size="10.00"> read_reqs</text>
</g>
<!-- Node10 -->
<g id="node22" class="node"><title>Node10</title>
<a xlink:href="classstxxl_1_1completion__handler.html" target="_top" xlink:title="Completion handler class (Loki&#45;style). ">
<polygon fill="none" stroke="black" points="496,-376.756 496,-397.756 624,-397.756 624,-376.756 496,-376.756"/>
<text text-anchor="middle" x="560" y="-384.756" font-family="Helvetica,sans-Serif" font-size="10.00">stxxl::completion_handler</text>
</a>
</g>
<!-- Node10&#45;&gt;Node3 -->
<g id="edge26" class="edge"><title>Node10&#45;&gt;Node3</title>
<path fill="none" stroke="#9a32cd" stroke-dasharray="5,2" d="M577.302,-369.202C618.304,-326.417 721.377,-218.862 767.306,-170.937"/>
<polygon fill="#9a32cd" stroke="#9a32cd" points="574.572,-366.992 570.18,-376.634 579.626,-371.835 574.572,-366.992"/>
<text text-anchor="middle" x="675" y="-299.256" font-family="Helvetica,sans-Serif" font-size="10.00"> do_after_fetch</text>
</g>
<!-- Node11 -->
<g id="node24" class="node"><title>Node11</title>
<a xlink:href="structstxxl_1_1compat__unique__ptr.html" target="_top" xlink:title="stxxl::compat_unique\l_ptr\&lt; stxxl::completion\l_handler_impl \&gt;">
<polygon fill="none" stroke="black" points="237,-373.756 237,-420.756 353,-420.756 353,-373.756 237,-373.756"/>
<text text-anchor="start" x="245" y="-407.756" font-family="Helvetica,sans-Serif" font-size="10.00">stxxl::compat_unique</text>
<text text-anchor="start" x="245" y="-394.756" font-family="Helvetica,sans-Serif" font-size="10.00">_ptr&lt; stxxl::completion</text>
<text text-anchor="middle" x="295" y="-381.756" font-family="Helvetica,sans-Serif" font-size="10.00">_handler_impl &gt;</text>
</a>
</g>
<!-- Node11&#45;&gt;Node10 -->
<g id="edge28" class="edge"><title>Node11&#45;&gt;Node10</title>
<path fill="none" stroke="#9a32cd" stroke-dasharray="5,2" d="M363.306,-394.678C404.194,-393.135 455.839,-391.186 495.947,-389.673"/>
<polygon fill="#9a32cd" stroke="#9a32cd" points="363.016,-391.186 353.155,-395.061 363.28,-398.182 363.016,-391.186"/>
<text text-anchor="middle" x="426" y="-397.256" font-family="Helvetica,sans-Serif" font-size="10.00"> sp_impl_</text>
</g>
<!-- Node12 -->
<g id="node26" class="node"><title>Node12</title>
<a xlink:href="structstxxl_1_1compat__unique__ptr.html" target="_top" xlink:title="stxxl::compat_unique\l_ptr\&lt; Type \&gt;">
<polygon fill="none" stroke="black" points="0,-380.256 0,-414.256 110,-414.256 110,-380.256 0,-380.256"/>
<text text-anchor="start" x="8" y="-401.256" font-family="Helvetica,sans-Serif" font-size="10.00">stxxl::compat_unique</text>
<text text-anchor="middle" x="55" y="-388.256" font-family="Helvetica,sans-Serif" font-size="10.00">_ptr&lt; Type &gt;</text>
</a>
</g>
<!-- Node12&#45;&gt;Node11 -->
<g id="edge30" class="edge"><title>Node12&#45;&gt;Node11</title>
<path fill="none" stroke="orange" stroke-dasharray="5,2" d="M120.096,-397.256C156.538,-397.256 201.593,-397.256 236.848,-397.256"/>
<polygon fill="orange" stroke="orange" points="120.061,-393.756 110.061,-397.256 120.061,-400.756 120.061,-393.756"/>
<text text-anchor="start" x="128.5" y="-414.256" font-family="Helvetica,sans-Serif" font-size="10.00"> &lt; stxxl::completion</text>
<text text-anchor="middle" x="172" y="-401.256" font-family="Helvetica,sans-Serif" font-size="10.00">_handler_impl &gt;</text>
</g>
<!-- Node13 -->
<g id="node29" class="node"><title>Node13</title>
<a xlink:href="classstxxl_1_1BIDArray.html" target="_top" xlink:title="stxxl::BIDArray\&lt; block\l_type::raw_size \&gt;">
<polygon fill="none" stroke="black" points="1004,-245.256 1004,-279.256 1120,-279.256 1120,-245.256 1004,-245.256"/>
<text text-anchor="start" x="1012" y="-266.256" font-family="Helvetica,sans-Serif" font-size="10.00">stxxl::BIDArray&lt; block</text>
<text text-anchor="middle" x="1062" y="-253.256" font-family="Helvetica,sans-Serif" font-size="10.00">_type::raw_size &gt;</text>
</a>
</g>
<!-- Node13&#45;&gt;Node1 -->
<g id="edge34" class="edge"><title>Node13&#45;&gt;Node1</title>
<path fill="none" stroke="#9a32cd" stroke-dasharray="5,2" d="M1130.45,-252.314C1148.27,-249.725 1167.27,-246.966 1184.4,-244.478"/>
<polygon fill="#9a32cd" stroke="#9a32cd" points="1129.51,-248.913 1120.12,-253.814 1130.52,-255.84 1129.51,-248.913"/>
<text text-anchor="middle" x="1152" y="-254.256" font-family="Helvetica,sans-Serif" font-size="10.00"> bids_</text>
</g>
<!-- Node14&#45;&gt;Node13 -->
<g id="edge36" class="edge"><title>Node14&#45;&gt;Node13</title>
<path fill="none" stroke="midnightblue" d="M628.302,-260.528C727.641,-260.924 910.285,-261.651 1003.67,-262.023"/>
<polygon fill="midnightblue" stroke="midnightblue" points="628.09,-257.027 618.076,-260.487 628.062,-264.027 628.09,-257.027"/>
</g>
<!-- Node16 -->
<g id="node37" class="node"><title>Node16</title>
<a xlink:href="classstxxl_1_1BIDArray.html" target="_top" xlink:title="stxxl::BIDArray\&lt; BLK\l_SIZE \&gt;">
<polygon fill="none" stroke="black" points="734,-283.256 734,-317.256 846,-317.256 846,-283.256 734,-283.256"/>
<text text-anchor="start" x="742" y="-304.256" font-family="Helvetica,sans-Serif" font-size="10.00">stxxl::BIDArray&lt; BLK</text>
<text text-anchor="middle" x="790" y="-291.256" font-family="Helvetica,sans-Serif" font-size="10.00">_SIZE &gt;</text>
</a>
</g>
<!-- Node14&#45;&gt;Node16 -->
<g id="edge46" class="edge"><title>Node14&#45;&gt;Node16</title>
<path fill="none" stroke="midnightblue" d="M628.272,-272.129C661.964,-277.989 702.104,-284.969 733.965,-290.511"/>
<polygon fill="midnightblue" stroke="midnightblue" points="628.491,-268.615 618.039,-270.349 627.291,-275.511 628.491,-268.615"/>
</g>
<!-- Node15&#45;&gt;Node14 -->
<g id="edge40" class="edge"><title>Node15&#45;&gt;Node14</title>
<path fill="none" stroke="orange" stroke-dasharray="5,2" d="M357.246,-264.081C400.896,-263.258 458.857,-262.164 501.626,-261.357"/>
<polygon fill="orange" stroke="orange" points="356.971,-260.586 347.039,-264.274 357.104,-267.584 356.971,-260.586"/>
<text text-anchor="middle" x="426" y="-267.256" font-family="Helvetica,sans-Serif" font-size="10.00"> &lt; BID&lt; BLK_SIZE &gt; &gt;</text>
</g>
<!-- Node16&#45;&gt;Node13 -->
<g id="edge44" class="edge"><title>Node16&#45;&gt;Node13</title>
<path fill="none" stroke="orange" stroke-dasharray="5,2" d="M856.007,-291.034C901.11,-284.733 960.332,-276.459 1003.7,-270.401"/>
<polygon fill="orange" stroke="orange" points="855.448,-287.578 846.029,-292.428 856.417,-294.511 855.448,-287.578"/>
<text text-anchor="middle" x="929" y="-291.256" font-family="Helvetica,sans-Serif" font-size="10.00"> &lt; block_type::raw_size &gt;</text>
</g>
</g>
</svg>
