<?xml version="1.0" encoding="UTF-8" standalone="no"?>
<!DOCTYPE svg PUBLIC "-//W3C//DTD SVG 1.1//EN"
 "http://www.w3.org/Graphics/SVG/1.1/DTD/svg11.dtd">
<!-- Generated by graphviz version 2.26.3 (20100126.1600)
 -->
<!-- Title: stxxl::request_queue_impl_1q Pages: 1 -->
<svg width="1002pt" height="274pt"
 viewBox="0.00 0.00 1002.00 274.39" xmlns="http://www.w3.org/2000/svg" xmlns:xlink="http://www.w3.org/1999/xlink">
<g id="graph1" class="graph" transform="scale(1 1) rotate(0) translate(4 270.389)">
<title>stxxl::request_queue_impl_1q</title>
<!-- Node1 -->
<g id="node1" class="node"><title>Node1</title>
<polygon fill="#bfbfbf" stroke="black" points="886.5,-164.786 886.5,-198.786 993.5,-198.786 993.5,-164.786 886.5,-164.786"/>
<text text-anchor="start" x="894.5" y="-185.786" font-family="Helvetica,sans-Serif" font-size="10.00">stxxl::request_queue</text>
<text text-anchor="middle" x="940" y="-172.786" font-family="Helvetica,sans-Serif" font-size="10.00">_impl_1q</text>
</g>
<!-- Node2 -->
<g id="node2" class="node"><title>Node2</title>
<a xlink:href="classstxxl_1_1request__queue__impl__worker.html" target="_top" xlink:title="Implementation of request queue worker threads. Worker threads can be started by start_thread and sto...">
<polygon fill="none" stroke="black" points="550.5,-228.786 550.5,-262.786 657.5,-262.786 657.5,-228.786 550.5,-228.786"/>
<text text-anchor="start" x="558.5" y="-249.786" font-family="Helvetica,sans-Serif" font-size="10.00">stxxl::request_queue</text>
<text text-anchor="middle" x="604" y="-236.786" font-family="Helvetica,sans-Serif" font-size="10.00">_impl_worker</text>
</a>
</g>
<!-- Node2&#45;&gt;Node1 -->
<g id="edge2" class="edge"><title>Node2&#45;&gt;Node1</title>
<path fill="none" stroke="midnightblue" d="M667.786,-244.864C722.002,-242.65 801.41,-236.002 868,-216.786 882.689,-212.547 898.048,-205.489 910.789,-198.817"/>
<polygon fill="midnightblue" stroke="midnightblue" points="667.492,-241.373 657.628,-245.239 667.75,-248.368 667.492,-241.373"/>
</g>
<!-- Node3 -->
<g id="node4" class="node"><title>Node3</title>
<a xlink:href="classstxxl_1_1request__queue.html" target="_top" xlink:title="Interface of a request_queue to which requests can be added and canceled. ">
<polygon fill="none" stroke="black" points="276.5,-244.286 276.5,-265.286 383.5,-265.286 383.5,-244.286 276.5,-244.286"/>
<text text-anchor="middle" x="330" y="-252.286" font-family="Helvetica,sans-Serif" font-size="10.00">stxxl::request_queue</text>
</a>
</g>
<!-- Node3&#45;&gt;Node2 -->
<g id="edge4" class="edge"><title>Node3&#45;&gt;Node2</title>
<path fill="none" stroke="midnightblue" d="M393.978,-252.684C441.463,-251.124 505.485,-249.022 550.316,-247.549"/>
<polygon fill="midnightblue" stroke="midnightblue" points="393.686,-249.192 383.807,-253.018 393.916,-256.188 393.686,-249.192"/>
</g>
<!-- Node4 -->
<g id="node6" class="node"><title>Node4</title>
<a xlink:href="classstxxl_1_1noncopyable.html" target="_top" xlink:title="stxxl::noncopyable">
<polygon fill="none" stroke="black" points="0,-94.2857 0,-115.286 98,-115.286 98,-94.2857 0,-94.2857"/>
<text text-anchor="middle" x="49" y="-102.286" font-family="Helvetica,sans-Serif" font-size="10.00">stxxl::noncopyable</text>
</a>
</g>
<!-- Node4&#45;&gt;Node3 -->
<g id="edge6" class="edge"><title>Node4&#45;&gt;Node3</title>
<path fill="none" stroke="#8b1a1a" d="M52.8678,-125.105C59.7646,-155.159 77.2661,-210.71 116,-236.786 163.166,-268.538 230.079,-268.848 276.474,-263.908"/>
<polygon fill="#8b1a1a" stroke="#8b1a1a" points="56.2845,-124.345 50.7869,-115.288 49.4366,-125.796 56.2845,-124.345"/>
</g>
<!-- Node5 -->
<g id="node8" class="node"><title>Node5</title>
<a xlink:href="classstxxl_1_1mutex.html" target="_top" xlink:title="stxxl::mutex">
<polygon fill="none" stroke="black" points="161.5,-126.286 161.5,-147.286 232.5,-147.286 232.5,-126.286 161.5,-126.286"/>
<text text-anchor="middle" x="197" y="-134.286" font-family="Helvetica,sans-Serif" font-size="10.00">stxxl::mutex</text>
</a>
</g>
<!-- Node4&#45;&gt;Node5 -->
<g id="edge10" class="edge"><title>Node4&#45;&gt;Node5</title>
<path fill="none" stroke="#8b1a1a" d="M107.769,-117.493C125.874,-121.407 145.25,-125.596 161.305,-129.068"/>
<polygon fill="#8b1a1a" stroke="#8b1a1a" points="108.385,-114.045 97.8709,-115.352 106.905,-120.887 108.385,-114.045"/>
</g>
<!-- Node6 -->
<g id="node11" class="node"><title>Node6</title>
<a xlink:href="classstxxl_1_1state.html" target="_top" xlink:title="stxxl::state\&lt; thread\l_state \&gt;">
<polygon fill="none" stroke="black" points="676.5,-28.7857 676.5,-62.7857 777.5,-62.7857 777.5,-28.7857 676.5,-28.7857"/>
<text text-anchor="start" x="684.5" y="-49.7857" font-family="Helvetica,sans-Serif" font-size="10.00">stxxl::state&lt; thread</text>
<text text-anchor="middle" x="727" y="-36.7857" font-family="Helvetica,sans-Serif" font-size="10.00">_state &gt;</text>
</a>
</g>
<!-- Node4&#45;&gt;Node6 -->
<g id="edge14" class="edge"><title>Node4&#45;&gt;Node6</title>
<path fill="none" stroke="#8b1a1a" d="M58.9419,-84.9537C72.5162,-60.3739 99.4081,-19.6694 136,-2.7857 144.272,1.03092 331.274,0.723847 532,-4.7857 588.042,-6.32395 603.799,3.54614 658,-10.7857 672.544,-14.6315 687.569,-21.8114 699.871,-28.672"/>
<polygon fill="#8b1a1a" stroke="#8b1a1a" points="55.6898,-83.6158 54.099,-94.0906 61.8747,-86.8941 55.6898,-83.6158"/>
</g>
<!-- Node7 -->
<g id="node15" class="node"><title>Node7</title>
<a xlink:href="classstxxl_1_1condition__variable.html" target="_top" xlink:title="stxxl::condition_variable">
<polygon fill="none" stroke="black" points="136,-35.2857 136,-56.2857 258,-56.2857 258,-35.2857 136,-35.2857"/>
<text text-anchor="middle" x="197" y="-43.2857" font-family="Helvetica,sans-Serif" font-size="10.00">stxxl::condition_variable</text>
</a>
</g>
<!-- Node4&#45;&gt;Node7 -->
<g id="edge20" class="edge"><title>Node4&#45;&gt;Node7</title>
<path fill="none" stroke="#8b1a1a" d="M85.0705,-90.4063C111.376,-79.9196 146.446,-65.9392 170.271,-56.4413"/>
<polygon fill="#8b1a1a" stroke="#8b1a1a" points="83.4524,-87.2834 75.4594,-94.2377 86.0446,-93.7857 83.4524,-87.2834"/>
</g>
<!-- Node8 -->
<g id="node18" class="node"><title>Node8</title>
<a xlink:href="classstxxl_1_1state.html" target="_top" xlink:title="stxxl::state\&lt; ValueType \&gt;">
<polygon fill="none" stroke="black" points="402,-35.2857 402,-56.2857 532,-56.2857 532,-35.2857 402,-35.2857"/>
<text text-anchor="middle" x="467" y="-43.2857" font-family="Helvetica,sans-Serif" font-size="10.00">stxxl::state&lt; ValueType &gt;</text>
</a>
</g>
<!-- Node4&#45;&gt;Node8 -->
<g id="edge24" class="edge"><title>Node4&#45;&gt;Node8</title>
<path fill="none" stroke="#8b1a1a" d="M62.5678,-86.1458C77.8951,-66.8369 104.808,-37.8346 136,-25.7857 238.848,13.9423 274.38,-19.9734 384,-31.7857 392.427,-32.6938 401.296,-33.909 409.974,-35.2456"/>
<polygon fill="#8b1a1a" stroke="#8b1a1a" points="59.6702,-84.1728 56.367,-94.2396 65.2269,-88.4299 59.6702,-84.1728"/>
</g>
<!-- Node9 -->
<g id="node23" class="node"><title>Node9</title>
<a xlink:href="classstxxl_1_1semaphore.html" target="_top" xlink:title="stxxl::semaphore">
<polygon fill="none" stroke="black" points="421,-153.286 421,-174.286 513,-174.286 513,-153.286 421,-153.286"/>
<text text-anchor="middle" x="467" y="-161.286" font-family="Helvetica,sans-Serif" font-size="10.00">stxxl::semaphore</text>
</a>
</g>
<!-- Node4&#45;&gt;Node9 -->
<g id="edge32" class="edge"><title>Node4&#45;&gt;Node9</title>
<path fill="none" stroke="#8b1a1a" d="M71.1168,-121.575C87.9749,-133.453 112.261,-148.66 136,-156.786 232.934,-189.964 355.355,-180.333 420.774,-171.422"/>
<polygon fill="#8b1a1a" stroke="#8b1a1a" points="72.7185,-118.413 62.566,-115.384 68.6135,-124.083 72.7185,-118.413"/>
</g>
<!-- Node5&#45;&gt;Node1 -->
<g id="edge8" class="edge"><title>Node5&#45;&gt;Node1</title>
<path fill="none" stroke="#9a32cd" stroke-dasharray="5,2" d="M223.918,-152.347C238.783,-160.171 257.864,-168.988 276,-173.786 330.308,-188.152 345.891,-181.05 402,-183.786 608.877,-193.873 661.12,-198.819 868,-188.786 873.896,-188.5 880.054,-188.083 886.178,-187.593"/>
<polygon fill="#9a32cd" stroke="#9a32cd" points="225.268,-149.098 214.81,-147.401 221.928,-155.249 225.268,-149.098"/>
<text text-anchor="middle" x="604" y="-197.786" font-family="Helvetica,sans-Serif" font-size="10.00"> m_queue_mutex</text>
</g>
<!-- Node5&#45;&gt;Node6 -->
<g id="edge16" class="edge"><title>Node5&#45;&gt;Node6</title>
<path fill="none" stroke="#9a32cd" stroke-dasharray="5,2" d="M242.897,-135.153C280.874,-133.371 336.151,-129.78 384,-122.786 507.352,-104.754 536.579,-91.0326 658,-62.7857 663.888,-61.4159 670.05,-59.9477 676.165,-58.4689"/>
<polygon fill="#9a32cd" stroke="#9a32cd" points="242.499,-131.668 232.665,-135.61 242.811,-138.661 242.499,-131.668"/>
<text text-anchor="middle" x="467" y="-123.786" font-family="Helvetica,sans-Serif" font-size="10.00"> m_mutex</text>
</g>
<!-- Node5&#45;&gt;Node8 -->
<g id="edge26" class="edge"><title>Node5&#45;&gt;Node8</title>
<path fill="none" stroke="#9a32cd" stroke-dasharray="5,2" d="M213.945,-118.769C228.83,-104.138 251.83,-84.2726 276,-73.7857 298.059,-64.2143 355.403,-56.5754 401.542,-51.7099"/>
<polygon fill="#9a32cd" stroke="#9a32cd" points="211.083,-116.687 206.555,-126.265 216.068,-121.601 211.083,-116.687"/>
<text text-anchor="middle" x="330" y="-77.7857" font-family="Helvetica,sans-Serif" font-size="10.00"> m_mutex</text>
</g>
<!-- Node5&#45;&gt;Node9 -->
<g id="edge34" class="edge"><title>Node5&#45;&gt;Node9</title>
<path fill="none" stroke="#9a32cd" stroke-dasharray="5,2" d="M242.875,-143.607C253.722,-145.099 265.258,-146.589 276,-147.786 325.276,-153.276 381.895,-157.795 420.616,-160.614"/>
<polygon fill="#9a32cd" stroke="#9a32cd" points="243.124,-140.107 232.735,-142.184 242.152,-147.039 243.124,-140.107"/>
<text text-anchor="middle" x="330" y="-160.786" font-family="Helvetica,sans-Serif" font-size="10.00"> m_mutex</text>
</g>
<!-- Node6&#45;&gt;Node1 -->
<g id="edge12" class="edge"><title>Node6&#45;&gt;Node1</title>
<path fill="none" stroke="#9a32cd" stroke-dasharray="5,2" d="M763.186,-68.4147C791.726,-86.3129 832.5,-111.997 868,-134.786 883.326,-144.624 900.396,-155.759 914.068,-164.721"/>
<polygon fill="#9a32cd" stroke="#9a32cd" points="764.704,-65.2355 754.372,-62.8906 760.987,-71.1669 764.704,-65.2355"/>
<text text-anchor="middle" x="832" y="-138.786" font-family="Helvetica,sans-Serif" font-size="10.00"> m_thread_state</text>
</g>
<!-- Node7&#45;&gt;Node6 -->
<g id="edge18" class="edge"><title>Node7&#45;&gt;Node6</title>
<path fill="none" stroke="#9a32cd" stroke-dasharray="5,2" d="M265.6,-33.5186C269.115,-32.9244 272.598,-32.3435 276,-31.7857 388.587,-13.324 418.31,-3.23367 532,-12.7857 581.441,-16.9396 637.196,-26.9182 676.385,-34.8225"/>
<polygon fill="#9a32cd" stroke="#9a32cd" points="264.91,-30.0856 255.643,-35.2203 266.089,-36.9855 264.91,-30.0856"/>
<text text-anchor="middle" x="467" y="-16.7857" font-family="Helvetica,sans-Serif" font-size="10.00"> m_cond</text>
</g>
<!-- Node7&#45;&gt;Node8 -->
<g id="edge28" class="edge"><title>Node7&#45;&gt;Node8</title>
<path fill="none" stroke="#9a32cd" stroke-dasharray="5,2" d="M268.298,-38.2337C270.896,-38.0641 273.47,-37.9135 276,-37.7857 323.939,-35.3646 336.055,-35.4805 384,-37.7857 389.784,-38.0638 395.787,-38.4503 401.799,-38.9045"/>
<polygon fill="#9a32cd" stroke="#9a32cd" points="267.914,-34.7524 258.196,-38.9733 268.425,-41.7337 267.914,-34.7524"/>
<text text-anchor="middle" x="330" y="-41.7857" font-family="Helvetica,sans-Serif" font-size="10.00"> m_cond</text>
</g>
<!-- Node7&#45;&gt;Node9 -->
<g id="edge36" class="edge"><title>Node7&#45;&gt;Node9</title>
<path fill="none" stroke="#9a32cd" stroke-dasharray="5,2" d="M225.427,-61.3435C240.325,-69.291 258.97,-78.9174 276,-86.7857 323.052,-108.524 336.312,-110.48 384,-130.786 392.055,-134.215 393.912,-135.435 402,-138.786 413.952,-143.736 427.268,-148.916 438.72,-153.268"/>
<polygon fill="#9a32cd" stroke="#9a32cd" points="226.698,-58.0528 216.233,-56.3987 223.382,-64.2178 226.698,-58.0528"/>
<text text-anchor="middle" x="330" y="-134.786" font-family="Helvetica,sans-Serif" font-size="10.00"> m_cond</text>
</g>
<!-- Node8&#45;&gt;Node6 -->
<g id="edge22" class="edge"><title>Node8&#45;&gt;Node6</title>
<path fill="none" stroke="orange" stroke-dasharray="5,2" d="M542.434,-45.7857C585.518,-45.7857 638.371,-45.7857 676.46,-45.7857"/>
<polygon fill="orange" stroke="orange" points="542.273,-42.2858 532.273,-45.7857 542.273,-49.2858 542.273,-42.2858"/>
<text text-anchor="middle" x="604" y="-49.7857" font-family="Helvetica,sans-Serif" font-size="10.00"> &lt; thread_state &gt;</text>
</g>
<!-- Node9&#45;&gt;Node1 -->
<g id="edge30" class="edge"><title>Node9&#45;&gt;Node1</title>
<path fill="none" stroke="#9a32cd" stroke-dasharray="5,2" d="M523.44,-165.934C615.396,-169.433 796.314,-176.318 886.401,-179.746"/>
<polygon fill="#9a32cd" stroke="#9a32cd" points="523.34,-162.427 513.214,-165.544 523.074,-169.422 523.34,-162.427"/>
<text text-anchor="middle" x="727" y="-178.786" font-family="Helvetica,sans-Serif" font-size="10.00"> m_sem</text>
</g>
</g>
</svg>
