<?xml version="1.0" encoding="UTF-8" standalone="no"?>
<!DOCTYPE svg PUBLIC "-//W3C//DTD SVG 1.1//EN"
 "http://www.w3.org/Graphics/SVG/1.1/DTD/svg11.dtd">
<!-- Generated by graphviz version 2.26.3 (20100126.1600)
 -->
<!-- Title: stxxl::request Pages: 1 -->
<svg width="256pt" height="362pt"
 viewBox="0.00 0.00 256.00 362.00" xmlns="http://www.w3.org/2000/svg" xmlns:xlink="http://www.w3.org/1999/xlink">
<g id="graph1" class="graph" transform="scale(1 1) rotate(0) translate(4 358)">
<title>stxxl::request</title>
<!-- Node1 -->
<g id="node1" class="node"><title>Node1</title>
<polygon fill="#bfbfbf" stroke="black" points="87,-202.5 87,-223.5 163,-223.5 163,-202.5 87,-202.5"/>
<text text-anchor="middle" x="125" y="-210.5" font-family="Helvetica,sans-Serif" font-size="10.00">stxxl::request</text>
</g>
<!-- Node5 -->
<g id="node9" class="node"><title>Node5</title>
<a xlink:href="classstxxl_1_1request__with__waiters.html" target="_top" xlink:title="Request that is aware of threads waiting for it to complete. ">
<polygon fill="none" stroke="black" points="75.5,-131 75.5,-165 174.5,-165 174.5,-131 75.5,-131"/>
<text text-anchor="start" x="83.5" y="-152" font-family="Helvetica,sans-Serif" font-size="10.00">stxxl::request_with</text>
<text text-anchor="middle" x="125" y="-139" font-family="Helvetica,sans-Serif" font-size="10.00">_waiters</text>
</a>
</g>
<!-- Node1&#45;&gt;Node5 -->
<g id="edge8" class="edge"><title>Node1&#45;&gt;Node5</title>
<path fill="none" stroke="midnightblue" d="M125,-192.131C125,-183.405 125,-173.391 125,-165.11"/>
<polygon fill="midnightblue" stroke="midnightblue" points="121.5,-192.267 125,-202.267 128.5,-192.267 121.5,-192.267"/>
</g>
<!-- Node2 -->
<g id="node2" class="node"><title>Node2</title>
<a xlink:href="classstxxl_1_1request__interface.html" target="_top" xlink:title="Functional interface of a request. ">
<polygon fill="none" stroke="black" points="-0.5,-267.5 -0.5,-288.5 118.5,-288.5 118.5,-267.5 -0.5,-267.5"/>
<text text-anchor="middle" x="59" y="-275.5" font-family="Helvetica,sans-Serif" font-size="10.00">stxxl::request_interface</text>
</a>
</g>
<!-- Node2&#45;&gt;Node1 -->
<g id="edge2" class="edge"><title>Node2&#45;&gt;Node1</title>
<path fill="none" stroke="midnightblue" d="M77.1762,-260.099C89.0994,-248.357 104.282,-233.404 114.304,-223.534"/>
<polygon fill="midnightblue" stroke="midnightblue" points="74.5675,-257.756 69.8986,-267.267 79.4793,-262.743 74.5675,-257.756"/>
</g>
<!-- Node3 -->
<g id="node4" class="node"><title>Node3</title>
<a xlink:href="classstxxl_1_1noncopyable.html" target="_top" xlink:title="stxxl::noncopyable">
<polygon fill="none" stroke="black" points="10,-332.5 10,-353.5 108,-353.5 108,-332.5 10,-332.5"/>
<text text-anchor="middle" x="59" y="-340.5" font-family="Helvetica,sans-Serif" font-size="10.00">stxxl::noncopyable</text>
</a>
</g>
<!-- Node3&#45;&gt;Node2 -->
<g id="edge4" class="edge"><title>Node3&#45;&gt;Node2</title>
<path fill="none" stroke="#8b1a1a" d="M59,-322.014C59,-310.831 59,-297.558 59,-288.534"/>
<polygon fill="#8b1a1a" stroke="#8b1a1a" points="55.5001,-322.267 59,-332.267 62.5001,-322.267 55.5001,-322.267"/>
</g>
<!-- Node4 -->
<g id="node6" class="node"><title>Node4</title>
<a xlink:href="classstxxl_1_1atomic__counted__object.html" target="_top" xlink:title="Provides reference counting abilities for use with counting_ptr with mutex locking. ">
<polygon fill="none" stroke="black" points="135.5,-261 135.5,-295 248.5,-295 248.5,-261 135.5,-261"/>
<text text-anchor="start" x="143.5" y="-282" font-family="Helvetica,sans-Serif" font-size="10.00">stxxl::atomic_counted</text>
<text text-anchor="middle" x="192" y="-269" font-family="Helvetica,sans-Serif" font-size="10.00">_object</text>
</a>
</g>
<!-- Node4&#45;&gt;Node1 -->
<g id="edge6" class="edge"><title>Node4&#45;&gt;Node1</title>
<path fill="none" stroke="midnightblue" d="M166.963,-253.71C156.37,-243.433 144.569,-231.984 136.186,-223.852"/>
<polygon fill="midnightblue" stroke="midnightblue" points="164.782,-256.471 174.397,-260.922 169.656,-251.447 164.782,-256.471"/>
</g>
<!-- Node6 -->
<g id="node11" class="node"><title>Node6</title>
<a xlink:href="classstxxl_1_1request__with__state.html" target="_top" xlink:title="Request with completion state. ">
<polygon fill="none" stroke="black" points="75.5,-59 75.5,-93 174.5,-93 174.5,-59 75.5,-59"/>
<text text-anchor="start" x="83.5" y="-80" font-family="Helvetica,sans-Serif" font-size="10.00">stxxl::request_with</text>
<text text-anchor="middle" x="125" y="-67" font-family="Helvetica,sans-Serif" font-size="10.00">_state</text>
</a>
</g>
<!-- Node5&#45;&gt;Node6 -->
<g id="edge10" class="edge"><title>Node5&#45;&gt;Node6</title>
<path fill="none" stroke="midnightblue" d="M125,-120.719C125,-111.572 125,-101.625 125,-93.4407"/>
<polygon fill="midnightblue" stroke="midnightblue" points="121.5,-120.937 125,-130.937 128.5,-120.937 121.5,-120.937"/>
</g>
<!-- Node7 -->
<g id="node13" class="node"><title>Node7</title>
<a xlink:href="classstxxl_1_1linuxaio__request.html" target="_top" xlink:title="Request for an linuxaio_file. ">
<polygon fill="none" stroke="black" points="3,-0.5 3,-21.5 117,-21.5 117,-0.5 3,-0.5"/>
<text text-anchor="middle" x="60" y="-8.5" font-family="Helvetica,sans-Serif" font-size="10.00">stxxl::linuxaio_request</text>
</a>
</g>
<!-- Node6&#45;&gt;Node7 -->
<g id="edge12" class="edge"><title>Node6&#45;&gt;Node7</title>
<path fill="none" stroke="midnightblue" d="M100.71,-51.7102C90.4333,-41.4333 78.9845,-29.9845 70.8521,-21.8521"/>
<polygon fill="midnightblue" stroke="midnightblue" points="98.376,-54.3258 107.922,-58.922 103.326,-49.376 98.376,-54.3258"/>
</g>
<!-- Node8 -->
<g id="node15" class="node"><title>Node8</title>
<a xlink:href="classstxxl_1_1serving__request.html" target="_top" xlink:title="Request which serves an I/O by calling the synchronous routine of the file. ">
<polygon fill="none" stroke="black" points="134.5,-0.5 134.5,-21.5 247.5,-21.5 247.5,-0.5 134.5,-0.5"/>
<text text-anchor="middle" x="191" y="-8.5" font-family="Helvetica,sans-Serif" font-size="10.00">stxxl::serving_request</text>
</a>
</g>
<!-- Node6&#45;&gt;Node8 -->
<g id="edge14" class="edge"><title>Node6&#45;&gt;Node8</title>
<path fill="none" stroke="midnightblue" d="M149.663,-51.7102C160.098,-41.4333 171.723,-29.9845 179.981,-21.8521"/>
<polygon fill="midnightblue" stroke="midnightblue" points="147.01,-49.4114 142.341,-58.922 151.922,-54.3988 147.01,-49.4114"/>
</g>
</g>
</svg>
