<?xml version="1.0" encoding="UTF-8" standalone="no"?>
<!DOCTYPE svg PUBLIC "-//W3C//DTD SVG 1.1//EN"
 "http://www.w3.org/Graphics/SVG/1.1/DTD/svg11.dtd">
<!-- Generated by graphviz version 2.38.0 (20140413.2041)
 -->
<!-- Title: stxxl::stable_ksort_local::bid_sequence&lt; BIDType, AllocStrategy &gt; Pages: 1 -->
<svg width="193pt" height="263pt"
 viewBox="0.00 0.00 193.00 263.00" xmlns="http://www.w3.org/2000/svg" xmlns:xlink="http://www.w3.org/1999/xlink">
<g id="graph0" class="graph" transform="scale(1 1) rotate(0) translate(4 259)">
<title>stxxl::stable_ksort_local::bid_sequence&lt; BIDType, AllocStrategy &gt;</title>
<!-- Node1 -->
<g id="node1" class="node"><title>Node1</title>
<polygon fill="#bfbfbf" stroke="black" points="0,-0.5 0,-41.5 138,-41.5 138,-0.5 0,-0.5"/>
<text text-anchor="start" x="8" y="-29.5" font-family="Helvetica,sans-Serif" font-size="10.00">stxxl::stable_ksort</text>
<text text-anchor="start" x="8" y="-18.5" font-family="Helvetica,sans-Serif" font-size="10.00">_local::bid_sequence</text>
<text text-anchor="middle" x="69" y="-7.5" font-family="Helvetica,sans-Serif" font-size="10.00">&lt; BIDType, AllocStrategy &gt;</text>
</g>
<!-- Node2 -->
<g id="node2" class="node"><title>Node2</title>
<g id="a_node2"><a xlink:href="classstxxl_1_1simple__vector.html" target="_top" xlink:title="stxxl::simple_vector\l\&lt; bid_type \&gt;">
<polygon fill="none" stroke="black" points="17,-89.5 17,-119.5 121,-119.5 121,-89.5 17,-89.5"/>
<text text-anchor="start" x="25" y="-107.5" font-family="Helvetica,sans-Serif" font-size="10.00">stxxl::simple_vector</text>
<text text-anchor="middle" x="69" y="-96.5" font-family="Helvetica,sans-Serif" font-size="10.00">&lt; bid_type &gt;</text>
</a>
</g>
</g>
<!-- Node2&#45;&gt;Node1 -->
<g id="edge1" class="edge"><title>Node2&#45;&gt;Node1</title>
<path fill="none" stroke="#9a32cd" stroke-dasharray="5,2" d="M69,-79.0662C69,-67.0614 69,-52.7937 69,-41.5278"/>
<polygon fill="#9a32cd" stroke="#9a32cd" points="65.5001,-79.3037 69,-89.3038 72.5001,-79.3038 65.5001,-79.3037"/>
<text text-anchor="middle" x="80" y="-63" font-family="Helvetica,sans-Serif" font-size="10.00"> bids</text>
</g>
<!-- Node3 -->
<g id="node3" class="node"><title>Node3</title>
<g id="a_node3"><a xlink:href="classstxxl_1_1noncopyable.html" target="_top" xlink:title="stxxl::noncopyable">
<polygon fill="none" stroke="black" points="30,-235.5 30,-254.5 128,-254.5 128,-235.5 30,-235.5"/>
<text text-anchor="middle" x="79" y="-242.5" font-family="Helvetica,sans-Serif" font-size="10.00">stxxl::noncopyable</text>
</a>
</g>
</g>
<!-- Node3&#45;&gt;Node2 -->
<g id="edge2" class="edge"><title>Node3&#45;&gt;Node2</title>
<path fill="none" stroke="#8b1a1a" d="M75.6109,-225.122C74.256,-216.829 72.824,-206.959 72,-198 69.4541,-170.32 68.9791,-137.808 68.9387,-119.636"/>
<polygon fill="#8b1a1a" stroke="#8b1a1a" points="72.203,-225.957 77.3465,-235.219 79.1018,-224.771 72.203,-225.957"/>
</g>
<!-- Node4 -->
<g id="node4" class="node"><title>Node4</title>
<g id="a_node4"><a xlink:href="classstxxl_1_1simple__vector.html" target="_top" xlink:title="Simpler non&#45;growing vector without initialization. ">
<polygon fill="none" stroke="black" points="81,-167.5 81,-197.5 185,-197.5 185,-167.5 81,-167.5"/>
<text text-anchor="start" x="89" y="-185.5" font-family="Helvetica,sans-Serif" font-size="10.00">stxxl::simple_vector</text>
<text text-anchor="middle" x="133" y="-174.5" font-family="Helvetica,sans-Serif" font-size="10.00">&lt; ValueType &gt;</text>
</a>
</g>
</g>
<!-- Node3&#45;&gt;Node4 -->
<g id="edge4" class="edge"><title>Node3&#45;&gt;Node4</title>
<path fill="none" stroke="#8b1a1a" d="M93.4388,-227.823C101.798,-218.458 112.223,-206.778 120.273,-197.759"/>
<polygon fill="#8b1a1a" stroke="#8b1a1a" points="90.7847,-225.541 86.7369,-235.332 96.007,-230.202 90.7847,-225.541"/>
</g>
<!-- Node4&#45;&gt;Node2 -->
<g id="edge3" class="edge"><title>Node4&#45;&gt;Node2</title>
<path fill="none" stroke="orange" stroke-dasharray="5,2" d="M114.311,-159.307C103.554,-146.533 90.3554,-130.86 80.9839,-119.731"/>
<polygon fill="orange" stroke="orange" points="111.844,-161.81 120.962,-167.205 117.198,-157.301 111.844,-161.81"/>
<text text-anchor="middle" x="133" y="-141" font-family="Helvetica,sans-Serif" font-size="10.00"> &lt; bid_type &gt;</text>
</g>
</g>
</svg>
