<?xml version="1.0" encoding="UTF-8" standalone="no"?>
<!DOCTYPE svg PUBLIC "-//W3C//DTD SVG 1.1//EN"
 "http://www.w3.org/Graphics/SVG/1.1/DTD/svg11.dtd">
<!-- Generated by graphviz version 2.26.3 (20100126.1600)
 -->
<!-- Title: stxxl::priority_queue_local::ext_merger&lt; BlockType, CompareType, Arity, AllocStr &gt; Pages: 1 -->
<svg width="1966pt" height="772pt"
 viewBox="0.00 0.00 1966.00 772.00" xmlns="http://www.w3.org/2000/svg" xmlns:xlink="http://www.w3.org/1999/xlink">
<g id="graph1" class="graph" transform="scale(1 1) rotate(0) translate(4 768)">
<title>stxxl::priority_queue_local::ext_merger&lt; BlockType, CompareType, Arity, AllocStr &gt;</title>
<!-- Node1 -->
<g id="node1" class="node"><title>Node1</title>
<polygon fill="#bfbfbf" stroke="black" points="1574.5,-493.5 1574.5,-540.5 1731.5,-540.5 1731.5,-493.5 1574.5,-493.5"/>
<text text-anchor="start" x="1582.5" y="-527.5" font-family="Helvetica,sans-Serif" font-size="10.00">stxxl::priority_queue</text>
<text text-anchor="start" x="1582.5" y="-514.5" font-family="Helvetica,sans-Serif" font-size="10.00">_local::ext_merger&lt; BlockType,</text>
<text text-anchor="middle" x="1653" y="-501.5" font-family="Helvetica,sans-Serif" font-size="10.00"> CompareType, Arity, AllocStr &gt;</text>
</g>
<!-- Node17 -->
<g id="node49" class="node"><title>Node17</title>
<a xlink:href="structstxxl_1_1priority__queue__local_1_1ext__merger_1_1sequence__state.html" target="_top" xlink:title="stxxl::priority_queue\l_local::ext_merger\&lt; BlockType,\l CompareType, Arity, AllocStr\l \&gt;::sequence_state">
<polygon fill="none" stroke="black" points="1802.5,-487 1802.5,-547 1957.5,-547 1957.5,-487 1802.5,-487"/>
<text text-anchor="start" x="1810.5" y="-534" font-family="Helvetica,sans-Serif" font-size="10.00">stxxl::priority_queue</text>
<text text-anchor="start" x="1810.5" y="-521" font-family="Helvetica,sans-Serif" font-size="10.00">_local::ext_merger&lt; BlockType,</text>
<text text-anchor="start" x="1810.5" y="-508" font-family="Helvetica,sans-Serif" font-size="10.00"> CompareType, Arity, AllocStr</text>
<text text-anchor="middle" x="1880" y="-495" font-family="Helvetica,sans-Serif" font-size="10.00"> &gt;::sequence_state</text>
</a>
</g>
<!-- Node1&#45;&gt;Node17 -->
<g id="edge70" class="edge"><title>Node1&#45;&gt;Node17</title>
<path fill="none" stroke="#9a32cd" stroke-dasharray="5,2" d="M1741.76,-517C1761.69,-517 1782.7,-517 1802.15,-517"/>
<polygon fill="#9a32cd" stroke="#9a32cd" points="1741.76,-513.5 1731.76,-517 1741.76,-520.5 1741.76,-513.5"/>
<text text-anchor="middle" x="1767" y="-521" font-family="Helvetica,sans-Serif" font-size="10.00"> merger</text>
</g>
<!-- Node2 -->
<g id="node2" class="node"><title>Node2</title>
<a xlink:href="classstxxl_1_1noncopyable.html" target="_top" xlink:title="stxxl::noncopyable">
<polygon fill="none" stroke="black" points="609,-416.5 609,-437.5 707,-437.5 707,-416.5 609,-416.5"/>
<text text-anchor="middle" x="658" y="-424.5" font-family="Helvetica,sans-Serif" font-size="10.00">stxxl::noncopyable</text>
</a>
</g>
<!-- Node2&#45;&gt;Node1 -->
<g id="edge2" class="edge"><title>Node2&#45;&gt;Node1</title>
<path fill="none" stroke="#8b1a1a" d="M675.289,-444.951C694.866,-464.482 728.426,-495.636 762,-516 860.256,-575.597 897.622,-570.873 1012,-582 1214.62,-601.712 1453.12,-560.543 1574.08,-535.095"/>
<polygon fill="#8b1a1a" stroke="#8b1a1a" points="677.546,-442.255 668.03,-437.598 672.565,-447.173 677.546,-442.255"/>
</g>
<!-- Node3 -->
<g id="node4" class="node"><title>Node3</title>
<a xlink:href="classstxxl_1_1priority__queue__local_1_1loser__tree.html" target="_top" xlink:title="stxxl::priority_queue\l_local::loser_tree\&lt; self\l_type, CompareType, Arity \&gt;">
<polygon fill="none" stroke="black" points="1154.5,-205.5 1154.5,-252.5 1297.5,-252.5 1297.5,-205.5 1154.5,-205.5"/>
<text text-anchor="start" x="1162.5" y="-239.5" font-family="Helvetica,sans-Serif" font-size="10.00">stxxl::priority_queue</text>
<text text-anchor="start" x="1162.5" y="-226.5" font-family="Helvetica,sans-Serif" font-size="10.00">_local::loser_tree&lt; self</text>
<text text-anchor="middle" x="1226" y="-213.5" font-family="Helvetica,sans-Serif" font-size="10.00">_type, CompareType, Arity &gt;</text>
</a>
</g>
<!-- Node2&#45;&gt;Node3 -->
<g id="edge6" class="edge"><title>Node2&#45;&gt;Node3</title>
<path fill="none" stroke="#8b1a1a" d="M687.95,-412.656C763.41,-383.008 967.35,-314.771 1136,-254 1141.97,-251.848 1148.15,-249.586 1154.35,-247.323"/>
<polygon fill="#8b1a1a" stroke="#8b1a1a" points="686.558,-409.443 678.578,-416.412 689.162,-415.941 686.558,-409.443"/>
</g>
<!-- Node2&#45;&gt;Node3 -->
<g id="edge8" class="edge"><title>Node2&#45;&gt;Node3</title>
<path fill="none" stroke="#8b1a1a" d="M715.747,-413.542C805.805,-386.775 985.041,-326.397 1136,-272 1152.66,-265.998 1170.95,-259.137 1186.67,-252.519"/>
<polygon fill="#8b1a1a" stroke="#8b1a1a" points="714.608,-410.229 706.001,-416.409 716.583,-416.945 714.608,-410.229"/>
</g>
<!-- Node10 -->
<g id="node22" class="node"><title>Node10</title>
<a xlink:href="classstxxl_1_1priority__queue__local_1_1loser__tree.html" target="_top" xlink:title="Loser tree from Knuth, &quot;Sorting and Searching&quot;, Section 5.4.1. ">
<polygon fill="none" stroke="black" points="844.5,-173.5 844.5,-220.5 993.5,-220.5 993.5,-173.5 844.5,-173.5"/>
<text text-anchor="start" x="852.5" y="-207.5" font-family="Helvetica,sans-Serif" font-size="10.00">stxxl::priority_queue</text>
<text text-anchor="start" x="852.5" y="-194.5" font-family="Helvetica,sans-Serif" font-size="10.00">_local::loser_tree&lt; ValueType,</text>
<text text-anchor="middle" x="919" y="-181.5" font-family="Helvetica,sans-Serif" font-size="10.00"> CompareType, MaxArity &gt;</text>
</a>
</g>
<!-- Node2&#45;&gt;Node10 -->
<g id="edge28" class="edge"><title>Node2&#45;&gt;Node10</title>
<path fill="none" stroke="#8b1a1a" d="M677.141,-409.975C718.426,-379.175 813.165,-317.854 826,-306 854.552,-279.632 881.372,-243.984 898.804,-220.566"/>
<polygon fill="#8b1a1a" stroke="#8b1a1a" points="674.782,-407.372 668.97,-416.23 679.038,-412.93 674.782,-407.372"/>
</g>
<!-- Node2&#45;&gt;Node10 -->
<g id="edge30" class="edge"><title>Node2&#45;&gt;Node10</title>
<path fill="none" stroke="#8b1a1a" d="M691.563,-411.372C737.2,-384.985 814.496,-334.624 826,-324 859.917,-292.676 891.391,-248.258 907.587,-220.852"/>
<polygon fill="#8b1a1a" stroke="#8b1a1a" points="689.575,-408.477 682.614,-416.464 693.036,-414.561 689.575,-408.477"/>
</g>
<!-- Node11 -->
<g id="node30" class="node"><title>Node11</title>
<a xlink:href="classstxxl_1_1read__write__pool.html" target="_top" xlink:title="stxxl::read_write_pool\l\&lt; block_type \&gt;">
<polygon fill="none" stroke="black" points="1404,-500 1404,-534 1516,-534 1516,-500 1404,-500"/>
<text text-anchor="start" x="1412" y="-521" font-family="Helvetica,sans-Serif" font-size="10.00">stxxl::read_write_pool</text>
<text text-anchor="middle" x="1460" y="-508" font-family="Helvetica,sans-Serif" font-size="10.00">&lt; block_type &gt;</text>
</a>
</g>
<!-- Node2&#45;&gt;Node11 -->
<g id="edge42" class="edge"><title>Node2&#45;&gt;Node11</title>
<path fill="none" stroke="#8b1a1a" d="M717.722,-427.752C854.691,-429.839 1188.08,-437.075 1298,-459 1341.94,-467.765 1390.01,-486.172 1422.28,-499.911"/>
<polygon fill="#8b1a1a" stroke="#8b1a1a" points="717.476,-424.248 707.425,-427.6 717.372,-431.248 717.476,-424.248"/>
</g>
<!-- Node12 -->
<g id="node33" class="node"><title>Node12</title>
<a xlink:href="classstxxl_1_1prefetch__pool.html" target="_top" xlink:title="Implements dynamically resizable prefetching pool. ">
<polygon fill="none" stroke="black" points="868,-622 868,-656 970,-656 970,-622 868,-622"/>
<text text-anchor="start" x="876" y="-643" font-family="Helvetica,sans-Serif" font-size="10.00">stxxl::prefetch_pool</text>
<text text-anchor="middle" x="919" y="-630" font-family="Helvetica,sans-Serif" font-size="10.00">&lt; BlockType &gt;</text>
</a>
</g>
<!-- Node2&#45;&gt;Node12 -->
<g id="edge46" class="edge"><title>Node2&#45;&gt;Node12</title>
<path fill="none" stroke="#8b1a1a" d="M663.983,-447.756C675.967,-485.419 706.63,-564.828 762,-605 792.587,-627.191 834.779,-635.416 867.722,-638.243"/>
<polygon fill="#8b1a1a" stroke="#8b1a1a" points="667.242,-446.443 660.974,-437.901 660.547,-448.487 667.242,-446.443"/>
</g>
<!-- Node15 -->
<g id="node41" class="node"><title>Node15</title>
<a xlink:href="classstxxl_1_1write__pool.html" target="_top" xlink:title="Implements dynamically resizable buffered writing pool. ">
<polygon fill="none" stroke="black" points="872,-506 872,-540 966,-540 966,-506 872,-506"/>
<text text-anchor="start" x="880" y="-527" font-family="Helvetica,sans-Serif" font-size="10.00">stxxl::write_pool&lt;</text>
<text text-anchor="middle" x="919" y="-514" font-family="Helvetica,sans-Serif" font-size="10.00"> BlockType &gt;</text>
</a>
</g>
<!-- Node2&#45;&gt;Node15 -->
<g id="edge56" class="edge"><title>Node2&#45;&gt;Node15</title>
<path fill="none" stroke="#8b1a1a" d="M679.439,-443.684C699.638,-458.575 731.302,-479.853 762,-492 797.393,-506.004 839.868,-513.898 871.709,-518.21"/>
<polygon fill="#8b1a1a" stroke="#8b1a1a" points="681.363,-440.751 671.266,-437.542 677.158,-446.347 681.363,-440.751"/>
</g>
<!-- Node16 -->
<g id="node44" class="node"><title>Node16</title>
<a xlink:href="classstxxl_1_1read__write__pool.html" target="_top" xlink:title="Implements dynamically resizable buffered writing and prefetched reading pool. ">
<polygon fill="none" stroke="black" points="1170,-468 1170,-502 1282,-502 1282,-468 1170,-468"/>
<text text-anchor="start" x="1178" y="-489" font-family="Helvetica,sans-Serif" font-size="10.00">stxxl::read_write_pool</text>
<text text-anchor="middle" x="1226" y="-476" font-family="Helvetica,sans-Serif" font-size="10.00">&lt; BlockType &gt;</text>
</a>
</g>
<!-- Node2&#45;&gt;Node16 -->
<g id="edge60" class="edge"><title>Node2&#45;&gt;Node16</title>
<path fill="none" stroke="#8b1a1a" d="M701.718,-440.294C720.157,-445.392 741.957,-450.758 762,-454 907.85,-477.591 1082.28,-483.295 1169.91,-484.63"/>
<polygon fill="#8b1a1a" stroke="#8b1a1a" points="702.427,-436.858 691.852,-437.505 700.522,-443.594 702.427,-436.858"/>
</g>
<!-- Node2&#45;&gt;Node17 -->
<g id="edge68" class="edge"><title>Node2&#45;&gt;Node17</title>
<path fill="none" stroke="#8b1a1a" d="M717.214,-421.198C797.832,-413.813 946.679,-402 1074,-402 1074,-402 1074,-402 1653,-402 1728.1,-402 1803.56,-452.713 1845.79,-486.785"/>
<polygon fill="#8b1a1a" stroke="#8b1a1a" points="716.886,-417.714 707.251,-422.12 717.531,-424.684 716.886,-417.714"/>
</g>
<!-- Node3&#45;&gt;Node1 -->
<g id="edge4" class="edge"><title>Node3&#45;&gt;Node1</title>
<path fill="none" stroke="#9a32cd" stroke-dasharray="5,2" d="M1269.3,-258.208C1354.03,-315.352 1540.2,-440.916 1617.87,-493.308"/>
<polygon fill="#9a32cd" stroke="#9a32cd" points="1271.19,-255.258 1260.94,-252.568 1267.28,-261.062 1271.19,-255.258"/>
<text text-anchor="middle" x="1460" y="-425" font-family="Helvetica,sans-Serif" font-size="10.00"> tree</text>
</g>
<!-- Node4 -->
<g id="node8" class="node"><title>Node4</title>
<a xlink:href="classstxxl_1_1priority__queue__local_1_1internal__bounded__stack.html" target="_top" xlink:title="stxxl::priority_queue\l_local::internal_bounded\l_stack\&lt; unsigned_type, arity \&gt;">
<polygon fill="none" stroke="black" points="582,-0.5 582,-47.5 734,-47.5 734,-0.5 582,-0.5"/>
<text text-anchor="start" x="590" y="-34.5" font-family="Helvetica,sans-Serif" font-size="10.00">stxxl::priority_queue</text>
<text text-anchor="start" x="590" y="-21.5" font-family="Helvetica,sans-Serif" font-size="10.00">_local::internal_bounded</text>
<text text-anchor="middle" x="658" y="-8.5" font-family="Helvetica,sans-Serif" font-size="10.00">_stack&lt; unsigned_type, arity &gt;</text>
</a>
</g>
<!-- Node4&#45;&gt;Node3 -->
<g id="edge10" class="edge"><title>Node4&#45;&gt;Node3</title>
<path fill="none" stroke="#9a32cd" stroke-dasharray="5,2" d="M744.581,-17.7427C846.911,-14.7134 1018.14,-23.7953 1136,-104 1173.8,-129.726 1201.26,-176.857 1215.33,-205.318"/>
<polygon fill="#9a32cd" stroke="#9a32cd" points="744.161,-14.2549 734.287,-18.0953 744.401,-21.2508 744.161,-14.2549"/>
<text text-anchor="middle" x="919" y="-46" font-family="Helvetica,sans-Serif" font-size="10.00"> free_slots</text>
</g>
<!-- Node4&#45;&gt;Node10 -->
<g id="edge32" class="edge"><title>Node4&#45;&gt;Node10</title>
<path fill="none" stroke="#9a32cd" stroke-dasharray="5,2" d="M733.796,-51.8921C737.279,-53.5461 740.696,-55.2509 744,-57 783.226,-77.7677 797.134,-80.2846 826,-114 837.893,-127.891 831.714,-137.455 844,-151 851.697,-159.485 861.321,-166.947 871.083,-173.257"/>
<polygon fill="#9a32cd" stroke="#9a32cd" points="735.009,-48.5984 724.458,-47.6368 732.106,-54.9683 735.009,-48.5984"/>
<text text-anchor="middle" x="794" y="-118" font-family="Helvetica,sans-Serif" font-size="10.00"> free_slots</text>
</g>
<!-- Node5 -->
<g id="node10" class="node"><title>Node5</title>
<a xlink:href="classstxxl_1_1priority__queue__local_1_1internal__bounded__stack.html" target="_top" xlink:title="Similar to std::stack, with the following differences: ">
<polygon fill="none" stroke="black" points="250.5,-30.5 250.5,-77.5 405.5,-77.5 405.5,-30.5 250.5,-30.5"/>
<text text-anchor="start" x="258.5" y="-64.5" font-family="Helvetica,sans-Serif" font-size="10.00">stxxl::priority_queue</text>
<text text-anchor="start" x="258.5" y="-51.5" font-family="Helvetica,sans-Serif" font-size="10.00">_local::internal_bounded</text>
<text text-anchor="middle" x="328" y="-38.5" font-family="Helvetica,sans-Serif" font-size="10.00">_stack&lt; ValueType, MaxSize &gt;</text>
</a>
</g>
<!-- Node5&#45;&gt;Node4 -->
<g id="edge12" class="edge"><title>Node5&#45;&gt;Node4</title>
<path fill="none" stroke="orange" stroke-dasharray="5,2" d="M415.812,-40.918C418.572,-40.5953 421.306,-40.2881 424,-40 476.636,-34.3708 536.156,-30.3328 581.995,-27.7215"/>
<polygon fill="orange" stroke="orange" points="415.243,-37.4614 405.741,-42.1481 416.092,-44.4098 415.243,-37.4614"/>
<text text-anchor="middle" x="489" y="-44" font-family="Helvetica,sans-Serif" font-size="10.00"> &lt; unsigned_type, arity &gt;</text>
</g>
<!-- Node9 -->
<g id="node19" class="node"><title>Node9</title>
<a xlink:href="classstxxl_1_1priority__queue__local_1_1internal__bounded__stack.html" target="_top" xlink:title="stxxl::priority_queue\l_local::internal_bounded\l_stack\&lt; unsigned_type, MaxArity \&gt;">
<polygon fill="none" stroke="black" points="572,-66.5 572,-113.5 744,-113.5 744,-66.5 572,-66.5"/>
<text text-anchor="start" x="580" y="-100.5" font-family="Helvetica,sans-Serif" font-size="10.00">stxxl::priority_queue</text>
<text text-anchor="start" x="580" y="-87.5" font-family="Helvetica,sans-Serif" font-size="10.00">_local::internal_bounded</text>
<text text-anchor="middle" x="658" y="-74.5" font-family="Helvetica,sans-Serif" font-size="10.00">_stack&lt; unsigned_type, MaxArity &gt;</text>
</a>
</g>
<!-- Node5&#45;&gt;Node9 -->
<g id="edge24" class="edge"><title>Node5&#45;&gt;Node9</title>
<path fill="none" stroke="orange" stroke-dasharray="5,2" d="M415.903,-63.5894C464.154,-68.8531 523.751,-75.3547 571.74,-80.5899"/>
<polygon fill="orange" stroke="orange" points="416.108,-60.0911 405.788,-62.4859 415.349,-67.0498 416.108,-60.0911"/>
<text text-anchor="middle" x="489" y="-83" font-family="Helvetica,sans-Serif" font-size="10.00"> &lt; unsigned_type, MaxArity &gt;</text>
</g>
<!-- Node6 -->
<g id="node12" class="node"><title>Node6</title>
<a xlink:href="structstxxl_1_1priority__queue__local_1_1loser__tree_1_1Entry.html" target="_top" xlink:title="type of nodes in the loser tree ">
<polygon fill="none" stroke="black" points="576,-132.5 576,-179.5 740,-179.5 740,-132.5 576,-132.5"/>
<text text-anchor="start" x="584" y="-166.5" font-family="Helvetica,sans-Serif" font-size="10.00">stxxl::priority_queue</text>
<text text-anchor="start" x="584" y="-153.5" font-family="Helvetica,sans-Serif" font-size="10.00">_local::loser_tree&lt; ValueType,</text>
<text text-anchor="middle" x="658" y="-140.5" font-family="Helvetica,sans-Serif" font-size="10.00"> CompareType, MaxArity &gt;::Entry</text>
</a>
</g>
<!-- Node6&#45;&gt;Node3 -->
<g id="edge14" class="edge"><title>Node6&#45;&gt;Node3</title>
<path fill="none" stroke="#9a32cd" stroke-dasharray="5,2" d="M750.071,-134.532C754.09,-133.945 758.079,-133.428 762,-133 790.276,-129.911 797.596,-131.483 826,-133 900.987,-137.006 920.457,-135.816 994,-151 1058.71,-164.36 1073.51,-173.537 1136,-195 1145.48,-198.255 1155.46,-201.853 1165.18,-205.452"/>
<polygon fill="#9a32cd" stroke="#9a32cd" points="749.367,-131.1 740.041,-136.127 750.466,-138.013 749.367,-131.1"/>
<text text-anchor="middle" x="919" y="-155" font-family="Helvetica,sans-Serif" font-size="10.00"> entry</text>
</g>
<!-- Node6&#45;&gt;Node10 -->
<g id="edge34" class="edge"><title>Node6&#45;&gt;Node10</title>
<path fill="none" stroke="#9a32cd" stroke-dasharray="5,2" d="M750.116,-170.47C780.953,-175.315 814.93,-180.652 844.273,-185.261"/>
<polygon fill="#9a32cd" stroke="#9a32cd" points="750.646,-167.011 740.224,-168.916 749.559,-173.926 750.646,-167.011"/>
<text text-anchor="middle" x="794" y="-186" font-family="Helvetica,sans-Serif" font-size="10.00"> entry</text>
</g>
<!-- Node7 -->
<g id="node14" class="node"><title>Node7</title>
<a xlink:href="structstxxl_1_1choose__int__types.html" target="_top" xlink:title="stxxl::choose_int_types\l\&lt; my_pointer_size \&gt;">
<polygon fill="none" stroke="black" points="268,-292 268,-326 388,-326 388,-292 268,-292"/>
<text text-anchor="start" x="276" y="-313" font-family="Helvetica,sans-Serif" font-size="10.00">stxxl::choose_int_types</text>
<text text-anchor="middle" x="328" y="-300" font-family="Helvetica,sans-Serif" font-size="10.00">&lt; my_pointer_size &gt;</text>
</a>
</g>
<!-- Node7&#45;&gt;Node3 -->
<g id="edge20" class="edge"><title>Node7&#45;&gt;Node3</title>
<path fill="none" stroke="#9a32cd" stroke-dasharray="5,2" d="M398.094,-308.828C480.884,-308.12 622.694,-305.319 744,-295 822.056,-288.36 1040.07,-256.689 1154.23,-239.749"/>
<polygon fill="#9a32cd" stroke="#9a32cd" points="398.021,-305.329 388.048,-308.906 398.075,-312.328 398.021,-305.329"/>
<text text-anchor="middle" x="794" y="-350" font-family="Helvetica,sans-Serif" font-size="10.00"> segment_size</text>
<text text-anchor="middle" x="794" y="-337" font-family="Helvetica,sans-Serif" font-size="10.00">mem_cons_</text>
<text text-anchor="middle" x="794" y="-324" font-family="Helvetica,sans-Serif" font-size="10.00">k</text>
<text text-anchor="middle" x="794" y="-311" font-family="Helvetica,sans-Serif" font-size="10.00">size_</text>
<text text-anchor="middle" x="794" y="-298" font-family="Helvetica,sans-Serif" font-size="10.00">logK</text>
</g>
<!-- Node7&#45;&gt;Node6 -->
<g id="edge16" class="edge"><title>Node7&#45;&gt;Node6</title>
<path fill="none" stroke="#9a32cd" stroke-dasharray="5,2" d="M341.181,-282.715C356.821,-254.514 385.683,-210.841 424,-189 469.801,-162.893 528.58,-154.68 575.769,-152.975"/>
<polygon fill="#9a32cd" stroke="#9a32cd" points="338.04,-281.166 336.389,-291.632 344.206,-284.48 338.04,-281.166"/>
<text text-anchor="middle" x="489" y="-193" font-family="Helvetica,sans-Serif" font-size="10.00"> index</text>
</g>
<!-- Node7&#45;&gt;Node10 -->
<g id="edge36" class="edge"><title>Node7&#45;&gt;Node10</title>
<path fill="none" stroke="#9a32cd" stroke-dasharray="5,2" d="M380.264,-288.396C429.071,-270.044 504.347,-243.994 572,-230 664.594,-210.847 773.426,-202.781 844.18,-199.403"/>
<polygon fill="#9a32cd" stroke="#9a32cd" points="378.976,-285.141 370.865,-291.958 381.457,-291.687 378.976,-285.141"/>
<text text-anchor="middle" x="658" y="-286" font-family="Helvetica,sans-Serif" font-size="10.00"> segment_size</text>
<text text-anchor="middle" x="658" y="-273" font-family="Helvetica,sans-Serif" font-size="10.00">mem_cons_</text>
<text text-anchor="middle" x="658" y="-260" font-family="Helvetica,sans-Serif" font-size="10.00">k</text>
<text text-anchor="middle" x="658" y="-247" font-family="Helvetica,sans-Serif" font-size="10.00">size_</text>
<text text-anchor="middle" x="658" y="-234" font-family="Helvetica,sans-Serif" font-size="10.00">logK</text>
</g>
<!-- Node7&#45;&gt;Node12 -->
<g id="edge48" class="edge"><title>Node7&#45;&gt;Node12</title>
<path fill="none" stroke="#9a32cd" stroke-dasharray="5,2" d="M350.683,-333.712C410.551,-396.981 580.715,-564.432 762,-630 795.761,-642.211 836.264,-644.252 867.674,-643.349"/>
<polygon fill="#9a32cd" stroke="#9a32cd" points="353.01,-331.077 343.615,-326.182 347.907,-335.868 353.01,-331.077"/>
<text text-anchor="middle" x="658" y="-625" font-family="Helvetica,sans-Serif" font-size="10.00"> free_blocks_size</text>
</g>
<!-- Node7&#45;&gt;Node17 -->
<g id="edge72" class="edge"><title>Node7&#45;&gt;Node17</title>
<path fill="none" stroke="#9a32cd" stroke-dasharray="5,2" d="M336.582,-335.764C366.035,-421.843 471.603,-686 658,-686 658,-686 658,-686 1653,-686 1744.88,-686 1823.65,-595.824 1859.44,-547.214"/>
<polygon fill="#9a32cd" stroke="#9a32cd" points="339.865,-334.547 333.367,-326.179 333.229,-336.772 339.865,-334.547"/>
<text text-anchor="middle" x="1226" y="-690" font-family="Helvetica,sans-Serif" font-size="10.00"> current</text>
</g>
<!-- Node8 -->
<g id="node16" class="node"><title>Node8</title>
<a xlink:href="structstxxl_1_1choose__int__types.html" target="_top" xlink:title="stxxl::choose_int_types\l\&lt; PtrSize \&gt;">
<polygon fill="none" stroke="black" points="0,-292 0,-326 120,-326 120,-292 0,-292"/>
<text text-anchor="start" x="8" y="-313" font-family="Helvetica,sans-Serif" font-size="10.00">stxxl::choose_int_types</text>
<text text-anchor="middle" x="60" y="-300" font-family="Helvetica,sans-Serif" font-size="10.00">&lt; PtrSize &gt;</text>
</a>
</g>
<!-- Node8&#45;&gt;Node7 -->
<g id="edge18" class="edge"><title>Node8&#45;&gt;Node7</title>
<path fill="none" stroke="orange" stroke-dasharray="5,2" d="M130.18,-309C172.863,-309 226.818,-309 267.593,-309"/>
<polygon fill="orange" stroke="orange" points="130.144,-305.5 120.144,-309 130.144,-312.5 130.144,-305.5"/>
<text text-anchor="middle" x="185" y="-313" font-family="Helvetica,sans-Serif" font-size="10.00"> &lt; my_pointer_size &gt;</text>
</g>
<!-- Node9&#45;&gt;Node3 -->
<g id="edge22" class="edge"><title>Node9&#45;&gt;Node3</title>
<path fill="none" stroke="#9a32cd" stroke-dasharray="5,2" d="M754.466,-83.6045C855.224,-81.0529 1015.13,-88.9107 1136,-151 1162.67,-164.699 1188,-187.904 1204.95,-205.45"/>
<polygon fill="#9a32cd" stroke="#9a32cd" points="754.191,-80.111 744.298,-83.9025 754.396,-87.1079 754.191,-80.111"/>
<text text-anchor="middle" x="919" y="-107" font-family="Helvetica,sans-Serif" font-size="10.00"> free_slots</text>
</g>
<!-- Node9&#45;&gt;Node10 -->
<g id="edge38" class="edge"><title>Node9&#45;&gt;Node10</title>
<path fill="none" stroke="#9a32cd" stroke-dasharray="5,2" d="M729.51,-117.339C734.417,-119.246 739.284,-121.146 744,-123 780.562,-137.371 789.8,-140.741 826,-156 839.17,-161.552 853.317,-167.695 866.503,-173.499"/>
<polygon fill="#9a32cd" stroke="#9a32cd" points="730.642,-114.023 720.053,-113.673 728.112,-120.55 730.642,-114.023"/>
<text text-anchor="middle" x="794" y="-160" font-family="Helvetica,sans-Serif" font-size="10.00"> free_slots</text>
</g>
<!-- Node10&#45;&gt;Node3 -->
<g id="edge26" class="edge"><title>Node10&#45;&gt;Node3</title>
<path fill="none" stroke="orange" stroke-dasharray="5,2" d="M1003.65,-198.474C1043.89,-199.992 1092.58,-203.016 1136,-209 1142.03,-209.83 1148.25,-210.855 1154.47,-211.998"/>
<polygon fill="orange" stroke="orange" points="1003.73,-194.974 993.608,-198.119 1003.48,-201.97 1003.73,-194.974"/>
<text text-anchor="start" x="1012.5" y="-226" font-family="Helvetica,sans-Serif" font-size="10.00"> &lt; self_type, CompareType,</text>
<text text-anchor="middle" x="1074" y="-213" font-family="Helvetica,sans-Serif" font-size="10.00"> Arity &gt;</text>
</g>
<!-- Node11&#45;&gt;Node1 -->
<g id="edge40" class="edge"><title>Node11&#45;&gt;Node1</title>
<path fill="none" stroke="#9a32cd" stroke-dasharray="5,2" d="M1526.51,-517C1541.86,-517 1558.34,-517 1574.17,-517"/>
<polygon fill="#9a32cd" stroke="#9a32cd" points="1526.08,-513.5 1516.08,-517 1526.08,-520.5 1526.08,-513.5"/>
<text text-anchor="middle" x="1545" y="-521" font-family="Helvetica,sans-Serif" font-size="10.00"> pool</text>
</g>
<!-- Node12&#45;&gt;Node11 -->
<g id="edge44" class="edge"><title>Node12&#45;&gt;Node11</title>
<path fill="none" stroke="#9a32cd" stroke-dasharray="5,2" d="M980.317,-631.522C1023.96,-625.751 1083.86,-616.916 1136,-606 1248.59,-582.428 1275.3,-570.282 1386,-539 1391.8,-537.36 1397.85,-535.616 1403.88,-533.857"/>
<polygon fill="#9a32cd" stroke="#9a32cd" points="979.609,-628.084 970.147,-632.85 980.516,-635.025 979.609,-628.084"/>
<text text-anchor="middle" x="1226" y="-605" font-family="Helvetica,sans-Serif" font-size="10.00"> p_pool</text>
</g>
<!-- Node12&#45;&gt;Node16 -->
<g id="edge62" class="edge"><title>Node12&#45;&gt;Node16</title>
<path fill="none" stroke="#9a32cd" stroke-dasharray="5,2" d="M960.686,-616.963C1022.94,-584.083 1134.97,-525.062 1154,-516 1163.95,-511.261 1174.82,-506.417 1185.02,-502.01"/>
<polygon fill="#9a32cd" stroke="#9a32cd" points="958.718,-614.044 951.51,-621.809 961.987,-620.233 958.718,-614.044"/>
<text text-anchor="middle" x="1074" y="-593" font-family="Helvetica,sans-Serif" font-size="10.00"> p_pool</text>
</g>
<!-- Node13 -->
<g id="node37" class="node"><title>Node13</title>
<a xlink:href="structstxxl_1_1compat__hash__map.html" target="_top" xlink:title="stxxl::compat_hash\l_map\&lt; bid_type, busy\l_entry, bid_hash \&gt;">
<polygon fill="none" stroke="black" points="601.5,-714.5 601.5,-761.5 714.5,-761.5 714.5,-714.5 601.5,-714.5"/>
<text text-anchor="start" x="609.5" y="-748.5" font-family="Helvetica,sans-Serif" font-size="10.00">stxxl::compat_hash</text>
<text text-anchor="start" x="609.5" y="-735.5" font-family="Helvetica,sans-Serif" font-size="10.00">_map&lt; bid_type, busy</text>
<text text-anchor="middle" x="658" y="-722.5" font-family="Helvetica,sans-Serif" font-size="10.00">_entry, bid_hash &gt;</text>
</a>
</g>
<!-- Node13&#45;&gt;Node12 -->
<g id="edge50" class="edge"><title>Node13&#45;&gt;Node12</title>
<path fill="none" stroke="#9a32cd" stroke-dasharray="5,2" d="M724.115,-712.922C771.072,-695.111 832.867,-671.671 874.163,-656.007"/>
<polygon fill="#9a32cd" stroke="#9a32cd" points="722.742,-709.699 714.633,-716.518 725.224,-716.244 722.742,-709.699"/>
<text text-anchor="middle" x="794" y="-701" font-family="Helvetica,sans-Serif" font-size="10.00"> busy_blocks</text>
</g>
<!-- Node14 -->
<g id="node39" class="node"><title>Node14</title>
<a xlink:href="structstxxl_1_1compat__hash__map.html" target="_top" xlink:title="stxxl::compat_hash\l_map\&lt; KeyType, MappedType,\l HashType \&gt;">
<polygon fill="none" stroke="black" points="251,-714.5 251,-761.5 405,-761.5 405,-714.5 251,-714.5"/>
<text text-anchor="start" x="259" y="-748.5" font-family="Helvetica,sans-Serif" font-size="10.00">stxxl::compat_hash</text>
<text text-anchor="start" x="259" y="-735.5" font-family="Helvetica,sans-Serif" font-size="10.00">_map&lt; KeyType, MappedType,</text>
<text text-anchor="middle" x="328" y="-722.5" font-family="Helvetica,sans-Serif" font-size="10.00"> HashType &gt;</text>
</a>
</g>
<!-- Node14&#45;&gt;Node13 -->
<g id="edge52" class="edge"><title>Node14&#45;&gt;Node13</title>
<path fill="none" stroke="orange" stroke-dasharray="5,2" d="M415.419,-738C474.355,-738 550.389,-738 601.489,-738"/>
<polygon fill="orange" stroke="orange" points="415.37,-734.5 405.37,-738 415.37,-741.5 415.37,-734.5"/>
<text text-anchor="start" x="436" y="-755" font-family="Helvetica,sans-Serif" font-size="10.00"> &lt; bid_type, busy_entry,</text>
<text text-anchor="middle" x="489" y="-742" font-family="Helvetica,sans-Serif" font-size="10.00"> bid_hash &gt;</text>
</g>
<!-- Node15&#45;&gt;Node11 -->
<g id="edge54" class="edge"><title>Node15&#45;&gt;Node11</title>
<path fill="none" stroke="#9a32cd" stroke-dasharray="5,2" d="M976.518,-523.19C1053.74,-523.435 1195.21,-523.848 1316,-524 1347.11,-524.039 1354.92,-525.467 1386,-524 1391.8,-523.726 1397.85,-523.332 1403.88,-522.869"/>
<polygon fill="#9a32cd" stroke="#9a32cd" points="976.068,-519.689 966.057,-523.157 976.045,-526.689 976.068,-519.689"/>
<text text-anchor="middle" x="1226" y="-528" font-family="Helvetica,sans-Serif" font-size="10.00"> w_pool</text>
</g>
<!-- Node15&#45;&gt;Node16 -->
<g id="edge64" class="edge"><title>Node15&#45;&gt;Node16</title>
<path fill="none" stroke="#9a32cd" stroke-dasharray="5,2" d="M976.4,-513.255C988.159,-511.396 1000.47,-509.549 1012,-508 1065.33,-500.839 1126.37,-494.456 1169.58,-490.243"/>
<polygon fill="#9a32cd" stroke="#9a32cd" points="975.559,-509.845 966.24,-514.885 976.668,-516.756 975.559,-509.845"/>
<text text-anchor="middle" x="1074" y="-512" font-family="Helvetica,sans-Serif" font-size="10.00"> w_pool</text>
</g>
<!-- Node16&#45;&gt;Node11 -->
<g id="edge58" class="edge"><title>Node16&#45;&gt;Node11</title>
<path fill="none" stroke="orange" stroke-dasharray="5,2" d="M1292.22,-494.055C1327.35,-498.859 1370.06,-504.701 1403.6,-509.287"/>
<polygon fill="orange" stroke="orange" points="1292.43,-490.552 1282.05,-492.665 1291.48,-497.488 1292.43,-490.552"/>
<text text-anchor="middle" x="1351" y="-511" font-family="Helvetica,sans-Serif" font-size="10.00"> &lt; block_type &gt;</text>
</g>
<!-- Node17&#45;&gt;Node1 -->
<g id="edge66" class="edge"><title>Node17&#45;&gt;Node1</title>
<path fill="none" stroke="#9a32cd" stroke-dasharray="5,2" d="M1792.24,-500.821C1789.46,-500.514 1786.71,-500.238 1784,-500 1766.98,-498.505 1748.77,-499.319 1731.51,-501.226"/>
<polygon fill="#9a32cd" stroke="#9a32cd" points="1792,-504.318 1802.35,-502.061 1792.85,-497.37 1792,-504.318"/>
<text text-anchor="middle" x="1767" y="-504" font-family="Helvetica,sans-Serif" font-size="10.00"> states</text>
</g>
</g>
</svg>
