<?xml version="1.0" encoding="UTF-8" standalone="no"?>
<!DOCTYPE svg PUBLIC "-//W3C//DTD SVG 1.1//EN"
 "http://www.w3.org/Graphics/SVG/1.1/DTD/svg11.dtd">
<!-- Generated by graphviz version 2.26.3 (20100126.1600)
 -->
<!-- Title: stxxl::disk_queued_file Pages: 1 -->
<svg width="502pt" height="322pt"
 viewBox="0.00 0.00 502.00 322.00" xmlns="http://www.w3.org/2000/svg" xmlns:xlink="http://www.w3.org/1999/xlink">
<g id="graph1" class="graph" transform="scale(1 1) rotate(0) translate(4 318)">
<title>stxxl::disk_queued_file</title>
<!-- Node1 -->
<g id="node1" class="node"><title>Node1</title>
<polygon fill="#bfbfbf" stroke="black" points="226,-140.5 226,-161.5 342,-161.5 342,-140.5 226,-140.5"/>
<text text-anchor="middle" x="284" y="-148.5" font-family="Helvetica,sans-Serif" font-size="10.00">stxxl::disk_queued_file</text>
</g>
<!-- Node4 -->
<g id="node7" class="node"><title>Node4</title>
<a xlink:href="classstxxl_1_1fileperblock__file.html" target="_top" xlink:title="Implementation of file based on other files, dynamically allocate one file per block. Allows for dynamic disk space consumption. ">
<polygon fill="none" stroke="black" points="378,-280 378,-314 494,-314 494,-280 378,-280"/>
<text text-anchor="start" x="386" y="-301" font-family="Helvetica,sans-Serif" font-size="10.00">stxxl::fileperblock</text>
<text text-anchor="middle" x="436" y="-288" font-family="Helvetica,sans-Serif" font-size="10.00">_file&lt; base_file_type &gt;</text>
</a>
</g>
<!-- Node1&#45;&gt;Node4 -->
<g id="edge6" class="edge"><title>Node1&#45;&gt;Node4</title>
<path fill="none" stroke="midnightblue" d="M295.169,-170.614C310.792,-196.569 341.405,-242.371 378,-271 382.172,-274.264 386.818,-277.218 391.615,-279.863"/>
<polygon fill="midnightblue" stroke="midnightblue" points="298.021,-168.56 289.934,-161.716 291.988,-172.11 298.021,-168.56"/>
</g>
<!-- Node5 -->
<g id="node9" class="node"><title>Node5</title>
<a xlink:href="classstxxl_1_1linuxaio__file.html" target="_top" xlink:title="Implementation of file based on the Linux kernel interface for asynchronous I/O. ">
<polygon fill="none" stroke="black" points="388.5,-240.5 388.5,-261.5 483.5,-261.5 483.5,-240.5 388.5,-240.5"/>
<text text-anchor="middle" x="436" y="-248.5" font-family="Helvetica,sans-Serif" font-size="10.00">stxxl::linuxaio_file</text>
</a>
</g>
<!-- Node1&#45;&gt;Node5 -->
<g id="edge8" class="edge"><title>Node1&#45;&gt;Node5</title>
<path fill="none" stroke="midnightblue" d="M301.036,-168.999C318.79,-186.859 348.141,-213.96 378,-231 384.383,-234.643 391.539,-237.775 398.587,-240.407"/>
<polygon fill="midnightblue" stroke="midnightblue" points="303.223,-166.228 293.735,-161.513 298.211,-171.116 303.223,-166.228"/>
</g>
<!-- Node6 -->
<g id="node11" class="node"><title>Node6</title>
<a xlink:href="classstxxl_1_1mem__file.html" target="_top" xlink:title="Implementation of file based on new[] and memcpy. ">
<polygon fill="none" stroke="black" points="394.5,-200.5 394.5,-221.5 477.5,-221.5 477.5,-200.5 394.5,-200.5"/>
<text text-anchor="middle" x="436" y="-208.5" font-family="Helvetica,sans-Serif" font-size="10.00">stxxl::mem_file</text>
</a>
</g>
<!-- Node1&#45;&gt;Node6 -->
<g id="edge10" class="edge"><title>Node1&#45;&gt;Node6</title>
<path fill="none" stroke="midnightblue" d="M317.184,-165.794C335.076,-173.6 357.608,-183.157 378,-191 386.351,-194.212 395.466,-197.469 403.945,-200.397"/>
<polygon fill="midnightblue" stroke="midnightblue" points="318.328,-162.474 307.765,-161.66 315.515,-168.884 318.328,-162.474"/>
</g>
<!-- Node7 -->
<g id="node13" class="node"><title>Node7</title>
<a xlink:href="classstxxl_1_1mmap__file.html" target="_top" xlink:title="Implementation of memory mapped access file. ">
<polygon fill="none" stroke="black" points="391.5,-160.5 391.5,-181.5 480.5,-181.5 480.5,-160.5 391.5,-160.5"/>
<text text-anchor="middle" x="436" y="-168.5" font-family="Helvetica,sans-Serif" font-size="10.00">stxxl::mmap_file</text>
</a>
</g>
<!-- Node1&#45;&gt;Node7 -->
<g id="edge12" class="edge"><title>Node1&#45;&gt;Node7</title>
<path fill="none" stroke="midnightblue" d="M352.344,-159.993C365.551,-161.73 379.069,-163.509 391.281,-165.116"/>
<polygon fill="midnightblue" stroke="midnightblue" points="352.704,-156.51 342.332,-158.675 351.79,-163.45 352.704,-156.51"/>
</g>
<!-- Node8 -->
<g id="node15" class="node"><title>Node8</title>
<a xlink:href="classstxxl_1_1sim__disk__file.html" target="_top" xlink:title="Implementation of disk emulation. ">
<polygon fill="none" stroke="black" points="385.5,-120.5 385.5,-141.5 486.5,-141.5 486.5,-120.5 385.5,-120.5"/>
<text text-anchor="middle" x="436" y="-128.5" font-family="Helvetica,sans-Serif" font-size="10.00">stxxl::sim_disk_file</text>
</a>
</g>
<!-- Node1&#45;&gt;Node8 -->
<g id="edge14" class="edge"><title>Node1&#45;&gt;Node8</title>
<path fill="none" stroke="midnightblue" d="M352.336,-142.008C363.324,-140.563 374.528,-139.088 385.016,-137.708"/>
<polygon fill="midnightblue" stroke="midnightblue" points="351.79,-138.55 342.332,-143.325 352.704,-145.49 351.79,-138.55"/>
</g>
<!-- Node9 -->
<g id="node17" class="node"><title>Node9</title>
<a xlink:href="classstxxl_1_1syscall__file.html" target="_top" xlink:title="Implementation of file based on UNIX syscalls. ">
<polygon fill="none" stroke="black" points="390,-80.5 390,-101.5 482,-101.5 482,-80.5 390,-80.5"/>
<text text-anchor="middle" x="436" y="-88.5" font-family="Helvetica,sans-Serif" font-size="10.00">stxxl::syscall_file</text>
</a>
</g>
<!-- Node1&#45;&gt;Node9 -->
<g id="edge16" class="edge"><title>Node1&#45;&gt;Node9</title>
<path fill="none" stroke="midnightblue" d="M317.184,-136.206C335.076,-128.4 357.608,-118.843 378,-111 386.351,-107.788 395.466,-104.531 403.945,-101.603"/>
<polygon fill="midnightblue" stroke="midnightblue" points="315.515,-133.116 307.765,-140.34 318.328,-139.526 315.515,-133.116"/>
</g>
<!-- Node10 -->
<g id="node19" class="node"><title>Node10</title>
<a xlink:href="classstxxl_1_1wbtl__file.html" target="_top" xlink:title="Implementation of file based on buffered writes and block remapping via a translation layer...">
<polygon fill="none" stroke="black" points="396,-40.5 396,-61.5 476,-61.5 476,-40.5 396,-40.5"/>
<text text-anchor="middle" x="436" y="-48.5" font-family="Helvetica,sans-Serif" font-size="10.00">stxxl::wbtl_file</text>
</a>
</g>
<!-- Node1&#45;&gt;Node10 -->
<g id="edge18" class="edge"><title>Node1&#45;&gt;Node10</title>
<path fill="none" stroke="midnightblue" d="M301.036,-133.001C318.79,-115.141 348.141,-88.0402 378,-71 384.383,-67.3573 391.539,-64.2252 398.587,-61.5933"/>
<polygon fill="midnightblue" stroke="midnightblue" points="298.211,-130.884 293.735,-140.487 303.223,-135.772 298.211,-130.884"/>
</g>
<!-- Node11 -->
<g id="node21" class="node"><title>Node11</title>
<a xlink:href="classstxxl_1_1wincall__file.html" target="_top" xlink:title="Implementation of file based on Windows native I/O calls. ">
<polygon fill="none" stroke="black" points="390,-0.5 390,-21.5 482,-21.5 482,-0.5 390,-0.5"/>
<text text-anchor="middle" x="436" y="-8.5" font-family="Helvetica,sans-Serif" font-size="10.00">stxxl::wincall_file</text>
</a>
</g>
<!-- Node1&#45;&gt;Node11 -->
<g id="edge20" class="edge"><title>Node1&#45;&gt;Node11</title>
<path fill="none" stroke="midnightblue" d="M294.572,-131.293C309.707,-104.856 339.971,-58.1019 378,-31 383.291,-27.2292 389.354,-24.1198 395.52,-21.5708"/>
<polygon fill="midnightblue" stroke="midnightblue" points="291.336,-129.909 289.527,-140.348 297.451,-133.316 291.336,-129.909"/>
</g>
<!-- Node2 -->
<g id="node2" class="node"><title>Node2</title>
<a xlink:href="classstxxl_1_1file.html" target="_top" xlink:title="Defines interface of file. ">
<polygon fill="none" stroke="black" points="134,-140.5 134,-161.5 190,-161.5 190,-140.5 134,-140.5"/>
<text text-anchor="middle" x="162" y="-148.5" font-family="Helvetica,sans-Serif" font-size="10.00">stxxl::file</text>
</a>
</g>
<!-- Node2&#45;&gt;Node1 -->
<g id="edge2" class="edge"><title>Node2&#45;&gt;Node1</title>
<path fill="none" stroke="midnightblue" d="M200.408,-151C208.407,-151 217.01,-151 225.546,-151"/>
<polygon fill="midnightblue" stroke="midnightblue" points="200.296,-147.5 190.296,-151 200.296,-154.5 200.296,-147.5"/>
</g>
<!-- Node3 -->
<g id="node4" class="node"><title>Node3</title>
<a xlink:href="classstxxl_1_1noncopyable.html" target="_top" xlink:title="stxxl::noncopyable">
<polygon fill="none" stroke="black" points="0,-140.5 0,-161.5 98,-161.5 98,-140.5 0,-140.5"/>
<text text-anchor="middle" x="49" y="-148.5" font-family="Helvetica,sans-Serif" font-size="10.00">stxxl::noncopyable</text>
</a>
</g>
<!-- Node3&#45;&gt;Node2 -->
<g id="edge4" class="edge"><title>Node3&#45;&gt;Node2</title>
<path fill="none" stroke="#8b1a1a" d="M108.243,-151C117.114,-151 125.895,-151 133.709,-151"/>
<polygon fill="#8b1a1a" stroke="#8b1a1a" points="108.235,-147.5 98.2347,-151 108.235,-154.5 108.235,-147.5"/>
</g>
</g>
</svg>
