<?xml version="1.0" encoding="UTF-8" standalone="no"?>
<!DOCTYPE svg PUBLIC "-//W3C//DTD SVG 1.1//EN"
 "http://www.w3.org/Graphics/SVG/1.1/DTD/svg11.dtd">
<!-- Generated by graphviz version 2.26.3 (20100126.1600)
 -->
<!-- Title: stxxl::stream::runs_creator&lt; Input, CompareType, BlockSize, AllocStr &gt; Pages: 1 -->
<svg width="788pt" height="84pt"
 viewBox="0.00 0.00 788.00 84.00" xmlns="http://www.w3.org/2000/svg" xmlns:xlink="http://www.w3.org/1999/xlink">
<g id="graph1" class="graph" transform="scale(1 1) rotate(0) translate(4 80)">
<title>stxxl::stream::runs_creator&lt; Input, CompareType, BlockSize, AllocStr &gt;</title>
<!-- Node1 -->
<g id="node1" class="node"><title>Node1</title>
<polygon fill="#bfbfbf" stroke="black" points="308.5,-13.5 308.5,-60.5 461.5,-60.5 461.5,-13.5 308.5,-13.5"/>
<text text-anchor="start" x="316.5" y="-47.5" font-family="Helvetica,sans-Serif" font-size="10.00">stxxl::stream::runs</text>
<text text-anchor="start" x="316.5" y="-34.5" font-family="Helvetica,sans-Serif" font-size="10.00">_creator&lt; Input, CompareType,</text>
<text text-anchor="middle" x="385" y="-21.5" font-family="Helvetica,sans-Serif" font-size="10.00"> BlockSize, AllocStr &gt;</text>
</g>
<!-- Node4 -->
<g id="node7" class="node"><title>Node4</title>
<a xlink:href="classstxxl_1_1stream_1_1runs__creator.html" target="_top" xlink:title="stxxl::stream::runs\l_creator\&lt; stream::use\l_push\&lt; ValueType \&gt;, cmp\l_type, block_size, alloc\l_strategy_type \&gt;">
<polygon fill="none" stroke="black" points="648,-0.5 648,-73.5 780,-73.5 780,-0.5 648,-0.5"/>
<text text-anchor="start" x="656" y="-60.5" font-family="Helvetica,sans-Serif" font-size="10.00">stxxl::stream::runs</text>
<text text-anchor="start" x="656" y="-47.5" font-family="Helvetica,sans-Serif" font-size="10.00">_creator&lt; stream::use</text>
<text text-anchor="start" x="656" y="-34.5" font-family="Helvetica,sans-Serif" font-size="10.00">_push&lt; ValueType &gt;, cmp</text>
<text text-anchor="start" x="656" y="-21.5" font-family="Helvetica,sans-Serif" font-size="10.00">_type, block_size, alloc</text>
<text text-anchor="middle" x="714" y="-8.5" font-family="Helvetica,sans-Serif" font-size="10.00">_strategy_type &gt;</text>
</a>
</g>
<!-- Node1&#45;&gt;Node4 -->
<g id="edge6" class="edge"><title>Node1&#45;&gt;Node4</title>
<path fill="none" stroke="orange" stroke-dasharray="5,2" d="M471.826,-37C526.928,-37 597.122,-37 647.737,-37"/>
<polygon fill="orange" stroke="orange" points="471.721,-33.5001 461.721,-37 471.721,-40.5001 471.721,-33.5001"/>
<text text-anchor="start" x="480" y="-67" font-family="Helvetica,sans-Serif" font-size="10.00"> &lt; stream::use_push</text>
<text text-anchor="start" x="480" y="-54" font-family="Helvetica,sans-Serif" font-size="10.00">&lt; ValueType &gt;, cmp_type,</text>
<text text-anchor="middle" x="555" y="-41" font-family="Helvetica,sans-Serif" font-size="10.00"> block_size, alloc_strategy_type &gt;</text>
</g>
<!-- Node2 -->
<g id="node2" class="node"><title>Node2</title>
<a xlink:href="classstxxl_1_1stream_1_1basic__runs__creator.html" target="_top" xlink:title="Forms sorted runs of data from a stream. ">
<polygon fill="none" stroke="black" points="136,-7 136,-67 270,-67 270,-7 136,-7"/>
<text text-anchor="start" x="144" y="-54" font-family="Helvetica,sans-Serif" font-size="10.00">stxxl::stream::basic</text>
<text text-anchor="start" x="144" y="-41" font-family="Helvetica,sans-Serif" font-size="10.00">_runs_creator&lt; Input,</text>
<text text-anchor="start" x="144" y="-28" font-family="Helvetica,sans-Serif" font-size="10.00"> CompareType, BlockSize,</text>
<text text-anchor="middle" x="203" y="-15" font-family="Helvetica,sans-Serif" font-size="10.00"> AllocStr &gt;</text>
</a>
</g>
<!-- Node2&#45;&gt;Node1 -->
<g id="edge2" class="edge"><title>Node2&#45;&gt;Node1</title>
<path fill="none" stroke="midnightblue" d="M280.507,-37C289.678,-37 299.036,-37 308.197,-37"/>
<polygon fill="midnightblue" stroke="midnightblue" points="280.253,-33.5001 270.253,-37 280.253,-40.5001 280.253,-33.5001"/>
</g>
<!-- Node3 -->
<g id="node4" class="node"><title>Node3</title>
<a xlink:href="classstxxl_1_1noncopyable.html" target="_top" xlink:title="stxxl::noncopyable">
<polygon fill="none" stroke="black" points="0,-26.5 0,-47.5 98,-47.5 98,-26.5 0,-26.5"/>
<text text-anchor="middle" x="49" y="-34.5" font-family="Helvetica,sans-Serif" font-size="10.00">stxxl::noncopyable</text>
</a>
</g>
<!-- Node3&#45;&gt;Node2 -->
<g id="edge4" class="edge"><title>Node3&#45;&gt;Node2</title>
<path fill="none" stroke="#8b1a1a" d="M108.175,-37C117.209,-37 126.59,-37 135.782,-37"/>
<polygon fill="#8b1a1a" stroke="#8b1a1a" points="108.15,-33.5001 98.15,-37 108.15,-40.5001 108.15,-33.5001"/>
</g>
</g>
</svg>
