<?xml version="1.0" encoding="UTF-8" standalone="no"?>
<!DOCTYPE svg PUBLIC "-//W3C//DTD SVG 1.1//EN"
 "http://www.w3.org/Graphics/SVG/1.1/DTD/svg11.dtd">
<!-- Generated by graphviz version 2.26.3 (20100126.1600)
 -->
<!-- Title: stxxl::matrix_swappable_block&lt; ValueType, BlockSideLength &gt; Pages: 1 -->
<svg width="223pt" height="240pt"
 viewBox="0.00 0.00 223.00 240.00" xmlns="http://www.w3.org/2000/svg" xmlns:xlink="http://www.w3.org/1999/xlink">
<g id="graph1" class="graph" transform="scale(1 1) rotate(0) translate(4 236)">
<title>stxxl::matrix_swappable_block&lt; ValueType, BlockSideLength &gt;</title>
<!-- Node1 -->
<g id="node1" class="node"><title>Node1</title>
<polygon fill="#bfbfbf" stroke="black" points="0.5,-0.5 0.5,-47.5 151.5,-47.5 151.5,-0.5 0.5,-0.5"/>
<text text-anchor="start" x="8.5" y="-34.5" font-family="Helvetica,sans-Serif" font-size="10.00">stxxl::matrix_swappable</text>
<text text-anchor="start" x="8.5" y="-21.5" font-family="Helvetica,sans-Serif" font-size="10.00">_block&lt; ValueType, BlockSide</text>
<text text-anchor="middle" x="76" y="-8.5" font-family="Helvetica,sans-Serif" font-size="10.00">Length &gt;</text>
</g>
<!-- Node2 -->
<g id="node2" class="node"><title>Node2</title>
<a xlink:href="classstxxl_1_1swappable__block.html" target="_top" xlink:title="stxxl::swappable_block\l\&lt; ValueType, BlockSideLength\l *BlockSideLength \&gt;">
<polygon fill="none" stroke="black" points="0,-86.5 0,-133.5 152,-133.5 152,-86.5 0,-86.5"/>
<text text-anchor="start" x="8" y="-120.5" font-family="Helvetica,sans-Serif" font-size="10.00">stxxl::swappable_block</text>
<text text-anchor="start" x="8" y="-107.5" font-family="Helvetica,sans-Serif" font-size="10.00">&lt; ValueType, BlockSideLength</text>
<text text-anchor="middle" x="76" y="-94.5" font-family="Helvetica,sans-Serif" font-size="10.00"> *BlockSideLength &gt;</text>
</a>
</g>
<!-- Node2&#45;&gt;Node1 -->
<g id="edge2" class="edge"><title>Node2&#45;&gt;Node1</title>
<path fill="none" stroke="midnightblue" d="M76,-76.027C76,-66.4836 76,-56.319 76,-47.5301"/>
<polygon fill="midnightblue" stroke="midnightblue" points="72.5001,-76.0442 76,-86.0442 79.5001,-76.0442 72.5001,-76.0442"/>
</g>
<!-- Node3 -->
<g id="node4" class="node"><title>Node3</title>
<a xlink:href="classstxxl_1_1swappable__block.html" target="_top" xlink:title="Virtualization of a block of data. Holds information for allocating and swapping. To use in cooperati...">
<polygon fill="none" stroke="black" points="10.5,-197 10.5,-231 141.5,-231 141.5,-197 10.5,-197"/>
<text text-anchor="start" x="18.5" y="-218" font-family="Helvetica,sans-Serif" font-size="10.00">stxxl::swappable_block</text>
<text text-anchor="middle" x="76" y="-205" font-family="Helvetica,sans-Serif" font-size="10.00">&lt; ValueType, BlockSize &gt;</text>
</a>
</g>
<!-- Node3&#45;&gt;Node2 -->
<g id="edge4" class="edge"><title>Node3&#45;&gt;Node2</title>
<path fill="none" stroke="orange" stroke-dasharray="5,2" d="M76,-186.745C76,-170.315 76,-149.586 76,-133.815"/>
<polygon fill="orange" stroke="orange" points="72.5001,-186.826 76,-196.827 79.5001,-186.827 72.5001,-186.826"/>
<text text-anchor="start" x="76" y="-169" font-family="Helvetica,sans-Serif" font-size="10.00"> &lt; ValueType, BlockSideLength</text>
<text text-anchor="middle" x="145.5" y="-156" font-family="Helvetica,sans-Serif" font-size="10.00"> *BlockSideLength &gt;</text>
</g>
</g>
</svg>
