<?xml version="1.0" encoding="UTF-8" standalone="no"?>
<!DOCTYPE svg PUBLIC "-//W3C//DTD SVG 1.1//EN"
 "http://www.w3.org/Graphics/SVG/1.1/DTD/svg11.dtd">
<!-- Generated by graphviz version 2.26.3 (20100126.1600)
 -->
<!-- Title: stxxl::const_matrix_iterator&lt; ValueType, BlockSideLength &gt; Pages: 1 -->
<svg width="316pt" height="122pt"
 viewBox="0.00 0.00 316.00 122.00" xmlns="http://www.w3.org/2000/svg" xmlns:xlink="http://www.w3.org/1999/xlink">
<g id="graph1" class="graph" transform="scale(1 1) rotate(0) translate(4 118)">
<title>stxxl::const_matrix_iterator&lt; ValueType, BlockSideLength &gt;</title>
<!-- Node1 -->
<g id="node1" class="node"><title>Node1</title>
<polygon fill="#bfbfbf" stroke="black" points="0,-33.5 0,-80.5 110,-80.5 110,-33.5 0,-33.5"/>
<text text-anchor="start" x="8" y="-67.5" font-family="Helvetica,sans-Serif" font-size="10.00">stxxl::const_matrix</text>
<text text-anchor="start" x="8" y="-54.5" font-family="Helvetica,sans-Serif" font-size="10.00">_iterator&lt; ValueType,</text>
<text text-anchor="middle" x="55" y="-41.5" font-family="Helvetica,sans-Serif" font-size="10.00"> BlockSideLength &gt;</text>
</g>
<!-- Node2 -->
<g id="node3" class="node"><title>Node2</title>
<a xlink:href="classstxxl_1_1const__matrix__col__major__iterator.html" target="_top" xlink:title="column&#45;major const_iterator that points to single elements inside a matrix ">
<polygon fill="none" stroke="black" points="146.5,-66.5 146.5,-113.5 307.5,-113.5 307.5,-66.5 146.5,-66.5"/>
<text text-anchor="start" x="154.5" y="-100.5" font-family="Helvetica,sans-Serif" font-size="10.00">stxxl::const_matrix</text>
<text text-anchor="start" x="154.5" y="-87.5" font-family="Helvetica,sans-Serif" font-size="10.00">_col_major_iterator</text>
<text text-anchor="middle" x="227" y="-74.5" font-family="Helvetica,sans-Serif" font-size="10.00">&lt; ValueType, BlockSideLength &gt;</text>
</a>
</g>
<!-- Node1&#45;&gt;Node2 -->
<g id="edge2" class="edge"><title>Node1&#45;&gt;Node2</title>
<path fill="none" stroke="midnightblue" d="M120.241,-69.5171C128.782,-71.1559 137.615,-72.8505 146.373,-74.5308"/>
<polygon fill="midnightblue" stroke="midnightblue" points="120.849,-66.0701 110.369,-67.6231 119.53,-72.9447 120.849,-66.0701"/>
</g>
<!-- Node3 -->
<g id="node5" class="node"><title>Node3</title>
<a xlink:href="classstxxl_1_1const__matrix__row__major__iterator.html" target="_top" xlink:title="row&#45;major const_iterator that points to single elements inside a matrix ">
<polygon fill="none" stroke="black" points="146.5,-0.5 146.5,-47.5 307.5,-47.5 307.5,-0.5 146.5,-0.5"/>
<text text-anchor="start" x="154.5" y="-34.5" font-family="Helvetica,sans-Serif" font-size="10.00">stxxl::const_matrix</text>
<text text-anchor="start" x="154.5" y="-21.5" font-family="Helvetica,sans-Serif" font-size="10.00">_row_major_iterator</text>
<text text-anchor="middle" x="227" y="-8.5" font-family="Helvetica,sans-Serif" font-size="10.00">&lt; ValueType, BlockSideLength &gt;</text>
</a>
</g>
<!-- Node1&#45;&gt;Node3 -->
<g id="edge4" class="edge"><title>Node1&#45;&gt;Node3</title>
<path fill="none" stroke="midnightblue" d="M120.241,-44.4829C128.782,-42.8441 137.615,-41.1495 146.373,-39.4692"/>
<polygon fill="midnightblue" stroke="midnightblue" points="119.53,-41.0553 110.369,-46.3769 120.849,-47.9299 119.53,-41.0553"/>
</g>
</g>
</svg>
