<?xml version="1.0" encoding="UTF-8" standalone="no"?>
<!DOCTYPE svg PUBLIC "-//W3C//DTD SVG 1.1//EN"
 "http://www.w3.org/Graphics/SVG/1.1/DTD/svg11.dtd">
<!-- Generated by graphviz version 2.26.3 (20100126.1600)
 -->
<!-- Title: stxxl::stream::runs_creator&lt; use_push&lt; ValueType_ &gt;, CompareType_, BlockSize_, AllocStr_ &gt; Pages: 1 -->
<svg width="3338pt" height="452pt"
 viewBox="0.00 0.00 3338.00 452.00" xmlns="http://www.w3.org/2000/svg" xmlns:xlink="http://www.w3.org/1999/xlink">
<g id="graph1" class="graph" transform="scale(1 1) rotate(0) translate(4 448)">
<title>stxxl::stream::runs_creator&lt; use_push&lt; ValueType_ &gt;, CompareType_, BlockSize_, AllocStr_ &gt;</title>
<!-- Node1 -->
<g id="node1" class="node"><title>Node1</title>
<polygon fill="#bfbfbf" stroke="black" points="3182,-74 3182,-134 3330,-134 3330,-74 3182,-74"/>
<text text-anchor="start" x="3190" y="-121" font-family="Helvetica,sans-Serif" font-size="10.00">stxxl::stream::runs</text>
<text text-anchor="start" x="3190" y="-108" font-family="Helvetica,sans-Serif" font-size="10.00">_creator&lt; use_push&lt;</text>
<text text-anchor="start" x="3190" y="-95" font-family="Helvetica,sans-Serif" font-size="10.00"> ValueType_ &gt;, CompareType</text>
<text text-anchor="middle" x="3256" y="-82" font-family="Helvetica,sans-Serif" font-size="10.00">_, BlockSize_, AllocStr_ &gt;</text>
</g>
<!-- Node2 -->
<g id="node2" class="node"><title>Node2</title>
<a xlink:href="classstxxl_1_1noncopyable.html" target="_top" xlink:title="stxxl::noncopyable">
<polygon fill="none" stroke="black" points="11,-386.5 11,-407.5 109,-407.5 109,-386.5 11,-386.5"/>
<text text-anchor="middle" x="60" y="-394.5" font-family="Helvetica,sans-Serif" font-size="10.00">stxxl::noncopyable</text>
</a>
</g>
<!-- Node2&#45;&gt;Node1 -->
<g id="edge2" class="edge"><title>Node2&#45;&gt;Node1</title>
<path fill="none" stroke="#8b1a1a" d="M103.735,-410.328C153.276,-424.224 236.663,-444 310,-444 310,-444 310,-444 3027,-444 3175.74,-444 3234.25,-217.383 3250.72,-134.173"/>
<polygon fill="#8b1a1a" stroke="#8b1a1a" points="104.569,-406.926 93.9923,-407.548 102.648,-413.657 104.569,-406.926"/>
</g>
<!-- Node4 -->
<g id="node6" class="node"><title>Node4</title>
<a xlink:href="structstxxl_1_1stream_1_1sorted__runs.html" target="_top" xlink:title="All sorted runs of a sort operation. ">
<polygon fill="none" stroke="black" points="742,-228.5 742,-275.5 870,-275.5 870,-228.5 742,-228.5"/>
<text text-anchor="start" x="750" y="-262.5" font-family="Helvetica,sans-Serif" font-size="10.00">stxxl::stream::sorted</text>
<text text-anchor="start" x="750" y="-249.5" font-family="Helvetica,sans-Serif" font-size="10.00">_runs&lt; TriggerEntryType,</text>
<text text-anchor="middle" x="806" y="-236.5" font-family="Helvetica,sans-Serif" font-size="10.00"> CompareType &gt;</text>
</a>
</g>
<!-- Node2&#45;&gt;Node4 -->
<g id="edge8" class="edge"><title>Node2&#45;&gt;Node4</title>
<path fill="none" stroke="#8b1a1a" d="M99.0146,-383.199C111.404,-379.031 125.209,-374.608 138,-371 187.182,-357.127 199.883,-354.983 250,-345 250.409,-344.919 723.589,-266.069 724,-266 729.839,-265.015 735.911,-263.986 741.991,-262.953"/>
<polygon fill="#8b1a1a" stroke="#8b1a1a" points="97.765,-379.927 89.4289,-386.466 100.023,-386.553 97.765,-379.927"/>
</g>
<!-- Node16 -->
<g id="node32" class="node"><title>Node16</title>
<a xlink:href="classstxxl_1_1file.html" target="_top" xlink:title="Defines interface of file. ">
<polygon fill="none" stroke="black" points="778,-360.5 778,-381.5 834,-381.5 834,-360.5 778,-360.5"/>
<text text-anchor="middle" x="806" y="-368.5" font-family="Helvetica,sans-Serif" font-size="10.00">stxxl::file</text>
</a>
</g>
<!-- Node2&#45;&gt;Node16 -->
<g id="edge36" class="edge"><title>Node2&#45;&gt;Node16</title>
<path fill="none" stroke="#8b1a1a" d="M119.36,-396.338C224.37,-395.086 449.768,-392.036 640,-387 677.344,-386.011 686.817,-387.598 724,-384 741.934,-382.265 761.904,-379.125 777.647,-376.365"/>
<polygon fill="#8b1a1a" stroke="#8b1a1a" points="119.234,-392.839 109.276,-396.457 119.317,-399.839 119.234,-392.839"/>
</g>
<!-- Node18 -->
<g id="node37" class="node"><title>Node18</title>
<a xlink:href="classstxxl_1_1mutex.html" target="_top" xlink:title="stxxl::mutex">
<polygon fill="none" stroke="black" points="274.5,-354.5 274.5,-375.5 345.5,-375.5 345.5,-354.5 274.5,-354.5"/>
<text text-anchor="middle" x="310" y="-362.5" font-family="Helvetica,sans-Serif" font-size="10.00">stxxl::mutex</text>
</a>
</g>
<!-- Node2&#45;&gt;Node18 -->
<g id="edge42" class="edge"><title>Node2&#45;&gt;Node18</title>
<path fill="none" stroke="#8b1a1a" d="M119.093,-389.436C167.33,-383.262 233.906,-374.74 274.346,-369.564"/>
<polygon fill="#8b1a1a" stroke="#8b1a1a" points="118.568,-385.975 109.094,-390.716 119.457,-392.918 118.568,-385.975"/>
</g>
<!-- Node3 -->
<g id="node4" class="node"><title>Node3</title>
<a xlink:href="classstxxl_1_1counting__ptr.html" target="_top" xlink:title="stxxl::counting_ptr\l\&lt; sorted_runs_data_type \&gt;">
<polygon fill="none" stroke="black" points="2960,-60 2960,-94 3094,-94 3094,-60 2960,-60"/>
<text text-anchor="start" x="2968" y="-81" font-family="Helvetica,sans-Serif" font-size="10.00">stxxl::counting_ptr</text>
<text text-anchor="middle" x="3027" y="-68" font-family="Helvetica,sans-Serif" font-size="10.00">&lt; sorted_runs_data_type &gt;</text>
</a>
</g>
<!-- Node3&#45;&gt;Node1 -->
<g id="edge4" class="edge"><title>Node3&#45;&gt;Node1</title>
<path fill="none" stroke="#9a32cd" stroke-dasharray="5,2" d="M3104.37,-83.5734C3123.86,-85.44 3144.72,-87.6198 3164,-90 3169.77,-90.7125 3175.74,-91.5015 3181.74,-92.3313"/>
<polygon fill="#9a32cd" stroke="#9a32cd" points="3104.61,-80.0801 3094.33,-82.6264 3103.95,-87.0493 3104.61,-80.0801"/>
<text text-anchor="middle" x="3138" y="-94" font-family="Helvetica,sans-Serif" font-size="10.00"> m_result</text>
</g>
<!-- Node4&#45;&gt;Node3 -->
<g id="edge6" class="edge"><title>Node4&#45;&gt;Node3</title>
<path fill="none" stroke="#9a32cd" stroke-dasharray="5,2" d="M821.988,-219.459C849.413,-168.843 910.538,-77 993,-77 993,-77 993,-77 2756,-77 2825.51,-77 2905.06,-77 2959.9,-77"/>
<polygon fill="#9a32cd" stroke="#9a32cd" points="818.841,-217.922 817.262,-228.399 825.03,-221.194 818.841,-217.922"/>
<text text-anchor="middle" x="1818" y="-81" font-family="Helvetica,sans-Serif" font-size="10.00"> m_ptr</text>
</g>
<!-- Node5 -->
<g id="node9" class="node"><title>Node5</title>
<a xlink:href="classstxxl_1_1counted__object.html" target="_top" xlink:title="Provides reference counting abilities for use with counting_ptr. ">
<polygon fill="none" stroke="black" points="528,-241.5 528,-262.5 638,-262.5 638,-241.5 528,-241.5"/>
<text text-anchor="middle" x="583" y="-249.5" font-family="Helvetica,sans-Serif" font-size="10.00">stxxl::counted_object</text>
</a>
</g>
<!-- Node5&#45;&gt;Node4 -->
<g id="edge10" class="edge"><title>Node5&#45;&gt;Node4</title>
<path fill="none" stroke="midnightblue" d="M648.292,-252C677.704,-252 712.326,-252 741.628,-252"/>
<polygon fill="midnightblue" stroke="midnightblue" points="648.124,-248.5 638.124,-252 648.124,-255.5 648.124,-248.5"/>
</g>
<!-- Node6 -->
<g id="node11" class="node"><title>Node6</title>
<a xlink:href="structstxxl_1_1choose__int__types.html" target="_top" xlink:title="stxxl::choose_int_types\l\&lt; my_pointer_size \&gt;">
<polygon fill="none" stroke="black" points="250,-245 250,-279 370,-279 370,-245 250,-245"/>
<text text-anchor="start" x="258" y="-266" font-family="Helvetica,sans-Serif" font-size="10.00">stxxl::choose_int_types</text>
<text text-anchor="middle" x="310" y="-253" font-family="Helvetica,sans-Serif" font-size="10.00">&lt; my_pointer_size &gt;</text>
</a>
</g>
<!-- Node6&#45;&gt;Node5 -->
<g id="edge12" class="edge"><title>Node6&#45;&gt;Node5</title>
<path fill="none" stroke="#9a32cd" stroke-dasharray="5,2" d="M380.389,-253.521C382.957,-253.325 385.5,-253.15 388,-253 435.142,-250.168 488.81,-250.125 527.893,-250.673"/>
<polygon fill="#9a32cd" stroke="#9a32cd" points="380.078,-250.034 370.41,-254.367 380.67,-257.009 380.078,-250.034"/>
<text text-anchor="middle" x="448" y="-257" font-family="Helvetica,sans-Serif" font-size="10.00"> m_reference_count</text>
</g>
<!-- Node17 -->
<g id="node35" class="node"><title>Node17</title>
<a xlink:href="classstxxl_1_1atomic__counted__object.html" target="_top" xlink:title="Provides reference counting abilities for use with counting_ptr with mutex locking. ">
<polygon fill="none" stroke="black" points="526.5,-344 526.5,-378 639.5,-378 639.5,-344 526.5,-344"/>
<text text-anchor="start" x="534.5" y="-365" font-family="Helvetica,sans-Serif" font-size="10.00">stxxl::atomic_counted</text>
<text text-anchor="middle" x="583" y="-352" font-family="Helvetica,sans-Serif" font-size="10.00">_object</text>
</a>
</g>
<!-- Node6&#45;&gt;Node17 -->
<g id="edge44" class="edge"><title>Node6&#45;&gt;Node17</title>
<path fill="none" stroke="#9a32cd" stroke-dasharray="5,2" d="M366.629,-282.536C416.662,-300.68 488.782,-326.833 535.768,-343.872"/>
<polygon fill="#9a32cd" stroke="#9a32cd" points="367.525,-279.138 356.93,-279.019 365.138,-285.718 367.525,-279.138"/>
<text text-anchor="middle" x="448" y="-335" font-family="Helvetica,sans-Serif" font-size="10.00"> m_reference_count</text>
</g>
<!-- Node7 -->
<g id="node13" class="node"><title>Node7</title>
<a xlink:href="structstxxl_1_1choose__int__types.html" target="_top" xlink:title="stxxl::choose_int_types\l\&lt; PtrSize \&gt;">
<polygon fill="none" stroke="black" points="0,-245 0,-279 120,-279 120,-245 0,-245"/>
<text text-anchor="start" x="8" y="-266" font-family="Helvetica,sans-Serif" font-size="10.00">stxxl::choose_int_types</text>
<text text-anchor="middle" x="60" y="-253" font-family="Helvetica,sans-Serif" font-size="10.00">&lt; PtrSize &gt;</text>
</a>
</g>
<!-- Node7&#45;&gt;Node6 -->
<g id="edge14" class="edge"><title>Node7&#45;&gt;Node6</title>
<path fill="none" stroke="orange" stroke-dasharray="5,2" d="M130.578,-262C168.196,-262 213.985,-262 249.89,-262"/>
<polygon fill="orange" stroke="orange" points="130.199,-258.5 120.199,-262 130.199,-265.5 130.199,-258.5"/>
<text text-anchor="middle" x="185" y="-266" font-family="Helvetica,sans-Serif" font-size="10.00"> &lt; my_pointer_size &gt;</text>
</g>
<!-- Node8 -->
<g id="node15" class="node"><title>Node8</title>
<a xlink:href="classstxxl_1_1counting__ptr.html" target="_top" xlink:title="High&#45;performance smart pointer used as a wrapping reference counting pointer. ">
<polygon fill="none" stroke="black" points="2707.5,-0 2707.5,-34 2804.5,-34 2804.5,-0 2707.5,-0"/>
<text text-anchor="start" x="2715.5" y="-21" font-family="Helvetica,sans-Serif" font-size="10.00">stxxl::counting_ptr</text>
<text text-anchor="middle" x="2756" y="-8" font-family="Helvetica,sans-Serif" font-size="10.00">&lt; Type &gt;</text>
</a>
</g>
<!-- Node8&#45;&gt;Node1 -->
<g id="edge18" class="edge"><title>Node8&#45;&gt;Node1</title>
<path fill="none" stroke="#9a32cd" stroke-dasharray="5,2" d="M2814.66,-13.771C2882.95,-11.5756 2998.58,-12.7347 3094,-38 3127.61,-46.9009 3163.57,-61.0427 3193.04,-73.9567"/>
<polygon fill="#9a32cd" stroke="#9a32cd" points="2814.39,-10.2782 2804.52,-14.1329 2814.64,-17.2738 2814.39,-10.2782"/>
<text text-anchor="middle" x="3027" y="-42" font-family="Helvetica,sans-Serif" font-size="10.00"> m_write_reqs</text>
</g>
<!-- Node8&#45;&gt;Node3 -->
<g id="edge16" class="edge"><title>Node8&#45;&gt;Node3</title>
<path fill="none" stroke="orange" stroke-dasharray="5,2" d="M2814.75,-18.335C2851.83,-20.3914 2900.41,-25.334 2942,-37 2961,-42.3299 2981.03,-51.5575 2996.87,-59.8076"/>
<polygon fill="orange" stroke="orange" points="2814.78,-14.8319 2804.62,-17.8283 2814.43,-21.8232 2814.78,-14.8319"/>
<text text-anchor="start" x="2854" y="-54" font-family="Helvetica,sans-Serif" font-size="10.00"> &lt; sorted_runs_data</text>
<text text-anchor="middle" x="2898" y="-41" font-family="Helvetica,sans-Serif" font-size="10.00">_type &gt;</text>
</g>
<!-- Node9 -->
<g id="node18" class="node"><title>Node9</title>
<a xlink:href="classstxxl_1_1typed__block.html" target="_top" xlink:title="Block containing elements of fixed length. ">
<polygon fill="none" stroke="black" points="2964.5,-112.5 2964.5,-159.5 3089.5,-159.5 3089.5,-112.5 2964.5,-112.5"/>
<text text-anchor="start" x="2972.5" y="-146.5" font-family="Helvetica,sans-Serif" font-size="10.00">stxxl::typed_block</text>
<text text-anchor="start" x="2972.5" y="-133.5" font-family="Helvetica,sans-Serif" font-size="10.00">&lt; RawSize, Type, NRef,</text>
<text text-anchor="middle" x="3027" y="-120.5" font-family="Helvetica,sans-Serif" font-size="10.00"> MetaInfoType &gt;</text>
</a>
</g>
<!-- Node9&#45;&gt;Node1 -->
<g id="edge20" class="edge"><title>Node9&#45;&gt;Node1</title>
<path fill="none" stroke="#9a32cd" stroke-dasharray="5,2" d="M3099.79,-125.828C3125.94,-122.175 3155.44,-118.052 3181.71,-114.381"/>
<polygon fill="#9a32cd" stroke="#9a32cd" points="3098.99,-122.406 3089.58,-127.256 3099.96,-129.338 3098.99,-122.406"/>
<text text-anchor="middle" x="3138" y="-141" font-family="Helvetica,sans-Serif" font-size="10.00"> m_blocks1</text>
<text text-anchor="middle" x="3138" y="-128" font-family="Helvetica,sans-Serif" font-size="10.00">m_blocks2</text>
</g>
<!-- Node10 -->
<g id="node20" class="node"><title>Node10</title>
<a xlink:href="classstxxl_1_1mng__local_1_1expand__struct.html" target="_top" xlink:title="stxxl::mng_local::expand\l_struct\&lt; mng_local::block\l_w_info\&lt; Type, RawSize, NRef,\l MetaInfoType \&gt;, RawSize \&gt;">
<polygon fill="none" stroke="black" points="2676.5,-106 2676.5,-166 2835.5,-166 2835.5,-106 2676.5,-106"/>
<text text-anchor="start" x="2684.5" y="-153" font-family="Helvetica,sans-Serif" font-size="10.00">stxxl::mng_local::expand</text>
<text text-anchor="start" x="2684.5" y="-140" font-family="Helvetica,sans-Serif" font-size="10.00">_struct&lt; mng_local::block</text>
<text text-anchor="start" x="2684.5" y="-127" font-family="Helvetica,sans-Serif" font-size="10.00">_w_info&lt; Type, RawSize, NRef,</text>
<text text-anchor="middle" x="2756" y="-114" font-family="Helvetica,sans-Serif" font-size="10.00"> MetaInfoType &gt;, RawSize &gt;</text>
</a>
</g>
<!-- Node10&#45;&gt;Node9 -->
<g id="edge22" class="edge"><title>Node10&#45;&gt;Node9</title>
<path fill="none" stroke="midnightblue" d="M2846.1,-136C2884.92,-136 2929.36,-136 2964.48,-136"/>
<polygon fill="midnightblue" stroke="midnightblue" points="2845.84,-132.5 2835.84,-136 2845.84,-139.5 2845.84,-132.5"/>
</g>
<!-- Node11 -->
<g id="node22" class="node"><title>Node11</title>
<a xlink:href="classstxxl_1_1mng__local_1_1add__filler.html" target="_top" xlink:title="stxxl::mng_local::add\l_filler\&lt; mng_local::block\l_w_info\&lt; Type, RawSize,\l NRef, MetaInfoType \&gt;, RawSize\l&#45;sizeof(mng_local::block_w_info\l\&lt; Type, RawSize, NRef, MetaInfoType \&gt;)\&gt;">
<polygon fill="none" stroke="black" points="2320,-215 2320,-301 2526,-301 2526,-215 2320,-215"/>
<text text-anchor="start" x="2328" y="-288" font-family="Helvetica,sans-Serif" font-size="10.00">stxxl::mng_local::add</text>
<text text-anchor="start" x="2328" y="-275" font-family="Helvetica,sans-Serif" font-size="10.00">_filler&lt; mng_local::block</text>
<text text-anchor="start" x="2328" y="-262" font-family="Helvetica,sans-Serif" font-size="10.00">_w_info&lt; Type, RawSize,</text>
<text text-anchor="start" x="2328" y="-249" font-family="Helvetica,sans-Serif" font-size="10.00"> NRef, MetaInfoType &gt;, RawSize</text>
<text text-anchor="start" x="2328" y="-236" font-family="Helvetica,sans-Serif" font-size="10.00">&#45;sizeof(mng_local::block_w_info</text>
<text text-anchor="middle" x="2423" y="-223" font-family="Helvetica,sans-Serif" font-size="10.00">&lt; Type, RawSize, NRef, MetaInfoType &gt;)&gt;</text>
</a>
</g>
<!-- Node11&#45;&gt;Node10 -->
<g id="edge24" class="edge"><title>Node11&#45;&gt;Node10</title>
<path fill="none" stroke="midnightblue" d="M2535.96,-232.29C2575.3,-221.77 2619.26,-208.218 2658,-192 2675.17,-184.811 2693.09,-175.246 2708.85,-166.058"/>
<polygon fill="midnightblue" stroke="midnightblue" points="2534.84,-228.965 2526.07,-234.899 2536.63,-235.733 2534.84,-228.965"/>
</g>
<!-- Node12 -->
<g id="node24" class="node"><title>Node12</title>
<a xlink:href="classstxxl_1_1mng__local_1_1block__w__info.html" target="_top" xlink:title="stxxl::mng_local::block\l_w_info\&lt; Type, RawSize,\l NRef, MetaInfoType \&gt;">
<polygon fill="none" stroke="black" points="2145,-330.5 2145,-377.5 2275,-377.5 2275,-330.5 2145,-330.5"/>
<text text-anchor="start" x="2153" y="-364.5" font-family="Helvetica,sans-Serif" font-size="10.00">stxxl::mng_local::block</text>
<text text-anchor="start" x="2153" y="-351.5" font-family="Helvetica,sans-Serif" font-size="10.00">_w_info&lt; Type, RawSize,</text>
<text text-anchor="middle" x="2210" y="-338.5" font-family="Helvetica,sans-Serif" font-size="10.00"> NRef, MetaInfoType &gt;</text>
</a>
</g>
<!-- Node12&#45;&gt;Node11 -->
<g id="edge26" class="edge"><title>Node12&#45;&gt;Node11</title>
<path fill="none" stroke="midnightblue" d="M2278.07,-326.38C2286.16,-322.95 2294.29,-319.439 2302,-316 2312.64,-311.257 2323.74,-306.155 2334.71,-301.014"/>
<polygon fill="midnightblue" stroke="midnightblue" points="2276.47,-323.256 2268.61,-330.36 2279.18,-329.708 2276.47,-323.256"/>
</g>
<!-- Node13 -->
<g id="node26" class="node"><title>Node13</title>
<a xlink:href="classstxxl_1_1mng__local_1_1block__w__bids.html" target="_top" xlink:title="stxxl::mng_local::block\l_w_bids\&lt; Type,((RawSize\l&#45;sizeof(BID\&lt; RawSize \&gt;)*NBids\l&#45;sizeof(MetaInfoType))/sizeof\l(Type)), RawSize, NBids \&gt;">
<polygon fill="none" stroke="black" points="1628,-303.5 1628,-376.5 1786,-376.5 1786,-303.5 1628,-303.5"/>
<text text-anchor="start" x="1636" y="-363.5" font-family="Helvetica,sans-Serif" font-size="10.00">stxxl::mng_local::block</text>
<text text-anchor="start" x="1636" y="-350.5" font-family="Helvetica,sans-Serif" font-size="10.00">_w_bids&lt; Type,((RawSize</text>
<text text-anchor="start" x="1636" y="-337.5" font-family="Helvetica,sans-Serif" font-size="10.00">&#45;sizeof(BID&lt; RawSize &gt;)*NBids</text>
<text text-anchor="start" x="1636" y="-324.5" font-family="Helvetica,sans-Serif" font-size="10.00">&#45;sizeof(MetaInfoType))/sizeof</text>
<text text-anchor="middle" x="1707" y="-311.5" font-family="Helvetica,sans-Serif" font-size="10.00">(Type)), RawSize, NBids &gt;</text>
</a>
</g>
<!-- Node13&#45;&gt;Node12 -->
<g id="edge28" class="edge"><title>Node13&#45;&gt;Node12</title>
<path fill="none" stroke="midnightblue" d="M1796.23,-342.484C1896.25,-345.267 2056.01,-349.714 2144.91,-352.188"/>
<polygon fill="midnightblue" stroke="midnightblue" points="1796.24,-338.983 1786.15,-342.203 1796.05,-345.98 1796.24,-338.983"/>
</g>
<!-- Node21 -->
<g id="node48" class="node"><title>Node21</title>
<a xlink:href="classstxxl_1_1mng__local_1_1block__w__info.html" target="_top" xlink:title="Contains per block information for stxxl::typed_block , not intended for direct use. ">
<polygon fill="none" stroke="black" points="1855,-368.5 1855,-415.5 1985,-415.5 1985,-368.5 1855,-368.5"/>
<text text-anchor="start" x="1863" y="-402.5" font-family="Helvetica,sans-Serif" font-size="10.00">stxxl::mng_local::block</text>
<text text-anchor="start" x="1863" y="-389.5" font-family="Helvetica,sans-Serif" font-size="10.00">_w_info&lt; Type, RawSize,</text>
<text text-anchor="middle" x="1920" y="-376.5" font-family="Helvetica,sans-Serif" font-size="10.00"> NBids, MetaInfoType &gt;</text>
</a>
</g>
<!-- Node13&#45;&gt;Node21 -->
<g id="edge58" class="edge"><title>Node13&#45;&gt;Node21</title>
<path fill="none" stroke="midnightblue" d="M1795.91,-361.707C1815.62,-366.517 1836.15,-371.529 1854.7,-376.059"/>
<polygon fill="midnightblue" stroke="midnightblue" points="1796.56,-358.261 1786.01,-359.289 1794.9,-365.061 1796.56,-358.261"/>
</g>
<!-- Node14 -->
<g id="node28" class="node"><title>Node14</title>
<a xlink:href="classstxxl_1_1mng__local_1_1element__block.html" target="_top" xlink:title="Contains data elements for stxxl::typed_block , not intended for direct use. ">
<polygon fill="none" stroke="black" points="1142,-369 1142,-403 1270,-403 1270,-369 1142,-369"/>
<text text-anchor="start" x="1150" y="-390" font-family="Helvetica,sans-Serif" font-size="10.00">stxxl::mng_local::element</text>
<text text-anchor="middle" x="1206" y="-377" font-family="Helvetica,sans-Serif" font-size="10.00">_block&lt; Type, Size &gt;</text>
</a>
</g>
<!-- Node14&#45;&gt;Node13 -->
<g id="edge30" class="edge"><title>Node14&#45;&gt;Node13</title>
<path fill="none" stroke="midnightblue" d="M1280.13,-398.399C1362.18,-409.535 1497.67,-420.211 1610,-392 1623.53,-388.603 1637.23,-382.914 1649.9,-376.518"/>
<polygon fill="midnightblue" stroke="midnightblue" points="1280.54,-394.922 1270.15,-397.006 1279.57,-401.855 1280.54,-394.922"/>
</g>
<!-- Node20 -->
<g id="node44" class="node"><title>Node20</title>
<a xlink:href="classstxxl_1_1mng__local_1_1block__w__bids.html" target="_top" xlink:title="Contains BID references for stxxl::typed_block , not intended for direct use. ">
<polygon fill="none" stroke="black" points="1322,-324.5 1322,-371.5 1480,-371.5 1480,-324.5 1322,-324.5"/>
<text text-anchor="start" x="1330" y="-358.5" font-family="Helvetica,sans-Serif" font-size="10.00">stxxl::mng_local::block</text>
<text text-anchor="start" x="1330" y="-345.5" font-family="Helvetica,sans-Serif" font-size="10.00">_w_bids&lt; Type, Size, RawSize,</text>
<text text-anchor="middle" x="1401" y="-332.5" font-family="Helvetica,sans-Serif" font-size="10.00"> NBids &gt;</text>
</a>
</g>
<!-- Node14&#45;&gt;Node20 -->
<g id="edge52" class="edge"><title>Node14&#45;&gt;Node20</title>
<path fill="none" stroke="midnightblue" d="M1279.96,-371.587C1293.66,-368.917 1308.02,-366.12 1321.86,-363.421"/>
<polygon fill="midnightblue" stroke="midnightblue" points="1279.27,-368.157 1270.12,-373.505 1280.61,-375.027 1279.27,-368.157"/>
</g>
<!-- Node15 -->
<g id="node30" class="node"><title>Node15</title>
<a xlink:href="structstxxl_1_1BID.html" target="_top" xlink:title="stxxl::BID\&lt; raw_size \&gt;">
<polygon fill="none" stroke="black" points="1147,-328.5 1147,-349.5 1265,-349.5 1265,-328.5 1147,-328.5"/>
<text text-anchor="middle" x="1206" y="-336.5" font-family="Helvetica,sans-Serif" font-size="10.00">stxxl::BID&lt; raw_size &gt;</text>
</a>
</g>
<!-- Node15&#45;&gt;Node13 -->
<g id="edge32" class="edge"><title>Node15&#45;&gt;Node13</title>
<path fill="none" stroke="#9a32cd" stroke-dasharray="5,2" d="M1240.78,-324.796C1263.47,-316.311 1293.98,-306.36 1322,-302 1427.19,-285.63 1549.71,-304.098 1627.78,-320.539"/>
<polygon fill="#9a32cd" stroke="#9a32cd" points="1239.34,-321.599 1231.25,-328.443 1241.84,-328.137 1239.34,-321.599"/>
<text text-anchor="middle" x="1401" y="-306" font-family="Helvetica,sans-Serif" font-size="10.00"> ref</text>
</g>
<!-- Node15&#45;&gt;Node20 -->
<g id="edge54" class="edge"><title>Node15&#45;&gt;Node20</title>
<path fill="none" stroke="#9a32cd" stroke-dasharray="5,2" d="M1275.26,-342.196C1290.28,-342.89 1306.27,-343.628 1321.65,-344.337"/>
<polygon fill="#9a32cd" stroke="#9a32cd" points="1275.19,-338.69 1265.04,-341.725 1274.86,-345.682 1275.19,-338.69"/>
<text text-anchor="middle" x="1296" y="-347" font-family="Helvetica,sans-Serif" font-size="10.00"> ref</text>
</g>
<!-- Node16&#45;&gt;Node15 -->
<g id="edge34" class="edge"><title>Node16&#45;&gt;Node15</title>
<path fill="none" stroke="#9a32cd" stroke-dasharray="5,2" d="M844.051,-361.968C871.181,-355.961 908.616,-348.546 942,-345 1012.09,-337.556 1093.22,-336.889 1146.84,-337.544"/>
<polygon fill="#9a32cd" stroke="#9a32cd" points="843.173,-358.578 834.187,-364.19 844.712,-365.407 843.173,-358.578"/>
<text text-anchor="middle" x="993" y="-349" font-family="Helvetica,sans-Serif" font-size="10.00"> storage</text>
</g>
<!-- Node19 -->
<g id="node41" class="node"><title>Node19</title>
<a xlink:href="structstxxl_1_1BID.html" target="_top" xlink:title="Block identifier class. ">
<polygon fill="none" stroke="black" points="942.5,-367.5 942.5,-388.5 1043.5,-388.5 1043.5,-367.5 942.5,-367.5"/>
<text text-anchor="middle" x="993" y="-375.5" font-family="Helvetica,sans-Serif" font-size="10.00">stxxl::BID&lt; SIZE &gt;</text>
</a>
</g>
<!-- Node16&#45;&gt;Node19 -->
<g id="edge48" class="edge"><title>Node16&#45;&gt;Node19</title>
<path fill="none" stroke="#9a32cd" stroke-dasharray="5,2" d="M844.707,-372.449C873.019,-373.509 911.689,-374.956 942.441,-376.107"/>
<polygon fill="#9a32cd" stroke="#9a32cd" points="844.525,-368.94 834.401,-372.063 844.263,-375.935 844.525,-368.94"/>
<text text-anchor="middle" x="906" y="-379" font-family="Helvetica,sans-Serif" font-size="10.00"> storage</text>
</g>
<!-- Node17&#45;&gt;Node16 -->
<g id="edge38" class="edge"><title>Node17&#45;&gt;Node16</title>
<path fill="none" stroke="#9a32cd" stroke-dasharray="5,2" d="M649.623,-363.988C692.377,-365.905 745.696,-368.296 777.733,-369.732"/>
<polygon fill="#9a32cd" stroke="#9a32cd" points="649.707,-360.488 639.561,-363.536 649.394,-367.481 649.707,-360.488"/>
<text text-anchor="middle" x="691" y="-371" font-family="Helvetica,sans-Serif" font-size="10.00"> m_request_ref</text>
</g>
<!-- Node18&#45;&gt;Node17 -->
<g id="edge40" class="edge"><title>Node18&#45;&gt;Node17</title>
<path fill="none" stroke="#9a32cd" stroke-dasharray="5,2" d="M355.875,-364.328C402.83,-363.64 475.885,-362.569 526.403,-361.829"/>
<polygon fill="#9a32cd" stroke="#9a32cd" points="355.638,-360.831 345.69,-364.477 355.74,-367.83 355.638,-360.831"/>
<text text-anchor="middle" x="448" y="-367" font-family="Helvetica,sans-Serif" font-size="10.00"> m_reference_count_mutex</text>
</g>
<!-- Node19&#45;&gt;Node15 -->
<g id="edge46" class="edge"><title>Node19&#45;&gt;Node15</title>
<path fill="none" stroke="orange" stroke-dasharray="5,2" d="M1053.61,-366.903C1083.41,-361.447 1119.13,-354.905 1148.5,-349.528"/>
<polygon fill="orange" stroke="orange" points="1052.95,-363.464 1043.75,-368.708 1054.22,-370.35 1052.95,-363.464"/>
<text text-anchor="middle" x="1093" y="-368" font-family="Helvetica,sans-Serif" font-size="10.00"> &lt; raw_size &gt;</text>
</g>
<!-- Node20&#45;&gt;Node13 -->
<g id="edge50" class="edge"><title>Node20&#45;&gt;Node13</title>
<path fill="none" stroke="orange" stroke-dasharray="5,2" d="M1490.27,-327.93C1492.87,-327.585 1495.45,-327.273 1498,-327 1547.5,-321.704 1560.33,-323.687 1610,-327 1615.85,-327.39 1621.88,-327.911 1627.95,-328.521"/>
<polygon fill="orange" stroke="orange" points="1489.56,-324.497 1480.18,-329.419 1490.58,-331.422 1489.56,-324.497"/>
<text text-anchor="start" x="1498" y="-383" font-family="Helvetica,sans-Serif" font-size="10.00"> &lt; Type,((RawSize&#45;sizeof</text>
<text text-anchor="start" x="1498" y="-370" font-family="Helvetica,sans-Serif" font-size="10.00">(BID&lt; RawSize &gt;)*NBids</text>
<text text-anchor="start" x="1498" y="-357" font-family="Helvetica,sans-Serif" font-size="10.00">&#45;sizeof(MetaInfoType))</text>
<text text-anchor="start" x="1498" y="-344" font-family="Helvetica,sans-Serif" font-size="10.00">/sizeof(Type)), RawSize,</text>
<text text-anchor="middle" x="1554" y="-331" font-family="Helvetica,sans-Serif" font-size="10.00"> NBids &gt;</text>
</g>
<!-- Node21&#45;&gt;Node12 -->
<g id="edge56" class="edge"><title>Node21&#45;&gt;Node12</title>
<path fill="none" stroke="orange" stroke-dasharray="5,2" d="M1995.08,-382.161C2041.49,-376.081 2100.46,-368.354 2144.89,-362.532"/>
<polygon fill="orange" stroke="orange" points="1994.54,-378.702 1985.08,-383.472 1995.45,-385.643 1994.54,-378.702"/>
<text text-anchor="start" x="2008" y="-396" font-family="Helvetica,sans-Serif" font-size="10.00"> &lt; Type, RawSize, NRef,</text>
<text text-anchor="middle" x="2064" y="-383" font-family="Helvetica,sans-Serif" font-size="10.00"> MetaInfoType &gt;</text>
</g>
<!-- Node22 -->
<g id="node51" class="node"><title>Node22</title>
<a xlink:href="classstxxl_1_1mng__local_1_1filler__struct.html" target="_top" xlink:title="stxxl::mng_local::filler\l_struct\&lt; FillSize \&gt;">
<polygon fill="none" stroke="black" points="1651,-167 1651,-201 1763,-201 1763,-167 1651,-167"/>
<text text-anchor="start" x="1659" y="-188" font-family="Helvetica,sans-Serif" font-size="10.00">stxxl::mng_local::filler</text>
<text text-anchor="middle" x="1707" y="-175" font-family="Helvetica,sans-Serif" font-size="10.00">_struct&lt; FillSize &gt;</text>
</a>
</g>
<!-- Node22&#45;&gt;Node11 -->
<g id="edge60" class="edge"><title>Node22&#45;&gt;Node11</title>
<path fill="none" stroke="#9a32cd" stroke-dasharray="5,2" d="M1761.59,-204.446C1863.29,-240.169 2088.97,-308.308 2282,-288 2294.32,-286.704 2307.15,-284.787 2319.83,-282.539"/>
<polygon fill="#9a32cd" stroke="#9a32cd" points="1762.74,-201.139 1752.14,-201.094 1760.4,-207.736 1762.74,-201.139"/>
<text text-anchor="middle" x="2064" y="-291" font-family="Helvetica,sans-Serif" font-size="10.00"> filler</text>
</g>
<!-- Node24 -->
<g id="node55" class="node"><title>Node24</title>
<a xlink:href="classstxxl_1_1mng__local_1_1add__filler.html" target="_top" xlink:title="Contains per block filler for stxxl::typed_block , not intended for direct use. ">
<polygon fill="none" stroke="black" points="1850,-167 1850,-201 1990,-201 1990,-167 1850,-167"/>
<text text-anchor="start" x="1858" y="-188" font-family="Helvetica,sans-Serif" font-size="10.00">stxxl::mng_local::add</text>
<text text-anchor="middle" x="1920" y="-175" font-family="Helvetica,sans-Serif" font-size="10.00">_filler&lt; BaseType, FillSize &gt;</text>
</a>
</g>
<!-- Node22&#45;&gt;Node24 -->
<g id="edge66" class="edge"><title>Node22&#45;&gt;Node24</title>
<path fill="none" stroke="#9a32cd" stroke-dasharray="5,2" d="M1773.41,-184C1797.65,-184 1825.14,-184 1849.7,-184"/>
<polygon fill="#9a32cd" stroke="#9a32cd" points="1773.24,-180.5 1763.24,-184 1773.24,-187.5 1773.24,-180.5"/>
<text text-anchor="middle" x="1818" y="-188" font-family="Helvetica,sans-Serif" font-size="10.00"> filler</text>
</g>
<!-- Node26 -->
<g id="node60" class="node"><title>Node26</title>
<a xlink:href="classstxxl_1_1mng__local_1_1add__filler.html" target="_top" xlink:title="stxxl::mng_local::add\l_filler\&lt; Type, RawSize\l&#45;sizeof(Type)\&gt;">
<polygon fill="none" stroke="black" points="2152,-112.5 2152,-159.5 2268,-159.5 2268,-112.5 2152,-112.5"/>
<text text-anchor="start" x="2160" y="-146.5" font-family="Helvetica,sans-Serif" font-size="10.00">stxxl::mng_local::add</text>
<text text-anchor="start" x="2160" y="-133.5" font-family="Helvetica,sans-Serif" font-size="10.00">_filler&lt; Type, RawSize</text>
<text text-anchor="middle" x="2210" y="-120.5" font-family="Helvetica,sans-Serif" font-size="10.00">&#45;sizeof(Type)&gt;</text>
</a>
</g>
<!-- Node22&#45;&gt;Node26 -->
<g id="edge72" class="edge"><title>Node22&#45;&gt;Node26</title>
<path fill="none" stroke="#9a32cd" stroke-dasharray="5,2" d="M1768.42,-164.035C1793.45,-156.745 1822.84,-149.251 1850,-145 1955.47,-128.492 2080.4,-130.001 2151.91,-132.837"/>
<polygon fill="#9a32cd" stroke="#9a32cd" points="1767.29,-160.719 1758.7,-166.919 1769.28,-167.43 1767.29,-160.719"/>
<text text-anchor="middle" x="1920" y="-149" font-family="Helvetica,sans-Serif" font-size="10.00"> filler</text>
</g>
<!-- Node23 -->
<g id="node53" class="node"><title>Node23</title>
<a xlink:href="classstxxl_1_1mng__local_1_1filler__struct.html" target="_top" xlink:title="stxxl::mng_local::filler\l_struct\&lt; Bytes \&gt;">
<polygon fill="none" stroke="black" points="1345,-167 1345,-201 1457,-201 1457,-167 1345,-167"/>
<text text-anchor="start" x="1353" y="-188" font-family="Helvetica,sans-Serif" font-size="10.00">stxxl::mng_local::filler</text>
<text text-anchor="middle" x="1401" y="-175" font-family="Helvetica,sans-Serif" font-size="10.00">_struct&lt; Bytes &gt;</text>
</a>
</g>
<!-- Node23&#45;&gt;Node22 -->
<g id="edge62" class="edge"><title>Node23&#45;&gt;Node22</title>
<path fill="none" stroke="orange" stroke-dasharray="5,2" d="M1467.44,-184C1522.27,-184 1599.22,-184 1650.97,-184"/>
<polygon fill="orange" stroke="orange" points="1467.13,-180.5 1457.13,-184 1467.13,-187.5 1467.13,-180.5"/>
<text text-anchor="middle" x="1554" y="-188" font-family="Helvetica,sans-Serif" font-size="10.00"> &lt; FillSize &gt;</text>
</g>
<!-- Node24&#45;&gt;Node11 -->
<g id="edge64" class="edge"><title>Node24&#45;&gt;Node11</title>
<path fill="none" stroke="orange" stroke-dasharray="5,2" d="M2000.28,-183.898C2074.17,-185.185 2186.45,-190.64 2282,-210 2294.42,-212.516 2307.25,-215.828 2319.88,-219.538"/>
<polygon fill="orange" stroke="orange" points="2000.17,-180.396 1990.11,-183.743 2000.06,-187.395 2000.17,-180.396"/>
<text text-anchor="start" x="2138.5" y="-279" font-family="Helvetica,sans-Serif" font-size="10.00"> &lt; mng_local::block</text>
<text text-anchor="start" x="2138.5" y="-266" font-family="Helvetica,sans-Serif" font-size="10.00">_w_info&lt; Type, RawSize,</text>
<text text-anchor="start" x="2138.5" y="-253" font-family="Helvetica,sans-Serif" font-size="10.00"> NRef, MetaInfoType &gt;,</text>
<text text-anchor="start" x="2138.5" y="-240" font-family="Helvetica,sans-Serif" font-size="10.00"> RawSize&#45;sizeof(mng_local</text>
<text text-anchor="start" x="2138.5" y="-227" font-family="Helvetica,sans-Serif" font-size="10.00">::block_w_info&lt; Type, RawSize,</text>
<text text-anchor="middle" x="2210" y="-214" font-family="Helvetica,sans-Serif" font-size="10.00"> NRef, MetaInfoType &gt;)&gt;</text>
</g>
<!-- Node24&#45;&gt;Node26 -->
<g id="edge74" class="edge"><title>Node24&#45;&gt;Node26</title>
<path fill="none" stroke="orange" stroke-dasharray="5,2" d="M1979.54,-164.03C1988.98,-161.357 1998.7,-158.891 2008,-157 2055.85,-147.268 2111.05,-141.919 2151.64,-139.06"/>
<polygon fill="orange" stroke="orange" points="1978.44,-160.705 1969.83,-166.875 1980.41,-167.423 1978.44,-160.705"/>
<text text-anchor="start" x="2009.5" y="-174" font-family="Helvetica,sans-Serif" font-size="10.00"> &lt; Type, RawSize&#45;sizeof</text>
<text text-anchor="middle" x="2064" y="-161" font-family="Helvetica,sans-Serif" font-size="10.00">(Type)&gt;</text>
</g>
<!-- Node25 -->
<g id="node58" class="node"><title>Node25</title>
<a xlink:href="classstxxl_1_1mng__local_1_1expand__struct.html" target="_top" xlink:title="Helper to compute the size of the filler , not intended for direct use. ">
<polygon fill="none" stroke="black" points="2357,-119 2357,-153 2489,-153 2489,-119 2357,-119"/>
<text text-anchor="start" x="2365" y="-140" font-family="Helvetica,sans-Serif" font-size="10.00">stxxl::mng_local::expand</text>
<text text-anchor="middle" x="2423" y="-127" font-family="Helvetica,sans-Serif" font-size="10.00">_struct&lt; Type, RawSize &gt;</text>
</a>
</g>
<!-- Node25&#45;&gt;Node10 -->
<g id="edge68" class="edge"><title>Node25&#45;&gt;Node10</title>
<path fill="none" stroke="orange" stroke-dasharray="5,2" d="M2499.21,-136C2552.21,-136 2622.72,-136 2676.44,-136"/>
<polygon fill="orange" stroke="orange" points="2499.19,-132.5 2489.19,-136 2499.19,-139.5 2499.19,-132.5"/>
<text text-anchor="start" x="2544" y="-179" font-family="Helvetica,sans-Serif" font-size="10.00"> &lt; mng_local::block</text>
<text text-anchor="start" x="2544" y="-166" font-family="Helvetica,sans-Serif" font-size="10.00">_w_info&lt; Type, RawSize,</text>
<text text-anchor="start" x="2544" y="-153" font-family="Helvetica,sans-Serif" font-size="10.00"> NRef, MetaInfoType &gt;,</text>
<text text-anchor="middle" x="2601" y="-140" font-family="Helvetica,sans-Serif" font-size="10.00"> RawSize &gt;</text>
</g>
<!-- Node26&#45;&gt;Node25 -->
<g id="edge70" class="edge"><title>Node26&#45;&gt;Node25</title>
<path fill="none" stroke="midnightblue" d="M2278.4,-136C2303.57,-136 2332.02,-136 2356.97,-136"/>
<polygon fill="midnightblue" stroke="midnightblue" points="2278.2,-132.5 2268.2,-136 2278.2,-139.5 2278.2,-132.5"/>
</g>
</g>
</svg>
