<?xml version="1.0" encoding="UTF-8" standalone="no"?>
<!DOCTYPE svg PUBLIC "-//W3C//DTD SVG 1.1//EN"
 "http://www.w3.org/Graphics/SVG/1.1/DTD/svg11.dtd">
<!-- Generated by graphviz version 2.38.0 (20140413.2041)
 -->
<!-- Title: stxxl::read_write_pool&lt; BlockType &gt; Pages: 1 -->
<svg width="821pt" height="190pt"
 viewBox="0.00 0.00 821.00 189.50" xmlns="http://www.w3.org/2000/svg" xmlns:xlink="http://www.w3.org/1999/xlink">
<g id="graph0" class="graph" transform="scale(1 1) rotate(0) translate(4 185.5)">
<title>stxxl::read_write_pool&lt; BlockType &gt;</title>
<!-- Node1 -->
<g id="node1" class="node"><title>Node1</title>
<polygon fill="#bfbfbf" stroke="black" points="701,-107 701,-137 813,-137 813,-107 701,-107"/>
<text text-anchor="start" x="709" y="-125" font-family="Helvetica,sans-Serif" font-size="10.00">stxxl::read_write_pool</text>
<text text-anchor="middle" x="757" y="-114" font-family="Helvetica,sans-Serif" font-size="10.00">&lt; BlockType &gt;</text>
</g>
<!-- Node2 -->
<g id="node2" class="node"><title>Node2</title>
<g id="a_node2"><a xlink:href="classstxxl_1_1noncopyable.html" target="_top" xlink:title="stxxl::noncopyable">
<polygon fill="none" stroke="black" points="307,-112.5 307,-131.5 405,-131.5 405,-112.5 307,-112.5"/>
<text text-anchor="middle" x="356" y="-119.5" font-family="Helvetica,sans-Serif" font-size="10.00">stxxl::noncopyable</text>
</a>
</g>
</g>
<!-- Node2&#45;&gt;Node1 -->
<g id="edge1" class="edge"><title>Node2&#45;&gt;Node1</title>
<path fill="none" stroke="#8b1a1a" d="M415.572,-122C492.347,-122 626.026,-122 700.991,-122"/>
<polygon fill="#8b1a1a" stroke="#8b1a1a" points="415.129,-118.5 405.129,-122 415.129,-125.5 415.129,-118.5"/>
</g>
<!-- Node3 -->
<g id="node3" class="node"><title>Node3</title>
<g id="a_node3"><a xlink:href="classstxxl_1_1prefetch__pool.html" target="_top" xlink:title="Implements dynamically resizable prefetching pool. ">
<polygon fill="none" stroke="black" points="529,-59 529,-89 631,-89 631,-59 529,-59"/>
<text text-anchor="start" x="537" y="-77" font-family="Helvetica,sans-Serif" font-size="10.00">stxxl::prefetch_pool</text>
<text text-anchor="middle" x="580" y="-66" font-family="Helvetica,sans-Serif" font-size="10.00">&lt; BlockType &gt;</text>
</a>
</g>
</g>
<!-- Node2&#45;&gt;Node3 -->
<g id="edge3" class="edge"><title>Node2&#45;&gt;Node3</title>
<path fill="none" stroke="#8b1a1a" d="M410.94,-110.337C446.83,-102.577 493.651,-92.4538 528.755,-84.8637"/>
<polygon fill="#8b1a1a" stroke="#8b1a1a" points="410.16,-106.925 401.125,-112.459 411.639,-113.767 410.16,-106.925"/>
</g>
<!-- Node8 -->
<g id="node8" class="node"><title>Node8</title>
<g id="a_node8"><a xlink:href="classstxxl_1_1write__pool.html" target="_top" xlink:title="Implements dynamically resizable buffered writing pool. ">
<polygon fill="none" stroke="black" points="533,-151 533,-181 627,-181 627,-151 533,-151"/>
<text text-anchor="start" x="541" y="-169" font-family="Helvetica,sans-Serif" font-size="10.00">stxxl::write_pool&lt;</text>
<text text-anchor="middle" x="580" y="-158" font-family="Helvetica,sans-Serif" font-size="10.00"> BlockType &gt;</text>
</a>
</g>
</g>
<!-- Node2&#45;&gt;Node8 -->
<g id="edge9" class="edge"><title>Node2&#45;&gt;Node8</title>
<path fill="none" stroke="#8b1a1a" d="M415.239,-133.543C451.945,-140.818 498.681,-150.081 532.822,-156.848"/>
<polygon fill="#8b1a1a" stroke="#8b1a1a" points="415.66,-130.058 405.171,-131.547 414.299,-136.925 415.66,-130.058"/>
</g>
<!-- Node3&#45;&gt;Node1 -->
<g id="edge2" class="edge"><title>Node3&#45;&gt;Node1</title>
<path fill="none" stroke="#9a32cd" stroke-dasharray="5,2" d="M641.007,-86.3943C654.869,-89.5717 669.507,-93.1804 683,-97 693.312,-99.9191 704.308,-103.455 714.553,-106.937"/>
<polygon fill="#9a32cd" stroke="#9a32cd" points="641.601,-82.9406 631.077,-84.1601 640.064,-89.7699 641.601,-82.9406"/>
<text text-anchor="middle" x="666" y="-100" font-family="Helvetica,sans-Serif" font-size="10.00"> p_pool</text>
</g>
<!-- Node4 -->
<g id="node4" class="node"><title>Node4</title>
<g id="a_node4"><a xlink:href="structstxxl_1_1choose__int__types.html" target="_top" xlink:title="stxxl::choose_int_types\l\&lt; my_pointer_size \&gt;">
<polygon fill="none" stroke="black" points="296,-60 296,-90 416,-90 416,-60 296,-60"/>
<text text-anchor="start" x="304" y="-78" font-family="Helvetica,sans-Serif" font-size="10.00">stxxl::choose_int_types</text>
<text text-anchor="middle" x="356" y="-67" font-family="Helvetica,sans-Serif" font-size="10.00">&lt; my_pointer_size &gt;</text>
</a>
</g>
</g>
<!-- Node4&#45;&gt;Node3 -->
<g id="edge4" class="edge"><title>Node4&#45;&gt;Node3</title>
<path fill="none" stroke="#9a32cd" stroke-dasharray="5,2" d="M426.333,-72.1724C428.921,-72.107 431.484,-72.049 434,-72 468.216,-71.3337 476.781,-71.4969 511,-72 516.787,-72.0851 522.849,-72.2109 528.87,-72.3586"/>
<polygon fill="#9a32cd" stroke="#9a32cd" points="426.164,-68.6757 416.268,-72.4581 426.363,-75.6729 426.164,-68.6757"/>
<text text-anchor="middle" x="472.5" y="-75" font-family="Helvetica,sans-Serif" font-size="10.00"> free_blocks_size</text>
</g>
<!-- Node5 -->
<g id="node5" class="node"><title>Node5</title>
<g id="a_node5"><a xlink:href="structstxxl_1_1choose__int__types.html" target="_top" xlink:title="stxxl::choose_int_types\l\&lt; PtrSize \&gt;">
<polygon fill="none" stroke="black" points="17,-60 17,-90 137,-90 137,-60 17,-60"/>
<text text-anchor="start" x="25" y="-78" font-family="Helvetica,sans-Serif" font-size="10.00">stxxl::choose_int_types</text>
<text text-anchor="middle" x="77" y="-67" font-family="Helvetica,sans-Serif" font-size="10.00">&lt; PtrSize &gt;</text>
</a>
</g>
</g>
<!-- Node5&#45;&gt;Node4 -->
<g id="edge5" class="edge"><title>Node5&#45;&gt;Node4</title>
<path fill="none" stroke="orange" stroke-dasharray="5,2" d="M147.195,-75C192.837,-75 252.008,-75 295.53,-75"/>
<polygon fill="orange" stroke="orange" points="147.084,-71.5001 137.084,-75 147.084,-78.5001 147.084,-71.5001"/>
<text text-anchor="middle" x="225" y="-78" font-family="Helvetica,sans-Serif" font-size="10.00"> &lt; my_pointer_size &gt;</text>
</g>
<!-- Node6 -->
<g id="node6" class="node"><title>Node6</title>
<g id="a_node6"><a xlink:href="structstxxl_1_1compat__hash__map.html" target="_top" xlink:title="stxxl::compat_hash\l_map\&lt; bid_type, busy\l_entry, bid_hash \&gt;">
<polygon fill="none" stroke="black" points="299.5,-0.5 299.5,-41.5 412.5,-41.5 412.5,-0.5 299.5,-0.5"/>
<text text-anchor="start" x="307.5" y="-29.5" font-family="Helvetica,sans-Serif" font-size="10.00">stxxl::compat_hash</text>
<text text-anchor="start" x="307.5" y="-18.5" font-family="Helvetica,sans-Serif" font-size="10.00">_map&lt; bid_type, busy</text>
<text text-anchor="middle" x="356" y="-7.5" font-family="Helvetica,sans-Serif" font-size="10.00">_entry, bid_hash &gt;</text>
</a>
</g>
</g>
<!-- Node6&#45;&gt;Node3 -->
<g id="edge6" class="edge"><title>Node6&#45;&gt;Node3</title>
<path fill="none" stroke="#9a32cd" stroke-dasharray="5,2" d="M422.504,-36.0791C449.877,-42.4412 482.002,-49.9864 511,-57 516.796,-58.4018 522.864,-59.8898 528.888,-61.3796"/>
<polygon fill="#9a32cd" stroke="#9a32cd" points="423.181,-32.6432 412.648,-33.7918 421.598,-39.462 423.181,-32.6432"/>
<text text-anchor="middle" x="472.5" y="-60" font-family="Helvetica,sans-Serif" font-size="10.00"> busy_blocks</text>
</g>
<!-- Node7 -->
<g id="node7" class="node"><title>Node7</title>
<g id="a_node7"><a xlink:href="structstxxl_1_1compat__hash__map.html" target="_top" xlink:title="stxxl::compat_hash\l_map\&lt; KeyType, MappedType,\l HashType \&gt;">
<polygon fill="none" stroke="black" points="0,-0.5 0,-41.5 154,-41.5 154,-0.5 0,-0.5"/>
<text text-anchor="start" x="8" y="-29.5" font-family="Helvetica,sans-Serif" font-size="10.00">stxxl::compat_hash</text>
<text text-anchor="start" x="8" y="-18.5" font-family="Helvetica,sans-Serif" font-size="10.00">_map&lt; KeyType, MappedType,</text>
<text text-anchor="middle" x="77" y="-7.5" font-family="Helvetica,sans-Serif" font-size="10.00"> HashType &gt;</text>
</a>
</g>
</g>
<!-- Node7&#45;&gt;Node6 -->
<g id="edge7" class="edge"><title>Node7&#45;&gt;Node6</title>
<path fill="none" stroke="orange" stroke-dasharray="5,2" d="M164.195,-21C208.263,-21 260.612,-21 299.32,-21"/>
<polygon fill="orange" stroke="orange" points="164.058,-17.5001 154.058,-21 164.058,-24.5001 164.058,-17.5001"/>
<text text-anchor="start" x="172" y="-35" font-family="Helvetica,sans-Serif" font-size="10.00"> &lt; bid_type, busy_entry,</text>
<text text-anchor="middle" x="225" y="-24" font-family="Helvetica,sans-Serif" font-size="10.00"> bid_hash &gt;</text>
</g>
<!-- Node8&#45;&gt;Node1 -->
<g id="edge8" class="edge"><title>Node8&#45;&gt;Node1</title>
<path fill="none" stroke="#9a32cd" stroke-dasharray="5,2" d="M637.22,-151.865C657.623,-146.735 680.639,-140.948 700.941,-135.843"/>
<polygon fill="#9a32cd" stroke="#9a32cd" points="636.282,-148.492 627.437,-154.324 637.989,-155.28 636.282,-148.492"/>
<text text-anchor="middle" x="666" y="-151" font-family="Helvetica,sans-Serif" font-size="10.00"> w_pool</text>
</g>
</g>
</svg>
