<?xml version="1.0" encoding="UTF-8" standalone="no"?>
<!DOCTYPE svg PUBLIC "-//W3C//DTD SVG 1.1//EN"
 "http://www.w3.org/Graphics/SVG/1.1/DTD/svg11.dtd">
<!-- Generated by graphviz version 2.38.0 (20140413.2041)
 -->
<!-- Title: stxxl::vector_bufreader&lt; VectorIteratorType &gt; Pages: 1 -->
<svg width="1308pt" height="363pt"
 viewBox="0.00 0.00 1308.00 362.50" xmlns="http://www.w3.org/2000/svg" xmlns:xlink="http://www.w3.org/1999/xlink">
<g id="graph0" class="graph" transform="scale(1 1) rotate(0) translate(4 358.5)">
<title>stxxl::vector_bufreader&lt; VectorIteratorType &gt;</title>
<!-- Node1 -->
<g id="node1" class="node"><title>Node1</title>
<polygon fill="#bfbfbf" stroke="black" points="1184,-123.5 1184,-153.5 1300,-153.5 1300,-123.5 1184,-123.5"/>
<text text-anchor="start" x="1192" y="-141.5" font-family="Helvetica,sans-Serif" font-size="10.00">stxxl::vector_bufreader</text>
<text text-anchor="middle" x="1242" y="-130.5" font-family="Helvetica,sans-Serif" font-size="10.00">&lt; VectorIteratorType &gt;</text>
</g>
<!-- Node2 -->
<g id="node2" class="node"><title>Node2</title>
<g id="a_node2"><a xlink:href="classstxxl_1_1noncopyable.html" target="_top" xlink:title="stxxl::noncopyable">
<polygon fill="none" stroke="black" points="6,-253 6,-272 104,-272 104,-253 6,-253"/>
<text text-anchor="middle" x="55" y="-260" font-family="Helvetica,sans-Serif" font-size="10.00">stxxl::noncopyable</text>
</a>
</g>
</g>
<!-- Node2&#45;&gt;Node1 -->
<g id="edge1" class="edge"><title>Node2&#45;&gt;Node1</title>
<path fill="none" stroke="midnightblue" d="M75.3418,-278.376C89.2462,-289.087 108.846,-302.803 128,-311.5 197.002,-342.833 217.217,-354.5 293,-354.5 293,-354.5 293,-354.5 1034,-354.5 1145.41,-354.5 1215.45,-202.855 1235.23,-153.689"/>
<polygon fill="midnightblue" stroke="midnightblue" points="77.4932,-275.615 67.4753,-272.166 73.1563,-281.109 77.4932,-275.615"/>
</g>
<!-- Node3 -->
<g id="node3" class="node"><title>Node3</title>
<g id="a_node3"><a xlink:href="classstxxl_1_1buf__istream.html" target="_top" xlink:title="Buffered input stream. ">
<polygon fill="none" stroke="black" points="956,-123.5 956,-153.5 1110,-153.5 1110,-123.5 956,-123.5"/>
<text text-anchor="start" x="964" y="-141.5" font-family="Helvetica,sans-Serif" font-size="10.00">stxxl::buf_istream</text>
<text text-anchor="middle" x="1033" y="-130.5" font-family="Helvetica,sans-Serif" font-size="10.00">&lt; BlockType, BidIteratorType &gt;</text>
</a>
</g>
</g>
<!-- Node2&#45;&gt;Node3 -->
<g id="edge3" class="edge"><title>Node2&#45;&gt;Node3</title>
<path fill="none" stroke="#8b1a1a" d="M90.5208,-275.485C136.169,-291.463 219.438,-316.5 293,-316.5 293,-316.5 293,-316.5 792,-316.5 900.939,-316.5 992.649,-196.722 1022.09,-153.676"/>
<polygon fill="#8b1a1a" stroke="#8b1a1a" points="91.4242,-272.091 80.8296,-272.03 89.0735,-278.685 91.4242,-272.091"/>
</g>
<!-- Node4 -->
<g id="node4" class="node"><title>Node4</title>
<g id="a_node4"><a xlink:href="classstxxl_1_1block__prefetcher.html" target="_top" xlink:title="Encapsulates asynchronous prefetching engine. ">
<polygon fill="none" stroke="black" points="714,-123.5 714,-153.5 868,-153.5 868,-123.5 714,-123.5"/>
<text text-anchor="start" x="722" y="-141.5" font-family="Helvetica,sans-Serif" font-size="10.00">stxxl::block_prefetcher</text>
<text text-anchor="middle" x="791" y="-130.5" font-family="Helvetica,sans-Serif" font-size="10.00">&lt; BlockType, BidIteratorType &gt;</text>
</a>
</g>
</g>
<!-- Node2&#45;&gt;Node4 -->
<g id="edge5" class="edge"><title>Node2&#45;&gt;Node4</title>
<path fill="none" stroke="#8b1a1a" d="M77.0423,-247.142C90.8432,-237.872 109.667,-226.691 128,-220.5 182.552,-202.079 551.866,-162.791 713.97,-146.175"/>
<polygon fill="#8b1a1a" stroke="#8b1a1a" points="74.9796,-244.314 68.7542,-252.886 78.967,-250.067 74.9796,-244.314"/>
</g>
<!-- Node7 -->
<g id="node7" class="node"><title>Node7</title>
<g id="a_node7"><a xlink:href="classstxxl_1_1onoff__switch.html" target="_top" xlink:title="stxxl::onoff_switch">
<polygon fill="none" stroke="black" points="498.5,-211 498.5,-230 597.5,-230 597.5,-211 498.5,-211"/>
<text text-anchor="middle" x="548" y="-218" font-family="Helvetica,sans-Serif" font-size="10.00">stxxl::onoff_switch</text>
</a>
</g>
</g>
<!-- Node2&#45;&gt;Node7 -->
<g id="edge9" class="edge"><title>Node2&#45;&gt;Node7</title>
<path fill="none" stroke="#8b1a1a" d="M103.208,-250.488C111.461,-248.448 119.973,-246.382 128,-244.5 174.512,-233.594 185.513,-226.717 233,-221.5 326.475,-211.232 436.548,-214.347 498.408,-217.472"/>
<polygon fill="#8b1a1a" stroke="#8b1a1a" points="102.177,-247.137 93.3189,-252.949 103.868,-253.93 102.177,-247.137"/>
</g>
<!-- Node8 -->
<g id="node8" class="node"><title>Node8</title>
<g id="a_node8"><a xlink:href="classstxxl_1_1mutex.html" target="_top" xlink:title="stxxl::mutex">
<polygon fill="none" stroke="black" points="258.5,-269 258.5,-288 329.5,-288 329.5,-269 258.5,-269"/>
<text text-anchor="middle" x="294" y="-276" font-family="Helvetica,sans-Serif" font-size="10.00">stxxl::mutex</text>
</a>
</g>
</g>
<!-- Node2&#45;&gt;Node8 -->
<g id="edge11" class="edge"><title>Node2&#45;&gt;Node8</title>
<path fill="none" stroke="#8b1a1a" d="M114.488,-266.449C159.623,-269.496 220.538,-273.608 258.267,-276.155"/>
<polygon fill="#8b1a1a" stroke="#8b1a1a" points="114.459,-262.939 104.246,-265.757 113.988,-269.923 114.459,-262.939"/>
</g>
<!-- Node9 -->
<g id="node9" class="node"><title>Node9</title>
<g id="a_node9"><a xlink:href="classstxxl_1_1condition__variable.html" target="_top" xlink:title="stxxl::condition_variable">
<polygon fill="none" stroke="black" points="233,-231 233,-250 355,-250 355,-231 233,-231"/>
<text text-anchor="middle" x="294" y="-238" font-family="Helvetica,sans-Serif" font-size="10.00">stxxl::condition_variable</text>
</a>
</g>
</g>
<!-- Node2&#45;&gt;Node9 -->
<g id="edge13" class="edge"><title>Node2&#45;&gt;Node9</title>
<path fill="none" stroke="#8b1a1a" d="M114.57,-257.063C150.481,-253.73 196.358,-249.471 232.6,-246.107"/>
<polygon fill="#8b1a1a" stroke="#8b1a1a" points="113.88,-253.612 104.246,-258.021 114.527,-260.582 113.88,-253.612"/>
</g>
<!-- Node3&#45;&gt;Node1 -->
<g id="edge2" class="edge"><title>Node3&#45;&gt;Node1</title>
<path fill="none" stroke="#9a32cd" stroke-dasharray="5,2" d="M1120.28,-138.5C1141.69,-138.5 1164.12,-138.5 1183.75,-138.5"/>
<polygon fill="#9a32cd" stroke="#9a32cd" points="1120.2,-135 1110.2,-138.5 1120.2,-142 1120.2,-135"/>
<text text-anchor="middle" x="1147" y="-141.5" font-family="Helvetica,sans-Serif" font-size="10.00"> m_bufin</text>
</g>
<!-- Node4&#45;&gt;Node3 -->
<g id="edge4" class="edge"><title>Node4&#45;&gt;Node3</title>
<path fill="none" stroke="#9a32cd" stroke-dasharray="5,2" d="M878.588,-138.5C903.886,-138.5 931.337,-138.5 955.931,-138.5"/>
<polygon fill="#9a32cd" stroke="#9a32cd" points="878.267,-135 868.267,-138.5 878.267,-142 878.267,-135"/>
<text text-anchor="middle" x="912" y="-141.5" font-family="Helvetica,sans-Serif" font-size="10.00"> prefetcher</text>
</g>
<!-- Node5 -->
<g id="node5" class="node"><title>Node5</title>
<g id="a_node5"><a xlink:href="structstxxl_1_1choose__int__types.html" target="_top" xlink:title="stxxl::choose_int_types\l\&lt; my_pointer_size \&gt;">
<polygon fill="none" stroke="black" points="488,-0.5 488,-30.5 608,-30.5 608,-0.5 488,-0.5"/>
<text text-anchor="start" x="496" y="-18.5" font-family="Helvetica,sans-Serif" font-size="10.00">stxxl::choose_int_types</text>
<text text-anchor="middle" x="548" y="-7.5" font-family="Helvetica,sans-Serif" font-size="10.00">&lt; my_pointer_size &gt;</text>
</a>
</g>
</g>
<!-- Node5&#45;&gt;Node1 -->
<g id="edge19" class="edge"><title>Node5&#45;&gt;Node1</title>
<path fill="none" stroke="#9a32cd" stroke-dasharray="5,2" d="M618.34,-15.4805C642.883,-15.7285 670.681,-16.2987 696,-17.5 772.611,-21.1349 792.546,-17.7471 868,-31.5 990.446,-53.8181 1130.43,-99.6511 1198.86,-123.435"/>
<polygon fill="#9a32cd" stroke="#9a32cd" points="618.068,-11.9781 608.038,-15.393 618.008,-18.9779 618.068,-11.9781"/>
<text text-anchor="middle" x="912" y="-49.5" font-family="Helvetica,sans-Serif" font-size="10.00"> m_nbuffers</text>
</g>
<!-- Node5&#45;&gt;Node3 -->
<g id="edge18" class="edge"><title>Node5&#45;&gt;Node3</title>
<path fill="none" stroke="#9a32cd" stroke-dasharray="5,2" d="M618.116,-19.5534C642.859,-21.7921 670.842,-25.2338 696,-30.5 806.65,-53.6616 932.331,-99.5345 993.904,-123.352"/>
<polygon fill="#9a32cd" stroke="#9a32cd" points="618.351,-16.0609 608.089,-18.695 617.754,-23.0353 618.351,-16.0609"/>
<text text-anchor="middle" x="791" y="-81.5" font-family="Helvetica,sans-Serif" font-size="10.00"> current_elem</text>
</g>
<!-- Node5&#45;&gt;Node4 -->
<g id="edge6" class="edge"><title>Node5&#45;&gt;Node4</title>
<path fill="none" stroke="#9a32cd" stroke-dasharray="5,2" d="M617.997,-29.9301C643.425,-36.8296 671.889,-46.4881 696,-59.5 727.704,-76.6096 758.515,-105.558 775.795,-123.258"/>
<polygon fill="#9a32cd" stroke="#9a32cd" points="618.609,-26.4725 608.049,-27.327 616.837,-33.2445 618.609,-26.4725"/>
<text text-anchor="middle" x="663" y="-84.5" font-family="Helvetica,sans-Serif" font-size="10.00"> seq_length</text>
<text text-anchor="middle" x="663" y="-73.5" font-family="Helvetica,sans-Serif" font-size="10.00">nextconsume</text>
<text text-anchor="middle" x="663" y="-62.5" font-family="Helvetica,sans-Serif" font-size="10.00">nextread</text>
</g>
<!-- Node6 -->
<g id="node6" class="node"><title>Node6</title>
<g id="a_node6"><a xlink:href="structstxxl_1_1choose__int__types.html" target="_top" xlink:title="stxxl::choose_int_types\l\&lt; PtrSize \&gt;">
<polygon fill="none" stroke="black" points="234,-0.5 234,-30.5 354,-30.5 354,-0.5 234,-0.5"/>
<text text-anchor="start" x="242" y="-18.5" font-family="Helvetica,sans-Serif" font-size="10.00">stxxl::choose_int_types</text>
<text text-anchor="middle" x="294" y="-7.5" font-family="Helvetica,sans-Serif" font-size="10.00">&lt; PtrSize &gt;</text>
</a>
</g>
</g>
<!-- Node6&#45;&gt;Node5 -->
<g id="edge7" class="edge"><title>Node6&#45;&gt;Node5</title>
<path fill="none" stroke="orange" stroke-dasharray="5,2" d="M364.245,-15.5C403.015,-15.5 450.847,-15.5 487.851,-15.5"/>
<polygon fill="orange" stroke="orange" points="364.083,-12.0001 354.083,-15.5 364.083,-19.0001 364.083,-12.0001"/>
<text text-anchor="middle" x="419.5" y="-18.5" font-family="Helvetica,sans-Serif" font-size="10.00"> &lt; my_pointer_size &gt;</text>
</g>
<!-- Node7&#45;&gt;Node4 -->
<g id="edge8" class="edge"><title>Node7&#45;&gt;Node4</title>
<path fill="none" stroke="#9a32cd" stroke-dasharray="5,2" d="M597.036,-208.389C625.986,-200.693 663.436,-190.031 696,-178.5 716.731,-171.159 739.433,-161.545 757.333,-153.582"/>
<polygon fill="#9a32cd" stroke="#9a32cd" points="595.953,-205.055 587.173,-210.985 597.734,-211.825 595.953,-205.055"/>
<text text-anchor="middle" x="663" y="-202.5" font-family="Helvetica,sans-Serif" font-size="10.00"> completed</text>
</g>
<!-- Node8&#45;&gt;Node7 -->
<g id="edge10" class="edge"><title>Node8&#45;&gt;Node7</title>
<path fill="none" stroke="#9a32cd" stroke-dasharray="5,2" d="M340.07,-273.06C374.818,-268.338 423.892,-260.517 466,-249.5 485.797,-244.32 507.603,-236.379 523.598,-230.116"/>
<polygon fill="#9a32cd" stroke="#9a32cd" points="339.222,-269.642 329.769,-274.427 340.142,-276.581 339.222,-269.642"/>
<text text-anchor="middle" x="419.5" y="-270.5" font-family="Helvetica,sans-Serif" font-size="10.00"> m_mutex</text>
</g>
<!-- Node9&#45;&gt;Node7 -->
<g id="edge12" class="edge"><title>Node9&#45;&gt;Node7</title>
<path fill="none" stroke="#9a32cd" stroke-dasharray="5,2" d="M365.028,-234.942C407.466,-231.574 460.536,-227.362 498.393,-224.358"/>
<polygon fill="#9a32cd" stroke="#9a32cd" points="364.732,-231.455 355.04,-235.735 365.286,-238.433 364.732,-231.455"/>
<text text-anchor="middle" x="419.5" y="-237.5" font-family="Helvetica,sans-Serif" font-size="10.00"> m_cond</text>
</g>
<!-- Node10 -->
<g id="node10" class="node"><title>Node10</title>
<g id="a_node10"><a xlink:href="classstxxl_1_1counting__ptr.html" target="_top" xlink:title="High&#45;performance smart pointer used as a wrapping reference counting pointer. ">
<polygon fill="none" stroke="black" points="499.5,-105.5 499.5,-135.5 596.5,-135.5 596.5,-105.5 499.5,-105.5"/>
<text text-anchor="start" x="507.5" y="-123.5" font-family="Helvetica,sans-Serif" font-size="10.00">stxxl::counting_ptr</text>
<text text-anchor="middle" x="548" y="-112.5" font-family="Helvetica,sans-Serif" font-size="10.00">&lt; Type &gt;</text>
</a>
</g>
</g>
<!-- Node10&#45;&gt;Node4 -->
<g id="edge14" class="edge"><title>Node10&#45;&gt;Node4</title>
<path fill="none" stroke="#9a32cd" stroke-dasharray="5,2" d="M606.703,-124.81C638.721,-127.201 678.947,-130.206 713.552,-132.79"/>
<polygon fill="#9a32cd" stroke="#9a32cd" points="606.847,-121.311 596.614,-124.056 606.325,-128.291 606.847,-121.311"/>
<text text-anchor="middle" x="663" y="-134.5" font-family="Helvetica,sans-Serif" font-size="10.00"> read_reqs</text>
</g>
<!-- Node11 -->
<g id="node11" class="node"><title>Node11</title>
<g id="a_node11"><a xlink:href="classstxxl_1_1completion__handler.html" target="_top" xlink:title="Completion handler class (Loki&#45;style). ">
<polygon fill="none" stroke="black" points="484,-67 484,-86 612,-86 612,-67 484,-67"/>
<text text-anchor="middle" x="548" y="-74" font-family="Helvetica,sans-Serif" font-size="10.00">stxxl::completion_handler</text>
</a>
</g>
</g>
<!-- Node11&#45;&gt;Node4 -->
<g id="edge15" class="edge"><title>Node11&#45;&gt;Node4</title>
<path fill="none" stroke="#9a32cd" stroke-dasharray="5,2" d="M599.05,-88.3675C627.523,-95.2163 663.818,-104.111 696,-112.5 709.108,-115.917 723.203,-119.737 736.388,-123.375"/>
<polygon fill="#9a32cd" stroke="#9a32cd" points="599.865,-84.9638 589.324,-86.0344 598.232,-91.7706 599.865,-84.9638"/>
<text text-anchor="middle" x="663" y="-115.5" font-family="Helvetica,sans-Serif" font-size="10.00"> do_after_fetch</text>
</g>
<!-- Node12 -->
<g id="node12" class="node"><title>Node12</title>
<g id="a_node12"><a xlink:href="structstxxl_1_1compat__unique__ptr.html" target="_top" xlink:title="stxxl::compat_unique\l_ptr\&lt; stxxl::completion\l_handler_impl \&gt;">
<polygon fill="none" stroke="black" points="236,-56 236,-97 352,-97 352,-56 236,-56"/>
<text text-anchor="start" x="244" y="-85" font-family="Helvetica,sans-Serif" font-size="10.00">stxxl::compat_unique</text>
<text text-anchor="start" x="244" y="-74" font-family="Helvetica,sans-Serif" font-size="10.00">_ptr&lt; stxxl::completion</text>
<text text-anchor="middle" x="294" y="-63" font-family="Helvetica,sans-Serif" font-size="10.00">_handler_impl &gt;</text>
</a>
</g>
</g>
<!-- Node12&#45;&gt;Node11 -->
<g id="edge16" class="edge"><title>Node12&#45;&gt;Node11</title>
<path fill="none" stroke="#9a32cd" stroke-dasharray="5,2" d="M362.56,-76.5C400.248,-76.5 446.898,-76.5 483.852,-76.5"/>
<polygon fill="#9a32cd" stroke="#9a32cd" points="362.183,-73.0001 352.183,-76.5 362.183,-80.0001 362.183,-73.0001"/>
<text text-anchor="middle" x="419.5" y="-79.5" font-family="Helvetica,sans-Serif" font-size="10.00"> m_ptr</text>
</g>
<!-- Node13 -->
<g id="node13" class="node"><title>Node13</title>
<g id="a_node13"><a xlink:href="structstxxl_1_1compat__unique__ptr.html" target="_top" xlink:title="stxxl::compat_unique\l_ptr\&lt; Type \&gt;">
<polygon fill="none" stroke="black" points="0,-61.5 0,-91.5 110,-91.5 110,-61.5 0,-61.5"/>
<text text-anchor="start" x="8" y="-79.5" font-family="Helvetica,sans-Serif" font-size="10.00">stxxl::compat_unique</text>
<text text-anchor="middle" x="55" y="-68.5" font-family="Helvetica,sans-Serif" font-size="10.00">_ptr&lt; Type &gt;</text>
</a>
</g>
</g>
<!-- Node13&#45;&gt;Node12 -->
<g id="edge17" class="edge"><title>Node13&#45;&gt;Node12</title>
<path fill="none" stroke="orange" stroke-dasharray="5,2" d="M120.485,-76.5C156.532,-76.5 201.062,-76.5 235.851,-76.5"/>
<polygon fill="orange" stroke="orange" points="120.076,-73.0001 110.076,-76.5 120.075,-80.0001 120.076,-73.0001"/>
<text text-anchor="start" x="128" y="-90.5" font-family="Helvetica,sans-Serif" font-size="10.00"> &lt; stxxl::completion</text>
<text text-anchor="middle" x="171.5" y="-79.5" font-family="Helvetica,sans-Serif" font-size="10.00">_handler_impl &gt;</text>
</g>
</g>
</svg>
