<?xml version="1.0" encoding="UTF-8" standalone="no"?>
<!DOCTYPE svg PUBLIC "-//W3C//DTD SVG 1.1//EN"
 "http://www.w3.org/Graphics/SVG/1.1/DTD/svg11.dtd">
<!-- Generated by graphviz version 2.26.3 (20100126.1600)
 -->
<!-- Title: stxxl::matrix_swappable_block&lt; ValueType, BlockSideLength &gt; Pages: 1 -->
<svg width="3788pt" height="470pt"
 viewBox="0.00 0.00 3788.00 470.00" xmlns="http://www.w3.org/2000/svg" xmlns:xlink="http://www.w3.org/1999/xlink">
<g id="graph1" class="graph" transform="scale(1 1) rotate(0) translate(4 466)">
<title>stxxl::matrix_swappable_block&lt; ValueType, BlockSideLength &gt;</title>
<!-- Node1 -->
<g id="node1" class="node"><title>Node1</title>
<polygon fill="#bfbfbf" stroke="black" points="3628.5,-113.5 3628.5,-160.5 3779.5,-160.5 3779.5,-113.5 3628.5,-113.5"/>
<text text-anchor="start" x="3636.5" y="-147.5" font-family="Helvetica,sans-Serif" font-size="10.00">stxxl::matrix_swappable</text>
<text text-anchor="start" x="3636.5" y="-134.5" font-family="Helvetica,sans-Serif" font-size="10.00">_block&lt; ValueType, BlockSide</text>
<text text-anchor="middle" x="3704" y="-121.5" font-family="Helvetica,sans-Serif" font-size="10.00">Length &gt;</text>
</g>
<!-- Node2 -->
<g id="node2" class="node"><title>Node2</title>
<a xlink:href="classstxxl_1_1swappable__block.html" target="_top" xlink:title="stxxl::swappable_block\l\&lt; ValueType, BlockSideLength\l *BlockSideLength \&gt;">
<polygon fill="none" stroke="black" points="3438,-113.5 3438,-160.5 3590,-160.5 3590,-113.5 3438,-113.5"/>
<text text-anchor="start" x="3446" y="-147.5" font-family="Helvetica,sans-Serif" font-size="10.00">stxxl::swappable_block</text>
<text text-anchor="start" x="3446" y="-134.5" font-family="Helvetica,sans-Serif" font-size="10.00">&lt; ValueType, BlockSideLength</text>
<text text-anchor="middle" x="3514" y="-121.5" font-family="Helvetica,sans-Serif" font-size="10.00"> *BlockSideLength &gt;</text>
</a>
</g>
<!-- Node2&#45;&gt;Node1 -->
<g id="edge2" class="edge"><title>Node2&#45;&gt;Node1</title>
<path fill="none" stroke="midnightblue" d="M3600.3,-137C3609.68,-137 3619.18,-137 3628.42,-137"/>
<polygon fill="midnightblue" stroke="midnightblue" points="3600.19,-133.5 3590.19,-137 3600.19,-140.5 3600.19,-133.5"/>
</g>
<!-- Node3 -->
<g id="node4" class="node"><title>Node3</title>
<a xlink:href="structstxxl_1_1choose__int__types.html" target="_top" xlink:title="stxxl::choose_int_types\l\&lt; my_pointer_size \&gt;">
<polygon fill="none" stroke="black" points="250,-29 250,-63 370,-63 370,-29 250,-29"/>
<text text-anchor="start" x="258" y="-50" font-family="Helvetica,sans-Serif" font-size="10.00">stxxl::choose_int_types</text>
<text text-anchor="middle" x="310" y="-37" font-family="Helvetica,sans-Serif" font-size="10.00">&lt; my_pointer_size &gt;</text>
</a>
</g>
<!-- Node3&#45;&gt;Node2 -->
<g id="edge4" class="edge"><title>Node3&#45;&gt;Node2</title>
<path fill="none" stroke="#9a32cd" stroke-dasharray="5,2" d="M380.186,-27.5489C435.006,-14.7528 513.319,-0 583,-0 583,-0 583,-0 3196,-0 3309.31,-0 3428.17,-74.2785 3482.97,-113.449"/>
<polygon fill="#9a32cd" stroke="#9a32cd" points="379.152,-24.1969 370.23,-29.9114 380.768,-31.0078 379.152,-24.1969"/>
<text text-anchor="middle" x="1769" y="-4" font-family="Helvetica,sans-Serif" font-size="10.00"> reference_count</text>
</g>
<!-- Node8 -->
<g id="node14" class="node"><title>Node8</title>
<a xlink:href="classstxxl_1_1atomic__counted__object.html" target="_top" xlink:title="Provides reference counting abilities for use with counting_ptr with mutex locking. ">
<polygon fill="none" stroke="black" points="526.5,-92 526.5,-126 639.5,-126 639.5,-92 526.5,-92"/>
<text text-anchor="start" x="534.5" y="-113" font-family="Helvetica,sans-Serif" font-size="10.00">stxxl::atomic_counted</text>
<text text-anchor="middle" x="583" y="-100" font-family="Helvetica,sans-Serif" font-size="10.00">_object</text>
</a>
</g>
<!-- Node3&#45;&gt;Node8 -->
<g id="edge20" class="edge"><title>Node3&#45;&gt;Node8</title>
<path fill="none" stroke="#9a32cd" stroke-dasharray="5,2" d="M380.013,-62.1568C425.371,-72.6241 483.69,-86.0823 526.17,-95.8854"/>
<polygon fill="#9a32cd" stroke="#9a32cd" points="380.78,-58.7419 370.249,-59.9036 379.206,-65.5627 380.78,-58.7419"/>
<text text-anchor="middle" x="448" y="-94" font-family="Helvetica,sans-Serif" font-size="10.00"> m_reference_count</text>
</g>
<!-- Node24 -->
<g id="node56" class="node"><title>Node24</title>
<a xlink:href="classstxxl_1_1swappable__block.html" target="_top" xlink:title="Virtualization of a block of data. Holds information for allocating and swapping. To use in cooperati...">
<polygon fill="none" stroke="black" points="3130.5,-88 3130.5,-122 3261.5,-122 3261.5,-88 3130.5,-88"/>
<text text-anchor="start" x="3138.5" y="-109" font-family="Helvetica,sans-Serif" font-size="10.00">stxxl::swappable_block</text>
<text text-anchor="middle" x="3196" y="-96" font-family="Helvetica,sans-Serif" font-size="10.00">&lt; ValueType, BlockSize &gt;</text>
</a>
</g>
<!-- Node3&#45;&gt;Node24 -->
<g id="edge68" class="edge"><title>Node3&#45;&gt;Node24</title>
<path fill="none" stroke="#9a32cd" stroke-dasharray="5,2" d="M380.196,-46C435.337,-46 514.064,-46 583,-46 583,-46 583,-46 2971,-46 3037.63,-46 3111.84,-70.5098 3156.18,-87.9348"/>
<polygon fill="#9a32cd" stroke="#9a32cd" points="380.182,-42.5001 370.182,-46 380.182,-49.5001 380.182,-42.5001"/>
<text text-anchor="middle" x="1635" y="-50" font-family="Helvetica,sans-Serif" font-size="10.00"> reference_count</text>
</g>
<!-- Node4 -->
<g id="node6" class="node"><title>Node4</title>
<a xlink:href="structstxxl_1_1choose__int__types.html" target="_top" xlink:title="stxxl::choose_int_types\l\&lt; PtrSize \&gt;">
<polygon fill="none" stroke="black" points="0,-29 0,-63 120,-63 120,-29 0,-29"/>
<text text-anchor="start" x="8" y="-50" font-family="Helvetica,sans-Serif" font-size="10.00">stxxl::choose_int_types</text>
<text text-anchor="middle" x="60" y="-37" font-family="Helvetica,sans-Serif" font-size="10.00">&lt; PtrSize &gt;</text>
</a>
</g>
<!-- Node4&#45;&gt;Node3 -->
<g id="edge6" class="edge"><title>Node4&#45;&gt;Node3</title>
<path fill="none" stroke="orange" stroke-dasharray="5,2" d="M130.578,-46C168.196,-46 213.985,-46 249.89,-46"/>
<polygon fill="orange" stroke="orange" points="130.199,-42.5001 120.199,-46 130.199,-49.5001 130.199,-42.5001"/>
<text text-anchor="middle" x="185" y="-50" font-family="Helvetica,sans-Serif" font-size="10.00"> &lt; my_pointer_size &gt;</text>
</g>
<!-- Node5 -->
<g id="node8" class="node"><title>Node5</title>
<a xlink:href="structstxxl_1_1BID.html" target="_top" xlink:title="stxxl::BID\&lt; raw_size \&gt;">
<polygon fill="none" stroke="black" points="1075,-166.5 1075,-187.5 1193,-187.5 1193,-166.5 1075,-166.5"/>
<text text-anchor="middle" x="1134" y="-174.5" font-family="Helvetica,sans-Serif" font-size="10.00">stxxl::BID&lt; raw_size &gt;</text>
</a>
</g>
<!-- Node5&#45;&gt;Node2 -->
<g id="edge8" class="edge"><title>Node5&#45;&gt;Node2</title>
<path fill="none" stroke="#9a32cd" stroke-dasharray="5,2" d="M1138.24,-197.688C1152.57,-261.182 1205.4,-449 1329,-449 1329,-449 1329,-449 3196,-449 3360.55,-449 3471.23,-233.517 3503.93,-160.707"/>
<polygon fill="#9a32cd" stroke="#9a32cd" points="1141.6,-196.695 1136.06,-187.663 1134.76,-198.177 1141.6,-196.695"/>
<text text-anchor="middle" x="2305" y="-453" font-family="Helvetica,sans-Serif" font-size="10.00"> external_data</text>
</g>
<!-- Node15 -->
<g id="node31" class="node"><title>Node15</title>
<a xlink:href="classstxxl_1_1mng__local_1_1block__w__bids.html" target="_top" xlink:title="stxxl::mng_local::block\l_w_bids\&lt; Type,((RawSize\l&#45;sizeof(BID\&lt; RawSize \&gt;)*NBids\l&#45;sizeof(MetaInfoType))/sizeof\l(Type)), RawSize, NBids \&gt;">
<polygon fill="none" stroke="black" points="1556,-129.5 1556,-202.5 1714,-202.5 1714,-129.5 1556,-129.5"/>
<text text-anchor="start" x="1564" y="-189.5" font-family="Helvetica,sans-Serif" font-size="10.00">stxxl::mng_local::block</text>
<text text-anchor="start" x="1564" y="-176.5" font-family="Helvetica,sans-Serif" font-size="10.00">_w_bids&lt; Type,((RawSize</text>
<text text-anchor="start" x="1564" y="-163.5" font-family="Helvetica,sans-Serif" font-size="10.00">&#45;sizeof(BID&lt; RawSize &gt;)*NBids</text>
<text text-anchor="start" x="1564" y="-150.5" font-family="Helvetica,sans-Serif" font-size="10.00">&#45;sizeof(MetaInfoType))/sizeof</text>
<text text-anchor="middle" x="1635" y="-137.5" font-family="Helvetica,sans-Serif" font-size="10.00">(Type)), RawSize, NBids &gt;</text>
</a>
</g>
<!-- Node5&#45;&gt;Node15 -->
<g id="edge38" class="edge"><title>Node5&#45;&gt;Node15</title>
<path fill="none" stroke="#9a32cd" stroke-dasharray="5,2" d="M1168.53,-191.245C1239.34,-218.373 1405.45,-271.306 1538,-231 1557.2,-225.162 1576.06,-214.118 1591.96,-202.768"/>
<polygon fill="#9a32cd" stroke="#9a32cd" points="1169.78,-187.973 1159.19,-187.6 1167.23,-194.495 1169.78,-187.973"/>
<text text-anchor="middle" x="1329" y="-248" font-family="Helvetica,sans-Serif" font-size="10.00"> ref</text>
</g>
<!-- Node17 -->
<g id="node36" class="node"><title>Node17</title>
<a xlink:href="classstxxl_1_1mng__local_1_1block__w__bids.html" target="_top" xlink:title="Contains BID references for stxxl::typed_block , not intended for direct use. ">
<polygon fill="none" stroke="black" points="1250,-150.5 1250,-197.5 1408,-197.5 1408,-150.5 1250,-150.5"/>
<text text-anchor="start" x="1258" y="-184.5" font-family="Helvetica,sans-Serif" font-size="10.00">stxxl::mng_local::block</text>
<text text-anchor="start" x="1258" y="-171.5" font-family="Helvetica,sans-Serif" font-size="10.00">_w_bids&lt; Type, Size, RawSize,</text>
<text text-anchor="middle" x="1329" y="-158.5" font-family="Helvetica,sans-Serif" font-size="10.00"> NBids &gt;</text>
</a>
</g>
<!-- Node5&#45;&gt;Node17 -->
<g id="edge44" class="edge"><title>Node5&#45;&gt;Node17</title>
<path fill="none" stroke="#9a32cd" stroke-dasharray="5,2" d="M1203.26,-175.935C1218.28,-175.703 1234.27,-175.457 1249.65,-175.221"/>
<polygon fill="#9a32cd" stroke="#9a32cd" points="1202.98,-172.438 1193.04,-176.092 1203.09,-179.437 1202.98,-172.438"/>
<text text-anchor="middle" x="1224" y="-179" font-family="Helvetica,sans-Serif" font-size="10.00"> ref</text>
</g>
<!-- Node5&#45;&gt;Node24 -->
<g id="edge70" class="edge"><title>Node5&#45;&gt;Node24</title>
<path fill="none" stroke="#9a32cd" stroke-dasharray="5,2" d="M1171.18,-163.126C1193.68,-155.322 1223.12,-146.14 1250,-141 1477.23,-97.5528 1537.65,-101 1769,-101 1769,-101 1769,-101 2971,-101 3024.52,-101 3085.2,-102.146 3130.04,-103.211"/>
<polygon fill="#9a32cd" stroke="#9a32cd" points="1169.94,-159.851 1161.68,-166.482 1172.28,-166.451 1169.94,-159.851"/>
<text text-anchor="middle" x="2184" y="-105" font-family="Helvetica,sans-Serif" font-size="10.00"> external_data</text>
</g>
<!-- Node6 -->
<g id="node10" class="node"><title>Node6</title>
<a xlink:href="classstxxl_1_1file.html" target="_top" xlink:title="Defines interface of file. ">
<polygon fill="none" stroke="black" points="742,-142.5 742,-163.5 798,-163.5 798,-142.5 742,-142.5"/>
<text text-anchor="middle" x="770" y="-150.5" font-family="Helvetica,sans-Serif" font-size="10.00">stxxl::file</text>
</a>
</g>
<!-- Node6&#45;&gt;Node5 -->
<g id="edge10" class="edge"><title>Node6&#45;&gt;Node5</title>
<path fill="none" stroke="#9a32cd" stroke-dasharray="5,2" d="M807.888,-162.669C810.622,-163.179 813.346,-163.632 816,-164 905.622,-176.428 1010.7,-178.276 1074.79,-177.994"/>
<polygon fill="#9a32cd" stroke="#9a32cd" points="808.559,-159.234 798.055,-160.621 807.131,-166.087 808.559,-159.234"/>
<text text-anchor="middle" x="921" y="-180" font-family="Helvetica,sans-Serif" font-size="10.00"> storage</text>
</g>
<!-- Node10 -->
<g id="node20" class="node"><title>Node10</title>
<a xlink:href="structstxxl_1_1BID.html" target="_top" xlink:title="Block identifier class. ">
<polygon fill="none" stroke="black" points="870.5,-126.5 870.5,-147.5 971.5,-147.5 971.5,-126.5 870.5,-126.5"/>
<text text-anchor="middle" x="921" y="-134.5" font-family="Helvetica,sans-Serif" font-size="10.00">stxxl::BID&lt; SIZE &gt;</text>
</a>
</g>
<!-- Node6&#45;&gt;Node10 -->
<g id="edge24" class="edge"><title>Node6&#45;&gt;Node10</title>
<path fill="none" stroke="#9a32cd" stroke-dasharray="5,2" d="M808.083,-148.965C827.001,-146.96 850.115,-144.511 870.491,-142.352"/>
<polygon fill="#9a32cd" stroke="#9a32cd" points="807.624,-145.494 798.048,-150.028 808.361,-152.455 807.624,-145.494"/>
<text text-anchor="middle" x="834" y="-151" font-family="Helvetica,sans-Serif" font-size="10.00"> storage</text>
</g>
<!-- Node7 -->
<g id="node12" class="node"><title>Node7</title>
<a xlink:href="classstxxl_1_1noncopyable.html" target="_top" xlink:title="stxxl::noncopyable">
<polygon fill="none" stroke="black" points="11,-130.5 11,-151.5 109,-151.5 109,-130.5 11,-130.5"/>
<text text-anchor="middle" x="60" y="-138.5" font-family="Helvetica,sans-Serif" font-size="10.00">stxxl::noncopyable</text>
</a>
</g>
<!-- Node7&#45;&gt;Node6 -->
<g id="edge12" class="edge"><title>Node7&#45;&gt;Node6</title>
<path fill="none" stroke="#8b1a1a" d="M119.175,-142C264.884,-144.463 636.788,-150.749 741.928,-152.526"/>
<polygon fill="#8b1a1a" stroke="#8b1a1a" points="119.139,-138.499 109.081,-141.83 119.021,-145.498 119.139,-138.499"/>
</g>
<!-- Node9 -->
<g id="node16" class="node"><title>Node9</title>
<a xlink:href="classstxxl_1_1mutex.html" target="_top" xlink:title="stxxl::mutex">
<polygon fill="none" stroke="black" points="274.5,-104.5 274.5,-125.5 345.5,-125.5 345.5,-104.5 274.5,-104.5"/>
<text text-anchor="middle" x="310" y="-112.5" font-family="Helvetica,sans-Serif" font-size="10.00">stxxl::mutex</text>
</a>
</g>
<!-- Node7&#45;&gt;Node9 -->
<g id="edge18" class="edge"><title>Node7&#45;&gt;Node9</title>
<path fill="none" stroke="#8b1a1a" d="M119.093,-134.854C167.33,-129.838 233.906,-122.914 274.346,-118.708"/>
<polygon fill="#8b1a1a" stroke="#8b1a1a" points="118.678,-131.379 109.094,-135.894 119.402,-138.341 118.678,-131.379"/>
</g>
<!-- Node8&#45;&gt;Node6 -->
<g id="edge14" class="edge"><title>Node8&#45;&gt;Node6</title>
<path fill="none" stroke="#9a32cd" stroke-dasharray="5,2" d="M649.729,-112.192C673.609,-114.717 700.434,-119.172 724,-127 734.795,-130.586 745.925,-136.798 754.533,-142.251"/>
<polygon fill="#9a32cd" stroke="#9a32cd" points="649.982,-108.701 639.693,-111.224 649.31,-115.668 649.982,-108.701"/>
<text text-anchor="middle" x="691" y="-131" font-family="Helvetica,sans-Serif" font-size="10.00"> m_request_ref</text>
</g>
<!-- Node9&#45;&gt;Node8 -->
<g id="edge16" class="edge"><title>Node9&#45;&gt;Node8</title>
<path fill="none" stroke="#9a32cd" stroke-dasharray="5,2" d="M355.875,-113.992C402.83,-112.96 475.885,-111.354 526.403,-110.244"/>
<polygon fill="#9a32cd" stroke="#9a32cd" points="355.611,-110.497 345.69,-114.216 355.765,-117.495 355.611,-110.497"/>
<text text-anchor="middle" x="448" y="-117" font-family="Helvetica,sans-Serif" font-size="10.00"> m_reference_count_mutex</text>
</g>
<!-- Node10&#45;&gt;Node5 -->
<g id="edge22" class="edge"><title>Node10&#45;&gt;Node5</title>
<path fill="none" stroke="orange" stroke-dasharray="5,2" d="M981.545,-145.112C1003.78,-148.387 1029.1,-152.469 1052,-157 1065.66,-159.702 1080.47,-163.153 1093.7,-166.425"/>
<polygon fill="orange" stroke="orange" points="981.967,-141.636 971.568,-143.664 980.962,-148.564 981.967,-141.636"/>
<text text-anchor="middle" x="1021" y="-161" font-family="Helvetica,sans-Serif" font-size="10.00"> &lt; raw_size &gt;</text>
</g>
<!-- Node11 -->
<g id="node23" class="node"><title>Node11</title>
<a xlink:href="classstxxl_1_1typed__block.html" target="_top" xlink:title="Block containing elements of fixed length. ">
<polygon fill="none" stroke="black" points="2908.5,-138.5 2908.5,-185.5 3033.5,-185.5 3033.5,-138.5 2908.5,-138.5"/>
<text text-anchor="start" x="2916.5" y="-172.5" font-family="Helvetica,sans-Serif" font-size="10.00">stxxl::typed_block</text>
<text text-anchor="start" x="2916.5" y="-159.5" font-family="Helvetica,sans-Serif" font-size="10.00">&lt; RawSize, Type, NRef,</text>
<text text-anchor="middle" x="2971" y="-146.5" font-family="Helvetica,sans-Serif" font-size="10.00"> MetaInfoType &gt;</text>
</a>
</g>
<!-- Node11&#45;&gt;Node2 -->
<g id="edge26" class="edge"><title>Node11&#45;&gt;Node2</title>
<path fill="none" stroke="#9a32cd" stroke-dasharray="5,2" d="M3043.8,-161.637C3132.69,-160.753 3287.58,-157.795 3420,-148 3425.82,-147.57 3431.83,-147.047 3437.87,-146.466"/>
<polygon fill="#9a32cd" stroke="#9a32cd" points="3043.52,-158.139 3033.56,-161.732 3043.59,-165.139 3043.52,-158.139"/>
<text text-anchor="middle" x="3196" y="-164" font-family="Helvetica,sans-Serif" font-size="10.00"> internal_data</text>
</g>
<!-- Node11&#45;&gt;Node24 -->
<g id="edge72" class="edge"><title>Node11&#45;&gt;Node24</title>
<path fill="none" stroke="#9a32cd" stroke-dasharray="5,2" d="M3043.43,-137.398C3046.32,-136.563 3049.18,-135.76 3052,-135 3077.39,-128.147 3105.67,-121.952 3130.39,-116.995"/>
<polygon fill="#9a32cd" stroke="#9a32cd" points="3042.15,-134.127 3033.57,-140.342 3044.16,-140.835 3042.15,-134.127"/>
<text text-anchor="middle" x="3082" y="-139" font-family="Helvetica,sans-Serif" font-size="10.00"> internal_data</text>
</g>
<!-- Node12 -->
<g id="node25" class="node"><title>Node12</title>
<a xlink:href="classstxxl_1_1mng__local_1_1expand__struct.html" target="_top" xlink:title="stxxl::mng_local::expand\l_struct\&lt; mng_local::block\l_w_info\&lt; Type, RawSize, NRef,\l MetaInfoType \&gt;, RawSize \&gt;">
<polygon fill="none" stroke="black" points="2710.5,-201 2710.5,-261 2869.5,-261 2869.5,-201 2710.5,-201"/>
<text text-anchor="start" x="2718.5" y="-248" font-family="Helvetica,sans-Serif" font-size="10.00">stxxl::mng_local::expand</text>
<text text-anchor="start" x="2718.5" y="-235" font-family="Helvetica,sans-Serif" font-size="10.00">_struct&lt; mng_local::block</text>
<text text-anchor="start" x="2718.5" y="-222" font-family="Helvetica,sans-Serif" font-size="10.00">_w_info&lt; Type, RawSize, NRef,</text>
<text text-anchor="middle" x="2790" y="-209" font-family="Helvetica,sans-Serif" font-size="10.00"> MetaInfoType &gt;, RawSize &gt;</text>
</a>
</g>
<!-- Node12&#45;&gt;Node11 -->
<g id="edge28" class="edge"><title>Node12&#45;&gt;Node11</title>
<path fill="none" stroke="midnightblue" d="M2878.42,-197.294C2888.85,-193.318 2899.32,-189.327 2909.27,-185.533"/>
<polygon fill="midnightblue" stroke="midnightblue" points="2876.96,-194.104 2868.86,-200.936 2879.45,-200.645 2876.96,-194.104"/>
</g>
<!-- Node13 -->
<g id="node27" class="node"><title>Node13</title>
<a xlink:href="classstxxl_1_1mng__local_1_1add__filler.html" target="_top" xlink:title="stxxl::mng_local::add\l_filler\&lt; mng_local::block\l_w_info\&lt; Type, RawSize,\l NRef, MetaInfoType \&gt;, RawSize\l&#45;sizeof(mng_local::block_w_info\l\&lt; Type, RawSize, NRef, MetaInfoType \&gt;)\&gt;">
<polygon fill="none" stroke="black" points="2354,-188 2354,-274 2560,-274 2560,-188 2354,-188"/>
<text text-anchor="start" x="2362" y="-261" font-family="Helvetica,sans-Serif" font-size="10.00">stxxl::mng_local::add</text>
<text text-anchor="start" x="2362" y="-248" font-family="Helvetica,sans-Serif" font-size="10.00">_filler&lt; mng_local::block</text>
<text text-anchor="start" x="2362" y="-235" font-family="Helvetica,sans-Serif" font-size="10.00">_w_info&lt; Type, RawSize,</text>
<text text-anchor="start" x="2362" y="-222" font-family="Helvetica,sans-Serif" font-size="10.00"> NRef, MetaInfoType &gt;, RawSize</text>
<text text-anchor="start" x="2362" y="-209" font-family="Helvetica,sans-Serif" font-size="10.00">&#45;sizeof(mng_local::block_w_info</text>
<text text-anchor="middle" x="2457" y="-196" font-family="Helvetica,sans-Serif" font-size="10.00">&lt; Type, RawSize, NRef, MetaInfoType &gt;)&gt;</text>
</a>
</g>
<!-- Node13&#45;&gt;Node12 -->
<g id="edge30" class="edge"><title>Node13&#45;&gt;Node12</title>
<path fill="none" stroke="midnightblue" d="M2570.12,-231C2616.22,-231 2668.42,-231 2710.39,-231"/>
<polygon fill="midnightblue" stroke="midnightblue" points="2570.08,-227.5 2560.08,-231 2570.08,-234.5 2570.08,-227.5"/>
</g>
<!-- Node14 -->
<g id="node29" class="node"><title>Node14</title>
<a xlink:href="classstxxl_1_1mng__local_1_1block__w__info.html" target="_top" xlink:title="stxxl::mng_local::block\l_w_info\&lt; Type, RawSize,\l NRef, MetaInfoType \&gt;">
<polygon fill="none" stroke="black" points="2119,-155.5 2119,-202.5 2249,-202.5 2249,-155.5 2119,-155.5"/>
<text text-anchor="start" x="2127" y="-189.5" font-family="Helvetica,sans-Serif" font-size="10.00">stxxl::mng_local::block</text>
<text text-anchor="start" x="2127" y="-176.5" font-family="Helvetica,sans-Serif" font-size="10.00">_w_info&lt; Type, RawSize,</text>
<text text-anchor="middle" x="2184" y="-163.5" font-family="Helvetica,sans-Serif" font-size="10.00"> NRef, MetaInfoType &gt;</text>
</a>
</g>
<!-- Node14&#45;&gt;Node13 -->
<g id="edge32" class="edge"><title>Node14&#45;&gt;Node13</title>
<path fill="none" stroke="midnightblue" d="M2259.17,-193.318C2288.39,-198.884 2322.35,-205.352 2353.79,-211.341"/>
<polygon fill="midnightblue" stroke="midnightblue" points="2259.52,-189.822 2249.04,-191.389 2258.21,-196.699 2259.52,-189.822"/>
</g>
<!-- Node15&#45;&gt;Node14 -->
<g id="edge34" class="edge"><title>Node15&#45;&gt;Node14</title>
<path fill="none" stroke="midnightblue" d="M1724.39,-177.25C1816.92,-187.396 1965.63,-199.52 2094,-191 2102.02,-190.468 2110.42,-189.671 2118.72,-188.737"/>
<polygon fill="midnightblue" stroke="midnightblue" points="1724.55,-173.746 1714.23,-176.118 1723.78,-180.703 1724.55,-173.746"/>
</g>
<!-- Node18 -->
<g id="node40" class="node"><title>Node18</title>
<a xlink:href="classstxxl_1_1mng__local_1_1block__w__info.html" target="_top" xlink:title="Contains per block information for stxxl::typed_block , not intended for direct use. ">
<polygon fill="none" stroke="black" points="1829,-129.5 1829,-176.5 1959,-176.5 1959,-129.5 1829,-129.5"/>
<text text-anchor="start" x="1837" y="-163.5" font-family="Helvetica,sans-Serif" font-size="10.00">stxxl::mng_local::block</text>
<text text-anchor="start" x="1837" y="-150.5" font-family="Helvetica,sans-Serif" font-size="10.00">_w_info&lt; Type, RawSize,</text>
<text text-anchor="middle" x="1894" y="-137.5" font-family="Helvetica,sans-Serif" font-size="10.00"> NBids, MetaInfoType &gt;</text>
</a>
</g>
<!-- Node15&#45;&gt;Node18 -->
<g id="edge48" class="edge"><title>Node15&#45;&gt;Node18</title>
<path fill="none" stroke="midnightblue" d="M1724.16,-161.525C1758.55,-159.799 1797.15,-157.861 1828.85,-156.27"/>
<polygon fill="midnightblue" stroke="midnightblue" points="1723.93,-158.032 1714.12,-162.029 1724.28,-165.023 1723.93,-158.032"/>
</g>
<!-- Node16 -->
<g id="node33" class="node"><title>Node16</title>
<a xlink:href="classstxxl_1_1mng__local_1_1element__block.html" target="_top" xlink:title="Contains data elements for stxxl::typed_block , not intended for direct use. ">
<polygon fill="none" stroke="black" points="1070,-83 1070,-117 1198,-117 1198,-83 1070,-83"/>
<text text-anchor="start" x="1078" y="-104" font-family="Helvetica,sans-Serif" font-size="10.00">stxxl::mng_local::element</text>
<text text-anchor="middle" x="1134" y="-91" font-family="Helvetica,sans-Serif" font-size="10.00">_block&lt; Type, Size &gt;</text>
</a>
</g>
<!-- Node16&#45;&gt;Node15 -->
<g id="edge36" class="edge"><title>Node16&#45;&gt;Node15</title>
<path fill="none" stroke="midnightblue" d="M1208.41,-109.802C1301.58,-122.076 1460.5,-143.012 1555.84,-155.572"/>
<polygon fill="midnightblue" stroke="midnightblue" points="1208.59,-106.296 1198.22,-108.46 1207.67,-113.236 1208.59,-106.296"/>
</g>
<!-- Node16&#45;&gt;Node17 -->
<g id="edge42" class="edge"><title>Node16&#45;&gt;Node17</title>
<path fill="none" stroke="midnightblue" d="M1188.68,-120.749C1213.05,-129.997 1241.87,-140.935 1267.03,-150.484"/>
<polygon fill="midnightblue" stroke="midnightblue" points="1189.82,-117.439 1179.23,-117.163 1187.33,-123.983 1189.82,-117.439"/>
</g>
<!-- Node17&#45;&gt;Node15 -->
<g id="edge40" class="edge"><title>Node17&#45;&gt;Node15</title>
<path fill="none" stroke="orange" stroke-dasharray="5,2" d="M1418.26,-166.359C1420.87,-166.225 1423.45,-166.105 1426,-166 1468.78,-164.239 1516.53,-164.101 1555.57,-164.465"/>
<polygon fill="orange" stroke="orange" points="1417.89,-162.874 1408.11,-166.935 1418.29,-169.863 1417.89,-162.874"/>
<text text-anchor="start" x="1426" y="-222" font-family="Helvetica,sans-Serif" font-size="10.00"> &lt; Type,((RawSize&#45;sizeof</text>
<text text-anchor="start" x="1426" y="-209" font-family="Helvetica,sans-Serif" font-size="10.00">(BID&lt; RawSize &gt;)*NBids</text>
<text text-anchor="start" x="1426" y="-196" font-family="Helvetica,sans-Serif" font-size="10.00">&#45;sizeof(MetaInfoType))</text>
<text text-anchor="start" x="1426" y="-183" font-family="Helvetica,sans-Serif" font-size="10.00">/sizeof(Type)), RawSize,</text>
<text text-anchor="middle" x="1482" y="-170" font-family="Helvetica,sans-Serif" font-size="10.00"> NBids &gt;</text>
</g>
<!-- Node18&#45;&gt;Node14 -->
<g id="edge46" class="edge"><title>Node18&#45;&gt;Node14</title>
<path fill="none" stroke="orange" stroke-dasharray="5,2" d="M1969.77,-155.859C2007.22,-157.701 2053.06,-160.598 2094,-165 2102.02,-165.862 2110.41,-166.937 2118.72,-168.104"/>
<polygon fill="orange" stroke="orange" points="1969.59,-152.346 1959.43,-155.366 1969.26,-159.338 1969.59,-152.346"/>
<text text-anchor="start" x="1982" y="-182" font-family="Helvetica,sans-Serif" font-size="10.00"> &lt; Type, RawSize, NRef,</text>
<text text-anchor="middle" x="2038" y="-169" font-family="Helvetica,sans-Serif" font-size="10.00"> MetaInfoType &gt;</text>
</g>
<!-- Node19 -->
<g id="node43" class="node"><title>Node19</title>
<a xlink:href="classstxxl_1_1mng__local_1_1filler__struct.html" target="_top" xlink:title="stxxl::mng_local::filler\l_struct\&lt; FillSize \&gt;">
<polygon fill="none" stroke="black" points="1579,-298 1579,-332 1691,-332 1691,-298 1579,-298"/>
<text text-anchor="start" x="1587" y="-319" font-family="Helvetica,sans-Serif" font-size="10.00">stxxl::mng_local::filler</text>
<text text-anchor="middle" x="1635" y="-306" font-family="Helvetica,sans-Serif" font-size="10.00">_struct&lt; FillSize &gt;</text>
</a>
</g>
<!-- Node19&#45;&gt;Node13 -->
<g id="edge50" class="edge"><title>Node19&#45;&gt;Node13</title>
<path fill="none" stroke="#9a32cd" stroke-dasharray="5,2" d="M1701.19,-305.819C1737.45,-300.808 1783.2,-294.518 1824,-289 1894.2,-279.506 1911.58,-275.655 1982,-268 2109.87,-254.101 2257.65,-243.435 2353.98,-237.203"/>
<polygon fill="#9a32cd" stroke="#9a32cd" points="1700.65,-302.36 1691.23,-307.197 1701.61,-309.294 1700.65,-302.36"/>
<text text-anchor="middle" x="2038" y="-272" font-family="Helvetica,sans-Serif" font-size="10.00"> filler</text>
</g>
<!-- Node21 -->
<g id="node47" class="node"><title>Node21</title>
<a xlink:href="classstxxl_1_1mng__local_1_1add__filler.html" target="_top" xlink:title="Contains per block filler for stxxl::typed_block , not intended for direct use. ">
<polygon fill="none" stroke="black" points="1824,-298 1824,-332 1964,-332 1964,-298 1824,-298"/>
<text text-anchor="start" x="1832" y="-319" font-family="Helvetica,sans-Serif" font-size="10.00">stxxl::mng_local::add</text>
<text text-anchor="middle" x="1894" y="-306" font-family="Helvetica,sans-Serif" font-size="10.00">_filler&lt; BaseType, FillSize &gt;</text>
</a>
</g>
<!-- Node19&#45;&gt;Node21 -->
<g id="edge56" class="edge"><title>Node19&#45;&gt;Node21</title>
<path fill="none" stroke="#9a32cd" stroke-dasharray="5,2" d="M1701.49,-315C1738.88,-315 1785.55,-315 1823.57,-315"/>
<polygon fill="#9a32cd" stroke="#9a32cd" points="1701.2,-311.5 1691.2,-315 1701.2,-318.5 1701.2,-311.5"/>
<text text-anchor="middle" x="1769" y="-319" font-family="Helvetica,sans-Serif" font-size="10.00"> filler</text>
</g>
<!-- Node23 -->
<g id="node52" class="node"><title>Node23</title>
<a xlink:href="classstxxl_1_1mng__local_1_1add__filler.html" target="_top" xlink:title="stxxl::mng_local::add\l_filler\&lt; Type, RawSize\l&#45;sizeof(Type)\&gt;">
<polygon fill="none" stroke="black" points="2126,-373.5 2126,-420.5 2242,-420.5 2242,-373.5 2126,-373.5"/>
<text text-anchor="start" x="2134" y="-407.5" font-family="Helvetica,sans-Serif" font-size="10.00">stxxl::mng_local::add</text>
<text text-anchor="start" x="2134" y="-394.5" font-family="Helvetica,sans-Serif" font-size="10.00">_filler&lt; Type, RawSize</text>
<text text-anchor="middle" x="2184" y="-381.5" font-family="Helvetica,sans-Serif" font-size="10.00">&#45;sizeof(Type)&gt;</text>
</a>
</g>
<!-- Node19&#45;&gt;Node23 -->
<g id="edge62" class="edge"><title>Node19&#45;&gt;Node23</title>
<path fill="none" stroke="#9a32cd" stroke-dasharray="5,2" d="M1701.29,-326.896C1711.56,-328.659 1722.06,-330.415 1732,-332 1873.12,-354.507 2039.6,-377.544 2125.76,-389.207"/>
<polygon fill="#9a32cd" stroke="#9a32cd" points="1701.57,-323.393 1691.12,-325.136 1700.37,-330.29 1701.57,-323.393"/>
<text text-anchor="middle" x="1894" y="-369" font-family="Helvetica,sans-Serif" font-size="10.00"> filler</text>
</g>
<!-- Node20 -->
<g id="node45" class="node"><title>Node20</title>
<a xlink:href="classstxxl_1_1mng__local_1_1filler__struct.html" target="_top" xlink:title="stxxl::mng_local::filler\l_struct\&lt; Bytes \&gt;">
<polygon fill="none" stroke="black" points="1273,-298 1273,-332 1385,-332 1385,-298 1273,-298"/>
<text text-anchor="start" x="1281" y="-319" font-family="Helvetica,sans-Serif" font-size="10.00">stxxl::mng_local::filler</text>
<text text-anchor="middle" x="1329" y="-306" font-family="Helvetica,sans-Serif" font-size="10.00">_struct&lt; Bytes &gt;</text>
</a>
</g>
<!-- Node20&#45;&gt;Node19 -->
<g id="edge52" class="edge"><title>Node20&#45;&gt;Node19</title>
<path fill="none" stroke="orange" stroke-dasharray="5,2" d="M1395.44,-315C1450.27,-315 1527.22,-315 1578.97,-315"/>
<polygon fill="orange" stroke="orange" points="1395.13,-311.5 1385.13,-315 1395.13,-318.5 1395.13,-311.5"/>
<text text-anchor="middle" x="1482" y="-319" font-family="Helvetica,sans-Serif" font-size="10.00"> &lt; FillSize &gt;</text>
</g>
<!-- Node21&#45;&gt;Node13 -->
<g id="edge54" class="edge"><title>Node21&#45;&gt;Node13</title>
<path fill="none" stroke="orange" stroke-dasharray="5,2" d="M1974.19,-303.036C2073.96,-288.15 2244.49,-262.706 2353.89,-246.384"/>
<polygon fill="orange" stroke="orange" points="1973.54,-299.594 1964.17,-304.531 1974.57,-306.517 1973.54,-299.594"/>
<text text-anchor="start" x="2112.5" y="-350" font-family="Helvetica,sans-Serif" font-size="10.00"> &lt; mng_local::block</text>
<text text-anchor="start" x="2112.5" y="-337" font-family="Helvetica,sans-Serif" font-size="10.00">_w_info&lt; Type, RawSize,</text>
<text text-anchor="start" x="2112.5" y="-324" font-family="Helvetica,sans-Serif" font-size="10.00"> NRef, MetaInfoType &gt;,</text>
<text text-anchor="start" x="2112.5" y="-311" font-family="Helvetica,sans-Serif" font-size="10.00"> RawSize&#45;sizeof(mng_local</text>
<text text-anchor="start" x="2112.5" y="-298" font-family="Helvetica,sans-Serif" font-size="10.00">::block_w_info&lt; Type, RawSize,</text>
<text text-anchor="middle" x="2184" y="-285" font-family="Helvetica,sans-Serif" font-size="10.00"> NRef, MetaInfoType &gt;)&gt;</text>
</g>
<!-- Node21&#45;&gt;Node23 -->
<g id="edge64" class="edge"><title>Node21&#45;&gt;Node23</title>
<path fill="none" stroke="orange" stroke-dasharray="5,2" d="M1974.43,-310.994C2012.62,-312.307 2057.73,-318.733 2094,-338 2104.86,-343.767 2102.39,-351.329 2112,-359 2118.52,-364.204 2125.85,-369.028 2133.29,-373.37"/>
<polygon fill="orange" stroke="orange" points="1974.45,-307.493 1964.37,-310.758 1974.28,-314.491 1974.45,-307.493"/>
<text text-anchor="start" x="1983.5" y="-355" font-family="Helvetica,sans-Serif" font-size="10.00"> &lt; Type, RawSize&#45;sizeof</text>
<text text-anchor="middle" x="2038" y="-342" font-family="Helvetica,sans-Serif" font-size="10.00">(Type)&gt;</text>
</g>
<!-- Node22 -->
<g id="node50" class="node"><title>Node22</title>
<a xlink:href="classstxxl_1_1mng__local_1_1expand__struct.html" target="_top" xlink:title="Helper to compute the size of the filler , not intended for direct use. ">
<polygon fill="none" stroke="black" points="2391,-314 2391,-348 2523,-348 2523,-314 2391,-314"/>
<text text-anchor="start" x="2399" y="-335" font-family="Helvetica,sans-Serif" font-size="10.00">stxxl::mng_local::expand</text>
<text text-anchor="middle" x="2457" y="-322" font-family="Helvetica,sans-Serif" font-size="10.00">_struct&lt; Type, RawSize &gt;</text>
</a>
</g>
<!-- Node22&#45;&gt;Node12 -->
<g id="edge58" class="edge"><title>Node22&#45;&gt;Node12</title>
<path fill="none" stroke="orange" stroke-dasharray="5,2" d="M2523.64,-310.987C2577.44,-294.833 2653.28,-272.057 2710.29,-254.938"/>
<polygon fill="orange" stroke="orange" points="2522.44,-307.695 2513.87,-313.923 2524.45,-314.399 2522.44,-307.695"/>
<text text-anchor="start" x="2578" y="-335" font-family="Helvetica,sans-Serif" font-size="10.00"> &lt; mng_local::block</text>
<text text-anchor="start" x="2578" y="-322" font-family="Helvetica,sans-Serif" font-size="10.00">_w_info&lt; Type, RawSize,</text>
<text text-anchor="start" x="2578" y="-309" font-family="Helvetica,sans-Serif" font-size="10.00"> NRef, MetaInfoType &gt;,</text>
<text text-anchor="middle" x="2635" y="-296" font-family="Helvetica,sans-Serif" font-size="10.00"> RawSize &gt;</text>
</g>
<!-- Node23&#45;&gt;Node22 -->
<g id="edge60" class="edge"><title>Node23&#45;&gt;Node22</title>
<path fill="none" stroke="midnightblue" d="M2252.18,-380.518C2294.53,-370.279 2348.71,-357.181 2390.7,-347.028"/>
<polygon fill="midnightblue" stroke="midnightblue" points="2251.13,-377.17 2242.23,-382.922 2252.77,-383.974 2251.13,-377.17"/>
</g>
<!-- Node24&#45;&gt;Node2 -->
<g id="edge66" class="edge"><title>Node24&#45;&gt;Node2</title>
<path fill="none" stroke="orange" stroke-dasharray="5,2" d="M3272.01,-109.206C3315.44,-112.001 3370.87,-116.226 3420,-122 3425.83,-122.685 3431.84,-123.468 3437.89,-124.309"/>
<polygon fill="orange" stroke="orange" points="3272.01,-105.699 3261.81,-108.562 3271.57,-112.685 3272.01,-105.699"/>
<text text-anchor="start" x="3280.5" y="-139" font-family="Helvetica,sans-Serif" font-size="10.00"> &lt; ValueType, BlockSideLength</text>
<text text-anchor="middle" x="3350" y="-126" font-family="Helvetica,sans-Serif" font-size="10.00"> *BlockSideLength &gt;</text>
</g>
</g>
</svg>
