<?xml version="1.0" encoding="UTF-8" standalone="no"?>
<!DOCTYPE svg PUBLIC "-//W3C//DTD SVG 1.1//EN"
 "http://www.w3.org/Graphics/SVG/1.1/DTD/svg11.dtd">
<!-- Generated by graphviz version 2.38.0 (20140413.2041)
 -->
<!-- Title: stxxl::linuxaio_queue Pages: 1 -->
<svg width="1007pt" height="283pt"
 viewBox="0.00 0.00 1007.00 283.37" xmlns="http://www.w3.org/2000/svg" xmlns:xlink="http://www.w3.org/1999/xlink">
<g id="graph0" class="graph" transform="scale(1 1) rotate(0) translate(4 279.37)">
<title>stxxl::linuxaio_queue</title>
<!-- Node1 -->
<g id="node1" class="node"><title>Node1</title>
<polygon fill="#bfbfbf" stroke="black" points="891,-174.067 891,-193.067 999,-193.067 999,-174.067 891,-174.067"/>
<text text-anchor="middle" x="945" y="-181.067" font-family="Helvetica,sans-Serif" font-size="10.00">stxxl::linuxaio_queue</text>
</g>
<!-- Node2 -->
<g id="node2" class="node"><title>Node2</title>
<g id="a_node2"><a xlink:href="classstxxl_1_1request__queue__impl__worker.html" target="_top" xlink:title="Implementation of request queue worker threads. Worker threads can be started by start_thread and sto...">
<polygon fill="none" stroke="black" points="548,-244.567 548,-274.567 655,-274.567 655,-244.567 548,-244.567"/>
<text text-anchor="start" x="556" y="-262.567" font-family="Helvetica,sans-Serif" font-size="10.00">stxxl::request_queue</text>
<text text-anchor="middle" x="601.5" y="-251.567" font-family="Helvetica,sans-Serif" font-size="10.00">_impl_worker</text>
</a>
</g>
</g>
<!-- Node2&#45;&gt;Node1 -->
<g id="edge1" class="edge"><title>Node2&#45;&gt;Node1</title>
<path fill="none" stroke="midnightblue" d="M665.277,-260.251C721.272,-259.038 804.711,-252.685 873,-228.567 895.843,-220.499 918.915,-203.973 932.314,-193.35"/>
<polygon fill="midnightblue" stroke="midnightblue" points="665.091,-256.754 655.151,-260.421 665.209,-263.753 665.091,-256.754"/>
</g>
<!-- Node3 -->
<g id="node3" class="node"><title>Node3</title>
<g id="a_node3"><a xlink:href="classstxxl_1_1request__queue.html" target="_top" xlink:title="Interface of a request_queue to which requests can be added and canceled. ">
<polygon fill="none" stroke="black" points="275,-254.067 275,-273.067 382,-273.067 382,-254.067 275,-254.067"/>
<text text-anchor="middle" x="328.5" y="-261.067" font-family="Helvetica,sans-Serif" font-size="10.00">stxxl::request_queue</text>
</a>
</g>
</g>
<!-- Node3&#45;&gt;Node2 -->
<g id="edge2" class="edge"><title>Node3&#45;&gt;Node2</title>
<path fill="none" stroke="midnightblue" d="M392.157,-262.642C439.257,-261.946 503.066,-261.005 547.611,-260.347"/>
<polygon fill="midnightblue" stroke="midnightblue" points="392.02,-259.143 382.073,-262.791 392.123,-266.142 392.02,-259.143"/>
</g>
<!-- Node4 -->
<g id="node4" class="node"><title>Node4</title>
<g id="a_node4"><a xlink:href="classstxxl_1_1noncopyable.html" target="_top" xlink:title="stxxl::noncopyable">
<polygon fill="none" stroke="black" points="0,-109.067 0,-128.067 98,-128.067 98,-109.067 0,-109.067"/>
<text text-anchor="middle" x="49" y="-116.067" font-family="Helvetica,sans-Serif" font-size="10.00">stxxl::noncopyable</text>
</a>
</g>
</g>
<!-- Node4&#45;&gt;Node3 -->
<g id="edge3" class="edge"><title>Node4&#45;&gt;Node3</title>
<path fill="none" stroke="#8b1a1a" d="M53.8871,-138.254C60.7873,-167.423 78.1709,-221.376 116,-246.567 162.759,-277.703 228.862,-277.776 274.67,-272.745"/>
<polygon fill="#8b1a1a" stroke="#8b1a1a" points="57.2882,-137.423 51.7351,-128.4 50.4494,-138.917 57.2882,-137.423"/>
</g>
<!-- Node5 -->
<g id="node5" class="node"><title>Node5</title>
<g id="a_node5"><a xlink:href="classstxxl_1_1mutex.html" target="_top" xlink:title="stxxl::mutex">
<polygon fill="none" stroke="black" points="160.5,-139.067 160.5,-158.067 231.5,-158.067 231.5,-139.067 160.5,-139.067"/>
<text text-anchor="middle" x="196" y="-146.067" font-family="Helvetica,sans-Serif" font-size="10.00">stxxl::mutex</text>
</a>
</g>
</g>
<!-- Node4&#45;&gt;Node5 -->
<g id="edge5" class="edge"><title>Node4&#45;&gt;Node5</title>
<path fill="none" stroke="#8b1a1a" d="M106.201,-130.194C124.386,-133.957 144.015,-138.018 160.181,-141.363"/>
<polygon fill="#8b1a1a" stroke="#8b1a1a" points="106.779,-126.74 96.2776,-128.141 105.361,-133.595 106.779,-126.74"/>
</g>
<!-- Node6 -->
<g id="node6" class="node"><title>Node6</title>
<g id="a_node6"><a xlink:href="classstxxl_1_1state.html" target="_top" xlink:title="stxxl::state\&lt; thread\l_state \&gt;">
<polygon fill="none" stroke="black" points="673,-45.5665 673,-75.5665 774,-75.5665 774,-45.5665 673,-45.5665"/>
<text text-anchor="start" x="681" y="-63.5665" font-family="Helvetica,sans-Serif" font-size="10.00">stxxl::state&lt; thread</text>
<text text-anchor="middle" x="723.5" y="-52.5665" font-family="Helvetica,sans-Serif" font-size="10.00">_state &gt;</text>
</a>
</g>
</g>
<!-- Node4&#45;&gt;Node6 -->
<g id="edge7" class="edge"><title>Node4&#45;&gt;Node6</title>
<path fill="none" stroke="#8b1a1a" d="M61.1551,-100.423C75.3097,-79.3733 101.911,-45.8568 135,-32.5665 297.949,32.8812 354.434,-20.0566 530,-23.5665 585.589,-24.6778 601.011,-15.2781 655,-28.5665 669.608,-32.162 684.837,-39.0694 697.124,-45.549"/>
<polygon fill="#8b1a1a" stroke="#8b1a1a" points="58.201,-98.5462 55.7081,-108.844 64.0784,-102.348 58.201,-98.5462"/>
</g>
<!-- Node7 -->
<g id="node7" class="node"><title>Node7</title>
<g id="a_node7"><a xlink:href="classstxxl_1_1condition__variable.html" target="_top" xlink:title="stxxl::condition_variable">
<polygon fill="none" stroke="black" points="135,-54.0665 135,-73.0665 257,-73.0665 257,-54.0665 135,-54.0665"/>
<text text-anchor="middle" x="196" y="-61.0665" font-family="Helvetica,sans-Serif" font-size="10.00">stxxl::condition_variable</text>
</a>
</g>
</g>
<!-- Node4&#45;&gt;Node7 -->
<g id="edge10" class="edge"><title>Node4&#45;&gt;Node7</title>
<path fill="none" stroke="#8b1a1a" d="M84.7755,-105.376C110.879,-95.4746 146.026,-82.143 169.546,-73.2215"/>
<polygon fill="#8b1a1a" stroke="#8b1a1a" points="83.3657,-102.167 75.2571,-108.986 85.8484,-108.712 83.3657,-102.167"/>
</g>
<!-- Node8 -->
<g id="node8" class="node"><title>Node8</title>
<g id="a_node8"><a xlink:href="classstxxl_1_1state.html" target="_top" xlink:title="stxxl::state\&lt; ValueType \&gt;">
<polygon fill="none" stroke="black" points="400,-51.0665 400,-70.0665 530,-70.0665 530,-51.0665 400,-51.0665"/>
<text text-anchor="middle" x="465" y="-58.0665" font-family="Helvetica,sans-Serif" font-size="10.00">stxxl::state&lt; ValueType &gt;</text>
</a>
</g>
</g>
<!-- Node4&#45;&gt;Node8 -->
<g id="edge12" class="edge"><title>Node4&#45;&gt;Node8</title>
<path fill="none" stroke="#8b1a1a" d="M63.5989,-100.884C78.7481,-82.7829 105.08,-55.7657 135,-44.5665 181.795,-27.0508 318.007,-40.9036 399.756,-51.4613"/>
<polygon fill="#8b1a1a" stroke="#8b1a1a" points="60.6499,-98.9653 57.0937,-108.945 66.0974,-103.361 60.6499,-98.9653"/>
</g>
<!-- Node9 -->
<g id="node9" class="node"><title>Node9</title>
<g id="a_node9"><a xlink:href="classstxxl_1_1semaphore.html" target="_top" xlink:title="stxxl::semaphore">
<polygon fill="none" stroke="black" points="419,-164.067 419,-183.067 511,-183.067 511,-164.067 419,-164.067"/>
<text text-anchor="middle" x="465" y="-171.067" font-family="Helvetica,sans-Serif" font-size="10.00">stxxl::semaphore</text>
</a>
</g>
</g>
<!-- Node4&#45;&gt;Node9 -->
<g id="edge16" class="edge"><title>Node4&#45;&gt;Node9</title>
<path fill="none" stroke="#8b1a1a" d="M71.0993,-134.022C87.6282,-145.288 111.659,-159.874 135,-167.567 232.12,-199.575 354.274,-189.755 418.971,-180.952"/>
<polygon fill="#8b1a1a" stroke="#8b1a1a" points="72.9396,-131.038 62.7404,-128.17 68.9249,-136.772 72.9396,-131.038"/>
</g>
<!-- Node5&#45;&gt;Node1 -->
<g id="edge4" class="edge"><title>Node5&#45;&gt;Node1</title>
<path fill="none" stroke="#9a32cd" stroke-dasharray="5,2" d="M222.769,-162.883C237.587,-170.402 256.818,-178.985 275,-183.567 382.59,-210.676 663.185,-206.094 774,-200.567 813.252,-198.609 857.413,-194.124 890.886,-190.252"/>
<polygon fill="#9a32cd" stroke="#9a32cd" points="224.207,-159.685 213.725,-158.148 220.961,-165.887 224.207,-159.685"/>
<text text-anchor="middle" x="601.5" y="-219.567" font-family="Helvetica,sans-Serif" font-size="10.00"> posted_mtx</text>
<text text-anchor="middle" x="601.5" y="-208.567" font-family="Helvetica,sans-Serif" font-size="10.00">waiting_mtx</text>
</g>
<!-- Node5&#45;&gt;Node6 -->
<g id="edge8" class="edge"><title>Node5&#45;&gt;Node6</title>
<path fill="none" stroke="#9a32cd" stroke-dasharray="5,2" d="M241.709,-146.904C279.296,-145.096 334.362,-141.483 382,-134.567 504.846,-116.73 533.744,-102.142 655,-75.5665 660.746,-74.3072 666.765,-72.9804 672.743,-71.6581"/>
<polygon fill="#9a32cd" stroke="#9a32cd" points="241.422,-143.414 231.592,-147.368 241.742,-150.406 241.422,-143.414"/>
<text text-anchor="middle" x="465" y="-135.567" font-family="Helvetica,sans-Serif" font-size="10.00"> m_mutex</text>
</g>
<!-- Node5&#45;&gt;Node8 -->
<g id="edge13" class="edge"><title>Node5&#45;&gt;Node8</title>
<path fill="none" stroke="#9a32cd" stroke-dasharray="5,2" d="M213.923,-131.749C228.737,-118.081 251.511,-99.4951 275,-89.5665 297.015,-80.2606 354.064,-72.248 399.768,-67.0183"/>
<polygon fill="#9a32cd" stroke="#9a32cd" points="211.394,-129.323 206.558,-138.75 216.217,-134.397 211.394,-129.323"/>
<text text-anchor="middle" x="328.5" y="-92.5665" font-family="Helvetica,sans-Serif" font-size="10.00"> m_mutex</text>
</g>
<!-- Node5&#45;&gt;Node9 -->
<g id="edge17" class="edge"><title>Node5&#45;&gt;Node9</title>
<path fill="none" stroke="#9a32cd" stroke-dasharray="5,2" d="M241.972,-155.426C252.773,-156.93 264.284,-158.415 275,-159.567 324.071,-164.838 380.525,-168.739 418.863,-171.065"/>
<polygon fill="#9a32cd" stroke="#9a32cd" points="242.278,-151.934 231.884,-153.989 241.29,-158.864 242.278,-151.934"/>
<text text-anchor="middle" x="328.5" y="-171.567" font-family="Helvetica,sans-Serif" font-size="10.00"> m_mutex</text>
</g>
<!-- Node6&#45;&gt;Node1 -->
<g id="edge6" class="edge"><title>Node6&#45;&gt;Node1</title>
<path fill="none" stroke="#9a32cd" stroke-dasharray="5,2" d="M783.919,-77.5629C812.107,-87.0493 845.543,-100.44 873,-117.567 898.703,-133.599 923.362,-159.715 935.739,-173.809"/>
<polygon fill="#9a32cd" stroke="#9a32cd" points="784.779,-74.1615 774.186,-74.3706 782.597,-80.8128 784.779,-74.1615"/>
<text text-anchor="middle" x="832.5" y="-131.567" font-family="Helvetica,sans-Serif" font-size="10.00"> wait_thread_state</text>
<text text-anchor="middle" x="832.5" y="-120.567" font-family="Helvetica,sans-Serif" font-size="10.00">post_thread_state</text>
</g>
<!-- Node7&#45;&gt;Node6 -->
<g id="edge9" class="edge"><title>Node7&#45;&gt;Node6</title>
<path fill="none" stroke="#9a32cd" stroke-dasharray="5,2" d="M263.983,-52.3738C267.709,-51.7601 271.401,-51.1543 275,-50.5665 330.526,-41.4973 343.915,-35.025 400,-30.5665 457.596,-25.9879 472.395,-26.1047 530,-30.5665 578.898,-34.3539 634.161,-43.4753 672.891,-50.6733"/>
<polygon fill="#9a32cd" stroke="#9a32cd" points="263.372,-48.9272 254.076,-54.0099 264.513,-55.8336 263.372,-48.9272"/>
<text text-anchor="middle" x="465" y="-33.5665" font-family="Helvetica,sans-Serif" font-size="10.00"> m_cond</text>
</g>
<!-- Node7&#45;&gt;Node8 -->
<g id="edge14" class="edge"><title>Node7&#45;&gt;Node8</title>
<path fill="none" stroke="#9a32cd" stroke-dasharray="5,2" d="M267.395,-56.0145C269.961,-55.8449 272.502,-55.6943 275,-55.5665 322.493,-53.1373 334.466,-54.1187 382,-55.5665 387.702,-55.7402 393.625,-55.9817 399.559,-56.2655"/>
<polygon fill="#9a32cd" stroke="#9a32cd" points="267.134,-52.5241 257.42,-56.7541 267.652,-59.505 267.134,-52.5241"/>
<text text-anchor="middle" x="328.5" y="-58.5665" font-family="Helvetica,sans-Serif" font-size="10.00"> m_cond</text>
</g>
<!-- Node7&#45;&gt;Node9 -->
<g id="edge18" class="edge"><title>Node7&#45;&gt;Node9</title>
<path fill="none" stroke="#9a32cd" stroke-dasharray="5,2" d="M225.147,-77.5387C239.877,-84.6926 258.281,-93.3841 275,-100.567 332.204,-125.141 400.656,-150.631 437.456,-164.022"/>
<polygon fill="#9a32cd" stroke="#9a32cd" points="226.573,-74.34 216.052,-73.0909 223.497,-80.6283 226.573,-74.34"/>
<text text-anchor="middle" x="328.5" y="-145.567" font-family="Helvetica,sans-Serif" font-size="10.00"> m_cond</text>
</g>
<!-- Node8&#45;&gt;Node6 -->
<g id="edge11" class="edge"><title>Node8&#45;&gt;Node6</title>
<path fill="none" stroke="orange" stroke-dasharray="5,2" d="M540.124,-60.5665C582.788,-60.5665 635.239,-60.5665 672.923,-60.5665"/>
<polygon fill="orange" stroke="orange" points="540.064,-57.0666 530.064,-60.5665 540.064,-64.0666 540.064,-57.0666"/>
<text text-anchor="middle" x="601.5" y="-63.5665" font-family="Helvetica,sans-Serif" font-size="10.00"> &lt; thread_state &gt;</text>
</g>
<!-- Node9&#45;&gt;Node1 -->
<g id="edge15" class="edge"><title>Node9&#45;&gt;Node1</title>
<path fill="none" stroke="#9a32cd" stroke-dasharray="5,2" d="M521.455,-170.273C583.142,-167.125 685.748,-163.423 774,-167.567 813.235,-169.409 857.397,-173.63 890.875,-177.274"/>
<polygon fill="#9a32cd" stroke="#9a32cd" points="520.973,-166.793 511.17,-170.812 521.34,-173.784 520.973,-166.793"/>
<text text-anchor="middle" x="723.5" y="-192.567" font-family="Helvetica,sans-Serif" font-size="10.00"> num_posted_requests</text>
<text text-anchor="middle" x="723.5" y="-181.567" font-family="Helvetica,sans-Serif" font-size="10.00">num_waiting_requests</text>
<text text-anchor="middle" x="723.5" y="-170.567" font-family="Helvetica,sans-Serif" font-size="10.00">num_free_events</text>
</g>
</g>
</svg>
