<?xml version="1.0" encoding="UTF-8" standalone="no"?>
<!DOCTYPE svg PUBLIC "-//W3C//DTD SVG 1.1//EN"
 "http://www.w3.org/Graphics/SVG/1.1/DTD/svg11.dtd">
<!-- Generated by graphviz version 2.26.3 (20100126.1600)
 -->
<!-- Title: stxxl::priority_queue_local::ext_merger&lt; BlockType_, Cmp_, Arity_, AllocStr_ &gt; Pages: 1 -->
<svg width="1448pt" height="370pt"
 viewBox="0.00 0.00 1448.00 370.00" xmlns="http://www.w3.org/2000/svg" xmlns:xlink="http://www.w3.org/1999/xlink">
<g id="graph1" class="graph" transform="scale(1 1) rotate(0) translate(4 366)">
<title>stxxl::priority_queue_local::ext_merger&lt; BlockType_, Cmp_, Arity_, AllocStr_ &gt;</title>
<!-- Node1 -->
<g id="node1" class="node"><title>Node1</title>
<polygon fill="#bfbfbf" stroke="black" points="1066,-108.5 1066,-155.5 1218,-155.5 1218,-108.5 1066,-108.5"/>
<text text-anchor="start" x="1074" y="-142.5" font-family="Helvetica,sans-Serif" font-size="10.00">stxxl::priority_queue</text>
<text text-anchor="start" x="1074" y="-129.5" font-family="Helvetica,sans-Serif" font-size="10.00">_local::ext_merger&lt; BlockType</text>
<text text-anchor="middle" x="1142" y="-116.5" font-family="Helvetica,sans-Serif" font-size="10.00">_, Cmp_, Arity_, AllocStr_ &gt;</text>
</g>
<!-- Node12 -->
<g id="node26" class="node"><title>Node12</title>
<a xlink:href="structstxxl_1_1priority__queue__local_1_1ext__merger_1_1sequence__state.html" target="_top" xlink:title="stxxl::priority_queue\l_local::ext_merger\&lt; BlockType\l_, Cmp_, Arity_, AllocStr\l_ \&gt;::sequence_state">
<polygon fill="none" stroke="black" points="1288,-102 1288,-162 1440,-162 1440,-102 1288,-102"/>
<text text-anchor="start" x="1296" y="-149" font-family="Helvetica,sans-Serif" font-size="10.00">stxxl::priority_queue</text>
<text text-anchor="start" x="1296" y="-136" font-family="Helvetica,sans-Serif" font-size="10.00">_local::ext_merger&lt; BlockType</text>
<text text-anchor="start" x="1296" y="-123" font-family="Helvetica,sans-Serif" font-size="10.00">_, Cmp_, Arity_, AllocStr</text>
<text text-anchor="middle" x="1364" y="-110" font-family="Helvetica,sans-Serif" font-size="10.00">_ &gt;::sequence_state</text>
</a>
</g>
<!-- Node1&#45;&gt;Node12 -->
<g id="edge34" class="edge"><title>Node1&#45;&gt;Node12</title>
<path fill="none" stroke="#9a32cd" stroke-dasharray="5,2" d="M1228.22,-132C1247.81,-132 1268.49,-132 1287.63,-132"/>
<polygon fill="#9a32cd" stroke="#9a32cd" points="1228.09,-128.5 1218.09,-132 1228.09,-135.5 1228.09,-128.5"/>
<text text-anchor="middle" x="1253" y="-136" font-family="Helvetica,sans-Serif" font-size="10.00"> merger</text>
</g>
<!-- Node2 -->
<g id="node2" class="node"><title>Node2</title>
<a xlink:href="classstxxl_1_1noncopyable.html" target="_top" xlink:title="stxxl::noncopyable">
<polygon fill="none" stroke="black" points="307,-138.5 307,-159.5 405,-159.5 405,-138.5 307,-138.5"/>
<text text-anchor="middle" x="356" y="-146.5" font-family="Helvetica,sans-Serif" font-size="10.00">stxxl::noncopyable</text>
</a>
</g>
<!-- Node2&#45;&gt;Node1 -->
<g id="edge2" class="edge"><title>Node2&#45;&gt;Node1</title>
<path fill="none" stroke="#8b1a1a" d="M378.535,-132.408C410.365,-110.111 471.188,-71.5909 530,-57 593.381,-41.2754 867.351,-49.8701 962,-68 1006.14,-76.4546 1053.98,-93.8891 1089.24,-108.429"/>
<polygon fill="#8b1a1a" stroke="#8b1a1a" points="376.469,-129.583 370.353,-138.234 380.529,-135.286 376.469,-129.583"/>
</g>
<!-- Node3 -->
<g id="node4" class="node"><title>Node3</title>
<a xlink:href="classstxxl_1_1read__write__pool.html" target="_top" xlink:title="Implements dynamically resizable buffered writing and prefetched reading pool. ">
<polygon fill="none" stroke="black" points="830,-155 830,-189 942,-189 942,-155 830,-155"/>
<text text-anchor="start" x="838" y="-176" font-family="Helvetica,sans-Serif" font-size="10.00">stxxl::read_write_pool</text>
<text text-anchor="middle" x="886" y="-163" font-family="Helvetica,sans-Serif" font-size="10.00">&lt; BlockType &gt;</text>
</a>
</g>
<!-- Node2&#45;&gt;Node3 -->
<g id="edge6" class="edge"><title>Node2&#45;&gt;Node3</title>
<path fill="none" stroke="#8b1a1a" d="M415.024,-159.936C421.421,-161.019 427.841,-162.063 434,-163 591.478,-186.958 632.853,-186.76 792,-180 804.273,-179.479 817.423,-178.576 829.882,-177.561"/>
<polygon fill="#8b1a1a" stroke="#8b1a1a" points="415.482,-156.464 405.032,-158.212 414.291,-163.362 415.482,-156.464"/>
</g>
<!-- Node4 -->
<g id="node7" class="node"><title>Node4</title>
<a xlink:href="classstxxl_1_1prefetch__pool.html" target="_top" xlink:title="Implements dynamically resizable prefetching pool. ">
<polygon fill="none" stroke="black" points="546,-222 546,-256 648,-256 648,-222 546,-222"/>
<text text-anchor="start" x="554" y="-243" font-family="Helvetica,sans-Serif" font-size="10.00">stxxl::prefetch_pool</text>
<text text-anchor="middle" x="597" y="-230" font-family="Helvetica,sans-Serif" font-size="10.00">&lt; BlockType &gt;</text>
</a>
</g>
<!-- Node2&#45;&gt;Node4 -->
<g id="edge10" class="edge"><title>Node2&#45;&gt;Node4</title>
<path fill="none" stroke="#8b1a1a" d="M381.157,-164.75C396.101,-173.623 415.659,-184.412 434,-192 470.331,-207.031 513.097,-219.167 545.707,-227.339"/>
<polygon fill="#8b1a1a" stroke="#8b1a1a" points="382.87,-161.696 372.501,-159.519 379.25,-167.687 382.87,-161.696"/>
</g>
<!-- Node9 -->
<g id="node18" class="node"><title>Node9</title>
<a xlink:href="classstxxl_1_1write__pool.html" target="_top" xlink:title="Implements dynamically resizable buffered writing pool. ">
<polygon fill="none" stroke="black" points="550,-132 550,-166 644,-166 644,-132 550,-132"/>
<text text-anchor="start" x="558" y="-153" font-family="Helvetica,sans-Serif" font-size="10.00">stxxl::write_pool&lt;</text>
<text text-anchor="middle" x="597" y="-140" font-family="Helvetica,sans-Serif" font-size="10.00"> BlockType &gt;</text>
</a>
</g>
<!-- Node2&#45;&gt;Node9 -->
<g id="edge22" class="edge"><title>Node2&#45;&gt;Node9</title>
<path fill="none" stroke="#8b1a1a" d="M415.281,-149C456.664,-149 511.164,-149 549.65,-149"/>
<polygon fill="#8b1a1a" stroke="#8b1a1a" points="415.06,-145.5 405.06,-149 415.06,-152.5 415.06,-145.5"/>
</g>
<!-- Node2&#45;&gt;Node12 -->
<g id="edge32" class="edge"><title>Node2&#45;&gt;Node12</title>
<path fill="none" stroke="#8b1a1a" d="M368.178,-129.886C381.931,-109.699 406.069,-78.1907 434,-59 497.5,-15.3706 519.956,-0 597,-0 597,-0 597,-0 1142,-0 1221.14,-0 1296.68,-62.7456 1335.97,-101.717"/>
<polygon fill="#8b1a1a" stroke="#8b1a1a" points="365.221,-128.011 362.613,-138.28 371.056,-131.879 365.221,-128.011"/>
</g>
<!-- Node3&#45;&gt;Node1 -->
<g id="edge4" class="edge"><title>Node3&#45;&gt;Node1</title>
<path fill="none" stroke="#9a32cd" stroke-dasharray="5,2" d="M952.2,-161.656C986.866,-156.24 1029.49,-149.58 1065.56,-143.944"/>
<polygon fill="#9a32cd" stroke="#9a32cd" points="951.52,-158.22 942.18,-163.222 952.601,-165.136 951.52,-158.22"/>
<text text-anchor="middle" x="1014" y="-160" font-family="Helvetica,sans-Serif" font-size="10.00"> pool</text>
</g>
<!-- Node4&#45;&gt;Node3 -->
<g id="edge8" class="edge"><title>Node4&#45;&gt;Node3</title>
<path fill="none" stroke="#9a32cd" stroke-dasharray="5,2" d="M658.199,-232.588C696.967,-227.715 747.926,-219.805 792,-208 810.4,-203.072 830.172,-195.814 846.812,-189.103"/>
<polygon fill="#9a32cd" stroke="#9a32cd" points="657.612,-229.134 648.111,-233.823 658.462,-236.082 657.612,-229.134"/>
<text text-anchor="middle" x="737" y="-232" font-family="Helvetica,sans-Serif" font-size="10.00"> p_pool</text>
</g>
<!-- Node5 -->
<g id="node10" class="node"><title>Node5</title>
<a xlink:href="structstxxl_1_1choose__int__types.html" target="_top" xlink:title="stxxl::choose_int_types\l\&lt; my_pointer_size \&gt;">
<polygon fill="none" stroke="black" points="296,-286 296,-320 416,-320 416,-286 296,-286"/>
<text text-anchor="start" x="304" y="-307" font-family="Helvetica,sans-Serif" font-size="10.00">stxxl::choose_int_types</text>
<text text-anchor="middle" x="356" y="-294" font-family="Helvetica,sans-Serif" font-size="10.00">&lt; my_pointer_size &gt;</text>
</a>
</g>
<!-- Node5&#45;&gt;Node1 -->
<g id="edge28" class="edge"><title>Node5&#45;&gt;Node1</title>
<path fill="none" stroke="#9a32cd" stroke-dasharray="5,2" d="M426.193,-297.698C453.075,-295.406 484.001,-292.452 512,-289 637.025,-273.584 668.87,-271.605 792,-245 868.622,-228.444 886.584,-219.386 962,-198 1000.29,-187.141 1010.57,-186.54 1048,-173 1062.23,-167.852 1077.37,-161.603 1091.26,-155.551"/>
<polygon fill="#9a32cd" stroke="#9a32cd" points="425.776,-294.22 416.103,-298.543 426.36,-301.196 425.776,-294.22"/>
<text text-anchor="middle" x="737" y="-283" font-family="Helvetica,sans-Serif" font-size="10.00"> k</text>
<text text-anchor="middle" x="737" y="-270" font-family="Helvetica,sans-Serif" font-size="10.00">log_k</text>
</g>
<!-- Node5&#45;&gt;Node4 -->
<g id="edge12" class="edge"><title>Node5&#45;&gt;Node4</title>
<path fill="none" stroke="#9a32cd" stroke-dasharray="5,2" d="M412.481,-282.632C419.686,-280.275 426.99,-278.002 434,-276 471.11,-265.4 513.657,-255.827 545.974,-249.075"/>
<polygon fill="#9a32cd" stroke="#9a32cd" points="411.131,-279.393 402.755,-285.88 413.348,-286.032 411.131,-279.393"/>
<text text-anchor="middle" x="473" y="-280" font-family="Helvetica,sans-Serif" font-size="10.00"> free_blocks_size</text>
</g>
<!-- Node5&#45;&gt;Node12 -->
<g id="edge36" class="edge"><title>Node5&#45;&gt;Node12</title>
<path fill="none" stroke="#9a32cd" stroke-dasharray="5,2" d="M422.832,-322.765C470.843,-335.235 537.349,-349 597,-349 597,-349 597,-349 1142,-349 1247.64,-349 1321.65,-221.799 1350.54,-162.173"/>
<polygon fill="#9a32cd" stroke="#9a32cd" points="423.439,-319.305 412.876,-320.129 421.647,-326.072 423.439,-319.305"/>
<text text-anchor="middle" x="886" y="-353" font-family="Helvetica,sans-Serif" font-size="10.00"> current</text>
</g>
<!-- Node6 -->
<g id="node12" class="node"><title>Node6</title>
<a xlink:href="structstxxl_1_1choose__int__types.html" target="_top" xlink:title="stxxl::choose_int_types\l\&lt; PtrSize \&gt;">
<polygon fill="none" stroke="black" points="17,-286 17,-320 137,-320 137,-286 17,-286"/>
<text text-anchor="start" x="25" y="-307" font-family="Helvetica,sans-Serif" font-size="10.00">stxxl::choose_int_types</text>
<text text-anchor="middle" x="77" y="-294" font-family="Helvetica,sans-Serif" font-size="10.00">&lt; PtrSize &gt;</text>
</a>
</g>
<!-- Node6&#45;&gt;Node5 -->
<g id="edge14" class="edge"><title>Node6&#45;&gt;Node5</title>
<path fill="none" stroke="orange" stroke-dasharray="5,2" d="M147.35,-303C193.165,-303 252.302,-303 295.913,-303"/>
<polygon fill="orange" stroke="orange" points="147.195,-299.5 137.195,-303 147.195,-306.5 147.195,-299.5"/>
<text text-anchor="middle" x="225" y="-307" font-family="Helvetica,sans-Serif" font-size="10.00"> &lt; my_pointer_size &gt;</text>
</g>
<!-- Node7 -->
<g id="node14" class="node"><title>Node7</title>
<a xlink:href="structstxxl_1_1compat__hash__map.html" target="_top" xlink:title="stxxl::compat_hash\l_map\&lt; bid_type, busy\l_entry, bid_hash \&gt;">
<polygon fill="none" stroke="black" points="299.5,-215.5 299.5,-262.5 412.5,-262.5 412.5,-215.5 299.5,-215.5"/>
<text text-anchor="start" x="307.5" y="-249.5" font-family="Helvetica,sans-Serif" font-size="10.00">stxxl::compat_hash</text>
<text text-anchor="start" x="307.5" y="-236.5" font-family="Helvetica,sans-Serif" font-size="10.00">_map&lt; bid_type, busy</text>
<text text-anchor="middle" x="356" y="-223.5" font-family="Helvetica,sans-Serif" font-size="10.00">_entry, bid_hash &gt;</text>
</a>
</g>
<!-- Node7&#45;&gt;Node4 -->
<g id="edge16" class="edge"><title>Node7&#45;&gt;Node4</title>
<path fill="none" stroke="#9a32cd" stroke-dasharray="5,2" d="M422.689,-239C461.583,-239 509.888,-239 545.777,-239"/>
<polygon fill="#9a32cd" stroke="#9a32cd" points="422.504,-235.5 412.504,-239 422.504,-242.5 422.504,-235.5"/>
<text text-anchor="middle" x="473" y="-243" font-family="Helvetica,sans-Serif" font-size="10.00"> busy_blocks</text>
</g>
<!-- Node8 -->
<g id="node16" class="node"><title>Node8</title>
<a xlink:href="structstxxl_1_1compat__hash__map.html" target="_top" xlink:title="stxxl::compat_hash\l_map\&lt; KeyType, MappedType,\l HashType \&gt;">
<polygon fill="none" stroke="black" points="0,-215.5 0,-262.5 154,-262.5 154,-215.5 0,-215.5"/>
<text text-anchor="start" x="8" y="-249.5" font-family="Helvetica,sans-Serif" font-size="10.00">stxxl::compat_hash</text>
<text text-anchor="start" x="8" y="-236.5" font-family="Helvetica,sans-Serif" font-size="10.00">_map&lt; KeyType, MappedType,</text>
<text text-anchor="middle" x="77" y="-223.5" font-family="Helvetica,sans-Serif" font-size="10.00"> HashType &gt;</text>
</a>
</g>
<!-- Node8&#45;&gt;Node7 -->
<g id="edge18" class="edge"><title>Node8&#45;&gt;Node7</title>
<path fill="none" stroke="orange" stroke-dasharray="5,2" d="M164.478,-239C208.505,-239 260.6,-239 299.336,-239"/>
<polygon fill="orange" stroke="orange" points="164.347,-235.5 154.347,-239 164.347,-242.5 164.347,-235.5"/>
<text text-anchor="start" x="172" y="-256" font-family="Helvetica,sans-Serif" font-size="10.00"> &lt; bid_type, busy_entry,</text>
<text text-anchor="middle" x="225" y="-243" font-family="Helvetica,sans-Serif" font-size="10.00"> bid_hash &gt;</text>
</g>
<!-- Node9&#45;&gt;Node3 -->
<g id="edge20" class="edge"><title>Node9&#45;&gt;Node3</title>
<path fill="none" stroke="#9a32cd" stroke-dasharray="5,2" d="M654.255,-153.557C705.167,-157.608 779.175,-163.498 829.774,-167.525"/>
<polygon fill="#9a32cd" stroke="#9a32cd" points="654.322,-150.051 644.076,-152.747 653.767,-157.029 654.322,-150.051"/>
<text text-anchor="middle" x="737" y="-167" font-family="Helvetica,sans-Serif" font-size="10.00"> w_pool</text>
</g>
<!-- Node10 -->
<g id="node21" class="node"><title>Node10</title>
<a xlink:href="classstxxl_1_1priority__queue__local_1_1internal__bounded__stack.html" target="_top" xlink:title="stxxl::priority_queue\l_local::internal_bounded\l_stack\&lt; unsigned_type, arity \&gt;">
<polygon fill="none" stroke="black" points="810,-77.5 810,-124.5 962,-124.5 962,-77.5 810,-77.5"/>
<text text-anchor="start" x="818" y="-111.5" font-family="Helvetica,sans-Serif" font-size="10.00">stxxl::priority_queue</text>
<text text-anchor="start" x="818" y="-98.5" font-family="Helvetica,sans-Serif" font-size="10.00">_local::internal_bounded</text>
<text text-anchor="middle" x="886" y="-85.5" font-family="Helvetica,sans-Serif" font-size="10.00">_stack&lt; unsigned_type, arity &gt;</text>
</a>
</g>
<!-- Node10&#45;&gt;Node1 -->
<g id="edge24" class="edge"><title>Node10&#45;&gt;Node1</title>
<path fill="none" stroke="#9a32cd" stroke-dasharray="5,2" d="M972.236,-110.948C996.728,-113.819 1023.42,-116.99 1048,-120 1053.8,-120.71 1059.79,-121.454 1065.82,-122.208"/>
<polygon fill="#9a32cd" stroke="#9a32cd" points="972.589,-107.466 962.25,-109.78 971.775,-114.418 972.589,-107.466"/>
<text text-anchor="middle" x="1014" y="-124" font-family="Helvetica,sans-Serif" font-size="10.00"> free_segments</text>
</g>
<!-- Node11 -->
<g id="node23" class="node"><title>Node11</title>
<a xlink:href="classstxxl_1_1priority__queue__local_1_1internal__bounded__stack.html" target="_top" xlink:title="Similar to std::stack, with the following differences: ">
<polygon fill="none" stroke="black" points="530,-66.5 530,-113.5 664,-113.5 664,-66.5 530,-66.5"/>
<text text-anchor="start" x="538" y="-100.5" font-family="Helvetica,sans-Serif" font-size="10.00">stxxl::priority_queue</text>
<text text-anchor="start" x="538" y="-87.5" font-family="Helvetica,sans-Serif" font-size="10.00">_local::internal_bounded</text>
<text text-anchor="middle" x="597" y="-74.5" font-family="Helvetica,sans-Serif" font-size="10.00">_stack&lt; Tp_, max_size_ &gt;</text>
</a>
</g>
<!-- Node11&#45;&gt;Node10 -->
<g id="edge26" class="edge"><title>Node11&#45;&gt;Node10</title>
<path fill="none" stroke="orange" stroke-dasharray="5,2" d="M674.215,-92.939C716.243,-94.5387 768.05,-96.5105 809.903,-98.1036"/>
<polygon fill="orange" stroke="orange" points="674.155,-89.4342 664.029,-92.5513 673.888,-96.4292 674.155,-89.4342"/>
<text text-anchor="middle" x="737" y="-101" font-family="Helvetica,sans-Serif" font-size="10.00"> &lt; unsigned_type, arity &gt;</text>
</g>
<!-- Node12&#45;&gt;Node1 -->
<g id="edge30" class="edge"><title>Node12&#45;&gt;Node1</title>
<path fill="none" stroke="#9a32cd" stroke-dasharray="5,2" d="M1277.79,-115.789C1275.17,-115.495 1272.57,-115.23 1270,-115 1253.14,-113.488 1235.1,-114.346 1218.03,-116.309"/>
<polygon fill="#9a32cd" stroke="#9a32cd" points="1277.62,-119.295 1287.97,-117.061 1278.48,-112.349 1277.62,-119.295"/>
<text text-anchor="middle" x="1253" y="-119" font-family="Helvetica,sans-Serif" font-size="10.00"> states</text>
</g>
</g>
</svg>
