<?xml version="1.0" encoding="UTF-8" standalone="no"?>
<!DOCTYPE svg PUBLIC "-//W3C//DTD SVG 1.1//EN"
 "http://www.w3.org/Graphics/SVG/1.1/DTD/svg11.dtd">
<!-- Generated by graphviz version 2.38.0 (20140413.2041)
 -->
<!-- Title: stxxl::hash_map::buffered_reader&lt; CacheType, BidIterator &gt; Pages: 1 -->
<svg width="277pt" height="217pt"
 viewBox="0.00 0.00 277.00 217.00" xmlns="http://www.w3.org/2000/svg" xmlns:xlink="http://www.w3.org/1999/xlink">
<g id="graph0" class="graph" transform="scale(1 1) rotate(0) translate(4 213)">
<title>stxxl::hash_map::buffered_reader&lt; CacheType, BidIterator &gt;</title>
<!-- Node1 -->
<g id="node1" class="node"><title>Node1</title>
<polygon fill="#bfbfbf" stroke="black" points="5,-0.5 5,-30.5 173,-30.5 173,-0.5 5,-0.5"/>
<text text-anchor="start" x="13" y="-18.5" font-family="Helvetica,sans-Serif" font-size="10.00">stxxl::hash_map::buffered</text>
<text text-anchor="middle" x="89" y="-7.5" font-family="Helvetica,sans-Serif" font-size="10.00">_reader&lt; CacheType, BidIterator &gt;</text>
</g>
<!-- Node2 -->
<g id="node2" class="node"><title>Node2</title>
<g id="a_node2"><a xlink:href="classstxxl_1_1noncopyable.html" target="_top" xlink:title="stxxl::noncopyable">
<polygon fill="none" stroke="black" points="0,-106 0,-125 98,-125 98,-106 0,-106"/>
<text text-anchor="middle" x="49" y="-113" font-family="Helvetica,sans-Serif" font-size="10.00">stxxl::noncopyable</text>
</a>
</g>
</g>
<!-- Node2&#45;&gt;Node1 -->
<g id="edge1" class="edge"><title>Node2&#45;&gt;Node1</title>
<path fill="none" stroke="#8b1a1a" d="M56.3532,-96.4847C64.1,-77.5049 76.1395,-48.0082 83.2297,-30.6372"/>
<polygon fill="#8b1a1a" stroke="#8b1a1a" points="53.0883,-95.222 52.5497,-105.803 59.5692,-97.8673 53.0883,-95.222"/>
</g>
<!-- Node3 -->
<g id="node3" class="node"><title>Node3</title>
<g id="a_node3"><a xlink:href="structstxxl_1_1choose__int__types.html" target="_top" xlink:title="stxxl::choose_int_types\l\&lt; my_pointer_size \&gt;">
<polygon fill="none" stroke="black" points="116,-100.5 116,-130.5 236,-130.5 236,-100.5 116,-100.5"/>
<text text-anchor="start" x="124" y="-118.5" font-family="Helvetica,sans-Serif" font-size="10.00">stxxl::choose_int_types</text>
<text text-anchor="middle" x="176" y="-107.5" font-family="Helvetica,sans-Serif" font-size="10.00">&lt; my_pointer_size &gt;</text>
</a>
</g>
</g>
<!-- Node3&#45;&gt;Node1 -->
<g id="edge2" class="edge"><title>Node3&#45;&gt;Node1</title>
<path fill="none" stroke="#9a32cd" stroke-dasharray="5,2" d="M156.796,-92.8684C139.935,-73.8748 115.903,-46.8045 101.442,-30.515"/>
<polygon fill="#9a32cd" stroke="#9a32cd" points="154.279,-95.3043 163.535,-100.459 159.514,-90.657 154.279,-95.3043"/>
<text text-anchor="middle" x="183" y="-74" font-family="Helvetica,sans-Serif" font-size="10.00"> prefetch_pages_</text>
<text text-anchor="middle" x="183" y="-63" font-family="Helvetica,sans-Serif" font-size="10.00">i_value_</text>
<text text-anchor="middle" x="183" y="-52" font-family="Helvetica,sans-Serif" font-size="10.00">page_size_</text>
</g>
<!-- Node4 -->
<g id="node4" class="node"><title>Node4</title>
<g id="a_node4"><a xlink:href="structstxxl_1_1choose__int__types.html" target="_top" xlink:title="stxxl::choose_int_types\l\&lt; PtrSize \&gt;">
<polygon fill="none" stroke="black" points="116,-178.5 116,-208.5 236,-208.5 236,-178.5 116,-178.5"/>
<text text-anchor="start" x="124" y="-196.5" font-family="Helvetica,sans-Serif" font-size="10.00">stxxl::choose_int_types</text>
<text text-anchor="middle" x="176" y="-185.5" font-family="Helvetica,sans-Serif" font-size="10.00">&lt; PtrSize &gt;</text>
</a>
</g>
</g>
<!-- Node4&#45;&gt;Node3 -->
<g id="edge3" class="edge"><title>Node4&#45;&gt;Node3</title>
<path fill="none" stroke="orange" stroke-dasharray="5,2" d="M176,-168.09C176,-155.757 176,-141.224 176,-130.731"/>
<polygon fill="orange" stroke="orange" points="172.5,-168.205 176,-178.205 179.5,-168.205 172.5,-168.205"/>
<text text-anchor="middle" x="222.5" y="-152" font-family="Helvetica,sans-Serif" font-size="10.00"> &lt; my_pointer_size &gt;</text>
</g>
</g>
</svg>
