<?xml version="1.0" encoding="UTF-8" standalone="no"?>
<!DOCTYPE svg PUBLIC "-//W3C//DTD SVG 1.1//EN"
 "http://www.w3.org/Graphics/SVG/1.1/DTD/svg11.dtd">
<!-- Generated by graphviz version 2.38.0 (20140413.2041)
 -->
<!-- Title: stxxl::priority_queue_local::int_merger&lt; ValueType, CompareType, MaxArity &gt; Pages: 1 -->
<svg width="199pt" height="218pt"
 viewBox="0.00 0.00 199.00 218.00" xmlns="http://www.w3.org/2000/svg" xmlns:xlink="http://www.w3.org/1999/xlink">
<g id="graph0" class="graph" transform="scale(1 1) rotate(0) translate(4 214)">
<title>stxxl::priority_queue_local::int_merger&lt; ValueType, CompareType, MaxArity &gt;</title>
<!-- Node1 -->
<g id="node1" class="node"><title>Node1</title>
<polygon fill="#bfbfbf" stroke="black" points="0,-111.5 0,-152.5 152,-152.5 152,-111.5 0,-111.5"/>
<text text-anchor="start" x="8" y="-140.5" font-family="Helvetica,sans-Serif" font-size="10.00">stxxl::priority_queue</text>
<text text-anchor="start" x="8" y="-129.5" font-family="Helvetica,sans-Serif" font-size="10.00">_local::int_merger&lt; ValueType,</text>
<text text-anchor="middle" x="76" y="-118.5" font-family="Helvetica,sans-Serif" font-size="10.00"> CompareType, MaxArity &gt;</text>
</g>
<!-- Node3 -->
<g id="node3" class="node"><title>Node3</title>
<g id="a_node3"><a xlink:href="classstxxl_1_1priority__queue__local_1_1int__merger.html" target="_top" xlink:title="stxxl::priority_queue\l_local::int_merger\&lt; value\l_type, comparator_type,\l IntKMAX \&gt;">
<polygon fill="none" stroke="black" points="13,-0.5 13,-52.5 139,-52.5 139,-0.5 13,-0.5"/>
<text text-anchor="start" x="21" y="-40.5" font-family="Helvetica,sans-Serif" font-size="10.00">stxxl::priority_queue</text>
<text text-anchor="start" x="21" y="-29.5" font-family="Helvetica,sans-Serif" font-size="10.00">_local::int_merger&lt; value</text>
<text text-anchor="start" x="21" y="-18.5" font-family="Helvetica,sans-Serif" font-size="10.00">_type, comparator_type,</text>
<text text-anchor="middle" x="76" y="-7.5" font-family="Helvetica,sans-Serif" font-size="10.00"> IntKMAX &gt;</text>
</a>
</g>
</g>
<!-- Node1&#45;&gt;Node3 -->
<g id="edge2" class="edge"><title>Node1&#45;&gt;Node3</title>
<path fill="none" stroke="orange" stroke-dasharray="5,2" d="M76,-100.988C76,-85.6145 76,-67.1139 76,-52.5215"/>
<polygon fill="orange" stroke="orange" points="72.5001,-101.044 76,-111.044 79.5001,-101.044 72.5001,-101.044"/>
<text text-anchor="start" x="76" y="-85" font-family="Helvetica,sans-Serif" font-size="10.00"> &lt; value_type, comparator</text>
<text text-anchor="middle" x="133.5" y="-74" font-family="Helvetica,sans-Serif" font-size="10.00">_type, IntKMAX &gt;</text>
</g>
<!-- Node2 -->
<g id="node2" class="node"><title>Node2</title>
<g id="a_node2"><a xlink:href="classstxxl_1_1noncopyable.html" target="_top" xlink:title="stxxl::noncopyable">
<polygon fill="none" stroke="black" points="27,-190.5 27,-209.5 125,-209.5 125,-190.5 27,-190.5"/>
<text text-anchor="middle" x="76" y="-197.5" font-family="Helvetica,sans-Serif" font-size="10.00">stxxl::noncopyable</text>
</a>
</g>
</g>
<!-- Node2&#45;&gt;Node1 -->
<g id="edge1" class="edge"><title>Node2&#45;&gt;Node1</title>
<path fill="none" stroke="#8b1a1a" d="M76,-180.246C76,-171.647 76,-161.451 76,-152.735"/>
<polygon fill="#8b1a1a" stroke="#8b1a1a" points="72.5001,-180.372 76,-190.372 79.5001,-180.372 72.5001,-180.372"/>
</g>
</g>
</svg>
