<?xml version="1.0" encoding="UTF-8" standalone="no"?>
<!DOCTYPE svg PUBLIC "-//W3C//DTD SVG 1.1//EN"
 "http://www.w3.org/Graphics/SVG/1.1/DTD/svg11.dtd">
<!-- Generated by graphviz version 2.26.3 (20100126.1600)
 -->
<!-- Title: stxxl::request_interface Pages: 1 -->
<svg width="252pt" height="348pt"
 viewBox="0.00 0.00 252.00 348.00" xmlns="http://www.w3.org/2000/svg" xmlns:xlink="http://www.w3.org/1999/xlink">
<g id="graph1" class="graph" transform="scale(1 1) rotate(0) translate(4 344)">
<title>stxxl::request_interface</title>
<!-- Node1 -->
<g id="node1" class="node"><title>Node1</title>
<polygon fill="#bfbfbf" stroke="black" points="62.5,-260.5 62.5,-281.5 181.5,-281.5 181.5,-260.5 62.5,-260.5"/>
<text text-anchor="middle" x="122" y="-268.5" font-family="Helvetica,sans-Serif" font-size="10.00">stxxl::request_interface</text>
</g>
<!-- Node3 -->
<g id="node5" class="node"><title>Node3</title>
<a xlink:href="classstxxl_1_1request.html" target="_top" xlink:title="Request object encapsulating basic properties like file and offset. ">
<polygon fill="none" stroke="black" points="84,-202.5 84,-223.5 160,-223.5 160,-202.5 84,-202.5"/>
<text text-anchor="middle" x="122" y="-210.5" font-family="Helvetica,sans-Serif" font-size="10.00">stxxl::request</text>
</a>
</g>
<!-- Node1&#45;&gt;Node3 -->
<g id="edge4" class="edge"><title>Node1&#45;&gt;Node3</title>
<path fill="none" stroke="midnightblue" d="M122,-250.191C122,-241.168 122,-230.994 122,-223.571"/>
<polygon fill="midnightblue" stroke="midnightblue" points="118.5,-250.362 122,-260.362 125.5,-250.362 118.5,-250.362"/>
</g>
<!-- Node2 -->
<g id="node2" class="node"><title>Node2</title>
<a xlink:href="classstxxl_1_1noncopyable.html" target="_top" xlink:title="stxxl::noncopyable">
<polygon fill="none" stroke="black" points="73,-318.5 73,-339.5 171,-339.5 171,-318.5 73,-318.5"/>
<text text-anchor="middle" x="122" y="-326.5" font-family="Helvetica,sans-Serif" font-size="10.00">stxxl::noncopyable</text>
</a>
</g>
<!-- Node2&#45;&gt;Node1 -->
<g id="edge2" class="edge"><title>Node2&#45;&gt;Node1</title>
<path fill="none" stroke="#8b1a1a" d="M122,-308.191C122,-299.168 122,-288.994 122,-281.571"/>
<polygon fill="#8b1a1a" stroke="#8b1a1a" points="118.5,-308.362 122,-318.362 125.5,-308.362 118.5,-308.362"/>
</g>
<!-- Node4 -->
<g id="node7" class="node"><title>Node4</title>
<a xlink:href="classstxxl_1_1request__with__waiters.html" target="_top" xlink:title="Request that is aware of threads waiting for it to complete. ">
<polygon fill="none" stroke="black" points="72.5,-131 72.5,-165 171.5,-165 171.5,-131 72.5,-131"/>
<text text-anchor="start" x="80.5" y="-152" font-family="Helvetica,sans-Serif" font-size="10.00">stxxl::request_with</text>
<text text-anchor="middle" x="122" y="-139" font-family="Helvetica,sans-Serif" font-size="10.00">_waiters</text>
</a>
</g>
<!-- Node3&#45;&gt;Node4 -->
<g id="edge6" class="edge"><title>Node3&#45;&gt;Node4</title>
<path fill="none" stroke="midnightblue" d="M122,-192.131C122,-183.405 122,-173.391 122,-165.11"/>
<polygon fill="midnightblue" stroke="midnightblue" points="118.5,-192.267 122,-202.267 125.5,-192.267 118.5,-192.267"/>
</g>
<!-- Node5 -->
<g id="node9" class="node"><title>Node5</title>
<a xlink:href="classstxxl_1_1request__with__state.html" target="_top" xlink:title="Request with completion state. ">
<polygon fill="none" stroke="black" points="72.5,-59 72.5,-93 171.5,-93 171.5,-59 72.5,-59"/>
<text text-anchor="start" x="80.5" y="-80" font-family="Helvetica,sans-Serif" font-size="10.00">stxxl::request_with</text>
<text text-anchor="middle" x="122" y="-67" font-family="Helvetica,sans-Serif" font-size="10.00">_state</text>
</a>
</g>
<!-- Node4&#45;&gt;Node5 -->
<g id="edge8" class="edge"><title>Node4&#45;&gt;Node5</title>
<path fill="none" stroke="midnightblue" d="M122,-120.719C122,-111.572 122,-101.625 122,-93.4407"/>
<polygon fill="midnightblue" stroke="midnightblue" points="118.5,-120.937 122,-130.937 125.5,-120.937 118.5,-120.937"/>
</g>
<!-- Node6 -->
<g id="node11" class="node"><title>Node6</title>
<a xlink:href="classstxxl_1_1linuxaio__request.html" target="_top" xlink:title="Request for an linuxaio_file. ">
<polygon fill="none" stroke="black" points="0,-0.5 0,-21.5 114,-21.5 114,-0.5 0,-0.5"/>
<text text-anchor="middle" x="57" y="-8.5" font-family="Helvetica,sans-Serif" font-size="10.00">stxxl::linuxaio_request</text>
</a>
</g>
<!-- Node5&#45;&gt;Node6 -->
<g id="edge10" class="edge"><title>Node5&#45;&gt;Node6</title>
<path fill="none" stroke="midnightblue" d="M97.7102,-51.7102C87.4333,-41.4333 75.9845,-29.9845 67.8521,-21.8521"/>
<polygon fill="midnightblue" stroke="midnightblue" points="95.376,-54.3258 104.922,-58.922 100.326,-49.376 95.376,-54.3258"/>
</g>
<!-- Node7 -->
<g id="node13" class="node"><title>Node7</title>
<a xlink:href="classstxxl_1_1serving__request.html" target="_top" xlink:title="Request which serves an I/O by calling the synchronous routine of the file. ">
<polygon fill="none" stroke="black" points="131.5,-0.5 131.5,-21.5 244.5,-21.5 244.5,-0.5 131.5,-0.5"/>
<text text-anchor="middle" x="188" y="-8.5" font-family="Helvetica,sans-Serif" font-size="10.00">stxxl::serving_request</text>
</a>
</g>
<!-- Node5&#45;&gt;Node7 -->
<g id="edge12" class="edge"><title>Node5&#45;&gt;Node7</title>
<path fill="none" stroke="midnightblue" d="M146.663,-51.7102C157.098,-41.4333 168.723,-29.9845 176.981,-21.8521"/>
<polygon fill="midnightblue" stroke="midnightblue" points="144.01,-49.4114 139.341,-58.922 148.922,-54.3988 144.01,-49.4114"/>
</g>
</g>
</svg>
