<?xml version="1.0" encoding="UTF-8" standalone="no"?>
<!DOCTYPE svg PUBLIC "-//W3C//DTD SVG 1.1//EN"
 "http://www.w3.org/Graphics/SVG/1.1/DTD/svg11.dtd">
<!-- Generated by graphviz version 2.38.0 (20140413.2041)
 -->
<!-- Title: stxxl::request_with_state Pages: 1 -->
<svg width="1433pt" height="440pt"
 viewBox="0.00 0.00 1433.00 440.31" xmlns="http://www.w3.org/2000/svg" xmlns:xlink="http://www.w3.org/1999/xlink">
<g id="graph0" class="graph" transform="scale(1 1) rotate(0) translate(4 436.305)">
<title>stxxl::request_with_state</title>
<!-- Node1 -->
<g id="node1" class="node"><title>Node1</title>
<polygon fill="#bfbfbf" stroke="black" points="1326,-118.305 1326,-148.305 1425,-148.305 1425,-118.305 1326,-118.305"/>
<text text-anchor="start" x="1334" y="-136.305" font-family="Helvetica,sans-Serif" font-size="10.00">stxxl::request_with</text>
<text text-anchor="middle" x="1375.5" y="-125.305" font-family="Helvetica,sans-Serif" font-size="10.00">_state</text>
</g>
<!-- Node2 -->
<g id="node2" class="node"><title>Node2</title>
<g id="a_node2"><a xlink:href="classstxxl_1_1request__with__waiters.html" target="_top" xlink:title="Request that is aware of threads waiting for it to complete. ">
<polygon fill="none" stroke="black" points="1190,-160.305 1190,-190.305 1289,-190.305 1289,-160.305 1190,-160.305"/>
<text text-anchor="start" x="1198" y="-178.305" font-family="Helvetica,sans-Serif" font-size="10.00">stxxl::request_with</text>
<text text-anchor="middle" x="1239.5" y="-167.305" font-family="Helvetica,sans-Serif" font-size="10.00">_waiters</text>
</a>
</g>
</g>
<!-- Node2&#45;&gt;Node1 -->
<g id="edge1" class="edge"><title>Node2&#45;&gt;Node1</title>
<path fill="none" stroke="midnightblue" d="M1298.18,-157.227C1307.58,-154.279 1317.24,-151.252 1326.39,-148.386"/>
<polygon fill="midnightblue" stroke="midnightblue" points="1296.99,-153.93 1288.5,-160.261 1299.09,-160.61 1296.99,-153.93"/>
</g>
<!-- Node3 -->
<g id="node3" class="node"><title>Node3</title>
<g id="a_node3"><a xlink:href="classstxxl_1_1request.html" target="_top" xlink:title="Request object encapsulating basic properties like file and offset. ">
<polygon fill="none" stroke="black" points="1039,-294.805 1039,-313.805 1115,-313.805 1115,-294.805 1039,-294.805"/>
<text text-anchor="middle" x="1077" y="-301.805" font-family="Helvetica,sans-Serif" font-size="10.00">stxxl::request</text>
</a>
</g>
</g>
<!-- Node3&#45;&gt;Node2 -->
<g id="edge2" class="edge"><title>Node3&#45;&gt;Node2</title>
<path fill="none" stroke="midnightblue" d="M1098.08,-288.165C1129.37,-263.013 1189.33,-214.821 1219.78,-190.355"/>
<polygon fill="midnightblue" stroke="midnightblue" points="1095.67,-285.617 1090.06,-294.609 1100.05,-291.073 1095.67,-285.617"/>
</g>
<!-- Node4 -->
<g id="node4" class="node"><title>Node4</title>
<g id="a_node4"><a xlink:href="classstxxl_1_1request__interface.html" target="_top" xlink:title="Functional interface of a request. ">
<polygon fill="none" stroke="black" points="389,-257.805 389,-276.805 508,-276.805 508,-257.805 389,-257.805"/>
<text text-anchor="middle" x="448.5" y="-264.805" font-family="Helvetica,sans-Serif" font-size="10.00">stxxl::request_interface</text>
</a>
</g>
</g>
<!-- Node4&#45;&gt;Node3 -->
<g id="edge3" class="edge"><title>Node4&#45;&gt;Node3</title>
<path fill="none" stroke="midnightblue" d="M507.717,-281.148C507.812,-281.2 507.906,-281.253 508,-281.305 517.873,-286.83 515.603,-294.844 526,-299.305 698.403,-373.292 760.402,-307.378 948,-309.305 980.443,-309.639 988.589,-310.776 1021,-309.305 1026.75,-309.045 1032.82,-308.631 1038.75,-308.152"/>
<polygon fill="midnightblue" stroke="midnightblue" points="509.03,-277.898 498.488,-276.837 506.067,-284.24 509.03,-277.898"/>
</g>
<!-- Node5 -->
<g id="node5" class="node"><title>Node5</title>
<g id="a_node5"><a xlink:href="classstxxl_1_1noncopyable.html" target="_top" xlink:title="stxxl::noncopyable">
<polygon fill="none" stroke="black" points="11,-99.8053 11,-118.805 109,-118.805 109,-99.8053 11,-99.8053"/>
<text text-anchor="middle" x="60" y="-106.805" font-family="Helvetica,sans-Serif" font-size="10.00">stxxl::noncopyable</text>
</a>
</g>
</g>
<!-- Node5&#45;&gt;Node4 -->
<g id="edge4" class="edge"><title>Node5&#45;&gt;Node4</title>
<path fill="none" stroke="#8b1a1a" d="M66.1851,-128.671C75.2609,-158.378 97.075,-214.464 138,-240.305 215.416,-289.188 326.247,-285.115 392.14,-276.822"/>
<polygon fill="#8b1a1a" stroke="#8b1a1a" points="69.5377,-127.665 63.4059,-119.025 62.8113,-129.603 69.5377,-127.665"/>
</g>
<!-- Node7 -->
<g id="node7" class="node"><title>Node7</title>
<g id="a_node7"><a xlink:href="classstxxl_1_1mutex.html" target="_top" xlink:title="stxxl::mutex">
<polygon fill="none" stroke="black" points="274.5,-132.805 274.5,-151.805 345.5,-151.805 345.5,-132.805 274.5,-132.805"/>
<text text-anchor="middle" x="310" y="-139.805" font-family="Helvetica,sans-Serif" font-size="10.00">stxxl::mutex</text>
</a>
</g>
</g>
<!-- Node5&#45;&gt;Node7 -->
<g id="edge7" class="edge"><title>Node5&#45;&gt;Node7</title>
<path fill="none" stroke="#8b1a1a" d="M119.08,-117.034C167.204,-123.437 234.003,-132.326 274.211,-137.676"/>
<polygon fill="#8b1a1a" stroke="#8b1a1a" points="119.485,-113.557 109.111,-115.707 118.562,-120.496 119.485,-113.557"/>
</g>
<!-- Node10 -->
<g id="node10" class="node"><title>Node10</title>
<g id="a_node10"><a xlink:href="classstxxl_1_1file.html" target="_top" xlink:title="Defines interface of file. ">
<polygon fill="none" stroke="black" points="838,-237.805 838,-256.805 894,-256.805 894,-237.805 838,-237.805"/>
<text text-anchor="middle" x="866" y="-244.805" font-family="Helvetica,sans-Serif" font-size="10.00">stxxl::file</text>
</a>
</g>
</g>
<!-- Node5&#45;&gt;Node10 -->
<g id="edge11" class="edge"><title>Node5&#45;&gt;Node10</title>
<path fill="none" stroke="#8b1a1a" d="M92.548,-122.864C106.373,-128.582 122.866,-135.104 138,-140.305 247.753,-178.027 274.746,-191.942 389,-212.305 557.863,-242.401 764.863,-246.71 837.919,-247.257"/>
<polygon fill="#8b1a1a" stroke="#8b1a1a" points="93.586,-119.504 83.01,-118.873 90.8838,-125.962 93.586,-119.504"/>
</g>
<!-- Node15 -->
<g id="node15" class="node"><title>Node15</title>
<g id="a_node15"><a xlink:href="classstxxl_1_1state.html" target="_top" xlink:title="stxxl::state\&lt; request\l_state \&gt;">
<polygon fill="none" stroke="black" points="812.5,-75.3053 812.5,-105.305 919.5,-105.305 919.5,-75.3053 812.5,-75.3053"/>
<text text-anchor="start" x="820.5" y="-93.3053" font-family="Helvetica,sans-Serif" font-size="10.00">stxxl::state&lt; request</text>
<text text-anchor="middle" x="866" y="-82.3053" font-family="Helvetica,sans-Serif" font-size="10.00">_state &gt;</text>
</a>
</g>
</g>
<!-- Node5&#45;&gt;Node15 -->
<g id="edge20" class="edge"><title>Node5&#45;&gt;Node15</title>
<path fill="none" stroke="#8b1a1a" d="M119.388,-101.341C225.944,-87.7511 459.111,-62.3742 656,-71.3053 709.321,-73.724 770.06,-79.5967 812.264,-84.1781"/>
<polygon fill="#8b1a1a" stroke="#8b1a1a" points="118.64,-97.9084 109.17,-102.658 119.535,-104.851 118.64,-97.9084"/>
</g>
<!-- Node16 -->
<g id="node16" class="node"><title>Node16</title>
<g id="a_node16"><a xlink:href="classstxxl_1_1condition__variable.html" target="_top" xlink:title="stxxl::condition_variable">
<polygon fill="none" stroke="black" points="249,-4.8053 249,-23.8053 371,-23.8053 371,-4.8053 249,-4.8053"/>
<text text-anchor="middle" x="310" y="-11.8053" font-family="Helvetica,sans-Serif" font-size="10.00">stxxl::condition_variable</text>
</a>
</g>
</g>
<!-- Node5&#45;&gt;Node16 -->
<g id="edge23" class="edge"><title>Node5&#45;&gt;Node16</title>
<path fill="none" stroke="#8b1a1a" d="M74.4683,-91.8543C88.4227,-75.1435 111.829,-50.6954 138,-38.3053 172.411,-22.0143 214.765,-15.9804 248.711,-14.036"/>
<polygon fill="#8b1a1a" stroke="#8b1a1a" points="71.6259,-89.8033 68.068,-99.7829 77.0727,-94.2002 71.6259,-89.8033"/>
</g>
<!-- Node17 -->
<g id="node17" class="node"><title>Node17</title>
<g id="a_node17"><a xlink:href="classstxxl_1_1state.html" target="_top" xlink:title="stxxl::state\&lt; ValueType \&gt;">
<polygon fill="none" stroke="black" points="526,-80.8053 526,-99.8053 656,-99.8053 656,-80.8053 526,-80.8053"/>
<text text-anchor="middle" x="591" y="-87.8053" font-family="Helvetica,sans-Serif" font-size="10.00">stxxl::state&lt; ValueType &gt;</text>
</a>
</g>
</g>
<!-- Node5&#45;&gt;Node17 -->
<g id="edge25" class="edge"><title>Node5&#45;&gt;Node17</title>
<path fill="none" stroke="#8b1a1a" d="M119.21,-107.145C184.783,-104.718 294.54,-100.678 389,-97.3053 434.712,-95.6731 486.274,-93.8784 525.728,-92.5149"/>
<polygon fill="#8b1a1a" stroke="#8b1a1a" points="118.939,-103.652 109.075,-107.52 119.198,-110.648 118.939,-103.652"/>
</g>
<!-- Node6 -->
<g id="node6" class="node"><title>Node6</title>
<g id="a_node6"><a xlink:href="classstxxl_1_1atomic__counted__object.html" target="_top" xlink:title="Provides reference counting abilities for use with counting_ptr with mutex locking. ">
<polygon fill="none" stroke="black" points="534.5,-260.305 534.5,-290.305 647.5,-290.305 647.5,-260.305 534.5,-260.305"/>
<text text-anchor="start" x="542.5" y="-278.305" font-family="Helvetica,sans-Serif" font-size="10.00">stxxl::atomic_counted</text>
<text text-anchor="middle" x="591" y="-267.305" font-family="Helvetica,sans-Serif" font-size="10.00">_object</text>
</a>
</g>
</g>
<!-- Node6&#45;&gt;Node3 -->
<g id="edge5" class="edge"><title>Node6&#45;&gt;Node3</title>
<path fill="none" stroke="midnightblue" d="M657.811,-279.248C760.964,-285.429 957.359,-297.197 1038.99,-302.088"/>
<polygon fill="midnightblue" stroke="midnightblue" points="657.712,-275.736 647.521,-278.632 657.294,-282.724 657.712,-275.736"/>
</g>
<!-- Node6&#45;&gt;Node10 -->
<g id="edge12" class="edge"><title>Node6&#45;&gt;Node10</title>
<path fill="none" stroke="#9a32cd" stroke-dasharray="5,2" d="M658.158,-262.541C663.507,-261.711 668.837,-260.951 674,-260.305 732.044,-253.045 800.555,-249.623 837.706,-248.193"/>
<polygon fill="#9a32cd" stroke="#9a32cd" points="657.198,-259.151 647.889,-264.211 658.321,-266.061 657.198,-259.151"/>
<text text-anchor="middle" x="729" y="-263.305" font-family="Helvetica,sans-Serif" font-size="10.00"> m_request_ref</text>
</g>
<!-- Node7&#45;&gt;Node2 -->
<g id="edge18" class="edge"><title>Node7&#45;&gt;Node2</title>
<path fill="none" stroke="#9a32cd" stroke-dasharray="5,2" d="M355.715,-148.175C431.955,-157.66 592.055,-175.305 728,-175.305 728,-175.305 728,-175.305 1078,-175.305 1115.48,-175.305 1157.88,-175.305 1189.68,-175.305"/>
<polygon fill="#9a32cd" stroke="#9a32cd" points="355.884,-144.669 345.525,-146.894 355.01,-151.614 355.884,-144.669"/>
<text text-anchor="middle" x="866" y="-178.305" font-family="Helvetica,sans-Serif" font-size="10.00"> m_waiters_mutex</text>
</g>
<!-- Node7&#45;&gt;Node6 -->
<g id="edge6" class="edge"><title>Node7&#45;&gt;Node6</title>
<path fill="none" stroke="#9a32cd" stroke-dasharray="5,2" d="M340.204,-156.227C392.9,-181.347 503.471,-234.057 558.084,-260.091"/>
<polygon fill="#9a32cd" stroke="#9a32cd" points="341.598,-153.014 331.065,-151.87 338.586,-159.333 341.598,-153.014"/>
<text text-anchor="middle" x="448.5" y="-239.305" font-family="Helvetica,sans-Serif" font-size="10.00"> m_reference_count_mutex</text>
</g>
<!-- Node7&#45;&gt;Node15 -->
<g id="edge21" class="edge"><title>Node7&#45;&gt;Node15</title>
<path fill="none" stroke="#9a32cd" stroke-dasharray="5,2" d="M355.783,-140.448C439.96,-136.592 627.417,-126.275 784,-105.305 793.214,-104.071 802.971,-102.497 812.401,-100.835"/>
<polygon fill="#9a32cd" stroke="#9a32cd" points="355.392,-136.962 345.559,-140.907 355.707,-143.955 355.392,-136.962"/>
<text text-anchor="middle" x="591" y="-134.305" font-family="Helvetica,sans-Serif" font-size="10.00"> m_mutex</text>
</g>
<!-- Node7&#45;&gt;Node17 -->
<g id="edge26" class="edge"><title>Node7&#45;&gt;Node17</title>
<path fill="none" stroke="#9a32cd" stroke-dasharray="5,2" d="M346.669,-129.411C359.832,-125.042 374.961,-120.472 389,-117.305 434.165,-107.118 485.966,-100.272 525.668,-96.0232"/>
<polygon fill="#9a32cd" stroke="#9a32cd" points="345.378,-126.153 337.037,-132.686 347.631,-132.78 345.378,-126.153"/>
<text text-anchor="middle" x="448.5" y="-120.305" font-family="Helvetica,sans-Serif" font-size="10.00"> m_mutex</text>
</g>
<!-- Node8 -->
<g id="node8" class="node"><title>Node8</title>
<g id="a_node8"><a xlink:href="structstxxl_1_1choose__int__types.html" target="_top" xlink:title="stxxl::choose_int_types\l\&lt; my_pointer_size \&gt;">
<polygon fill="none" stroke="black" points="250,-293.305 250,-323.305 370,-323.305 370,-293.305 250,-293.305"/>
<text text-anchor="start" x="258" y="-311.305" font-family="Helvetica,sans-Serif" font-size="10.00">stxxl::choose_int_types</text>
<text text-anchor="middle" x="310" y="-300.305" font-family="Helvetica,sans-Serif" font-size="10.00">&lt; my_pointer_size &gt;</text>
</a>
</g>
</g>
<!-- Node8&#45;&gt;Node6 -->
<g id="edge8" class="edge"><title>Node8&#45;&gt;Node6</title>
<path fill="none" stroke="#9a32cd" stroke-dasharray="5,2" d="M380.371,-300.1C427.849,-294.484 489.976,-287.136 534.242,-281.9"/>
<polygon fill="#9a32cd" stroke="#9a32cd" points="379.688,-296.656 370.169,-301.307 380.511,-303.608 379.688,-296.656"/>
<text text-anchor="middle" x="448.5" y="-302.305" font-family="Helvetica,sans-Serif" font-size="10.00"> m_reference_count</text>
</g>
<!-- Node9 -->
<g id="node9" class="node"><title>Node9</title>
<g id="a_node9"><a xlink:href="structstxxl_1_1choose__int__types.html" target="_top" xlink:title="stxxl::choose_int_types\l\&lt; PtrSize \&gt;">
<polygon fill="none" stroke="black" points="0,-293.305 0,-323.305 120,-323.305 120,-293.305 0,-293.305"/>
<text text-anchor="start" x="8" y="-311.305" font-family="Helvetica,sans-Serif" font-size="10.00">stxxl::choose_int_types</text>
<text text-anchor="middle" x="60" y="-300.305" font-family="Helvetica,sans-Serif" font-size="10.00">&lt; PtrSize &gt;</text>
</a>
</g>
</g>
<!-- Node9&#45;&gt;Node8 -->
<g id="edge9" class="edge"><title>Node9&#45;&gt;Node8</title>
<path fill="none" stroke="orange" stroke-dasharray="5,2" d="M130.46,-308.305C168.078,-308.305 214.059,-308.305 249.936,-308.305"/>
<polygon fill="orange" stroke="orange" points="130.087,-304.805 120.087,-308.305 130.087,-311.805 130.087,-304.805"/>
<text text-anchor="middle" x="184.5" y="-311.305" font-family="Helvetica,sans-Serif" font-size="10.00"> &lt; my_pointer_size &gt;</text>
</g>
<!-- Node10&#45;&gt;Node3 -->
<g id="edge10" class="edge"><title>Node10&#45;&gt;Node3</title>
<path fill="none" stroke="#9a32cd" stroke-dasharray="5,2" d="M904.517,-244.496C936.589,-243.472 983.383,-245.303 1021,-260.305 1039.85,-267.825 1057.38,-284.093 1067.38,-294.602"/>
<polygon fill="#9a32cd" stroke="#9a32cd" points="904.079,-241.012 894.239,-244.938 904.38,-248.006 904.079,-241.012"/>
<text text-anchor="middle" x="984.5" y="-263.305" font-family="Helvetica,sans-Serif" font-size="10.00"> m_file</text>
</g>
<!-- Node11 -->
<g id="node11" class="node"><title>Node11</title>
<g id="a_node11"><a xlink:href="structstxxl_1_1compat__unique__ptr.html" target="_top" xlink:title="stxxl::compat_unique\l_ptr\&lt; stxxl::stxxl::io\l_error \&gt;">
<polygon fill="none" stroke="black" points="674,-343.805 674,-384.805 784,-384.805 784,-343.805 674,-343.805"/>
<text text-anchor="start" x="682" y="-372.805" font-family="Helvetica,sans-Serif" font-size="10.00">stxxl::compat_unique</text>
<text text-anchor="start" x="682" y="-361.805" font-family="Helvetica,sans-Serif" font-size="10.00">_ptr&lt; stxxl::stxxl::io</text>
<text text-anchor="middle" x="729" y="-350.805" font-family="Helvetica,sans-Serif" font-size="10.00">_error &gt;</text>
</a>
</g>
</g>
<!-- Node11&#45;&gt;Node3 -->
<g id="edge13" class="edge"><title>Node11&#45;&gt;Node3</title>
<path fill="none" stroke="#9a32cd" stroke-dasharray="5,2" d="M794.113,-366.44C854.202,-366.574 945.791,-361.934 1021,-337.305 1036.87,-332.107 1053.03,-321.671 1063.68,-313.92"/>
<polygon fill="#9a32cd" stroke="#9a32cd" points="794.034,-362.94 784.01,-366.372 793.986,-369.94 794.034,-362.94"/>
<text text-anchor="middle" x="866" y="-370.305" font-family="Helvetica,sans-Serif" font-size="10.00"> m_error</text>
</g>
<!-- Node12 -->
<g id="node12" class="node"><title>Node12</title>
<g id="a_node12"><a xlink:href="structstxxl_1_1compat__unique__ptr.html" target="_top" xlink:title="stxxl::compat_unique\l_ptr\&lt; Type \&gt;">
<polygon fill="none" stroke="black" points="255,-370.305 255,-400.305 365,-400.305 365,-370.305 255,-370.305"/>
<text text-anchor="start" x="263" y="-388.305" font-family="Helvetica,sans-Serif" font-size="10.00">stxxl::compat_unique</text>
<text text-anchor="middle" x="310" y="-377.305" font-family="Helvetica,sans-Serif" font-size="10.00">_ptr&lt; Type &gt;</text>
</a>
</g>
</g>
<!-- Node12&#45;&gt;Node11 -->
<g id="edge14" class="edge"><title>Node12&#45;&gt;Node11</title>
<path fill="none" stroke="orange" stroke-dasharray="5,2" d="M375.345,-369.307C379.946,-368.517 384.532,-367.834 389,-367.305 488.947,-355.474 606.627,-358.11 673.755,-361.165"/>
<polygon fill="orange" stroke="orange" points="374.471,-365.91 365.284,-371.188 375.757,-372.79 374.471,-365.91"/>
<text text-anchor="start" x="411.5" y="-381.305" font-family="Helvetica,sans-Serif" font-size="10.00"> &lt; stxxl::stxxl::io</text>
<text text-anchor="middle" x="448.5" y="-370.305" font-family="Helvetica,sans-Serif" font-size="10.00">_error &gt;</text>
</g>
<!-- Node14 -->
<g id="node14" class="node"><title>Node14</title>
<g id="a_node14"><a xlink:href="structstxxl_1_1compat__unique__ptr.html" target="_top" xlink:title="stxxl::compat_unique\l_ptr\&lt; stxxl::completion\l_handler_impl \&gt;">
<polygon fill="none" stroke="black" points="533,-390.805 533,-431.805 649,-431.805 649,-390.805 533,-390.805"/>
<text text-anchor="start" x="541" y="-419.805" font-family="Helvetica,sans-Serif" font-size="10.00">stxxl::compat_unique</text>
<text text-anchor="start" x="541" y="-408.805" font-family="Helvetica,sans-Serif" font-size="10.00">_ptr&lt; stxxl::completion</text>
<text text-anchor="middle" x="591" y="-397.805" font-family="Helvetica,sans-Serif" font-size="10.00">_handler_impl &gt;</text>
</a>
</g>
</g>
<!-- Node12&#45;&gt;Node14 -->
<g id="edge17" class="edge"><title>Node12&#45;&gt;Node14</title>
<path fill="none" stroke="orange" stroke-dasharray="5,2" d="M375.3,-391.297C422.804,-395.724 486.901,-401.698 532.667,-405.962"/>
<polygon fill="orange" stroke="orange" points="375.406,-387.792 365.125,-390.349 374.757,-394.762 375.406,-387.792"/>
<text text-anchor="start" x="405" y="-418.305" font-family="Helvetica,sans-Serif" font-size="10.00"> &lt; stxxl::completion</text>
<text text-anchor="middle" x="448.5" y="-407.305" font-family="Helvetica,sans-Serif" font-size="10.00">_handler_impl &gt;</text>
</g>
<!-- Node13 -->
<g id="node13" class="node"><title>Node13</title>
<g id="a_node13"><a xlink:href="classstxxl_1_1completion__handler.html" target="_top" xlink:title="Completion handler class (Loki&#45;style). ">
<polygon fill="none" stroke="black" points="802,-399.805 802,-418.805 930,-418.805 930,-399.805 802,-399.805"/>
<text text-anchor="middle" x="866" y="-406.805" font-family="Helvetica,sans-Serif" font-size="10.00">stxxl::completion_handler</text>
</a>
</g>
</g>
<!-- Node13&#45;&gt;Node3 -->
<g id="edge15" class="edge"><title>Node13&#45;&gt;Node3</title>
<path fill="none" stroke="#9a32cd" stroke-dasharray="5,2" d="M940.411,-408.635C967.447,-405.489 997.241,-398.365 1021,-383.305 1047.82,-366.306 1065.12,-331.024 1072.27,-313.961"/>
<polygon fill="#9a32cd" stroke="#9a32cd" points="939.806,-405.178 930.203,-409.655 940.501,-412.144 939.806,-405.178"/>
<text text-anchor="middle" x="984.5" y="-411.305" font-family="Helvetica,sans-Serif" font-size="10.00"> m_on_complete</text>
</g>
<!-- Node14&#45;&gt;Node13 -->
<g id="edge16" class="edge"><title>Node14&#45;&gt;Node13</title>
<path fill="none" stroke="#9a32cd" stroke-dasharray="5,2" d="M659.423,-410.811C702.878,-410.493 759.016,-410.082 801.646,-409.769"/>
<polygon fill="#9a32cd" stroke="#9a32cd" points="659.204,-407.313 649.23,-410.886 659.255,-414.313 659.204,-407.313"/>
<text text-anchor="middle" x="729" y="-414.305" font-family="Helvetica,sans-Serif" font-size="10.00"> m_ptr</text>
</g>
<!-- Node15&#45;&gt;Node1 -->
<g id="edge19" class="edge"><title>Node15&#45;&gt;Node1</title>
<path fill="none" stroke="#9a32cd" stroke-dasharray="5,2" d="M930.089,-95.6508C1032.68,-104.343 1233.47,-121.356 1325.86,-129.184"/>
<polygon fill="#9a32cd" stroke="#9a32cd" points="930.135,-92.1422 919.875,-94.7854 929.544,-99.1172 930.135,-92.1422"/>
<text text-anchor="middle" x="1152.5" y="-119.305" font-family="Helvetica,sans-Serif" font-size="10.00"> m_state</text>
</g>
<!-- Node16&#45;&gt;Node15 -->
<g id="edge22" class="edge"><title>Node16&#45;&gt;Node15</title>
<path fill="none" stroke="#9a32cd" stroke-dasharray="5,2" d="M381.212,-6.14779C475.595,2.22209 647.322,8.2388 784,-38.3053 807.728,-46.3857 831.459,-62.8496 847.043,-75.0985"/>
<polygon fill="#9a32cd" stroke="#9a32cd" points="380.845,-2.66669 371.209,-7.06966 381.488,-9.63716 380.845,-2.66669"/>
<text text-anchor="middle" x="591" y="-12.3053" font-family="Helvetica,sans-Serif" font-size="10.00"> m_cond</text>
</g>
<!-- Node16&#45;&gt;Node17 -->
<g id="edge27" class="edge"><title>Node16&#45;&gt;Node17</title>
<path fill="none" stroke="#9a32cd" stroke-dasharray="5,2" d="M373.981,-25.8278C412.969,-33.5858 463.843,-44.8439 508,-58.3053 528.757,-64.6332 551.716,-73.7868 568.048,-80.6843"/>
<polygon fill="#9a32cd" stroke="#9a32cd" points="374.314,-22.3265 363.827,-23.8328 372.965,-29.1952 374.314,-22.3265"/>
<text text-anchor="middle" x="448.5" y="-61.3053" font-family="Helvetica,sans-Serif" font-size="10.00"> m_cond</text>
</g>
<!-- Node17&#45;&gt;Node15 -->
<g id="edge24" class="edge"><title>Node17&#45;&gt;Node15</title>
<path fill="none" stroke="orange" stroke-dasharray="5,2" d="M666.279,-90.3053C712.527,-90.3053 770.899,-90.3053 812.386,-90.3053"/>
<polygon fill="orange" stroke="orange" points="666.006,-86.8054 656.006,-90.3053 666.006,-93.8054 666.006,-86.8054"/>
<text text-anchor="middle" x="729" y="-93.3053" font-family="Helvetica,sans-Serif" font-size="10.00"> &lt; request_state &gt;</text>
</g>
</g>
</svg>
