<?xml version="1.0" encoding="UTF-8" standalone="no"?>
<!DOCTYPE svg PUBLIC "-//W3C//DTD SVG 1.1//EN"
 "http://www.w3.org/Graphics/SVG/1.1/DTD/svg11.dtd">
<!-- Generated by graphviz version 2.38.0 (20140413.2041)
 -->
<!-- Title: stxxl::matrix_swappable_block&lt; ValueType, BlockSideLength &gt; Pages: 1 -->
<svg width="3769pt" height="451pt"
 viewBox="0.00 0.00 3769.00 451.00" xmlns="http://www.w3.org/2000/svg" xmlns:xlink="http://www.w3.org/1999/xlink">
<g id="graph0" class="graph" transform="scale(1 1) rotate(0) translate(4 447)">
<title>stxxl::matrix_swappable_block&lt; ValueType, BlockSideLength &gt;</title>
<!-- Node1 -->
<g id="node1" class="node"><title>Node1</title>
<polygon fill="#bfbfbf" stroke="black" points="3610,-123.5 3610,-164.5 3761,-164.5 3761,-123.5 3610,-123.5"/>
<text text-anchor="start" x="3618" y="-152.5" font-family="Helvetica,sans-Serif" font-size="10.00">stxxl::matrix_swappable</text>
<text text-anchor="start" x="3618" y="-141.5" font-family="Helvetica,sans-Serif" font-size="10.00">_block&lt; ValueType, BlockSide</text>
<text text-anchor="middle" x="3685.5" y="-130.5" font-family="Helvetica,sans-Serif" font-size="10.00">Length &gt;</text>
</g>
<!-- Node2 -->
<g id="node2" class="node"><title>Node2</title>
<g id="a_node2"><a xlink:href="classstxxl_1_1swappable__block.html" target="_top" xlink:title="stxxl::swappable_block\l\&lt; ValueType, BlockSideLength\l *BlockSideLength \&gt;">
<polygon fill="none" stroke="black" points="3421,-123.5 3421,-164.5 3573,-164.5 3573,-123.5 3421,-123.5"/>
<text text-anchor="start" x="3429" y="-152.5" font-family="Helvetica,sans-Serif" font-size="10.00">stxxl::swappable_block</text>
<text text-anchor="start" x="3429" y="-141.5" font-family="Helvetica,sans-Serif" font-size="10.00">&lt; ValueType, BlockSideLength</text>
<text text-anchor="middle" x="3497" y="-130.5" font-family="Helvetica,sans-Serif" font-size="10.00"> *BlockSideLength &gt;</text>
</a>
</g>
</g>
<!-- Node2&#45;&gt;Node1 -->
<g id="edge1" class="edge"><title>Node2&#45;&gt;Node1</title>
<path fill="none" stroke="midnightblue" d="M3583.09,-144C3592.04,-144 3601.09,-144 3609.91,-144"/>
<polygon fill="midnightblue" stroke="midnightblue" points="3583.05,-140.5 3573.05,-144 3583.05,-147.5 3583.05,-140.5"/>
</g>
<!-- Node3 -->
<g id="node3" class="node"><title>Node3</title>
<g id="a_node3"><a xlink:href="structstxxl_1_1choose__int__types.html" target="_top" xlink:title="stxxl::choose_int_types\l\&lt; my_pointer_size \&gt;">
<polygon fill="none" stroke="black" points="249,-31 249,-61 369,-61 369,-31 249,-31"/>
<text text-anchor="start" x="257" y="-49" font-family="Helvetica,sans-Serif" font-size="10.00">stxxl::choose_int_types</text>
<text text-anchor="middle" x="309" y="-38" font-family="Helvetica,sans-Serif" font-size="10.00">&lt; my_pointer_size &gt;</text>
</a>
</g>
</g>
<!-- Node3&#45;&gt;Node2 -->
<g id="edge2" class="edge"><title>Node3&#45;&gt;Node2</title>
<path fill="none" stroke="#9a32cd" stroke-dasharray="5,2" d="M375.103,-28.5417C429.36,-15.5291 508.9,-0 579.5,-0 579.5,-0 579.5,-0 3181.5,-0 3298.6,-0 3419.78,-83.551 3470.89,-123.368"/>
<polygon fill="#9a32cd" stroke="#9a32cd" points="374.161,-25.1689 365.274,-30.9379 375.819,-31.9697 374.161,-25.1689"/>
<text text-anchor="middle" x="1759.5" y="-3" font-family="Helvetica,sans-Serif" font-size="10.00"> reference_count</text>
</g>
<!-- Node8 -->
<g id="node8" class="node"><title>Node8</title>
<g id="a_node8"><a xlink:href="classstxxl_1_1atomic__counted__object.html" target="_top" xlink:title="Provides reference counting abilities for use with counting_ptr with mutex locking. ">
<polygon fill="none" stroke="black" points="524,-92 524,-122 637,-122 637,-92 524,-92"/>
<text text-anchor="start" x="532" y="-110" font-family="Helvetica,sans-Serif" font-size="10.00">stxxl::atomic_counted</text>
<text text-anchor="middle" x="580.5" y="-99" font-family="Helvetica,sans-Serif" font-size="10.00">_object</text>
</a>
</g>
</g>
<!-- Node3&#45;&gt;Node8 -->
<g id="edge10" class="edge"><title>Node3&#45;&gt;Node8</title>
<path fill="none" stroke="#9a32cd" stroke-dasharray="5,2" d="M379.096,-61.6394C423.989,-71.8008 481.749,-84.8745 523.717,-94.3738"/>
<polygon fill="#9a32cd" stroke="#9a32cd" points="379.669,-58.1807 369.143,-59.3867 378.124,-65.008 379.669,-58.1807"/>
<text text-anchor="middle" x="446.5" y="-92" font-family="Helvetica,sans-Serif" font-size="10.00"> m_reference_count</text>
</g>
<!-- Node24 -->
<g id="node24" class="node"><title>Node24</title>
<g id="a_node24"><a xlink:href="classstxxl_1_1swappable__block.html" target="_top" xlink:title="Virtualization of a block of data. Holds information for allocating and swapping. To use in cooperati...">
<polygon fill="none" stroke="black" points="3115,-97 3115,-127 3246,-127 3246,-97 3115,-97"/>
<text text-anchor="start" x="3123" y="-115" font-family="Helvetica,sans-Serif" font-size="10.00">stxxl::swappable_block</text>
<text text-anchor="middle" x="3180.5" y="-104" font-family="Helvetica,sans-Serif" font-size="10.00">&lt; ValueType, BlockSize &gt;</text>
</a>
</g>
</g>
<!-- Node3&#45;&gt;Node24 -->
<g id="edge34" class="edge"><title>Node3&#45;&gt;Node24</title>
<path fill="none" stroke="#9a32cd" stroke-dasharray="5,2" d="M379.371,-46C433.801,-46 511.479,-46 579.5,-46 579.5,-46 579.5,-46 2958.5,-46 3029.17,-46 3107.45,-77.3728 3149.25,-96.8583"/>
<polygon fill="#9a32cd" stroke="#9a32cd" points="379.146,-42.5001 369.146,-46 379.146,-49.5001 379.146,-42.5001"/>
<text text-anchor="middle" x="1626" y="-49" font-family="Helvetica,sans-Serif" font-size="10.00"> reference_count</text>
</g>
<!-- Node4 -->
<g id="node4" class="node"><title>Node4</title>
<g id="a_node4"><a xlink:href="structstxxl_1_1choose__int__types.html" target="_top" xlink:title="stxxl::choose_int_types\l\&lt; PtrSize \&gt;">
<polygon fill="none" stroke="black" points="0,-31 0,-61 120,-61 120,-31 0,-31"/>
<text text-anchor="start" x="8" y="-49" font-family="Helvetica,sans-Serif" font-size="10.00">stxxl::choose_int_types</text>
<text text-anchor="middle" x="60" y="-38" font-family="Helvetica,sans-Serif" font-size="10.00">&lt; PtrSize &gt;</text>
</a>
</g>
</g>
<!-- Node4&#45;&gt;Node3 -->
<g id="edge3" class="edge"><title>Node4&#45;&gt;Node3</title>
<path fill="none" stroke="orange" stroke-dasharray="5,2" d="M130.455,-46C167.772,-46 213.289,-46 248.893,-46"/>
<polygon fill="orange" stroke="orange" points="130.163,-42.5001 120.163,-46 130.163,-49.5001 130.163,-42.5001"/>
<text text-anchor="middle" x="184.5" y="-49" font-family="Helvetica,sans-Serif" font-size="10.00"> &lt; my_pointer_size &gt;</text>
</g>
<!-- Node5 -->
<g id="node5" class="node"><title>Node5</title>
<g id="a_node5"><a xlink:href="structstxxl_1_1BID.html" target="_top" xlink:title="stxxl::BID\&lt; raw_size \&gt;">
<polygon fill="none" stroke="black" points="1067,-166.5 1067,-185.5 1185,-185.5 1185,-166.5 1067,-166.5"/>
<text text-anchor="middle" x="1126" y="-173.5" font-family="Helvetica,sans-Serif" font-size="10.00">stxxl::BID&lt; raw_size &gt;</text>
</a>
</g>
</g>
<!-- Node5&#45;&gt;Node2 -->
<g id="edge4" class="edge"><title>Node5&#45;&gt;Node2</title>
<path fill="none" stroke="#9a32cd" stroke-dasharray="5,2" d="M1131.47,-195.445C1146.45,-255.18 1200.8,-432 1319,-432 1319,-432 1319,-432 3181.5,-432 3339.94,-432 3453.26,-230.748 3486.18,-164.712"/>
<polygon fill="#9a32cd" stroke="#9a32cd" points="1134.87,-194.622 1129.12,-185.723 1128.06,-196.265 1134.87,-194.622"/>
<text text-anchor="middle" x="2294" y="-435" font-family="Helvetica,sans-Serif" font-size="10.00"> external_data</text>
</g>
<!-- Node15 -->
<g id="node15" class="node"><title>Node15</title>
<g id="a_node15"><a xlink:href="classstxxl_1_1mng__local_1_1block__w__bids.html" target="_top" xlink:title="stxxl::mng_local::block\l_w_bids\&lt; Type,((RawSize\l&#45;sizeof(BID\&lt; RawSize \&gt;)*NBids\l&#45;sizeof(MetaInfoType))/sizeof\l(Type)), RawSize, NBids \&gt;">
<polygon fill="none" stroke="black" points="1547,-137.5 1547,-200.5 1705,-200.5 1705,-137.5 1547,-137.5"/>
<text text-anchor="start" x="1555" y="-188.5" font-family="Helvetica,sans-Serif" font-size="10.00">stxxl::mng_local::block</text>
<text text-anchor="start" x="1555" y="-177.5" font-family="Helvetica,sans-Serif" font-size="10.00">_w_bids&lt; Type,((RawSize</text>
<text text-anchor="start" x="1555" y="-166.5" font-family="Helvetica,sans-Serif" font-size="10.00">&#45;sizeof(BID&lt; RawSize &gt;)*NBids</text>
<text text-anchor="start" x="1555" y="-155.5" font-family="Helvetica,sans-Serif" font-size="10.00">&#45;sizeof(MetaInfoType))/sizeof</text>
<text text-anchor="middle" x="1626" y="-144.5" font-family="Helvetica,sans-Serif" font-size="10.00">(Type)), RawSize, NBids &gt;</text>
</a>
</g>
</g>
<!-- Node5&#45;&gt;Node15 -->
<g id="edge19" class="edge"><title>Node5&#45;&gt;Node15</title>
<path fill="none" stroke="#9a32cd" stroke-dasharray="5,2" d="M1165.21,-188.708C1237.33,-210.812 1398.06,-251.054 1529,-219 1544.88,-215.112 1561.05,-208.093 1575.49,-200.518"/>
<polygon fill="#9a32cd" stroke="#9a32cd" points="1165.81,-185.23 1155.22,-185.59 1163.72,-191.912 1165.81,-185.23"/>
<text text-anchor="middle" x="1320" y="-234" font-family="Helvetica,sans-Serif" font-size="10.00"> ref</text>
</g>
<!-- Node17 -->
<g id="node17" class="node"><title>Node17</title>
<g id="a_node17"><a xlink:href="classstxxl_1_1mng__local_1_1block__w__bids.html" target="_top" xlink:title="Contains BID references for stxxl::typed_block , not intended for direct use. ">
<polygon fill="none" stroke="black" points="1241,-150.5 1241,-191.5 1399,-191.5 1399,-150.5 1241,-150.5"/>
<text text-anchor="start" x="1249" y="-179.5" font-family="Helvetica,sans-Serif" font-size="10.00">stxxl::mng_local::block</text>
<text text-anchor="start" x="1249" y="-168.5" font-family="Helvetica,sans-Serif" font-size="10.00">_w_bids&lt; Type, Size, RawSize,</text>
<text text-anchor="middle" x="1320" y="-157.5" font-family="Helvetica,sans-Serif" font-size="10.00"> NBids &gt;</text>
</a>
</g>
</g>
<!-- Node5&#45;&gt;Node17 -->
<g id="edge22" class="edge"><title>Node5&#45;&gt;Node17</title>
<path fill="none" stroke="#9a32cd" stroke-dasharray="5,2" d="M1195.19,-174.224C1209.98,-173.839 1225.73,-173.429 1240.87,-173.035"/>
<polygon fill="#9a32cd" stroke="#9a32cd" points="1195.03,-170.727 1185.13,-174.486 1195.22,-177.725 1195.03,-170.727"/>
<text text-anchor="middle" x="1215.5" y="-177" font-family="Helvetica,sans-Serif" font-size="10.00"> ref</text>
</g>
<!-- Node5&#45;&gt;Node24 -->
<g id="edge35" class="edge"><title>Node5&#45;&gt;Node24</title>
<path fill="none" stroke="#9a32cd" stroke-dasharray="5,2" d="M1161.62,-163.031C1183.95,-155.256 1213.8,-145.945 1241,-141 1467.72,-99.7854 1528.06,-109 1758.5,-109 1758.5,-109 1758.5,-109 2958.5,-109 3011.07,-109 3070.67,-109.859 3114.71,-110.658"/>
<polygon fill="#9a32cd" stroke="#9a32cd" points="1160.18,-159.829 1151.93,-166.475 1162.53,-166.425 1160.18,-159.829"/>
<text text-anchor="middle" x="2173.5" y="-112" font-family="Helvetica,sans-Serif" font-size="10.00"> external_data</text>
</g>
<!-- Node6 -->
<g id="node6" class="node"><title>Node6</title>
<g id="a_node6"><a xlink:href="classstxxl_1_1file.html" target="_top" xlink:title="Defines interface of file. ">
<polygon fill="none" stroke="black" points="739,-139.5 739,-158.5 795,-158.5 795,-139.5 739,-139.5"/>
<text text-anchor="middle" x="767" y="-146.5" font-family="Helvetica,sans-Serif" font-size="10.00">stxxl::file</text>
</a>
</g>
</g>
<!-- Node6&#45;&gt;Node5 -->
<g id="edge5" class="edge"><title>Node6&#45;&gt;Node5</title>
<path fill="none" stroke="#9a32cd" stroke-dasharray="5,2" d="M805.341,-158.694C807.922,-159.189 810.493,-159.633 813,-160 900.876,-172.876 1003.99,-175.826 1066.89,-176.28"/>
<polygon fill="#9a32cd" stroke="#9a32cd" points="805.955,-155.246 795.444,-156.578 804.491,-162.092 805.955,-155.246"/>
<text text-anchor="middle" x="916" y="-177" font-family="Helvetica,sans-Serif" font-size="10.00"> storage</text>
</g>
<!-- Node10 -->
<g id="node10" class="node"><title>Node10</title>
<g id="a_node10"><a xlink:href="structstxxl_1_1BID.html" target="_top" xlink:title="Block identifier class. ">
<polygon fill="none" stroke="black" points="867,-126.5 867,-145.5 965,-145.5 965,-126.5 867,-126.5"/>
<text text-anchor="middle" x="916" y="-133.5" font-family="Helvetica,sans-Serif" font-size="10.00">stxxl::BID&lt; Size &gt;</text>
</a>
</g>
</g>
<!-- Node6&#45;&gt;Node10 -->
<g id="edge12" class="edge"><title>Node6&#45;&gt;Node10</title>
<path fill="none" stroke="#9a32cd" stroke-dasharray="5,2" d="M805.463,-145.687C824.083,-144.04 846.805,-142.031 866.716,-140.27"/>
<polygon fill="#9a32cd" stroke="#9a32cd" points="804.958,-142.218 795.305,-146.585 805.575,-149.191 804.958,-142.218"/>
<text text-anchor="middle" x="831" y="-148" font-family="Helvetica,sans-Serif" font-size="10.00"> storage</text>
</g>
<!-- Node7 -->
<g id="node7" class="node"><title>Node7</title>
<g id="a_node7"><a xlink:href="classstxxl_1_1noncopyable.html" target="_top" xlink:title="stxxl::noncopyable">
<polygon fill="none" stroke="black" points="11,-128.5 11,-147.5 109,-147.5 109,-128.5 11,-128.5"/>
<text text-anchor="middle" x="60" y="-135.5" font-family="Helvetica,sans-Serif" font-size="10.00">stxxl::noncopyable</text>
</a>
</g>
</g>
<!-- Node7&#45;&gt;Node6 -->
<g id="edge6" class="edge"><title>Node7&#45;&gt;Node6</title>
<path fill="none" stroke="#8b1a1a" d="M119.192,-138.908C263.783,-141.164 635.17,-146.959 738.792,-148.575"/>
<polygon fill="#8b1a1a" stroke="#8b1a1a" points="119.233,-135.408 109.18,-138.752 119.124,-142.407 119.233,-135.408"/>
</g>
<!-- Node9 -->
<g id="node9" class="node"><title>Node9</title>
<g id="a_node9"><a xlink:href="classstxxl_1_1mutex.html" target="_top" xlink:title="stxxl::mutex">
<polygon fill="none" stroke="black" points="273.5,-103.5 273.5,-122.5 344.5,-122.5 344.5,-103.5 273.5,-103.5"/>
<text text-anchor="middle" x="309" y="-110.5" font-family="Helvetica,sans-Serif" font-size="10.00">stxxl::mutex</text>
</a>
</g>
</g>
<!-- Node7&#45;&gt;Node9 -->
<g id="edge9" class="edge"><title>Node7&#45;&gt;Node9</title>
<path fill="none" stroke="#8b1a1a" d="M119.445,-132.084C167.363,-127.235 233.567,-120.534 273.436,-116.498"/>
<polygon fill="#8b1a1a" stroke="#8b1a1a" points="118.807,-128.631 109.21,-133.12 119.512,-135.596 118.807,-128.631"/>
</g>
<!-- Node8&#45;&gt;Node6 -->
<g id="edge7" class="edge"><title>Node8&#45;&gt;Node6</title>
<path fill="none" stroke="#9a32cd" stroke-dasharray="5,2" d="M647.042,-111.331C670.729,-114.09 697.43,-118.607 721,-126 731.213,-129.203 741.912,-134.577 750.314,-139.325"/>
<polygon fill="#9a32cd" stroke="#9a32cd" points="647.412,-107.851 637.094,-110.253 646.658,-114.81 647.412,-107.851"/>
<text text-anchor="middle" x="688" y="-129" font-family="Helvetica,sans-Serif" font-size="10.00"> m_request_ref</text>
</g>
<!-- Node9&#45;&gt;Node8 -->
<g id="edge8" class="edge"><title>Node9&#45;&gt;Node8</title>
<path fill="none" stroke="#9a32cd" stroke-dasharray="5,2" d="M354.739,-112.004C401.151,-110.971 473.812,-109.353 523.888,-108.238"/>
<polygon fill="#9a32cd" stroke="#9a32cd" points="354.6,-108.506 344.681,-112.228 354.756,-115.504 354.6,-108.506"/>
<text text-anchor="middle" x="446.5" y="-115" font-family="Helvetica,sans-Serif" font-size="10.00"> m_reference_count_mutex</text>
</g>
<!-- Node10&#45;&gt;Node5 -->
<g id="edge11" class="edge"><title>Node10&#45;&gt;Node5</title>
<path fill="none" stroke="orange" stroke-dasharray="5,2" d="M975.124,-144.778C996.8,-148.27 1021.58,-152.522 1044,-157 1058.02,-159.801 1073.31,-163.277 1086.79,-166.487"/>
<polygon fill="orange" stroke="orange" points="975.507,-141.295 965.081,-143.178 974.406,-148.207 975.507,-141.295"/>
<text text-anchor="middle" x="1013.5" y="-160" font-family="Helvetica,sans-Serif" font-size="10.00"> &lt; raw_size &gt;</text>
</g>
<!-- Node11 -->
<g id="node11" class="node"><title>Node11</title>
<g id="a_node11"><a xlink:href="classstxxl_1_1typed__block.html" target="_top" xlink:title="Block containing elements of fixed length. ">
<polygon fill="none" stroke="black" points="2895,-147.5 2895,-188.5 3020,-188.5 3020,-147.5 2895,-147.5"/>
<text text-anchor="start" x="2903" y="-176.5" font-family="Helvetica,sans-Serif" font-size="10.00">stxxl::typed_block</text>
<text text-anchor="start" x="2903" y="-165.5" font-family="Helvetica,sans-Serif" font-size="10.00">&lt; RawSize, Type, NRef,</text>
<text text-anchor="middle" x="2957.5" y="-154.5" font-family="Helvetica,sans-Serif" font-size="10.00"> MetaInfoType &gt;</text>
</a>
</g>
</g>
<!-- Node11&#45;&gt;Node2 -->
<g id="edge13" class="edge"><title>Node11&#45;&gt;Node2</title>
<path fill="none" stroke="#9a32cd" stroke-dasharray="5,2" d="M3030.18,-167.409C3118.11,-166.299 3271.68,-163.115 3403,-154 3408.83,-153.595 3414.86,-153.106 3420.92,-152.565"/>
<polygon fill="#9a32cd" stroke="#9a32cd" points="3030.01,-163.91 3020.05,-167.531 3030.09,-170.91 3030.01,-163.91"/>
<text text-anchor="middle" x="3180.5" y="-169" font-family="Helvetica,sans-Serif" font-size="10.00"> internal_data</text>
</g>
<!-- Node11&#45;&gt;Node24 -->
<g id="edge36" class="edge"><title>Node11&#45;&gt;Node24</title>
<path fill="none" stroke="#9a32cd" stroke-dasharray="5,2" d="M3030.1,-145.16C3032.76,-144.414 3035.4,-143.691 3038,-143 3062.91,-136.369 3090.56,-130.078 3114.76,-124.918"/>
<polygon fill="#9a32cd" stroke="#9a32cd" points="3029.05,-141.821 3020.41,-147.947 3030.98,-148.548 3029.05,-141.821"/>
<text text-anchor="middle" x="3067.5" y="-146" font-family="Helvetica,sans-Serif" font-size="10.00"> internal_data</text>
</g>
<!-- Node12 -->
<g id="node12" class="node"><title>Node12</title>
<g id="a_node12"><a xlink:href="classstxxl_1_1mng__local_1_1expand__struct.html" target="_top" xlink:title="stxxl::mng_local::expand\l_struct\&lt; mng_local::block\l_w_info\&lt; Type, RawSize, NRef,\l MetaInfoType \&gt;, RawSize \&gt;">
<polygon fill="none" stroke="black" points="2699,-206 2699,-258 2858,-258 2858,-206 2699,-206"/>
<text text-anchor="start" x="2707" y="-246" font-family="Helvetica,sans-Serif" font-size="10.00">stxxl::mng_local::expand</text>
<text text-anchor="start" x="2707" y="-235" font-family="Helvetica,sans-Serif" font-size="10.00">_struct&lt; mng_local::block</text>
<text text-anchor="start" x="2707" y="-224" font-family="Helvetica,sans-Serif" font-size="10.00">_w_info&lt; Type, RawSize, NRef,</text>
<text text-anchor="middle" x="2778.5" y="-213" font-family="Helvetica,sans-Serif" font-size="10.00"> MetaInfoType &gt;, RawSize &gt;</text>
</a>
</g>
</g>
<!-- Node12&#45;&gt;Node11 -->
<g id="edge14" class="edge"><title>Node12&#45;&gt;Node11</title>
<path fill="none" stroke="midnightblue" d="M2860.98,-202.537C2874.09,-197.798 2887.41,-192.983 2899.77,-188.514"/>
<polygon fill="midnightblue" stroke="midnightblue" points="2859.71,-199.277 2851.49,-205.969 2862.09,-205.86 2859.71,-199.277"/>
</g>
<!-- Node13 -->
<g id="node13" class="node"><title>Node13</title>
<g id="a_node13"><a xlink:href="classstxxl_1_1mng__local_1_1add__filler.html" target="_top" xlink:title="stxxl::mng_local::add\l_filler\&lt; mng_local::block\l_w_info\&lt; Type, RawSize,\l NRef, MetaInfoType \&gt;, RawSize\l&#45;sizeof(mng_local::block_w_info\l\&lt; Type, RawSize, NRef, MetaInfoType \&gt;)\&gt;">
<polygon fill="none" stroke="black" points="2343,-195 2343,-269 2549,-269 2549,-195 2343,-195"/>
<text text-anchor="start" x="2351" y="-257" font-family="Helvetica,sans-Serif" font-size="10.00">stxxl::mng_local::add</text>
<text text-anchor="start" x="2351" y="-246" font-family="Helvetica,sans-Serif" font-size="10.00">_filler&lt; mng_local::block</text>
<text text-anchor="start" x="2351" y="-235" font-family="Helvetica,sans-Serif" font-size="10.00">_w_info&lt; Type, RawSize,</text>
<text text-anchor="start" x="2351" y="-224" font-family="Helvetica,sans-Serif" font-size="10.00"> NRef, MetaInfoType &gt;, RawSize</text>
<text text-anchor="start" x="2351" y="-213" font-family="Helvetica,sans-Serif" font-size="10.00">&#45;sizeof(mng_local::block_w_info</text>
<text text-anchor="middle" x="2446" y="-202" font-family="Helvetica,sans-Serif" font-size="10.00">&lt; Type, RawSize, NRef, MetaInfoType &gt;)&gt;</text>
</a>
</g>
</g>
<!-- Node13&#45;&gt;Node12 -->
<g id="edge15" class="edge"><title>Node13&#45;&gt;Node12</title>
<path fill="none" stroke="midnightblue" d="M2559.58,-232C2605.35,-232 2657.14,-232 2698.75,-232"/>
<polygon fill="midnightblue" stroke="midnightblue" points="2559.31,-228.5 2549.31,-232 2559.31,-235.5 2559.31,-228.5"/>
</g>
<!-- Node14 -->
<g id="node14" class="node"><title>Node14</title>
<g id="a_node14"><a xlink:href="classstxxl_1_1mng__local_1_1block__w__info.html" target="_top" xlink:title="stxxl::mng_local::block\l_w_info\&lt; Type, RawSize,\l NRef, MetaInfoType \&gt;">
<polygon fill="none" stroke="black" points="2108.5,-162.5 2108.5,-203.5 2238.5,-203.5 2238.5,-162.5 2108.5,-162.5"/>
<text text-anchor="start" x="2116.5" y="-191.5" font-family="Helvetica,sans-Serif" font-size="10.00">stxxl::mng_local::block</text>
<text text-anchor="start" x="2116.5" y="-180.5" font-family="Helvetica,sans-Serif" font-size="10.00">_w_info&lt; Type, RawSize,</text>
<text text-anchor="middle" x="2173.5" y="-169.5" font-family="Helvetica,sans-Serif" font-size="10.00"> NRef, MetaInfoType &gt;</text>
</a>
</g>
</g>
<!-- Node14&#45;&gt;Node13 -->
<g id="edge16" class="edge"><title>Node14&#45;&gt;Node13</title>
<path fill="none" stroke="midnightblue" d="M2248.66,-196.434C2277.7,-201.694 2311.48,-207.814 2342.76,-213.48"/>
<polygon fill="midnightblue" stroke="midnightblue" points="2249.07,-192.951 2238.6,-194.612 2247.82,-199.839 2249.07,-192.951"/>
</g>
<!-- Node15&#45;&gt;Node14 -->
<g id="edge17" class="edge"><title>Node15&#45;&gt;Node14</title>
<path fill="none" stroke="midnightblue" d="M1715.15,-179.313C1807.19,-188.748 1955.74,-200.223 2084,-193 2091.87,-192.557 2100.12,-191.893 2108.28,-191.114"/>
<polygon fill="midnightblue" stroke="midnightblue" points="1715.35,-175.815 1705.04,-178.262 1714.63,-182.777 1715.35,-175.815"/>
</g>
<!-- Node18 -->
<g id="node18" class="node"><title>Node18</title>
<g id="a_node18"><a xlink:href="classstxxl_1_1mng__local_1_1block__w__info.html" target="_top" xlink:title="Contains per block information for stxxl::typed_block , not intended for direct use. ">
<polygon fill="none" stroke="black" points="1819,-137.5 1819,-178.5 1949,-178.5 1949,-137.5 1819,-137.5"/>
<text text-anchor="start" x="1827" y="-166.5" font-family="Helvetica,sans-Serif" font-size="10.00">stxxl::mng_local::block</text>
<text text-anchor="start" x="1827" y="-155.5" font-family="Helvetica,sans-Serif" font-size="10.00">_w_info&lt; Type, RawSize,</text>
<text text-anchor="middle" x="1884" y="-144.5" font-family="Helvetica,sans-Serif" font-size="10.00"> NBids, MetaInfoType &gt;</text>
</a>
</g>
</g>
<!-- Node15&#45;&gt;Node18 -->
<g id="edge24" class="edge"><title>Node15&#45;&gt;Node18</title>
<path fill="none" stroke="midnightblue" d="M1715.57,-165.194C1749.44,-163.739 1787.4,-162.108 1818.6,-160.767"/>
<polygon fill="midnightblue" stroke="midnightblue" points="1715.04,-161.714 1705.2,-165.64 1715.34,-168.707 1715.04,-161.714"/>
</g>
<!-- Node16 -->
<g id="node16" class="node"><title>Node16</title>
<g id="a_node16"><a xlink:href="classstxxl_1_1mng__local_1_1element__block.html" target="_top" xlink:title="Contains data elements for stxxl::typed_block , not intended for direct use. ">
<polygon fill="none" stroke="black" points="1062,-85 1062,-115 1190,-115 1190,-85 1062,-85"/>
<text text-anchor="start" x="1070" y="-103" font-family="Helvetica,sans-Serif" font-size="10.00">stxxl::mng_local::element</text>
<text text-anchor="middle" x="1126" y="-92" font-family="Helvetica,sans-Serif" font-size="10.00">_block&lt; Type, Size &gt;</text>
</a>
</g>
</g>
<!-- Node16&#45;&gt;Node15 -->
<g id="edge18" class="edge"><title>Node16&#45;&gt;Node15</title>
<path fill="none" stroke="midnightblue" d="M1200.21,-110.144C1292.91,-122.987 1451.94,-145.022 1546.9,-158.179"/>
<polygon fill="midnightblue" stroke="midnightblue" points="1200.46,-106.645 1190.07,-108.739 1199.5,-113.578 1200.46,-106.645"/>
</g>
<!-- Node16&#45;&gt;Node17 -->
<g id="edge21" class="edge"><title>Node16&#45;&gt;Node17</title>
<path fill="none" stroke="midnightblue" d="M1177.17,-118.554C1203.64,-128.341 1236.18,-140.373 1263.41,-150.443"/>
<polygon fill="midnightblue" stroke="midnightblue" points="1178.31,-115.243 1167.72,-115.057 1175.88,-121.808 1178.31,-115.243"/>
</g>
<!-- Node17&#45;&gt;Node15 -->
<g id="edge20" class="edge"><title>Node17&#45;&gt;Node15</title>
<path fill="none" stroke="orange" stroke-dasharray="5,2" d="M1409.23,-164.319C1411.85,-164.2 1414.44,-164.093 1417,-164 1466.74,-162.189 1479.24,-162.705 1529,-164 1534.84,-164.152 1540.88,-164.356 1546.95,-164.595"/>
<polygon fill="orange" stroke="orange" points="1408.85,-160.834 1399.04,-164.833 1409.2,-167.825 1408.85,-160.834"/>
<text text-anchor="start" x="1417" y="-211" font-family="Helvetica,sans-Serif" font-size="10.00"> &lt; Type,((RawSize&#45;sizeof</text>
<text text-anchor="start" x="1417" y="-200" font-family="Helvetica,sans-Serif" font-size="10.00">(BID&lt; RawSize &gt;)*NBids</text>
<text text-anchor="start" x="1417" y="-189" font-family="Helvetica,sans-Serif" font-size="10.00">&#45;sizeof(MetaInfoType))</text>
<text text-anchor="start" x="1417" y="-178" font-family="Helvetica,sans-Serif" font-size="10.00">/sizeof(Type)), RawSize,</text>
<text text-anchor="middle" x="1473" y="-167" font-family="Helvetica,sans-Serif" font-size="10.00"> NBids &gt;</text>
</g>
<!-- Node18&#45;&gt;Node14 -->
<g id="edge23" class="edge"><title>Node18&#45;&gt;Node14</title>
<path fill="none" stroke="orange" stroke-dasharray="5,2" d="M1959.49,-161.635C1996.9,-163.774 2042.91,-166.877 2084,-171 2091.87,-171.789 2100.11,-172.741 2108.27,-173.758"/>
<polygon fill="orange" stroke="orange" points="1959.35,-158.122 1949.17,-161.057 1958.96,-165.111 1959.35,-158.122"/>
<text text-anchor="start" x="1972" y="-185" font-family="Helvetica,sans-Serif" font-size="10.00"> &lt; Type, RawSize, NRef,</text>
<text text-anchor="middle" x="2028" y="-174" font-family="Helvetica,sans-Serif" font-size="10.00"> MetaInfoType &gt;</text>
</g>
<!-- Node19 -->
<g id="node19" class="node"><title>Node19</title>
<g id="a_node19"><a xlink:href="classstxxl_1_1mng__local_1_1filler__struct.html" target="_top" xlink:title="stxxl::mng_local::filler\l_struct\&lt; FillSize \&gt;">
<polygon fill="none" stroke="black" points="1570,-294 1570,-324 1682,-324 1682,-294 1570,-294"/>
<text text-anchor="start" x="1578" y="-312" font-family="Helvetica,sans-Serif" font-size="10.00">stxxl::mng_local::filler</text>
<text text-anchor="middle" x="1626" y="-301" font-family="Helvetica,sans-Serif" font-size="10.00">_struct&lt; FillSize &gt;</text>
</a>
</g>
</g>
<!-- Node19&#45;&gt;Node13 -->
<g id="edge25" class="edge"><title>Node19&#45;&gt;Node13</title>
<path fill="none" stroke="#9a32cd" stroke-dasharray="5,2" d="M1692.51,-299.822C1728.37,-294.904 1773.6,-288.873 1814,-284 1884.12,-275.542 1901.67,-273.487 1972,-267 2099.71,-255.221 2247.1,-244.819 2342.96,-238.479"/>
<polygon fill="#9a32cd" stroke="#9a32cd" points="1691.61,-296.413 1682.18,-301.243 1692.57,-303.347 1691.61,-296.413"/>
<text text-anchor="middle" x="2028" y="-270" font-family="Helvetica,sans-Serif" font-size="10.00"> filler</text>
</g>
<!-- Node21 -->
<g id="node21" class="node"><title>Node21</title>
<g id="a_node21"><a xlink:href="classstxxl_1_1mng__local_1_1add__filler.html" target="_top" xlink:title="Contains per block filler for stxxl::typed_block , not intended for direct use. ">
<polygon fill="none" stroke="black" points="1814,-294 1814,-324 1954,-324 1954,-294 1814,-294"/>
<text text-anchor="start" x="1822" y="-312" font-family="Helvetica,sans-Serif" font-size="10.00">stxxl::mng_local::add</text>
<text text-anchor="middle" x="1884" y="-301" font-family="Helvetica,sans-Serif" font-size="10.00">_filler&lt; BaseType, FillSize &gt;</text>
</a>
</g>
</g>
<!-- Node19&#45;&gt;Node21 -->
<g id="edge28" class="edge"><title>Node19&#45;&gt;Node21</title>
<path fill="none" stroke="#9a32cd" stroke-dasharray="5,2" d="M1692.44,-309C1729.55,-309 1775.96,-309 1813.69,-309"/>
<polygon fill="#9a32cd" stroke="#9a32cd" points="1692.23,-305.5 1682.23,-309 1692.23,-312.5 1692.23,-305.5"/>
<text text-anchor="middle" x="1759.5" y="-312" font-family="Helvetica,sans-Serif" font-size="10.00"> filler</text>
</g>
<!-- Node23 -->
<g id="node23" class="node"><title>Node23</title>
<g id="a_node23"><a xlink:href="classstxxl_1_1mng__local_1_1add__filler.html" target="_top" xlink:title="stxxl::mng_local::add\l_filler\&lt; Type, RawSize\l&#45;sizeof(Type)\&gt;">
<polygon fill="none" stroke="black" points="2115.5,-362.5 2115.5,-403.5 2231.5,-403.5 2231.5,-362.5 2115.5,-362.5"/>
<text text-anchor="start" x="2123.5" y="-391.5" font-family="Helvetica,sans-Serif" font-size="10.00">stxxl::mng_local::add</text>
<text text-anchor="start" x="2123.5" y="-380.5" font-family="Helvetica,sans-Serif" font-size="10.00">_filler&lt; Type, RawSize</text>
<text text-anchor="middle" x="2173.5" y="-369.5" font-family="Helvetica,sans-Serif" font-size="10.00">&#45;sizeof(Type)&gt;</text>
</a>
</g>
</g>
<!-- Node19&#45;&gt;Node23 -->
<g id="edge31" class="edge"><title>Node19&#45;&gt;Node23</title>
<path fill="none" stroke="#9a32cd" stroke-dasharray="5,2" d="M1692.23,-319.412C1702.52,-320.991 1713.04,-322.569 1723,-324 1863.82,-344.24 2029.87,-365.311 2115.32,-375.95"/>
<polygon fill="#9a32cd" stroke="#9a32cd" points="1692.46,-315.907 1682.05,-317.838 1691.39,-322.825 1692.46,-315.907"/>
<text text-anchor="middle" x="1884" y="-357" font-family="Helvetica,sans-Serif" font-size="10.00"> filler</text>
</g>
<!-- Node20 -->
<g id="node20" class="node"><title>Node20</title>
<g id="a_node20"><a xlink:href="classstxxl_1_1mng__local_1_1filler__struct.html" target="_top" xlink:title="stxxl::mng_local::filler\l_struct\&lt; Bytes \&gt;">
<polygon fill="none" stroke="black" points="1264,-294 1264,-324 1376,-324 1376,-294 1264,-294"/>
<text text-anchor="start" x="1272" y="-312" font-family="Helvetica,sans-Serif" font-size="10.00">stxxl::mng_local::filler</text>
<text text-anchor="middle" x="1320" y="-301" font-family="Helvetica,sans-Serif" font-size="10.00">_struct&lt; Bytes &gt;</text>
</a>
</g>
</g>
<!-- Node20&#45;&gt;Node19 -->
<g id="edge26" class="edge"><title>Node20&#45;&gt;Node19</title>
<path fill="none" stroke="orange" stroke-dasharray="5,2" d="M1386.33,-309C1441.03,-309 1518.21,-309 1569.84,-309"/>
<polygon fill="orange" stroke="orange" points="1386.05,-305.5 1376.05,-309 1386.05,-312.5 1386.05,-305.5"/>
<text text-anchor="middle" x="1473" y="-312" font-family="Helvetica,sans-Serif" font-size="10.00"> &lt; FillSize &gt;</text>
</g>
<!-- Node21&#45;&gt;Node13 -->
<g id="edge27" class="edge"><title>Node21&#45;&gt;Node13</title>
<path fill="none" stroke="orange" stroke-dasharray="5,2" d="M1964.2,-298.109C2063.53,-284.452 2233.98,-261.016 2342.97,-246.029"/>
<polygon fill="orange" stroke="orange" points="1963.66,-294.651 1954.23,-299.481 1964.61,-301.586 1963.66,-294.651"/>
<text text-anchor="start" x="2102" y="-337" font-family="Helvetica,sans-Serif" font-size="10.00"> &lt; mng_local::block</text>
<text text-anchor="start" x="2102" y="-326" font-family="Helvetica,sans-Serif" font-size="10.00">_w_info&lt; Type, RawSize,</text>
<text text-anchor="start" x="2102" y="-315" font-family="Helvetica,sans-Serif" font-size="10.00"> NRef, MetaInfoType &gt;,</text>
<text text-anchor="start" x="2102" y="-304" font-family="Helvetica,sans-Serif" font-size="10.00"> RawSize&#45;sizeof(mng_local</text>
<text text-anchor="start" x="2102" y="-293" font-family="Helvetica,sans-Serif" font-size="10.00">::block_w_info&lt; Type, RawSize,</text>
<text text-anchor="middle" x="2173.5" y="-282" font-family="Helvetica,sans-Serif" font-size="10.00"> NRef, MetaInfoType &gt;)&gt;</text>
</g>
<!-- Node21&#45;&gt;Node23 -->
<g id="edge32" class="edge"><title>Node21&#45;&gt;Node23</title>
<path fill="none" stroke="orange" stroke-dasharray="5,2" d="M1964.45,-307.276C2002.1,-309.143 2046.86,-315.376 2084,-332 2093.77,-336.373 2093.13,-342.012 2102,-348 2109.59,-353.122 2118.03,-357.96 2126.37,-362.313"/>
<polygon fill="orange" stroke="orange" points="1964.16,-303.762 1954.03,-306.86 1963.88,-310.756 1964.16,-303.762"/>
<text text-anchor="start" x="1973.5" y="-346" font-family="Helvetica,sans-Serif" font-size="10.00"> &lt; Type, RawSize&#45;sizeof</text>
<text text-anchor="middle" x="2028" y="-335" font-family="Helvetica,sans-Serif" font-size="10.00">(Type)&gt;</text>
</g>
<!-- Node22 -->
<g id="node22" class="node"><title>Node22</title>
<g id="a_node22"><a xlink:href="classstxxl_1_1mng__local_1_1expand__struct.html" target="_top" xlink:title="Helper to compute the size of the filler , not intended for direct use. ">
<polygon fill="none" stroke="black" points="2380,-308 2380,-338 2512,-338 2512,-308 2380,-308"/>
<text text-anchor="start" x="2388" y="-326" font-family="Helvetica,sans-Serif" font-size="10.00">stxxl::mng_local::expand</text>
<text text-anchor="middle" x="2446" y="-315" font-family="Helvetica,sans-Serif" font-size="10.00">_struct&lt; Type, RawSize &gt;</text>
</a>
</g>
</g>
<!-- Node22&#45;&gt;Node12 -->
<g id="edge29" class="edge"><title>Node22&#45;&gt;Node12</title>
<path fill="none" stroke="orange" stroke-dasharray="5,2" d="M2511.31,-305.294C2564.9,-290.538 2641.46,-269.458 2698.72,-253.69"/>
<polygon fill="orange" stroke="orange" points="2510.29,-301.944 2501.58,-307.973 2512.15,-308.693 2510.29,-301.944"/>
<text text-anchor="start" x="2567" y="-325" font-family="Helvetica,sans-Serif" font-size="10.00"> &lt; mng_local::block</text>
<text text-anchor="start" x="2567" y="-314" font-family="Helvetica,sans-Serif" font-size="10.00">_w_info&lt; Type, RawSize,</text>
<text text-anchor="start" x="2567" y="-303" font-family="Helvetica,sans-Serif" font-size="10.00"> NRef, MetaInfoType &gt;,</text>
<text text-anchor="middle" x="2624" y="-292" font-family="Helvetica,sans-Serif" font-size="10.00"> RawSize &gt;</text>
</g>
<!-- Node23&#45;&gt;Node22 -->
<g id="edge30" class="edge"><title>Node23&#45;&gt;Node22</title>
<path fill="none" stroke="midnightblue" d="M2241.46,-368.148C2283.73,-358.772 2338.07,-346.719 2379.97,-337.425"/>
<polygon fill="midnightblue" stroke="midnightblue" points="2240.54,-364.766 2231.54,-370.349 2242.06,-371.6 2240.54,-364.766"/>
</g>
<!-- Node24&#45;&gt;Node2 -->
<g id="edge33" class="edge"><title>Node24&#45;&gt;Node2</title>
<path fill="none" stroke="orange" stroke-dasharray="5,2" d="M3256.12,-118.021C3299.11,-121.67 3354.14,-126.644 3403,-132 3408.83,-132.639 3414.85,-133.335 3420.91,-134.06"/>
<polygon fill="orange" stroke="orange" points="3256.28,-114.523 3246.02,-117.17 3255.69,-121.498 3256.28,-114.523"/>
<text text-anchor="start" x="3264" y="-146" font-family="Helvetica,sans-Serif" font-size="10.00"> &lt; ValueType, BlockSideLength</text>
<text text-anchor="middle" x="3333.5" y="-135" font-family="Helvetica,sans-Serif" font-size="10.00"> *BlockSideLength &gt;</text>
</g>
</g>
</svg>
