<?xml version="1.0" encoding="UTF-8" standalone="no"?>
<!DOCTYPE svg PUBLIC "-//W3C//DTD SVG 1.1//EN"
 "http://www.w3.org/Graphics/SVG/1.1/DTD/svg11.dtd">
<!-- Generated by graphviz version 2.26.3 (20100126.1600)
 -->
<!-- Title: stxxl::config Pages: 1 -->
<svg width="229pt" height="236pt"
 viewBox="0.00 0.00 229.00 236.00" xmlns="http://www.w3.org/2000/svg" xmlns:xlink="http://www.w3.org/1999/xlink">
<g id="graph1" class="graph" transform="scale(1 1) rotate(0) translate(4 232)">
<title>stxxl::config</title>
<!-- Node1 -->
<g id="node1" class="node"><title>Node1</title>
<polygon fill="#bfbfbf" stroke="black" points="28,-0.5 28,-21.5 98,-21.5 98,-0.5 28,-0.5"/>
<text text-anchor="middle" x="63" y="-8.5" font-family="Helvetica,sans-Serif" font-size="10.00">stxxl::config</text>
</g>
<!-- Node2 -->
<g id="node2" class="node"><title>Node2</title>
<a xlink:href="classstxxl_1_1singleton.html" target="_top" xlink:title="stxxl::singleton\&lt; config \&gt;">
<polygon fill="none" stroke="black" points="-0.5,-60.5 -0.5,-81.5 126.5,-81.5 126.5,-60.5 -0.5,-60.5"/>
<text text-anchor="middle" x="63" y="-68.5" font-family="Helvetica,sans-Serif" font-size="10.00">stxxl::singleton&lt; config &gt;</text>
</a>
</g>
<!-- Node2&#45;&gt;Node1 -->
<g id="edge2" class="edge"><title>Node2&#45;&gt;Node1</title>
<path fill="none" stroke="midnightblue" d="M63,-50.2312C63,-40.5922 63,-29.5444 63,-21.6339"/>
<polygon fill="midnightblue" stroke="midnightblue" points="59.5001,-50.2732 63,-60.2732 66.5001,-50.2732 59.5001,-50.2732"/>
</g>
<!-- Node3 -->
<g id="node4" class="node"><title>Node3</title>
<a xlink:href="classstxxl_1_1noncopyable.html" target="_top" xlink:title="stxxl::noncopyable">
<polygon fill="none" stroke="black" points="29,-206.5 29,-227.5 127,-227.5 127,-206.5 29,-206.5"/>
<text text-anchor="middle" x="78" y="-214.5" font-family="Helvetica,sans-Serif" font-size="10.00">stxxl::noncopyable</text>
</a>
</g>
<!-- Node3&#45;&gt;Node2 -->
<g id="edge4" class="edge"><title>Node3&#45;&gt;Node2</title>
<path fill="none" stroke="#8b1a1a" d="M71.9805,-196.558C69.6781,-187.838 67.2958,-177.501 66,-168 61.7425,-136.783 62.1042,-99.4142 62.6085,-81.5381"/>
<polygon fill="#8b1a1a" stroke="#8b1a1a" points="68.6184,-197.531 74.671,-206.227 75.3622,-195.655 68.6184,-197.531"/>
</g>
<!-- Node4 -->
<g id="node6" class="node"><title>Node4</title>
<a xlink:href="classstxxl_1_1singleton.html" target="_top" xlink:title="stxxl::singleton\&lt; INSTANCE,\l destroy_on_exit \&gt;">
<polygon fill="none" stroke="black" points="75,-133 75,-167 221,-167 221,-133 75,-133"/>
<text text-anchor="start" x="83" y="-154" font-family="Helvetica,sans-Serif" font-size="10.00">stxxl::singleton&lt; INSTANCE,</text>
<text text-anchor="middle" x="148" y="-141" font-family="Helvetica,sans-Serif" font-size="10.00"> destroy_on_exit &gt;</text>
</a>
</g>
<!-- Node3&#45;&gt;Node4 -->
<g id="edge8" class="edge"><title>Node3&#45;&gt;Node4</title>
<path fill="none" stroke="#8b1a1a" d="M96.638,-199.161C107.05,-189.195 119.955,-176.843 130.224,-167.014"/>
<polygon fill="#8b1a1a" stroke="#8b1a1a" points="94.0508,-196.792 89.2467,-206.235 98.891,-201.849 94.0508,-196.792"/>
</g>
<!-- Node4&#45;&gt;Node2 -->
<g id="edge6" class="edge"><title>Node4&#45;&gt;Node2</title>
<path fill="none" stroke="orange" stroke-dasharray="5,2" d="M122.076,-125.906C106.135,-111.09 86.5036,-92.8445 74.3698,-81.5672"/>
<polygon fill="orange" stroke="orange" points="119.849,-128.614 129.556,-132.858 124.614,-123.487 119.849,-128.614"/>
<text text-anchor="middle" x="132" y="-104.5" font-family="Helvetica,sans-Serif" font-size="10.00"> &lt; config &gt;</text>
</g>
</g>
</svg>
