<?xml version="1.0" encoding="UTF-8" standalone="no"?>
<!DOCTYPE svg PUBLIC "-//W3C//DTD SVG 1.1//EN"
 "http://www.w3.org/Graphics/SVG/1.1/DTD/svg11.dtd">
<!-- Generated by graphviz version 2.26.3 (20100126.1600)
 -->
<!-- Title: stxxl::block_scheduler_algorithm&lt; SwappableBlockType &gt; Pages: 1 -->
<svg width="1680pt" height="367pt"
 viewBox="0.00 0.00 1680.00 367.00" xmlns="http://www.w3.org/2000/svg" xmlns:xlink="http://www.w3.org/1999/xlink">
<g id="graph1" class="graph" transform="scale(1 1) rotate(0) translate(4 363)">
<title>stxxl::block_scheduler_algorithm&lt; SwappableBlockType &gt;</title>
<!-- Node1 -->
<g id="node1" class="node"><title>Node1</title>
<polygon fill="#bfbfbf" stroke="black" points="1498,-308 1498,-342 1672,-342 1672,-308 1498,-308"/>
<text text-anchor="start" x="1506" y="-329" font-family="Helvetica,sans-Serif" font-size="10.00">stxxl::block_scheduler</text>
<text text-anchor="middle" x="1585" y="-316" font-family="Helvetica,sans-Serif" font-size="10.00">_algorithm&lt; SwappableBlockType &gt;</text>
</g>
<!-- Node2 -->
<g id="node2" class="node"><title>Node2</title>
<a xlink:href="classstxxl_1_1noncopyable.html" target="_top" xlink:title="stxxl::noncopyable">
<polygon fill="none" stroke="black" points="11,-227.5 11,-248.5 109,-248.5 109,-227.5 11,-227.5"/>
<text text-anchor="middle" x="60" y="-235.5" font-family="Helvetica,sans-Serif" font-size="10.00">stxxl::noncopyable</text>
</a>
</g>
<!-- Node2&#45;&gt;Node1 -->
<g id="edge2" class="edge"><title>Node2&#45;&gt;Node1</title>
<path fill="none" stroke="#8b1a1a" d="M76.1571,-255.961C90.8799,-271.307 113.942,-292.919 138,-306 213.141,-346.856 237.47,-359 323,-359 323,-359 323,-359 1383,-359 1428.34,-359 1478.63,-350.566 1517.68,-342.1"/>
<polygon fill="#8b1a1a" stroke="#8b1a1a" points="78.6448,-253.497 69.2571,-248.586 73.5331,-258.28 78.6448,-253.497"/>
</g>
<!-- Node3 -->
<g id="node4" class="node"><title>Node3</title>
<a xlink:href="classstxxl_1_1block__scheduler.html" target="_top" xlink:title="Schedules swapping of blocks and provides blocks for temporary storage. ">
<polygon fill="none" stroke="black" points="1318.5,-253 1318.5,-287 1447.5,-287 1447.5,-253 1318.5,-253"/>
<text text-anchor="start" x="1326.5" y="-274" font-family="Helvetica,sans-Serif" font-size="10.00">stxxl::block_scheduler</text>
<text text-anchor="middle" x="1383" y="-261" font-family="Helvetica,sans-Serif" font-size="10.00">&lt; SwappableBlockType &gt;</text>
</a>
</g>
<!-- Node2&#45;&gt;Node3 -->
<g id="edge6" class="edge"><title>Node2&#45;&gt;Node3</title>
<path fill="none" stroke="#8b1a1a" d="M88.1304,-253.156C135.278,-277.103 233.861,-321 323,-321 323,-321 323,-321 1209,-321 1258.26,-321 1312.32,-301.94 1346.9,-287.124"/>
<polygon fill="#8b1a1a" stroke="#8b1a1a" points="89.6294,-249.991 79.1383,-248.512 86.4171,-256.211 89.6294,-249.991"/>
</g>
<!-- Node5 -->
<g id="node9" class="node"><title>Node5</title>
<a xlink:href="classstxxl_1_1singleton.html" target="_top" xlink:title="stxxl::singleton\&lt; block\l_manager \&gt;">
<polygon fill="none" stroke="black" points="552.5,-226 552.5,-260 667.5,-260 667.5,-226 552.5,-226"/>
<text text-anchor="start" x="560.5" y="-247" font-family="Helvetica,sans-Serif" font-size="10.00">stxxl::singleton&lt; block</text>
<text text-anchor="middle" x="610" y="-234" font-family="Helvetica,sans-Serif" font-size="10.00">_manager &gt;</text>
</a>
</g>
<!-- Node2&#45;&gt;Node5 -->
<g id="edge12" class="edge"><title>Node2&#45;&gt;Node5</title>
<path fill="none" stroke="#8b1a1a" d="M119.007,-249.047C125.407,-250.109 131.833,-251.117 138,-252 312.244,-276.94 359.228,-278.925 534,-258 540.009,-257.281 546.254,-256.351 552.466,-255.306"/>
<polygon fill="#8b1a1a" stroke="#8b1a1a" points="119.458,-245.573 109.012,-247.344 118.283,-252.474 119.458,-245.573"/>
</g>
<!-- Node6 -->
<g id="node12" class="node"><title>Node6</title>
<a xlink:href="classstxxl_1_1singleton.html" target="_top" xlink:title="stxxl::singleton\&lt; INSTANCE,\l destroy_on_exit \&gt;">
<polygon fill="none" stroke="black" points="250,-221 250,-255 396,-255 396,-221 250,-221"/>
<text text-anchor="start" x="258" y="-242" font-family="Helvetica,sans-Serif" font-size="10.00">stxxl::singleton&lt; INSTANCE,</text>
<text text-anchor="middle" x="323" y="-229" font-family="Helvetica,sans-Serif" font-size="10.00"> destroy_on_exit &gt;</text>
</a>
</g>
<!-- Node2&#45;&gt;Node6 -->
<g id="edge16" class="edge"><title>Node2&#45;&gt;Node6</title>
<path fill="none" stroke="#8b1a1a" d="M119.232,-238C157.943,-238 208.774,-238 249.983,-238"/>
<polygon fill="#8b1a1a" stroke="#8b1a1a" points="119.16,-234.5 109.16,-238 119.16,-241.5 119.16,-234.5"/>
</g>
<!-- Node7 -->
<g id="node15" class="node"><title>Node7</title>
<a xlink:href="classstxxl_1_1file.html" target="_top" xlink:title="Defines interface of file. ">
<polygon fill="none" stroke="black" points="770,-154.5 770,-175.5 826,-175.5 826,-154.5 770,-154.5"/>
<text text-anchor="middle" x="798" y="-162.5" font-family="Helvetica,sans-Serif" font-size="10.00">stxxl::file</text>
</a>
</g>
<!-- Node2&#45;&gt;Node7 -->
<g id="edge20" class="edge"><title>Node2&#45;&gt;Node7</title>
<path fill="none" stroke="#8b1a1a" d="M119.319,-228.821C156.73,-223.295 206.102,-216.485 250,-212 472.464,-189.272 531.659,-216.169 752,-178 757.888,-176.98 764.102,-175.506 769.994,-173.913"/>
<polygon fill="#8b1a1a" stroke="#8b1a1a" points="118.474,-225.408 109.099,-230.342 119.505,-232.331 118.474,-225.408"/>
</g>
<!-- Node9 -->
<g id="node20" class="node"><title>Node9</title>
<a xlink:href="classstxxl_1_1mutex.html" target="_top" xlink:title="stxxl::mutex">
<polygon fill="none" stroke="black" points="287.5,-142.5 287.5,-163.5 358.5,-163.5 358.5,-142.5 287.5,-142.5"/>
<text text-anchor="middle" x="323" y="-150.5" font-family="Helvetica,sans-Serif" font-size="10.00">stxxl::mutex</text>
</a>
</g>
<!-- Node2&#45;&gt;Node9 -->
<g id="edge26" class="edge"><title>Node2&#45;&gt;Node9</title>
<path fill="none" stroke="#8b1a1a" d="M77.9002,-220.174C92.7088,-206.56 114.978,-188.56 138,-179 186.974,-158.662 248.853,-153.697 287.177,-152.765"/>
<polygon fill="#8b1a1a" stroke="#8b1a1a" points="75.3327,-217.785 70.4834,-227.205 80.1486,-222.866 75.3327,-217.785"/>
</g>
<!-- Node12 -->
<g id="node27" class="node"><title>Node12</title>
<a xlink:href="classstxxl_1_1disk__allocator.html" target="_top" xlink:title="stxxl::disk_allocator">
<polygon fill="none" stroke="black" points="944,-106.5 944,-127.5 1048,-127.5 1048,-106.5 944,-106.5"/>
<text text-anchor="middle" x="996" y="-114.5" font-family="Helvetica,sans-Serif" font-size="10.00">stxxl::disk_allocator</text>
</a>
</g>
<!-- Node2&#45;&gt;Node12 -->
<g id="edge34" class="edge"><title>Node2&#45;&gt;Node12</title>
<path fill="none" stroke="#8b1a1a" d="M73.2699,-219.266C87.4964,-200.278 111.624,-171.057 138,-152 210.9,-99.3284 233.063,-70 323,-70 323,-70 323,-70 798,-70 860.711,-70 931.647,-92.5951 969.255,-106.452"/>
<polygon fill="#8b1a1a" stroke="#8b1a1a" points="70.371,-217.3 67.2861,-227.436 76.0185,-221.436 70.371,-217.3"/>
</g>
<!-- Node3&#45;&gt;Node1 -->
<g id="edge4" class="edge"><title>Node3&#45;&gt;Node1</title>
<path fill="none" stroke="#9a32cd" stroke-dasharray="5,2" d="M1455.44,-289.724C1477.35,-295.689 1501.21,-302.186 1522.42,-307.96"/>
<polygon fill="#9a32cd" stroke="#9a32cd" points="1456.1,-286.276 1445.53,-287.026 1454.26,-293.03 1456.1,-286.276"/>
<text text-anchor="middle" x="1473" y="-299" font-family="Helvetica,sans-Serif" font-size="10.00"> bs</text>
</g>
<!-- Node4 -->
<g id="node7" class="node"><title>Node4</title>
<a xlink:href="classstxxl_1_1block__manager.html" target="_top" xlink:title="Block manager class. ">
<polygon fill="none" stroke="black" points="1154,-195.5 1154,-216.5 1264,-216.5 1264,-195.5 1154,-195.5"/>
<text text-anchor="middle" x="1209" y="-203.5" font-family="Helvetica,sans-Serif" font-size="10.00">stxxl::block_manager</text>
</a>
</g>
<!-- Node4&#45;&gt;Node3 -->
<g id="edge8" class="edge"><title>Node4&#45;&gt;Node3</title>
<path fill="none" stroke="#9a32cd" stroke-dasharray="5,2" d="M1247.35,-220.104C1273.63,-229.772 1308.65,-242.652 1336.52,-252.904"/>
<polygon fill="#9a32cd" stroke="#9a32cd" points="1248.33,-216.736 1237.73,-216.568 1245.91,-223.305 1248.33,-216.736"/>
<text text-anchor="middle" x="1291" y="-242" font-family="Helvetica,sans-Serif" font-size="10.00"> bm</text>
</g>
<!-- Node5&#45;&gt;Node4 -->
<g id="edge10" class="edge"><title>Node5&#45;&gt;Node4</title>
<path fill="none" stroke="midnightblue" d="M677.845,-238.809C797.57,-231.414 1044.05,-216.189 1153.98,-209.399"/>
<polygon fill="midnightblue" stroke="midnightblue" points="677.472,-235.326 667.707,-239.435 677.903,-242.312 677.472,-235.326"/>
</g>
<!-- Node6&#45;&gt;Node5 -->
<g id="edge14" class="edge"><title>Node6&#45;&gt;Node5</title>
<path fill="none" stroke="orange" stroke-dasharray="5,2" d="M406.299,-239.451C453.153,-240.267 510.464,-241.266 552.347,-241.996"/>
<polygon fill="orange" stroke="orange" points="406.224,-235.949 396.165,-239.275 406.102,-242.948 406.224,-235.949"/>
<text text-anchor="middle" x="474" y="-245" font-family="Helvetica,sans-Serif" font-size="10.00"> &lt; block_manager &gt;</text>
</g>
<!-- Node7&#45;&gt;Node4 -->
<g id="edge18" class="edge"><title>Node7&#45;&gt;Node4</title>
<path fill="none" stroke="#9a32cd" stroke-dasharray="5,2" d="M836.404,-168.831C909.61,-176.134 1069.36,-192.07 1153.93,-200.506"/>
<polygon fill="#9a32cd" stroke="#9a32cd" points="836.548,-165.328 826.25,-167.818 835.853,-172.294 836.548,-165.328"/>
<text text-anchor="middle" x="996" y="-193" font-family="Helvetica,sans-Serif" font-size="10.00"> disk_files</text>
</g>
<!-- Node7&#45;&gt;Node12 -->
<g id="edge36" class="edge"><title>Node7&#45;&gt;Node12</title>
<path fill="none" stroke="#9a32cd" stroke-dasharray="5,2" d="M830.577,-150.595C835.037,-148.903 839.596,-147.315 844,-146 876.564,-136.279 914.06,-129.084 943.663,-124.292"/>
<polygon fill="#9a32cd" stroke="#9a32cd" points="829.054,-147.434 821.069,-154.398 831.654,-153.934 829.054,-147.434"/>
<text text-anchor="middle" x="885" y="-150" font-family="Helvetica,sans-Serif" font-size="10.00"> storage</text>
</g>
<!-- Node8 -->
<g id="node18" class="node"><title>Node8</title>
<a xlink:href="classstxxl_1_1atomic__counted__object.html" target="_top" xlink:title="Provides reference counting abilities for use with counting_ptr with mutex locking. ">
<polygon fill="none" stroke="black" points="553.5,-136 553.5,-170 666.5,-170 666.5,-136 553.5,-136"/>
<text text-anchor="start" x="561.5" y="-157" font-family="Helvetica,sans-Serif" font-size="10.00">stxxl::atomic_counted</text>
<text text-anchor="middle" x="610" y="-144" font-family="Helvetica,sans-Serif" font-size="10.00">_object</text>
</a>
</g>
<!-- Node8&#45;&gt;Node7 -->
<g id="edge22" class="edge"><title>Node8&#45;&gt;Node7</title>
<path fill="none" stroke="#9a32cd" stroke-dasharray="5,2" d="M676.841,-157.266C708.754,-159.303 745.236,-161.632 769.756,-163.197"/>
<polygon fill="#9a32cd" stroke="#9a32cd" points="676.864,-153.761 666.661,-156.617 676.418,-160.747 676.864,-153.761"/>
<text text-anchor="middle" x="719" y="-165" font-family="Helvetica,sans-Serif" font-size="10.00"> m_request_ref</text>
</g>
<!-- Node9&#45;&gt;Node8 -->
<g id="edge24" class="edge"><title>Node9&#45;&gt;Node8</title>
<path fill="none" stroke="#9a32cd" stroke-dasharray="5,2" d="M368.996,-153C419.167,-153 499.509,-153 553.484,-153"/>
<polygon fill="#9a32cd" stroke="#9a32cd" points="368.768,-149.5 358.768,-153 368.768,-156.5 368.768,-149.5"/>
<text text-anchor="middle" x="474" y="-157" font-family="Helvetica,sans-Serif" font-size="10.00"> m_reference_count_mutex</text>
</g>
<!-- Node9&#45;&gt;Node12 -->
<g id="edge38" class="edge"><title>Node9&#45;&gt;Node12</title>
<path fill="none" stroke="#9a32cd" stroke-dasharray="5,2" d="M368.592,-146.592C414.728,-140.398 488.165,-131.334 552,-127 693.543,-117.391 860.989,-116.429 943.981,-116.648"/>
<polygon fill="#9a32cd" stroke="#9a32cd" points="368.048,-143.134 358.608,-147.945 368.988,-150.07 368.048,-143.134"/>
<text text-anchor="middle" x="719" y="-124" font-family="Helvetica,sans-Serif" font-size="10.00"> mutex</text>
</g>
<!-- Node10 -->
<g id="node23" class="node"><title>Node10</title>
<a xlink:href="structstxxl_1_1choose__int__types.html" target="_top" xlink:title="stxxl::choose_int_types\l\&lt; my_pointer_size \&gt;">
<polygon fill="none" stroke="black" points="263,-0 263,-34 383,-34 383,-0 263,-0"/>
<text text-anchor="start" x="271" y="-21" font-family="Helvetica,sans-Serif" font-size="10.00">stxxl::choose_int_types</text>
<text text-anchor="middle" x="323" y="-8" font-family="Helvetica,sans-Serif" font-size="10.00">&lt; my_pointer_size &gt;</text>
</a>
</g>
<!-- Node10&#45;&gt;Node3 -->
<g id="edge40" class="edge"><title>Node10&#45;&gt;Node3</title>
<path fill="none" stroke="#9a32cd" stroke-dasharray="5,2" d="M393.348,-13.9456C451.44,-11.6862 536.057,-9 610,-9 610,-9 610,-9 1209,-9 1326.63,-9 1369.63,-194.81 1380.2,-252.875"/>
<polygon fill="#9a32cd" stroke="#9a32cd" points="393.033,-10.4552 383.179,-14.3472 393.309,-17.4497 393.033,-10.4552"/>
<text text-anchor="start" x="844" y="-26" font-family="Helvetica,sans-Serif" font-size="10.00"> remaining_internal</text>
<text text-anchor="middle" x="885" y="-13" font-family="Helvetica,sans-Serif" font-size="10.00">_blocks</text>
</g>
<!-- Node10&#45;&gt;Node8 -->
<g id="edge28" class="edge"><title>Node10&#45;&gt;Node8</title>
<path fill="none" stroke="#9a32cd" stroke-dasharray="5,2" d="M368.173,-38.4063C425.05,-65.3581 521.623,-111.121 573.864,-135.876"/>
<polygon fill="#9a32cd" stroke="#9a32cd" points="369.594,-35.2062 359.058,-34.0868 366.596,-41.5319 369.594,-35.2062"/>
<text text-anchor="middle" x="474" y="-120" font-family="Helvetica,sans-Serif" font-size="10.00"> m_reference_count</text>
</g>
<!-- Node11 -->
<g id="node25" class="node"><title>Node11</title>
<a xlink:href="structstxxl_1_1choose__int__types.html" target="_top" xlink:title="stxxl::choose_int_types\l\&lt; PtrSize \&gt;">
<polygon fill="none" stroke="black" points="0,-0 0,-34 120,-34 120,-0 0,-0"/>
<text text-anchor="start" x="8" y="-21" font-family="Helvetica,sans-Serif" font-size="10.00">stxxl::choose_int_types</text>
<text text-anchor="middle" x="60" y="-8" font-family="Helvetica,sans-Serif" font-size="10.00">&lt; PtrSize &gt;</text>
</a>
</g>
<!-- Node11&#45;&gt;Node10 -->
<g id="edge30" class="edge"><title>Node11&#45;&gt;Node10</title>
<path fill="none" stroke="orange" stroke-dasharray="5,2" d="M130.017,-17C171.397,-17 223.258,-17 262.795,-17"/>
<polygon fill="orange" stroke="orange" points="130.008,-13.5001 120.008,-17 130.008,-20.5001 130.008,-13.5001"/>
<text text-anchor="middle" x="185" y="-21" font-family="Helvetica,sans-Serif" font-size="10.00"> &lt; my_pointer_size &gt;</text>
</g>
<!-- Node12&#45;&gt;Node4 -->
<g id="edge32" class="edge"><title>Node12&#45;&gt;Node4</title>
<path fill="none" stroke="#9a32cd" stroke-dasharray="5,2" d="M1058.26,-123.312C1083.3,-127.508 1111.89,-134.47 1136,-146 1161.75,-158.316 1186.22,-181.608 1199.25,-195.267"/>
<polygon fill="#9a32cd" stroke="#9a32cd" points="1058.55,-119.816 1048.13,-121.731 1057.47,-126.732 1058.55,-119.816"/>
<text text-anchor="middle" x="1101" y="-150" font-family="Helvetica,sans-Serif" font-size="10.00"> disk_allocators</text>
</g>
</g>
</svg>
