<?xml version="1.0" encoding="UTF-8" standalone="no"?>
<!DOCTYPE svg PUBLIC "-//W3C//DTD SVG 1.1//EN"
 "http://www.w3.org/Graphics/SVG/1.1/DTD/svg11.dtd">
<!-- Generated by graphviz version 2.38.0 (20140413.2041)
 -->
<!-- Title: stxxl::wbtl_file Pages: 1 -->
<svg width="1571pt" height="297pt"
 viewBox="0.00 0.00 1571.00 297.00" xmlns="http://www.w3.org/2000/svg" xmlns:xlink="http://www.w3.org/1999/xlink">
<g id="graph0" class="graph" transform="scale(1 1) rotate(0) translate(4 293)">
<title>stxxl::wbtl_file</title>
<!-- Node1 -->
<g id="node1" class="node"><title>Node1</title>
<polygon fill="#bfbfbf" stroke="black" points="1483,-200.5 1483,-219.5 1563,-219.5 1563,-200.5 1483,-200.5"/>
<text text-anchor="middle" x="1523" y="-207.5" font-family="Helvetica,sans-Serif" font-size="10.00">stxxl::wbtl_file</text>
</g>
<!-- Node2 -->
<g id="node2" class="node"><title>Node2</title>
<g id="a_node2"><a xlink:href="classstxxl_1_1disk__queued__file.html" target="_top" xlink:title="Implementation of some file methods based on serving_request. ">
<polygon fill="none" stroke="black" points="1138,-181.5 1138,-200.5 1254,-200.5 1254,-181.5 1138,-181.5"/>
<text text-anchor="middle" x="1196" y="-188.5" font-family="Helvetica,sans-Serif" font-size="10.00">stxxl::disk_queued_file</text>
</a>
</g>
</g>
<!-- Node2&#45;&gt;Node1 -->
<g id="edge1" class="edge"><title>Node2&#45;&gt;Node1</title>
<path fill="none" stroke="midnightblue" d="M1264.65,-194.955C1330.56,-198.808 1428.52,-204.535 1482.58,-207.696"/>
<polygon fill="midnightblue" stroke="midnightblue" points="1264.54,-191.443 1254.36,-194.353 1264.13,-198.431 1264.54,-191.443"/>
</g>
<!-- Node3 -->
<g id="node3" class="node"><title>Node3</title>
<g id="a_node3"><a xlink:href="classstxxl_1_1file.html" target="_top" xlink:title="Defines interface of file. ">
<polygon fill="none" stroke="black" points="822,-182.5 822,-201.5 878,-201.5 878,-182.5 822,-182.5"/>
<text text-anchor="middle" x="850" y="-189.5" font-family="Helvetica,sans-Serif" font-size="10.00">stxxl::file</text>
</a>
</g>
</g>
<!-- Node3&#45;&gt;Node1 -->
<g id="edge9" class="edge"><title>Node3&#45;&gt;Node1</title>
<path fill="none" stroke="#9a32cd" stroke-dasharray="5,2" d="M888.263,-199.65C901.955,-202.14 917.624,-204.618 932,-206 1133.33,-225.361 1184.75,-213.241 1387,-215 1421.67,-215.301 1430.37,-216.516 1465,-215 1470.76,-214.748 1476.83,-214.354 1482.78,-213.894"/>
<polygon fill="#9a32cd" stroke="#9a32cd" points="888.707,-196.172 878.232,-197.76 887.411,-203.051 888.707,-196.172"/>
<text text-anchor="middle" x="1196" y="-220" font-family="Helvetica,sans-Serif" font-size="10.00"> storage</text>
</g>
<!-- Node3&#45;&gt;Node2 -->
<g id="edge2" class="edge"><title>Node3&#45;&gt;Node2</title>
<path fill="none" stroke="midnightblue" d="M888.463,-191.891C948.627,-191.716 1067.19,-191.372 1137.93,-191.166"/>
<polygon fill="midnightblue" stroke="midnightblue" points="888.27,-188.392 878.281,-191.921 888.291,-195.392 888.27,-188.392"/>
</g>
<!-- Node10 -->
<g id="node10" class="node"><title>Node10</title>
<g id="a_node10"><a xlink:href="classstxxl_1_1request.html" target="_top" xlink:title="Request object encapsulating basic properties like file and offset. ">
<polygon fill="none" stroke="black" points="1033.5,-111.5 1033.5,-130.5 1109.5,-130.5 1109.5,-111.5 1033.5,-111.5"/>
<text text-anchor="middle" x="1071.5" y="-118.5" font-family="Helvetica,sans-Serif" font-size="10.00">stxxl::request</text>
</a>
</g>
</g>
<!-- Node3&#45;&gt;Node10 -->
<g id="edge16" class="edge"><title>Node3&#45;&gt;Node10</title>
<path fill="none" stroke="#9a32cd" stroke-dasharray="5,2" d="M887.725,-180.629C929.588,-167.654 993.71,-147.74 1005,-144 1017.93,-139.717 1032.2,-134.734 1044.12,-130.503"/>
<polygon fill="#9a32cd" stroke="#9a32cd" points="886.64,-177.3 878.124,-183.603 888.712,-183.987 886.64,-177.3"/>
<text text-anchor="middle" x="968.5" y="-170" font-family="Helvetica,sans-Serif" font-size="10.00"> m_file</text>
</g>
<!-- Node4 -->
<g id="node4" class="node"><title>Node4</title>
<g id="a_node4"><a xlink:href="classstxxl_1_1noncopyable.html" target="_top" xlink:title="stxxl::noncopyable">
<polygon fill="none" stroke="black" points="11,-194.5 11,-213.5 109,-213.5 109,-194.5 11,-194.5"/>
<text text-anchor="middle" x="60" y="-201.5" font-family="Helvetica,sans-Serif" font-size="10.00">stxxl::noncopyable</text>
</a>
</g>
</g>
<!-- Node4&#45;&gt;Node3 -->
<g id="edge3" class="edge"><title>Node4&#45;&gt;Node3</title>
<path fill="none" stroke="#8b1a1a" d="M117.621,-215.189C124.467,-216.277 131.378,-217.252 138,-218 187.072,-223.541 199.629,-221.889 249,-223 470.333,-227.982 737.096,-203.393 821.811,-194.843"/>
<polygon fill="#8b1a1a" stroke="#8b1a1a" points="118.118,-211.724 107.678,-213.528 116.964,-218.628 118.118,-211.724"/>
</g>
<!-- Node6 -->
<g id="node6" class="node"><title>Node6</title>
<g id="a_node6"><a xlink:href="classstxxl_1_1mutex.html" target="_top" xlink:title="stxxl::mutex">
<polygon fill="none" stroke="black" points="273.5,-194.5 273.5,-213.5 344.5,-213.5 344.5,-194.5 273.5,-194.5"/>
<text text-anchor="middle" x="309" y="-201.5" font-family="Helvetica,sans-Serif" font-size="10.00">stxxl::mutex</text>
</a>
</g>
</g>
<!-- Node4&#45;&gt;Node6 -->
<g id="edge6" class="edge"><title>Node4&#45;&gt;Node6</title>
<path fill="none" stroke="#8b1a1a" d="M119.445,-204C167.363,-204 233.567,-204 273.436,-204"/>
<polygon fill="#8b1a1a" stroke="#8b1a1a" points="119.21,-200.5 109.21,-204 119.21,-207.5 119.21,-200.5"/>
</g>
<!-- Node11 -->
<g id="node11" class="node"><title>Node11</title>
<g id="a_node11"><a xlink:href="classstxxl_1_1request__interface.html" target="_top" xlink:title="Functional interface of a request. ">
<polygon fill="none" stroke="black" points="387,-98.5 387,-117.5 506,-117.5 506,-98.5 387,-98.5"/>
<text text-anchor="middle" x="446.5" y="-105.5" font-family="Helvetica,sans-Serif" font-size="10.00">stxxl::request_interface</text>
</a>
</g>
</g>
<!-- Node4&#45;&gt;Node11 -->
<g id="edge14" class="edge"><title>Node4&#45;&gt;Node11</title>
<path fill="none" stroke="#8b1a1a" d="M119.226,-197.695C196.312,-188.562 327.355,-170.075 369,-146 379.642,-139.848 376.667,-131.659 387,-125 391.623,-122.021 396.781,-119.55 402.067,-117.505"/>
<polygon fill="#8b1a1a" stroke="#8b1a1a" points="118.708,-194.232 109.182,-198.868 119.521,-201.184 118.708,-194.232"/>
</g>
<!-- Node5 -->
<g id="node5" class="node"><title>Node5</title>
<g id="a_node5"><a xlink:href="classstxxl_1_1atomic__counted__object.html" target="_top" xlink:title="Provides reference counting abilities for use with counting_ptr with mutex locking. ">
<polygon fill="none" stroke="black" points="525.5,-143 525.5,-173 638.5,-173 638.5,-143 525.5,-143"/>
<text text-anchor="start" x="533.5" y="-161" font-family="Helvetica,sans-Serif" font-size="10.00">stxxl::atomic_counted</text>
<text text-anchor="middle" x="582" y="-150" font-family="Helvetica,sans-Serif" font-size="10.00">_object</text>
</a>
</g>
</g>
<!-- Node5&#45;&gt;Node3 -->
<g id="edge4" class="edge"><title>Node5&#45;&gt;Node3</title>
<path fill="none" stroke="#9a32cd" stroke-dasharray="5,2" d="M648.892,-166.422C704.536,-173.535 781.418,-183.362 821.768,-188.519"/>
<polygon fill="#9a32cd" stroke="#9a32cd" points="649.125,-162.924 638.762,-165.128 648.238,-169.867 649.125,-162.924"/>
<text text-anchor="middle" x="713" y="-185" font-family="Helvetica,sans-Serif" font-size="10.00"> m_request_ref</text>
</g>
<!-- Node5&#45;&gt;Node10 -->
<g id="edge15" class="edge"><title>Node5&#45;&gt;Node10</title>
<path fill="none" stroke="midnightblue" d="M648.972,-152.993C752.786,-145.114 950.918,-130.076 1033.22,-123.829"/>
<polygon fill="midnightblue" stroke="midnightblue" points="648.629,-149.509 638.922,-153.756 649.159,-156.489 648.629,-149.509"/>
</g>
<!-- Node6&#45;&gt;Node1 -->
<g id="edge10" class="edge"><title>Node6&#45;&gt;Node1</title>
<path fill="none" stroke="#9a32cd" stroke-dasharray="5,2" d="M354.588,-212.774C446.605,-230.09 664.39,-267 849,-267 849,-267 849,-267 1321.5,-267 1390.08,-267 1466.99,-235.767 1502.32,-219.541"/>
<polygon fill="#9a32cd" stroke="#9a32cd" points="354.996,-209.289 344.518,-210.862 353.69,-216.166 354.996,-209.289"/>
<text text-anchor="middle" x="968.5" y="-281" font-family="Helvetica,sans-Serif" font-size="10.00"> buffer_mutex</text>
<text text-anchor="middle" x="968.5" y="-270" font-family="Helvetica,sans-Serif" font-size="10.00">mapping_mutex</text>
</g>
<!-- Node6&#45;&gt;Node5 -->
<g id="edge5" class="edge"><title>Node6&#45;&gt;Node5</title>
<path fill="none" stroke="#9a32cd" stroke-dasharray="5,2" d="M344.544,-191.105C357.674,-186.651 372.872,-182.024 387,-179 433.046,-169.143 486.283,-163.799 525.327,-160.973"/>
<polygon fill="#9a32cd" stroke="#9a32cd" points="343.248,-187.85 334.959,-194.449 345.554,-194.46 343.248,-187.85"/>
<text text-anchor="middle" x="446.5" y="-182" font-family="Helvetica,sans-Serif" font-size="10.00"> m_reference_count_mutex</text>
</g>
<!-- Node7 -->
<g id="node7" class="node"><title>Node7</title>
<g id="a_node7"><a xlink:href="structstxxl_1_1choose__int__types.html" target="_top" xlink:title="stxxl::choose_int_types\l\&lt; my_pointer_size \&gt;">
<polygon fill="none" stroke="black" points="249,-107 249,-137 369,-137 369,-107 249,-107"/>
<text text-anchor="start" x="257" y="-125" font-family="Helvetica,sans-Serif" font-size="10.00">stxxl::choose_int_types</text>
<text text-anchor="middle" x="309" y="-114" font-family="Helvetica,sans-Serif" font-size="10.00">&lt; my_pointer_size &gt;</text>
</a>
</g>
</g>
<!-- Node7&#45;&gt;Node5 -->
<g id="edge7" class="edge"><title>Node7&#45;&gt;Node5</title>
<path fill="none" stroke="#9a32cd" stroke-dasharray="5,2" d="M379.684,-127.917C417.216,-131.494 464.257,-136.603 506,-143 512.3,-143.966 518.875,-145.096 525.399,-146.296"/>
<polygon fill="#9a32cd" stroke="#9a32cd" points="379.645,-124.398 369.362,-126.949 378.992,-131.368 379.645,-124.398"/>
<text text-anchor="middle" x="446.5" y="-146" font-family="Helvetica,sans-Serif" font-size="10.00"> m_reference_count</text>
</g>
<!-- Node8 -->
<g id="node8" class="node"><title>Node8</title>
<g id="a_node8"><a xlink:href="structstxxl_1_1choose__int__types.html" target="_top" xlink:title="stxxl::choose_int_types\l\&lt; PtrSize \&gt;">
<polygon fill="none" stroke="black" points="0,-107 0,-137 120,-137 120,-107 0,-107"/>
<text text-anchor="start" x="8" y="-125" font-family="Helvetica,sans-Serif" font-size="10.00">stxxl::choose_int_types</text>
<text text-anchor="middle" x="60" y="-114" font-family="Helvetica,sans-Serif" font-size="10.00">&lt; PtrSize &gt;</text>
</a>
</g>
</g>
<!-- Node8&#45;&gt;Node7 -->
<g id="edge8" class="edge"><title>Node8&#45;&gt;Node7</title>
<path fill="none" stroke="orange" stroke-dasharray="5,2" d="M130.455,-122C167.772,-122 213.289,-122 248.893,-122"/>
<polygon fill="orange" stroke="orange" points="130.163,-118.5 120.163,-122 130.163,-125.5 130.163,-118.5"/>
<text text-anchor="middle" x="184.5" y="-125" font-family="Helvetica,sans-Serif" font-size="10.00"> &lt; my_pointer_size &gt;</text>
</g>
<!-- Node9 -->
<g id="node9" class="node"><title>Node9</title>
<g id="a_node9"><a xlink:href="classstxxl_1_1counting__ptr.html" target="_top" xlink:title="stxxl::counting_ptr\l\&lt; request \&gt;">
<polygon fill="none" stroke="black" points="1272,-106 1272,-136 1369,-136 1369,-106 1272,-106"/>
<text text-anchor="start" x="1280" y="-124" font-family="Helvetica,sans-Serif" font-size="10.00">stxxl::counting_ptr</text>
<text text-anchor="middle" x="1320.5" y="-113" font-family="Helvetica,sans-Serif" font-size="10.00">&lt; request &gt;</text>
</a>
</g>
</g>
<!-- Node9&#45;&gt;Node1 -->
<g id="edge11" class="edge"><title>Node9&#45;&gt;Node1</title>
<path fill="none" stroke="#9a32cd" stroke-dasharray="5,2" d="M1378.75,-133.964C1405.79,-141.323 1437.99,-151.916 1465,-166 1482.96,-175.363 1501.01,-190.496 1511.85,-200.347"/>
<polygon fill="#9a32cd" stroke="#9a32cd" points="1379.6,-130.568 1369.04,-131.398 1377.81,-137.336 1379.6,-130.568"/>
<text text-anchor="middle" x="1426" y="-169" font-family="Helvetica,sans-Serif" font-size="10.00"> backend_request</text>
</g>
<!-- Node10&#45;&gt;Node9 -->
<g id="edge12" class="edge"><title>Node10&#45;&gt;Node9</title>
<path fill="none" stroke="#9a32cd" stroke-dasharray="5,2" d="M1119.82,-121C1163.48,-121 1227.98,-121 1271.77,-121"/>
<polygon fill="#9a32cd" stroke="#9a32cd" points="1119.75,-117.5 1109.75,-121 1119.75,-124.5 1119.75,-117.5"/>
<text text-anchor="middle" x="1196" y="-124" font-family="Helvetica,sans-Serif" font-size="10.00"> m_ptr</text>
</g>
<!-- Node11&#45;&gt;Node10 -->
<g id="edge13" class="edge"><title>Node11&#45;&gt;Node10</title>
<path fill="none" stroke="midnightblue" d="M516.472,-109.439C648.204,-112.188 931.532,-118.1 1033.22,-120.222"/>
<polygon fill="midnightblue" stroke="midnightblue" points="516.181,-105.932 506.11,-109.223 516.035,-112.931 516.181,-105.932"/>
</g>
<!-- Node12 -->
<g id="node12" class="node"><title>Node12</title>
<g id="a_node12"><a xlink:href="structstxxl_1_1compat__unique__ptr.html" target="_top" xlink:title="stxxl::compat_unique\l_ptr\&lt; stxxl::stxxl::io\l_error \&gt;">
<polygon fill="none" stroke="black" points="658,-48.5 658,-89.5 768,-89.5 768,-48.5 658,-48.5"/>
<text text-anchor="start" x="666" y="-77.5" font-family="Helvetica,sans-Serif" font-size="10.00">stxxl::compat_unique</text>
<text text-anchor="start" x="666" y="-66.5" font-family="Helvetica,sans-Serif" font-size="10.00">_ptr&lt; stxxl::stxxl::io</text>
<text text-anchor="middle" x="713" y="-55.5" font-family="Helvetica,sans-Serif" font-size="10.00">_error &gt;</text>
</a>
</g>
</g>
<!-- Node12&#45;&gt;Node10 -->
<g id="edge17" class="edge"><title>Node12&#45;&gt;Node10</title>
<path fill="none" stroke="#9a32cd" stroke-dasharray="5,2" d="M778.056,-68.315C837.731,-69.1209 928.711,-74.0611 1005,-94 1007.25,-94.5871 1029.63,-103.875 1047.62,-111.396"/>
<polygon fill="#9a32cd" stroke="#9a32cd" points="778.057,-64.8149 768.022,-68.2145 777.987,-71.8146 778.057,-64.8149"/>
<text text-anchor="middle" x="850" y="-80" font-family="Helvetica,sans-Serif" font-size="10.00"> m_error</text>
</g>
<!-- Node13 -->
<g id="node13" class="node"><title>Node13</title>
<g id="a_node13"><a xlink:href="structstxxl_1_1compat__unique__ptr.html" target="_top" xlink:title="stxxl::compat_unique\l_ptr\&lt; Type \&gt;">
<polygon fill="none" stroke="black" points="254,-33 254,-63 364,-63 364,-33 254,-33"/>
<text text-anchor="start" x="262" y="-51" font-family="Helvetica,sans-Serif" font-size="10.00">stxxl::compat_unique</text>
<text text-anchor="middle" x="309" y="-40" font-family="Helvetica,sans-Serif" font-size="10.00">_ptr&lt; Type &gt;</text>
</a>
</g>
</g>
<!-- Node13&#45;&gt;Node12 -->
<g id="edge18" class="edge"><title>Node13&#45;&gt;Node12</title>
<path fill="none" stroke="orange" stroke-dasharray="5,2" d="M374.458,-51.3672C452.941,-55.467 584.098,-62.3185 657.682,-66.1625"/>
<polygon fill="orange" stroke="orange" points="374.385,-47.8587 364.216,-50.8322 374.019,-54.8492 374.385,-47.8587"/>
<text text-anchor="start" x="409.5" y="-73" font-family="Helvetica,sans-Serif" font-size="10.00"> &lt; stxxl::stxxl::io</text>
<text text-anchor="middle" x="446.5" y="-62" font-family="Helvetica,sans-Serif" font-size="10.00">_error &gt;</text>
</g>
<!-- Node15 -->
<g id="node15" class="node"><title>Node15</title>
<g id="a_node15"><a xlink:href="structstxxl_1_1compat__unique__ptr.html" target="_top" xlink:title="stxxl::compat_unique\l_ptr\&lt; stxxl::completion\l_handler_impl \&gt;">
<polygon fill="none" stroke="black" points="524,-0.5 524,-41.5 640,-41.5 640,-0.5 524,-0.5"/>
<text text-anchor="start" x="532" y="-29.5" font-family="Helvetica,sans-Serif" font-size="10.00">stxxl::compat_unique</text>
<text text-anchor="start" x="532" y="-18.5" font-family="Helvetica,sans-Serif" font-size="10.00">_ptr&lt; stxxl::completion</text>
<text text-anchor="middle" x="582" y="-7.5" font-family="Helvetica,sans-Serif" font-size="10.00">_handler_impl &gt;</text>
</a>
</g>
</g>
<!-- Node13&#45;&gt;Node15 -->
<g id="edge21" class="edge"><title>Node13&#45;&gt;Node15</title>
<path fill="none" stroke="orange" stroke-dasharray="5,2" d="M365.33,-30.3951C372.559,-28.6265 379.914,-27.0857 387,-26 432.625,-19.0095 484.977,-18.069 523.79,-18.7052"/>
<polygon fill="orange" stroke="orange" points="364.387,-27.024 355.588,-32.9267 366.147,-33.7989 364.387,-27.024"/>
<text text-anchor="start" x="403" y="-40" font-family="Helvetica,sans-Serif" font-size="10.00"> &lt; stxxl::completion</text>
<text text-anchor="middle" x="446.5" y="-29" font-family="Helvetica,sans-Serif" font-size="10.00">_handler_impl &gt;</text>
</g>
<!-- Node14 -->
<g id="node14" class="node"><title>Node14</title>
<g id="a_node14"><a xlink:href="classstxxl_1_1completion__handler.html" target="_top" xlink:title="Completion handler class (Loki&#45;style). ">
<polygon fill="none" stroke="black" points="786,-12.5 786,-31.5 914,-31.5 914,-12.5 786,-12.5"/>
<text text-anchor="middle" x="850" y="-19.5" font-family="Helvetica,sans-Serif" font-size="10.00">stxxl::completion_handler</text>
</a>
</g>
</g>
<!-- Node14&#45;&gt;Node10 -->
<g id="edge19" class="edge"><title>Node14&#45;&gt;Node10</title>
<path fill="none" stroke="#9a32cd" stroke-dasharray="5,2" d="M924.48,-16.6926C952.513,-18.4143 982.987,-25.33 1005,-44 1025.26,-61.1837 1005.1,-81.365 1023,-101 1026.86,-105.232 1031.75,-108.599 1036.93,-111.267"/>
<polygon fill="#9a32cd" stroke="#9a32cd" points="924.415,-13.1872 914.282,-16.2811 924.133,-20.1815 924.415,-13.1872"/>
<text text-anchor="middle" x="968.5" y="-47" font-family="Helvetica,sans-Serif" font-size="10.00"> m_on_complete</text>
</g>
<!-- Node15&#45;&gt;Node14 -->
<g id="edge20" class="edge"><title>Node15&#45;&gt;Node14</title>
<path fill="none" stroke="#9a32cd" stroke-dasharray="5,2" d="M650.129,-21.2524C691.825,-21.4091 745.078,-21.6093 785.981,-21.7631"/>
<polygon fill="#9a32cd" stroke="#9a32cd" points="650.077,-17.7522 640.064,-21.2145 650.05,-24.7522 650.077,-17.7522"/>
<text text-anchor="middle" x="713" y="-25" font-family="Helvetica,sans-Serif" font-size="10.00"> m_ptr</text>
</g>
<!-- Node16 -->
<g id="node16" class="node"><title>Node16</title>
<g id="a_node16"><a xlink:href="classstxxl_1_1counting__ptr.html" target="_top" xlink:title="High&#45;performance smart pointer used as a wrapping reference counting pointer. ">
<polygon fill="none" stroke="black" points="1023,-62 1023,-92 1120,-92 1120,-62 1023,-62"/>
<text text-anchor="start" x="1031" y="-80" font-family="Helvetica,sans-Serif" font-size="10.00">stxxl::counting_ptr</text>
<text text-anchor="middle" x="1071.5" y="-69" font-family="Helvetica,sans-Serif" font-size="10.00">&lt; Type &gt;</text>
</a>
</g>
</g>
<!-- Node16&#45;&gt;Node9 -->
<g id="edge22" class="edge"><title>Node16&#45;&gt;Node9</title>
<path fill="none" stroke="orange" stroke-dasharray="5,2" d="M1130.29,-85.2281C1166.03,-90.5665 1212.8,-98.0006 1254,-106 1259.84,-107.134 1265.95,-108.412 1272,-109.73"/>
<polygon fill="orange" stroke="orange" points="1130.44,-81.7134 1120.04,-83.71 1129.42,-88.6378 1130.44,-81.7134"/>
<text text-anchor="middle" x="1196" y="-109" font-family="Helvetica,sans-Serif" font-size="10.00"> &lt; request &gt;</text>
</g>
</g>
</svg>
