<?xml version="1.0" encoding="UTF-8" standalone="no"?>
<!DOCTYPE svg PUBLIC "-//W3C//DTD SVG 1.1//EN"
 "http://www.w3.org/Graphics/SVG/1.1/DTD/svg11.dtd">
<!-- Generated by graphviz version 2.26.3 (20100126.1600)
 -->
<!-- Title: stxxl::stream::runs_creator&lt; use_push&lt; ValueType &gt;, CompareType, BlockSize, AllocStr &gt; Pages: 1 -->
<svg width="3254pt" height="315pt"
 viewBox="0.00 0.00 3254.00 315.26" xmlns="http://www.w3.org/2000/svg" xmlns:xlink="http://www.w3.org/1999/xlink">
<g id="graph1" class="graph" transform="scale(1 1) rotate(0) translate(4 311.265)">
<title>stxxl::stream::runs_creator&lt; use_push&lt; ValueType &gt;, CompareType, BlockSize, AllocStr &gt;</title>
<!-- Node1 -->
<g id="node1" class="node"><title>Node1</title>
<polygon fill="#bfbfbf" stroke="black" points="3100,-208.265 3100,-268.265 3246,-268.265 3246,-208.265 3100,-208.265"/>
<text text-anchor="start" x="3108" y="-255.265" font-family="Helvetica,sans-Serif" font-size="10.00">stxxl::stream::runs</text>
<text text-anchor="start" x="3108" y="-242.265" font-family="Helvetica,sans-Serif" font-size="10.00">_creator&lt; use_push&lt;</text>
<text text-anchor="start" x="3108" y="-229.265" font-family="Helvetica,sans-Serif" font-size="10.00"> ValueType &gt;, CompareType,</text>
<text text-anchor="middle" x="3173" y="-216.265" font-family="Helvetica,sans-Serif" font-size="10.00"> BlockSize, AllocStr &gt;</text>
</g>
<!-- Node2 -->
<g id="node2" class="node"><title>Node2</title>
<a xlink:href="classstxxl_1_1noncopyable.html" target="_top" xlink:title="stxxl::noncopyable">
<polygon fill="none" stroke="black" points="11,-242.765 11,-263.765 109,-263.765 109,-242.765 11,-242.765"/>
<text text-anchor="middle" x="60" y="-250.765" font-family="Helvetica,sans-Serif" font-size="10.00">stxxl::noncopyable</text>
</a>
</g>
<!-- Node2&#45;&gt;Node1 -->
<g id="edge2" class="edge"><title>Node2&#45;&gt;Node1</title>
<path fill="none" stroke="#8b1a1a" d="M98.6945,-266.983C147.355,-282.981 233.771,-307.265 310,-307.265 310,-307.265 310,-307.265 2945,-307.265 3002.49,-307.265 3064.76,-286.922 3109.68,-268.328"/>
<polygon fill="#8b1a1a" stroke="#8b1a1a" points="99.7845,-263.657 89.1907,-263.805 97.5646,-270.295 99.7845,-263.657"/>
</g>
<!-- Node12 -->
<g id="node23" class="node"><title>Node12</title>
<a xlink:href="classstxxl_1_1file.html" target="_top" xlink:title="Defines interface of file. ">
<polygon fill="none" stroke="black" points="742,-180.765 742,-201.765 798,-201.765 798,-180.765 742,-180.765"/>
<text text-anchor="middle" x="770" y="-188.765" font-family="Helvetica,sans-Serif" font-size="10.00">stxxl::file</text>
</a>
</g>
<!-- Node2&#45;&gt;Node12 -->
<g id="edge26" class="edge"><title>Node2&#45;&gt;Node12</title>
<path fill="none" stroke="#8b1a1a" d="M119.418,-250.473C224.517,-245.336 450.049,-233.413 640,-217.265 677.412,-214.084 687.445,-216.838 724,-208.265 730.797,-206.671 737.959,-204.354 744.556,-201.94"/>
<polygon fill="#8b1a1a" stroke="#8b1a1a" points="119.143,-246.983 109.325,-250.964 119.483,-253.974 119.143,-246.983"/>
</g>
<!-- Node14 -->
<g id="node28" class="node"><title>Node14</title>
<a xlink:href="classstxxl_1_1mutex.html" target="_top" xlink:title="stxxl::mutex">
<polygon fill="none" stroke="black" points="274.5,-203.765 274.5,-224.765 345.5,-224.765 345.5,-203.765 274.5,-203.765"/>
<text text-anchor="middle" x="310" y="-211.765" font-family="Helvetica,sans-Serif" font-size="10.00">stxxl::mutex</text>
</a>
</g>
<!-- Node2&#45;&gt;Node14 -->
<g id="edge32" class="edge"><title>Node2&#45;&gt;Node14</title>
<path fill="none" stroke="#8b1a1a" d="M119.043,-242.453C125.436,-241.346 131.851,-240.263 138,-239.265 185.06,-231.624 239.549,-223.891 274.37,-219.091"/>
<polygon fill="#8b1a1a" stroke="#8b1a1a" points="118.301,-239.03 109.056,-244.203 119.51,-245.925 118.301,-239.03"/>
</g>
<!-- Node3 -->
<g id="node4" class="node"><title>Node3</title>
<a xlink:href="classstxxl_1_1counting__ptr.html" target="_top" xlink:title="stxxl::counting_ptr\l\&lt; sorted_runs_data_type \&gt;">
<polygon fill="none" stroke="black" points="2878,-245.265 2878,-279.265 3012,-279.265 3012,-245.265 2878,-245.265"/>
<text text-anchor="start" x="2886" y="-266.265" font-family="Helvetica,sans-Serif" font-size="10.00">stxxl::counting_ptr</text>
<text text-anchor="middle" x="2945" y="-253.265" font-family="Helvetica,sans-Serif" font-size="10.00">&lt; sorted_runs_data_type &gt;</text>
</a>
</g>
<!-- Node3&#45;&gt;Node1 -->
<g id="edge4" class="edge"><title>Node3&#45;&gt;Node1</title>
<path fill="none" stroke="#9a32cd" stroke-dasharray="5,2" d="M3022.38,-254.12C3047.46,-251.48 3075.18,-248.561 3099.94,-245.955"/>
<polygon fill="#9a32cd" stroke="#9a32cd" points="3021.75,-250.666 3012.17,-255.194 3022.49,-257.628 3021.75,-250.666"/>
<text text-anchor="middle" x="3056" y="-256.265" font-family="Helvetica,sans-Serif" font-size="10.00"> m_result</text>
</g>
<!-- Node4 -->
<g id="node6" class="node"><title>Node4</title>
<a xlink:href="classstxxl_1_1counting__ptr.html" target="_top" xlink:title="High&#45;performance smart pointer used as a wrapping reference counting pointer. ">
<polygon fill="none" stroke="black" points="2625.5,-224.265 2625.5,-258.265 2722.5,-258.265 2722.5,-224.265 2625.5,-224.265"/>
<text text-anchor="start" x="2633.5" y="-245.265" font-family="Helvetica,sans-Serif" font-size="10.00">stxxl::counting_ptr</text>
<text text-anchor="middle" x="2674" y="-232.265" font-family="Helvetica,sans-Serif" font-size="10.00">&lt; Type &gt;</text>
</a>
</g>
<!-- Node4&#45;&gt;Node1 -->
<g id="edge8" class="edge"><title>Node4&#45;&gt;Node1</title>
<path fill="none" stroke="#9a32cd" stroke-dasharray="5,2" d="M2732.58,-234.719C2773.31,-230.506 2828.88,-225.427 2878,-223.265 2937.5,-220.645 2952.51,-220.499 3012,-223.265 3040.74,-224.601 3072.28,-227.272 3099.76,-229.994"/>
<polygon fill="#9a32cd" stroke="#9a32cd" points="2732.14,-231.246 2722.56,-235.769 2732.87,-238.207 2732.14,-231.246"/>
<text text-anchor="middle" x="2945" y="-227.265" font-family="Helvetica,sans-Serif" font-size="10.00"> m_write_reqs</text>
</g>
<!-- Node4&#45;&gt;Node3 -->
<g id="edge6" class="edge"><title>Node4&#45;&gt;Node3</title>
<path fill="none" stroke="orange" stroke-dasharray="5,2" d="M2732.99,-245.836C2775.65,-249.141 2833.35,-253.613 2877.79,-257.056"/>
<polygon fill="orange" stroke="orange" points="2733,-242.327 2722.76,-245.043 2732.46,-249.306 2733,-242.327"/>
<text text-anchor="start" x="2772" y="-272.265" font-family="Helvetica,sans-Serif" font-size="10.00"> &lt; sorted_runs_data</text>
<text text-anchor="middle" x="2816" y="-259.265" font-family="Helvetica,sans-Serif" font-size="10.00">_type &gt;</text>
</g>
<!-- Node5 -->
<g id="node9" class="node"><title>Node5</title>
<a xlink:href="classstxxl_1_1typed__block.html" target="_top" xlink:title="Block containing elements of fixed length. ">
<polygon fill="none" stroke="black" points="2882.5,-130.765 2882.5,-177.765 3007.5,-177.765 3007.5,-130.765 2882.5,-130.765"/>
<text text-anchor="start" x="2890.5" y="-164.765" font-family="Helvetica,sans-Serif" font-size="10.00">stxxl::typed_block</text>
<text text-anchor="start" x="2890.5" y="-151.765" font-family="Helvetica,sans-Serif" font-size="10.00">&lt; RawSize, Type, NRef,</text>
<text text-anchor="middle" x="2945" y="-138.765" font-family="Helvetica,sans-Serif" font-size="10.00"> MetaInfoType &gt;</text>
</a>
</g>
<!-- Node5&#45;&gt;Node1 -->
<g id="edge10" class="edge"><title>Node5&#45;&gt;Node1</title>
<path fill="none" stroke="#9a32cd" stroke-dasharray="5,2" d="M3017.6,-158.471C3038.89,-161.391 3061.85,-166.243 3082,-174.265 3102.28,-182.339 3122.38,-195.755 3138.52,-208.224"/>
<polygon fill="#9a32cd" stroke="#9a32cd" points="3017.99,-154.992 3007.63,-157.224 3017.12,-161.938 3017.99,-154.992"/>
<text text-anchor="middle" x="3056" y="-191.265" font-family="Helvetica,sans-Serif" font-size="10.00"> m_blocks1</text>
<text text-anchor="middle" x="3056" y="-178.265" font-family="Helvetica,sans-Serif" font-size="10.00">m_blocks2</text>
</g>
<!-- Node6 -->
<g id="node11" class="node"><title>Node6</title>
<a xlink:href="classstxxl_1_1mng__local_1_1expand__struct.html" target="_top" xlink:title="stxxl::mng_local::expand\l_struct\&lt; mng_local::block\l_w_info\&lt; Type, RawSize, NRef,\l MetaInfoType \&gt;, RawSize \&gt;">
<polygon fill="none" stroke="black" points="2594.5,-124.265 2594.5,-184.265 2753.5,-184.265 2753.5,-124.265 2594.5,-124.265"/>
<text text-anchor="start" x="2602.5" y="-171.265" font-family="Helvetica,sans-Serif" font-size="10.00">stxxl::mng_local::expand</text>
<text text-anchor="start" x="2602.5" y="-158.265" font-family="Helvetica,sans-Serif" font-size="10.00">_struct&lt; mng_local::block</text>
<text text-anchor="start" x="2602.5" y="-145.265" font-family="Helvetica,sans-Serif" font-size="10.00">_w_info&lt; Type, RawSize, NRef,</text>
<text text-anchor="middle" x="2674" y="-132.265" font-family="Helvetica,sans-Serif" font-size="10.00"> MetaInfoType &gt;, RawSize &gt;</text>
</a>
</g>
<!-- Node6&#45;&gt;Node5 -->
<g id="edge12" class="edge"><title>Node6&#45;&gt;Node5</title>
<path fill="none" stroke="midnightblue" d="M2764.1,-154.265C2802.92,-154.265 2847.36,-154.265 2882.48,-154.265"/>
<polygon fill="midnightblue" stroke="midnightblue" points="2763.84,-150.765 2753.84,-154.265 2763.84,-157.765 2763.84,-150.765"/>
</g>
<!-- Node7 -->
<g id="node13" class="node"><title>Node7</title>
<a xlink:href="classstxxl_1_1mng__local_1_1add__filler.html" target="_top" xlink:title="stxxl::mng_local::add\l_filler\&lt; mng_local::block\l_w_info\&lt; Type, RawSize,\l NRef, MetaInfoType \&gt;, RawSize\l&#45;sizeof(mng_local::block_w_info\l\&lt; Type, RawSize, NRef, MetaInfoType \&gt;)\&gt;">
<polygon fill="none" stroke="black" points="2238,-69.2647 2238,-155.265 2444,-155.265 2444,-69.2647 2238,-69.2647"/>
<text text-anchor="start" x="2246" y="-142.265" font-family="Helvetica,sans-Serif" font-size="10.00">stxxl::mng_local::add</text>
<text text-anchor="start" x="2246" y="-129.265" font-family="Helvetica,sans-Serif" font-size="10.00">_filler&lt; mng_local::block</text>
<text text-anchor="start" x="2246" y="-116.265" font-family="Helvetica,sans-Serif" font-size="10.00">_w_info&lt; Type, RawSize,</text>
<text text-anchor="start" x="2246" y="-103.265" font-family="Helvetica,sans-Serif" font-size="10.00"> NRef, MetaInfoType &gt;, RawSize</text>
<text text-anchor="start" x="2246" y="-90.2647" font-family="Helvetica,sans-Serif" font-size="10.00">&#45;sizeof(mng_local::block_w_info</text>
<text text-anchor="middle" x="2341" y="-77.2647" font-family="Helvetica,sans-Serif" font-size="10.00">&lt; Type, RawSize, NRef, MetaInfoType &gt;)&gt;</text>
</a>
</g>
<!-- Node7&#45;&gt;Node6 -->
<g id="edge14" class="edge"><title>Node7&#45;&gt;Node6</title>
<path fill="none" stroke="midnightblue" d="M2454.12,-126.533C2500.22,-132.347 2552.42,-138.93 2594.39,-144.223"/>
<polygon fill="midnightblue" stroke="midnightblue" points="2454.44,-123.045 2444.08,-125.266 2453.57,-129.99 2454.44,-123.045"/>
</g>
<!-- Node8 -->
<g id="node15" class="node"><title>Node8</title>
<a xlink:href="classstxxl_1_1mng__local_1_1block__w__info.html" target="_top" xlink:title="stxxl::mng_local::block\l_w_info\&lt; Type, RawSize,\l NRef, MetaInfoType \&gt;">
<polygon fill="none" stroke="black" points="2063,-13.7647 2063,-60.7647 2193,-60.7647 2193,-13.7647 2063,-13.7647"/>
<text text-anchor="start" x="2071" y="-47.7647" font-family="Helvetica,sans-Serif" font-size="10.00">stxxl::mng_local::block</text>
<text text-anchor="start" x="2071" y="-34.7647" font-family="Helvetica,sans-Serif" font-size="10.00">_w_info&lt; Type, RawSize,</text>
<text text-anchor="middle" x="2128" y="-21.7647" font-family="Helvetica,sans-Serif" font-size="10.00"> NRef, MetaInfoType &gt;</text>
</a>
</g>
<!-- Node8&#45;&gt;Node7 -->
<g id="edge16" class="edge"><title>Node8&#45;&gt;Node7</title>
<path fill="none" stroke="midnightblue" d="M2202.53,-63.5082C2213.97,-67.5357 2225.95,-71.754 2237.87,-75.9525"/>
<polygon fill="midnightblue" stroke="midnightblue" points="2203.66,-60.1947 2193.06,-60.1747 2201.33,-66.7974 2203.66,-60.1947"/>
</g>
<!-- Node9 -->
<g id="node17" class="node"><title>Node9</title>
<a xlink:href="classstxxl_1_1mng__local_1_1block__w__bids.html" target="_top" xlink:title="stxxl::mng_local::block\l_w_bids\&lt; Type,((RawSize\l&#45;sizeof(BID\&lt; RawSize \&gt;)*NBids\l&#45;sizeof(MetaInfoType))/sizeof\l(Type)), RawSize, NBids \&gt;">
<polygon fill="none" stroke="black" points="1552,-0.764735 1552,-73.7647 1710,-73.7647 1710,-0.764735 1552,-0.764735"/>
<text text-anchor="start" x="1560" y="-60.7647" font-family="Helvetica,sans-Serif" font-size="10.00">stxxl::mng_local::block</text>
<text text-anchor="start" x="1560" y="-47.7647" font-family="Helvetica,sans-Serif" font-size="10.00">_w_bids&lt; Type,((RawSize</text>
<text text-anchor="start" x="1560" y="-34.7647" font-family="Helvetica,sans-Serif" font-size="10.00">&#45;sizeof(BID&lt; RawSize &gt;)*NBids</text>
<text text-anchor="start" x="1560" y="-21.7647" font-family="Helvetica,sans-Serif" font-size="10.00">&#45;sizeof(MetaInfoType))/sizeof</text>
<text text-anchor="middle" x="1631" y="-8.76474" font-family="Helvetica,sans-Serif" font-size="10.00">(Type)), RawSize, NBids &gt;</text>
</a>
</g>
<!-- Node9&#45;&gt;Node8 -->
<g id="edge18" class="edge"><title>Node9&#45;&gt;Node8</title>
<path fill="none" stroke="midnightblue" d="M1719.92,-12.6323C1735.81,-9.15205 1752.31,-6.12808 1768,-4.26474 1870.83,7.94588 1990.66,-9.29263 2062.86,-23.091"/>
<polygon fill="midnightblue" stroke="midnightblue" points="1719.09,-9.23059 1710.11,-14.852 1720.64,-16.0579 1719.09,-9.23059"/>
</g>
<!-- Node19 -->
<g id="node42" class="node"><title>Node19</title>
<a xlink:href="classstxxl_1_1mng__local_1_1block__w__info.html" target="_top" xlink:title="Contains per block information for stxxl::typed_block , not intended for direct use. ">
<polygon fill="none" stroke="black" points="1773,-13.7647 1773,-60.7647 1903,-60.7647 1903,-13.7647 1773,-13.7647"/>
<text text-anchor="start" x="1781" y="-47.7647" font-family="Helvetica,sans-Serif" font-size="10.00">stxxl::mng_local::block</text>
<text text-anchor="start" x="1781" y="-34.7647" font-family="Helvetica,sans-Serif" font-size="10.00">_w_info&lt; Type, RawSize,</text>
<text text-anchor="middle" x="1838" y="-21.7647" font-family="Helvetica,sans-Serif" font-size="10.00"> NBids, MetaInfoType &gt;</text>
</a>
</g>
<!-- Node9&#45;&gt;Node19 -->
<g id="edge50" class="edge"><title>Node9&#45;&gt;Node19</title>
<path fill="none" stroke="midnightblue" d="M1720.41,-37.2647C1737.97,-37.2647 1756.09,-37.2647 1772.68,-37.2647"/>
<polygon fill="midnightblue" stroke="midnightblue" points="1720.14,-33.7648 1710.14,-37.2647 1720.14,-40.7648 1720.14,-33.7648"/>
</g>
<!-- Node10 -->
<g id="node19" class="node"><title>Node10</title>
<a xlink:href="classstxxl_1_1mng__local_1_1element__block.html" target="_top" xlink:title="Contains data elements for stxxl::typed_block , not intended for direct use. ">
<polygon fill="none" stroke="black" points="1066,-30.2647 1066,-64.2647 1194,-64.2647 1194,-30.2647 1066,-30.2647"/>
<text text-anchor="start" x="1074" y="-51.2647" font-family="Helvetica,sans-Serif" font-size="10.00">stxxl::mng_local::element</text>
<text text-anchor="middle" x="1130" y="-38.2647" font-family="Helvetica,sans-Serif" font-size="10.00">_block&lt; Type, Size &gt;</text>
</a>
</g>
<!-- Node10&#45;&gt;Node9 -->
<g id="edge20" class="edge"><title>Node10&#45;&gt;Node9</title>
<path fill="none" stroke="midnightblue" d="M1204.41,-45.7795C1297.58,-43.9199 1456.5,-40.7478 1551.84,-38.8448"/>
<polygon fill="midnightblue" stroke="midnightblue" points="1204.14,-42.284 1194.22,-45.983 1204.28,-49.2826 1204.14,-42.284"/>
</g>
<!-- Node18 -->
<g id="node38" class="node"><title>Node18</title>
<a xlink:href="classstxxl_1_1mng__local_1_1block__w__bids.html" target="_top" xlink:title="Contains BID references for stxxl::typed_block , not intended for direct use. ">
<polygon fill="none" stroke="black" points="1246,-59.7647 1246,-106.765 1404,-106.765 1404,-59.7647 1246,-59.7647"/>
<text text-anchor="start" x="1254" y="-93.7647" font-family="Helvetica,sans-Serif" font-size="10.00">stxxl::mng_local::block</text>
<text text-anchor="start" x="1254" y="-80.7647" font-family="Helvetica,sans-Serif" font-size="10.00">_w_bids&lt; Type, Size, RawSize,</text>
<text text-anchor="middle" x="1325" y="-67.7647" font-family="Helvetica,sans-Serif" font-size="10.00"> NBids &gt;</text>
</a>
</g>
<!-- Node10&#45;&gt;Node18 -->
<g id="edge44" class="edge"><title>Node10&#45;&gt;Node18</title>
<path fill="none" stroke="midnightblue" d="M1203.96,-60.9192C1217.66,-63.4482 1232.02,-66.0988 1245.86,-68.6549"/>
<polygon fill="midnightblue" stroke="midnightblue" points="1204.59,-57.4761 1194.12,-59.1023 1203.32,-64.3597 1204.59,-57.4761"/>
</g>
<!-- Node11 -->
<g id="node21" class="node"><title>Node11</title>
<a xlink:href="structstxxl_1_1BID.html" target="_top" xlink:title="stxxl::BID\&lt; raw_size \&gt;">
<polygon fill="none" stroke="black" points="1071,-133.765 1071,-154.765 1189,-154.765 1189,-133.765 1071,-133.765"/>
<text text-anchor="middle" x="1130" y="-141.765" font-family="Helvetica,sans-Serif" font-size="10.00">stxxl::BID&lt; raw_size &gt;</text>
</a>
</g>
<!-- Node11&#45;&gt;Node9 -->
<g id="edge22" class="edge"><title>Node11&#45;&gt;Node9</title>
<path fill="none" stroke="#9a32cd" stroke-dasharray="5,2" d="M1199.29,-147.751C1298.53,-151.752 1475.61,-154.915 1534,-130.265 1561.94,-118.468 1586.52,-94.6703 1603.94,-74.1019"/>
<polygon fill="#9a32cd" stroke="#9a32cd" points="1199.19,-144.244 1189.05,-147.324 1198.9,-151.238 1199.19,-144.244"/>
<text text-anchor="middle" x="1325" y="-155.265" font-family="Helvetica,sans-Serif" font-size="10.00"> ref</text>
</g>
<!-- Node11&#45;&gt;Node18 -->
<g id="edge46" class="edge"><title>Node11&#45;&gt;Node18</title>
<path fill="none" stroke="#9a32cd" stroke-dasharray="5,2" d="M1171.13,-130.492C1184.18,-126.185 1198.67,-121.463 1212,-117.265 1222.94,-113.818 1234.5,-110.252 1245.89,-106.784"/>
<polygon fill="#9a32cd" stroke="#9a32cd" points="1169.87,-127.222 1161.48,-133.689 1172.07,-133.866 1169.87,-127.222"/>
<text text-anchor="middle" x="1220" y="-121.265" font-family="Helvetica,sans-Serif" font-size="10.00"> ref</text>
</g>
<!-- Node12&#45;&gt;Node11 -->
<g id="edge24" class="edge"><title>Node12&#45;&gt;Node11</title>
<path fill="none" stroke="#9a32cd" stroke-dasharray="5,2" d="M808.236,-188.319C861.972,-183.912 962.805,-174.66 1048,-161.265 1059.35,-159.481 1071.5,-157.179 1082.88,-154.849"/>
<polygon fill="#9a32cd" stroke="#9a32cd" points="807.82,-184.841 798.135,-189.136 808.384,-191.819 807.82,-184.841"/>
<text text-anchor="middle" x="919" y="-187.265" font-family="Helvetica,sans-Serif" font-size="10.00"> storage</text>
</g>
<!-- Node17 -->
<g id="node35" class="node"><title>Node17</title>
<a xlink:href="structstxxl_1_1BID.html" target="_top" xlink:title="Block identifier class. ">
<polygon fill="none" stroke="black" points="870,-133.765 870,-154.765 968,-154.765 968,-133.765 870,-133.765"/>
<text text-anchor="middle" x="919" y="-141.765" font-family="Helvetica,sans-Serif" font-size="10.00">stxxl::BID&lt; Size &gt;</text>
</a>
</g>
<!-- Node12&#45;&gt;Node17 -->
<g id="edge40" class="edge"><title>Node12&#45;&gt;Node17</title>
<path fill="none" stroke="#9a32cd" stroke-dasharray="5,2" d="M793.909,-175.171C800.804,-171.108 808.496,-167.1 816,-164.265 833.04,-157.826 852.484,-153.366 869.854,-150.321"/>
<polygon fill="#9a32cd" stroke="#9a32cd" points="791.748,-172.393 785.095,-180.639 795.438,-178.341 791.748,-172.393"/>
<text text-anchor="middle" x="834" y="-168.265" font-family="Helvetica,sans-Serif" font-size="10.00"> storage</text>
</g>
<!-- Node13 -->
<g id="node26" class="node"><title>Node13</title>
<a xlink:href="classstxxl_1_1atomic__counted__object.html" target="_top" xlink:title="Provides reference counting abilities for use with counting_ptr with mutex locking. ">
<polygon fill="none" stroke="black" points="526.5,-174.265 526.5,-208.265 639.5,-208.265 639.5,-174.265 526.5,-174.265"/>
<text text-anchor="start" x="534.5" y="-195.265" font-family="Helvetica,sans-Serif" font-size="10.00">stxxl::atomic_counted</text>
<text text-anchor="middle" x="583" y="-182.265" font-family="Helvetica,sans-Serif" font-size="10.00">_object</text>
</a>
</g>
<!-- Node13&#45;&gt;Node12 -->
<g id="edge28" class="edge"><title>Node13&#45;&gt;Node12</title>
<path fill="none" stroke="#9a32cd" stroke-dasharray="5,2" d="M649.733,-191.265C681.451,-191.265 717.657,-191.265 741.984,-191.265"/>
<polygon fill="#9a32cd" stroke="#9a32cd" points="649.614,-187.765 639.614,-191.265 649.614,-194.765 649.614,-187.765"/>
<text text-anchor="middle" x="691" y="-195.265" font-family="Helvetica,sans-Serif" font-size="10.00"> m_request_ref</text>
</g>
<!-- Node14&#45;&gt;Node13 -->
<g id="edge30" class="edge"><title>Node14&#45;&gt;Node13</title>
<path fill="none" stroke="#9a32cd" stroke-dasharray="5,2" d="M355.875,-210.4C402.83,-206.444 475.885,-200.289 526.403,-196.033"/>
<polygon fill="#9a32cd" stroke="#9a32cd" points="355.361,-206.931 345.69,-211.258 355.949,-213.906 355.361,-206.931"/>
<text text-anchor="middle" x="448" y="-212.265" font-family="Helvetica,sans-Serif" font-size="10.00"> m_reference_count_mutex</text>
</g>
<!-- Node15 -->
<g id="node31" class="node"><title>Node15</title>
<a xlink:href="structstxxl_1_1choose__int__types.html" target="_top" xlink:title="stxxl::choose_int_types\l\&lt; my_pointer_size \&gt;">
<polygon fill="none" stroke="black" points="250,-151.265 250,-185.265 370,-185.265 370,-151.265 250,-151.265"/>
<text text-anchor="start" x="258" y="-172.265" font-family="Helvetica,sans-Serif" font-size="10.00">stxxl::choose_int_types</text>
<text text-anchor="middle" x="310" y="-159.265" font-family="Helvetica,sans-Serif" font-size="10.00">&lt; my_pointer_size &gt;</text>
</a>
</g>
<!-- Node15&#45;&gt;Node13 -->
<g id="edge34" class="edge"><title>Node15&#45;&gt;Node13</title>
<path fill="none" stroke="#9a32cd" stroke-dasharray="5,2" d="M380.71,-171.755C418.525,-173.913 465.856,-177.076 508,-181.265 513.882,-181.849 520.014,-182.537 526.126,-183.274"/>
<polygon fill="#9a32cd" stroke="#9a32cd" points="380.488,-168.238 370.308,-171.174 380.097,-175.227 380.488,-168.238"/>
<text text-anchor="middle" x="448" y="-185.265" font-family="Helvetica,sans-Serif" font-size="10.00"> m_reference_count</text>
</g>
<!-- Node16 -->
<g id="node33" class="node"><title>Node16</title>
<a xlink:href="structstxxl_1_1choose__int__types.html" target="_top" xlink:title="stxxl::choose_int_types\l\&lt; PtrSize \&gt;">
<polygon fill="none" stroke="black" points="0,-151.265 0,-185.265 120,-185.265 120,-151.265 0,-151.265"/>
<text text-anchor="start" x="8" y="-172.265" font-family="Helvetica,sans-Serif" font-size="10.00">stxxl::choose_int_types</text>
<text text-anchor="middle" x="60" y="-159.265" font-family="Helvetica,sans-Serif" font-size="10.00">&lt; PtrSize &gt;</text>
</a>
</g>
<!-- Node16&#45;&gt;Node15 -->
<g id="edge36" class="edge"><title>Node16&#45;&gt;Node15</title>
<path fill="none" stroke="orange" stroke-dasharray="5,2" d="M130.578,-168.265C168.196,-168.265 213.985,-168.265 249.89,-168.265"/>
<polygon fill="orange" stroke="orange" points="130.199,-164.765 120.199,-168.265 130.199,-171.765 130.199,-164.765"/>
<text text-anchor="middle" x="185" y="-172.265" font-family="Helvetica,sans-Serif" font-size="10.00"> &lt; my_pointer_size &gt;</text>
</g>
<!-- Node17&#45;&gt;Node11 -->
<g id="edge38" class="edge"><title>Node17&#45;&gt;Node11</title>
<path fill="none" stroke="orange" stroke-dasharray="5,2" d="M978.574,-144.265C1007.48,-144.265 1042.11,-144.265 1070.95,-144.265"/>
<polygon fill="orange" stroke="orange" points="978.204,-140.765 968.204,-144.265 978.204,-147.765 978.204,-140.765"/>
<text text-anchor="middle" x="1017" y="-148.265" font-family="Helvetica,sans-Serif" font-size="10.00"> &lt; raw_size &gt;</text>
</g>
<!-- Node18&#45;&gt;Node9 -->
<g id="edge42" class="edge"><title>Node18&#45;&gt;Node9</title>
<path fill="none" stroke="orange" stroke-dasharray="5,2" d="M1413.97,-66.5744C1416.67,-66.1246 1419.36,-65.6869 1422,-65.2647 1464.84,-58.4248 1512.8,-51.9177 1551.96,-46.9008"/>
<polygon fill="orange" stroke="orange" points="1413.36,-63.1274 1404.08,-68.2498 1414.53,-70.0289 1413.36,-63.1274"/>
<text text-anchor="start" x="1422" y="-121.265" font-family="Helvetica,sans-Serif" font-size="10.00"> &lt; Type,((RawSize&#45;sizeof</text>
<text text-anchor="start" x="1422" y="-108.265" font-family="Helvetica,sans-Serif" font-size="10.00">(BID&lt; RawSize &gt;)*NBids</text>
<text text-anchor="start" x="1422" y="-95.2647" font-family="Helvetica,sans-Serif" font-size="10.00">&#45;sizeof(MetaInfoType))</text>
<text text-anchor="start" x="1422" y="-82.2647" font-family="Helvetica,sans-Serif" font-size="10.00">/sizeof(Type)), RawSize,</text>
<text text-anchor="middle" x="1478" y="-69.2647" font-family="Helvetica,sans-Serif" font-size="10.00"> NBids &gt;</text>
</g>
<!-- Node19&#45;&gt;Node8 -->
<g id="edge48" class="edge"><title>Node19&#45;&gt;Node8</title>
<path fill="none" stroke="orange" stroke-dasharray="5,2" d="M1913.08,-37.2647C1959.49,-37.2647 2018.46,-37.2647 2062.89,-37.2647"/>
<polygon fill="orange" stroke="orange" points="1913.08,-33.7648 1903.08,-37.2647 1913.08,-40.7648 1913.08,-33.7648"/>
<text text-anchor="start" x="1926" y="-54.2647" font-family="Helvetica,sans-Serif" font-size="10.00"> &lt; Type, RawSize, NRef,</text>
<text text-anchor="middle" x="1982" y="-41.2647" font-family="Helvetica,sans-Serif" font-size="10.00"> MetaInfoType &gt;</text>
</g>
<!-- Node20 -->
<g id="node45" class="node"><title>Node20</title>
<a xlink:href="classstxxl_1_1mng__local_1_1filler__struct.html" target="_top" xlink:title="stxxl::mng_local::filler\l_struct\&lt; FillSize \&gt;">
<polygon fill="none" stroke="black" points="1575,-179.265 1575,-213.265 1687,-213.265 1687,-179.265 1575,-179.265"/>
<text text-anchor="start" x="1583" y="-200.265" font-family="Helvetica,sans-Serif" font-size="10.00">stxxl::mng_local::filler</text>
<text text-anchor="middle" x="1631" y="-187.265" font-family="Helvetica,sans-Serif" font-size="10.00">_struct&lt; FillSize &gt;</text>
</a>
</g>
<!-- Node20&#45;&gt;Node7 -->
<g id="edge52" class="edge"><title>Node20&#45;&gt;Node7</title>
<path fill="none" stroke="#9a32cd" stroke-dasharray="5,2" d="M1697.12,-178.907C1756.59,-163.967 1846.55,-143.014 1926,-131.265 1983.32,-122.787 1998.14,-124.402 2056,-121.265 2116.18,-118.001 2183.58,-115.806 2237.72,-114.402"/>
<polygon fill="#9a32cd" stroke="#9a32cd" points="1695.96,-175.592 1687.12,-181.437 1697.67,-182.379 1695.96,-175.592"/>
<text text-anchor="middle" x="1982" y="-135.265" font-family="Helvetica,sans-Serif" font-size="10.00"> filler</text>
</g>
<!-- Node22 -->
<g id="node49" class="node"><title>Node22</title>
<a xlink:href="classstxxl_1_1mng__local_1_1add__filler.html" target="_top" xlink:title="Contains per block filler for stxxl::typed_block , not intended for direct use. ">
<polygon fill="none" stroke="black" points="1768,-179.265 1768,-213.265 1908,-213.265 1908,-179.265 1768,-179.265"/>
<text text-anchor="start" x="1776" y="-200.265" font-family="Helvetica,sans-Serif" font-size="10.00">stxxl::mng_local::add</text>
<text text-anchor="middle" x="1838" y="-187.265" font-family="Helvetica,sans-Serif" font-size="10.00">_filler&lt; BaseType, FillSize &gt;</text>
</a>
</g>
<!-- Node20&#45;&gt;Node22 -->
<g id="edge58" class="edge"><title>Node20&#45;&gt;Node22</title>
<path fill="none" stroke="#9a32cd" stroke-dasharray="5,2" d="M1697.17,-196.265C1719.72,-196.265 1745.01,-196.265 1767.87,-196.265"/>
<polygon fill="#9a32cd" stroke="#9a32cd" points="1697.02,-192.765 1687.02,-196.265 1697.02,-199.765 1697.02,-192.765"/>
<text text-anchor="middle" x="1739" y="-200.265" font-family="Helvetica,sans-Serif" font-size="10.00"> filler</text>
</g>
<!-- Node24 -->
<g id="node54" class="node"><title>Node24</title>
<a xlink:href="classstxxl_1_1mng__local_1_1add__filler.html" target="_top" xlink:title="stxxl::mng_local::add\l_filler\&lt; Type, RawSize\l&#45;sizeof(Type)\&gt;">
<polygon fill="none" stroke="black" points="2070,-231.765 2070,-278.765 2186,-278.765 2186,-231.765 2070,-231.765"/>
<text text-anchor="start" x="2078" y="-265.765" font-family="Helvetica,sans-Serif" font-size="10.00">stxxl::mng_local::add</text>
<text text-anchor="start" x="2078" y="-252.765" font-family="Helvetica,sans-Serif" font-size="10.00">_filler&lt; Type, RawSize</text>
<text text-anchor="middle" x="2128" y="-239.765" font-family="Helvetica,sans-Serif" font-size="10.00">&#45;sizeof(Type)&gt;</text>
</a>
</g>
<!-- Node20&#45;&gt;Node24 -->
<g id="edge64" class="edge"><title>Node20&#45;&gt;Node24</title>
<path fill="none" stroke="#9a32cd" stroke-dasharray="5,2" d="M1697.21,-210.115C1719.61,-214.458 1744.82,-218.973 1768,-222.265 1873.95,-237.314 1998.46,-246.955 2069.81,-251.717"/>
<polygon fill="#9a32cd" stroke="#9a32cd" points="1697.61,-206.628 1687.13,-208.136 1696.27,-213.497 1697.61,-206.628"/>
<text text-anchor="middle" x="1838" y="-242.265" font-family="Helvetica,sans-Serif" font-size="10.00"> filler</text>
</g>
<!-- Node21 -->
<g id="node47" class="node"><title>Node21</title>
<a xlink:href="classstxxl_1_1mng__local_1_1filler__struct.html" target="_top" xlink:title="stxxl::mng_local::filler\l_struct\&lt; Bytes \&gt;">
<polygon fill="none" stroke="black" points="1269,-179.265 1269,-213.265 1381,-213.265 1381,-179.265 1269,-179.265"/>
<text text-anchor="start" x="1277" y="-200.265" font-family="Helvetica,sans-Serif" font-size="10.00">stxxl::mng_local::filler</text>
<text text-anchor="middle" x="1325" y="-187.265" font-family="Helvetica,sans-Serif" font-size="10.00">_struct&lt; Bytes &gt;</text>
</a>
</g>
<!-- Node21&#45;&gt;Node20 -->
<g id="edge54" class="edge"><title>Node21&#45;&gt;Node20</title>
<path fill="none" stroke="orange" stroke-dasharray="5,2" d="M1391.44,-196.265C1446.27,-196.265 1523.22,-196.265 1574.97,-196.265"/>
<polygon fill="orange" stroke="orange" points="1391.13,-192.765 1381.13,-196.265 1391.13,-199.765 1391.13,-192.765"/>
<text text-anchor="middle" x="1478" y="-200.265" font-family="Helvetica,sans-Serif" font-size="10.00"> &lt; FillSize &gt;</text>
</g>
<!-- Node22&#45;&gt;Node7 -->
<g id="edge56" class="edge"><title>Node22&#45;&gt;Node7</title>
<path fill="none" stroke="orange" stroke-dasharray="5,2" d="M1910.44,-176.632C1952.65,-165.788 2007.03,-152.821 2056,-144.265 2115.84,-133.809 2183.37,-126.052 2237.67,-120.795"/>
<polygon fill="orange" stroke="orange" points="1909.34,-173.302 1900.54,-179.196 1911.1,-180.079 1909.34,-173.302"/>
<text text-anchor="start" x="2056.5" y="-213.265" font-family="Helvetica,sans-Serif" font-size="10.00"> &lt; mng_local::block</text>
<text text-anchor="start" x="2056.5" y="-200.265" font-family="Helvetica,sans-Serif" font-size="10.00">_w_info&lt; Type, RawSize,</text>
<text text-anchor="start" x="2056.5" y="-187.265" font-family="Helvetica,sans-Serif" font-size="10.00"> NRef, MetaInfoType &gt;,</text>
<text text-anchor="start" x="2056.5" y="-174.265" font-family="Helvetica,sans-Serif" font-size="10.00"> RawSize&#45;sizeof(mng_local</text>
<text text-anchor="start" x="2056.5" y="-161.265" font-family="Helvetica,sans-Serif" font-size="10.00">::block_w_info&lt; Type, RawSize,</text>
<text text-anchor="middle" x="2128" y="-148.265" font-family="Helvetica,sans-Serif" font-size="10.00"> NRef, MetaInfoType &gt;)&gt;</text>
</g>
<!-- Node22&#45;&gt;Node24 -->
<g id="edge66" class="edge"><title>Node22&#45;&gt;Node24</title>
<path fill="none" stroke="orange" stroke-dasharray="5,2" d="M1918.29,-195.376C1955.29,-196.714 1999.45,-200.811 2038,-211.265 2047.4,-213.814 2065.8,-222.554 2083.53,-231.581"/>
<polygon fill="orange" stroke="orange" points="1918.15,-191.871 1908.05,-195.069 1917.94,-198.867 1918.15,-191.871"/>
<text text-anchor="start" x="1927.5" y="-228.265" font-family="Helvetica,sans-Serif" font-size="10.00"> &lt; Type, RawSize&#45;sizeof</text>
<text text-anchor="middle" x="1982" y="-215.265" font-family="Helvetica,sans-Serif" font-size="10.00">(Type)&gt;</text>
</g>
<!-- Node23 -->
<g id="node52" class="node"><title>Node23</title>
<a xlink:href="classstxxl_1_1mng__local_1_1expand__struct.html" target="_top" xlink:title="Helper to compute the size of the filler , not intended for direct use. ">
<polygon fill="none" stroke="black" points="2275,-209.265 2275,-243.265 2407,-243.265 2407,-209.265 2275,-209.265"/>
<text text-anchor="start" x="2283" y="-230.265" font-family="Helvetica,sans-Serif" font-size="10.00">stxxl::mng_local::expand</text>
<text text-anchor="middle" x="2341" y="-217.265" font-family="Helvetica,sans-Serif" font-size="10.00">_struct&lt; Type, RawSize &gt;</text>
</a>
</g>
<!-- Node23&#45;&gt;Node6 -->
<g id="edge60" class="edge"><title>Node23&#45;&gt;Node6</title>
<path fill="none" stroke="orange" stroke-dasharray="5,2" d="M2417.21,-209.787C2470.21,-198.327 2540.72,-183.082 2594.44,-171.467"/>
<polygon fill="orange" stroke="orange" points="2416.22,-206.419 2407.19,-211.954 2417.7,-213.261 2416.22,-206.419"/>
<text text-anchor="start" x="2462" y="-242.265" font-family="Helvetica,sans-Serif" font-size="10.00"> &lt; mng_local::block</text>
<text text-anchor="start" x="2462" y="-229.265" font-family="Helvetica,sans-Serif" font-size="10.00">_w_info&lt; Type, RawSize,</text>
<text text-anchor="start" x="2462" y="-216.265" font-family="Helvetica,sans-Serif" font-size="10.00"> NRef, MetaInfoType &gt;,</text>
<text text-anchor="middle" x="2519" y="-203.265" font-family="Helvetica,sans-Serif" font-size="10.00"> RawSize &gt;</text>
</g>
<!-- Node24&#45;&gt;Node23 -->
<g id="edge62" class="edge"><title>Node24&#45;&gt;Node23</title>
<path fill="none" stroke="midnightblue" d="M2196.4,-245.952C2221.57,-242.525 2250.02,-238.652 2274.97,-235.254"/>
<polygon fill="midnightblue" stroke="midnightblue" points="2195.64,-242.523 2186.2,-247.34 2196.58,-249.459 2195.64,-242.523"/>
</g>
</g>
</svg>
