<?xml version="1.0" encoding="UTF-8" standalone="no"?>
<!DOCTYPE svg PUBLIC "-//W3C//DTD SVG 1.1//EN"
 "http://www.w3.org/Graphics/SVG/1.1/DTD/svg11.dtd">
<!-- Generated by graphviz version 2.26.3 (20100126.1600)
 -->
<!-- Title: stxxl::sequence&lt; ValueType, BlockSize, AllocStr, SizeType &gt; Pages: 1 -->
<svg width="3572pt" height="562pt"
 viewBox="0.00 0.00 3572.00 562.00" xmlns="http://www.w3.org/2000/svg" xmlns:xlink="http://www.w3.org/1999/xlink">
<g id="graph1" class="graph" transform="scale(1 1) rotate(0) translate(4 558)">
<title>stxxl::sequence&lt; ValueType, BlockSize, AllocStr, SizeType &gt;</title>
<!-- Node1 -->
<g id="node1" class="node"><title>Node1</title>
<polygon fill="#bfbfbf" stroke="black" points="3402.5,-190 3402.5,-224 3563.5,-224 3563.5,-190 3402.5,-190"/>
<text text-anchor="start" x="3410.5" y="-211" font-family="Helvetica,sans-Serif" font-size="10.00">stxxl::sequence&lt; ValueType,</text>
<text text-anchor="middle" x="3483" y="-198" font-family="Helvetica,sans-Serif" font-size="10.00"> BlockSize, AllocStr, SizeType &gt;</text>
</g>
<!-- Node2 -->
<g id="node2" class="node"><title>Node2</title>
<a xlink:href="classstxxl_1_1noncopyable.html" target="_top" xlink:title="stxxl::noncopyable">
<polygon fill="none" stroke="black" points="307,-341.5 307,-362.5 405,-362.5 405,-341.5 307,-341.5"/>
<text text-anchor="middle" x="356" y="-349.5" font-family="Helvetica,sans-Serif" font-size="10.00">stxxl::noncopyable</text>
</a>
</g>
<!-- Node2&#45;&gt;Node1 -->
<g id="edge2" class="edge"><title>Node2&#45;&gt;Node1</title>
<path fill="none" stroke="#8b1a1a" d="M362.883,-372.066C373.735,-400.952 397.425,-454.259 434,-486 495.147,-539.067 522.037,-554 603,-554 603,-554 603,-554 3237,-554 3400.57,-554 3465.25,-294.225 3479.71,-224.208"/>
<polygon fill="#8b1a1a" stroke="#8b1a1a" points="366.158,-370.828 359.466,-362.614 359.575,-373.209 366.158,-370.828"/>
</g>
<!-- Node4 -->
<g id="node6" class="node"><title>Node4</title>
<a xlink:href="classstxxl_1_1singleton.html" target="_top" xlink:title="stxxl::singleton\&lt; block\l_manager \&gt;">
<polygon fill="none" stroke="black" points="832.5,-485 832.5,-519 947.5,-519 947.5,-485 832.5,-485"/>
<text text-anchor="start" x="840.5" y="-506" font-family="Helvetica,sans-Serif" font-size="10.00">stxxl::singleton&lt; block</text>
<text text-anchor="middle" x="890" y="-493" font-family="Helvetica,sans-Serif" font-size="10.00">_manager &gt;</text>
</a>
</g>
<!-- Node2&#45;&gt;Node4 -->
<g id="edge8" class="edge"><title>Node2&#45;&gt;Node4</title>
<path fill="none" stroke="#8b1a1a" d="M366.107,-371.447C378.95,-394.34 403.198,-432.017 434,-454 554.033,-539.665 739.128,-526.485 832.269,-512.657"/>
<polygon fill="#8b1a1a" stroke="#8b1a1a" points="369.165,-369.745 361.315,-362.63 363.015,-373.087 369.165,-369.745"/>
</g>
<!-- Node5 -->
<g id="node9" class="node"><title>Node5</title>
<a xlink:href="classstxxl_1_1singleton.html" target="_top" xlink:title="stxxl::singleton\&lt; INSTANCE,\l destroy_on_exit \&gt;">
<polygon fill="none" stroke="black" points="530,-443 530,-477 676,-477 676,-443 530,-443"/>
<text text-anchor="start" x="538" y="-464" font-family="Helvetica,sans-Serif" font-size="10.00">stxxl::singleton&lt; INSTANCE,</text>
<text text-anchor="middle" x="603" y="-451" font-family="Helvetica,sans-Serif" font-size="10.00"> destroy_on_exit &gt;</text>
</a>
</g>
<!-- Node2&#45;&gt;Node5 -->
<g id="edge12" class="edge"><title>Node2&#45;&gt;Node5</title>
<path fill="none" stroke="#8b1a1a" d="M369.556,-370.773C383.581,-388.711 407.169,-415.025 434,-429 463.234,-444.226 498.718,-452.084 529.61,-456.097"/>
<polygon fill="#8b1a1a" stroke="#8b1a1a" points="372.293,-368.59 363.467,-362.731 366.713,-372.816 372.293,-368.59"/>
</g>
<!-- Node6 -->
<g id="node12" class="node"><title>Node6</title>
<a xlink:href="classstxxl_1_1file.html" target="_top" xlink:title="Defines interface of file. ">
<polygon fill="none" stroke="black" points="1082,-390.5 1082,-411.5 1138,-411.5 1138,-390.5 1082,-390.5"/>
<text text-anchor="middle" x="1110" y="-398.5" font-family="Helvetica,sans-Serif" font-size="10.00">stxxl::file</text>
</a>
</g>
<!-- Node2&#45;&gt;Node6 -->
<g id="edge16" class="edge"><title>Node2&#45;&gt;Node6</title>
<path fill="none" stroke="#8b1a1a" d="M397.11,-365.565C432.012,-376.254 483.666,-390.137 530,-395 741.065,-417.153 997.697,-406.898 1081.83,-402.58"/>
<polygon fill="#8b1a1a" stroke="#8b1a1a" points="397.874,-362.137 387.285,-362.505 395.792,-368.821 397.874,-362.137"/>
</g>
<!-- Node8 -->
<g id="node17" class="node"><title>Node8</title>
<a xlink:href="classstxxl_1_1mutex.html" target="_top" xlink:title="stxxl::mutex">
<polygon fill="none" stroke="black" points="567.5,-364.5 567.5,-385.5 638.5,-385.5 638.5,-364.5 567.5,-364.5"/>
<text text-anchor="middle" x="603" y="-372.5" font-family="Helvetica,sans-Serif" font-size="10.00">stxxl::mutex</text>
</a>
</g>
<!-- Node2&#45;&gt;Node8 -->
<g id="edge22" class="edge"><title>Node2&#45;&gt;Node8</title>
<path fill="none" stroke="#8b1a1a" d="M415.22,-357.514C462.58,-361.924 527.424,-367.963 567.198,-371.666"/>
<polygon fill="#8b1a1a" stroke="#8b1a1a" points="415.376,-354.014 405.095,-356.572 414.727,-360.984 415.376,-354.014"/>
</g>
<!-- Node11 -->
<g id="node24" class="node"><title>Node11</title>
<a xlink:href="classstxxl_1_1disk__allocator.html" target="_top" xlink:title="stxxl::disk_allocator">
<polygon fill="none" stroke="black" points="1238,-314.5 1238,-335.5 1342,-335.5 1342,-314.5 1238,-314.5"/>
<text text-anchor="middle" x="1290" y="-322.5" font-family="Helvetica,sans-Serif" font-size="10.00">stxxl::disk_allocator</text>
</a>
</g>
<!-- Node2&#45;&gt;Node11 -->
<g id="edge30" class="edge"><title>Node2&#45;&gt;Node11</title>
<path fill="none" stroke="#8b1a1a" d="M415.165,-348.909C535.45,-342.766 817.199,-329.088 1054,-323 1127.76,-321.104 1146.25,-318.894 1220,-321 1225.72,-321.163 1231.7,-321.401 1237.65,-321.681"/>
<polygon fill="#8b1a1a" stroke="#8b1a1a" points="414.872,-345.42 405.064,-349.427 415.23,-352.411 414.872,-345.42"/>
</g>
<!-- Node27 -->
<g id="node68" class="node"><title>Node27</title>
<a xlink:href="classstxxl_1_1read__write__pool.html" target="_top" xlink:title="stxxl::read_write_pool\l\&lt; block_type \&gt;">
<polygon fill="none" stroke="black" points="1054,-144 1054,-178 1166,-178 1166,-144 1054,-144"/>
<text text-anchor="start" x="1062" y="-165" font-family="Helvetica,sans-Serif" font-size="10.00">stxxl::read_write_pool</text>
<text text-anchor="middle" x="1110" y="-152" font-family="Helvetica,sans-Serif" font-size="10.00">&lt; block_type &gt;</text>
</a>
</g>
<!-- Node2&#45;&gt;Node27 -->
<g id="edge86" class="edge"><title>Node2&#45;&gt;Node27</title>
<path fill="none" stroke="#8b1a1a" d="M380.372,-335.841C412.957,-315.125 473.216,-279.873 530,-263 709.066,-209.791 764.403,-253.466 948,-219 987.844,-211.52 997.897,-208.843 1036,-195 1049.29,-190.172 1063.49,-183.928 1075.86,-178.111"/>
<polygon fill="#8b1a1a" stroke="#8b1a1a" points="378.453,-332.913 371.941,-341.271 382.244,-338.799 378.453,-332.913"/>
</g>
<!-- Node28 -->
<g id="node71" class="node"><title>Node28</title>
<a xlink:href="classstxxl_1_1prefetch__pool.html" target="_top" xlink:title="Implements dynamically resizable prefetching pool. ">
<polygon fill="none" stroke="black" points="552,-81 552,-115 654,-115 654,-81 552,-81"/>
<text text-anchor="start" x="560" y="-102" font-family="Helvetica,sans-Serif" font-size="10.00">stxxl::prefetch_pool</text>
<text text-anchor="middle" x="603" y="-89" font-family="Helvetica,sans-Serif" font-size="10.00">&lt; BlockType &gt;</text>
</a>
</g>
<!-- Node2&#45;&gt;Node28 -->
<g id="edge90" class="edge"><title>Node2&#45;&gt;Node28</title>
<path fill="none" stroke="#8b1a1a" d="M357.698,-330.898C362.231,-288.929 378.375,-194.677 434,-144 451.252,-128.283 508.576,-114.875 551.714,-106.659"/>
<polygon fill="#8b1a1a" stroke="#8b1a1a" points="354.196,-330.76 356.723,-341.049 361.163,-331.429 354.196,-330.76"/>
</g>
<!-- Node31 -->
<g id="node79" class="node"><title>Node31</title>
<a xlink:href="classstxxl_1_1write__pool.html" target="_top" xlink:title="Implements dynamically resizable buffered writing pool. ">
<polygon fill="none" stroke="black" points="556,-187 556,-221 650,-221 650,-187 556,-187"/>
<text text-anchor="start" x="564" y="-208" font-family="Helvetica,sans-Serif" font-size="10.00">stxxl::write_pool&lt;</text>
<text text-anchor="middle" x="603" y="-195" font-family="Helvetica,sans-Serif" font-size="10.00"> BlockType &gt;</text>
</a>
</g>
<!-- Node2&#45;&gt;Node31 -->
<g id="edge100" class="edge"><title>Node2&#45;&gt;Node31</title>
<path fill="none" stroke="#8b1a1a" d="M363.637,-331.638C374.787,-304.896 398.175,-258.579 434,-235 470.254,-211.138 519.89,-204.386 555.985,-203.004"/>
<polygon fill="#8b1a1a" stroke="#8b1a1a" points="360.295,-330.569 359.843,-341.154 366.798,-333.161 360.295,-330.569"/>
</g>
<!-- Node32 -->
<g id="node82" class="node"><title>Node32</title>
<a xlink:href="classstxxl_1_1read__write__pool.html" target="_top" xlink:title="Implements dynamically resizable buffered writing and prefetched reading pool. ">
<polygon fill="none" stroke="black" points="834,-138 834,-172 946,-172 946,-138 834,-138"/>
<text text-anchor="start" x="842" y="-159" font-family="Helvetica,sans-Serif" font-size="10.00">stxxl::read_write_pool</text>
<text text-anchor="middle" x="890" y="-146" font-family="Helvetica,sans-Serif" font-size="10.00">&lt; BlockType &gt;</text>
</a>
</g>
<!-- Node2&#45;&gt;Node32 -->
<g id="edge104" class="edge"><title>Node2&#45;&gt;Node32</title>
<path fill="none" stroke="#8b1a1a" d="M361.113,-331.484C370.196,-299.366 392.241,-237.433 434,-204 494.369,-155.667 725.67,-152.471 833.743,-153.741"/>
<polygon fill="#8b1a1a" stroke="#8b1a1a" points="357.73,-330.584 358.52,-341.15 364.491,-332.398 357.73,-330.584"/>
</g>
<!-- Node3 -->
<g id="node4" class="node"><title>Node3</title>
<a xlink:href="classstxxl_1_1block__manager.html" target="_top" xlink:title="Block manager class. ">
<polygon fill="none" stroke="black" points="1457,-338.5 1457,-359.5 1567,-359.5 1567,-338.5 1457,-338.5"/>
<text text-anchor="middle" x="1512" y="-346.5" font-family="Helvetica,sans-Serif" font-size="10.00">stxxl::block_manager</text>
</a>
</g>
<!-- Node3&#45;&gt;Node1 -->
<g id="edge4" class="edge"><title>Node3&#45;&gt;Node1</title>
<path fill="none" stroke="#9a32cd" stroke-dasharray="5,2" d="M1525.07,-329.962C1553.36,-291.253 1624.42,-207 1707,-207 1707,-207 1707,-207 3237,-207 3292.2,-207 3354.37,-207 3402.4,-207"/>
<polygon fill="#9a32cd" stroke="#9a32cd" points="1522.06,-328.152 1519.11,-338.327 1527.76,-332.216 1522.06,-328.152"/>
<text text-anchor="middle" x="2510" y="-211" font-family="Helvetica,sans-Serif" font-size="10.00"> m_bm</text>
</g>
<!-- Node4&#45;&gt;Node3 -->
<g id="edge6" class="edge"><title>Node4&#45;&gt;Node3</title>
<path fill="none" stroke="midnightblue" d="M957.905,-507.57C1087.47,-516.628 1363.05,-527.838 1430,-466 1452.02,-445.661 1431.59,-426.085 1448,-401 1459.52,-383.389 1478.91,-368.857 1493.34,-359.675"/>
<polygon fill="midnightblue" stroke="midnightblue" points="957.932,-504.063 947.707,-506.84 957.432,-511.045 957.932,-504.063"/>
</g>
<!-- Node5&#45;&gt;Node4 -->
<g id="edge10" class="edge"><title>Node5&#45;&gt;Node4</title>
<path fill="none" stroke="orange" stroke-dasharray="5,2" d="M686.564,-462.879C725.567,-465.305 772.452,-469.773 814,-478 822.958,-479.774 832.349,-482.228 841.354,-484.895"/>
<polygon fill="orange" stroke="orange" points="686.494,-459.369 676.306,-462.277 686.083,-466.357 686.494,-459.369"/>
<text text-anchor="middle" x="754" y="-482" font-family="Helvetica,sans-Serif" font-size="10.00"> &lt; block_manager &gt;</text>
</g>
<!-- Node6&#45;&gt;Node3 -->
<g id="edge14" class="edge"><title>Node6&#45;&gt;Node3</title>
<path fill="none" stroke="#9a32cd" stroke-dasharray="5,2" d="M1148.2,-396.058C1219.76,-386.803 1374.19,-366.826 1456.96,-356.119"/>
<polygon fill="#9a32cd" stroke="#9a32cd" points="1147.74,-392.589 1138.27,-397.343 1148.63,-399.532 1147.74,-392.589"/>
<text text-anchor="middle" x="1290" y="-388" font-family="Helvetica,sans-Serif" font-size="10.00"> disk_files</text>
</g>
<!-- Node6&#45;&gt;Node11 -->
<g id="edge32" class="edge"><title>Node6&#45;&gt;Node11</title>
<path fill="none" stroke="#9a32cd" stroke-dasharray="5,2" d="M1134.85,-385.191C1148.9,-376.687 1167.02,-366.447 1184,-359 1205.42,-349.608 1230.27,-341.498 1250.52,-335.557"/>
<polygon fill="#9a32cd" stroke="#9a32cd" points="1132.93,-382.261 1126.25,-390.483 1136.6,-388.223 1132.93,-382.261"/>
<text text-anchor="middle" x="1202" y="-363" font-family="Helvetica,sans-Serif" font-size="10.00"> storage</text>
</g>
<!-- Node18 -->
<g id="node42" class="node"><title>Node18</title>
<a xlink:href="structstxxl_1_1BID.html" target="_top" xlink:title="stxxl::BID\&lt; raw_size \&gt;">
<polygon fill="none" stroke="black" points="1453,-410.5 1453,-431.5 1571,-431.5 1571,-410.5 1453,-410.5"/>
<text text-anchor="middle" x="1512" y="-418.5" font-family="Helvetica,sans-Serif" font-size="10.00">stxxl::BID&lt; raw_size &gt;</text>
</a>
</g>
<!-- Node6&#45;&gt;Node18 -->
<g id="edge52" class="edge"><title>Node6&#45;&gt;Node18</title>
<path fill="none" stroke="#9a32cd" stroke-dasharray="5,2" d="M1148.47,-402.914C1218.91,-406.419 1369.07,-413.889 1452.68,-418.049"/>
<polygon fill="#9a32cd" stroke="#9a32cd" points="1148.43,-399.408 1138.27,-402.406 1148.08,-406.399 1148.43,-399.408"/>
<text text-anchor="middle" x="1290" y="-416" font-family="Helvetica,sans-Serif" font-size="10.00"> storage</text>
</g>
<!-- Node19 -->
<g id="node45" class="node"><title>Node19</title>
<a xlink:href="structstxxl_1_1BID.html" target="_top" xlink:title="Block identifier class. ">
<polygon fill="none" stroke="black" points="1241,-452.5 1241,-473.5 1339,-473.5 1339,-452.5 1241,-452.5"/>
<text text-anchor="middle" x="1290" y="-460.5" font-family="Helvetica,sans-Serif" font-size="10.00">stxxl::BID&lt; Size &gt;</text>
</a>
</g>
<!-- Node6&#45;&gt;Node19 -->
<g id="edge56" class="edge"><title>Node6&#45;&gt;Node19</title>
<path fill="none" stroke="#9a32cd" stroke-dasharray="5,2" d="M1139.81,-416.12C1153.11,-422.495 1169.12,-429.66 1184,-435 1202.99,-441.813 1224.43,-447.785 1243.03,-452.444"/>
<polygon fill="#9a32cd" stroke="#9a32cd" points="1141.17,-412.893 1130.65,-411.655 1138.1,-419.185 1141.17,-412.893"/>
<text text-anchor="middle" x="1202" y="-449" font-family="Helvetica,sans-Serif" font-size="10.00"> storage</text>
</g>
<!-- Node7 -->
<g id="node15" class="node"><title>Node7</title>
<a xlink:href="classstxxl_1_1atomic__counted__object.html" target="_top" xlink:title="Provides reference counting abilities for use with counting_ptr with mutex locking. ">
<polygon fill="none" stroke="black" points="833.5,-353 833.5,-387 946.5,-387 946.5,-353 833.5,-353"/>
<text text-anchor="start" x="841.5" y="-374" font-family="Helvetica,sans-Serif" font-size="10.00">stxxl::atomic_counted</text>
<text text-anchor="middle" x="890" y="-361" font-family="Helvetica,sans-Serif" font-size="10.00">_object</text>
</a>
</g>
<!-- Node7&#45;&gt;Node6 -->
<g id="edge18" class="edge"><title>Node7&#45;&gt;Node6</title>
<path fill="none" stroke="#9a32cd" stroke-dasharray="5,2" d="M956.679,-377.492C981.606,-380.484 1010.14,-384.137 1036,-388 1051.22,-390.274 1068.13,-393.214 1081.94,-395.722"/>
<polygon fill="#9a32cd" stroke="#9a32cd" points="956.941,-373.998 946.598,-376.294 956.115,-380.949 956.941,-373.998"/>
<text text-anchor="middle" x="1001" y="-392" font-family="Helvetica,sans-Serif" font-size="10.00"> m_request_ref</text>
</g>
<!-- Node8&#45;&gt;Node7 -->
<g id="edge20" class="edge"><title>Node8&#45;&gt;Node7</title>
<path fill="none" stroke="#9a32cd" stroke-dasharray="5,2" d="M648.996,-374.199C699.167,-373.325 779.509,-371.925 833.484,-370.985"/>
<polygon fill="#9a32cd" stroke="#9a32cd" points="648.706,-370.703 638.768,-374.377 648.828,-377.702 648.706,-370.703"/>
<text text-anchor="middle" x="754" y="-377" font-family="Helvetica,sans-Serif" font-size="10.00"> m_reference_count_mutex</text>
</g>
<!-- Node8&#45;&gt;Node11 -->
<g id="edge34" class="edge"><title>Node8&#45;&gt;Node11</title>
<path fill="none" stroke="#9a32cd" stroke-dasharray="5,2" d="M648.562,-367.559C694.676,-360.328 768.095,-349.639 832,-344 978.657,-331.06 1152.53,-326.9 1237.7,-325.588"/>
<polygon fill="#9a32cd" stroke="#9a32cd" points="647.915,-364.118 638.584,-369.136 649.008,-371.032 647.915,-364.118"/>
<text text-anchor="middle" x="1001" y="-338" font-family="Helvetica,sans-Serif" font-size="10.00"> mutex</text>
</g>
<!-- Node9 -->
<g id="node20" class="node"><title>Node9</title>
<a xlink:href="structstxxl_1_1choose__int__types.html" target="_top" xlink:title="stxxl::choose_int_types\l\&lt; my_pointer_size \&gt;">
<polygon fill="none" stroke="black" points="296,-81 296,-115 416,-115 416,-81 296,-81"/>
<text text-anchor="start" x="304" y="-102" font-family="Helvetica,sans-Serif" font-size="10.00">stxxl::choose_int_types</text>
<text text-anchor="middle" x="356" y="-89" font-family="Helvetica,sans-Serif" font-size="10.00">&lt; my_pointer_size &gt;</text>
</a>
</g>
<!-- Node9&#45;&gt;Node1 -->
<g id="edge36" class="edge"><title>Node9&#45;&gt;Node1</title>
<path fill="none" stroke="#9a32cd" stroke-dasharray="5,2" d="M424.219,-78.3136C473.464,-65.8227 541.788,-52 603,-52 603,-52 603,-52 3237,-52 3339.47,-52 3434.11,-149.464 3468.91,-189.82"/>
<polygon fill="#9a32cd" stroke="#9a32cd" points="423.127,-74.9806 414.321,-80.8713 424.878,-81.758 423.127,-74.9806"/>
<text text-anchor="middle" x="1860" y="-69" font-family="Helvetica,sans-Serif" font-size="10.00"> m_blocks2prefetch</text>
<text text-anchor="middle" x="1860" y="-56" font-family="Helvetica,sans-Serif" font-size="10.00">m_alloc_count</text>
</g>
<!-- Node9&#45;&gt;Node7 -->
<g id="edge24" class="edge"><title>Node9&#45;&gt;Node7</title>
<path fill="none" stroke="#9a32cd" stroke-dasharray="5,2" d="M382.887,-122.218C415.728,-150.862 473.866,-198.605 530,-230 631.4,-286.711 760.434,-330.783 833.257,-353.349"/>
<polygon fill="#9a32cd" stroke="#9a32cd" points="384.92,-119.345 375.099,-115.369 380.297,-124.602 384.92,-119.345"/>
<text text-anchor="middle" x="603" y="-301" font-family="Helvetica,sans-Serif" font-size="10.00"> m_reference_count</text>
</g>
<!-- Node9&#45;&gt;Node28 -->
<g id="edge92" class="edge"><title>Node9&#45;&gt;Node28</title>
<path fill="none" stroke="#9a32cd" stroke-dasharray="5,2" d="M426.328,-98C466.323,-98 515.513,-98 551.824,-98"/>
<polygon fill="#9a32cd" stroke="#9a32cd" points="426.107,-94.5001 416.107,-98 426.107,-101.5 426.107,-94.5001"/>
<text text-anchor="middle" x="473" y="-102" font-family="Helvetica,sans-Serif" font-size="10.00"> free_blocks_size</text>
</g>
<!-- Node10 -->
<g id="node22" class="node"><title>Node10</title>
<a xlink:href="structstxxl_1_1choose__int__types.html" target="_top" xlink:title="stxxl::choose_int_types\l\&lt; PtrSize \&gt;">
<polygon fill="none" stroke="black" points="17,-81 17,-115 137,-115 137,-81 17,-81"/>
<text text-anchor="start" x="25" y="-102" font-family="Helvetica,sans-Serif" font-size="10.00">stxxl::choose_int_types</text>
<text text-anchor="middle" x="77" y="-89" font-family="Helvetica,sans-Serif" font-size="10.00">&lt; PtrSize &gt;</text>
</a>
</g>
<!-- Node10&#45;&gt;Node9 -->
<g id="edge26" class="edge"><title>Node10&#45;&gt;Node9</title>
<path fill="none" stroke="orange" stroke-dasharray="5,2" d="M147.35,-98C193.165,-98 252.302,-98 295.913,-98"/>
<polygon fill="orange" stroke="orange" points="147.195,-94.5001 137.195,-98 147.195,-101.5 147.195,-94.5001"/>
<text text-anchor="middle" x="225" y="-102" font-family="Helvetica,sans-Serif" font-size="10.00"> &lt; my_pointer_size &gt;</text>
</g>
<!-- Node11&#45;&gt;Node3 -->
<g id="edge28" class="edge"><title>Node11&#45;&gt;Node3</title>
<path fill="none" stroke="#9a32cd" stroke-dasharray="5,2" d="M1352.01,-331.704C1384.9,-335.26 1424.98,-339.592 1456.79,-343.031"/>
<polygon fill="#9a32cd" stroke="#9a32cd" points="1352.37,-328.222 1342.05,-330.627 1351.61,-335.182 1352.37,-328.222"/>
<text text-anchor="middle" x="1395" y="-343" font-family="Helvetica,sans-Serif" font-size="10.00"> disk_allocators</text>
</g>
<!-- Node12 -->
<g id="node30" class="node"><title>Node12</title>
<a xlink:href="classstxxl_1_1typed__block.html" target="_top" xlink:title="Block containing elements of fixed length. ">
<polygon fill="none" stroke="black" points="3174.5,-237.5 3174.5,-284.5 3299.5,-284.5 3299.5,-237.5 3174.5,-237.5"/>
<text text-anchor="start" x="3182.5" y="-271.5" font-family="Helvetica,sans-Serif" font-size="10.00">stxxl::typed_block</text>
<text text-anchor="start" x="3182.5" y="-258.5" font-family="Helvetica,sans-Serif" font-size="10.00">&lt; RawSize, Type, NRef,</text>
<text text-anchor="middle" x="3237" y="-245.5" font-family="Helvetica,sans-Serif" font-size="10.00"> MetaInfoType &gt;</text>
</a>
</g>
<!-- Node12&#45;&gt;Node1 -->
<g id="edge38" class="edge"><title>Node12&#45;&gt;Node1</title>
<path fill="none" stroke="#9a32cd" stroke-dasharray="5,2" d="M3309.73,-245.035C3339.85,-238.424 3374.83,-230.746 3405.44,-224.026"/>
<polygon fill="#9a32cd" stroke="#9a32cd" points="3308.73,-241.671 3299.71,-247.234 3310.23,-248.508 3308.73,-241.671"/>
<text text-anchor="middle" x="3351" y="-258" font-family="Helvetica,sans-Serif" font-size="10.00"> m_front_block</text>
<text text-anchor="middle" x="3351" y="-245" font-family="Helvetica,sans-Serif" font-size="10.00">m_back_block</text>
</g>
<!-- Node13 -->
<g id="node32" class="node"><title>Node13</title>
<a xlink:href="classstxxl_1_1mng__local_1_1expand__struct.html" target="_top" xlink:title="stxxl::mng_local::expand\l_struct\&lt; mng_local::block\l_w_info\&lt; Type, RawSize, NRef,\l MetaInfoType \&gt;, RawSize \&gt;">
<polygon fill="none" stroke="black" points="2976.5,-235 2976.5,-295 3135.5,-295 3135.5,-235 2976.5,-235"/>
<text text-anchor="start" x="2984.5" y="-282" font-family="Helvetica,sans-Serif" font-size="10.00">stxxl::mng_local::expand</text>
<text text-anchor="start" x="2984.5" y="-269" font-family="Helvetica,sans-Serif" font-size="10.00">_struct&lt; mng_local::block</text>
<text text-anchor="start" x="2984.5" y="-256" font-family="Helvetica,sans-Serif" font-size="10.00">_w_info&lt; Type, RawSize, NRef,</text>
<text text-anchor="middle" x="3056" y="-243" font-family="Helvetica,sans-Serif" font-size="10.00"> MetaInfoType &gt;, RawSize &gt;</text>
</a>
</g>
<!-- Node13&#45;&gt;Node12 -->
<g id="edge40" class="edge"><title>Node13&#45;&gt;Node12</title>
<path fill="none" stroke="midnightblue" d="M3145.74,-263.017C3155.45,-262.802 3165.17,-262.587 3174.45,-262.382"/>
<polygon fill="midnightblue" stroke="midnightblue" points="3145.57,-259.52 3135.65,-263.24 3145.73,-266.518 3145.57,-259.52"/>
</g>
<!-- Node14 -->
<g id="node34" class="node"><title>Node14</title>
<a xlink:href="classstxxl_1_1mng__local_1_1add__filler.html" target="_top" xlink:title="stxxl::mng_local::add\l_filler\&lt; mng_local::block\l_w_info\&lt; Type, RawSize,\l NRef, MetaInfoType \&gt;, RawSize\l&#45;sizeof(mng_local::block_w_info\l\&lt; Type, RawSize, NRef, MetaInfoType \&gt;)\&gt;">
<polygon fill="none" stroke="black" points="2620,-318 2620,-404 2826,-404 2826,-318 2620,-318"/>
<text text-anchor="start" x="2628" y="-391" font-family="Helvetica,sans-Serif" font-size="10.00">stxxl::mng_local::add</text>
<text text-anchor="start" x="2628" y="-378" font-family="Helvetica,sans-Serif" font-size="10.00">_filler&lt; mng_local::block</text>
<text text-anchor="start" x="2628" y="-365" font-family="Helvetica,sans-Serif" font-size="10.00">_w_info&lt; Type, RawSize,</text>
<text text-anchor="start" x="2628" y="-352" font-family="Helvetica,sans-Serif" font-size="10.00"> NRef, MetaInfoType &gt;, RawSize</text>
<text text-anchor="start" x="2628" y="-339" font-family="Helvetica,sans-Serif" font-size="10.00">&#45;sizeof(mng_local::block_w_info</text>
<text text-anchor="middle" x="2723" y="-326" font-family="Helvetica,sans-Serif" font-size="10.00">&lt; Type, RawSize, NRef, MetaInfoType &gt;)&gt;</text>
</a>
</g>
<!-- Node14&#45;&gt;Node13 -->
<g id="edge42" class="edge"><title>Node14&#45;&gt;Node13</title>
<path fill="none" stroke="midnightblue" d="M2836.05,-349.19C2875.39,-343.02 2919.34,-333.767 2958,-320 2975.64,-313.717 2993.84,-304.412 3009.69,-295.235"/>
<polygon fill="midnightblue" stroke="midnightblue" points="2835.51,-345.731 2826.15,-350.693 2836.56,-352.652 2835.51,-345.731"/>
</g>
<!-- Node15 -->
<g id="node36" class="node"><title>Node15</title>
<a xlink:href="classstxxl_1_1mng__local_1_1block__w__info.html" target="_top" xlink:title="stxxl::mng_local::block\l_w_info\&lt; Type, RawSize,\l NRef, MetaInfoType \&gt;">
<polygon fill="none" stroke="black" points="2445,-476.5 2445,-523.5 2575,-523.5 2575,-476.5 2445,-476.5"/>
<text text-anchor="start" x="2453" y="-510.5" font-family="Helvetica,sans-Serif" font-size="10.00">stxxl::mng_local::block</text>
<text text-anchor="start" x="2453" y="-497.5" font-family="Helvetica,sans-Serif" font-size="10.00">_w_info&lt; Type, RawSize,</text>
<text text-anchor="middle" x="2510" y="-484.5" font-family="Helvetica,sans-Serif" font-size="10.00"> NRef, MetaInfoType &gt;</text>
</a>
</g>
<!-- Node15&#45;&gt;Node14 -->
<g id="edge44" class="edge"><title>Node15&#45;&gt;Node14</title>
<path fill="none" stroke="midnightblue" d="M2566.13,-471.337C2571.55,-468.283 2576.92,-465.142 2582,-462 2610.69,-444.269 2641.26,-422.721 2666.58,-404.089"/>
<polygon fill="midnightblue" stroke="midnightblue" points="2564.06,-468.481 2557,-476.38 2567.44,-474.609 2564.06,-468.481"/>
</g>
<!-- Node16 -->
<g id="node38" class="node"><title>Node16</title>
<a xlink:href="classstxxl_1_1mng__local_1_1block__w__bids.html" target="_top" xlink:title="stxxl::mng_local::block\l_w_bids\&lt; Type,((RawSize\l&#45;sizeof(BID\&lt; RawSize \&gt;)*NBids\l&#45;sizeof(MetaInfoType))/sizeof\l(Type)), RawSize, NBids \&gt;">
<polygon fill="none" stroke="black" points="1934,-411.5 1934,-484.5 2092,-484.5 2092,-411.5 1934,-411.5"/>
<text text-anchor="start" x="1942" y="-471.5" font-family="Helvetica,sans-Serif" font-size="10.00">stxxl::mng_local::block</text>
<text text-anchor="start" x="1942" y="-458.5" font-family="Helvetica,sans-Serif" font-size="10.00">_w_bids&lt; Type,((RawSize</text>
<text text-anchor="start" x="1942" y="-445.5" font-family="Helvetica,sans-Serif" font-size="10.00">&#45;sizeof(BID&lt; RawSize &gt;)*NBids</text>
<text text-anchor="start" x="1942" y="-432.5" font-family="Helvetica,sans-Serif" font-size="10.00">&#45;sizeof(MetaInfoType))/sizeof</text>
<text text-anchor="middle" x="2013" y="-419.5" font-family="Helvetica,sans-Serif" font-size="10.00">(Type)), RawSize, NBids &gt;</text>
</a>
</g>
<!-- Node16&#45;&gt;Node15 -->
<g id="edge46" class="edge"><title>Node16&#45;&gt;Node15</title>
<path fill="none" stroke="midnightblue" d="M2102.01,-471.94C2117.89,-475.495 2134.36,-478.724 2150,-481 2252.35,-495.898 2372.57,-499.479 2444.94,-500.146"/>
<polygon fill="midnightblue" stroke="midnightblue" points="2102.74,-468.516 2092.21,-469.689 2101.17,-475.338 2102.74,-468.516"/>
</g>
<!-- Node21 -->
<g id="node52" class="node"><title>Node21</title>
<a xlink:href="classstxxl_1_1mng__local_1_1block__w__info.html" target="_top" xlink:title="Contains per block information for stxxl::typed_block , not intended for direct use. ">
<polygon fill="none" stroke="black" points="2155,-424.5 2155,-471.5 2285,-471.5 2285,-424.5 2155,-424.5"/>
<text text-anchor="start" x="2163" y="-458.5" font-family="Helvetica,sans-Serif" font-size="10.00">stxxl::mng_local::block</text>
<text text-anchor="start" x="2163" y="-445.5" font-family="Helvetica,sans-Serif" font-size="10.00">_w_info&lt; Type, RawSize,</text>
<text text-anchor="middle" x="2220" y="-432.5" font-family="Helvetica,sans-Serif" font-size="10.00"> NBids, MetaInfoType &gt;</text>
</a>
</g>
<!-- Node16&#45;&gt;Node21 -->
<g id="edge66" class="edge"><title>Node16&#45;&gt;Node21</title>
<path fill="none" stroke="midnightblue" d="M2102.41,-448C2119.97,-448 2138.09,-448 2154.68,-448"/>
<polygon fill="midnightblue" stroke="midnightblue" points="2102.14,-444.5 2092.14,-448 2102.14,-451.5 2102.14,-444.5"/>
</g>
<!-- Node17 -->
<g id="node40" class="node"><title>Node17</title>
<a xlink:href="classstxxl_1_1mng__local_1_1element__block.html" target="_top" xlink:title="Contains data elements for stxxl::typed_block , not intended for direct use. ">
<polygon fill="none" stroke="black" points="1448,-463 1448,-497 1576,-497 1576,-463 1448,-463"/>
<text text-anchor="start" x="1456" y="-484" font-family="Helvetica,sans-Serif" font-size="10.00">stxxl::mng_local::element</text>
<text text-anchor="middle" x="1512" y="-471" font-family="Helvetica,sans-Serif" font-size="10.00">_block&lt; Type, Size &gt;</text>
</a>
</g>
<!-- Node17&#45;&gt;Node16 -->
<g id="edge48" class="edge"><title>Node17&#45;&gt;Node16</title>
<path fill="none" stroke="midnightblue" d="M1586.18,-465.628C1600.03,-463.395 1614.42,-461.375 1628,-460 1733.45,-449.318 1855.91,-447.264 1933.89,-447.248"/>
<polygon fill="midnightblue" stroke="midnightblue" points="1585.5,-462.193 1576.21,-467.286 1586.64,-469.098 1585.5,-462.193"/>
</g>
<!-- Node20 -->
<g id="node48" class="node"><title>Node20</title>
<a xlink:href="classstxxl_1_1mng__local_1_1block__w__bids.html" target="_top" xlink:title="Contains BID references for stxxl::typed_block , not intended for direct use. ">
<polygon fill="none" stroke="black" points="1628,-469.5 1628,-516.5 1786,-516.5 1786,-469.5 1628,-469.5"/>
<text text-anchor="start" x="1636" y="-503.5" font-family="Helvetica,sans-Serif" font-size="10.00">stxxl::mng_local::block</text>
<text text-anchor="start" x="1636" y="-490.5" font-family="Helvetica,sans-Serif" font-size="10.00">_w_bids&lt; Type, Size, RawSize,</text>
<text text-anchor="middle" x="1707" y="-477.5" font-family="Helvetica,sans-Serif" font-size="10.00"> NBids &gt;</text>
</a>
</g>
<!-- Node17&#45;&gt;Node20 -->
<g id="edge60" class="edge"><title>Node17&#45;&gt;Node20</title>
<path fill="none" stroke="midnightblue" d="M1586.36,-484.957C1599.94,-485.863 1614.15,-486.81 1627.86,-487.724"/>
<polygon fill="midnightblue" stroke="midnightblue" points="1586.33,-481.448 1576.12,-484.275 1585.87,-488.432 1586.33,-481.448"/>
</g>
<!-- Node18&#45;&gt;Node16 -->
<g id="edge50" class="edge"><title>Node18&#45;&gt;Node16</title>
<path fill="none" stroke="#9a32cd" stroke-dasharray="5,2" d="M1581.69,-416.111C1596.94,-415.232 1613.01,-414.452 1628,-414 1756.07,-410.139 1789.43,-407.037 1916,-427 1921.87,-427.926 1927.92,-428.984 1934,-430.121"/>
<polygon fill="#9a32cd" stroke="#9a32cd" points="1581.05,-412.642 1571.28,-416.733 1581.47,-419.63 1581.05,-412.642"/>
<text text-anchor="middle" x="1707" y="-418" font-family="Helvetica,sans-Serif" font-size="10.00"> ref</text>
</g>
<!-- Node18&#45;&gt;Node20 -->
<g id="edge62" class="edge"><title>Node18&#45;&gt;Node20</title>
<path fill="none" stroke="#9a32cd" stroke-dasharray="5,2" d="M1550.39,-435.177C1576.76,-444.912 1612.39,-458.067 1643,-469.37"/>
<polygon fill="#9a32cd" stroke="#9a32cd" points="1551.37,-431.804 1540.77,-431.624 1548.94,-438.371 1551.37,-431.804"/>
<text text-anchor="middle" x="1602" y="-461" font-family="Helvetica,sans-Serif" font-size="10.00"> ref</text>
</g>
<!-- Node19&#45;&gt;Node18 -->
<g id="edge54" class="edge"><title>Node19&#45;&gt;Node18</title>
<path fill="none" stroke="orange" stroke-dasharray="5,2" d="M1349.3,-451.782C1382.49,-445.502 1423.62,-437.72 1456.23,-431.552"/>
<polygon fill="orange" stroke="orange" points="1348.44,-448.381 1339.27,-453.679 1349.75,-455.259 1348.44,-448.381"/>
<text text-anchor="middle" x="1395" y="-453" font-family="Helvetica,sans-Serif" font-size="10.00"> &lt; raw_size &gt;</text>
</g>
<!-- Node20&#45;&gt;Node16 -->
<g id="edge58" class="edge"><title>Node20&#45;&gt;Node16</title>
<path fill="none" stroke="orange" stroke-dasharray="5,2" d="M1795.96,-476.293C1798.67,-475.848 1801.35,-475.416 1804,-475 1846.83,-468.265 1894.79,-461.98 1933.95,-457.171"/>
<polygon fill="orange" stroke="orange" points="1795.36,-472.845 1786.08,-477.954 1796.52,-479.748 1795.36,-472.845"/>
<text text-anchor="start" x="1804" y="-531" font-family="Helvetica,sans-Serif" font-size="10.00"> &lt; Type,((RawSize&#45;sizeof</text>
<text text-anchor="start" x="1804" y="-518" font-family="Helvetica,sans-Serif" font-size="10.00">(BID&lt; RawSize &gt;)*NBids</text>
<text text-anchor="start" x="1804" y="-505" font-family="Helvetica,sans-Serif" font-size="10.00">&#45;sizeof(MetaInfoType))</text>
<text text-anchor="start" x="1804" y="-492" font-family="Helvetica,sans-Serif" font-size="10.00">/sizeof(Type)), RawSize,</text>
<text text-anchor="middle" x="1860" y="-479" font-family="Helvetica,sans-Serif" font-size="10.00"> NBids &gt;</text>
</g>
<!-- Node21&#45;&gt;Node15 -->
<g id="edge64" class="edge"><title>Node21&#45;&gt;Node15</title>
<path fill="none" stroke="orange" stroke-dasharray="5,2" d="M2295.71,-446.205C2333.52,-446.9 2379.69,-450.174 2420,-460 2435.28,-463.725 2451.21,-469.939 2465.33,-476.371"/>
<polygon fill="orange" stroke="orange" points="2295.32,-442.7 2285.27,-446.074 2295.23,-449.699 2295.32,-442.7"/>
<text text-anchor="start" x="2308" y="-477" font-family="Helvetica,sans-Serif" font-size="10.00"> &lt; Type, RawSize, NRef,</text>
<text text-anchor="middle" x="2364" y="-464" font-family="Helvetica,sans-Serif" font-size="10.00"> MetaInfoType &gt;</text>
</g>
<!-- Node22 -->
<g id="node55" class="node"><title>Node22</title>
<a xlink:href="classstxxl_1_1mng__local_1_1filler__struct.html" target="_top" xlink:title="stxxl::mng_local::filler\l_struct\&lt; FillSize \&gt;">
<polygon fill="none" stroke="black" points="1957,-286 1957,-320 2069,-320 2069,-286 1957,-286"/>
<text text-anchor="start" x="1965" y="-307" font-family="Helvetica,sans-Serif" font-size="10.00">stxxl::mng_local::filler</text>
<text text-anchor="middle" x="2013" y="-294" font-family="Helvetica,sans-Serif" font-size="10.00">_struct&lt; FillSize &gt;</text>
</a>
</g>
<!-- Node22&#45;&gt;Node14 -->
<g id="edge68" class="edge"><title>Node22&#45;&gt;Node14</title>
<path fill="none" stroke="#9a32cd" stroke-dasharray="5,2" d="M2079.15,-298.197C2159.85,-293.333 2300.31,-288.072 2420,-300 2487.28,-306.705 2561.73,-321.587 2620,-334.972"/>
<polygon fill="#9a32cd" stroke="#9a32cd" points="2078.9,-294.706 2069.13,-298.818 2079.33,-301.693 2078.9,-294.706"/>
<text text-anchor="middle" x="2364" y="-304" font-family="Helvetica,sans-Serif" font-size="10.00"> filler</text>
</g>
<!-- Node24 -->
<g id="node59" class="node"><title>Node24</title>
<a xlink:href="classstxxl_1_1mng__local_1_1add__filler.html" target="_top" xlink:title="Contains per block filler for stxxl::typed_block , not intended for direct use. ">
<polygon fill="none" stroke="black" points="2150,-331 2150,-365 2290,-365 2290,-331 2150,-331"/>
<text text-anchor="start" x="2158" y="-352" font-family="Helvetica,sans-Serif" font-size="10.00">stxxl::mng_local::add</text>
<text text-anchor="middle" x="2220" y="-339" font-family="Helvetica,sans-Serif" font-size="10.00">_filler&lt; BaseType, FillSize &gt;</text>
</a>
</g>
<!-- Node22&#45;&gt;Node24 -->
<g id="edge74" class="edge"><title>Node22&#45;&gt;Node24</title>
<path fill="none" stroke="#9a32cd" stroke-dasharray="5,2" d="M2078.86,-317.318C2101.5,-322.238 2126.91,-327.762 2149.87,-332.753"/>
<polygon fill="#9a32cd" stroke="#9a32cd" points="2079.53,-313.882 2069.02,-315.178 2078.05,-320.722 2079.53,-313.882"/>
<text text-anchor="middle" x="2121" y="-332" font-family="Helvetica,sans-Serif" font-size="10.00"> filler</text>
</g>
<!-- Node26 -->
<g id="node64" class="node"><title>Node26</title>
<a xlink:href="classstxxl_1_1mng__local_1_1add__filler.html" target="_top" xlink:title="stxxl::mng_local::add\l_filler\&lt; Type, RawSize\l&#45;sizeof(Type)\&gt;">
<polygon fill="none" stroke="black" points="2452,-238.5 2452,-285.5 2568,-285.5 2568,-238.5 2452,-238.5"/>
<text text-anchor="start" x="2460" y="-272.5" font-family="Helvetica,sans-Serif" font-size="10.00">stxxl::mng_local::add</text>
<text text-anchor="start" x="2460" y="-259.5" font-family="Helvetica,sans-Serif" font-size="10.00">_filler&lt; Type, RawSize</text>
<text text-anchor="middle" x="2510" y="-246.5" font-family="Helvetica,sans-Serif" font-size="10.00">&#45;sizeof(Type)&gt;</text>
</a>
</g>
<!-- Node22&#45;&gt;Node26 -->
<g id="edge80" class="edge"><title>Node22&#45;&gt;Node26</title>
<path fill="none" stroke="#9a32cd" stroke-dasharray="5,2" d="M2079.08,-287.817C2101.48,-283.249 2126.72,-278.73 2150,-276 2255.92,-263.58 2380.44,-261.494 2451.8,-261.486"/>
<polygon fill="#9a32cd" stroke="#9a32cd" points="2078.09,-284.449 2069.01,-289.913 2079.51,-291.303 2078.09,-284.449"/>
<text text-anchor="middle" x="2220" y="-280" font-family="Helvetica,sans-Serif" font-size="10.00"> filler</text>
</g>
<!-- Node23 -->
<g id="node57" class="node"><title>Node23</title>
<a xlink:href="classstxxl_1_1mng__local_1_1filler__struct.html" target="_top" xlink:title="stxxl::mng_local::filler\l_struct\&lt; Bytes \&gt;">
<polygon fill="none" stroke="black" points="1651,-286 1651,-320 1763,-320 1763,-286 1651,-286"/>
<text text-anchor="start" x="1659" y="-307" font-family="Helvetica,sans-Serif" font-size="10.00">stxxl::mng_local::filler</text>
<text text-anchor="middle" x="1707" y="-294" font-family="Helvetica,sans-Serif" font-size="10.00">_struct&lt; Bytes &gt;</text>
</a>
</g>
<!-- Node23&#45;&gt;Node22 -->
<g id="edge70" class="edge"><title>Node23&#45;&gt;Node22</title>
<path fill="none" stroke="orange" stroke-dasharray="5,2" d="M1773.44,-303C1828.27,-303 1905.22,-303 1956.97,-303"/>
<polygon fill="orange" stroke="orange" points="1773.13,-299.5 1763.13,-303 1773.13,-306.5 1773.13,-299.5"/>
<text text-anchor="middle" x="1860" y="-307" font-family="Helvetica,sans-Serif" font-size="10.00"> &lt; FillSize &gt;</text>
</g>
<!-- Node24&#45;&gt;Node14 -->
<g id="edge72" class="edge"><title>Node24&#45;&gt;Node14</title>
<path fill="none" stroke="orange" stroke-dasharray="5,2" d="M2300.38,-365.124C2302.94,-365.452 2305.49,-365.746 2308,-366 2413.92,-376.722 2535.81,-373.402 2619.96,-368.677"/>
<polygon fill="orange" stroke="orange" points="2300.81,-361.65 2290.41,-363.705 2299.82,-368.58 2300.81,-361.65"/>
<text text-anchor="start" x="2438.5" y="-442" font-family="Helvetica,sans-Serif" font-size="10.00"> &lt; mng_local::block</text>
<text text-anchor="start" x="2438.5" y="-429" font-family="Helvetica,sans-Serif" font-size="10.00">_w_info&lt; Type, RawSize,</text>
<text text-anchor="start" x="2438.5" y="-416" font-family="Helvetica,sans-Serif" font-size="10.00"> NRef, MetaInfoType &gt;,</text>
<text text-anchor="start" x="2438.5" y="-403" font-family="Helvetica,sans-Serif" font-size="10.00"> RawSize&#45;sizeof(mng_local</text>
<text text-anchor="start" x="2438.5" y="-390" font-family="Helvetica,sans-Serif" font-size="10.00">::block_w_info&lt; Type, RawSize,</text>
<text text-anchor="middle" x="2510" y="-377" font-family="Helvetica,sans-Serif" font-size="10.00"> NRef, MetaInfoType &gt;)&gt;</text>
</g>
<!-- Node24&#45;&gt;Node26 -->
<g id="edge82" class="edge"><title>Node24&#45;&gt;Node26</title>
<path fill="none" stroke="orange" stroke-dasharray="5,2" d="M2300.17,-338.818C2345.87,-332.949 2398.25,-324.967 2420,-317 2440.63,-309.441 2461.7,-296.884 2478.26,-285.675"/>
<polygon fill="orange" stroke="orange" points="2299.71,-335.348 2290.23,-340.075 2300.59,-342.292 2299.71,-335.348"/>
<text text-anchor="start" x="2309.5" y="-354" font-family="Helvetica,sans-Serif" font-size="10.00"> &lt; Type, RawSize&#45;sizeof</text>
<text text-anchor="middle" x="2364" y="-341" font-family="Helvetica,sans-Serif" font-size="10.00">(Type)&gt;</text>
</g>
<!-- Node25 -->
<g id="node62" class="node"><title>Node25</title>
<a xlink:href="classstxxl_1_1mng__local_1_1expand__struct.html" target="_top" xlink:title="Helper to compute the size of the filler , not intended for direct use. ">
<polygon fill="none" stroke="black" points="2657,-247 2657,-281 2789,-281 2789,-247 2657,-247"/>
<text text-anchor="start" x="2665" y="-268" font-family="Helvetica,sans-Serif" font-size="10.00">stxxl::mng_local::expand</text>
<text text-anchor="middle" x="2723" y="-255" font-family="Helvetica,sans-Serif" font-size="10.00">_struct&lt; Type, RawSize &gt;</text>
</a>
</g>
<!-- Node25&#45;&gt;Node13 -->
<g id="edge76" class="edge"><title>Node25&#45;&gt;Node13</title>
<path fill="none" stroke="orange" stroke-dasharray="5,2" d="M2799.21,-264.229C2852.21,-264.388 2922.72,-264.6 2976.44,-264.761"/>
<polygon fill="orange" stroke="orange" points="2799.2,-260.729 2789.19,-264.199 2799.18,-267.729 2799.2,-260.729"/>
<text text-anchor="start" x="2844" y="-307" font-family="Helvetica,sans-Serif" font-size="10.00"> &lt; mng_local::block</text>
<text text-anchor="start" x="2844" y="-294" font-family="Helvetica,sans-Serif" font-size="10.00">_w_info&lt; Type, RawSize,</text>
<text text-anchor="start" x="2844" y="-281" font-family="Helvetica,sans-Serif" font-size="10.00"> NRef, MetaInfoType &gt;,</text>
<text text-anchor="middle" x="2901" y="-268" font-family="Helvetica,sans-Serif" font-size="10.00"> RawSize &gt;</text>
</g>
<!-- Node26&#45;&gt;Node25 -->
<g id="edge78" class="edge"><title>Node26&#45;&gt;Node25</title>
<path fill="none" stroke="midnightblue" d="M2578.4,-262.642C2603.57,-262.879 2632.02,-263.146 2656.97,-263.38"/>
<polygon fill="midnightblue" stroke="midnightblue" points="2578.24,-259.141 2568.2,-262.547 2578.17,-266.14 2578.24,-259.141"/>
</g>
<!-- Node27&#45;&gt;Node1 -->
<g id="edge84" class="edge"><title>Node27&#45;&gt;Node1</title>
<path fill="none" stroke="#9a32cd" stroke-dasharray="5,2" d="M1176.61,-161C1210.55,-161 1252.48,-161 1290,-161 1290,-161 1290,-161 3237,-161 3302.17,-161 3375.43,-176.793 3424.92,-189.871"/>
<polygon fill="#9a32cd" stroke="#9a32cd" points="1176.35,-157.5 1166.35,-161 1176.35,-164.5 1176.35,-157.5"/>
<text text-anchor="middle" x="2220" y="-165" font-family="Helvetica,sans-Serif" font-size="10.00"> m_pool</text>
</g>
<!-- Node28&#45;&gt;Node27 -->
<g id="edge88" class="edge"><title>Node28&#45;&gt;Node27</title>
<path fill="none" stroke="#9a32cd" stroke-dasharray="5,2" d="M664.53,-97.1724C733.873,-97.173 849.746,-99.9889 948,-116 986.029,-122.197 1027.91,-133.968 1059.56,-143.916"/>
<polygon fill="#9a32cd" stroke="#9a32cd" points="664.22,-93.673 654.228,-97.1932 664.235,-100.673 664.22,-93.673"/>
<text text-anchor="middle" x="890" y="-120" font-family="Helvetica,sans-Serif" font-size="10.00"> p_pool</text>
</g>
<!-- Node28&#45;&gt;Node32 -->
<g id="edge106" class="edge"><title>Node28&#45;&gt;Node32</title>
<path fill="none" stroke="#9a32cd" stroke-dasharray="5,2" d="M664.358,-104.555C706.743,-109.751 764.225,-118.127 814,-130 823.187,-132.191 832.856,-134.983 842.103,-137.9"/>
<polygon fill="#9a32cd" stroke="#9a32cd" points="664.54,-101.051 654.194,-103.334 663.706,-108.001 664.54,-101.051"/>
<text text-anchor="middle" x="754" y="-134" font-family="Helvetica,sans-Serif" font-size="10.00"> p_pool</text>
</g>
<!-- Node29 -->
<g id="node75" class="node"><title>Node29</title>
<a xlink:href="structstxxl_1_1compat__hash__map.html" target="_top" xlink:title="stxxl::compat_hash\l_map\&lt; bid_type, busy\l_entry, bid_hash \&gt;">
<polygon fill="none" stroke="black" points="299.5,-0.5 299.5,-47.5 412.5,-47.5 412.5,-0.5 299.5,-0.5"/>
<text text-anchor="start" x="307.5" y="-34.5" font-family="Helvetica,sans-Serif" font-size="10.00">stxxl::compat_hash</text>
<text text-anchor="start" x="307.5" y="-21.5" font-family="Helvetica,sans-Serif" font-size="10.00">_map&lt; bid_type, busy</text>
<text text-anchor="middle" x="356" y="-8.5" font-family="Helvetica,sans-Serif" font-size="10.00">_entry, bid_hash &gt;</text>
</a>
</g>
<!-- Node29&#45;&gt;Node28 -->
<g id="edge94" class="edge"><title>Node29&#45;&gt;Node28</title>
<path fill="none" stroke="#9a32cd" stroke-dasharray="5,2" d="M422.477,-43.9163C463.062,-56.0751 514.172,-71.3876 551.641,-82.6131"/>
<polygon fill="#9a32cd" stroke="#9a32cd" points="423.251,-40.4943 412.667,-40.9771 421.242,-47.1999 423.251,-40.4943"/>
<text text-anchor="middle" x="473" y="-74" font-family="Helvetica,sans-Serif" font-size="10.00"> busy_blocks</text>
</g>
<!-- Node30 -->
<g id="node77" class="node"><title>Node30</title>
<a xlink:href="structstxxl_1_1compat__hash__map.html" target="_top" xlink:title="stxxl::compat_hash\l_map\&lt; KeyType, MappedType,\l HashType \&gt;">
<polygon fill="none" stroke="black" points="0,-0.5 0,-47.5 154,-47.5 154,-0.5 0,-0.5"/>
<text text-anchor="start" x="8" y="-34.5" font-family="Helvetica,sans-Serif" font-size="10.00">stxxl::compat_hash</text>
<text text-anchor="start" x="8" y="-21.5" font-family="Helvetica,sans-Serif" font-size="10.00">_map&lt; KeyType, MappedType,</text>
<text text-anchor="middle" x="77" y="-8.5" font-family="Helvetica,sans-Serif" font-size="10.00"> HashType &gt;</text>
</a>
</g>
<!-- Node30&#45;&gt;Node29 -->
<g id="edge96" class="edge"><title>Node30&#45;&gt;Node29</title>
<path fill="none" stroke="orange" stroke-dasharray="5,2" d="M164.478,-24C208.505,-24 260.6,-24 299.336,-24"/>
<polygon fill="orange" stroke="orange" points="164.347,-20.5001 154.347,-24 164.347,-27.5001 164.347,-20.5001"/>
<text text-anchor="start" x="172" y="-41" font-family="Helvetica,sans-Serif" font-size="10.00"> &lt; bid_type, busy_entry,</text>
<text text-anchor="middle" x="225" y="-28" font-family="Helvetica,sans-Serif" font-size="10.00"> bid_hash &gt;</text>
</g>
<!-- Node31&#45;&gt;Node27 -->
<g id="edge98" class="edge"><title>Node31&#45;&gt;Node27</title>
<path fill="none" stroke="#9a32cd" stroke-dasharray="5,2" d="M660.548,-205.944C703.004,-206.905 762.155,-207.257 814,-204 913.253,-197.766 937.865,-192.112 1036,-176 1041.82,-175.044 1047.88,-173.961 1053.92,-172.825"/>
<polygon fill="#9a32cd" stroke="#9a32cd" points="660.483,-202.441 650.401,-205.695 660.312,-209.439 660.483,-202.441"/>
<text text-anchor="middle" x="890" y="-206" font-family="Helvetica,sans-Serif" font-size="10.00"> w_pool</text>
</g>
<!-- Node31&#45;&gt;Node32 -->
<g id="edge108" class="edge"><title>Node31&#45;&gt;Node32</title>
<path fill="none" stroke="#9a32cd" stroke-dasharray="5,2" d="M660.22,-194.244C702.664,-187.006 761.945,-176.893 814,-168 820.466,-166.895 827.24,-165.737 833.969,-164.587"/>
<polygon fill="#9a32cd" stroke="#9a32cd" points="659.618,-190.796 650.349,-195.927 660.795,-197.697 659.618,-190.796"/>
<text text-anchor="middle" x="754" y="-191" font-family="Helvetica,sans-Serif" font-size="10.00"> w_pool</text>
</g>
<!-- Node32&#45;&gt;Node27 -->
<g id="edge102" class="edge"><title>Node32&#45;&gt;Node27</title>
<path fill="none" stroke="orange" stroke-dasharray="5,2" d="M956.378,-156.81C987.41,-157.657 1023.97,-158.654 1053.64,-159.463"/>
<polygon fill="orange" stroke="orange" points="956.176,-153.304 946.085,-156.53 955.985,-160.301 956.176,-153.304"/>
<text text-anchor="middle" x="1001" y="-163" font-family="Helvetica,sans-Serif" font-size="10.00"> &lt; block_type &gt;</text>
</g>
</g>
</svg>
