<?xml version="1.0" encoding="UTF-8" standalone="no"?>
<!DOCTYPE svg PUBLIC "-//W3C//DTD SVG 1.1//EN"
 "http://www.w3.org/Graphics/SVG/1.1/DTD/svg11.dtd">
<!-- Generated by graphviz version 2.38.0 (20140413.2041)
 -->
<!-- Title: stxxl::fileperblock_file&lt; base_file_type &gt; Pages: 1 -->
<svg width="124pt" height="207pt"
 viewBox="0.00 0.00 124.00 207.00" xmlns="http://www.w3.org/2000/svg" xmlns:xlink="http://www.w3.org/1999/xlink">
<g id="graph0" class="graph" transform="scale(1 1) rotate(0) translate(4 203)">
<title>stxxl::fileperblock_file&lt; base_file_type &gt;</title>
<!-- Node1 -->
<g id="node1" class="node"><title>Node1</title>
<polygon fill="#bfbfbf" stroke="black" points="-7.10543e-15,-0.5 -7.10543e-15,-30.5 116,-30.5 116,-0.5 -7.10543e-15,-0.5"/>
<text text-anchor="start" x="8" y="-18.5" font-family="Helvetica,sans-Serif" font-size="10.00">stxxl::fileperblock</text>
<text text-anchor="middle" x="58" y="-7.5" font-family="Helvetica,sans-Serif" font-size="10.00">_file&lt; base_file_type &gt;</text>
</g>
<!-- Node2 -->
<g id="node2" class="node"><title>Node2</title>
<g id="a_node2"><a xlink:href="classstxxl_1_1disk__queued__file.html" target="_top" xlink:title="Implementation of some file methods based on serving_request. ">
<polygon fill="none" stroke="black" points="-7.10543e-15,-67.5 -7.10543e-15,-86.5 116,-86.5 116,-67.5 -7.10543e-15,-67.5"/>
<text text-anchor="middle" x="58" y="-74.5" font-family="Helvetica,sans-Serif" font-size="10.00">stxxl::disk_queued_file</text>
</a>
</g>
</g>
<!-- Node2&#45;&gt;Node1 -->
<g id="edge1" class="edge"><title>Node2&#45;&gt;Node1</title>
<path fill="none" stroke="midnightblue" d="M58,-57.2349C58,-48.5864 58,-38.4969 58,-30.523"/>
<polygon fill="midnightblue" stroke="midnightblue" points="54.5001,-57.4751 58,-67.4751 61.5001,-57.4751 54.5001,-57.4751"/>
</g>
<!-- Node3 -->
<g id="node3" class="node"><title>Node3</title>
<g id="a_node3"><a xlink:href="classstxxl_1_1file.html" target="_top" xlink:title="Defines interface of file. ">
<polygon fill="none" stroke="black" points="30,-123.5 30,-142.5 86,-142.5 86,-123.5 30,-123.5"/>
<text text-anchor="middle" x="58" y="-130.5" font-family="Helvetica,sans-Serif" font-size="10.00">stxxl::file</text>
</a>
</g>
</g>
<!-- Node3&#45;&gt;Node2 -->
<g id="edge2" class="edge"><title>Node3&#45;&gt;Node2</title>
<path fill="none" stroke="midnightblue" d="M58,-112.805C58,-103.91 58,-93.7798 58,-86.7511"/>
<polygon fill="midnightblue" stroke="midnightblue" points="54.5001,-113.083 58,-123.083 61.5001,-113.083 54.5001,-113.083"/>
</g>
<!-- Node4 -->
<g id="node4" class="node"><title>Node4</title>
<g id="a_node4"><a xlink:href="classstxxl_1_1noncopyable.html" target="_top" xlink:title="stxxl::noncopyable">
<polygon fill="none" stroke="black" points="9,-179.5 9,-198.5 107,-198.5 107,-179.5 9,-179.5"/>
<text text-anchor="middle" x="58" y="-186.5" font-family="Helvetica,sans-Serif" font-size="10.00">stxxl::noncopyable</text>
</a>
</g>
</g>
<!-- Node4&#45;&gt;Node3 -->
<g id="edge3" class="edge"><title>Node4&#45;&gt;Node3</title>
<path fill="none" stroke="#8b1a1a" d="M58,-168.805C58,-159.91 58,-149.78 58,-142.751"/>
<polygon fill="#8b1a1a" stroke="#8b1a1a" points="54.5001,-169.083 58,-179.083 61.5001,-169.083 54.5001,-169.083"/>
</g>
</g>
</svg>
