<?xml version="1.0" encoding="UTF-8" standalone="no"?>
<!DOCTYPE svg PUBLIC "-//W3C//DTD SVG 1.1//EN"
 "http://www.w3.org/Graphics/SVG/1.1/DTD/svg11.dtd">
<!-- Generated by graphviz version 2.26.3 (20100126.1600)
 -->
<!-- Title: stxxl::wincall_file Pages: 1 -->
<svg width="246pt" height="204pt"
 viewBox="0.00 0.00 246.00 204.00" xmlns="http://www.w3.org/2000/svg" xmlns:xlink="http://www.w3.org/1999/xlink">
<g id="graph1" class="graph" transform="scale(1 1) rotate(0) translate(4 200)">
<title>stxxl::wincall_file</title>
<!-- Node1 -->
<g id="node1" class="node"><title>Node1</title>
<polygon fill="#bfbfbf" stroke="black" points="70,-0.5 70,-21.5 162,-21.5 162,-0.5 70,-0.5"/>
<text text-anchor="middle" x="116" y="-8.5" font-family="Helvetica,sans-Serif" font-size="10.00">stxxl::wincall_file</text>
</g>
<!-- Node2 -->
<g id="node2" class="node"><title>Node2</title>
<a xlink:href="classstxxl_1_1wfs__file__base.html" target="_top" xlink:title="Base for Windows file system implementations. ">
<polygon fill="none" stroke="black" points="0,-58.5 0,-79.5 104,-79.5 104,-58.5 0,-58.5"/>
<text text-anchor="middle" x="52" y="-66.5" font-family="Helvetica,sans-Serif" font-size="10.00">stxxl::wfs_file_base</text>
</a>
</g>
<!-- Node2&#45;&gt;Node1 -->
<g id="edge2" class="edge"><title>Node2&#45;&gt;Node1</title>
<path fill="none" stroke="midnightblue" d="M71.4152,-51.405C82.1591,-41.6683 95.1543,-29.8914 104.336,-21.5707"/>
<polygon fill="midnightblue" stroke="midnightblue" points="68.7982,-49.0532 63.7386,-58.3619 73.4988,-54.2401 68.7982,-49.0532"/>
</g>
<!-- Node3 -->
<g id="node4" class="node"><title>Node3</title>
<a xlink:href="classstxxl_1_1file.html" target="_top" xlink:title="Defines interface of file. ">
<polygon fill="none" stroke="black" points="88,-116.5 88,-137.5 144,-137.5 144,-116.5 88,-116.5"/>
<text text-anchor="middle" x="116" y="-124.5" font-family="Helvetica,sans-Serif" font-size="10.00">stxxl::file</text>
</a>
</g>
<!-- Node3&#45;&gt;Node2 -->
<g id="edge4" class="edge"><title>Node3&#45;&gt;Node2</title>
<path fill="none" stroke="midnightblue" d="M96.5848,-109.405C85.8409,-99.6683 72.8457,-87.8914 63.6642,-79.5707"/>
<polygon fill="midnightblue" stroke="midnightblue" points="94.5012,-112.24 104.261,-116.362 99.2018,-107.053 94.5012,-112.24"/>
</g>
<!-- Node5 -->
<g id="node8" class="node"><title>Node5</title>
<a xlink:href="classstxxl_1_1disk__queued__file.html" target="_top" xlink:title="Implementation of some file methods based on serving_request. ">
<polygon fill="none" stroke="black" points="122,-58.5 122,-79.5 238,-79.5 238,-58.5 122,-58.5"/>
<text text-anchor="middle" x="180" y="-66.5" font-family="Helvetica,sans-Serif" font-size="10.00">stxxl::disk_queued_file</text>
</a>
</g>
<!-- Node3&#45;&gt;Node5 -->
<g id="edge10" class="edge"><title>Node3&#45;&gt;Node5</title>
<path fill="none" stroke="midnightblue" d="M135.415,-109.405C146.159,-99.6683 159.154,-87.8914 168.336,-79.5707"/>
<polygon fill="midnightblue" stroke="midnightblue" points="132.798,-107.053 127.739,-116.362 137.499,-112.24 132.798,-107.053"/>
</g>
<!-- Node4 -->
<g id="node6" class="node"><title>Node4</title>
<a xlink:href="classstxxl_1_1noncopyable.html" target="_top" xlink:title="stxxl::noncopyable">
<polygon fill="none" stroke="black" points="67,-174.5 67,-195.5 165,-195.5 165,-174.5 67,-174.5"/>
<text text-anchor="middle" x="116" y="-182.5" font-family="Helvetica,sans-Serif" font-size="10.00">stxxl::noncopyable</text>
</a>
</g>
<!-- Node4&#45;&gt;Node3 -->
<g id="edge6" class="edge"><title>Node4&#45;&gt;Node3</title>
<path fill="none" stroke="#8b1a1a" d="M116,-164.191C116,-155.168 116,-144.994 116,-137.571"/>
<polygon fill="#8b1a1a" stroke="#8b1a1a" points="112.5,-164.362 116,-174.362 119.5,-164.362 112.5,-164.362"/>
</g>
<!-- Node5&#45;&gt;Node1 -->
<g id="edge8" class="edge"><title>Node5&#45;&gt;Node1</title>
<path fill="none" stroke="midnightblue" d="M160.585,-51.405C149.841,-41.6683 136.846,-29.8914 127.664,-21.5707"/>
<polygon fill="midnightblue" stroke="midnightblue" points="158.501,-54.2401 168.261,-58.3619 163.202,-49.0532 158.501,-54.2401"/>
</g>
</g>
</svg>
