<?xml version="1.0" encoding="UTF-8" standalone="no"?>
<!DOCTYPE svg PUBLIC "-//W3C//DTD SVG 1.1//EN"
 "http://www.w3.org/Graphics/SVG/1.1/DTD/svg11.dtd">
<!-- Generated by graphviz version 2.38.0 (20140413.2041)
 -->
<!-- Title: stxxl::set_switch_handler Pages: 1 -->
<svg width="781pt" height="144pt"
 viewBox="0.00 0.00 781.00 143.91" xmlns="http://www.w3.org/2000/svg" xmlns:xlink="http://www.w3.org/1999/xlink">
<g id="graph0" class="graph" transform="scale(1 1) rotate(0) translate(4 139.91)">
<title>stxxl::set_switch_handler</title>
<!-- Node1 -->
<g id="node1" class="node"><title>Node1</title>
<polygon fill="#bfbfbf" stroke="black" points="645,-65.5 645,-84.5 773,-84.5 773,-65.5 645,-65.5"/>
<text text-anchor="middle" x="709" y="-72.5" font-family="Helvetica,sans-Serif" font-size="10.00">stxxl::set_switch_handler</text>
</g>
<!-- Node2 -->
<g id="node2" class="node"><title>Node2</title>
<g id="a_node2"><a xlink:href="classstxxl_1_1onoff__switch.html" target="_top" xlink:title="stxxl::onoff_switch">
<polygon fill="none" stroke="black" points="449.5,-87.5 449.5,-106.5 548.5,-106.5 548.5,-87.5 449.5,-87.5"/>
<text text-anchor="middle" x="499" y="-94.5" font-family="Helvetica,sans-Serif" font-size="10.00">stxxl::onoff_switch</text>
</a>
</g>
</g>
<!-- Node2&#45;&gt;Node1 -->
<g id="edge1" class="edge"><title>Node2&#45;&gt;Node1</title>
<path fill="none" stroke="#9a32cd" stroke-dasharray="5,2" d="M558.541,-90.8081C585.427,-87.9645 617.358,-84.5871 644.791,-81.6856"/>
<polygon fill="#9a32cd" stroke="#9a32cd" points="558.081,-87.3372 548.504,-91.8697 558.817,-94.2984 558.081,-87.3372"/>
<text text-anchor="middle" x="604" y="-91" font-family="Helvetica,sans-Serif" font-size="10.00"> switch_</text>
</g>
<!-- Node3 -->
<g id="node3" class="node"><title>Node3</title>
<g id="a_node3"><a xlink:href="classstxxl_1_1noncopyable.html" target="_top" xlink:title="stxxl::noncopyable">
<polygon fill="none" stroke="black" points="6,-98.5 6,-117.5 104,-117.5 104,-98.5 6,-98.5"/>
<text text-anchor="middle" x="55" y="-105.5" font-family="Helvetica,sans-Serif" font-size="10.00">stxxl::noncopyable</text>
</a>
</g>
</g>
<!-- Node3&#45;&gt;Node2 -->
<g id="edge2" class="edge"><title>Node3&#45;&gt;Node2</title>
<path fill="none" stroke="#8b1a1a" d="M109.821,-119.343C115.932,-120.369 122.088,-121.288 128,-122 255.53,-137.354 291.027,-144.112 417,-119 433.577,-115.695 451.763,-110.869 466.695,-106.577"/>
<polygon fill="#8b1a1a" stroke="#8b1a1a" points="110.085,-115.835 99.6266,-117.531 108.86,-122.727 110.085,-115.835"/>
</g>
<!-- Node4 -->
<g id="node4" class="node"><title>Node4</title>
<g id="a_node4"><a xlink:href="classstxxl_1_1mutex.html" target="_top" xlink:title="stxxl::mutex">
<polygon fill="none" stroke="black" points="258.5,-98.5 258.5,-117.5 329.5,-117.5 329.5,-98.5 258.5,-98.5"/>
<text text-anchor="middle" x="294" y="-105.5" font-family="Helvetica,sans-Serif" font-size="10.00">stxxl::mutex</text>
</a>
</g>
</g>
<!-- Node3&#45;&gt;Node4 -->
<g id="edge4" class="edge"><title>Node3&#45;&gt;Node4</title>
<path fill="none" stroke="#8b1a1a" d="M114.488,-108C159.623,-108 220.538,-108 258.267,-108"/>
<polygon fill="#8b1a1a" stroke="#8b1a1a" points="114.246,-104.5 104.246,-108 114.246,-111.5 114.246,-104.5"/>
</g>
<!-- Node5 -->
<g id="node5" class="node"><title>Node5</title>
<g id="a_node5"><a xlink:href="classstxxl_1_1condition__variable.html" target="_top" xlink:title="stxxl::condition_variable">
<polygon fill="none" stroke="black" points="233,-60.5 233,-79.5 355,-79.5 355,-60.5 233,-60.5"/>
<text text-anchor="middle" x="294" y="-67.5" font-family="Helvetica,sans-Serif" font-size="10.00">stxxl::condition_variable</text>
</a>
</g>
</g>
<!-- Node3&#45;&gt;Node5 -->
<g id="edge6" class="edge"><title>Node3&#45;&gt;Node5</title>
<path fill="none" stroke="#8b1a1a" d="M114.183,-98.6711C150.438,-92.8581 196.964,-85.3982 233.47,-79.5449"/>
<polygon fill="#8b1a1a" stroke="#8b1a1a" points="113.566,-95.2252 104.246,-100.264 114.674,-102.137 113.566,-95.2252"/>
</g>
<!-- Node4&#45;&gt;Node2 -->
<g id="edge3" class="edge"><title>Node4&#45;&gt;Node2</title>
<path fill="none" stroke="#9a32cd" stroke-dasharray="5,2" d="M339.978,-105.563C372.33,-103.81 415.929,-101.447 449.136,-99.6478"/>
<polygon fill="#9a32cd" stroke="#9a32cd" points="339.693,-102.073 329.897,-106.109 340.072,-109.063 339.693,-102.073"/>
<text text-anchor="middle" x="395" y="-107" font-family="Helvetica,sans-Serif" font-size="10.00"> m_mutex</text>
</g>
<!-- Node5&#45;&gt;Node2 -->
<g id="edge5" class="edge"><title>Node5&#45;&gt;Node2</title>
<path fill="none" stroke="#9a32cd" stroke-dasharray="5,2" d="M365.134,-79.3282C392.89,-83.0199 424.116,-87.1731 449.319,-90.5252"/>
<polygon fill="#9a32cd" stroke="#9a32cd" points="365.457,-75.8404 355.083,-77.9913 364.534,-82.7793 365.457,-75.8404"/>
<text text-anchor="middle" x="395" y="-89" font-family="Helvetica,sans-Serif" font-size="10.00"> m_cond</text>
</g>
<!-- Node6 -->
<g id="node6" class="node"><title>Node6</title>
<g id="a_node6"><a xlink:href="classstxxl_1_1completion__handler.html" target="_top" xlink:title="Completion handler class (Loki&#45;style). ">
<polygon fill="none" stroke="black" points="435,-41.5 435,-60.5 563,-60.5 563,-41.5 435,-41.5"/>
<text text-anchor="middle" x="499" y="-48.5" font-family="Helvetica,sans-Serif" font-size="10.00">stxxl::completion_handler</text>
</a>
</g>
</g>
<!-- Node6&#45;&gt;Node1 -->
<g id="edge7" class="edge"><title>Node6&#45;&gt;Node1</title>
<path fill="none" stroke="#9a32cd" stroke-dasharray="5,2" d="M573.419,-59.4714C596.686,-62.1561 622.195,-65.0994 644.689,-67.6948"/>
<polygon fill="#9a32cd" stroke="#9a32cd" points="573.589,-55.9679 563.254,-58.2985 572.787,-62.9218 573.589,-55.9679"/>
<text text-anchor="middle" x="604" y="-69" font-family="Helvetica,sans-Serif" font-size="10.00"> on_compl</text>
</g>
<!-- Node7 -->
<g id="node7" class="node"><title>Node7</title>
<g id="a_node7"><a xlink:href="structstxxl_1_1compat__unique__ptr.html" target="_top" xlink:title="stxxl::compat_unique\l_ptr\&lt; stxxl::completion\l_handler_impl \&gt;">
<polygon fill="none" stroke="black" points="236,-0.5 236,-41.5 352,-41.5 352,-0.5 236,-0.5"/>
<text text-anchor="start" x="244" y="-29.5" font-family="Helvetica,sans-Serif" font-size="10.00">stxxl::compat_unique</text>
<text text-anchor="start" x="244" y="-18.5" font-family="Helvetica,sans-Serif" font-size="10.00">_ptr&lt; stxxl::completion</text>
<text text-anchor="middle" x="294" y="-7.5" font-family="Helvetica,sans-Serif" font-size="10.00">_handler_impl &gt;</text>
</a>
</g>
</g>
<!-- Node7&#45;&gt;Node6 -->
<g id="edge8" class="edge"><title>Node7&#45;&gt;Node6</title>
<path fill="none" stroke="#9a32cd" stroke-dasharray="5,2" d="M362.283,-30.9433C385.699,-34.4038 411.867,-38.2711 434.93,-41.6793"/>
<polygon fill="#9a32cd" stroke="#9a32cd" points="362.491,-27.4361 352.087,-29.4365 361.468,-34.3609 362.491,-27.4361"/>
<text text-anchor="middle" x="395" y="-42" font-family="Helvetica,sans-Serif" font-size="10.00"> m_ptr</text>
</g>
<!-- Node8 -->
<g id="node8" class="node"><title>Node8</title>
<g id="a_node8"><a xlink:href="structstxxl_1_1compat__unique__ptr.html" target="_top" xlink:title="stxxl::compat_unique\l_ptr\&lt; Type \&gt;">
<polygon fill="none" stroke="black" points="0,-6 0,-36 110,-36 110,-6 0,-6"/>
<text text-anchor="start" x="8" y="-24" font-family="Helvetica,sans-Serif" font-size="10.00">stxxl::compat_unique</text>
<text text-anchor="middle" x="55" y="-13" font-family="Helvetica,sans-Serif" font-size="10.00">_ptr&lt; Type &gt;</text>
</a>
</g>
</g>
<!-- Node8&#45;&gt;Node7 -->
<g id="edge9" class="edge"><title>Node8&#45;&gt;Node7</title>
<path fill="none" stroke="orange" stroke-dasharray="5,2" d="M120.485,-21C156.532,-21 201.062,-21 235.851,-21"/>
<polygon fill="orange" stroke="orange" points="120.076,-17.5001 110.076,-21 120.075,-24.5001 120.076,-17.5001"/>
<text text-anchor="start" x="128" y="-35" font-family="Helvetica,sans-Serif" font-size="10.00"> &lt; stxxl::completion</text>
<text text-anchor="middle" x="171.5" y="-24" font-family="Helvetica,sans-Serif" font-size="10.00">_handler_impl &gt;</text>
</g>
</g>
</svg>
