<?xml version="1.0" encoding="UTF-8" standalone="no"?>
<!DOCTYPE svg PUBLIC "-//W3C//DTD SVG 1.1//EN"
 "http://www.w3.org/Graphics/SVG/1.1/DTD/svg11.dtd">
<!-- Generated by graphviz version 2.38.0 (20140413.2041)
 -->
<!-- Title: stxxl::mem_file Pages: 1 -->
<svg width="340pt" height="376pt"
 viewBox="0.00 0.00 340.00 376.00" xmlns="http://www.w3.org/2000/svg" xmlns:xlink="http://www.w3.org/1999/xlink">
<g id="graph0" class="graph" transform="scale(1 1) rotate(0) translate(4 372)">
<title>stxxl::mem_file</title>
<!-- Node1 -->
<g id="node1" class="node"><title>Node1</title>
<polygon fill="#bfbfbf" stroke="black" points="50.5,-0.5 50.5,-19.5 133.5,-19.5 133.5,-0.5 50.5,-0.5"/>
<text text-anchor="middle" x="92" y="-7.5" font-family="Helvetica,sans-Serif" font-size="10.00">stxxl::mem_file</text>
</g>
<!-- Node2 -->
<g id="node2" class="node"><title>Node2</title>
<g id="a_node2"><a xlink:href="classstxxl_1_1disk__queued__file.html" target="_top" xlink:title="Implementation of some file methods based on serving_request. ">
<polygon fill="none" stroke="black" points="93,-57.5 93,-76.5 209,-76.5 209,-57.5 93,-57.5"/>
<text text-anchor="middle" x="151" y="-64.5" font-family="Helvetica,sans-Serif" font-size="10.00">stxxl::disk_queued_file</text>
</a>
</g>
</g>
<!-- Node2&#45;&gt;Node1 -->
<g id="edge1" class="edge"><title>Node2&#45;&gt;Node1</title>
<path fill="none" stroke="midnightblue" d="M134.283,-50.4162C123.612,-40.469 110.175,-27.9431 101.349,-19.7149"/>
<polygon fill="midnightblue" stroke="midnightblue" points="132.08,-53.1476 141.781,-57.4062 136.853,-48.0273 132.08,-53.1476"/>
</g>
<!-- Node3 -->
<g id="node3" class="node"><title>Node3</title>
<g id="a_node3"><a xlink:href="classstxxl_1_1file.html" target="_top" xlink:title="Defines interface of file. ">
<polygon fill="none" stroke="black" points="126,-114.5 126,-133.5 182,-133.5 182,-114.5 126,-114.5"/>
<text text-anchor="middle" x="154" y="-121.5" font-family="Helvetica,sans-Serif" font-size="10.00">stxxl::file</text>
</a>
</g>
</g>
<!-- Node3&#45;&gt;Node2 -->
<g id="edge2" class="edge"><title>Node3&#45;&gt;Node2</title>
<path fill="none" stroke="midnightblue" d="M152.97,-104.117C152.463,-94.8173 151.876,-84.0557 151.475,-76.7149"/>
<polygon fill="midnightblue" stroke="midnightblue" points="149.492,-104.612 153.531,-114.406 156.481,-104.23 149.492,-104.612"/>
</g>
<!-- Node4 -->
<g id="node4" class="node"><title>Node4</title>
<g id="a_node4"><a xlink:href="classstxxl_1_1noncopyable.html" target="_top" xlink:title="stxxl::noncopyable">
<polygon fill="none" stroke="black" points="0,-343 0,-362 98,-362 98,-343 0,-343"/>
<text text-anchor="middle" x="49" y="-350" font-family="Helvetica,sans-Serif" font-size="10.00">stxxl::noncopyable</text>
</a>
</g>
</g>
<!-- Node4&#45;&gt;Node3 -->
<g id="edge3" class="edge"><title>Node4&#45;&gt;Node3</title>
<path fill="none" stroke="#8b1a1a" d="M44.7786,-332.924C40.1199,-308.24 35.0953,-263.812 50,-230 69.5598,-185.627 116.924,-149.542 140.377,-133.694"/>
<polygon fill="#8b1a1a" stroke="#8b1a1a" points="41.3622,-333.686 46.8205,-342.767 48.2163,-332.265 41.3622,-333.686"/>
</g>
<!-- Node6 -->
<g id="node6" class="node"><title>Node6</title>
<g id="a_node6"><a xlink:href="classstxxl_1_1mutex.html" target="_top" xlink:title="stxxl::mutex">
<polygon fill="none" stroke="black" points="54.5,-265 54.5,-284 125.5,-284 125.5,-265 54.5,-265"/>
<text text-anchor="middle" x="90" y="-272" font-family="Helvetica,sans-Serif" font-size="10.00">stxxl::mutex</text>
</a>
</g>
</g>
<!-- Node4&#45;&gt;Node6 -->
<g id="edge6" class="edge"><title>Node4&#45;&gt;Node6</title>
<path fill="none" stroke="#8b1a1a" d="M58.6449,-333.622C67.0563,-318.03 78.8943,-296.086 85.3516,-284.116"/>
<polygon fill="#8b1a1a" stroke="#8b1a1a" points="55.3708,-332.319 53.7032,-342.782 61.5315,-335.643 55.3708,-332.319"/>
</g>
<!-- Node5 -->
<g id="node5" class="node"><title>Node5</title>
<g id="a_node5"><a xlink:href="classstxxl_1_1atomic__counted__object.html" target="_top" xlink:title="Provides reference counting abilities for use with counting_ptr with mutex locking. ">
<polygon fill="none" stroke="black" points="97.5,-181.5 97.5,-211.5 210.5,-211.5 210.5,-181.5 97.5,-181.5"/>
<text text-anchor="start" x="105.5" y="-199.5" font-family="Helvetica,sans-Serif" font-size="10.00">stxxl::atomic_counted</text>
<text text-anchor="middle" x="154" y="-188.5" font-family="Helvetica,sans-Serif" font-size="10.00">_object</text>
</a>
</g>
</g>
<!-- Node5&#45;&gt;Node3 -->
<g id="edge4" class="edge"><title>Node5&#45;&gt;Node3</title>
<path fill="none" stroke="#9a32cd" stroke-dasharray="5,2" d="M154,-171.091C154,-158.214 154,-143.197 154,-133.893"/>
<polygon fill="#9a32cd" stroke="#9a32cd" points="150.5,-171.233 154,-181.233 157.5,-171.233 150.5,-171.233"/>
<text text-anchor="middle" x="187" y="-155" font-family="Helvetica,sans-Serif" font-size="10.00"> m_request_ref</text>
</g>
<!-- Node6&#45;&gt;Node1 -->
<g id="edge9" class="edge"><title>Node6&#45;&gt;Node1</title>
<path fill="none" stroke="#9a32cd" stroke-dasharray="5,2" d="M80.2446,-255.809C72.867,-240.765 64,-218.348 64,-197.5 64,-197.5 64,-197.5 64,-66 64,-47.9992 76.0586,-29.9379 84.3489,-19.6478"/>
<polygon fill="#9a32cd" stroke="#9a32cd" points="77.2704,-257.676 84.9869,-264.935 83.4819,-254.448 77.2704,-257.676"/>
<text text-anchor="middle" x="86" y="-121.5" font-family="Helvetica,sans-Serif" font-size="10.00"> m_mutex</text>
</g>
<!-- Node6&#45;&gt;Node5 -->
<g id="edge5" class="edge"><title>Node6&#45;&gt;Node5</title>
<path fill="none" stroke="#9a32cd" stroke-dasharray="5,2" d="M90.0298,-254.531C90.8705,-246.361 93.0161,-237.079 98,-230 103.371,-222.371 111.146,-216.273 119.201,-211.514"/>
<polygon fill="#9a32cd" stroke="#9a32cd" points="86.5265,-254.519 89.5482,-264.674 93.5186,-254.851 86.5265,-254.519"/>
<text text-anchor="middle" x="157.5" y="-233" font-family="Helvetica,sans-Serif" font-size="10.00"> m_reference_count_mutex</text>
</g>
<!-- Node7 -->
<g id="node7" class="node"><title>Node7</title>
<g id="a_node7"><a xlink:href="structstxxl_1_1choose__int__types.html" target="_top" xlink:title="stxxl::choose_int_types\l\&lt; my_pointer_size \&gt;">
<polygon fill="none" stroke="black" points="179,-259.5 179,-289.5 299,-289.5 299,-259.5 179,-259.5"/>
<text text-anchor="start" x="187" y="-277.5" font-family="Helvetica,sans-Serif" font-size="10.00">stxxl::choose_int_types</text>
<text text-anchor="middle" x="239" y="-266.5" font-family="Helvetica,sans-Serif" font-size="10.00">&lt; my_pointer_size &gt;</text>
</a>
</g>
</g>
<!-- Node7&#45;&gt;Node5 -->
<g id="edge7" class="edge"><title>Node7&#45;&gt;Node5</title>
<path fill="none" stroke="#9a32cd" stroke-dasharray="5,2" d="M230.397,-249.96C227.009,-242.935 222.573,-235.618 217,-230 209.546,-222.486 199.99,-216.353 190.586,-211.52"/>
<polygon fill="#9a32cd" stroke="#9a32cd" points="227.197,-251.378 234.373,-259.173 233.624,-248.604 227.197,-251.378"/>
<text text-anchor="middle" x="269.5" y="-233" font-family="Helvetica,sans-Serif" font-size="10.00"> m_reference_count</text>
</g>
<!-- Node8 -->
<g id="node8" class="node"><title>Node8</title>
<g id="a_node8"><a xlink:href="structstxxl_1_1choose__int__types.html" target="_top" xlink:title="stxxl::choose_int_types\l\&lt; PtrSize \&gt;">
<polygon fill="none" stroke="black" points="179,-337.5 179,-367.5 299,-367.5 299,-337.5 179,-337.5"/>
<text text-anchor="start" x="187" y="-355.5" font-family="Helvetica,sans-Serif" font-size="10.00">stxxl::choose_int_types</text>
<text text-anchor="middle" x="239" y="-344.5" font-family="Helvetica,sans-Serif" font-size="10.00">&lt; PtrSize &gt;</text>
</a>
</g>
</g>
<!-- Node8&#45;&gt;Node7 -->
<g id="edge8" class="edge"><title>Node8&#45;&gt;Node7</title>
<path fill="none" stroke="orange" stroke-dasharray="5,2" d="M239,-327.09C239,-314.757 239,-300.224 239,-289.731"/>
<polygon fill="orange" stroke="orange" points="235.5,-327.205 239,-337.205 242.5,-327.205 235.5,-327.205"/>
<text text-anchor="middle" x="285.5" y="-311" font-family="Helvetica,sans-Serif" font-size="10.00"> &lt; my_pointer_size &gt;</text>
</g>
</g>
</svg>
