<?xml version="1.0" encoding="UTF-8" standalone="no"?>
<!DOCTYPE svg PUBLIC "-//W3C//DTD SVG 1.1//EN"
 "http://www.w3.org/Graphics/SVG/1.1/DTD/svg11.dtd">
<!-- Generated by graphviz version 2.26.3 (20100126.1600)
 -->
<!-- Title: stxxl::parallel::LoserTreeCopy&lt; Stable, ValueType, Comparator &gt; Pages: 1 -->
<svg width="192pt" height="228pt"
 viewBox="0.00 0.00 192.00 228.00" xmlns="http://www.w3.org/2000/svg" xmlns:xlink="http://www.w3.org/1999/xlink">
<g id="graph1" class="graph" transform="scale(1 1) rotate(0) translate(4 224)">
<title>stxxl::parallel::LoserTreeCopy&lt; Stable, ValueType, Comparator &gt;</title>
<!-- Node1 -->
<g id="node1" class="node"><title>Node1</title>
<polygon fill="#bfbfbf" stroke="black" points="26,-0.5 26,-47.5 158,-47.5 158,-0.5 26,-0.5"/>
<text text-anchor="start" x="34" y="-34.5" font-family="Helvetica,sans-Serif" font-size="10.00">stxxl::parallel::LoserTree</text>
<text text-anchor="start" x="34" y="-21.5" font-family="Helvetica,sans-Serif" font-size="10.00">Copy&lt; Stable, ValueType,</text>
<text text-anchor="middle" x="92" y="-8.5" font-family="Helvetica,sans-Serif" font-size="10.00"> Comparator &gt;</text>
</g>
<!-- Node2 -->
<g id="node2" class="node"><title>Node2</title>
<a xlink:href="classstxxl_1_1parallel_1_1LoserTreeCopyBase.html" target="_top" xlink:title="stxxl::parallel::LoserTree\lCopyBase\&lt; ValueType, Comparator \&gt;">
<polygon fill="none" stroke="black" points="0,-87 0,-121 184,-121 184,-87 0,-87"/>
<text text-anchor="start" x="8" y="-108" font-family="Helvetica,sans-Serif" font-size="10.00">stxxl::parallel::LoserTree</text>
<text text-anchor="middle" x="92" y="-95" font-family="Helvetica,sans-Serif" font-size="10.00">CopyBase&lt; ValueType, Comparator &gt;</text>
</a>
</g>
<!-- Node2&#45;&gt;Node1 -->
<g id="edge2" class="edge"><title>Node2&#45;&gt;Node1</title>
<path fill="none" stroke="midnightblue" d="M92,-76.5993C92,-67.2038 92,-56.7754 92,-47.6982"/>
<polygon fill="midnightblue" stroke="midnightblue" points="88.5001,-76.6412 92,-86.6412 95.5001,-76.6412 88.5001,-76.6412"/>
</g>
<!-- Node3 -->
<g id="node4" class="node"><title>Node3</title>
<a xlink:href="structstxxl_1_1parallel_1_1LoserTreeCopyBase_1_1Loser.html" target="_top" xlink:title="Internal representation of a loser tree player/node. ">
<polygon fill="none" stroke="black" points="4.5,-172.5 4.5,-219.5 179.5,-219.5 179.5,-172.5 4.5,-172.5"/>
<text text-anchor="start" x="12.5" y="-206.5" font-family="Helvetica,sans-Serif" font-size="10.00">stxxl::parallel::LoserTree</text>
<text text-anchor="start" x="12.5" y="-193.5" font-family="Helvetica,sans-Serif" font-size="10.00">CopyBase&lt; ValueType, Comparator</text>
<text text-anchor="middle" x="92" y="-180.5" font-family="Helvetica,sans-Serif" font-size="10.00"> &gt;::Loser</text>
</a>
</g>
<!-- Node3&#45;&gt;Node2 -->
<g id="edge4" class="edge"><title>Node3&#45;&gt;Node2</title>
<path fill="none" stroke="#9a32cd" stroke-dasharray="5,2" d="M92,-162.081C92,-148.184 92,-132.702 92,-121.22"/>
<polygon fill="#9a32cd" stroke="#9a32cd" points="88.5001,-162.308 92,-172.308 95.5001,-162.308 88.5001,-162.308"/>
<text text-anchor="middle" x="107" y="-144.5" font-family="Helvetica,sans-Serif" font-size="10.00"> losers</text>
</g>
</g>
</svg>
