<?xml version="1.0" encoding="UTF-8" standalone="no"?>
<!DOCTYPE svg PUBLIC "-//W3C//DTD SVG 1.1//EN"
 "http://www.w3.org/Graphics/SVG/1.1/DTD/svg11.dtd">
<!-- Generated by graphviz version 2.26.3 (20100126.1600)
 -->
<!-- Title: stxxl::vector_bufreader_reverse&lt; VectorIteratorType &gt; Pages: 1 -->
<svg width="1534pt" height="442pt"
 viewBox="0.00 0.00 1534.00 442.00" xmlns="http://www.w3.org/2000/svg" xmlns:xlink="http://www.w3.org/1999/xlink">
<g id="graph1" class="graph" transform="scale(1 1) rotate(0) translate(4 438)">
<title>stxxl::vector_bufreader_reverse&lt; VectorIteratorType &gt;</title>
<!-- Node1 -->
<g id="node1" class="node"><title>Node1</title>
<polygon fill="#bfbfbf" stroke="black" points="1372.5,-379 1372.5,-413 1525.5,-413 1525.5,-379 1372.5,-379"/>
<text text-anchor="start" x="1380.5" y="-400" font-family="Helvetica,sans-Serif" font-size="10.00">stxxl::vector_bufreader</text>
<text text-anchor="middle" x="1449" y="-387" font-family="Helvetica,sans-Serif" font-size="10.00">_reverse&lt; VectorIteratorType &gt;</text>
</g>
<!-- Node2 -->
<g id="node2" class="node"><title>Node2</title>
<a xlink:href="classstxxl_1_1noncopyable.html" target="_top" xlink:title="stxxl::noncopyable">
<polygon fill="none" stroke="black" points="0,-133.5 0,-154.5 98,-154.5 98,-133.5 0,-133.5"/>
<text text-anchor="middle" x="49" y="-141.5" font-family="Helvetica,sans-Serif" font-size="10.00">stxxl::noncopyable</text>
</a>
</g>
<!-- Node2&#45;&gt;Node1 -->
<g id="edge2" class="edge"><title>Node2&#45;&gt;Node1</title>
<path fill="none" stroke="midnightblue" d="M49.8697,-164.751C53.8645,-231.136 75.973,-434 197,-434 197,-434 197,-434 1241,-434 1291.11,-434 1346.92,-423.196 1388.1,-413.11"/>
<polygon fill="midnightblue" stroke="midnightblue" points="53.3599,-164.469 49.3427,-154.665 46.3694,-164.834 53.3599,-164.469"/>
</g>
<!-- Node5 -->
<g id="node8" class="node"><title>Node5</title>
<a xlink:href="classstxxl_1_1buf__istream__reverse.html" target="_top" xlink:title="Buffered input stream, reading the items in the blocks in reverse order. ">
<polygon fill="none" stroke="black" points="1184.5,-216.5 1184.5,-263.5 1297.5,-263.5 1297.5,-216.5 1184.5,-216.5"/>
<text text-anchor="start" x="1192.5" y="-250.5" font-family="Helvetica,sans-Serif" font-size="10.00">stxxl::buf_istream</text>
<text text-anchor="start" x="1192.5" y="-237.5" font-family="Helvetica,sans-Serif" font-size="10.00">_reverse&lt; BlockType,</text>
<text text-anchor="middle" x="1241" y="-224.5" font-family="Helvetica,sans-Serif" font-size="10.00"> BidIteratorType &gt;</text>
</a>
</g>
<!-- Node2&#45;&gt;Node5 -->
<g id="edge10" class="edge"><title>Node2&#45;&gt;Node5</title>
<path fill="none" stroke="#8b1a1a" d="M58.0161,-123.943C77.3367,-84.3614 126.755,-0 197,-0 197,-0 197,-0 1019,-0 1135.92,-0 1208.42,-155.405 1232.28,-216.11"/>
<polygon fill="#8b1a1a" stroke="#8b1a1a" points="54.7614,-122.639 53.6609,-133.177 61.0925,-125.625 54.7614,-122.639"/>
</g>
<!-- Node6 -->
<g id="node11" class="node"><title>Node6</title>
<a xlink:href="classstxxl_1_1block__prefetcher.html" target="_top" xlink:title="Encapsulates asynchronous prefetching engine. ">
<polygon fill="none" stroke="black" points="942,-223 942,-257 1096,-257 1096,-223 942,-223"/>
<text text-anchor="start" x="950" y="-244" font-family="Helvetica,sans-Serif" font-size="10.00">stxxl::block_prefetcher</text>
<text text-anchor="middle" x="1019" y="-231" font-family="Helvetica,sans-Serif" font-size="10.00">&lt; BlockType, BidIteratorType &gt;</text>
</a>
</g>
<!-- Node2&#45;&gt;Node6 -->
<g id="edge14" class="edge"><title>Node2&#45;&gt;Node6</title>
<path fill="none" stroke="#8b1a1a" d="M62.9018,-162.433C86.8056,-191.817 138.776,-246 197,-246 197,-246 197,-246 581,-246 707.431,-246 854.371,-243.47 941.862,-241.695"/>
<polygon fill="#8b1a1a" stroke="#8b1a1a" points="65.6079,-160.212 56.6644,-154.532 60.1136,-164.549 65.6079,-160.212"/>
</g>
<!-- Node7 -->
<g id="node15" class="node"><title>Node7</title>
<a xlink:href="classstxxl_1_1onoff__switch.html" target="_top" xlink:title="stxxl::onoff_switch">
<polygon fill="none" stroke="black" points="406.5,-176.5 406.5,-197.5 505.5,-197.5 505.5,-176.5 406.5,-176.5"/>
<text text-anchor="middle" x="456" y="-184.5" font-family="Helvetica,sans-Serif" font-size="10.00">stxxl::onoff_switch</text>
</a>
</g>
<!-- Node2&#45;&gt;Node7 -->
<g id="edge20" class="edge"><title>Node2&#45;&gt;Node7</title>
<path fill="none" stroke="#8b1a1a" d="M108.11,-142.734C150.02,-142.353 207.547,-142.873 258,-147 311.75,-151.397 325.276,-153.658 378,-165 392.581,-168.137 408.46,-172.448 422.062,-176.423"/>
<polygon fill="#8b1a1a" stroke="#8b1a1a" points="108.035,-139.235 98.0747,-142.845 108.113,-146.234 108.035,-139.235"/>
</g>
<!-- Node8 -->
<g id="node18" class="node"><title>Node8</title>
<a xlink:href="classstxxl_1_1mutex.html" target="_top" xlink:title="stxxl::mutex">
<polygon fill="none" stroke="black" points="161.5,-196.5 161.5,-217.5 232.5,-217.5 232.5,-196.5 161.5,-196.5"/>
<text text-anchor="middle" x="197" y="-204.5" font-family="Helvetica,sans-Serif" font-size="10.00">stxxl::mutex</text>
</a>
</g>
<!-- Node2&#45;&gt;Node8 -->
<g id="edge24" class="edge"><title>Node2&#45;&gt;Node8</title>
<path fill="none" stroke="#8b1a1a" d="M77.5674,-159.402C94.3211,-168.109 116.052,-178.849 136,-187 144.253,-190.373 153.306,-193.591 161.851,-196.421"/>
<polygon fill="#8b1a1a" stroke="#8b1a1a" points="78.8093,-156.101 68.3293,-154.546 75.552,-162.297 78.8093,-156.101"/>
</g>
<!-- Node9 -->
<g id="node21" class="node"><title>Node9</title>
<a xlink:href="classstxxl_1_1condition__variable.html" target="_top" xlink:title="stxxl::condition_variable">
<polygon fill="none" stroke="black" points="136,-156.5 136,-177.5 258,-177.5 258,-156.5 136,-156.5"/>
<text text-anchor="middle" x="197" y="-164.5" font-family="Helvetica,sans-Serif" font-size="10.00">stxxl::condition_variable</text>
</a>
</g>
<!-- Node2&#45;&gt;Node9 -->
<g id="edge28" class="edge"><title>Node2&#45;&gt;Node9</title>
<path fill="none" stroke="#8b1a1a" d="M108.336,-153.221C117.383,-154.627 126.734,-156.08 135.82,-157.492"/>
<polygon fill="#8b1a1a" stroke="#8b1a1a" points="108.701,-149.736 98.2819,-151.659 107.626,-156.653 108.701,-149.736"/>
</g>
<!-- Node15 -->
<g id="node35" class="node"><title>Node15</title>
<a xlink:href="classstxxl_1_1simple__vector.html" target="_top" xlink:title="stxxl::simple_vector\l\&lt; BID\&lt; BlockSize \&gt; \&gt;">
<polygon fill="none" stroke="black" points="399,-55 399,-89 513,-89 513,-55 399,-55"/>
<text text-anchor="start" x="407" y="-76" font-family="Helvetica,sans-Serif" font-size="10.00">stxxl::simple_vector</text>
<text text-anchor="middle" x="456" y="-63" font-family="Helvetica,sans-Serif" font-size="10.00">&lt; BID&lt; BlockSize &gt; &gt;</text>
</a>
</g>
<!-- Node2&#45;&gt;Node15 -->
<g id="edge44" class="edge"><title>Node2&#45;&gt;Node15</title>
<path fill="none" stroke="#8b1a1a" d="M61.2181,-124.811C75.981,-103.613 102.994,-70.6715 136,-57 222.195,-21.2969 332.83,-38.8251 398.865,-55.1528"/>
<polygon fill="#8b1a1a" stroke="#8b1a1a" points="58.1545,-123.095 55.4893,-133.349 63.9674,-126.995 58.1545,-123.095"/>
</g>
<!-- Node16 -->
<g id="node38" class="node"><title>Node16</title>
<a xlink:href="classstxxl_1_1simple__vector.html" target="_top" xlink:title="Simpler non&#45;growing vector without initialization. ">
<polygon fill="none" stroke="black" points="145,-66 145,-100 249,-100 249,-66 145,-66"/>
<text text-anchor="start" x="153" y="-87" font-family="Helvetica,sans-Serif" font-size="10.00">stxxl::simple_vector</text>
<text text-anchor="middle" x="197" y="-74" font-family="Helvetica,sans-Serif" font-size="10.00">&lt; ValueType &gt;</text>
</a>
</g>
<!-- Node2&#45;&gt;Node16 -->
<g id="edge48" class="edge"><title>Node2&#45;&gt;Node16</title>
<path fill="none" stroke="#8b1a1a" d="M81.0636,-129.209C92.0809,-124.243 104.528,-118.759 116,-114 127.265,-109.326 139.511,-104.507 150.989,-100.102"/>
<polygon fill="#8b1a1a" stroke="#8b1a1a" points="79.4696,-126.089 71.8103,-133.409 82.3628,-132.463 79.4696,-126.089"/>
</g>
<!-- Node3 -->
<g id="node4" class="node"><title>Node3</title>
<a xlink:href="structstxxl_1_1choose__int__types.html" target="_top" xlink:title="stxxl::choose_int_types\l\&lt; my_pointer_size \&gt;">
<polygon fill="none" stroke="black" points="659,-346 659,-380 779,-380 779,-346 659,-346"/>
<text text-anchor="start" x="667" y="-367" font-family="Helvetica,sans-Serif" font-size="10.00">stxxl::choose_int_types</text>
<text text-anchor="middle" x="719" y="-354" font-family="Helvetica,sans-Serif" font-size="10.00">&lt; my_pointer_size &gt;</text>
</a>
</g>
<!-- Node3&#45;&gt;Node1 -->
<g id="edge4" class="edge"><title>Node3&#45;&gt;Node1</title>
<path fill="none" stroke="#9a32cd" stroke-dasharray="5,2" d="M789.373,-367.806C796.341,-368.232 803.308,-368.638 810,-369 1012.9,-379.974 1252.25,-389.056 1372.25,-393.343"/>
<polygon fill="#9a32cd" stroke="#9a32cd" points="789.394,-364.3 779.196,-367.17 788.958,-371.287 789.394,-364.3"/>
<text text-anchor="middle" x="1140" y="-389" font-family="Helvetica,sans-Serif" font-size="10.00"> m_nbuffers</text>
</g>
<!-- Node3&#45;&gt;Node5 -->
<g id="edge38" class="edge"><title>Node3&#45;&gt;Node5</title>
<path fill="none" stroke="#9a32cd" stroke-dasharray="5,2" d="M789.357,-362.748C829.205,-361.474 879.774,-357.951 924,-349 1018.97,-329.779 1124.5,-289.453 1186.68,-263.605"/>
<polygon fill="#9a32cd" stroke="#9a32cd" points="789.105,-359.254 779.206,-363.032 789.3,-366.251 789.105,-359.254"/>
<text text-anchor="middle" x="1019" y="-348" font-family="Helvetica,sans-Serif" font-size="10.00"> current_elem</text>
</g>
<!-- Node3&#45;&gt;Node6 -->
<g id="edge16" class="edge"><title>Node3&#45;&gt;Node6</title>
<path fill="none" stroke="#9a32cd" stroke-dasharray="5,2" d="M752.188,-340.117C768.88,-329.55 789.813,-317.673 810,-310 858.315,-291.635 875.089,-303.713 924,-287 946.811,-279.206 971.152,-267.081 989.485,-257.099"/>
<polygon fill="#9a32cd" stroke="#9a32cd" points="749.875,-337.445 743.383,-345.817 753.679,-343.321 749.875,-337.445"/>
<text text-anchor="middle" x="867" y="-340" font-family="Helvetica,sans-Serif" font-size="10.00"> seq_length</text>
<text text-anchor="middle" x="867" y="-327" font-family="Helvetica,sans-Serif" font-size="10.00">nextconsume</text>
<text text-anchor="middle" x="867" y="-314" font-family="Helvetica,sans-Serif" font-size="10.00">nextread</text>
</g>
<!-- Node4 -->
<g id="node6" class="node"><title>Node4</title>
<a xlink:href="structstxxl_1_1choose__int__types.html" target="_top" xlink:title="stxxl::choose_int_types\l\&lt; PtrSize \&gt;">
<polygon fill="none" stroke="black" points="396,-346 396,-380 516,-380 516,-346 396,-346"/>
<text text-anchor="start" x="404" y="-367" font-family="Helvetica,sans-Serif" font-size="10.00">stxxl::choose_int_types</text>
<text text-anchor="middle" x="456" y="-354" font-family="Helvetica,sans-Serif" font-size="10.00">&lt; PtrSize &gt;</text>
</a>
</g>
<!-- Node4&#45;&gt;Node3 -->
<g id="edge6" class="edge"><title>Node4&#45;&gt;Node3</title>
<path fill="none" stroke="orange" stroke-dasharray="5,2" d="M526.017,-363C567.397,-363 619.258,-363 658.795,-363"/>
<polygon fill="orange" stroke="orange" points="526.008,-359.5 516.008,-363 526.008,-366.5 526.008,-359.5"/>
<text text-anchor="middle" x="581" y="-367" font-family="Helvetica,sans-Serif" font-size="10.00"> &lt; my_pointer_size &gt;</text>
</g>
<!-- Node5&#45;&gt;Node1 -->
<g id="edge8" class="edge"><title>Node5&#45;&gt;Node1</title>
<path fill="none" stroke="#9a32cd" stroke-dasharray="5,2" d="M1280.6,-269.702C1323.69,-302.018 1391.09,-352.57 1426.13,-378.845"/>
<polygon fill="#9a32cd" stroke="#9a32cd" points="1282.69,-266.893 1272.59,-263.693 1278.49,-272.493 1282.69,-266.893"/>
<text text-anchor="middle" x="1335" y="-326" font-family="Helvetica,sans-Serif" font-size="10.00"> m_bufin</text>
</g>
<!-- Node6&#45;&gt;Node5 -->
<g id="edge12" class="edge"><title>Node6&#45;&gt;Node5</title>
<path fill="none" stroke="#9a32cd" stroke-dasharray="5,2" d="M1106.36,-240C1132.61,-240 1160.71,-240 1184.41,-240"/>
<polygon fill="#9a32cd" stroke="#9a32cd" points="1106.02,-236.5 1096.02,-240 1106.02,-243.5 1106.02,-236.5"/>
<text text-anchor="middle" x="1140" y="-244" font-family="Helvetica,sans-Serif" font-size="10.00"> prefetcher</text>
</g>
<!-- Node7&#45;&gt;Node6 -->
<g id="edge18" class="edge"><title>Node7&#45;&gt;Node6</title>
<path fill="none" stroke="#9a32cd" stroke-dasharray="5,2" d="M515.813,-190.77C604.917,-196.661 777.722,-209.144 924,-226 929.797,-226.668 935.784,-227.415 941.801,-228.207"/>
<polygon fill="#9a32cd" stroke="#9a32cd" points="515.837,-187.264 505.629,-190.101 515.378,-194.249 515.837,-187.264"/>
<text text-anchor="middle" x="719" y="-216" font-family="Helvetica,sans-Serif" font-size="10.00"> completed</text>
</g>
<!-- Node8&#45;&gt;Node7 -->
<g id="edge22" class="edge"><title>Node8&#45;&gt;Node7</title>
<path fill="none" stroke="#9a32cd" stroke-dasharray="5,2" d="M242.719,-203.47C288.649,-199.923 359.215,-194.474 406.458,-190.826"/>
<polygon fill="#9a32cd" stroke="#9a32cd" points="242.442,-199.98 232.741,-204.24 242.981,-206.96 242.442,-199.98"/>
<text text-anchor="middle" x="327" y="-204" font-family="Helvetica,sans-Serif" font-size="10.00"> m_mutex</text>
</g>
<!-- Node9&#45;&gt;Node7 -->
<g id="edge26" class="edge"><title>Node9&#45;&gt;Node7</title>
<path fill="none" stroke="#9a32cd" stroke-dasharray="5,2" d="M268.378,-169.06C301.732,-170.404 341.952,-172.569 378,-176 387.121,-176.868 396.811,-178.035 406.147,-179.286"/>
<polygon fill="#9a32cd" stroke="#9a32cd" points="268.387,-165.558 258.259,-168.669 268.117,-172.553 268.387,-165.558"/>
<text text-anchor="middle" x="327" y="-180" font-family="Helvetica,sans-Serif" font-size="10.00"> m_cond</text>
</g>
<!-- Node10 -->
<g id="node24" class="node"><title>Node10</title>
<a xlink:href="classstxxl_1_1counting__ptr.html" target="_top" xlink:title="High&#45;performance smart pointer used as a wrapping reference counting pointer. ">
<polygon fill="none" stroke="black" points="670.5,-135 670.5,-169 767.5,-169 767.5,-135 670.5,-135"/>
<text text-anchor="start" x="678.5" y="-156" font-family="Helvetica,sans-Serif" font-size="10.00">stxxl::counting_ptr</text>
<text text-anchor="middle" x="719" y="-143" font-family="Helvetica,sans-Serif" font-size="10.00">&lt; Type &gt;</text>
</a>
</g>
<!-- Node10&#45;&gt;Node6 -->
<g id="edge30" class="edge"><title>Node10&#45;&gt;Node6</title>
<path fill="none" stroke="#9a32cd" stroke-dasharray="5,2" d="M777.712,-152.487C819.624,-154.486 876.715,-160.622 924,-178 952.099,-188.327 980.321,-208.248 998.615,-222.729"/>
<polygon fill="#9a32cd" stroke="#9a32cd" points="777.804,-148.988 767.668,-152.073 777.515,-155.982 777.804,-148.988"/>
<text text-anchor="middle" x="867" y="-182" font-family="Helvetica,sans-Serif" font-size="10.00"> read_reqs</text>
</g>
<!-- Node11 -->
<g id="node26" class="node"><title>Node11</title>
<a xlink:href="classstxxl_1_1completion__handler.html" target="_top" xlink:title="Completion handler class (Loki&#45;style). ">
<polygon fill="none" stroke="black" points="655,-278.5 655,-299.5 783,-299.5 783,-278.5 655,-278.5"/>
<text text-anchor="middle" x="719" y="-286.5" font-family="Helvetica,sans-Serif" font-size="10.00">stxxl::completion_handler</text>
</a>
</g>
<!-- Node11&#45;&gt;Node6 -->
<g id="edge32" class="edge"><title>Node11&#45;&gt;Node6</title>
<path fill="none" stroke="#9a32cd" stroke-dasharray="5,2" d="M792.566,-276.86C798.464,-275.891 804.331,-274.928 810,-274 853.534,-266.871 902.178,-258.955 941.575,-252.556"/>
<polygon fill="#9a32cd" stroke="#9a32cd" points="791.939,-273.416 782.639,-278.493 793.074,-280.323 791.939,-273.416"/>
<text text-anchor="middle" x="867" y="-278" font-family="Helvetica,sans-Serif" font-size="10.00"> do_after_fetch</text>
</g>
<!-- Node12 -->
<g id="node28" class="node"><title>Node12</title>
<a xlink:href="structstxxl_1_1compat__unique__ptr.html" target="_top" xlink:title="stxxl::compat_unique\l_ptr\&lt; stxxl::completion\l_handler_impl \&gt;">
<polygon fill="none" stroke="black" points="398,-274.5 398,-321.5 514,-321.5 514,-274.5 398,-274.5"/>
<text text-anchor="start" x="406" y="-308.5" font-family="Helvetica,sans-Serif" font-size="10.00">stxxl::compat_unique</text>
<text text-anchor="start" x="406" y="-295.5" font-family="Helvetica,sans-Serif" font-size="10.00">_ptr&lt; stxxl::completion</text>
<text text-anchor="middle" x="456" y="-282.5" font-family="Helvetica,sans-Serif" font-size="10.00">_handler_impl &gt;</text>
</a>
</g>
<!-- Node12&#45;&gt;Node11 -->
<g id="edge34" class="edge"><title>Node12&#45;&gt;Node11</title>
<path fill="none" stroke="#9a32cd" stroke-dasharray="5,2" d="M524.043,-295.672C564.318,-294.293 615.039,-292.558 654.649,-291.202"/>
<polygon fill="#9a32cd" stroke="#9a32cd" points="523.916,-292.174 514.042,-296.014 524.156,-299.17 523.916,-292.174"/>
<text text-anchor="middle" x="581" y="-299" font-family="Helvetica,sans-Serif" font-size="10.00"> m_ptr</text>
</g>
<!-- Node13 -->
<g id="node30" class="node"><title>Node13</title>
<a xlink:href="structstxxl_1_1compat__unique__ptr.html" target="_top" xlink:title="stxxl::compat_unique\l_ptr\&lt; Type \&gt;">
<polygon fill="none" stroke="black" points="142,-281 142,-315 252,-315 252,-281 142,-281"/>
<text text-anchor="start" x="150" y="-302" font-family="Helvetica,sans-Serif" font-size="10.00">stxxl::compat_unique</text>
<text text-anchor="middle" x="197" y="-289" font-family="Helvetica,sans-Serif" font-size="10.00">_ptr&lt; Type &gt;</text>
</a>
</g>
<!-- Node13&#45;&gt;Node12 -->
<g id="edge36" class="edge"><title>Node13&#45;&gt;Node12</title>
<path fill="none" stroke="orange" stroke-dasharray="5,2" d="M262.292,-298C303.947,-298 357.469,-298 397.694,-298"/>
<polygon fill="orange" stroke="orange" points="262.244,-294.5 252.244,-298 262.244,-301.5 262.244,-294.5"/>
<text text-anchor="start" x="283.5" y="-315" font-family="Helvetica,sans-Serif" font-size="10.00"> &lt; stxxl::completion</text>
<text text-anchor="middle" x="327" y="-302" font-family="Helvetica,sans-Serif" font-size="10.00">_handler_impl &gt;</text>
</g>
<!-- Node14 -->
<g id="node33" class="node"><title>Node14</title>
<a xlink:href="classstxxl_1_1BIDArray.html" target="_top" xlink:title="stxxl::BIDArray\&lt; block\l_type::raw_size \&gt;">
<polygon fill="none" stroke="black" points="961,-89 961,-123 1077,-123 1077,-89 961,-89"/>
<text text-anchor="start" x="969" y="-110" font-family="Helvetica,sans-Serif" font-size="10.00">stxxl::BIDArray&lt; block</text>
<text text-anchor="middle" x="1019" y="-97" font-family="Helvetica,sans-Serif" font-size="10.00">_type::raw_size &gt;</text>
</a>
</g>
<!-- Node14&#45;&gt;Node5 -->
<g id="edge40" class="edge"><title>Node14&#45;&gt;Node5</title>
<path fill="none" stroke="#9a32cd" stroke-dasharray="5,2" d="M1056.29,-128.508C1096.61,-152.846 1160.61,-191.476 1201.7,-216.277"/>
<polygon fill="#9a32cd" stroke="#9a32cd" points="1057.94,-125.415 1047.57,-123.244 1054.32,-131.408 1057.94,-125.415"/>
<text text-anchor="middle" x="1140" y="-196" font-family="Helvetica,sans-Serif" font-size="10.00"> bids_</text>
</g>
<!-- Node15&#45;&gt;Node14 -->
<g id="edge42" class="edge"><title>Node15&#45;&gt;Node14</title>
<path fill="none" stroke="midnightblue" d="M523.245,-73.8874C591.11,-76.0073 698.9,-79.9623 792,-86 849.443,-89.7252 914.917,-95.6766 960.738,-100.12"/>
<polygon fill="midnightblue" stroke="midnightblue" points="523.219,-70.385 513.116,-73.5754 523.003,-77.3817 523.219,-70.385"/>
</g>
<!-- Node17 -->
<g id="node41" class="node"><title>Node17</title>
<a xlink:href="classstxxl_1_1BIDArray.html" target="_top" xlink:title="stxxl::BIDArray\&lt; BlockSize \&gt;">
<polygon fill="none" stroke="black" points="646,-95.5 646,-116.5 792,-116.5 792,-95.5 646,-95.5"/>
<text text-anchor="middle" x="719" y="-103.5" font-family="Helvetica,sans-Serif" font-size="10.00">stxxl::BIDArray&lt; BlockSize &gt;</text>
</a>
</g>
<!-- Node15&#45;&gt;Node17 -->
<g id="edge52" class="edge"><title>Node15&#45;&gt;Node17</title>
<path fill="none" stroke="midnightblue" d="M523.349,-80.7067C560.713,-85.537 607.229,-91.5505 645.53,-96.5019"/>
<polygon fill="midnightblue" stroke="midnightblue" points="523.433,-77.1886 513.067,-79.3775 522.536,-84.1308 523.433,-77.1886"/>
</g>
<!-- Node16&#45;&gt;Node15 -->
<g id="edge46" class="edge"><title>Node16&#45;&gt;Node15</title>
<path fill="none" stroke="orange" stroke-dasharray="5,2" d="M259.293,-80.3543C301.655,-78.5552 357.288,-76.1924 398.578,-74.4388"/>
<polygon fill="orange" stroke="orange" points="258.943,-76.8659 249.101,-80.7872 259.24,-83.8596 258.943,-76.8659"/>
<text text-anchor="middle" x="327" y="-83" font-family="Helvetica,sans-Serif" font-size="10.00"> &lt; BID&lt; BlockSize &gt; &gt;</text>
</g>
<!-- Node17&#45;&gt;Node14 -->
<g id="edge50" class="edge"><title>Node17&#45;&gt;Node14</title>
<path fill="none" stroke="orange" stroke-dasharray="5,2" d="M802.232,-106C852.634,-106 915.672,-106 960.755,-106"/>
<polygon fill="orange" stroke="orange" points="802.005,-102.5 792.005,-106 802.005,-109.5 802.005,-102.5"/>
<text text-anchor="middle" x="867" y="-110" font-family="Helvetica,sans-Serif" font-size="10.00"> &lt; block_type::raw_size &gt;</text>
</g>
</g>
</svg>
