<?xml version="1.0" encoding="UTF-8" standalone="no"?>
<!DOCTYPE svg PUBLIC "-//W3C//DTD SVG 1.1//EN"
 "http://www.w3.org/Graphics/SVG/1.1/DTD/svg11.dtd">
<!-- Generated by graphviz version 2.26.3 (20100126.1600)
 -->
<!-- Title: stxxl::request_queue_impl_qwqr Pages: 1 -->
<svg width="1002pt" height="276pt"
 viewBox="0.00 0.00 1002.00 275.79" xmlns="http://www.w3.org/2000/svg" xmlns:xlink="http://www.w3.org/1999/xlink">
<g id="graph1" class="graph" transform="scale(1 1) rotate(0) translate(4 271.786)">
<title>stxxl::request_queue_impl_qwqr</title>
<!-- Node1 -->
<g id="node1" class="node"><title>Node1</title>
<polygon fill="#bfbfbf" stroke="black" points="886.5,-163.786 886.5,-197.786 993.5,-197.786 993.5,-163.786 886.5,-163.786"/>
<text text-anchor="start" x="894.5" y="-184.786" font-family="Helvetica,sans-Serif" font-size="10.00">stxxl::request_queue</text>
<text text-anchor="middle" x="940" y="-171.786" font-family="Helvetica,sans-Serif" font-size="10.00">_impl_qwqr</text>
</g>
<!-- Node2 -->
<g id="node2" class="node"><title>Node2</title>
<a xlink:href="classstxxl_1_1request__queue__impl__worker.html" target="_top" xlink:title="Implementation of request queue worker threads. Worker threads can be started by start_thread and sto...">
<polygon fill="none" stroke="black" points="550.5,-233.786 550.5,-267.786 657.5,-267.786 657.5,-233.786 550.5,-233.786"/>
<text text-anchor="start" x="558.5" y="-254.786" font-family="Helvetica,sans-Serif" font-size="10.00">stxxl::request_queue</text>
<text text-anchor="middle" x="604" y="-241.786" font-family="Helvetica,sans-Serif" font-size="10.00">_impl_worker</text>
</a>
</g>
<!-- Node2&#45;&gt;Node1 -->
<g id="edge2" class="edge"><title>Node2&#45;&gt;Node1</title>
<path fill="none" stroke="midnightblue" d="M667.806,-248.049C722.034,-244.378 801.449,-235.801 868,-215.786 882.508,-211.423 897.714,-204.43 910.394,-197.838"/>
<polygon fill="midnightblue" stroke="midnightblue" points="667.401,-244.568 657.645,-248.7 667.849,-251.554 667.401,-244.568"/>
</g>
<!-- Node3 -->
<g id="node4" class="node"><title>Node3</title>
<a xlink:href="classstxxl_1_1request__queue.html" target="_top" xlink:title="Interface of a request_queue to which requests can be added and canceled. ">
<polygon fill="none" stroke="black" points="276.5,-244.286 276.5,-265.286 383.5,-265.286 383.5,-244.286 276.5,-244.286"/>
<text text-anchor="middle" x="330" y="-252.286" font-family="Helvetica,sans-Serif" font-size="10.00">stxxl::request_queue</text>
</a>
</g>
<!-- Node3&#45;&gt;Node2 -->
<g id="edge4" class="edge"><title>Node3&#45;&gt;Node2</title>
<path fill="none" stroke="midnightblue" d="M393.978,-253.852C441.463,-253.158 505.485,-252.224 550.316,-251.569"/>
<polygon fill="midnightblue" stroke="midnightblue" points="393.754,-250.355 383.807,-254 393.857,-257.354 393.754,-250.355"/>
</g>
<!-- Node4 -->
<g id="node6" class="node"><title>Node4</title>
<a xlink:href="classstxxl_1_1noncopyable.html" target="_top" xlink:title="stxxl::noncopyable">
<polygon fill="none" stroke="black" points="0,-94.2857 0,-115.286 98,-115.286 98,-94.2857 0,-94.2857"/>
<text text-anchor="middle" x="49" y="-102.286" font-family="Helvetica,sans-Serif" font-size="10.00">stxxl::noncopyable</text>
</a>
</g>
<!-- Node4&#45;&gt;Node3 -->
<g id="edge6" class="edge"><title>Node4&#45;&gt;Node3</title>
<path fill="none" stroke="#8b1a1a" d="M52.8678,-125.105C59.7646,-155.159 77.2661,-210.71 116,-236.786 163.166,-268.538 230.079,-268.848 276.474,-263.908"/>
<polygon fill="#8b1a1a" stroke="#8b1a1a" points="56.2845,-124.345 50.7869,-115.288 49.4366,-125.796 56.2845,-124.345"/>
</g>
<!-- Node5 -->
<g id="node8" class="node"><title>Node5</title>
<a xlink:href="classstxxl_1_1mutex.html" target="_top" xlink:title="stxxl::mutex">
<polygon fill="none" stroke="black" points="161.5,-126.286 161.5,-147.286 232.5,-147.286 232.5,-126.286 161.5,-126.286"/>
<text text-anchor="middle" x="197" y="-134.286" font-family="Helvetica,sans-Serif" font-size="10.00">stxxl::mutex</text>
</a>
</g>
<!-- Node4&#45;&gt;Node5 -->
<g id="edge10" class="edge"><title>Node4&#45;&gt;Node5</title>
<path fill="none" stroke="#8b1a1a" d="M107.769,-117.493C125.874,-121.407 145.25,-125.596 161.305,-129.068"/>
<polygon fill="#8b1a1a" stroke="#8b1a1a" points="108.385,-114.045 97.8709,-115.352 106.905,-120.887 108.385,-114.045"/>
</g>
<!-- Node6 -->
<g id="node11" class="node"><title>Node6</title>
<a xlink:href="classstxxl_1_1state.html" target="_top" xlink:title="stxxl::state\&lt; thread\l_state \&gt;">
<polygon fill="none" stroke="black" points="676.5,-28.7857 676.5,-62.7857 777.5,-62.7857 777.5,-28.7857 676.5,-28.7857"/>
<text text-anchor="start" x="684.5" y="-49.7857" font-family="Helvetica,sans-Serif" font-size="10.00">stxxl::state&lt; thread</text>
<text text-anchor="middle" x="727" y="-36.7857" font-family="Helvetica,sans-Serif" font-size="10.00">_state &gt;</text>
</a>
</g>
<!-- Node4&#45;&gt;Node6 -->
<g id="edge14" class="edge"><title>Node4&#45;&gt;Node6</title>
<path fill="none" stroke="#8b1a1a" d="M58.9419,-84.9537C72.5162,-60.3739 99.4081,-19.6694 136,-2.7857 144.272,1.03092 331.274,0.723847 532,-4.7857 588.042,-6.32395 603.799,3.54614 658,-10.7857 672.544,-14.6315 687.569,-21.8114 699.871,-28.672"/>
<polygon fill="#8b1a1a" stroke="#8b1a1a" points="55.6898,-83.6158 54.099,-94.0906 61.8747,-86.8941 55.6898,-83.6158"/>
</g>
<!-- Node7 -->
<g id="node15" class="node"><title>Node7</title>
<a xlink:href="classstxxl_1_1condition__variable.html" target="_top" xlink:title="stxxl::condition_variable">
<polygon fill="none" stroke="black" points="136,-35.2857 136,-56.2857 258,-56.2857 258,-35.2857 136,-35.2857"/>
<text text-anchor="middle" x="197" y="-43.2857" font-family="Helvetica,sans-Serif" font-size="10.00">stxxl::condition_variable</text>
</a>
</g>
<!-- Node4&#45;&gt;Node7 -->
<g id="edge20" class="edge"><title>Node4&#45;&gt;Node7</title>
<path fill="none" stroke="#8b1a1a" d="M85.0705,-90.4063C111.376,-79.9196 146.446,-65.9392 170.271,-56.4413"/>
<polygon fill="#8b1a1a" stroke="#8b1a1a" points="83.4524,-87.2834 75.4594,-94.2377 86.0446,-93.7857 83.4524,-87.2834"/>
</g>
<!-- Node8 -->
<g id="node18" class="node"><title>Node8</title>
<a xlink:href="classstxxl_1_1state.html" target="_top" xlink:title="stxxl::state\&lt; ValueType \&gt;">
<polygon fill="none" stroke="black" points="402,-35.2857 402,-56.2857 532,-56.2857 532,-35.2857 402,-35.2857"/>
<text text-anchor="middle" x="467" y="-43.2857" font-family="Helvetica,sans-Serif" font-size="10.00">stxxl::state&lt; ValueType &gt;</text>
</a>
</g>
<!-- Node4&#45;&gt;Node8 -->
<g id="edge24" class="edge"><title>Node4&#45;&gt;Node8</title>
<path fill="none" stroke="#8b1a1a" d="M62.5678,-86.1458C77.8951,-66.8369 104.808,-37.8346 136,-25.7857 238.848,13.9423 274.38,-19.9734 384,-31.7857 392.427,-32.6938 401.296,-33.909 409.974,-35.2456"/>
<polygon fill="#8b1a1a" stroke="#8b1a1a" points="59.6702,-84.1728 56.367,-94.2396 65.2269,-88.4299 59.6702,-84.1728"/>
</g>
<!-- Node9 -->
<g id="node23" class="node"><title>Node9</title>
<a xlink:href="classstxxl_1_1semaphore.html" target="_top" xlink:title="stxxl::semaphore">
<polygon fill="none" stroke="black" points="421,-152.286 421,-173.286 513,-173.286 513,-152.286 421,-152.286"/>
<text text-anchor="middle" x="467" y="-160.286" font-family="Helvetica,sans-Serif" font-size="10.00">stxxl::semaphore</text>
</a>
</g>
<!-- Node4&#45;&gt;Node9 -->
<g id="edge32" class="edge"><title>Node4&#45;&gt;Node9</title>
<path fill="none" stroke="#8b1a1a" d="M71.1168,-121.575C87.9749,-133.453 112.261,-148.66 136,-156.786 232.928,-189.962 355.351,-179.847 420.773,-170.642"/>
<polygon fill="#8b1a1a" stroke="#8b1a1a" points="72.7185,-118.413 62.566,-115.384 68.6135,-124.083 72.7185,-118.413"/>
</g>
<!-- Node5&#45;&gt;Node1 -->
<g id="edge8" class="edge"><title>Node5&#45;&gt;Node1</title>
<path fill="none" stroke="#9a32cd" stroke-dasharray="5,2" d="M223.903,-152.404C238.764,-160.245 257.845,-169.06 276,-173.786 330.332,-187.929 345.914,-180.273 402,-182.786 608.915,-192.057 661.12,-197.819 868,-187.786 873.896,-187.5 880.054,-187.083 886.178,-186.593"/>
<polygon fill="#9a32cd" stroke="#9a32cd" points="225.255,-149.155 214.799,-147.446 221.906,-155.302 225.255,-149.155"/>
<text text-anchor="middle" x="604" y="-209.786" font-family="Helvetica,sans-Serif" font-size="10.00"> m_read_mutex</text>
<text text-anchor="middle" x="604" y="-196.786" font-family="Helvetica,sans-Serif" font-size="10.00">m_write_mutex</text>
</g>
<!-- Node5&#45;&gt;Node6 -->
<g id="edge16" class="edge"><title>Node5&#45;&gt;Node6</title>
<path fill="none" stroke="#9a32cd" stroke-dasharray="5,2" d="M242.897,-135.153C280.874,-133.371 336.151,-129.78 384,-122.786 507.352,-104.754 536.579,-91.0326 658,-62.7857 663.888,-61.4159 670.05,-59.9477 676.165,-58.4689"/>
<polygon fill="#9a32cd" stroke="#9a32cd" points="242.499,-131.668 232.665,-135.61 242.811,-138.661 242.499,-131.668"/>
<text text-anchor="middle" x="467" y="-123.786" font-family="Helvetica,sans-Serif" font-size="10.00"> m_mutex</text>
</g>
<!-- Node5&#45;&gt;Node8 -->
<g id="edge26" class="edge"><title>Node5&#45;&gt;Node8</title>
<path fill="none" stroke="#9a32cd" stroke-dasharray="5,2" d="M213.945,-118.769C228.83,-104.138 251.83,-84.2726 276,-73.7857 298.059,-64.2143 355.403,-56.5754 401.542,-51.7099"/>
<polygon fill="#9a32cd" stroke="#9a32cd" points="211.083,-116.687 206.555,-126.265 216.068,-121.601 211.083,-116.687"/>
<text text-anchor="middle" x="330" y="-77.7857" font-family="Helvetica,sans-Serif" font-size="10.00"> m_mutex</text>
</g>
<!-- Node5&#45;&gt;Node9 -->
<g id="edge34" class="edge"><title>Node5&#45;&gt;Node9</title>
<path fill="none" stroke="#9a32cd" stroke-dasharray="5,2" d="M242.871,-143.647C253.718,-145.138 265.255,-146.617 276,-147.786 325.269,-153.146 381.889,-157.348 420.613,-159.924"/>
<polygon fill="#9a32cd" stroke="#9a32cd" points="243.12,-140.148 232.731,-142.224 242.147,-147.08 243.12,-140.148"/>
<text text-anchor="middle" x="330" y="-160.786" font-family="Helvetica,sans-Serif" font-size="10.00"> m_mutex</text>
</g>
<!-- Node6&#45;&gt;Node1 -->
<g id="edge12" class="edge"><title>Node6&#45;&gt;Node1</title>
<path fill="none" stroke="#9a32cd" stroke-dasharray="5,2" d="M763.483,-68.2728C792.026,-85.9343 832.665,-111.23 868,-133.786 883.351,-143.585 900.422,-154.718 914.088,-163.689"/>
<polygon fill="#9a32cd" stroke="#9a32cd" points="765.009,-65.1014 754.663,-62.8199 761.328,-71.0554 765.009,-65.1014"/>
<text text-anchor="middle" x="832" y="-137.786" font-family="Helvetica,sans-Serif" font-size="10.00"> m_thread_state</text>
</g>
<!-- Node7&#45;&gt;Node6 -->
<g id="edge18" class="edge"><title>Node7&#45;&gt;Node6</title>
<path fill="none" stroke="#9a32cd" stroke-dasharray="5,2" d="M265.6,-33.5186C269.115,-32.9244 272.598,-32.3435 276,-31.7857 388.587,-13.324 418.31,-3.23367 532,-12.7857 581.441,-16.9396 637.196,-26.9182 676.385,-34.8225"/>
<polygon fill="#9a32cd" stroke="#9a32cd" points="264.91,-30.0856 255.643,-35.2203 266.089,-36.9855 264.91,-30.0856"/>
<text text-anchor="middle" x="467" y="-16.7857" font-family="Helvetica,sans-Serif" font-size="10.00"> m_cond</text>
</g>
<!-- Node7&#45;&gt;Node8 -->
<g id="edge28" class="edge"><title>Node7&#45;&gt;Node8</title>
<path fill="none" stroke="#9a32cd" stroke-dasharray="5,2" d="M268.298,-38.2337C270.896,-38.0641 273.47,-37.9135 276,-37.7857 323.939,-35.3646 336.055,-35.4805 384,-37.7857 389.784,-38.0638 395.787,-38.4503 401.799,-38.9045"/>
<polygon fill="#9a32cd" stroke="#9a32cd" points="267.914,-34.7524 258.196,-38.9733 268.425,-41.7337 267.914,-34.7524"/>
<text text-anchor="middle" x="330" y="-41.7857" font-family="Helvetica,sans-Serif" font-size="10.00"> m_cond</text>
</g>
<!-- Node7&#45;&gt;Node9 -->
<g id="edge36" class="edge"><title>Node7&#45;&gt;Node9</title>
<path fill="none" stroke="#9a32cd" stroke-dasharray="5,2" d="M225.419,-61.3596C240.315,-69.3113 258.961,-78.9368 276,-86.7857 330.872,-112.062 345.805,-115.608 402,-137.786 414.146,-142.579 427.613,-147.778 439.124,-152.186"/>
<polygon fill="#9a32cd" stroke="#9a32cd" points="226.691,-58.0692 216.227,-56.4113 223.373,-64.233 226.691,-58.0692"/>
<text text-anchor="middle" x="330" y="-133.786" font-family="Helvetica,sans-Serif" font-size="10.00"> m_cond</text>
</g>
<!-- Node8&#45;&gt;Node6 -->
<g id="edge22" class="edge"><title>Node8&#45;&gt;Node6</title>
<path fill="none" stroke="orange" stroke-dasharray="5,2" d="M542.434,-45.7857C585.518,-45.7857 638.371,-45.7857 676.46,-45.7857"/>
<polygon fill="orange" stroke="orange" points="542.273,-42.2858 532.273,-45.7857 542.273,-49.2858 542.273,-42.2858"/>
<text text-anchor="middle" x="604" y="-49.7857" font-family="Helvetica,sans-Serif" font-size="10.00"> &lt; thread_state &gt;</text>
</g>
<!-- Node9&#45;&gt;Node1 -->
<g id="edge30" class="edge"><title>Node9&#45;&gt;Node1</title>
<path fill="none" stroke="#9a32cd" stroke-dasharray="5,2" d="M523.44,-164.934C615.396,-168.433 796.314,-175.318 886.401,-178.746"/>
<polygon fill="#9a32cd" stroke="#9a32cd" points="523.34,-161.427 513.214,-164.544 523.074,-168.422 523.34,-161.427"/>
<text text-anchor="middle" x="727" y="-177.786" font-family="Helvetica,sans-Serif" font-size="10.00"> m_sem</text>
</g>
</g>
</svg>
