<?xml version="1.0" encoding="UTF-8" standalone="no"?>
<!DOCTYPE svg PUBLIC "-//W3C//DTD SVG 1.1//EN"
 "http://www.w3.org/Graphics/SVG/1.1/DTD/svg11.dtd">
<!-- Generated by graphviz version 2.38.0 (20140413.2041)
 -->
<!-- Title: stxxl::addressable_fifo_queue&lt; KeyType &gt; Pages: 1 -->
<svg width="200pt" height="139pt"
 viewBox="0.00 0.00 200.00 139.00" xmlns="http://www.w3.org/2000/svg" xmlns:xlink="http://www.w3.org/1999/xlink">
<g id="graph0" class="graph" transform="scale(1 1) rotate(0) translate(4 135)">
<title>stxxl::addressable_fifo_queue&lt; KeyType &gt;</title>
<!-- Node1 -->
<g id="node1" class="node"><title>Node1</title>
<polygon fill="#bfbfbf" stroke="black" points="-7.10543e-15,-100.5 -7.10543e-15,-130.5 124,-130.5 124,-100.5 -7.10543e-15,-100.5"/>
<text text-anchor="start" x="8" y="-118.5" font-family="Helvetica,sans-Serif" font-size="10.00">stxxl::addressable</text>
<text text-anchor="middle" x="62" y="-107.5" font-family="Helvetica,sans-Serif" font-size="10.00">_fifo_queue&lt; KeyType &gt;</text>
</g>
<!-- Node2 -->
<g id="node2" class="node"><title>Node2</title>
<g id="a_node2"><a xlink:href="classstxxl_1_1addressable__fifo__queue.html" target="_top" xlink:title="stxxl::addressable\l_fifo_queue\&lt; swappable\l_block_identifier_type \&gt;">
<polygon fill="none" stroke="black" points="1,-0.5 1,-41.5 123,-41.5 123,-0.5 1,-0.5"/>
<text text-anchor="start" x="9" y="-29.5" font-family="Helvetica,sans-Serif" font-size="10.00">stxxl::addressable</text>
<text text-anchor="start" x="9" y="-18.5" font-family="Helvetica,sans-Serif" font-size="10.00">_fifo_queue&lt; swappable</text>
<text text-anchor="middle" x="62" y="-7.5" font-family="Helvetica,sans-Serif" font-size="10.00">_block_identifier_type &gt;</text>
</a>
</g>
</g>
<!-- Node1&#45;&gt;Node2 -->
<g id="edge1" class="edge"><title>Node1&#45;&gt;Node2</title>
<path fill="none" stroke="orange" stroke-dasharray="5,2" d="M62,-90.2821C62,-75.1384 62,-55.8824 62,-41.6823"/>
<polygon fill="orange" stroke="orange" points="58.5001,-90.4512 62,-100.451 65.5001,-90.4513 58.5001,-90.4512"/>
<text text-anchor="start" x="62" y="-74" font-family="Helvetica,sans-Serif" font-size="10.00"> &lt; swappable_block_identifier</text>
<text text-anchor="middle" x="127" y="-63" font-family="Helvetica,sans-Serif" font-size="10.00">_type &gt;</text>
</g>
</g>
</svg>
