<?xml version="1.0" encoding="UTF-8" standalone="no"?>
<!DOCTYPE svg PUBLIC "-//W3C//DTD SVG 1.1//EN"
 "http://www.w3.org/Graphics/SVG/1.1/DTD/svg11.dtd">
<!-- Generated by graphviz version 2.38.0 (20140413.2041)
 -->
<!-- Title: stxxl::BIDArray&lt; BlockSize &gt; Pages: 1 -->
<svg width="217pt" height="231pt"
 viewBox="0.00 0.00 217.00 231.00" xmlns="http://www.w3.org/2000/svg" xmlns:xlink="http://www.w3.org/1999/xlink">
<g id="graph0" class="graph" transform="scale(1 1) rotate(0) translate(4 227)">
<title>stxxl::BIDArray&lt; BlockSize &gt;</title>
<!-- Node1 -->
<g id="node1" class="node"><title>Node1</title>
<polygon fill="#bfbfbf" stroke="black" points="0,-0.5 0,-19.5 146,-19.5 146,-0.5 0,-0.5"/>
<text text-anchor="middle" x="73" y="-7.5" font-family="Helvetica,sans-Serif" font-size="10.00">stxxl::BIDArray&lt; BlockSize &gt;</text>
</g>
<!-- Node2 -->
<g id="node2" class="node"><title>Node2</title>
<g id="a_node2"><a xlink:href="classstxxl_1_1simple__vector.html" target="_top" xlink:title="stxxl::simple_vector\l\&lt; BID\&lt; BlockSize \&gt; \&gt;">
<polygon fill="none" stroke="black" points="16,-57.5 16,-87.5 130,-87.5 130,-57.5 16,-57.5"/>
<text text-anchor="start" x="24" y="-75.5" font-family="Helvetica,sans-Serif" font-size="10.00">stxxl::simple_vector</text>
<text text-anchor="middle" x="73" y="-64.5" font-family="Helvetica,sans-Serif" font-size="10.00">&lt; BID&lt; BlockSize &gt; &gt;</text>
</a>
</g>
</g>
<!-- Node2&#45;&gt;Node1 -->
<g id="edge1" class="edge"><title>Node2&#45;&gt;Node1</title>
<path fill="none" stroke="midnightblue" d="M73,-47.3524C73,-37.5132 73,-26.7753 73,-19.5399"/>
<polygon fill="midnightblue" stroke="midnightblue" points="69.5001,-47.468 73,-57.468 76.5001,-47.4681 69.5001,-47.468"/>
</g>
<!-- Node3 -->
<g id="node3" class="node"><title>Node3</title>
<g id="a_node3"><a xlink:href="classstxxl_1_1noncopyable.html" target="_top" xlink:title="stxxl::noncopyable">
<polygon fill="none" stroke="black" points="34,-203.5 34,-222.5 132,-222.5 132,-203.5 34,-203.5"/>
<text text-anchor="middle" x="83" y="-210.5" font-family="Helvetica,sans-Serif" font-size="10.00">stxxl::noncopyable</text>
</a>
</g>
</g>
<!-- Node3&#45;&gt;Node2 -->
<g id="edge2" class="edge"><title>Node3&#45;&gt;Node2</title>
<path fill="none" stroke="#8b1a1a" d="M79.6109,-193.122C78.256,-184.829 76.824,-174.959 76,-166 73.4541,-138.32 72.9791,-105.808 72.9387,-87.6362"/>
<polygon fill="#8b1a1a" stroke="#8b1a1a" points="76.203,-193.957 81.3465,-203.219 83.1018,-192.771 76.203,-193.957"/>
</g>
<!-- Node4 -->
<g id="node4" class="node"><title>Node4</title>
<g id="a_node4"><a xlink:href="classstxxl_1_1simple__vector.html" target="_top" xlink:title="Simpler non&#45;growing vector without initialization. ">
<polygon fill="none" stroke="black" points="85,-135.5 85,-165.5 189,-165.5 189,-135.5 85,-135.5"/>
<text text-anchor="start" x="93" y="-153.5" font-family="Helvetica,sans-Serif" font-size="10.00">stxxl::simple_vector</text>
<text text-anchor="middle" x="137" y="-142.5" font-family="Helvetica,sans-Serif" font-size="10.00">&lt; ValueType &gt;</text>
</a>
</g>
</g>
<!-- Node3&#45;&gt;Node4 -->
<g id="edge4" class="edge"><title>Node3&#45;&gt;Node4</title>
<path fill="none" stroke="#8b1a1a" d="M97.4388,-195.823C105.798,-186.458 116.223,-174.778 124.273,-165.759"/>
<polygon fill="#8b1a1a" stroke="#8b1a1a" points="94.7847,-193.541 90.7369,-203.332 100.007,-198.202 94.7847,-193.541"/>
</g>
<!-- Node4&#45;&gt;Node2 -->
<g id="edge3" class="edge"><title>Node4&#45;&gt;Node2</title>
<path fill="none" stroke="orange" stroke-dasharray="5,2" d="M118.311,-127.307C107.554,-114.533 94.3554,-98.8596 84.9839,-87.7309"/>
<polygon fill="orange" stroke="orange" points="115.844,-129.81 124.962,-135.205 121.198,-125.301 115.844,-129.81"/>
<text text-anchor="middle" x="158.5" y="-109" font-family="Helvetica,sans-Serif" font-size="10.00"> &lt; BID&lt; BlockSize &gt; &gt;</text>
</g>
</g>
</svg>
