<?xml version="1.0" encoding="UTF-8" standalone="no"?>
<!DOCTYPE svg PUBLIC "-//W3C//DTD SVG 1.1//EN"
 "http://www.w3.org/Graphics/SVG/1.1/DTD/svg11.dtd">
<!-- Generated by graphviz version 2.26.3 (20100126.1600)
 -->
<!-- Title: stxxl::grow_shrink_stack2&lt; StackConfig &gt; Pages: 1 -->
<svg width="3222pt" height="572pt"
 viewBox="0.00 0.00 3222.00 572.00" xmlns="http://www.w3.org/2000/svg" xmlns:xlink="http://www.w3.org/1999/xlink">
<g id="graph1" class="graph" transform="scale(1 1) rotate(0) translate(4 568)">
<title>stxxl::grow_shrink_stack2&lt; StackConfig &gt;</title>
<!-- Node1 -->
<g id="node1" class="node"><title>Node1</title>
<polygon fill="#bfbfbf" stroke="black" points="3090.5,-310 3090.5,-344 3213.5,-344 3213.5,-310 3090.5,-310"/>
<text text-anchor="start" x="3098.5" y="-331" font-family="Helvetica,sans-Serif" font-size="10.00">stxxl::grow_shrink</text>
<text text-anchor="middle" x="3152" y="-318" font-family="Helvetica,sans-Serif" font-size="10.00">_stack2&lt; StackConfig &gt;</text>
</g>
<!-- Node2 -->
<g id="node2" class="node"><title>Node2</title>
<a xlink:href="classstxxl_1_1noncopyable.html" target="_top" xlink:title="stxxl::noncopyable">
<polygon fill="none" stroke="black" points="28,-356.5 28,-377.5 126,-377.5 126,-356.5 28,-356.5"/>
<text text-anchor="middle" x="77" y="-364.5" font-family="Helvetica,sans-Serif" font-size="10.00">stxxl::noncopyable</text>
</a>
</g>
<!-- Node2&#45;&gt;Node1 -->
<g id="edge2" class="edge"><title>Node2&#45;&gt;Node1</title>
<path fill="none" stroke="#8b1a1a" d="M136.236,-360.621C192.659,-355.102 280.015,-348 356,-348 356,-348 356,-348 2961,-348 3004.37,-348 3052.94,-342.585 3090.26,-337.254"/>
<polygon fill="#8b1a1a" stroke="#8b1a1a" points="135.675,-357.16 126.07,-361.632 136.367,-364.125 135.675,-357.16"/>
</g>
<!-- Node3 -->
<g id="node4" class="node"><title>Node3</title>
<a xlink:href="classstxxl_1_1read__write__pool.html" target="_top" xlink:title="Implements dynamically resizable buffered writing and prefetched reading pool. ">
<polygon fill="none" stroke="black" points="788,-417 788,-451 900,-451 900,-417 788,-417"/>
<text text-anchor="start" x="796" y="-438" font-family="Helvetica,sans-Serif" font-size="10.00">stxxl::read_write_pool</text>
<text text-anchor="middle" x="844" y="-425" font-family="Helvetica,sans-Serif" font-size="10.00">&lt; BlockType &gt;</text>
</a>
</g>
<!-- Node2&#45;&gt;Node3 -->
<g id="edge6" class="edge"><title>Node2&#45;&gt;Node3</title>
<path fill="none" stroke="#8b1a1a" d="M136.129,-378.226C148.007,-380.475 160.401,-382.816 172,-385 288.419,-406.916 316.042,-423.064 434,-434 559.983,-445.68 708.679,-441.14 787.81,-437.274"/>
<polygon fill="#8b1a1a" stroke="#8b1a1a" points="136.779,-374.787 126.303,-376.365 135.476,-381.665 136.779,-374.787"/>
</g>
<!-- Node4 -->
<g id="node7" class="node"><title>Node4</title>
<a xlink:href="classstxxl_1_1prefetch__pool.html" target="_top" xlink:title="Implements dynamically resizable prefetching pool. ">
<polygon fill="none" stroke="black" points="578,-476 578,-510 680,-510 680,-476 578,-476"/>
<text text-anchor="start" x="586" y="-497" font-family="Helvetica,sans-Serif" font-size="10.00">stxxl::prefetch_pool</text>
<text text-anchor="middle" x="629" y="-484" font-family="Helvetica,sans-Serif" font-size="10.00">&lt; BlockType &gt;</text>
</a>
</g>
<!-- Node2&#45;&gt;Node4 -->
<g id="edge10" class="edge"><title>Node2&#45;&gt;Node4</title>
<path fill="none" stroke="#8b1a1a" d="M89.5944,-386.203C105.674,-408.866 135.793,-445.545 172,-462 243.13,-494.326 474.318,-495.291 577.942,-493.993"/>
<polygon fill="#8b1a1a" stroke="#8b1a1a" points="92.3161,-383.984 83.7687,-377.723 86.5465,-387.947 92.3161,-383.984"/>
</g>
<!-- Node9 -->
<g id="node18" class="node"><title>Node9</title>
<a xlink:href="classstxxl_1_1write__pool.html" target="_top" xlink:title="Implements dynamically resizable buffered writing pool. ">
<polygon fill="none" stroke="black" points="447,-363 447,-397 541,-397 541,-363 447,-363"/>
<text text-anchor="start" x="455" y="-384" font-family="Helvetica,sans-Serif" font-size="10.00">stxxl::write_pool&lt;</text>
<text text-anchor="middle" x="494" y="-371" font-family="Helvetica,sans-Serif" font-size="10.00"> BlockType &gt;</text>
</a>
</g>
<!-- Node2&#45;&gt;Node9 -->
<g id="edge22" class="edge"><title>Node2&#45;&gt;Node9</title>
<path fill="none" stroke="#8b1a1a" d="M136.143,-368.844C219.601,-371.446 370.261,-376.142 446.727,-378.526"/>
<polygon fill="#8b1a1a" stroke="#8b1a1a" points="136.166,-365.343 126.061,-368.529 135.947,-372.339 136.166,-365.343"/>
</g>
<!-- Node17 -->
<g id="node36" class="node"><title>Node17</title>
<a xlink:href="classstxxl_1_1file.html" target="_top" xlink:title="Defines interface of file. ">
<polygon fill="none" stroke="black" points="816,-226.5 816,-247.5 872,-247.5 872,-226.5 816,-226.5"/>
<text text-anchor="middle" x="844" y="-234.5" font-family="Helvetica,sans-Serif" font-size="10.00">stxxl::file</text>
</a>
</g>
<!-- Node2&#45;&gt;Node17 -->
<g id="edge42" class="edge"><title>Node2&#45;&gt;Node17</title>
<path fill="none" stroke="#8b1a1a" d="M112.149,-352.891C129.85,-346.276 151.793,-338.809 172,-334 432.859,-271.914 506.158,-301.848 770,-254 785.175,-251.248 801.936,-247.461 815.664,-244.159"/>
<polygon fill="#8b1a1a" stroke="#8b1a1a" points="110.889,-349.625 102.79,-356.456 113.381,-356.167 110.889,-349.625"/>
</g>
<!-- Node19 -->
<g id="node41" class="node"><title>Node19</title>
<a xlink:href="classstxxl_1_1mutex.html" target="_top" xlink:title="stxxl::mutex">
<polygon fill="none" stroke="black" points="320.5,-260.5 320.5,-281.5 391.5,-281.5 391.5,-260.5 320.5,-260.5"/>
<text text-anchor="middle" x="356" y="-268.5" font-family="Helvetica,sans-Serif" font-size="10.00">stxxl::mutex</text>
</a>
</g>
<!-- Node2&#45;&gt;Node19 -->
<g id="edge48" class="edge"><title>Node2&#45;&gt;Node19</title>
<path fill="none" stroke="#8b1a1a" d="M94.6339,-349.389C112.504,-332.692 141.758,-308.375 172,-296 220.783,-276.037 282.307,-271.376 320.399,-270.614"/>
<polygon fill="#8b1a1a" stroke="#8b1a1a" points="92.0599,-347.008 87.2619,-356.454 96.9034,-352.062 92.0599,-347.008"/>
</g>
<!-- Node3&#45;&gt;Node1 -->
<g id="edge4" class="edge"><title>Node3&#45;&gt;Node1</title>
<path fill="none" stroke="#9a32cd" stroke-dasharray="5,2" d="M910.264,-419.177C943.859,-412.896 985.404,-407 1023,-407 1023,-407 1023,-407 2961,-407 3025.53,-407 3093.47,-367.669 3128.31,-344.162"/>
<polygon fill="#9a32cd" stroke="#9a32cd" points="909.265,-415.805 900.107,-421.133 910.588,-422.679 909.265,-415.805"/>
<text text-anchor="middle" x="1944" y="-424" font-family="Helvetica,sans-Serif" font-size="10.00"> owned_pool</text>
<text text-anchor="middle" x="1944" y="-411" font-family="Helvetica,sans-Serif" font-size="10.00">pool</text>
</g>
<!-- Node4&#45;&gt;Node3 -->
<g id="edge8" class="edge"><title>Node4&#45;&gt;Node3</title>
<path fill="none" stroke="#9a32cd" stroke-dasharray="5,2" d="M690.106,-481.586C715.085,-476.398 744.134,-469.692 770,-462 780.533,-458.867 791.709,-454.958 802.099,-451.064"/>
<polygon fill="#9a32cd" stroke="#9a32cd" points="689.13,-478.213 680.032,-483.642 690.53,-485.071 689.13,-478.213"/>
<text text-anchor="middle" x="737" y="-482" font-family="Helvetica,sans-Serif" font-size="10.00"> p_pool</text>
</g>
<!-- Node5 -->
<g id="node10" class="node"><title>Node5</title>
<a xlink:href="structstxxl_1_1choose__int__types.html" target="_top" xlink:title="stxxl::choose_int_types\l\&lt; my_pointer_size \&gt;">
<polygon fill="none" stroke="black" points="296,-208 296,-242 416,-242 416,-208 296,-208"/>
<text text-anchor="start" x="304" y="-229" font-family="Helvetica,sans-Serif" font-size="10.00">stxxl::choose_int_types</text>
<text text-anchor="middle" x="356" y="-216" font-family="Helvetica,sans-Serif" font-size="10.00">&lt; my_pointer_size &gt;</text>
</a>
</g>
<!-- Node5&#45;&gt;Node1 -->
<g id="edge24" class="edge"><title>Node5&#45;&gt;Node1</title>
<path fill="none" stroke="#9a32cd" stroke-dasharray="5,2" d="M370.911,-198.934C406.968,-139.686 505.113,-0 629,-0 629,-0 629,-0 2961,-0 3105.97,-0 3142.91,-242.597 3150.36,-309.879"/>
<polygon fill="#9a32cd" stroke="#9a32cd" points="367.787,-197.338 365.663,-207.718 373.797,-200.929 367.787,-197.338"/>
<text text-anchor="middle" x="1737" y="-17" font-family="Helvetica,sans-Serif" font-size="10.00"> cache_offset</text>
<text text-anchor="middle" x="1737" y="-4" font-family="Helvetica,sans-Serif" font-size="10.00">pref_aggr</text>
</g>
<!-- Node5&#45;&gt;Node4 -->
<g id="edge12" class="edge"><title>Node5&#45;&gt;Node4</title>
<path fill="none" stroke="#9a32cd" stroke-dasharray="5,2" d="M414.531,-249.152C415.038,-249.753 415.528,-250.369 416,-251 455.407,-303.722 395.774,-344.416 434,-398 439.003,-405.013 536.498,-450.545 591.695,-475.942"/>
<polygon fill="#9a32cd" stroke="#9a32cd" points="416.762,-246.446 407.081,-242.141 411.965,-251.543 416.762,-246.446"/>
<text text-anchor="middle" x="494" y="-461" font-family="Helvetica,sans-Serif" font-size="10.00"> free_blocks_size</text>
</g>
<!-- Node18 -->
<g id="node39" class="node"><title>Node18</title>
<a xlink:href="classstxxl_1_1atomic__counted__object.html" target="_top" xlink:title="Provides reference counting abilities for use with counting_ptr with mutex locking. ">
<polygon fill="none" stroke="black" points="572.5,-220 572.5,-254 685.5,-254 685.5,-220 572.5,-220"/>
<text text-anchor="start" x="580.5" y="-241" font-family="Helvetica,sans-Serif" font-size="10.00">stxxl::atomic_counted</text>
<text text-anchor="middle" x="629" y="-228" font-family="Helvetica,sans-Serif" font-size="10.00">_object</text>
</a>
</g>
<!-- Node5&#45;&gt;Node18 -->
<g id="edge50" class="edge"><title>Node5&#45;&gt;Node18</title>
<path fill="none" stroke="#9a32cd" stroke-dasharray="5,2" d="M426.625,-227.632C464.416,-229.097 511.751,-231.02 554,-233 559.992,-233.281 566.251,-233.59 572.49,-233.908"/>
<polygon fill="#9a32cd" stroke="#9a32cd" points="426.358,-224.119 416.231,-227.232 426.089,-231.114 426.358,-224.119"/>
<text text-anchor="middle" x="494" y="-237" font-family="Helvetica,sans-Serif" font-size="10.00"> m_reference_count</text>
</g>
<!-- Node6 -->
<g id="node12" class="node"><title>Node6</title>
<a xlink:href="structstxxl_1_1choose__int__types.html" target="_top" xlink:title="stxxl::choose_int_types\l\&lt; PtrSize \&gt;">
<polygon fill="none" stroke="black" points="17,-208 17,-242 137,-242 137,-208 17,-208"/>
<text text-anchor="start" x="25" y="-229" font-family="Helvetica,sans-Serif" font-size="10.00">stxxl::choose_int_types</text>
<text text-anchor="middle" x="77" y="-216" font-family="Helvetica,sans-Serif" font-size="10.00">&lt; PtrSize &gt;</text>
</a>
</g>
<!-- Node6&#45;&gt;Node5 -->
<g id="edge14" class="edge"><title>Node6&#45;&gt;Node5</title>
<path fill="none" stroke="orange" stroke-dasharray="5,2" d="M147.35,-225C193.165,-225 252.302,-225 295.913,-225"/>
<polygon fill="orange" stroke="orange" points="147.195,-221.5 137.195,-225 147.195,-228.5 147.195,-221.5"/>
<text text-anchor="middle" x="225" y="-229" font-family="Helvetica,sans-Serif" font-size="10.00"> &lt; my_pointer_size &gt;</text>
</g>
<!-- Node7 -->
<g id="node14" class="node"><title>Node7</title>
<a xlink:href="structstxxl_1_1compat__hash__map.html" target="_top" xlink:title="stxxl::compat_hash\l_map\&lt; bid_type, busy\l_entry, bid_hash \&gt;">
<polygon fill="none" stroke="black" points="299.5,-514.5 299.5,-561.5 412.5,-561.5 412.5,-514.5 299.5,-514.5"/>
<text text-anchor="start" x="307.5" y="-548.5" font-family="Helvetica,sans-Serif" font-size="10.00">stxxl::compat_hash</text>
<text text-anchor="start" x="307.5" y="-535.5" font-family="Helvetica,sans-Serif" font-size="10.00">_map&lt; bid_type, busy</text>
<text text-anchor="middle" x="356" y="-522.5" font-family="Helvetica,sans-Serif" font-size="10.00">_entry, bid_hash &gt;</text>
</a>
</g>
<!-- Node7&#45;&gt;Node4 -->
<g id="edge16" class="edge"><title>Node7&#45;&gt;Node4</title>
<path fill="none" stroke="#9a32cd" stroke-dasharray="5,2" d="M422.505,-527.038C470.258,-519.166 533.68,-508.712 577.578,-501.476"/>
<polygon fill="#9a32cd" stroke="#9a32cd" points="421.863,-523.596 412.566,-528.676 423.002,-530.503 421.863,-523.596"/>
<text text-anchor="middle" x="494" y="-528" font-family="Helvetica,sans-Serif" font-size="10.00"> busy_blocks</text>
</g>
<!-- Node8 -->
<g id="node16" class="node"><title>Node8</title>
<a xlink:href="structstxxl_1_1compat__hash__map.html" target="_top" xlink:title="stxxl::compat_hash\l_map\&lt; KeyType, MappedType,\l HashType \&gt;">
<polygon fill="none" stroke="black" points="0,-514.5 0,-561.5 154,-561.5 154,-514.5 0,-514.5"/>
<text text-anchor="start" x="8" y="-548.5" font-family="Helvetica,sans-Serif" font-size="10.00">stxxl::compat_hash</text>
<text text-anchor="start" x="8" y="-535.5" font-family="Helvetica,sans-Serif" font-size="10.00">_map&lt; KeyType, MappedType,</text>
<text text-anchor="middle" x="77" y="-522.5" font-family="Helvetica,sans-Serif" font-size="10.00"> HashType &gt;</text>
</a>
</g>
<!-- Node8&#45;&gt;Node7 -->
<g id="edge18" class="edge"><title>Node8&#45;&gt;Node7</title>
<path fill="none" stroke="orange" stroke-dasharray="5,2" d="M164.478,-538C208.505,-538 260.6,-538 299.336,-538"/>
<polygon fill="orange" stroke="orange" points="164.347,-534.5 154.347,-538 164.347,-541.5 164.347,-534.5"/>
<text text-anchor="start" x="172" y="-555" font-family="Helvetica,sans-Serif" font-size="10.00"> &lt; bid_type, busy_entry,</text>
<text text-anchor="middle" x="225" y="-542" font-family="Helvetica,sans-Serif" font-size="10.00"> bid_hash &gt;</text>
</g>
<!-- Node9&#45;&gt;Node3 -->
<g id="edge20" class="edge"><title>Node9&#45;&gt;Node3</title>
<path fill="none" stroke="#9a32cd" stroke-dasharray="5,2" d="M551.328,-388.845C616.678,-398.928 722.82,-415.304 787.727,-425.318"/>
<polygon fill="#9a32cd" stroke="#9a32cd" points="551.619,-385.349 541.203,-387.283 550.552,-392.267 551.619,-385.349"/>
<text text-anchor="middle" x="629" y="-413" font-family="Helvetica,sans-Serif" font-size="10.00"> w_pool</text>
</g>
<!-- Node10 -->
<g id="node22" class="node"><title>Node10</title>
<a xlink:href="classstxxl_1_1typed__block.html" target="_top" xlink:title="Block containing elements of fixed length. ">
<polygon fill="none" stroke="black" points="2898.5,-268.5 2898.5,-315.5 3023.5,-315.5 3023.5,-268.5 2898.5,-268.5"/>
<text text-anchor="start" x="2906.5" y="-302.5" font-family="Helvetica,sans-Serif" font-size="10.00">stxxl::typed_block</text>
<text text-anchor="start" x="2906.5" y="-289.5" font-family="Helvetica,sans-Serif" font-size="10.00">&lt; RawSize, Type, NRef,</text>
<text text-anchor="middle" x="2961" y="-276.5" font-family="Helvetica,sans-Serif" font-size="10.00"> MetaInfoType &gt;</text>
</a>
</g>
<!-- Node10&#45;&gt;Node1 -->
<g id="edge26" class="edge"><title>Node10&#45;&gt;Node1</title>
<path fill="none" stroke="#9a32cd" stroke-dasharray="5,2" d="M3033.49,-305.284C3052.21,-308.714 3072.19,-312.374 3090.3,-315.693"/>
<polygon fill="#9a32cd" stroke="#9a32cd" points="3034.01,-301.82 3023.54,-303.46 3032.75,-308.706 3034.01,-301.82"/>
<text text-anchor="middle" x="3057" y="-315" font-family="Helvetica,sans-Serif" font-size="10.00"> cache</text>
</g>
<!-- Node11 -->
<g id="node24" class="node"><title>Node11</title>
<a xlink:href="classstxxl_1_1mng__local_1_1expand__struct.html" target="_top" xlink:title="stxxl::mng_local::expand\l_struct\&lt; mng_local::block\l_w_info\&lt; Type, RawSize, NRef,\l MetaInfoType \&gt;, RawSize \&gt;">
<polygon fill="none" stroke="black" points="2700.5,-251 2700.5,-311 2859.5,-311 2859.5,-251 2700.5,-251"/>
<text text-anchor="start" x="2708.5" y="-298" font-family="Helvetica,sans-Serif" font-size="10.00">stxxl::mng_local::expand</text>
<text text-anchor="start" x="2708.5" y="-285" font-family="Helvetica,sans-Serif" font-size="10.00">_struct&lt; mng_local::block</text>
<text text-anchor="start" x="2708.5" y="-272" font-family="Helvetica,sans-Serif" font-size="10.00">_w_info&lt; Type, RawSize, NRef,</text>
<text text-anchor="middle" x="2780" y="-259" font-family="Helvetica,sans-Serif" font-size="10.00"> MetaInfoType &gt;, RawSize &gt;</text>
</a>
</g>
<!-- Node11&#45;&gt;Node10 -->
<g id="edge28" class="edge"><title>Node11&#45;&gt;Node10</title>
<path fill="none" stroke="midnightblue" d="M2869.74,-286.454C2879.45,-287.044 2889.17,-287.634 2898.45,-288.199"/>
<polygon fill="midnightblue" stroke="midnightblue" points="2869.85,-282.954 2859.65,-285.841 2869.42,-289.941 2869.85,-282.954"/>
</g>
<!-- Node12 -->
<g id="node26" class="node"><title>Node12</title>
<a xlink:href="classstxxl_1_1mng__local_1_1add__filler.html" target="_top" xlink:title="stxxl::mng_local::add\l_filler\&lt; mng_local::block\l_w_info\&lt; Type, RawSize,\l NRef, MetaInfoType \&gt;, RawSize\l&#45;sizeof(mng_local::block_w_info\l\&lt; Type, RawSize, NRef, MetaInfoType \&gt;)\&gt;">
<polygon fill="none" stroke="black" points="2344,-110 2344,-196 2550,-196 2550,-110 2344,-110"/>
<text text-anchor="start" x="2352" y="-183" font-family="Helvetica,sans-Serif" font-size="10.00">stxxl::mng_local::add</text>
<text text-anchor="start" x="2352" y="-170" font-family="Helvetica,sans-Serif" font-size="10.00">_filler&lt; mng_local::block</text>
<text text-anchor="start" x="2352" y="-157" font-family="Helvetica,sans-Serif" font-size="10.00">_w_info&lt; Type, RawSize,</text>
<text text-anchor="start" x="2352" y="-144" font-family="Helvetica,sans-Serif" font-size="10.00"> NRef, MetaInfoType &gt;, RawSize</text>
<text text-anchor="start" x="2352" y="-131" font-family="Helvetica,sans-Serif" font-size="10.00">&#45;sizeof(mng_local::block_w_info</text>
<text text-anchor="middle" x="2447" y="-118" font-family="Helvetica,sans-Serif" font-size="10.00">&lt; Type, RawSize, NRef, MetaInfoType &gt;)&gt;</text>
</a>
</g>
<!-- Node12&#45;&gt;Node11 -->
<g id="edge30" class="edge"><title>Node12&#45;&gt;Node11</title>
<path fill="none" stroke="midnightblue" d="M2559.64,-196.297C2606.34,-214.248 2659.38,-234.635 2701.72,-250.909"/>
<polygon fill="midnightblue" stroke="midnightblue" points="2560.67,-192.944 2550.08,-192.623 2558.16,-199.478 2560.67,-192.944"/>
</g>
<!-- Node13 -->
<g id="node28" class="node"><title>Node13</title>
<a xlink:href="classstxxl_1_1mng__local_1_1block__w__info.html" target="_top" xlink:title="stxxl::mng_local::block\l_w_info\&lt; Type, RawSize,\l NRef, MetaInfoType \&gt;">
<polygon fill="none" stroke="black" points="2169,-54.5 2169,-101.5 2299,-101.5 2299,-54.5 2169,-54.5"/>
<text text-anchor="start" x="2177" y="-88.5" font-family="Helvetica,sans-Serif" font-size="10.00">stxxl::mng_local::block</text>
<text text-anchor="start" x="2177" y="-75.5" font-family="Helvetica,sans-Serif" font-size="10.00">_w_info&lt; Type, RawSize,</text>
<text text-anchor="middle" x="2234" y="-62.5" font-family="Helvetica,sans-Serif" font-size="10.00"> NRef, MetaInfoType &gt;</text>
</a>
</g>
<!-- Node13&#45;&gt;Node12 -->
<g id="edge32" class="edge"><title>Node13&#45;&gt;Node12</title>
<path fill="none" stroke="midnightblue" d="M2308.53,-104.243C2319.97,-108.271 2331.95,-112.489 2343.87,-116.688"/>
<polygon fill="midnightblue" stroke="midnightblue" points="2309.66,-100.93 2299.06,-100.91 2307.33,-107.533 2309.66,-100.93"/>
</g>
<!-- Node14 -->
<g id="node30" class="node"><title>Node14</title>
<a xlink:href="classstxxl_1_1mng__local_1_1block__w__bids.html" target="_top" xlink:title="stxxl::mng_local::block\l_w_bids\&lt; Type,((RawSize\l&#45;sizeof(BID\&lt; RawSize \&gt;)*NBids\l&#45;sizeof(MetaInfoType))/sizeof\l(Type)), RawSize, NBids \&gt;">
<polygon fill="none" stroke="black" points="1658,-67.5 1658,-140.5 1816,-140.5 1816,-67.5 1658,-67.5"/>
<text text-anchor="start" x="1666" y="-127.5" font-family="Helvetica,sans-Serif" font-size="10.00">stxxl::mng_local::block</text>
<text text-anchor="start" x="1666" y="-114.5" font-family="Helvetica,sans-Serif" font-size="10.00">_w_bids&lt; Type,((RawSize</text>
<text text-anchor="start" x="1666" y="-101.5" font-family="Helvetica,sans-Serif" font-size="10.00">&#45;sizeof(BID&lt; RawSize &gt;)*NBids</text>
<text text-anchor="start" x="1666" y="-88.5" font-family="Helvetica,sans-Serif" font-size="10.00">&#45;sizeof(MetaInfoType))/sizeof</text>
<text text-anchor="middle" x="1737" y="-75.5" font-family="Helvetica,sans-Serif" font-size="10.00">(Type)), RawSize, NBids &gt;</text>
</a>
</g>
<!-- Node14&#45;&gt;Node13 -->
<g id="edge34" class="edge"><title>Node14&#45;&gt;Node13</title>
<path fill="none" stroke="midnightblue" d="M1826.4,-103.444C1908.96,-102.333 2034.94,-99.1243 2144,-90 2152.01,-89.3298 2160.4,-88.4503 2168.7,-87.4716"/>
<polygon fill="midnightblue" stroke="midnightblue" points="1826.26,-99.9454 1816.3,-103.572 1826.34,-106.945 1826.26,-99.9454"/>
</g>
<!-- Node22 -->
<g id="node52" class="node"><title>Node22</title>
<a xlink:href="classstxxl_1_1mng__local_1_1block__w__info.html" target="_top" xlink:title="Contains per block information for stxxl::typed_block , not intended for direct use. ">
<polygon fill="none" stroke="black" points="1879,-28.5 1879,-75.5 2009,-75.5 2009,-28.5 1879,-28.5"/>
<text text-anchor="start" x="1887" y="-62.5" font-family="Helvetica,sans-Serif" font-size="10.00">stxxl::mng_local::block</text>
<text text-anchor="start" x="1887" y="-49.5" font-family="Helvetica,sans-Serif" font-size="10.00">_w_info&lt; Type, RawSize,</text>
<text text-anchor="middle" x="1944" y="-36.5" font-family="Helvetica,sans-Serif" font-size="10.00"> NBids, MetaInfoType &gt;</text>
</a>
</g>
<!-- Node14&#45;&gt;Node22 -->
<g id="edge64" class="edge"><title>Node14&#45;&gt;Node22</title>
<path fill="none" stroke="midnightblue" d="M1825.91,-81.664C1843.63,-77.2128 1861.93,-72.6154 1878.68,-68.4078"/>
<polygon fill="midnightblue" stroke="midnightblue" points="1824.99,-78.2875 1816.14,-84.1184 1826.7,-85.0765 1824.99,-78.2875"/>
</g>
<!-- Node15 -->
<g id="node32" class="node"><title>Node15</title>
<a xlink:href="classstxxl_1_1mng__local_1_1element__block.html" target="_top" xlink:title="Contains data elements for stxxl::typed_block , not intended for direct use. ">
<polygon fill="none" stroke="black" points="1172,-72 1172,-106 1300,-106 1300,-72 1172,-72"/>
<text text-anchor="start" x="1180" y="-93" font-family="Helvetica,sans-Serif" font-size="10.00">stxxl::mng_local::element</text>
<text text-anchor="middle" x="1236" y="-80" font-family="Helvetica,sans-Serif" font-size="10.00">_block&lt; Type, Size &gt;</text>
</a>
</g>
<!-- Node15&#45;&gt;Node14 -->
<g id="edge36" class="edge"><title>Node15&#45;&gt;Node14</title>
<path fill="none" stroke="midnightblue" d="M1310.41,-91.2278C1403.58,-94.0173 1562.5,-98.7755 1657.84,-101.63"/>
<polygon fill="midnightblue" stroke="midnightblue" points="1310.32,-87.7236 1300.22,-90.9226 1310.11,-94.7204 1310.32,-87.7236"/>
</g>
<!-- Node21 -->
<g id="node48" class="node"><title>Node21</title>
<a xlink:href="classstxxl_1_1mng__local_1_1block__w__bids.html" target="_top" xlink:title="Contains BID references for stxxl::typed_block , not intended for direct use. ">
<polygon fill="none" stroke="black" points="1352,-110.5 1352,-157.5 1510,-157.5 1510,-110.5 1352,-110.5"/>
<text text-anchor="start" x="1360" y="-144.5" font-family="Helvetica,sans-Serif" font-size="10.00">stxxl::mng_local::block</text>
<text text-anchor="start" x="1360" y="-131.5" font-family="Helvetica,sans-Serif" font-size="10.00">_w_bids&lt; Type, Size, RawSize,</text>
<text text-anchor="middle" x="1431" y="-118.5" font-family="Helvetica,sans-Serif" font-size="10.00"> NBids &gt;</text>
</a>
</g>
<!-- Node15&#45;&gt;Node21 -->
<g id="edge58" class="edge"><title>Node15&#45;&gt;Node21</title>
<path fill="none" stroke="midnightblue" d="M1309.96,-106.068C1323.66,-109.229 1338.02,-112.543 1351.86,-115.738"/>
<polygon fill="midnightblue" stroke="midnightblue" points="1310.65,-102.635 1300.12,-103.797 1309.08,-109.456 1310.65,-102.635"/>
</g>
<!-- Node16 -->
<g id="node34" class="node"><title>Node16</title>
<a xlink:href="structstxxl_1_1BID.html" target="_top" xlink:title="stxxl::BID\&lt; raw_size \&gt;">
<polygon fill="none" stroke="black" points="1177,-184.5 1177,-205.5 1295,-205.5 1295,-184.5 1177,-184.5"/>
<text text-anchor="middle" x="1236" y="-192.5" font-family="Helvetica,sans-Serif" font-size="10.00">stxxl::BID&lt; raw_size &gt;</text>
</a>
</g>
<!-- Node16&#45;&gt;Node14 -->
<g id="edge38" class="edge"><title>Node16&#45;&gt;Node14</title>
<path fill="none" stroke="#9a32cd" stroke-dasharray="5,2" d="M1305.4,-197.783C1404.36,-200.872 1580.61,-202.869 1640,-181 1663.2,-172.456 1685.13,-156.05 1702.25,-140.57"/>
<polygon fill="#9a32cd" stroke="#9a32cd" points="1305.3,-194.278 1295.19,-197.452 1305.08,-201.274 1305.3,-194.278"/>
<text text-anchor="middle" x="1431" y="-204" font-family="Helvetica,sans-Serif" font-size="10.00"> ref</text>
</g>
<!-- Node16&#45;&gt;Node21 -->
<g id="edge60" class="edge"><title>Node16&#45;&gt;Node21</title>
<path fill="none" stroke="#9a32cd" stroke-dasharray="5,2" d="M1277.13,-181.227C1290.18,-176.92 1304.67,-172.199 1318,-168 1328.94,-164.553 1340.5,-160.987 1351.89,-157.519"/>
<polygon fill="#9a32cd" stroke="#9a32cd" points="1275.87,-177.957 1267.48,-184.424 1278.07,-184.602 1275.87,-177.957"/>
<text text-anchor="middle" x="1326" y="-172" font-family="Helvetica,sans-Serif" font-size="10.00"> ref</text>
</g>
<!-- Node17&#45;&gt;Node16 -->
<g id="edge40" class="edge"><title>Node17&#45;&gt;Node16</title>
<path fill="none" stroke="#9a32cd" stroke-dasharray="5,2" d="M882.007,-224.874C907.241,-217.403 941.256,-208.433 972,-204 1041.9,-193.921 1123.24,-192.712 1176.96,-193.348"/>
<polygon fill="#9a32cd" stroke="#9a32cd" points="880.672,-221.621 872.109,-227.86 882.694,-228.322 880.672,-221.621"/>
<text text-anchor="middle" x="1023" y="-208" font-family="Helvetica,sans-Serif" font-size="10.00"> storage</text>
</g>
<!-- Node20 -->
<g id="node45" class="node"><title>Node20</title>
<a xlink:href="structstxxl_1_1BID.html" target="_top" xlink:title="Block identifier class. ">
<polygon fill="none" stroke="black" points="972.5,-226.5 972.5,-247.5 1073.5,-247.5 1073.5,-226.5 972.5,-226.5"/>
<text text-anchor="middle" x="1023" y="-234.5" font-family="Helvetica,sans-Serif" font-size="10.00">stxxl::BID&lt; SIZE &gt;</text>
</a>
</g>
<!-- Node17&#45;&gt;Node20 -->
<g id="edge54" class="edge"><title>Node17&#45;&gt;Node20</title>
<path fill="none" stroke="#9a32cd" stroke-dasharray="5,2" d="M882.681,-237C908.944,-237 943.938,-237 972.409,-237"/>
<polygon fill="#9a32cd" stroke="#9a32cd" points="882.363,-233.5 872.363,-237 882.363,-240.5 882.363,-233.5"/>
<text text-anchor="middle" x="936" y="-241" font-family="Helvetica,sans-Serif" font-size="10.00"> storage</text>
</g>
<!-- Node18&#45;&gt;Node17 -->
<g id="edge44" class="edge"><title>Node18&#45;&gt;Node17</title>
<path fill="none" stroke="#9a32cd" stroke-dasharray="5,2" d="M695.824,-237C736.198,-237 785.551,-237 815.875,-237"/>
<polygon fill="#9a32cd" stroke="#9a32cd" points="695.77,-233.5 685.77,-237 695.77,-240.5 695.77,-233.5"/>
<text text-anchor="middle" x="737" y="-241" font-family="Helvetica,sans-Serif" font-size="10.00"> m_request_ref</text>
</g>
<!-- Node19&#45;&gt;Node18 -->
<g id="edge46" class="edge"><title>Node19&#45;&gt;Node18</title>
<path fill="none" stroke="#9a32cd" stroke-dasharray="5,2" d="M401.875,-265.287C448.83,-259.439 521.885,-250.34 572.403,-244.049"/>
<polygon fill="#9a32cd" stroke="#9a32cd" points="401.181,-261.846 391.69,-266.555 402.046,-268.792 401.181,-261.846"/>
<text text-anchor="middle" x="494" y="-265" font-family="Helvetica,sans-Serif" font-size="10.00"> m_reference_count_mutex</text>
</g>
<!-- Node20&#45;&gt;Node16 -->
<g id="edge52" class="edge"><title>Node20&#45;&gt;Node16</title>
<path fill="none" stroke="orange" stroke-dasharray="5,2" d="M1083.64,-225.043C1114.86,-218.888 1152.57,-211.451 1182.67,-205.516"/>
<polygon fill="orange" stroke="orange" points="1082.88,-221.625 1073.75,-226.993 1084.24,-228.493 1082.88,-221.625"/>
<text text-anchor="middle" x="1123" y="-227" font-family="Helvetica,sans-Serif" font-size="10.00"> &lt; raw_size &gt;</text>
</g>
<!-- Node21&#45;&gt;Node14 -->
<g id="edge56" class="edge"><title>Node21&#45;&gt;Node14</title>
<path fill="none" stroke="orange" stroke-dasharray="5,2" d="M1519.93,-117.044C1522.65,-116.671 1525.34,-116.322 1528,-116 1570.76,-110.826 1618.71,-107.871 1657.89,-106.189"/>
<polygon fill="orange" stroke="orange" points="1519.41,-113.583 1510.01,-118.487 1520.41,-120.51 1519.41,-113.583"/>
<text text-anchor="start" x="1528" y="-172" font-family="Helvetica,sans-Serif" font-size="10.00"> &lt; Type,((RawSize&#45;sizeof</text>
<text text-anchor="start" x="1528" y="-159" font-family="Helvetica,sans-Serif" font-size="10.00">(BID&lt; RawSize &gt;)*NBids</text>
<text text-anchor="start" x="1528" y="-146" font-family="Helvetica,sans-Serif" font-size="10.00">&#45;sizeof(MetaInfoType))</text>
<text text-anchor="start" x="1528" y="-133" font-family="Helvetica,sans-Serif" font-size="10.00">/sizeof(Type)), RawSize,</text>
<text text-anchor="middle" x="1584" y="-120" font-family="Helvetica,sans-Serif" font-size="10.00"> NBids &gt;</text>
</g>
<!-- Node22&#45;&gt;Node13 -->
<g id="edge62" class="edge"><title>Node22&#45;&gt;Node13</title>
<path fill="none" stroke="orange" stroke-dasharray="5,2" d="M2019.77,-54.8585C2057.22,-56.7008 2103.06,-59.5976 2144,-64 2152.02,-64.8623 2160.41,-65.9366 2168.72,-67.1043"/>
<polygon fill="orange" stroke="orange" points="2019.59,-51.3463 2009.43,-54.3665 2019.26,-58.3384 2019.59,-51.3463"/>
<text text-anchor="start" x="2032" y="-81" font-family="Helvetica,sans-Serif" font-size="10.00"> &lt; Type, RawSize, NRef,</text>
<text text-anchor="middle" x="2088" y="-68" font-family="Helvetica,sans-Serif" font-size="10.00"> MetaInfoType &gt;</text>
</g>
<!-- Node23 -->
<g id="node55" class="node"><title>Node23</title>
<a xlink:href="classstxxl_1_1mng__local_1_1filler__struct.html" target="_top" xlink:title="stxxl::mng_local::filler\l_struct\&lt; FillSize \&gt;">
<polygon fill="none" stroke="black" points="1681,-226 1681,-260 1793,-260 1793,-226 1681,-226"/>
<text text-anchor="start" x="1689" y="-247" font-family="Helvetica,sans-Serif" font-size="10.00">stxxl::mng_local::filler</text>
<text text-anchor="middle" x="1737" y="-234" font-family="Helvetica,sans-Serif" font-size="10.00">_struct&lt; FillSize &gt;</text>
</a>
</g>
<!-- Node23&#45;&gt;Node12 -->
<g id="edge66" class="edge"><title>Node23&#45;&gt;Node12</title>
<path fill="none" stroke="#9a32cd" stroke-dasharray="5,2" d="M1803.03,-224.061C1862.44,-207.755 1952.36,-184.876 2032,-172 2089.24,-162.745 2104.11,-164.259 2162,-161 2222.17,-157.613 2289.57,-155.638 2343.71,-154.498"/>
<polygon fill="#9a32cd" stroke="#9a32cd" points="1801.74,-220.785 1793.04,-226.821 1803.61,-227.533 1801.74,-220.785"/>
<text text-anchor="middle" x="2088" y="-176" font-family="Helvetica,sans-Serif" font-size="10.00"> filler</text>
</g>
<!-- Node25 -->
<g id="node59" class="node"><title>Node25</title>
<a xlink:href="classstxxl_1_1mng__local_1_1add__filler.html" target="_top" xlink:title="Contains per block filler for stxxl::typed_block , not intended for direct use. ">
<polygon fill="none" stroke="black" points="1874,-226 1874,-260 2014,-260 2014,-226 1874,-226"/>
<text text-anchor="start" x="1882" y="-247" font-family="Helvetica,sans-Serif" font-size="10.00">stxxl::mng_local::add</text>
<text text-anchor="middle" x="1944" y="-234" font-family="Helvetica,sans-Serif" font-size="10.00">_filler&lt; BaseType, FillSize &gt;</text>
</a>
</g>
<!-- Node23&#45;&gt;Node25 -->
<g id="edge72" class="edge"><title>Node23&#45;&gt;Node25</title>
<path fill="none" stroke="#9a32cd" stroke-dasharray="5,2" d="M1803.17,-243C1825.72,-243 1851.01,-243 1873.87,-243"/>
<polygon fill="#9a32cd" stroke="#9a32cd" points="1803.02,-239.5 1793.02,-243 1803.02,-246.5 1803.02,-239.5"/>
<text text-anchor="middle" x="1845" y="-247" font-family="Helvetica,sans-Serif" font-size="10.00"> filler</text>
</g>
<!-- Node27 -->
<g id="node64" class="node"><title>Node27</title>
<a xlink:href="classstxxl_1_1mng__local_1_1add__filler.html" target="_top" xlink:title="stxxl::mng_local::add\l_filler\&lt; Type, RawSize\l&#45;sizeof(Type)\&gt;">
<polygon fill="none" stroke="black" points="2176,-272.5 2176,-319.5 2292,-319.5 2292,-272.5 2176,-272.5"/>
<text text-anchor="start" x="2184" y="-306.5" font-family="Helvetica,sans-Serif" font-size="10.00">stxxl::mng_local::add</text>
<text text-anchor="start" x="2184" y="-293.5" font-family="Helvetica,sans-Serif" font-size="10.00">_filler&lt; Type, RawSize</text>
<text text-anchor="middle" x="2234" y="-280.5" font-family="Helvetica,sans-Serif" font-size="10.00">&#45;sizeof(Type)&gt;</text>
</a>
</g>
<!-- Node23&#45;&gt;Node27 -->
<g id="edge78" class="edge"><title>Node23&#45;&gt;Node27</title>
<path fill="none" stroke="#9a32cd" stroke-dasharray="5,2" d="M1803.18,-257.019C1825.59,-261.375 1850.8,-265.854 1874,-269 1979.89,-283.364 2104.42,-290.571 2175.79,-293.783"/>
<polygon fill="#9a32cd" stroke="#9a32cd" points="1803.59,-253.533 1793.11,-255.032 1802.24,-260.4 1803.59,-253.533"/>
<text text-anchor="middle" x="1944" y="-287" font-family="Helvetica,sans-Serif" font-size="10.00"> filler</text>
</g>
<!-- Node24 -->
<g id="node57" class="node"><title>Node24</title>
<a xlink:href="classstxxl_1_1mng__local_1_1filler__struct.html" target="_top" xlink:title="stxxl::mng_local::filler\l_struct\&lt; Bytes \&gt;">
<polygon fill="none" stroke="black" points="1375,-226 1375,-260 1487,-260 1487,-226 1375,-226"/>
<text text-anchor="start" x="1383" y="-247" font-family="Helvetica,sans-Serif" font-size="10.00">stxxl::mng_local::filler</text>
<text text-anchor="middle" x="1431" y="-234" font-family="Helvetica,sans-Serif" font-size="10.00">_struct&lt; Bytes &gt;</text>
</a>
</g>
<!-- Node24&#45;&gt;Node23 -->
<g id="edge68" class="edge"><title>Node24&#45;&gt;Node23</title>
<path fill="none" stroke="orange" stroke-dasharray="5,2" d="M1497.44,-243C1552.27,-243 1629.22,-243 1680.97,-243"/>
<polygon fill="orange" stroke="orange" points="1497.13,-239.5 1487.13,-243 1497.13,-246.5 1497.13,-239.5"/>
<text text-anchor="middle" x="1584" y="-247" font-family="Helvetica,sans-Serif" font-size="10.00"> &lt; FillSize &gt;</text>
</g>
<!-- Node25&#45;&gt;Node12 -->
<g id="edge70" class="edge"><title>Node25&#45;&gt;Node12</title>
<path fill="none" stroke="orange" stroke-dasharray="5,2" d="M2008.81,-223.052C2051.87,-210.472 2109.87,-194.806 2162,-185 2221.82,-173.748 2289.5,-165.945 2343.89,-160.863"/>
<polygon fill="orange" stroke="orange" points="2007.64,-219.75 1999.03,-225.931 2009.62,-226.465 2007.64,-219.75"/>
<text text-anchor="start" x="2162.5" y="-254" font-family="Helvetica,sans-Serif" font-size="10.00"> &lt; mng_local::block</text>
<text text-anchor="start" x="2162.5" y="-241" font-family="Helvetica,sans-Serif" font-size="10.00">_w_info&lt; Type, RawSize,</text>
<text text-anchor="start" x="2162.5" y="-228" font-family="Helvetica,sans-Serif" font-size="10.00"> NRef, MetaInfoType &gt;,</text>
<text text-anchor="start" x="2162.5" y="-215" font-family="Helvetica,sans-Serif" font-size="10.00"> RawSize&#45;sizeof(mng_local</text>
<text text-anchor="start" x="2162.5" y="-202" font-family="Helvetica,sans-Serif" font-size="10.00">::block_w_info&lt; Type, RawSize,</text>
<text text-anchor="middle" x="2234" y="-189" font-family="Helvetica,sans-Serif" font-size="10.00"> NRef, MetaInfoType &gt;)&gt;</text>
</g>
<!-- Node25&#45;&gt;Node27 -->
<g id="edge80" class="edge"><title>Node25&#45;&gt;Node27</title>
<path fill="none" stroke="orange" stroke-dasharray="5,2" d="M2024.54,-241.796C2061.41,-242.879 2105.4,-246.489 2144,-256 2159.27,-259.763 2175.19,-265.988 2189.32,-272.418"/>
<polygon fill="orange" stroke="orange" points="2024.42,-238.292 2014.34,-241.555 2024.25,-245.29 2024.42,-238.292"/>
<text text-anchor="start" x="2033.5" y="-273" font-family="Helvetica,sans-Serif" font-size="10.00"> &lt; Type, RawSize&#45;sizeof</text>
<text text-anchor="middle" x="2088" y="-260" font-family="Helvetica,sans-Serif" font-size="10.00">(Type)&gt;</text>
</g>
<!-- Node26 -->
<g id="node62" class="node"><title>Node26</title>
<a xlink:href="classstxxl_1_1mng__local_1_1expand__struct.html" target="_top" xlink:title="Helper to compute the size of the filler , not intended for direct use. ">
<polygon fill="none" stroke="black" points="2381,-268 2381,-302 2513,-302 2513,-268 2381,-268"/>
<text text-anchor="start" x="2389" y="-289" font-family="Helvetica,sans-Serif" font-size="10.00">stxxl::mng_local::expand</text>
<text text-anchor="middle" x="2447" y="-276" font-family="Helvetica,sans-Serif" font-size="10.00">_struct&lt; Type, RawSize &gt;</text>
</a>
</g>
<!-- Node26&#45;&gt;Node11 -->
<g id="edge74" class="edge"><title>Node26&#45;&gt;Node11</title>
<path fill="none" stroke="orange" stroke-dasharray="5,2" d="M2523.38,-282.874C2538.18,-282.527 2553.57,-282.213 2568,-282 2611.79,-281.354 2660.68,-281.092 2700.47,-280.998"/>
<polygon fill="orange" stroke="orange" points="2523.16,-279.378 2513.25,-283.117 2523.33,-286.376 2523.16,-279.378"/>
<text text-anchor="start" x="2568" y="-325" font-family="Helvetica,sans-Serif" font-size="10.00"> &lt; mng_local::block</text>
<text text-anchor="start" x="2568" y="-312" font-family="Helvetica,sans-Serif" font-size="10.00">_w_info&lt; Type, RawSize,</text>
<text text-anchor="start" x="2568" y="-299" font-family="Helvetica,sans-Serif" font-size="10.00"> NRef, MetaInfoType &gt;,</text>
<text text-anchor="middle" x="2625" y="-286" font-family="Helvetica,sans-Serif" font-size="10.00"> RawSize &gt;</text>
</g>
<!-- Node27&#45;&gt;Node26 -->
<g id="edge76" class="edge"><title>Node27&#45;&gt;Node26</title>
<path fill="none" stroke="midnightblue" d="M2302.4,-292.467C2327.57,-291.168 2356.02,-289.699 2380.97,-288.41"/>
<polygon fill="midnightblue" stroke="midnightblue" points="2302.01,-288.983 2292.2,-292.994 2302.37,-295.974 2302.01,-288.983"/>
</g>
</g>
</svg>
