<?xml version="1.0" encoding="UTF-8" standalone="no"?>
<!DOCTYPE svg PUBLIC "-//W3C//DTD SVG 1.1//EN"
 "http://www.w3.org/Graphics/SVG/1.1/DTD/svg11.dtd">
<!-- Generated by graphviz version 2.26.3 (20100126.1600)
 -->
<!-- Title: stxxl::stream::runs_merger&lt; RunsType_, CompareType_, AllocStr_ &gt; Pages: 1 -->
<svg width="796pt" height="160pt"
 viewBox="0.00 0.00 796.00 160.00" xmlns="http://www.w3.org/2000/svg" xmlns:xlink="http://www.w3.org/1999/xlink">
<g id="graph1" class="graph" transform="scale(1 1) rotate(0) translate(4 156)">
<title>stxxl::stream::runs_merger&lt; RunsType_, CompareType_, AllocStr_ &gt;</title>
<!-- Node1 -->
<g id="node1" class="node"><title>Node1</title>
<polygon fill="#bfbfbf" stroke="black" points="324.5,-48.5 324.5,-95.5 465.5,-95.5 465.5,-48.5 324.5,-48.5"/>
<text text-anchor="start" x="332.5" y="-82.5" font-family="Helvetica,sans-Serif" font-size="10.00">stxxl::stream::runs</text>
<text text-anchor="start" x="332.5" y="-69.5" font-family="Helvetica,sans-Serif" font-size="10.00">_merger&lt; RunsType_,</text>
<text text-anchor="middle" x="395" y="-56.5" font-family="Helvetica,sans-Serif" font-size="10.00"> CompareType_, AllocStr_ &gt;</text>
</g>
<!-- Node4 -->
<g id="node7" class="node"><title>Node4</title>
<a xlink:href="classstxxl_1_1stream_1_1runs__merger.html" target="_top" xlink:title="stxxl::stream::runs\l_merger\&lt; typename runs\l_creator_type::sorted\l_runs_type, cmp_type, alloc\l_strategy_type \&gt;">
<polygon fill="none" stroke="black" points="648,-78.5 648,-151.5 788,-151.5 788,-78.5 648,-78.5"/>
<text text-anchor="start" x="656" y="-138.5" font-family="Helvetica,sans-Serif" font-size="10.00">stxxl::stream::runs</text>
<text text-anchor="start" x="656" y="-125.5" font-family="Helvetica,sans-Serif" font-size="10.00">_merger&lt; typename runs</text>
<text text-anchor="start" x="656" y="-112.5" font-family="Helvetica,sans-Serif" font-size="10.00">_creator_type::sorted</text>
<text text-anchor="start" x="656" y="-99.5" font-family="Helvetica,sans-Serif" font-size="10.00">_runs_type, cmp_type, alloc</text>
<text text-anchor="middle" x="718" y="-86.5" font-family="Helvetica,sans-Serif" font-size="10.00">_strategy_type &gt;</text>
</a>
</g>
<!-- Node1&#45;&gt;Node4 -->
<g id="edge6" class="edge"><title>Node1&#45;&gt;Node4</title>
<path fill="none" stroke="orange" stroke-dasharray="5,2" d="M475.844,-88.687C478.593,-89.1469 481.317,-89.5863 484,-90 538.814,-98.4524 601.294,-104.97 647.896,-109.229"/>
<polygon fill="orange" stroke="orange" points="476.272,-85.2088 465.819,-86.9419 475.071,-92.1051 476.272,-85.2088"/>
<text text-anchor="start" x="484" y="-137" font-family="Helvetica,sans-Serif" font-size="10.00"> &lt; typename runs_creator</text>
<text text-anchor="start" x="484" y="-124" font-family="Helvetica,sans-Serif" font-size="10.00">_type::sorted_runs_type,</text>
<text text-anchor="middle" x="557" y="-111" font-family="Helvetica,sans-Serif" font-size="10.00"> cmp_type, alloc_strategy_type &gt;</text>
</g>
<!-- Node5 -->
<g id="node9" class="node"><title>Node5</title>
<a xlink:href="classstxxl_1_1stream_1_1runs__merger.html" target="_top" xlink:title="stxxl::stream::runs\l_merger\&lt; sorted_runs\l_type, CompareType_,\l AllocStr_ \&gt;">
<polygon fill="none" stroke="black" points="660,-0 660,-60 776,-60 776,-0 660,-0"/>
<text text-anchor="start" x="668" y="-47" font-family="Helvetica,sans-Serif" font-size="10.00">stxxl::stream::runs</text>
<text text-anchor="start" x="668" y="-34" font-family="Helvetica,sans-Serif" font-size="10.00">_merger&lt; sorted_runs</text>
<text text-anchor="start" x="668" y="-21" font-family="Helvetica,sans-Serif" font-size="10.00">_type, CompareType_,</text>
<text text-anchor="middle" x="718" y="-8" font-family="Helvetica,sans-Serif" font-size="10.00"> AllocStr_ &gt;</text>
</a>
</g>
<!-- Node1&#45;&gt;Node5 -->
<g id="edge8" class="edge"><title>Node1&#45;&gt;Node5</title>
<path fill="none" stroke="orange" stroke-dasharray="5,2" d="M475.991,-61.4687C533.241,-54.0243 608.63,-44.2215 659.95,-37.5483"/>
<polygon fill="orange" stroke="orange" points="475.349,-58.0226 465.884,-62.7829 476.252,-64.9642 475.349,-58.0226"/>
<text text-anchor="start" x="494.5" y="-77" font-family="Helvetica,sans-Serif" font-size="10.00"> &lt; sorted_runs_type,</text>
<text text-anchor="middle" x="557" y="-64" font-family="Helvetica,sans-Serif" font-size="10.00"> CompareType_, AllocStr_ &gt;</text>
</g>
<!-- Node2 -->
<g id="node2" class="node"><title>Node2</title>
<a xlink:href="classstxxl_1_1stream_1_1basic__runs__merger.html" target="_top" xlink:title="Merges sorted runs. ">
<polygon fill="none" stroke="black" points="136.5,-48.5 136.5,-95.5 285.5,-95.5 285.5,-48.5 136.5,-48.5"/>
<text text-anchor="start" x="144.5" y="-82.5" font-family="Helvetica,sans-Serif" font-size="10.00">stxxl::stream::basic</text>
<text text-anchor="start" x="144.5" y="-69.5" font-family="Helvetica,sans-Serif" font-size="10.00">_runs_merger&lt; RunsType</text>
<text text-anchor="middle" x="211" y="-56.5" font-family="Helvetica,sans-Serif" font-size="10.00">_, CompareType_, AllocStr_ &gt;</text>
</a>
</g>
<!-- Node2&#45;&gt;Node1 -->
<g id="edge2" class="edge"><title>Node2&#45;&gt;Node1</title>
<path fill="none" stroke="midnightblue" d="M295.59,-72C305.256,-72 315.031,-72 324.486,-72"/>
<polygon fill="midnightblue" stroke="midnightblue" points="295.575,-68.5001 285.575,-72 295.575,-75.5001 295.575,-68.5001"/>
</g>
<!-- Node3 -->
<g id="node4" class="node"><title>Node3</title>
<a xlink:href="classstxxl_1_1noncopyable.html" target="_top" xlink:title="stxxl::noncopyable">
<polygon fill="none" stroke="black" points="0,-61.5 0,-82.5 98,-82.5 98,-61.5 0,-61.5"/>
<text text-anchor="middle" x="49" y="-69.5" font-family="Helvetica,sans-Serif" font-size="10.00">stxxl::noncopyable</text>
</a>
</g>
<!-- Node3&#45;&gt;Node2 -->
<g id="edge4" class="edge"><title>Node3&#45;&gt;Node2</title>
<path fill="none" stroke="#8b1a1a" d="M108.203,-72C117.376,-72 126.952,-72 136.411,-72"/>
<polygon fill="#8b1a1a" stroke="#8b1a1a" points="108.045,-68.5001 98.045,-72 108.045,-75.5001 108.045,-68.5001"/>
</g>
</g>
</svg>
