<?xml version="1.0" encoding="UTF-8" standalone="no"?>
<!DOCTYPE svg PUBLIC "-//W3C//DTD SVG 1.1//EN"
 "http://www.w3.org/Graphics/SVG/1.1/DTD/svg11.dtd">
<!-- Generated by graphviz version 2.38.0 (20140413.2041)
 -->
<!-- Title: stxxl::hash_map::hash_map_const_iterator&lt; HashMap &gt; Pages: 1 -->
<svg width="277pt" height="374pt"
 viewBox="0.00 0.00 277.00 374.00" xmlns="http://www.w3.org/2000/svg" xmlns:xlink="http://www.w3.org/1999/xlink">
<g id="graph0" class="graph" transform="scale(1 1) rotate(0) translate(4 370)">
<title>stxxl::hash_map::hash_map_const_iterator&lt; HashMap &gt;</title>
<!-- Node1 -->
<g id="node1" class="node"><title>Node1</title>
<polygon fill="#bfbfbf" stroke="black" points="31,-0.5 31,-41.5 147,-41.5 147,-0.5 31,-0.5"/>
<text text-anchor="start" x="39" y="-29.5" font-family="Helvetica,sans-Serif" font-size="10.00">stxxl::hash_map::hash</text>
<text text-anchor="start" x="39" y="-18.5" font-family="Helvetica,sans-Serif" font-size="10.00">_map_const_iterator&lt;</text>
<text text-anchor="middle" x="89" y="-7.5" font-family="Helvetica,sans-Serif" font-size="10.00"> HashMap &gt;</text>
</g>
<!-- Node2 -->
<g id="node2" class="node"><title>Node2</title>
<g id="a_node2"><a xlink:href="classstxxl_1_1hash__map_1_1hash__map__iterator__base.html" target="_top" xlink:title="stxxl::hash_map::hash\l_map_iterator_base\&lt; HashMap \&gt;">
<polygon fill="none" stroke="black" points="8,-79.5 8,-109.5 170,-109.5 170,-79.5 8,-79.5"/>
<text text-anchor="start" x="16" y="-97.5" font-family="Helvetica,sans-Serif" font-size="10.00">stxxl::hash_map::hash</text>
<text text-anchor="middle" x="89" y="-86.5" font-family="Helvetica,sans-Serif" font-size="10.00">_map_iterator_base&lt; HashMap &gt;</text>
</a>
</g>
</g>
<!-- Node2&#45;&gt;Node1 -->
<g id="edge1" class="edge"><title>Node2&#45;&gt;Node1</title>
<path fill="none" stroke="midnightblue" d="M89,-69.1008C89,-60.0979 89,-50.0235 89,-41.5096"/>
<polygon fill="midnightblue" stroke="midnightblue" points="85.5001,-69.3739 89,-79.3739 92.5001,-69.3739 85.5001,-69.3739"/>
</g>
<!-- Node3 -->
<g id="node3" class="node"><title>Node3</title>
<g id="a_node3"><a xlink:href="classstxxl_1_1hash__map_1_1buffered__reader.html" target="_top" xlink:title="Used to scan external memory with prefetching. ">
<polygon fill="none" stroke="black" points="5,-157.5 5,-187.5 173,-187.5 173,-157.5 5,-157.5"/>
<text text-anchor="start" x="13" y="-175.5" font-family="Helvetica,sans-Serif" font-size="10.00">stxxl::hash_map::buffered</text>
<text text-anchor="middle" x="89" y="-164.5" font-family="Helvetica,sans-Serif" font-size="10.00">_reader&lt; CacheType, BidIterator &gt;</text>
</a>
</g>
</g>
<!-- Node3&#45;&gt;Node2 -->
<g id="edge2" class="edge"><title>Node3&#45;&gt;Node2</title>
<path fill="none" stroke="#9a32cd" stroke-dasharray="5,2" d="M89,-147.09C89,-134.757 89,-120.224 89,-109.731"/>
<polygon fill="#9a32cd" stroke="#9a32cd" points="85.5001,-147.205 89,-157.205 92.5001,-147.205 85.5001,-147.205"/>
<text text-anchor="middle" x="107" y="-131" font-family="Helvetica,sans-Serif" font-size="10.00"> reader_</text>
</g>
<!-- Node4 -->
<g id="node4" class="node"><title>Node4</title>
<g id="a_node4"><a xlink:href="classstxxl_1_1noncopyable.html" target="_top" xlink:title="stxxl::noncopyable">
<polygon fill="none" stroke="black" points="0,-263 0,-282 98,-282 98,-263 0,-263"/>
<text text-anchor="middle" x="49" y="-270" font-family="Helvetica,sans-Serif" font-size="10.00">stxxl::noncopyable</text>
</a>
</g>
</g>
<!-- Node4&#45;&gt;Node3 -->
<g id="edge3" class="edge"><title>Node4&#45;&gt;Node3</title>
<path fill="none" stroke="#8b1a1a" d="M56.3532,-253.485C64.1,-234.505 76.1395,-205.008 83.2297,-187.637"/>
<polygon fill="#8b1a1a" stroke="#8b1a1a" points="53.0883,-252.222 52.5497,-262.803 59.5692,-254.867 53.0883,-252.222"/>
</g>
<!-- Node5 -->
<g id="node5" class="node"><title>Node5</title>
<g id="a_node5"><a xlink:href="structstxxl_1_1choose__int__types.html" target="_top" xlink:title="stxxl::choose_int_types\l\&lt; my_pointer_size \&gt;">
<polygon fill="none" stroke="black" points="116,-257.5 116,-287.5 236,-287.5 236,-257.5 116,-257.5"/>
<text text-anchor="start" x="124" y="-275.5" font-family="Helvetica,sans-Serif" font-size="10.00">stxxl::choose_int_types</text>
<text text-anchor="middle" x="176" y="-264.5" font-family="Helvetica,sans-Serif" font-size="10.00">&lt; my_pointer_size &gt;</text>
</a>
</g>
</g>
<!-- Node5&#45;&gt;Node3 -->
<g id="edge4" class="edge"><title>Node5&#45;&gt;Node3</title>
<path fill="none" stroke="#9a32cd" stroke-dasharray="5,2" d="M156.796,-249.868C139.935,-230.875 115.903,-203.805 101.442,-187.515"/>
<polygon fill="#9a32cd" stroke="#9a32cd" points="154.279,-252.304 163.535,-257.459 159.514,-247.657 154.279,-252.304"/>
<text text-anchor="middle" x="183" y="-231" font-family="Helvetica,sans-Serif" font-size="10.00"> prefetch_pages_</text>
<text text-anchor="middle" x="183" y="-220" font-family="Helvetica,sans-Serif" font-size="10.00">i_value_</text>
<text text-anchor="middle" x="183" y="-209" font-family="Helvetica,sans-Serif" font-size="10.00">page_size_</text>
</g>
<!-- Node6 -->
<g id="node6" class="node"><title>Node6</title>
<g id="a_node6"><a xlink:href="structstxxl_1_1choose__int__types.html" target="_top" xlink:title="stxxl::choose_int_types\l\&lt; PtrSize \&gt;">
<polygon fill="none" stroke="black" points="116,-335.5 116,-365.5 236,-365.5 236,-335.5 116,-335.5"/>
<text text-anchor="start" x="124" y="-353.5" font-family="Helvetica,sans-Serif" font-size="10.00">stxxl::choose_int_types</text>
<text text-anchor="middle" x="176" y="-342.5" font-family="Helvetica,sans-Serif" font-size="10.00">&lt; PtrSize &gt;</text>
</a>
</g>
</g>
<!-- Node6&#45;&gt;Node5 -->
<g id="edge5" class="edge"><title>Node6&#45;&gt;Node5</title>
<path fill="none" stroke="orange" stroke-dasharray="5,2" d="M176,-325.09C176,-312.757 176,-298.224 176,-287.731"/>
<polygon fill="orange" stroke="orange" points="172.5,-325.205 176,-335.205 179.5,-325.205 172.5,-325.205"/>
<text text-anchor="middle" x="222.5" y="-309" font-family="Helvetica,sans-Serif" font-size="10.00"> &lt; my_pointer_size &gt;</text>
</g>
</g>
</svg>
