<?xml version="1.0" encoding="UTF-8" standalone="no"?>
<!DOCTYPE svg PUBLIC "-//W3C//DTD SVG 1.1//EN"
 "http://www.w3.org/Graphics/SVG/1.1/DTD/svg11.dtd">
<!-- Generated by graphviz version 2.26.3 (20100126.1600)
 -->
<!-- Title: stxxl::swap_vector&lt; ValueType &gt; Pages: 1 -->
<svg width="508pt" height="94pt"
 viewBox="0.00 0.00 508.00 94.00" xmlns="http://www.w3.org/2000/svg" xmlns:xlink="http://www.w3.org/1999/xlink">
<g id="graph1" class="graph" transform="scale(1 1) rotate(0) translate(4 90)">
<title>stxxl::swap_vector&lt; ValueType &gt;</title>
<!-- Node1 -->
<g id="node1" class="node"><title>Node1</title>
<polygon fill="#bfbfbf" stroke="black" points="136.5,-26 136.5,-60 235.5,-60 235.5,-26 136.5,-26"/>
<text text-anchor="start" x="144.5" y="-47" font-family="Helvetica,sans-Serif" font-size="10.00">stxxl::swap_vector</text>
<text text-anchor="middle" x="186" y="-34" font-family="Helvetica,sans-Serif" font-size="10.00">&lt; ValueType &gt;</text>
</g>
<!-- Node3 -->
<g id="node5" class="node"><title>Node3</title>
<a xlink:href="classstxxl_1_1swap__vector.html" target="_top" xlink:title="stxxl::swap_vector\l\&lt; internal_array_type \&gt;">
<polygon fill="none" stroke="black" points="381.5,-52 381.5,-86 498.5,-86 498.5,-52 381.5,-52"/>
<text text-anchor="start" x="389.5" y="-73" font-family="Helvetica,sans-Serif" font-size="10.00">stxxl::swap_vector</text>
<text text-anchor="middle" x="440" y="-60" font-family="Helvetica,sans-Serif" font-size="10.00">&lt; internal_array_type &gt;</text>
</a>
</g>
<!-- Node1&#45;&gt;Node3 -->
<g id="edge4" class="edge"><title>Node1&#45;&gt;Node3</title>
<path fill="none" stroke="orange" stroke-dasharray="5,2" d="M245.67,-49.1079C286.541,-53.2916 340.501,-58.815 381.188,-62.9798"/>
<polygon fill="orange" stroke="orange" points="245.881,-45.6114 235.577,-48.0748 245.168,-52.575 245.881,-45.6114"/>
<text text-anchor="middle" x="308" y="-64" font-family="Helvetica,sans-Serif" font-size="10.00"> &lt; internal_array_type &gt;</text>
</g>
<!-- Node4 -->
<g id="node7" class="node"><title>Node4</title>
<a xlink:href="classstxxl_1_1swap__vector.html" target="_top" xlink:title="stxxl::swap_vector\l\&lt; external_array_type \&gt;">
<polygon fill="none" stroke="black" points="380,-0 380,-34 500,-34 500,-0 380,-0"/>
<text text-anchor="start" x="388" y="-21" font-family="Helvetica,sans-Serif" font-size="10.00">stxxl::swap_vector</text>
<text text-anchor="middle" x="440" y="-8" font-family="Helvetica,sans-Serif" font-size="10.00">&lt; external_array_type &gt;</text>
</a>
</g>
<!-- Node1&#45;&gt;Node4 -->
<g id="edge6" class="edge"><title>Node1&#45;&gt;Node4</title>
<path fill="none" stroke="orange" stroke-dasharray="5,2" d="M245.792,-33.0545C248.564,-32.6795 251.31,-32.3255 254,-32 295.971,-26.9211 343.486,-23.1224 379.985,-20.6185"/>
<polygon fill="orange" stroke="orange" points="245.107,-29.6166 235.7,-34.4903 246.093,-36.5468 245.107,-29.6166"/>
<text text-anchor="middle" x="308" y="-36" font-family="Helvetica,sans-Serif" font-size="10.00"> &lt; external_array_type &gt;</text>
</g>
<!-- Node2 -->
<g id="node2" class="node"><title>Node2</title>
<a xlink:href="classstxxl_1_1noncopyable.html" target="_top" xlink:title="stxxl::noncopyable">
<polygon fill="none" stroke="black" points="0,-32.5 0,-53.5 98,-53.5 98,-32.5 0,-32.5"/>
<text text-anchor="middle" x="49" y="-40.5" font-family="Helvetica,sans-Serif" font-size="10.00">stxxl::noncopyable</text>
</a>
</g>
<!-- Node2&#45;&gt;Node1 -->
<g id="edge2" class="edge"><title>Node2&#45;&gt;Node1</title>
<path fill="none" stroke="#8b1a1a" d="M108.148,-43C117.55,-43 127.193,-43 136.348,-43"/>
<polygon fill="#8b1a1a" stroke="#8b1a1a" points="108.073,-39.5001 98.0732,-43 108.073,-46.5001 108.073,-39.5001"/>
</g>
</g>
</svg>
