<?xml version="1.0" encoding="UTF-8" standalone="no"?>
<!DOCTYPE svg PUBLIC "-//W3C//DTD SVG 1.1//EN"
 "http://www.w3.org/Graphics/SVG/1.1/DTD/svg11.dtd">
<!-- Generated by graphviz version 2.38.0 (20140413.2041)
 -->
<!-- Title: stxxl::parallel::LoserTreeCopy&lt; Stable, ValueType, Comparator &gt; Pages: 1 -->
<svg width="192pt" height="207pt"
 viewBox="0.00 0.00 192.00 207.00" xmlns="http://www.w3.org/2000/svg" xmlns:xlink="http://www.w3.org/1999/xlink">
<g id="graph0" class="graph" transform="scale(1 1) rotate(0) translate(4 203)">
<title>stxxl::parallel::LoserTreeCopy&lt; Stable, ValueType, Comparator &gt;</title>
<!-- Node1 -->
<g id="node1" class="node"><title>Node1</title>
<polygon fill="#bfbfbf" stroke="black" points="26,-0.5 26,-41.5 158,-41.5 158,-0.5 26,-0.5"/>
<text text-anchor="start" x="34" y="-29.5" font-family="Helvetica,sans-Serif" font-size="10.00">stxxl::parallel::LoserTree</text>
<text text-anchor="start" x="34" y="-18.5" font-family="Helvetica,sans-Serif" font-size="10.00">Copy&lt; Stable, ValueType,</text>
<text text-anchor="middle" x="92" y="-7.5" font-family="Helvetica,sans-Serif" font-size="10.00"> Comparator &gt;</text>
</g>
<!-- Node2 -->
<g id="node2" class="node"><title>Node2</title>
<g id="a_node2"><a xlink:href="classstxxl_1_1parallel_1_1LoserTreeCopyBase.html" target="_top" xlink:title="stxxl::parallel::LoserTree\lCopyBase\&lt; ValueType, Comparator \&gt;">
<polygon fill="none" stroke="black" points="0,-79.5 0,-109.5 184,-109.5 184,-79.5 0,-79.5"/>
<text text-anchor="start" x="8" y="-97.5" font-family="Helvetica,sans-Serif" font-size="10.00">stxxl::parallel::LoserTree</text>
<text text-anchor="middle" x="92" y="-86.5" font-family="Helvetica,sans-Serif" font-size="10.00">CopyBase&lt; ValueType, Comparator &gt;</text>
</a>
</g>
</g>
<!-- Node2&#45;&gt;Node1 -->
<g id="edge1" class="edge"><title>Node2&#45;&gt;Node1</title>
<path fill="none" stroke="midnightblue" d="M92,-69.1008C92,-60.0979 92,-50.0235 92,-41.5096"/>
<polygon fill="midnightblue" stroke="midnightblue" points="88.5001,-69.3739 92,-79.3739 95.5001,-69.3739 88.5001,-69.3739"/>
</g>
<!-- Node3 -->
<g id="node3" class="node"><title>Node3</title>
<g id="a_node3"><a xlink:href="structstxxl_1_1parallel_1_1LoserTreeCopyBase_1_1Loser.html" target="_top" xlink:title="Internal representation of a loser tree player/node. ">
<polygon fill="none" stroke="black" points="4.5,-157.5 4.5,-198.5 179.5,-198.5 179.5,-157.5 4.5,-157.5"/>
<text text-anchor="start" x="12.5" y="-186.5" font-family="Helvetica,sans-Serif" font-size="10.00">stxxl::parallel::LoserTree</text>
<text text-anchor="start" x="12.5" y="-175.5" font-family="Helvetica,sans-Serif" font-size="10.00">CopyBase&lt; ValueType, Comparator</text>
<text text-anchor="middle" x="92" y="-164.5" font-family="Helvetica,sans-Serif" font-size="10.00"> &gt;::Loser</text>
</a>
</g>
</g>
<!-- Node3&#45;&gt;Node2 -->
<g id="edge2" class="edge"><title>Node3&#45;&gt;Node2</title>
<path fill="none" stroke="#9a32cd" stroke-dasharray="5,2" d="M92,-147.025C92,-134.258 92,-119.97 92,-109.685"/>
<polygon fill="#9a32cd" stroke="#9a32cd" points="88.5001,-147.271 92,-157.271 95.5001,-147.271 88.5001,-147.271"/>
<text text-anchor="middle" x="107" y="-131" font-family="Helvetica,sans-Serif" font-size="10.00"> losers</text>
</g>
</g>
</svg>
