<?xml version="1.0" encoding="UTF-8" standalone="no"?>
<!DOCTYPE svg PUBLIC "-//W3C//DTD SVG 1.1//EN"
 "http://www.w3.org/Graphics/SVG/1.1/DTD/svg11.dtd">
<!-- Generated by graphviz version 2.26.3 (20100126.1600)
 -->
<!-- Title: stxxl::unordered_map&lt; KeyType, MappedType, HashType, CompareType, SubBlockSize, SubBlocksPerBlock, AllocType &gt; Pages: 1 -->
<svg width="2428pt" height="594pt"
 viewBox="0.00 0.00 2428.00 594.00" xmlns="http://www.w3.org/2000/svg" xmlns:xlink="http://www.w3.org/1999/xlink">
<g id="graph1" class="graph" transform="scale(1 1) rotate(0) translate(4 590)">
<title>stxxl::unordered_map&lt; KeyType, MappedType, HashType, CompareType, SubBlockSize, SubBlocksPerBlock, AllocType &gt;</title>
<!-- Node1 -->
<g id="node1" class="node"><title>Node1</title>
<polygon fill="#bfbfbf" stroke="black" points="2242.5,-478.5 2242.5,-551.5 2419.5,-551.5 2419.5,-478.5 2242.5,-478.5"/>
<text text-anchor="start" x="2250.5" y="-538.5" font-family="Helvetica,sans-Serif" font-size="10.00">stxxl::unordered_map</text>
<text text-anchor="start" x="2250.5" y="-525.5" font-family="Helvetica,sans-Serif" font-size="10.00">&lt; KeyType, MappedType,</text>
<text text-anchor="start" x="2250.5" y="-512.5" font-family="Helvetica,sans-Serif" font-size="10.00"> HashType, CompareType,</text>
<text text-anchor="start" x="2250.5" y="-499.5" font-family="Helvetica,sans-Serif" font-size="10.00"> SubBlockSize, SubBlocksPerBlock,</text>
<text text-anchor="middle" x="2331" y="-486.5" font-family="Helvetica,sans-Serif" font-size="10.00"> AllocType &gt;</text>
</g>
<!-- Node2 -->
<g id="node2" class="node"><title>Node2</title>
<a xlink:href="classstxxl_1_1noncopyable.html" target="_top" xlink:title="stxxl::noncopyable">
<polygon fill="none" stroke="black" points="286,-352.5 286,-373.5 384,-373.5 384,-352.5 286,-352.5"/>
<text text-anchor="middle" x="335" y="-360.5" font-family="Helvetica,sans-Serif" font-size="10.00">stxxl::noncopyable</text>
</a>
</g>
<!-- Node2&#45;&gt;Node1 -->
<g id="edge2" class="edge"><title>Node2&#45;&gt;Node1</title>
<path fill="none" stroke="#8b1a1a" d="M340.398,-383.485C349.427,-414.763 370.027,-475.094 404,-516 443.203,-563.204 461.639,-586 523,-586 523,-586 523,-586 2095,-586 2148.7,-586 2206.46,-568.937 2251.4,-551.54"/>
<polygon fill="#8b1a1a" stroke="#8b1a1a" points="343.732,-382.412 337.683,-373.713 336.987,-384.285 343.732,-382.412"/>
</g>
<!-- Node3 -->
<g id="node4" class="node"><title>Node3</title>
<a xlink:href="classstxxl_1_1hash__map_1_1hash__map.html" target="_top" xlink:title="stxxl::hash_map::hash\l_map\&lt; KeyType, MappedType,\l HashType, CompareType,\l SubBlockSize, SubBlocksPerBlock,\l AllocType \&gt;">
<polygon fill="none" stroke="black" points="2006.5,-292.5 2006.5,-365.5 2183.5,-365.5 2183.5,-292.5 2006.5,-292.5"/>
<text text-anchor="start" x="2014.5" y="-352.5" font-family="Helvetica,sans-Serif" font-size="10.00">stxxl::hash_map::hash</text>
<text text-anchor="start" x="2014.5" y="-339.5" font-family="Helvetica,sans-Serif" font-size="10.00">_map&lt; KeyType, MappedType,</text>
<text text-anchor="start" x="2014.5" y="-326.5" font-family="Helvetica,sans-Serif" font-size="10.00"> HashType, CompareType,</text>
<text text-anchor="start" x="2014.5" y="-313.5" font-family="Helvetica,sans-Serif" font-size="10.00"> SubBlockSize, SubBlocksPerBlock,</text>
<text text-anchor="middle" x="2095" y="-300.5" font-family="Helvetica,sans-Serif" font-size="10.00"> AllocType &gt;</text>
</a>
</g>
<!-- Node2&#45;&gt;Node3 -->
<g id="edge6" class="edge"><title>Node2&#45;&gt;Node3</title>
<path fill="none" stroke="#8b1a1a" d="M341.243,-342.681C350.822,-314.287 371.522,-262.47 404,-229 408.008,-224.87 521.873,-164 523,-164 523,-164 523,-164 1847,-164 1939.05,-164 2022.99,-243.771 2065.6,-292.381"/>
<polygon fill="#8b1a1a" stroke="#8b1a1a" points="337.869,-341.737 338.114,-352.329 344.528,-343.896 337.869,-341.737"/>
</g>
<!-- Node4 -->
<g id="node7" class="node"><title>Node4</title>
<a xlink:href="classstxxl_1_1hash__map_1_1iterator__map.html" target="_top" xlink:title="stxxl::hash_map::iterator\l_map\&lt; self_type \&gt;">
<polygon fill="none" stroke="black" points="806.5,-69 806.5,-103 931.5,-103 931.5,-69 806.5,-69"/>
<text text-anchor="start" x="814.5" y="-90" font-family="Helvetica,sans-Serif" font-size="10.00">stxxl::hash_map::iterator</text>
<text text-anchor="middle" x="869" y="-77" font-family="Helvetica,sans-Serif" font-size="10.00">_map&lt; self_type &gt;</text>
</a>
</g>
<!-- Node2&#45;&gt;Node4 -->
<g id="edge10" class="edge"><title>Node2&#45;&gt;Node4</title>
<path fill="none" stroke="#8b1a1a" d="M335.896,-342.356C338.818,-297.96 351.245,-192.012 404,-125 421.732,-102.476 432.358,-100.594 460,-93 578.984,-60.3098 724.861,-68.7694 806.317,-77.5799"/>
<polygon fill="#8b1a1a" stroke="#8b1a1a" points="332.393,-342.304 335.329,-352.484 339.382,-342.696 332.393,-342.304"/>
</g>
<!-- Node7 -->
<g id="node14" class="node"><title>Node7</title>
<a xlink:href="classstxxl_1_1hash__map_1_1iterator__map.html" target="_top" xlink:title="stxxl::hash_map::iterator\l_map\&lt; HashMap \&gt;">
<polygon fill="none" stroke="black" points="460.5,-102 460.5,-136 585.5,-136 585.5,-102 460.5,-102"/>
<text text-anchor="start" x="468.5" y="-123" font-family="Helvetica,sans-Serif" font-size="10.00">stxxl::hash_map::iterator</text>
<text text-anchor="middle" x="523" y="-110" font-family="Helvetica,sans-Serif" font-size="10.00">_map&lt; HashMap &gt;</text>
</a>
</g>
<!-- Node2&#45;&gt;Node7 -->
<g id="edge18" class="edge"><title>Node2&#45;&gt;Node7</title>
<path fill="none" stroke="#8b1a1a" d="M339.067,-342.338C348.926,-294.268 375.405,-176.971 404,-150 419.22,-135.644 440.226,-127.737 460.358,-123.444"/>
<polygon fill="#8b1a1a" stroke="#8b1a1a" points="335.617,-341.741 337.072,-352.235 342.479,-343.124 335.617,-341.741"/>
</g>
<!-- Node8 -->
<g id="node18" class="node"><title>Node8</title>
<a xlink:href="classstxxl_1_1hash__map_1_1block__cache.html" target="_top" xlink:title="stxxl::hash_map::block\l_cache\&lt; block_type \&gt;">
<polygon fill="none" stroke="black" points="1788,-312 1788,-346 1906,-346 1906,-312 1788,-312"/>
<text text-anchor="start" x="1796" y="-333" font-family="Helvetica,sans-Serif" font-size="10.00">stxxl::hash_map::block</text>
<text text-anchor="middle" x="1847" y="-320" font-family="Helvetica,sans-Serif" font-size="10.00">_cache&lt; block_type &gt;</text>
</a>
</g>
<!-- Node2&#45;&gt;Node8 -->
<g id="edge24" class="edge"><title>Node2&#45;&gt;Node8</title>
<path fill="none" stroke="#8b1a1a" d="M345.569,-343.51C370.394,-300.651 436.889,-202 523,-202 523,-202 523,-202 1531,-202 1647.48,-202 1771.82,-277.207 1822.94,-311.872"/>
<polygon fill="#8b1a1a" stroke="#8b1a1a" points="342.399,-342.006 340.537,-352.436 348.497,-345.444 342.399,-342.006"/>
</g>
<!-- Node11 -->
<g id="node25" class="node"><title>Node11</title>
<a xlink:href="classstxxl_1_1lru__pager.html" target="_top" xlink:title="Pager with LRU replacement strategy. ">
<polygon fill="none" stroke="black" points="1120,-446.5 1120,-467.5 1258,-467.5 1258,-446.5 1120,-446.5"/>
<text text-anchor="middle" x="1189" y="-454.5" font-family="Helvetica,sans-Serif" font-size="10.00">stxxl::lru_pager&lt; npages_ &gt;</text>
</a>
</g>
<!-- Node2&#45;&gt;Node11 -->
<g id="edge32" class="edge"><title>Node2&#45;&gt;Node11</title>
<path fill="none" stroke="#8b1a1a" d="M345.292,-382.475C363.397,-414.081 404.363,-474.659 460,-491 714.072,-565.621 1039.18,-495.738 1150,-467.563"/>
<polygon fill="#8b1a1a" stroke="#8b1a1a" points="348.326,-380.728 340.417,-373.678 342.203,-384.121 348.326,-380.728"/>
</g>
<!-- Node12 -->
<g id="node28" class="node"><title>Node12</title>
<a xlink:href="classstxxl_1_1simple__vector.html" target="_top" xlink:title="stxxl::simple_vector\l\&lt; list_type::iterator \&gt;">
<polygon fill="none" stroke="black" points="815.5,-440 815.5,-474 922.5,-474 922.5,-440 815.5,-440"/>
<text text-anchor="start" x="823.5" y="-461" font-family="Helvetica,sans-Serif" font-size="10.00">stxxl::simple_vector</text>
<text text-anchor="middle" x="869" y="-448" font-family="Helvetica,sans-Serif" font-size="10.00">&lt; list_type::iterator &gt;</text>
</a>
</g>
<!-- Node2&#45;&gt;Node12 -->
<g id="edge36" class="edge"><title>Node2&#45;&gt;Node12</title>
<path fill="none" stroke="#8b1a1a" d="M380.113,-376.179C388.036,-378.277 396.232,-380.309 404,-382 551.619,-414.129 728.353,-438.946 815.295,-450.271"/>
<polygon fill="#8b1a1a" stroke="#8b1a1a" points="380.841,-372.75 370.273,-373.508 379.007,-379.506 380.841,-372.75"/>
</g>
<!-- Node13 -->
<g id="node31" class="node"><title>Node13</title>
<a xlink:href="classstxxl_1_1simple__vector.html" target="_top" xlink:title="Simpler non&#45;growing vector without initialization. ">
<polygon fill="none" stroke="black" points="471,-448 471,-482 575,-482 575,-448 471,-448"/>
<text text-anchor="start" x="479" y="-469" font-family="Helvetica,sans-Serif" font-size="10.00">stxxl::simple_vector</text>
<text text-anchor="middle" x="523" y="-456" font-family="Helvetica,sans-Serif" font-size="10.00">&lt; ValueType &gt;</text>
</a>
</g>
<!-- Node2&#45;&gt;Node13 -->
<g id="edge40" class="edge"><title>Node2&#45;&gt;Node13</title>
<path fill="none" stroke="#8b1a1a" d="M348.554,-381.895C361.14,-398.075 381.315,-420.792 404,-434 424.295,-445.816 449.12,-453.202 470.835,-457.782"/>
<polygon fill="#8b1a1a" stroke="#8b1a1a" points="351.183,-379.568 342.374,-373.68 345.589,-383.776 351.183,-379.568"/>
</g>
<!-- Node14 -->
<g id="node34" class="node"><title>Node14</title>
<a xlink:href="classstxxl_1_1hash__map_1_1block__cache__write__buffer.html" target="_top" xlink:title="stxxl::hash_map::block\l_cache_write_buffer\&lt; block\l_type \&gt;">
<polygon fill="none" stroke="black" points="964.5,-347.5 964.5,-394.5 1101.5,-394.5 1101.5,-347.5 964.5,-347.5"/>
<text text-anchor="start" x="972.5" y="-381.5" font-family="Helvetica,sans-Serif" font-size="10.00">stxxl::hash_map::block</text>
<text text-anchor="start" x="972.5" y="-368.5" font-family="Helvetica,sans-Serif" font-size="10.00">_cache_write_buffer&lt; block</text>
<text text-anchor="middle" x="1033" y="-355.5" font-family="Helvetica,sans-Serif" font-size="10.00">_type &gt;</text>
</a>
</g>
<!-- Node2&#45;&gt;Node14 -->
<g id="edge44" class="edge"><title>Node2&#45;&gt;Node14</title>
<path fill="none" stroke="#8b1a1a" d="M394.21,-361.249C478.551,-359.031 638.129,-355.854 774,-359 838.577,-360.495 912.138,-364.085 964.321,-366.951"/>
<polygon fill="#8b1a1a" stroke="#8b1a1a" points="393.959,-357.755 384.056,-361.521 394.146,-364.752 393.959,-357.755"/>
</g>
<!-- Node15 -->
<g id="node37" class="node"><title>Node15</title>
<a xlink:href="classstxxl_1_1hash__map_1_1block__cache__write__buffer.html" target="_top" xlink:title="Used inside block_cache for buffering write requests of cached blocks. ">
<polygon fill="none" stroke="black" points="604.5,-368 604.5,-402 773.5,-402 773.5,-368 604.5,-368"/>
<text text-anchor="start" x="612.5" y="-389" font-family="Helvetica,sans-Serif" font-size="10.00">stxxl::hash_map::block</text>
<text text-anchor="middle" x="689" y="-376" font-family="Helvetica,sans-Serif" font-size="10.00">_cache_write_buffer&lt; BlockType &gt;</text>
</a>
</g>
<!-- Node2&#45;&gt;Node15 -->
<g id="edge48" class="edge"><title>Node2&#45;&gt;Node15</title>
<path fill="none" stroke="#8b1a1a" d="M394.242,-366.682C451.757,-370.256 539.635,-375.717 604.482,-379.747"/>
<polygon fill="#8b1a1a" stroke="#8b1a1a" points="394.42,-363.186 384.222,-366.059 393.986,-370.173 394.42,-363.186"/>
</g>
<!-- Node16 -->
<g id="node40" class="node"><title>Node16</title>
<a xlink:href="classstxxl_1_1hash__map_1_1block__cache.html" target="_top" xlink:title="Cache of blocks contained in an external memory hash map. Uses the stxxl::lru_pager as eviction algor...">
<polygon fill="none" stroke="black" points="1472,-312 1472,-346 1590,-346 1590,-312 1472,-312"/>
<text text-anchor="start" x="1480" y="-333" font-family="Helvetica,sans-Serif" font-size="10.00">stxxl::hash_map::block</text>
<text text-anchor="middle" x="1531" y="-320" font-family="Helvetica,sans-Serif" font-size="10.00">_cache&lt; BlockType &gt;</text>
</a>
</g>
<!-- Node2&#45;&gt;Node16 -->
<g id="edge52" class="edge"><title>Node2&#45;&gt;Node16</title>
<path fill="none" stroke="#8b1a1a" d="M364.583,-348.108C400.928,-331.22 464.923,-306 523,-306 523,-306 523,-306 1033,-306 1191.6,-306 1378.32,-317.785 1471.63,-324.483"/>
<polygon fill="#8b1a1a" stroke="#8b1a1a" points="363.056,-344.959 355.526,-352.412 366.061,-351.281 363.056,-344.959"/>
</g>
<!-- Node17 -->
<g id="node46" class="node"><title>Node17</title>
<a xlink:href="classstxxl_1_1hash__map_1_1hash__map.html" target="_top" xlink:title="Main implementation of external memory hash map. ">
<polygon fill="none" stroke="black" points="1276.5,-484.5 1276.5,-557.5 1453.5,-557.5 1453.5,-484.5 1276.5,-484.5"/>
<text text-anchor="start" x="1284.5" y="-544.5" font-family="Helvetica,sans-Serif" font-size="10.00">stxxl::hash_map::hash</text>
<text text-anchor="start" x="1284.5" y="-531.5" font-family="Helvetica,sans-Serif" font-size="10.00">_map&lt; KeyType, MappedType,</text>
<text text-anchor="start" x="1284.5" y="-518.5" font-family="Helvetica,sans-Serif" font-size="10.00"> HashType, KeyCompareType,</text>
<text text-anchor="start" x="1284.5" y="-505.5" font-family="Helvetica,sans-Serif" font-size="10.00"> SubBlockSize, SubBlocksPerBlock,</text>
<text text-anchor="middle" x="1365" y="-492.5" font-family="Helvetica,sans-Serif" font-size="10.00"> AllocatorType &gt;</text>
</a>
</g>
<!-- Node2&#45;&gt;Node17 -->
<g id="edge62" class="edge"><title>Node2&#45;&gt;Node17</title>
<path fill="none" stroke="#8b1a1a" d="M342.504,-383.287C352.981,-409.405 374.123,-454.991 404,-485 446.222,-527.409 463.157,-548 523,-548 523,-548 523,-548 1033,-548 1115.7,-548 1209.6,-539.575 1276.38,-532.138"/>
<polygon fill="#8b1a1a" stroke="#8b1a1a" points="345.663,-381.751 338.786,-373.692 339.136,-384.281 345.663,-381.751"/>
</g>
<!-- Node3&#45;&gt;Node1 -->
<g id="edge4" class="edge"><title>Node3&#45;&gt;Node1</title>
<path fill="none" stroke="#9a32cd" stroke-dasharray="5,2" d="M2149.31,-371.803C2190.15,-403.987 2245.51,-447.625 2284.36,-478.24"/>
<polygon fill="#9a32cd" stroke="#9a32cd" points="2151.36,-368.967 2141.34,-365.526 2147.03,-374.465 2151.36,-368.967"/>
<text text-anchor="middle" x="2213" y="-431" font-family="Helvetica,sans-Serif" font-size="10.00"> impl</text>
</g>
<!-- Node4&#45;&gt;Node3 -->
<g id="edge8" class="edge"><title>Node4&#45;&gt;Node3</title>
<path fill="none" stroke="#9a32cd" stroke-dasharray="5,2" d="M941.631,-90.6328C1006.47,-94.3672 1104.03,-99 1189,-99 1189,-99 1189,-99 1847,-99 1913.64,-99 1936.58,-107.605 1988,-150 2034.37,-188.235 2065.59,-252.148 2081.82,-292.362"/>
<polygon fill="#9a32cd" stroke="#9a32cd" points="941.7,-87.131 931.513,-90.042 941.292,-94.1191 941.7,-87.131"/>
<text text-anchor="middle" x="1531" y="-103" font-family="Helvetica,sans-Serif" font-size="10.00"> iterator_map_</text>
</g>
<!-- Node5 -->
<g id="node10" class="node"><title>Node5</title>
<a xlink:href="structstxxl_1_1compat__hash__multimap.html" target="_top" xlink:title="stxxl::compat_hash\l_multimap\&lt; internal\l_size_type, iterator\l_base *, hasher \&gt;">
<polygon fill="none" stroke="black" points="284,-0 284,-60 386,-60 386,-0 284,-0"/>
<text text-anchor="start" x="292" y="-47" font-family="Helvetica,sans-Serif" font-size="10.00">stxxl::compat_hash</text>
<text text-anchor="start" x="292" y="-34" font-family="Helvetica,sans-Serif" font-size="10.00">_multimap&lt; internal</text>
<text text-anchor="start" x="292" y="-21" font-family="Helvetica,sans-Serif" font-size="10.00">_size_type, iterator</text>
<text text-anchor="middle" x="335" y="-8" font-family="Helvetica,sans-Serif" font-size="10.00">_base *, hasher &gt;</text>
</a>
</g>
<!-- Node5&#45;&gt;Node4 -->
<g id="edge12" class="edge"><title>Node5&#45;&gt;Node4</title>
<path fill="none" stroke="#9a32cd" stroke-dasharray="5,2" d="M396.107,-30.338C481.336,-31.6782 640.469,-37.3409 774,-60 787.065,-62.2171 800.927,-65.4747 813.905,-68.9395"/>
<polygon fill="#9a32cd" stroke="#9a32cd" points="396.136,-26.8381 386.087,-30.1951 396.036,-33.8374 396.136,-26.8381"/>
<text text-anchor="middle" x="523" y="-43" font-family="Helvetica,sans-Serif" font-size="10.00"> it_map_</text>
</g>
<!-- Node5&#45;&gt;Node7 -->
<g id="edge20" class="edge"><title>Node5&#45;&gt;Node7</title>
<path fill="none" stroke="#9a32cd" stroke-dasharray="5,2" d="M395.533,-58.6565C425.65,-72.9141 461.039,-89.6674 486.877,-101.899"/>
<polygon fill="#9a32cd" stroke="#9a32cd" points="396.908,-55.4351 386.372,-54.3196 393.913,-61.7619 396.908,-55.4351"/>
<text text-anchor="middle" x="423" y="-84" font-family="Helvetica,sans-Serif" font-size="10.00"> it_map_</text>
</g>
<!-- Node6 -->
<g id="node12" class="node"><title>Node6</title>
<a xlink:href="structstxxl_1_1compat__hash__multimap.html" target="_top" xlink:title="stxxl::compat_hash\l_multimap\&lt; KeyType,\l MappedType, HashType \&gt;">
<polygon fill="none" stroke="black" points="0,-6.5 0,-53.5 136,-53.5 136,-6.5 0,-6.5"/>
<text text-anchor="start" x="8" y="-40.5" font-family="Helvetica,sans-Serif" font-size="10.00">stxxl::compat_hash</text>
<text text-anchor="start" x="8" y="-27.5" font-family="Helvetica,sans-Serif" font-size="10.00">_multimap&lt; KeyType,</text>
<text text-anchor="middle" x="68" y="-14.5" font-family="Helvetica,sans-Serif" font-size="10.00"> MappedType, HashType &gt;</text>
</a>
</g>
<!-- Node6&#45;&gt;Node5 -->
<g id="edge14" class="edge"><title>Node6&#45;&gt;Node5</title>
<path fill="none" stroke="orange" stroke-dasharray="5,2" d="M146.252,-30C190.663,-30 244.979,-30 283.922,-30"/>
<polygon fill="orange" stroke="orange" points="146.066,-26.5001 136.066,-30 146.066,-33.5001 146.066,-26.5001"/>
<text text-anchor="start" x="154.5" y="-47" font-family="Helvetica,sans-Serif" font-size="10.00"> &lt; internal_size_type,</text>
<text text-anchor="middle" x="210" y="-34" font-family="Helvetica,sans-Serif" font-size="10.00"> iterator_base *, hasher &gt;</text>
</g>
<!-- Node7&#45;&gt;Node4 -->
<g id="edge16" class="edge"><title>Node7&#45;&gt;Node4</title>
<path fill="none" stroke="orange" stroke-dasharray="5,2" d="M595.813,-112.055C658.151,-106.11 746.97,-97.6387 806.224,-91.9873"/>
<polygon fill="orange" stroke="orange" points="595.28,-108.59 585.658,-113.024 595.945,-115.559 595.28,-108.59"/>
<text text-anchor="middle" x="689" y="-116" font-family="Helvetica,sans-Serif" font-size="10.00"> &lt; self_type &gt;</text>
</g>
<!-- Node8&#45;&gt;Node3 -->
<g id="edge22" class="edge"><title>Node8&#45;&gt;Node3</title>
<path fill="none" stroke="#9a32cd" stroke-dasharray="5,2" d="M1916.15,-329C1944.07,-329 1976.65,-329 2006.28,-329"/>
<polygon fill="#9a32cd" stroke="#9a32cd" points="1916.09,-325.5 1906.09,-329 1916.09,-332.5 1916.09,-325.5"/>
<text text-anchor="middle" x="1956" y="-333" font-family="Helvetica,sans-Serif" font-size="10.00"> block_cache_</text>
</g>
<!-- Node9 -->
<g id="node21" class="node"><title>Node9</title>
<a xlink:href="structstxxl_1_1compat__hash__map.html" target="_top" xlink:title="stxxl::compat_hash\l_map\&lt; bid_type, unsigned\l_type, bid_hash \&gt;">
<polygon fill="none" stroke="black" points="1123.5,-230.5 1123.5,-277.5 1254.5,-277.5 1254.5,-230.5 1123.5,-230.5"/>
<text text-anchor="start" x="1131.5" y="-264.5" font-family="Helvetica,sans-Serif" font-size="10.00">stxxl::compat_hash</text>
<text text-anchor="start" x="1131.5" y="-251.5" font-family="Helvetica,sans-Serif" font-size="10.00">_map&lt; bid_type, unsigned</text>
<text text-anchor="middle" x="1189" y="-238.5" font-family="Helvetica,sans-Serif" font-size="10.00">_type, bid_hash &gt;</text>
</a>
</g>
<!-- Node9&#45;&gt;Node8 -->
<g id="edge26" class="edge"><title>Node9&#45;&gt;Node8</title>
<path fill="none" stroke="#9a32cd" stroke-dasharray="5,2" d="M1264.52,-253.502C1317.64,-253.83 1390.32,-255.642 1454,-262 1573.32,-273.914 1711.13,-300.388 1787.76,-316.259"/>
<polygon fill="#9a32cd" stroke="#9a32cd" points="1264.52,-250.002 1254.51,-253.456 1264.49,-257.002 1264.52,-250.002"/>
<text text-anchor="middle" x="1531" y="-283" font-family="Helvetica,sans-Serif" font-size="10.00"> bid_map_</text>
</g>
<!-- Node9&#45;&gt;Node16 -->
<g id="edge54" class="edge"><title>Node9&#45;&gt;Node16</title>
<path fill="none" stroke="#9a32cd" stroke-dasharray="5,2" d="M1265,-258.308C1330.65,-262.71 1420.15,-270.534 1454,-282 1474.03,-288.784 1494.34,-301.483 1509.08,-311.973"/>
<polygon fill="#9a32cd" stroke="#9a32cd" points="1264.88,-254.793 1254.68,-257.631 1264.42,-261.778 1264.88,-254.793"/>
<text text-anchor="middle" x="1365" y="-286" font-family="Helvetica,sans-Serif" font-size="10.00"> bid_map_</text>
</g>
<!-- Node10 -->
<g id="node23" class="node"><title>Node10</title>
<a xlink:href="structstxxl_1_1compat__hash__map.html" target="_top" xlink:title="stxxl::compat_hash\l_map\&lt; KeyType, MappedType,\l HashType \&gt;">
<polygon fill="none" stroke="black" points="792,-230.5 792,-277.5 946,-277.5 946,-230.5 792,-230.5"/>
<text text-anchor="start" x="800" y="-264.5" font-family="Helvetica,sans-Serif" font-size="10.00">stxxl::compat_hash</text>
<text text-anchor="start" x="800" y="-251.5" font-family="Helvetica,sans-Serif" font-size="10.00">_map&lt; KeyType, MappedType,</text>
<text text-anchor="middle" x="869" y="-238.5" font-family="Helvetica,sans-Serif" font-size="10.00"> HashType &gt;</text>
</a>
</g>
<!-- Node10&#45;&gt;Node9 -->
<g id="edge28" class="edge"><title>Node10&#45;&gt;Node9</title>
<path fill="none" stroke="orange" stroke-dasharray="5,2" d="M956.082,-254C1008.85,-254 1075.09,-254 1123.42,-254"/>
<polygon fill="orange" stroke="orange" points="956.055,-250.5 946.055,-254 956.055,-257.5 956.055,-250.5"/>
<text text-anchor="start" x="986" y="-271" font-family="Helvetica,sans-Serif" font-size="10.00"> &lt; bid_type, unsigned</text>
<text text-anchor="middle" x="1033" y="-258" font-family="Helvetica,sans-Serif" font-size="10.00">_type, bid_hash &gt;</text>
</g>
<!-- Node11&#45;&gt;Node8 -->
<g id="edge30" class="edge"><title>Node11&#45;&gt;Node8</title>
<path fill="none" stroke="#9a32cd" stroke-dasharray="5,2" d="M1268.29,-467.409C1384.7,-479.014 1605.84,-486.835 1770,-407 1798.41,-393.186 1822.35,-364.49 1835.67,-346.021"/>
<polygon fill="#9a32cd" stroke="#9a32cd" points="1268.34,-463.897 1258.04,-466.351 1267.62,-470.86 1268.34,-463.897"/>
<text text-anchor="middle" x="1531" y="-477" font-family="Helvetica,sans-Serif" font-size="10.00"> pager_</text>
</g>
<!-- Node11&#45;&gt;Node16 -->
<g id="edge56" class="edge"><title>Node11&#45;&gt;Node16</title>
<path fill="none" stroke="#9a32cd" stroke-dasharray="5,2" d="M1228.3,-443.227C1243.1,-438.458 1260.18,-433.45 1276,-430 1353.94,-413.004 1382.53,-442.426 1454,-407 1482.13,-393.056 1505.99,-364.684 1519.39,-346.275"/>
<polygon fill="#9a32cd" stroke="#9a32cd" points="1226.86,-440.015 1218.46,-446.468 1229.05,-446.664 1226.86,-440.015"/>
<text text-anchor="middle" x="1365" y="-434" font-family="Helvetica,sans-Serif" font-size="10.00"> pager_</text>
</g>
<!-- Node12&#45;&gt;Node11 -->
<g id="edge34" class="edge"><title>Node12&#45;&gt;Node11</title>
<path fill="none" stroke="#9a32cd" stroke-dasharray="5,2" d="M932.717,-457C986.816,-457 1064.3,-457 1119.88,-457"/>
<polygon fill="#9a32cd" stroke="#9a32cd" points="932.561,-453.5 922.561,-457 932.561,-460.5 932.561,-453.5"/>
<text text-anchor="middle" x="1033" y="-461" font-family="Helvetica,sans-Serif" font-size="10.00"> history_entry</text>
</g>
<!-- Node13&#45;&gt;Node12 -->
<g id="edge38" class="edge"><title>Node13&#45;&gt;Node12</title>
<path fill="none" stroke="orange" stroke-dasharray="5,2" d="M585.376,-463.558C650.971,-462.041 753.114,-459.679 815.26,-458.243"/>
<polygon fill="orange" stroke="orange" points="585.091,-460.063 575.174,-463.794 585.253,-467.061 585.091,-460.063"/>
<text text-anchor="middle" x="689" y="-467" font-family="Helvetica,sans-Serif" font-size="10.00"> &lt; list_type::iterator &gt;</text>
</g>
<!-- Node14&#45;&gt;Node8 -->
<g id="edge42" class="edge"><title>Node14&#45;&gt;Node8</title>
<path fill="none" stroke="#9a32cd" stroke-dasharray="5,2" d="M1111.85,-378.571C1114.6,-378.733 1117.32,-378.877 1120,-379 1181.27,-381.811 1196.7,-380.973 1258,-379 1485.91,-371.663 1544.23,-378.007 1770,-346 1775.83,-345.174 1781.87,-344.145 1787.89,-343.006"/>
<polygon fill="#9a32cd" stroke="#9a32cd" points="1112.03,-375.076 1101.82,-377.915 1111.57,-382.061 1112.03,-375.076"/>
<text text-anchor="middle" x="1365" y="-382" font-family="Helvetica,sans-Serif" font-size="10.00"> write_buffer_</text>
</g>
<!-- Node14&#45;&gt;Node16 -->
<g id="edge58" class="edge"><title>Node14&#45;&gt;Node16</title>
<path fill="none" stroke="#9a32cd" stroke-dasharray="5,2" d="M1111.78,-364.356C1211.85,-355.916 1382.28,-341.542 1471.91,-333.983"/>
<polygon fill="#9a32cd" stroke="#9a32cd" points="1111.39,-360.876 1101.72,-365.204 1111.98,-367.851 1111.39,-360.876"/>
<text text-anchor="middle" x="1189" y="-367" font-family="Helvetica,sans-Serif" font-size="10.00"> write_buffer_</text>
</g>
<!-- Node15&#45;&gt;Node14 -->
<g id="edge46" class="edge"><title>Node15&#45;&gt;Node14</title>
<path fill="none" stroke="orange" stroke-dasharray="5,2" d="M783.735,-381.145C840.95,-378.816 912.563,-375.902 964.332,-373.795"/>
<polygon fill="orange" stroke="orange" points="783.442,-377.653 773.592,-381.557 783.727,-384.648 783.442,-377.653"/>
<text text-anchor="middle" x="869" y="-384" font-family="Helvetica,sans-Serif" font-size="10.00"> &lt; block_type &gt;</text>
</g>
<!-- Node16&#45;&gt;Node8 -->
<g id="edge50" class="edge"><title>Node16&#45;&gt;Node8</title>
<path fill="none" stroke="orange" stroke-dasharray="5,2" d="M1600.28,-329C1656.45,-329 1734.74,-329 1787.96,-329"/>
<polygon fill="orange" stroke="orange" points="1600.07,-325.5 1590.07,-329 1600.07,-332.5 1600.07,-325.5"/>
<text text-anchor="middle" x="1689" y="-333" font-family="Helvetica,sans-Serif" font-size="10.00"> &lt; block_type &gt;</text>
</g>
<!-- Node17&#45;&gt;Node3 -->
<g id="edge60" class="edge"><title>Node17&#45;&gt;Node3</title>
<path fill="none" stroke="orange" stroke-dasharray="5,2" d="M1463.88,-508.965C1503.26,-503.643 1548.9,-496.813 1590,-489 1670.8,-473.637 1691.18,-469.522 1770,-446 1851.02,-421.819 1941.39,-388.782 2006.22,-363.98"/>
<polygon fill="orange" stroke="orange" points="1463.19,-505.525 1453.74,-510.32 1464.12,-512.463 1463.19,-505.525"/>
<text text-anchor="start" x="1608.5" y="-528" font-family="Helvetica,sans-Serif" font-size="10.00"> &lt; KeyType, MappedType,</text>
<text text-anchor="start" x="1608.5" y="-515" font-family="Helvetica,sans-Serif" font-size="10.00"> HashType, CompareType,</text>
<text text-anchor="start" x="1608.5" y="-502" font-family="Helvetica,sans-Serif" font-size="10.00"> SubBlockSize, SubBlocksPerBlock,</text>
<text text-anchor="middle" x="1689" y="-489" font-family="Helvetica,sans-Serif" font-size="10.00"> AllocType &gt;</text>
</g>
</g>
</svg>
