<?xml version="1.0" encoding="UTF-8" standalone="no"?>
<!DOCTYPE svg PUBLIC "-//W3C//DTD SVG 1.1//EN"
 "http://www.w3.org/Graphics/SVG/1.1/DTD/svg11.dtd">
<!-- Generated by graphviz version 2.26.3 (20100126.1600)
 -->
<!-- Title: stxxl::stream::make_tuple&lt; Input1_, Input2_, Input3_, Input4_, Input5_, Stopper &gt; Pages: 1 -->
<svg width="634pt" height="150pt"
 viewBox="0.00 0.00 634.00 150.00" xmlns="http://www.w3.org/2000/svg" xmlns:xlink="http://www.w3.org/1999/xlink">
<g id="graph1" class="graph" transform="scale(1 1) rotate(0) translate(4 146)">
<title>stxxl::stream::make_tuple&lt; Input1_, Input2_, Input3_, Input4_, Input5_, Stopper &gt;</title>
<!-- Node1 -->
<g id="node1" class="node"><title>Node1</title>
<polygon fill="#bfbfbf" stroke="black" points="494.5,-44 494.5,-104 625.5,-104 625.5,-44 494.5,-44"/>
<text text-anchor="start" x="502.5" y="-91" font-family="Helvetica,sans-Serif" font-size="10.00">stxxl::stream::make</text>
<text text-anchor="start" x="502.5" y="-78" font-family="Helvetica,sans-Serif" font-size="10.00">_tuple&lt; Input1_, Input2</text>
<text text-anchor="start" x="502.5" y="-65" font-family="Helvetica,sans-Serif" font-size="10.00">_, Input3_, Input4_, Input5</text>
<text text-anchor="middle" x="560" y="-52" font-family="Helvetica,sans-Serif" font-size="10.00">_, Stopper &gt;</text>
</g>
<!-- Node2 -->
<g id="node2" class="node"><title>Node2</title>
<a xlink:href="structstxxl_1_1tuple.html" target="_top" xlink:title="stxxl::tuple\&lt; typename\l Input1_::value_type,\l typename Input2_::value\l_type, typename Input3_::\lvalue_type, typename Input4\l_::value_type, typename Input5\l_::value_type \&gt;">
<polygon fill="none" stroke="black" points="270,-24.5 270,-123.5 424,-123.5 424,-24.5 270,-24.5"/>
<text text-anchor="start" x="278" y="-110.5" font-family="Helvetica,sans-Serif" font-size="10.00">stxxl::tuple&lt; typename</text>
<text text-anchor="start" x="278" y="-97.5" font-family="Helvetica,sans-Serif" font-size="10.00"> Input1_::value_type,</text>
<text text-anchor="start" x="278" y="-84.5" font-family="Helvetica,sans-Serif" font-size="10.00"> typename Input2_::value</text>
<text text-anchor="start" x="278" y="-71.5" font-family="Helvetica,sans-Serif" font-size="10.00">_type, typename Input3_::</text>
<text text-anchor="start" x="278" y="-58.5" font-family="Helvetica,sans-Serif" font-size="10.00">value_type, typename Input4</text>
<text text-anchor="start" x="278" y="-45.5" font-family="Helvetica,sans-Serif" font-size="10.00">_::value_type, typename Input5</text>
<text text-anchor="middle" x="347" y="-32.5" font-family="Helvetica,sans-Serif" font-size="10.00">_::value_type &gt;</text>
</a>
</g>
<!-- Node2&#45;&gt;Node1 -->
<g id="edge2" class="edge"><title>Node2&#45;&gt;Node1</title>
<path fill="none" stroke="#9a32cd" stroke-dasharray="5,2" d="M434.271,-74C454.331,-74 475.333,-74 494.3,-74"/>
<polygon fill="#9a32cd" stroke="#9a32cd" points="434.199,-70.5001 424.199,-74 434.199,-77.5001 434.199,-70.5001"/>
<text text-anchor="middle" x="459" y="-78" font-family="Helvetica,sans-Serif" font-size="10.00"> current</text>
</g>
<!-- Node3 -->
<g id="node4" class="node"><title>Node3</title>
<a xlink:href="structstxxl_1_1Plug.html" target="_top" xlink:title="stxxl::Plug">
<polygon fill="none" stroke="black" points="21.5,-120.5 21.5,-141.5 84.5,-141.5 84.5,-120.5 21.5,-120.5"/>
<text text-anchor="middle" x="53" y="-128.5" font-family="Helvetica,sans-Serif" font-size="10.00">stxxl::Plug</text>
</a>
</g>
<!-- Node3&#45;&gt;Node2 -->
<g id="edge4" class="edge"><title>Node3&#45;&gt;Node2</title>
<path fill="none" stroke="#9a32cd" stroke-dasharray="5,2" d="M94.84,-129.327C135.458,-127.013 198.625,-121.585 252,-109 257.902,-107.608 263.939,-105.956 269.967,-104.139"/>
<polygon fill="#9a32cd" stroke="#9a32cd" points="94.5665,-125.836 84.7666,-129.863 94.9385,-132.827 94.5665,-125.836"/>
<text text-anchor="middle" x="188" y="-131" font-family="Helvetica,sans-Serif" font-size="10.00"> sixth</text>
</g>
<!-- Node4 -->
<g id="node6" class="node"><title>Node4</title>
<a xlink:href="structstxxl_1_1tuple.html" target="_top" xlink:title="k&#45;Tuple data type ">
<polygon fill="none" stroke="black" points="0.5,-0 0.5,-34 105.5,-34 105.5,-0 0.5,-0"/>
<text text-anchor="start" x="8.5" y="-21" font-family="Helvetica,sans-Serif" font-size="10.00">stxxl::tuple&lt; T1, T2,</text>
<text text-anchor="middle" x="53" y="-8" font-family="Helvetica,sans-Serif" font-size="10.00"> T3, T4, T5, T6 &gt;</text>
</a>
</g>
<!-- Node4&#45;&gt;Node2 -->
<g id="edge6" class="edge"><title>Node4&#45;&gt;Node2</title>
<path fill="none" stroke="orange" stroke-dasharray="5,2" d="M115.753,-6.77878C155.564,-2.54335 207.727,-1.18957 252,-14 260.807,-16.5483 269.582,-20.1833 278.041,-24.4201"/>
<polygon fill="orange" stroke="orange" points="115.184,-3.32107 105.65,-7.94291 115.985,-10.2751 115.184,-3.32107"/>
<text text-anchor="start" x="124.5" y="-96" font-family="Helvetica,sans-Serif" font-size="10.00"> &lt; typename Input1_</text>
<text text-anchor="start" x="124.5" y="-83" font-family="Helvetica,sans-Serif" font-size="10.00">::value_type, typename</text>
<text text-anchor="start" x="124.5" y="-70" font-family="Helvetica,sans-Serif" font-size="10.00"> Input2_::value_type,</text>
<text text-anchor="start" x="124.5" y="-57" font-family="Helvetica,sans-Serif" font-size="10.00"> typename Input3_::value</text>
<text text-anchor="start" x="124.5" y="-44" font-family="Helvetica,sans-Serif" font-size="10.00">_type, typename Input4_::</text>
<text text-anchor="start" x="124.5" y="-31" font-family="Helvetica,sans-Serif" font-size="10.00">value_type, typename Input5</text>
<text text-anchor="middle" x="188" y="-18" font-family="Helvetica,sans-Serif" font-size="10.00">_::value_type &gt;</text>
</g>
</g>
</svg>
