<?xml version="1.0" encoding="UTF-8" standalone="no"?>
<!DOCTYPE svg PUBLIC "-//W3C//DTD SVG 1.1//EN"
 "http://www.w3.org/Graphics/SVG/1.1/DTD/svg11.dtd">
<!-- Generated by graphviz version 2.26.3 (20100126.1600)
 -->
<!-- Title: stxxl::mem_file Pages: 1 -->
<svg width="341pt" height="408pt"
 viewBox="0.00 0.00 341.00 408.00" xmlns="http://www.w3.org/2000/svg" xmlns:xlink="http://www.w3.org/1999/xlink">
<g id="graph1" class="graph" transform="scale(1 1) rotate(0) translate(4 404)">
<title>stxxl::mem_file</title>
<!-- Node1 -->
<g id="node1" class="node"><title>Node1</title>
<polygon fill="#bfbfbf" stroke="black" points="51.5,-0.5 51.5,-21.5 134.5,-21.5 134.5,-0.5 51.5,-0.5"/>
<text text-anchor="middle" x="93" y="-8.5" font-family="Helvetica,sans-Serif" font-size="10.00">stxxl::mem_file</text>
</g>
<!-- Node2 -->
<g id="node2" class="node"><title>Node2</title>
<a xlink:href="classstxxl_1_1disk__queued__file.html" target="_top" xlink:title="Implementation of some file methods based on serving_request. ">
<polygon fill="none" stroke="black" points="94,-60.5 94,-81.5 210,-81.5 210,-60.5 94,-60.5"/>
<text text-anchor="middle" x="152" y="-68.5" font-family="Helvetica,sans-Serif" font-size="10.00">stxxl::disk_queued_file</text>
</a>
</g>
<!-- Node2&#45;&gt;Node1 -->
<g id="edge2" class="edge"><title>Node2&#45;&gt;Node1</title>
<path fill="none" stroke="midnightblue" d="M134.286,-52.986C124.23,-42.7598 111.988,-30.3099 103.457,-21.6339"/>
<polygon fill="midnightblue" stroke="midnightblue" points="131.945,-55.5969 141.452,-60.2732 136.936,-50.6889 131.945,-55.5969"/>
</g>
<!-- Node3 -->
<g id="node4" class="node"><title>Node3</title>
<a xlink:href="classstxxl_1_1file.html" target="_top" xlink:title="Defines interface of file. ">
<polygon fill="none" stroke="black" points="127,-120.5 127,-141.5 183,-141.5 183,-120.5 127,-120.5"/>
<text text-anchor="middle" x="155" y="-128.5" font-family="Helvetica,sans-Serif" font-size="10.00">stxxl::file</text>
</a>
</g>
<!-- Node3&#45;&gt;Node2 -->
<g id="edge4" class="edge"><title>Node3&#45;&gt;Node2</title>
<path fill="none" stroke="midnightblue" d="M153.962,-110.231C153.48,-100.592 152.927,-89.5444 152.532,-81.6339"/>
<polygon fill="midnightblue" stroke="midnightblue" points="150.469,-110.46 154.464,-120.273 157.46,-110.111 150.469,-110.46"/>
</g>
<!-- Node4 -->
<g id="node6" class="node"><title>Node4</title>
<a xlink:href="classstxxl_1_1noncopyable.html" target="_top" xlink:title="stxxl::noncopyable">
<polygon fill="none" stroke="black" points="0,-371.5 0,-392.5 98,-392.5 98,-371.5 0,-371.5"/>
<text text-anchor="middle" x="49" y="-379.5" font-family="Helvetica,sans-Serif" font-size="10.00">stxxl::noncopyable</text>
</a>
</g>
<!-- Node4&#45;&gt;Node3 -->
<g id="edge6" class="edge"><title>Node4&#45;&gt;Node3</title>
<path fill="none" stroke="#8b1a1a" d="M44.7449,-361.202C40.1121,-333.682 35.2887,-284.196 51,-246 70.0467,-199.696 116.317,-159.97 140.197,-141.706"/>
<polygon fill="#8b1a1a" stroke="#8b1a1a" points="41.3401,-362.039 46.5947,-371.239 48.2242,-360.77 41.3401,-362.039"/>
</g>
<!-- Node6 -->
<g id="node10" class="node"><title>Node6</title>
<a xlink:href="classstxxl_1_1mutex.html" target="_top" xlink:title="stxxl::mutex">
<polygon fill="none" stroke="black" points="54.5,-285.5 54.5,-306.5 125.5,-306.5 125.5,-285.5 54.5,-285.5"/>
<text text-anchor="middle" x="90" y="-293.5" font-family="Helvetica,sans-Serif" font-size="10.00">stxxl::mutex</text>
</a>
</g>
<!-- Node4&#45;&gt;Node6 -->
<g id="edge12" class="edge"><title>Node4&#45;&gt;Node6</title>
<path fill="none" stroke="#8b1a1a" d="M58.4235,-362.234C66.6694,-344.937 78.3324,-320.474 84.9315,-306.632"/>
<polygon fill="#8b1a1a" stroke="#8b1a1a" points="55.1715,-360.922 54.0274,-371.455 61.4902,-363.934 55.1715,-360.922"/>
</g>
<!-- Node5 -->
<g id="node8" class="node"><title>Node5</title>
<a xlink:href="classstxxl_1_1atomic__counted__object.html" target="_top" xlink:title="Provides reference counting abilities for use with counting_ptr with mutex locking. ">
<polygon fill="none" stroke="black" points="98.5,-193 98.5,-227 211.5,-227 211.5,-193 98.5,-193"/>
<text text-anchor="start" x="106.5" y="-214" font-family="Helvetica,sans-Serif" font-size="10.00">stxxl::atomic_counted</text>
<text text-anchor="middle" x="155" y="-201" font-family="Helvetica,sans-Serif" font-size="10.00">_object</text>
</a>
</g>
<!-- Node5&#45;&gt;Node3 -->
<g id="edge8" class="edge"><title>Node5&#45;&gt;Node3</title>
<path fill="none" stroke="#9a32cd" stroke-dasharray="5,2" d="M155,-182.623C155,-168.473 155,-152.024 155,-141.567"/>
<polygon fill="#9a32cd" stroke="#9a32cd" points="151.5,-182.858 155,-192.858 158.5,-182.858 151.5,-182.858"/>
<text text-anchor="middle" x="188" y="-164.5" font-family="Helvetica,sans-Serif" font-size="10.00"> m_request_ref</text>
</g>
<!-- Node6&#45;&gt;Node1 -->
<g id="edge18" class="edge"><title>Node6&#45;&gt;Node1</title>
<path fill="none" stroke="#9a32cd" stroke-dasharray="5,2" d="M80.6754,-275.935C73.5706,-258.803 65,-233.306 65,-210 65,-210 65,-210 65,-71 65,-52.3779 76.2126,-33.2973 84.4469,-21.7957"/>
<polygon fill="#9a32cd" stroke="#9a32cd" points="77.6108,-277.663 84.82,-285.427 84.0259,-274.862 77.6108,-277.663"/>
<text text-anchor="middle" x="87" y="-128.5" font-family="Helvetica,sans-Serif" font-size="10.00"> m_mutex</text>
</g>
<!-- Node6&#45;&gt;Node5 -->
<g id="edge10" class="edge"><title>Node6&#45;&gt;Node5</title>
<path fill="none" stroke="#9a32cd" stroke-dasharray="5,2" d="M90.0568,-274.881C90.9788,-265.382 93.3671,-254.435 99,-246 104.006,-238.503 111.161,-232.232 118.69,-227.137"/>
<polygon fill="#9a32cd" stroke="#9a32cd" points="86.5481,-274.968 89.5414,-285.131 93.5393,-275.319 86.5481,-274.968"/>
<text text-anchor="middle" x="158.5" y="-250.5" font-family="Helvetica,sans-Serif" font-size="10.00"> m_reference_count_mutex</text>
</g>
<!-- Node7 -->
<g id="node13" class="node"><title>Node7</title>
<a xlink:href="structstxxl_1_1choose__int__types.html" target="_top" xlink:title="stxxl::choose_int_types\l\&lt; my_pointer_size \&gt;">
<polygon fill="none" stroke="black" points="180,-279 180,-313 300,-313 300,-279 180,-279"/>
<text text-anchor="start" x="188" y="-300" font-family="Helvetica,sans-Serif" font-size="10.00">stxxl::choose_int_types</text>
<text text-anchor="middle" x="240" y="-287" font-family="Helvetica,sans-Serif" font-size="10.00">&lt; my_pointer_size &gt;</text>
</a>
</g>
<!-- Node7&#45;&gt;Node5 -->
<g id="edge14" class="edge"><title>Node7&#45;&gt;Node5</title>
<path fill="none" stroke="#9a32cd" stroke-dasharray="5,2" d="M231.87,-269.191C228.501,-261.097 223.955,-252.614 218,-246 211.256,-238.511 202.575,-232.187 193.826,-227.031"/>
<polygon fill="#9a32cd" stroke="#9a32cd" points="228.647,-270.565 235.412,-278.719 235.208,-268.126 228.647,-270.565"/>
<text text-anchor="middle" x="270.5" y="-250.5" font-family="Helvetica,sans-Serif" font-size="10.00"> m_reference_count</text>
</g>
<!-- Node8 -->
<g id="node15" class="node"><title>Node8</title>
<a xlink:href="structstxxl_1_1choose__int__types.html" target="_top" xlink:title="stxxl::choose_int_types\l\&lt; PtrSize \&gt;">
<polygon fill="none" stroke="black" points="180,-365 180,-399 300,-399 300,-365 180,-365"/>
<text text-anchor="start" x="188" y="-386" font-family="Helvetica,sans-Serif" font-size="10.00">stxxl::choose_int_types</text>
<text text-anchor="middle" x="240" y="-373" font-family="Helvetica,sans-Serif" font-size="10.00">&lt; PtrSize &gt;</text>
</a>
</g>
<!-- Node8&#45;&gt;Node7 -->
<g id="edge16" class="edge"><title>Node8&#45;&gt;Node7</title>
<path fill="none" stroke="orange" stroke-dasharray="5,2" d="M240,-354.342C240,-340.774 240,-324.861 240,-313.084"/>
<polygon fill="orange" stroke="orange" points="236.5,-354.597 240,-364.597 243.5,-354.597 236.5,-354.597"/>
<text text-anchor="middle" x="286.5" y="-336.5" font-family="Helvetica,sans-Serif" font-size="10.00"> &lt; my_pointer_size &gt;</text>
</g>
</g>
</svg>
