<?xml version="1.0" encoding="UTF-8" standalone="no"?>
<!DOCTYPE svg PUBLIC "-//W3C//DTD SVG 1.1//EN"
 "http://www.w3.org/Graphics/SVG/1.1/DTD/svg11.dtd">
<!-- Generated by graphviz version 2.26.3 (20100126.1600)
 -->
<!-- Title: stxxl::btree::normal_node&lt; KeyType_, KeyCmp_, RawSize_, BTreeType &gt; Pages: 1 -->
<svg width="3154pt" height="315pt"
 viewBox="0.00 0.00 3154.00 315.26" xmlns="http://www.w3.org/2000/svg" xmlns:xlink="http://www.w3.org/1999/xlink">
<g id="graph1" class="graph" transform="scale(1 1) rotate(0) translate(4 311.265)">
<title>stxxl::btree::normal_node&lt; KeyType_, KeyCmp_, RawSize_, BTreeType &gt;</title>
<!-- Node1 -->
<g id="node1" class="node"><title>Node1</title>
<polygon fill="#bfbfbf" stroke="black" points="3006,-227.765 3006,-274.765 3146,-274.765 3146,-227.765 3006,-227.765"/>
<text text-anchor="start" x="3014" y="-261.765" font-family="Helvetica,sans-Serif" font-size="10.00">stxxl::btree::normal</text>
<text text-anchor="start" x="3014" y="-248.765" font-family="Helvetica,sans-Serif" font-size="10.00">_node&lt; KeyType_, KeyCmp</text>
<text text-anchor="middle" x="3076" y="-235.765" font-family="Helvetica,sans-Serif" font-size="10.00">_, RawSize_, BTreeType &gt;</text>
</g>
<!-- Node2 -->
<g id="node2" class="node"><title>Node2</title>
<a xlink:href="classstxxl_1_1noncopyable.html" target="_top" xlink:title="stxxl::noncopyable">
<polygon fill="none" stroke="black" points="11,-243.765 11,-264.765 109,-264.765 109,-243.765 11,-243.765"/>
<text text-anchor="middle" x="60" y="-251.765" font-family="Helvetica,sans-Serif" font-size="10.00">stxxl::noncopyable</text>
</a>
</g>
<!-- Node2&#45;&gt;Node1 -->
<g id="edge2" class="edge"><title>Node2&#45;&gt;Node1</title>
<path fill="none" stroke="#8b1a1a" d="M99.5141,-267.986C148.338,-283.69 234.248,-307.265 310,-307.265 310,-307.265 310,-307.265 2866,-307.265 2919.39,-307.265 2977.92,-290.156 3019.59,-274.851"/>
<polygon fill="#8b1a1a" stroke="#8b1a1a" points="100.559,-264.645 89.9667,-264.863 98.3828,-271.299 100.559,-264.645"/>
</g>
<!-- Node10 -->
<g id="node18" class="node"><title>Node10</title>
<a xlink:href="classstxxl_1_1file.html" target="_top" xlink:title="Defines interface of file. ">
<polygon fill="none" stroke="black" points="742,-169.765 742,-190.765 798,-190.765 798,-169.765 742,-169.765"/>
<text text-anchor="middle" x="770" y="-177.765" font-family="Helvetica,sans-Serif" font-size="10.00">stxxl::file</text>
</a>
</g>
<!-- Node2&#45;&gt;Node10 -->
<g id="edge20" class="edge"><title>Node2&#45;&gt;Node10</title>
<path fill="none" stroke="#8b1a1a" d="M119.216,-251.212C181.631,-247.86 282.794,-242.043 370,-235.265 431.42,-230.491 446.732,-228.695 508,-222.265 604.113,-212.177 630.007,-219.73 724,-197.265 730.79,-195.642 737.95,-193.314 744.546,-190.9"/>
<polygon fill="#8b1a1a" stroke="#8b1a1a" points="118.96,-247.721 109.161,-251.749 119.334,-254.711 118.96,-247.721"/>
</g>
<!-- Node12 -->
<g id="node23" class="node"><title>Node12</title>
<a xlink:href="classstxxl_1_1mutex.html" target="_top" xlink:title="stxxl::mutex">
<polygon fill="none" stroke="black" points="274.5,-204.765 274.5,-225.765 345.5,-225.765 345.5,-204.765 274.5,-204.765"/>
<text text-anchor="middle" x="310" y="-212.765" font-family="Helvetica,sans-Serif" font-size="10.00">stxxl::mutex</text>
</a>
</g>
<!-- Node2&#45;&gt;Node12 -->
<g id="edge26" class="edge"><title>Node2&#45;&gt;Node12</title>
<path fill="none" stroke="#8b1a1a" d="M119.043,-243.453C125.436,-242.346 131.851,-241.263 138,-240.265 185.06,-232.624 239.549,-224.891 274.37,-220.091"/>
<polygon fill="#8b1a1a" stroke="#8b1a1a" points="118.301,-240.03 109.056,-245.203 119.51,-246.925 118.301,-240.03"/>
</g>
<!-- Node3 -->
<g id="node4" class="node"><title>Node3</title>
<a xlink:href="classstxxl_1_1typed__block.html" target="_top" xlink:title="Block containing elements of fixed length. ">
<polygon fill="none" stroke="black" points="2803.5,-227.765 2803.5,-274.765 2928.5,-274.765 2928.5,-227.765 2803.5,-227.765"/>
<text text-anchor="start" x="2811.5" y="-261.765" font-family="Helvetica,sans-Serif" font-size="10.00">stxxl::typed_block</text>
<text text-anchor="start" x="2811.5" y="-248.765" font-family="Helvetica,sans-Serif" font-size="10.00">&lt; RawSize, Type, NRef,</text>
<text text-anchor="middle" x="2866" y="-235.765" font-family="Helvetica,sans-Serif" font-size="10.00"> MetaInfoType &gt;</text>
</a>
</g>
<!-- Node3&#45;&gt;Node1 -->
<g id="edge4" class="edge"><title>Node3&#45;&gt;Node1</title>
<path fill="none" stroke="#9a32cd" stroke-dasharray="5,2" d="M2938.87,-251.265C2960.59,-251.265 2984.34,-251.265 3005.88,-251.265"/>
<polygon fill="#9a32cd" stroke="#9a32cd" points="2938.72,-247.765 2928.72,-251.265 2938.72,-254.765 2938.72,-247.765"/>
<text text-anchor="middle" x="2971" y="-255.265" font-family="Helvetica,sans-Serif" font-size="10.00"> block_</text>
</g>
<!-- Node4 -->
<g id="node6" class="node"><title>Node4</title>
<a xlink:href="classstxxl_1_1mng__local_1_1expand__struct.html" target="_top" xlink:title="stxxl::mng_local::expand\l_struct\&lt; mng_local::block\l_w_info\&lt; Type, RawSize, NRef,\l MetaInfoType \&gt;, RawSize \&gt;">
<polygon fill="none" stroke="black" points="2598.5,-210.265 2598.5,-270.265 2757.5,-270.265 2757.5,-210.265 2598.5,-210.265"/>
<text text-anchor="start" x="2606.5" y="-257.265" font-family="Helvetica,sans-Serif" font-size="10.00">stxxl::mng_local::expand</text>
<text text-anchor="start" x="2606.5" y="-244.265" font-family="Helvetica,sans-Serif" font-size="10.00">_struct&lt; mng_local::block</text>
<text text-anchor="start" x="2606.5" y="-231.265" font-family="Helvetica,sans-Serif" font-size="10.00">_w_info&lt; Type, RawSize, NRef,</text>
<text text-anchor="middle" x="2678" y="-218.265" font-family="Helvetica,sans-Serif" font-size="10.00"> MetaInfoType &gt;, RawSize &gt;</text>
</a>
</g>
<!-- Node4&#45;&gt;Node3 -->
<g id="edge6" class="edge"><title>Node4&#45;&gt;Node3</title>
<path fill="none" stroke="midnightblue" d="M2767.77,-245.517C2779.76,-246.219 2791.85,-246.926 2803.25,-247.593"/>
<polygon fill="midnightblue" stroke="midnightblue" points="2767.92,-242.02 2757.73,-244.93 2767.51,-249.008 2767.92,-242.02"/>
</g>
<!-- Node5 -->
<g id="node8" class="node"><title>Node5</title>
<a xlink:href="classstxxl_1_1mng__local_1_1add__filler.html" target="_top" xlink:title="stxxl::mng_local::add\l_filler\&lt; mng_local::block\l_w_info\&lt; Type, RawSize,\l NRef, MetaInfoType \&gt;, RawSize\l&#45;sizeof(mng_local::block_w_info\l\&lt; Type, RawSize, NRef, MetaInfoType \&gt;)\&gt;">
<polygon fill="none" stroke="black" points="2242,-69.2647 2242,-155.265 2448,-155.265 2448,-69.2647 2242,-69.2647"/>
<text text-anchor="start" x="2250" y="-142.265" font-family="Helvetica,sans-Serif" font-size="10.00">stxxl::mng_local::add</text>
<text text-anchor="start" x="2250" y="-129.265" font-family="Helvetica,sans-Serif" font-size="10.00">_filler&lt; mng_local::block</text>
<text text-anchor="start" x="2250" y="-116.265" font-family="Helvetica,sans-Serif" font-size="10.00">_w_info&lt; Type, RawSize,</text>
<text text-anchor="start" x="2250" y="-103.265" font-family="Helvetica,sans-Serif" font-size="10.00"> NRef, MetaInfoType &gt;, RawSize</text>
<text text-anchor="start" x="2250" y="-90.2647" font-family="Helvetica,sans-Serif" font-size="10.00">&#45;sizeof(mng_local::block_w_info</text>
<text text-anchor="middle" x="2345" y="-77.2647" font-family="Helvetica,sans-Serif" font-size="10.00">&lt; Type, RawSize, NRef, MetaInfoType &gt;)&gt;</text>
</a>
</g>
<!-- Node5&#45;&gt;Node4 -->
<g id="edge8" class="edge"><title>Node5&#45;&gt;Node4</title>
<path fill="none" stroke="midnightblue" d="M2457.64,-155.562C2504.34,-173.513 2557.38,-193.9 2599.72,-210.174"/>
<polygon fill="midnightblue" stroke="midnightblue" points="2458.67,-152.209 2448.08,-151.888 2456.16,-158.743 2458.67,-152.209"/>
</g>
<!-- Node6 -->
<g id="node10" class="node"><title>Node6</title>
<a xlink:href="classstxxl_1_1mng__local_1_1block__w__info.html" target="_top" xlink:title="stxxl::mng_local::block\l_w_info\&lt; Type, RawSize,\l NRef, MetaInfoType \&gt;">
<polygon fill="none" stroke="black" points="2067,-13.7647 2067,-60.7647 2197,-60.7647 2197,-13.7647 2067,-13.7647"/>
<text text-anchor="start" x="2075" y="-47.7647" font-family="Helvetica,sans-Serif" font-size="10.00">stxxl::mng_local::block</text>
<text text-anchor="start" x="2075" y="-34.7647" font-family="Helvetica,sans-Serif" font-size="10.00">_w_info&lt; Type, RawSize,</text>
<text text-anchor="middle" x="2132" y="-21.7647" font-family="Helvetica,sans-Serif" font-size="10.00"> NRef, MetaInfoType &gt;</text>
</a>
</g>
<!-- Node6&#45;&gt;Node5 -->
<g id="edge10" class="edge"><title>Node6&#45;&gt;Node5</title>
<path fill="none" stroke="midnightblue" d="M2206.53,-63.5082C2217.97,-67.5357 2229.95,-71.754 2241.87,-75.9525"/>
<polygon fill="midnightblue" stroke="midnightblue" points="2207.66,-60.1947 2197.06,-60.1747 2205.33,-66.7974 2207.66,-60.1947"/>
</g>
<!-- Node7 -->
<g id="node12" class="node"><title>Node7</title>
<a xlink:href="classstxxl_1_1mng__local_1_1block__w__bids.html" target="_top" xlink:title="stxxl::mng_local::block\l_w_bids\&lt; Type,((RawSize\l&#45;sizeof(BID\&lt; RawSize \&gt;)*NBids\l&#45;sizeof(MetaInfoType))/sizeof\l(Type)), RawSize, NBids \&gt;">
<polygon fill="none" stroke="black" points="1556,-0.764735 1556,-73.7647 1714,-73.7647 1714,-0.764735 1556,-0.764735"/>
<text text-anchor="start" x="1564" y="-60.7647" font-family="Helvetica,sans-Serif" font-size="10.00">stxxl::mng_local::block</text>
<text text-anchor="start" x="1564" y="-47.7647" font-family="Helvetica,sans-Serif" font-size="10.00">_w_bids&lt; Type,((RawSize</text>
<text text-anchor="start" x="1564" y="-34.7647" font-family="Helvetica,sans-Serif" font-size="10.00">&#45;sizeof(BID&lt; RawSize &gt;)*NBids</text>
<text text-anchor="start" x="1564" y="-21.7647" font-family="Helvetica,sans-Serif" font-size="10.00">&#45;sizeof(MetaInfoType))/sizeof</text>
<text text-anchor="middle" x="1635" y="-8.76474" font-family="Helvetica,sans-Serif" font-size="10.00">(Type)), RawSize, NBids &gt;</text>
</a>
</g>
<!-- Node7&#45;&gt;Node6 -->
<g id="edge12" class="edge"><title>Node7&#45;&gt;Node6</title>
<path fill="none" stroke="midnightblue" d="M1723.92,-12.6323C1739.81,-9.15205 1756.31,-6.12808 1772,-4.26474 1874.83,7.94588 1994.66,-9.29263 2066.86,-23.091"/>
<polygon fill="midnightblue" stroke="midnightblue" points="1723.09,-9.23059 1714.11,-14.852 1724.64,-16.0579 1723.09,-9.23059"/>
</g>
<!-- Node17 -->
<g id="node37" class="node"><title>Node17</title>
<a xlink:href="classstxxl_1_1mng__local_1_1block__w__info.html" target="_top" xlink:title="Contains per block information for stxxl::typed_block , not intended for direct use. ">
<polygon fill="none" stroke="black" points="1777,-13.7647 1777,-60.7647 1907,-60.7647 1907,-13.7647 1777,-13.7647"/>
<text text-anchor="start" x="1785" y="-47.7647" font-family="Helvetica,sans-Serif" font-size="10.00">stxxl::mng_local::block</text>
<text text-anchor="start" x="1785" y="-34.7647" font-family="Helvetica,sans-Serif" font-size="10.00">_w_info&lt; Type, RawSize,</text>
<text text-anchor="middle" x="1842" y="-21.7647" font-family="Helvetica,sans-Serif" font-size="10.00"> NBids, MetaInfoType &gt;</text>
</a>
</g>
<!-- Node7&#45;&gt;Node17 -->
<g id="edge44" class="edge"><title>Node7&#45;&gt;Node17</title>
<path fill="none" stroke="midnightblue" d="M1724.41,-37.2647C1741.97,-37.2647 1760.09,-37.2647 1776.68,-37.2647"/>
<polygon fill="midnightblue" stroke="midnightblue" points="1724.14,-33.7648 1714.14,-37.2647 1724.14,-40.7648 1724.14,-33.7648"/>
</g>
<!-- Node8 -->
<g id="node14" class="node"><title>Node8</title>
<a xlink:href="classstxxl_1_1mng__local_1_1element__block.html" target="_top" xlink:title="Contains data elements for stxxl::typed_block , not intended for direct use. ">
<polygon fill="none" stroke="black" points="1070,-16.2647 1070,-50.2647 1198,-50.2647 1198,-16.2647 1070,-16.2647"/>
<text text-anchor="start" x="1078" y="-37.2647" font-family="Helvetica,sans-Serif" font-size="10.00">stxxl::mng_local::element</text>
<text text-anchor="middle" x="1134" y="-24.2647" font-family="Helvetica,sans-Serif" font-size="10.00">_block&lt; Type, Size &gt;</text>
</a>
</g>
<!-- Node8&#45;&gt;Node7 -->
<g id="edge14" class="edge"><title>Node8&#45;&gt;Node7</title>
<path fill="none" stroke="midnightblue" d="M1208.41,-33.8588C1301.58,-34.6027 1460.5,-35.8715 1555.84,-36.6327"/>
<polygon fill="midnightblue" stroke="midnightblue" points="1208.24,-30.3575 1198.22,-33.7774 1208.19,-37.3573 1208.24,-30.3575"/>
</g>
<!-- Node16 -->
<g id="node33" class="node"><title>Node16</title>
<a xlink:href="classstxxl_1_1mng__local_1_1block__w__bids.html" target="_top" xlink:title="Contains BID references for stxxl::typed_block , not intended for direct use. ">
<polygon fill="none" stroke="black" points="1250,-48.7647 1250,-95.7647 1408,-95.7647 1408,-48.7647 1250,-48.7647"/>
<text text-anchor="start" x="1258" y="-82.7647" font-family="Helvetica,sans-Serif" font-size="10.00">stxxl::mng_local::block</text>
<text text-anchor="start" x="1258" y="-69.7647" font-family="Helvetica,sans-Serif" font-size="10.00">_w_bids&lt; Type, Size, RawSize,</text>
<text text-anchor="middle" x="1329" y="-56.7647" font-family="Helvetica,sans-Serif" font-size="10.00"> NBids &gt;</text>
</a>
</g>
<!-- Node8&#45;&gt;Node16 -->
<g id="edge38" class="edge"><title>Node8&#45;&gt;Node16</title>
<path fill="none" stroke="midnightblue" d="M1207.96,-48.0571C1221.66,-50.7968 1236.02,-53.6684 1249.86,-56.4374"/>
<polygon fill="midnightblue" stroke="midnightblue" points="1208.61,-44.618 1198.12,-46.0888 1207.24,-51.4821 1208.61,-44.618"/>
</g>
<!-- Node9 -->
<g id="node16" class="node"><title>Node9</title>
<a xlink:href="structstxxl_1_1BID.html" target="_top" xlink:title="stxxl::BID\&lt; raw_size \&gt;">
<polygon fill="none" stroke="black" points="1075,-122.765 1075,-143.765 1193,-143.765 1193,-122.765 1075,-122.765"/>
<text text-anchor="middle" x="1134" y="-130.765" font-family="Helvetica,sans-Serif" font-size="10.00">stxxl::BID&lt; raw_size &gt;</text>
</a>
</g>
<!-- Node9&#45;&gt;Node7 -->
<g id="edge16" class="edge"><title>Node9&#45;&gt;Node7</title>
<path fill="none" stroke="#9a32cd" stroke-dasharray="5,2" d="M1203.49,-136.286C1302.56,-139.676 1478.95,-142.047 1538,-119.265 1562.69,-109.74 1585.54,-91.1269 1602.86,-74.0389"/>
<polygon fill="#9a32cd" stroke="#9a32cd" points="1203.39,-132.781 1193.27,-135.924 1203.14,-139.776 1203.39,-132.781"/>
<text text-anchor="middle" x="1329" y="-143.265" font-family="Helvetica,sans-Serif" font-size="10.00"> ref</text>
</g>
<!-- Node9&#45;&gt;Node16 -->
<g id="edge40" class="edge"><title>Node9&#45;&gt;Node16</title>
<path fill="none" stroke="#9a32cd" stroke-dasharray="5,2" d="M1175.13,-119.492C1188.18,-115.185 1202.67,-110.463 1216,-106.265 1226.94,-102.818 1238.5,-99.2517 1249.89,-95.7838"/>
<polygon fill="#9a32cd" stroke="#9a32cd" points="1173.87,-116.222 1165.48,-122.689 1176.07,-122.866 1173.87,-116.222"/>
<text text-anchor="middle" x="1224" y="-110.265" font-family="Helvetica,sans-Serif" font-size="10.00"> ref</text>
</g>
<!-- Node10&#45;&gt;Node9 -->
<g id="edge18" class="edge"><title>Node10&#45;&gt;Node9</title>
<path fill="none" stroke="#9a32cd" stroke-dasharray="5,2" d="M808.356,-177.389C862.758,-173.037 965.355,-163.821 1052,-150.265 1063.49,-148.467 1075.81,-146.132 1087.31,-143.772"/>
<polygon fill="#9a32cd" stroke="#9a32cd" points="807.832,-173.919 798.138,-178.194 808.382,-180.898 807.832,-173.919"/>
<text text-anchor="middle" x="921" y="-176.265" font-family="Helvetica,sans-Serif" font-size="10.00"> storage</text>
</g>
<!-- Node15 -->
<g id="node30" class="node"><title>Node15</title>
<a xlink:href="structstxxl_1_1BID.html" target="_top" xlink:title="Block identifier class. ">
<polygon fill="none" stroke="black" points="870.5,-122.765 870.5,-143.765 971.5,-143.765 971.5,-122.765 870.5,-122.765"/>
<text text-anchor="middle" x="921" y="-130.765" font-family="Helvetica,sans-Serif" font-size="10.00">stxxl::BID&lt; SIZE &gt;</text>
</a>
</g>
<!-- Node10&#45;&gt;Node15 -->
<g id="edge34" class="edge"><title>Node10&#45;&gt;Node15</title>
<path fill="none" stroke="#9a32cd" stroke-dasharray="5,2" d="M793.903,-164.153C800.797,-160.09 808.491,-156.087 816,-153.265 833.197,-146.802 852.796,-142.346 870.367,-139.312"/>
<polygon fill="#9a32cd" stroke="#9a32cd" points="791.74,-161.376 785.09,-169.624 795.432,-167.323 791.74,-161.376"/>
<text text-anchor="middle" x="834" y="-157.265" font-family="Helvetica,sans-Serif" font-size="10.00"> storage</text>
</g>
<!-- Node11 -->
<g id="node21" class="node"><title>Node11</title>
<a xlink:href="classstxxl_1_1atomic__counted__object.html" target="_top" xlink:title="Provides reference counting abilities for use with counting_ptr with mutex locking. ">
<polygon fill="none" stroke="black" points="526.5,-163.265 526.5,-197.265 639.5,-197.265 639.5,-163.265 526.5,-163.265"/>
<text text-anchor="start" x="534.5" y="-184.265" font-family="Helvetica,sans-Serif" font-size="10.00">stxxl::atomic_counted</text>
<text text-anchor="middle" x="583" y="-171.265" font-family="Helvetica,sans-Serif" font-size="10.00">_object</text>
</a>
</g>
<!-- Node11&#45;&gt;Node10 -->
<g id="edge22" class="edge"><title>Node11&#45;&gt;Node10</title>
<path fill="none" stroke="#9a32cd" stroke-dasharray="5,2" d="M649.733,-180.265C681.451,-180.265 717.657,-180.265 741.984,-180.265"/>
<polygon fill="#9a32cd" stroke="#9a32cd" points="649.614,-176.765 639.614,-180.265 649.614,-183.765 649.614,-176.765"/>
<text text-anchor="middle" x="691" y="-184.265" font-family="Helvetica,sans-Serif" font-size="10.00"> m_request_ref</text>
</g>
<!-- Node12&#45;&gt;Node11 -->
<g id="edge24" class="edge"><title>Node12&#45;&gt;Node11</title>
<path fill="none" stroke="#9a32cd" stroke-dasharray="5,2" d="M355.875,-209.383C402.83,-203.363 475.885,-193.997 526.403,-187.521"/>
<polygon fill="#9a32cd" stroke="#9a32cd" points="355.164,-205.946 345.69,-210.689 356.054,-212.889 355.164,-205.946"/>
<text text-anchor="middle" x="448" y="-209.265" font-family="Helvetica,sans-Serif" font-size="10.00"> m_reference_count_mutex</text>
</g>
<!-- Node13 -->
<g id="node26" class="node"><title>Node13</title>
<a xlink:href="structstxxl_1_1choose__int__types.html" target="_top" xlink:title="stxxl::choose_int_types\l\&lt; my_pointer_size \&gt;">
<polygon fill="none" stroke="black" points="250,-152.265 250,-186.265 370,-186.265 370,-152.265 250,-152.265"/>
<text text-anchor="start" x="258" y="-173.265" font-family="Helvetica,sans-Serif" font-size="10.00">stxxl::choose_int_types</text>
<text text-anchor="middle" x="310" y="-160.265" font-family="Helvetica,sans-Serif" font-size="10.00">&lt; my_pointer_size &gt;</text>
</a>
</g>
<!-- Node13&#45;&gt;Node11 -->
<g id="edge28" class="edge"><title>Node13&#45;&gt;Node11</title>
<path fill="none" stroke="#9a32cd" stroke-dasharray="5,2" d="M380.64,-170.784C418.435,-171.753 465.769,-173.218 508,-175.265 513.996,-175.555 520.258,-175.903 526.498,-176.278"/>
<polygon fill="#9a32cd" stroke="#9a32cd" points="380.329,-167.275 370.244,-170.523 380.154,-174.273 380.329,-167.275"/>
<text text-anchor="middle" x="448" y="-179.265" font-family="Helvetica,sans-Serif" font-size="10.00"> m_reference_count</text>
</g>
<!-- Node14 -->
<g id="node28" class="node"><title>Node14</title>
<a xlink:href="structstxxl_1_1choose__int__types.html" target="_top" xlink:title="stxxl::choose_int_types\l\&lt; PtrSize \&gt;">
<polygon fill="none" stroke="black" points="0,-152.265 0,-186.265 120,-186.265 120,-152.265 0,-152.265"/>
<text text-anchor="start" x="8" y="-173.265" font-family="Helvetica,sans-Serif" font-size="10.00">stxxl::choose_int_types</text>
<text text-anchor="middle" x="60" y="-160.265" font-family="Helvetica,sans-Serif" font-size="10.00">&lt; PtrSize &gt;</text>
</a>
</g>
<!-- Node14&#45;&gt;Node13 -->
<g id="edge30" class="edge"><title>Node14&#45;&gt;Node13</title>
<path fill="none" stroke="orange" stroke-dasharray="5,2" d="M130.578,-169.265C168.196,-169.265 213.985,-169.265 249.89,-169.265"/>
<polygon fill="orange" stroke="orange" points="130.199,-165.765 120.199,-169.265 130.199,-172.765 130.199,-165.765"/>
<text text-anchor="middle" x="185" y="-173.265" font-family="Helvetica,sans-Serif" font-size="10.00"> &lt; my_pointer_size &gt;</text>
</g>
<!-- Node15&#45;&gt;Node9 -->
<g id="edge32" class="edge"><title>Node15&#45;&gt;Node9</title>
<path fill="none" stroke="orange" stroke-dasharray="5,2" d="M981.834,-133.265C1011.07,-133.265 1045.97,-133.265 1074.96,-133.265"/>
<polygon fill="orange" stroke="orange" points="981.748,-129.765 971.748,-133.265 981.748,-136.765 981.748,-129.765"/>
<text text-anchor="middle" x="1021" y="-137.265" font-family="Helvetica,sans-Serif" font-size="10.00"> &lt; raw_size &gt;</text>
</g>
<!-- Node16&#45;&gt;Node7 -->
<g id="edge36" class="edge"><title>Node16&#45;&gt;Node7</title>
<path fill="none" stroke="orange" stroke-dasharray="5,2" d="M1417.94,-55.3922C1420.65,-54.9952 1423.35,-54.618 1426,-54.2647 1468.76,-48.5732 1516.72,-44.5082 1555.9,-41.7835"/>
<polygon fill="orange" stroke="orange" points="1417.39,-51.9355 1408.03,-56.9083 1418.45,-58.8549 1417.39,-51.9355"/>
<text text-anchor="start" x="1426" y="-110.265" font-family="Helvetica,sans-Serif" font-size="10.00"> &lt; Type,((RawSize&#45;sizeof</text>
<text text-anchor="start" x="1426" y="-97.2647" font-family="Helvetica,sans-Serif" font-size="10.00">(BID&lt; RawSize &gt;)*NBids</text>
<text text-anchor="start" x="1426" y="-84.2647" font-family="Helvetica,sans-Serif" font-size="10.00">&#45;sizeof(MetaInfoType))</text>
<text text-anchor="start" x="1426" y="-71.2647" font-family="Helvetica,sans-Serif" font-size="10.00">/sizeof(Type)), RawSize,</text>
<text text-anchor="middle" x="1482" y="-58.2647" font-family="Helvetica,sans-Serif" font-size="10.00"> NBids &gt;</text>
</g>
<!-- Node17&#45;&gt;Node6 -->
<g id="edge42" class="edge"><title>Node17&#45;&gt;Node6</title>
<path fill="none" stroke="orange" stroke-dasharray="5,2" d="M1917.08,-37.2647C1963.49,-37.2647 2022.46,-37.2647 2066.89,-37.2647"/>
<polygon fill="orange" stroke="orange" points="1917.08,-33.7648 1907.08,-37.2647 1917.08,-40.7648 1917.08,-33.7648"/>
<text text-anchor="start" x="1930" y="-54.2647" font-family="Helvetica,sans-Serif" font-size="10.00"> &lt; Type, RawSize, NRef,</text>
<text text-anchor="middle" x="1986" y="-41.2647" font-family="Helvetica,sans-Serif" font-size="10.00"> MetaInfoType &gt;</text>
</g>
<!-- Node18 -->
<g id="node40" class="node"><title>Node18</title>
<a xlink:href="classstxxl_1_1mng__local_1_1filler__struct.html" target="_top" xlink:title="stxxl::mng_local::filler\l_struct\&lt; FillSize \&gt;">
<polygon fill="none" stroke="black" points="1579,-166.265 1579,-200.265 1691,-200.265 1691,-166.265 1579,-166.265"/>
<text text-anchor="start" x="1587" y="-187.265" font-family="Helvetica,sans-Serif" font-size="10.00">stxxl::mng_local::filler</text>
<text text-anchor="middle" x="1635" y="-174.265" font-family="Helvetica,sans-Serif" font-size="10.00">_struct&lt; FillSize &gt;</text>
</a>
</g>
<!-- Node18&#45;&gt;Node5 -->
<g id="edge46" class="edge"><title>Node18&#45;&gt;Node5</title>
<path fill="none" stroke="#9a32cd" stroke-dasharray="5,2" d="M1701.37,-170.416C1723.78,-166.144 1748.96,-161.419 1772,-157.265 1842.11,-144.623 1859.2,-138.193 1930,-130.265 1987.5,-123.825 2002.2,-125.936 2060,-123.265 2120.22,-120.481 2187.62,-117.857 2241.76,-115.871"/>
<polygon fill="#9a32cd" stroke="#9a32cd" points="1700.45,-167.029 1691.28,-172.343 1701.76,-173.904 1700.45,-167.029"/>
<text text-anchor="middle" x="1986" y="-134.265" font-family="Helvetica,sans-Serif" font-size="10.00"> filler</text>
</g>
<!-- Node20 -->
<g id="node44" class="node"><title>Node20</title>
<a xlink:href="classstxxl_1_1mng__local_1_1add__filler.html" target="_top" xlink:title="Contains per block filler for stxxl::typed_block , not intended for direct use. ">
<polygon fill="none" stroke="black" points="1772,-166.265 1772,-200.265 1912,-200.265 1912,-166.265 1772,-166.265"/>
<text text-anchor="start" x="1780" y="-187.265" font-family="Helvetica,sans-Serif" font-size="10.00">stxxl::mng_local::add</text>
<text text-anchor="middle" x="1842" y="-174.265" font-family="Helvetica,sans-Serif" font-size="10.00">_filler&lt; BaseType, FillSize &gt;</text>
</a>
</g>
<!-- Node18&#45;&gt;Node20 -->
<g id="edge52" class="edge"><title>Node18&#45;&gt;Node20</title>
<path fill="none" stroke="#9a32cd" stroke-dasharray="5,2" d="M1701.17,-183.265C1723.72,-183.265 1749.01,-183.265 1771.87,-183.265"/>
<polygon fill="#9a32cd" stroke="#9a32cd" points="1701.02,-179.765 1691.02,-183.265 1701.02,-186.765 1701.02,-179.765"/>
<text text-anchor="middle" x="1743" y="-187.265" font-family="Helvetica,sans-Serif" font-size="10.00"> filler</text>
</g>
<!-- Node22 -->
<g id="node49" class="node"><title>Node22</title>
<a xlink:href="classstxxl_1_1mng__local_1_1add__filler.html" target="_top" xlink:title="stxxl::mng_local::add\l_filler\&lt; Type, RawSize\l&#45;sizeof(Type)\&gt;">
<polygon fill="none" stroke="black" points="2074,-231.765 2074,-278.765 2190,-278.765 2190,-231.765 2074,-231.765"/>
<text text-anchor="start" x="2082" y="-265.765" font-family="Helvetica,sans-Serif" font-size="10.00">stxxl::mng_local::add</text>
<text text-anchor="start" x="2082" y="-252.765" font-family="Helvetica,sans-Serif" font-size="10.00">_filler&lt; Type, RawSize</text>
<text text-anchor="middle" x="2132" y="-239.765" font-family="Helvetica,sans-Serif" font-size="10.00">&#45;sizeof(Type)&gt;</text>
</a>
</g>
<!-- Node18&#45;&gt;Node22 -->
<g id="edge58" class="edge"><title>Node18&#45;&gt;Node22</title>
<path fill="none" stroke="#9a32cd" stroke-dasharray="5,2" d="M1701.4,-195.949C1723.82,-200.21 1748.99,-204.97 1772,-209.265 1842.18,-222.365 1859.23,-228.815 1930,-238.265 1978.31,-244.716 2033.48,-249.163 2073.93,-251.885"/>
<polygon fill="#9a32cd" stroke="#9a32cd" points="1701.79,-192.461 1691.31,-194.03 1700.48,-199.337 1701.79,-192.461"/>
<text text-anchor="middle" x="1842" y="-240.265" font-family="Helvetica,sans-Serif" font-size="10.00"> filler</text>
</g>
<!-- Node19 -->
<g id="node42" class="node"><title>Node19</title>
<a xlink:href="classstxxl_1_1mng__local_1_1filler__struct.html" target="_top" xlink:title="stxxl::mng_local::filler\l_struct\&lt; Bytes \&gt;">
<polygon fill="none" stroke="black" points="1273,-166.265 1273,-200.265 1385,-200.265 1385,-166.265 1273,-166.265"/>
<text text-anchor="start" x="1281" y="-187.265" font-family="Helvetica,sans-Serif" font-size="10.00">stxxl::mng_local::filler</text>
<text text-anchor="middle" x="1329" y="-174.265" font-family="Helvetica,sans-Serif" font-size="10.00">_struct&lt; Bytes &gt;</text>
</a>
</g>
<!-- Node19&#45;&gt;Node18 -->
<g id="edge48" class="edge"><title>Node19&#45;&gt;Node18</title>
<path fill="none" stroke="orange" stroke-dasharray="5,2" d="M1395.44,-183.265C1450.27,-183.265 1527.22,-183.265 1578.97,-183.265"/>
<polygon fill="orange" stroke="orange" points="1395.13,-179.765 1385.13,-183.265 1395.13,-186.765 1395.13,-179.765"/>
<text text-anchor="middle" x="1482" y="-187.265" font-family="Helvetica,sans-Serif" font-size="10.00"> &lt; FillSize &gt;</text>
</g>
<!-- Node20&#45;&gt;Node5 -->
<g id="edge50" class="edge"><title>Node20&#45;&gt;Node5</title>
<path fill="none" stroke="orange" stroke-dasharray="5,2" d="M1921.97,-167.668C1963.12,-159.973 2014.13,-150.936 2060,-144.265 2120.11,-135.523 2187.66,-127.845 2241.9,-122.203"/>
<polygon fill="orange" stroke="orange" points="1921.19,-164.255 1912.01,-169.542 1922.48,-171.134 1921.19,-164.255"/>
<text text-anchor="start" x="2060.5" y="-213.265" font-family="Helvetica,sans-Serif" font-size="10.00"> &lt; mng_local::block</text>
<text text-anchor="start" x="2060.5" y="-200.265" font-family="Helvetica,sans-Serif" font-size="10.00">_w_info&lt; Type, RawSize,</text>
<text text-anchor="start" x="2060.5" y="-187.265" font-family="Helvetica,sans-Serif" font-size="10.00"> NRef, MetaInfoType &gt;,</text>
<text text-anchor="start" x="2060.5" y="-174.265" font-family="Helvetica,sans-Serif" font-size="10.00"> RawSize&#45;sizeof(mng_local</text>
<text text-anchor="start" x="2060.5" y="-161.265" font-family="Helvetica,sans-Serif" font-size="10.00">::block_w_info&lt; Type, RawSize,</text>
<text text-anchor="middle" x="2132" y="-148.265" font-family="Helvetica,sans-Serif" font-size="10.00"> NRef, MetaInfoType &gt;)&gt;</text>
</g>
<!-- Node20&#45;&gt;Node22 -->
<g id="edge60" class="edge"><title>Node20&#45;&gt;Node22</title>
<path fill="none" stroke="orange" stroke-dasharray="5,2" d="M1922.32,-189.327C1959.33,-193.532 2003.49,-200.569 2042,-212.265 2058.07,-217.146 2074.89,-224.502 2089.57,-231.756"/>
<polygon fill="orange" stroke="orange" points="1922.4,-185.815 1912.08,-188.214 1921.65,-192.774 1922.4,-185.815"/>
<text text-anchor="start" x="1931.5" y="-229.265" font-family="Helvetica,sans-Serif" font-size="10.00"> &lt; Type, RawSize&#45;sizeof</text>
<text text-anchor="middle" x="1986" y="-216.265" font-family="Helvetica,sans-Serif" font-size="10.00">(Type)&gt;</text>
</g>
<!-- Node21 -->
<g id="node47" class="node"><title>Node21</title>
<a xlink:href="classstxxl_1_1mng__local_1_1expand__struct.html" target="_top" xlink:title="Helper to compute the size of the filler , not intended for direct use. ">
<polygon fill="none" stroke="black" points="2279,-227.265 2279,-261.265 2411,-261.265 2411,-227.265 2279,-227.265"/>
<text text-anchor="start" x="2287" y="-248.265" font-family="Helvetica,sans-Serif" font-size="10.00">stxxl::mng_local::expand</text>
<text text-anchor="middle" x="2345" y="-235.265" font-family="Helvetica,sans-Serif" font-size="10.00">_struct&lt; Type, RawSize &gt;</text>
</a>
</g>
<!-- Node21&#45;&gt;Node4 -->
<g id="edge54" class="edge"><title>Node21&#45;&gt;Node4</title>
<path fill="none" stroke="orange" stroke-dasharray="5,2" d="M2421.38,-242.138C2436.18,-241.792 2451.57,-241.478 2466,-241.265 2509.79,-240.619 2558.68,-240.357 2598.47,-240.262"/>
<polygon fill="orange" stroke="orange" points="2421.16,-238.642 2411.25,-242.382 2421.33,-245.64 2421.16,-238.642"/>
<text text-anchor="start" x="2466" y="-284.265" font-family="Helvetica,sans-Serif" font-size="10.00"> &lt; mng_local::block</text>
<text text-anchor="start" x="2466" y="-271.265" font-family="Helvetica,sans-Serif" font-size="10.00">_w_info&lt; Type, RawSize,</text>
<text text-anchor="start" x="2466" y="-258.265" font-family="Helvetica,sans-Serif" font-size="10.00"> NRef, MetaInfoType &gt;,</text>
<text text-anchor="middle" x="2523" y="-245.265" font-family="Helvetica,sans-Serif" font-size="10.00"> RawSize &gt;</text>
</g>
<!-- Node22&#45;&gt;Node21 -->
<g id="edge56" class="edge"><title>Node22&#45;&gt;Node21</title>
<path fill="none" stroke="midnightblue" d="M2200.4,-251.732C2225.57,-250.432 2254.02,-248.963 2278.97,-247.675"/>
<polygon fill="midnightblue" stroke="midnightblue" points="2200.01,-248.248 2190.2,-252.259 2200.37,-255.238 2200.01,-248.248"/>
</g>
<!-- Node23 -->
<g id="node53" class="node"><title>Node23</title>
<a xlink:href="structstxxl_1_1btree_1_1normal__node_1_1value__compare.html" target="_top" xlink:title="stxxl::btree::normal\l_node\&lt; KeyType_, KeyCmp\l_, RawSize_, BTreeType\l \&gt;::value_compare">
<polygon fill="none" stroke="black" points="2796,-149.265 2796,-209.265 2936,-209.265 2936,-149.265 2796,-149.265"/>
<text text-anchor="start" x="2804" y="-196.265" font-family="Helvetica,sans-Serif" font-size="10.00">stxxl::btree::normal</text>
<text text-anchor="start" x="2804" y="-183.265" font-family="Helvetica,sans-Serif" font-size="10.00">_node&lt; KeyType_, KeyCmp</text>
<text text-anchor="start" x="2804" y="-170.265" font-family="Helvetica,sans-Serif" font-size="10.00">_, RawSize_, BTreeType</text>
<text text-anchor="middle" x="2866" y="-157.265" font-family="Helvetica,sans-Serif" font-size="10.00"> &gt;::value_compare</text>
</a>
</g>
<!-- Node23&#45;&gt;Node1 -->
<g id="edge62" class="edge"><title>Node23&#45;&gt;Node1</title>
<path fill="none" stroke="#9a32cd" stroke-dasharray="5,2" d="M2945.74,-206.603C2966,-213.552 2987.61,-220.959 3007.27,-227.702"/>
<polygon fill="#9a32cd" stroke="#9a32cd" points="2946.81,-203.272 2936.22,-203.34 2944.54,-209.894 2946.81,-203.272"/>
<text text-anchor="middle" x="2971" y="-224.265" font-family="Helvetica,sans-Serif" font-size="10.00"> vcmp_</text>
</g>
</g>
</svg>
