<?xml version="1.0" encoding="UTF-8" standalone="no"?>
<!DOCTYPE svg PUBLIC "-//W3C//DTD SVG 1.1//EN"
 "http://www.w3.org/Graphics/SVG/1.1/DTD/svg11.dtd">
<!-- Generated by graphviz version 2.38.0 (20140413.2041)
 -->
<!-- Title: stxxl::sim_disk_file Pages: 1 -->
<svg width="385pt" height="196pt"
 viewBox="0.00 0.00 385.00 196.00" xmlns="http://www.w3.org/2000/svg" xmlns:xlink="http://www.w3.org/1999/xlink">
<g id="graph0" class="graph" transform="scale(1 1) rotate(0) translate(4 192)">
<title>stxxl::sim_disk_file</title>
<!-- Node1 -->
<g id="node1" class="node"><title>Node1</title>
<polygon fill="#bfbfbf" stroke="black" points="127,-0.5 127,-19.5 228,-19.5 228,-0.5 127,-0.5"/>
<text text-anchor="middle" x="177.5" y="-7.5" font-family="Helvetica,sans-Serif" font-size="10.00">stxxl::sim_disk_file</text>
</g>
<!-- Node2 -->
<g id="node2" class="node"><title>Node2</title>
<g id="a_node2"><a xlink:href="classstxxl_1_1ufs__file__base.html" target="_top" xlink:title="Base for UNIX file system implementations. ">
<polygon fill="none" stroke="black" points="0,-56.5 0,-75.5 101,-75.5 101,-56.5 0,-56.5"/>
<text text-anchor="middle" x="50.5" y="-63.5" font-family="Helvetica,sans-Serif" font-size="10.00">stxxl::ufs_file_base</text>
</a>
</g>
</g>
<!-- Node2&#45;&gt;Node1 -->
<g id="edge1" class="edge"><title>Node2&#45;&gt;Node1</title>
<path fill="none" stroke="midnightblue" d="M79.8912,-52.503C103.7,-42.3795 136.606,-28.388 157.471,-19.5164"/>
<polygon fill="midnightblue" stroke="midnightblue" points="78.4566,-49.3096 70.6235,-56.4435 81.1957,-55.7515 78.4566,-49.3096"/>
</g>
<!-- Node3 -->
<g id="node3" class="node"><title>Node3</title>
<g id="a_node3"><a xlink:href="classstxxl_1_1file.html" target="_top" xlink:title="Defines interface of file. ">
<polygon fill="none" stroke="black" points="149.5,-112.5 149.5,-131.5 205.5,-131.5 205.5,-112.5 149.5,-112.5"/>
<text text-anchor="middle" x="177.5" y="-119.5" font-family="Helvetica,sans-Serif" font-size="10.00">stxxl::file</text>
</a>
</g>
</g>
<!-- Node3&#45;&gt;Node2 -->
<g id="edge2" class="edge"><title>Node3&#45;&gt;Node2</title>
<path fill="none" stroke="midnightblue" d="M148.109,-108.503C124.3,-98.3795 91.394,-84.388 70.5294,-75.5164"/>
<polygon fill="midnightblue" stroke="midnightblue" points="146.804,-111.751 157.376,-112.444 149.543,-105.31 146.804,-111.751"/>
</g>
<!-- Node5 -->
<g id="node5" class="node"><title>Node5</title>
<g id="a_node5"><a xlink:href="classstxxl_1_1disk__queued__file.html" target="_top" xlink:title="Implementation of some file methods based on serving_request. ">
<polygon fill="none" stroke="black" points="119.5,-56.5 119.5,-75.5 235.5,-75.5 235.5,-56.5 119.5,-56.5"/>
<text text-anchor="middle" x="177.5" y="-63.5" font-family="Helvetica,sans-Serif" font-size="10.00">stxxl::disk_queued_file</text>
</a>
</g>
</g>
<!-- Node3&#45;&gt;Node5 -->
<g id="edge5" class="edge"><title>Node3&#45;&gt;Node5</title>
<path fill="none" stroke="midnightblue" d="M177.5,-101.805C177.5,-92.9102 177.5,-82.7798 177.5,-75.7511"/>
<polygon fill="midnightblue" stroke="midnightblue" points="174,-102.083 177.5,-112.083 181,-102.083 174,-102.083"/>
</g>
<!-- Node4 -->
<g id="node4" class="node"><title>Node4</title>
<g id="a_node4"><a xlink:href="classstxxl_1_1noncopyable.html" target="_top" xlink:title="stxxl::noncopyable">
<polygon fill="none" stroke="black" points="189.5,-168.5 189.5,-187.5 287.5,-187.5 287.5,-168.5 189.5,-168.5"/>
<text text-anchor="middle" x="238.5" y="-175.5" font-family="Helvetica,sans-Serif" font-size="10.00">stxxl::noncopyable</text>
</a>
</g>
</g>
<!-- Node4&#45;&gt;Node3 -->
<g id="edge3" class="edge"><title>Node4&#45;&gt;Node3</title>
<path fill="none" stroke="#8b1a1a" d="M221.033,-161.537C210.156,-151.909 196.556,-139.869 187.479,-131.834"/>
<polygon fill="#8b1a1a" stroke="#8b1a1a" points="218.892,-164.316 228.699,-168.324 223.532,-159.075 218.892,-164.316"/>
</g>
<!-- Node7 -->
<g id="node7" class="node"><title>Node7</title>
<g id="a_node7"><a xlink:href="classstxxl_1_1simdisk__geometry.html" target="_top" xlink:title="stxxl::simdisk_geometry">
<polygon fill="none" stroke="black" points="239,-112.5 239,-131.5 362,-131.5 362,-112.5 239,-112.5"/>
<text text-anchor="middle" x="300.5" y="-119.5" font-family="Helvetica,sans-Serif" font-size="10.00">stxxl::simdisk_geometry</text>
</a>
</g>
</g>
<!-- Node4&#45;&gt;Node7 -->
<g id="edge8" class="edge"><title>Node4&#45;&gt;Node7</title>
<path fill="none" stroke="#8b1a1a" d="M256.254,-161.537C267.308,-151.909 281.131,-139.869 290.357,-131.834"/>
<polygon fill="#8b1a1a" stroke="#8b1a1a" points="253.703,-159.117 248.461,-168.324 258.301,-164.395 253.703,-159.117"/>
</g>
<!-- Node5&#45;&gt;Node1 -->
<g id="edge4" class="edge"><title>Node5&#45;&gt;Node1</title>
<path fill="none" stroke="midnightblue" d="M177.5,-45.8045C177.5,-36.9102 177.5,-26.7798 177.5,-19.7511"/>
<polygon fill="midnightblue" stroke="midnightblue" points="174,-46.083 177.5,-56.083 181,-46.083 174,-46.083"/>
</g>
<!-- Node6 -->
<g id="node6" class="node"><title>Node6</title>
<g id="a_node6"><a xlink:href="classstxxl_1_1IC35L080AVVA07.html" target="_top" xlink:title="stxxl::IC35L080AVVA07">
<polygon fill="none" stroke="black" points="254,-56.5 254,-75.5 377,-75.5 377,-56.5 254,-56.5"/>
<text text-anchor="middle" x="315.5" y="-63.5" font-family="Helvetica,sans-Serif" font-size="10.00">stxxl::IC35L080AVVA07</text>
</a>
</g>
</g>
<!-- Node6&#45;&gt;Node1 -->
<g id="edge6" class="edge"><title>Node6&#45;&gt;Node1</title>
<path fill="none" stroke="midnightblue" d="M284.251,-52.772C258.329,-42.6287 222.138,-28.4669 199.264,-19.5164"/>
<polygon fill="midnightblue" stroke="midnightblue" points="283.046,-56.0588 293.633,-56.4435 285.596,-49.5401 283.046,-56.0588"/>
</g>
<!-- Node7&#45;&gt;Node6 -->
<g id="edge7" class="edge"><title>Node7&#45;&gt;Node6</title>
<path fill="none" stroke="midnightblue" d="M305.668,-102.396C308.177,-93.362 311.073,-82.936 313.069,-75.7511"/>
<polygon fill="midnightblue" stroke="midnightblue" points="302.281,-101.511 302.977,-112.083 309.026,-103.385 302.281,-101.511"/>
</g>
</g>
</svg>
