<?xml version="1.0" encoding="UTF-8" standalone="no"?>
<!DOCTYPE svg PUBLIC "-//W3C//DTD SVG 1.1//EN"
 "http://www.w3.org/Graphics/SVG/1.1/DTD/svg11.dtd">
<!-- Generated by graphviz version 2.26.3 (20100126.1600)
 -->
<!-- Title: stxxl::grow_shrink_stack&lt; StackConfig &gt; Pages: 1 -->
<svg width="746pt" height="191pt"
 viewBox="0.00 0.00 746.00 191.43" xmlns="http://www.w3.org/2000/svg" xmlns:xlink="http://www.w3.org/1999/xlink">
<g id="graph1" class="graph" transform="scale(1 1) rotate(0) translate(4 187.434)">
<title>stxxl::grow_shrink_stack&lt; StackConfig &gt;</title>
<!-- Node1 -->
<g id="node1" class="node"><title>Node1</title>
<polygon fill="#bfbfbf" stroke="black" points="620,-99 620,-133 738,-133 738,-99 620,-99"/>
<text text-anchor="start" x="628" y="-120" font-family="Helvetica,sans-Serif" font-size="10.00">stxxl::grow_shrink</text>
<text text-anchor="middle" x="679" y="-107" font-family="Helvetica,sans-Serif" font-size="10.00">_stack&lt; StackConfig &gt;</text>
</g>
<!-- Node2 -->
<g id="node2" class="node"><title>Node2</title>
<a xlink:href="classstxxl_1_1noncopyable.html" target="_top" xlink:title="stxxl::noncopyable">
<polygon fill="none" stroke="black" points="0,-130.5 0,-151.5 98,-151.5 98,-130.5 0,-130.5"/>
<text text-anchor="middle" x="49" y="-138.5" font-family="Helvetica,sans-Serif" font-size="10.00">stxxl::noncopyable</text>
</a>
</g>
<!-- Node2&#45;&gt;Node1 -->
<g id="edge2" class="edge"><title>Node2&#45;&gt;Node1</title>
<path fill="none" stroke="#8b1a1a" d="M101.384,-153.562C106.306,-154.49 111.235,-155.325 116,-156 291.302,-180.822 338.054,-192.742 514,-173 553.858,-168.528 564.13,-166.213 602,-153 617.404,-147.625 633.786,-140.038 647.463,-133.132"/>
<polygon fill="#8b1a1a" stroke="#8b1a1a" points="101.838,-150.084 91.3449,-151.549 100.461,-156.947 101.838,-150.084"/>
</g>
<!-- Node5 -->
<g id="node8" class="node"><title>Node5</title>
<a xlink:href="classstxxl_1_1simple__vector.html" target="_top" xlink:title="stxxl::simple_vector\l\&lt; stxxl::counting_ptr \&gt;">
<polygon fill="none" stroke="black" points="396.5,-130 396.5,-164 511.5,-164 511.5,-130 396.5,-130"/>
<text text-anchor="start" x="404.5" y="-151" font-family="Helvetica,sans-Serif" font-size="10.00">stxxl::simple_vector</text>
<text text-anchor="middle" x="454" y="-138" font-family="Helvetica,sans-Serif" font-size="10.00">&lt; stxxl::counting_ptr &gt;</text>
</a>
</g>
<!-- Node2&#45;&gt;Node5 -->
<g id="edge10" class="edge"><title>Node2&#45;&gt;Node5</title>
<path fill="none" stroke="#8b1a1a" d="M108.405,-142.164C153.766,-143.027 217.826,-144.189 274,-145 314.936,-145.591 361.11,-146.101 396.443,-146.458"/>
<polygon fill="#8b1a1a" stroke="#8b1a1a" points="108.223,-138.66 98.1575,-141.968 108.089,-145.659 108.223,-138.66"/>
</g>
<!-- Node6 -->
<g id="node11" class="node"><title>Node6</title>
<a xlink:href="classstxxl_1_1simple__vector.html" target="_top" xlink:title="Simpler non&#45;growing vector without initialization. ">
<polygon fill="none" stroke="black" points="144,-97 144,-131 248,-131 248,-97 144,-97"/>
<text text-anchor="start" x="152" y="-118" font-family="Helvetica,sans-Serif" font-size="10.00">stxxl::simple_vector</text>
<text text-anchor="middle" x="196" y="-105" font-family="Helvetica,sans-Serif" font-size="10.00">&lt; ValueType &gt;</text>
</a>
</g>
<!-- Node2&#45;&gt;Node6 -->
<g id="edge14" class="edge"><title>Node2&#45;&gt;Node6</title>
<path fill="none" stroke="#8b1a1a" d="M108.468,-130.077C120.151,-127.931 132.327,-125.695 143.752,-123.597"/>
<polygon fill="#8b1a1a" stroke="#8b1a1a" points="107.561,-126.685 98.3578,-131.934 108.826,-133.57 107.561,-126.685"/>
</g>
<!-- Node7 -->
<g id="node14" class="node"><title>Node7</title>
<a xlink:href="classstxxl_1_1simple__vector.html" target="_top" xlink:title="stxxl::simple_vector\l\&lt; stxxl::typed_block \&gt;">
<polygon fill="none" stroke="black" points="397,-68 397,-102 511,-102 511,-68 397,-68"/>
<text text-anchor="start" x="405" y="-89" font-family="Helvetica,sans-Serif" font-size="10.00">stxxl::simple_vector</text>
<text text-anchor="middle" x="454" y="-76" font-family="Helvetica,sans-Serif" font-size="10.00">&lt; stxxl::typed_block &gt;</text>
</a>
</g>
<!-- Node2&#45;&gt;Node7 -->
<g id="edge18" class="edge"><title>Node2&#45;&gt;Node7</title>
<path fill="none" stroke="#8b1a1a" d="M69.5251,-124.287C86.29,-111.724 111.189,-95.4493 136,-88 224.043,-61.5652 332.078,-68.2473 396.857,-76.1505"/>
<polygon fill="#8b1a1a" stroke="#8b1a1a" points="67.3181,-121.569 61.5431,-130.451 71.5969,-127.109 67.3181,-121.569"/>
</g>
<!-- Node3 -->
<g id="node4" class="node"><title>Node3</title>
<a xlink:href="structstxxl_1_1choose__int__types.html" target="_top" xlink:title="stxxl::choose_int_types\l\&lt; my_pointer_size \&gt;">
<polygon fill="none" stroke="black" points="394,-6 394,-40 514,-40 514,-6 394,-6"/>
<text text-anchor="start" x="402" y="-27" font-family="Helvetica,sans-Serif" font-size="10.00">stxxl::choose_int_types</text>
<text text-anchor="middle" x="454" y="-14" font-family="Helvetica,sans-Serif" font-size="10.00">&lt; my_pointer_size &gt;</text>
</a>
</g>
<!-- Node3&#45;&gt;Node1 -->
<g id="edge4" class="edge"><title>Node3&#45;&gt;Node1</title>
<path fill="none" stroke="#9a32cd" stroke-dasharray="5,2" d="M524.019,-34.7302C549.321,-40.4504 577.637,-48.6228 602,-60 623.417,-70.0014 644.933,-86.3029 659.755,-98.7454"/>
<polygon fill="#9a32cd" stroke="#9a32cd" points="524.634,-31.2822 514.119,-32.5801 523.148,-38.1227 524.634,-31.2822"/>
<text text-anchor="middle" x="567" y="-64" font-family="Helvetica,sans-Serif" font-size="10.00"> cache_offset</text>
</g>
<!-- Node4 -->
<g id="node6" class="node"><title>Node4</title>
<a xlink:href="structstxxl_1_1choose__int__types.html" target="_top" xlink:title="stxxl::choose_int_types\l\&lt; PtrSize \&gt;">
<polygon fill="none" stroke="black" points="136,-0 136,-34 256,-34 256,-0 136,-0"/>
<text text-anchor="start" x="144" y="-21" font-family="Helvetica,sans-Serif" font-size="10.00">stxxl::choose_int_types</text>
<text text-anchor="middle" x="196" y="-8" font-family="Helvetica,sans-Serif" font-size="10.00">&lt; PtrSize &gt;</text>
</a>
</g>
<!-- Node4&#45;&gt;Node3 -->
<g id="edge6" class="edge"><title>Node4&#45;&gt;Node3</title>
<path fill="none" stroke="orange" stroke-dasharray="5,2" d="M266.352,-18.6361C306.244,-19.5638 355.642,-20.7126 393.741,-21.5986"/>
<polygon fill="orange" stroke="orange" points="266.243,-15.1327 256.164,-18.3992 266.08,-22.1308 266.243,-15.1327"/>
<text text-anchor="middle" x="325" y="-26" font-family="Helvetica,sans-Serif" font-size="10.00"> &lt; my_pointer_size &gt;</text>
</g>
<!-- Node5&#45;&gt;Node1 -->
<g id="edge8" class="edge"><title>Node5&#45;&gt;Node1</title>
<path fill="none" stroke="#9a32cd" stroke-dasharray="5,2" d="M521.604,-137.686C552.908,-133.373 589.759,-128.295 619.932,-124.138"/>
<polygon fill="#9a32cd" stroke="#9a32cd" points="521.08,-134.225 511.651,-139.057 522.035,-141.159 521.08,-134.225"/>
<text text-anchor="middle" x="567" y="-140" font-family="Helvetica,sans-Serif" font-size="10.00"> requests</text>
</g>
<!-- Node6&#45;&gt;Node5 -->
<g id="edge12" class="edge"><title>Node6&#45;&gt;Node5</title>
<path fill="none" stroke="orange" stroke-dasharray="5,2" d="M258.147,-118.822C292.906,-121.867 336.967,-126.307 376,-132 382.55,-132.955 389.386,-134.08 396.17,-135.276"/>
<polygon fill="orange" stroke="orange" points="258.403,-115.331 248.139,-117.961 257.802,-122.305 258.403,-115.331"/>
<text text-anchor="middle" x="325" y="-136" font-family="Helvetica,sans-Serif" font-size="10.00"> &lt; stxxl::counting_ptr &gt;</text>
</g>
<!-- Node6&#45;&gt;Node7 -->
<g id="edge20" class="edge"><title>Node6&#45;&gt;Node7</title>
<path fill="none" stroke="orange" stroke-dasharray="5,2" d="M258.337,-98.6524C263.615,-97.6462 268.887,-96.7409 274,-96 314.745,-90.0953 361.125,-87.3543 396.601,-86.0848"/>
<polygon fill="orange" stroke="orange" points="257.33,-95.285 248.221,-100.695 258.716,-102.147 257.33,-95.285"/>
<text text-anchor="middle" x="325" y="-100" font-family="Helvetica,sans-Serif" font-size="10.00"> &lt; stxxl::typed_block &gt;</text>
</g>
<!-- Node7&#45;&gt;Node1 -->
<g id="edge16" class="edge"><title>Node7&#45;&gt;Node1</title>
<path fill="none" stroke="#9a32cd" stroke-dasharray="5,2" d="M521.42,-78.0164C546.898,-76.9589 576.004,-77.6642 602,-83 617.387,-86.1582 633.495,-92.525 646.978,-98.831"/>
<polygon fill="#9a32cd" stroke="#9a32cd" points="520.921,-74.5373 511.114,-78.5464 521.28,-81.5281 520.921,-74.5373"/>
<text text-anchor="middle" x="567" y="-113" font-family="Helvetica,sans-Serif" font-size="10.00"> overlap_buffers</text>
<text text-anchor="middle" x="567" y="-100" font-family="Helvetica,sans-Serif" font-size="10.00">cache_buffers</text>
<text text-anchor="middle" x="567" y="-87" font-family="Helvetica,sans-Serif" font-size="10.00">cache</text>
</g>
</g>
</svg>
