<?xml version="1.0" encoding="UTF-8" standalone="no"?>
<!DOCTYPE svg PUBLIC "-//W3C//DTD SVG 1.1//EN"
 "http://www.w3.org/Graphics/SVG/1.1/DTD/svg11.dtd">
<!-- Generated by graphviz version 2.26.3 (20100126.1600)
 -->
<!-- Title: stxxl::ppq_local::external_array_writer&lt; ExternalArrayType &gt;::iterator Pages: 1 -->
<svg width="180pt" height="274pt"
 viewBox="0.00 0.00 180.00 274.00" xmlns="http://www.w3.org/2000/svg" xmlns:xlink="http://www.w3.org/1999/xlink">
<g id="graph1" class="graph" transform="scale(1 1) rotate(0) translate(4 270)">
<title>stxxl::ppq_local::external_array_writer&lt; ExternalArrayType &gt;::iterator</title>
<!-- Node1 -->
<g id="node1" class="node"><title>Node1</title>
<polygon fill="#bfbfbf" stroke="black" points="4.5,-0.5 4.5,-47.5 167.5,-47.5 167.5,-0.5 4.5,-0.5"/>
<text text-anchor="start" x="12.5" y="-34.5" font-family="Helvetica,sans-Serif" font-size="10.00">stxxl::ppq_local::external</text>
<text text-anchor="start" x="12.5" y="-21.5" font-family="Helvetica,sans-Serif" font-size="10.00">_array_writer&lt; ExternalArrayType</text>
<text text-anchor="middle" x="86" y="-8.5" font-family="Helvetica,sans-Serif" font-size="10.00"> &gt;::iterator</text>
</g>
<!-- Node2 -->
<g id="node2" class="node"><title>Node2</title>
<a xlink:href="classstxxl_1_1ppq__local_1_1external__array__writer.html" target="_top" xlink:title="stxxl::ppq_local::external\l_array_writer\&lt; ExternalArrayType \&gt;">
<polygon fill="none" stroke="black" points="0,-99 0,-133 172,-133 172,-99 0,-99"/>
<text text-anchor="start" x="8" y="-120" font-family="Helvetica,sans-Serif" font-size="10.00">stxxl::ppq_local::external</text>
<text text-anchor="middle" x="86" y="-107" font-family="Helvetica,sans-Serif" font-size="10.00">_array_writer&lt; ExternalArrayType &gt;</text>
</a>
</g>
<!-- Node2&#45;&gt;Node1 -->
<g id="edge2" class="edge"><title>Node2&#45;&gt;Node1</title>
<path fill="none" stroke="#9a32cd" stroke-dasharray="5,2" d="M86,-88.4891C86,-75.5472 86,-60.263 86,-47.8232"/>
<polygon fill="#9a32cd" stroke="#9a32cd" points="82.5001,-88.6955 86,-98.6955 89.5001,-88.6955 82.5001,-88.6955"/>
<text text-anchor="middle" x="106.5" y="-70.5" font-family="Helvetica,sans-Serif" font-size="10.00"> m_writer</text>
</g>
<!-- Node3 -->
<g id="node4" class="node"><title>Node3</title>
<a xlink:href="classstxxl_1_1noncopyable.html" target="_top" xlink:title="stxxl::noncopyable">
<polygon fill="none" stroke="black" points="43,-244.5 43,-265.5 141,-265.5 141,-244.5 43,-244.5"/>
<text text-anchor="middle" x="92" y="-252.5" font-family="Helvetica,sans-Serif" font-size="10.00">stxxl::noncopyable</text>
</a>
</g>
<!-- Node3&#45;&gt;Node2 -->
<g id="edge4" class="edge"><title>Node3&#45;&gt;Node2</title>
<path fill="none" stroke="midnightblue" d="M90.6129,-234.429C90.0553,-225.67 89.4414,-215.338 89,-206 87.8042,-180.702 86.9204,-151.381 86.4327,-133.259"/>
<polygon fill="midnightblue" stroke="midnightblue" points="87.1257,-234.74 91.2717,-244.49 94.1107,-234.283 87.1257,-234.74"/>
</g>
<!-- Node4 -->
<g id="node6" class="node"><title>Node4</title>
<a xlink:href="classstxxl_1_1mutex.html" target="_top" xlink:title="stxxl::mutex">
<polygon fill="none" stroke="black" points="97.5,-184.5 97.5,-205.5 168.5,-205.5 168.5,-184.5 97.5,-184.5"/>
<text text-anchor="middle" x="133" y="-192.5" font-family="Helvetica,sans-Serif" font-size="10.00">stxxl::mutex</text>
</a>
</g>
<!-- Node3&#45;&gt;Node4 -->
<g id="edge8" class="edge"><title>Node3&#45;&gt;Node4</title>
<path fill="none" stroke="#8b1a1a" d="M105.138,-235.773C111.961,-225.789 120.037,-213.97 125.733,-205.634"/>
<polygon fill="#8b1a1a" stroke="#8b1a1a" points="102.082,-234.042 99.33,-244.273 107.862,-237.991 102.082,-234.042"/>
</g>
<!-- Node4&#45;&gt;Node2 -->
<g id="edge6" class="edge"><title>Node4&#45;&gt;Node2</title>
<path fill="none" stroke="#9a32cd" stroke-dasharray="5,2" d="M121.515,-175.696C113.771,-162.679 103.645,-145.658 96.1874,-133.124"/>
<polygon fill="#9a32cd" stroke="#9a32cd" points="118.54,-177.541 126.661,-184.346 124.556,-173.962 118.54,-177.541"/>
<text text-anchor="middle" x="137" y="-156.5" font-family="Helvetica,sans-Serif" font-size="10.00"> m_mutex</text>
</g>
</g>
</svg>
