<?xml version="1.0" encoding="UTF-8" standalone="no"?>
<!DOCTYPE svg PUBLIC "-//W3C//DTD SVG 1.1//EN"
 "http://www.w3.org/Graphics/SVG/1.1/DTD/svg11.dtd">
<!-- Generated by graphviz version 2.38.0 (20140413.2041)
 -->
<!-- Title: stxxl::stream::make_tuple&lt; Input1, Input2, Input3, Input4, Stopper, Stopper &gt; Pages: 1 -->
<svg width="599pt" height="128pt"
 viewBox="0.00 0.00 599.00 127.50" xmlns="http://www.w3.org/2000/svg" xmlns:xlink="http://www.w3.org/1999/xlink">
<g id="graph0" class="graph" transform="scale(1 1) rotate(0) translate(4 123.5)">
<title>stxxl::stream::make_tuple&lt; Input1, Input2, Input3, Input4, Stopper, Stopper &gt;</title>
<!-- Node1 -->
<g id="node1" class="node"><title>Node1</title>
<polygon fill="#bfbfbf" stroke="black" points="469,-33.5 469,-85.5 591,-85.5 591,-33.5 469,-33.5"/>
<text text-anchor="start" x="477" y="-73.5" font-family="Helvetica,sans-Serif" font-size="10.00">stxxl::stream::make</text>
<text text-anchor="start" x="477" y="-62.5" font-family="Helvetica,sans-Serif" font-size="10.00">_tuple&lt; Input1, Input2,</text>
<text text-anchor="start" x="477" y="-51.5" font-family="Helvetica,sans-Serif" font-size="10.00"> Input3, Input4, Stopper,</text>
<text text-anchor="middle" x="530" y="-40.5" font-family="Helvetica,sans-Serif" font-size="10.00"> Stopper &gt;</text>
</g>
<!-- Node2 -->
<g id="node2" class="node"><title>Node2</title>
<g id="a_node2"><a xlink:href="structstxxl_1_1tuple.html" target="_top" xlink:title="stxxl::tuple\&lt; typename\l Input1::value_type, typename\l Input2::value_type, typename\l Input3::value_type, typename\l Input4::value_type \&gt;">
<polygon fill="none" stroke="black" points="250,-28 250,-91 399,-91 399,-28 250,-28"/>
<text text-anchor="start" x="258" y="-79" font-family="Helvetica,sans-Serif" font-size="10.00">stxxl::tuple&lt; typename</text>
<text text-anchor="start" x="258" y="-68" font-family="Helvetica,sans-Serif" font-size="10.00"> Input1::value_type, typename</text>
<text text-anchor="start" x="258" y="-57" font-family="Helvetica,sans-Serif" font-size="10.00"> Input2::value_type, typename</text>
<text text-anchor="start" x="258" y="-46" font-family="Helvetica,sans-Serif" font-size="10.00"> Input3::value_type, typename</text>
<text text-anchor="middle" x="324.5" y="-35" font-family="Helvetica,sans-Serif" font-size="10.00"> Input4::value_type &gt;</text>
</a>
</g>
</g>
<!-- Node2&#45;&gt;Node1 -->
<g id="edge1" class="edge"><title>Node2&#45;&gt;Node1</title>
<path fill="none" stroke="#9a32cd" stroke-dasharray="5,2" d="M409.282,-59.5C429.254,-59.5 450.181,-59.5 468.85,-59.5"/>
<polygon fill="#9a32cd" stroke="#9a32cd" points="409.256,-56.0001 399.256,-59.5 409.256,-63.0001 409.256,-56.0001"/>
<text text-anchor="middle" x="434" y="-62.5" font-family="Helvetica,sans-Serif" font-size="10.00"> current</text>
</g>
<!-- Node3 -->
<g id="node3" class="node"><title>Node3</title>
<g id="a_node3"><a xlink:href="structstxxl_1_1Plug.html" target="_top" xlink:title="stxxl::Plug">
<polygon fill="none" stroke="black" points="21,-95 21,-114 84,-114 84,-95 21,-95"/>
<text text-anchor="middle" x="52.5" y="-102" font-family="Helvetica,sans-Serif" font-size="10.00">stxxl::Plug</text>
</a>
</g>
</g>
<!-- Node3&#45;&gt;Node2 -->
<g id="edge2" class="edge"><title>Node3&#45;&gt;Node2</title>
<path fill="none" stroke="#9a32cd" stroke-dasharray="5,2" d="M94.5197,-100.899C130.842,-97.3645 185.206,-91.2303 232,-82.5 237.797,-81.4185 243.772,-80.1864 249.762,-78.8674"/>
<polygon fill="#9a32cd" stroke="#9a32cd" points="93.9388,-97.438 84.3152,-101.869 94.6017,-104.407 93.9388,-97.438"/>
<text text-anchor="middle" x="177.5" y="-111.5" font-family="Helvetica,sans-Serif" font-size="10.00"> fifth</text>
<text text-anchor="middle" x="177.5" y="-100.5" font-family="Helvetica,sans-Serif" font-size="10.00">sixth</text>
</g>
<!-- Node4 -->
<g id="node4" class="node"><title>Node4</title>
<g id="a_node4"><a xlink:href="structstxxl_1_1tuple.html" target="_top" xlink:title="k&#45;Tuple data type ">
<polygon fill="none" stroke="black" points="0,-0.5 0,-30.5 105,-30.5 105,-0.5 0,-0.5"/>
<text text-anchor="start" x="8" y="-18.5" font-family="Helvetica,sans-Serif" font-size="10.00">stxxl::tuple&lt; T1, T2,</text>
<text text-anchor="middle" x="52.5" y="-7.5" font-family="Helvetica,sans-Serif" font-size="10.00"> T3, T4, T5, T6 &gt;</text>
</a>
</g>
</g>
<!-- Node4&#45;&gt;Node2 -->
<g id="edge3" class="edge"><title>Node4&#45;&gt;Node2</title>
<path fill="none" stroke="orange" stroke-dasharray="5,2" d="M115.331,-9.34946C150.039,-7.5078 193.898,-7.88113 232,-16.5 243.299,-19.0559 254.854,-23.1519 265.781,-27.8242"/>
<polygon fill="orange" stroke="orange" points="115.105,-5.85662 105.335,-9.95379 115.528,-12.8439 115.105,-5.85662"/>
<text text-anchor="start" x="123" y="-74.5" font-family="Helvetica,sans-Serif" font-size="10.00"> &lt; typename Input1::</text>
<text text-anchor="start" x="123" y="-63.5" font-family="Helvetica,sans-Serif" font-size="10.00">value_type, typename</text>
<text text-anchor="start" x="123" y="-52.5" font-family="Helvetica,sans-Serif" font-size="10.00"> Input2::value_type,</text>
<text text-anchor="start" x="123" y="-41.5" font-family="Helvetica,sans-Serif" font-size="10.00"> typename Input3::value</text>
<text text-anchor="start" x="123" y="-30.5" font-family="Helvetica,sans-Serif" font-size="10.00">_type, typename Input4::</text>
<text text-anchor="middle" x="177.5" y="-19.5" font-family="Helvetica,sans-Serif" font-size="10.00">value_type &gt;</text>
</g>
</g>
</svg>
