<?xml version="1.0" encoding="UTF-8" standalone="no"?>
<!DOCTYPE svg PUBLIC "-//W3C//DTD SVG 1.1//EN"
 "http://www.w3.org/Graphics/SVG/1.1/DTD/svg11.dtd">
<!-- Generated by graphviz version 2.38.0 (20140413.2041)
 -->
<!-- Title: stxxl::request_queue_impl_1q Pages: 1 -->
<svg width="115pt" height="218pt"
 viewBox="0.00 0.00 115.00 218.00" xmlns="http://www.w3.org/2000/svg" xmlns:xlink="http://www.w3.org/1999/xlink">
<g id="graph0" class="graph" transform="scale(1 1) rotate(0) translate(4 214)">
<title>stxxl::request_queue_impl_1q</title>
<!-- Node1 -->
<g id="node1" class="node"><title>Node1</title>
<polygon fill="#bfbfbf" stroke="black" points="-7.10543e-15,-0.5 -7.10543e-15,-30.5 107,-30.5 107,-0.5 -7.10543e-15,-0.5"/>
<text text-anchor="start" x="8" y="-18.5" font-family="Helvetica,sans-Serif" font-size="10.00">stxxl::request_queue</text>
<text text-anchor="middle" x="53.5" y="-7.5" font-family="Helvetica,sans-Serif" font-size="10.00">_impl_1q</text>
</g>
<!-- Node2 -->
<g id="node2" class="node"><title>Node2</title>
<g id="a_node2"><a xlink:href="classstxxl_1_1request__queue__impl__worker.html" target="_top" xlink:title="Implementation of request queue worker threads. Worker threads can be started by start_thread and sto...">
<polygon fill="none" stroke="black" points="-7.10543e-15,-67.5 -7.10543e-15,-97.5 107,-97.5 107,-67.5 -7.10543e-15,-67.5"/>
<text text-anchor="start" x="8" y="-85.5" font-family="Helvetica,sans-Serif" font-size="10.00">stxxl::request_queue</text>
<text text-anchor="middle" x="53.5" y="-74.5" font-family="Helvetica,sans-Serif" font-size="10.00">_impl_worker</text>
</a>
</g>
</g>
<!-- Node2&#45;&gt;Node1 -->
<g id="edge1" class="edge"><title>Node2&#45;&gt;Node1</title>
<path fill="none" stroke="midnightblue" d="M53.5,-57.1081C53.5,-48.1539 53.5,-38.3227 53.5,-30.5765"/>
<polygon fill="midnightblue" stroke="midnightblue" points="50.0001,-57.3959 53.5,-67.396 57.0001,-57.396 50.0001,-57.3959"/>
</g>
<!-- Node3 -->
<g id="node3" class="node"><title>Node3</title>
<g id="a_node3"><a xlink:href="classstxxl_1_1request__queue.html" target="_top" xlink:title="Interface of a request_queue to which requests can be added and canceled. ">
<polygon fill="none" stroke="black" points="-7.10543e-15,-134.5 -7.10543e-15,-153.5 107,-153.5 107,-134.5 -7.10543e-15,-134.5"/>
<text text-anchor="middle" x="53.5" y="-141.5" font-family="Helvetica,sans-Serif" font-size="10.00">stxxl::request_queue</text>
</a>
</g>
</g>
<!-- Node3&#45;&gt;Node2 -->
<g id="edge2" class="edge"><title>Node3&#45;&gt;Node2</title>
<path fill="none" stroke="midnightblue" d="M53.5,-124.235C53.5,-115.586 53.5,-105.497 53.5,-97.523"/>
<polygon fill="midnightblue" stroke="midnightblue" points="50.0001,-124.475 53.5,-134.475 57.0001,-124.475 50.0001,-124.475"/>
</g>
<!-- Node4 -->
<g id="node4" class="node"><title>Node4</title>
<g id="a_node4"><a xlink:href="classstxxl_1_1noncopyable.html" target="_top" xlink:title="stxxl::noncopyable">
<polygon fill="none" stroke="black" points="4.5,-190.5 4.5,-209.5 102.5,-209.5 102.5,-190.5 4.5,-190.5"/>
<text text-anchor="middle" x="53.5" y="-197.5" font-family="Helvetica,sans-Serif" font-size="10.00">stxxl::noncopyable</text>
</a>
</g>
</g>
<!-- Node4&#45;&gt;Node3 -->
<g id="edge3" class="edge"><title>Node4&#45;&gt;Node3</title>
<path fill="none" stroke="#8b1a1a" d="M53.5,-179.805C53.5,-170.91 53.5,-160.78 53.5,-153.751"/>
<polygon fill="#8b1a1a" stroke="#8b1a1a" points="50.0001,-180.083 53.5,-190.083 57.0001,-180.083 50.0001,-180.083"/>
</g>
</g>
</svg>
