<?xml version="1.0" encoding="UTF-8" standalone="no"?>
<!DOCTYPE svg PUBLIC "-//W3C//DTD SVG 1.1//EN"
 "http://www.w3.org/Graphics/SVG/1.1/DTD/svg11.dtd">
<!-- Generated by graphviz version 2.38.0 (20140413.2041)
 -->
<!-- Title: stxxl::parallel_priority_queue&lt; ValueType, CompareType, AllocStrategy, BlockSize, DefaultMemSize, MaxItems &gt; Pages: 1 -->
<svg width="1784pt" height="1133pt"
 viewBox="0.00 0.00 1784.00 1132.50" xmlns="http://www.w3.org/2000/svg" xmlns:xlink="http://www.w3.org/1999/xlink">
<g id="graph0" class="graph" transform="scale(1 1) rotate(0) translate(4 1128.5)">
<title>stxxl::parallel_priority_queue&lt; ValueType, CompareType, AllocStrategy, BlockSize, DefaultMemSize, MaxItems &gt;</title>
<!-- Node1 -->
<g id="node1" class="node"><title>Node1</title>
<polygon fill="#bfbfbf" stroke="black" points="1588,-669.5 1588,-721.5 1776,-721.5 1776,-669.5 1588,-669.5"/>
<text text-anchor="start" x="1596" y="-709.5" font-family="Helvetica,sans-Serif" font-size="10.00">stxxl::parallel_priority</text>
<text text-anchor="start" x="1596" y="-698.5" font-family="Helvetica,sans-Serif" font-size="10.00">_queue&lt; ValueType, CompareType,</text>
<text text-anchor="start" x="1596" y="-687.5" font-family="Helvetica,sans-Serif" font-size="10.00"> AllocStrategy, BlockSize, DefaultMem</text>
<text text-anchor="middle" x="1682" y="-676.5" font-family="Helvetica,sans-Serif" font-size="10.00">Size, MaxItems &gt;</text>
</g>
<!-- Node2 -->
<g id="node2" class="node"><title>Node2</title>
<g id="a_node2"><a xlink:href="classstxxl_1_1noncopyable.html" target="_top" xlink:title="stxxl::noncopyable">
<polygon fill="none" stroke="black" points="28,-983 28,-1002 126,-1002 126,-983 28,-983"/>
<text text-anchor="middle" x="77" y="-990" font-family="Helvetica,sans-Serif" font-size="10.00">stxxl::noncopyable</text>
</a>
</g>
</g>
<!-- Node2&#45;&gt;Node1 -->
<g id="edge1" class="edge"><title>Node2&#45;&gt;Node1</title>
<path fill="none" stroke="#8b1a1a" d="M97.0337,-1008.82C140.238,-1044.14 250.313,-1124.5 357.5,-1124.5 357.5,-1124.5 357.5,-1124.5 1372.5,-1124.5 1572.03,-1124.5 1655.2,-814.832 1675.7,-721.69"/>
<polygon fill="#8b1a1a" stroke="#8b1a1a" points="99.0051,-1005.91 89.0791,-1002.21 94.5283,-1011.29 99.0051,-1005.91"/>
</g>
<!-- Node3 -->
<g id="node3" class="node"><title>Node3</title>
<g id="a_node3"><a xlink:href="classstxxl_1_1swap__vector.html" target="_top" xlink:title="stxxl::swap_vector\l\&lt; internal_array_type \&gt;">
<polygon fill="none" stroke="black" points="631.5,-1027.5 631.5,-1057.5 748.5,-1057.5 748.5,-1027.5 631.5,-1027.5"/>
<text text-anchor="start" x="639.5" y="-1045.5" font-family="Helvetica,sans-Serif" font-size="10.00">stxxl::swap_vector</text>
<text text-anchor="middle" x="690" y="-1034.5" font-family="Helvetica,sans-Serif" font-size="10.00">&lt; internal_array_type &gt;</text>
</a>
</g>
</g>
<!-- Node2&#45;&gt;Node3 -->
<g id="edge3" class="edge"><title>Node2&#45;&gt;Node3</title>
<path fill="none" stroke="#8b1a1a" d="M136.405,-1001.74C148.173,-1003.45 160.469,-1005.12 172,-1006.5 290.306,-1020.62 320.137,-1022.31 439,-1030.5 504.892,-1035.04 580.672,-1038.42 631.368,-1040.42"/>
<polygon fill="#8b1a1a" stroke="#8b1a1a" points="136.635,-998.234 126.231,-1000.23 135.612,-1005.16 136.635,-998.234"/>
</g>
<!-- Node4 -->
<g id="node4" class="node"><title>Node4</title>
<g id="a_node4"><a xlink:href="classstxxl_1_1swap__vector.html" target="_top" xlink:title="Vector that avoids copying of ValueType objects in push_back() (here: swap_back()) and resize() opera...">
<polygon fill="none" stroke="black" points="309,-951.5 309,-981.5 408,-981.5 408,-951.5 309,-951.5"/>
<text text-anchor="start" x="317" y="-969.5" font-family="Helvetica,sans-Serif" font-size="10.00">stxxl::swap_vector</text>
<text text-anchor="middle" x="358.5" y="-958.5" font-family="Helvetica,sans-Serif" font-size="10.00">&lt; ValueType &gt;</text>
</a>
</g>
</g>
<!-- Node2&#45;&gt;Node4 -->
<g id="edge5" class="edge"><title>Node2&#45;&gt;Node4</title>
<path fill="none" stroke="#8b1a1a" d="M136.265,-987.08C187.311,-982.332 260.649,-975.509 308.674,-971.042"/>
<polygon fill="#8b1a1a" stroke="#8b1a1a" points="135.681,-983.619 126.048,-988.03 136.329,-990.589 135.681,-983.619"/>
</g>
<!-- Node8 -->
<g id="node8" class="node"><title>Node8</title>
<g id="a_node8"><a xlink:href="classstxxl_1_1swap__vector.html" target="_top" xlink:title="stxxl::swap_vector\l\&lt; external_array_type \&gt;">
<polygon fill="none" stroke="black" points="630,-869.5 630,-899.5 750,-899.5 750,-869.5 630,-869.5"/>
<text text-anchor="start" x="638" y="-887.5" font-family="Helvetica,sans-Serif" font-size="10.00">stxxl::swap_vector</text>
<text text-anchor="middle" x="690" y="-876.5" font-family="Helvetica,sans-Serif" font-size="10.00">&lt; external_array_type &gt;</text>
</a>
</g>
</g>
<!-- Node2&#45;&gt;Node8 -->
<g id="edge11" class="edge"><title>Node2&#45;&gt;Node8</title>
<path fill="none" stroke="#8b1a1a" d="M91.3289,-974.833C107.764,-954.612 137.761,-922.487 172,-908.5 327.131,-845.125 530.621,-861.352 629.676,-874.833"/>
<polygon fill="#8b1a1a" stroke="#8b1a1a" points="88.3896,-972.909 84.9537,-982.931 93.8896,-977.239 88.3896,-972.909"/>
</g>
<!-- Node19 -->
<g id="node19" class="node"><title>Node19</title>
<g id="a_node19"><a xlink:href="classstxxl_1_1read__write__pool.html" target="_top" xlink:title="stxxl::read_write_pool\l\&lt; block_type \&gt;">
<polygon fill="none" stroke="black" points="1315.5,-928.5 1315.5,-958.5 1427.5,-958.5 1427.5,-928.5 1315.5,-928.5"/>
<text text-anchor="start" x="1323.5" y="-946.5" font-family="Helvetica,sans-Serif" font-size="10.00">stxxl::read_write_pool</text>
<text text-anchor="middle" x="1371.5" y="-935.5" font-family="Helvetica,sans-Serif" font-size="10.00">&lt; block_type &gt;</text>
</a>
</g>
</g>
<!-- Node2&#45;&gt;Node19 -->
<g id="edge36" class="edge"><title>Node2&#45;&gt;Node19</title>
<path fill="none" stroke="#8b1a1a" d="M109.773,-1005.74C127.737,-1012.69 150.785,-1020.73 172,-1025.5 226.065,-1037.65 240.866,-1032.95 296,-1038.5 429.28,-1051.93 462.201,-1061.05 596,-1067.5 896.427,-1081.99 976.139,-1056.09 1267,-979.5 1288.71,-973.784 1312.4,-965.688 1331.62,-958.622"/>
<polygon fill="#8b1a1a" stroke="#8b1a1a" points="110.946,-1002.44 100.36,-1002.01 108.372,-1008.95 110.946,-1002.44"/>
</g>
<!-- Node20 -->
<g id="node20" class="node"><title>Node20</title>
<g id="a_node20"><a xlink:href="classstxxl_1_1prefetch__pool.html" target="_top" xlink:title="Implements dynamically resizable prefetching pool. ">
<polygon fill="none" stroke="black" points="639,-820.5 639,-850.5 741,-850.5 741,-820.5 639,-820.5"/>
<text text-anchor="start" x="647" y="-838.5" font-family="Helvetica,sans-Serif" font-size="10.00">stxxl::prefetch_pool</text>
<text text-anchor="middle" x="690" y="-827.5" font-family="Helvetica,sans-Serif" font-size="10.00">&lt; BlockType &gt;</text>
</a>
</g>
</g>
<!-- Node2&#45;&gt;Node20 -->
<g id="edge38" class="edge"><title>Node2&#45;&gt;Node20</title>
<path fill="none" stroke="#8b1a1a" d="M86.7535,-973.712C100.587,-946.395 130.282,-896.472 172,-873.5 251.231,-829.871 524.76,-831.327 638.634,-833.967"/>
<polygon fill="#8b1a1a" stroke="#8b1a1a" points="83.4753,-972.45 82.2362,-982.972 89.7665,-975.519 83.4753,-972.45"/>
</g>
<!-- Node23 -->
<g id="node23" class="node"><title>Node23</title>
<g id="a_node23"><a xlink:href="classstxxl_1_1write__pool.html" target="_top" xlink:title="Implements dynamically resizable buffered writing pool. ">
<polygon fill="none" stroke="black" points="643,-974.5 643,-1004.5 737,-1004.5 737,-974.5 643,-974.5"/>
<text text-anchor="start" x="651" y="-992.5" font-family="Helvetica,sans-Serif" font-size="10.00">stxxl::write_pool&lt;</text>
<text text-anchor="middle" x="690" y="-981.5" font-family="Helvetica,sans-Serif" font-size="10.00"> BlockType &gt;</text>
</a>
</g>
</g>
<!-- Node2&#45;&gt;Node23 -->
<g id="edge43" class="edge"><title>Node2&#45;&gt;Node23</title>
<path fill="none" stroke="#8b1a1a" d="M136.174,-992.607C176.081,-992.655 230.247,-992.667 278,-992.5 410.365,-992.037 566.703,-990.67 642.773,-989.952"/>
<polygon fill="#8b1a1a" stroke="#8b1a1a" points="136.094,-989.107 126.09,-992.594 136.085,-996.107 136.094,-989.107"/>
</g>
<!-- Node24 -->
<g id="node24" class="node"><title>Node24</title>
<g id="a_node24"><a xlink:href="classstxxl_1_1read__write__pool.html" target="_top" xlink:title="Implements dynamically resizable buffered writing and prefetched reading pool. ">
<polygon fill="none" stroke="black" points="931,-928.5 931,-958.5 1043,-958.5 1043,-928.5 931,-928.5"/>
<text text-anchor="start" x="939" y="-946.5" font-family="Helvetica,sans-Serif" font-size="10.00">stxxl::read_write_pool</text>
<text text-anchor="middle" x="987" y="-935.5" font-family="Helvetica,sans-Serif" font-size="10.00">&lt; BlockType &gt;</text>
</a>
</g>
</g>
<!-- Node2&#45;&gt;Node24 -->
<g id="edge45" class="edge"><title>Node2&#45;&gt;Node24</title>
<path fill="none" stroke="#8b1a1a" d="M118.638,-980.137C162.058,-967.649 233.141,-949.264 296,-942.5 418.528,-929.315 789.808,-937.97 930.844,-941.875"/>
<polygon fill="#8b1a1a" stroke="#8b1a1a" points="117.635,-976.784 109.012,-982.94 119.592,-983.505 117.635,-976.784"/>
</g>
<!-- Node3&#45;&gt;Node1 -->
<g id="edge2" class="edge"><title>Node3&#45;&gt;Node1</title>
<path fill="none" stroke="#9a32cd" stroke-dasharray="5,2" d="M758.687,-1054.88C867.184,-1072.5 1086.2,-1098.86 1267,-1062.5 1410.15,-1033.71 1464.89,-1036.86 1570,-935.5 1633.45,-874.316 1664.16,-769.908 1675.55,-721.528"/>
<polygon fill="#9a32cd" stroke="#9a32cd" points="758.974,-1051.38 748.537,-1053.21 757.834,-1058.29 758.974,-1051.38"/>
<text text-anchor="middle" x="1188.5" y="-1082.5" font-family="Helvetica,sans-Serif" font-size="10.00"> m_internal_arrays</text>
</g>
<!-- Node4&#45;&gt;Node3 -->
<g id="edge4" class="edge"><title>Node4&#45;&gt;Node3</title>
<path fill="none" stroke="orange" stroke-dasharray="5,2" d="M418.225,-980.045C478.428,-993.931 571.471,-1015.39 631.299,-1029.19"/>
<polygon fill="orange" stroke="orange" points="418.65,-976.551 408.119,-977.714 417.076,-983.372 418.65,-976.551"/>
<text text-anchor="middle" x="508.5" y="-1018.5" font-family="Helvetica,sans-Serif" font-size="10.00"> &lt; internal_array_type &gt;</text>
</g>
<!-- Node4&#45;&gt;Node8 -->
<g id="edge12" class="edge"><title>Node4&#45;&gt;Node8</title>
<path fill="none" stroke="orange" stroke-dasharray="5,2" d="M418.146,-951.905C477.868,-937.043 569.965,-914.123 629.863,-899.217"/>
<polygon fill="orange" stroke="orange" points="416.978,-948.589 408.119,-954.401 418.668,-955.382 416.978,-948.589"/>
<text text-anchor="middle" x="508.5" y="-949.5" font-family="Helvetica,sans-Serif" font-size="10.00"> &lt; external_array_type &gt;</text>
</g>
<!-- Node5 -->
<g id="node5" class="node"><title>Node5</title>
<g id="a_node5"><a xlink:href="structstxxl_1_1parallel__priority__queue_1_1inv__compare__type.html" target="_top" xlink:title="Inverse comparison functor. ">
<polygon fill="none" stroke="black" points="596,-699.5 596,-751.5 784,-751.5 784,-699.5 596,-699.5"/>
<text text-anchor="start" x="604" y="-739.5" font-family="Helvetica,sans-Serif" font-size="10.00">stxxl::parallel_priority</text>
<text text-anchor="start" x="604" y="-728.5" font-family="Helvetica,sans-Serif" font-size="10.00">_queue&lt; ValueType, CompareType,</text>
<text text-anchor="start" x="604" y="-717.5" font-family="Helvetica,sans-Serif" font-size="10.00"> AllocStrategy, BlockSize, DefaultMem</text>
<text text-anchor="middle" x="690" y="-706.5" font-family="Helvetica,sans-Serif" font-size="10.00">Size, MaxItems &gt;::inv_compare_type</text>
</a>
</g>
</g>
<!-- Node5&#45;&gt;Node1 -->
<g id="edge6" class="edge"><title>Node5&#45;&gt;Node1</title>
<path fill="none" stroke="#9a32cd" stroke-dasharray="5,2" d="M794.161,-702.422C822.483,-697.082 853.299,-692.181 882,-689.5 1136.48,-665.727 1438.54,-679.282 1587.86,-688.748"/>
<polygon fill="#9a32cd" stroke="#9a32cd" points="793.414,-699.001 784.255,-704.326 794.736,-705.876 793.414,-699.001"/>
<text text-anchor="middle" x="1188.5" y="-680.5" font-family="Helvetica,sans-Serif" font-size="10.00"> m_inv_compare</text>
</g>
<!-- Node7 -->
<g id="node7" class="node"><title>Node7</title>
<g id="a_node7"><a xlink:href="structstxxl_1_1parallel__priority__queue_1_1hint__comparator.html" target="_top" xlink:title="Compares the largest value of the block hinted the latest of two external arrays. ...">
<polygon fill="none" stroke="black" points="893,-699.5 893,-751.5 1081,-751.5 1081,-699.5 893,-699.5"/>
<text text-anchor="start" x="901" y="-739.5" font-family="Helvetica,sans-Serif" font-size="10.00">stxxl::parallel_priority</text>
<text text-anchor="start" x="901" y="-728.5" font-family="Helvetica,sans-Serif" font-size="10.00">_queue&lt; ValueType, CompareType,</text>
<text text-anchor="start" x="901" y="-717.5" font-family="Helvetica,sans-Serif" font-size="10.00"> AllocStrategy, BlockSize, DefaultMem</text>
<text text-anchor="middle" x="987" y="-706.5" font-family="Helvetica,sans-Serif" font-size="10.00">Size, MaxItems &gt;::hint_comparator</text>
</a>
</g>
</g>
<!-- Node5&#45;&gt;Node7 -->
<g id="edge9" class="edge"><title>Node5&#45;&gt;Node7</title>
<path fill="none" stroke="#9a32cd" stroke-dasharray="5,2" d="M794.601,-725.5C826.56,-725.5 861.545,-725.5 892.761,-725.5"/>
<polygon fill="#9a32cd" stroke="#9a32cd" points="794.34,-722 784.34,-725.5 794.34,-729 794.34,-722"/>
<text text-anchor="middle" x="833" y="-728.5" font-family="Helvetica,sans-Serif" font-size="10.00"> m_compare</text>
</g>
<!-- Node18 -->
<g id="node18" class="node"><title>Node18</title>
<g id="a_node18"><a xlink:href="structstxxl_1_1parallel__priority__queue_1_1external__min__comparator.html" target="_top" xlink:title="Compares the largest accessible value of two external arrays. ">
<polygon fill="none" stroke="black" points="882,-770.5 882,-822.5 1092,-822.5 1092,-770.5 882,-770.5"/>
<text text-anchor="start" x="890" y="-810.5" font-family="Helvetica,sans-Serif" font-size="10.00">stxxl::parallel_priority</text>
<text text-anchor="start" x="890" y="-799.5" font-family="Helvetica,sans-Serif" font-size="10.00">_queue&lt; ValueType, CompareType,</text>
<text text-anchor="start" x="890" y="-788.5" font-family="Helvetica,sans-Serif" font-size="10.00"> AllocStrategy, BlockSize, DefaultMem</text>
<text text-anchor="middle" x="987" y="-777.5" font-family="Helvetica,sans-Serif" font-size="10.00">Size, MaxItems &gt;::external_min_comparator</text>
</a>
</g>
</g>
<!-- Node5&#45;&gt;Node18 -->
<g id="edge30" class="edge"><title>Node5&#45;&gt;Node18</title>
<path fill="none" stroke="#9a32cd" stroke-dasharray="5,2" d="M752.156,-755.622C768.066,-762.43 785.406,-768.974 802,-773.5 827.468,-780.446 855.499,-785.302 881.838,-788.694"/>
<polygon fill="#9a32cd" stroke="#9a32cd" points="753.534,-752.405 742.97,-751.596 750.724,-758.816 753.534,-752.405"/>
<text text-anchor="middle" x="833" y="-789.5" font-family="Helvetica,sans-Serif" font-size="10.00"> m_compare</text>
</g>
<!-- Node6 -->
<g id="node6" class="node"><title>Node6</title>
<g id="a_node6"><a xlink:href="classstxxl_1_1winner__tree.html" target="_top" xlink:title="stxxl::winner_tree\l\&lt; stxxl::parallel_priority\l_queue::hint_comparator \&gt;">
<polygon fill="none" stroke="black" points="1305,-351 1305,-392 1438,-392 1438,-351 1305,-351"/>
<text text-anchor="start" x="1313" y="-380" font-family="Helvetica,sans-Serif" font-size="10.00">stxxl::winner_tree</text>
<text text-anchor="start" x="1313" y="-369" font-family="Helvetica,sans-Serif" font-size="10.00">&lt; stxxl::parallel_priority</text>
<text text-anchor="middle" x="1371.5" y="-358" font-family="Helvetica,sans-Serif" font-size="10.00">_queue::hint_comparator &gt;</text>
</a>
</g>
</g>
<!-- Node6&#45;&gt;Node1 -->
<g id="edge7" class="edge"><title>Node6&#45;&gt;Node1</title>
<path fill="none" stroke="#9a32cd" stroke-dasharray="5,2" d="M1447.91,-392.402C1488.2,-406.713 1536.3,-429.228 1570,-462.5 1630.74,-522.469 1662.55,-622.21 1674.85,-669.323"/>
<polygon fill="#9a32cd" stroke="#9a32cd" points="1448.98,-389.068 1438.38,-389.117 1446.7,-395.685 1448.98,-389.068"/>
<text text-anchor="middle" x="1523" y="-465.5" font-family="Helvetica,sans-Serif" font-size="10.00"> m_hint_tree</text>
</g>
<!-- Node7&#45;&gt;Node1 -->
<g id="edge24" class="edge"><title>Node7&#45;&gt;Node1</title>
<path fill="none" stroke="#9a32cd" stroke-dasharray="5,2" d="M1091.4,-721.024C1225.82,-715.205 1458.6,-705.128 1587.81,-699.534"/>
<polygon fill="#9a32cd" stroke="#9a32cd" points="1090.94,-717.54 1081.1,-721.47 1091.24,-724.534 1090.94,-717.54"/>
<text text-anchor="middle" x="1371.5" y="-715.5" font-family="Helvetica,sans-Serif" font-size="10.00"> m_hint_comparator</text>
</g>
<!-- Node7&#45;&gt;Node6 -->
<g id="edge8" class="edge"><title>Node7&#45;&gt;Node6</title>
<path fill="none" stroke="#9a32cd" stroke-dasharray="5,2" d="M1047.25,-693.675C1064.61,-681.317 1081.68,-665.506 1092,-646.5 1117.84,-598.917 1072.65,-442.702 1110,-403.5 1113.36,-399.969 1228.8,-386.843 1304.86,-378.538"/>
<polygon fill="#9a32cd" stroke="#9a32cd" points="1045.04,-690.947 1038.74,-699.463 1048.98,-696.736 1045.04,-690.947"/>
<text text-anchor="middle" x="1188.5" y="-406.5" font-family="Helvetica,sans-Serif" font-size="10.00"> m_less</text>
</g>
<!-- Node8&#45;&gt;Node1 -->
<g id="edge25" class="edge"><title>Node8&#45;&gt;Node1</title>
<path fill="none" stroke="#9a32cd" stroke-dasharray="5,2" d="M760.162,-890.625C840.443,-896.322 976.595,-901.615 1092,-884.5 1260.14,-859.564 1295.75,-824.177 1458,-773.5 1507.91,-757.912 1520.64,-754.757 1570,-737.5 1584.2,-732.536 1599.32,-726.987 1613.7,-721.592"/>
<polygon fill="#9a32cd" stroke="#9a32cd" points="760.402,-887.133 750.173,-889.893 759.891,-894.115 760.402,-887.133"/>
<text text-anchor="middle" x="1188.5" y="-884.5" font-family="Helvetica,sans-Serif" font-size="10.00"> m_external_arrays</text>
</g>
<!-- Node8&#45;&gt;Node7 -->
<g id="edge10" class="edge"><title>Node8&#45;&gt;Node7</title>
<path fill="none" stroke="#9a32cd" stroke-dasharray="5,2" d="M759.75,-876.488C768.875,-872.817 777.355,-867.672 784,-860.5 814.99,-827.054 769.861,-791.844 802,-759.5 808.955,-752.501 850.755,-744.486 892.758,-737.998"/>
<polygon fill="#9a32cd" stroke="#9a32cd" points="758.386,-873.256 750.057,-879.804 760.651,-879.879 758.386,-873.256"/>
<text text-anchor="middle" x="833" y="-762.5" font-family="Helvetica,sans-Serif" font-size="10.00"> m_eas</text>
</g>
<!-- Node8&#45;&gt;Node18 -->
<g id="edge31" class="edge"><title>Node8&#45;&gt;Node18</title>
<path fill="none" stroke="#9a32cd" stroke-dasharray="5,2" d="M760.009,-867.137C768.114,-864.966 776.252,-862.725 784,-860.5 824.838,-848.77 869.945,-834.597 907.155,-822.573"/>
<polygon fill="#9a32cd" stroke="#9a32cd" points="758.938,-863.8 750.168,-869.745 760.731,-870.567 758.938,-863.8"/>
<text text-anchor="middle" x="833" y="-856.5" font-family="Helvetica,sans-Serif" font-size="10.00"> m_eas</text>
</g>
<!-- Node9 -->
<g id="node9" class="node"><title>Node9</title>
<g id="a_node9"><a xlink:href="structstxxl_1_1winner__tree_1_1stats__type.html" target="_top" xlink:title="Collection of stats from the winner_tree. ">
<polygon fill="none" stroke="black" points="621.5,-329.5 621.5,-359.5 758.5,-359.5 758.5,-329.5 621.5,-329.5"/>
<text text-anchor="start" x="629.5" y="-347.5" font-family="Helvetica,sans-Serif" font-size="10.00">stxxl::winner_tree</text>
<text text-anchor="middle" x="690" y="-336.5" font-family="Helvetica,sans-Serif" font-size="10.00">&lt; Comparator &gt;::stats_type</text>
</a>
</g>
</g>
<!-- Node9&#45;&gt;Node6 -->
<g id="edge13" class="edge"><title>Node9&#45;&gt;Node6</title>
<path fill="none" stroke="#9a32cd" stroke-dasharray="5,2" d="M761.128,-327.291C871.073,-303.334 1089.76,-267.922 1267,-315.5 1293.84,-322.704 1321.37,-338.058 1341.28,-350.87"/>
<polygon fill="#9a32cd" stroke="#9a32cd" points="760.161,-323.92 751.153,-329.499 761.673,-330.755 760.161,-323.92"/>
<text text-anchor="middle" x="987" y="-308.5" font-family="Helvetica,sans-Serif" font-size="10.00"> m_stats</text>
</g>
<!-- Node13 -->
<g id="node13" class="node"><title>Node13</title>
<g id="a_node13"><a xlink:href="classstxxl_1_1winner__tree.html" target="_top" xlink:title="The class winner_tree is a binary tournament tree. ">
<polygon fill="none" stroke="black" points="940,-374.5 940,-404.5 1034,-404.5 1034,-374.5 940,-374.5"/>
<text text-anchor="start" x="948" y="-392.5" font-family="Helvetica,sans-Serif" font-size="10.00">stxxl::winner_tree</text>
<text text-anchor="middle" x="987" y="-381.5" font-family="Helvetica,sans-Serif" font-size="10.00">&lt; Comparator &gt;</text>
</a>
</g>
</g>
<!-- Node9&#45;&gt;Node13 -->
<g id="edge18" class="edge"><title>Node9&#45;&gt;Node13</title>
<path fill="none" stroke="#9a32cd" stroke-dasharray="5,2" d="M768.639,-356.343C823.059,-364.645 893.977,-375.463 939.752,-382.445"/>
<polygon fill="#9a32cd" stroke="#9a32cd" points="769.092,-352.872 758.679,-354.824 768.037,-359.792 769.092,-352.872"/>
<text text-anchor="middle" x="833" y="-373.5" font-family="Helvetica,sans-Serif" font-size="10.00"> m_stats</text>
</g>
<!-- Node17 -->
<g id="node17" class="node"><title>Node17</title>
<g id="a_node17"><a xlink:href="classstxxl_1_1winner__tree.html" target="_top" xlink:title="stxxl::winner_tree\l\&lt; stxxl::parallel_priority\l_queue::external_min_comparator \&gt;">
<polygon fill="none" stroke="black" points="1285,-455 1285,-496 1458,-496 1458,-455 1285,-455"/>
<text text-anchor="start" x="1293" y="-484" font-family="Helvetica,sans-Serif" font-size="10.00">stxxl::winner_tree</text>
<text text-anchor="start" x="1293" y="-473" font-family="Helvetica,sans-Serif" font-size="10.00">&lt; stxxl::parallel_priority</text>
<text text-anchor="middle" x="1371.5" y="-462" font-family="Helvetica,sans-Serif" font-size="10.00">_queue::external_min_comparator &gt;</text>
</a>
</g>
</g>
<!-- Node9&#45;&gt;Node17 -->
<g id="edge27" class="edge"><title>Node9&#45;&gt;Node17</title>
<path fill="none" stroke="#9a32cd" stroke-dasharray="5,2" d="M768.564,-340.949C905.625,-336.013 1184.02,-332.397 1267,-379.5 1277.99,-385.736 1276.19,-392.444 1285,-401.5 1303.75,-420.779 1326.92,-440.617 1344.41,-454.893"/>
<polygon fill="#9a32cd" stroke="#9a32cd" points="768.409,-337.452 758.545,-341.321 768.669,-344.447 768.409,-337.452"/>
<text text-anchor="middle" x="987" y="-346.5" font-family="Helvetica,sans-Serif" font-size="10.00"> m_stats</text>
</g>
<!-- Node10 -->
<g id="node10" class="node"><title>Node10</title>
<g id="a_node10"><a xlink:href="classstxxl_1_1fake__timer.html" target="_top" xlink:title="Class fake_timer is a drop&#45;in replacement for timer, which does nothing. ">
<polygon fill="none" stroke="black" points="314,-244 314,-263 403,-263 403,-244 314,-244"/>
<text text-anchor="middle" x="358.5" y="-251" font-family="Helvetica,sans-Serif" font-size="10.00">stxxl::fake_timer</text>
</a>
</g>
</g>
<!-- Node10&#45;&gt;Node9 -->
<g id="edge14" class="edge"><title>Node10&#45;&gt;Node9</title>
<path fill="none" stroke="#9a32cd" stroke-dasharray="5,2" d="M373.081,-271.288C387.387,-288.523 411.611,-313.729 439,-325.5 496.987,-350.421 569.49,-353.206 621.461,-350.937"/>
<polygon fill="#9a32cd" stroke="#9a32cd" points="375.521,-268.736 366.54,-263.116 370.056,-273.11 375.521,-268.736"/>
<text text-anchor="middle" x="508.5" y="-376.5" font-family="Helvetica,sans-Serif" font-size="10.00"> remove_player_time</text>
<text text-anchor="middle" x="508.5" y="-365.5" font-family="Helvetica,sans-Serif" font-size="10.00">replay_time</text>
<text text-anchor="middle" x="508.5" y="-354.5" font-family="Helvetica,sans-Serif" font-size="10.00">double_num_slots_time</text>
</g>
<!-- Node14 -->
<g id="node14" class="node"><title>Node14</title>
<g id="a_node14"><a xlink:href="structstxxl_1_1parallel__priority__queue_1_1stats__type.html" target="_top" xlink:title="Struct of all statistical counters and timers. Turn on/off statistics using the stats_counter and sta...">
<polygon fill="none" stroke="black" points="596,-133.5 596,-185.5 784,-185.5 784,-133.5 596,-133.5"/>
<text text-anchor="start" x="604" y="-173.5" font-family="Helvetica,sans-Serif" font-size="10.00">stxxl::parallel_priority</text>
<text text-anchor="start" x="604" y="-162.5" font-family="Helvetica,sans-Serif" font-size="10.00">_queue&lt; ValueType, CompareType,</text>
<text text-anchor="start" x="604" y="-151.5" font-family="Helvetica,sans-Serif" font-size="10.00"> AllocStrategy, BlockSize, DefaultMem</text>
<text text-anchor="middle" x="690" y="-140.5" font-family="Helvetica,sans-Serif" font-size="10.00">Size, MaxItems &gt;::stats_type</text>
</a>
</g>
</g>
<!-- Node10&#45;&gt;Node14 -->
<g id="edge23" class="edge"><title>Node10&#45;&gt;Node14</title>
<path fill="none" stroke="#9a32cd" stroke-dasharray="5,2" d="M368.342,-234.745C380.519,-211.404 404.885,-172.649 439,-156.5 466.07,-143.686 536.603,-145.559 595.873,-150.008"/>
<polygon fill="#9a32cd" stroke="#9a32cd" points="365.071,-233.461 363.744,-243.972 371.337,-236.583 365.071,-233.461"/>
<text text-anchor="middle" x="508.5" y="-313.5" font-family="Helvetica,sans-Serif" font-size="10.00"> extract_min_time</text>
<text text-anchor="start" x="463.5" y="-302.5" font-family="Helvetica,sans-Serif" font-size="10.00">refill_time_after</text>
<text text-anchor="middle" x="508.5" y="-291.5" font-family="Helvetica,sans-Serif" font-size="10.00">_merge</text>
<text text-anchor="start" x="463.5" y="-280.5" font-family="Helvetica,sans-Serif" font-size="10.00">refill_time_before</text>
<text text-anchor="middle" x="508.5" y="-269.5" font-family="Helvetica,sans-Serif" font-size="10.00">_merge</text>
<text text-anchor="middle" x="508.5" y="-258.5" font-family="Helvetica,sans-Serif" font-size="10.00">pop_heap_time</text>
<text text-anchor="start" x="463.5" y="-247.5" font-family="Helvetica,sans-Serif" font-size="10.00">external_array</text>
<text text-anchor="middle" x="508.5" y="-236.5" font-family="Helvetica,sans-Serif" font-size="10.00">_merge_time</text>
<text text-anchor="middle" x="508.5" y="-225.5" font-family="Helvetica,sans-Serif" font-size="10.00">hint_time</text>
<text text-anchor="middle" x="508.5" y="-214.5" font-family="Helvetica,sans-Serif" font-size="10.00">refill_wait_time</text>
<text text-anchor="middle" x="508.5" y="-203.5" font-family="Helvetica,sans-Serif" font-size="10.00">refill_minmax_time</text>
<text text-anchor="middle" x="508.5" y="-192.5" font-family="Helvetica,sans-Serif" font-size="10.00">direct_flush_time</text>
<text text-anchor="start" x="463.5" y="-181.5" font-family="Helvetica,sans-Serif" font-size="10.00">insertion_heap_flush</text>
<text text-anchor="middle" x="508.5" y="-170.5" font-family="Helvetica,sans-Serif" font-size="10.00">_time</text>
<text text-anchor="middle" x="508.5" y="-159.5" font-family="Helvetica,sans-Serif" font-size="10.00">...</text>
</g>
<!-- Node11 -->
<g id="node11" class="node"><title>Node11</title>
<g id="a_node11"><a xlink:href="structstxxl_1_1choose__int__types.html" target="_top" xlink:title="stxxl::choose_int_types\l\&lt; my_pointer_size \&gt;">
<polygon fill="none" stroke="black" points="298.5,-460.5 298.5,-490.5 418.5,-490.5 418.5,-460.5 298.5,-460.5"/>
<text text-anchor="start" x="306.5" y="-478.5" font-family="Helvetica,sans-Serif" font-size="10.00">stxxl::choose_int_types</text>
<text text-anchor="middle" x="358.5" y="-467.5" font-family="Helvetica,sans-Serif" font-size="10.00">&lt; my_pointer_size &gt;</text>
</a>
</g>
</g>
<!-- Node11&#45;&gt;Node1 -->
<g id="edge33" class="edge"><title>Node11&#45;&gt;Node1</title>
<path fill="none" stroke="#9a32cd" stroke-dasharray="5,2" d="M429.039,-488.063C432.403,-488.571 435.737,-489.053 439,-489.5 727.92,-529.039 804.451,-504.988 1092,-553.5 1270.4,-583.598 1474.96,-637.353 1589.99,-669.389"/>
<polygon fill="#9a32cd" stroke="#9a32cd" points="429.317,-484.564 418.896,-486.472 428.233,-491.479 429.317,-484.564"/>
<text text-anchor="start" x="928.5" y="-666.5" font-family="Helvetica,sans-Serif" font-size="10.00"> c_max_external_level</text>
<text text-anchor="middle" x="987" y="-655.5" font-family="Helvetica,sans-Serif" font-size="10.00">_size</text>
<text text-anchor="middle" x="987" y="-644.5" font-family="Helvetica,sans-Serif" font-size="10.00">m_external_levels</text>
<text text-anchor="middle" x="987" y="-633.5" font-family="Helvetica,sans-Serif" font-size="10.00">m_num_read_blocks</text>
<text text-anchor="start" x="928.5" y="-622.5" font-family="Helvetica,sans-Serif" font-size="10.00">c_max_internal_level</text>
<text text-anchor="middle" x="987" y="-611.5" font-family="Helvetica,sans-Serif" font-size="10.00">_size</text>
<text text-anchor="middle" x="987" y="-600.5" font-family="Helvetica,sans-Serif" font-size="10.00">m_num_used_read_blocks</text>
<text text-anchor="middle" x="987" y="-589.5" font-family="Helvetica,sans-Serif" font-size="10.00">m_internal_levels</text>
<text text-anchor="start" x="928.5" y="-578.5" font-family="Helvetica,sans-Serif" font-size="10.00">m_bulk_first_delayed</text>
<text text-anchor="middle" x="987" y="-567.5" font-family="Helvetica,sans-Serif" font-size="10.00">_external_array</text>
<text text-anchor="middle" x="987" y="-556.5" font-family="Helvetica,sans-Serif" font-size="10.00">m_num_hinted_blocks</text>
</g>
<!-- Node11&#45;&gt;Node6 -->
<g id="edge15" class="edge"><title>Node11&#45;&gt;Node6</title>
<path fill="none" stroke="#9a32cd" stroke-dasharray="5,2" d="M428.556,-471.308C605.599,-460.339 1063.81,-430.471 1092,-413.5 1104.67,-405.869 1097.21,-392.935 1110,-385.5 1141.91,-366.949 1238.8,-366.346 1304.98,-368.356"/>
<polygon fill="#9a32cd" stroke="#9a32cd" points="428.333,-467.815 418.568,-471.925 428.765,-474.801 428.333,-467.815"/>
<text text-anchor="middle" x="833" y="-449.5" font-family="Helvetica,sans-Serif" font-size="10.00"> m_num_slots</text>
</g>
<!-- Node11&#45;&gt;Node13 -->
<g id="edge19" class="edge"><title>Node11&#45;&gt;Node13</title>
<path fill="none" stroke="#9a32cd" stroke-dasharray="5,2" d="M384.865,-454.078C399.668,-442.874 419.269,-430.139 439,-423.5 531.209,-392.472 825.155,-389.32 939.69,-389.307"/>
<polygon fill="#9a32cd" stroke="#9a32cd" points="382.455,-451.52 376.739,-460.441 386.771,-457.031 382.455,-451.52"/>
<text text-anchor="middle" x="690" y="-403.5" font-family="Helvetica,sans-Serif" font-size="10.00"> m_num_slots</text>
</g>
<!-- Node11&#45;&gt;Node17 -->
<g id="edge28" class="edge"><title>Node11&#45;&gt;Node17</title>
<path fill="none" stroke="#9a32cd" stroke-dasharray="5,2" d="M428.705,-475.5C608.185,-475.5 1088.29,-475.5 1284.83,-475.5"/>
<polygon fill="#9a32cd" stroke="#9a32cd" points="428.596,-472 418.596,-475.5 428.596,-479 428.596,-472"/>
<text text-anchor="middle" x="833" y="-478.5" font-family="Helvetica,sans-Serif" font-size="10.00"> m_num_slots</text>
</g>
<!-- Node11&#45;&gt;Node20 -->
<g id="edge39" class="edge"><title>Node11&#45;&gt;Node20</title>
<path fill="none" stroke="#9a32cd" stroke-dasharray="5,2" d="M376.4,-498.913C413.352,-549.378 505.304,-671.065 596,-760.5 618.892,-783.074 648.156,-805.807 667.684,-820.23"/>
<polygon fill="#9a32cd" stroke="#9a32cd" points="379.071,-496.635 370.351,-490.616 373.414,-500.758 379.071,-496.635"/>
<text text-anchor="middle" x="508.5" y="-742.5" font-family="Helvetica,sans-Serif" font-size="10.00"> free_blocks_size</text>
</g>
<!-- Node12 -->
<g id="node12" class="node"><title>Node12</title>
<g id="a_node12"><a xlink:href="structstxxl_1_1choose__int__types.html" target="_top" xlink:title="stxxl::choose_int_types\l\&lt; PtrSize \&gt;">
<polygon fill="none" stroke="black" points="17,-460.5 17,-490.5 137,-490.5 137,-460.5 17,-460.5"/>
<text text-anchor="start" x="25" y="-478.5" font-family="Helvetica,sans-Serif" font-size="10.00">stxxl::choose_int_types</text>
<text text-anchor="middle" x="77" y="-467.5" font-family="Helvetica,sans-Serif" font-size="10.00">&lt; PtrSize &gt;</text>
</a>
</g>
</g>
<!-- Node12&#45;&gt;Node11 -->
<g id="edge16" class="edge"><title>Node12&#45;&gt;Node11</title>
<path fill="none" stroke="orange" stroke-dasharray="5,2" d="M147.545,-475.5C193.923,-475.5 254.235,-475.5 298.311,-475.5"/>
<polygon fill="orange" stroke="orange" points="147.275,-472 137.275,-475.5 147.275,-479 147.275,-472"/>
<text text-anchor="middle" x="225" y="-478.5" font-family="Helvetica,sans-Serif" font-size="10.00"> &lt; my_pointer_size &gt;</text>
</g>
<!-- Node13&#45;&gt;Node6 -->
<g id="edge17" class="edge"><title>Node13&#45;&gt;Node6</title>
<path fill="none" stroke="orange" stroke-dasharray="5,2" d="M1044.21,-379.514C1060.56,-374.878 1077.82,-368.166 1092,-358.5 1102.73,-351.19 1098.33,-341.185 1110,-335.5 1180.18,-301.305 1272.84,-328.855 1326.63,-350.92"/>
<polygon fill="orange" stroke="orange" points="1042.97,-376.221 1034.19,-382.141 1044.75,-382.992 1042.97,-376.221"/>
<text text-anchor="start" x="1130" y="-349.5" font-family="Helvetica,sans-Serif" font-size="10.00"> &lt; stxxl::parallel_priority</text>
<text text-anchor="middle" x="1188.5" y="-338.5" font-family="Helvetica,sans-Serif" font-size="10.00">_queue::hint_comparator &gt;</text>
</g>
<!-- Node13&#45;&gt;Node17 -->
<g id="edge32" class="edge"><title>Node13&#45;&gt;Node17</title>
<path fill="none" stroke="orange" stroke-dasharray="5,2" d="M1044.07,-402.799C1064.73,-407.464 1088.36,-412.526 1110,-416.5 1179.36,-429.239 1198.5,-422.73 1267,-439.5 1283.72,-443.594 1301.56,-449.293 1317.63,-454.95"/>
<polygon fill="orange" stroke="orange" points="1044.71,-399.357 1034.19,-400.548 1043.16,-406.182 1044.71,-399.357"/>
<text text-anchor="start" x="1110" y="-453.5" font-family="Helvetica,sans-Serif" font-size="10.00"> &lt; stxxl::parallel_priority</text>
<text text-anchor="middle" x="1188.5" y="-442.5" font-family="Helvetica,sans-Serif" font-size="10.00">_queue::external_min_comparator &gt;</text>
</g>
<!-- Node14&#45;&gt;Node1 -->
<g id="edge20" class="edge"><title>Node14&#45;&gt;Node1</title>
<path fill="none" stroke="#9a32cd" stroke-dasharray="5,2" d="M794.188,-154.453C980.335,-151.521 1371.4,-174.735 1570,-402.5 1640.6,-483.473 1668.33,-613.897 1677.32,-669.277"/>
<polygon fill="#9a32cd" stroke="#9a32cd" points="794.057,-150.955 784.124,-154.641 794.187,-157.954 794.057,-150.955"/>
<text text-anchor="middle" x="1188.5" y="-218.5" font-family="Helvetica,sans-Serif" font-size="10.00"> m_stats</text>
</g>
<!-- Node15 -->
<g id="node15" class="node"><title>Node15</title>
<g id="a_node15"><a xlink:href="classstxxl_1_1dummy__custom__stats__counter.html" target="_top" xlink:title="stxxl::dummy_custom\l_stats_counter\&lt; uint64 \&gt;">
<polygon fill="none" stroke="black" points="296,-0.5 296,-30.5 421,-30.5 421,-0.5 296,-0.5"/>
<text text-anchor="start" x="304" y="-18.5" font-family="Helvetica,sans-Serif" font-size="10.00">stxxl::dummy_custom</text>
<text text-anchor="middle" x="358.5" y="-7.5" font-family="Helvetica,sans-Serif" font-size="10.00">_stats_counter&lt; uint64 &gt;</text>
</a>
</g>
</g>
<!-- Node15&#45;&gt;Node14 -->
<g id="edge21" class="edge"><title>Node15&#45;&gt;Node14</title>
<path fill="none" stroke="#9a32cd" stroke-dasharray="5,2" d="M431.377,-3.21412C475.867,0.959334 532.904,-0.104177 578,-22.5 625.568,-46.1234 659.644,-100.653 676.667,-133.346"/>
<polygon fill="#9a32cd" stroke="#9a32cd" points="430.802,0.244878 421.221,-4.27711 431.531,-6.7171 430.802,0.244878"/>
<text text-anchor="middle" x="508.5" y="-135.5" font-family="Helvetica,sans-Serif" font-size="10.00"> max_num_internal_arrays</text>
<text text-anchor="middle" x="508.5" y="-124.5" font-family="Helvetica,sans-Serif" font-size="10.00">num_internal_array_flushes</text>
<text text-anchor="middle" x="508.5" y="-113.5" font-family="Helvetica,sans-Serif" font-size="10.00">max_num_new_external_arrays</text>
<text text-anchor="middle" x="508.5" y="-102.5" font-family="Helvetica,sans-Serif" font-size="10.00">num_new_internal_arrays</text>
<text text-anchor="middle" x="508.5" y="-91.5" font-family="Helvetica,sans-Serif" font-size="10.00">num_extracts</text>
<text text-anchor="middle" x="508.5" y="-80.5" font-family="Helvetica,sans-Serif" font-size="10.00">num_extract_buffer_refills</text>
<text text-anchor="middle" x="508.5" y="-69.5" font-family="Helvetica,sans-Serif" font-size="10.00">max_num_new_internal_arrays</text>
<text text-anchor="middle" x="508.5" y="-58.5" font-family="Helvetica,sans-Serif" font-size="10.00">num_insertion_heap_flushes</text>
<text text-anchor="middle" x="508.5" y="-47.5" font-family="Helvetica,sans-Serif" font-size="10.00">max_merge_buffer_size</text>
<text text-anchor="middle" x="508.5" y="-36.5" font-family="Helvetica,sans-Serif" font-size="10.00">max_num_external_arrays</text>
<text text-anchor="middle" x="508.5" y="-25.5" font-family="Helvetica,sans-Serif" font-size="10.00">...</text>
</g>
<!-- Node16 -->
<g id="node16" class="node"><title>Node16</title>
<g id="a_node16"><a xlink:href="classstxxl_1_1dummy__custom__stats__counter.html" target="_top" xlink:title="Dummy class for custom_stats_counter. ">
<polygon fill="none" stroke="black" points="4,-0.5 4,-30.5 150,-30.5 150,-0.5 4,-0.5"/>
<text text-anchor="start" x="12" y="-18.5" font-family="Helvetica,sans-Serif" font-size="10.00">stxxl::dummy_custom</text>
<text text-anchor="middle" x="77" y="-7.5" font-family="Helvetica,sans-Serif" font-size="10.00">_stats_counter&lt; ValueType &gt;</text>
</a>
</g>
</g>
<!-- Node16&#45;&gt;Node15 -->
<g id="edge22" class="edge"><title>Node16&#45;&gt;Node15</title>
<path fill="none" stroke="orange" stroke-dasharray="5,2" d="M160.582,-15.5C203.918,-15.5 256.116,-15.5 295.879,-15.5"/>
<polygon fill="orange" stroke="orange" points="160.342,-12.0001 150.342,-15.5 160.342,-19.0001 160.342,-12.0001"/>
<text text-anchor="middle" x="225" y="-18.5" font-family="Helvetica,sans-Serif" font-size="10.00"> &lt; uint64 &gt;</text>
</g>
<!-- Node17&#45;&gt;Node1 -->
<g id="edge26" class="edge"><title>Node17&#45;&gt;Node1</title>
<path fill="none" stroke="#9a32cd" stroke-dasharray="5,2" d="M1468.31,-475.701C1502.83,-479.78 1540.5,-489.247 1570,-509.5 1627.2,-548.768 1659.61,-628.046 1673.25,-669.266"/>
<polygon fill="#9a32cd" stroke="#9a32cd" points="1468.5,-472.202 1458.19,-474.645 1467.77,-479.164 1468.5,-472.202"/>
<text text-anchor="middle" x="1523" y="-512.5" font-family="Helvetica,sans-Serif" font-size="10.00"> m_external_min_tree</text>
</g>
<!-- Node18&#45;&gt;Node1 -->
<g id="edge34" class="edge"><title>Node18&#45;&gt;Node1</title>
<path fill="none" stroke="#9a32cd" stroke-dasharray="5,2" d="M1102.15,-782.536C1219.68,-767.753 1408,-742.941 1570,-716.5 1575.81,-715.552 1581.78,-714.538 1587.79,-713.486"/>
<polygon fill="#9a32cd" stroke="#9a32cd" points="1101.54,-779.085 1092.06,-783.803 1102.41,-786.03 1101.54,-779.085"/>
<text text-anchor="middle" x="1371.5" y="-761.5" font-family="Helvetica,sans-Serif" font-size="10.00"> m_external_min_comparator</text>
</g>
<!-- Node18&#45;&gt;Node17 -->
<g id="edge29" class="edge"><title>Node18&#45;&gt;Node17</title>
<path fill="none" stroke="#9a32cd" stroke-dasharray="5,2" d="M1089.34,-763.516C1090.26,-762.54 1091.14,-761.535 1092,-760.5 1127.23,-717.94 1079.73,-683.717 1110,-637.5 1157.13,-565.549 1248.47,-519.907 1309.48,-496.014"/>
<polygon fill="#9a32cd" stroke="#9a32cd" points="1086.78,-761.112 1081.78,-770.451 1091.51,-766.271 1086.78,-761.112"/>
<text text-anchor="middle" x="1188.5" y="-640.5" font-family="Helvetica,sans-Serif" font-size="10.00"> m_less</text>
</g>
<!-- Node19&#45;&gt;Node1 -->
<g id="edge35" class="edge"><title>Node19&#45;&gt;Node1</title>
<path fill="none" stroke="#9a32cd" stroke-dasharray="5,2" d="M1437.63,-932.36C1479.01,-922.655 1531.78,-905.148 1570,-874.5 1621.78,-832.979 1655.93,-760.358 1671.42,-721.606"/>
<polygon fill="#9a32cd" stroke="#9a32cd" points="1436.63,-928.997 1427.64,-934.605 1438.17,-935.827 1436.63,-928.997"/>
<text text-anchor="middle" x="1523" y="-923.5" font-family="Helvetica,sans-Serif" font-size="10.00"> m_pool</text>
</g>
<!-- Node20&#45;&gt;Node19 -->
<g id="edge37" class="edge"><title>Node20&#45;&gt;Node19</title>
<path fill="none" stroke="#9a32cd" stroke-dasharray="5,2" d="M751.468,-845.111C882.215,-865.892 1189.56,-914.741 1315.35,-934.735"/>
<polygon fill="#9a32cd" stroke="#9a32cd" points="751.667,-841.599 741.241,-843.485 750.568,-848.512 751.667,-841.599"/>
<text text-anchor="middle" x="987" y="-900.5" font-family="Helvetica,sans-Serif" font-size="10.00"> p_pool</text>
</g>
<!-- Node20&#45;&gt;Node24 -->
<g id="edge46" class="edge"><title>Node20&#45;&gt;Node24</title>
<path fill="none" stroke="#9a32cd" stroke-dasharray="5,2" d="M751.16,-848.234C762.339,-851.555 773.724,-855.611 784,-860.5 792.911,-864.739 793.314,-868.817 802,-873.5 845.32,-896.858 898.124,-916.087 936.036,-928.441"/>
<polygon fill="#9a32cd" stroke="#9a32cd" points="751.996,-844.834 741.422,-845.503 750.105,-851.573 751.996,-844.834"/>
<text text-anchor="middle" x="833" y="-903.5" font-family="Helvetica,sans-Serif" font-size="10.00"> p_pool</text>
</g>
<!-- Node21 -->
<g id="node21" class="node"><title>Node21</title>
<g id="a_node21"><a xlink:href="structstxxl_1_1compat__hash__map.html" target="_top" xlink:title="stxxl::compat_hash\l_map\&lt; bid_type, busy\l_entry, bid_hash \&gt;">
<polygon fill="none" stroke="black" points="302,-777 302,-818 415,-818 415,-777 302,-777"/>
<text text-anchor="start" x="310" y="-806" font-family="Helvetica,sans-Serif" font-size="10.00">stxxl::compat_hash</text>
<text text-anchor="start" x="310" y="-795" font-family="Helvetica,sans-Serif" font-size="10.00">_map&lt; bid_type, busy</text>
<text text-anchor="middle" x="358.5" y="-784" font-family="Helvetica,sans-Serif" font-size="10.00">_entry, bid_hash &gt;</text>
</a>
</g>
</g>
<!-- Node21&#45;&gt;Node20 -->
<g id="edge40" class="edge"><title>Node21&#45;&gt;Node20</title>
<path fill="none" stroke="#9a32cd" stroke-dasharray="5,2" d="M425.348,-804.454C468.73,-809.104 526.774,-815.457 578,-821.5 597.868,-823.844 619.718,-826.568 638.738,-828.987"/>
<polygon fill="#9a32cd" stroke="#9a32cd" points="425.524,-800.953 415.208,-803.37 424.779,-807.913 425.524,-800.953"/>
<text text-anchor="middle" x="508.5" y="-824.5" font-family="Helvetica,sans-Serif" font-size="10.00"> busy_blocks</text>
</g>
<!-- Node22 -->
<g id="node22" class="node"><title>Node22</title>
<g id="a_node22"><a xlink:href="structstxxl_1_1compat__hash__map.html" target="_top" xlink:title="stxxl::compat_hash\l_map\&lt; KeyType, MappedType,\l HashType \&gt;">
<polygon fill="none" stroke="black" points="0,-777 0,-818 154,-818 154,-777 0,-777"/>
<text text-anchor="start" x="8" y="-806" font-family="Helvetica,sans-Serif" font-size="10.00">stxxl::compat_hash</text>
<text text-anchor="start" x="8" y="-795" font-family="Helvetica,sans-Serif" font-size="10.00">_map&lt; KeyType, MappedType,</text>
<text text-anchor="middle" x="77" y="-784" font-family="Helvetica,sans-Serif" font-size="10.00"> HashType &gt;</text>
</a>
</g>
</g>
<!-- Node22&#45;&gt;Node21 -->
<g id="edge41" class="edge"><title>Node22&#45;&gt;Node21</title>
<path fill="none" stroke="orange" stroke-dasharray="5,2" d="M164.029,-797.5C208.912,-797.5 262.514,-797.5 301.904,-797.5"/>
<polygon fill="orange" stroke="orange" points="164.005,-794 154.005,-797.5 164.005,-801 164.005,-794"/>
<text text-anchor="start" x="172" y="-811.5" font-family="Helvetica,sans-Serif" font-size="10.00"> &lt; bid_type, busy_entry,</text>
<text text-anchor="middle" x="225" y="-800.5" font-family="Helvetica,sans-Serif" font-size="10.00"> bid_hash &gt;</text>
</g>
<!-- Node23&#45;&gt;Node19 -->
<g id="edge42" class="edge"><title>Node23&#45;&gt;Node19</title>
<path fill="none" stroke="#9a32cd" stroke-dasharray="5,2" d="M747.437,-989.262C781.258,-988.935 825.108,-988.187 864,-986.5 1043.37,-978.719 1088.48,-977.611 1267,-958.5 1282.71,-956.819 1299.69,-954.548 1315.27,-952.282"/>
<polygon fill="#9a32cd" stroke="#9a32cd" points="747.249,-985.763 737.279,-989.351 747.31,-992.763 747.249,-985.763"/>
<text text-anchor="middle" x="987" y="-987.5" font-family="Helvetica,sans-Serif" font-size="10.00"> w_pool</text>
</g>
<!-- Node23&#45;&gt;Node24 -->
<g id="edge47" class="edge"><title>Node23&#45;&gt;Node24</title>
<path fill="none" stroke="#9a32cd" stroke-dasharray="5,2" d="M747.296,-980.722C800.094,-972.489 878.554,-960.254 930.945,-952.085"/>
<polygon fill="#9a32cd" stroke="#9a32cd" points="746.435,-977.314 737.094,-982.312 747.514,-984.23 746.435,-977.314"/>
<text text-anchor="middle" x="833" y="-974.5" font-family="Helvetica,sans-Serif" font-size="10.00"> w_pool</text>
</g>
<!-- Node24&#45;&gt;Node19 -->
<g id="edge44" class="edge"><title>Node24&#45;&gt;Node19</title>
<path fill="none" stroke="orange" stroke-dasharray="5,2" d="M1053.32,-943.5C1127.12,-943.5 1245.96,-943.5 1315.31,-943.5"/>
<polygon fill="orange" stroke="orange" points="1053.21,-940 1043.21,-943.5 1053.21,-947 1053.21,-940"/>
<text text-anchor="middle" x="1188.5" y="-946.5" font-family="Helvetica,sans-Serif" font-size="10.00"> &lt; block_type &gt;</text>
</g>
<!-- Node25 -->
<g id="node25" class="node"><title>Node25</title>
<g id="a_node25"><a xlink:href="structstxxl_1_1random__number32__r.html" target="_top" xlink:title="Fast uniform [0, 2^32) pseudo&#45;random generator with period 2^32, random bits: 32. Reentrant variant o...">
<polygon fill="none" stroke="black" points="1305.5,-183 1305.5,-202 1437.5,-202 1437.5,-183 1305.5,-183"/>
<text text-anchor="middle" x="1371.5" y="-190" font-family="Helvetica,sans-Serif" font-size="10.00">stxxl::random_number32_r</text>
</a>
</g>
</g>
<!-- Node25&#45;&gt;Node1 -->
<g id="edge48" class="edge"><title>Node25&#45;&gt;Node1</title>
<path fill="none" stroke="#9a32cd" stroke-dasharray="5,2" d="M1419.65,-181.145C1463.78,-173.521 1528.91,-170.406 1570,-205.5 1642.05,-267.035 1671.75,-577.016 1679.09,-669.448"/>
<polygon fill="#9a32cd" stroke="#9a32cd" points="1418.93,-177.719 1409.74,-182.993 1420.21,-184.601 1418.93,-177.719"/>
<text text-anchor="middle" x="1523" y="-208.5" font-family="Helvetica,sans-Serif" font-size="10.00"> m_rng</text>
</g>
</g>
</svg>
