<?xml version="1.0" encoding="UTF-8" standalone="no"?>
<!DOCTYPE svg PUBLIC "-//W3C//DTD SVG 1.1//EN"
 "http://www.w3.org/Graphics/SVG/1.1/DTD/svg11.dtd">
<!-- Generated by graphviz version 2.38.0 (20140413.2041)
 -->
<!-- Title: stxxl::buf_ostream&lt; BlockType, BidIteratorType &gt; Pages: 1 -->
<svg width="810pt" height="176pt"
 viewBox="0.00 0.00 810.00 176.14" xmlns="http://www.w3.org/2000/svg" xmlns:xlink="http://www.w3.org/1999/xlink">
<g id="graph0" class="graph" transform="scale(1 1) rotate(0) translate(4 172.136)">
<title>stxxl::buf_ostream&lt; BlockType, BidIteratorType &gt;</title>
<!-- Node1 -->
<g id="node1" class="node"><title>Node1</title>
<polygon fill="#bfbfbf" stroke="black" points="648,-97.5 648,-127.5 802,-127.5 802,-97.5 648,-97.5"/>
<text text-anchor="start" x="656" y="-115.5" font-family="Helvetica,sans-Serif" font-size="10.00">stxxl::buf_ostream</text>
<text text-anchor="middle" x="725" y="-104.5" font-family="Helvetica,sans-Serif" font-size="10.00">&lt; BlockType, BidIteratorType &gt;</text>
</g>
<!-- Node2 -->
<g id="node2" class="node"><title>Node2</title>
<g id="a_node2"><a xlink:href="classstxxl_1_1noncopyable.html" target="_top" xlink:title="stxxl::noncopyable">
<polygon fill="none" stroke="black" points="0,-147 0,-166 98,-166 98,-147 0,-147"/>
<text text-anchor="middle" x="49" y="-154" font-family="Helvetica,sans-Serif" font-size="10.00">stxxl::noncopyable</text>
</a>
</g>
</g>
<!-- Node2&#45;&gt;Node1 -->
<g id="edge1" class="edge"><title>Node2&#45;&gt;Node1</title>
<path fill="none" stroke="#8b1a1a" d="M108.293,-165.816C110.894,-166.079 113.472,-166.31 116,-166.5 137.716,-168.136 143.229,-167.052 165,-166.5 337.461,-162.129 380.407,-154.322 552,-136.5 586.71,-132.895 595.428,-132.251 630,-127.5 635.812,-126.701 641.82,-125.836 647.857,-124.937"/>
<polygon fill="#8b1a1a" stroke="#8b1a1a" points="108.539,-162.321 98.2059,-164.659 107.742,-169.275 108.539,-162.321"/>
</g>
<!-- Node5 -->
<g id="node5" class="node"><title>Node5</title>
<g id="a_node5"><a xlink:href="classstxxl_1_1buffered__writer.html" target="_top" xlink:title="stxxl::buffered_writer\l\&lt; block_type \&gt;">
<polygon fill="none" stroke="black" points="438,-97.5 438,-127.5 546,-127.5 546,-97.5 438,-97.5"/>
<text text-anchor="start" x="446" y="-115.5" font-family="Helvetica,sans-Serif" font-size="10.00">stxxl::buffered_writer</text>
<text text-anchor="middle" x="492" y="-104.5" font-family="Helvetica,sans-Serif" font-size="10.00">&lt; block_type &gt;</text>
</a>
</g>
</g>
<!-- Node2&#45;&gt;Node5 -->
<g id="edge5" class="edge"><title>Node2&#45;&gt;Node5</title>
<path fill="none" stroke="#8b1a1a" d="M108.413,-153.906C180.498,-150.232 306.701,-142.254 414,-127.5 421.691,-126.442 429.774,-125.112 437.694,-123.683"/>
<polygon fill="#8b1a1a" stroke="#8b1a1a" points="107.991,-150.423 98.1786,-154.417 108.341,-157.414 107.991,-150.423"/>
</g>
<!-- Node7 -->
<g id="node7" class="node"><title>Node7</title>
<g id="a_node7"><a xlink:href="classstxxl_1_1buffered__writer.html" target="_top" xlink:title="Encapsulates asynchronous buffered block writing engine. ">
<polygon fill="none" stroke="black" points="189,-97.5 189,-127.5 297,-127.5 297,-97.5 189,-97.5"/>
<text text-anchor="start" x="197" y="-115.5" font-family="Helvetica,sans-Serif" font-size="10.00">stxxl::buffered_writer</text>
<text text-anchor="middle" x="243" y="-104.5" font-family="Helvetica,sans-Serif" font-size="10.00">&lt; BlockType &gt;</text>
</a>
</g>
</g>
<!-- Node2&#45;&gt;Node7 -->
<g id="edge8" class="edge"><title>Node2&#45;&gt;Node7</title>
<path fill="none" stroke="#8b1a1a" d="M101.673,-144.658C128.621,-138.483 161.54,-130.939 188.721,-124.71"/>
<polygon fill="#8b1a1a" stroke="#8b1a1a" points="100.627,-141.307 91.6611,-146.953 102.19,-148.13 100.627,-141.307"/>
</g>
<!-- Node3 -->
<g id="node3" class="node"><title>Node3</title>
<g id="a_node3"><a xlink:href="structstxxl_1_1choose__int__types.html" target="_top" xlink:title="stxxl::choose_int_types\l\&lt; my_pointer_size \&gt;">
<polygon fill="none" stroke="black" points="432,-24.5 432,-54.5 552,-54.5 552,-24.5 432,-24.5"/>
<text text-anchor="start" x="440" y="-42.5" font-family="Helvetica,sans-Serif" font-size="10.00">stxxl::choose_int_types</text>
<text text-anchor="middle" x="492" y="-31.5" font-family="Helvetica,sans-Serif" font-size="10.00">&lt; my_pointer_size &gt;</text>
</a>
</g>
</g>
<!-- Node3&#45;&gt;Node1 -->
<g id="edge2" class="edge"><title>Node3&#45;&gt;Node1</title>
<path fill="none" stroke="#9a32cd" stroke-dasharray="5,2" d="M550.19,-57.5729C589.049,-69.8532 639.846,-85.9058 676.478,-97.4824"/>
<polygon fill="#9a32cd" stroke="#9a32cd" points="551.173,-54.2132 540.583,-54.5371 549.064,-60.8878 551.173,-54.2132"/>
<text text-anchor="middle" x="600" y="-86.5" font-family="Helvetica,sans-Serif" font-size="10.00"> current_elem</text>
</g>
<!-- Node4 -->
<g id="node4" class="node"><title>Node4</title>
<g id="a_node4"><a xlink:href="structstxxl_1_1choose__int__types.html" target="_top" xlink:title="stxxl::choose_int_types\l\&lt; PtrSize \&gt;">
<polygon fill="none" stroke="black" points="183,-0.5 183,-30.5 303,-30.5 303,-0.5 183,-0.5"/>
<text text-anchor="start" x="191" y="-18.5" font-family="Helvetica,sans-Serif" font-size="10.00">stxxl::choose_int_types</text>
<text text-anchor="middle" x="243" y="-7.5" font-family="Helvetica,sans-Serif" font-size="10.00">&lt; PtrSize &gt;</text>
</a>
</g>
</g>
<!-- Node4&#45;&gt;Node3 -->
<g id="edge3" class="edge"><title>Node4&#45;&gt;Node3</title>
<path fill="none" stroke="orange" stroke-dasharray="5,2" d="M313.455,-22.2487C350.772,-25.8746 396.289,-30.2973 431.893,-33.7568"/>
<polygon fill="orange" stroke="orange" points="313.454,-18.7322 303.163,-21.2486 312.777,-25.6994 313.454,-18.7322"/>
<text text-anchor="middle" x="367.5" y="-35.5" font-family="Helvetica,sans-Serif" font-size="10.00"> &lt; my_pointer_size &gt;</text>
</g>
<!-- Node5&#45;&gt;Node1 -->
<g id="edge4" class="edge"><title>Node5&#45;&gt;Node1</title>
<path fill="none" stroke="#9a32cd" stroke-dasharray="5,2" d="M556.438,-112.5C584.686,-112.5 618.188,-112.5 647.783,-112.5"/>
<polygon fill="#9a32cd" stroke="#9a32cd" points="556.286,-109 546.286,-112.5 556.286,-116 556.286,-109"/>
<text text-anchor="middle" x="600" y="-115.5" font-family="Helvetica,sans-Serif" font-size="10.00"> writer</text>
</g>
<!-- Node6 -->
<g id="node6" class="node"><title>Node6</title>
<g id="a_node6"><a xlink:href="classstxxl_1_1counting__ptr.html" target="_top" xlink:title="High&#45;performance smart pointer used as a wrapping reference counting pointer. ">
<polygon fill="none" stroke="black" points="0.5,-70.5 0.5,-100.5 97.5,-100.5 97.5,-70.5 0.5,-70.5"/>
<text text-anchor="start" x="8.5" y="-88.5" font-family="Helvetica,sans-Serif" font-size="10.00">stxxl::counting_ptr</text>
<text text-anchor="middle" x="49" y="-77.5" font-family="Helvetica,sans-Serif" font-size="10.00">&lt; Type &gt;</text>
</a>
</g>
</g>
<!-- Node6&#45;&gt;Node5 -->
<g id="edge6" class="edge"><title>Node6&#45;&gt;Node5</title>
<path fill="none" stroke="#9a32cd" stroke-dasharray="5,2" d="M107.757,-80.7386C131.104,-79.0366 158.318,-77.3341 183,-76.5 236.303,-74.6986 249.905,-71.4622 303,-76.5 348.986,-80.8633 400.459,-91.1016 437.904,-99.5488"/>
<polygon fill="#9a32cd" stroke="#9a32cd" points="107.379,-77.257 97.6675,-81.4914 107.9,-84.2376 107.379,-77.257"/>
<text text-anchor="middle" x="243" y="-79.5" font-family="Helvetica,sans-Serif" font-size="10.00"> write_reqs</text>
</g>
<!-- Node6&#45;&gt;Node7 -->
<g id="edge9" class="edge"><title>Node6&#45;&gt;Node7</title>
<path fill="none" stroke="#9a32cd" stroke-dasharray="5,2" d="M107.951,-93.6494C133.686,-97.2684 163.774,-101.499 188.917,-105.035"/>
<polygon fill="#9a32cd" stroke="#9a32cd" points="108.344,-90.1703 97.9544,-92.2436 107.37,-97.1021 108.344,-90.1703"/>
<text text-anchor="middle" x="140.5" y="-104.5" font-family="Helvetica,sans-Serif" font-size="10.00"> write_reqs</text>
</g>
<!-- Node7&#45;&gt;Node5 -->
<g id="edge7" class="edge"><title>Node7&#45;&gt;Node5</title>
<path fill="none" stroke="orange" stroke-dasharray="5,2" d="M307.306,-112.5C347.721,-112.5 399.52,-112.5 437.804,-112.5"/>
<polygon fill="orange" stroke="orange" points="307.291,-109 297.291,-112.5 307.291,-116 307.291,-109"/>
<text text-anchor="middle" x="367.5" y="-115.5" font-family="Helvetica,sans-Serif" font-size="10.00"> &lt; block_type &gt;</text>
</g>
</g>
</svg>
