<?xml version="1.0" encoding="UTF-8" standalone="no"?>
<!DOCTYPE svg PUBLIC "-//W3C//DTD SVG 1.1//EN"
 "http://www.w3.org/Graphics/SVG/1.1/DTD/svg11.dtd">
<!-- Generated by graphviz version 2.38.0 (20140413.2041)
 -->
<!-- Title: stxxl::block_scheduler&lt; SwappableBlockType &gt; Pages: 1 -->
<svg width="1450pt" height="327pt"
 viewBox="0.00 0.00 1450.00 326.50" xmlns="http://www.w3.org/2000/svg" xmlns:xlink="http://www.w3.org/1999/xlink">
<g id="graph0" class="graph" transform="scale(1 1) rotate(0) translate(4 322.5)">
<title>stxxl::block_scheduler&lt; SwappableBlockType &gt;</title>
<!-- Node1 -->
<g id="node1" class="node"><title>Node1</title>
<polygon fill="#bfbfbf" stroke="black" points="1313,-148.5 1313,-178.5 1442,-178.5 1442,-148.5 1313,-148.5"/>
<text text-anchor="start" x="1321" y="-166.5" font-family="Helvetica,sans-Serif" font-size="10.00">stxxl::block_scheduler</text>
<text text-anchor="middle" x="1377.5" y="-155.5" font-family="Helvetica,sans-Serif" font-size="10.00">&lt; SwappableBlockType &gt;</text>
</g>
<!-- Node2 -->
<g id="node2" class="node"><title>Node2</title>
<g id="a_node2"><a xlink:href="classstxxl_1_1noncopyable.html" target="_top" xlink:title="stxxl::noncopyable">
<polygon fill="none" stroke="black" points="11,-200 11,-219 109,-219 109,-200 11,-200"/>
<text text-anchor="middle" x="60" y="-207" font-family="Helvetica,sans-Serif" font-size="10.00">stxxl::noncopyable</text>
</a>
</g>
</g>
<!-- Node2&#45;&gt;Node1 -->
<g id="edge1" class="edge"><title>Node2&#45;&gt;Node1</title>
<path fill="none" stroke="#8b1a1a" d="M80.5655,-225.477C95.5417,-237.065 117.11,-252.412 138,-262.5 214.592,-299.489 235.944,-318.5 321,-318.5 321,-318.5 321,-318.5 1206,-318.5 1288.61,-318.5 1348.89,-217.646 1369.11,-178.644"/>
<polygon fill="#8b1a1a" stroke="#8b1a1a" points="82.5812,-222.609 72.5645,-219.157 78.2423,-228.102 82.5812,-222.609"/>
</g>
<!-- Node4 -->
<g id="node4" class="node"><title>Node4</title>
<g id="a_node4"><a xlink:href="classstxxl_1_1singleton.html" target="_top" xlink:title="stxxl::singleton\&lt; block\l_manager \&gt;">
<polygon fill="none" stroke="black" points="550,-221.5 550,-251.5 665,-251.5 665,-221.5 550,-221.5"/>
<text text-anchor="start" x="558" y="-239.5" font-family="Helvetica,sans-Serif" font-size="10.00">stxxl::singleton&lt; block</text>
<text text-anchor="middle" x="607.5" y="-228.5" font-family="Helvetica,sans-Serif" font-size="10.00">_manager &gt;</text>
</a>
</g>
</g>
<!-- Node2&#45;&gt;Node4 -->
<g id="edge4" class="edge"><title>Node2&#45;&gt;Node4</title>
<path fill="none" stroke="#8b1a1a" d="M94.0005,-222.688C107.497,-227.769 123.355,-233.343 138,-237.5 186.467,-251.256 198.881,-255.362 249,-260.5 374.185,-273.333 407.256,-268.081 532,-251.5 537.755,-250.735 543.732,-249.79 549.685,-248.749"/>
<polygon fill="#8b1a1a" stroke="#8b1a1a" points="95.2314,-219.411 84.6411,-219.103 92.7275,-225.948 95.2314,-219.411"/>
</g>
<!-- Node5 -->
<g id="node5" class="node"><title>Node5</title>
<g id="a_node5"><a xlink:href="classstxxl_1_1singleton.html" target="_top" xlink:title="stxxl::singleton\&lt; INSTANCE,\l destroy_on_exit \&gt;">
<polygon fill="none" stroke="black" points="249,-221.5 249,-251.5 395,-251.5 395,-221.5 249,-221.5"/>
<text text-anchor="start" x="257" y="-239.5" font-family="Helvetica,sans-Serif" font-size="10.00">stxxl::singleton&lt; INSTANCE,</text>
<text text-anchor="middle" x="322" y="-228.5" font-family="Helvetica,sans-Serif" font-size="10.00"> destroy_on_exit &gt;</text>
</a>
</g>
</g>
<!-- Node2&#45;&gt;Node5 -->
<g id="edge6" class="edge"><title>Node2&#45;&gt;Node5</title>
<path fill="none" stroke="#8b1a1a" d="M119.265,-215.551C157.598,-219.531 208.044,-224.77 248.901,-229.013"/>
<polygon fill="#8b1a1a" stroke="#8b1a1a" points="119.603,-212.067 109.295,-214.515 118.88,-219.029 119.603,-212.067"/>
</g>
<!-- Node6 -->
<g id="node6" class="node"><title>Node6</title>
<g id="a_node6"><a xlink:href="classstxxl_1_1file.html" target="_top" xlink:title="Defines interface of file. ">
<polygon fill="none" stroke="black" points="767,-147 767,-166 823,-166 823,-147 767,-147"/>
<text text-anchor="middle" x="795" y="-154" font-family="Helvetica,sans-Serif" font-size="10.00">stxxl::file</text>
</a>
</g>
</g>
<!-- Node2&#45;&gt;Node6 -->
<g id="edge8" class="edge"><title>Node2&#45;&gt;Node6</title>
<path fill="none" stroke="#8b1a1a" d="M119.393,-210.47C238.646,-211.496 518.39,-209.003 749,-169.5 754.771,-168.511 760.855,-167.051 766.62,-165.461"/>
<polygon fill="#8b1a1a" stroke="#8b1a1a" points="119.413,-206.97 109.38,-210.372 119.345,-213.97 119.413,-206.97"/>
</g>
<!-- Node8 -->
<g id="node8" class="node"><title>Node8</title>
<g id="a_node8"><a xlink:href="classstxxl_1_1mutex.html" target="_top" xlink:title="stxxl::mutex">
<polygon fill="none" stroke="black" points="286.5,-139 286.5,-158 357.5,-158 357.5,-139 286.5,-139"/>
<text text-anchor="middle" x="322" y="-146" font-family="Helvetica,sans-Serif" font-size="10.00">stxxl::mutex</text>
</a>
</g>
</g>
<!-- Node2&#45;&gt;Node8 -->
<g id="edge11" class="edge"><title>Node2&#45;&gt;Node8</title>
<path fill="none" stroke="#8b1a1a" d="M90.3853,-195.894C104.526,-189.81 121.875,-183.008 138,-178.5 188.695,-164.327 249.281,-156.021 286.445,-151.869"/>
<polygon fill="#8b1a1a" stroke="#8b1a1a" points="88.9044,-192.722 81.1628,-199.955 91.7254,-199.129 88.9044,-192.722"/>
</g>
<!-- Node11 -->
<g id="node11" class="node"><title>Node11</title>
<g id="a_node11"><a xlink:href="classstxxl_1_1disk__allocator.html" target="_top" xlink:title="stxxl::disk_allocator">
<polygon fill="none" stroke="black" points="941,-102 941,-121 1045,-121 1045,-102 941,-102"/>
<text text-anchor="middle" x="993" y="-109" font-family="Helvetica,sans-Serif" font-size="10.00">stxxl::disk_allocator</text>
</a>
</g>
</g>
<!-- Node2&#45;&gt;Node11 -->
<g id="edge15" class="edge"><title>Node2&#45;&gt;Node11</title>
<path fill="none" stroke="#8b1a1a" d="M77.6686,-192.377C116.504,-154.412 217.596,-66.5 321,-66.5 321,-66.5 321,-66.5 796,-66.5 858.844,-66.5 930.213,-88.7473 967.05,-101.957"/>
<polygon fill="#8b1a1a" stroke="#8b1a1a" points="74.9618,-190.134 70.348,-199.671 79.9024,-195.092 74.9618,-190.134"/>
</g>
<!-- Node3 -->
<g id="node3" class="node"><title>Node3</title>
<g id="a_node3"><a xlink:href="classstxxl_1_1block__manager.html" target="_top" xlink:title="Block manager class. ">
<polygon fill="none" stroke="black" points="1150,-154 1150,-173 1260,-173 1260,-154 1150,-154"/>
<text text-anchor="middle" x="1205" y="-161" font-family="Helvetica,sans-Serif" font-size="10.00">stxxl::block_manager</text>
</a>
</g>
</g>
<!-- Node3&#45;&gt;Node1 -->
<g id="edge2" class="edge"><title>Node3&#45;&gt;Node1</title>
<path fill="none" stroke="#9a32cd" stroke-dasharray="5,2" d="M1270.77,-163.5C1284.54,-163.5 1299.06,-163.5 1312.79,-163.5"/>
<polygon fill="#9a32cd" stroke="#9a32cd" points="1270.42,-160 1260.42,-163.5 1270.42,-167 1270.42,-160"/>
<text text-anchor="middle" x="1286.5" y="-166.5" font-family="Helvetica,sans-Serif" font-size="10.00"> bm</text>
</g>
<!-- Node4&#45;&gt;Node3 -->
<g id="edge3" class="edge"><title>Node4&#45;&gt;Node3</title>
<path fill="none" stroke="midnightblue" d="M675.437,-230.224C775.163,-220.557 968.545,-200.598 1132,-176.5 1139.04,-175.463 1146.44,-174.257 1153.71,-173.006"/>
<polygon fill="midnightblue" stroke="midnightblue" points="674.825,-226.766 665.207,-231.211 675.497,-233.734 674.825,-226.766"/>
</g>
<!-- Node5&#45;&gt;Node4 -->
<g id="edge5" class="edge"><title>Node5&#45;&gt;Node4</title>
<path fill="none" stroke="orange" stroke-dasharray="5,2" d="M405.283,-236.5C451.565,-236.5 508.178,-236.5 549.55,-236.5"/>
<polygon fill="orange" stroke="orange" points="405.273,-233 395.273,-236.5 405.273,-240 405.273,-233"/>
<text text-anchor="middle" x="472.5" y="-239.5" font-family="Helvetica,sans-Serif" font-size="10.00"> &lt; block_manager &gt;</text>
</g>
<!-- Node6&#45;&gt;Node3 -->
<g id="edge7" class="edge"><title>Node6&#45;&gt;Node3</title>
<path fill="none" stroke="#9a32cd" stroke-dasharray="5,2" d="M833.097,-157.136C905.397,-158.377 1065.44,-161.123 1149.7,-162.568"/>
<polygon fill="#9a32cd" stroke="#9a32cd" points="833.145,-153.637 823.086,-156.965 833.024,-160.636 833.145,-153.637"/>
<text text-anchor="middle" x="993" y="-164.5" font-family="Helvetica,sans-Serif" font-size="10.00"> disk_files</text>
</g>
<!-- Node6&#45;&gt;Node11 -->
<g id="edge16" class="edge"><title>Node6&#45;&gt;Node11</title>
<path fill="none" stroke="#9a32cd" stroke-dasharray="5,2" d="M826.651,-143.28C831.401,-141.512 836.293,-139.847 841,-138.5 873.644,-129.158 911.227,-122.424 940.732,-118.018"/>
<polygon fill="#9a32cd" stroke="#9a32cd" points="825.236,-140.075 817.206,-146.986 827.793,-146.591 825.236,-140.075"/>
<text text-anchor="middle" x="882" y="-141.5" font-family="Helvetica,sans-Serif" font-size="10.00"> storage</text>
</g>
<!-- Node7 -->
<g id="node7" class="node"><title>Node7</title>
<g id="a_node7"><a xlink:href="classstxxl_1_1atomic__counted__object.html" target="_top" xlink:title="Provides reference counting abilities for use with counting_ptr with mutex locking. ">
<polygon fill="none" stroke="black" points="551,-133.5 551,-163.5 664,-163.5 664,-133.5 551,-133.5"/>
<text text-anchor="start" x="559" y="-151.5" font-family="Helvetica,sans-Serif" font-size="10.00">stxxl::atomic_counted</text>
<text text-anchor="middle" x="607.5" y="-140.5" font-family="Helvetica,sans-Serif" font-size="10.00">_object</text>
</a>
</g>
</g>
<!-- Node7&#45;&gt;Node6 -->
<g id="edge9" class="edge"><title>Node7&#45;&gt;Node6</title>
<path fill="none" stroke="#9a32cd" stroke-dasharray="5,2" d="M674.304,-151.338C706.127,-152.71 742.585,-154.283 766.819,-155.328"/>
<polygon fill="#9a32cd" stroke="#9a32cd" points="674.298,-147.834 664.156,-150.9 673.996,-154.828 674.298,-147.834"/>
<text text-anchor="middle" x="716" y="-157.5" font-family="Helvetica,sans-Serif" font-size="10.00"> m_request_ref</text>
</g>
<!-- Node8&#45;&gt;Node7 -->
<g id="edge10" class="edge"><title>Node8&#45;&gt;Node7</title>
<path fill="none" stroke="#9a32cd" stroke-dasharray="5,2" d="M367.867,-148.5C417.473,-148.5 497.432,-148.5 550.954,-148.5"/>
<polygon fill="#9a32cd" stroke="#9a32cd" points="367.763,-145 357.763,-148.5 367.763,-152 367.763,-145"/>
<text text-anchor="middle" x="472.5" y="-151.5" font-family="Helvetica,sans-Serif" font-size="10.00"> m_reference_count_mutex</text>
</g>
<!-- Node8&#45;&gt;Node11 -->
<g id="edge17" class="edge"><title>Node8&#45;&gt;Node11</title>
<path fill="none" stroke="#9a32cd" stroke-dasharray="5,2" d="M367.698,-142.474C413.408,-136.572 486.515,-127.85 550,-123.5 691.299,-113.818 858.509,-111.859 940.89,-111.52"/>
<polygon fill="#9a32cd" stroke="#9a32cd" points="366.997,-139.036 357.533,-143.799 367.901,-145.977 366.997,-139.036"/>
<text text-anchor="middle" x="716" y="-120.5" font-family="Helvetica,sans-Serif" font-size="10.00"> mutex</text>
</g>
<!-- Node9 -->
<g id="node9" class="node"><title>Node9</title>
<g id="a_node9"><a xlink:href="structstxxl_1_1choose__int__types.html" target="_top" xlink:title="stxxl::choose_int_types\l\&lt; my_pointer_size \&gt;">
<polygon fill="none" stroke="black" points="262,-0.5 262,-30.5 382,-30.5 382,-0.5 262,-0.5"/>
<text text-anchor="start" x="270" y="-18.5" font-family="Helvetica,sans-Serif" font-size="10.00">stxxl::choose_int_types</text>
<text text-anchor="middle" x="322" y="-7.5" font-family="Helvetica,sans-Serif" font-size="10.00">&lt; my_pointer_size &gt;</text>
</a>
</g>
</g>
<!-- Node9&#45;&gt;Node1 -->
<g id="edge18" class="edge"><title>Node9&#45;&gt;Node1</title>
<path fill="none" stroke="#9a32cd" stroke-dasharray="5,2" d="M392.216,-12.4563C449.607,-10.1948 533.342,-7.5 606.5,-7.5 606.5,-7.5 606.5,-7.5 1206,-7.5 1288.85,-7.5 1348.98,-109.004 1369.13,-148.258"/>
<polygon fill="#9a32cd" stroke="#9a32cd" points="392.023,-8.96114 382.171,-12.8583 392.303,-15.9555 392.023,-8.96114"/>
<text text-anchor="start" x="841" y="-21.5" font-family="Helvetica,sans-Serif" font-size="10.00"> remaining_internal</text>
<text text-anchor="middle" x="882" y="-10.5" font-family="Helvetica,sans-Serif" font-size="10.00">_blocks</text>
</g>
<!-- Node9&#45;&gt;Node7 -->
<g id="edge12" class="edge"><title>Node9&#45;&gt;Node7</title>
<path fill="none" stroke="#9a32cd" stroke-dasharray="5,2" d="M364.323,-34.8863C421.252,-61.5938 522.614,-109.146 574.285,-133.387"/>
<polygon fill="#9a32cd" stroke="#9a32cd" points="365.785,-31.7059 355.245,-30.6273 362.812,-38.0432 365.785,-31.7059"/>
<text text-anchor="middle" x="472.5" y="-116.5" font-family="Helvetica,sans-Serif" font-size="10.00"> m_reference_count</text>
</g>
<!-- Node10 -->
<g id="node10" class="node"><title>Node10</title>
<g id="a_node10"><a xlink:href="structstxxl_1_1choose__int__types.html" target="_top" xlink:title="stxxl::choose_int_types\l\&lt; PtrSize \&gt;">
<polygon fill="none" stroke="black" points="0,-0.5 0,-30.5 120,-30.5 120,-0.5 0,-0.5"/>
<text text-anchor="start" x="8" y="-18.5" font-family="Helvetica,sans-Serif" font-size="10.00">stxxl::choose_int_types</text>
<text text-anchor="middle" x="60" y="-7.5" font-family="Helvetica,sans-Serif" font-size="10.00">&lt; PtrSize &gt;</text>
</a>
</g>
</g>
<!-- Node10&#45;&gt;Node9 -->
<g id="edge13" class="edge"><title>Node10&#45;&gt;Node9</title>
<path fill="none" stroke="orange" stroke-dasharray="5,2" d="M130.515,-15.5C171.531,-15.5 222.884,-15.5 261.931,-15.5"/>
<polygon fill="orange" stroke="orange" points="130.323,-12.0001 120.323,-15.5 130.323,-19.0001 130.323,-12.0001"/>
<text text-anchor="middle" x="184.5" y="-18.5" font-family="Helvetica,sans-Serif" font-size="10.00"> &lt; my_pointer_size &gt;</text>
</g>
<!-- Node11&#45;&gt;Node3 -->
<g id="edge14" class="edge"><title>Node11&#45;&gt;Node3</title>
<path fill="none" stroke="#9a32cd" stroke-dasharray="5,2" d="M1055.27,-121.57C1079.36,-126.028 1107.15,-131.791 1132,-138.5 1147.97,-142.811 1165.51,-148.873 1179.28,-153.947"/>
<polygon fill="#9a32cd" stroke="#9a32cd" points="1055.65,-118.083 1045.19,-119.741 1054.4,-124.97 1055.65,-118.083"/>
<text text-anchor="middle" x="1097.5" y="-141.5" font-family="Helvetica,sans-Serif" font-size="10.00"> disk_allocators</text>
</g>
</g>
</svg>
