<?xml version="1.0" encoding="UTF-8" standalone="no"?>
<!DOCTYPE svg PUBLIC "-//W3C//DTD SVG 1.1//EN"
 "http://www.w3.org/Graphics/SVG/1.1/DTD/svg11.dtd">
<!-- Generated by graphviz version 2.38.0 (20140413.2041)
 -->
<!-- Title: stxxl::priority_queue_local::int_merger&lt; ValueType, CompareType, MaxArity &gt; Pages: 1 -->
<svg width="1528pt" height="434pt"
 viewBox="0.00 0.00 1528.00 434.26" xmlns="http://www.w3.org/2000/svg" xmlns:xlink="http://www.w3.org/1999/xlink">
<g id="graph0" class="graph" transform="scale(1 1) rotate(0) translate(4 430.256)">
<title>stxxl::priority_queue_local::int_merger&lt; ValueType, CompareType, MaxArity &gt;</title>
<!-- Node1 -->
<g id="node1" class="node"><title>Node1</title>
<polygon fill="#bfbfbf" stroke="black" points="1368,-267.146 1368,-308.146 1520,-308.146 1520,-267.146 1368,-267.146"/>
<text text-anchor="start" x="1376" y="-296.146" font-family="Helvetica,sans-Serif" font-size="10.00">stxxl::priority_queue</text>
<text text-anchor="start" x="1376" y="-285.146" font-family="Helvetica,sans-Serif" font-size="10.00">_local::int_merger&lt; ValueType,</text>
<text text-anchor="middle" x="1444" y="-274.146" font-family="Helvetica,sans-Serif" font-size="10.00"> CompareType, MaxArity &gt;</text>
</g>
<!-- Node2 -->
<g id="node2" class="node"><title>Node2</title>
<g id="a_node2"><a xlink:href="classstxxl_1_1noncopyable.html" target="_top" xlink:title="stxxl::noncopyable">
<polygon fill="none" stroke="black" points="607,-405.146 607,-424.146 705,-424.146 705,-405.146 607,-405.146"/>
<text text-anchor="middle" x="656" y="-412.146" font-family="Helvetica,sans-Serif" font-size="10.00">stxxl::noncopyable</text>
</a>
</g>
</g>
<!-- Node2&#45;&gt;Node1 -->
<g id="edge1" class="edge"><title>Node2&#45;&gt;Node1</title>
<path fill="none" stroke="#8b1a1a" d="M715.501,-421.317C730.021,-422.699 745.56,-423.947 760,-424.646 788.411,-426.022 795.601,-426.256 824,-424.646 898.581,-420.417 917.396,-418.401 991,-405.646 1131.04,-381.376 1291.17,-335.036 1378.26,-308.217"/>
<polygon fill="#8b1a1a" stroke="#8b1a1a" points="715.434,-417.793 705.138,-420.292 714.745,-424.759 715.434,-417.793"/>
</g>
<!-- Node5 -->
<g id="node5" class="node"><title>Node5</title>
<g id="a_node5"><a xlink:href="classstxxl_1_1priority__queue__local_1_1loser__tree.html" target="_top" xlink:title="stxxl::priority_queue\l_local::loser_tree\&lt; self\l_type, CompareType, MaxArity \&gt;">
<polygon fill="none" stroke="black" points="1150,-267.146 1150,-308.146 1312,-308.146 1312,-267.146 1150,-267.146"/>
<text text-anchor="start" x="1158" y="-296.146" font-family="Helvetica,sans-Serif" font-size="10.00">stxxl::priority_queue</text>
<text text-anchor="start" x="1158" y="-285.146" font-family="Helvetica,sans-Serif" font-size="10.00">_local::loser_tree&lt; self</text>
<text text-anchor="middle" x="1231" y="-274.146" font-family="Helvetica,sans-Serif" font-size="10.00">_type, CompareType, MaxArity &gt;</text>
</a>
</g>
</g>
<!-- Node2&#45;&gt;Node5 -->
<g id="edge5" class="edge"><title>Node2&#45;&gt;Node5</title>
<path fill="none" stroke="#8b1a1a" d="M715.334,-404.401C806.177,-392.892 986.16,-371.884 1132,-325.646 1146.66,-320.998 1161.92,-314.546 1175.91,-308.2"/>
<polygon fill="#8b1a1a" stroke="#8b1a1a" points="714.711,-400.952 705.235,-405.69 715.598,-407.896 714.711,-400.952"/>
</g>
<!-- Node2&#45;&gt;Node5 -->
<g id="edge6" class="edge"><title>Node2&#45;&gt;Node5</title>
<path fill="none" stroke="#8b1a1a" d="M715.334,-415.831C806.177,-410.892 986.16,-389.884 1132,-343.646 1158.8,-335.149 1187.6,-320.621 1207,-308.187"/>
<polygon fill="#8b1a1a" stroke="#8b1a1a" points="715.05,-412.341 705.235,-416.331 715.396,-419.332 715.05,-412.341"/>
</g>
<!-- Node10 -->
<g id="node10" class="node"><title>Node10</title>
<g id="a_node10"><a xlink:href="classstxxl_1_1priority__queue__local_1_1loser__tree.html" target="_top" xlink:title="Loser tree from Knuth, &quot;Sorting and Searching&quot;, Section 5.4.1. ">
<polygon fill="none" stroke="black" points="842,-267.146 842,-308.146 991,-308.146 991,-267.146 842,-267.146"/>
<text text-anchor="start" x="850" y="-296.146" font-family="Helvetica,sans-Serif" font-size="10.00">stxxl::priority_queue</text>
<text text-anchor="start" x="850" y="-285.146" font-family="Helvetica,sans-Serif" font-size="10.00">_local::loser_tree&lt; ValueType,</text>
<text text-anchor="middle" x="916.5" y="-274.146" font-family="Helvetica,sans-Serif" font-size="10.00"> CompareType, MaxArity &gt;</text>
</a>
</g>
</g>
<!-- Node2&#45;&gt;Node10 -->
<g id="edge15" class="edge"><title>Node2&#45;&gt;Node10</title>
<path fill="none" stroke="#8b1a1a" d="M676.663,-399.265C710.401,-378.747 781.528,-343.078 842,-313.646 845.685,-311.852 849.479,-310.016 853.309,-308.182"/>
<polygon fill="#8b1a1a" stroke="#8b1a1a" points="674.382,-396.567 667.811,-404.878 678.131,-402.479 674.382,-396.567"/>
</g>
<!-- Node2&#45;&gt;Node10 -->
<g id="edge16" class="edge"><title>Node2&#45;&gt;Node10</title>
<path fill="none" stroke="#8b1a1a" d="M698.559,-400.793C735.988,-383.945 792.556,-355.71 842,-331.646 857.504,-324.1 874.923,-315.797 888.911,-308.199"/>
<polygon fill="#8b1a1a" stroke="#8b1a1a" points="696.728,-397.776 689.002,-405.026 699.563,-404.176 696.728,-397.776"/>
</g>
<!-- Node3 -->
<g id="node3" class="node"><title>Node3</title>
<g id="a_node3"><a xlink:href="structstxxl_1_1choose__int__types.html" target="_top" xlink:title="stxxl::choose_int_types\l\&lt; my_pointer_size \&gt;">
<polygon fill="none" stroke="black" points="266.5,-85.6458 266.5,-115.646 386.5,-115.646 386.5,-85.6458 266.5,-85.6458"/>
<text text-anchor="start" x="274.5" y="-103.646" font-family="Helvetica,sans-Serif" font-size="10.00">stxxl::choose_int_types</text>
<text text-anchor="middle" x="326.5" y="-92.6458" font-family="Helvetica,sans-Serif" font-size="10.00">&lt; my_pointer_size &gt;</text>
</a>
</g>
</g>
<!-- Node3&#45;&gt;Node1 -->
<g id="edge2" class="edge"><title>Node3&#45;&gt;Node1</title>
<path fill="none" stroke="#9a32cd" stroke-dasharray="5,2" d="M396.884,-92.9387C463.107,-86.2548 565.73,-77.6458 655,-77.6458 655,-77.6458 655,-77.6458 1232,-77.6458 1338.72,-77.6458 1410.56,-214.286 1434.35,-267.128"/>
<polygon fill="#9a32cd" stroke="#9a32cd" points="396.168,-89.4936 386.576,-93.9933 396.88,-96.4573 396.168,-89.4936"/>
<text text-anchor="middle" x="916.5" y="-91.6458" font-family="Helvetica,sans-Serif" font-size="10.00"> segment_size</text>
<text text-anchor="middle" x="916.5" y="-80.6458" font-family="Helvetica,sans-Serif" font-size="10.00">mem_cons_</text>
</g>
<!-- Node3&#45;&gt;Node5 -->
<g id="edge11" class="edge"><title>Node3&#45;&gt;Node5</title>
<path fill="none" stroke="#9a32cd" stroke-dasharray="5,2" d="M370.588,-81.5533C386.495,-75.0998 404.831,-68.3466 422,-63.6458 595.93,-16.0244 645.363,16.0128 824,-8.64584 900.381,-19.1893 924.18,-17.1705 991,-55.6458 1090.98,-113.212 1180.28,-221.951 1214.82,-267.144"/>
<polygon fill="#9a32cd" stroke="#9a32cd" points="368.929,-78.452 361.029,-85.5118 371.607,-84.9194 368.929,-78.452"/>
<text text-anchor="middle" x="792" y="-55.6458" font-family="Helvetica,sans-Serif" font-size="10.00"> segment_size</text>
<text text-anchor="middle" x="792" y="-44.6458" font-family="Helvetica,sans-Serif" font-size="10.00">mem_cons_</text>
<text text-anchor="middle" x="792" y="-33.6458" font-family="Helvetica,sans-Serif" font-size="10.00">k</text>
<text text-anchor="middle" x="792" y="-22.6458" font-family="Helvetica,sans-Serif" font-size="10.00">size_</text>
<text text-anchor="middle" x="792" y="-11.6458" font-family="Helvetica,sans-Serif" font-size="10.00">logK</text>
</g>
<!-- Node8 -->
<g id="node8" class="node"><title>Node8</title>
<g id="a_node8"><a xlink:href="structstxxl_1_1priority__queue__local_1_1loser__tree_1_1Entry.html" target="_top" xlink:title="type of nodes in the loser tree ">
<polygon fill="none" stroke="black" points="574,-197.146 574,-238.146 738,-238.146 738,-197.146 574,-197.146"/>
<text text-anchor="start" x="582" y="-226.146" font-family="Helvetica,sans-Serif" font-size="10.00">stxxl::priority_queue</text>
<text text-anchor="start" x="582" y="-215.146" font-family="Helvetica,sans-Serif" font-size="10.00">_local::loser_tree&lt; ValueType,</text>
<text text-anchor="middle" x="656" y="-204.146" font-family="Helvetica,sans-Serif" font-size="10.00"> CompareType, MaxArity &gt;::Entry</text>
</a>
</g>
</g>
<!-- Node3&#45;&gt;Node8 -->
<g id="edge10" class="edge"><title>Node3&#45;&gt;Node8</title>
<path fill="none" stroke="#9a32cd" stroke-dasharray="5,2" d="M374.69,-119.576C389.757,-125.498 406.534,-131.966 422,-137.646 479.612,-158.804 545.847,-181.379 592.935,-197.134"/>
<polygon fill="#9a32cd" stroke="#9a32cd" points="375.654,-116.194 365.068,-115.778 373.084,-122.705 375.654,-116.194"/>
<text text-anchor="middle" x="487" y="-184.646" font-family="Helvetica,sans-Serif" font-size="10.00"> index</text>
</g>
<!-- Node3&#45;&gt;Node10 -->
<g id="edge19" class="edge"><title>Node3&#45;&gt;Node10</title>
<path fill="none" stroke="#9a32cd" stroke-dasharray="5,2" d="M396.887,-99.312C499.072,-98.461 684.179,-101.492 742,-132.646 757.966,-141.248 827.3,-251.025 842,-261.646 844.633,-263.548 847.418,-265.323 850.304,-266.976"/>
<polygon fill="#9a32cd" stroke="#9a32cd" points="396.626,-95.8143 386.661,-99.4125 396.695,-102.814 396.626,-95.8143"/>
<text text-anchor="middle" x="656" y="-179.646" font-family="Helvetica,sans-Serif" font-size="10.00"> segment_size</text>
<text text-anchor="middle" x="656" y="-168.646" font-family="Helvetica,sans-Serif" font-size="10.00">mem_cons_</text>
<text text-anchor="middle" x="656" y="-157.646" font-family="Helvetica,sans-Serif" font-size="10.00">k</text>
<text text-anchor="middle" x="656" y="-146.646" font-family="Helvetica,sans-Serif" font-size="10.00">size_</text>
<text text-anchor="middle" x="656" y="-135.646" font-family="Helvetica,sans-Serif" font-size="10.00">logK</text>
</g>
<!-- Node4 -->
<g id="node4" class="node"><title>Node4</title>
<g id="a_node4"><a xlink:href="structstxxl_1_1choose__int__types.html" target="_top" xlink:title="stxxl::choose_int_types\l\&lt; PtrSize \&gt;">
<polygon fill="none" stroke="black" points="0,-85.6458 0,-115.646 120,-115.646 120,-85.6458 0,-85.6458"/>
<text text-anchor="start" x="8" y="-103.646" font-family="Helvetica,sans-Serif" font-size="10.00">stxxl::choose_int_types</text>
<text text-anchor="middle" x="60" y="-92.6458" font-family="Helvetica,sans-Serif" font-size="10.00">&lt; PtrSize &gt;</text>
</a>
</g>
</g>
<!-- Node4&#45;&gt;Node3 -->
<g id="edge3" class="edge"><title>Node4&#45;&gt;Node3</title>
<path fill="none" stroke="orange" stroke-dasharray="5,2" d="M130.236,-100.646C172.475,-100.646 225.906,-100.646 266.194,-100.646"/>
<polygon fill="orange" stroke="orange" points="130.03,-97.1459 120.03,-100.646 130.03,-104.146 130.03,-97.1459"/>
<text text-anchor="middle" x="184.5" y="-103.646" font-family="Helvetica,sans-Serif" font-size="10.00"> &lt; my_pointer_size &gt;</text>
</g>
<!-- Node5&#45;&gt;Node1 -->
<g id="edge4" class="edge"><title>Node5&#45;&gt;Node1</title>
<path fill="none" stroke="#9a32cd" stroke-dasharray="5,2" d="M1322.47,-287.646C1337.6,-287.646 1353.16,-287.646 1367.85,-287.646"/>
<polygon fill="#9a32cd" stroke="#9a32cd" points="1322.07,-284.146 1312.07,-287.646 1322.07,-291.146 1322.07,-284.146"/>
<text text-anchor="middle" x="1340" y="-290.646" font-family="Helvetica,sans-Serif" font-size="10.00"> tree</text>
</g>
<!-- Node6 -->
<g id="node6" class="node"><title>Node6</title>
<g id="a_node6"><a xlink:href="classstxxl_1_1priority__queue__local_1_1internal__bounded__stack.html" target="_top" xlink:title="stxxl::priority_queue\l_local::internal_bounded\l_stack\&lt; unsigned_type, arity \&gt;">
<polygon fill="none" stroke="black" points="580,-317.146 580,-358.146 732,-358.146 732,-317.146 580,-317.146"/>
<text text-anchor="start" x="588" y="-346.146" font-family="Helvetica,sans-Serif" font-size="10.00">stxxl::priority_queue</text>
<text text-anchor="start" x="588" y="-335.146" font-family="Helvetica,sans-Serif" font-size="10.00">_local::internal_bounded</text>
<text text-anchor="middle" x="656" y="-324.146" font-family="Helvetica,sans-Serif" font-size="10.00">_stack&lt; unsigned_type, arity &gt;</text>
</a>
</g>
</g>
<!-- Node6&#45;&gt;Node5 -->
<g id="edge7" class="edge"><title>Node6&#45;&gt;Node5</title>
<path fill="none" stroke="#9a32cd" stroke-dasharray="5,2" d="M742.546,-338.673C838.072,-338.582 997.006,-334.726 1132,-313.646 1141.04,-312.234 1150.46,-310.322 1159.72,-308.173"/>
<polygon fill="#9a32cd" stroke="#9a32cd" points="742.362,-335.173 732.36,-338.669 742.359,-342.173 742.362,-335.173"/>
<text text-anchor="middle" x="916.5" y="-339.646" font-family="Helvetica,sans-Serif" font-size="10.00"> free_slots</text>
</g>
<!-- Node6&#45;&gt;Node10 -->
<g id="edge17" class="edge"><title>Node6&#45;&gt;Node10</title>
<path fill="none" stroke="#9a32cd" stroke-dasharray="5,2" d="M742.298,-316.394C748.277,-315.074 754.222,-313.81 760,-312.646 786.537,-307.301 815.804,-302.351 841.722,-298.29"/>
<polygon fill="#9a32cd" stroke="#9a32cd" points="741.213,-313.051 732.227,-318.663 742.751,-319.88 741.213,-313.051"/>
<text text-anchor="middle" x="792" y="-315.646" font-family="Helvetica,sans-Serif" font-size="10.00"> free_slots</text>
</g>
<!-- Node7 -->
<g id="node7" class="node"><title>Node7</title>
<g id="a_node7"><a xlink:href="classstxxl_1_1priority__queue__local_1_1internal__bounded__stack.html" target="_top" xlink:title="Similar to std::stack, with the following differences: ">
<polygon fill="none" stroke="black" points="249,-280.146 249,-321.146 404,-321.146 404,-280.146 249,-280.146"/>
<text text-anchor="start" x="257" y="-309.146" font-family="Helvetica,sans-Serif" font-size="10.00">stxxl::priority_queue</text>
<text text-anchor="start" x="257" y="-298.146" font-family="Helvetica,sans-Serif" font-size="10.00">_local::internal_bounded</text>
<text text-anchor="middle" x="326.5" y="-287.146" font-family="Helvetica,sans-Serif" font-size="10.00">_stack&lt; ValueType, MaxSize &gt;</text>
</a>
</g>
</g>
<!-- Node7&#45;&gt;Node6 -->
<g id="edge8" class="edge"><title>Node7&#45;&gt;Node6</title>
<path fill="none" stroke="orange" stroke-dasharray="5,2" d="M414.402,-310.464C465.906,-316.282 530.527,-323.583 579.826,-329.153"/>
<polygon fill="orange" stroke="orange" points="414.614,-306.966 404.284,-309.321 413.828,-313.921 414.614,-306.966"/>
<text text-anchor="middle" x="487" y="-328.646" font-family="Helvetica,sans-Serif" font-size="10.00"> &lt; unsigned_type, arity &gt;</text>
</g>
<!-- Node9 -->
<g id="node9" class="node"><title>Node9</title>
<g id="a_node9"><a xlink:href="classstxxl_1_1priority__queue__local_1_1internal__bounded__stack.html" target="_top" xlink:title="stxxl::priority_queue\l_local::internal_bounded\l_stack\&lt; unsigned_type, MaxArity \&gt;">
<polygon fill="none" stroke="black" points="570,-257.146 570,-298.146 742,-298.146 742,-257.146 570,-257.146"/>
<text text-anchor="start" x="578" y="-286.146" font-family="Helvetica,sans-Serif" font-size="10.00">stxxl::priority_queue</text>
<text text-anchor="start" x="578" y="-275.146" font-family="Helvetica,sans-Serif" font-size="10.00">_local::internal_bounded</text>
<text text-anchor="middle" x="656" y="-264.146" font-family="Helvetica,sans-Serif" font-size="10.00">_stack&lt; unsigned_type, MaxArity &gt;</text>
</a>
</g>
</g>
<!-- Node7&#45;&gt;Node9 -->
<g id="edge13" class="edge"><title>Node7&#45;&gt;Node9</title>
<path fill="none" stroke="orange" stroke-dasharray="5,2" d="M414.361,-294.546C462.439,-291.169 521.956,-286.989 569.771,-283.631"/>
<polygon fill="orange" stroke="orange" points="414.014,-291.061 404.284,-295.253 414.505,-298.044 414.014,-291.061"/>
<text text-anchor="middle" x="487" y="-296.646" font-family="Helvetica,sans-Serif" font-size="10.00"> &lt; unsigned_type, MaxArity &gt;</text>
</g>
<!-- Node8&#45;&gt;Node5 -->
<g id="edge9" class="edge"><title>Node8&#45;&gt;Node5</title>
<path fill="none" stroke="#9a32cd" stroke-dasharray="5,2" d="M748.194,-211.178C845.224,-206.922 1002.31,-207.613 1132,-243.646 1152.31,-249.287 1173.78,-258.521 1191.43,-267.077"/>
<polygon fill="#9a32cd" stroke="#9a32cd" points="747.948,-207.685 738.122,-211.647 748.274,-214.678 747.948,-207.685"/>
<text text-anchor="middle" x="916.5" y="-219.646" font-family="Helvetica,sans-Serif" font-size="10.00"> entry</text>
</g>
<!-- Node8&#45;&gt;Node10 -->
<g id="edge18" class="edge"><title>Node8&#45;&gt;Node10</title>
<path fill="none" stroke="#9a32cd" stroke-dasharray="5,2" d="M746.009,-240.758C771.244,-247.403 798.726,-254.726 824,-261.646 830.371,-263.39 836.985,-265.224 843.611,-267.077"/>
<polygon fill="#9a32cd" stroke="#9a32cd" points="746.649,-237.308 736.088,-238.15 744.87,-244.078 746.649,-237.308"/>
<text text-anchor="middle" x="792" y="-264.646" font-family="Helvetica,sans-Serif" font-size="10.00"> entry</text>
</g>
<!-- Node9&#45;&gt;Node5 -->
<g id="edge12" class="edge"><title>Node9&#45;&gt;Node5</title>
<path fill="none" stroke="#9a32cd" stroke-dasharray="5,2" d="M752.306,-258.568C781.011,-253.664 812.679,-249.085 842,-246.646 907.994,-241.155 925.017,-241.027 991,-246.646 1044.38,-251.191 1103.74,-261.348 1149.95,-270.415"/>
<polygon fill="#9a32cd" stroke="#9a32cd" points="751.536,-255.15 742.285,-260.314 752.737,-262.046 751.536,-255.15"/>
<text text-anchor="middle" x="916.5" y="-249.646" font-family="Helvetica,sans-Serif" font-size="10.00"> free_slots</text>
</g>
<!-- Node9&#45;&gt;Node10 -->
<g id="edge20" class="edge"><title>Node9&#45;&gt;Node10</title>
<path fill="none" stroke="#9a32cd" stroke-dasharray="5,2" d="M752.299,-276.703C775.754,-276.888 800.796,-277.438 824,-278.646 829.739,-278.945 835.673,-279.337 841.634,-279.792"/>
<polygon fill="#9a32cd" stroke="#9a32cd" points="752.021,-273.201 742.001,-276.644 751.981,-280.201 752.021,-273.201"/>
<text text-anchor="middle" x="792" y="-281.646" font-family="Helvetica,sans-Serif" font-size="10.00"> free_slots</text>
</g>
<!-- Node10&#45;&gt;Node5 -->
<g id="edge14" class="edge"><title>Node10&#45;&gt;Node5</title>
<path fill="none" stroke="orange" stroke-dasharray="5,2" d="M1001.43,-287.646C1047.57,-287.646 1104.49,-287.646 1149.99,-287.646"/>
<polygon fill="orange" stroke="orange" points="1001.16,-284.146 991.162,-287.646 1001.16,-291.146 1001.16,-284.146"/>
<text text-anchor="start" x="1009" y="-301.646" font-family="Helvetica,sans-Serif" font-size="10.00"> &lt; self_type, CompareType,</text>
<text text-anchor="middle" x="1070.5" y="-290.646" font-family="Helvetica,sans-Serif" font-size="10.00"> MaxArity &gt;</text>
</g>
</g>
</svg>
