<?xml version="1.0" encoding="UTF-8" standalone="no"?>
<!DOCTYPE svg PUBLIC "-//W3C//DTD SVG 1.1//EN"
 "http://www.w3.org/Graphics/SVG/1.1/DTD/svg11.dtd">
<!-- Generated by graphviz version 2.26.3 (20100126.1600)
 -->
<!-- Title: stxxl::stream::runs_creator&lt; from_sorted_sequences&lt; ValueType &gt;, CompareType, BlockSize, AllocStr &gt; Pages: 1 -->
<svg width="3514pt" height="465pt"
 viewBox="0.00 0.00 3514.00 465.00" xmlns="http://www.w3.org/2000/svg" xmlns:xlink="http://www.w3.org/1999/xlink">
<g id="graph1" class="graph" transform="scale(1 1) rotate(0) translate(4 461)">
<title>stxxl::stream::runs_creator&lt; from_sorted_sequences&lt; ValueType &gt;, CompareType, BlockSize, AllocStr &gt;</title>
<!-- Node1 -->
<g id="node1" class="node"><title>Node1</title>
<polygon fill="#bfbfbf" stroke="black" points="3360,-106.5 3360,-179.5 3506,-179.5 3506,-106.5 3360,-106.5"/>
<text text-anchor="start" x="3368" y="-166.5" font-family="Helvetica,sans-Serif" font-size="10.00">stxxl::stream::runs</text>
<text text-anchor="start" x="3368" y="-153.5" font-family="Helvetica,sans-Serif" font-size="10.00">_creator&lt; from_sorted</text>
<text text-anchor="start" x="3368" y="-140.5" font-family="Helvetica,sans-Serif" font-size="10.00">_sequences&lt; ValueType</text>
<text text-anchor="start" x="3368" y="-127.5" font-family="Helvetica,sans-Serif" font-size="10.00"> &gt;, CompareType, BlockSize,</text>
<text text-anchor="middle" x="3433" y="-114.5" font-family="Helvetica,sans-Serif" font-size="10.00"> AllocStr &gt;</text>
</g>
<!-- Node2 -->
<g id="node2" class="node"><title>Node2</title>
<a xlink:href="classstxxl_1_1noncopyable.html" target="_top" xlink:title="stxxl::noncopyable">
<polygon fill="none" stroke="black" points="11,-82.5 11,-103.5 109,-103.5 109,-82.5 11,-82.5"/>
<text text-anchor="middle" x="60" y="-90.5" font-family="Helvetica,sans-Serif" font-size="10.00">stxxl::noncopyable</text>
</a>
</g>
<!-- Node2&#45;&gt;Node1 -->
<g id="edge2" class="edge"><title>Node2&#45;&gt;Node1</title>
<path fill="none" stroke="#8b1a1a" d="M81.1328,-76.3307C96.2172,-65.1681 117.403,-50.9347 138,-42 210.191,-10.6847 231.309,-7.10543e-15 310,-0 310,-0 310,-0 3239,-0 3310.55,-0 3373.07,-63.8041 3406.7,-106.174"/>
<polygon fill="#8b1a1a" stroke="#8b1a1a" points="78.8656,-73.6573 73.007,-82.4849 83.0919,-79.2375 78.8656,-73.6573"/>
</g>
<!-- Node14 -->
<g id="node26" class="node"><title>Node14</title>
<a xlink:href="classstxxl_1_1file.html" target="_top" xlink:title="Defines interface of file. ">
<polygon fill="none" stroke="black" points="742,-101.5 742,-122.5 798,-122.5 798,-101.5 742,-101.5"/>
<text text-anchor="middle" x="770" y="-109.5" font-family="Helvetica,sans-Serif" font-size="10.00">stxxl::file</text>
</a>
</g>
<!-- Node2&#45;&gt;Node14 -->
<g id="edge28" class="edge"><title>Node2&#45;&gt;Node14</title>
<path fill="none" stroke="#8b1a1a" d="M119.175,-94.5835C264.884,-98.4828 636.788,-108.435 741.928,-111.249"/>
<polygon fill="#8b1a1a" stroke="#8b1a1a" points="119.171,-91.0823 109.081,-94.3134 118.984,-98.0798 119.171,-91.0823"/>
</g>
<!-- Node16 -->
<g id="node31" class="node"><title>Node16</title>
<a xlink:href="classstxxl_1_1mutex.html" target="_top" xlink:title="stxxl::mutex">
<polygon fill="none" stroke="black" points="274.5,-123.5 274.5,-144.5 345.5,-144.5 345.5,-123.5 274.5,-123.5"/>
<text text-anchor="middle" x="310" y="-131.5" font-family="Helvetica,sans-Serif" font-size="10.00">stxxl::mutex</text>
</a>
</g>
<!-- Node2&#45;&gt;Node16 -->
<g id="edge34" class="edge"><title>Node2&#45;&gt;Node16</title>
<path fill="none" stroke="#8b1a1a" d="M119.055,-103.74C125.446,-104.861 131.856,-105.967 138,-107 185.097,-114.922 239.577,-123.35 274.386,-128.642"/>
<polygon fill="#8b1a1a" stroke="#8b1a1a" points="119.526,-100.27 109.07,-101.976 118.308,-107.163 119.526,-100.27"/>
</g>
<!-- Node25 -->
<g id="node58" class="node"><title>Node25</title>
<a xlink:href="classstxxl_1_1buffered__writer.html" target="_top" xlink:title="stxxl::buffered_writer\l\&lt; stxxl::typed_block \&gt;">
<polygon fill="none" stroke="black" points="3182,-126 3182,-160 3296,-160 3296,-126 3182,-126"/>
<text text-anchor="start" x="3190" y="-147" font-family="Helvetica,sans-Serif" font-size="10.00">stxxl::buffered_writer</text>
<text text-anchor="middle" x="3239" y="-134" font-family="Helvetica,sans-Serif" font-size="10.00">&lt; stxxl::typed_block &gt;</text>
</a>
</g>
<!-- Node2&#45;&gt;Node25 -->
<g id="edge70" class="edge"><title>Node2&#45;&gt;Node25</title>
<path fill="none" stroke="#8b1a1a" d="M98.2771,-79.1611C146.842,-62.8685 233.499,-38 310,-38 310,-38 310,-38 2824,-38 2965.58,-38 3126.25,-96.1433 3199.2,-125.896"/>
<polygon fill="#8b1a1a" stroke="#8b1a1a" points="97.1319,-75.8537 88.7979,-82.3954 99.3924,-82.4787 97.1319,-75.8537"/>
</g>
<!-- Node26 -->
<g id="node63" class="node"><title>Node26</title>
<a xlink:href="classstxxl_1_1buffered__writer.html" target="_top" xlink:title="Encapsulates asynchronous buffered block writing engine. ">
<polygon fill="none" stroke="black" points="2895,-153 2895,-187 3003,-187 3003,-153 2895,-153"/>
<text text-anchor="start" x="2903" y="-174" font-family="Helvetica,sans-Serif" font-size="10.00">stxxl::buffered_writer</text>
<text text-anchor="middle" x="2949" y="-161" font-family="Helvetica,sans-Serif" font-size="10.00">&lt; block_type &gt;</text>
</a>
</g>
<!-- Node2&#45;&gt;Node26 -->
<g id="edge78" class="edge"><title>Node2&#45;&gt;Node26</title>
<path fill="none" stroke="#8b1a1a" d="M67.4462,-113.336C91.7306,-175.691 174.934,-360 310,-360 310,-360 310,-360 2349,-360 2532.98,-360 2596.74,-412.852 2762,-332 2835.47,-296.053 2819.02,-242.957 2886,-196 2890.65,-192.74 2895.77,-189.788 2901.02,-187.143"/>
<polygon fill="#8b1a1a" stroke="#8b1a1a" points="70.6464,-111.904 63.8245,-103.797 64.1023,-114.389 70.6464,-111.904"/>
</g>
<!-- Node3 -->
<g id="node4" class="node"><title>Node3</title>
<a xlink:href="classstxxl_1_1counting__ptr.html" target="_top" xlink:title="stxxl::counting_ptr\l\&lt; sorted_runs_data_type \&gt;">
<polygon fill="none" stroke="black" points="3030,-15 3030,-49 3164,-49 3164,-15 3030,-15"/>
<text text-anchor="start" x="3038" y="-36" font-family="Helvetica,sans-Serif" font-size="10.00">stxxl::counting_ptr</text>
<text text-anchor="middle" x="3097" y="-23" font-family="Helvetica,sans-Serif" font-size="10.00">&lt; sorted_runs_data_type &gt;</text>
</a>
</g>
<!-- Node3&#45;&gt;Node1 -->
<g id="edge4" class="edge"><title>Node3&#45;&gt;Node1</title>
<path fill="none" stroke="#9a32cd" stroke-dasharray="5,2" d="M3161.77,-52.2784C3162.52,-52.5199 3163.26,-52.7605 3164,-53 3230.41,-74.5142 3305.75,-99.7967 3359.77,-118.078"/>
<polygon fill="#9a32cd" stroke="#9a32cd" points="3162.46,-48.826 3151.87,-49.1054 3160.33,-55.4917 3162.46,-48.826"/>
<text text-anchor="middle" x="3239" y="-100" font-family="Helvetica,sans-Serif" font-size="10.00"> result_</text>
</g>
<!-- Node4 -->
<g id="node6" class="node"><title>Node4</title>
<a xlink:href="classstxxl_1_1counting__ptr.html" target="_top" xlink:title="High&#45;performance smart pointer used as a wrapping reference counting pointer. ">
<polygon fill="none" stroke="black" points="2633.5,-105 2633.5,-139 2730.5,-139 2730.5,-105 2633.5,-105"/>
<text text-anchor="start" x="2641.5" y="-126" font-family="Helvetica,sans-Serif" font-size="10.00">stxxl::counting_ptr</text>
<text text-anchor="middle" x="2682" y="-113" font-family="Helvetica,sans-Serif" font-size="10.00">&lt; Type &gt;</text>
</a>
</g>
<!-- Node4&#45;&gt;Node3 -->
<g id="edge6" class="edge"><title>Node4&#45;&gt;Node3</title>
<path fill="none" stroke="orange" stroke-dasharray="5,2" d="M2727.36,-100.933C2743.67,-94.045 2762.39,-86.9109 2780,-82 2864.53,-58.4264 2965.03,-44.9337 3029.86,-38.0406"/>
<polygon fill="orange" stroke="orange" points="2725.86,-97.7685 2718.06,-104.941 2728.63,-104.197 2725.86,-97.7685"/>
<text text-anchor="start" x="2780" y="-99" font-family="Helvetica,sans-Serif" font-size="10.00"> &lt; sorted_runs_data</text>
<text text-anchor="middle" x="2824" y="-86" font-family="Helvetica,sans-Serif" font-size="10.00">_type &gt;</text>
</g>
<!-- Node4&#45;&gt;Node25 -->
<g id="edge72" class="edge"><title>Node4&#45;&gt;Node25</title>
<path fill="none" stroke="#9a32cd" stroke-dasharray="5,2" d="M2740.87,-123.152C2806.88,-124.55 2917.14,-127.2 3012,-131 3069.77,-133.314 3135.76,-136.91 3181.64,-139.562"/>
<polygon fill="#9a32cd" stroke="#9a32cd" points="2740.73,-119.648 2730.66,-122.938 2740.58,-126.647 2740.73,-119.648"/>
<text text-anchor="middle" x="2949" y="-135" font-family="Helvetica,sans-Serif" font-size="10.00"> write_reqs</text>
</g>
<!-- Node4&#45;&gt;Node26 -->
<g id="edge80" class="edge"><title>Node4&#45;&gt;Node26</title>
<path fill="none" stroke="#9a32cd" stroke-dasharray="5,2" d="M2740.76,-132.564C2786.67,-140.817 2849.97,-152.197 2894.7,-160.238"/>
<polygon fill="#9a32cd" stroke="#9a32cd" points="2741.12,-129.073 2730.66,-130.748 2739.88,-135.962 2741.12,-129.073"/>
<text text-anchor="middle" x="2824" y="-158" font-family="Helvetica,sans-Serif" font-size="10.00"> write_reqs</text>
</g>
<!-- Node5 -->
<g id="node8" class="node"><title>Node5</title>
<a xlink:href="structstxxl_1_1choose__int__types.html" target="_top" xlink:title="stxxl::choose_int_types\l\&lt; my_pointer_size \&gt;">
<polygon fill="none" stroke="black" points="250,-388 250,-422 370,-422 370,-388 250,-388"/>
<text text-anchor="start" x="258" y="-409" font-family="Helvetica,sans-Serif" font-size="10.00">stxxl::choose_int_types</text>
<text text-anchor="middle" x="310" y="-396" font-family="Helvetica,sans-Serif" font-size="10.00">&lt; my_pointer_size &gt;</text>
</a>
</g>
<!-- Node5&#45;&gt;Node1 -->
<g id="edge8" class="edge"><title>Node5&#45;&gt;Node1</title>
<path fill="none" stroke="#9a32cd" stroke-dasharray="5,2" d="M380.196,-405C435.337,-405 514.064,-405 583,-405 583,-405 583,-405 3239,-405 3349.79,-405 3404.58,-251.812 3424.23,-179.706"/>
<polygon fill="#9a32cd" stroke="#9a32cd" points="380.182,-401.5 370.182,-405 380.182,-408.5 380.182,-401.5"/>
<text text-anchor="middle" x="1745" y="-448" font-family="Helvetica,sans-Serif" font-size="10.00"> irun</text>
<text text-anchor="middle" x="1745" y="-435" font-family="Helvetica,sans-Serif" font-size="10.00">offset</text>
<text text-anchor="middle" x="1745" y="-422" font-family="Helvetica,sans-Serif" font-size="10.00">m_</text>
<text text-anchor="middle" x="1745" y="-409" font-family="Helvetica,sans-Serif" font-size="10.00">iblock</text>
</g>
<!-- Node15 -->
<g id="node29" class="node"><title>Node15</title>
<a xlink:href="classstxxl_1_1atomic__counted__object.html" target="_top" xlink:title="Provides reference counting abilities for use with counting_ptr with mutex locking. ">
<polygon fill="none" stroke="black" points="526.5,-121 526.5,-155 639.5,-155 639.5,-121 526.5,-121"/>
<text text-anchor="start" x="534.5" y="-142" font-family="Helvetica,sans-Serif" font-size="10.00">stxxl::atomic_counted</text>
<text text-anchor="middle" x="583" y="-129" font-family="Helvetica,sans-Serif" font-size="10.00">_object</text>
</a>
</g>
<!-- Node5&#45;&gt;Node15 -->
<g id="edge36" class="edge"><title>Node5&#45;&gt;Node15</title>
<path fill="none" stroke="#9a32cd" stroke-dasharray="5,2" d="M334.65,-380.891C389.007,-327.729 518.077,-201.496 565.3,-155.311"/>
<polygon fill="#9a32cd" stroke="#9a32cd" points="332.195,-378.397 327.493,-387.892 337.089,-383.402 332.195,-378.397"/>
<text text-anchor="middle" x="448" y="-330" font-family="Helvetica,sans-Serif" font-size="10.00"> m_reference_count</text>
</g>
<!-- Node6 -->
<g id="node10" class="node"><title>Node6</title>
<a xlink:href="structstxxl_1_1choose__int__types.html" target="_top" xlink:title="stxxl::choose_int_types\l\&lt; PtrSize \&gt;">
<polygon fill="none" stroke="black" points="0,-388 0,-422 120,-422 120,-388 0,-388"/>
<text text-anchor="start" x="8" y="-409" font-family="Helvetica,sans-Serif" font-size="10.00">stxxl::choose_int_types</text>
<text text-anchor="middle" x="60" y="-396" font-family="Helvetica,sans-Serif" font-size="10.00">&lt; PtrSize &gt;</text>
</a>
</g>
<!-- Node6&#45;&gt;Node5 -->
<g id="edge10" class="edge"><title>Node6&#45;&gt;Node5</title>
<path fill="none" stroke="orange" stroke-dasharray="5,2" d="M130.578,-405C168.196,-405 213.985,-405 249.89,-405"/>
<polygon fill="orange" stroke="orange" points="130.199,-401.5 120.199,-405 130.199,-408.5 130.199,-401.5"/>
<text text-anchor="middle" x="185" y="-409" font-family="Helvetica,sans-Serif" font-size="10.00"> &lt; my_pointer_size &gt;</text>
</g>
<!-- Node7 -->
<g id="node12" class="node"><title>Node7</title>
<a xlink:href="classstxxl_1_1typed__block.html" target="_top" xlink:title="Block containing elements of fixed length. ">
<polygon fill="none" stroke="black" points="2886.5,-205.5 2886.5,-252.5 3011.5,-252.5 3011.5,-205.5 2886.5,-205.5"/>
<text text-anchor="start" x="2894.5" y="-239.5" font-family="Helvetica,sans-Serif" font-size="10.00">stxxl::typed_block</text>
<text text-anchor="start" x="2894.5" y="-226.5" font-family="Helvetica,sans-Serif" font-size="10.00">&lt; RawSize, Type, NRef,</text>
<text text-anchor="middle" x="2949" y="-213.5" font-family="Helvetica,sans-Serif" font-size="10.00"> MetaInfoType &gt;</text>
</a>
</g>
<!-- Node7&#45;&gt;Node1 -->
<g id="edge12" class="edge"><title>Node7&#45;&gt;Node1</title>
<path fill="none" stroke="#9a32cd" stroke-dasharray="5,2" d="M3021.98,-225.385C3063.76,-222.609 3117.06,-217.871 3164,-210 3231.05,-198.759 3306,-179.525 3359.72,-164.541"/>
<polygon fill="#9a32cd" stroke="#9a32cd" points="3021.65,-221.899 3011.89,-226.032 3022.09,-228.885 3021.65,-221.899"/>
<text text-anchor="middle" x="3239" y="-210" font-family="Helvetica,sans-Serif" font-size="10.00"> cur_block</text>
</g>
<!-- Node7&#45;&gt;Node25 -->
<g id="edge74" class="edge"><title>Node7&#45;&gt;Node25</title>
<path fill="none" stroke="#9a32cd" stroke-dasharray="5,2" d="M3013.93,-202.053C3019.32,-200.213 3024.73,-198.498 3030,-197 3088.2,-180.47 3105.83,-189.654 3164,-173 3176.13,-169.526 3189.01,-164.786 3200.6,-160.101"/>
<polygon fill="#9a32cd" stroke="#9a32cd" points="3012.52,-198.839 3004.27,-205.483 3014.87,-205.436 3012.52,-198.839"/>
<text text-anchor="middle" x="3097" y="-201" font-family="Helvetica,sans-Serif" font-size="10.00"> write_buffers</text>
</g>
<!-- Node8 -->
<g id="node14" class="node"><title>Node8</title>
<a xlink:href="classstxxl_1_1mng__local_1_1expand__struct.html" target="_top" xlink:title="stxxl::mng_local::expand\l_struct\&lt; mng_local::block\l_w_info\&lt; Type, RawSize, NRef,\l MetaInfoType \&gt;, RawSize \&gt;">
<polygon fill="none" stroke="black" points="2602.5,-263 2602.5,-323 2761.5,-323 2761.5,-263 2602.5,-263"/>
<text text-anchor="start" x="2610.5" y="-310" font-family="Helvetica,sans-Serif" font-size="10.00">stxxl::mng_local::expand</text>
<text text-anchor="start" x="2610.5" y="-297" font-family="Helvetica,sans-Serif" font-size="10.00">_struct&lt; mng_local::block</text>
<text text-anchor="start" x="2610.5" y="-284" font-family="Helvetica,sans-Serif" font-size="10.00">_w_info&lt; Type, RawSize, NRef,</text>
<text text-anchor="middle" x="2682" y="-271" font-family="Helvetica,sans-Serif" font-size="10.00"> MetaInfoType &gt;, RawSize &gt;</text>
</a>
</g>
<!-- Node8&#45;&gt;Node7 -->
<g id="edge14" class="edge"><title>Node8&#45;&gt;Node7</title>
<path fill="none" stroke="midnightblue" d="M2771.69,-271.502C2809.26,-262.495 2852.05,-252.24 2886.17,-244.06"/>
<polygon fill="midnightblue" stroke="midnightblue" points="2770.66,-268.15 2761.75,-273.885 2772.29,-274.957 2770.66,-268.15"/>
</g>
<!-- Node9 -->
<g id="node16" class="node"><title>Node9</title>
<a xlink:href="classstxxl_1_1mng__local_1_1add__filler.html" target="_top" xlink:title="stxxl::mng_local::add\l_filler\&lt; mng_local::block\l_w_info\&lt; Type, RawSize,\l NRef, MetaInfoType \&gt;, RawSize\l&#45;sizeof(mng_local::block_w_info\l\&lt; Type, RawSize, NRef, MetaInfoType \&gt;)\&gt;">
<polygon fill="none" stroke="black" points="2246,-122 2246,-208 2452,-208 2452,-122 2246,-122"/>
<text text-anchor="start" x="2254" y="-195" font-family="Helvetica,sans-Serif" font-size="10.00">stxxl::mng_local::add</text>
<text text-anchor="start" x="2254" y="-182" font-family="Helvetica,sans-Serif" font-size="10.00">_filler&lt; mng_local::block</text>
<text text-anchor="start" x="2254" y="-169" font-family="Helvetica,sans-Serif" font-size="10.00">_w_info&lt; Type, RawSize,</text>
<text text-anchor="start" x="2254" y="-156" font-family="Helvetica,sans-Serif" font-size="10.00"> NRef, MetaInfoType &gt;, RawSize</text>
<text text-anchor="start" x="2254" y="-143" font-family="Helvetica,sans-Serif" font-size="10.00">&#45;sizeof(mng_local::block_w_info</text>
<text text-anchor="middle" x="2349" y="-130" font-family="Helvetica,sans-Serif" font-size="10.00">&lt; Type, RawSize, NRef, MetaInfoType &gt;)&gt;</text>
</a>
</g>
<!-- Node9&#45;&gt;Node8 -->
<g id="edge16" class="edge"><title>Node9&#45;&gt;Node8</title>
<path fill="none" stroke="midnightblue" d="M2461.64,-208.297C2508.34,-226.248 2561.38,-246.635 2603.72,-262.909"/>
<polygon fill="midnightblue" stroke="midnightblue" points="2462.67,-204.944 2452.08,-204.623 2460.16,-211.478 2462.67,-204.944"/>
</g>
<!-- Node10 -->
<g id="node18" class="node"><title>Node10</title>
<a xlink:href="classstxxl_1_1mng__local_1_1block__w__info.html" target="_top" xlink:title="stxxl::mng_local::block\l_w_info\&lt; Type, RawSize,\l NRef, MetaInfoType \&gt;">
<polygon fill="none" stroke="black" points="2071,-66.5 2071,-113.5 2201,-113.5 2201,-66.5 2071,-66.5"/>
<text text-anchor="start" x="2079" y="-100.5" font-family="Helvetica,sans-Serif" font-size="10.00">stxxl::mng_local::block</text>
<text text-anchor="start" x="2079" y="-87.5" font-family="Helvetica,sans-Serif" font-size="10.00">_w_info&lt; Type, RawSize,</text>
<text text-anchor="middle" x="2136" y="-74.5" font-family="Helvetica,sans-Serif" font-size="10.00"> NRef, MetaInfoType &gt;</text>
</a>
</g>
<!-- Node10&#45;&gt;Node9 -->
<g id="edge18" class="edge"><title>Node10&#45;&gt;Node9</title>
<path fill="none" stroke="midnightblue" d="M2210.53,-116.243C2221.97,-120.271 2233.95,-124.489 2245.87,-128.688"/>
<polygon fill="midnightblue" stroke="midnightblue" points="2211.66,-112.93 2201.06,-112.91 2209.33,-119.533 2211.66,-112.93"/>
</g>
<!-- Node11 -->
<g id="node20" class="node"><title>Node11</title>
<a xlink:href="classstxxl_1_1mng__local_1_1block__w__bids.html" target="_top" xlink:title="stxxl::mng_local::block\l_w_bids\&lt; Type,((RawSize\l&#45;sizeof(BID\&lt; RawSize \&gt;)*NBids\l&#45;sizeof(MetaInfoType))/sizeof\l(Type)), RawSize, NBids \&gt;">
<polygon fill="none" stroke="black" points="1556,-83.5 1556,-156.5 1714,-156.5 1714,-83.5 1556,-83.5"/>
<text text-anchor="start" x="1564" y="-143.5" font-family="Helvetica,sans-Serif" font-size="10.00">stxxl::mng_local::block</text>
<text text-anchor="start" x="1564" y="-130.5" font-family="Helvetica,sans-Serif" font-size="10.00">_w_bids&lt; Type,((RawSize</text>
<text text-anchor="start" x="1564" y="-117.5" font-family="Helvetica,sans-Serif" font-size="10.00">&#45;sizeof(BID&lt; RawSize &gt;)*NBids</text>
<text text-anchor="start" x="1564" y="-104.5" font-family="Helvetica,sans-Serif" font-size="10.00">&#45;sizeof(MetaInfoType))/sizeof</text>
<text text-anchor="middle" x="1635" y="-91.5" font-family="Helvetica,sans-Serif" font-size="10.00">(Type)), RawSize, NBids &gt;</text>
</a>
</g>
<!-- Node11&#45;&gt;Node10 -->
<g id="edge20" class="edge"><title>Node11&#45;&gt;Node10</title>
<path fill="none" stroke="midnightblue" d="M1724.11,-101.957C1741.27,-99.1209 1759.14,-96.6013 1776,-95 1878.67,-85.2493 1998.55,-85.9908 2070.79,-87.75"/>
<polygon fill="midnightblue" stroke="midnightblue" points="1723.38,-98.5307 1714.11,-103.658 1724.56,-105.432 1723.38,-98.5307"/>
</g>
<!-- Node19 -->
<g id="node42" class="node"><title>Node19</title>
<a xlink:href="classstxxl_1_1mng__local_1_1block__w__info.html" target="_top" xlink:title="Contains per block information for stxxl::typed_block , not intended for direct use. ">
<polygon fill="none" stroke="black" points="1781,-104.5 1781,-151.5 1911,-151.5 1911,-104.5 1781,-104.5"/>
<text text-anchor="start" x="1789" y="-138.5" font-family="Helvetica,sans-Serif" font-size="10.00">stxxl::mng_local::block</text>
<text text-anchor="start" x="1789" y="-125.5" font-family="Helvetica,sans-Serif" font-size="10.00">_w_info&lt; Type, RawSize,</text>
<text text-anchor="middle" x="1846" y="-112.5" font-family="Helvetica,sans-Serif" font-size="10.00"> NBids, MetaInfoType &gt;</text>
</a>
</g>
<!-- Node11&#45;&gt;Node19 -->
<g id="edge50" class="edge"><title>Node11&#45;&gt;Node19</title>
<path fill="none" stroke="midnightblue" d="M1724.32,-123.386C1743.29,-124.106 1762.98,-124.852 1780.85,-125.53"/>
<polygon fill="midnightblue" stroke="midnightblue" points="1724.29,-119.883 1714.17,-123.002 1724.03,-126.878 1724.29,-119.883"/>
</g>
<!-- Node12 -->
<g id="node22" class="node"><title>Node12</title>
<a xlink:href="classstxxl_1_1mng__local_1_1element__block.html" target="_top" xlink:title="Contains data elements for stxxl::typed_block , not intended for direct use. ">
<polygon fill="none" stroke="black" points="1070,-164 1070,-198 1198,-198 1198,-164 1070,-164"/>
<text text-anchor="start" x="1078" y="-185" font-family="Helvetica,sans-Serif" font-size="10.00">stxxl::mng_local::element</text>
<text text-anchor="middle" x="1134" y="-172" font-family="Helvetica,sans-Serif" font-size="10.00">_block&lt; Type, Size &gt;</text>
</a>
</g>
<!-- Node12&#45;&gt;Node11 -->
<g id="edge22" class="edge"><title>Node12&#45;&gt;Node11</title>
<path fill="none" stroke="midnightblue" d="M1208.39,-195.276C1290.95,-208.088 1427.15,-220.135 1538,-186 1557.66,-179.945 1576.91,-168.395 1593.01,-156.628"/>
<polygon fill="midnightblue" stroke="midnightblue" points="1208.78,-191.793 1198.35,-193.673 1207.67,-198.706 1208.78,-191.793"/>
</g>
<!-- Node18 -->
<g id="node38" class="node"><title>Node18</title>
<a xlink:href="classstxxl_1_1mng__local_1_1block__w__bids.html" target="_top" xlink:title="Contains BID references for stxxl::typed_block , not intended for direct use. ">
<polygon fill="none" stroke="black" points="1250,-118.5 1250,-165.5 1408,-165.5 1408,-118.5 1250,-118.5"/>
<text text-anchor="start" x="1258" y="-152.5" font-family="Helvetica,sans-Serif" font-size="10.00">stxxl::mng_local::block</text>
<text text-anchor="start" x="1258" y="-139.5" font-family="Helvetica,sans-Serif" font-size="10.00">_w_bids&lt; Type, Size, RawSize,</text>
<text text-anchor="middle" x="1329" y="-126.5" font-family="Helvetica,sans-Serif" font-size="10.00"> NBids &gt;</text>
</a>
</g>
<!-- Node12&#45;&gt;Node18 -->
<g id="edge44" class="edge"><title>Node12&#45;&gt;Node18</title>
<path fill="none" stroke="midnightblue" d="M1207.96,-166.208C1221.66,-163.468 1236.02,-160.596 1249.86,-157.827"/>
<polygon fill="midnightblue" stroke="midnightblue" points="1207.24,-162.783 1198.12,-168.176 1208.61,-169.647 1207.24,-162.783"/>
</g>
<!-- Node13 -->
<g id="node24" class="node"><title>Node13</title>
<a xlink:href="structstxxl_1_1BID.html" target="_top" xlink:title="stxxl::BID\&lt; raw_size \&gt;">
<polygon fill="none" stroke="black" points="1075,-105.5 1075,-126.5 1193,-126.5 1193,-105.5 1075,-105.5"/>
<text text-anchor="middle" x="1134" y="-113.5" font-family="Helvetica,sans-Serif" font-size="10.00">stxxl::BID&lt; raw_size &gt;</text>
</a>
</g>
<!-- Node13&#45;&gt;Node11 -->
<g id="edge24" class="edge"><title>Node13&#45;&gt;Node11</title>
<path fill="none" stroke="#9a32cd" stroke-dasharray="5,2" d="M1194.04,-103.642C1211.96,-100.497 1231.7,-97.5658 1250,-96 1355.59,-86.9637 1477.76,-98.2703 1555.66,-108.222"/>
<polygon fill="#9a32cd" stroke="#9a32cd" points="1193.22,-100.232 1184,-105.456 1194.47,-107.12 1193.22,-100.232"/>
<text text-anchor="middle" x="1329" y="-100" font-family="Helvetica,sans-Serif" font-size="10.00"> ref</text>
</g>
<!-- Node13&#45;&gt;Node18 -->
<g id="edge46" class="edge"><title>Node13&#45;&gt;Node18</title>
<path fill="none" stroke="#9a32cd" stroke-dasharray="5,2" d="M1203.26,-125.234C1218.28,-127.237 1234.27,-129.37 1249.65,-131.419"/>
<polygon fill="#9a32cd" stroke="#9a32cd" points="1203.41,-121.724 1193.04,-123.871 1202.49,-128.662 1203.41,-121.724"/>
<text text-anchor="middle" x="1224" y="-133" font-family="Helvetica,sans-Serif" font-size="10.00"> ref</text>
</g>
<!-- Node14&#45;&gt;Node13 -->
<g id="edge26" class="edge"><title>Node14&#45;&gt;Node13</title>
<path fill="none" stroke="#9a32cd" stroke-dasharray="5,2" d="M808.546,-108.194C827.103,-106.546 849.684,-104.811 870,-104 915.297,-102.191 926.698,-102.324 972,-104 1006.1,-105.261 1044.16,-108.011 1074.81,-110.561"/>
<polygon fill="#9a32cd" stroke="#9a32cd" points="808.052,-104.724 798.412,-109.12 808.689,-111.695 808.052,-104.724"/>
<text text-anchor="middle" x="921" y="-108" font-family="Helvetica,sans-Serif" font-size="10.00"> storage</text>
</g>
<!-- Node17 -->
<g id="node35" class="node"><title>Node17</title>
<a xlink:href="structstxxl_1_1BID.html" target="_top" xlink:title="Block identifier class. ">
<polygon fill="none" stroke="black" points="870.5,-126.5 870.5,-147.5 971.5,-147.5 971.5,-126.5 870.5,-126.5"/>
<text text-anchor="middle" x="921" y="-134.5" font-family="Helvetica,sans-Serif" font-size="10.00">stxxl::BID&lt; SIZE &gt;</text>
</a>
</g>
<!-- Node14&#45;&gt;Node17 -->
<g id="edge40" class="edge"><title>Node14&#45;&gt;Node17</title>
<path fill="none" stroke="#9a32cd" stroke-dasharray="5,2" d="M808.083,-118.305C827.001,-121.437 850.115,-125.264 870.491,-128.638"/>
<polygon fill="#9a32cd" stroke="#9a32cd" points="808.485,-114.824 798.048,-116.644 807.342,-121.73 808.485,-114.824"/>
<text text-anchor="middle" x="834" y="-129" font-family="Helvetica,sans-Serif" font-size="10.00"> storage</text>
</g>
<!-- Node15&#45;&gt;Node14 -->
<g id="edge30" class="edge"><title>Node15&#45;&gt;Node14</title>
<path fill="none" stroke="#9a32cd" stroke-dasharray="5,2" d="M649.733,-128.722C681.451,-124.312 717.657,-119.278 741.984,-115.895"/>
<polygon fill="#9a32cd" stroke="#9a32cd" points="649.036,-125.285 639.614,-130.129 650,-132.218 649.036,-125.285"/>
<text text-anchor="middle" x="691" y="-131" font-family="Helvetica,sans-Serif" font-size="10.00"> m_request_ref</text>
</g>
<!-- Node16&#45;&gt;Node15 -->
<g id="edge32" class="edge"><title>Node16&#45;&gt;Node15</title>
<path fill="none" stroke="#9a32cd" stroke-dasharray="5,2" d="M355.875,-134.672C402.83,-135.36 475.885,-136.431 526.403,-137.171"/>
<polygon fill="#9a32cd" stroke="#9a32cd" points="355.74,-131.17 345.69,-134.523 355.638,-138.169 355.74,-131.17"/>
<text text-anchor="middle" x="448" y="-140" font-family="Helvetica,sans-Serif" font-size="10.00"> m_reference_count_mutex</text>
</g>
<!-- Node17&#45;&gt;Node13 -->
<g id="edge38" class="edge"><title>Node17&#45;&gt;Node13</title>
<path fill="none" stroke="orange" stroke-dasharray="5,2" d="M981.834,-131.002C1011.07,-128.12 1045.97,-124.68 1074.96,-121.821"/>
<polygon fill="orange" stroke="orange" points="981.357,-127.532 971.748,-131.997 982.043,-134.499 981.357,-127.532"/>
<text text-anchor="middle" x="1021" y="-133" font-family="Helvetica,sans-Serif" font-size="10.00"> &lt; raw_size &gt;</text>
</g>
<!-- Node18&#45;&gt;Node11 -->
<g id="edge42" class="edge"><title>Node18&#45;&gt;Node11</title>
<path fill="none" stroke="orange" stroke-dasharray="5,2" d="M1418.27,-121.946C1420.87,-121.596 1423.45,-121.279 1426,-121 1468.74,-116.323 1516.7,-115.761 1555.88,-116.508"/>
<polygon fill="orange" stroke="orange" points="1417.56,-118.515 1408.18,-123.451 1418.59,-125.438 1417.56,-118.515"/>
<text text-anchor="start" x="1426" y="-177" font-family="Helvetica,sans-Serif" font-size="10.00"> &lt; Type,((RawSize&#45;sizeof</text>
<text text-anchor="start" x="1426" y="-164" font-family="Helvetica,sans-Serif" font-size="10.00">(BID&lt; RawSize &gt;)*NBids</text>
<text text-anchor="start" x="1426" y="-151" font-family="Helvetica,sans-Serif" font-size="10.00">&#45;sizeof(MetaInfoType))</text>
<text text-anchor="start" x="1426" y="-138" font-family="Helvetica,sans-Serif" font-size="10.00">/sizeof(Type)), RawSize,</text>
<text text-anchor="middle" x="1482" y="-125" font-family="Helvetica,sans-Serif" font-size="10.00"> NBids &gt;</text>
</g>
<!-- Node19&#45;&gt;Node10 -->
<g id="edge48" class="edge"><title>Node19&#45;&gt;Node10</title>
<path fill="none" stroke="orange" stroke-dasharray="5,2" d="M1921.31,-113.942C1925.6,-113.256 1929.85,-112.602 1934,-112 1979.56,-105.386 2031.16,-99.7982 2070.81,-95.9091"/>
<polygon fill="orange" stroke="orange" points="1920.57,-110.517 1911.27,-115.597 1921.71,-117.424 1920.57,-110.517"/>
<text text-anchor="start" x="1934" y="-129" font-family="Helvetica,sans-Serif" font-size="10.00"> &lt; Type, RawSize, NRef,</text>
<text text-anchor="middle" x="1990" y="-116" font-family="Helvetica,sans-Serif" font-size="10.00"> MetaInfoType &gt;</text>
</g>
<!-- Node20 -->
<g id="node45" class="node"><title>Node20</title>
<a xlink:href="classstxxl_1_1mng__local_1_1filler__struct.html" target="_top" xlink:title="stxxl::mng_local::filler\l_struct\&lt; FillSize \&gt;">
<polygon fill="none" stroke="black" points="1579,-233 1579,-267 1691,-267 1691,-233 1579,-233"/>
<text text-anchor="start" x="1587" y="-254" font-family="Helvetica,sans-Serif" font-size="10.00">stxxl::mng_local::filler</text>
<text text-anchor="middle" x="1635" y="-241" font-family="Helvetica,sans-Serif" font-size="10.00">_struct&lt; FillSize &gt;</text>
</a>
</g>
<!-- Node20&#45;&gt;Node9 -->
<g id="edge52" class="edge"><title>Node20&#45;&gt;Node9</title>
<path fill="none" stroke="#9a32cd" stroke-dasharray="5,2" d="M1700.79,-232.394C1761.04,-216.959 1852.89,-195.143 1934,-183 1991.31,-174.42 2006.13,-176.036 2064,-173 2124.18,-169.843 2191.58,-167.879 2245.72,-166.688"/>
<polygon fill="#9a32cd" stroke="#9a32cd" points="1699.84,-229.024 1691.03,-234.909 1701.59,-235.803 1699.84,-229.024"/>
<text text-anchor="middle" x="1990" y="-187" font-family="Helvetica,sans-Serif" font-size="10.00"> filler</text>
</g>
<!-- Node22 -->
<g id="node49" class="node"><title>Node22</title>
<a xlink:href="classstxxl_1_1mng__local_1_1add__filler.html" target="_top" xlink:title="Contains per block filler for stxxl::typed_block , not intended for direct use. ">
<polygon fill="none" stroke="black" points="1776,-233 1776,-267 1916,-267 1916,-233 1776,-233"/>
<text text-anchor="start" x="1784" y="-254" font-family="Helvetica,sans-Serif" font-size="10.00">stxxl::mng_local::add</text>
<text text-anchor="middle" x="1846" y="-241" font-family="Helvetica,sans-Serif" font-size="10.00">_filler&lt; BaseType, FillSize &gt;</text>
</a>
</g>
<!-- Node20&#45;&gt;Node22 -->
<g id="edge58" class="edge"><title>Node20&#45;&gt;Node22</title>
<path fill="none" stroke="#9a32cd" stroke-dasharray="5,2" d="M1701.56,-250C1725.24,-250 1751.96,-250 1775.93,-250"/>
<polygon fill="#9a32cd" stroke="#9a32cd" points="1701.27,-246.5 1691.27,-250 1701.27,-253.5 1701.27,-246.5"/>
<text text-anchor="middle" x="1745" y="-254" font-family="Helvetica,sans-Serif" font-size="10.00"> filler</text>
</g>
<!-- Node24 -->
<g id="node54" class="node"><title>Node24</title>
<a xlink:href="classstxxl_1_1mng__local_1_1add__filler.html" target="_top" xlink:title="stxxl::mng_local::add\l_filler\&lt; Type, RawSize\l&#45;sizeof(Type)\&gt;">
<polygon fill="none" stroke="black" points="2078,-284.5 2078,-331.5 2194,-331.5 2194,-284.5 2078,-284.5"/>
<text text-anchor="start" x="2086" y="-318.5" font-family="Helvetica,sans-Serif" font-size="10.00">stxxl::mng_local::add</text>
<text text-anchor="start" x="2086" y="-305.5" font-family="Helvetica,sans-Serif" font-size="10.00">_filler&lt; Type, RawSize</text>
<text text-anchor="middle" x="2136" y="-292.5" font-family="Helvetica,sans-Serif" font-size="10.00">&#45;sizeof(Type)&gt;</text>
</a>
</g>
<!-- Node20&#45;&gt;Node24 -->
<g id="edge64" class="edge"><title>Node20&#45;&gt;Node24</title>
<path fill="none" stroke="#9a32cd" stroke-dasharray="5,2" d="M1701,-263.231C1724.6,-267.68 1751.43,-272.418 1776,-276 1881.86,-291.433 2006.4,-300.503 2077.78,-304.84"/>
<polygon fill="#9a32cd" stroke="#9a32cd" points="1701.58,-259.778 1691.1,-261.346 1700.27,-266.654 1701.58,-259.778"/>
<text text-anchor="middle" x="1846" y="-296" font-family="Helvetica,sans-Serif" font-size="10.00"> filler</text>
</g>
<!-- Node21 -->
<g id="node47" class="node"><title>Node21</title>
<a xlink:href="classstxxl_1_1mng__local_1_1filler__struct.html" target="_top" xlink:title="stxxl::mng_local::filler\l_struct\&lt; Bytes \&gt;">
<polygon fill="none" stroke="black" points="1273,-233 1273,-267 1385,-267 1385,-233 1273,-233"/>
<text text-anchor="start" x="1281" y="-254" font-family="Helvetica,sans-Serif" font-size="10.00">stxxl::mng_local::filler</text>
<text text-anchor="middle" x="1329" y="-241" font-family="Helvetica,sans-Serif" font-size="10.00">_struct&lt; Bytes &gt;</text>
</a>
</g>
<!-- Node21&#45;&gt;Node20 -->
<g id="edge54" class="edge"><title>Node21&#45;&gt;Node20</title>
<path fill="none" stroke="orange" stroke-dasharray="5,2" d="M1395.44,-250C1450.27,-250 1527.22,-250 1578.97,-250"/>
<polygon fill="orange" stroke="orange" points="1395.13,-246.5 1385.13,-250 1395.13,-253.5 1395.13,-246.5"/>
<text text-anchor="middle" x="1482" y="-254" font-family="Helvetica,sans-Serif" font-size="10.00"> &lt; FillSize &gt;</text>
</g>
<!-- Node22&#45;&gt;Node9 -->
<g id="edge56" class="edge"><title>Node22&#45;&gt;Node9</title>
<path fill="none" stroke="orange" stroke-dasharray="5,2" d="M1916.78,-230.383C1959.2,-219.232 2014.36,-205.784 2064,-197 2123.94,-186.393 2191.62,-178.619 2245.99,-173.392"/>
<polygon fill="orange" stroke="orange" points="1915.88,-227.001 1907.11,-232.944 1917.67,-233.768 1915.88,-227.001"/>
<text text-anchor="start" x="2064.5" y="-266" font-family="Helvetica,sans-Serif" font-size="10.00"> &lt; mng_local::block</text>
<text text-anchor="start" x="2064.5" y="-253" font-family="Helvetica,sans-Serif" font-size="10.00">_w_info&lt; Type, RawSize,</text>
<text text-anchor="start" x="2064.5" y="-240" font-family="Helvetica,sans-Serif" font-size="10.00"> NRef, MetaInfoType &gt;,</text>
<text text-anchor="start" x="2064.5" y="-227" font-family="Helvetica,sans-Serif" font-size="10.00"> RawSize&#45;sizeof(mng_local</text>
<text text-anchor="start" x="2064.5" y="-214" font-family="Helvetica,sans-Serif" font-size="10.00">::block_w_info&lt; Type, RawSize,</text>
<text text-anchor="middle" x="2136" y="-201" font-family="Helvetica,sans-Serif" font-size="10.00"> NRef, MetaInfoType &gt;)&gt;</text>
</g>
<!-- Node22&#45;&gt;Node24 -->
<g id="edge66" class="edge"><title>Node22&#45;&gt;Node24</title>
<path fill="none" stroke="orange" stroke-dasharray="5,2" d="M1926.62,-250.587C1963.51,-252.444 2007.48,-256.913 2046,-267 2061.61,-271.089 2077.89,-277.703 2092.25,-284.436"/>
<polygon fill="orange" stroke="orange" points="1926.56,-247.081 1916.41,-250.13 1926.25,-254.074 1926.56,-247.081"/>
<text text-anchor="start" x="1935.5" y="-284" font-family="Helvetica,sans-Serif" font-size="10.00"> &lt; Type, RawSize&#45;sizeof</text>
<text text-anchor="middle" x="1990" y="-271" font-family="Helvetica,sans-Serif" font-size="10.00">(Type)&gt;</text>
</g>
<!-- Node23 -->
<g id="node52" class="node"><title>Node23</title>
<a xlink:href="classstxxl_1_1mng__local_1_1expand__struct.html" target="_top" xlink:title="Helper to compute the size of the filler , not intended for direct use. ">
<polygon fill="none" stroke="black" points="2283,-280 2283,-314 2415,-314 2415,-280 2283,-280"/>
<text text-anchor="start" x="2291" y="-301" font-family="Helvetica,sans-Serif" font-size="10.00">stxxl::mng_local::expand</text>
<text text-anchor="middle" x="2349" y="-288" font-family="Helvetica,sans-Serif" font-size="10.00">_struct&lt; Type, RawSize &gt;</text>
</a>
</g>
<!-- Node23&#45;&gt;Node8 -->
<g id="edge60" class="edge"><title>Node23&#45;&gt;Node8</title>
<path fill="none" stroke="orange" stroke-dasharray="5,2" d="M2425.38,-294.874C2440.18,-294.527 2455.57,-294.213 2470,-294 2513.79,-293.354 2562.68,-293.092 2602.47,-292.998"/>
<polygon fill="orange" stroke="orange" points="2425.16,-291.378 2415.25,-295.117 2425.33,-298.376 2425.16,-291.378"/>
<text text-anchor="start" x="2470" y="-337" font-family="Helvetica,sans-Serif" font-size="10.00"> &lt; mng_local::block</text>
<text text-anchor="start" x="2470" y="-324" font-family="Helvetica,sans-Serif" font-size="10.00">_w_info&lt; Type, RawSize,</text>
<text text-anchor="start" x="2470" y="-311" font-family="Helvetica,sans-Serif" font-size="10.00"> NRef, MetaInfoType &gt;,</text>
<text text-anchor="middle" x="2527" y="-298" font-family="Helvetica,sans-Serif" font-size="10.00"> RawSize &gt;</text>
</g>
<!-- Node24&#45;&gt;Node23 -->
<g id="edge62" class="edge"><title>Node24&#45;&gt;Node23</title>
<path fill="none" stroke="midnightblue" d="M2204.4,-304.467C2229.57,-303.168 2258.02,-301.699 2282.97,-300.41"/>
<polygon fill="midnightblue" stroke="midnightblue" points="2204.01,-300.983 2194.2,-304.994 2204.37,-307.974 2204.01,-300.983"/>
</g>
<!-- Node25&#45;&gt;Node1 -->
<g id="edge68" class="edge"><title>Node25&#45;&gt;Node1</title>
<path fill="none" stroke="#9a32cd" stroke-dasharray="5,2" d="M3306.63,-143C3323.77,-143 3342.27,-143 3359.67,-143"/>
<polygon fill="#9a32cd" stroke="#9a32cd" points="3306.16,-139.5 3296.16,-143 3306.16,-146.5 3306.16,-139.5"/>
<text text-anchor="middle" x="3328" y="-147" font-family="Helvetica,sans-Serif" font-size="10.00"> writer</text>
</g>
<!-- Node26&#45;&gt;Node25 -->
<g id="edge76" class="edge"><title>Node26&#45;&gt;Node25</title>
<path fill="none" stroke="orange" stroke-dasharray="5,2" d="M3013.47,-161.795C3019.06,-161.158 3024.63,-160.55 3030,-160 3081.24,-154.755 3139.69,-150.114 3181.72,-147.012"/>
<polygon fill="orange" stroke="orange" points="3012.96,-158.33 3003.43,-162.965 3013.77,-165.283 3012.96,-158.33"/>
<text text-anchor="middle" x="3097" y="-164" font-family="Helvetica,sans-Serif" font-size="10.00"> &lt; stxxl::typed_block &gt;</text>
</g>
</g>
</svg>
