<?xml version="1.0" encoding="UTF-8" standalone="no"?>
<!DOCTYPE svg PUBLIC "-//W3C//DTD SVG 1.1//EN"
 "http://www.w3.org/Graphics/SVG/1.1/DTD/svg11.dtd">
<!-- Generated by graphviz version 2.38.0 (20140413.2041)
 -->
<!-- Title: stxxl::stream::make_tuple&lt; Input1, Input2, Stopper, Stopper, Stopper, Stopper &gt; Pages: 1 -->
<svg width="223pt" height="261pt"
 viewBox="0.00 0.00 222.50 261.00" xmlns="http://www.w3.org/2000/svg" xmlns:xlink="http://www.w3.org/1999/xlink">
<g id="graph0" class="graph" transform="scale(1 1) rotate(0) translate(4 257)">
<title>stxxl::stream::make_tuple&lt; Input1, Input2, Stopper, Stopper, Stopper, Stopper &gt;</title>
<!-- Node1 -->
<g id="node1" class="node"><title>Node1</title>
<polygon fill="#bfbfbf" stroke="black" points="14.5,-0.5 14.5,-52.5 150.5,-52.5 150.5,-0.5 14.5,-0.5"/>
<text text-anchor="start" x="22.5" y="-40.5" font-family="Helvetica,sans-Serif" font-size="10.00">stxxl::stream::make</text>
<text text-anchor="start" x="22.5" y="-29.5" font-family="Helvetica,sans-Serif" font-size="10.00">_tuple&lt; Input1, Input2,</text>
<text text-anchor="start" x="22.5" y="-18.5" font-family="Helvetica,sans-Serif" font-size="10.00"> Stopper, Stopper, Stopper,</text>
<text text-anchor="middle" x="82.5" y="-7.5" font-family="Helvetica,sans-Serif" font-size="10.00"> Stopper &gt;</text>
</g>
<!-- Node2 -->
<g id="node2" class="node"><title>Node2</title>
<g id="a_node2"><a xlink:href="structstxxl_1_1tuple.html" target="_top" xlink:title="stxxl::tuple\&lt; typename\l Input1::value_type, typename\l Input2::value_type \&gt;">
<polygon fill="none" stroke="black" points="8,-100.5 8,-141.5 157,-141.5 157,-100.5 8,-100.5"/>
<text text-anchor="start" x="16" y="-129.5" font-family="Helvetica,sans-Serif" font-size="10.00">stxxl::tuple&lt; typename</text>
<text text-anchor="start" x="16" y="-118.5" font-family="Helvetica,sans-Serif" font-size="10.00"> Input1::value_type, typename</text>
<text text-anchor="middle" x="82.5" y="-107.5" font-family="Helvetica,sans-Serif" font-size="10.00"> Input2::value_type &gt;</text>
</a>
</g>
</g>
<!-- Node2&#45;&gt;Node1 -->
<g id="edge1" class="edge"><title>Node2&#45;&gt;Node1</title>
<path fill="none" stroke="#9a32cd" stroke-dasharray="5,2" d="M82.5,-90.2903C82.5,-78.181 82.5,-64.3294 82.5,-52.7226"/>
<polygon fill="#9a32cd" stroke="#9a32cd" points="79.0001,-90.3831 82.5,-100.383 86.0001,-90.3832 79.0001,-90.3831"/>
<text text-anchor="middle" x="99.5" y="-74" font-family="Helvetica,sans-Serif" font-size="10.00"> current</text>
</g>
<!-- Node3 -->
<g id="node3" class="node"><title>Node3</title>
<g id="a_node3"><a xlink:href="structstxxl_1_1Plug.html" target="_top" xlink:title="stxxl::Plug">
<polygon fill="none" stroke="black" points="0,-228 0,-247 63,-247 63,-228 0,-228"/>
<text text-anchor="middle" x="31.5" y="-235" font-family="Helvetica,sans-Serif" font-size="10.00">stxxl::Plug</text>
</a>
</g>
</g>
<!-- Node3&#45;&gt;Node2 -->
<g id="edge2" class="edge"><title>Node3&#45;&gt;Node2</title>
<path fill="none" stroke="#9a32cd" stroke-dasharray="5,2" d="M39.4787,-218.587C48.7886,-197.685 64.1314,-163.239 73.7573,-141.628"/>
<polygon fill="#9a32cd" stroke="#9a32cd" points="36.2049,-217.335 35.3333,-227.894 42.5993,-220.183 36.2049,-217.335"/>
<text text-anchor="middle" x="78" y="-196" font-family="Helvetica,sans-Serif" font-size="10.00"> third</text>
<text text-anchor="middle" x="78" y="-185" font-family="Helvetica,sans-Serif" font-size="10.00">fifth</text>
<text text-anchor="middle" x="78" y="-174" font-family="Helvetica,sans-Serif" font-size="10.00">fourth</text>
<text text-anchor="middle" x="78" y="-163" font-family="Helvetica,sans-Serif" font-size="10.00">sixth</text>
</g>
<!-- Node4 -->
<g id="node4" class="node"><title>Node4</title>
<g id="a_node4"><a xlink:href="structstxxl_1_1tuple.html" target="_top" xlink:title="k&#45;Tuple data type ">
<polygon fill="none" stroke="black" points="81,-222.5 81,-252.5 186,-252.5 186,-222.5 81,-222.5"/>
<text text-anchor="start" x="89" y="-240.5" font-family="Helvetica,sans-Serif" font-size="10.00">stxxl::tuple&lt; T1, T2,</text>
<text text-anchor="middle" x="133.5" y="-229.5" font-family="Helvetica,sans-Serif" font-size="10.00"> T3, T4, T5, T6 &gt;</text>
</a>
</g>
</g>
<!-- Node4&#45;&gt;Node2 -->
<g id="edge3" class="edge"><title>Node4&#45;&gt;Node2</title>
<path fill="none" stroke="orange" stroke-dasharray="5,2" d="M123.141,-213.242C113.741,-192.138 100.038,-161.374 91.1948,-141.521"/>
<polygon fill="orange" stroke="orange" points="119.98,-214.749 127.246,-222.46 126.375,-211.901 119.98,-214.749"/>
<text text-anchor="start" x="117.5" y="-190.5" font-family="Helvetica,sans-Serif" font-size="10.00"> &lt; typename Input1::</text>
<text text-anchor="start" x="117.5" y="-179.5" font-family="Helvetica,sans-Serif" font-size="10.00">value_type, typename</text>
<text text-anchor="middle" x="166" y="-168.5" font-family="Helvetica,sans-Serif" font-size="10.00"> Input2::value_type &gt;</text>
</g>
</g>
</svg>
