<?xml version="1.0" encoding="UTF-8" standalone="no"?>
<!DOCTYPE svg PUBLIC "-//W3C//DTD SVG 1.1//EN"
 "http://www.w3.org/Graphics/SVG/1.1/DTD/svg11.dtd">
<!-- Generated by graphviz version 2.26.3 (20100126.1600)
 -->
<!-- Title: stxxl::sequence&lt; ValueType, BlockSize, AllocStr, SizeType &gt;::reverse_stream Pages: 1 -->
<svg width="3582pt" height="561pt"
 viewBox="0.00 0.00 3582.00 560.56" xmlns="http://www.w3.org/2000/svg" xmlns:xlink="http://www.w3.org/1999/xlink">
<g id="graph1" class="graph" transform="scale(1 1) rotate(0) translate(4 556.555)">
<title>stxxl::sequence&lt; ValueType, BlockSize, AllocStr, SizeType &gt;::reverse_stream</title>
<!-- Node1 -->
<g id="node1" class="node"><title>Node1</title>
<polygon fill="#bfbfbf" stroke="black" points="3422,-39.5 3422,-86.5 3574,-86.5 3574,-39.5 3422,-39.5"/>
<text text-anchor="start" x="3430" y="-73.5" font-family="Helvetica,sans-Serif" font-size="10.00">stxxl::sequence&lt; ValueType,</text>
<text text-anchor="start" x="3430" y="-60.5" font-family="Helvetica,sans-Serif" font-size="10.00"> BlockSize, AllocStr, SizeType</text>
<text text-anchor="middle" x="3498" y="-47.5" font-family="Helvetica,sans-Serif" font-size="10.00"> &gt;::reverse_stream</text>
</g>
<!-- Node2 -->
<g id="node2" class="node"><title>Node2</title>
<a xlink:href="classstxxl_1_1sequence.html" target="_top" xlink:title="External sequence or deque container without random access. &#160;&#160;Introduction &#160;to sequence container: se...">
<polygon fill="none" stroke="black" points="3164.5,-290 3164.5,-324 3325.5,-324 3325.5,-290 3164.5,-290"/>
<text text-anchor="start" x="3172.5" y="-311" font-family="Helvetica,sans-Serif" font-size="10.00">stxxl::sequence&lt; ValueType,</text>
<text text-anchor="middle" x="3245" y="-298" font-family="Helvetica,sans-Serif" font-size="10.00"> BlockSize, AllocStr, SizeType &gt;</text>
</a>
</g>
<!-- Node2&#45;&gt;Node1 -->
<g id="edge2" class="edge"><title>Node2&#45;&gt;Node1</title>
<path fill="none" stroke="#9a32cd" stroke-dasharray="5,2" d="M3270.07,-282.818C3318.66,-235.96 3425.08,-133.321 3473.34,-86.7825"/>
<polygon fill="#9a32cd" stroke="#9a32cd" points="3267.56,-280.381 3262.79,-289.842 3272.42,-285.42 3267.56,-280.381"/>
<text text-anchor="middle" x="3374" y="-210" font-family="Helvetica,sans-Serif" font-size="10.00"> m_sequence</text>
</g>
<!-- Node3 -->
<g id="node4" class="node"><title>Node3</title>
<a xlink:href="classstxxl_1_1noncopyable.html" target="_top" xlink:title="stxxl::noncopyable">
<polygon fill="none" stroke="black" points="28,-371.5 28,-392.5 126,-392.5 126,-371.5 28,-371.5"/>
<text text-anchor="middle" x="77" y="-379.5" font-family="Helvetica,sans-Serif" font-size="10.00">stxxl::noncopyable</text>
</a>
</g>
<!-- Node3&#45;&gt;Node2 -->
<g id="edge4" class="edge"><title>Node3&#45;&gt;Node2</title>
<path fill="none" stroke="#8b1a1a" d="M135.396,-394.442C194.124,-405.857 287.413,-421 369,-421 369,-421 369,-421 765,-421 893.669,-421 923.331,-459 1052,-459 1052,-459 1052,-459 2999,-459 3100.66,-459 3195.42,-363.893 3230.58,-324.141"/>
<polygon fill="#8b1a1a" stroke="#8b1a1a" points="136.047,-391.004 125.559,-392.503 134.693,-397.871 136.047,-391.004"/>
</g>
<!-- Node4 -->
<g id="node6" class="node"><title>Node4</title>
<a xlink:href="classstxxl_1_1read__write__pool.html" target="_top" xlink:title="Implements dynamically resizable buffered writing and prefetched reading pool. ">
<polygon fill="none" stroke="black" points="816,-188 816,-222 928,-222 928,-188 816,-188"/>
<text text-anchor="start" x="824" y="-209" font-family="Helvetica,sans-Serif" font-size="10.00">stxxl::read_write_pool</text>
<text text-anchor="middle" x="872" y="-196" font-family="Helvetica,sans-Serif" font-size="10.00">&lt; BlockType &gt;</text>
</a>
</g>
<!-- Node3&#45;&gt;Node4 -->
<g id="edge8" class="edge"><title>Node3&#45;&gt;Node4</title>
<path fill="none" stroke="#8b1a1a" d="M92.0446,-363.47C109.301,-343.427 139.437,-311.943 172,-294 221.948,-266.477 240.426,-273.801 296,-261 368.368,-244.33 386.32,-238.291 460,-229 586.533,-213.043 736.291,-207.673 815.804,-205.882"/>
<polygon fill="#8b1a1a" stroke="#8b1a1a" points="89.2281,-361.381 85.4682,-371.286 94.5845,-365.887 89.2281,-361.381"/>
</g>
<!-- Node5 -->
<g id="node9" class="node"><title>Node5</title>
<a xlink:href="classstxxl_1_1prefetch__pool.html" target="_top" xlink:title="Implements dynamically resizable prefetching pool. ">
<polygon fill="none" stroke="black" points="605,-109 605,-143 707,-143 707,-109 605,-109"/>
<text text-anchor="start" x="613" y="-130" font-family="Helvetica,sans-Serif" font-size="10.00">stxxl::prefetch_pool</text>
<text text-anchor="middle" x="656" y="-117" font-family="Helvetica,sans-Serif" font-size="10.00">&lt; BlockType &gt;</text>
</a>
</g>
<!-- Node3&#45;&gt;Node5 -->
<g id="edge12" class="edge"><title>Node3&#45;&gt;Node5</title>
<path fill="none" stroke="#8b1a1a" d="M80.7666,-361.041C89.2023,-320.748 113.648,-232.779 172,-191 206.769,-166.106 487.339,-140.079 604.69,-130.166"/>
<polygon fill="#8b1a1a" stroke="#8b1a1a" points="77.2911,-360.576 78.7969,-371.063 84.1597,-361.926 77.2911,-360.576"/>
</g>
<!-- Node10 -->
<g id="node20" class="node"><title>Node10</title>
<a xlink:href="classstxxl_1_1write__pool.html" target="_top" xlink:title="Implements dynamically resizable buffered writing pool. ">
<polygon fill="none" stroke="black" points="473,-238 473,-272 567,-272 567,-238 473,-238"/>
<text text-anchor="start" x="481" y="-259" font-family="Helvetica,sans-Serif" font-size="10.00">stxxl::write_pool&lt;</text>
<text text-anchor="middle" x="520" y="-246" font-family="Helvetica,sans-Serif" font-size="10.00"> BlockType &gt;</text>
</a>
</g>
<!-- Node3&#45;&gt;Node10 -->
<g id="edge24" class="edge"><title>Node3&#45;&gt;Node10</title>
<path fill="none" stroke="#8b1a1a" d="M100.875,-366.025C119.524,-354.216 146.473,-338.585 172,-329 275.652,-290.079 404.766,-269.383 472.867,-260.471"/>
<polygon fill="#8b1a1a" stroke="#8b1a1a" points="98.9363,-363.11 92.4294,-371.471 102.73,-368.993 98.9363,-363.11"/>
</g>
<!-- Node12 -->
<g id="node25" class="node"><title>Node12</title>
<a xlink:href="classstxxl_1_1singleton.html" target="_top" xlink:title="stxxl::singleton\&lt; block\l_manager \&gt;">
<polygon fill="none" stroke="black" points="598.5,-487 598.5,-521 713.5,-521 713.5,-487 598.5,-487"/>
<text text-anchor="start" x="606.5" y="-508" font-family="Helvetica,sans-Serif" font-size="10.00">stxxl::singleton&lt; block</text>
<text text-anchor="middle" x="656" y="-495" font-family="Helvetica,sans-Serif" font-size="10.00">_manager &gt;</text>
</a>
</g>
<!-- Node3&#45;&gt;Node12 -->
<g id="edge30" class="edge"><title>Node3&#45;&gt;Node12</title>
<path fill="none" stroke="#8b1a1a" d="M87.2663,-401.548C102.242,-428.08 132.635,-475.036 172,-500 305.767,-584.831 504.956,-546.904 600.697,-521.005"/>
<polygon fill="#8b1a1a" stroke="#8b1a1a" points="90.3339,-399.863 82.4582,-392.776 84.1955,-403.227 90.3339,-399.863"/>
</g>
<!-- Node13 -->
<g id="node28" class="node"><title>Node13</title>
<a xlink:href="classstxxl_1_1singleton.html" target="_top" xlink:title="stxxl::singleton\&lt; INSTANCE,\l destroy_on_exit \&gt;">
<polygon fill="none" stroke="black" points="296,-487 296,-521 442,-521 442,-487 296,-487"/>
<text text-anchor="start" x="304" y="-508" font-family="Helvetica,sans-Serif" font-size="10.00">stxxl::singleton&lt; INSTANCE,</text>
<text text-anchor="middle" x="369" y="-495" font-family="Helvetica,sans-Serif" font-size="10.00"> destroy_on_exit &gt;</text>
</a>
</g>
<!-- Node3&#45;&gt;Node13 -->
<g id="edge34" class="edge"><title>Node3&#45;&gt;Node13</title>
<path fill="none" stroke="#8b1a1a" d="M90.5487,-400.544C107.181,-421.796 137.465,-455.89 172,-473 210.159,-491.905 257.127,-499.8 295.63,-502.901"/>
<polygon fill="#8b1a1a" stroke="#8b1a1a" points="93.3191,-398.405 84.4763,-392.569 87.7497,-402.645 93.3191,-398.405"/>
</g>
<!-- Node14 -->
<g id="node31" class="node"><title>Node14</title>
<a xlink:href="classstxxl_1_1file.html" target="_top" xlink:title="Defines interface of file. ">
<polygon fill="none" stroke="black" points="844,-308.5 844,-329.5 900,-329.5 900,-308.5 844,-308.5"/>
<text text-anchor="middle" x="872" y="-316.5" font-family="Helvetica,sans-Serif" font-size="10.00">stxxl::file</text>
</a>
</g>
<!-- Node3&#45;&gt;Node14 -->
<g id="edge38" class="edge"><title>Node3&#45;&gt;Node14</title>
<path fill="none" stroke="#8b1a1a" d="M136.077,-376.227C180.133,-372.013 241.801,-366.31 296,-362 518.919,-344.274 575.372,-349.062 798,-328 813.204,-326.562 830.114,-324.537 843.927,-322.772"/>
<polygon fill="#8b1a1a" stroke="#8b1a1a" points="135.734,-372.744 126.115,-377.183 136.403,-379.711 135.734,-372.744"/>
</g>
<!-- Node16 -->
<g id="node36" class="node"><title>Node16</title>
<a xlink:href="classstxxl_1_1mutex.html" target="_top" xlink:title="stxxl::mutex">
<polygon fill="none" stroke="black" points="333.5,-371.5 333.5,-392.5 404.5,-392.5 404.5,-371.5 333.5,-371.5"/>
<text text-anchor="middle" x="369" y="-379.5" font-family="Helvetica,sans-Serif" font-size="10.00">stxxl::mutex</text>
</a>
</g>
<!-- Node3&#45;&gt;Node16 -->
<g id="edge44" class="edge"><title>Node3&#45;&gt;Node16</title>
<path fill="none" stroke="#8b1a1a" d="M136.524,-382C195.682,-382 284.455,-382 333.412,-382"/>
<polygon fill="#8b1a1a" stroke="#8b1a1a" points="136.204,-378.5 126.204,-382 136.204,-385.5 136.204,-378.5"/>
</g>
<!-- Node17 -->
<g id="node40" class="node"><title>Node17</title>
<a xlink:href="classstxxl_1_1disk__allocator.html" target="_top" xlink:title="stxxl::disk_allocator">
<polygon fill="none" stroke="black" points="1000,-372.5 1000,-393.5 1104,-393.5 1104,-372.5 1000,-372.5"/>
<text text-anchor="middle" x="1052" y="-380.5" font-family="Helvetica,sans-Serif" font-size="10.00">stxxl::disk_allocator</text>
</a>
</g>
<!-- Node3&#45;&gt;Node17 -->
<g id="edge50" class="edge"><title>Node3&#45;&gt;Node17</title>
<path fill="none" stroke="#8b1a1a" d="M99.9896,-398.191C118.536,-410.398 145.767,-426.45 172,-435 255.861,-462.332 280.797,-459 369,-459 369,-459 369,-459 765,-459 866.026,-459 980.59,-414.45 1028.74,-393.567"/>
<polygon fill="#8b1a1a" stroke="#8b1a1a" points="101.874,-395.241 91.6251,-392.557 97.9638,-401.046 101.874,-395.241"/>
</g>
<!-- Node4&#45;&gt;Node2 -->
<g id="edge6" class="edge"><title>Node4&#45;&gt;Node2</title>
<path fill="none" stroke="#9a32cd" stroke-dasharray="5,2" d="M938.209,-190.603C1033.52,-173.583 1211.78,-155.898 1338,-228 1374.5,-248.849 1353.41,-286.307 1390,-307 1532.48,-387.581 1962.31,-337 2126,-337 2126,-337 2126,-337 2999,-337 3054.5,-337 3116.53,-329.382 3164.42,-321.824"/>
<polygon fill="#9a32cd" stroke="#9a32cd" points="937.33,-187.206 928.127,-192.457 938.595,-194.091 937.33,-187.206"/>
<text text-anchor="middle" x="1982" y="-350" font-family="Helvetica,sans-Serif" font-size="10.00"> m_pool</text>
</g>
<!-- Node5&#45;&gt;Node4 -->
<g id="edge10" class="edge"><title>Node5&#45;&gt;Node4</title>
<path fill="none" stroke="#9a32cd" stroke-dasharray="5,2" d="M712.261,-146.577C747.47,-159.454 792.285,-175.845 825.481,-187.986"/>
<polygon fill="#9a32cd" stroke="#9a32cd" points="713.197,-143.192 702.603,-143.045 710.792,-149.767 713.197,-143.192"/>
<text text-anchor="middle" x="765" y="-181" font-family="Helvetica,sans-Serif" font-size="10.00"> p_pool</text>
</g>
<!-- Node6 -->
<g id="node12" class="node"><title>Node6</title>
<a xlink:href="structstxxl_1_1choose__int__types.html" target="_top" xlink:title="stxxl::choose_int_types\l\&lt; my_pointer_size \&gt;">
<polygon fill="none" stroke="black" points="309,-82 309,-116 429,-116 429,-82 309,-82"/>
<text text-anchor="start" x="317" y="-103" font-family="Helvetica,sans-Serif" font-size="10.00">stxxl::choose_int_types</text>
<text text-anchor="middle" x="369" y="-90" font-family="Helvetica,sans-Serif" font-size="10.00">&lt; my_pointer_size &gt;</text>
</a>
</g>
<!-- Node6&#45;&gt;Node2 -->
<g id="edge56" class="edge"><title>Node6&#45;&gt;Node2</title>
<path fill="none" stroke="#9a32cd" stroke-dasharray="5,2" d="M434.843,-77.273C437.306,-75.9207 439.701,-74.4971 442,-73 451.747,-66.6517 450.027,-59.9868 460,-54 537.471,-7.49555 565.643,-0 656,-0 656,-0 656,-0 2999,-0 3073.79,-0 3200.65,-224.671 3235.76,-289.615"/>
<polygon fill="#9a32cd" stroke="#9a32cd" points="433.059,-74.2519 425.687,-81.8613 436.196,-80.51 433.059,-74.2519"/>
<text text-anchor="middle" x="1775" y="-17" font-family="Helvetica,sans-Serif" font-size="10.00"> m_blocks2prefetch</text>
<text text-anchor="middle" x="1775" y="-4" font-family="Helvetica,sans-Serif" font-size="10.00">m_alloc_count</text>
</g>
<!-- Node6&#45;&gt;Node5 -->
<g id="edge14" class="edge"><title>Node6&#45;&gt;Node5</title>
<path fill="none" stroke="#9a32cd" stroke-dasharray="5,2" d="M439.252,-104.413C480.317,-107.722 533.132,-112.227 580,-117 588.063,-117.821 596.599,-118.762 604.924,-119.719"/>
<polygon fill="#9a32cd" stroke="#9a32cd" points="439.323,-100.908 429.076,-103.598 438.764,-107.886 439.323,-100.908"/>
<text text-anchor="middle" x="520" y="-121" font-family="Helvetica,sans-Serif" font-size="10.00"> free_blocks_size</text>
</g>
<!-- Node15 -->
<g id="node34" class="node"><title>Node15</title>
<a xlink:href="classstxxl_1_1atomic__counted__object.html" target="_top" xlink:title="Provides reference counting abilities for use with counting_ptr with mutex locking. ">
<polygon fill="none" stroke="black" points="599.5,-282 599.5,-316 712.5,-316 712.5,-282 599.5,-282"/>
<text text-anchor="start" x="607.5" y="-303" font-family="Helvetica,sans-Serif" font-size="10.00">stxxl::atomic_counted</text>
<text text-anchor="middle" x="656" y="-290" font-family="Helvetica,sans-Serif" font-size="10.00">_object</text>
</a>
</g>
<!-- Node6&#45;&gt;Node15 -->
<g id="edge46" class="edge"><title>Node6&#45;&gt;Node15</title>
<path fill="none" stroke="#9a32cd" stroke-dasharray="5,2" d="M416.531,-120.442C471.406,-146.014 557.073,-188.718 580,-216 595.734,-234.723 582.122,-249.399 598,-268 602.596,-273.384 608.368,-277.978 614.476,-281.85"/>
<polygon fill="#9a32cd" stroke="#9a32cd" points="417.88,-117.209 407.335,-116.182 414.938,-123.561 417.88,-117.209"/>
<text text-anchor="middle" x="520" y="-220" font-family="Helvetica,sans-Serif" font-size="10.00"> m_reference_count</text>
</g>
<!-- Node7 -->
<g id="node14" class="node"><title>Node7</title>
<a xlink:href="structstxxl_1_1choose__int__types.html" target="_top" xlink:title="stxxl::choose_int_types\l\&lt; PtrSize \&gt;">
<polygon fill="none" stroke="black" points="17,-82 17,-116 137,-116 137,-82 17,-82"/>
<text text-anchor="start" x="25" y="-103" font-family="Helvetica,sans-Serif" font-size="10.00">stxxl::choose_int_types</text>
<text text-anchor="middle" x="77" y="-90" font-family="Helvetica,sans-Serif" font-size="10.00">&lt; PtrSize &gt;</text>
</a>
</g>
<!-- Node7&#45;&gt;Node6 -->
<g id="edge16" class="edge"><title>Node7&#45;&gt;Node6</title>
<path fill="none" stroke="orange" stroke-dasharray="5,2" d="M147.426,-99C196.777,-99 262.035,-99 308.93,-99"/>
<polygon fill="orange" stroke="orange" points="147.149,-95.5001 137.149,-99 147.149,-102.5 147.149,-95.5001"/>
<text text-anchor="middle" x="225" y="-103" font-family="Helvetica,sans-Serif" font-size="10.00"> &lt; my_pointer_size &gt;</text>
</g>
<!-- Node8 -->
<g id="node16" class="node"><title>Node8</title>
<a xlink:href="structstxxl_1_1compat__hash__map.html" target="_top" xlink:title="stxxl::compat_hash\l_map\&lt; bid_type, busy\l_entry, bid_hash \&gt;">
<polygon fill="none" stroke="black" points="312.5,-16.5 312.5,-63.5 425.5,-63.5 425.5,-16.5 312.5,-16.5"/>
<text text-anchor="start" x="320.5" y="-50.5" font-family="Helvetica,sans-Serif" font-size="10.00">stxxl::compat_hash</text>
<text text-anchor="start" x="320.5" y="-37.5" font-family="Helvetica,sans-Serif" font-size="10.00">_map&lt; bid_type, busy</text>
<text text-anchor="middle" x="369" y="-24.5" font-family="Helvetica,sans-Serif" font-size="10.00">_entry, bid_hash &gt;</text>
</a>
</g>
<!-- Node8&#45;&gt;Node5 -->
<g id="edge18" class="edge"><title>Node8&#45;&gt;Node5</title>
<path fill="none" stroke="#9a32cd" stroke-dasharray="5,2" d="M435.745,-52.0818C477.774,-60.6004 532.809,-73.438 580,-90 594.74,-95.1732 610.436,-102.311 623.713,-108.867"/>
<polygon fill="#9a32cd" stroke="#9a32cd" points="436.39,-48.6416 425.898,-50.1166 435.02,-55.5062 436.39,-48.6416"/>
<text text-anchor="middle" x="520" y="-94" font-family="Helvetica,sans-Serif" font-size="10.00"> busy_blocks</text>
</g>
<!-- Node9 -->
<g id="node18" class="node"><title>Node9</title>
<a xlink:href="structstxxl_1_1compat__hash__map.html" target="_top" xlink:title="stxxl::compat_hash\l_map\&lt; KeyType, MappedType,\l HashType \&gt;">
<polygon fill="none" stroke="black" points="0,-16.5 0,-63.5 154,-63.5 154,-16.5 0,-16.5"/>
<text text-anchor="start" x="8" y="-50.5" font-family="Helvetica,sans-Serif" font-size="10.00">stxxl::compat_hash</text>
<text text-anchor="start" x="8" y="-37.5" font-family="Helvetica,sans-Serif" font-size="10.00">_map&lt; KeyType, MappedType,</text>
<text text-anchor="middle" x="77" y="-24.5" font-family="Helvetica,sans-Serif" font-size="10.00"> HashType &gt;</text>
</a>
</g>
<!-- Node9&#45;&gt;Node8 -->
<g id="edge20" class="edge"><title>Node9&#45;&gt;Node8</title>
<path fill="none" stroke="orange" stroke-dasharray="5,2" d="M164.171,-40C212.128,-40 270.254,-40 312.317,-40"/>
<polygon fill="orange" stroke="orange" points="164.102,-36.5001 154.102,-40 164.101,-43.5001 164.102,-36.5001"/>
<text text-anchor="start" x="172" y="-57" font-family="Helvetica,sans-Serif" font-size="10.00"> &lt; bid_type, busy_entry,</text>
<text text-anchor="middle" x="225" y="-44" font-family="Helvetica,sans-Serif" font-size="10.00"> bid_hash &gt;</text>
</g>
<!-- Node10&#45;&gt;Node4 -->
<g id="edge22" class="edge"><title>Node10&#45;&gt;Node4</title>
<path fill="none" stroke="#9a32cd" stroke-dasharray="5,2" d="M577.476,-248.547C633.79,-241.991 721.988,-231.102 798,-219 803.811,-218.075 809.865,-217.042 815.898,-215.969"/>
<polygon fill="#9a32cd" stroke="#9a32cd" points="576.873,-245.093 567.342,-249.72 577.678,-252.047 576.873,-245.093"/>
<text text-anchor="middle" x="656" y="-249" font-family="Helvetica,sans-Serif" font-size="10.00"> w_pool</text>
</g>
<!-- Node11 -->
<g id="node23" class="node"><title>Node11</title>
<a xlink:href="classstxxl_1_1block__manager.html" target="_top" xlink:title="Block manager class. ">
<polygon fill="none" stroke="black" points="1219,-372.5 1219,-393.5 1329,-393.5 1329,-372.5 1219,-372.5"/>
<text text-anchor="middle" x="1274" y="-380.5" font-family="Helvetica,sans-Serif" font-size="10.00">stxxl::block_manager</text>
</a>
</g>
<!-- Node11&#45;&gt;Node2 -->
<g id="edge26" class="edge"><title>Node11&#45;&gt;Node2</title>
<path fill="none" stroke="#9a32cd" stroke-dasharray="5,2" d="M1339.43,-383C1377.29,-383 1425.83,-383 1469,-383 1469,-383 1469,-383 2999,-383 3078.34,-383 3165.92,-346.463 3212.17,-324.056"/>
<polygon fill="#9a32cd" stroke="#9a32cd" points="1339.05,-379.5 1329.05,-383 1339.05,-386.5 1339.05,-379.5"/>
<text text-anchor="middle" x="2272" y="-387" font-family="Helvetica,sans-Serif" font-size="10.00"> m_bm</text>
</g>
<!-- Node12&#45;&gt;Node11 -->
<g id="edge28" class="edge"><title>Node12&#45;&gt;Node11</title>
<path fill="none" stroke="midnightblue" d="M723.684,-498.955C778.957,-494.196 858.939,-485.851 928,-473 1043.94,-451.426 1178.37,-412.3 1239.98,-393.56"/>
<polygon fill="midnightblue" stroke="midnightblue" points="723.329,-495.472 713.659,-499.802 723.918,-502.448 723.329,-495.472"/>
</g>
<!-- Node13&#45;&gt;Node12 -->
<g id="edge32" class="edge"><title>Node13&#45;&gt;Node12</title>
<path fill="none" stroke="orange" stroke-dasharray="5,2" d="M452.299,-504C499.153,-504 556.464,-504 598.347,-504"/>
<polygon fill="orange" stroke="orange" points="452.165,-500.5 442.165,-504 452.165,-507.5 452.165,-500.5"/>
<text text-anchor="middle" x="520" y="-508" font-family="Helvetica,sans-Serif" font-size="10.00"> &lt; block_manager &gt;</text>
</g>
<!-- Node14&#45;&gt;Node11 -->
<g id="edge36" class="edge"><title>Node14&#45;&gt;Node11</title>
<path fill="none" stroke="#9a32cd" stroke-dasharray="5,2" d="M910.435,-323.433C956.536,-328.912 1036.1,-338.884 1104,-350 1144.5,-356.631 1190.14,-365.572 1223.93,-372.476"/>
<polygon fill="#9a32cd" stroke="#9a32cd" points="910.634,-319.932 900.293,-322.236 909.813,-326.884 910.634,-319.932"/>
<text text-anchor="middle" x="1052" y="-354" font-family="Helvetica,sans-Serif" font-size="10.00"> disk_files</text>
</g>
<!-- Node14&#45;&gt;Node17 -->
<g id="edge52" class="edge"><title>Node14&#45;&gt;Node17</title>
<path fill="none" stroke="#9a32cd" stroke-dasharray="5,2" d="M909.795,-331.261C931.083,-338.28 958.112,-347.38 982,-356 996.458,-361.217 1012.46,-367.361 1025.51,-372.469"/>
<polygon fill="#9a32cd" stroke="#9a32cd" points="910.741,-327.888 900.148,-328.093 908.557,-334.538 910.741,-327.888"/>
<text text-anchor="middle" x="964" y="-360" font-family="Helvetica,sans-Serif" font-size="10.00"> storage</text>
</g>
<!-- Node24 -->
<g id="node58" class="node"><title>Node24</title>
<a xlink:href="structstxxl_1_1BID.html" target="_top" xlink:title="stxxl::BID\&lt; raw_size \&gt;">
<polygon fill="none" stroke="black" points="1215,-237.5 1215,-258.5 1333,-258.5 1333,-237.5 1215,-237.5"/>
<text text-anchor="middle" x="1274" y="-245.5" font-family="Helvetica,sans-Serif" font-size="10.00">stxxl::BID&lt; raw_size &gt;</text>
</a>
</g>
<!-- Node14&#45;&gt;Node24 -->
<g id="edge72" class="edge"><title>Node14&#45;&gt;Node24</title>
<path fill="none" stroke="#9a32cd" stroke-dasharray="5,2" d="M898.323,-303.159C923.455,-288.951 962.888,-268.997 1000,-260 1072.42,-242.443 1158.69,-241.868 1214.82,-244.073"/>
<polygon fill="#9a32cd" stroke="#9a32cd" points="896.341,-300.262 889.426,-308.289 899.837,-306.326 896.341,-300.262"/>
<text text-anchor="middle" x="1052" y="-264" font-family="Helvetica,sans-Serif" font-size="10.00"> storage</text>
</g>
<!-- Node25 -->
<g id="node61" class="node"><title>Node25</title>
<a xlink:href="structstxxl_1_1BID.html" target="_top" xlink:title="Block identifier class. ">
<polygon fill="none" stroke="black" points="1003,-282.5 1003,-303.5 1101,-303.5 1101,-282.5 1003,-282.5"/>
<text text-anchor="middle" x="1052" y="-290.5" font-family="Helvetica,sans-Serif" font-size="10.00">stxxl::BID&lt; Size &gt;</text>
</a>
</g>
<!-- Node14&#45;&gt;Node25 -->
<g id="edge76" class="edge"><title>Node14&#45;&gt;Node25</title>
<path fill="none" stroke="#9a32cd" stroke-dasharray="5,2" d="M907.859,-305.021C919.805,-301.001 933.305,-297.13 946,-295 964.425,-291.909 984.902,-290.954 1002.91,-290.928"/>
<polygon fill="#9a32cd" stroke="#9a32cd" points="906.518,-301.782 898.243,-308.398 908.837,-308.387 906.518,-301.782"/>
<text text-anchor="middle" x="964" y="-299" font-family="Helvetica,sans-Serif" font-size="10.00"> storage</text>
</g>
<!-- Node15&#45;&gt;Node14 -->
<g id="edge40" class="edge"><title>Node15&#45;&gt;Node14</title>
<path fill="none" stroke="#9a32cd" stroke-dasharray="5,2" d="M722.885,-305.193C763.59,-308.962 813.454,-313.579 843.962,-316.404"/>
<polygon fill="#9a32cd" stroke="#9a32cd" points="723.032,-301.692 712.751,-304.255 722.386,-308.662 723.032,-301.692"/>
<text text-anchor="middle" x="765" y="-315" font-family="Helvetica,sans-Serif" font-size="10.00"> m_request_ref</text>
</g>
<!-- Node16&#45;&gt;Node15 -->
<g id="edge42" class="edge"><title>Node16&#45;&gt;Node15</title>
<path fill="none" stroke="#9a32cd" stroke-dasharray="5,2" d="M414.682,-368.789C464.831,-354.286 545.396,-330.987 599.484,-315.344"/>
<polygon fill="#9a32cd" stroke="#9a32cd" points="413.402,-365.515 404.768,-371.656 415.347,-372.24 413.402,-365.515"/>
<text text-anchor="middle" x="520" y="-359" font-family="Helvetica,sans-Serif" font-size="10.00"> m_reference_count_mutex</text>
</g>
<!-- Node16&#45;&gt;Node17 -->
<g id="edge54" class="edge"><title>Node16&#45;&gt;Node17</title>
<path fill="none" stroke="#9a32cd" stroke-dasharray="5,2" d="M414.901,-382.067C537.151,-382.246 870.11,-382.734 999.547,-382.923"/>
<polygon fill="#9a32cd" stroke="#9a32cd" points="414.765,-378.567 404.759,-382.052 414.754,-385.567 414.765,-378.567"/>
<text text-anchor="middle" x="765" y="-386" font-family="Helvetica,sans-Serif" font-size="10.00"> mutex</text>
</g>
<!-- Node17&#45;&gt;Node11 -->
<g id="edge48" class="edge"><title>Node17&#45;&gt;Node11</title>
<path fill="none" stroke="#9a32cd" stroke-dasharray="5,2" d="M1114.44,-383C1147.25,-383 1187.11,-383 1218.79,-383"/>
<polygon fill="#9a32cd" stroke="#9a32cd" points="1114.05,-379.5 1104.05,-383 1114.05,-386.5 1114.05,-379.5"/>
<text text-anchor="middle" x="1157" y="-387" font-family="Helvetica,sans-Serif" font-size="10.00"> disk_allocators</text>
</g>
<!-- Node18 -->
<g id="node46" class="node"><title>Node18</title>
<a xlink:href="classstxxl_1_1typed__block.html" target="_top" xlink:title="Block containing elements of fixed length. ">
<polygon fill="none" stroke="black" points="2936.5,-165.5 2936.5,-212.5 3061.5,-212.5 3061.5,-165.5 2936.5,-165.5"/>
<text text-anchor="start" x="2944.5" y="-199.5" font-family="Helvetica,sans-Serif" font-size="10.00">stxxl::typed_block</text>
<text text-anchor="start" x="2944.5" y="-186.5" font-family="Helvetica,sans-Serif" font-size="10.00">&lt; RawSize, Type, NRef,</text>
<text text-anchor="middle" x="2999" y="-173.5" font-family="Helvetica,sans-Serif" font-size="10.00"> MetaInfoType &gt;</text>
</a>
</g>
<!-- Node18&#45;&gt;Node1 -->
<g id="edge104" class="edge"><title>Node18&#45;&gt;Node1</title>
<path fill="none" stroke="#9a32cd" stroke-dasharray="5,2" d="M3071.63,-170.661C3165.04,-147.075 3326.54,-106.295 3421.69,-82.2675"/>
<polygon fill="#9a32cd" stroke="#9a32cd" points="3070.53,-167.328 3061.69,-173.17 3072.25,-174.115 3070.53,-167.328"/>
<text text-anchor="middle" x="3245" y="-151" font-family="Helvetica,sans-Serif" font-size="10.00"> m_current_block</text>
</g>
<!-- Node18&#45;&gt;Node2 -->
<g id="edge58" class="edge"><title>Node18&#45;&gt;Node2</title>
<path fill="none" stroke="#9a32cd" stroke-dasharray="5,2" d="M3057.39,-217.009C3104.64,-239.675 3169.66,-270.862 3209.43,-289.938"/>
<polygon fill="#9a32cd" stroke="#9a32cd" points="3058.72,-213.765 3048.19,-212.595 3055.69,-220.076 3058.72,-213.765"/>
<text text-anchor="middle" x="3113" y="-275" font-family="Helvetica,sans-Serif" font-size="10.00"> m_front_block</text>
<text text-anchor="middle" x="3113" y="-262" font-family="Helvetica,sans-Serif" font-size="10.00">m_back_block</text>
</g>
<!-- Node19 -->
<g id="node48" class="node"><title>Node19</title>
<a xlink:href="classstxxl_1_1mng__local_1_1expand__struct.html" target="_top" xlink:title="stxxl::mng_local::expand\l_struct\&lt; mng_local::block\l_w_info\&lt; Type, RawSize, NRef,\l MetaInfoType \&gt;, RawSize \&gt;">
<polygon fill="none" stroke="black" points="2738.5,-159 2738.5,-219 2897.5,-219 2897.5,-159 2738.5,-159"/>
<text text-anchor="start" x="2746.5" y="-206" font-family="Helvetica,sans-Serif" font-size="10.00">stxxl::mng_local::expand</text>
<text text-anchor="start" x="2746.5" y="-193" font-family="Helvetica,sans-Serif" font-size="10.00">_struct&lt; mng_local::block</text>
<text text-anchor="start" x="2746.5" y="-180" font-family="Helvetica,sans-Serif" font-size="10.00">_w_info&lt; Type, RawSize, NRef,</text>
<text text-anchor="middle" x="2818" y="-167" font-family="Helvetica,sans-Serif" font-size="10.00"> MetaInfoType &gt;, RawSize &gt;</text>
</a>
</g>
<!-- Node19&#45;&gt;Node18 -->
<g id="edge60" class="edge"><title>Node19&#45;&gt;Node18</title>
<path fill="none" stroke="midnightblue" d="M2907.74,-189C2917.45,-189 2927.17,-189 2936.45,-189"/>
<polygon fill="midnightblue" stroke="midnightblue" points="2907.65,-185.5 2897.65,-189 2907.65,-192.5 2907.65,-185.5"/>
</g>
<!-- Node20 -->
<g id="node50" class="node"><title>Node20</title>
<a xlink:href="classstxxl_1_1mng__local_1_1add__filler.html" target="_top" xlink:title="stxxl::mng_local::add\l_filler\&lt; mng_local::block\l_w_info\&lt; Type, RawSize,\l NRef, MetaInfoType \&gt;, RawSize\l&#45;sizeof(mng_local::block_w_info\l\&lt; Type, RawSize, NRef, MetaInfoType \&gt;)\&gt;">
<polygon fill="none" stroke="black" points="2382,-99 2382,-185 2588,-185 2588,-99 2382,-99"/>
<text text-anchor="start" x="2390" y="-172" font-family="Helvetica,sans-Serif" font-size="10.00">stxxl::mng_local::add</text>
<text text-anchor="start" x="2390" y="-159" font-family="Helvetica,sans-Serif" font-size="10.00">_filler&lt; mng_local::block</text>
<text text-anchor="start" x="2390" y="-146" font-family="Helvetica,sans-Serif" font-size="10.00">_w_info&lt; Type, RawSize,</text>
<text text-anchor="start" x="2390" y="-133" font-family="Helvetica,sans-Serif" font-size="10.00"> NRef, MetaInfoType &gt;, RawSize</text>
<text text-anchor="start" x="2390" y="-120" font-family="Helvetica,sans-Serif" font-size="10.00">&#45;sizeof(mng_local::block_w_info</text>
<text text-anchor="middle" x="2485" y="-107" font-family="Helvetica,sans-Serif" font-size="10.00">&lt; Type, RawSize, NRef, MetaInfoType &gt;)&gt;</text>
</a>
</g>
<!-- Node20&#45;&gt;Node19 -->
<g id="edge62" class="edge"><title>Node20&#45;&gt;Node19</title>
<path fill="none" stroke="midnightblue" d="M2598.12,-157.967C2644.22,-164.472 2696.42,-171.84 2738.39,-177.763"/>
<polygon fill="midnightblue" stroke="midnightblue" points="2598.47,-154.481 2588.08,-156.549 2597.5,-161.413 2598.47,-154.481"/>
</g>
<!-- Node21 -->
<g id="node52" class="node"><title>Node21</title>
<a xlink:href="classstxxl_1_1mng__local_1_1block__w__info.html" target="_top" xlink:title="stxxl::mng_local::block\l_w_info\&lt; Type, RawSize,\l NRef, MetaInfoType \&gt;">
<polygon fill="none" stroke="black" points="2207,-43.5 2207,-90.5 2337,-90.5 2337,-43.5 2207,-43.5"/>
<text text-anchor="start" x="2215" y="-77.5" font-family="Helvetica,sans-Serif" font-size="10.00">stxxl::mng_local::block</text>
<text text-anchor="start" x="2215" y="-64.5" font-family="Helvetica,sans-Serif" font-size="10.00">_w_info&lt; Type, RawSize,</text>
<text text-anchor="middle" x="2272" y="-51.5" font-family="Helvetica,sans-Serif" font-size="10.00"> NRef, MetaInfoType &gt;</text>
</a>
</g>
<!-- Node21&#45;&gt;Node20 -->
<g id="edge64" class="edge"><title>Node21&#45;&gt;Node20</title>
<path fill="none" stroke="midnightblue" d="M2346.53,-93.2435C2357.97,-97.2709 2369.95,-101.489 2381.87,-105.688"/>
<polygon fill="midnightblue" stroke="midnightblue" points="2347.66,-89.93 2337.06,-89.91 2345.33,-96.5326 2347.66,-89.93"/>
</g>
<!-- Node22 -->
<g id="node54" class="node"><title>Node22</title>
<a xlink:href="classstxxl_1_1mng__local_1_1block__w__bids.html" target="_top" xlink:title="stxxl::mng_local::block\l_w_bids\&lt; Type,((RawSize\l&#45;sizeof(BID\&lt; RawSize \&gt;)*NBids\l&#45;sizeof(MetaInfoType))/sizeof\l(Type)), RawSize, NBids \&gt;">
<polygon fill="none" stroke="black" points="1696,-67.5 1696,-140.5 1854,-140.5 1854,-67.5 1696,-67.5"/>
<text text-anchor="start" x="1704" y="-127.5" font-family="Helvetica,sans-Serif" font-size="10.00">stxxl::mng_local::block</text>
<text text-anchor="start" x="1704" y="-114.5" font-family="Helvetica,sans-Serif" font-size="10.00">_w_bids&lt; Type,((RawSize</text>
<text text-anchor="start" x="1704" y="-101.5" font-family="Helvetica,sans-Serif" font-size="10.00">&#45;sizeof(BID&lt; RawSize &gt;)*NBids</text>
<text text-anchor="start" x="1704" y="-88.5" font-family="Helvetica,sans-Serif" font-size="10.00">&#45;sizeof(MetaInfoType))/sizeof</text>
<text text-anchor="middle" x="1775" y="-75.5" font-family="Helvetica,sans-Serif" font-size="10.00">(Type)), RawSize, NBids &gt;</text>
</a>
</g>
<!-- Node22&#45;&gt;Node21 -->
<g id="edge66" class="edge"><title>Node22&#45;&gt;Node21</title>
<path fill="none" stroke="midnightblue" d="M1864.36,-106.438C1947.14,-107.396 2073.5,-105.544 2182,-90 2190.14,-88.8336 2198.61,-87.2191 2206.96,-85.3814"/>
<polygon fill="midnightblue" stroke="midnightblue" points="1864.27,-102.937 1854.23,-106.305 1864.18,-109.937 1864.27,-102.937"/>
</g>
<!-- Node27 -->
<g id="node68" class="node"><title>Node27</title>
<a xlink:href="classstxxl_1_1mng__local_1_1block__w__info.html" target="_top" xlink:title="Contains per block information for stxxl::typed_block , not intended for direct use. ">
<polygon fill="none" stroke="black" points="1917,-28.5 1917,-75.5 2047,-75.5 2047,-28.5 1917,-28.5"/>
<text text-anchor="start" x="1925" y="-62.5" font-family="Helvetica,sans-Serif" font-size="10.00">stxxl::mng_local::block</text>
<text text-anchor="start" x="1925" y="-49.5" font-family="Helvetica,sans-Serif" font-size="10.00">_w_info&lt; Type, RawSize,</text>
<text text-anchor="middle" x="1982" y="-36.5" font-family="Helvetica,sans-Serif" font-size="10.00"> NBids, MetaInfoType &gt;</text>
</a>
</g>
<!-- Node22&#45;&gt;Node27 -->
<g id="edge86" class="edge"><title>Node22&#45;&gt;Node27</title>
<path fill="none" stroke="midnightblue" d="M1863.91,-81.664C1881.63,-77.2128 1899.93,-72.6154 1916.68,-68.4078"/>
<polygon fill="midnightblue" stroke="midnightblue" points="1862.99,-78.2875 1854.14,-84.1184 1864.7,-85.0765 1862.99,-78.2875"/>
</g>
<!-- Node23 -->
<g id="node56" class="node"><title>Node23</title>
<a xlink:href="classstxxl_1_1mng__local_1_1element__block.html" target="_top" xlink:title="Contains data elements for stxxl::typed_block , not intended for direct use. ">
<polygon fill="none" stroke="black" points="1210,-124 1210,-158 1338,-158 1338,-124 1210,-124"/>
<text text-anchor="start" x="1218" y="-145" font-family="Helvetica,sans-Serif" font-size="10.00">stxxl::mng_local::element</text>
<text text-anchor="middle" x="1274" y="-132" font-family="Helvetica,sans-Serif" font-size="10.00">_block&lt; Type, Size &gt;</text>
</a>
</g>
<!-- Node23&#45;&gt;Node22 -->
<g id="edge68" class="edge"><title>Node23&#45;&gt;Node22</title>
<path fill="none" stroke="midnightblue" d="M1324.97,-161.278C1335.1,-164.485 1345.77,-167.301 1356,-169 1497.18,-192.439 1541.08,-210.634 1678,-169 1697.2,-163.162 1716.06,-152.118 1731.96,-140.768"/>
<polygon fill="midnightblue" stroke="midnightblue" points="1326.05,-157.949 1315.45,-158.107 1323.83,-164.59 1326.05,-157.949"/>
</g>
<!-- Node26 -->
<g id="node64" class="node"><title>Node26</title>
<a xlink:href="classstxxl_1_1mng__local_1_1block__w__bids.html" target="_top" xlink:title="Contains BID references for stxxl::typed_block , not intended for direct use. ">
<polygon fill="none" stroke="black" points="1390,-98.5 1390,-145.5 1548,-145.5 1548,-98.5 1390,-98.5"/>
<text text-anchor="start" x="1398" y="-132.5" font-family="Helvetica,sans-Serif" font-size="10.00">stxxl::mng_local::block</text>
<text text-anchor="start" x="1398" y="-119.5" font-family="Helvetica,sans-Serif" font-size="10.00">_w_bids&lt; Type, Size, RawSize,</text>
<text text-anchor="middle" x="1469" y="-106.5" font-family="Helvetica,sans-Serif" font-size="10.00"> NBids &gt;</text>
</a>
</g>
<!-- Node23&#45;&gt;Node26 -->
<g id="edge80" class="edge"><title>Node23&#45;&gt;Node26</title>
<path fill="none" stroke="midnightblue" d="M1348.36,-133.755C1361.94,-132.432 1376.15,-131.047 1389.86,-129.711"/>
<polygon fill="midnightblue" stroke="midnightblue" points="1347.73,-130.299 1338.12,-134.752 1348.41,-137.266 1347.73,-130.299"/>
</g>
<!-- Node24&#45;&gt;Node22 -->
<g id="edge70" class="edge"><title>Node24&#45;&gt;Node22</title>
<path fill="none" stroke="#9a32cd" stroke-dasharray="5,2" d="M1343.44,-243.797C1442.87,-236.924 1620.2,-221.243 1678,-194 1704.18,-181.66 1728.09,-159.665 1745.62,-140.508"/>
<polygon fill="#9a32cd" stroke="#9a32cd" points="1342.92,-240.324 1333.18,-244.493 1343.4,-247.307 1342.92,-240.324"/>
<text text-anchor="middle" x="1469" y="-244" font-family="Helvetica,sans-Serif" font-size="10.00"> ref</text>
</g>
<!-- Node24&#45;&gt;Node26 -->
<g id="edge82" class="edge"><title>Node24&#45;&gt;Node26</title>
<path fill="none" stroke="#9a32cd" stroke-dasharray="5,2" d="M1299.1,-231.779C1333.01,-209.87 1393.67,-170.677 1432.58,-145.531"/>
<polygon fill="#9a32cd" stroke="#9a32cd" points="1296.79,-229.107 1290.29,-237.474 1300.59,-234.987 1296.79,-229.107"/>
<text text-anchor="middle" x="1364" y="-196" font-family="Helvetica,sans-Serif" font-size="10.00"> ref</text>
</g>
<!-- Node25&#45;&gt;Node24 -->
<g id="edge74" class="edge"><title>Node25&#45;&gt;Node24</title>
<path fill="none" stroke="orange" stroke-dasharray="5,2" d="M1111.29,-281.237C1136.22,-276.266 1165.53,-270.391 1192,-265 1202.11,-262.94 1212.93,-260.715 1223.27,-258.575"/>
<polygon fill="orange" stroke="orange" points="1110.38,-277.85 1101.26,-283.236 1111.75,-284.715 1110.38,-277.85"/>
<text text-anchor="middle" x="1157" y="-282" font-family="Helvetica,sans-Serif" font-size="10.00"> &lt; raw_size &gt;</text>
</g>
<!-- Node26&#45;&gt;Node22 -->
<g id="edge78" class="edge"><title>Node26&#45;&gt;Node22</title>
<path fill="none" stroke="orange" stroke-dasharray="5,2" d="M1558.3,-104.796C1560.89,-104.5 1563.46,-104.233 1566,-104 1608.82,-100.061 1656.78,-99.7686 1695.94,-100.591"/>
<polygon fill="orange" stroke="orange" points="1557.72,-101.342 1548.24,-106.072 1558.6,-108.287 1557.72,-101.342"/>
<text text-anchor="start" x="1566" y="-160" font-family="Helvetica,sans-Serif" font-size="10.00"> &lt; Type,((RawSize&#45;sizeof</text>
<text text-anchor="start" x="1566" y="-147" font-family="Helvetica,sans-Serif" font-size="10.00">(BID&lt; RawSize &gt;)*NBids</text>
<text text-anchor="start" x="1566" y="-134" font-family="Helvetica,sans-Serif" font-size="10.00">&#45;sizeof(MetaInfoType))</text>
<text text-anchor="start" x="1566" y="-121" font-family="Helvetica,sans-Serif" font-size="10.00">/sizeof(Type)), RawSize,</text>
<text text-anchor="middle" x="1622" y="-108" font-family="Helvetica,sans-Serif" font-size="10.00"> NBids &gt;</text>
</g>
<!-- Node27&#45;&gt;Node21 -->
<g id="edge84" class="edge"><title>Node27&#45;&gt;Node21</title>
<path fill="none" stroke="orange" stroke-dasharray="5,2" d="M2057.08,-55.8836C2103.49,-58.284 2162.46,-61.3341 2206.89,-63.632"/>
<polygon fill="orange" stroke="orange" points="2057.25,-52.3876 2047.08,-55.3663 2056.89,-59.3783 2057.25,-52.3876"/>
<text text-anchor="start" x="2070" y="-80" font-family="Helvetica,sans-Serif" font-size="10.00"> &lt; Type, RawSize, NRef,</text>
<text text-anchor="middle" x="2126" y="-67" font-family="Helvetica,sans-Serif" font-size="10.00"> MetaInfoType &gt;</text>
</g>
<!-- Node28 -->
<g id="node71" class="node"><title>Node28</title>
<a xlink:href="classstxxl_1_1mng__local_1_1filler__struct.html" target="_top" xlink:title="stxxl::mng_local::filler\l_struct\&lt; FillSize \&gt;">
<polygon fill="none" stroke="black" points="1719,-240 1719,-274 1831,-274 1831,-240 1719,-240"/>
<text text-anchor="start" x="1727" y="-261" font-family="Helvetica,sans-Serif" font-size="10.00">stxxl::mng_local::filler</text>
<text text-anchor="middle" x="1775" y="-248" font-family="Helvetica,sans-Serif" font-size="10.00">_struct&lt; FillSize &gt;</text>
</a>
</g>
<!-- Node28&#45;&gt;Node20 -->
<g id="edge88" class="edge"><title>Node28&#45;&gt;Node20</title>
<path fill="none" stroke="#9a32cd" stroke-dasharray="5,2" d="M1827.64,-236.38C1852.98,-226.714 1883.91,-215.304 1912,-206 1981.43,-183.005 1998.04,-173.097 2070,-160 2127.01,-149.623 2142.13,-153.036 2200,-150 2260.18,-146.843 2327.58,-144.879 2381.72,-143.688"/>
<polygon fill="#9a32cd" stroke="#9a32cd" points="1826.3,-233.144 1818.21,-239.991 1828.8,-239.681 1826.3,-233.144"/>
<text text-anchor="middle" x="2126" y="-164" font-family="Helvetica,sans-Serif" font-size="10.00"> filler</text>
</g>
<!-- Node30 -->
<g id="node75" class="node"><title>Node30</title>
<a xlink:href="classstxxl_1_1mng__local_1_1add__filler.html" target="_top" xlink:title="Contains per block filler for stxxl::typed_block , not intended for direct use. ">
<polygon fill="none" stroke="black" points="1912,-215 1912,-249 2052,-249 2052,-215 1912,-215"/>
<text text-anchor="start" x="1920" y="-236" font-family="Helvetica,sans-Serif" font-size="10.00">stxxl::mng_local::add</text>
<text text-anchor="middle" x="1982" y="-223" font-family="Helvetica,sans-Serif" font-size="10.00">_filler&lt; BaseType, FillSize &gt;</text>
</a>
</g>
<!-- Node28&#45;&gt;Node30 -->
<g id="edge94" class="edge"><title>Node28&#45;&gt;Node30</title>
<path fill="none" stroke="#9a32cd" stroke-dasharray="5,2" d="M1841.17,-249.009C1863.72,-246.285 1889.01,-243.231 1911.87,-240.47"/>
<polygon fill="#9a32cd" stroke="#9a32cd" points="1840.53,-245.561 1831.02,-250.235 1841.36,-252.51 1840.53,-245.561"/>
<text text-anchor="middle" x="1883" y="-249" font-family="Helvetica,sans-Serif" font-size="10.00"> filler</text>
</g>
<!-- Node32 -->
<g id="node80" class="node"><title>Node32</title>
<a xlink:href="classstxxl_1_1mng__local_1_1add__filler.html" target="_top" xlink:title="stxxl::mng_local::add\l_filler\&lt; Type, RawSize\l&#45;sizeof(Type)\&gt;">
<polygon fill="none" stroke="black" points="2214,-261.5 2214,-308.5 2330,-308.5 2330,-261.5 2214,-261.5"/>
<text text-anchor="start" x="2222" y="-295.5" font-family="Helvetica,sans-Serif" font-size="10.00">stxxl::mng_local::add</text>
<text text-anchor="start" x="2222" y="-282.5" font-family="Helvetica,sans-Serif" font-size="10.00">_filler&lt; Type, RawSize</text>
<text text-anchor="middle" x="2272" y="-269.5" font-family="Helvetica,sans-Serif" font-size="10.00">&#45;sizeof(Type)&gt;</text>
</a>
</g>
<!-- Node28&#45;&gt;Node32 -->
<g id="edge100" class="edge"><title>Node28&#45;&gt;Node32</title>
<path fill="none" stroke="#9a32cd" stroke-dasharray="5,2" d="M1841.11,-260.725C1938.97,-266.238 2120.81,-276.482 2213.86,-281.724"/>
<polygon fill="#9a32cd" stroke="#9a32cd" points="1841.23,-257.226 1831.05,-260.158 1840.83,-264.215 1841.23,-257.226"/>
<text text-anchor="middle" x="1982" y="-276" font-family="Helvetica,sans-Serif" font-size="10.00"> filler</text>
</g>
<!-- Node29 -->
<g id="node73" class="node"><title>Node29</title>
<a xlink:href="classstxxl_1_1mng__local_1_1filler__struct.html" target="_top" xlink:title="stxxl::mng_local::filler\l_struct\&lt; Bytes \&gt;">
<polygon fill="none" stroke="black" points="1413,-264 1413,-298 1525,-298 1525,-264 1413,-264"/>
<text text-anchor="start" x="1421" y="-285" font-family="Helvetica,sans-Serif" font-size="10.00">stxxl::mng_local::filler</text>
<text text-anchor="middle" x="1469" y="-272" font-family="Helvetica,sans-Serif" font-size="10.00">_struct&lt; Bytes &gt;</text>
</a>
</g>
<!-- Node29&#45;&gt;Node28 -->
<g id="edge90" class="edge"><title>Node29&#45;&gt;Node28</title>
<path fill="none" stroke="orange" stroke-dasharray="5,2" d="M1535.1,-275.816C1589.95,-271.513 1667.11,-265.462 1718.97,-261.394"/>
<polygon fill="orange" stroke="orange" points="1534.82,-272.327 1525.13,-276.598 1535.37,-279.305 1534.82,-272.327"/>
<text text-anchor="middle" x="1622" y="-277" font-family="Helvetica,sans-Serif" font-size="10.00"> &lt; FillSize &gt;</text>
</g>
<!-- Node30&#45;&gt;Node20 -->
<g id="edge92" class="edge"><title>Node30&#45;&gt;Node20</title>
<path fill="none" stroke="orange" stroke-dasharray="5,2" d="M2046.81,-212.052C2089.87,-199.472 2147.87,-183.806 2200,-174 2259.82,-162.748 2327.5,-154.945 2381.89,-149.863"/>
<polygon fill="orange" stroke="orange" points="2045.64,-208.75 2037.03,-214.931 2047.62,-215.465 2045.64,-208.75"/>
<text text-anchor="start" x="2200.5" y="-243" font-family="Helvetica,sans-Serif" font-size="10.00"> &lt; mng_local::block</text>
<text text-anchor="start" x="2200.5" y="-230" font-family="Helvetica,sans-Serif" font-size="10.00">_w_info&lt; Type, RawSize,</text>
<text text-anchor="start" x="2200.5" y="-217" font-family="Helvetica,sans-Serif" font-size="10.00"> NRef, MetaInfoType &gt;,</text>
<text text-anchor="start" x="2200.5" y="-204" font-family="Helvetica,sans-Serif" font-size="10.00"> RawSize&#45;sizeof(mng_local</text>
<text text-anchor="start" x="2200.5" y="-191" font-family="Helvetica,sans-Serif" font-size="10.00">::block_w_info&lt; Type, RawSize,</text>
<text text-anchor="middle" x="2272" y="-178" font-family="Helvetica,sans-Serif" font-size="10.00"> NRef, MetaInfoType &gt;)&gt;</text>
</g>
<!-- Node30&#45;&gt;Node32 -->
<g id="edge102" class="edge"><title>Node30&#45;&gt;Node32</title>
<path fill="none" stroke="orange" stroke-dasharray="5,2" d="M2062.54,-230.796C2099.41,-231.879 2143.4,-235.489 2182,-245 2197.27,-248.763 2213.19,-254.988 2227.32,-261.418"/>
<polygon fill="orange" stroke="orange" points="2062.42,-227.292 2052.34,-230.555 2062.25,-234.29 2062.42,-227.292"/>
<text text-anchor="start" x="2071.5" y="-262" font-family="Helvetica,sans-Serif" font-size="10.00"> &lt; Type, RawSize&#45;sizeof</text>
<text text-anchor="middle" x="2126" y="-249" font-family="Helvetica,sans-Serif" font-size="10.00">(Type)&gt;</text>
</g>
<!-- Node31 -->
<g id="node78" class="node"><title>Node31</title>
<a xlink:href="classstxxl_1_1mng__local_1_1expand__struct.html" target="_top" xlink:title="Helper to compute the size of the filler , not intended for direct use. ">
<polygon fill="none" stroke="black" points="2419,-220 2419,-254 2551,-254 2551,-220 2419,-220"/>
<text text-anchor="start" x="2427" y="-241" font-family="Helvetica,sans-Serif" font-size="10.00">stxxl::mng_local::expand</text>
<text text-anchor="middle" x="2485" y="-228" font-family="Helvetica,sans-Serif" font-size="10.00">_struct&lt; Type, RawSize &gt;</text>
</a>
</g>
<!-- Node31&#45;&gt;Node19 -->
<g id="edge96" class="edge"><title>Node31&#45;&gt;Node19</title>
<path fill="none" stroke="orange" stroke-dasharray="5,2" d="M2561.21,-226.015C2614.21,-218.375 2684.72,-208.212 2738.44,-200.468"/>
<polygon fill="orange" stroke="orange" points="2560.59,-222.568 2551.19,-227.459 2561.59,-229.497 2560.59,-222.568"/>
<text text-anchor="start" x="2606" y="-261" font-family="Helvetica,sans-Serif" font-size="10.00"> &lt; mng_local::block</text>
<text text-anchor="start" x="2606" y="-248" font-family="Helvetica,sans-Serif" font-size="10.00">_w_info&lt; Type, RawSize,</text>
<text text-anchor="start" x="2606" y="-235" font-family="Helvetica,sans-Serif" font-size="10.00"> NRef, MetaInfoType &gt;,</text>
<text text-anchor="middle" x="2663" y="-222" font-family="Helvetica,sans-Serif" font-size="10.00"> RawSize &gt;</text>
</g>
<!-- Node32&#45;&gt;Node31 -->
<g id="edge98" class="edge"><title>Node32&#45;&gt;Node31</title>
<path fill="none" stroke="midnightblue" d="M2340.07,-269.661C2365.32,-263.97 2393.9,-257.529 2418.97,-251.879"/>
<polygon fill="midnightblue" stroke="midnightblue" points="2339.19,-266.271 2330.2,-271.884 2340.73,-273.1 2339.19,-266.271"/>
</g>
</g>
</svg>
