<?xml version="1.0" encoding="UTF-8" standalone="no"?>
<!DOCTYPE svg PUBLIC "-//W3C//DTD SVG 1.1//EN"
 "http://www.w3.org/Graphics/SVG/1.1/DTD/svg11.dtd">
<!-- Generated by graphviz version 2.38.0 (20140413.2041)
 -->
<!-- Title: stxxl::vector_bufreader_reverse&lt; VectorIteratorType &gt; Pages: 1 -->
<svg width="1529pt" height="427pt"
 viewBox="0.00 0.00 1529.00 427.00" xmlns="http://www.w3.org/2000/svg" xmlns:xlink="http://www.w3.org/1999/xlink">
<g id="graph0" class="graph" transform="scale(1 1) rotate(0) translate(4 423)">
<title>stxxl::vector_bufreader_reverse&lt; VectorIteratorType &gt;</title>
<!-- Node1 -->
<g id="node1" class="node"><title>Node1</title>
<polygon fill="#bfbfbf" stroke="black" points="1368,-366 1368,-396 1521,-396 1521,-366 1368,-366"/>
<text text-anchor="start" x="1376" y="-384" font-family="Helvetica,sans-Serif" font-size="10.00">stxxl::vector_bufreader</text>
<text text-anchor="middle" x="1444.5" y="-373" font-family="Helvetica,sans-Serif" font-size="10.00">_reverse&lt; VectorIteratorType &gt;</text>
</g>
<!-- Node2 -->
<g id="node2" class="node"><title>Node2</title>
<g id="a_node2"><a xlink:href="classstxxl_1_1noncopyable.html" target="_top" xlink:title="stxxl::noncopyable">
<polygon fill="none" stroke="black" points="0,-132.5 0,-151.5 98,-151.5 98,-132.5 0,-132.5"/>
<text text-anchor="middle" x="49" y="-139.5" font-family="Helvetica,sans-Serif" font-size="10.00">stxxl::noncopyable</text>
</a>
</g>
</g>
<!-- Node2&#45;&gt;Node1 -->
<g id="edge1" class="edge"><title>Node2&#45;&gt;Node1</title>
<path fill="none" stroke="midnightblue" d="M51.0374,-161.77C55.5231,-225.127 78.7472,-419 195,-419 195,-419 195,-419 1238.5,-419 1291.35,-419 1350.59,-406.64 1391.75,-396.019"/>
<polygon fill="midnightblue" stroke="midnightblue" points="54.5149,-161.298 50.3997,-151.535 47.5284,-161.733 54.5149,-161.298"/>
</g>
<!-- Node5 -->
<g id="node5" class="node"><title>Node5</title>
<g id="a_node5"><a xlink:href="classstxxl_1_1buf__istream__reverse.html" target="_top" xlink:title="Buffered input stream, reading the items in the blocks in reverse order. ">
<polygon fill="none" stroke="black" points="1181,-213.5 1181,-254.5 1294,-254.5 1294,-213.5 1181,-213.5"/>
<text text-anchor="start" x="1189" y="-242.5" font-family="Helvetica,sans-Serif" font-size="10.00">stxxl::buf_istream</text>
<text text-anchor="start" x="1189" y="-231.5" font-family="Helvetica,sans-Serif" font-size="10.00">_reverse&lt; BlockType,</text>
<text text-anchor="middle" x="1237.5" y="-220.5" font-family="Helvetica,sans-Serif" font-size="10.00"> BidIteratorType &gt;</text>
</a>
</g>
</g>
<!-- Node2&#45;&gt;Node5 -->
<g id="edge5" class="edge"><title>Node2&#45;&gt;Node5</title>
<path fill="none" stroke="#8b1a1a" d="M58.3919,-123.063C76.9609,-84.3997 125.46,-0 195,-0 195,-0 195,-0 1017,-0 1133.41,-0 1206.05,-155.965 1228.79,-213.234"/>
<polygon fill="#8b1a1a" stroke="#8b1a1a" points="55.1683,-121.695 54.1371,-132.24 61.5189,-124.64 55.1683,-121.695"/>
</g>
<!-- Node6 -->
<g id="node6" class="node"><title>Node6</title>
<g id="a_node6"><a xlink:href="classstxxl_1_1block__prefetcher.html" target="_top" xlink:title="Encapsulates asynchronous prefetching engine. ">
<polygon fill="none" stroke="black" points="939,-219 939,-249 1093,-249 1093,-219 939,-219"/>
<text text-anchor="start" x="947" y="-237" font-family="Helvetica,sans-Serif" font-size="10.00">stxxl::block_prefetcher</text>
<text text-anchor="middle" x="1016" y="-226" font-family="Helvetica,sans-Serif" font-size="10.00">&lt; BlockType, BidIteratorType &gt;</text>
</a>
</g>
</g>
<!-- Node2&#45;&gt;Node6 -->
<g id="edge7" class="edge"><title>Node2&#45;&gt;Node6</title>
<path fill="none" stroke="#8b1a1a" d="M63.658,-159.662C87.1729,-187.883 138.277,-240 195,-240 195,-240 195,-240 579.5,-240 705.399,-240 851.751,-237.462 938.695,-235.687"/>
<polygon fill="#8b1a1a" stroke="#8b1a1a" points="66.277,-157.334 57.2703,-151.755 60.8318,-161.733 66.277,-157.334"/>
</g>
<!-- Node7 -->
<g id="node7" class="node"><title>Node7</title>
<g id="a_node7"><a xlink:href="classstxxl_1_1onoff__switch.html" target="_top" xlink:title="stxxl::onoff_switch">
<polygon fill="none" stroke="black" points="404.5,-174.5 404.5,-193.5 503.5,-193.5 503.5,-174.5 404.5,-174.5"/>
<text text-anchor="middle" x="454" y="-181.5" font-family="Helvetica,sans-Serif" font-size="10.00">stxxl::onoff_switch</text>
</a>
</g>
</g>
<!-- Node2&#45;&gt;Node7 -->
<g id="edge10" class="edge"><title>Node2&#45;&gt;Node7</title>
<path fill="none" stroke="#8b1a1a" d="M108.42,-140.485C149.953,-139.984 207.008,-140.463 257,-145 310.411,-149.847 323.484,-154.124 376,-165 389.348,-167.764 403.888,-171.232 416.701,-174.446"/>
<polygon fill="#8b1a1a" stroke="#8b1a1a" points="108.158,-136.988 98.2092,-140.632 108.258,-143.987 108.158,-136.988"/>
</g>
<!-- Node8 -->
<g id="node8" class="node"><title>Node8</title>
<g id="a_node8"><a xlink:href="classstxxl_1_1mutex.html" target="_top" xlink:title="stxxl::mutex">
<polygon fill="none" stroke="black" points="160.5,-192.5 160.5,-211.5 231.5,-211.5 231.5,-192.5 160.5,-192.5"/>
<text text-anchor="middle" x="196" y="-199.5" font-family="Helvetica,sans-Serif" font-size="10.00">stxxl::mutex</text>
</a>
</g>
</g>
<!-- Node2&#45;&gt;Node8 -->
<g id="edge12" class="edge"><title>Node2&#45;&gt;Node8</title>
<path fill="none" stroke="#8b1a1a" d="M76.9637,-156.228C93.4599,-164.623 115.143,-175.114 135,-183 143.632,-186.428 153.146,-189.674 162.005,-192.482"/>
<polygon fill="#8b1a1a" stroke="#8b1a1a" points="78.3962,-153.028 67.9033,-151.562 75.1916,-159.252 78.3962,-153.028"/>
</g>
<!-- Node9 -->
<g id="node9" class="node"><title>Node9</title>
<g id="a_node9"><a xlink:href="classstxxl_1_1condition__variable.html" target="_top" xlink:title="stxxl::condition_variable">
<polygon fill="none" stroke="black" points="135,-154.5 135,-173.5 257,-173.5 257,-154.5 135,-154.5"/>
<text text-anchor="middle" x="196" y="-161.5" font-family="Helvetica,sans-Serif" font-size="10.00">stxxl::condition_variable</text>
</a>
</g>
</g>
<!-- Node2&#45;&gt;Node9 -->
<g id="edge14" class="edge"><title>Node2&#45;&gt;Node9</title>
<path fill="none" stroke="#8b1a1a" d="M108.347,-150.853C117.059,-152.174 126.054,-153.539 134.803,-154.867"/>
<polygon fill="#8b1a1a" stroke="#8b1a1a" points="108.695,-147.365 98.2829,-149.326 107.645,-154.286 108.695,-147.365"/>
</g>
<!-- Node15 -->
<g id="node15" class="node"><title>Node15</title>
<g id="a_node15"><a xlink:href="classstxxl_1_1simple__vector.html" target="_top" xlink:title="stxxl::simple_vector\l\&lt; BID\&lt; BlockSize \&gt; \&gt;">
<polygon fill="none" stroke="black" points="397,-57 397,-87 511,-87 511,-57 397,-57"/>
<text text-anchor="start" x="405" y="-75" font-family="Helvetica,sans-Serif" font-size="10.00">stxxl::simple_vector</text>
<text text-anchor="middle" x="454" y="-64" font-family="Helvetica,sans-Serif" font-size="10.00">&lt; BID&lt; BlockSize &gt; &gt;</text>
</a>
</g>
</g>
<!-- Node2&#45;&gt;Node15 -->
<g id="edge22" class="edge"><title>Node2&#45;&gt;Node15</title>
<path fill="none" stroke="#8b1a1a" d="M61.4627,-123.935C75.7771,-103.257 102.396,-70.5051 135,-57 223.721,-20.2505 338.497,-40.2953 403.09,-56.9692"/>
<polygon fill="#8b1a1a" stroke="#8b1a1a" points="58.4056,-122.211 55.7743,-132.474 64.2313,-126.092 58.4056,-122.211"/>
</g>
<!-- Node16 -->
<g id="node16" class="node"><title>Node16</title>
<g id="a_node16"><a xlink:href="classstxxl_1_1simple__vector.html" target="_top" xlink:title="Simpler non&#45;growing vector without initialization. ">
<polygon fill="none" stroke="black" points="144,-67 144,-97 248,-97 248,-67 144,-67"/>
<text text-anchor="start" x="152" y="-85" font-family="Helvetica,sans-Serif" font-size="10.00">stxxl::simple_vector</text>
<text text-anchor="middle" x="196" y="-74" font-family="Helvetica,sans-Serif" font-size="10.00">&lt; ValueType &gt;</text>
</a>
</g>
</g>
<!-- Node2&#45;&gt;Node16 -->
<g id="edge24" class="edge"><title>Node2&#45;&gt;Node16</title>
<path fill="none" stroke="#8b1a1a" d="M79.168,-128.259C90.5847,-123.008 103.837,-117.068 116,-112 128.188,-106.922 141.571,-101.706 153.801,-97.0777"/>
<polygon fill="#8b1a1a" stroke="#8b1a1a" points="77.6751,-125.093 70.0739,-132.474 80.6186,-131.444 77.6751,-125.093"/>
</g>
<!-- Node3 -->
<g id="node3" class="node"><title>Node3</title>
<g id="a_node3"><a xlink:href="structstxxl_1_1choose__int__types.html" target="_top" xlink:title="stxxl::choose_int_types\l\&lt; my_pointer_size \&gt;">
<polygon fill="none" stroke="black" points="656,-334 656,-364 776,-364 776,-334 656,-334"/>
<text text-anchor="start" x="664" y="-352" font-family="Helvetica,sans-Serif" font-size="10.00">stxxl::choose_int_types</text>
<text text-anchor="middle" x="716" y="-341" font-family="Helvetica,sans-Serif" font-size="10.00">&lt; my_pointer_size &gt;</text>
</a>
</g>
</g>
<!-- Node3&#45;&gt;Node1 -->
<g id="edge2" class="edge"><title>Node3&#45;&gt;Node1</title>
<path fill="none" stroke="#9a32cd" stroke-dasharray="5,2" d="M786.271,-353.798C793.272,-354.229 800.276,-354.639 807,-355 1009.37,-365.877 1248.16,-374.505 1367.54,-378.53"/>
<polygon fill="#9a32cd" stroke="#9a32cd" points="786.25,-350.29 776.049,-353.155 785.81,-357.276 786.25,-350.29"/>
<text text-anchor="middle" x="1137" y="-373" font-family="Helvetica,sans-Serif" font-size="10.00"> m_nbuffers</text>
</g>
<!-- Node3&#45;&gt;Node5 -->
<g id="edge19" class="edge"><title>Node3&#45;&gt;Node5</title>
<path fill="none" stroke="#9a32cd" stroke-dasharray="5,2" d="M786.511,-348.374C826.208,-346.987 876.737,-343.475 921,-335 1016.74,-316.669 1124.01,-278.335 1185.57,-254.522"/>
<polygon fill="#9a32cd" stroke="#9a32cd" points="786.288,-344.88 776.403,-348.69 786.507,-351.876 786.288,-344.88"/>
<text text-anchor="middle" x="1016" y="-335" font-family="Helvetica,sans-Serif" font-size="10.00"> current_elem</text>
</g>
<!-- Node3&#45;&gt;Node6 -->
<g id="edge8" class="edge"><title>Node3&#45;&gt;Node6</title>
<path fill="none" stroke="#9a32cd" stroke-dasharray="5,2" d="M750.116,-328.831C766.694,-319.49 787.371,-308.947 807,-302 855.726,-284.754 871.982,-295.396 921,-279 944.507,-271.137 969.775,-258.802 988.187,-249.034"/>
<polygon fill="#9a32cd" stroke="#9a32cd" points="748.284,-325.847 741.361,-333.867 751.774,-331.915 748.284,-325.847"/>
<text text-anchor="middle" x="864" y="-327" font-family="Helvetica,sans-Serif" font-size="10.00"> seq_length</text>
<text text-anchor="middle" x="864" y="-316" font-family="Helvetica,sans-Serif" font-size="10.00">nextconsume</text>
<text text-anchor="middle" x="864" y="-305" font-family="Helvetica,sans-Serif" font-size="10.00">nextread</text>
</g>
<!-- Node4 -->
<g id="node4" class="node"><title>Node4</title>
<g id="a_node4"><a xlink:href="structstxxl_1_1choose__int__types.html" target="_top" xlink:title="stxxl::choose_int_types\l\&lt; PtrSize \&gt;">
<polygon fill="none" stroke="black" points="394,-334 394,-364 514,-364 514,-334 394,-334"/>
<text text-anchor="start" x="402" y="-352" font-family="Helvetica,sans-Serif" font-size="10.00">stxxl::choose_int_types</text>
<text text-anchor="middle" x="454" y="-341" font-family="Helvetica,sans-Serif" font-size="10.00">&lt; PtrSize &gt;</text>
</a>
</g>
</g>
<!-- Node4&#45;&gt;Node3 -->
<g id="edge3" class="edge"><title>Node4&#45;&gt;Node3</title>
<path fill="none" stroke="orange" stroke-dasharray="5,2" d="M524.515,-349C565.531,-349 616.884,-349 655.931,-349"/>
<polygon fill="orange" stroke="orange" points="524.323,-345.5 514.323,-349 524.323,-352.5 524.323,-345.5"/>
<text text-anchor="middle" x="578.5" y="-352" font-family="Helvetica,sans-Serif" font-size="10.00"> &lt; my_pointer_size &gt;</text>
</g>
<!-- Node5&#45;&gt;Node1 -->
<g id="edge4" class="edge"><title>Node5&#45;&gt;Node1</title>
<path fill="none" stroke="#9a32cd" stroke-dasharray="5,2" d="M1275.67,-260.651C1318.66,-291.48 1387.95,-341.163 1422.5,-365.941"/>
<polygon fill="#9a32cd" stroke="#9a32cd" points="1277.6,-257.733 1267.44,-254.75 1273.52,-263.421 1277.6,-257.733"/>
<text text-anchor="middle" x="1331" y="-315" font-family="Helvetica,sans-Serif" font-size="10.00"> m_bufin</text>
</g>
<!-- Node6&#45;&gt;Node5 -->
<g id="edge6" class="edge"><title>Node6&#45;&gt;Node5</title>
<path fill="none" stroke="#9a32cd" stroke-dasharray="5,2" d="M1103.42,-234C1129.49,-234 1157.4,-234 1180.89,-234"/>
<polygon fill="#9a32cd" stroke="#9a32cd" points="1103.15,-230.5 1093.15,-234 1103.15,-237.5 1103.15,-230.5"/>
<text text-anchor="middle" x="1137" y="-237" font-family="Helvetica,sans-Serif" font-size="10.00"> prefetcher</text>
</g>
<!-- Node7&#45;&gt;Node6 -->
<g id="edge9" class="edge"><title>Node7&#45;&gt;Node6</title>
<path fill="none" stroke="#9a32cd" stroke-dasharray="5,2" d="M513.859,-187.208C602.384,-192.335 774.993,-203.508 921,-220 926.82,-220.657 932.834,-221.402 938.875,-222.196"/>
<polygon fill="#9a32cd" stroke="#9a32cd" points="513.93,-183.706 503.746,-186.627 513.529,-190.695 513.93,-183.706"/>
<text text-anchor="middle" x="716" y="-210" font-family="Helvetica,sans-Serif" font-size="10.00"> completed</text>
</g>
<!-- Node8&#45;&gt;Node7 -->
<g id="edge11" class="edge"><title>Node8&#45;&gt;Node7</title>
<path fill="none" stroke="#9a32cd" stroke-dasharray="5,2" d="M241.667,-198.859C287.095,-195.665 357.291,-190.73 404.166,-187.434"/>
<polygon fill="#9a32cd" stroke="#9a32cd" points="241.255,-195.38 231.525,-199.572 241.746,-202.362 241.255,-195.38"/>
<text text-anchor="middle" x="325.5" y="-200" font-family="Helvetica,sans-Serif" font-size="10.00"> m_mutex</text>
</g>
<!-- Node9&#45;&gt;Node7 -->
<g id="edge13" class="edge"><title>Node9&#45;&gt;Node7</title>
<path fill="none" stroke="#9a32cd" stroke-dasharray="5,2" d="M267.161,-167.417C300.214,-169.256 340.166,-171.807 376,-175 385.116,-175.812 394.822,-176.828 404.161,-177.882"/>
<polygon fill="#9a32cd" stroke="#9a32cd" points="267.313,-163.92 257.137,-166.869 266.931,-170.91 267.313,-163.92"/>
<text text-anchor="middle" x="325.5" y="-178" font-family="Helvetica,sans-Serif" font-size="10.00"> m_cond</text>
</g>
<!-- Node10 -->
<g id="node10" class="node"><title>Node10</title>
<g id="a_node10"><a xlink:href="classstxxl_1_1counting__ptr.html" target="_top" xlink:title="High&#45;performance smart pointer used as a wrapping reference counting pointer. ">
<polygon fill="none" stroke="black" points="667.5,-134 667.5,-164 764.5,-164 764.5,-134 667.5,-134"/>
<text text-anchor="start" x="675.5" y="-152" font-family="Helvetica,sans-Serif" font-size="10.00">stxxl::counting_ptr</text>
<text text-anchor="middle" x="716" y="-141" font-family="Helvetica,sans-Serif" font-size="10.00">&lt; Type &gt;</text>
</a>
</g>
</g>
<!-- Node10&#45;&gt;Node6 -->
<g id="edge15" class="edge"><title>Node10&#45;&gt;Node6</title>
<path fill="none" stroke="#9a32cd" stroke-dasharray="5,2" d="M775.155,-150.238C816.817,-152.66 873.687,-159.146 921,-176 949.18,-186.039 977.921,-205.38 996.076,-218.959"/>
<polygon fill="#9a32cd" stroke="#9a32cd" points="775.074,-146.729 764.906,-149.706 774.711,-153.72 775.074,-146.729"/>
<text text-anchor="middle" x="864" y="-179" font-family="Helvetica,sans-Serif" font-size="10.00"> read_reqs</text>
</g>
<!-- Node11 -->
<g id="node11" class="node"><title>Node11</title>
<g id="a_node11"><a xlink:href="classstxxl_1_1completion__handler.html" target="_top" xlink:title="Completion handler class (Loki&#45;style). ">
<polygon fill="none" stroke="black" points="652,-271.5 652,-290.5 780,-290.5 780,-271.5 652,-271.5"/>
<text text-anchor="middle" x="716" y="-278.5" font-family="Helvetica,sans-Serif" font-size="10.00">stxxl::completion_handler</text>
</a>
</g>
</g>
<!-- Node11&#45;&gt;Node6 -->
<g id="edge16" class="edge"><title>Node11&#45;&gt;Node6</title>
<path fill="none" stroke="#9a32cd" stroke-dasharray="5,2" d="M787.393,-269.898C832.944,-262.714 892.23,-253.363 938.874,-246.006"/>
<polygon fill="#9a32cd" stroke="#9a32cd" points="786.637,-266.474 777.305,-271.489 787.728,-273.388 786.637,-266.474"/>
<text text-anchor="middle" x="864" y="-269" font-family="Helvetica,sans-Serif" font-size="10.00"> do_after_fetch</text>
</g>
<!-- Node12 -->
<g id="node12" class="node"><title>Node12</title>
<g id="a_node12"><a xlink:href="structstxxl_1_1compat__unique__ptr.html" target="_top" xlink:title="stxxl::compat_unique\l_ptr\&lt; stxxl::completion\l_handler_impl \&gt;">
<polygon fill="none" stroke="black" points="396,-268.5 396,-309.5 512,-309.5 512,-268.5 396,-268.5"/>
<text text-anchor="start" x="404" y="-297.5" font-family="Helvetica,sans-Serif" font-size="10.00">stxxl::compat_unique</text>
<text text-anchor="start" x="404" y="-286.5" font-family="Helvetica,sans-Serif" font-size="10.00">_ptr&lt; stxxl::completion</text>
<text text-anchor="middle" x="454" y="-275.5" font-family="Helvetica,sans-Serif" font-size="10.00">_handler_impl &gt;</text>
</a>
</g>
</g>
<!-- Node12&#45;&gt;Node11 -->
<g id="edge17" class="edge"><title>Node12&#45;&gt;Node11</title>
<path fill="none" stroke="#9a32cd" stroke-dasharray="5,2" d="M522.234,-286.931C562.16,-285.703 612.478,-284.155 651.693,-282.948"/>
<polygon fill="#9a32cd" stroke="#9a32cd" points="521.946,-283.438 512.058,-287.244 522.161,-290.435 521.946,-283.438"/>
<text text-anchor="middle" x="578.5" y="-290" font-family="Helvetica,sans-Serif" font-size="10.00"> m_ptr</text>
</g>
<!-- Node13 -->
<g id="node13" class="node"><title>Node13</title>
<g id="a_node13"><a xlink:href="structstxxl_1_1compat__unique__ptr.html" target="_top" xlink:title="stxxl::compat_unique\l_ptr\&lt; Type \&gt;">
<polygon fill="none" stroke="black" points="141,-274 141,-304 251,-304 251,-274 141,-274"/>
<text text-anchor="start" x="149" y="-292" font-family="Helvetica,sans-Serif" font-size="10.00">stxxl::compat_unique</text>
<text text-anchor="middle" x="196" y="-281" font-family="Helvetica,sans-Serif" font-size="10.00">_ptr&lt; Type &gt;</text>
</a>
</g>
</g>
<!-- Node13&#45;&gt;Node12 -->
<g id="edge18" class="edge"><title>Node13&#45;&gt;Node12</title>
<path fill="none" stroke="orange" stroke-dasharray="5,2" d="M261.517,-289C302.8,-289 355.879,-289 395.678,-289"/>
<polygon fill="orange" stroke="orange" points="261.291,-285.5 251.291,-289 261.291,-292.5 261.291,-285.5"/>
<text text-anchor="start" x="282" y="-303" font-family="Helvetica,sans-Serif" font-size="10.00"> &lt; stxxl::completion</text>
<text text-anchor="middle" x="325.5" y="-292" font-family="Helvetica,sans-Serif" font-size="10.00">_handler_impl &gt;</text>
</g>
<!-- Node14 -->
<g id="node14" class="node"><title>Node14</title>
<g id="a_node14"><a xlink:href="classstxxl_1_1BIDArray.html" target="_top" xlink:title="stxxl::BIDArray\&lt; block\l_type::raw_size \&gt;">
<polygon fill="none" stroke="black" points="958,-90 958,-120 1074,-120 1074,-90 958,-90"/>
<text text-anchor="start" x="966" y="-108" font-family="Helvetica,sans-Serif" font-size="10.00">stxxl::BIDArray&lt; block</text>
<text text-anchor="middle" x="1016" y="-97" font-family="Helvetica,sans-Serif" font-size="10.00">_type::raw_size &gt;</text>
</a>
</g>
</g>
<!-- Node14&#45;&gt;Node5 -->
<g id="edge20" class="edge"><title>Node14&#45;&gt;Node5</title>
<path fill="none" stroke="#9a32cd" stroke-dasharray="5,2" d="M1051.4,-125.214C1092.26,-149.231 1160.08,-189.087 1201.3,-213.31"/>
<polygon fill="#9a32cd" stroke="#9a32cd" points="1053,-122.1 1042.61,-120.05 1049.46,-128.135 1053,-122.1"/>
<text text-anchor="middle" x="1137" y="-192" font-family="Helvetica,sans-Serif" font-size="10.00"> bids_</text>
</g>
<!-- Node15&#45;&gt;Node14 -->
<g id="edge21" class="edge"><title>Node15&#45;&gt;Node14</title>
<path fill="none" stroke="midnightblue" d="M521.238,-73.9567C588.659,-76.1411 696.166,-80.1547 789,-86 846.57,-89.6249 912.261,-95.3233 957.926,-99.5348"/>
<polygon fill="midnightblue" stroke="midnightblue" points="521.286,-70.4566 511.179,-73.6348 521.062,-77.453 521.286,-70.4566"/>
</g>
<!-- Node17 -->
<g id="node17" class="node"><title>Node17</title>
<g id="a_node17"><a xlink:href="classstxxl_1_1BIDArray.html" target="_top" xlink:title="stxxl::BIDArray\&lt; BlockSize \&gt;">
<polygon fill="none" stroke="black" points="643,-95.5 643,-114.5 789,-114.5 789,-95.5 643,-95.5"/>
<text text-anchor="middle" x="716" y="-102.5" font-family="Helvetica,sans-Serif" font-size="10.00">stxxl::BIDArray&lt; BlockSize &gt;</text>
</a>
</g>
</g>
<!-- Node15&#45;&gt;Node17 -->
<g id="edge26" class="edge"><title>Node15&#45;&gt;Node17</title>
<path fill="none" stroke="midnightblue" d="M521.298,-80.4148C558.385,-85.122 604.66,-90.9953 642.679,-95.8208"/>
<polygon fill="midnightblue" stroke="midnightblue" points="521.457,-76.9069 511.096,-79.1199 520.576,-83.8512 521.457,-76.9069"/>
</g>
<!-- Node16&#45;&gt;Node15 -->
<g id="edge23" class="edge"><title>Node16&#45;&gt;Node15</title>
<path fill="none" stroke="orange" stroke-dasharray="5,2" d="M258.295,-79.6056C300.309,-77.9645 355.627,-75.8036 396.56,-74.2047"/>
<polygon fill="orange" stroke="orange" points="258.046,-76.1126 248.19,-80.0004 258.319,-83.1073 258.046,-76.1126"/>
<text text-anchor="middle" x="325.5" y="-82" font-family="Helvetica,sans-Serif" font-size="10.00"> &lt; BID&lt; BlockSize &gt; &gt;</text>
</g>
<!-- Node17&#45;&gt;Node14 -->
<g id="edge25" class="edge"><title>Node17&#45;&gt;Node14</title>
<path fill="none" stroke="orange" stroke-dasharray="5,2" d="M799.366,-105C849.787,-105 913.029,-105 957.956,-105"/>
<polygon fill="orange" stroke="orange" points="799.138,-101.5 789.137,-105 799.137,-108.5 799.138,-101.5"/>
<text text-anchor="middle" x="864" y="-108" font-family="Helvetica,sans-Serif" font-size="10.00"> &lt; block_type::raw_size &gt;</text>
</g>
</g>
</svg>
