<?xml version="1.0" encoding="UTF-8" standalone="no"?>
<!DOCTYPE svg PUBLIC "-//W3C//DTD SVG 1.1//EN"
 "http://www.w3.org/Graphics/SVG/1.1/DTD/svg11.dtd">
<!-- Generated by graphviz version 2.26.3 (20100126.1600)
 -->
<!-- Title: stxxl::grow_shrink_stack2&lt; StackConfig &gt; Pages: 1 -->
<svg width="3206pt" height="572pt"
 viewBox="0.00 0.00 3206.00 572.00" xmlns="http://www.w3.org/2000/svg" xmlns:xlink="http://www.w3.org/1999/xlink">
<g id="graph1" class="graph" transform="scale(1 1) rotate(0) translate(4 568)">
<title>stxxl::grow_shrink_stack2&lt; StackConfig &gt;</title>
<!-- Node1 -->
<g id="node1" class="node"><title>Node1</title>
<polygon fill="#bfbfbf" stroke="black" points="3074.5,-310 3074.5,-344 3197.5,-344 3197.5,-310 3074.5,-310"/>
<text text-anchor="start" x="3082.5" y="-331" font-family="Helvetica,sans-Serif" font-size="10.00">stxxl::grow_shrink</text>
<text text-anchor="middle" x="3136" y="-318" font-family="Helvetica,sans-Serif" font-size="10.00">_stack2&lt; StackConfig &gt;</text>
</g>
<!-- Node2 -->
<g id="node2" class="node"><title>Node2</title>
<a xlink:href="classstxxl_1_1noncopyable.html" target="_top" xlink:title="stxxl::noncopyable">
<polygon fill="none" stroke="black" points="20,-356.5 20,-377.5 118,-377.5 118,-356.5 20,-356.5"/>
<text text-anchor="middle" x="69" y="-364.5" font-family="Helvetica,sans-Serif" font-size="10.00">stxxl::noncopyable</text>
</a>
</g>
<!-- Node2&#45;&gt;Node1 -->
<g id="edge2" class="edge"><title>Node2&#45;&gt;Node1</title>
<path fill="none" stroke="#8b1a1a" d="M128.615,-360.412C183.468,-354.924 267.113,-348 340,-348 340,-348 340,-348 2945,-348 2988.37,-348 3036.94,-342.585 3074.26,-337.254"/>
<polygon fill="#8b1a1a" stroke="#8b1a1a" points="127.973,-356.959 118.378,-361.453 128.681,-363.924 127.973,-356.959"/>
</g>
<!-- Node3 -->
<g id="node4" class="node"><title>Node3</title>
<a xlink:href="classstxxl_1_1read__write__pool.html" target="_top" xlink:title="Implements dynamically resizable buffered writing and prefetched reading pool. ">
<polygon fill="none" stroke="black" points="772,-417 772,-451 884,-451 884,-417 772,-417"/>
<text text-anchor="start" x="780" y="-438" font-family="Helvetica,sans-Serif" font-size="10.00">stxxl::read_write_pool</text>
<text text-anchor="middle" x="828" y="-425" font-family="Helvetica,sans-Serif" font-size="10.00">&lt; BlockType &gt;</text>
</a>
</g>
<!-- Node2&#45;&gt;Node3 -->
<g id="edge6" class="edge"><title>Node2&#45;&gt;Node3</title>
<path fill="none" stroke="#8b1a1a" d="M128.177,-379.402C137.482,-381.306 146.998,-383.227 156,-385 272.231,-407.891 300.042,-423.064 418,-434 543.983,-445.68 692.679,-441.14 771.81,-437.274"/>
<polygon fill="#8b1a1a" stroke="#8b1a1a" points="128.698,-375.936 118.198,-377.35 127.288,-382.792 128.698,-375.936"/>
</g>
<!-- Node4 -->
<g id="node7" class="node"><title>Node4</title>
<a xlink:href="classstxxl_1_1prefetch__pool.html" target="_top" xlink:title="Implements dynamically resizable prefetching pool. ">
<polygon fill="none" stroke="black" points="562,-476 562,-510 664,-510 664,-476 562,-476"/>
<text text-anchor="start" x="570" y="-497" font-family="Helvetica,sans-Serif" font-size="10.00">stxxl::prefetch_pool</text>
<text text-anchor="middle" x="613" y="-484" font-family="Helvetica,sans-Serif" font-size="10.00">&lt; BlockType &gt;</text>
</a>
</g>
<!-- Node2&#45;&gt;Node4 -->
<g id="edge10" class="edge"><title>Node2&#45;&gt;Node4</title>
<path fill="none" stroke="#8b1a1a" d="M80.323,-386.478C94.6972,-409.137 121.792,-445.538 156,-462 226.403,-495.881 457.98,-496.014 561.824,-494.245"/>
<polygon fill="#8b1a1a" stroke="#8b1a1a" points="83.1616,-384.411 74.9578,-377.707 77.1901,-388.064 83.1616,-384.411"/>
</g>
<!-- Node9 -->
<g id="node18" class="node"><title>Node9</title>
<a xlink:href="classstxxl_1_1write__pool.html" target="_top" xlink:title="Implements dynamically resizable buffered writing pool. ">
<polygon fill="none" stroke="black" points="431,-363 431,-397 525,-397 525,-363 431,-363"/>
<text text-anchor="start" x="439" y="-384" font-family="Helvetica,sans-Serif" font-size="10.00">stxxl::write_pool&lt;</text>
<text text-anchor="middle" x="478" y="-371" font-family="Helvetica,sans-Serif" font-size="10.00"> BlockType &gt;</text>
</a>
</g>
<!-- Node2&#45;&gt;Node9 -->
<g id="edge22" class="edge"><title>Node2&#45;&gt;Node9</title>
<path fill="none" stroke="#8b1a1a" d="M128.47,-368.89C210.274,-371.49 355.867,-376.118 430.704,-378.497"/>
<polygon fill="#8b1a1a" stroke="#8b1a1a" points="128.441,-365.388 118.335,-368.568 128.219,-372.384 128.441,-365.388"/>
</g>
<!-- Node17 -->
<g id="node36" class="node"><title>Node17</title>
<a xlink:href="classstxxl_1_1file.html" target="_top" xlink:title="Defines interface of file. ">
<polygon fill="none" stroke="black" points="800,-226.5 800,-247.5 856,-247.5 856,-226.5 800,-226.5"/>
<text text-anchor="middle" x="828" y="-234.5" font-family="Helvetica,sans-Serif" font-size="10.00">stxxl::file</text>
</a>
</g>
<!-- Node2&#45;&gt;Node17 -->
<g id="edge42" class="edge"><title>Node2&#45;&gt;Node17</title>
<path fill="none" stroke="#8b1a1a" d="M101.984,-352.438C118.009,-345.897 137.713,-338.626 156,-334 415.957,-268.24 490.158,-301.848 754,-254 769.175,-251.248 785.936,-247.461 799.664,-244.159"/>
<polygon fill="#8b1a1a" stroke="#8b1a1a" points="100.407,-349.304 92.5276,-356.387 103.104,-355.764 100.407,-349.304"/>
</g>
<!-- Node19 -->
<g id="node41" class="node"><title>Node19</title>
<a xlink:href="classstxxl_1_1mutex.html" target="_top" xlink:title="stxxl::mutex">
<polygon fill="none" stroke="black" points="304.5,-260.5 304.5,-281.5 375.5,-281.5 375.5,-260.5 304.5,-260.5"/>
<text text-anchor="middle" x="340" y="-268.5" font-family="Helvetica,sans-Serif" font-size="10.00">stxxl::mutex</text>
</a>
</g>
<!-- Node2&#45;&gt;Node19 -->
<g id="edge48" class="edge"><title>Node2&#45;&gt;Node19</title>
<path fill="none" stroke="#8b1a1a" d="M85.2921,-348.914C101.475,-332.216 127.878,-308.215 156,-296 204.346,-275.001 265.991,-270.628 304.228,-270.208"/>
<polygon fill="#8b1a1a" stroke="#8b1a1a" points="82.5126,-346.76 78.2058,-356.44 87.6091,-351.558 82.5126,-346.76"/>
</g>
<!-- Node3&#45;&gt;Node1 -->
<g id="edge4" class="edge"><title>Node3&#45;&gt;Node1</title>
<path fill="none" stroke="#9a32cd" stroke-dasharray="5,2" d="M894.264,-419.177C927.859,-412.896 969.404,-407 1007,-407 1007,-407 1007,-407 2945,-407 3009.53,-407 3077.47,-367.669 3112.31,-344.162"/>
<polygon fill="#9a32cd" stroke="#9a32cd" points="893.265,-415.805 884.107,-421.133 894.588,-422.679 893.265,-415.805"/>
<text text-anchor="middle" x="1928" y="-424" font-family="Helvetica,sans-Serif" font-size="10.00"> owned_pool</text>
<text text-anchor="middle" x="1928" y="-411" font-family="Helvetica,sans-Serif" font-size="10.00">pool</text>
</g>
<!-- Node4&#45;&gt;Node3 -->
<g id="edge8" class="edge"><title>Node4&#45;&gt;Node3</title>
<path fill="none" stroke="#9a32cd" stroke-dasharray="5,2" d="M674.106,-481.586C699.085,-476.398 728.134,-469.692 754,-462 764.533,-458.867 775.709,-454.958 786.099,-451.064"/>
<polygon fill="#9a32cd" stroke="#9a32cd" points="673.13,-478.213 664.032,-483.642 674.53,-485.071 673.13,-478.213"/>
<text text-anchor="middle" x="721" y="-482" font-family="Helvetica,sans-Serif" font-size="10.00"> p_pool</text>
</g>
<!-- Node5 -->
<g id="node10" class="node"><title>Node5</title>
<a xlink:href="structstxxl_1_1choose__int__types.html" target="_top" xlink:title="stxxl::choose_int_types\l\&lt; my_pointer_size \&gt;">
<polygon fill="none" stroke="black" points="280,-208 280,-242 400,-242 400,-208 280,-208"/>
<text text-anchor="start" x="288" y="-229" font-family="Helvetica,sans-Serif" font-size="10.00">stxxl::choose_int_types</text>
<text text-anchor="middle" x="340" y="-216" font-family="Helvetica,sans-Serif" font-size="10.00">&lt; my_pointer_size &gt;</text>
</a>
</g>
<!-- Node5&#45;&gt;Node1 -->
<g id="edge24" class="edge"><title>Node5&#45;&gt;Node1</title>
<path fill="none" stroke="#9a32cd" stroke-dasharray="5,2" d="M354.911,-198.934C390.968,-139.686 489.113,-0 613,-0 613,-0 613,-0 2945,-0 3089.97,-0 3126.91,-242.597 3134.36,-309.879"/>
<polygon fill="#9a32cd" stroke="#9a32cd" points="351.787,-197.338 349.663,-207.718 357.797,-200.929 351.787,-197.338"/>
<text text-anchor="middle" x="1721" y="-17" font-family="Helvetica,sans-Serif" font-size="10.00"> cache_offset</text>
<text text-anchor="middle" x="1721" y="-4" font-family="Helvetica,sans-Serif" font-size="10.00">pref_aggr</text>
</g>
<!-- Node5&#45;&gt;Node4 -->
<g id="edge12" class="edge"><title>Node5&#45;&gt;Node4</title>
<path fill="none" stroke="#9a32cd" stroke-dasharray="5,2" d="M398.531,-249.152C399.038,-249.753 399.528,-250.369 400,-251 439.407,-303.722 379.774,-344.416 418,-398 423.003,-405.013 520.498,-450.545 575.695,-475.942"/>
<polygon fill="#9a32cd" stroke="#9a32cd" points="400.762,-246.446 391.081,-242.141 395.965,-251.543 400.762,-246.446"/>
<text text-anchor="middle" x="478" y="-461" font-family="Helvetica,sans-Serif" font-size="10.00"> free_blocks_size</text>
</g>
<!-- Node18 -->
<g id="node39" class="node"><title>Node18</title>
<a xlink:href="classstxxl_1_1atomic__counted__object.html" target="_top" xlink:title="Provides reference counting abilities for use with counting_ptr with mutex locking. ">
<polygon fill="none" stroke="black" points="556.5,-220 556.5,-254 669.5,-254 669.5,-220 556.5,-220"/>
<text text-anchor="start" x="564.5" y="-241" font-family="Helvetica,sans-Serif" font-size="10.00">stxxl::atomic_counted</text>
<text text-anchor="middle" x="613" y="-228" font-family="Helvetica,sans-Serif" font-size="10.00">_object</text>
</a>
</g>
<!-- Node5&#45;&gt;Node18 -->
<g id="edge50" class="edge"><title>Node5&#45;&gt;Node18</title>
<path fill="none" stroke="#9a32cd" stroke-dasharray="5,2" d="M410.625,-227.632C448.416,-229.097 495.751,-231.02 538,-233 543.992,-233.281 550.251,-233.59 556.49,-233.908"/>
<polygon fill="#9a32cd" stroke="#9a32cd" points="410.358,-224.119 400.231,-227.232 410.089,-231.114 410.358,-224.119"/>
<text text-anchor="middle" x="478" y="-237" font-family="Helvetica,sans-Serif" font-size="10.00"> m_reference_count</text>
</g>
<!-- Node6 -->
<g id="node12" class="node"><title>Node6</title>
<a xlink:href="structstxxl_1_1choose__int__types.html" target="_top" xlink:title="stxxl::choose_int_types\l\&lt; PtrSize \&gt;">
<polygon fill="none" stroke="black" points="9,-208 9,-242 129,-242 129,-208 9,-208"/>
<text text-anchor="start" x="17" y="-229" font-family="Helvetica,sans-Serif" font-size="10.00">stxxl::choose_int_types</text>
<text text-anchor="middle" x="69" y="-216" font-family="Helvetica,sans-Serif" font-size="10.00">&lt; PtrSize &gt;</text>
</a>
</g>
<!-- Node6&#45;&gt;Node5 -->
<g id="edge14" class="edge"><title>Node6&#45;&gt;Node5</title>
<path fill="none" stroke="orange" stroke-dasharray="5,2" d="M139.361,-225C182.839,-225 238.058,-225 279.556,-225"/>
<polygon fill="orange" stroke="orange" points="139.144,-221.5 129.144,-225 139.144,-228.5 139.144,-221.5"/>
<text text-anchor="middle" x="209" y="-229" font-family="Helvetica,sans-Serif" font-size="10.00"> &lt; my_pointer_size &gt;</text>
</g>
<!-- Node7 -->
<g id="node14" class="node"><title>Node7</title>
<a xlink:href="structstxxl_1_1compat__hash__map.html" target="_top" xlink:title="stxxl::compat_hash\l_map\&lt; bid_type, busy\l_entry, bid_hash \&gt;">
<polygon fill="none" stroke="black" points="283.5,-514.5 283.5,-561.5 396.5,-561.5 396.5,-514.5 283.5,-514.5"/>
<text text-anchor="start" x="291.5" y="-548.5" font-family="Helvetica,sans-Serif" font-size="10.00">stxxl::compat_hash</text>
<text text-anchor="start" x="291.5" y="-535.5" font-family="Helvetica,sans-Serif" font-size="10.00">_map&lt; bid_type, busy</text>
<text text-anchor="middle" x="340" y="-522.5" font-family="Helvetica,sans-Serif" font-size="10.00">_entry, bid_hash &gt;</text>
</a>
</g>
<!-- Node7&#45;&gt;Node4 -->
<g id="edge16" class="edge"><title>Node7&#45;&gt;Node4</title>
<path fill="none" stroke="#9a32cd" stroke-dasharray="5,2" d="M406.505,-527.038C454.258,-519.166 517.68,-508.712 561.578,-501.476"/>
<polygon fill="#9a32cd" stroke="#9a32cd" points="405.863,-523.596 396.566,-528.676 407.002,-530.503 405.863,-523.596"/>
<text text-anchor="middle" x="478" y="-528" font-family="Helvetica,sans-Serif" font-size="10.00"> busy_blocks</text>
</g>
<!-- Node8 -->
<g id="node16" class="node"><title>Node8</title>
<a xlink:href="structstxxl_1_1compat__hash__map.html" target="_top" xlink:title="stxxl::compat_hash\l_map\&lt; _Key, _Tp, _Hash \&gt;">
<polygon fill="none" stroke="black" points="0,-521 0,-555 138,-555 138,-521 0,-521"/>
<text text-anchor="start" x="8" y="-542" font-family="Helvetica,sans-Serif" font-size="10.00">stxxl::compat_hash</text>
<text text-anchor="middle" x="69" y="-529" font-family="Helvetica,sans-Serif" font-size="10.00">_map&lt; _Key, _Tp, _Hash &gt;</text>
</a>
</g>
<!-- Node8&#45;&gt;Node7 -->
<g id="edge18" class="edge"><title>Node8&#45;&gt;Node7</title>
<path fill="none" stroke="orange" stroke-dasharray="5,2" d="M148.31,-538C191.614,-538 244.224,-538 283.366,-538"/>
<polygon fill="orange" stroke="orange" points="148.086,-534.5 138.086,-538 148.086,-541.5 148.086,-534.5"/>
<text text-anchor="start" x="156" y="-555" font-family="Helvetica,sans-Serif" font-size="10.00"> &lt; bid_type, busy_entry,</text>
<text text-anchor="middle" x="209" y="-542" font-family="Helvetica,sans-Serif" font-size="10.00"> bid_hash &gt;</text>
</g>
<!-- Node9&#45;&gt;Node3 -->
<g id="edge20" class="edge"><title>Node9&#45;&gt;Node3</title>
<path fill="none" stroke="#9a32cd" stroke-dasharray="5,2" d="M535.328,-388.845C600.678,-398.928 706.82,-415.304 771.727,-425.318"/>
<polygon fill="#9a32cd" stroke="#9a32cd" points="535.619,-385.349 525.203,-387.283 534.552,-392.267 535.619,-385.349"/>
<text text-anchor="middle" x="613" y="-413" font-family="Helvetica,sans-Serif" font-size="10.00"> w_pool</text>
</g>
<!-- Node10 -->
<g id="node22" class="node"><title>Node10</title>
<a xlink:href="classstxxl_1_1typed__block.html" target="_top" xlink:title="Block containing elements of fixed length. ">
<polygon fill="none" stroke="black" points="2882.5,-268.5 2882.5,-315.5 3007.5,-315.5 3007.5,-268.5 2882.5,-268.5"/>
<text text-anchor="start" x="2890.5" y="-302.5" font-family="Helvetica,sans-Serif" font-size="10.00">stxxl::typed_block</text>
<text text-anchor="start" x="2890.5" y="-289.5" font-family="Helvetica,sans-Serif" font-size="10.00">&lt; RawSize, Type, NRef,</text>
<text text-anchor="middle" x="2945" y="-276.5" font-family="Helvetica,sans-Serif" font-size="10.00"> MetaInfoType &gt;</text>
</a>
</g>
<!-- Node10&#45;&gt;Node1 -->
<g id="edge26" class="edge"><title>Node10&#45;&gt;Node1</title>
<path fill="none" stroke="#9a32cd" stroke-dasharray="5,2" d="M3017.49,-305.284C3036.21,-308.714 3056.19,-312.374 3074.3,-315.693"/>
<polygon fill="#9a32cd" stroke="#9a32cd" points="3018.01,-301.82 3007.54,-303.46 3016.75,-308.706 3018.01,-301.82"/>
<text text-anchor="middle" x="3041" y="-315" font-family="Helvetica,sans-Serif" font-size="10.00"> cache</text>
</g>
<!-- Node11 -->
<g id="node24" class="node"><title>Node11</title>
<a xlink:href="classstxxl_1_1mng__local_1_1expand__struct.html" target="_top" xlink:title="stxxl::mng_local::expand\l_struct\&lt; mng_local::block\l_w_info\&lt; Type, RawSize, NRef,\l MetaInfoType \&gt;, RawSize \&gt;">
<polygon fill="none" stroke="black" points="2684.5,-251 2684.5,-311 2843.5,-311 2843.5,-251 2684.5,-251"/>
<text text-anchor="start" x="2692.5" y="-298" font-family="Helvetica,sans-Serif" font-size="10.00">stxxl::mng_local::expand</text>
<text text-anchor="start" x="2692.5" y="-285" font-family="Helvetica,sans-Serif" font-size="10.00">_struct&lt; mng_local::block</text>
<text text-anchor="start" x="2692.5" y="-272" font-family="Helvetica,sans-Serif" font-size="10.00">_w_info&lt; Type, RawSize, NRef,</text>
<text text-anchor="middle" x="2764" y="-259" font-family="Helvetica,sans-Serif" font-size="10.00"> MetaInfoType &gt;, RawSize &gt;</text>
</a>
</g>
<!-- Node11&#45;&gt;Node10 -->
<g id="edge28" class="edge"><title>Node11&#45;&gt;Node10</title>
<path fill="none" stroke="midnightblue" d="M2853.74,-286.454C2863.45,-287.044 2873.17,-287.634 2882.45,-288.199"/>
<polygon fill="midnightblue" stroke="midnightblue" points="2853.85,-282.954 2843.65,-285.841 2853.42,-289.941 2853.85,-282.954"/>
</g>
<!-- Node12 -->
<g id="node26" class="node"><title>Node12</title>
<a xlink:href="classstxxl_1_1mng__local_1_1add__filler.html" target="_top" xlink:title="stxxl::mng_local::add\l_filler\&lt; mng_local::block\l_w_info\&lt; Type, RawSize,\l NRef, MetaInfoType \&gt;, RawSize\l&#45;sizeof(mng_local::block_w_info\l\&lt; Type, RawSize, NRef, MetaInfoType \&gt;)\&gt;">
<polygon fill="none" stroke="black" points="2328,-110 2328,-196 2534,-196 2534,-110 2328,-110"/>
<text text-anchor="start" x="2336" y="-183" font-family="Helvetica,sans-Serif" font-size="10.00">stxxl::mng_local::add</text>
<text text-anchor="start" x="2336" y="-170" font-family="Helvetica,sans-Serif" font-size="10.00">_filler&lt; mng_local::block</text>
<text text-anchor="start" x="2336" y="-157" font-family="Helvetica,sans-Serif" font-size="10.00">_w_info&lt; Type, RawSize,</text>
<text text-anchor="start" x="2336" y="-144" font-family="Helvetica,sans-Serif" font-size="10.00"> NRef, MetaInfoType &gt;, RawSize</text>
<text text-anchor="start" x="2336" y="-131" font-family="Helvetica,sans-Serif" font-size="10.00">&#45;sizeof(mng_local::block_w_info</text>
<text text-anchor="middle" x="2431" y="-118" font-family="Helvetica,sans-Serif" font-size="10.00">&lt; Type, RawSize, NRef, MetaInfoType &gt;)&gt;</text>
</a>
</g>
<!-- Node12&#45;&gt;Node11 -->
<g id="edge30" class="edge"><title>Node12&#45;&gt;Node11</title>
<path fill="none" stroke="midnightblue" d="M2543.64,-196.297C2590.34,-214.248 2643.38,-234.635 2685.72,-250.909"/>
<polygon fill="midnightblue" stroke="midnightblue" points="2544.67,-192.944 2534.08,-192.623 2542.16,-199.478 2544.67,-192.944"/>
</g>
<!-- Node13 -->
<g id="node28" class="node"><title>Node13</title>
<a xlink:href="classstxxl_1_1mng__local_1_1block__w__info.html" target="_top" xlink:title="stxxl::mng_local::block\l_w_info\&lt; Type, RawSize,\l NRef, MetaInfoType \&gt;">
<polygon fill="none" stroke="black" points="2153,-54.5 2153,-101.5 2283,-101.5 2283,-54.5 2153,-54.5"/>
<text text-anchor="start" x="2161" y="-88.5" font-family="Helvetica,sans-Serif" font-size="10.00">stxxl::mng_local::block</text>
<text text-anchor="start" x="2161" y="-75.5" font-family="Helvetica,sans-Serif" font-size="10.00">_w_info&lt; Type, RawSize,</text>
<text text-anchor="middle" x="2218" y="-62.5" font-family="Helvetica,sans-Serif" font-size="10.00"> NRef, MetaInfoType &gt;</text>
</a>
</g>
<!-- Node13&#45;&gt;Node12 -->
<g id="edge32" class="edge"><title>Node13&#45;&gt;Node12</title>
<path fill="none" stroke="midnightblue" d="M2292.53,-104.243C2303.97,-108.271 2315.95,-112.489 2327.87,-116.688"/>
<polygon fill="midnightblue" stroke="midnightblue" points="2293.66,-100.93 2283.06,-100.91 2291.33,-107.533 2293.66,-100.93"/>
</g>
<!-- Node14 -->
<g id="node30" class="node"><title>Node14</title>
<a xlink:href="classstxxl_1_1mng__local_1_1block__w__bids.html" target="_top" xlink:title="stxxl::mng_local::block\l_w_bids\&lt; Type,((RawSize\l&#45;sizeof(BID\&lt; RawSize \&gt;)*NBids\l&#45;sizeof(MetaInfoType))/sizeof\l(Type)), RawSize, NBids \&gt;">
<polygon fill="none" stroke="black" points="1642,-67.5 1642,-140.5 1800,-140.5 1800,-67.5 1642,-67.5"/>
<text text-anchor="start" x="1650" y="-127.5" font-family="Helvetica,sans-Serif" font-size="10.00">stxxl::mng_local::block</text>
<text text-anchor="start" x="1650" y="-114.5" font-family="Helvetica,sans-Serif" font-size="10.00">_w_bids&lt; Type,((RawSize</text>
<text text-anchor="start" x="1650" y="-101.5" font-family="Helvetica,sans-Serif" font-size="10.00">&#45;sizeof(BID&lt; RawSize &gt;)*NBids</text>
<text text-anchor="start" x="1650" y="-88.5" font-family="Helvetica,sans-Serif" font-size="10.00">&#45;sizeof(MetaInfoType))/sizeof</text>
<text text-anchor="middle" x="1721" y="-75.5" font-family="Helvetica,sans-Serif" font-size="10.00">(Type)), RawSize, NBids &gt;</text>
</a>
</g>
<!-- Node14&#45;&gt;Node13 -->
<g id="edge34" class="edge"><title>Node14&#45;&gt;Node13</title>
<path fill="none" stroke="midnightblue" d="M1810.4,-103.444C1892.96,-102.333 2018.94,-99.1243 2128,-90 2136.01,-89.3298 2144.4,-88.4503 2152.7,-87.4716"/>
<polygon fill="midnightblue" stroke="midnightblue" points="1810.26,-99.9454 1800.3,-103.572 1810.34,-106.945 1810.26,-99.9454"/>
</g>
<!-- Node22 -->
<g id="node52" class="node"><title>Node22</title>
<a xlink:href="classstxxl_1_1mng__local_1_1block__w__info.html" target="_top" xlink:title="Contains per block information for stxxl::typed_block , not intended for direct use. ">
<polygon fill="none" stroke="black" points="1863,-28.5 1863,-75.5 1993,-75.5 1993,-28.5 1863,-28.5"/>
<text text-anchor="start" x="1871" y="-62.5" font-family="Helvetica,sans-Serif" font-size="10.00">stxxl::mng_local::block</text>
<text text-anchor="start" x="1871" y="-49.5" font-family="Helvetica,sans-Serif" font-size="10.00">_w_info&lt; Type, RawSize,</text>
<text text-anchor="middle" x="1928" y="-36.5" font-family="Helvetica,sans-Serif" font-size="10.00"> NBids, MetaInfoType &gt;</text>
</a>
</g>
<!-- Node14&#45;&gt;Node22 -->
<g id="edge64" class="edge"><title>Node14&#45;&gt;Node22</title>
<path fill="none" stroke="midnightblue" d="M1809.91,-81.664C1827.63,-77.2128 1845.93,-72.6154 1862.68,-68.4078"/>
<polygon fill="midnightblue" stroke="midnightblue" points="1808.99,-78.2875 1800.14,-84.1184 1810.7,-85.0765 1808.99,-78.2875"/>
</g>
<!-- Node15 -->
<g id="node32" class="node"><title>Node15</title>
<a xlink:href="classstxxl_1_1mng__local_1_1element__block.html" target="_top" xlink:title="Contains data elements for stxxl::typed_block , not intended for direct use. ">
<polygon fill="none" stroke="black" points="1156,-72 1156,-106 1284,-106 1284,-72 1156,-72"/>
<text text-anchor="start" x="1164" y="-93" font-family="Helvetica,sans-Serif" font-size="10.00">stxxl::mng_local::element</text>
<text text-anchor="middle" x="1220" y="-80" font-family="Helvetica,sans-Serif" font-size="10.00">_block&lt; Type, Size &gt;</text>
</a>
</g>
<!-- Node15&#45;&gt;Node14 -->
<g id="edge36" class="edge"><title>Node15&#45;&gt;Node14</title>
<path fill="none" stroke="midnightblue" d="M1294.41,-91.2278C1387.58,-94.0173 1546.5,-98.7755 1641.84,-101.63"/>
<polygon fill="midnightblue" stroke="midnightblue" points="1294.32,-87.7236 1284.22,-90.9226 1294.11,-94.7204 1294.32,-87.7236"/>
</g>
<!-- Node21 -->
<g id="node48" class="node"><title>Node21</title>
<a xlink:href="classstxxl_1_1mng__local_1_1block__w__bids.html" target="_top" xlink:title="Contains BID references for stxxl::typed_block , not intended for direct use. ">
<polygon fill="none" stroke="black" points="1336,-110.5 1336,-157.5 1494,-157.5 1494,-110.5 1336,-110.5"/>
<text text-anchor="start" x="1344" y="-144.5" font-family="Helvetica,sans-Serif" font-size="10.00">stxxl::mng_local::block</text>
<text text-anchor="start" x="1344" y="-131.5" font-family="Helvetica,sans-Serif" font-size="10.00">_w_bids&lt; Type, Size, RawSize,</text>
<text text-anchor="middle" x="1415" y="-118.5" font-family="Helvetica,sans-Serif" font-size="10.00"> NBids &gt;</text>
</a>
</g>
<!-- Node15&#45;&gt;Node21 -->
<g id="edge58" class="edge"><title>Node15&#45;&gt;Node21</title>
<path fill="none" stroke="midnightblue" d="M1293.96,-106.068C1307.66,-109.229 1322.02,-112.543 1335.86,-115.738"/>
<polygon fill="midnightblue" stroke="midnightblue" points="1294.65,-102.635 1284.12,-103.797 1293.08,-109.456 1294.65,-102.635"/>
</g>
<!-- Node16 -->
<g id="node34" class="node"><title>Node16</title>
<a xlink:href="structstxxl_1_1BID.html" target="_top" xlink:title="stxxl::BID\&lt; raw_size \&gt;">
<polygon fill="none" stroke="black" points="1161,-184.5 1161,-205.5 1279,-205.5 1279,-184.5 1161,-184.5"/>
<text text-anchor="middle" x="1220" y="-192.5" font-family="Helvetica,sans-Serif" font-size="10.00">stxxl::BID&lt; raw_size &gt;</text>
</a>
</g>
<!-- Node16&#45;&gt;Node14 -->
<g id="edge38" class="edge"><title>Node16&#45;&gt;Node14</title>
<path fill="none" stroke="#9a32cd" stroke-dasharray="5,2" d="M1289.4,-197.783C1388.36,-200.872 1564.61,-202.869 1624,-181 1647.2,-172.456 1669.13,-156.05 1686.25,-140.57"/>
<polygon fill="#9a32cd" stroke="#9a32cd" points="1289.3,-194.278 1279.19,-197.452 1289.08,-201.274 1289.3,-194.278"/>
<text text-anchor="middle" x="1415" y="-204" font-family="Helvetica,sans-Serif" font-size="10.00"> ref</text>
</g>
<!-- Node16&#45;&gt;Node21 -->
<g id="edge60" class="edge"><title>Node16&#45;&gt;Node21</title>
<path fill="none" stroke="#9a32cd" stroke-dasharray="5,2" d="M1261.13,-181.227C1274.18,-176.92 1288.67,-172.199 1302,-168 1312.94,-164.553 1324.5,-160.987 1335.89,-157.519"/>
<polygon fill="#9a32cd" stroke="#9a32cd" points="1259.87,-177.957 1251.48,-184.424 1262.07,-184.602 1259.87,-177.957"/>
<text text-anchor="middle" x="1310" y="-172" font-family="Helvetica,sans-Serif" font-size="10.00"> ref</text>
</g>
<!-- Node17&#45;&gt;Node16 -->
<g id="edge40" class="edge"><title>Node17&#45;&gt;Node16</title>
<path fill="none" stroke="#9a32cd" stroke-dasharray="5,2" d="M866.007,-224.874C891.241,-217.403 925.256,-208.433 956,-204 1025.9,-193.921 1107.24,-192.712 1160.96,-193.348"/>
<polygon fill="#9a32cd" stroke="#9a32cd" points="864.672,-221.621 856.109,-227.86 866.694,-228.322 864.672,-221.621"/>
<text text-anchor="middle" x="1007" y="-208" font-family="Helvetica,sans-Serif" font-size="10.00"> storage</text>
</g>
<!-- Node20 -->
<g id="node45" class="node"><title>Node20</title>
<a xlink:href="structstxxl_1_1BID.html" target="_top" xlink:title="Block identifier class. ">
<polygon fill="none" stroke="black" points="956.5,-226.5 956.5,-247.5 1057.5,-247.5 1057.5,-226.5 956.5,-226.5"/>
<text text-anchor="middle" x="1007" y="-234.5" font-family="Helvetica,sans-Serif" font-size="10.00">stxxl::BID&lt; SIZE &gt;</text>
</a>
</g>
<!-- Node17&#45;&gt;Node20 -->
<g id="edge54" class="edge"><title>Node17&#45;&gt;Node20</title>
<path fill="none" stroke="#9a32cd" stroke-dasharray="5,2" d="M866.681,-237C892.944,-237 927.938,-237 956.409,-237"/>
<polygon fill="#9a32cd" stroke="#9a32cd" points="866.363,-233.5 856.363,-237 866.363,-240.5 866.363,-233.5"/>
<text text-anchor="middle" x="920" y="-241" font-family="Helvetica,sans-Serif" font-size="10.00"> storage</text>
</g>
<!-- Node18&#45;&gt;Node17 -->
<g id="edge44" class="edge"><title>Node18&#45;&gt;Node17</title>
<path fill="none" stroke="#9a32cd" stroke-dasharray="5,2" d="M679.824,-237C720.198,-237 769.551,-237 799.875,-237"/>
<polygon fill="#9a32cd" stroke="#9a32cd" points="679.77,-233.5 669.77,-237 679.77,-240.5 679.77,-233.5"/>
<text text-anchor="middle" x="721" y="-241" font-family="Helvetica,sans-Serif" font-size="10.00"> m_request_ref</text>
</g>
<!-- Node19&#45;&gt;Node18 -->
<g id="edge46" class="edge"><title>Node19&#45;&gt;Node18</title>
<path fill="none" stroke="#9a32cd" stroke-dasharray="5,2" d="M385.875,-265.287C432.83,-259.439 505.885,-250.34 556.403,-244.049"/>
<polygon fill="#9a32cd" stroke="#9a32cd" points="385.181,-261.846 375.69,-266.555 386.046,-268.792 385.181,-261.846"/>
<text text-anchor="middle" x="478" y="-265" font-family="Helvetica,sans-Serif" font-size="10.00"> m_reference_count_mutex</text>
</g>
<!-- Node20&#45;&gt;Node16 -->
<g id="edge52" class="edge"><title>Node20&#45;&gt;Node16</title>
<path fill="none" stroke="orange" stroke-dasharray="5,2" d="M1067.64,-225.043C1098.86,-218.888 1136.57,-211.451 1166.67,-205.516"/>
<polygon fill="orange" stroke="orange" points="1066.88,-221.625 1057.75,-226.993 1068.24,-228.493 1066.88,-221.625"/>
<text text-anchor="middle" x="1107" y="-227" font-family="Helvetica,sans-Serif" font-size="10.00"> &lt; raw_size &gt;</text>
</g>
<!-- Node21&#45;&gt;Node14 -->
<g id="edge56" class="edge"><title>Node21&#45;&gt;Node14</title>
<path fill="none" stroke="orange" stroke-dasharray="5,2" d="M1503.93,-117.044C1506.65,-116.671 1509.34,-116.322 1512,-116 1554.76,-110.826 1602.71,-107.871 1641.89,-106.189"/>
<polygon fill="orange" stroke="orange" points="1503.41,-113.583 1494.01,-118.487 1504.41,-120.51 1503.41,-113.583"/>
<text text-anchor="start" x="1512" y="-172" font-family="Helvetica,sans-Serif" font-size="10.00"> &lt; Type,((RawSize&#45;sizeof</text>
<text text-anchor="start" x="1512" y="-159" font-family="Helvetica,sans-Serif" font-size="10.00">(BID&lt; RawSize &gt;)*NBids</text>
<text text-anchor="start" x="1512" y="-146" font-family="Helvetica,sans-Serif" font-size="10.00">&#45;sizeof(MetaInfoType))</text>
<text text-anchor="start" x="1512" y="-133" font-family="Helvetica,sans-Serif" font-size="10.00">/sizeof(Type)), RawSize,</text>
<text text-anchor="middle" x="1568" y="-120" font-family="Helvetica,sans-Serif" font-size="10.00"> NBids &gt;</text>
</g>
<!-- Node22&#45;&gt;Node13 -->
<g id="edge62" class="edge"><title>Node22&#45;&gt;Node13</title>
<path fill="none" stroke="orange" stroke-dasharray="5,2" d="M2003.77,-54.8585C2041.22,-56.7008 2087.06,-59.5976 2128,-64 2136.02,-64.8623 2144.41,-65.9366 2152.72,-67.1043"/>
<polygon fill="orange" stroke="orange" points="2003.59,-51.3463 1993.43,-54.3665 2003.26,-58.3384 2003.59,-51.3463"/>
<text text-anchor="start" x="2016" y="-81" font-family="Helvetica,sans-Serif" font-size="10.00"> &lt; Type, RawSize, NRef,</text>
<text text-anchor="middle" x="2072" y="-68" font-family="Helvetica,sans-Serif" font-size="10.00"> MetaInfoType &gt;</text>
</g>
<!-- Node23 -->
<g id="node55" class="node"><title>Node23</title>
<a xlink:href="classstxxl_1_1mng__local_1_1filler__struct.html" target="_top" xlink:title="stxxl::mng_local::filler\l_struct\&lt; FillSize \&gt;">
<polygon fill="none" stroke="black" points="1665,-226 1665,-260 1777,-260 1777,-226 1665,-226"/>
<text text-anchor="start" x="1673" y="-247" font-family="Helvetica,sans-Serif" font-size="10.00">stxxl::mng_local::filler</text>
<text text-anchor="middle" x="1721" y="-234" font-family="Helvetica,sans-Serif" font-size="10.00">_struct&lt; FillSize &gt;</text>
</a>
</g>
<!-- Node23&#45;&gt;Node12 -->
<g id="edge66" class="edge"><title>Node23&#45;&gt;Node12</title>
<path fill="none" stroke="#9a32cd" stroke-dasharray="5,2" d="M1787.03,-224.061C1846.44,-207.755 1936.36,-184.876 2016,-172 2073.24,-162.745 2088.11,-164.259 2146,-161 2206.17,-157.613 2273.57,-155.638 2327.71,-154.498"/>
<polygon fill="#9a32cd" stroke="#9a32cd" points="1785.74,-220.785 1777.04,-226.821 1787.61,-227.533 1785.74,-220.785"/>
<text text-anchor="middle" x="2072" y="-176" font-family="Helvetica,sans-Serif" font-size="10.00"> filler</text>
</g>
<!-- Node25 -->
<g id="node59" class="node"><title>Node25</title>
<a xlink:href="classstxxl_1_1mng__local_1_1add__filler.html" target="_top" xlink:title="Contains per block filler for stxxl::typed_block , not intended for direct use. ">
<polygon fill="none" stroke="black" points="1858,-226 1858,-260 1998,-260 1998,-226 1858,-226"/>
<text text-anchor="start" x="1866" y="-247" font-family="Helvetica,sans-Serif" font-size="10.00">stxxl::mng_local::add</text>
<text text-anchor="middle" x="1928" y="-234" font-family="Helvetica,sans-Serif" font-size="10.00">_filler&lt; BaseType, FillSize &gt;</text>
</a>
</g>
<!-- Node23&#45;&gt;Node25 -->
<g id="edge72" class="edge"><title>Node23&#45;&gt;Node25</title>
<path fill="none" stroke="#9a32cd" stroke-dasharray="5,2" d="M1787.17,-243C1809.72,-243 1835.01,-243 1857.87,-243"/>
<polygon fill="#9a32cd" stroke="#9a32cd" points="1787.02,-239.5 1777.02,-243 1787.02,-246.5 1787.02,-239.5"/>
<text text-anchor="middle" x="1829" y="-247" font-family="Helvetica,sans-Serif" font-size="10.00"> filler</text>
</g>
<!-- Node27 -->
<g id="node64" class="node"><title>Node27</title>
<a xlink:href="classstxxl_1_1mng__local_1_1add__filler.html" target="_top" xlink:title="stxxl::mng_local::add\l_filler\&lt; Type, RawSize\l&#45;sizeof(Type)\&gt;">
<polygon fill="none" stroke="black" points="2160,-272.5 2160,-319.5 2276,-319.5 2276,-272.5 2160,-272.5"/>
<text text-anchor="start" x="2168" y="-306.5" font-family="Helvetica,sans-Serif" font-size="10.00">stxxl::mng_local::add</text>
<text text-anchor="start" x="2168" y="-293.5" font-family="Helvetica,sans-Serif" font-size="10.00">_filler&lt; Type, RawSize</text>
<text text-anchor="middle" x="2218" y="-280.5" font-family="Helvetica,sans-Serif" font-size="10.00">&#45;sizeof(Type)&gt;</text>
</a>
</g>
<!-- Node23&#45;&gt;Node27 -->
<g id="edge78" class="edge"><title>Node23&#45;&gt;Node27</title>
<path fill="none" stroke="#9a32cd" stroke-dasharray="5,2" d="M1787.18,-257.019C1809.59,-261.375 1834.8,-265.854 1858,-269 1963.89,-283.364 2088.42,-290.571 2159.79,-293.783"/>
<polygon fill="#9a32cd" stroke="#9a32cd" points="1787.59,-253.533 1777.11,-255.032 1786.24,-260.4 1787.59,-253.533"/>
<text text-anchor="middle" x="1928" y="-287" font-family="Helvetica,sans-Serif" font-size="10.00"> filler</text>
</g>
<!-- Node24 -->
<g id="node57" class="node"><title>Node24</title>
<a xlink:href="classstxxl_1_1mng__local_1_1filler__struct.html" target="_top" xlink:title="stxxl::mng_local::filler\l_struct\&lt; Bytes \&gt;">
<polygon fill="none" stroke="black" points="1359,-226 1359,-260 1471,-260 1471,-226 1359,-226"/>
<text text-anchor="start" x="1367" y="-247" font-family="Helvetica,sans-Serif" font-size="10.00">stxxl::mng_local::filler</text>
<text text-anchor="middle" x="1415" y="-234" font-family="Helvetica,sans-Serif" font-size="10.00">_struct&lt; Bytes &gt;</text>
</a>
</g>
<!-- Node24&#45;&gt;Node23 -->
<g id="edge68" class="edge"><title>Node24&#45;&gt;Node23</title>
<path fill="none" stroke="orange" stroke-dasharray="5,2" d="M1481.44,-243C1536.27,-243 1613.22,-243 1664.97,-243"/>
<polygon fill="orange" stroke="orange" points="1481.13,-239.5 1471.13,-243 1481.13,-246.5 1481.13,-239.5"/>
<text text-anchor="middle" x="1568" y="-247" font-family="Helvetica,sans-Serif" font-size="10.00"> &lt; FillSize &gt;</text>
</g>
<!-- Node25&#45;&gt;Node12 -->
<g id="edge70" class="edge"><title>Node25&#45;&gt;Node12</title>
<path fill="none" stroke="orange" stroke-dasharray="5,2" d="M1992.81,-223.052C2035.87,-210.472 2093.87,-194.806 2146,-185 2205.82,-173.748 2273.5,-165.945 2327.89,-160.863"/>
<polygon fill="orange" stroke="orange" points="1991.64,-219.75 1983.03,-225.931 1993.62,-226.465 1991.64,-219.75"/>
<text text-anchor="start" x="2146.5" y="-254" font-family="Helvetica,sans-Serif" font-size="10.00"> &lt; mng_local::block</text>
<text text-anchor="start" x="2146.5" y="-241" font-family="Helvetica,sans-Serif" font-size="10.00">_w_info&lt; Type, RawSize,</text>
<text text-anchor="start" x="2146.5" y="-228" font-family="Helvetica,sans-Serif" font-size="10.00"> NRef, MetaInfoType &gt;,</text>
<text text-anchor="start" x="2146.5" y="-215" font-family="Helvetica,sans-Serif" font-size="10.00"> RawSize&#45;sizeof(mng_local</text>
<text text-anchor="start" x="2146.5" y="-202" font-family="Helvetica,sans-Serif" font-size="10.00">::block_w_info&lt; Type, RawSize,</text>
<text text-anchor="middle" x="2218" y="-189" font-family="Helvetica,sans-Serif" font-size="10.00"> NRef, MetaInfoType &gt;)&gt;</text>
</g>
<!-- Node25&#45;&gt;Node27 -->
<g id="edge80" class="edge"><title>Node25&#45;&gt;Node27</title>
<path fill="none" stroke="orange" stroke-dasharray="5,2" d="M2008.54,-241.796C2045.41,-242.879 2089.4,-246.489 2128,-256 2143.27,-259.763 2159.19,-265.988 2173.32,-272.418"/>
<polygon fill="orange" stroke="orange" points="2008.42,-238.292 1998.34,-241.555 2008.25,-245.29 2008.42,-238.292"/>
<text text-anchor="start" x="2017.5" y="-273" font-family="Helvetica,sans-Serif" font-size="10.00"> &lt; Type, RawSize&#45;sizeof</text>
<text text-anchor="middle" x="2072" y="-260" font-family="Helvetica,sans-Serif" font-size="10.00">(Type)&gt;</text>
</g>
<!-- Node26 -->
<g id="node62" class="node"><title>Node26</title>
<a xlink:href="classstxxl_1_1mng__local_1_1expand__struct.html" target="_top" xlink:title="Helper to compute the size of the filler , not intended for direct use. ">
<polygon fill="none" stroke="black" points="2365,-268 2365,-302 2497,-302 2497,-268 2365,-268"/>
<text text-anchor="start" x="2373" y="-289" font-family="Helvetica,sans-Serif" font-size="10.00">stxxl::mng_local::expand</text>
<text text-anchor="middle" x="2431" y="-276" font-family="Helvetica,sans-Serif" font-size="10.00">_struct&lt; Type, RawSize &gt;</text>
</a>
</g>
<!-- Node26&#45;&gt;Node11 -->
<g id="edge74" class="edge"><title>Node26&#45;&gt;Node11</title>
<path fill="none" stroke="orange" stroke-dasharray="5,2" d="M2507.38,-282.874C2522.18,-282.527 2537.57,-282.213 2552,-282 2595.79,-281.354 2644.68,-281.092 2684.47,-280.998"/>
<polygon fill="orange" stroke="orange" points="2507.16,-279.378 2497.25,-283.117 2507.33,-286.376 2507.16,-279.378"/>
<text text-anchor="start" x="2552" y="-325" font-family="Helvetica,sans-Serif" font-size="10.00"> &lt; mng_local::block</text>
<text text-anchor="start" x="2552" y="-312" font-family="Helvetica,sans-Serif" font-size="10.00">_w_info&lt; Type, RawSize,</text>
<text text-anchor="start" x="2552" y="-299" font-family="Helvetica,sans-Serif" font-size="10.00"> NRef, MetaInfoType &gt;,</text>
<text text-anchor="middle" x="2609" y="-286" font-family="Helvetica,sans-Serif" font-size="10.00"> RawSize &gt;</text>
</g>
<!-- Node27&#45;&gt;Node26 -->
<g id="edge76" class="edge"><title>Node27&#45;&gt;Node26</title>
<path fill="none" stroke="midnightblue" d="M2286.4,-292.467C2311.57,-291.168 2340.02,-289.699 2364.97,-288.41"/>
<polygon fill="midnightblue" stroke="midnightblue" points="2286.01,-288.983 2276.2,-292.994 2286.37,-295.974 2286.01,-288.983"/>
</g>
</g>
</svg>
