<?xml version="1.0" encoding="UTF-8" standalone="no"?>
<!DOCTYPE svg PUBLIC "-//W3C//DTD SVG 1.1//EN"
 "http://www.w3.org/Graphics/SVG/1.1/DTD/svg11.dtd">
<!-- Generated by graphviz version 2.38.0 (20140413.2041)
 -->
<!-- Title: stxxl::linuxaio_file Pages: 1 -->
<svg width="244pt" height="196pt"
 viewBox="0.00 0.00 243.50 196.00" xmlns="http://www.w3.org/2000/svg" xmlns:xlink="http://www.w3.org/1999/xlink">
<g id="graph0" class="graph" transform="scale(1 1) rotate(0) translate(4 192)">
<title>stxxl::linuxaio_file</title>
<!-- Node1 -->
<g id="node1" class="node"><title>Node1</title>
<polygon fill="#bfbfbf" stroke="black" points="66,-0.5 66,-19.5 161,-19.5 161,-0.5 66,-0.5"/>
<text text-anchor="middle" x="113.5" y="-7.5" font-family="Helvetica,sans-Serif" font-size="10.00">stxxl::linuxaio_file</text>
</g>
<!-- Node2 -->
<g id="node2" class="node"><title>Node2</title>
<g id="a_node2"><a xlink:href="classstxxl_1_1ufs__file__base.html" target="_top" xlink:title="Base for UNIX file system implementations. ">
<polygon fill="none" stroke="black" points="0,-56.5 0,-75.5 101,-75.5 101,-56.5 0,-56.5"/>
<text text-anchor="middle" x="50.5" y="-63.5" font-family="Helvetica,sans-Serif" font-size="10.00">stxxl::ufs_file_base</text>
</a>
</g>
</g>
<!-- Node2&#45;&gt;Node1 -->
<g id="edge1" class="edge"><title>Node2&#45;&gt;Node1</title>
<path fill="none" stroke="midnightblue" d="M68.5399,-49.5372C79.7731,-39.9087 93.8191,-27.8694 103.194,-19.8339"/>
<polygon fill="midnightblue" stroke="midnightblue" points="65.9368,-47.1586 60.622,-56.324 70.4924,-52.4734 65.9368,-47.1586"/>
</g>
<!-- Node3 -->
<g id="node3" class="node"><title>Node3</title>
<g id="a_node3"><a xlink:href="classstxxl_1_1file.html" target="_top" xlink:title="Defines interface of file. ">
<polygon fill="none" stroke="black" points="85.5,-112.5 85.5,-131.5 141.5,-131.5 141.5,-112.5 85.5,-112.5"/>
<text text-anchor="middle" x="113.5" y="-119.5" font-family="Helvetica,sans-Serif" font-size="10.00">stxxl::file</text>
</a>
</g>
</g>
<!-- Node3&#45;&gt;Node2 -->
<g id="edge2" class="edge"><title>Node3&#45;&gt;Node2</title>
<path fill="none" stroke="midnightblue" d="M95.4601,-105.537C84.2269,-95.9087 70.1809,-83.8694 60.8062,-75.8339"/>
<polygon fill="midnightblue" stroke="midnightblue" points="93.5076,-108.473 103.378,-112.324 98.0632,-103.159 93.5076,-108.473"/>
</g>
<!-- Node5 -->
<g id="node5" class="node"><title>Node5</title>
<g id="a_node5"><a xlink:href="classstxxl_1_1disk__queued__file.html" target="_top" xlink:title="Implementation of some file methods based on serving_request. ">
<polygon fill="none" stroke="black" points="119.5,-56.5 119.5,-75.5 235.5,-75.5 235.5,-56.5 119.5,-56.5"/>
<text text-anchor="middle" x="177.5" y="-63.5" font-family="Helvetica,sans-Serif" font-size="10.00">stxxl::disk_queued_file</text>
</a>
</g>
</g>
<!-- Node3&#45;&gt;Node5 -->
<g id="edge5" class="edge"><title>Node3&#45;&gt;Node5</title>
<path fill="none" stroke="midnightblue" d="M131.491,-105.82C142.958,-96.1452 157.413,-83.9481 167.03,-75.8339"/>
<polygon fill="midnightblue" stroke="midnightblue" points="129.169,-103.2 123.783,-112.324 133.683,-108.55 129.169,-103.2"/>
</g>
<!-- Node4 -->
<g id="node4" class="node"><title>Node4</title>
<g id="a_node4"><a xlink:href="classstxxl_1_1noncopyable.html" target="_top" xlink:title="stxxl::noncopyable">
<polygon fill="none" stroke="black" points="64.5,-168.5 64.5,-187.5 162.5,-187.5 162.5,-168.5 64.5,-168.5"/>
<text text-anchor="middle" x="113.5" y="-175.5" font-family="Helvetica,sans-Serif" font-size="10.00">stxxl::noncopyable</text>
</a>
</g>
</g>
<!-- Node4&#45;&gt;Node3 -->
<g id="edge3" class="edge"><title>Node4&#45;&gt;Node3</title>
<path fill="none" stroke="#8b1a1a" d="M113.5,-157.805C113.5,-148.91 113.5,-138.78 113.5,-131.751"/>
<polygon fill="#8b1a1a" stroke="#8b1a1a" points="110,-158.083 113.5,-168.083 117,-158.083 110,-158.083"/>
</g>
<!-- Node5&#45;&gt;Node1 -->
<g id="edge4" class="edge"><title>Node5&#45;&gt;Node1</title>
<path fill="none" stroke="midnightblue" d="M159.509,-49.8197C148.042,-40.1452 133.587,-27.9481 123.97,-19.8339"/>
<polygon fill="midnightblue" stroke="midnightblue" points="157.317,-52.5502 167.217,-56.324 161.831,-47.2002 157.317,-52.5502"/>
</g>
</g>
</svg>
