<?xml version="1.0" encoding="UTF-8" standalone="no"?>
<!DOCTYPE svg PUBLIC "-//W3C//DTD SVG 1.1//EN"
 "http://www.w3.org/Graphics/SVG/1.1/DTD/svg11.dtd">
<!-- Generated by graphviz version 2.26.3 (20100126.1600)
 -->
<!-- Title: stxxl::set_switch_handler Pages: 1 -->
<svg width="782pt" height="154pt"
 viewBox="0.00 0.00 782.00 153.94" xmlns="http://www.w3.org/2000/svg" xmlns:xlink="http://www.w3.org/1999/xlink">
<g id="graph1" class="graph" transform="scale(1 1) rotate(0) translate(4 149.945)">
<title>stxxl::set_switch_handler</title>
<!-- Node1 -->
<g id="node1" class="node"><title>Node1</title>
<polygon fill="#bfbfbf" stroke="black" points="646,-71.5 646,-92.5 774,-92.5 774,-71.5 646,-71.5"/>
<text text-anchor="middle" x="710" y="-79.5" font-family="Helvetica,sans-Serif" font-size="10.00">stxxl::set_switch_handler</text>
</g>
<!-- Node2 -->
<g id="node2" class="node"><title>Node2</title>
<a xlink:href="classstxxl_1_1onoff__switch.html" target="_top" xlink:title="stxxl::onoff_switch">
<polygon fill="none" stroke="black" points="450.5,-95.5 450.5,-116.5 549.5,-116.5 549.5,-95.5 450.5,-95.5"/>
<text text-anchor="middle" x="500" y="-103.5" font-family="Helvetica,sans-Serif" font-size="10.00">stxxl::onoff_switch</text>
</a>
</g>
<!-- Node2&#45;&gt;Node1 -->
<g id="edge2" class="edge"><title>Node2&#45;&gt;Node1</title>
<path fill="none" stroke="#9a32cd" stroke-dasharray="5,2" d="M559.548,-99.1945C586.443,-96.1208 618.268,-92.4837 645.705,-89.348"/>
<polygon fill="#9a32cd" stroke="#9a32cd" points="559.039,-95.7298 549.501,-100.343 559.834,-102.685 559.039,-95.7298"/>
<text text-anchor="middle" x="605" y="-100" font-family="Helvetica,sans-Serif" font-size="10.00"> switch_</text>
</g>
<!-- Node3 -->
<g id="node4" class="node"><title>Node3</title>
<a xlink:href="classstxxl_1_1noncopyable.html" target="_top" xlink:title="stxxl::noncopyable">
<polygon fill="none" stroke="black" points="6,-106.5 6,-127.5 104,-127.5 104,-106.5 6,-106.5"/>
<text text-anchor="middle" x="55" y="-114.5" font-family="Helvetica,sans-Serif" font-size="10.00">stxxl::noncopyable</text>
</a>
</g>
<!-- Node3&#45;&gt;Node2 -->
<g id="edge4" class="edge"><title>Node3&#45;&gt;Node2</title>
<path fill="none" stroke="#8b1a1a" d="M114.382,-129.067C118.979,-129.793 123.558,-130.451 128,-131 255.918,-146.815 291.7,-154.72 418,-129 434.227,-125.696 451.95,-120.88 466.755,-116.508"/>
<polygon fill="#8b1a1a" stroke="#8b1a1a" points="114.778,-125.585 104.337,-127.383 113.62,-132.488 114.778,-125.585"/>
</g>
<!-- Node4 -->
<g id="node6" class="node"><title>Node4</title>
<a xlink:href="classstxxl_1_1mutex.html" target="_top" xlink:title="stxxl::mutex">
<polygon fill="none" stroke="black" points="259.5,-106.5 259.5,-127.5 330.5,-127.5 330.5,-106.5 259.5,-106.5"/>
<text text-anchor="middle" x="295" y="-114.5" font-family="Helvetica,sans-Serif" font-size="10.00">stxxl::mutex</text>
</a>
</g>
<!-- Node3&#45;&gt;Node4 -->
<g id="edge8" class="edge"><title>Node3&#45;&gt;Node4</title>
<path fill="none" stroke="#8b1a1a" d="M114.172,-117C159.627,-117 220.914,-117 259.183,-117"/>
<polygon fill="#8b1a1a" stroke="#8b1a1a" points="114.147,-113.5 104.147,-117 114.147,-120.5 114.147,-113.5"/>
</g>
<!-- Node5 -->
<g id="node9" class="node"><title>Node5</title>
<a xlink:href="classstxxl_1_1condition__variable.html" target="_top" xlink:title="stxxl::condition_variable">
<polygon fill="none" stroke="black" points="234,-66.5 234,-87.5 356,-87.5 356,-66.5 234,-66.5"/>
<text text-anchor="middle" x="295" y="-74.5" font-family="Helvetica,sans-Serif" font-size="10.00">stxxl::condition_variable</text>
</a>
</g>
<!-- Node3&#45;&gt;Node5 -->
<g id="edge12" class="edge"><title>Node3&#45;&gt;Node5</title>
<path fill="none" stroke="#8b1a1a" d="M114.138,-107.144C150.576,-101.071 197.198,-93.3004 233.98,-87.1701"/>
<polygon fill="#8b1a1a" stroke="#8b1a1a" points="113.435,-103.712 104.147,-108.809 114.586,-110.617 113.435,-103.712"/>
</g>
<!-- Node4&#45;&gt;Node2 -->
<g id="edge6" class="edge"><title>Node4&#45;&gt;Node2</title>
<path fill="none" stroke="#9a32cd" stroke-dasharray="5,2" d="M340.866,-114.539C373.44,-112.791 417.135,-110.446 450.498,-108.656"/>
<polygon fill="#9a32cd" stroke="#9a32cd" points="340.506,-111.053 330.708,-115.084 340.881,-118.043 340.506,-111.053"/>
<text text-anchor="middle" x="396" y="-116" font-family="Helvetica,sans-Serif" font-size="10.00"> m_mutex</text>
</g>
<!-- Node5&#45;&gt;Node2 -->
<g id="edge10" class="edge"><title>Node5&#45;&gt;Node2</title>
<path fill="none" stroke="#9a32cd" stroke-dasharray="5,2" d="M366.423,-85.9483C383.345,-88.1631 401.321,-90.5935 418,-93 428.414,-94.5026 439.557,-96.2053 450.166,-97.8718"/>
<polygon fill="#9a32cd" stroke="#9a32cd" points="366.413,-82.4176 356.045,-84.5993 365.51,-89.3592 366.413,-82.4176"/>
<text text-anchor="middle" x="396" y="-97" font-family="Helvetica,sans-Serif" font-size="10.00"> m_cond</text>
</g>
<!-- Node6 -->
<g id="node12" class="node"><title>Node6</title>
<a xlink:href="classstxxl_1_1completion__handler.html" target="_top" xlink:title="Completion handler class (Loki&#45;style). ">
<polygon fill="none" stroke="black" points="436,-46.5 436,-67.5 564,-67.5 564,-46.5 436,-46.5"/>
<text text-anchor="middle" x="500" y="-54.5" font-family="Helvetica,sans-Serif" font-size="10.00">stxxl::completion_handler</text>
</a>
</g>
<!-- Node6&#45;&gt;Node1 -->
<g id="edge14" class="edge"><title>Node6&#45;&gt;Node1</title>
<path fill="none" stroke="#9a32cd" stroke-dasharray="5,2" d="M574.356,-65.8519C597.717,-68.633 623.296,-71.6781 645.883,-74.3671"/>
<polygon fill="#9a32cd" stroke="#9a32cd" points="574.492,-62.3434 564.148,-64.6367 573.664,-69.2943 574.492,-62.3434"/>
<text text-anchor="middle" x="605" y="-75" font-family="Helvetica,sans-Serif" font-size="10.00"> on_compl</text>
</g>
<!-- Node7 -->
<g id="node14" class="node"><title>Node7</title>
<a xlink:href="structstxxl_1_1compat__unique__ptr.html" target="_top" xlink:title="stxxl::compat_unique\l_ptr\&lt; stxxl::completion\l_handler_impl \&gt;">
<polygon fill="none" stroke="black" points="237,-0.5 237,-47.5 353,-47.5 353,-0.5 237,-0.5"/>
<text text-anchor="start" x="245" y="-34.5" font-family="Helvetica,sans-Serif" font-size="10.00">stxxl::compat_unique</text>
<text text-anchor="start" x="245" y="-21.5" font-family="Helvetica,sans-Serif" font-size="10.00">_ptr&lt; stxxl::completion</text>
<text text-anchor="middle" x="295" y="-8.5" font-family="Helvetica,sans-Serif" font-size="10.00">_handler_impl &gt;</text>
</a>
</g>
<!-- Node7&#45;&gt;Node6 -->
<g id="edge16" class="edge"><title>Node7&#45;&gt;Node6</title>
<path fill="none" stroke="#9a32cd" stroke-dasharray="5,2" d="M363.074,-34.9583C386.551,-38.7374 412.753,-42.9554 435.901,-46.6816"/>
<polygon fill="#9a32cd" stroke="#9a32cd" points="363.626,-31.5021 353.196,-33.3682 362.513,-38.4131 363.626,-31.5021"/>
<text text-anchor="middle" x="396" y="-47" font-family="Helvetica,sans-Serif" font-size="10.00"> sp_impl_</text>
</g>
<!-- Node8 -->
<g id="node16" class="node"><title>Node8</title>
<a xlink:href="structstxxl_1_1compat__unique__ptr.html" target="_top" xlink:title="stxxl::compat_unique\l_ptr\&lt; Type \&gt;">
<polygon fill="none" stroke="black" points="0,-7 0,-41 110,-41 110,-7 0,-7"/>
<text text-anchor="start" x="8" y="-28" font-family="Helvetica,sans-Serif" font-size="10.00">stxxl::compat_unique</text>
<text text-anchor="middle" x="55" y="-15" font-family="Helvetica,sans-Serif" font-size="10.00">_ptr&lt; Type &gt;</text>
</a>
</g>
<!-- Node8&#45;&gt;Node7 -->
<g id="edge18" class="edge"><title>Node8&#45;&gt;Node7</title>
<path fill="none" stroke="orange" stroke-dasharray="5,2" d="M120.096,-24C156.538,-24 201.593,-24 236.848,-24"/>
<polygon fill="orange" stroke="orange" points="120.061,-20.5001 110.061,-24 120.061,-27.5001 120.061,-20.5001"/>
<text text-anchor="start" x="128.5" y="-41" font-family="Helvetica,sans-Serif" font-size="10.00"> &lt; stxxl::completion</text>
<text text-anchor="middle" x="172" y="-28" font-family="Helvetica,sans-Serif" font-size="10.00">_handler_impl &gt;</text>
</g>
</g>
</svg>
