<?xml version="1.0" encoding="UTF-8" standalone="no"?>
<!DOCTYPE svg PUBLIC "-//W3C//DTD SVG 1.1//EN"
 "http://www.w3.org/Graphics/SVG/1.1/DTD/svg11.dtd">
<!-- Generated by graphviz version 2.38.0 (20140413.2041)
 -->
<!-- Title: stxxl::column_vector&lt; ValueType &gt; Pages: 1 -->
<svg width="176pt" height="185pt"
 viewBox="0.00 0.00 176.00 185.00" xmlns="http://www.w3.org/2000/svg" xmlns:xlink="http://www.w3.org/1999/xlink">
<g id="graph0" class="graph" transform="scale(1 1) rotate(0) translate(4 181)">
<title>stxxl::column_vector&lt; ValueType &gt;</title>
<!-- Node1 -->
<g id="node1" class="node"><title>Node1</title>
<polygon fill="#bfbfbf" stroke="black" points="30.5,-0.5 30.5,-30.5 137.5,-30.5 137.5,-0.5 30.5,-0.5"/>
<text text-anchor="start" x="38.5" y="-18.5" font-family="Helvetica,sans-Serif" font-size="10.00">stxxl::column_vector</text>
<text text-anchor="middle" x="84" y="-7.5" font-family="Helvetica,sans-Serif" font-size="10.00">&lt; ValueType &gt;</text>
</g>
<!-- Node2 -->
<g id="node2" class="node"><title>Node2</title>
<g id="a_node2"><a xlink:href="classstxxl_1_1vector.html" target="_top" xlink:title="stxxl::vector\&lt; ValueType \&gt;">
<polygon fill="none" stroke="black" points="16.5,-68.5 16.5,-87.5 151.5,-87.5 151.5,-68.5 16.5,-68.5"/>
<text text-anchor="middle" x="84" y="-75.5" font-family="Helvetica,sans-Serif" font-size="10.00">stxxl::vector&lt; ValueType &gt;</text>
</a>
</g>
</g>
<!-- Node2&#45;&gt;Node1 -->
<g id="edge1" class="edge"><title>Node2&#45;&gt;Node1</title>
<path fill="none" stroke="midnightblue" d="M84,-58.2154C84,-49.3565 84,-38.9577 84,-30.7587"/>
<polygon fill="midnightblue" stroke="midnightblue" points="80.5001,-58.3318 84,-68.3318 87.5001,-58.3319 80.5001,-58.3318"/>
</g>
<!-- Node3 -->
<g id="node3" class="node"><title>Node3</title>
<g id="a_node3"><a xlink:href="classstxxl_1_1vector.html" target="_top" xlink:title="External vector container. &#160;Introduction to vector container: see STXXL Vector tutorial. &#160;Design and Internals of vector container: see Vector. ">
<polygon fill="none" stroke="black" points="-1.42109e-14,-135.5 -1.42109e-14,-176.5 168,-176.5 168,-135.5 -1.42109e-14,-135.5"/>
<text text-anchor="start" x="8" y="-164.5" font-family="Helvetica,sans-Serif" font-size="10.00">stxxl::vector&lt; ValueType,</text>
<text text-anchor="start" x="8" y="-153.5" font-family="Helvetica,sans-Serif" font-size="10.00"> PageSize, PagerType, BlockSize,</text>
<text text-anchor="middle" x="84" y="-142.5" font-family="Helvetica,sans-Serif" font-size="10.00"> AllocStr, SizeType &gt;</text>
</a>
</g>
</g>
<!-- Node3&#45;&gt;Node2 -->
<g id="edge2" class="edge"><title>Node3&#45;&gt;Node2</title>
<path fill="none" stroke="orange" stroke-dasharray="5,2" d="M84,-125.051C84,-111.56 84,-96.6493 84,-87.552"/>
<polygon fill="orange" stroke="orange" points="80.5001,-125.428 84,-135.428 87.5001,-125.428 80.5001,-125.428"/>
<text text-anchor="middle" x="118" y="-109" font-family="Helvetica,sans-Serif" font-size="10.00"> &lt; ValueType &gt;</text>
</g>
</g>
</svg>
