<?xml version="1.0" encoding="UTF-8" standalone="no"?>
<!DOCTYPE svg PUBLIC "-//W3C//DTD SVG 1.1//EN"
 "http://www.w3.org/Graphics/SVG/1.1/DTD/svg11.dtd">
<!-- Generated by graphviz version 2.38.0 (20140413.2041)
 -->
<!-- Title: stxxl::btree::btree&lt; KeyType, DataType, CompareType, RawNodeSize, RawLeafSize, PDAllocStrategy &gt; Pages: 1 -->
<svg width="1577pt" height="392pt"
 viewBox="0.00 0.00 1577.00 391.50" xmlns="http://www.w3.org/2000/svg" xmlns:xlink="http://www.w3.org/1999/xlink">
<g id="graph0" class="graph" transform="scale(1 1) rotate(0) translate(4 387.5)">
<title>stxxl::btree::btree&lt; KeyType, DataType, CompareType, RawNodeSize, RawLeafSize, PDAllocStrategy &gt;</title>
<!-- Node1 -->
<g id="node1" class="node"><title>Node1</title>
<polygon fill="#bfbfbf" stroke="black" points="1403,-202.5 1403,-254.5 1569,-254.5 1569,-202.5 1403,-202.5"/>
<text text-anchor="start" x="1411" y="-242.5" font-family="Helvetica,sans-Serif" font-size="10.00">stxxl::btree::btree</text>
<text text-anchor="start" x="1411" y="-231.5" font-family="Helvetica,sans-Serif" font-size="10.00">&lt; KeyType, DataType,</text>
<text text-anchor="start" x="1411" y="-220.5" font-family="Helvetica,sans-Serif" font-size="10.00"> CompareType, RawNodeSize,</text>
<text text-anchor="middle" x="1486" y="-209.5" font-family="Helvetica,sans-Serif" font-size="10.00"> RawLeafSize, PDAllocStrategy &gt;</text>
</g>
<!-- Node2 -->
<g id="node2" class="node"><title>Node2</title>
<g id="a_node2"><a xlink:href="classstxxl_1_1noncopyable.html" target="_top" xlink:title="stxxl::noncopyable">
<polygon fill="none" stroke="black" points="11,-265 11,-284 109,-284 109,-265 11,-265"/>
<text text-anchor="middle" x="60" y="-272" font-family="Helvetica,sans-Serif" font-size="10.00">stxxl::noncopyable</text>
</a>
</g>
</g>
<!-- Node2&#45;&gt;Node1 -->
<g id="edge1" class="edge"><title>Node2&#45;&gt;Node1</title>
<path fill="none" stroke="#8b1a1a" d="M80.5655,-290.477C95.5417,-302.065 117.11,-317.412 138,-327.5 214.592,-364.489 235.944,-383.5 321,-383.5 321,-383.5 321,-383.5 1282,-383.5 1365.81,-383.5 1436.51,-299.016 1467.79,-254.794"/>
<polygon fill="#8b1a1a" stroke="#8b1a1a" points="82.5812,-287.609 72.5645,-284.157 78.2423,-293.102 82.5812,-287.609"/>
</g>
<!-- Node4 -->
<g id="node4" class="node"><title>Node4</title>
<g id="a_node4"><a xlink:href="classstxxl_1_1singleton.html" target="_top" xlink:title="stxxl::singleton\&lt; block\l_manager \&gt;">
<polygon fill="none" stroke="black" points="564.5,-286.5 564.5,-316.5 679.5,-316.5 679.5,-286.5 564.5,-286.5"/>
<text text-anchor="start" x="572.5" y="-304.5" font-family="Helvetica,sans-Serif" font-size="10.00">stxxl::singleton&lt; block</text>
<text text-anchor="middle" x="622" y="-293.5" font-family="Helvetica,sans-Serif" font-size="10.00">_manager &gt;</text>
</a>
</g>
</g>
<!-- Node2&#45;&gt;Node4 -->
<g id="edge4" class="edge"><title>Node2&#45;&gt;Node4</title>
<path fill="none" stroke="#8b1a1a" d="M94.0005,-287.688C107.497,-292.769 123.355,-298.343 138,-302.5 186.467,-316.256 198.881,-320.362 249,-325.5 374.185,-338.333 407.008,-331.1 532,-316.5 542.428,-315.282 553.493,-313.674 564.149,-311.964"/>
<polygon fill="#8b1a1a" stroke="#8b1a1a" points="95.2314,-284.411 84.6411,-284.103 92.7275,-290.948 95.2314,-284.411"/>
</g>
<!-- Node5 -->
<g id="node5" class="node"><title>Node5</title>
<g id="a_node5"><a xlink:href="classstxxl_1_1singleton.html" target="_top" xlink:title="stxxl::singleton\&lt; INSTANCE,\l destroy_on_exit \&gt;">
<polygon fill="none" stroke="black" points="249,-286.5 249,-316.5 395,-316.5 395,-286.5 249,-286.5"/>
<text text-anchor="start" x="257" y="-304.5" font-family="Helvetica,sans-Serif" font-size="10.00">stxxl::singleton&lt; INSTANCE,</text>
<text text-anchor="middle" x="322" y="-293.5" font-family="Helvetica,sans-Serif" font-size="10.00"> destroy_on_exit &gt;</text>
</a>
</g>
</g>
<!-- Node2&#45;&gt;Node5 -->
<g id="edge6" class="edge"><title>Node2&#45;&gt;Node5</title>
<path fill="none" stroke="#8b1a1a" d="M119.265,-280.551C157.598,-284.531 208.044,-289.77 248.901,-294.013"/>
<polygon fill="#8b1a1a" stroke="#8b1a1a" points="119.603,-277.067 109.295,-279.515 118.88,-284.029 119.603,-277.067"/>
</g>
<!-- Node6 -->
<g id="node6" class="node"><title>Node6</title>
<g id="a_node6"><a xlink:href="classstxxl_1_1file.html" target="_top" xlink:title="Defines interface of file. ">
<polygon fill="none" stroke="black" points="827,-215 827,-234 883,-234 883,-215 827,-215"/>
<text text-anchor="middle" x="855" y="-222" font-family="Helvetica,sans-Serif" font-size="10.00">stxxl::file</text>
</a>
</g>
</g>
<!-- Node2&#45;&gt;Node6 -->
<g id="edge8" class="edge"><title>Node2&#45;&gt;Node6</title>
<path fill="none" stroke="#8b1a1a" d="M119.673,-273.448C242.258,-270.799 534.371,-262.12 778,-236.5 794.207,-234.796 812.227,-231.99 826.652,-229.521"/>
<polygon fill="#8b1a1a" stroke="#8b1a1a" points="119.316,-269.955 109.392,-273.665 119.463,-276.953 119.316,-269.955"/>
</g>
<!-- Node8 -->
<g id="node8" class="node"><title>Node8</title>
<g id="a_node8"><a xlink:href="classstxxl_1_1mutex.html" target="_top" xlink:title="stxxl::mutex">
<polygon fill="none" stroke="black" points="286.5,-204 286.5,-223 357.5,-223 357.5,-204 286.5,-204"/>
<text text-anchor="middle" x="322" y="-211" font-family="Helvetica,sans-Serif" font-size="10.00">stxxl::mutex</text>
</a>
</g>
</g>
<!-- Node2&#45;&gt;Node8 -->
<g id="edge11" class="edge"><title>Node2&#45;&gt;Node8</title>
<path fill="none" stroke="#8b1a1a" d="M90.3853,-260.894C104.526,-254.81 121.875,-248.008 138,-243.5 188.695,-229.327 249.281,-221.021 286.445,-216.869"/>
<polygon fill="#8b1a1a" stroke="#8b1a1a" points="88.9044,-257.722 81.1628,-264.955 91.7254,-264.129 88.9044,-257.722"/>
</g>
<!-- Node11 -->
<g id="node11" class="node"><title>Node11</title>
<g id="a_node11"><a xlink:href="classstxxl_1_1disk__allocator.html" target="_top" xlink:title="stxxl::disk_allocator">
<polygon fill="none" stroke="black" points="1014,-166 1014,-185 1118,-185 1118,-166 1014,-166"/>
<text text-anchor="middle" x="1066" y="-173" font-family="Helvetica,sans-Serif" font-size="10.00">stxxl::disk_allocator</text>
</a>
</g>
</g>
<!-- Node2&#45;&gt;Node11 -->
<g id="edge15" class="edge"><title>Node2&#45;&gt;Node11</title>
<path fill="none" stroke="#8b1a1a" d="M77.6686,-257.377C116.504,-219.412 217.596,-131.5 321,-131.5 321,-131.5 321,-131.5 856,-131.5 922.373,-131.5 998.109,-153.012 1037.66,-165.953"/>
<polygon fill="#8b1a1a" stroke="#8b1a1a" points="74.9618,-255.134 70.348,-264.671 79.9024,-260.092 74.9618,-255.134"/>
</g>
<!-- Node3 -->
<g id="node3" class="node"><title>Node3</title>
<g id="a_node3"><a xlink:href="classstxxl_1_1block__manager.html" target="_top" xlink:title="Block manager class. ">
<polygon fill="none" stroke="black" points="1226,-219 1226,-238 1336,-238 1336,-219 1226,-219"/>
<text text-anchor="middle" x="1281" y="-226" font-family="Helvetica,sans-Serif" font-size="10.00">stxxl::block_manager</text>
</a>
</g>
</g>
<!-- Node3&#45;&gt;Node1 -->
<g id="edge2" class="edge"><title>Node3&#45;&gt;Node1</title>
<path fill="none" stroke="#9a32cd" stroke-dasharray="5,2" d="M1346.19,-228.5C1364.14,-228.5 1383.9,-228.5 1402.75,-228.5"/>
<polygon fill="#9a32cd" stroke="#9a32cd" points="1346.13,-225 1336.13,-228.5 1346.13,-232 1346.13,-225"/>
<text text-anchor="middle" x="1369.5" y="-231.5" font-family="Helvetica,sans-Serif" font-size="10.00"> m_bm</text>
</g>
<!-- Node4&#45;&gt;Node3 -->
<g id="edge3" class="edge"><title>Node4&#45;&gt;Node3</title>
<path fill="none" stroke="midnightblue" d="M689.867,-296.759C798.789,-288.586 1021.14,-270.031 1208,-242.5 1216.57,-241.238 1225.66,-239.658 1234.4,-238.019"/>
<polygon fill="midnightblue" stroke="midnightblue" points="689.398,-293.284 679.685,-297.517 689.918,-300.264 689.398,-293.284"/>
</g>
<!-- Node5&#45;&gt;Node4 -->
<g id="edge5" class="edge"><title>Node5&#45;&gt;Node4</title>
<path fill="none" stroke="orange" stroke-dasharray="5,2" d="M405.4,-301.5C455.995,-301.5 519.488,-301.5 564.434,-301.5"/>
<polygon fill="orange" stroke="orange" points="405.138,-298 395.137,-301.5 405.137,-305 405.138,-298"/>
<text text-anchor="middle" x="472.5" y="-304.5" font-family="Helvetica,sans-Serif" font-size="10.00"> &lt; block_manager &gt;</text>
</g>
<!-- Node6&#45;&gt;Node3 -->
<g id="edge7" class="edge"><title>Node6&#45;&gt;Node3</title>
<path fill="none" stroke="#9a32cd" stroke-dasharray="5,2" d="M893.572,-224.854C968.865,-225.565 1138.47,-227.165 1225.79,-227.989"/>
<polygon fill="#9a32cd" stroke="#9a32cd" points="893.201,-221.351 883.168,-224.756 893.135,-228.351 893.201,-221.351"/>
<text text-anchor="middle" x="1066" y="-230.5" font-family="Helvetica,sans-Serif" font-size="10.00"> disk_files</text>
</g>
<!-- Node6&#45;&gt;Node11 -->
<g id="edge16" class="edge"><title>Node6&#45;&gt;Node11</title>
<path fill="none" stroke="#9a32cd" stroke-dasharray="5,2" d="M893.255,-213.709C905.55,-210.281 919.322,-206.583 932,-203.5 959.743,-196.754 990.973,-190.129 1016.2,-185.019"/>
<polygon fill="#9a32cd" stroke="#9a32cd" points="892.007,-210.424 883.332,-216.506 893.906,-217.162 892.007,-210.424"/>
<text text-anchor="middle" x="962.5" y="-206.5" font-family="Helvetica,sans-Serif" font-size="10.00"> storage</text>
</g>
<!-- Node7 -->
<g id="node7" class="node"><title>Node7</title>
<g id="a_node7"><a xlink:href="classstxxl_1_1atomic__counted__object.html" target="_top" xlink:title="Provides reference counting abilities for use with counting_ptr with mutex locking. ">
<polygon fill="none" stroke="black" points="565.5,-198.5 565.5,-228.5 678.5,-228.5 678.5,-198.5 565.5,-198.5"/>
<text text-anchor="start" x="573.5" y="-216.5" font-family="Helvetica,sans-Serif" font-size="10.00">stxxl::atomic_counted</text>
<text text-anchor="middle" x="622" y="-205.5" font-family="Helvetica,sans-Serif" font-size="10.00">_object</text>
</a>
</g>
</g>
<!-- Node7&#45;&gt;Node6 -->
<g id="edge9" class="edge"><title>Node7&#45;&gt;Node6</title>
<path fill="none" stroke="#9a32cd" stroke-dasharray="5,2" d="M688.762,-216.632C734.486,-218.809 793.066,-221.598 826.783,-223.204"/>
<polygon fill="#9a32cd" stroke="#9a32cd" points="688.779,-213.128 678.624,-216.149 688.446,-220.121 688.779,-213.128"/>
<text text-anchor="middle" x="745" y="-224.5" font-family="Helvetica,sans-Serif" font-size="10.00"> m_request_ref</text>
</g>
<!-- Node8&#45;&gt;Node7 -->
<g id="edge10" class="edge"><title>Node8&#45;&gt;Node7</title>
<path fill="none" stroke="#9a32cd" stroke-dasharray="5,2" d="M367.844,-213.5C420.651,-213.5 508.382,-213.5 565.447,-213.5"/>
<polygon fill="#9a32cd" stroke="#9a32cd" points="367.768,-210 357.768,-213.5 367.768,-217 367.768,-210"/>
<text text-anchor="middle" x="472.5" y="-216.5" font-family="Helvetica,sans-Serif" font-size="10.00"> m_reference_count_mutex</text>
</g>
<!-- Node8&#45;&gt;Node11 -->
<g id="edge17" class="edge"><title>Node8&#45;&gt;Node11</title>
<path fill="none" stroke="#9a32cd" stroke-dasharray="5,2" d="M367.696,-207.449C413.405,-201.527 486.51,-192.79 550,-188.5 719.546,-177.044 921.106,-175.432 1013.77,-175.362"/>
<polygon fill="#9a32cd" stroke="#9a32cd" points="366.993,-204.011 357.531,-208.778 367.901,-210.952 366.993,-204.011"/>
<text text-anchor="middle" x="745" y="-183.5" font-family="Helvetica,sans-Serif" font-size="10.00"> mutex</text>
</g>
<!-- Node9 -->
<g id="node9" class="node"><title>Node9</title>
<g id="a_node9"><a xlink:href="structstxxl_1_1choose__int__types.html" target="_top" xlink:title="stxxl::choose_int_types\l\&lt; my_pointer_size \&gt;">
<polygon fill="none" stroke="black" points="262,-57.5 262,-87.5 382,-87.5 382,-57.5 262,-57.5"/>
<text text-anchor="start" x="270" y="-75.5" font-family="Helvetica,sans-Serif" font-size="10.00">stxxl::choose_int_types</text>
<text text-anchor="middle" x="322" y="-64.5" font-family="Helvetica,sans-Serif" font-size="10.00">&lt; my_pointer_size &gt;</text>
</a>
</g>
</g>
<!-- Node9&#45;&gt;Node7 -->
<g id="edge12" class="edge"><title>Node9&#45;&gt;Node7</title>
<path fill="none" stroke="#9a32cd" stroke-dasharray="5,2" d="M364.071,-91.9331C424.067,-120.32 534.434,-172.541 588.888,-198.306"/>
<polygon fill="#9a32cd" stroke="#9a32cd" points="365.427,-88.7027 354.891,-87.5895 362.434,-95.0302 365.427,-88.7027"/>
<text text-anchor="middle" x="472.5" y="-171.5" font-family="Helvetica,sans-Serif" font-size="10.00"> m_reference_count</text>
</g>
<!-- Node13 -->
<g id="node13" class="node"><title>Node13</title>
<g id="a_node13"><a xlink:href="classstxxl_1_1btree_1_1btree__iterator__base.html" target="_top" xlink:title="stxxl::btree::btree\l_iterator_base\&lt; self\l_type \&gt;">
<polygon fill="none" stroke="black" points="803.5,-50 803.5,-91 906.5,-91 906.5,-50 803.5,-50"/>
<text text-anchor="start" x="811.5" y="-79" font-family="Helvetica,sans-Serif" font-size="10.00">stxxl::btree::btree</text>
<text text-anchor="start" x="811.5" y="-68" font-family="Helvetica,sans-Serif" font-size="10.00">_iterator_base&lt; self</text>
<text text-anchor="middle" x="855" y="-57" font-family="Helvetica,sans-Serif" font-size="10.00">_type &gt;</text>
</a>
</g>
</g>
<!-- Node9&#45;&gt;Node13 -->
<g id="edge20" class="edge"><title>Node9&#45;&gt;Node13</title>
<path fill="none" stroke="#9a32cd" stroke-dasharray="5,2" d="M392.279,-72.2391C500.601,-71.8311 707.557,-71.0516 803.209,-70.6913"/>
<polygon fill="#9a32cd" stroke="#9a32cd" points="392.097,-68.7396 382.111,-72.2774 392.124,-75.7396 392.097,-68.7396"/>
<text text-anchor="middle" x="622" y="-75.5" font-family="Helvetica,sans-Serif" font-size="10.00"> pos</text>
</g>
<!-- Node14 -->
<g id="node14" class="node"><title>Node14</title>
<g id="a_node14"><a xlink:href="classstxxl_1_1btree_1_1btree__iterator__base.html" target="_top" xlink:title="stxxl::btree::btree\l_iterator_base\&lt; BTreeType \&gt;">
<polygon fill="none" stroke="black" points="550,-5.5 550,-35.5 694,-35.5 694,-5.5 550,-5.5"/>
<text text-anchor="start" x="558" y="-23.5" font-family="Helvetica,sans-Serif" font-size="10.00">stxxl::btree::btree</text>
<text text-anchor="middle" x="622" y="-12.5" font-family="Helvetica,sans-Serif" font-size="10.00">_iterator_base&lt; BTreeType &gt;</text>
</a>
</g>
</g>
<!-- Node9&#45;&gt;Node14 -->
<g id="edge22" class="edge"><title>Node9&#45;&gt;Node14</title>
<path fill="none" stroke="#9a32cd" stroke-dasharray="5,2" d="M381.939,-54.842C392.232,-52.1278 402.883,-49.551 413,-47.5 458.145,-38.3478 509.463,-31.6478 549.829,-27.2113"/>
<polygon fill="#9a32cd" stroke="#9a32cd" points="380.949,-51.4842 372.209,-57.4738 382.776,-58.2413 380.949,-51.4842"/>
<text text-anchor="middle" x="472.5" y="-50.5" font-family="Helvetica,sans-Serif" font-size="10.00"> pos</text>
</g>
<!-- Node10 -->
<g id="node10" class="node"><title>Node10</title>
<g id="a_node10"><a xlink:href="structstxxl_1_1choose__int__types.html" target="_top" xlink:title="stxxl::choose_int_types\l\&lt; PtrSize \&gt;">
<polygon fill="none" stroke="black" points="0,-57.5 0,-87.5 120,-87.5 120,-57.5 0,-57.5"/>
<text text-anchor="start" x="8" y="-75.5" font-family="Helvetica,sans-Serif" font-size="10.00">stxxl::choose_int_types</text>
<text text-anchor="middle" x="60" y="-64.5" font-family="Helvetica,sans-Serif" font-size="10.00">&lt; PtrSize &gt;</text>
</a>
</g>
</g>
<!-- Node10&#45;&gt;Node9 -->
<g id="edge13" class="edge"><title>Node10&#45;&gt;Node9</title>
<path fill="none" stroke="orange" stroke-dasharray="5,2" d="M130.515,-72.5C171.531,-72.5 222.884,-72.5 261.931,-72.5"/>
<polygon fill="orange" stroke="orange" points="130.323,-69.0001 120.323,-72.5 130.323,-76.0001 130.323,-69.0001"/>
<text text-anchor="middle" x="184.5" y="-75.5" font-family="Helvetica,sans-Serif" font-size="10.00"> &lt; my_pointer_size &gt;</text>
</g>
<!-- Node11&#45;&gt;Node3 -->
<g id="edge14" class="edge"><title>Node11&#45;&gt;Node3</title>
<path fill="none" stroke="#9a32cd" stroke-dasharray="5,2" d="M1128.35,-185.774C1153.25,-190.438 1182.17,-196.488 1208,-203.5 1223.96,-207.834 1241.5,-213.896 1255.27,-218.965"/>
<polygon fill="#9a32cd" stroke="#9a32cd" points="1128.77,-182.293 1118.3,-183.926 1127.5,-189.178 1128.77,-182.293"/>
<text text-anchor="middle" x="1173.5" y="-206.5" font-family="Helvetica,sans-Serif" font-size="10.00"> disk_allocators</text>
</g>
<!-- Node12 -->
<g id="node12" class="node"><title>Node12</title>
<g id="a_node12"><a xlink:href="classstxxl_1_1btree_1_1btree__iterator.html" target="_top" xlink:title="stxxl::btree::btree\l_iterator\&lt; self_type \&gt;">
<polygon fill="none" stroke="black" points="1011,-55.5 1011,-85.5 1121,-85.5 1121,-55.5 1011,-55.5"/>
<text text-anchor="start" x="1019" y="-73.5" font-family="Helvetica,sans-Serif" font-size="10.00">stxxl::btree::btree</text>
<text text-anchor="middle" x="1066" y="-62.5" font-family="Helvetica,sans-Serif" font-size="10.00">_iterator&lt; self_type &gt;</text>
</a>
</g>
</g>
<!-- Node12&#45;&gt;Node1 -->
<g id="edge18" class="edge"><title>Node12&#45;&gt;Node1</title>
<path fill="none" stroke="#9a32cd" stroke-dasharray="5,2" d="M1116.29,-89.1329C1190.59,-117.218 1331.55,-170.497 1416.01,-202.424"/>
<polygon fill="#9a32cd" stroke="#9a32cd" points="1117.29,-85.7686 1106.7,-85.5067 1114.82,-92.3164 1117.29,-85.7686"/>
<text text-anchor="middle" x="1281" y="-173.5" font-family="Helvetica,sans-Serif" font-size="10.00"> m_end_iterator</text>
</g>
<!-- Node13&#45;&gt;Node12 -->
<g id="edge19" class="edge"><title>Node13&#45;&gt;Node12</title>
<path fill="none" stroke="midnightblue" d="M916.85,-70.5C946.584,-70.5 982.066,-70.5 1010.85,-70.5"/>
<polygon fill="midnightblue" stroke="midnightblue" points="916.593,-67.0001 906.593,-70.5 916.593,-74.0001 916.593,-67.0001"/>
</g>
<!-- Node14&#45;&gt;Node13 -->
<g id="edge21" class="edge"><title>Node14&#45;&gt;Node13</title>
<path fill="none" stroke="orange" stroke-dasharray="5,2" d="M704.427,-32.7733C728.261,-36.8801 754.281,-41.8671 778,-47.5 786.182,-49.443 794.779,-51.7659 803.13,-54.1774"/>
<polygon fill="orange" stroke="orange" points="704.804,-29.2873 694.36,-31.0678 703.635,-36.189 704.804,-29.2873"/>
<text text-anchor="middle" x="745" y="-50.5" font-family="Helvetica,sans-Serif" font-size="10.00"> &lt; self_type &gt;</text>
</g>
<!-- Node15 -->
<g id="node15" class="node"><title>Node15</title>
<g id="a_node15"><a xlink:href="classstxxl_1_1btree_1_1btree__iterator.html" target="_top" xlink:title="stxxl::btree::btree\l_iterator\&lt; BTreeType \&gt;">
<polygon fill="none" stroke="black" points="796,-0.5 796,-30.5 914,-30.5 914,-0.5 796,-0.5"/>
<text text-anchor="start" x="804" y="-18.5" font-family="Helvetica,sans-Serif" font-size="10.00">stxxl::btree::btree</text>
<text text-anchor="middle" x="855" y="-7.5" font-family="Helvetica,sans-Serif" font-size="10.00">_iterator&lt; BTreeType &gt;</text>
</a>
</g>
</g>
<!-- Node14&#45;&gt;Node15 -->
<g id="edge24" class="edge"><title>Node14&#45;&gt;Node15</title>
<path fill="none" stroke="midnightblue" d="M704.287,-18.7405C734.48,-18.087 768.103,-17.3593 795.823,-16.7592"/>
<polygon fill="midnightblue" stroke="midnightblue" points="704.114,-15.2434 694.193,-18.959 704.266,-22.2417 704.114,-15.2434"/>
</g>
<!-- Node15&#45;&gt;Node12 -->
<g id="edge23" class="edge"><title>Node15&#45;&gt;Node12</title>
<path fill="none" stroke="orange" stroke-dasharray="5,2" d="M922.958,-33.1205C951.348,-40.5916 984.002,-49.1848 1010.84,-56.2467"/>
<polygon fill="orange" stroke="orange" points="923.672,-29.6892 913.11,-30.529 921.89,-36.4588 923.672,-29.6892"/>
<text text-anchor="middle" x="962.5" y="-54.5" font-family="Helvetica,sans-Serif" font-size="10.00"> &lt; self_type &gt;</text>
</g>
</g>
</svg>
