<?xml version="1.0" encoding="UTF-8" standalone="no"?>
<!DOCTYPE svg PUBLIC "-//W3C//DTD SVG 1.1//EN"
 "http://www.w3.org/Graphics/SVG/1.1/DTD/svg11.dtd">
<!-- Generated by graphviz version 2.26.3 (20100126.1600)
 -->
<!-- Title: stxxl::buf_istream&lt; BlockType, BidIteratorType &gt; Pages: 1 -->
<svg width="1116pt" height="366pt"
 viewBox="0.00 0.00 1116.00 366.00" xmlns="http://www.w3.org/2000/svg" xmlns:xlink="http://www.w3.org/1999/xlink">
<g id="graph1" class="graph" transform="scale(1 1) rotate(0) translate(4 362)">
<title>stxxl::buf_istream&lt; BlockType, BidIteratorType &gt;</title>
<!-- Node1 -->
<g id="node1" class="node"><title>Node1</title>
<polygon fill="#bfbfbf" stroke="black" points="954,-300 954,-334 1108,-334 1108,-300 954,-300"/>
<text text-anchor="start" x="962" y="-321" font-family="Helvetica,sans-Serif" font-size="10.00">stxxl::buf_istream</text>
<text text-anchor="middle" x="1031" y="-308" font-family="Helvetica,sans-Serif" font-size="10.00">&lt; BlockType, BidIteratorType &gt;</text>
</g>
<!-- Node2 -->
<g id="node2" class="node"><title>Node2</title>
<a xlink:href="classstxxl_1_1noncopyable.html" target="_top" xlink:title="stxxl::noncopyable">
<polygon fill="none" stroke="black" points="6,-144.5 6,-165.5 104,-165.5 104,-144.5 6,-144.5"/>
<text text-anchor="middle" x="55" y="-152.5" font-family="Helvetica,sans-Serif" font-size="10.00">stxxl::noncopyable</text>
</a>
</g>
<!-- Node2&#45;&gt;Node1 -->
<g id="edge2" class="edge"><title>Node2&#45;&gt;Node1</title>
<path fill="none" stroke="#8b1a1a" d="M65.533,-174.355C94.7118,-225.082 181.953,-358 295,-358 295,-358 295,-358 793,-358 852.748,-358 919.723,-345.296 967.367,-334.032"/>
<polygon fill="#8b1a1a" stroke="#8b1a1a" points="68.5773,-172.628 60.6236,-165.628 62.4766,-176.06 68.5773,-172.628"/>
</g>
<!-- Node3 -->
<g id="node4" class="node"><title>Node3</title>
<a xlink:href="classstxxl_1_1block__prefetcher.html" target="_top" xlink:title="Encapsulates asynchronous prefetching engine. ">
<polygon fill="none" stroke="black" points="716,-194 716,-228 870,-228 870,-194 716,-194"/>
<text text-anchor="start" x="724" y="-215" font-family="Helvetica,sans-Serif" font-size="10.00">stxxl::block_prefetcher</text>
<text text-anchor="middle" x="793" y="-202" font-family="Helvetica,sans-Serif" font-size="10.00">&lt; BlockType, BidIteratorType &gt;</text>
</a>
</g>
<!-- Node2&#45;&gt;Node3 -->
<g id="edge6" class="edge"><title>Node2&#45;&gt;Node3</title>
<path fill="none" stroke="#8b1a1a" d="M114.386,-167.035C118.982,-167.768 123.559,-168.436 128,-169 339.733,-195.88 591.682,-205.83 715.903,-209.292"/>
<polygon fill="#8b1a1a" stroke="#8b1a1a" points="114.785,-163.553 104.342,-165.339 113.62,-170.455 114.785,-163.553"/>
</g>
<!-- Node6 -->
<g id="node11" class="node"><title>Node6</title>
<a xlink:href="classstxxl_1_1onoff__switch.html" target="_top" xlink:title="stxxl::onoff_switch">
<polygon fill="none" stroke="black" points="500.5,-123.5 500.5,-144.5 599.5,-144.5 599.5,-123.5 500.5,-123.5"/>
<text text-anchor="middle" x="550" y="-131.5" font-family="Helvetica,sans-Serif" font-size="10.00">stxxl::onoff_switch</text>
</a>
</g>
<!-- Node2&#45;&gt;Node6 -->
<g id="edge14" class="edge"><title>Node2&#45;&gt;Node6</title>
<path fill="none" stroke="#8b1a1a" d="M86.7682,-140.333C121.892,-125.081 180.586,-102.413 234,-95 337.197,-80.6779 366.106,-87.2671 468,-109 485.467,-112.725 504.576,-118.451 519.95,-123.484"/>
<polygon fill="#8b1a1a" stroke="#8b1a1a" points="85.2455,-137.18 77.5105,-144.42 88.0723,-143.584 85.2455,-137.18"/>
</g>
<!-- Node7 -->
<g id="node14" class="node"><title>Node7</title>
<a xlink:href="classstxxl_1_1mutex.html" target="_top" xlink:title="stxxl::mutex">
<polygon fill="none" stroke="black" points="259.5,-144.5 259.5,-165.5 330.5,-165.5 330.5,-144.5 259.5,-144.5"/>
<text text-anchor="middle" x="295" y="-152.5" font-family="Helvetica,sans-Serif" font-size="10.00">stxxl::mutex</text>
</a>
</g>
<!-- Node2&#45;&gt;Node7 -->
<g id="edge18" class="edge"><title>Node2&#45;&gt;Node7</title>
<path fill="none" stroke="#8b1a1a" d="M114.172,-155C159.627,-155 220.914,-155 259.183,-155"/>
<polygon fill="#8b1a1a" stroke="#8b1a1a" points="114.147,-151.5 104.147,-155 114.147,-158.5 114.147,-151.5"/>
</g>
<!-- Node8 -->
<g id="node17" class="node"><title>Node8</title>
<a xlink:href="classstxxl_1_1condition__variable.html" target="_top" xlink:title="stxxl::condition_variable">
<polygon fill="none" stroke="black" points="234,-104.5 234,-125.5 356,-125.5 356,-104.5 234,-104.5"/>
<text text-anchor="middle" x="295" y="-112.5" font-family="Helvetica,sans-Serif" font-size="10.00">stxxl::condition_variable</text>
</a>
</g>
<!-- Node2&#45;&gt;Node8 -->
<g id="edge22" class="edge"><title>Node2&#45;&gt;Node8</title>
<path fill="none" stroke="#8b1a1a" d="M114.138,-145.144C150.576,-139.071 197.198,-131.3 233.98,-125.17"/>
<polygon fill="#8b1a1a" stroke="#8b1a1a" points="113.435,-141.712 104.147,-146.809 114.586,-148.617 113.435,-141.712"/>
</g>
<!-- Node3&#45;&gt;Node1 -->
<g id="edge4" class="edge"><title>Node3&#45;&gt;Node1</title>
<path fill="none" stroke="#9a32cd" stroke-dasharray="5,2" d="M840.418,-232.119C885.03,-251.988 951.002,-281.37 992.461,-299.836"/>
<polygon fill="#9a32cd" stroke="#9a32cd" points="841.798,-228.902 831.239,-228.031 838.95,-235.297 841.798,-228.902"/>
<text text-anchor="middle" x="912" y="-277" font-family="Helvetica,sans-Serif" font-size="10.00"> prefetcher</text>
</g>
<!-- Node4 -->
<g id="node7" class="node"><title>Node4</title>
<a xlink:href="structstxxl_1_1choose__int__types.html" target="_top" xlink:title="stxxl::choose_int_types\l\&lt; my_pointer_size \&gt;">
<polygon fill="none" stroke="black" points="490,-285 490,-319 610,-319 610,-285 490,-285"/>
<text text-anchor="start" x="498" y="-306" font-family="Helvetica,sans-Serif" font-size="10.00">stxxl::choose_int_types</text>
<text text-anchor="middle" x="550" y="-293" font-family="Helvetica,sans-Serif" font-size="10.00">&lt; my_pointer_size &gt;</text>
</a>
</g>
<!-- Node4&#45;&gt;Node1 -->
<g id="edge32" class="edge"><title>Node4&#45;&gt;Node1</title>
<path fill="none" stroke="#9a32cd" stroke-dasharray="5,2" d="M620.691,-304.204C709.627,-306.978 861.814,-311.724 953.741,-314.591"/>
<polygon fill="#9a32cd" stroke="#9a32cd" points="620.536,-300.698 610.432,-303.885 620.318,-307.695 620.536,-300.698"/>
<text text-anchor="middle" x="793" y="-315" font-family="Helvetica,sans-Serif" font-size="10.00"> current_elem</text>
</g>
<!-- Node4&#45;&gt;Node3 -->
<g id="edge8" class="edge"><title>Node4&#45;&gt;Node3</title>
<path fill="none" stroke="#9a32cd" stroke-dasharray="5,2" d="M593.824,-280.551C606.057,-274.878 619.44,-268.958 632,-264 651.707,-256.22 700.185,-240.423 738.831,-228.09"/>
<polygon fill="#9a32cd" stroke="#9a32cd" points="592.292,-277.404 584.727,-284.822 595.266,-283.741 592.292,-277.404"/>
<text text-anchor="middle" x="665" y="-294" font-family="Helvetica,sans-Serif" font-size="10.00"> seq_length</text>
<text text-anchor="middle" x="665" y="-281" font-family="Helvetica,sans-Serif" font-size="10.00">nextconsume</text>
<text text-anchor="middle" x="665" y="-268" font-family="Helvetica,sans-Serif" font-size="10.00">nextread</text>
</g>
<!-- Node5 -->
<g id="node9" class="node"><title>Node5</title>
<a xlink:href="structstxxl_1_1choose__int__types.html" target="_top" xlink:title="stxxl::choose_int_types\l\&lt; PtrSize \&gt;">
<polygon fill="none" stroke="black" points="235,-285 235,-319 355,-319 355,-285 235,-285"/>
<text text-anchor="start" x="243" y="-306" font-family="Helvetica,sans-Serif" font-size="10.00">stxxl::choose_int_types</text>
<text text-anchor="middle" x="295" y="-293" font-family="Helvetica,sans-Serif" font-size="10.00">&lt; PtrSize &gt;</text>
</a>
</g>
<!-- Node5&#45;&gt;Node4 -->
<g id="edge10" class="edge"><title>Node5&#45;&gt;Node4</title>
<path fill="none" stroke="orange" stroke-dasharray="5,2" d="M365.354,-302C404.432,-302 452.541,-302 489.854,-302"/>
<polygon fill="orange" stroke="orange" points="365.109,-298.5 355.109,-302 365.109,-305.5 365.109,-298.5"/>
<text text-anchor="middle" x="421" y="-306" font-family="Helvetica,sans-Serif" font-size="10.00"> &lt; my_pointer_size &gt;</text>
</g>
<!-- Node6&#45;&gt;Node3 -->
<g id="edge12" class="edge"><title>Node6&#45;&gt;Node3</title>
<path fill="none" stroke="#9a32cd" stroke-dasharray="5,2" d="M609.896,-144.318C637.149,-149.783 669.589,-157.378 698,-167 719.519,-174.288 742.674,-184.95 760.735,-193.952"/>
<polygon fill="#9a32cd" stroke="#9a32cd" points="610.209,-140.813 599.724,-142.328 608.865,-147.683 610.209,-140.813"/>
<text text-anchor="middle" x="665" y="-171" font-family="Helvetica,sans-Serif" font-size="10.00"> completed</text>
</g>
<!-- Node7&#45;&gt;Node6 -->
<g id="edge16" class="edge"><title>Node7&#45;&gt;Node6</title>
<path fill="none" stroke="#9a32cd" stroke-dasharray="5,2" d="M340.761,-151.231C385.619,-147.537 453.813,-141.921 500.056,-138.113"/>
<polygon fill="#9a32cd" stroke="#9a32cd" points="340.404,-147.749 330.725,-152.058 340.979,-154.725 340.404,-147.749"/>
<text text-anchor="middle" x="421" y="-152" font-family="Helvetica,sans-Serif" font-size="10.00"> m_mutex</text>
</g>
<!-- Node8&#45;&gt;Node6 -->
<g id="edge20" class="edge"><title>Node8&#45;&gt;Node6</title>
<path fill="none" stroke="#9a32cd" stroke-dasharray="5,2" d="M366.374,-113.433C397.641,-113.469 434.719,-114.492 468,-118 479.54,-119.216 491.875,-121.235 503.382,-123.436"/>
<polygon fill="#9a32cd" stroke="#9a32cd" points="365.999,-109.933 356.007,-113.456 366.015,-116.933 365.999,-109.933"/>
<text text-anchor="middle" x="421" y="-122" font-family="Helvetica,sans-Serif" font-size="10.00"> m_cond</text>
</g>
<!-- Node9 -->
<g id="node20" class="node"><title>Node9</title>
<a xlink:href="classstxxl_1_1counting__ptr.html" target="_top" xlink:title="High&#45;performance smart pointer used as a wrapping reference counting pointer. ">
<polygon fill="none" stroke="black" points="501.5,-222 501.5,-256 598.5,-256 598.5,-222 501.5,-222"/>
<text text-anchor="start" x="509.5" y="-243" font-family="Helvetica,sans-Serif" font-size="10.00">stxxl::counting_ptr</text>
<text text-anchor="middle" x="550" y="-230" font-family="Helvetica,sans-Serif" font-size="10.00">&lt; Type &gt;</text>
</a>
</g>
<!-- Node9&#45;&gt;Node3 -->
<g id="edge24" class="edge"><title>Node9&#45;&gt;Node3</title>
<path fill="none" stroke="#9a32cd" stroke-dasharray="5,2" d="M608.458,-230.953C616.367,-229.925 624.379,-228.913 632,-228 659.349,-224.722 689.353,-221.463 715.971,-218.688"/>
<polygon fill="#9a32cd" stroke="#9a32cd" points="607.992,-227.484 598.534,-232.259 608.906,-234.425 607.992,-227.484"/>
<text text-anchor="middle" x="665" y="-232" font-family="Helvetica,sans-Serif" font-size="10.00"> read_reqs</text>
</g>
<!-- Node10 -->
<g id="node22" class="node"><title>Node10</title>
<a xlink:href="classstxxl_1_1completion__handler.html" target="_top" xlink:title="Completion handler class (Loki&#45;style). ">
<polygon fill="none" stroke="black" points="486,-63.5 486,-84.5 614,-84.5 614,-63.5 486,-63.5"/>
<text text-anchor="middle" x="550" y="-71.5" font-family="Helvetica,sans-Serif" font-size="10.00">stxxl::completion_handler</text>
</a>
</g>
<!-- Node10&#45;&gt;Node3 -->
<g id="edge26" class="edge"><title>Node10&#45;&gt;Node3</title>
<path fill="none" stroke="#9a32cd" stroke-dasharray="5,2" d="M595.994,-87.7754C626.132,-97.8089 665.765,-112.957 698,-132 727.734,-149.566 757.643,-176.284 775.746,-193.694"/>
<polygon fill="#9a32cd" stroke="#9a32cd" points="596.754,-84.342 586.162,-84.5706 594.585,-90.9974 596.754,-84.342"/>
<text text-anchor="middle" x="665" y="-136" font-family="Helvetica,sans-Serif" font-size="10.00"> do_after_fetch</text>
</g>
<!-- Node11 -->
<g id="node24" class="node"><title>Node11</title>
<a xlink:href="structstxxl_1_1compat__unique__ptr.html" target="_top" xlink:title="stxxl::compat_unique\l_ptr\&lt; stxxl::completion\l_handler_impl \&gt;">
<polygon fill="none" stroke="black" points="237,-0.5 237,-47.5 353,-47.5 353,-0.5 237,-0.5"/>
<text text-anchor="start" x="245" y="-34.5" font-family="Helvetica,sans-Serif" font-size="10.00">stxxl::compat_unique</text>
<text text-anchor="start" x="245" y="-21.5" font-family="Helvetica,sans-Serif" font-size="10.00">_ptr&lt; stxxl::completion</text>
<text text-anchor="middle" x="295" y="-8.5" font-family="Helvetica,sans-Serif" font-size="10.00">_handler_impl &gt;</text>
</a>
</g>
<!-- Node11&#45;&gt;Node10 -->
<g id="edge28" class="edge"><title>Node11&#45;&gt;Node10</title>
<path fill="none" stroke="#9a32cd" stroke-dasharray="5,2" d="M363.219,-31.4219C395.236,-35.5256 433.792,-41.3605 468,-49 485.14,-52.8278 503.901,-58.4384 519.147,-63.375"/>
<polygon fill="#9a32cd" stroke="#9a32cd" points="363.425,-27.9204 353.068,-30.1503 362.555,-34.8661 363.425,-27.9204"/>
<text text-anchor="middle" x="421" y="-53" font-family="Helvetica,sans-Serif" font-size="10.00"> m_ptr</text>
</g>
<!-- Node12 -->
<g id="node26" class="node"><title>Node12</title>
<a xlink:href="structstxxl_1_1compat__unique__ptr.html" target="_top" xlink:title="stxxl::compat_unique\l_ptr\&lt; Type \&gt;">
<polygon fill="none" stroke="black" points="0,-7 0,-41 110,-41 110,-7 0,-7"/>
<text text-anchor="start" x="8" y="-28" font-family="Helvetica,sans-Serif" font-size="10.00">stxxl::compat_unique</text>
<text text-anchor="middle" x="55" y="-15" font-family="Helvetica,sans-Serif" font-size="10.00">_ptr&lt; Type &gt;</text>
</a>
</g>
<!-- Node12&#45;&gt;Node11 -->
<g id="edge30" class="edge"><title>Node12&#45;&gt;Node11</title>
<path fill="none" stroke="orange" stroke-dasharray="5,2" d="M120.096,-24C156.538,-24 201.593,-24 236.848,-24"/>
<polygon fill="orange" stroke="orange" points="120.061,-20.5001 110.061,-24 120.061,-27.5001 120.061,-20.5001"/>
<text text-anchor="start" x="128.5" y="-41" font-family="Helvetica,sans-Serif" font-size="10.00"> &lt; stxxl::completion</text>
<text text-anchor="middle" x="172" y="-28" font-family="Helvetica,sans-Serif" font-size="10.00">_handler_impl &gt;</text>
</g>
</g>
</svg>
