<?xml version="1.0" encoding="UTF-8" standalone="no"?>
<!DOCTYPE svg PUBLIC "-//W3C//DTD SVG 1.1//EN"
 "http://www.w3.org/Graphics/SVG/1.1/DTD/svg11.dtd">
<!-- Generated by graphviz version 2.38.0 (20140413.2041)
 -->
<!-- Title: stxxl::grow_shrink_stack&lt; StackConfig &gt; Pages: 1 -->
<svg width="745pt" height="180pt"
 viewBox="0.00 0.00 745.00 180.21" xmlns="http://www.w3.org/2000/svg" xmlns:xlink="http://www.w3.org/1999/xlink">
<g id="graph0" class="graph" transform="scale(1 1) rotate(0) translate(4 176.215)">
<title>stxxl::grow_shrink_stack&lt; StackConfig &gt;</title>
<!-- Node1 -->
<g id="node1" class="node"><title>Node1</title>
<polygon fill="#bfbfbf" stroke="black" points="619,-97.5 619,-127.5 737,-127.5 737,-97.5 619,-97.5"/>
<text text-anchor="start" x="627" y="-115.5" font-family="Helvetica,sans-Serif" font-size="10.00">stxxl::grow_shrink</text>
<text text-anchor="middle" x="678" y="-104.5" font-family="Helvetica,sans-Serif" font-size="10.00">_stack&lt; StackConfig &gt;</text>
</g>
<!-- Node2 -->
<g id="node2" class="node"><title>Node2</title>
<g id="a_node2"><a xlink:href="classstxxl_1_1noncopyable.html" target="_top" xlink:title="stxxl::noncopyable">
<polygon fill="none" stroke="black" points="0,-125 0,-144 98,-144 98,-125 0,-125"/>
<text text-anchor="middle" x="49" y="-132" font-family="Helvetica,sans-Serif" font-size="10.00">stxxl::noncopyable</text>
</a>
</g>
</g>
<!-- Node2&#45;&gt;Node1 -->
<g id="edge1" class="edge"><title>Node2&#45;&gt;Node1</title>
<path fill="none" stroke="#8b1a1a" d="M95.3574,-146.333C102.242,-147.886 109.287,-149.338 116,-150.5 124.367,-151.948 126.533,-151.858 135,-152.5 302.604,-165.208 345.77,-181.428 513,-164.5 552.718,-160.48 562.997,-158.724 601,-146.5 616.687,-141.454 633.473,-134.16 647.27,-127.62"/>
<polygon fill="#8b1a1a" stroke="#8b1a1a" points="95.9766,-142.884 85.4417,-144.009 94.3789,-149.699 95.9766,-142.884"/>
</g>
<!-- Node5 -->
<g id="node5" class="node"><title>Node5</title>
<g id="a_node5"><a xlink:href="classstxxl_1_1simple__vector.html" target="_top" xlink:title="stxxl::simple_vector\l\&lt; stxxl::counting_ptr \&gt;">
<polygon fill="none" stroke="black" points="395.5,-125.5 395.5,-155.5 510.5,-155.5 510.5,-125.5 395.5,-125.5"/>
<text text-anchor="start" x="403.5" y="-143.5" font-family="Helvetica,sans-Serif" font-size="10.00">stxxl::simple_vector</text>
<text text-anchor="middle" x="453" y="-132.5" font-family="Helvetica,sans-Serif" font-size="10.00">&lt; stxxl::counting_ptr &gt;</text>
</a>
</g>
</g>
<!-- Node2&#45;&gt;Node5 -->
<g id="edge5" class="edge"><title>Node2&#45;&gt;Node5</title>
<path fill="none" stroke="#8b1a1a" d="M108.346,-136.323C110.932,-136.387 113.493,-136.446 116,-136.5 214.13,-138.612 328.407,-139.675 395.219,-140.157"/>
<polygon fill="#8b1a1a" stroke="#8b1a1a" points="108.386,-132.823 98.2986,-136.061 108.204,-139.821 108.386,-132.823"/>
</g>
<!-- Node6 -->
<g id="node6" class="node"><title>Node6</title>
<g id="a_node6"><a xlink:href="classstxxl_1_1simple__vector.html" target="_top" xlink:title="Simpler non&#45;growing vector without initialization. ">
<polygon fill="none" stroke="black" points="143,-93.5 143,-123.5 247,-123.5 247,-93.5 143,-93.5"/>
<text text-anchor="start" x="151" y="-111.5" font-family="Helvetica,sans-Serif" font-size="10.00">stxxl::simple_vector</text>
<text text-anchor="middle" x="195" y="-100.5" font-family="Helvetica,sans-Serif" font-size="10.00">&lt; ValueType &gt;</text>
</a>
</g>
</g>
<!-- Node2&#45;&gt;Node6 -->
<g id="edge7" class="edge"><title>Node2&#45;&gt;Node6</title>
<path fill="none" stroke="#8b1a1a" d="M108.197,-123.992C119.575,-121.938 131.431,-119.797 142.57,-117.786"/>
<polygon fill="#8b1a1a" stroke="#8b1a1a" points="107.569,-120.549 98.3505,-125.77 108.813,-127.437 107.569,-120.549"/>
</g>
<!-- Node7 -->
<g id="node7" class="node"><title>Node7</title>
<g id="a_node7"><a xlink:href="classstxxl_1_1simple__vector.html" target="_top" xlink:title="stxxl::simple_vector\l\&lt; stxxl::typed_block \&gt;">
<polygon fill="none" stroke="black" points="396,-69.5 396,-99.5 510,-99.5 510,-69.5 396,-69.5"/>
<text text-anchor="start" x="404" y="-87.5" font-family="Helvetica,sans-Serif" font-size="10.00">stxxl::simple_vector</text>
<text text-anchor="middle" x="453" y="-76.5" font-family="Helvetica,sans-Serif" font-size="10.00">&lt; stxxl::typed_block &gt;</text>
</a>
</g>
</g>
<!-- Node2&#45;&gt;Node7 -->
<g id="edge9" class="edge"><title>Node2&#45;&gt;Node7</title>
<path fill="none" stroke="#8b1a1a" d="M69.6417,-118.52C86.0152,-106.283 110.536,-90.3717 135,-83.5 223.484,-58.6458 331.424,-66.6441 395.782,-75.2094"/>
<polygon fill="#8b1a1a" stroke="#8b1a1a" points="67.2094,-115.976 61.4357,-124.86 71.489,-121.516 67.2094,-115.976"/>
</g>
<!-- Node3 -->
<g id="node3" class="node"><title>Node3</title>
<g id="a_node3"><a xlink:href="structstxxl_1_1choose__int__types.html" target="_top" xlink:title="stxxl::choose_int_types\l\&lt; my_pointer_size \&gt;">
<polygon fill="none" stroke="black" points="393,-7.5 393,-37.5 513,-37.5 513,-7.5 393,-7.5"/>
<text text-anchor="start" x="401" y="-25.5" font-family="Helvetica,sans-Serif" font-size="10.00">stxxl::choose_int_types</text>
<text text-anchor="middle" x="453" y="-14.5" font-family="Helvetica,sans-Serif" font-size="10.00">&lt; my_pointer_size &gt;</text>
</a>
</g>
</g>
<!-- Node3&#45;&gt;Node1 -->
<g id="edge2" class="edge"><title>Node3&#45;&gt;Node1</title>
<path fill="none" stroke="#9a32cd" stroke-dasharray="5,2" d="M523.045,-38.5725C548.123,-45.4761 576.342,-54.5117 601,-65.5 620.555,-74.2144 641.112,-87.1912 655.908,-97.3028"/>
<polygon fill="#9a32cd" stroke="#9a32cd" points="523.805,-35.1528 513.239,-35.9364 521.988,-41.9127 523.805,-35.1528"/>
<text text-anchor="middle" x="566" y="-68.5" font-family="Helvetica,sans-Serif" font-size="10.00"> cache_offset</text>
</g>
<!-- Node4 -->
<g id="node4" class="node"><title>Node4</title>
<g id="a_node4"><a xlink:href="structstxxl_1_1choose__int__types.html" target="_top" xlink:title="stxxl::choose_int_types\l\&lt; PtrSize \&gt;">
<polygon fill="none" stroke="black" points="135,-0.5 135,-30.5 255,-30.5 255,-0.5 135,-0.5"/>
<text text-anchor="start" x="143" y="-18.5" font-family="Helvetica,sans-Serif" font-size="10.00">stxxl::choose_int_types</text>
<text text-anchor="middle" x="195" y="-7.5" font-family="Helvetica,sans-Serif" font-size="10.00">&lt; PtrSize &gt;</text>
</a>
</g>
</g>
<!-- Node4&#45;&gt;Node3 -->
<g id="edge3" class="edge"><title>Node4&#45;&gt;Node3</title>
<path fill="none" stroke="orange" stroke-dasharray="5,2" d="M265.235,-17.3931C305.124,-18.4838 354.737,-19.8405 392.801,-20.8813"/>
<polygon fill="orange" stroke="orange" points="265.145,-13.8895 255.053,-17.1147 264.954,-20.8869 265.145,-13.8895"/>
<text text-anchor="middle" x="324" y="-23.5" font-family="Helvetica,sans-Serif" font-size="10.00"> &lt; my_pointer_size &gt;</text>
</g>
<!-- Node5&#45;&gt;Node1 -->
<g id="edge4" class="edge"><title>Node5&#45;&gt;Node1</title>
<path fill="none" stroke="#9a32cd" stroke-dasharray="5,2" d="M520.507,-132.149C551.808,-128.219 588.792,-123.575 618.946,-119.789"/>
<polygon fill="#9a32cd" stroke="#9a32cd" points="520.047,-128.68 510.561,-133.398 520.919,-135.625 520.047,-128.68"/>
<text text-anchor="middle" x="566" y="-134.5" font-family="Helvetica,sans-Serif" font-size="10.00"> requests</text>
</g>
<!-- Node6&#45;&gt;Node5 -->
<g id="edge6" class="edge"><title>Node6&#45;&gt;Node5</title>
<path fill="none" stroke="orange" stroke-dasharray="5,2" d="M256.998,-114.036C291.661,-117.417 335.832,-122.12 375,-127.5 381.581,-128.404 388.464,-129.438 395.292,-130.52"/>
<polygon fill="orange" stroke="orange" points="257.314,-110.551 247.024,-113.074 256.642,-117.518 257.314,-110.551"/>
<text text-anchor="middle" x="324" y="-130.5" font-family="Helvetica,sans-Serif" font-size="10.00"> &lt; stxxl::counting_ptr &gt;</text>
</g>
<!-- Node6&#45;&gt;Node7 -->
<g id="edge10" class="edge"><title>Node6&#45;&gt;Node7</title>
<path fill="none" stroke="orange" stroke-dasharray="5,2" d="M257.33,-95.7411C262.615,-94.8883 267.892,-94.1227 273,-93.5 313.925,-88.5106 360.438,-86.275 395.791,-85.2792"/>
<polygon fill="orange" stroke="orange" points="256.465,-92.3382 247.198,-97.4738 257.645,-99.238 256.465,-92.3382"/>
<text text-anchor="middle" x="324" y="-96.5" font-family="Helvetica,sans-Serif" font-size="10.00"> &lt; stxxl::typed_block &gt;</text>
</g>
<!-- Node7&#45;&gt;Node1 -->
<g id="edge8" class="edge"><title>Node7&#45;&gt;Node1</title>
<path fill="none" stroke="#9a32cd" stroke-dasharray="5,2" d="M520.494,-80.2736C545.859,-79.8816 574.932,-80.9156 601,-85.5 614.929,-87.9495 629.696,-92.6688 642.473,-97.4858"/>
<polygon fill="#9a32cd" stroke="#9a32cd" points="520.155,-76.7805 510.239,-80.5113 520.318,-83.7786 520.155,-76.7805"/>
<text text-anchor="middle" x="566" y="-110.5" font-family="Helvetica,sans-Serif" font-size="10.00"> overlap_buffers</text>
<text text-anchor="middle" x="566" y="-99.5" font-family="Helvetica,sans-Serif" font-size="10.00">cache_buffers</text>
<text text-anchor="middle" x="566" y="-88.5" font-family="Helvetica,sans-Serif" font-size="10.00">cache</text>
</g>
</g>
</svg>
