<?xml version="1.0" encoding="UTF-8" standalone="no"?>
<!DOCTYPE svg PUBLIC "-//W3C//DTD SVG 1.1//EN"
 "http://www.w3.org/Graphics/SVG/1.1/DTD/svg11.dtd">
<!-- Generated by graphviz version 2.26.3 (20100126.1600)
 -->
<!-- Title: stxxl::priority_queue_local::loser_tree&lt; ValueType, CompareType, MaxArity &gt; Pages: 1 -->
<svg width="197pt" height="240pt"
 viewBox="0.00 0.00 197.00 240.00" xmlns="http://www.w3.org/2000/svg" xmlns:xlink="http://www.w3.org/1999/xlink">
<g id="graph1" class="graph" transform="scale(1 1) rotate(0) translate(4 236)">
<title>stxxl::priority_queue_local::loser_tree&lt; ValueType, CompareType, MaxArity &gt;</title>
<!-- Node1 -->
<g id="node1" class="node"><title>Node1</title>
<polygon fill="#bfbfbf" stroke="black" points="-0.5,-124.5 -0.5,-171.5 148.5,-171.5 148.5,-124.5 -0.5,-124.5"/>
<text text-anchor="start" x="7.5" y="-158.5" font-family="Helvetica,sans-Serif" font-size="10.00">stxxl::priority_queue</text>
<text text-anchor="start" x="7.5" y="-145.5" font-family="Helvetica,sans-Serif" font-size="10.00">_local::loser_tree&lt; ValueType,</text>
<text text-anchor="middle" x="74" y="-132.5" font-family="Helvetica,sans-Serif" font-size="10.00"> CompareType, MaxArity &gt;</text>
</g>
<!-- Node3 -->
<g id="node5" class="node"><title>Node3</title>
<a xlink:href="classstxxl_1_1priority__queue__local_1_1loser__tree.html" target="_top" xlink:title="stxxl::priority_queue\l_local::loser_tree\&lt; value\l_type, comparator_type,\l IntKMAX \&gt;">
<polygon fill="none" stroke="black" points="12.5,-1 12.5,-61 135.5,-61 135.5,-1 12.5,-1"/>
<text text-anchor="start" x="20.5" y="-48" font-family="Helvetica,sans-Serif" font-size="10.00">stxxl::priority_queue</text>
<text text-anchor="start" x="20.5" y="-35" font-family="Helvetica,sans-Serif" font-size="10.00">_local::loser_tree&lt; value</text>
<text text-anchor="start" x="20.5" y="-22" font-family="Helvetica,sans-Serif" font-size="10.00">_type, comparator_type,</text>
<text text-anchor="middle" x="74" y="-9" font-family="Helvetica,sans-Serif" font-size="10.00"> IntKMAX &gt;</text>
</a>
</g>
<!-- Node1&#45;&gt;Node3 -->
<g id="edge4" class="edge"><title>Node1&#45;&gt;Node3</title>
<path fill="none" stroke="orange" stroke-dasharray="5,2" d="M74,-113.924C74,-97.2834 74,-77.4293 74,-61.3206"/>
<polygon fill="orange" stroke="orange" points="70.5001,-114.323 74,-124.323 77.5001,-114.323 70.5001,-114.323"/>
<text text-anchor="start" x="74" y="-97" font-family="Helvetica,sans-Serif" font-size="10.00"> &lt; value_type, comparator</text>
<text text-anchor="middle" x="131.5" y="-84" font-family="Helvetica,sans-Serif" font-size="10.00">_type, IntKMAX &gt;</text>
</g>
<!-- Node2 -->
<g id="node2" class="node"><title>Node2</title>
<a xlink:href="classstxxl_1_1noncopyable.html" target="_top" xlink:title="stxxl::noncopyable">
<polygon fill="none" stroke="black" points="25,-210.5 25,-231.5 123,-231.5 123,-210.5 25,-210.5"/>
<text text-anchor="middle" x="74" y="-218.5" font-family="Helvetica,sans-Serif" font-size="10.00">stxxl::noncopyable</text>
</a>
</g>
<!-- Node2&#45;&gt;Node1 -->
<g id="edge2" class="edge"><title>Node2&#45;&gt;Node1</title>
<path fill="none" stroke="#8b1a1a" d="M74,-200.053C74,-191.23 74,-180.915 74,-171.805"/>
<polygon fill="#8b1a1a" stroke="#8b1a1a" points="70.5001,-200.229 74,-210.229 77.5001,-200.229 70.5001,-200.229"/>
</g>
</g>
</svg>
