<?xml version="1.0" encoding="UTF-8" standalone="no"?>
<!DOCTYPE svg PUBLIC "-//W3C//DTD SVG 1.1//EN"
 "http://www.w3.org/Graphics/SVG/1.1/DTD/svg11.dtd">
<!-- Generated by graphviz version 2.38.0 (20140413.2041)
 -->
<!-- Title: stxxl::matrix_iterator&lt; ValueType, BlockSideLength &gt; Pages: 1 -->
<svg width="326pt" height="110pt"
 viewBox="0.00 0.00 326.00 110.00" xmlns="http://www.w3.org/2000/svg" xmlns:xlink="http://www.w3.org/1999/xlink">
<g id="graph0" class="graph" transform="scale(1 1) rotate(0) translate(4 106)">
<title>stxxl::matrix_iterator&lt; ValueType, BlockSideLength &gt;</title>
<!-- Node1 -->
<g id="node1" class="node"><title>Node1</title>
<polygon fill="#bfbfbf" stroke="black" points="0,-36 0,-66 161,-66 161,-36 0,-36"/>
<text text-anchor="start" x="8" y="-54" font-family="Helvetica,sans-Serif" font-size="10.00">stxxl::matrix_iterator</text>
<text text-anchor="middle" x="80.5" y="-43" font-family="Helvetica,sans-Serif" font-size="10.00">&lt; ValueType, BlockSideLength &gt;</text>
</g>
<!-- Node2 -->
<g id="node2" class="node"><title>Node2</title>
<g id="a_node2"><a xlink:href="classstxxl_1_1matrix__col__major__iterator.html" target="_top" xlink:title="column&#45;major iterator that points to single elements inside a matrix ">
<polygon fill="none" stroke="black" points="198.5,-60.5 198.5,-101.5 316.5,-101.5 316.5,-60.5 198.5,-60.5"/>
<text text-anchor="start" x="206.5" y="-89.5" font-family="Helvetica,sans-Serif" font-size="10.00">stxxl::matrix_col_major</text>
<text text-anchor="start" x="206.5" y="-78.5" font-family="Helvetica,sans-Serif" font-size="10.00">_iterator&lt; ValueType,</text>
<text text-anchor="middle" x="257.5" y="-67.5" font-family="Helvetica,sans-Serif" font-size="10.00"> BlockSideLength &gt;</text>
</a>
</g>
</g>
<!-- Node1&#45;&gt;Node2 -->
<g id="edge1" class="edge"><title>Node1&#45;&gt;Node2</title>
<path fill="none" stroke="midnightblue" d="M171.091,-66.3584C180.339,-67.9439 189.556,-69.5239 198.329,-71.0278"/>
<polygon fill="midnightblue" stroke="midnightblue" points="171.511,-62.8794 161.063,-64.6394 170.328,-69.7788 171.511,-62.8794"/>
</g>
<!-- Node3 -->
<g id="node3" class="node"><title>Node3</title>
<g id="a_node3"><a xlink:href="classstxxl_1_1matrix__row__major__iterator.html" target="_top" xlink:title="row&#45;major iterator that points to single elements inside a matrix ">
<polygon fill="none" stroke="black" points="197,-0.5 197,-41.5 318,-41.5 318,-0.5 197,-0.5"/>
<text text-anchor="start" x="205" y="-29.5" font-family="Helvetica,sans-Serif" font-size="10.00">stxxl::matrix_row_major</text>
<text text-anchor="start" x="205" y="-18.5" font-family="Helvetica,sans-Serif" font-size="10.00">_iterator&lt; ValueType,</text>
<text text-anchor="middle" x="257.5" y="-7.5" font-family="Helvetica,sans-Serif" font-size="10.00"> BlockSideLength &gt;</text>
</a>
</g>
</g>
<!-- Node1&#45;&gt;Node3 -->
<g id="edge2" class="edge"><title>Node1&#45;&gt;Node3</title>
<path fill="none" stroke="midnightblue" d="M170.94,-35.6674C179.695,-34.1665 188.425,-32.67 196.777,-31.2382"/>
<polygon fill="midnightblue" stroke="midnightblue" points="170.328,-32.2212 161.063,-37.3606 171.511,-39.1206 170.328,-32.2212"/>
</g>
</g>
</svg>
