<?xml version="1.0" encoding="UTF-8" standalone="no"?>
<!DOCTYPE svg PUBLIC "-//W3C//DTD SVG 1.1//EN"
 "http://www.w3.org/Graphics/SVG/1.1/DTD/svg11.dtd">
<!-- Generated by graphviz version 2.38.0 (20140413.2041)
 -->
<!-- Title: stxxl::stream::runs_creator&lt; Input, CompareType, BlockSize, AllocStr &gt; Pages: 1 -->
<svg width="785pt" height="73pt"
 viewBox="0.00 0.00 785.00 73.00" xmlns="http://www.w3.org/2000/svg" xmlns:xlink="http://www.w3.org/1999/xlink">
<g id="graph0" class="graph" transform="scale(1 1) rotate(0) translate(4 69)">
<title>stxxl::stream::runs_creator&lt; Input, CompareType, BlockSize, AllocStr &gt;</title>
<!-- Node1 -->
<g id="node1" class="node"><title>Node1</title>
<polygon fill="#bfbfbf" stroke="black" points="306,-11.5 306,-52.5 459,-52.5 459,-11.5 306,-11.5"/>
<text text-anchor="start" x="314" y="-40.5" font-family="Helvetica,sans-Serif" font-size="10.00">stxxl::stream::runs</text>
<text text-anchor="start" x="314" y="-29.5" font-family="Helvetica,sans-Serif" font-size="10.00">_creator&lt; Input, CompareType,</text>
<text text-anchor="middle" x="382.5" y="-18.5" font-family="Helvetica,sans-Serif" font-size="10.00"> BlockSize, AllocStr &gt;</text>
</g>
<!-- Node4 -->
<g id="node4" class="node"><title>Node4</title>
<g id="a_node4"><a xlink:href="classstxxl_1_1stream_1_1runs__creator.html" target="_top" xlink:title="stxxl::stream::runs\l_creator\&lt; stream::use\l_push\&lt; ValueType \&gt;, cmp\l_type, block_size, alloc\l_strategy_type \&gt;">
<polygon fill="none" stroke="black" points="645,-0.5 645,-63.5 777,-63.5 777,-0.5 645,-0.5"/>
<text text-anchor="start" x="653" y="-51.5" font-family="Helvetica,sans-Serif" font-size="10.00">stxxl::stream::runs</text>
<text text-anchor="start" x="653" y="-40.5" font-family="Helvetica,sans-Serif" font-size="10.00">_creator&lt; stream::use</text>
<text text-anchor="start" x="653" y="-29.5" font-family="Helvetica,sans-Serif" font-size="10.00">_push&lt; ValueType &gt;, cmp</text>
<text text-anchor="start" x="653" y="-18.5" font-family="Helvetica,sans-Serif" font-size="10.00">_type, block_size, alloc</text>
<text text-anchor="middle" x="711" y="-7.5" font-family="Helvetica,sans-Serif" font-size="10.00">_strategy_type &gt;</text>
</a>
</g>
</g>
<!-- Node1&#45;&gt;Node4 -->
<g id="edge3" class="edge"><title>Node1&#45;&gt;Node4</title>
<path fill="none" stroke="orange" stroke-dasharray="5,2" d="M469.305,-32C524.276,-32 594.497,-32 644.884,-32"/>
<polygon fill="orange" stroke="orange" points="469.226,-28.5001 459.226,-32 469.226,-35.5001 469.226,-28.5001"/>
<text text-anchor="start" x="477" y="-57" font-family="Helvetica,sans-Serif" font-size="10.00"> &lt; stream::use_push</text>
<text text-anchor="start" x="477" y="-46" font-family="Helvetica,sans-Serif" font-size="10.00">&lt; ValueType &gt;, cmp_type,</text>
<text text-anchor="middle" x="552" y="-35" font-family="Helvetica,sans-Serif" font-size="10.00"> block_size, alloc_strategy_type &gt;</text>
</g>
<!-- Node2 -->
<g id="node2" class="node"><title>Node2</title>
<g id="a_node2"><a xlink:href="classstxxl_1_1stream_1_1basic__runs__creator.html" target="_top" xlink:title="Forms sorted runs of data from a stream. ">
<polygon fill="none" stroke="black" points="135,-6 135,-58 269,-58 269,-6 135,-6"/>
<text text-anchor="start" x="143" y="-46" font-family="Helvetica,sans-Serif" font-size="10.00">stxxl::stream::basic</text>
<text text-anchor="start" x="143" y="-35" font-family="Helvetica,sans-Serif" font-size="10.00">_runs_creator&lt; Input,</text>
<text text-anchor="start" x="143" y="-24" font-family="Helvetica,sans-Serif" font-size="10.00"> CompareType, BlockSize,</text>
<text text-anchor="middle" x="202" y="-13" font-family="Helvetica,sans-Serif" font-size="10.00"> AllocStr &gt;</text>
</a>
</g>
</g>
<!-- Node2&#45;&gt;Node1 -->
<g id="edge1" class="edge"><title>Node2&#45;&gt;Node1</title>
<path fill="none" stroke="midnightblue" d="M279.378,-32C288.12,-32 297.03,-32 305.764,-32"/>
<polygon fill="midnightblue" stroke="midnightblue" points="279.213,-28.5001 269.213,-32 279.213,-35.5001 279.213,-28.5001"/>
</g>
<!-- Node3 -->
<g id="node3" class="node"><title>Node3</title>
<g id="a_node3"><a xlink:href="classstxxl_1_1noncopyable.html" target="_top" xlink:title="stxxl::noncopyable">
<polygon fill="none" stroke="black" points="0,-22.5 0,-41.5 98,-41.5 98,-22.5 0,-22.5"/>
<text text-anchor="middle" x="49" y="-29.5" font-family="Helvetica,sans-Serif" font-size="10.00">stxxl::noncopyable</text>
</a>
</g>
</g>
<!-- Node3&#45;&gt;Node2 -->
<g id="edge2" class="edge"><title>Node3&#45;&gt;Node2</title>
<path fill="none" stroke="#8b1a1a" d="M108.232,-32C116.936,-32 125.964,-32 134.818,-32"/>
<polygon fill="#8b1a1a" stroke="#8b1a1a" points="108.193,-28.5001 98.1925,-32 108.192,-35.5001 108.193,-28.5001"/>
</g>
</g>
</svg>
