<?xml version="1.0" encoding="UTF-8" standalone="no"?>
<!DOCTYPE svg PUBLIC "-//W3C//DTD SVG 1.1//EN"
 "http://www.w3.org/Graphics/SVG/1.1/DTD/svg11.dtd">
<!-- Generated by graphviz version 2.38.0 (20140413.2041)
 -->
<!-- Title: stxxl::parallel::LoserTreeCopyUnguardedBase&lt; ValueType, Comparator &gt; Pages: 1 -->
<svg width="514pt" height="110pt"
 viewBox="0.00 0.00 514.00 110.00" xmlns="http://www.w3.org/2000/svg" xmlns:xlink="http://www.w3.org/1999/xlink">
<g id="graph0" class="graph" transform="scale(1 1) rotate(0) translate(4 106)">
<title>stxxl::parallel::LoserTreeCopyUnguardedBase&lt; ValueType, Comparator &gt;</title>
<!-- Node1 -->
<g id="node1" class="node"><title>Node1</title>
<polygon fill="#bfbfbf" stroke="black" points="134,-30.5 134,-71.5 302,-71.5 302,-30.5 134,-30.5"/>
<text text-anchor="start" x="142" y="-59.5" font-family="Helvetica,sans-Serif" font-size="10.00">stxxl::parallel::LoserTree</text>
<text text-anchor="start" x="142" y="-48.5" font-family="Helvetica,sans-Serif" font-size="10.00">CopyUnguardedBase&lt; ValueType,</text>
<text text-anchor="middle" x="218" y="-37.5" font-family="Helvetica,sans-Serif" font-size="10.00"> Comparator &gt;</text>
</g>
<!-- Node3 -->
<g id="node3" class="node"><title>Node3</title>
<g id="a_node3"><a xlink:href="classstxxl_1_1parallel_1_1LoserTreeCopyUnguarded.html" target="_top" xlink:title="stxxl::parallel::LoserTree\lCopyUnguarded\&lt; ValueType,\l Comparator \&gt;">
<polygon fill="none" stroke="black" points="349,-60.5 349,-101.5 495,-101.5 495,-60.5 349,-60.5"/>
<text text-anchor="start" x="357" y="-89.5" font-family="Helvetica,sans-Serif" font-size="10.00">stxxl::parallel::LoserTree</text>
<text text-anchor="start" x="357" y="-78.5" font-family="Helvetica,sans-Serif" font-size="10.00">CopyUnguarded&lt; ValueType,</text>
<text text-anchor="middle" x="422" y="-67.5" font-family="Helvetica,sans-Serif" font-size="10.00"> Comparator &gt;</text>
</a>
</g>
</g>
<!-- Node1&#45;&gt;Node3 -->
<g id="edge2" class="edge"><title>Node1&#45;&gt;Node3</title>
<path fill="none" stroke="midnightblue" d="M311.947,-64.804C324.367,-66.6485 336.95,-68.5174 348.939,-70.2979"/>
<polygon fill="midnightblue" stroke="midnightblue" points="312.441,-61.3391 302.036,-63.332 311.413,-68.2632 312.441,-61.3391"/>
</g>
<!-- Node4 -->
<g id="node4" class="node"><title>Node4</title>
<g id="a_node4"><a xlink:href="classstxxl_1_1parallel_1_1LoserTreeCopyUnguarded_3_01true_00_01ValueType_00_01Comparator_01_4.html" target="_top" xlink:title="stxxl::parallel::LoserTree\lCopyUnguarded\&lt; true, ValueType,\l Comparator \&gt;">
<polygon fill="none" stroke="black" points="338,-0.5 338,-41.5 506,-41.5 506,-0.5 338,-0.5"/>
<text text-anchor="start" x="346" y="-29.5" font-family="Helvetica,sans-Serif" font-size="10.00">stxxl::parallel::LoserTree</text>
<text text-anchor="start" x="346" y="-18.5" font-family="Helvetica,sans-Serif" font-size="10.00">CopyUnguarded&lt; true, ValueType,</text>
<text text-anchor="middle" x="422" y="-7.5" font-family="Helvetica,sans-Serif" font-size="10.00"> Comparator &gt;</text>
</a>
</g>
</g>
<!-- Node1&#45;&gt;Node4 -->
<g id="edge3" class="edge"><title>Node1&#45;&gt;Node4</title>
<path fill="none" stroke="midnightblue" d="M312.109,-37.1719C320.734,-35.891 329.435,-34.5987 337.96,-33.3326"/>
<polygon fill="midnightblue" stroke="midnightblue" points="311.413,-33.7368 302.036,-38.668 312.441,-40.6609 311.413,-33.7368"/>
</g>
<!-- Node2 -->
<g id="node2" class="node"><title>Node2</title>
<g id="a_node2"><a xlink:href="classstxxl_1_1noncopyable.html" target="_top" xlink:title="stxxl::noncopyable">
<polygon fill="none" stroke="black" points="0,-41.5 0,-60.5 98,-60.5 98,-41.5 0,-41.5"/>
<text text-anchor="middle" x="49" y="-48.5" font-family="Helvetica,sans-Serif" font-size="10.00">stxxl::noncopyable</text>
</a>
</g>
</g>
<!-- Node2&#45;&gt;Node1 -->
<g id="edge1" class="edge"><title>Node2&#45;&gt;Node1</title>
<path fill="none" stroke="#8b1a1a" d="M108.5,-51C116.723,-51 125.301,-51 133.875,-51"/>
<polygon fill="#8b1a1a" stroke="#8b1a1a" points="108.303,-47.5001 98.3033,-51 108.303,-54.5001 108.303,-47.5001"/>
</g>
</g>
</svg>
