<?xml version="1.0" encoding="UTF-8" standalone="no"?>
<!DOCTYPE svg PUBLIC "-//W3C//DTD SVG 1.1//EN"
 "http://www.w3.org/Graphics/SVG/1.1/DTD/svg11.dtd">
<!-- Generated by graphviz version 2.26.3 (20100126.1600)
 -->
<!-- Title: stxxl::buf_ostream&lt; BlockType, BidIteratorType &gt; Pages: 1 -->
<svg width="812pt" height="183pt"
 viewBox="0.00 0.00 812.00 182.64" xmlns="http://www.w3.org/2000/svg" xmlns:xlink="http://www.w3.org/1999/xlink">
<g id="graph1" class="graph" transform="scale(1 1) rotate(0) translate(4 178.645)">
<title>stxxl::buf_ostream&lt; BlockType, BidIteratorType &gt;</title>
<!-- Node1 -->
<g id="node1" class="node"><title>Node1</title>
<polygon fill="#bfbfbf" stroke="black" points="650,-101 650,-135 804,-135 804,-101 650,-101"/>
<text text-anchor="start" x="658" y="-122" font-family="Helvetica,sans-Serif" font-size="10.00">stxxl::buf_ostream</text>
<text text-anchor="middle" x="727" y="-109" font-family="Helvetica,sans-Serif" font-size="10.00">&lt; BlockType, BidIteratorType &gt;</text>
</g>
<!-- Node2 -->
<g id="node2" class="node"><title>Node2</title>
<a xlink:href="classstxxl_1_1noncopyable.html" target="_top" xlink:title="stxxl::noncopyable">
<polygon fill="none" stroke="black" points="0,-152.5 0,-173.5 98,-173.5 98,-152.5 0,-152.5"/>
<text text-anchor="middle" x="49" y="-160.5" font-family="Helvetica,sans-Serif" font-size="10.00">stxxl::noncopyable</text>
</a>
</g>
<!-- Node2&#45;&gt;Node1 -->
<g id="edge2" class="edge"><title>Node2&#45;&gt;Node1</title>
<path fill="none" stroke="#8b1a1a" d="M108.337,-172.331C110.923,-172.588 113.486,-172.813 116,-173 138.161,-174.645 143.785,-173.563 166,-173 338.87,-168.618 381.961,-161.492 554,-144 588.718,-140.47 597.474,-140.076 632,-135 637.802,-134.147 643.793,-133.209 649.813,-132.226"/>
<polygon fill="#8b1a1a" stroke="#8b1a1a" points="108.631,-168.843 98.3032,-171.205 107.85,-175.799 108.631,-168.843"/>
</g>
<!-- Node5 -->
<g id="node8" class="node"><title>Node5</title>
<a xlink:href="classstxxl_1_1buffered__writer.html" target="_top" xlink:title="stxxl::buffered_writer\l\&lt; block_type \&gt;">
<polygon fill="none" stroke="black" points="440,-101 440,-135 548,-135 548,-101 440,-101"/>
<text text-anchor="start" x="448" y="-122" font-family="Helvetica,sans-Serif" font-size="10.00">stxxl::buffered_writer</text>
<text text-anchor="middle" x="494" y="-109" font-family="Helvetica,sans-Serif" font-size="10.00">&lt; block_type &gt;</text>
</a>
</g>
<!-- Node2&#45;&gt;Node5 -->
<g id="edge10" class="edge"><title>Node2&#45;&gt;Node5</title>
<path fill="none" stroke="#8b1a1a" d="M108.569,-161.064C181.413,-158.097 308.312,-150.988 416,-135 423.677,-133.86 431.728,-132.406 439.622,-130.828"/>
<polygon fill="#8b1a1a" stroke="#8b1a1a" points="108.076,-157.58 98.2221,-161.472 108.352,-164.575 108.076,-157.58"/>
</g>
<!-- Node7 -->
<g id="node13" class="node"><title>Node7</title>
<a xlink:href="classstxxl_1_1buffered__writer.html" target="_top" xlink:title="Encapsulates asynchronous buffered block writing engine. ">
<polygon fill="none" stroke="black" points="190,-101 190,-135 298,-135 298,-101 190,-101"/>
<text text-anchor="start" x="198" y="-122" font-family="Helvetica,sans-Serif" font-size="10.00">stxxl::buffered_writer</text>
<text text-anchor="middle" x="244" y="-109" font-family="Helvetica,sans-Serif" font-size="10.00">&lt; BlockType &gt;</text>
</a>
</g>
<!-- Node2&#45;&gt;Node7 -->
<g id="edge16" class="edge"><title>Node2&#45;&gt;Node7</title>
<path fill="none" stroke="#8b1a1a" d="M104.695,-150.147C131.445,-143.974 163.374,-136.606 189.911,-130.482"/>
<polygon fill="#8b1a1a" stroke="#8b1a1a" points="103.676,-146.79 94.7188,-152.449 105.25,-153.611 103.676,-146.79"/>
</g>
<!-- Node3 -->
<g id="node4" class="node"><title>Node3</title>
<a xlink:href="structstxxl_1_1choose__int__types.html" target="_top" xlink:title="stxxl::choose_int_types\l\&lt; my_pointer_size \&gt;">
<polygon fill="none" stroke="black" points="434,-25 434,-59 554,-59 554,-25 434,-25"/>
<text text-anchor="start" x="442" y="-46" font-family="Helvetica,sans-Serif" font-size="10.00">stxxl::choose_int_types</text>
<text text-anchor="middle" x="494" y="-33" font-family="Helvetica,sans-Serif" font-size="10.00">&lt; my_pointer_size &gt;</text>
</a>
</g>
<!-- Node3&#45;&gt;Node1 -->
<g id="edge4" class="edge"><title>Node3&#45;&gt;Node1</title>
<path fill="none" stroke="#9a32cd" stroke-dasharray="5,2" d="M555.956,-62.2089C592.915,-74.264 639.331,-89.4041 674.482,-100.87"/>
<polygon fill="#9a32cd" stroke="#9a32cd" points="556.882,-58.8295 546.29,-59.0559 554.711,-65.4844 556.882,-58.8295"/>
<text text-anchor="middle" x="602" y="-90" font-family="Helvetica,sans-Serif" font-size="10.00"> current_elem</text>
</g>
<!-- Node4 -->
<g id="node6" class="node"><title>Node4</title>
<a xlink:href="structstxxl_1_1choose__int__types.html" target="_top" xlink:title="stxxl::choose_int_types\l\&lt; PtrSize \&gt;">
<polygon fill="none" stroke="black" points="184,-0 184,-34 304,-34 304,-0 184,-0"/>
<text text-anchor="start" x="192" y="-21" font-family="Helvetica,sans-Serif" font-size="10.00">stxxl::choose_int_types</text>
<text text-anchor="middle" x="244" y="-8" font-family="Helvetica,sans-Serif" font-size="10.00">&lt; PtrSize &gt;</text>
</a>
</g>
<!-- Node4&#45;&gt;Node3 -->
<g id="edge6" class="edge"><title>Node4&#45;&gt;Node3</title>
<path fill="none" stroke="orange" stroke-dasharray="5,2" d="M314.578,-24.0578C352.196,-27.8196 397.985,-32.3985 433.89,-35.989"/>
<polygon fill="orange" stroke="orange" points="314.498,-20.5324 304.199,-23.0199 313.801,-27.4977 314.498,-20.5324"/>
<text text-anchor="middle" x="369" y="-38" font-family="Helvetica,sans-Serif" font-size="10.00"> &lt; my_pointer_size &gt;</text>
</g>
<!-- Node5&#45;&gt;Node1 -->
<g id="edge8" class="edge"><title>Node5&#45;&gt;Node1</title>
<path fill="none" stroke="#9a32cd" stroke-dasharray="5,2" d="M558.235,-118C586.591,-118 620.159,-118 649.859,-118"/>
<polygon fill="#9a32cd" stroke="#9a32cd" points="558.041,-114.5 548.041,-118 558.04,-121.5 558.041,-114.5"/>
<text text-anchor="middle" x="602" y="-122" font-family="Helvetica,sans-Serif" font-size="10.00"> writer</text>
</g>
<!-- Node6 -->
<g id="node11" class="node"><title>Node6</title>
<a xlink:href="classstxxl_1_1counting__ptr.html" target="_top" xlink:title="High&#45;performance smart pointer used as a wrapping reference counting pointer. ">
<polygon fill="none" stroke="black" points="0.5,-71 0.5,-105 97.5,-105 97.5,-71 0.5,-71"/>
<text text-anchor="start" x="8.5" y="-92" font-family="Helvetica,sans-Serif" font-size="10.00">stxxl::counting_ptr</text>
<text text-anchor="middle" x="49" y="-79" font-family="Helvetica,sans-Serif" font-size="10.00">&lt; Type &gt;</text>
</a>
</g>
<!-- Node6&#45;&gt;Node5 -->
<g id="edge12" class="edge"><title>Node6&#45;&gt;Node5</title>
<path fill="none" stroke="#9a32cd" stroke-dasharray="5,2" d="M107.918,-83.2178C131.551,-81.5227 159.051,-79.8307 184,-79 237.304,-77.2252 250.94,-73.6105 304,-79 350.4,-83.7129 402.206,-94.7415 439.988,-103.873"/>
<polygon fill="#9a32cd" stroke="#9a32cd" points="107.417,-79.745 97.7006,-83.9677 107.93,-86.7262 107.417,-79.745"/>
<text text-anchor="middle" x="244" y="-83" font-family="Helvetica,sans-Serif" font-size="10.00"> write_reqs</text>
</g>
<!-- Node6&#45;&gt;Node7 -->
<g id="edge18" class="edge"><title>Node6&#45;&gt;Node7</title>
<path fill="none" stroke="#9a32cd" stroke-dasharray="5,2" d="M107.815,-97.0484C133.843,-101.053 164.26,-105.732 189.738,-109.652"/>
<polygon fill="#9a32cd" stroke="#9a32cd" points="108.12,-93.5542 97.7037,-95.4929 107.055,-100.473 108.12,-93.5542"/>
<text text-anchor="middle" x="141" y="-109" font-family="Helvetica,sans-Serif" font-size="10.00"> write_reqs</text>
</g>
<!-- Node7&#45;&gt;Node5 -->
<g id="edge14" class="edge"><title>Node7&#45;&gt;Node5</title>
<path fill="none" stroke="orange" stroke-dasharray="5,2" d="M308.349,-118C349.11,-118 401.227,-118 439.86,-118"/>
<polygon fill="orange" stroke="orange" points="308.246,-114.5 298.246,-118 308.246,-121.5 308.246,-114.5"/>
<text text-anchor="middle" x="369" y="-122" font-family="Helvetica,sans-Serif" font-size="10.00"> &lt; block_type &gt;</text>
</g>
</g>
</svg>
