<?xml version="1.0" encoding="UTF-8" standalone="no"?>
<!DOCTYPE svg PUBLIC "-//W3C//DTD SVG 1.1//EN"
 "http://www.w3.org/Graphics/SVG/1.1/DTD/svg11.dtd">
<!-- Generated by graphviz version 2.38.0 (20140413.2041)
 -->
<!-- Title: stxxl::vector&lt; ValueType, PageSize, PagerType, BlockSize, AllocStr, SizeType &gt; Pages: 1 -->
<svg width="1519pt" height="371pt"
 viewBox="0.00 0.00 1519.00 371.46" xmlns="http://www.w3.org/2000/svg" xmlns:xlink="http://www.w3.org/1999/xlink">
<g id="graph0" class="graph" transform="scale(1 1) rotate(0) translate(4 367.458)">
<title>stxxl::vector&lt; ValueType, PageSize, PagerType, BlockSize, AllocStr, SizeType &gt;</title>
<!-- Node1 -->
<g id="node1" class="node"><title>Node1</title>
<polygon fill="#bfbfbf" stroke="black" points="1343,-168 1343,-209 1511,-209 1511,-168 1343,-168"/>
<text text-anchor="start" x="1351" y="-197" font-family="Helvetica,sans-Serif" font-size="10.00">stxxl::vector&lt; ValueType,</text>
<text text-anchor="start" x="1351" y="-186" font-family="Helvetica,sans-Serif" font-size="10.00"> PageSize, PagerType, BlockSize,</text>
<text text-anchor="middle" x="1427" y="-175" font-family="Helvetica,sans-Serif" font-size="10.00"> AllocStr, SizeType &gt;</text>
</g>
<!-- Node2 -->
<g id="node2" class="node"><title>Node2</title>
<g id="a_node2"><a xlink:href="classstxxl_1_1file.html" target="_top" xlink:title="Defines interface of file. ">
<polygon fill="none" stroke="black" points="767,-38 767,-57 823,-57 823,-38 767,-38"/>
<text text-anchor="middle" x="795" y="-45" font-family="Helvetica,sans-Serif" font-size="10.00">stxxl::file</text>
</a>
</g>
</g>
<!-- Node2&#45;&gt;Node1 -->
<g id="edge1" class="edge"><title>Node2&#45;&gt;Node1</title>
<path fill="none" stroke="#9a32cd" stroke-dasharray="5,2" d="M833.429,-47.3627C915.236,-48.1146 1115.2,-55.7108 1272,-108.5 1316.26,-123.4 1363.38,-149.584 1393.67,-167.926"/>
<polygon fill="#9a32cd" stroke="#9a32cd" points="833.16,-43.8611 823.139,-47.2993 833.117,-50.8609 833.16,-43.8611"/>
<text text-anchor="middle" x="1051.5" y="-69.5" font-family="Helvetica,sans-Serif" font-size="10.00"> m_from</text>
</g>
<!-- Node8 -->
<g id="node8" class="node"><title>Node8</title>
<g id="a_node8"><a xlink:href="classstxxl_1_1block__manager.html" target="_top" xlink:title="Block manager class. ">
<polygon fill="none" stroke="black" points="1133,-118 1133,-137 1243,-137 1243,-118 1133,-118"/>
<text text-anchor="middle" x="1188" y="-125" font-family="Helvetica,sans-Serif" font-size="10.00">stxxl::block_manager</text>
</a>
</g>
</g>
<!-- Node2&#45;&gt;Node8 -->
<g id="edge13" class="edge"><title>Node2&#45;&gt;Node8</title>
<path fill="none" stroke="#9a32cd" stroke-dasharray="5,2" d="M833.133,-54.1867C846.923,-56.7197 862.689,-59.6749 877,-62.5 972.085,-81.27 1083.18,-105.005 1143.17,-117.971"/>
<polygon fill="#9a32cd" stroke="#9a32cd" points="833.497,-50.6952 823.03,-52.3411 832.239,-57.5813 833.497,-50.6952"/>
<text text-anchor="middle" x="947" y="-90.5" font-family="Helvetica,sans-Serif" font-size="10.00"> disk_files</text>
</g>
<!-- Node11 -->
<g id="node11" class="node"><title>Node11</title>
<g id="a_node11"><a xlink:href="classstxxl_1_1disk__allocator.html" target="_top" xlink:title="stxxl::disk_allocator">
<polygon fill="none" stroke="black" points="895,-109 895,-128 999,-128 999,-109 895,-109"/>
<text text-anchor="middle" x="947" y="-116" font-family="Helvetica,sans-Serif" font-size="10.00">stxxl::disk_allocator</text>
</a>
</g>
</g>
<!-- Node2&#45;&gt;Node11 -->
<g id="edge16" class="edge"><title>Node2&#45;&gt;Node11</title>
<path fill="none" stroke="#9a32cd" stroke-dasharray="5,2" d="M830.011,-60.9372C844.616,-66.9225 861.787,-74.2485 877,-81.5 895.16,-90.1563 915.384,-101.17 929.216,-108.923"/>
<polygon fill="#9a32cd" stroke="#9a32cd" points="830.948,-57.5404 820.366,-57.0252 828.317,-64.0272 830.948,-57.5404"/>
<text text-anchor="middle" x="859" y="-84.5" font-family="Helvetica,sans-Serif" font-size="10.00"> storage</text>
</g>
<!-- Node3 -->
<g id="node3" class="node"><title>Node3</title>
<g id="a_node3"><a xlink:href="classstxxl_1_1noncopyable.html" target="_top" xlink:title="stxxl::noncopyable">
<polygon fill="none" stroke="black" points="11,-199 11,-218 109,-218 109,-199 11,-199"/>
<text text-anchor="middle" x="60" y="-206" font-family="Helvetica,sans-Serif" font-size="10.00">stxxl::noncopyable</text>
</a>
</g>
</g>
<!-- Node3&#45;&gt;Node2 -->
<g id="edge2" class="edge"><title>Node3&#45;&gt;Node2</title>
<path fill="none" stroke="#8b1a1a" d="M71.8743,-190.419C84.8915,-170.564 108.655,-139.511 138,-124.5 194.914,-95.3853 650.449,-58.5659 766.946,-49.5572"/>
<polygon fill="#8b1a1a" stroke="#8b1a1a" points="68.8978,-188.577 66.5187,-198.902 74.8169,-192.314 68.8978,-188.577"/>
</g>
<!-- Node5 -->
<g id="node5" class="node"><title>Node5</title>
<g id="a_node5"><a xlink:href="classstxxl_1_1mutex.html" target="_top" xlink:title="stxxl::mutex">
<polygon fill="none" stroke="black" points="286.5,-53 286.5,-72 357.5,-72 357.5,-53 286.5,-53"/>
<text text-anchor="middle" x="322" y="-60" font-family="Helvetica,sans-Serif" font-size="10.00">stxxl::mutex</text>
</a>
</g>
</g>
<!-- Node3&#45;&gt;Node5 -->
<g id="edge5" class="edge"><title>Node3&#45;&gt;Node5</title>
<path fill="none" stroke="#8b1a1a" d="M67.2725,-189.094C77.3595,-161.292 100.002,-110.807 138,-86.5 183.078,-57.6642 247.219,-56.2368 286.369,-58.7296"/>
<polygon fill="#8b1a1a" stroke="#8b1a1a" points="63.8589,-188.257 63.9127,-198.852 70.4776,-190.536 63.8589,-188.257"/>
</g>
<!-- Node9 -->
<g id="node9" class="node"><title>Node9</title>
<g id="a_node9"><a xlink:href="classstxxl_1_1singleton.html" target="_top" xlink:title="stxxl::singleton\&lt; block\l_manager \&gt;">
<polygon fill="none" stroke="black" points="550,-167.5 550,-197.5 665,-197.5 665,-167.5 550,-167.5"/>
<text text-anchor="start" x="558" y="-185.5" font-family="Helvetica,sans-Serif" font-size="10.00">stxxl::singleton&lt; block</text>
<text text-anchor="middle" x="607.5" y="-174.5" font-family="Helvetica,sans-Serif" font-size="10.00">_manager &gt;</text>
</a>
</g>
</g>
<!-- Node3&#45;&gt;Node9 -->
<g id="edge10" class="edge"><title>Node3&#45;&gt;Node9</title>
<path fill="none" stroke="#8b1a1a" d="M119.261,-211.188C208.548,-214.398 384.4,-217.119 532,-197.5 537.755,-196.735 543.732,-195.79 549.685,-194.749"/>
<polygon fill="#8b1a1a" stroke="#8b1a1a" points="119.194,-207.684 109.07,-210.806 118.932,-214.679 119.194,-207.684"/>
</g>
<!-- Node10 -->
<g id="node10" class="node"><title>Node10</title>
<g id="a_node10"><a xlink:href="classstxxl_1_1singleton.html" target="_top" xlink:title="stxxl::singleton\&lt; INSTANCE,\l destroy_on_exit \&gt;">
<polygon fill="none" stroke="black" points="249,-167.5 249,-197.5 395,-197.5 395,-167.5 249,-167.5"/>
<text text-anchor="start" x="257" y="-185.5" font-family="Helvetica,sans-Serif" font-size="10.00">stxxl::singleton&lt; INSTANCE,</text>
<text text-anchor="middle" x="322" y="-174.5" font-family="Helvetica,sans-Serif" font-size="10.00"> destroy_on_exit &gt;</text>
</a>
</g>
</g>
<!-- Node3&#45;&gt;Node10 -->
<g id="edge12" class="edge"><title>Node3&#45;&gt;Node10</title>
<path fill="none" stroke="#8b1a1a" d="M119.265,-202.673C157.598,-198.84 208.044,-193.796 248.901,-189.71"/>
<polygon fill="#8b1a1a" stroke="#8b1a1a" points="118.897,-199.193 109.295,-203.671 119.593,-206.158 118.897,-199.193"/>
</g>
<!-- Node3&#45;&gt;Node11 -->
<g id="edge15" class="edge"><title>Node3&#45;&gt;Node11</title>
<path fill="none" stroke="#8b1a1a" d="M91.1464,-194.821C138.878,-174.447 235.244,-138.5 321,-138.5 321,-138.5 321,-138.5 796,-138.5 830.679,-138.5 869.476,-133.183 898.924,-128.031"/>
<polygon fill="#8b1a1a" stroke="#8b1a1a" points="89.4992,-191.72 81.7205,-198.914 92.2872,-198.141 89.4992,-191.72"/>
</g>
<!-- Node13 -->
<g id="node13" class="node"><title>Node13</title>
<g id="a_node13"><a xlink:href="classstxxl_1_1simple__vector.html" target="_top" xlink:title="stxxl::simple_vector\l\&lt; stxxl::typed_block \&gt;">
<polygon fill="none" stroke="black" points="550.5,-249.5 550.5,-279.5 664.5,-279.5 664.5,-249.5 550.5,-249.5"/>
<text text-anchor="start" x="558.5" y="-267.5" font-family="Helvetica,sans-Serif" font-size="10.00">stxxl::simple_vector</text>
<text text-anchor="middle" x="607.5" y="-256.5" font-family="Helvetica,sans-Serif" font-size="10.00">&lt; stxxl::typed_block &gt;</text>
</a>
</g>
</g>
<!-- Node3&#45;&gt;Node13 -->
<g id="edge20" class="edge"><title>Node3&#45;&gt;Node13</title>
<path fill="none" stroke="#8b1a1a" d="M104.254,-220.485C115.194,-223.153 126.969,-225.716 138,-227.5 285.595,-251.374 461.946,-260.028 550.257,-263.018"/>
<polygon fill="#8b1a1a" stroke="#8b1a1a" points="105.04,-217.074 94.4884,-218.025 103.33,-223.862 105.04,-217.074"/>
</g>
<!-- Node14 -->
<g id="node14" class="node"><title>Node14</title>
<g id="a_node14"><a xlink:href="classstxxl_1_1simple__vector.html" target="_top" xlink:title="Simpler non&#45;growing vector without initialization. ">
<polygon fill="none" stroke="black" points="270,-293.5 270,-323.5 374,-323.5 374,-293.5 270,-293.5"/>
<text text-anchor="start" x="278" y="-311.5" font-family="Helvetica,sans-Serif" font-size="10.00">stxxl::simple_vector</text>
<text text-anchor="middle" x="322" y="-300.5" font-family="Helvetica,sans-Serif" font-size="10.00">&lt; ValueType &gt;</text>
</a>
</g>
</g>
<!-- Node3&#45;&gt;Node14 -->
<g id="edge22" class="edge"><title>Node3&#45;&gt;Node14</title>
<path fill="none" stroke="#8b1a1a" d="M74.8092,-225.839C88.8763,-242.209 112.235,-266.049 138,-278.5 179.452,-298.532 231.696,-305.545 269.74,-307.833"/>
<polygon fill="#8b1a1a" stroke="#8b1a1a" points="77.4229,-223.508 68.3364,-218.06 72.0419,-227.985 77.4229,-223.508"/>
</g>
<!-- Node15 -->
<g id="node15" class="node"><title>Node15</title>
<g id="a_node15"><a xlink:href="classstxxl_1_1simple__vector.html" target="_top" xlink:title="stxxl::simple_vector\l\&lt; int_type \&gt;">
<polygon fill="none" stroke="black" points="555.5,-316.5 555.5,-346.5 659.5,-346.5 659.5,-316.5 555.5,-316.5"/>
<text text-anchor="start" x="563.5" y="-334.5" font-family="Helvetica,sans-Serif" font-size="10.00">stxxl::simple_vector</text>
<text text-anchor="middle" x="607.5" y="-323.5" font-family="Helvetica,sans-Serif" font-size="10.00">&lt; int_type &gt;</text>
</a>
</g>
</g>
<!-- Node3&#45;&gt;Node15 -->
<g id="edge24" class="edge"><title>Node3&#45;&gt;Node15</title>
<path fill="none" stroke="#8b1a1a" d="M70.645,-227.029C83.1527,-249.175 107.079,-285.714 138,-305.5 268.544,-389.032 463.806,-362.767 555.495,-343.766"/>
<polygon fill="#8b1a1a" stroke="#8b1a1a" points="73.7158,-225.35 65.8568,-218.244 67.5695,-228.7 73.7158,-225.35"/>
</g>
<!-- Node4 -->
<g id="node4" class="node"><title>Node4</title>
<g id="a_node4"><a xlink:href="classstxxl_1_1atomic__counted__object.html" target="_top" xlink:title="Provides reference counting abilities for use with counting_ptr with mutex locking. ">
<polygon fill="none" stroke="black" points="551,-3.5 551,-33.5 664,-33.5 664,-3.5 551,-3.5"/>
<text text-anchor="start" x="559" y="-21.5" font-family="Helvetica,sans-Serif" font-size="10.00">stxxl::atomic_counted</text>
<text text-anchor="middle" x="607.5" y="-10.5" font-family="Helvetica,sans-Serif" font-size="10.00">_object</text>
</a>
</g>
</g>
<!-- Node4&#45;&gt;Node2 -->
<g id="edge3" class="edge"><title>Node4&#45;&gt;Node2</title>
<path fill="none" stroke="#9a32cd" stroke-dasharray="5,2" d="M673.997,-26.194C697.695,-29.2842 724.617,-33.15 749,-37.5 754.83,-38.5401 761.05,-39.8145 766.947,-41.1008"/>
<polygon fill="#9a32cd" stroke="#9a32cd" points="674.419,-22.7195 664.055,-24.9179 673.528,-29.6626 674.419,-22.7195"/>
<text text-anchor="middle" x="716" y="-40.5" font-family="Helvetica,sans-Serif" font-size="10.00"> m_request_ref</text>
</g>
<!-- Node5&#45;&gt;Node4 -->
<g id="edge4" class="edge"><title>Node5&#45;&gt;Node4</title>
<path fill="none" stroke="#9a32cd" stroke-dasharray="5,2" d="M367.867,-55.5365C417.473,-47.8376 497.432,-35.4277 550.954,-27.1208"/>
<polygon fill="#9a32cd" stroke="#9a32cd" points="367.108,-52.1124 357.763,-57.1047 368.181,-59.0296 367.108,-52.1124"/>
<text text-anchor="middle" x="472.5" y="-51.5" font-family="Helvetica,sans-Serif" font-size="10.00"> m_reference_count_mutex</text>
</g>
<!-- Node5&#45;&gt;Node11 -->
<g id="edge17" class="edge"><title>Node5&#45;&gt;Node11</title>
<path fill="none" stroke="#9a32cd" stroke-dasharray="5,2" d="M367.844,-66.5309C480.565,-76.6632 775.238,-103.151 894.641,-113.883"/>
<polygon fill="#9a32cd" stroke="#9a32cd" points="368.103,-63.0402 357.83,-65.6308 367.477,-70.0121 368.103,-63.0402"/>
<text text-anchor="middle" x="716" y="-104.5" font-family="Helvetica,sans-Serif" font-size="10.00"> mutex</text>
</g>
<!-- Node6 -->
<g id="node6" class="node"><title>Node6</title>
<g id="a_node6"><a xlink:href="structstxxl_1_1choose__int__types.html" target="_top" xlink:title="stxxl::choose_int_types\l\&lt; my_pointer_size \&gt;">
<polygon fill="none" stroke="black" points="262,-0.5 262,-30.5 382,-30.5 382,-0.5 262,-0.5"/>
<text text-anchor="start" x="270" y="-18.5" font-family="Helvetica,sans-Serif" font-size="10.00">stxxl::choose_int_types</text>
<text text-anchor="middle" x="322" y="-7.5" font-family="Helvetica,sans-Serif" font-size="10.00">&lt; my_pointer_size &gt;</text>
</a>
</g>
</g>
<!-- Node6&#45;&gt;Node4 -->
<g id="edge6" class="edge"><title>Node6&#45;&gt;Node4</title>
<path fill="none" stroke="#9a32cd" stroke-dasharray="5,2" d="M392.098,-15.4483C432.82,-15.5133 485.343,-15.7622 532,-16.5 538.08,-16.5962 544.439,-16.7244 550.77,-16.8697"/>
<polygon fill="#9a32cd" stroke="#9a32cd" points="392.015,-11.9483 382.011,-15.4356 392.006,-18.9483 392.015,-11.9483"/>
<text text-anchor="middle" x="472.5" y="-19.5" font-family="Helvetica,sans-Serif" font-size="10.00"> m_reference_count</text>
</g>
<!-- Node7 -->
<g id="node7" class="node"><title>Node7</title>
<g id="a_node7"><a xlink:href="structstxxl_1_1choose__int__types.html" target="_top" xlink:title="stxxl::choose_int_types\l\&lt; PtrSize \&gt;">
<polygon fill="none" stroke="black" points="0,-0.5 0,-30.5 120,-30.5 120,-0.5 0,-0.5"/>
<text text-anchor="start" x="8" y="-18.5" font-family="Helvetica,sans-Serif" font-size="10.00">stxxl::choose_int_types</text>
<text text-anchor="middle" x="60" y="-7.5" font-family="Helvetica,sans-Serif" font-size="10.00">&lt; PtrSize &gt;</text>
</a>
</g>
</g>
<!-- Node7&#45;&gt;Node6 -->
<g id="edge7" class="edge"><title>Node7&#45;&gt;Node6</title>
<path fill="none" stroke="orange" stroke-dasharray="5,2" d="M130.515,-15.5C171.531,-15.5 222.884,-15.5 261.931,-15.5"/>
<polygon fill="orange" stroke="orange" points="130.323,-12.0001 120.323,-15.5 130.323,-19.0001 130.323,-12.0001"/>
<text text-anchor="middle" x="184.5" y="-18.5" font-family="Helvetica,sans-Serif" font-size="10.00"> &lt; my_pointer_size &gt;</text>
</g>
<!-- Node8&#45;&gt;Node1 -->
<g id="edge8" class="edge"><title>Node8&#45;&gt;Node1</title>
<path fill="none" stroke="#9a32cd" stroke-dasharray="5,2" d="M1235.83,-139.554C1267.25,-147.641 1309.44,-158.499 1346.09,-167.933"/>
<polygon fill="#9a32cd" stroke="#9a32cd" points="1236.59,-136.134 1226.03,-137.031 1234.84,-142.913 1236.59,-136.134"/>
<text text-anchor="middle" x="1307.5" y="-165.5" font-family="Helvetica,sans-Serif" font-size="10.00"> m_bm</text>
</g>
<!-- Node9&#45;&gt;Node8 -->
<g id="edge9" class="edge"><title>Node9&#45;&gt;Node8</title>
<path fill="none" stroke="midnightblue" d="M675.194,-177.097C767.552,-169.477 939.579,-154.788 1086,-139.5 1101.19,-137.914 1117.65,-136.03 1132.78,-134.23"/>
<polygon fill="midnightblue" stroke="midnightblue" points="674.828,-173.615 665.149,-177.923 675.402,-180.591 674.828,-173.615"/>
</g>
<!-- Node10&#45;&gt;Node9 -->
<g id="edge11" class="edge"><title>Node10&#45;&gt;Node9</title>
<path fill="none" stroke="orange" stroke-dasharray="5,2" d="M405.283,-182.5C451.565,-182.5 508.178,-182.5 549.55,-182.5"/>
<polygon fill="orange" stroke="orange" points="405.273,-179 395.273,-182.5 405.273,-186 405.273,-179"/>
<text text-anchor="middle" x="472.5" y="-185.5" font-family="Helvetica,sans-Serif" font-size="10.00"> &lt; block_manager &gt;</text>
</g>
<!-- Node11&#45;&gt;Node8 -->
<g id="edge14" class="edge"><title>Node11&#45;&gt;Node8</title>
<path fill="none" stroke="#9a32cd" stroke-dasharray="5,2" d="M1009.73,-120.825C1047.85,-122.26 1096.3,-124.084 1132.91,-125.463"/>
<polygon fill="#9a32cd" stroke="#9a32cd" points="1009.4,-117.31 999.271,-120.431 1009.13,-124.305 1009.4,-117.31"/>
<text text-anchor="middle" x="1051.5" y="-127.5" font-family="Helvetica,sans-Serif" font-size="10.00"> disk_allocators</text>
</g>
<!-- Node12 -->
<g id="node12" class="node"><title>Node12</title>
<g id="a_node12"><a xlink:href="classstxxl_1_1vector_1_1bid__vector.html" target="_top" xlink:title="stxxl::vector\&lt; ValueType,\l PageSize, PagerType, BlockSize,\l AllocStr, SizeType \&gt;::bid_vector">
<polygon fill="none" stroke="black" points="1104,-168 1104,-209 1272,-209 1272,-168 1104,-168"/>
<text text-anchor="start" x="1112" y="-197" font-family="Helvetica,sans-Serif" font-size="10.00">stxxl::vector&lt; ValueType,</text>
<text text-anchor="start" x="1112" y="-186" font-family="Helvetica,sans-Serif" font-size="10.00"> PageSize, PagerType, BlockSize,</text>
<text text-anchor="middle" x="1188" y="-175" font-family="Helvetica,sans-Serif" font-size="10.00"> AllocStr, SizeType &gt;::bid_vector</text>
</a>
</g>
</g>
<!-- Node12&#45;&gt;Node1 -->
<g id="edge18" class="edge"><title>Node12&#45;&gt;Node1</title>
<path fill="none" stroke="#9a32cd" stroke-dasharray="5,2" d="M1282.28,-188.5C1302.32,-188.5 1323.36,-188.5 1342.98,-188.5"/>
<polygon fill="#9a32cd" stroke="#9a32cd" points="1282.22,-185 1272.22,-188.5 1282.22,-192 1282.22,-185"/>
<text text-anchor="middle" x="1307.5" y="-191.5" font-family="Helvetica,sans-Serif" font-size="10.00"> m_bids</text>
</g>
<!-- Node13&#45;&gt;Node1 -->
<g id="edge19" class="edge"><title>Node13&#45;&gt;Node1</title>
<path fill="none" stroke="#9a32cd" stroke-dasharray="5,2" d="M674.96,-254.911C710.246,-250.616 754.391,-246.5 794,-246.5 794,-246.5 794,-246.5 1189,-246.5 1253.81,-246.5 1325.81,-225.783 1373.25,-209.112"/>
<polygon fill="#9a32cd" stroke="#9a32cd" points="674.271,-251.47 664.783,-256.185 675.14,-258.416 674.271,-251.47"/>
<text text-anchor="middle" x="947" y="-249.5" font-family="Helvetica,sans-Serif" font-size="10.00"> m_cache</text>
</g>
<!-- Node14&#45;&gt;Node13 -->
<g id="edge21" class="edge"><title>Node14&#45;&gt;Node13</title>
<path fill="none" stroke="orange" stroke-dasharray="5,2" d="M383.903,-299.048C433.176,-291.4 502.027,-280.714 550.064,-273.259"/>
<polygon fill="orange" stroke="orange" points="383.356,-295.591 374.012,-300.583 384.43,-302.508 383.356,-295.591"/>
<text text-anchor="middle" x="472.5" y="-297.5" font-family="Helvetica,sans-Serif" font-size="10.00"> &lt; stxxl::typed_block &gt;</text>
</g>
<!-- Node14&#45;&gt;Node15 -->
<g id="edge25" class="edge"><title>Node14&#45;&gt;Node15</title>
<path fill="none" stroke="orange" stroke-dasharray="5,2" d="M384.264,-313.47C435.378,-317.617 507.374,-323.458 555.421,-327.356"/>
<polygon fill="orange" stroke="orange" points="384.262,-309.959 374.012,-312.639 383.696,-316.936 384.262,-309.959"/>
<text text-anchor="middle" x="472.5" y="-328.5" font-family="Helvetica,sans-Serif" font-size="10.00"> &lt; int_type &gt;</text>
</g>
<!-- Node15&#45;&gt;Node1 -->
<g id="edge23" class="edge"><title>Node15&#45;&gt;Node1</title>
<path fill="none" stroke="#9a32cd" stroke-dasharray="5,2" d="M669.908,-322.535C705.969,-318.023 752.477,-313.5 794,-313.5 794,-313.5 794,-313.5 1189,-313.5 1277.38,-313.5 1365.12,-244.645 1404.49,-209.141"/>
<polygon fill="#9a32cd" stroke="#9a32cd" points="669.022,-319.12 659.549,-323.866 669.914,-326.063 669.022,-319.12"/>
<text text-anchor="middle" x="947" y="-316.5" font-family="Helvetica,sans-Serif" font-size="10.00"> m_slot_to_page</text>
</g>
</g>
</svg>
