<?xml version="1.0" encoding="UTF-8" standalone="no"?>
<!DOCTYPE svg PUBLIC "-//W3C//DTD SVG 1.1//EN"
 "http://www.w3.org/Graphics/SVG/1.1/DTD/svg11.dtd">
<!-- Generated by graphviz version 2.26.3 (20100126.1600)
 -->
<!-- Title: stxxl::atomic_counted_object Pages: 1 -->
<svg width="292pt" height="216pt"
 viewBox="0.00 0.00 292.00 216.00" xmlns="http://www.w3.org/2000/svg" xmlns:xlink="http://www.w3.org/1999/xlink">
<g id="graph1" class="graph" transform="scale(1 1) rotate(0) translate(4 212)">
<title>stxxl::atomic_counted_object</title>
<!-- Node1 -->
<g id="node1" class="node"><title>Node1</title>
<polygon fill="#bfbfbf" stroke="black" points="63.5,-1 63.5,-35 176.5,-35 176.5,-1 63.5,-1"/>
<text text-anchor="start" x="71.5" y="-22" font-family="Helvetica,sans-Serif" font-size="10.00">stxxl::atomic_counted</text>
<text text-anchor="middle" x="120" y="-9" font-family="Helvetica,sans-Serif" font-size="10.00">_object</text>
</g>
<!-- Node2 -->
<g id="node2" class="node"><title>Node2</title>
<a xlink:href="classstxxl_1_1mutex.html" target="_top" xlink:title="stxxl::mutex">
<polygon fill="none" stroke="black" points="13.5,-93.5 13.5,-114.5 84.5,-114.5 84.5,-93.5 13.5,-93.5"/>
<text text-anchor="middle" x="49" y="-101.5" font-family="Helvetica,sans-Serif" font-size="10.00">stxxl::mutex</text>
</a>
</g>
<!-- Node2&#45;&gt;Node1 -->
<g id="edge2" class="edge"><title>Node2&#45;&gt;Node1</title>
<path fill="none" stroke="#9a32cd" stroke-dasharray="5,2" d="M44.7917,-83.2225C43.96,-73.6592 44.6567,-62.5628 50,-54 54.8472,-46.2323 61.952,-40.0646 69.8006,-35.1914"/>
<polygon fill="#9a32cd" stroke="#9a32cd" points="41.3312,-83.7489 46.2138,-93.1516 48.2605,-82.7564 41.3312,-83.7489"/>
<text text-anchor="middle" x="109.5" y="-58.5" font-family="Helvetica,sans-Serif" font-size="10.00"> m_reference_count_mutex</text>
</g>
<!-- Node3 -->
<g id="node4" class="node"><title>Node3</title>
<a xlink:href="classstxxl_1_1noncopyable.html" target="_top" xlink:title="stxxl::noncopyable">
<polygon fill="none" stroke="black" points="0,-179.5 0,-200.5 98,-200.5 98,-179.5 0,-179.5"/>
<text text-anchor="middle" x="49" y="-187.5" font-family="Helvetica,sans-Serif" font-size="10.00">stxxl::noncopyable</text>
</a>
</g>
<!-- Node3&#45;&gt;Node2 -->
<g id="edge4" class="edge"><title>Node3&#45;&gt;Node2</title>
<path fill="none" stroke="#8b1a1a" d="M49,-169.256C49,-152.026 49,-128.215 49,-114.632"/>
<polygon fill="#8b1a1a" stroke="#8b1a1a" points="45.5001,-169.455 49,-179.455 52.5001,-169.455 45.5001,-169.455"/>
</g>
<!-- Node4 -->
<g id="node6" class="node"><title>Node4</title>
<a xlink:href="structstxxl_1_1choose__int__types.html" target="_top" xlink:title="stxxl::choose_int_types\l\&lt; my_pointer_size \&gt;">
<polygon fill="none" stroke="black" points="131,-87 131,-121 251,-121 251,-87 131,-87"/>
<text text-anchor="start" x="139" y="-108" font-family="Helvetica,sans-Serif" font-size="10.00">stxxl::choose_int_types</text>
<text text-anchor="middle" x="191" y="-95" font-family="Helvetica,sans-Serif" font-size="10.00">&lt; my_pointer_size &gt;</text>
</a>
</g>
<!-- Node4&#45;&gt;Node1 -->
<g id="edge6" class="edge"><title>Node4&#45;&gt;Node1</title>
<path fill="none" stroke="#9a32cd" stroke-dasharray="5,2" d="M182.248,-77.2212C178.874,-69.2559 174.483,-60.8383 169,-54 163.321,-46.9173 155.928,-40.5306 148.613,-35.1715"/>
<polygon fill="#9a32cd" stroke="#9a32cd" points="178.993,-78.51 185.863,-86.5763 185.523,-75.9869 178.993,-78.51"/>
<text text-anchor="middle" x="220.5" y="-58.5" font-family="Helvetica,sans-Serif" font-size="10.00"> m_reference_count</text>
</g>
<!-- Node5 -->
<g id="node8" class="node"><title>Node5</title>
<a xlink:href="structstxxl_1_1choose__int__types.html" target="_top" xlink:title="stxxl::choose_int_types\l\&lt; PtrSize \&gt;">
<polygon fill="none" stroke="black" points="131,-173 131,-207 251,-207 251,-173 131,-173"/>
<text text-anchor="start" x="139" y="-194" font-family="Helvetica,sans-Serif" font-size="10.00">stxxl::choose_int_types</text>
<text text-anchor="middle" x="191" y="-181" font-family="Helvetica,sans-Serif" font-size="10.00">&lt; PtrSize &gt;</text>
</a>
</g>
<!-- Node5&#45;&gt;Node4 -->
<g id="edge8" class="edge"><title>Node5&#45;&gt;Node4</title>
<path fill="none" stroke="orange" stroke-dasharray="5,2" d="M191,-162.342C191,-148.774 191,-132.861 191,-121.084"/>
<polygon fill="orange" stroke="orange" points="187.5,-162.597 191,-172.597 194.5,-162.597 187.5,-162.597"/>
<text text-anchor="middle" x="237.5" y="-144.5" font-family="Helvetica,sans-Serif" font-size="10.00"> &lt; my_pointer_size &gt;</text>
</g>
</g>
</svg>
