<?xml version="1.0" encoding="UTF-8" standalone="no"?>
<!DOCTYPE svg PUBLIC "-//W3C//DTD SVG 1.1//EN"
 "http://www.w3.org/Graphics/SVG/1.1/DTD/svg11.dtd">
<!-- Generated by graphviz version 2.26.3 (20100126.1600)
 -->
<!-- Title: stxxl::ppq_local::external_array&lt; ValueType, BlockSize, AllocStrategy &gt; Pages: 1 -->
<svg width="1264pt" height="341pt"
 viewBox="0.00 0.00 1264.00 341.00" xmlns="http://www.w3.org/2000/svg" xmlns:xlink="http://www.w3.org/1999/xlink">
<g id="graph1" class="graph" transform="scale(1 1) rotate(0) translate(4 337)">
<title>stxxl::ppq_local::external_array&lt; ValueType, BlockSize, AllocStrategy &gt;</title>
<!-- Node1 -->
<g id="node1" class="node"><title>Node1</title>
<polygon fill="#bfbfbf" stroke="black" points="1104,-120.5 1104,-167.5 1256,-167.5 1256,-120.5 1104,-120.5"/>
<text text-anchor="start" x="1112" y="-154.5" font-family="Helvetica,sans-Serif" font-size="10.00">stxxl::ppq_local::external</text>
<text text-anchor="start" x="1112" y="-141.5" font-family="Helvetica,sans-Serif" font-size="10.00">_array&lt; ValueType, BlockSize,</text>
<text text-anchor="middle" x="1180" y="-128.5" font-family="Helvetica,sans-Serif" font-size="10.00"> AllocStrategy &gt;</text>
</g>
<!-- Node2 -->
<g id="node2" class="node"><title>Node2</title>
<a xlink:href="classstxxl_1_1noncopyable.html" target="_top" xlink:title="stxxl::noncopyable">
<polygon fill="none" stroke="black" points="307,-87.5 307,-108.5 405,-108.5 405,-87.5 307,-87.5"/>
<text text-anchor="middle" x="356" y="-95.5" font-family="Helvetica,sans-Serif" font-size="10.00">stxxl::noncopyable</text>
</a>
</g>
<!-- Node2&#45;&gt;Node1 -->
<g id="edge2" class="edge"><title>Node2&#45;&gt;Node1</title>
<path fill="none" stroke="#8b1a1a" d="M377.992,-81.107C416.749,-53.0752 500.73,-0 581,-0 581,-0 581,-0 976,-0 1058.37,-0 1130.84,-79.3213 1162.74,-120.221"/>
<polygon fill="#8b1a1a" stroke="#8b1a1a" points="375.534,-78.5707 369.568,-87.3257 379.692,-84.2025 375.534,-78.5707"/>
</g>
<!-- Node5 -->
<g id="node8" class="node"><title>Node5</title>
<a xlink:href="classstxxl_1_1read__write__pool.html" target="_top" xlink:title="stxxl::read_write_pool\l\&lt; block_type \&gt;">
<polygon fill="none" stroke="black" points="920,-127 920,-161 1032,-161 1032,-127 920,-127"/>
<text text-anchor="start" x="928" y="-148" font-family="Helvetica,sans-Serif" font-size="10.00">stxxl::read_write_pool</text>
<text text-anchor="middle" x="976" y="-135" font-family="Helvetica,sans-Serif" font-size="10.00">&lt; block_type &gt;</text>
</a>
</g>
<!-- Node2&#45;&gt;Node5 -->
<g id="edge10" class="edge"><title>Node2&#45;&gt;Node5</title>
<path fill="none" stroke="#8b1a1a" d="M415.044,-108.81C421.437,-109.917 427.851,-111.001 434,-112 552.808,-131.301 581.948,-142.311 702,-151 790.657,-157.417 813.21,-155.19 902,-151 907.801,-150.726 913.848,-150.332 919.877,-149.869"/>
<polygon fill="#8b1a1a" stroke="#8b1a1a" points="415.51,-105.339 405.056,-107.06 414.302,-112.234 415.51,-105.339"/>
</g>
<!-- Node6 -->
<g id="node11" class="node"><title>Node6</title>
<a xlink:href="classstxxl_1_1prefetch__pool.html" target="_top" xlink:title="Implements dynamically resizable prefetching pool. ">
<polygon fill="none" stroke="black" points="530,-194 530,-228 632,-228 632,-194 530,-194"/>
<text text-anchor="start" x="538" y="-215" font-family="Helvetica,sans-Serif" font-size="10.00">stxxl::prefetch_pool</text>
<text text-anchor="middle" x="581" y="-202" font-family="Helvetica,sans-Serif" font-size="10.00">&lt; BlockType &gt;</text>
</a>
</g>
<!-- Node2&#45;&gt;Node6 -->
<g id="edge14" class="edge"><title>Node2&#45;&gt;Node6</title>
<path fill="none" stroke="#8b1a1a" d="M371.438,-116.557C385.982,-132.89 409.192,-156.165 434,-170 463.619,-186.518 500.369,-196.768 529.714,-202.888"/>
<polygon fill="#8b1a1a" stroke="#8b1a1a" points="373.854,-114 364.66,-108.735 368.564,-118.585 373.854,-114"/>
</g>
<!-- Node9 -->
<g id="node19" class="node"><title>Node9</title>
<a xlink:href="classstxxl_1_1write__pool.html" target="_top" xlink:title="Implements dynamically resizable buffered writing pool. ">
<polygon fill="none" stroke="black" points="534,-81 534,-115 628,-115 628,-81 534,-81"/>
<text text-anchor="start" x="542" y="-102" font-family="Helvetica,sans-Serif" font-size="10.00">stxxl::write_pool&lt;</text>
<text text-anchor="middle" x="581" y="-89" font-family="Helvetica,sans-Serif" font-size="10.00"> BlockType &gt;</text>
</a>
</g>
<!-- Node2&#45;&gt;Node9 -->
<g id="edge24" class="edge"><title>Node2&#45;&gt;Node9</title>
<path fill="none" stroke="#8b1a1a" d="M415.27,-98C452.339,-98 499.428,-98 533.931,-98"/>
<polygon fill="#8b1a1a" stroke="#8b1a1a" points="415.099,-94.5001 405.099,-98 415.099,-101.5 415.099,-94.5001"/>
</g>
<!-- Node10 -->
<g id="node22" class="node"><title>Node10</title>
<a xlink:href="classstxxl_1_1read__write__pool.html" target="_top" xlink:title="Implements dynamically resizable buffered writing and prefetched reading pool. ">
<polygon fill="none" stroke="black" points="702,-54 702,-88 814,-88 814,-54 702,-54"/>
<text text-anchor="start" x="710" y="-75" font-family="Helvetica,sans-Serif" font-size="10.00">stxxl::read_write_pool</text>
<text text-anchor="middle" x="758" y="-62" font-family="Helvetica,sans-Serif" font-size="10.00">&lt; BlockType &gt;</text>
</a>
</g>
<!-- Node2&#45;&gt;Node10 -->
<g id="edge28" class="edge"><title>Node2&#45;&gt;Node10</title>
<path fill="none" stroke="#8b1a1a" d="M415.191,-86.9927C480.758,-75.9807 589.686,-61.1827 684,-65 689.795,-65.2346 695.84,-65.5721 701.867,-65.9691"/>
<polygon fill="#8b1a1a" stroke="#8b1a1a" points="414.317,-83.5911 405.049,-88.7241 415.495,-90.4913 414.317,-83.5911"/>
</g>
<!-- Node3 -->
<g id="node4" class="node"><title>Node3</title>
<a xlink:href="structstxxl_1_1choose__int__types.html" target="_top" xlink:title="stxxl::choose_int_types\l\&lt; my_pointer_size \&gt;">
<polygon fill="none" stroke="black" points="296,-261 296,-295 416,-295 416,-261 296,-261"/>
<text text-anchor="start" x="304" y="-282" font-family="Helvetica,sans-Serif" font-size="10.00">stxxl::choose_int_types</text>
<text text-anchor="middle" x="356" y="-269" font-family="Helvetica,sans-Serif" font-size="10.00">&lt; my_pointer_size &gt;</text>
</a>
</g>
<!-- Node3&#45;&gt;Node1 -->
<g id="edge4" class="edge"><title>Node3&#45;&gt;Node1</title>
<path fill="none" stroke="#9a32cd" stroke-dasharray="5,2" d="M426.263,-279.418C470.636,-280.194 529.173,-281 581,-281 581,-281 581,-281 976,-281 1056.42,-281 1129.01,-206.721 1161.7,-167.551"/>
<polygon fill="#9a32cd" stroke="#9a32cd" points="426.222,-275.917 416.161,-279.238 426.097,-282.916 426.222,-275.917"/>
<text text-anchor="middle" x="758" y="-324" font-family="Helvetica,sans-Serif" font-size="10.00"> m_num_blocks</text>
<text text-anchor="middle" x="758" y="-311" font-family="Helvetica,sans-Serif" font-size="10.00">m_old_unhinted_block</text>
<text text-anchor="middle" x="758" y="-298" font-family="Helvetica,sans-Serif" font-size="10.00">m_unhinted_block</text>
<text text-anchor="middle" x="758" y="-285" font-family="Helvetica,sans-Serif" font-size="10.00">m_level</text>
</g>
<!-- Node3&#45;&gt;Node6 -->
<g id="edge16" class="edge"><title>Node3&#45;&gt;Node6</title>
<path fill="none" stroke="#9a32cd" stroke-dasharray="5,2" d="M420.76,-257.998C425.239,-256.638 429.685,-255.295 434,-254 452.019,-248.593 495.029,-236.026 529.899,-225.866"/>
<polygon fill="#9a32cd" stroke="#9a32cd" points="419.488,-254.727 410.943,-260.99 421.529,-261.423 419.488,-254.727"/>
<text text-anchor="middle" x="473" y="-258" font-family="Helvetica,sans-Serif" font-size="10.00"> free_blocks_size</text>
</g>
<!-- Node4 -->
<g id="node6" class="node"><title>Node4</title>
<a xlink:href="structstxxl_1_1choose__int__types.html" target="_top" xlink:title="stxxl::choose_int_types\l\&lt; PtrSize \&gt;">
<polygon fill="none" stroke="black" points="17,-261 17,-295 137,-295 137,-261 17,-261"/>
<text text-anchor="start" x="25" y="-282" font-family="Helvetica,sans-Serif" font-size="10.00">stxxl::choose_int_types</text>
<text text-anchor="middle" x="77" y="-269" font-family="Helvetica,sans-Serif" font-size="10.00">&lt; PtrSize &gt;</text>
</a>
</g>
<!-- Node4&#45;&gt;Node3 -->
<g id="edge6" class="edge"><title>Node4&#45;&gt;Node3</title>
<path fill="none" stroke="orange" stroke-dasharray="5,2" d="M147.35,-278C193.165,-278 252.302,-278 295.913,-278"/>
<polygon fill="orange" stroke="orange" points="147.195,-274.5 137.195,-278 147.195,-281.5 147.195,-274.5"/>
<text text-anchor="middle" x="225" y="-282" font-family="Helvetica,sans-Serif" font-size="10.00"> &lt; my_pointer_size &gt;</text>
</g>
<!-- Node5&#45;&gt;Node1 -->
<g id="edge8" class="edge"><title>Node5&#45;&gt;Node1</title>
<path fill="none" stroke="#9a32cd" stroke-dasharray="5,2" d="M1042.11,-144C1061.82,-144 1083.57,-144 1103.86,-144"/>
<polygon fill="#9a32cd" stroke="#9a32cd" points="1042.01,-140.5 1032.01,-144 1042.01,-147.5 1042.01,-140.5"/>
<text text-anchor="middle" x="1068" y="-148" font-family="Helvetica,sans-Serif" font-size="10.00"> m_pool</text>
</g>
<!-- Node6&#45;&gt;Node5 -->
<g id="edge12" class="edge"><title>Node6&#45;&gt;Node5</title>
<path fill="none" stroke="#9a32cd" stroke-dasharray="5,2" d="M642.163,-211.066C707.604,-209.722 813.889,-203.44 902,-179 917.064,-174.822 932.845,-167.772 945.946,-161.09"/>
<polygon fill="#9a32cd" stroke="#9a32cd" points="641.958,-207.569 632.02,-211.241 642.079,-214.568 641.958,-207.569"/>
<text text-anchor="middle" x="758" y="-212" font-family="Helvetica,sans-Serif" font-size="10.00"> p_pool</text>
</g>
<!-- Node6&#45;&gt;Node10 -->
<g id="edge30" class="edge"><title>Node6&#45;&gt;Node10</title>
<path fill="none" stroke="#9a32cd" stroke-dasharray="5,2" d="M604.669,-186.672C628.104,-163.337 665.648,-127.921 702,-102 708.876,-97.0968 716.605,-92.3727 724.075,-88.1535"/>
<polygon fill="#9a32cd" stroke="#9a32cd" points="602.151,-184.24 597.576,-193.796 607.112,-189.179 602.151,-184.24"/>
<text text-anchor="middle" x="667" y="-146" font-family="Helvetica,sans-Serif" font-size="10.00"> p_pool</text>
</g>
<!-- Node7 -->
<g id="node15" class="node"><title>Node7</title>
<a xlink:href="structstxxl_1_1compat__hash__map.html" target="_top" xlink:title="stxxl::compat_hash\l_map\&lt; bid_type, busy\l_entry, bid_hash \&gt;">
<polygon fill="none" stroke="black" points="299.5,-193.5 299.5,-240.5 412.5,-240.5 412.5,-193.5 299.5,-193.5"/>
<text text-anchor="start" x="307.5" y="-227.5" font-family="Helvetica,sans-Serif" font-size="10.00">stxxl::compat_hash</text>
<text text-anchor="start" x="307.5" y="-214.5" font-family="Helvetica,sans-Serif" font-size="10.00">_map&lt; bid_type, busy</text>
<text text-anchor="middle" x="356" y="-201.5" font-family="Helvetica,sans-Serif" font-size="10.00">_entry, bid_hash &gt;</text>
</a>
</g>
<!-- Node7&#45;&gt;Node6 -->
<g id="edge18" class="edge"><title>Node7&#45;&gt;Node6</title>
<path fill="none" stroke="#9a32cd" stroke-dasharray="5,2" d="M423.132,-215.21C457.249,-214.3 498.051,-213.212 529.627,-212.37"/>
<polygon fill="#9a32cd" stroke="#9a32cd" points="422.68,-211.721 412.777,-215.486 422.867,-218.718 422.68,-211.721"/>
<text text-anchor="middle" x="473" y="-218" font-family="Helvetica,sans-Serif" font-size="10.00"> busy_blocks</text>
</g>
<!-- Node8 -->
<g id="node17" class="node"><title>Node8</title>
<a xlink:href="structstxxl_1_1compat__hash__map.html" target="_top" xlink:title="stxxl::compat_hash\l_map\&lt; KeyType, MappedType,\l HashType \&gt;">
<polygon fill="none" stroke="black" points="0,-193.5 0,-240.5 154,-240.5 154,-193.5 0,-193.5"/>
<text text-anchor="start" x="8" y="-227.5" font-family="Helvetica,sans-Serif" font-size="10.00">stxxl::compat_hash</text>
<text text-anchor="start" x="8" y="-214.5" font-family="Helvetica,sans-Serif" font-size="10.00">_map&lt; KeyType, MappedType,</text>
<text text-anchor="middle" x="77" y="-201.5" font-family="Helvetica,sans-Serif" font-size="10.00"> HashType &gt;</text>
</a>
</g>
<!-- Node8&#45;&gt;Node7 -->
<g id="edge20" class="edge"><title>Node8&#45;&gt;Node7</title>
<path fill="none" stroke="orange" stroke-dasharray="5,2" d="M164.478,-217C208.505,-217 260.6,-217 299.336,-217"/>
<polygon fill="orange" stroke="orange" points="164.347,-213.5 154.347,-217 164.347,-220.5 164.347,-213.5"/>
<text text-anchor="start" x="172" y="-234" font-family="Helvetica,sans-Serif" font-size="10.00"> &lt; bid_type, busy_entry,</text>
<text text-anchor="middle" x="225" y="-221" font-family="Helvetica,sans-Serif" font-size="10.00"> bid_hash &gt;</text>
</g>
<!-- Node9&#45;&gt;Node5 -->
<g id="edge22" class="edge"><title>Node9&#45;&gt;Node5</title>
<path fill="none" stroke="#9a32cd" stroke-dasharray="5,2" d="M636.691,-117.876C641.159,-119.067 645.632,-120.132 650,-121 700.016,-130.935 840.517,-138.258 919.776,-141.738"/>
<polygon fill="#9a32cd" stroke="#9a32cd" points="637.541,-114.478 626.963,-115.092 635.615,-121.208 637.541,-114.478"/>
<text text-anchor="middle" x="758" y="-141" font-family="Helvetica,sans-Serif" font-size="10.00"> w_pool</text>
</g>
<!-- Node9&#45;&gt;Node10 -->
<g id="edge32" class="edge"><title>Node9&#45;&gt;Node10</title>
<path fill="none" stroke="#9a32cd" stroke-dasharray="5,2" d="M628.495,-77.6464C635.59,-75.3291 642.906,-73.3261 650,-72 666.681,-68.8817 685.064,-67.8432 701.863,-67.8037"/>
<polygon fill="#9a32cd" stroke="#9a32cd" points="627.281,-74.3629 618.997,-80.9672 629.591,-80.9707 627.281,-74.3629"/>
<text text-anchor="middle" x="667" y="-76" font-family="Helvetica,sans-Serif" font-size="10.00"> w_pool</text>
</g>
<!-- Node10&#45;&gt;Node5 -->
<g id="edge26" class="edge"><title>Node10&#45;&gt;Node5</title>
<path fill="none" stroke="orange" stroke-dasharray="5,2" d="M824.192,-77.4826C849.167,-81.3319 877.457,-87.4175 902,-97 920.856,-104.362 940.093,-116.76 954.225,-126.975"/>
<polygon fill="orange" stroke="orange" points="824.476,-73.9872 814.077,-76.0157 823.471,-80.9147 824.476,-73.9872"/>
<text text-anchor="middle" x="867" y="-101" font-family="Helvetica,sans-Serif" font-size="10.00"> &lt; block_type &gt;</text>
</g>
</g>
</svg>
