<?xml version="1.0" encoding="UTF-8" standalone="no"?>
<!DOCTYPE svg PUBLIC "-//W3C//DTD SVG 1.1//EN"
 "http://www.w3.org/Graphics/SVG/1.1/DTD/svg11.dtd">
<!-- Generated by graphviz version 2.38.0 (20140413.2041)
 -->
<!-- Title: stxxl::mng_local::block_w_info&lt; Type, RawSize, NBids, void &gt; Pages: 1 -->
<svg width="813pt" height="80pt"
 viewBox="0.00 0.00 813.00 79.50" xmlns="http://www.w3.org/2000/svg" xmlns:xlink="http://www.w3.org/1999/xlink">
<g id="graph0" class="graph" transform="scale(1 1) rotate(0) translate(4 75.5)">
<title>stxxl::mng_local::block_w_info&lt; Type, RawSize, NBids, void &gt;</title>
<!-- Node1 -->
<g id="node1" class="node"><title>Node1</title>
<polygon fill="#bfbfbf" stroke="black" points="675,-24.5 675,-65.5 805,-65.5 805,-24.5 675,-24.5"/>
<text text-anchor="start" x="683" y="-53.5" font-family="Helvetica,sans-Serif" font-size="10.00">stxxl::mng_local::block</text>
<text text-anchor="start" x="683" y="-42.5" font-family="Helvetica,sans-Serif" font-size="10.00">_w_info&lt; Type, RawSize,</text>
<text text-anchor="middle" x="740" y="-31.5" font-family="Helvetica,sans-Serif" font-size="10.00"> NBids, void &gt;</text>
</g>
<!-- Node2 -->
<g id="node2" class="node"><title>Node2</title>
<g id="a_node2"><a xlink:href="classstxxl_1_1mng__local_1_1block__w__bids.html" target="_top" xlink:title="stxxl::mng_local::block\l_w_bids\&lt; Type,((RawSize\l&#45;sizeof(BID\&lt; RawSize \&gt;)*NBids)\l/sizeof(Type)), RawSize, NBids \&gt;">
<polygon fill="none" stroke="black" points="474,-19 474,-71 638,-71 638,-19 474,-19"/>
<text text-anchor="start" x="482" y="-59" font-family="Helvetica,sans-Serif" font-size="10.00">stxxl::mng_local::block</text>
<text text-anchor="start" x="482" y="-48" font-family="Helvetica,sans-Serif" font-size="10.00">_w_bids&lt; Type,((RawSize</text>
<text text-anchor="start" x="482" y="-37" font-family="Helvetica,sans-Serif" font-size="10.00">&#45;sizeof(BID&lt; RawSize &gt;)*NBids)</text>
<text text-anchor="middle" x="556" y="-26" font-family="Helvetica,sans-Serif" font-size="10.00">/sizeof(Type)), RawSize, NBids &gt;</text>
</a>
</g>
</g>
<!-- Node2&#45;&gt;Node1 -->
<g id="edge1" class="edge"><title>Node2&#45;&gt;Node1</title>
<path fill="none" stroke="midnightblue" d="M648.297,-45C657.298,-45 666.294,-45 674.935,-45"/>
<polygon fill="midnightblue" stroke="midnightblue" points="648.153,-41.5001 638.153,-45 648.153,-48.5001 648.153,-41.5001"/>
</g>
<!-- Node3 -->
<g id="node3" class="node"><title>Node3</title>
<g id="a_node3"><a xlink:href="classstxxl_1_1mng__local_1_1element__block.html" target="_top" xlink:title="Contains data elements for stxxl::typed_block , not intended for direct use. ">
<polygon fill="none" stroke="black" points="0,-40 0,-70 128,-70 128,-40 0,-40"/>
<text text-anchor="start" x="8" y="-58" font-family="Helvetica,sans-Serif" font-size="10.00">stxxl::mng_local::element</text>
<text text-anchor="middle" x="64" y="-47" font-family="Helvetica,sans-Serif" font-size="10.00">_block&lt; Type, Size &gt;</text>
</a>
</g>
</g>
<!-- Node3&#45;&gt;Node2 -->
<g id="edge2" class="edge"><title>Node3&#45;&gt;Node2</title>
<path fill="none" stroke="midnightblue" d="M138.389,-60.2915C217.067,-64.9917 345.577,-69.8656 456,-61 461.814,-60.5332 467.801,-59.9146 473.818,-59.1919"/>
<polygon fill="midnightblue" stroke="midnightblue" points="138.295,-56.7792 128.099,-59.6607 137.866,-63.7661 138.295,-56.7792"/>
</g>
<!-- Node4 -->
<g id="node4" class="node"><title>Node4</title>
<g id="a_node4"><a xlink:href="classstxxl_1_1mng__local_1_1block__w__bids.html" target="_top" xlink:title="Contains BID references for stxxl::typed_block , not intended for direct use. ">
<polygon fill="none" stroke="black" points="165,-0.5 165,-41.5 323,-41.5 323,-0.5 165,-0.5"/>
<text text-anchor="start" x="173" y="-29.5" font-family="Helvetica,sans-Serif" font-size="10.00">stxxl::mng_local::block</text>
<text text-anchor="start" x="173" y="-18.5" font-family="Helvetica,sans-Serif" font-size="10.00">_w_bids&lt; Type, Size, RawSize,</text>
<text text-anchor="middle" x="244" y="-7.5" font-family="Helvetica,sans-Serif" font-size="10.00"> NBids &gt;</text>
</a>
</g>
</g>
<!-- Node3&#45;&gt;Node4 -->
<g id="edge4" class="edge"><title>Node3&#45;&gt;Node4</title>
<path fill="none" stroke="midnightblue" d="M137.902,-41.0749C146.767,-39.3816 155.853,-37.6462 164.791,-35.9389"/>
<polygon fill="midnightblue" stroke="midnightblue" points="137.172,-37.6509 128.007,-42.965 138.486,-44.5266 137.172,-37.6509"/>
</g>
<!-- Node4&#45;&gt;Node2 -->
<g id="edge3" class="edge"><title>Node4&#45;&gt;Node2</title>
<path fill="none" stroke="orange" stroke-dasharray="5,2" d="M333.02,-13.208C371.01,-11.423 415.856,-11.4323 456,-17 461.838,-17.8098 467.817,-18.876 473.802,-20.1192"/>
<polygon fill="orange" stroke="orange" points="332.813,-9.71391 323.008,-13.7268 333.175,-16.7045 332.813,-9.71391"/>
<text text-anchor="start" x="341" y="-53" font-family="Helvetica,sans-Serif" font-size="10.00"> &lt; Type,((RawSize&#45;sizeof</text>
<text text-anchor="start" x="341" y="-42" font-family="Helvetica,sans-Serif" font-size="10.00">(BID&lt; RawSize &gt;)*NBids)</text>
<text text-anchor="start" x="341" y="-31" font-family="Helvetica,sans-Serif" font-size="10.00">/sizeof(Type)), RawSize,</text>
<text text-anchor="middle" x="398.5" y="-20" font-family="Helvetica,sans-Serif" font-size="10.00"> NBids &gt;</text>
</g>
</g>
</svg>
