<?xml version="1.0" encoding="UTF-8" standalone="no"?>
<!DOCTYPE svg PUBLIC "-//W3C//DTD SVG 1.1//EN"
 "http://www.w3.org/Graphics/SVG/1.1/DTD/svg11.dtd">
<!-- Generated by graphviz version 2.38.0 (20140413.2041)
 -->
<!-- Title: stxxl::ppq_local::external_array_writer&lt; ExternalArrayType &gt;::iterator Pages: 1 -->
<svg width="180pt" height="252pt"
 viewBox="0.00 0.00 180.00 252.00" xmlns="http://www.w3.org/2000/svg" xmlns:xlink="http://www.w3.org/1999/xlink">
<g id="graph0" class="graph" transform="scale(1 1) rotate(0) translate(4 248)">
<title>stxxl::ppq_local::external_array_writer&lt; ExternalArrayType &gt;::iterator</title>
<!-- Node1 -->
<g id="node1" class="node"><title>Node1</title>
<polygon fill="#bfbfbf" stroke="black" points="4.5,-0.5 4.5,-41.5 167.5,-41.5 167.5,-0.5 4.5,-0.5"/>
<text text-anchor="start" x="12.5" y="-29.5" font-family="Helvetica,sans-Serif" font-size="10.00">stxxl::ppq_local::external</text>
<text text-anchor="start" x="12.5" y="-18.5" font-family="Helvetica,sans-Serif" font-size="10.00">_array_writer&lt; ExternalArrayType</text>
<text text-anchor="middle" x="86" y="-7.5" font-family="Helvetica,sans-Serif" font-size="10.00"> &gt;::iterator</text>
</g>
<!-- Node2 -->
<g id="node2" class="node"><title>Node2</title>
<g id="a_node2"><a xlink:href="classstxxl_1_1ppq__local_1_1external__array__writer.html" target="_top" xlink:title="stxxl::ppq_local::external\l_array_writer\&lt; ExternalArrayType \&gt;">
<polygon fill="none" stroke="black" points="0,-89.5 0,-119.5 172,-119.5 172,-89.5 0,-89.5"/>
<text text-anchor="start" x="8" y="-107.5" font-family="Helvetica,sans-Serif" font-size="10.00">stxxl::ppq_local::external</text>
<text text-anchor="middle" x="86" y="-96.5" font-family="Helvetica,sans-Serif" font-size="10.00">_array_writer&lt; ExternalArrayType &gt;</text>
</a>
</g>
</g>
<!-- Node2&#45;&gt;Node1 -->
<g id="edge1" class="edge"><title>Node2&#45;&gt;Node1</title>
<path fill="none" stroke="#9a32cd" stroke-dasharray="5,2" d="M86,-79.0662C86,-67.0614 86,-52.7937 86,-41.5278"/>
<polygon fill="#9a32cd" stroke="#9a32cd" points="82.5001,-79.3037 86,-89.3038 89.5001,-79.3038 82.5001,-79.3037"/>
<text text-anchor="middle" x="106.5" y="-63" font-family="Helvetica,sans-Serif" font-size="10.00"> m_writer</text>
</g>
<!-- Node3 -->
<g id="node3" class="node"><title>Node3</title>
<g id="a_node3"><a xlink:href="classstxxl_1_1noncopyable.html" target="_top" xlink:title="stxxl::noncopyable">
<polygon fill="none" stroke="black" points="43,-224.5 43,-243.5 141,-243.5 141,-224.5 43,-224.5"/>
<text text-anchor="middle" x="92" y="-231.5" font-family="Helvetica,sans-Serif" font-size="10.00">stxxl::noncopyable</text>
</a>
</g>
</g>
<!-- Node3&#45;&gt;Node2 -->
<g id="edge2" class="edge"><title>Node3&#45;&gt;Node2</title>
<path fill="none" stroke="midnightblue" d="M90.6441,-214.068C90.0808,-205.765 89.454,-195.902 89,-187 87.7956,-163.385 86.8859,-135.898 86.3989,-119.64"/>
<polygon fill="midnightblue" stroke="midnightblue" points="87.1625,-214.454 91.3507,-224.186 94.1455,-213.966 87.1625,-214.454"/>
</g>
<!-- Node4 -->
<g id="node4" class="node"><title>Node4</title>
<g id="a_node4"><a xlink:href="classstxxl_1_1mutex.html" target="_top" xlink:title="stxxl::mutex">
<polygon fill="none" stroke="black" points="98.5,-167.5 98.5,-186.5 169.5,-186.5 169.5,-167.5 98.5,-167.5"/>
<text text-anchor="middle" x="134" y="-174.5" font-family="Helvetica,sans-Serif" font-size="10.00">stxxl::mutex</text>
</a>
</g>
</g>
<!-- Node3&#45;&gt;Node4 -->
<g id="edge4" class="edge"><title>Node3&#45;&gt;Node4</title>
<path fill="none" stroke="#8b1a1a" d="M104.803,-216.234C112.242,-206.493 121.308,-194.62 127.345,-186.715"/>
<polygon fill="#8b1a1a" stroke="#8b1a1a" points="101.85,-214.334 98.5625,-224.406 107.413,-218.583 101.85,-214.334"/>
</g>
<!-- Node4&#45;&gt;Node2 -->
<g id="edge3" class="edge"><title>Node4&#45;&gt;Node2</title>
<path fill="none" stroke="#9a32cd" stroke-dasharray="5,2" d="M122.452,-159.039C114.234,-146.968 103.321,-130.94 95.5838,-119.576"/>
<polygon fill="#9a32cd" stroke="#9a32cd" points="119.593,-161.059 128.114,-167.355 125.379,-157.12 119.593,-161.059"/>
<text text-anchor="middle" x="137" y="-141" font-family="Helvetica,sans-Serif" font-size="10.00"> m_mutex</text>
</g>
</g>
</svg>
