<?xml version="1.0" encoding="UTF-8" standalone="no"?>
<!DOCTYPE svg PUBLIC "-//W3C//DTD SVG 1.1//EN"
 "http://www.w3.org/Graphics/SVG/1.1/DTD/svg11.dtd">
<!-- Generated by graphviz version 2.38.0 (20140413.2041)
 -->
<!-- Title: stxxl::BIDArray&lt; BlockSize &gt; Pages: 1 -->
<svg width="217pt" height="309pt"
 viewBox="0.00 0.00 217.00 309.00" xmlns="http://www.w3.org/2000/svg" xmlns:xlink="http://www.w3.org/1999/xlink">
<g id="graph0" class="graph" transform="scale(1 1) rotate(0) translate(4 305)">
<title>stxxl::BIDArray&lt; BlockSize &gt;</title>
<!-- Node1 -->
<g id="node1" class="node"><title>Node1</title>
<polygon fill="#bfbfbf" stroke="black" points="0,-78.5 0,-97.5 146,-97.5 146,-78.5 0,-78.5"/>
<text text-anchor="middle" x="73" y="-85.5" font-family="Helvetica,sans-Serif" font-size="10.00">stxxl::BIDArray&lt; BlockSize &gt;</text>
</g>
<!-- Node5 -->
<g id="node5" class="node"><title>Node5</title>
<g id="a_node5"><a xlink:href="classstxxl_1_1BIDArray.html" target="_top" xlink:title="stxxl::BIDArray\&lt; block\l_type::raw_size \&gt;">
<polygon fill="none" stroke="black" points="15,-0.5 15,-30.5 131,-30.5 131,-0.5 15,-0.5"/>
<text text-anchor="start" x="23" y="-18.5" font-family="Helvetica,sans-Serif" font-size="10.00">stxxl::BIDArray&lt; block</text>
<text text-anchor="middle" x="73" y="-7.5" font-family="Helvetica,sans-Serif" font-size="10.00">_type::raw_size &gt;</text>
</a>
</g>
</g>
<!-- Node1&#45;&gt;Node5 -->
<g id="edge5" class="edge"><title>Node1&#45;&gt;Node5</title>
<path fill="none" stroke="orange" stroke-dasharray="5,2" d="M73,-68.2362C73,-56.4079 73,-41.3829 73,-30.5762"/>
<polygon fill="orange" stroke="orange" points="69.5001,-68.3553 73,-78.3553 76.5001,-68.3554 69.5001,-68.3553"/>
<text text-anchor="middle" x="130" y="-52" font-family="Helvetica,sans-Serif" font-size="10.00"> &lt; block_type::raw_size &gt;</text>
</g>
<!-- Node2 -->
<g id="node2" class="node"><title>Node2</title>
<g id="a_node2"><a xlink:href="classstxxl_1_1simple__vector.html" target="_top" xlink:title="stxxl::simple_vector\l\&lt; BID\&lt; BlockSize \&gt; \&gt;">
<polygon fill="none" stroke="black" points="16,-135.5 16,-165.5 130,-165.5 130,-135.5 16,-135.5"/>
<text text-anchor="start" x="24" y="-153.5" font-family="Helvetica,sans-Serif" font-size="10.00">stxxl::simple_vector</text>
<text text-anchor="middle" x="73" y="-142.5" font-family="Helvetica,sans-Serif" font-size="10.00">&lt; BID&lt; BlockSize &gt; &gt;</text>
</a>
</g>
</g>
<!-- Node2&#45;&gt;Node1 -->
<g id="edge1" class="edge"><title>Node2&#45;&gt;Node1</title>
<path fill="none" stroke="midnightblue" d="M73,-125.352C73,-115.513 73,-104.775 73,-97.5399"/>
<polygon fill="midnightblue" stroke="midnightblue" points="69.5001,-125.468 73,-135.468 76.5001,-125.468 69.5001,-125.468"/>
</g>
<!-- Node3 -->
<g id="node3" class="node"><title>Node3</title>
<g id="a_node3"><a xlink:href="classstxxl_1_1noncopyable.html" target="_top" xlink:title="stxxl::noncopyable">
<polygon fill="none" stroke="black" points="34,-281.5 34,-300.5 132,-300.5 132,-281.5 34,-281.5"/>
<text text-anchor="middle" x="83" y="-288.5" font-family="Helvetica,sans-Serif" font-size="10.00">stxxl::noncopyable</text>
</a>
</g>
</g>
<!-- Node3&#45;&gt;Node2 -->
<g id="edge2" class="edge"><title>Node3&#45;&gt;Node2</title>
<path fill="none" stroke="#8b1a1a" d="M79.6109,-271.122C78.256,-262.829 76.824,-252.959 76,-244 73.4541,-216.32 72.9791,-183.808 72.9387,-165.636"/>
<polygon fill="#8b1a1a" stroke="#8b1a1a" points="76.203,-271.957 81.3465,-281.219 83.1018,-270.771 76.203,-271.957"/>
</g>
<!-- Node4 -->
<g id="node4" class="node"><title>Node4</title>
<g id="a_node4"><a xlink:href="classstxxl_1_1simple__vector.html" target="_top" xlink:title="Simpler non&#45;growing vector without initialization. ">
<polygon fill="none" stroke="black" points="85,-213.5 85,-243.5 189,-243.5 189,-213.5 85,-213.5"/>
<text text-anchor="start" x="93" y="-231.5" font-family="Helvetica,sans-Serif" font-size="10.00">stxxl::simple_vector</text>
<text text-anchor="middle" x="137" y="-220.5" font-family="Helvetica,sans-Serif" font-size="10.00">&lt; ValueType &gt;</text>
</a>
</g>
</g>
<!-- Node3&#45;&gt;Node4 -->
<g id="edge4" class="edge"><title>Node3&#45;&gt;Node4</title>
<path fill="none" stroke="#8b1a1a" d="M97.4388,-273.823C105.798,-264.458 116.223,-252.778 124.273,-243.759"/>
<polygon fill="#8b1a1a" stroke="#8b1a1a" points="94.7847,-271.541 90.7369,-281.332 100.007,-276.202 94.7847,-271.541"/>
</g>
<!-- Node4&#45;&gt;Node2 -->
<g id="edge3" class="edge"><title>Node4&#45;&gt;Node2</title>
<path fill="none" stroke="orange" stroke-dasharray="5,2" d="M118.311,-205.307C107.554,-192.533 94.3554,-176.86 84.9839,-165.731"/>
<polygon fill="orange" stroke="orange" points="115.844,-207.81 124.962,-213.205 121.198,-203.301 115.844,-207.81"/>
<text text-anchor="middle" x="158.5" y="-187" font-family="Helvetica,sans-Serif" font-size="10.00"> &lt; BID&lt; BlockSize &gt; &gt;</text>
</g>
</g>
</svg>
