<?xml version="1.0" encoding="UTF-8" standalone="no"?>
<!DOCTYPE svg PUBLIC "-//W3C//DTD SVG 1.1//EN"
 "http://www.w3.org/Graphics/SVG/1.1/DTD/svg11.dtd">
<!-- Generated by graphviz version 2.26.3 (20100126.1600)
 -->
<!-- Title: stxxl::block_scheduler_algorithm_online_lru&lt; SwappableBlockType &gt; Pages: 1 -->
<svg width="2038pt" height="465pt"
 viewBox="0.00 0.00 2038.00 465.00" xmlns="http://www.w3.org/2000/svg" xmlns:xlink="http://www.w3.org/1999/xlink">
<g id="graph1" class="graph" transform="scale(1 1) rotate(0) translate(4 461)">
<title>stxxl::block_scheduler_algorithm_online_lru&lt; SwappableBlockType &gt;</title>
<!-- Node1 -->
<g id="node1" class="node"><title>Node1</title>
<polygon fill="#bfbfbf" stroke="black" points="1900.5,-33.5 1900.5,-80.5 2029.5,-80.5 2029.5,-33.5 1900.5,-33.5"/>
<text text-anchor="start" x="1908.5" y="-67.5" font-family="Helvetica,sans-Serif" font-size="10.00">stxxl::block_scheduler</text>
<text text-anchor="start" x="1908.5" y="-54.5" font-family="Helvetica,sans-Serif" font-size="10.00">_algorithm_online_lru</text>
<text text-anchor="middle" x="1965" y="-41.5" font-family="Helvetica,sans-Serif" font-size="10.00">&lt; SwappableBlockType &gt;</text>
</g>
<!-- Node2 -->
<g id="node2" class="node"><title>Node2</title>
<a xlink:href="classstxxl_1_1block__scheduler__algorithm.html" target="_top" xlink:title="Interface of a block scheduling algorithm. ">
<polygon fill="none" stroke="black" points="1614,-66 1614,-100 1788,-100 1788,-66 1614,-66"/>
<text text-anchor="start" x="1622" y="-87" font-family="Helvetica,sans-Serif" font-size="10.00">stxxl::block_scheduler</text>
<text text-anchor="middle" x="1701" y="-74" font-family="Helvetica,sans-Serif" font-size="10.00">_algorithm&lt; SwappableBlockType &gt;</text>
</a>
</g>
<!-- Node2&#45;&gt;Node1 -->
<g id="edge2" class="edge"><title>Node2&#45;&gt;Node1</title>
<path fill="none" stroke="midnightblue" d="M1798.17,-73.4303C1832.28,-70.0708 1869.73,-66.3822 1900.5,-63.3525"/>
<polygon fill="midnightblue" stroke="midnightblue" points="1797.78,-69.9512 1788.18,-74.4146 1798.47,-76.9175 1797.78,-69.9512"/>
</g>
<!-- Node3 -->
<g id="node4" class="node"><title>Node3</title>
<a xlink:href="classstxxl_1_1noncopyable.html" target="_top" xlink:title="stxxl::noncopyable">
<polygon fill="none" stroke="black" points="11,-193.5 11,-214.5 109,-214.5 109,-193.5 11,-193.5"/>
<text text-anchor="middle" x="60" y="-201.5" font-family="Helvetica,sans-Serif" font-size="10.00">stxxl::noncopyable</text>
</a>
</g>
<!-- Node3&#45;&gt;Node2 -->
<g id="edge4" class="edge"><title>Node3&#45;&gt;Node2</title>
<path fill="none" stroke="#8b1a1a" d="M73.6938,-185.183C87.8236,-167.116 111.49,-140.368 138,-125 211.588,-82.3428 237.943,-76 323,-76 323,-76 323,-76 1383,-76 1461.14,-76 1550.05,-78.1386 1613.96,-80.0517"/>
<polygon fill="#8b1a1a" stroke="#8b1a1a" points="70.8149,-183.187 67.5526,-193.267 76.3889,-187.422 70.8149,-183.187"/>
</g>
<!-- Node4 -->
<g id="node6" class="node"><title>Node4</title>
<a xlink:href="classstxxl_1_1block__scheduler.html" target="_top" xlink:title="Schedules swapping of blocks and provides blocks for temporary storage. ">
<polygon fill="none" stroke="black" points="1318.5,-117 1318.5,-151 1447.5,-151 1447.5,-117 1318.5,-117"/>
<text text-anchor="start" x="1326.5" y="-138" font-family="Helvetica,sans-Serif" font-size="10.00">stxxl::block_scheduler</text>
<text text-anchor="middle" x="1383" y="-125" font-family="Helvetica,sans-Serif" font-size="10.00">&lt; SwappableBlockType &gt;</text>
</a>
</g>
<!-- Node3&#45;&gt;Node4 -->
<g id="edge8" class="edge"><title>Node3&#45;&gt;Node4</title>
<path fill="none" stroke="#8b1a1a" d="M86.2288,-188.534C132.422,-162.803 232.025,-114 323,-114 323,-114 323,-114 1209,-114 1245.34,-114 1285.66,-118.358 1318.34,-123.005"/>
<polygon fill="#8b1a1a" stroke="#8b1a1a" points="84.4381,-185.525 77.4624,-193.5 87.8884,-191.616 84.4381,-185.525"/>
</g>
<!-- Node6 -->
<g id="node11" class="node"><title>Node6</title>
<a xlink:href="classstxxl_1_1singleton.html" target="_top" xlink:title="stxxl::singleton\&lt; block\l_manager \&gt;">
<polygon fill="none" stroke="black" points="552.5,-180 552.5,-214 667.5,-214 667.5,-180 552.5,-180"/>
<text text-anchor="start" x="560.5" y="-201" font-family="Helvetica,sans-Serif" font-size="10.00">stxxl::singleton&lt; block</text>
<text text-anchor="middle" x="610" y="-188" font-family="Helvetica,sans-Serif" font-size="10.00">_manager &gt;</text>
</a>
</g>
<!-- Node3&#45;&gt;Node6 -->
<g id="edge14" class="edge"><title>Node3&#45;&gt;Node6</title>
<path fill="none" stroke="#8b1a1a" d="M119.533,-203.242C225.951,-201.888 447.471,-199.069 552.445,-197.733"/>
<polygon fill="#8b1a1a" stroke="#8b1a1a" points="119.247,-199.746 109.293,-203.373 119.337,-206.745 119.247,-199.746"/>
</g>
<!-- Node7 -->
<g id="node14" class="node"><title>Node7</title>
<a xlink:href="classstxxl_1_1singleton.html" target="_top" xlink:title="stxxl::singleton\&lt; INSTANCE,\l destroy_on_exit \&gt;">
<polygon fill="none" stroke="black" points="250,-142 250,-176 396,-176 396,-142 250,-142"/>
<text text-anchor="start" x="258" y="-163" font-family="Helvetica,sans-Serif" font-size="10.00">stxxl::singleton&lt; INSTANCE,</text>
<text text-anchor="middle" x="323" y="-150" font-family="Helvetica,sans-Serif" font-size="10.00"> destroy_on_exit &gt;</text>
</a>
</g>
<!-- Node3&#45;&gt;Node7 -->
<g id="edge18" class="edge"><title>Node3&#45;&gt;Node7</title>
<path fill="none" stroke="#8b1a1a" d="M119.066,-193.324C125.455,-192.191 131.862,-191.065 138,-190 174.739,-183.625 215.622,-176.751 249.593,-171.1"/>
<polygon fill="#8b1a1a" stroke="#8b1a1a" points="118.315,-189.903 109.083,-195.101 119.541,-196.794 118.315,-189.903"/>
</g>
<!-- Node8 -->
<g id="node17" class="node"><title>Node8</title>
<a xlink:href="classstxxl_1_1file.html" target="_top" xlink:title="Defines interface of file. ">
<polygon fill="none" stroke="black" points="770,-330.5 770,-351.5 826,-351.5 826,-330.5 770,-330.5"/>
<text text-anchor="middle" x="798" y="-338.5" font-family="Helvetica,sans-Serif" font-size="10.00">stxxl::file</text>
</a>
</g>
<!-- Node3&#45;&gt;Node8 -->
<g id="edge22" class="edge"><title>Node3&#45;&gt;Node8</title>
<path fill="none" stroke="#8b1a1a" d="M73.6217,-222.504C87.6969,-240.19 111.322,-266.149 138,-280 182.948,-303.337 200.096,-292.367 250,-301 322.719,-313.579 340.547,-319.865 414,-327 546.797,-339.9 706.474,-341.189 769.978,-341.135"/>
<polygon fill="#8b1a1a" stroke="#8b1a1a" points="76.386,-220.357 67.5077,-214.576 70.8428,-224.632 76.386,-220.357"/>
</g>
<!-- Node10 -->
<g id="node22" class="node"><title>Node10</title>
<a xlink:href="classstxxl_1_1mutex.html" target="_top" xlink:title="stxxl::mutex">
<polygon fill="none" stroke="black" points="287.5,-270.5 287.5,-291.5 358.5,-291.5 358.5,-270.5 287.5,-270.5"/>
<text text-anchor="middle" x="323" y="-278.5" font-family="Helvetica,sans-Serif" font-size="10.00">stxxl::mutex</text>
</a>
</g>
<!-- Node3&#45;&gt;Node10 -->
<g id="edge28" class="edge"><title>Node3&#45;&gt;Node10</title>
<path fill="none" stroke="#8b1a1a" d="M79.9958,-221.075C94.9675,-232.882 116.491,-247.875 138,-256 187.572,-274.725 249.285,-279.729 287.411,-280.901"/>
<polygon fill="#8b1a1a" stroke="#8b1a1a" points="81.9555,-218.158 71.9875,-214.568 77.5411,-223.59 81.9555,-218.158"/>
</g>
<!-- Node13 -->
<g id="node29" class="node"><title>Node13</title>
<a xlink:href="classstxxl_1_1disk__allocator.html" target="_top" xlink:title="stxxl::disk_allocator">
<polygon fill="none" stroke="black" points="944,-261.5 944,-282.5 1048,-282.5 1048,-261.5 944,-261.5"/>
<text text-anchor="middle" x="996" y="-269.5" font-family="Helvetica,sans-Serif" font-size="10.00">stxxl::disk_allocator</text>
</a>
</g>
<!-- Node3&#45;&gt;Node13 -->
<g id="edge36" class="edge"><title>Node3&#45;&gt;Node13</title>
<path fill="none" stroke="#8b1a1a" d="M115.192,-216.677C168.179,-227.728 250.621,-242 323,-242 323,-242 323,-242 798,-242 851.368,-242 911.923,-252.786 951.859,-261.423"/>
<polygon fill="#8b1a1a" stroke="#8b1a1a" points="115.833,-213.235 105.325,-214.585 114.381,-220.083 115.833,-213.235"/>
</g>
<!-- Node4&#45;&gt;Node2 -->
<g id="edge6" class="edge"><title>Node4&#45;&gt;Node2</title>
<path fill="none" stroke="#9a32cd" stroke-dasharray="5,2" d="M1457.79,-122.006C1504.5,-114.513 1564.85,-104.835 1613.75,-96.9933"/>
<polygon fill="#9a32cd" stroke="#9a32cd" points="1457.05,-118.578 1447.74,-123.618 1458.16,-125.49 1457.05,-118.578"/>
<text text-anchor="middle" x="1531" y="-124" font-family="Helvetica,sans-Serif" font-size="10.00"> bs</text>
</g>
<!-- Node5 -->
<g id="node9" class="node"><title>Node5</title>
<a xlink:href="classstxxl_1_1block__manager.html" target="_top" xlink:title="Block manager class. ">
<polygon fill="none" stroke="black" points="1154,-211.5 1154,-232.5 1264,-232.5 1264,-211.5 1154,-211.5"/>
<text text-anchor="middle" x="1209" y="-219.5" font-family="Helvetica,sans-Serif" font-size="10.00">stxxl::block_manager</text>
</a>
</g>
<!-- Node5&#45;&gt;Node4 -->
<g id="edge10" class="edge"><title>Node5&#45;&gt;Node4</title>
<path fill="none" stroke="#9a32cd" stroke-dasharray="5,2" d="M1238.92,-206.87C1269.54,-191.38 1317.07,-167.342 1349.08,-151.154"/>
<polygon fill="#9a32cd" stroke="#9a32cd" points="1237.33,-203.749 1229.99,-211.385 1240.49,-209.995 1237.33,-203.749"/>
<text text-anchor="middle" x="1291" y="-187" font-family="Helvetica,sans-Serif" font-size="10.00"> bm</text>
</g>
<!-- Node6&#45;&gt;Node5 -->
<g id="edge12" class="edge"><title>Node6&#45;&gt;Node5</title>
<path fill="none" stroke="midnightblue" d="M677.845,-199.832C797.57,-204.828 1044.05,-215.116 1153.98,-219.704"/>
<polygon fill="midnightblue" stroke="midnightblue" points="677.844,-196.329 667.707,-199.408 677.552,-203.323 677.844,-196.329"/>
</g>
<!-- Node7&#45;&gt;Node6 -->
<g id="edge16" class="edge"><title>Node7&#45;&gt;Node6</title>
<path fill="none" stroke="orange" stroke-dasharray="5,2" d="M406.393,-162.797C445.361,-165.417 492.264,-169.784 534,-177 539.915,-178.023 546.043,-179.285 552.134,-180.674"/>
<polygon fill="orange" stroke="orange" points="406.351,-159.287 396.146,-162.135 405.9,-166.272 406.351,-159.287"/>
<text text-anchor="middle" x="474" y="-181" font-family="Helvetica,sans-Serif" font-size="10.00"> &lt; block_manager &gt;</text>
</g>
<!-- Node8&#45;&gt;Node5 -->
<g id="edge20" class="edge"><title>Node8&#45;&gt;Node5</title>
<path fill="none" stroke="#9a32cd" stroke-dasharray="5,2" d="M836.589,-338.542C901.19,-333.24 1034.16,-317.199 1136,-271 1158.66,-260.721 1182.06,-243.667 1196.07,-232.632"/>
<polygon fill="#9a32cd" stroke="#9a32cd" points="836.151,-335.065 826.453,-339.331 836.694,-342.044 836.151,-335.065"/>
<text text-anchor="middle" x="996" y="-328" font-family="Helvetica,sans-Serif" font-size="10.00"> disk_files</text>
</g>
<!-- Node8&#45;&gt;Node13 -->
<g id="edge38" class="edge"><title>Node8&#45;&gt;Node13</title>
<path fill="none" stroke="#9a32cd" stroke-dasharray="5,2" d="M822.39,-325.093C829.2,-321.097 836.729,-317.075 844,-314 846.687,-312.863 913.218,-294.611 957.36,-282.545"/>
<polygon fill="#9a32cd" stroke="#9a32cd" points="820.353,-322.236 813.643,-330.435 824.001,-328.21 820.353,-322.236"/>
<text text-anchor="middle" x="885" y="-318" font-family="Helvetica,sans-Serif" font-size="10.00"> storage</text>
</g>
<!-- Node9 -->
<g id="node20" class="node"><title>Node9</title>
<a xlink:href="classstxxl_1_1atomic__counted__object.html" target="_top" xlink:title="Provides reference counting abilities for use with counting_ptr with mutex locking. ">
<polygon fill="none" stroke="black" points="553.5,-369 553.5,-403 666.5,-403 666.5,-369 553.5,-369"/>
<text text-anchor="start" x="561.5" y="-390" font-family="Helvetica,sans-Serif" font-size="10.00">stxxl::atomic_counted</text>
<text text-anchor="middle" x="610" y="-377" font-family="Helvetica,sans-Serif" font-size="10.00">_object</text>
</a>
</g>
<!-- Node9&#45;&gt;Node8 -->
<g id="edge24" class="edge"><title>Node9&#45;&gt;Node8</title>
<path fill="none" stroke="#9a32cd" stroke-dasharray="5,2" d="M676.591,-372.62C700.474,-367.516 727.538,-361.382 752,-355 757.816,-353.483 763.999,-351.712 769.883,-349.949"/>
<polygon fill="#9a32cd" stroke="#9a32cd" points="675.626,-369.246 666.567,-374.742 677.075,-376.095 675.626,-369.246"/>
<text text-anchor="middle" x="719" y="-374" font-family="Helvetica,sans-Serif" font-size="10.00"> m_request_ref</text>
</g>
<!-- Node10&#45;&gt;Node9 -->
<g id="edge26" class="edge"><title>Node10&#45;&gt;Node9</title>
<path fill="none" stroke="#9a32cd" stroke-dasharray="5,2" d="M361.413,-295.053C413.728,-314.193 507.288,-348.423 563.504,-368.989"/>
<polygon fill="#9a32cd" stroke="#9a32cd" points="362.426,-291.697 351.833,-291.549 360.021,-298.271 362.426,-291.697"/>
<text text-anchor="middle" x="474" y="-361" font-family="Helvetica,sans-Serif" font-size="10.00"> m_reference_count_mutex</text>
</g>
<!-- Node10&#45;&gt;Node13 -->
<g id="edge40" class="edge"><title>Node10&#45;&gt;Node13</title>
<path fill="none" stroke="#9a32cd" stroke-dasharray="5,2" d="M368.731,-280.388C489.481,-278.774 816.318,-274.403 943.945,-272.696"/>
<polygon fill="#9a32cd" stroke="#9a32cd" points="368.661,-276.889 358.708,-280.522 368.754,-283.888 368.661,-276.889"/>
<text text-anchor="middle" x="719" y="-280" font-family="Helvetica,sans-Serif" font-size="10.00"> mutex</text>
</g>
<!-- Node11 -->
<g id="node25" class="node"><title>Node11</title>
<a xlink:href="structstxxl_1_1choose__int__types.html" target="_top" xlink:title="stxxl::choose_int_types\l\&lt; my_pointer_size \&gt;">
<polygon fill="none" stroke="black" points="263,-369 263,-403 383,-403 383,-369 263,-369"/>
<text text-anchor="start" x="271" y="-390" font-family="Helvetica,sans-Serif" font-size="10.00">stxxl::choose_int_types</text>
<text text-anchor="middle" x="323" y="-377" font-family="Helvetica,sans-Serif" font-size="10.00">&lt; my_pointer_size &gt;</text>
</a>
</g>
<!-- Node11&#45;&gt;Node4 -->
<g id="edge42" class="edge"><title>Node11&#45;&gt;Node4</title>
<path fill="none" stroke="#9a32cd" stroke-dasharray="5,2" d="M392.801,-403.163C450.624,-415.875 535.147,-431 610,-431 610,-431 610,-431 1209,-431 1339.58,-431 1374.01,-214.639 1381.3,-151.252"/>
<polygon fill="#9a32cd" stroke="#9a32cd" points="393.563,-399.747 383.041,-400.984 392.038,-406.579 393.563,-399.747"/>
<text text-anchor="start" x="844" y="-448" font-family="Helvetica,sans-Serif" font-size="10.00"> remaining_internal</text>
<text text-anchor="middle" x="885" y="-435" font-family="Helvetica,sans-Serif" font-size="10.00">_blocks</text>
</g>
<!-- Node11&#45;&gt;Node9 -->
<g id="edge30" class="edge"><title>Node11&#45;&gt;Node9</title>
<path fill="none" stroke="#9a32cd" stroke-dasharray="5,2" d="M393.414,-386C442.618,-386 507.46,-386 553.332,-386"/>
<polygon fill="#9a32cd" stroke="#9a32cd" points="393.165,-382.5 383.165,-386 393.165,-389.5 393.165,-382.5"/>
<text text-anchor="middle" x="474" y="-390" font-family="Helvetica,sans-Serif" font-size="10.00"> m_reference_count</text>
</g>
<!-- Node12 -->
<g id="node27" class="node"><title>Node12</title>
<a xlink:href="structstxxl_1_1choose__int__types.html" target="_top" xlink:title="stxxl::choose_int_types\l\&lt; PtrSize \&gt;">
<polygon fill="none" stroke="black" points="0,-369 0,-403 120,-403 120,-369 0,-369"/>
<text text-anchor="start" x="8" y="-390" font-family="Helvetica,sans-Serif" font-size="10.00">stxxl::choose_int_types</text>
<text text-anchor="middle" x="60" y="-377" font-family="Helvetica,sans-Serif" font-size="10.00">&lt; PtrSize &gt;</text>
</a>
</g>
<!-- Node12&#45;&gt;Node11 -->
<g id="edge32" class="edge"><title>Node12&#45;&gt;Node11</title>
<path fill="none" stroke="orange" stroke-dasharray="5,2" d="M130.017,-386C171.397,-386 223.258,-386 262.795,-386"/>
<polygon fill="orange" stroke="orange" points="130.008,-382.5 120.008,-386 130.008,-389.5 130.008,-382.5"/>
<text text-anchor="middle" x="185" y="-390" font-family="Helvetica,sans-Serif" font-size="10.00"> &lt; my_pointer_size &gt;</text>
</g>
<!-- Node13&#45;&gt;Node5 -->
<g id="edge34" class="edge"><title>Node13&#45;&gt;Node5</title>
<path fill="none" stroke="#9a32cd" stroke-dasharray="5,2" d="M1051.01,-259.086C1086.16,-250.835 1131.17,-240.27 1164.15,-232.528"/>
<polygon fill="#9a32cd" stroke="#9a32cd" points="1049.85,-255.765 1040.91,-261.457 1051.45,-262.579 1049.85,-255.765"/>
<text text-anchor="middle" x="1101" y="-258" font-family="Helvetica,sans-Serif" font-size="10.00"> disk_allocators</text>
</g>
<!-- Node14 -->
<g id="node35" class="node"><title>Node14</title>
<a xlink:href="classstxxl_1_1addressable__fifo__queue.html" target="_top" xlink:title="stxxl::addressable\l_fifo_queue\&lt; swappable\l_block_identifier_type \&gt;">
<polygon fill="none" stroke="black" points="1640,-0.5 1640,-47.5 1762,-47.5 1762,-0.5 1640,-0.5"/>
<text text-anchor="start" x="1648" y="-34.5" font-family="Helvetica,sans-Serif" font-size="10.00">stxxl::addressable</text>
<text text-anchor="start" x="1648" y="-21.5" font-family="Helvetica,sans-Serif" font-size="10.00">_fifo_queue&lt; swappable</text>
<text text-anchor="middle" x="1701" y="-8.5" font-family="Helvetica,sans-Serif" font-size="10.00">_block_identifier_type &gt;</text>
</a>
</g>
<!-- Node14&#45;&gt;Node1 -->
<g id="edge44" class="edge"><title>Node14&#45;&gt;Node1</title>
<path fill="none" stroke="#9a32cd" stroke-dasharray="5,2" d="M1772.17,-32.8963C1812.12,-37.8903 1861.59,-44.0737 1900.42,-48.9273"/>
<polygon fill="#9a32cd" stroke="#9a32cd" points="1772.59,-29.4213 1762.23,-31.6538 1771.72,-36.3672 1772.59,-29.4213"/>
<text text-anchor="middle" x="1844" y="-50" font-family="Helvetica,sans-Serif" font-size="10.00"> evictable_blocks</text>
</g>
<!-- Node15 -->
<g id="node37" class="node"><title>Node15</title>
<a xlink:href="classstxxl_1_1addressable__fifo__queue.html" target="_top" xlink:title="An internal fifo queue that allows removing elements addressed with (a copy of) themselves. ">
<polygon fill="none" stroke="black" points="1321,-7 1321,-41 1445,-41 1445,-7 1321,-7"/>
<text text-anchor="start" x="1329" y="-28" font-family="Helvetica,sans-Serif" font-size="10.00">stxxl::addressable</text>
<text text-anchor="middle" x="1383" y="-15" font-family="Helvetica,sans-Serif" font-size="10.00">_fifo_queue&lt; KeyType &gt;</text>
</a>
</g>
<!-- Node15&#45;&gt;Node14 -->
<g id="edge46" class="edge"><title>Node15&#45;&gt;Node14</title>
<path fill="none" stroke="orange" stroke-dasharray="5,2" d="M1455.23,-24C1510.95,-24 1587.18,-24 1639.9,-24"/>
<polygon fill="orange" stroke="orange" points="1455.07,-20.5001 1445.07,-24 1455.07,-27.5001 1455.07,-20.5001"/>
<text text-anchor="start" x="1466" y="-41" font-family="Helvetica,sans-Serif" font-size="10.00"> &lt; swappable_block_identifier</text>
<text text-anchor="middle" x="1531" y="-28" font-family="Helvetica,sans-Serif" font-size="10.00">_type &gt;</text>
</g>
</g>
</svg>
