<?xml version="1.0" encoding="UTF-8" standalone="no"?>
<!DOCTYPE svg PUBLIC "-//W3C//DTD SVG 1.1//EN"
 "http://www.w3.org/Graphics/SVG/1.1/DTD/svg11.dtd">
<!-- Generated by graphviz version 2.26.3 (20100126.1600)
 -->
<!-- Title: Block Management Layer Pages: 1 -->
<svg width="306pt" height="110pt"
 viewBox="0.00 0.00 306.00 110.00" xmlns="http://www.w3.org/2000/svg" xmlns:xlink="http://www.w3.org/1999/xlink">
<g id="graph1" class="graph" transform="scale(1 1) rotate(0) translate(4 106)">
<title>Block Management Layer</title>
<!-- Node3 -->
<g id="node1" class="node"><title>Node3</title>
<a xlink:href="group__mnglayer__internals.html" target="_top" xlink:title="Internals and support classes. ">
<polygon fill="none" stroke="black" points="204,-80.5 204,-101.5 258,-101.5 258,-80.5 204,-80.5"/>
<text text-anchor="middle" x="231" y="-88.5" font-family="Helvetica,sans-Serif" font-size="10.00">Internals</text>
</a>
</g>
<!-- Node2 -->
<g id="node2" class="node"><title>Node2</title>
<a xlink:href="group__schedlayer.html" target="_top" xlink:title="Group of classes which help in scheduling sequences of read and write requests via prefetching and bu...">
<polygon fill="none" stroke="black" points="164,-40.5 164,-61.5 298,-61.5 298,-40.5 164,-40.5"/>
<text text-anchor="middle" x="231" y="-48.5" font-family="Helvetica,sans-Serif" font-size="10.00">Block Scheduling Sublayer</text>
</a>
</g>
<!-- Node0 -->
<g id="node3" class="node"><title>Node0</title>
<polygon fill="#bfbfbf" stroke="black" points="0,-40.5 0,-61.5 128,-61.5 128,-40.5 0,-40.5"/>
<text text-anchor="middle" x="64" y="-48.5" font-family="Helvetica,sans-Serif" font-size="10.00">Block Management Layer</text>
</g>
<!-- Node0&#45;&gt;Node3 -->
<g id="edge6" class="edge"><title>Node0&#45;&gt;Node3</title>
<path fill="none" stroke="midnightblue" d="M117.755,-63.8755C146.39,-70.7341 180.393,-78.8786 203.616,-84.441"/>
<polygon fill="midnightblue" stroke="midnightblue" points="118.418,-60.4352 107.877,-61.5095 116.787,-67.2427 118.418,-60.4352"/>
</g>
<!-- Node0&#45;&gt;Node2 -->
<g id="edge4" class="edge"><title>Node0&#45;&gt;Node2</title>
<path fill="none" stroke="midnightblue" d="M138.33,-51C146.797,-51 155.391,-51 163.759,-51"/>
<polygon fill="midnightblue" stroke="midnightblue" points="138.089,-47.5001 128.089,-51 138.089,-54.5001 138.089,-47.5001"/>
</g>
<!-- Node1 -->
<g id="node4" class="node"><title>Node1</title>
<a xlink:href="group__alloc.html" target="_top" xlink:title="Standard allocation strategies encapsulated in functors. ">
<polygon fill="none" stroke="black" points="180.5,-0.5 180.5,-21.5 281.5,-21.5 281.5,-0.5 180.5,-0.5"/>
<text text-anchor="middle" x="231" y="-8.5" font-family="Helvetica,sans-Serif" font-size="10.00">Allocation Functors</text>
</a>
</g>
<!-- Node0&#45;&gt;Node1 -->
<g id="edge2" class="edge"><title>Node0&#45;&gt;Node1</title>
<path fill="none" stroke="midnightblue" d="M117.904,-38.089C140.285,-32.7282 165.924,-26.587 187.126,-21.5087"/>
<polygon fill="midnightblue" stroke="midnightblue" points="116.787,-34.7573 107.877,-40.4905 118.418,-41.5648 116.787,-34.7573"/>
</g>
</g>
</svg>
