<?xml version="1.0" encoding="UTF-8" standalone="no"?>
<!DOCTYPE svg PUBLIC "-//W3C//DTD SVG 1.1//EN"
 "http://www.w3.org/Graphics/SVG/1.1/DTD/svg11.dtd">
<!-- Generated by graphviz version 2.26.3 (20100126.1600)
 -->
<!-- Title: I/O Primitives Layer Pages: 1 -->
<svg width="280pt" height="70pt"
 viewBox="0.00 0.00 280.00 70.00" xmlns="http://www.w3.org/2000/svg" xmlns:xlink="http://www.w3.org/1999/xlink">
<g id="graph1" class="graph" transform="scale(1 1) rotate(0) translate(4 66)">
<title>I/O Primitives Layer</title>
<!-- Node2 -->
<g id="node1" class="node"><title>Node2</title>
<a xlink:href="group__reqlayer.html" target="_top" xlink:title="Encapsulation of an I/O request, queues for requests and threads to process them. ...">
<polygon fill="none" stroke="black" points="140.5,-40.5 140.5,-61.5 271.5,-61.5 271.5,-40.5 140.5,-40.5"/>
<text text-anchor="middle" x="206" y="-48.5" font-family="Helvetica,sans-Serif" font-size="10.00">I/O Requests and Queues</text>
</a>
</g>
<!-- Node1 -->
<g id="node2" class="node"><title>Node1</title>
<a xlink:href="group__fileimpl.html" target="_top" xlink:title="Implementations of stxxl::file for various file access methods and operating systems. ">
<polygon fill="none" stroke="black" points="144,-0.5 144,-21.5 268,-21.5 268,-0.5 144,-0.5"/>
<text text-anchor="middle" x="206" y="-8.5" font-family="Helvetica,sans-Serif" font-size="10.00">File I/O Implementations</text>
</a>
</g>
<!-- Node0 -->
<g id="node3" class="node"><title>Node0</title>
<polygon fill="#bfbfbf" stroke="black" points="0,-20.5 0,-41.5 104,-41.5 104,-20.5 0,-20.5"/>
<text text-anchor="middle" x="52" y="-28.5" font-family="Helvetica,sans-Serif" font-size="10.00">I/O Primitives Layer</text>
</g>
<!-- Node0&#45;&gt;Node2 -->
<g id="edge4" class="edge"><title>Node0&#45;&gt;Node2</title>
<path fill="none" stroke="midnightblue" d="M114.103,-39.0653C122.716,-40.1839 131.588,-41.3361 140.264,-42.4629"/>
<polygon fill="midnightblue" stroke="midnightblue" points="114.505,-35.5882 104.137,-37.7711 113.603,-42.5299 114.505,-35.5882"/>
</g>
<!-- Node0&#45;&gt;Node1 -->
<g id="edge2" class="edge"><title>Node0&#45;&gt;Node1</title>
<path fill="none" stroke="midnightblue" d="M114.166,-22.9265C123.931,-21.6583 134.027,-20.3472 143.792,-19.0789"/>
<polygon fill="midnightblue" stroke="midnightblue" points="113.603,-19.4701 104.137,-24.2289 114.505,-26.4118 113.603,-19.4701"/>
</g>
</g>
</svg>
