<?xml version="1.0" encoding="UTF-8" standalone="no"?>
<!DOCTYPE svg PUBLIC "-//W3C//DTD SVG 1.1//EN"
 "http://www.w3.org/Graphics/SVG/1.1/DTD/svg11.dtd">
<!-- Generated by graphviz version 2.26.3 (20100126.1600)
 -->
<!-- Title: STL&#45;User Layer Pages: 1 -->
<svg width="194pt" height="70pt"
 viewBox="0.00 0.00 194.00 70.00" xmlns="http://www.w3.org/2000/svg" xmlns:xlink="http://www.w3.org/1999/xlink">
<g id="graph1" class="graph" transform="scale(1 1) rotate(0) translate(4 66)">
<title>STL&#45;User Layer</title>
<!-- Node2 -->
<g id="node1" class="node"><title>Node2</title>
<a xlink:href="group__stlcont.html" target="_top" xlink:title="Containers with STL&#45;compatible interface. ">
<polygon fill="none" stroke="black" points="122,-40.5 122,-61.5 186,-61.5 186,-40.5 122,-40.5"/>
<text text-anchor="middle" x="154" y="-48.5" font-family="Helvetica,sans-Serif" font-size="10.00">Containers</text>
</a>
</g>
<!-- Node1 -->
<g id="node2" class="node"><title>Node1</title>
<a xlink:href="group__stlalgo.html" target="_top" xlink:title="Algorithms with STL&#45;compatible interface. ">
<polygon fill="none" stroke="black" points="122.5,-0.5 122.5,-21.5 185.5,-21.5 185.5,-0.5 122.5,-0.5"/>
<text text-anchor="middle" x="154" y="-8.5" font-family="Helvetica,sans-Serif" font-size="10.00">Algorithms</text>
</a>
</g>
<!-- Node0 -->
<g id="node3" class="node"><title>Node0</title>
<polygon fill="#bfbfbf" stroke="black" points="0,-20.5 0,-41.5 86,-41.5 86,-20.5 0,-20.5"/>
<text text-anchor="middle" x="43" y="-28.5" font-family="Helvetica,sans-Serif" font-size="10.00">STL&#45;User Layer</text>
</g>
<!-- Node0&#45;&gt;Node2 -->
<g id="edge4" class="edge"><title>Node0&#45;&gt;Node2</title>
<path fill="none" stroke="midnightblue" d="M96.3317,-40.6093C105.005,-42.1721 113.749,-43.7476 121.715,-45.1828"/>
<polygon fill="midnightblue" stroke="midnightblue" points="96.6955,-37.1186 86.2333,-38.7898 95.4542,-44.0077 96.6955,-37.1186"/>
</g>
<!-- Node0&#45;&gt;Node1 -->
<g id="edge2" class="edge"><title>Node0&#45;&gt;Node1</title>
<path fill="none" stroke="midnightblue" d="M96.253,-21.4049C105.201,-19.7926 114.227,-18.1663 122.398,-16.694"/>
<polygon fill="midnightblue" stroke="midnightblue" points="95.4542,-17.9923 86.2333,-23.2102 96.6955,-24.8814 95.4542,-17.9923"/>
</g>
</g>
</svg>
