<?xml version="1.0" encoding="UTF-8" standalone="no"?>
<!DOCTYPE svg PUBLIC "-//W3C//DTD SVG 1.1//EN"
 "http://www.w3.org/Graphics/SVG/1.1/DTD/svg11.dtd">
<!-- Generated by graphviz version 2.38.0 (20140413.2041)
 -->
<!-- Title: Containers Pages: 1 -->
<svg width="283pt" height="142pt"
 viewBox="0.00 0.00 283.00 142.00" xmlns="http://www.w3.org/2000/svg" xmlns:xlink="http://www.w3.org/1999/xlink">
<g id="graph0" class="graph" transform="scale(1 1) rotate(0) translate(4 138)">
<title>Containers</title>
<!-- Node0 -->
<g id="node1" class="node"><title>Node0</title>
<polygon fill="#bfbfbf" stroke="black" points="122,-57.5 122,-76.5 186,-76.5 186,-57.5 122,-57.5"/>
<text text-anchor="middle" x="154" y="-64.5" font-family="Helvetica,sans-Serif" font-size="10.00">Containers</text>
</g>
<!-- Node2 -->
<g id="node2" class="node"><title>Node2</title>
<g id="a_node2"><a xlink:href="group__matrix.html" target="_top" xlink:title="Efficient external memory matrix operations. ">
<polygon fill="none" stroke="black" points="226.5,-114.5 226.5,-133.5 270.5,-133.5 270.5,-114.5 226.5,-114.5"/>
<text text-anchor="middle" x="248.5" y="-121.5" font-family="Helvetica,sans-Serif" font-size="10.00">matrix</text>
</a>
</g>
</g>
<!-- Node0&#45;&gt;Node2 -->
<g id="edge2" class="edge"><title>Node0&#45;&gt;Node2</title>
<path fill="none" stroke="midnightblue" d="M179.375,-82.0206C196.06,-92.3018 217.679,-105.624 232.04,-114.474"/>
<polygon fill="midnightblue" stroke="midnightblue" points="181.041,-78.9357 170.691,-76.6693 177.369,-84.8951 181.041,-78.9357"/>
</g>
<!-- Node4 -->
<g id="node3" class="node"><title>Node4</title>
<g id="a_node3"><a xlink:href="group__stlcont__stack.html" target="_top" xlink:title="External stack implementations. ">
<polygon fill="none" stroke="black" points="228,-76.5 228,-95.5 269,-95.5 269,-76.5 228,-76.5"/>
<text text-anchor="middle" x="248.5" y="-83.5" font-family="Helvetica,sans-Serif" font-size="10.00">stack</text>
</a>
</g>
</g>
<!-- Node0&#45;&gt;Node4 -->
<g id="edge4" class="edge"><title>Node0&#45;&gt;Node4</title>
<path fill="none" stroke="midnightblue" d="M196.064,-75.4347C207.163,-77.7145 218.666,-80.0773 227.971,-81.9887"/>
<polygon fill="midnightblue" stroke="midnightblue" points="196.558,-71.9633 186.058,-73.3796 195.15,-78.8201 196.558,-71.9633"/>
</g>
<!-- Node5 -->
<g id="node5" class="node"><title>Node5</title>
<g id="a_node5"><a xlink:href="group__stlcont__vector.html" target="_top" xlink:title="Vector and support classes. ">
<polygon fill="none" stroke="black" points="226.5,-38.5 226.5,-57.5 270.5,-57.5 270.5,-38.5 226.5,-38.5"/>
<text text-anchor="middle" x="248.5" y="-45.5" font-family="Helvetica,sans-Serif" font-size="10.00">vector</text>
</a>
</g>
</g>
<!-- Node0&#45;&gt;Node5 -->
<g id="edge5" class="edge"><title>Node0&#45;&gt;Node5</title>
<path fill="none" stroke="midnightblue" d="M195.925,-58.5939C206.408,-56.4405 217.261,-54.2112 226.291,-52.3564"/>
<polygon fill="midnightblue" stroke="midnightblue" points="195.15,-55.1799 186.058,-60.6204 196.558,-62.0367 195.15,-55.1799"/>
</g>
<!-- Node3 -->
<g id="node6" class="node"><title>Node3</title>
<g id="a_node6"><a xlink:href="group__stlcontinternals.html" target="_top" xlink:title="Supporting internal classes. ">
<polygon fill="none" stroke="black" points="222,-0.5 222,-19.5 275,-19.5 275,-0.5 222,-0.5"/>
<text text-anchor="middle" x="248.5" y="-7.5" font-family="Helvetica,sans-Serif" font-size="10.00">internals</text>
</a>
</g>
</g>
<!-- Node0&#45;&gt;Node3 -->
<g id="edge3" class="edge"><title>Node0&#45;&gt;Node3</title>
<path fill="none" stroke="midnightblue" d="M179.375,-51.9794C196.06,-41.6982 217.679,-28.3762 232.04,-19.5265"/>
<polygon fill="midnightblue" stroke="midnightblue" points="177.369,-49.1049 170.691,-57.3307 181.041,-55.0643 177.369,-49.1049"/>
</g>
<!-- Node1 -->
<g id="node4" class="node"><title>Node1</title>
<g id="a_node4"><a xlink:href="group__stllayer.html" target="_top" xlink:title="Layer which groups STL compatible algorithms and containers. ">
<polygon fill="none" stroke="black" points="0,-57.5 0,-76.5 86,-76.5 86,-57.5 0,-57.5"/>
<text text-anchor="middle" x="43" y="-64.5" font-family="Helvetica,sans-Serif" font-size="10.00">STL&#45;User Layer</text>
</a>
</g>
</g>
<!-- Node1&#45;&gt;Node0 -->
<g id="edge1" class="edge"><title>Node1&#45;&gt;Node0</title>
<path fill="none" stroke="midnightblue" d="M96.2925,-67C105.014,-67 113.812,-67 121.789,-67"/>
<polygon fill="midnightblue" stroke="midnightblue" points="96.1423,-63.5001 86.1422,-67 96.1422,-70.5001 96.1423,-63.5001"/>
</g>
</g>
</svg>
