<?xml version="1.0" encoding="UTF-8" standalone="no"?>
<!DOCTYPE svg PUBLIC "-//W3C//DTD SVG 1.1//EN"
 "http://www.w3.org/Graphics/SVG/1.1/DTD/svg11.dtd">
<!-- Generated by graphviz version 2.38.0 (20140413.2041)
 -->
<!-- Title: STL&#45;User Layer Pages: 1 -->
<svg width="194pt" height="66pt"
 viewBox="0.00 0.00 194.00 66.00" xmlns="http://www.w3.org/2000/svg" xmlns:xlink="http://www.w3.org/1999/xlink">
<g id="graph0" class="graph" transform="scale(1 1) rotate(0) translate(4 62)">
<title>STL&#45;User Layer</title>
<!-- Node2 -->
<g id="node1" class="node"><title>Node2</title>
<g id="a_node1"><a xlink:href="group__stlcont.html" target="_top" xlink:title="Containers with STL&#45;compatible interface. ">
<polygon fill="none" stroke="black" points="122,-38.5 122,-57.5 186,-57.5 186,-38.5 122,-38.5"/>
<text text-anchor="middle" x="154" y="-45.5" font-family="Helvetica,sans-Serif" font-size="10.00">Containers</text>
</a>
</g>
</g>
<!-- Node1 -->
<g id="node2" class="node"><title>Node1</title>
<g id="a_node2"><a xlink:href="group__stlalgo.html" target="_top" xlink:title="Algorithms with STL&#45;compatible interface. ">
<polygon fill="none" stroke="black" points="122.5,-0.5 122.5,-19.5 185.5,-19.5 185.5,-0.5 122.5,-0.5"/>
<text text-anchor="middle" x="154" y="-7.5" font-family="Helvetica,sans-Serif" font-size="10.00">Algorithms</text>
</a>
</g>
</g>
<!-- Node0 -->
<g id="node3" class="node"><title>Node0</title>
<polygon fill="#bfbfbf" stroke="black" points="0,-19.5 0,-38.5 86,-38.5 86,-19.5 0,-19.5"/>
<text text-anchor="middle" x="43" y="-26.5" font-family="Helvetica,sans-Serif" font-size="10.00">STL&#45;User Layer</text>
</g>
<!-- Node0&#45;&gt;Node2 -->
<g id="edge2" class="edge"><title>Node0&#45;&gt;Node2</title>
<path fill="none" stroke="midnightblue" d="M96.0081,-38.0656C104.823,-39.6022 113.725,-41.1539 121.789,-42.5595"/>
<polygon fill="midnightblue" stroke="midnightblue" points="96.5948,-34.6152 86.1422,-36.3459 95.3926,-41.5112 96.5948,-34.6152"/>
</g>
<!-- Node0&#45;&gt;Node1 -->
<g id="edge1" class="edge"><title>Node0&#45;&gt;Node1</title>
<path fill="none" stroke="midnightblue" d="M96.2092,-19.8993C105.203,-18.3315 114.281,-16.7492 122.46,-15.3236"/>
<polygon fill="midnightblue" stroke="midnightblue" points="95.3926,-16.4888 86.1422,-21.6541 96.5948,-23.3848 95.3926,-16.4888"/>
</g>
</g>
</svg>
