<?xml version="1.0" encoding="UTF-8" standalone="no"?>
<!DOCTYPE svg PUBLIC "-//W3C//DTD SVG 1.1//EN"
 "http://www.w3.org/Graphics/SVG/1.1/DTD/svg11.dtd">
<!-- Generated by graphviz version 2.38.0 (20140413.2041)
 -->
<!-- Title: Block Management Layer Pages: 1 -->
<svg width="306pt" height="104pt"
 viewBox="0.00 0.00 306.00 104.00" xmlns="http://www.w3.org/2000/svg" xmlns:xlink="http://www.w3.org/1999/xlink">
<g id="graph0" class="graph" transform="scale(1 1) rotate(0) translate(4 100)">
<title>Block Management Layer</title>
<!-- Node3 -->
<g id="node1" class="node"><title>Node3</title>
<g id="a_node1"><a xlink:href="group__mnglayer__internals.html" target="_top" xlink:title="Internals and support classes. ">
<polygon fill="none" stroke="black" points="204,-76.5 204,-95.5 258,-95.5 258,-76.5 204,-76.5"/>
<text text-anchor="middle" x="231" y="-83.5" font-family="Helvetica,sans-Serif" font-size="10.00">Internals</text>
</a>
</g>
</g>
<!-- Node2 -->
<g id="node2" class="node"><title>Node2</title>
<g id="a_node2"><a xlink:href="group__schedlayer.html" target="_top" xlink:title="Group of classes which help in scheduling sequences of read and write requests via prefetching and bu...">
<polygon fill="none" stroke="black" points="164,-38.5 164,-57.5 298,-57.5 298,-38.5 164,-38.5"/>
<text text-anchor="middle" x="231" y="-45.5" font-family="Helvetica,sans-Serif" font-size="10.00">Block Scheduling Sublayer</text>
</a>
</g>
</g>
<!-- Node0 -->
<g id="node3" class="node"><title>Node0</title>
<polygon fill="#bfbfbf" stroke="black" points="0,-38.5 0,-57.5 128,-57.5 128,-38.5 0,-38.5"/>
<text text-anchor="middle" x="64" y="-45.5" font-family="Helvetica,sans-Serif" font-size="10.00">Block Management Layer</text>
</g>
<!-- Node0&#45;&gt;Node3 -->
<g id="edge3" class="edge"><title>Node0&#45;&gt;Node3</title>
<path fill="none" stroke="midnightblue" d="M116.608,-59.8854C145.58,-66.5577 180.492,-74.5982 203.855,-79.9788"/>
<polygon fill="midnightblue" stroke="midnightblue" points="117.167,-56.4226 106.636,-57.589 115.596,-63.2441 117.167,-56.4226"/>
</g>
<!-- Node0&#45;&gt;Node2 -->
<g id="edge2" class="edge"><title>Node0&#45;&gt;Node2</title>
<path fill="none" stroke="midnightblue" d="M138.52,-48C146.952,-48 155.511,-48 163.839,-48"/>
<polygon fill="midnightblue" stroke="midnightblue" points="138.321,-44.5001 128.321,-48 138.321,-51.5001 138.321,-44.5001"/>
</g>
<!-- Node1 -->
<g id="node4" class="node"><title>Node1</title>
<g id="a_node4"><a xlink:href="group__alloc.html" target="_top" xlink:title="Standard allocation strategies encapsulated in functors. ">
<polygon fill="none" stroke="black" points="180.5,-0.5 180.5,-19.5 281.5,-19.5 281.5,-0.5 180.5,-0.5"/>
<text text-anchor="middle" x="231" y="-7.5" font-family="Helvetica,sans-Serif" font-size="10.00">Allocation Functors</text>
</a>
</g>
</g>
<!-- Node0&#45;&gt;Node1 -->
<g id="edge1" class="edge"><title>Node0&#45;&gt;Node1</title>
<path fill="none" stroke="midnightblue" d="M116.654,-36.1039C139.846,-30.7626 166.838,-24.5463 188.663,-19.5201"/>
<polygon fill="midnightblue" stroke="midnightblue" points="115.596,-32.7559 106.636,-38.411 117.167,-39.5774 115.596,-32.7559"/>
</g>
</g>
</svg>
