<?xml version="1.0" encoding="UTF-8" standalone="no"?>
<!DOCTYPE svg PUBLIC "-//W3C//DTD SVG 1.1//EN"
 "http://www.w3.org/Graphics/SVG/1.1/DTD/svg11.dtd">
<!-- Generated by graphviz version 2.38.0 (20140413.2041)
 -->
<!-- Title: I/O Primitives Layer Pages: 1 -->
<svg width="279pt" height="66pt"
 viewBox="0.00 0.00 279.00 66.00" xmlns="http://www.w3.org/2000/svg" xmlns:xlink="http://www.w3.org/1999/xlink">
<g id="graph0" class="graph" transform="scale(1 1) rotate(0) translate(4 62)">
<title>I/O Primitives Layer</title>
<!-- Node2 -->
<g id="node1" class="node"><title>Node2</title>
<g id="a_node1"><a xlink:href="group__reqlayer.html" target="_top" xlink:title="Encapsulation of an I/O request, queues for requests and threads to process them. ...">
<polygon fill="none" stroke="black" points="140,-38.5 140,-57.5 271,-57.5 271,-38.5 140,-38.5"/>
<text text-anchor="middle" x="205.5" y="-45.5" font-family="Helvetica,sans-Serif" font-size="10.00">I/O Requests and Queues</text>
</a>
</g>
</g>
<!-- Node1 -->
<g id="node2" class="node"><title>Node1</title>
<g id="a_node2"><a xlink:href="group__fileimpl.html" target="_top" xlink:title="Implementations of stxxl::file for various file access methods and operating systems. ">
<polygon fill="none" stroke="black" points="143.5,-0.5 143.5,-19.5 267.5,-19.5 267.5,-0.5 143.5,-0.5"/>
<text text-anchor="middle" x="205.5" y="-7.5" font-family="Helvetica,sans-Serif" font-size="10.00">File I/O Implementations</text>
</a>
</g>
</g>
<!-- Node0 -->
<g id="node3" class="node"><title>Node0</title>
<polygon fill="#bfbfbf" stroke="black" points="0,-19.5 0,-38.5 104,-38.5 104,-19.5 0,-19.5"/>
<text text-anchor="middle" x="52" y="-26.5" font-family="Helvetica,sans-Serif" font-size="10.00">I/O Primitives Layer</text>
</g>
<!-- Node0&#45;&gt;Node2 -->
<g id="edge2" class="edge"><title>Node0&#45;&gt;Node2</title>
<path fill="none" stroke="midnightblue" d="M114.371,-36.6967C122.758,-37.7485 131.388,-38.8309 139.832,-39.8898"/>
<polygon fill="midnightblue" stroke="midnightblue" points="114.649,-33.2042 104.291,-35.4325 113.778,-40.1498 114.649,-33.2042"/>
</g>
<!-- Node0&#45;&gt;Node1 -->
<g id="edge1" class="edge"><title>Node0&#45;&gt;Node1</title>
<path fill="none" stroke="midnightblue" d="M114.46,-21.2921C123.972,-20.0992 133.796,-18.8672 143.302,-17.675"/>
<polygon fill="midnightblue" stroke="midnightblue" points="113.778,-17.8502 104.291,-22.5675 114.649,-24.7958 113.778,-17.8502"/>
</g>
</g>
</svg>
