<?xml version="1.0" encoding="UTF-8" standalone="no"?>
<!DOCTYPE svg PUBLIC "-//W3C//DTD SVG 1.1//EN"
 "http://www.w3.org/Graphics/SVG/1.1/DTD/svg11.dtd">
<!-- Generated by graphviz version 2.26.3 (20100126.1600)
 -->
<!-- Title: stxxl::compat_unique_ptr&lt; Type &gt; Pages: 1 -->
<svg width="378pt" height="174pt"
 viewBox="0.00 0.00 378.00 174.00" xmlns="http://www.w3.org/2000/svg" xmlns:xlink="http://www.w3.org/1999/xlink">
<g id="graph1" class="graph" transform="scale(1 1) rotate(0) translate(4 170)">
<title>stxxl::compat_unique_ptr&lt; Type &gt;</title>
<!-- Node1 -->
<g id="node1" class="node"><title>Node1</title>
<polygon fill="#bfbfbf" stroke="black" points="0,-66 0,-100 110,-100 110,-66 0,-66"/>
<text text-anchor="start" x="8" y="-87" font-family="Helvetica,sans-Serif" font-size="10.00">stxxl::compat_unique</text>
<text text-anchor="middle" x="55" y="-74" font-family="Helvetica,sans-Serif" font-size="10.00">_ptr&lt; Type &gt;</text>
</g>
<!-- Node2 -->
<g id="node3" class="node"><title>Node2</title>
<a xlink:href="structstxxl_1_1compat__unique__ptr.html" target="_top" xlink:title="stxxl::compat_unique\l_ptr\&lt; stxxl::stxxl::io\l_error \&gt;">
<polygon fill="none" stroke="black" points="252,-118.5 252,-165.5 362,-165.5 362,-118.5 252,-118.5"/>
<text text-anchor="start" x="260" y="-152.5" font-family="Helvetica,sans-Serif" font-size="10.00">stxxl::compat_unique</text>
<text text-anchor="start" x="260" y="-139.5" font-family="Helvetica,sans-Serif" font-size="10.00">_ptr&lt; stxxl::stxxl::io</text>
<text text-anchor="middle" x="307" y="-126.5" font-family="Helvetica,sans-Serif" font-size="10.00">_error &gt;</text>
</a>
</g>
<!-- Node1&#45;&gt;Node2 -->
<g id="edge2" class="edge"><title>Node1&#45;&gt;Node2</title>
<path fill="none" stroke="orange" stroke-dasharray="5,2" d="M120.16,-98.2557C160.992,-107.816 213.04,-120.001 251.827,-129.082"/>
<polygon fill="orange" stroke="orange" points="120.837,-94.8197 110.302,-95.9478 119.241,-101.635 120.837,-94.8197"/>
<text text-anchor="start" x="140" y="-139" font-family="Helvetica,sans-Serif" font-size="10.00"> &lt; stxxl::stxxl::io</text>
<text text-anchor="middle" x="177" y="-126" font-family="Helvetica,sans-Serif" font-size="10.00">_error &gt;</text>
</g>
<!-- Node3 -->
<g id="node5" class="node"><title>Node3</title>
<a xlink:href="structstxxl_1_1compat__unique__ptr.html" target="_top" xlink:title="stxxl::compat_unique\l_ptr\&lt; buf_istream_type \&gt;">
<polygon fill="none" stroke="black" points="244,-66 244,-100 370,-100 370,-66 244,-66"/>
<text text-anchor="start" x="252" y="-87" font-family="Helvetica,sans-Serif" font-size="10.00">stxxl::compat_unique</text>
<text text-anchor="middle" x="307" y="-74" font-family="Helvetica,sans-Serif" font-size="10.00">_ptr&lt; buf_istream_type &gt;</text>
</a>
</g>
<!-- Node1&#45;&gt;Node3 -->
<g id="edge4" class="edge"><title>Node1&#45;&gt;Node3</title>
<path fill="none" stroke="orange" stroke-dasharray="5,2" d="M120.748,-83C158.74,-83 206.291,-83 243.837,-83"/>
<polygon fill="orange" stroke="orange" points="120.303,-79.5001 110.302,-83 120.302,-86.5001 120.303,-79.5001"/>
<text text-anchor="middle" x="177" y="-87" font-family="Helvetica,sans-Serif" font-size="10.00"> &lt; buf_istream_type &gt;</text>
</g>
<!-- Node4 -->
<g id="node7" class="node"><title>Node4</title>
<a xlink:href="structstxxl_1_1compat__unique__ptr.html" target="_top" xlink:title="stxxl::compat_unique\l_ptr\&lt; stxxl::completion\l_handler_impl \&gt;">
<polygon fill="none" stroke="black" points="249,-0.5 249,-47.5 365,-47.5 365,-0.5 249,-0.5"/>
<text text-anchor="start" x="257" y="-34.5" font-family="Helvetica,sans-Serif" font-size="10.00">stxxl::compat_unique</text>
<text text-anchor="start" x="257" y="-21.5" font-family="Helvetica,sans-Serif" font-size="10.00">_ptr&lt; stxxl::completion</text>
<text text-anchor="middle" x="307" y="-8.5" font-family="Helvetica,sans-Serif" font-size="10.00">_handler_impl &gt;</text>
</a>
</g>
<!-- Node1&#45;&gt;Node4 -->
<g id="edge6" class="edge"><title>Node1&#45;&gt;Node4</title>
<path fill="none" stroke="orange" stroke-dasharray="5,2" d="M101.238,-62.1429C110.002,-58.7227 119.188,-55.4889 128,-53 167.537,-41.8334 213.28,-34.5155 248.627,-30.0242"/>
<polygon fill="orange" stroke="orange" points="99.893,-58.9113 91.9309,-65.9009 102.514,-65.4021 99.893,-58.9113"/>
<text text-anchor="start" x="133.5" y="-70" font-family="Helvetica,sans-Serif" font-size="10.00"> &lt; stxxl::completion</text>
<text text-anchor="middle" x="177" y="-57" font-family="Helvetica,sans-Serif" font-size="10.00">_handler_impl &gt;</text>
</g>
</g>
</svg>
