<?xml version="1.0" encoding="UTF-8" standalone="no"?>
<!DOCTYPE svg PUBLIC "-//W3C//DTD SVG 1.1//EN"
 "http://www.w3.org/Graphics/SVG/1.1/DTD/svg11.dtd">
<!-- Generated by graphviz version 2.26.3 (20100126.1600)
 -->
<!-- Title: stxxl::buffered_writer&lt; BlockType &gt;::batch_entry Pages: 1 -->
<svg width="170pt" height="216pt"
 viewBox="0.00 0.00 170.00 216.00" xmlns="http://www.w3.org/2000/svg" xmlns:xlink="http://www.w3.org/1999/xlink">
<g id="graph1" class="graph" transform="scale(1 1) rotate(0) translate(4 212)">
<title>stxxl::buffered_writer&lt; BlockType &gt;::batch_entry</title>
<!-- Node1 -->
<g id="node1" class="node"><title>Node1</title>
<polygon fill="#bfbfbf" stroke="black" points="0,-1 0,-35 138,-35 138,-1 0,-1"/>
<text text-anchor="start" x="8" y="-22" font-family="Helvetica,sans-Serif" font-size="10.00">stxxl::buffered_writer</text>
<text text-anchor="middle" x="69" y="-9" font-family="Helvetica,sans-Serif" font-size="10.00">&lt; BlockType &gt;::batch_entry</text>
</g>
<!-- Node2 -->
<g id="node2" class="node"><title>Node2</title>
<a xlink:href="structstxxl_1_1choose__int__types.html" target="_top" xlink:title="stxxl::choose_int_types\l\&lt; my_pointer_size \&gt;">
<polygon fill="none" stroke="black" points="9,-87 9,-121 129,-121 129,-87 9,-87"/>
<text text-anchor="start" x="17" y="-108" font-family="Helvetica,sans-Serif" font-size="10.00">stxxl::choose_int_types</text>
<text text-anchor="middle" x="69" y="-95" font-family="Helvetica,sans-Serif" font-size="10.00">&lt; my_pointer_size &gt;</text>
</a>
</g>
<!-- Node2&#45;&gt;Node1 -->
<g id="edge2" class="edge"><title>Node2&#45;&gt;Node1</title>
<path fill="none" stroke="#9a32cd" stroke-dasharray="5,2" d="M69,-76.342C69,-62.7741 69,-46.8607 69,-35.084"/>
<polygon fill="#9a32cd" stroke="#9a32cd" points="65.5001,-76.5966 69,-86.5966 72.5001,-76.5967 65.5001,-76.5966"/>
<text text-anchor="middle" x="84.5" y="-58.5" font-family="Helvetica,sans-Serif" font-size="10.00"> ibuffer</text>
</g>
<!-- Node3 -->
<g id="node4" class="node"><title>Node3</title>
<a xlink:href="structstxxl_1_1choose__int__types.html" target="_top" xlink:title="stxxl::choose_int_types\l\&lt; PtrSize \&gt;">
<polygon fill="none" stroke="black" points="9,-173 9,-207 129,-207 129,-173 9,-173"/>
<text text-anchor="start" x="17" y="-194" font-family="Helvetica,sans-Serif" font-size="10.00">stxxl::choose_int_types</text>
<text text-anchor="middle" x="69" y="-181" font-family="Helvetica,sans-Serif" font-size="10.00">&lt; PtrSize &gt;</text>
</a>
</g>
<!-- Node3&#45;&gt;Node2 -->
<g id="edge4" class="edge"><title>Node3&#45;&gt;Node2</title>
<path fill="none" stroke="orange" stroke-dasharray="5,2" d="M69,-162.342C69,-148.774 69,-132.861 69,-121.084"/>
<polygon fill="orange" stroke="orange" points="65.5001,-162.597 69,-172.597 72.5001,-162.597 65.5001,-162.597"/>
<text text-anchor="middle" x="115.5" y="-144.5" font-family="Helvetica,sans-Serif" font-size="10.00"> &lt; my_pointer_size &gt;</text>
</g>
</g>
</svg>
