<?xml version="1.0" encoding="UTF-8" standalone="no"?>
<!DOCTYPE svg PUBLIC "-//W3C//DTD SVG 1.1//EN"
 "http://www.w3.org/Graphics/SVG/1.1/DTD/svg11.dtd">
<!-- Generated by graphviz version 2.38.0 (20140413.2041)
 -->
<!-- Title: stxxl::ppq_local::minima_tree&lt; ParentType &gt;::head_comp Pages: 1 -->
<svg width="1159pt" height="539pt"
 viewBox="0.00 0.00 1159.00 538.66" xmlns="http://www.w3.org/2000/svg" xmlns:xlink="http://www.w3.org/1999/xlink">
<g id="graph0" class="graph" transform="scale(1 1) rotate(0) translate(4 534.658)">
<title>stxxl::ppq_local::minima_tree&lt; ParentType &gt;::head_comp</title>
<!-- Node1 -->
<g id="node1" class="node"><title>Node1</title>
<polygon fill="#bfbfbf" stroke="black" points="496.5,-470.658 496.5,-500.658 659.5,-500.658 659.5,-470.658 496.5,-470.658"/>
<text text-anchor="start" x="504.5" y="-488.658" font-family="Helvetica,sans-Serif" font-size="10.00">stxxl::ppq_local::minima</text>
<text text-anchor="middle" x="578" y="-477.658" font-family="Helvetica,sans-Serif" font-size="10.00">_tree&lt; ParentType &gt;::head_comp</text>
</g>
<!-- Node2 -->
<g id="node2" class="node"><title>Node2</title>
<g id="a_node2"><a xlink:href="classstxxl_1_1ppq__local_1_1minima__tree.html" target="_top" xlink:title="The minima_tree contains minima from all sources inside the PPQ. ">
<polygon fill="none" stroke="black" points="1029,-341.658 1029,-371.658 1151,-371.658 1151,-341.658 1029,-341.658"/>
<text text-anchor="start" x="1037" y="-359.658" font-family="Helvetica,sans-Serif" font-size="10.00">stxxl::ppq_local::minima</text>
<text text-anchor="middle" x="1090" y="-348.658" font-family="Helvetica,sans-Serif" font-size="10.00">_tree&lt; ParentType &gt;</text>
</a>
</g>
</g>
<!-- Node1&#45;&gt;Node2 -->
<g id="edge23" class="edge"><title>Node1&#45;&gt;Node2</title>
<path fill="none" stroke="#9a32cd" stroke-dasharray="5,2" d="M647.884,-502.799C724.43,-518.422 850.372,-533.799 950,-495.658 1012.47,-471.743 1060.76,-402.969 1079.97,-372.044"/>
<polygon fill="#9a32cd" stroke="#9a32cd" points="648.385,-499.328 637.879,-500.698 646.946,-506.178 648.385,-499.328"/>
<text text-anchor="middle" x="880" y="-522.658" font-family="Helvetica,sans-Serif" font-size="10.00"> m_head_comp</text>
</g>
<!-- Node10 -->
<g id="node10" class="node"><title>Node10</title>
<g id="a_node10"><a xlink:href="classstxxl_1_1winner__tree.html" target="_top" xlink:title="stxxl::winner_tree\l\&lt; stxxl::ppq_local::\lminima_tree::head_comp \&gt;">
<polygon fill="none" stroke="black" points="812.5,-276.158 812.5,-317.158 947.5,-317.158 947.5,-276.158 812.5,-276.158"/>
<text text-anchor="start" x="820.5" y="-305.158" font-family="Helvetica,sans-Serif" font-size="10.00">stxxl::winner_tree</text>
<text text-anchor="start" x="820.5" y="-294.158" font-family="Helvetica,sans-Serif" font-size="10.00">&lt; stxxl::ppq_local::</text>
<text text-anchor="middle" x="880" y="-283.158" font-family="Helvetica,sans-Serif" font-size="10.00">minima_tree::head_comp &gt;</text>
</a>
</g>
</g>
<!-- Node1&#45;&gt;Node10 -->
<g id="edge15" class="edge"><title>Node1&#45;&gt;Node10</title>
<path fill="none" stroke="#9a32cd" stroke-dasharray="5,2" d="M639.992,-467.444C647.45,-464.955 654.929,-462.332 662,-459.658 721.176,-437.275 751.565,-450.318 792,-401.658 813.909,-375.293 787.966,-352.918 810,-326.658 812.939,-323.156 816.364,-320.05 820.087,-317.299"/>
<polygon fill="#9a32cd" stroke="#9a32cd" points="638.655,-464.199 630.237,-470.632 640.829,-470.853 638.655,-464.199"/>
<text text-anchor="middle" x="736" y="-456.658" font-family="Helvetica,sans-Serif" font-size="10.00"> m_less</text>
</g>
<!-- Node2&#45;&gt;Node1 -->
<g id="edge1" class="edge"><title>Node2&#45;&gt;Node1</title>
<path fill="none" stroke="#9a32cd" stroke-dasharray="5,2" d="M1064.17,-378.596C1037.84,-400.463 994.034,-432.98 950,-448.658 854.262,-482.744 736.414,-488.937 659.584,-488.63"/>
<polygon fill="#9a32cd" stroke="#9a32cd" points="1066.71,-381.034 1072.08,-371.905 1062.19,-375.688 1066.71,-381.034"/>
<text text-anchor="middle" x="880" y="-483.658" font-family="Helvetica,sans-Serif" font-size="10.00"> m_parent</text>
</g>
<!-- Node3 -->
<g id="node3" class="node"><title>Node3</title>
<g id="a_node3"><a xlink:href="classstxxl_1_1winner__tree.html" target="_top" xlink:title="stxxl::winner_tree\l\&lt; stxxl::ppq_local::\lminima_tree::heaps_comp \&gt;">
<polygon fill="none" stroke="black" points="810,-336.158 810,-377.158 950,-377.158 950,-336.158 810,-336.158"/>
<text text-anchor="start" x="818" y="-365.158" font-family="Helvetica,sans-Serif" font-size="10.00">stxxl::winner_tree</text>
<text text-anchor="start" x="818" y="-354.158" font-family="Helvetica,sans-Serif" font-size="10.00">&lt; stxxl::ppq_local::</text>
<text text-anchor="middle" x="880" y="-343.158" font-family="Helvetica,sans-Serif" font-size="10.00">minima_tree::heaps_comp &gt;</text>
</a>
</g>
</g>
<!-- Node3&#45;&gt;Node2 -->
<g id="edge2" class="edge"><title>Node3&#45;&gt;Node2</title>
<path fill="none" stroke="#9a32cd" stroke-dasharray="5,2" d="M960.533,-356.658C983.178,-356.658 1007.46,-356.658 1028.76,-356.658"/>
<polygon fill="#9a32cd" stroke="#9a32cd" points="960.261,-353.158 950.261,-356.658 960.261,-360.158 960.261,-353.158"/>
<text text-anchor="middle" x="989.5" y="-359.658" font-family="Helvetica,sans-Serif" font-size="10.00"> m_heaps</text>
</g>
<!-- Node4 -->
<g id="node4" class="node"><title>Node4</title>
<g id="a_node4"><a xlink:href="structstxxl_1_1ppq__local_1_1minima__tree_1_1heaps__comp.html" target="_top" xlink:title="Comparator for the insertion heaps winner tree. ">
<polygon fill="none" stroke="black" points="494,-420.658 494,-450.658 662,-450.658 662,-420.658 494,-420.658"/>
<text text-anchor="start" x="502" y="-438.658" font-family="Helvetica,sans-Serif" font-size="10.00">stxxl::ppq_local::minima</text>
<text text-anchor="middle" x="578" y="-427.658" font-family="Helvetica,sans-Serif" font-size="10.00">_tree&lt; ParentType &gt;::heaps_comp</text>
</a>
</g>
</g>
<!-- Node4&#45;&gt;Node2 -->
<g id="edge11" class="edge"><title>Node4&#45;&gt;Node2</title>
<path fill="none" stroke="#9a32cd" stroke-dasharray="5,2" d="M672.381,-440.886C709.722,-441.616 753.038,-440.751 792,-435.658 884.584,-423.555 989.377,-391.082 1046.42,-371.745"/>
<polygon fill="#9a32cd" stroke="#9a32cd" points="672.096,-437.378 662.015,-440.64 671.929,-444.376 672.096,-437.378"/>
<text text-anchor="middle" x="880" y="-436.658" font-family="Helvetica,sans-Serif" font-size="10.00"> m_heaps_comp</text>
</g>
<!-- Node4&#45;&gt;Node3 -->
<g id="edge3" class="edge"><title>Node4&#45;&gt;Node3</title>
<path fill="none" stroke="#9a32cd" stroke-dasharray="5,2" d="M616.888,-416.07C635.483,-407.163 658.468,-397.181 680,-390.658 703.816,-383.442 762.439,-373.771 809.927,-366.587"/>
<polygon fill="#9a32cd" stroke="#9a32cd" points="615.32,-412.94 607.867,-420.47 618.389,-419.232 615.32,-412.94"/>
<text text-anchor="middle" x="736" y="-393.658" font-family="Helvetica,sans-Serif" font-size="10.00"> m_less</text>
</g>
<!-- Node5 -->
<g id="node5" class="node"><title>Node5</title>
<g id="a_node5"><a xlink:href="structstxxl_1_1winner__tree_1_1stats__type.html" target="_top" xlink:title="Collection of stats from the winner_tree. ">
<polygon fill="none" stroke="black" points="259,-263.658 259,-293.658 396,-293.658 396,-263.658 259,-263.658"/>
<text text-anchor="start" x="267" y="-281.658" font-family="Helvetica,sans-Serif" font-size="10.00">stxxl::winner_tree</text>
<text text-anchor="middle" x="327.5" y="-270.658" font-family="Helvetica,sans-Serif" font-size="10.00">&lt; Comparator &gt;::stats_type</text>
</a>
</g>
</g>
<!-- Node5&#45;&gt;Node3 -->
<g id="edge4" class="edge"><title>Node5&#45;&gt;Node3</title>
<path fill="none" stroke="#9a32cd" stroke-dasharray="5,2" d="M365.378,-298.383C398.12,-314.768 447.802,-336.912 494,-346.658 602.602,-369.568 732.242,-366.971 809.973,-362.314"/>
<polygon fill="#9a32cd" stroke="#9a32cd" points="366.697,-295.128 356.196,-293.717 363.525,-301.368 366.697,-295.128"/>
<text text-anchor="middle" x="578" y="-367.658" font-family="Helvetica,sans-Serif" font-size="10.00"> m_stats</text>
</g>
<!-- Node9 -->
<g id="node9" class="node"><title>Node9</title>
<g id="a_node9"><a xlink:href="classstxxl_1_1winner__tree.html" target="_top" xlink:title="The class winner_tree is a binary tournament tree. ">
<polygon fill="none" stroke="black" points="531,-198.658 531,-228.658 625,-228.658 625,-198.658 531,-198.658"/>
<text text-anchor="start" x="539" y="-216.658" font-family="Helvetica,sans-Serif" font-size="10.00">stxxl::winner_tree</text>
<text text-anchor="middle" x="578" y="-205.658" font-family="Helvetica,sans-Serif" font-size="10.00">&lt; Comparator &gt;</text>
</a>
</g>
</g>
<!-- Node5&#45;&gt;Node9 -->
<g id="edge9" class="edge"><title>Node5&#45;&gt;Node9</title>
<path fill="none" stroke="#9a32cd" stroke-dasharray="5,2" d="M395.913,-261.025C438.704,-249.832 492.959,-235.641 530.878,-225.722"/>
<polygon fill="#9a32cd" stroke="#9a32cd" points="394.924,-257.666 386.135,-263.582 396.696,-264.438 394.924,-257.666"/>
<text text-anchor="middle" x="445" y="-259.658" font-family="Helvetica,sans-Serif" font-size="10.00"> m_stats</text>
</g>
<!-- Node5&#45;&gt;Node10 -->
<g id="edge13" class="edge"><title>Node5&#45;&gt;Node10</title>
<path fill="none" stroke="#9a32cd" stroke-dasharray="5,2" d="M406.432,-282.203C477.65,-285.337 585.888,-289.838 680,-292.658 724.039,-293.977 773.573,-294.975 812.204,-295.644"/>
<polygon fill="#9a32cd" stroke="#9a32cd" points="406.344,-278.696 396.199,-281.751 406.035,-285.689 406.344,-278.696"/>
<text text-anchor="middle" x="578" y="-295.658" font-family="Helvetica,sans-Serif" font-size="10.00"> m_stats</text>
</g>
<!-- Node11 -->
<g id="node11" class="node"><title>Node11</title>
<g id="a_node11"><a xlink:href="classstxxl_1_1winner__tree.html" target="_top" xlink:title="stxxl::winner_tree\l\&lt; stxxl::ppq_local::\lminima_tree::ia_comp \&gt;">
<polygon fill="none" stroke="black" points="819,-79.158 819,-120.158 941,-120.158 941,-79.158 819,-79.158"/>
<text text-anchor="start" x="827" y="-108.158" font-family="Helvetica,sans-Serif" font-size="10.00">stxxl::winner_tree</text>
<text text-anchor="start" x="827" y="-97.158" font-family="Helvetica,sans-Serif" font-size="10.00">&lt; stxxl::ppq_local::</text>
<text text-anchor="middle" x="880" y="-86.158" font-family="Helvetica,sans-Serif" font-size="10.00">minima_tree::ia_comp &gt;</text>
</a>
</g>
</g>
<!-- Node5&#45;&gt;Node11 -->
<g id="edge18" class="edge"><title>Node5&#45;&gt;Node11</title>
<path fill="none" stroke="#9a32cd" stroke-dasharray="5,2" d="M346.203,-255.647C362.303,-235.823 387.529,-207.371 414,-187.658 445.883,-163.915 456.261,-160.148 494,-147.658 604.627,-111.044 741.557,-101.995 818.718,-99.9768"/>
<polygon fill="#9a32cd" stroke="#9a32cd" points="343.387,-253.564 339.885,-263.564 348.859,-257.931 343.387,-253.564"/>
<text text-anchor="middle" x="578" y="-150.658" font-family="Helvetica,sans-Serif" font-size="10.00"> m_stats</text>
</g>
<!-- Node6 -->
<g id="node6" class="node"><title>Node6</title>
<g id="a_node6"><a xlink:href="classstxxl_1_1fake__timer.html" target="_top" xlink:title="Class fake_timer is a drop&#45;in replacement for timer, which does nothing. ">
<polygon fill="none" stroke="black" points="15.5,-269.158 15.5,-288.158 104.5,-288.158 104.5,-269.158 15.5,-269.158"/>
<text text-anchor="middle" x="60" y="-276.158" font-family="Helvetica,sans-Serif" font-size="10.00">stxxl::fake_timer</text>
</a>
</g>
</g>
<!-- Node6&#45;&gt;Node5 -->
<g id="edge5" class="edge"><title>Node6&#45;&gt;Node5</title>
<path fill="none" stroke="#9a32cd" stroke-dasharray="5,2" d="M114.739,-278.658C156.284,-278.658 214.059,-278.658 258.768,-278.658"/>
<polygon fill="#9a32cd" stroke="#9a32cd" points="114.545,-275.158 104.545,-278.658 114.545,-282.158 114.545,-275.158"/>
<text text-anchor="middle" x="189.5" y="-303.658" font-family="Helvetica,sans-Serif" font-size="10.00"> remove_player_time</text>
<text text-anchor="middle" x="189.5" y="-292.658" font-family="Helvetica,sans-Serif" font-size="10.00">replay_time</text>
<text text-anchor="middle" x="189.5" y="-281.658" font-family="Helvetica,sans-Serif" font-size="10.00">double_num_slots_time</text>
</g>
<!-- Node7 -->
<g id="node7" class="node"><title>Node7</title>
<g id="a_node7"><a xlink:href="structstxxl_1_1choose__int__types.html" target="_top" xlink:title="stxxl::choose_int_types\l\&lt; my_pointer_size \&gt;">
<polygon fill="none" stroke="black" points="267.5,-162.658 267.5,-192.658 387.5,-192.658 387.5,-162.658 267.5,-162.658"/>
<text text-anchor="start" x="275.5" y="-180.658" font-family="Helvetica,sans-Serif" font-size="10.00">stxxl::choose_int_types</text>
<text text-anchor="middle" x="327.5" y="-169.658" font-family="Helvetica,sans-Serif" font-size="10.00">&lt; my_pointer_size &gt;</text>
</a>
</g>
</g>
<!-- Node7&#45;&gt;Node3 -->
<g id="edge6" class="edge"><title>Node7&#45;&gt;Node3</title>
<path fill="none" stroke="#9a32cd" stroke-dasharray="5,2" d="M371.867,-196.899C414.027,-215.763 472.263,-242.311 476,-246.658 494.427,-268.093 472.476,-289.335 494,-307.658 499.964,-312.735 700.501,-336.301 809.723,-348.81"/>
<polygon fill="#9a32cd" stroke="#9a32cd" points="373.166,-193.646 362.608,-192.763 370.311,-200.037 373.166,-193.646"/>
<text text-anchor="middle" x="578" y="-334.658" font-family="Helvetica,sans-Serif" font-size="10.00"> m_num_slots</text>
</g>
<!-- Node7&#45;&gt;Node9 -->
<g id="edge10" class="edge"><title>Node7&#45;&gt;Node9</title>
<path fill="none" stroke="#9a32cd" stroke-dasharray="5,2" d="M397.69,-187.681C440.117,-193.828 493.281,-201.53 530.666,-206.946"/>
<polygon fill="#9a32cd" stroke="#9a32cd" points="398.105,-184.205 387.706,-186.235 397.101,-191.133 398.105,-184.205"/>
<text text-anchor="middle" x="445" y="-202.658" font-family="Helvetica,sans-Serif" font-size="10.00"> m_num_slots</text>
</g>
<!-- Node7&#45;&gt;Node10 -->
<g id="edge14" class="edge"><title>Node7&#45;&gt;Node10</title>
<path fill="none" stroke="#9a32cd" stroke-dasharray="5,2" d="M397.873,-171.379C510.093,-162.451 725.588,-150.767 792,-185.658 829.715,-205.473 856.353,-249.631 869.548,-275.887"/>
<polygon fill="#9a32cd" stroke="#9a32cd" points="397.357,-167.909 387.672,-172.205 397.922,-174.886 397.357,-167.909"/>
<text text-anchor="middle" x="578" y="-168.658" font-family="Helvetica,sans-Serif" font-size="10.00"> m_num_slots</text>
</g>
<!-- Node7&#45;&gt;Node11 -->
<g id="edge19" class="edge"><title>Node7&#45;&gt;Node11</title>
<path fill="none" stroke="#9a32cd" stroke-dasharray="5,2" d="M356.851,-156.711C388.442,-134.788 441.949,-101.766 494,-88.658 606.016,-60.4489 742.169,-75.3201 818.875,-87.9753"/>
<polygon fill="#9a32cd" stroke="#9a32cd" points="354.695,-153.95 348.542,-162.575 358.73,-159.669 354.695,-153.95"/>
<text text-anchor="middle" x="578" y="-91.658" font-family="Helvetica,sans-Serif" font-size="10.00"> m_num_slots</text>
</g>
<!-- Node8 -->
<g id="node8" class="node"><title>Node8</title>
<g id="a_node8"><a xlink:href="structstxxl_1_1choose__int__types.html" target="_top" xlink:title="stxxl::choose_int_types\l\&lt; PtrSize \&gt;">
<polygon fill="none" stroke="black" points="0,-162.658 0,-192.658 120,-192.658 120,-162.658 0,-162.658"/>
<text text-anchor="start" x="8" y="-180.658" font-family="Helvetica,sans-Serif" font-size="10.00">stxxl::choose_int_types</text>
<text text-anchor="middle" x="60" y="-169.658" font-family="Helvetica,sans-Serif" font-size="10.00">&lt; PtrSize &gt;</text>
</a>
</g>
</g>
<!-- Node8&#45;&gt;Node7 -->
<g id="edge7" class="edge"><title>Node8&#45;&gt;Node7</title>
<path fill="none" stroke="orange" stroke-dasharray="5,2" d="M130.265,-177.658C172.86,-177.658 226.861,-177.658 267.428,-177.658"/>
<polygon fill="orange" stroke="orange" points="130.253,-174.158 120.253,-177.658 130.253,-181.158 130.253,-174.158"/>
<text text-anchor="middle" x="189.5" y="-180.658" font-family="Helvetica,sans-Serif" font-size="10.00"> &lt; my_pointer_size &gt;</text>
</g>
<!-- Node9&#45;&gt;Node3 -->
<g id="edge8" class="edge"><title>Node9&#45;&gt;Node3</title>
<path fill="none" stroke="orange" stroke-dasharray="5,2" d="M635.226,-226.84C690.177,-240.68 768.844,-263.352 792,-284.658 806.945,-298.409 795.677,-312.26 810,-326.658 813.501,-330.177 817.482,-333.312 821.725,-336.1"/>
<polygon fill="orange" stroke="orange" points="635.81,-223.378 625.26,-224.361 634.12,-230.171 635.81,-223.378"/>
<text text-anchor="start" x="690" y="-309.658" font-family="Helvetica,sans-Serif" font-size="10.00"> &lt; stxxl::ppq_local</text>
<text text-anchor="start" x="690" y="-298.658" font-family="Helvetica,sans-Serif" font-size="10.00">::minima_tree::heaps</text>
<text text-anchor="middle" x="736" y="-287.658" font-family="Helvetica,sans-Serif" font-size="10.00">_comp &gt;</text>
</g>
<!-- Node9&#45;&gt;Node10 -->
<g id="edge16" class="edge"><title>Node9&#45;&gt;Node10</title>
<path fill="none" stroke="orange" stroke-dasharray="5,2" d="M635.189,-197.902C679.613,-188.474 742.219,-182.06 792,-203.658 825.872,-218.354 852.575,-253.453 867.047,-276.081"/>
<polygon fill="orange" stroke="orange" points="634.148,-194.549 625.154,-200.149 635.677,-201.38 634.148,-194.549"/>
<text text-anchor="start" x="692.5" y="-228.658" font-family="Helvetica,sans-Serif" font-size="10.00"> &lt; stxxl::ppq_local</text>
<text text-anchor="start" x="692.5" y="-217.658" font-family="Helvetica,sans-Serif" font-size="10.00">::minima_tree::head</text>
<text text-anchor="middle" x="736" y="-206.658" font-family="Helvetica,sans-Serif" font-size="10.00">_comp &gt;</text>
</g>
<!-- Node9&#45;&gt;Node11 -->
<g id="edge21" class="edge"><title>Node9&#45;&gt;Node11</title>
<path fill="none" stroke="orange" stroke-dasharray="5,2" d="M634.758,-197.809C644.248,-193.926 653.706,-189.24 662,-183.658 671.921,-176.981 669.961,-170.157 680,-163.658 722.345,-136.242 777.374,-119.73 818.829,-110.364"/>
<polygon fill="orange" stroke="orange" points="633.388,-194.586 625.299,-201.429 635.89,-201.124 633.388,-194.586"/>
<text text-anchor="start" x="680" y="-177.658" font-family="Helvetica,sans-Serif" font-size="10.00"> &lt; stxxl::ppq_local</text>
<text text-anchor="middle" x="736" y="-166.658" font-family="Helvetica,sans-Serif" font-size="10.00">::minima_tree::ia_comp &gt;</text>
</g>
<!-- Node10&#45;&gt;Node2 -->
<g id="edge12" class="edge"><title>Node10&#45;&gt;Node2</title>
<path fill="none" stroke="#9a32cd" stroke-dasharray="5,2" d="M957.29,-318.665C983.755,-326.299 1012.8,-334.678 1036.87,-341.62"/>
<polygon fill="#9a32cd" stroke="#9a32cd" points="958.249,-315.299 947.671,-315.89 956.309,-322.025 958.249,-315.299"/>
<text text-anchor="middle" x="989.5" y="-337.658" font-family="Helvetica,sans-Serif" font-size="10.00"> m_head</text>
</g>
<!-- Node11&#45;&gt;Node2 -->
<g id="edge17" class="edge"><title>Node11&#45;&gt;Node2</title>
<path fill="none" stroke="#9a32cd" stroke-dasharray="5,2" d="M904.032,-128.115C948.039,-182.489 1042.71,-299.462 1076.61,-341.348"/>
<polygon fill="#9a32cd" stroke="#9a32cd" points="906.682,-125.826 897.67,-120.255 901.24,-130.23 906.682,-125.826"/>
<text text-anchor="middle" x="989.5" y="-262.658" font-family="Helvetica,sans-Serif" font-size="10.00"> m_ia</text>
</g>
<!-- Node12 -->
<g id="node12" class="node"><title>Node12</title>
<g id="a_node12"><a xlink:href="structstxxl_1_1ppq__local_1_1minima__tree_1_1ia__comp.html" target="_top" xlink:title="Comparator for the internal arrays winner tree. ">
<polygon fill="none" stroke="black" points="503.5,-3.658 503.5,-33.658 652.5,-33.658 652.5,-3.658 503.5,-3.658"/>
<text text-anchor="start" x="511.5" y="-21.658" font-family="Helvetica,sans-Serif" font-size="10.00">stxxl::ppq_local::minima</text>
<text text-anchor="middle" x="578" y="-10.658" font-family="Helvetica,sans-Serif" font-size="10.00">_tree&lt; ParentType &gt;::ia_comp</text>
</a>
</g>
</g>
<!-- Node12&#45;&gt;Node2 -->
<g id="edge22" class="edge"><title>Node12&#45;&gt;Node2</title>
<path fill="none" stroke="#9a32cd" stroke-dasharray="5,2" d="M662.78,-4.46522C744.571,4.50449 868.316,4.46823 950,-58.658 1046.89,-133.536 1079,-292.149 1086.86,-341.606"/>
<polygon fill="#9a32cd" stroke="#9a32cd" points="662.299,-0.997513 652.77,-5.63065 663.108,-7.95054 662.299,-0.997513"/>
<text text-anchor="middle" x="880" y="-61.658" font-family="Helvetica,sans-Serif" font-size="10.00"> m_ia_comp</text>
</g>
<!-- Node12&#45;&gt;Node11 -->
<g id="edge20" class="edge"><title>Node12&#45;&gt;Node11</title>
<path fill="none" stroke="#9a32cd" stroke-dasharray="5,2" d="M662.651,-27.5818C711.673,-33.4452 768.46,-41.514 792,-49.658 812.415,-56.7207 833.465,-68.6724 849.745,-79.1198"/>
<polygon fill="#9a32cd" stroke="#9a32cd" points="662.984,-24.0969 652.643,-26.4021 662.164,-31.0488 662.984,-24.0969"/>
<text text-anchor="middle" x="736" y="-52.658" font-family="Helvetica,sans-Serif" font-size="10.00"> m_less</text>
</g>
</g>
</svg>
