<?xml version="1.0" encoding="UTF-8" standalone="no"?>
<!DOCTYPE svg PUBLIC "-//W3C//DTD SVG 1.1//EN"
 "http://www.w3.org/Graphics/SVG/1.1/DTD/svg11.dtd">
<!-- Generated by graphviz version 2.26.3 (20100126.1600)
 -->
<!-- Title: stxxl::runs2bid_array_adaptor&lt; BlockSize, RunType, PosType &gt; Pages: 1 -->
<svg width="644pt" height="120pt"
 viewBox="0.00 0.00 644.00 120.00" xmlns="http://www.w3.org/2000/svg" xmlns:xlink="http://www.w3.org/1999/xlink">
<g id="graph1" class="graph" transform="scale(1 1) rotate(0) translate(4 116)">
<title>stxxl::runs2bid_array_adaptor&lt; BlockSize, RunType, PosType &gt;</title>
<!-- Node1 -->
<g id="node1" class="node"><title>Node1</title>
<polygon fill="#bfbfbf" stroke="black" points="522.5,-29.5 522.5,-76.5 635.5,-76.5 635.5,-29.5 522.5,-29.5"/>
<text text-anchor="start" x="530.5" y="-63.5" font-family="Helvetica,sans-Serif" font-size="10.00">stxxl::runs2bid_array</text>
<text text-anchor="start" x="530.5" y="-50.5" font-family="Helvetica,sans-Serif" font-size="10.00">_adaptor&lt; BlockSize,</text>
<text text-anchor="middle" x="579" y="-37.5" font-family="Helvetica,sans-Serif" font-size="10.00"> RunType, PosType &gt;</text>
</g>
<!-- Node2 -->
<g id="node2" class="node"><title>Node2</title>
<a xlink:href="structstxxl_1_1two2one__dim__array__adapter__base.html" target="_top" xlink:title="stxxl::two2one_dim\l_array_adapter_base\l\&lt; RunType *, BID\&lt; BlockSize\l \&gt;, PosType \&gt;">
<polygon fill="none" stroke="black" points="292.5,-52 292.5,-112 441.5,-112 441.5,-52 292.5,-52"/>
<text text-anchor="start" x="300.5" y="-99" font-family="Helvetica,sans-Serif" font-size="10.00">stxxl::two2one_dim</text>
<text text-anchor="start" x="300.5" y="-86" font-family="Helvetica,sans-Serif" font-size="10.00">_array_adapter_base</text>
<text text-anchor="start" x="300.5" y="-73" font-family="Helvetica,sans-Serif" font-size="10.00">&lt; RunType *, BID&lt; BlockSize</text>
<text text-anchor="middle" x="367" y="-60" font-family="Helvetica,sans-Serif" font-size="10.00"> &gt;, PosType &gt;</text>
</a>
</g>
<!-- Node2&#45;&gt;Node1 -->
<g id="edge2" class="edge"><title>Node2&#45;&gt;Node1</title>
<path fill="none" stroke="midnightblue" d="M451.787,-70.4018C475.466,-67.1626 500.618,-63.722 522.251,-60.7628"/>
<polygon fill="midnightblue" stroke="midnightblue" points="451.177,-66.9526 441.743,-71.7757 452.125,-73.888 451.177,-66.9526"/>
</g>
<!-- Node3 -->
<g id="node4" class="node"><title>Node3</title>
<a xlink:href="structstxxl_1_1two2one__dim__array__adapter__base.html" target="_top" xlink:title="stxxl::two2one_dim\l_array_adapter_base\l\&lt; one_dim_array_type,\l data_type, pos_type \&gt;">
<polygon fill="none" stroke="black" points="1.5,-52 1.5,-112 118.5,-112 118.5,-52 1.5,-52"/>
<text text-anchor="start" x="9.5" y="-99" font-family="Helvetica,sans-Serif" font-size="10.00">stxxl::two2one_dim</text>
<text text-anchor="start" x="9.5" y="-86" font-family="Helvetica,sans-Serif" font-size="10.00">_array_adapter_base</text>
<text text-anchor="start" x="9.5" y="-73" font-family="Helvetica,sans-Serif" font-size="10.00">&lt; one_dim_array_type,</text>
<text text-anchor="middle" x="60" y="-60" font-family="Helvetica,sans-Serif" font-size="10.00"> data_type, pos_type &gt;</text>
</a>
</g>
<!-- Node3&#45;&gt;Node2 -->
<g id="edge4" class="edge"><title>Node3&#45;&gt;Node2</title>
<path fill="none" stroke="orange" stroke-dasharray="5,2" d="M128.935,-82C177.513,-82 242.517,-82 292.325,-82"/>
<polygon fill="orange" stroke="orange" points="128.829,-78.5001 118.829,-82 128.829,-85.5001 128.829,-78.5001"/>
<text text-anchor="start" x="138" y="-99" font-family="Helvetica,sans-Serif" font-size="10.00"> &lt; RunType *, BID&lt; BlockSize</text>
<text text-anchor="middle" x="206" y="-86" font-family="Helvetica,sans-Serif" font-size="10.00"> &gt;, PosType &gt;</text>
</g>
<!-- Node4 -->
<g id="node6" class="node"><title>Node4</title>
<a xlink:href="structstxxl_1_1choose__int__types.html" target="_top" xlink:title="stxxl::choose_int_types\l\&lt; my_pointer_size \&gt;">
<polygon fill="none" stroke="black" points="307,-0 307,-34 427,-34 427,-0 307,-0"/>
<text text-anchor="start" x="315" y="-21" font-family="Helvetica,sans-Serif" font-size="10.00">stxxl::choose_int_types</text>
<text text-anchor="middle" x="367" y="-8" font-family="Helvetica,sans-Serif" font-size="10.00">&lt; my_pointer_size &gt;</text>
</a>
</g>
<!-- Node4&#45;&gt;Node1 -->
<g id="edge6" class="edge"><title>Node4&#45;&gt;Node1</title>
<path fill="none" stroke="#9a32cd" stroke-dasharray="5,2" d="M437.184,-28.918C464.824,-33.6116 496.145,-38.9304 522.31,-43.3734"/>
<polygon fill="#9a32cd" stroke="#9a32cd" points="437.628,-25.4435 427.184,-27.2199 436.457,-32.3447 437.628,-25.4435"/>
<text text-anchor="middle" x="482" y="-43" font-family="Helvetica,sans-Serif" font-size="10.00"> dim_size</text>
</g>
<!-- Node5 -->
<g id="node8" class="node"><title>Node5</title>
<a xlink:href="structstxxl_1_1choose__int__types.html" target="_top" xlink:title="stxxl::choose_int_types\l\&lt; PtrSize \&gt;">
<polygon fill="none" stroke="black" points="0,-0 0,-34 120,-34 120,-0 0,-0"/>
<text text-anchor="start" x="8" y="-21" font-family="Helvetica,sans-Serif" font-size="10.00">stxxl::choose_int_types</text>
<text text-anchor="middle" x="60" y="-8" font-family="Helvetica,sans-Serif" font-size="10.00">&lt; PtrSize &gt;</text>
</a>
</g>
<!-- Node5&#45;&gt;Node4 -->
<g id="edge8" class="edge"><title>Node5&#45;&gt;Node4</title>
<path fill="none" stroke="orange" stroke-dasharray="5,2" d="M130.349,-17C183.683,-17 256.199,-17 306.851,-17"/>
<polygon fill="orange" stroke="orange" points="130.287,-13.5001 120.287,-17 130.287,-20.5001 130.287,-13.5001"/>
<text text-anchor="middle" x="206" y="-21" font-family="Helvetica,sans-Serif" font-size="10.00"> &lt; my_pointer_size &gt;</text>
</g>
</g>
</svg>
