<?xml version="1.0" encoding="UTF-8" standalone="no"?>
<!DOCTYPE svg PUBLIC "-//W3C//DTD SVG 1.1//EN"
 "http://www.w3.org/Graphics/SVG/1.1/DTD/svg11.dtd">
<!-- Generated by graphviz version 2.38.0 (20140413.2041)
 -->
<!-- Title: stxxl::btree::normal_leaf&lt; KeyType, DataType, KeyCmp, LogNElem, BTreeType &gt;::metainfo_type Pages: 1 -->
<svg width="342pt" height="518pt"
 viewBox="0.00 0.00 342.00 518.00" xmlns="http://www.w3.org/2000/svg" xmlns:xlink="http://www.w3.org/1999/xlink">
<g id="graph0" class="graph" transform="scale(1 1) rotate(0) translate(4 514)">
<title>stxxl::btree::normal_leaf&lt; KeyType, DataType, KeyCmp, LogNElem, BTreeType &gt;::metainfo_type</title>
<!-- Node1 -->
<g id="node1" class="node"><title>Node1</title>
<polygon fill="#bfbfbf" stroke="black" points="0,-0.5 0,-52.5 164,-52.5 164,-0.5 0,-0.5"/>
<text text-anchor="start" x="8" y="-40.5" font-family="Helvetica,sans-Serif" font-size="10.00">stxxl::btree::normal</text>
<text text-anchor="start" x="8" y="-29.5" font-family="Helvetica,sans-Serif" font-size="10.00">_leaf&lt; KeyType, DataType,</text>
<text text-anchor="start" x="8" y="-18.5" font-family="Helvetica,sans-Serif" font-size="10.00"> KeyCmp, LogNElem, BTreeType</text>
<text text-anchor="middle" x="82" y="-7.5" font-family="Helvetica,sans-Serif" font-size="10.00"> &gt;::metainfo_type</text>
</g>
<!-- Node2 -->
<g id="node2" class="node"><title>Node2</title>
<g id="a_node2"><a xlink:href="structstxxl_1_1BID.html" target="_top" xlink:title="stxxl::BID\&lt; raw_size \&gt;">
<polygon fill="none" stroke="black" points="23,-122.5 23,-141.5 141,-141.5 141,-122.5 23,-122.5"/>
<text text-anchor="middle" x="82" y="-129.5" font-family="Helvetica,sans-Serif" font-size="10.00">stxxl::BID&lt; raw_size &gt;</text>
</a>
</g>
</g>
<!-- Node2&#45;&gt;Node1 -->
<g id="edge1" class="edge"><title>Node2&#45;&gt;Node1</title>
<path fill="none" stroke="#9a32cd" stroke-dasharray="5,2" d="M82,-112.019C82,-95.3174 82,-70.8784 82,-52.571"/>
<polygon fill="#9a32cd" stroke="#9a32cd" points="78.5001,-112.176 82,-122.176 85.5001,-112.176 78.5001,-112.176"/>
<text text-anchor="middle" x="93" y="-96" font-family="Helvetica,sans-Serif" font-size="10.00"> pred</text>
<text text-anchor="middle" x="93" y="-85" font-family="Helvetica,sans-Serif" font-size="10.00">succ</text>
<text text-anchor="middle" x="93" y="-74" font-family="Helvetica,sans-Serif" font-size="10.00">me</text>
</g>
<!-- Node3 -->
<g id="node3" class="node"><title>Node3</title>
<g id="a_node3"><a xlink:href="classstxxl_1_1file.html" target="_top" xlink:title="Defines interface of file. ">
<polygon fill="none" stroke="black" points="36,-256.5 36,-275.5 92,-275.5 92,-256.5 36,-256.5"/>
<text text-anchor="middle" x="64" y="-263.5" font-family="Helvetica,sans-Serif" font-size="10.00">stxxl::file</text>
</a>
</g>
</g>
<!-- Node3&#45;&gt;Node2 -->
<g id="edge2" class="edge"><title>Node3&#45;&gt;Node2</title>
<path fill="none" stroke="#9a32cd" stroke-dasharray="5,2" d="M59.2414,-246.597C55.9595,-231.091 52.867,-208.397 57,-189 60.7721,-171.297 70.5588,-152.411 76.7086,-141.72"/>
<polygon fill="#9a32cd" stroke="#9a32cd" points="55.8664,-247.535 61.564,-256.467 62.6803,-245.931 55.8664,-247.535"/>
<text text-anchor="middle" x="75" y="-196.5" font-family="Helvetica,sans-Serif" font-size="10.00"> storage</text>
</g>
<!-- Node9 -->
<g id="node9" class="node"><title>Node9</title>
<g id="a_node9"><a xlink:href="structstxxl_1_1BID.html" target="_top" xlink:title="Block identifier class. ">
<polygon fill="none" stroke="black" points="102,-189.5 102,-208.5 200,-208.5 200,-189.5 102,-189.5"/>
<text text-anchor="middle" x="151" y="-196.5" font-family="Helvetica,sans-Serif" font-size="10.00">stxxl::BID&lt; Size &gt;</text>
</a>
</g>
</g>
<!-- Node3&#45;&gt;Node9 -->
<g id="edge10" class="edge"><title>Node3&#45;&gt;Node9</title>
<path fill="none" stroke="#9a32cd" stroke-dasharray="5,2" d="M83.9862,-250.068C101.159,-237.238 125.321,-219.185 139.453,-208.627"/>
<polygon fill="#9a32cd" stroke="#9a32cd" points="81.6494,-247.445 75.7332,-256.234 85.8391,-253.052 81.6494,-247.445"/>
<text text-anchor="middle" x="131" y="-230" font-family="Helvetica,sans-Serif" font-size="10.00"> storage</text>
</g>
<!-- Node4 -->
<g id="node4" class="node"><title>Node4</title>
<g id="a_node4"><a xlink:href="classstxxl_1_1noncopyable.html" target="_top" xlink:title="stxxl::noncopyable">
<polygon fill="none" stroke="black" points="9,-485 9,-504 107,-504 107,-485 9,-485"/>
<text text-anchor="middle" x="58" y="-492" font-family="Helvetica,sans-Serif" font-size="10.00">stxxl::noncopyable</text>
</a>
</g>
</g>
<!-- Node4&#45;&gt;Node3 -->
<g id="edge3" class="edge"><title>Node4&#45;&gt;Node3</title>
<path fill="none" stroke="#8b1a1a" d="M56.1856,-474.64C53.4638,-443.154 49.1349,-377.92 54,-323 55.4989,-306.08 59.4978,-286.617 61.9607,-275.666"/>
<polygon fill="#8b1a1a" stroke="#8b1a1a" points="52.7332,-475.322 57.1275,-484.963 59.7043,-474.686 52.7332,-475.322"/>
</g>
<!-- Node6 -->
<g id="node6" class="node"><title>Node6</title>
<g id="a_node6"><a xlink:href="classstxxl_1_1mutex.html" target="_top" xlink:title="stxxl::mutex">
<polygon fill="none" stroke="black" points="63.5,-407 63.5,-426 134.5,-426 134.5,-407 63.5,-407"/>
<text text-anchor="middle" x="99" y="-414" font-family="Helvetica,sans-Serif" font-size="10.00">stxxl::mutex</text>
</a>
</g>
</g>
<!-- Node4&#45;&gt;Node6 -->
<g id="edge6" class="edge"><title>Node4&#45;&gt;Node6</title>
<path fill="none" stroke="#8b1a1a" d="M67.6449,-475.622C76.0563,-460.03 87.8943,-438.086 94.3516,-426.116"/>
<polygon fill="#8b1a1a" stroke="#8b1a1a" points="64.3708,-474.319 62.7032,-484.782 70.5315,-477.643 64.3708,-474.319"/>
</g>
<!-- Node5 -->
<g id="node5" class="node"><title>Node5</title>
<g id="a_node5"><a xlink:href="classstxxl_1_1atomic__counted__object.html" target="_top" xlink:title="Provides reference counting abilities for use with counting_ptr with mutex locking. ">
<polygon fill="none" stroke="black" points="63.5,-323.5 63.5,-353.5 176.5,-353.5 176.5,-323.5 63.5,-323.5"/>
<text text-anchor="start" x="71.5" y="-341.5" font-family="Helvetica,sans-Serif" font-size="10.00">stxxl::atomic_counted</text>
<text text-anchor="middle" x="120" y="-330.5" font-family="Helvetica,sans-Serif" font-size="10.00">_object</text>
</a>
</g>
</g>
<!-- Node5&#45;&gt;Node3 -->
<g id="edge4" class="edge"><title>Node5&#45;&gt;Node3</title>
<path fill="none" stroke="#9a32cd" stroke-dasharray="5,2" d="M102.433,-315.385C91.8301,-302.036 78.8981,-285.756 71.0641,-275.893"/>
<polygon fill="#9a32cd" stroke="#9a32cd" points="99.7071,-317.58 108.668,-323.233 105.188,-313.226 99.7071,-317.58"/>
<text text-anchor="middle" x="127" y="-297" font-family="Helvetica,sans-Serif" font-size="10.00"> m_request_ref</text>
</g>
<!-- Node6&#45;&gt;Node5 -->
<g id="edge5" class="edge"><title>Node6&#45;&gt;Node5</title>
<path fill="none" stroke="#9a32cd" stroke-dasharray="5,2" d="M97.3017,-396.72C97.1405,-388.929 97.67,-379.885 100,-372 101.915,-365.519 105.479,-359.044 109.074,-353.597"/>
<polygon fill="#9a32cd" stroke="#9a32cd" points="93.8227,-397.181 97.9028,-406.959 100.811,-396.771 93.8227,-397.181"/>
<text text-anchor="middle" x="159.5" y="-375" font-family="Helvetica,sans-Serif" font-size="10.00"> m_reference_count_mutex</text>
</g>
<!-- Node7 -->
<g id="node7" class="node"><title>Node7</title>
<g id="a_node7"><a xlink:href="structstxxl_1_1choose__int__types.html" target="_top" xlink:title="stxxl::choose_int_types\l\&lt; my_pointer_size \&gt;">
<polygon fill="none" stroke="black" points="181,-401.5 181,-431.5 301,-431.5 301,-401.5 181,-401.5"/>
<text text-anchor="start" x="189" y="-419.5" font-family="Helvetica,sans-Serif" font-size="10.00">stxxl::choose_int_types</text>
<text text-anchor="middle" x="241" y="-408.5" font-family="Helvetica,sans-Serif" font-size="10.00">&lt; my_pointer_size &gt;</text>
</a>
</g>
</g>
<!-- Node7&#45;&gt;Node5 -->
<g id="edge7" class="edge"><title>Node7&#45;&gt;Node5</title>
<path fill="none" stroke="#9a32cd" stroke-dasharray="5,2" d="M233.062,-391.714C229.687,-384.562 225.09,-377.233 219,-372 206.995,-361.684 191.631,-354.623 176.606,-349.797"/>
<polygon fill="#9a32cd" stroke="#9a32cd" points="229.898,-393.223 236.932,-401.145 236.374,-390.565 229.898,-393.223"/>
<text text-anchor="middle" x="271.5" y="-375" font-family="Helvetica,sans-Serif" font-size="10.00"> m_reference_count</text>
</g>
<!-- Node8 -->
<g id="node8" class="node"><title>Node8</title>
<g id="a_node8"><a xlink:href="structstxxl_1_1choose__int__types.html" target="_top" xlink:title="stxxl::choose_int_types\l\&lt; PtrSize \&gt;">
<polygon fill="none" stroke="black" points="181,-479.5 181,-509.5 301,-509.5 301,-479.5 181,-479.5"/>
<text text-anchor="start" x="189" y="-497.5" font-family="Helvetica,sans-Serif" font-size="10.00">stxxl::choose_int_types</text>
<text text-anchor="middle" x="241" y="-486.5" font-family="Helvetica,sans-Serif" font-size="10.00">&lt; PtrSize &gt;</text>
</a>
</g>
</g>
<!-- Node8&#45;&gt;Node7 -->
<g id="edge8" class="edge"><title>Node8&#45;&gt;Node7</title>
<path fill="none" stroke="orange" stroke-dasharray="5,2" d="M241,-469.09C241,-456.757 241,-442.224 241,-431.731"/>
<polygon fill="orange" stroke="orange" points="237.5,-469.205 241,-479.205 244.5,-469.205 237.5,-469.205"/>
<text text-anchor="middle" x="287.5" y="-453" font-family="Helvetica,sans-Serif" font-size="10.00"> &lt; my_pointer_size &gt;</text>
</g>
<!-- Node9&#45;&gt;Node2 -->
<g id="edge9" class="edge"><title>Node9&#45;&gt;Node2</title>
<path fill="none" stroke="orange" stroke-dasharray="5,2" d="M134.394,-182.356C120.829,-169.578 102.16,-151.992 91.1582,-141.627"/>
<polygon fill="orange" stroke="orange" points="132.015,-184.924 141.694,-189.234 136.815,-179.829 132.015,-184.924"/>
<text text-anchor="middle" x="151.5" y="-163" font-family="Helvetica,sans-Serif" font-size="10.00"> &lt; raw_size &gt;</text>
</g>
</g>
</svg>
