<?xml version="1.0" encoding="UTF-8" standalone="no"?>
<!DOCTYPE svg PUBLIC "-//W3C//DTD SVG 1.1//EN"
 "http://www.w3.org/Graphics/SVG/1.1/DTD/svg11.dtd">
<!-- Generated by graphviz version 2.38.0 (20140413.2041)
 -->
<!-- Title: stxxl::FR Pages: 1 -->
<svg width="781pt" height="134pt"
 viewBox="0.00 0.00 781.00 133.50" xmlns="http://www.w3.org/2000/svg" xmlns:xlink="http://www.w3.org/1999/xlink">
<g id="graph0" class="graph" transform="scale(1 1) rotate(0) translate(4 129.5)">
<title>stxxl::FR</title>
<!-- Node1 -->
<g id="node1" class="node"><title>Node1</title>
<polygon fill="#bfbfbf" stroke="black" points="716,-74 716,-93 773,-93 773,-74 716,-74"/>
<text text-anchor="middle" x="744.5" y="-81" font-family="Helvetica,sans-Serif" font-size="10.00">stxxl::FR</text>
</g>
<!-- Node2 -->
<g id="node2" class="node"><title>Node2</title>
<g id="a_node2"><a xlink:href="structstxxl_1_1striping.html" target="_top" xlink:title="Striping disk allocation scheme functor. ">
<polygon fill="none" stroke="black" points="562.5,-94 562.5,-113 637.5,-113 637.5,-94 562.5,-94"/>
<text text-anchor="middle" x="600" y="-101" font-family="Helvetica,sans-Serif" font-size="10.00">stxxl::striping</text>
</a>
</g>
</g>
<!-- Node2&#45;&gt;Node1 -->
<g id="edge1" class="edge"><title>Node2&#45;&gt;Node1</title>
<path fill="none" stroke="midnightblue" d="M647.762,-96.9369C670.323,-93.7704 696.613,-90.0806 715.93,-87.3695"/>
<polygon fill="midnightblue" stroke="midnightblue" points="647.114,-93.4935 637.697,-98.3495 648.087,-100.426 647.114,-93.4935"/>
</g>
<!-- Node3 -->
<g id="node3" class="node"><title>Node3</title>
<g id="a_node3"><a xlink:href="structstxxl_1_1choose__int__types.html" target="_top" xlink:title="stxxl::choose_int_types\l\&lt; my_pointer_size \&gt;">
<polygon fill="none" stroke="black" points="260.5,-88.5 260.5,-118.5 380.5,-118.5 380.5,-88.5 260.5,-88.5"/>
<text text-anchor="start" x="268.5" y="-106.5" font-family="Helvetica,sans-Serif" font-size="10.00">stxxl::choose_int_types</text>
<text text-anchor="middle" x="320.5" y="-95.5" font-family="Helvetica,sans-Serif" font-size="10.00">&lt; my_pointer_size &gt;</text>
</a>
</g>
</g>
<!-- Node3&#45;&gt;Node2 -->
<g id="edge2" class="edge"><title>Node3&#45;&gt;Node2</title>
<path fill="none" stroke="#9a32cd" stroke-dasharray="5,2" d="M390.959,-103.5C445.369,-103.5 518.904,-103.5 562.404,-103.5"/>
<polygon fill="#9a32cd" stroke="#9a32cd" points="390.69,-100 380.69,-103.5 390.69,-107 390.69,-100"/>
<text text-anchor="middle" x="462.5" y="-117.5" font-family="Helvetica,sans-Serif" font-size="10.00"> begin</text>
<text text-anchor="middle" x="462.5" y="-106.5" font-family="Helvetica,sans-Serif" font-size="10.00">diff</text>
</g>
<!-- Node4 -->
<g id="node4" class="node"><title>Node4</title>
<g id="a_node4"><a xlink:href="structstxxl_1_1choose__int__types.html" target="_top" xlink:title="stxxl::choose_int_types\l\&lt; PtrSize \&gt;">
<polygon fill="none" stroke="black" points="2,-88.5 2,-118.5 122,-118.5 122,-88.5 2,-88.5"/>
<text text-anchor="start" x="10" y="-106.5" font-family="Helvetica,sans-Serif" font-size="10.00">stxxl::choose_int_types</text>
<text text-anchor="middle" x="62" y="-95.5" font-family="Helvetica,sans-Serif" font-size="10.00">&lt; PtrSize &gt;</text>
</a>
</g>
</g>
<!-- Node4&#45;&gt;Node3 -->
<g id="edge3" class="edge"><title>Node4&#45;&gt;Node3</title>
<path fill="none" stroke="orange" stroke-dasharray="5,2" d="M132.37,-103.5C172.337,-103.5 222.047,-103.5 260.186,-103.5"/>
<polygon fill="orange" stroke="orange" points="132.168,-100 122.168,-103.5 132.168,-107 132.168,-100"/>
<text text-anchor="middle" x="188.5" y="-106.5" font-family="Helvetica,sans-Serif" font-size="10.00"> &lt; my_pointer_size &gt;</text>
</g>
<!-- Node5 -->
<g id="node5" class="node"><title>Node5</title>
<g id="a_node5"><a xlink:href="structstxxl_1_1random__number.html" target="_top" xlink:title="stxxl::random_number\l\&lt; random_uniform_fast \&gt;">
<polygon fill="none" stroke="black" points="537,-44.5 537,-74.5 663,-74.5 663,-44.5 537,-44.5"/>
<text text-anchor="start" x="545" y="-62.5" font-family="Helvetica,sans-Serif" font-size="10.00">stxxl::random_number</text>
<text text-anchor="middle" x="600" y="-51.5" font-family="Helvetica,sans-Serif" font-size="10.00">&lt; random_uniform_fast &gt;</text>
</a>
</g>
</g>
<!-- Node5&#45;&gt;Node1 -->
<g id="edge4" class="edge"><title>Node5&#45;&gt;Node1</title>
<path fill="none" stroke="#9a32cd" stroke-dasharray="5,2" d="M673.247,-71.3305C681.595,-72.7232 689.986,-74.1345 698,-75.5 703.693,-76.4699 709.782,-77.5271 715.595,-78.5457"/>
<polygon fill="#9a32cd" stroke="#9a32cd" points="673.551,-67.833 663.112,-69.6451 672.402,-74.7382 673.551,-67.833"/>
<text text-anchor="middle" x="689.5" y="-78.5" font-family="Helvetica,sans-Serif" font-size="10.00"> rnd</text>
</g>
<!-- Node6 -->
<g id="node6" class="node"><title>Node6</title>
<g id="a_node6"><a xlink:href="structstxxl_1_1random__uniform__fast.html" target="_top" xlink:title="Fast uniform [0.0, 1.0) pseudo&#45;random generator. ">
<polygon fill="none" stroke="black" points="253,-50 253,-69 388,-69 388,-50 253,-50"/>
<text text-anchor="middle" x="320.5" y="-57" font-family="Helvetica,sans-Serif" font-size="10.00">stxxl::random_uniform_fast</text>
</a>
</g>
</g>
<!-- Node6&#45;&gt;Node5 -->
<g id="edge5" class="edge"><title>Node6&#45;&gt;Node5</title>
<path fill="none" stroke="#9a32cd" stroke-dasharray="5,2" d="M398.575,-59.5C442.071,-59.5 495.719,-59.5 536.562,-59.5"/>
<polygon fill="#9a32cd" stroke="#9a32cd" points="398.321,-56.0001 388.321,-59.5 398.321,-63.0001 398.321,-56.0001"/>
<text text-anchor="middle" x="462.5" y="-62.5" font-family="Helvetica,sans-Serif" font-size="10.00"> uniform</text>
</g>
<!-- Node7 -->
<g id="node7" class="node"><title>Node7</title>
<g id="a_node7"><a xlink:href="structstxxl_1_1random__number32.html" target="_top" xlink:title="Fast uniform [0, 2^32) pseudo&#45;random generator with period 2^32, random bits: 32. ...">
<polygon fill="none" stroke="black" points="0,-50 0,-69 124,-69 124,-50 0,-50"/>
<text text-anchor="middle" x="62" y="-57" font-family="Helvetica,sans-Serif" font-size="10.00">stxxl::random_number32</text>
</a>
</g>
</g>
<!-- Node7&#45;&gt;Node6 -->
<g id="edge6" class="edge"><title>Node7&#45;&gt;Node6</title>
<path fill="none" stroke="#9a32cd" stroke-dasharray="5,2" d="M134.321,-59.5C171.308,-59.5 216.221,-59.5 252.552,-59.5"/>
<polygon fill="#9a32cd" stroke="#9a32cd" points="134.112,-56.0001 124.112,-59.5 134.112,-63.0001 134.112,-56.0001"/>
<text text-anchor="middle" x="188.5" y="-62.5" font-family="Helvetica,sans-Serif" font-size="10.00"> rnd32</text>
</g>
<!-- Node8 -->
<g id="node8" class="node"><title>Node8</title>
<g id="a_node8"><a xlink:href="structstxxl_1_1random__number.html" target="_top" xlink:title="Uniform [0, N) pseudo&#45;random generator. ">
<polygon fill="none" stroke="black" points="264,-0.5 264,-30.5 377,-30.5 377,-0.5 264,-0.5"/>
<text text-anchor="start" x="272" y="-18.5" font-family="Helvetica,sans-Serif" font-size="10.00">stxxl::random_number</text>
<text text-anchor="middle" x="320.5" y="-7.5" font-family="Helvetica,sans-Serif" font-size="10.00">&lt; UniformRGen &gt;</text>
</a>
</g>
</g>
<!-- Node8&#45;&gt;Node5 -->
<g id="edge7" class="edge"><title>Node8&#45;&gt;Node5</title>
<path fill="none" stroke="orange" stroke-dasharray="5,2" d="M387.384,-24.5095C425.828,-29.9325 475.228,-37.1856 519,-44.5 524.714,-45.4549 530.65,-46.4887 536.591,-47.5516"/>
<polygon fill="orange" stroke="orange" points="387.742,-21.0254 377.352,-23.1007 386.768,-27.9574 387.742,-21.0254"/>
<text text-anchor="middle" x="462.5" y="-47.5" font-family="Helvetica,sans-Serif" font-size="10.00"> &lt; random_uniform_fast &gt;</text>
</g>
</g>
</svg>
