<?xml version="1.0" encoding="UTF-8" standalone="no"?>
<!DOCTYPE svg PUBLIC "-//W3C//DTD SVG 1.1//EN"
 "http://www.w3.org/Graphics/SVG/1.1/DTD/svg11.dtd">
<!-- Generated by graphviz version 2.26.3 (20100126.1600)
 -->
<!-- Title: stxxl::priority_queue_local::ext_merger&lt; BlockType_, Cmp_, Arity_, AllocStr_ &gt;::sequence_state Pages: 1 -->
<svg width="1268pt" height="311pt"
 viewBox="0.00 0.00 1268.00 310.55" xmlns="http://www.w3.org/2000/svg" xmlns:xlink="http://www.w3.org/1999/xlink">
<g id="graph1" class="graph" transform="scale(1 1) rotate(0) translate(4 306.553)">
<title>stxxl::priority_queue_local::ext_merger&lt; BlockType_, Cmp_, Arity_, AllocStr_ &gt;::sequence_state</title>
<!-- Node1 -->
<g id="node1" class="node"><title>Node1</title>
<polygon fill="#bfbfbf" stroke="black" points="682,-110 682,-170 834,-170 834,-110 682,-110"/>
<text text-anchor="start" x="690" y="-157" font-family="Helvetica,sans-Serif" font-size="10.00">stxxl::priority_queue</text>
<text text-anchor="start" x="690" y="-144" font-family="Helvetica,sans-Serif" font-size="10.00">_local::ext_merger&lt; BlockType</text>
<text text-anchor="start" x="690" y="-131" font-family="Helvetica,sans-Serif" font-size="10.00">_, Cmp_, Arity_, AllocStr</text>
<text text-anchor="middle" x="758" y="-118" font-family="Helvetica,sans-Serif" font-size="10.00">_ &gt;::sequence_state</text>
</g>
<!-- Node3 -->
<g id="node4" class="node"><title>Node3</title>
<a xlink:href="classstxxl_1_1priority__queue__local_1_1ext__merger.html" target="_top" xlink:title="External merger, based on the loser tree data structure. ">
<polygon fill="none" stroke="black" points="1108,-131.5 1108,-178.5 1260,-178.5 1260,-131.5 1108,-131.5"/>
<text text-anchor="start" x="1116" y="-165.5" font-family="Helvetica,sans-Serif" font-size="10.00">stxxl::priority_queue</text>
<text text-anchor="start" x="1116" y="-152.5" font-family="Helvetica,sans-Serif" font-size="10.00">_local::ext_merger&lt; BlockType</text>
<text text-anchor="middle" x="1184" y="-139.5" font-family="Helvetica,sans-Serif" font-size="10.00">_, Cmp_, Arity_, AllocStr_ &gt;</text>
</a>
</g>
<!-- Node1&#45;&gt;Node3 -->
<g id="edge34" class="edge"><title>Node1&#45;&gt;Node3</title>
<path fill="none" stroke="#9a32cd" stroke-dasharray="5,2" d="M843.928,-157.069C846.646,-157.412 849.341,-157.724 852,-158 939.433,-167.075 1040.51,-164.273 1107.95,-160.525"/>
<polygon fill="#9a32cd" stroke="#9a32cd" points="844.405,-153.601 834.02,-155.702 843.448,-160.536 844.405,-153.601"/>
<text text-anchor="middle" x="928" y="-168" font-family="Helvetica,sans-Serif" font-size="10.00"> states</text>
</g>
<!-- Node2 -->
<g id="node2" class="node"><title>Node2</title>
<a xlink:href="classstxxl_1_1noncopyable.html" target="_top" xlink:title="stxxl::noncopyable">
<polygon fill="none" stroke="black" points="307,-238.5 307,-259.5 405,-259.5 405,-238.5 307,-238.5"/>
<text text-anchor="middle" x="356" y="-246.5" font-family="Helvetica,sans-Serif" font-size="10.00">stxxl::noncopyable</text>
</a>
</g>
<!-- Node2&#45;&gt;Node1 -->
<g id="edge2" class="edge"><title>Node2&#45;&gt;Node1</title>
<path fill="none" stroke="#8b1a1a" d="M415.155,-239.197C491.403,-226.133 619.468,-202.617 664,-185 672.718,-181.551 673.704,-178.368 682,-174 684.43,-172.721 686.918,-171.444 689.442,-170.176"/>
<polygon fill="#8b1a1a" stroke="#8b1a1a" points="414.48,-235.761 405.21,-240.892 415.656,-242.662 414.48,-235.761"/>
</g>
<!-- Node2&#45;&gt;Node3 -->
<g id="edge6" class="edge"><title>Node2&#45;&gt;Node3</title>
<path fill="none" stroke="#8b1a1a" d="M385.92,-263.951C400.157,-270.464 417.616,-277.601 434,-282 475.528,-293.15 487.084,-291.328 530,-294 740.832,-307.126 799.002,-309.972 1004,-259 1043.28,-249.232 1054.5,-248.453 1090,-229 1115.32,-215.127 1140.85,-194.503 1158.91,-178.549"/>
<polygon fill="#8b1a1a" stroke="#8b1a1a" points="387.169,-260.671 376.631,-259.583 384.19,-267.006 387.169,-260.671"/>
</g>
<!-- Node4 -->
<g id="node7" class="node"><title>Node4</title>
<a xlink:href="classstxxl_1_1read__write__pool.html" target="_top" xlink:title="Implements dynamically resizable buffered writing and prefetched reading pool. ">
<polygon fill="none" stroke="black" points="872,-216 872,-250 984,-250 984,-216 872,-216"/>
<text text-anchor="start" x="880" y="-237" font-family="Helvetica,sans-Serif" font-size="10.00">stxxl::read_write_pool</text>
<text text-anchor="middle" x="928" y="-224" font-family="Helvetica,sans-Serif" font-size="10.00">&lt; BlockType &gt;</text>
</a>
</g>
<!-- Node2&#45;&gt;Node4 -->
<g id="edge10" class="edge"><title>Node2&#45;&gt;Node4</title>
<path fill="none" stroke="#8b1a1a" d="M415.024,-259.936C421.421,-261.019 427.841,-262.063 434,-263 609.758,-289.739 659.281,-293.848 834,-261 848.392,-258.294 863.723,-254.246 877.737,-250.064"/>
<polygon fill="#8b1a1a" stroke="#8b1a1a" points="415.482,-256.464 405.032,-258.212 414.291,-263.362 415.482,-256.464"/>
</g>
<!-- Node5 -->
<g id="node10" class="node"><title>Node5</title>
<a xlink:href="classstxxl_1_1prefetch__pool.html" target="_top" xlink:title="Implements dynamically resizable prefetching pool. ">
<polygon fill="none" stroke="black" points="546,-142 546,-176 648,-176 648,-142 546,-142"/>
<text text-anchor="start" x="554" y="-163" font-family="Helvetica,sans-Serif" font-size="10.00">stxxl::prefetch_pool</text>
<text text-anchor="middle" x="597" y="-150" font-family="Helvetica,sans-Serif" font-size="10.00">&lt; BlockType &gt;</text>
</a>
</g>
<!-- Node2&#45;&gt;Node5 -->
<g id="edge14" class="edge"><title>Node2&#45;&gt;Node5</title>
<path fill="none" stroke="#8b1a1a" d="M375.437,-231.492C390.413,-218.93 412.185,-202.589 434,-193 469.594,-177.354 512.78,-168.763 545.756,-164.133"/>
<polygon fill="#8b1a1a" stroke="#8b1a1a" points="372.745,-229.192 367.456,-238.373 377.315,-234.494 372.745,-229.192"/>
</g>
<!-- Node10 -->
<g id="node21" class="node"><title>Node10</title>
<a xlink:href="classstxxl_1_1write__pool.html" target="_top" xlink:title="Implements dynamically resizable buffered writing pool. ">
<polygon fill="none" stroke="black" points="550,-232 550,-266 644,-266 644,-232 550,-232"/>
<text text-anchor="start" x="558" y="-253" font-family="Helvetica,sans-Serif" font-size="10.00">stxxl::write_pool&lt;</text>
<text text-anchor="middle" x="597" y="-240" font-family="Helvetica,sans-Serif" font-size="10.00"> BlockType &gt;</text>
</a>
</g>
<!-- Node2&#45;&gt;Node10 -->
<g id="edge26" class="edge"><title>Node2&#45;&gt;Node10</title>
<path fill="none" stroke="#8b1a1a" d="M415.281,-249C456.664,-249 511.164,-249 549.65,-249"/>
<polygon fill="#8b1a1a" stroke="#8b1a1a" points="415.06,-245.5 405.06,-249 415.06,-252.5 415.06,-245.5"/>
</g>
<!-- Node3&#45;&gt;Node1 -->
<g id="edge4" class="edge"><title>Node3&#45;&gt;Node1</title>
<path fill="none" stroke="#9a32cd" stroke-dasharray="5,2" d="M1097.51,-149.577C1067.87,-147.883 1034.5,-146.157 1004,-145 947.12,-142.843 882.805,-141.576 834.205,-140.858"/>
<polygon fill="#9a32cd" stroke="#9a32cd" points="1097.64,-153.09 1107.83,-150.174 1098.05,-146.102 1097.64,-153.09"/>
<text text-anchor="middle" x="928" y="-149" font-family="Helvetica,sans-Serif" font-size="10.00"> merger</text>
</g>
<!-- Node4&#45;&gt;Node3 -->
<g id="edge8" class="edge"><title>Node4&#45;&gt;Node3</title>
<path fill="none" stroke="#9a32cd" stroke-dasharray="5,2" d="M993.917,-219.597C1023.58,-212.937 1058.86,-204.138 1090,-194 1103.61,-189.569 1118.02,-184.038 1131.35,-178.546"/>
<polygon fill="#9a32cd" stroke="#9a32cd" points="993.093,-216.195 984.085,-221.773 994.605,-223.03 993.093,-216.195"/>
<text text-anchor="middle" x="1056" y="-216" font-family="Helvetica,sans-Serif" font-size="10.00"> pool</text>
</g>
<!-- Node5&#45;&gt;Node4 -->
<g id="edge12" class="edge"><title>Node5&#45;&gt;Node4</title>
<path fill="none" stroke="#9a32cd" stroke-dasharray="5,2" d="M658.256,-172.695C719.389,-186.362 812.529,-207.185 871.813,-220.439"/>
<polygon fill="#9a32cd" stroke="#9a32cd" points="658.878,-169.247 648.356,-170.481 657.351,-176.079 658.878,-169.247"/>
<text text-anchor="middle" x="758" y="-215" font-family="Helvetica,sans-Serif" font-size="10.00"> p_pool</text>
</g>
<!-- Node6 -->
<g id="node13" class="node"><title>Node6</title>
<a xlink:href="structstxxl_1_1choose__int__types.html" target="_top" xlink:title="stxxl::choose_int_types\l\&lt; my_pointer_size \&gt;">
<polygon fill="none" stroke="black" points="296,-97 296,-131 416,-131 416,-97 296,-97"/>
<text text-anchor="start" x="304" y="-118" font-family="Helvetica,sans-Serif" font-size="10.00">stxxl::choose_int_types</text>
<text text-anchor="middle" x="356" y="-105" font-family="Helvetica,sans-Serif" font-size="10.00">&lt; my_pointer_size &gt;</text>
</a>
</g>
<!-- Node6&#45;&gt;Node1 -->
<g id="edge36" class="edge"><title>Node6&#45;&gt;Node1</title>
<path fill="none" stroke="#9a32cd" stroke-dasharray="5,2" d="M426.236,-112.115C428.857,-112.071 431.452,-112.033 434,-112 468.664,-111.556 477.389,-110.037 512,-112 569.077,-115.238 633.246,-122.669 681.732,-129.062"/>
<polygon fill="#9a32cd" stroke="#9a32cd" points="425.974,-108.619 416.041,-112.305 426.105,-115.618 425.974,-108.619"/>
<text text-anchor="middle" x="473" y="-116" font-family="Helvetica,sans-Serif" font-size="10.00"> current</text>
</g>
<!-- Node6&#45;&gt;Node3 -->
<g id="edge32" class="edge"><title>Node6&#45;&gt;Node3</title>
<path fill="none" stroke="#9a32cd" stroke-dasharray="5,2" d="M426.453,-103.114C492.334,-93.519 593.558,-80.2714 682,-75 749.436,-70.9806 766.87,-67.4257 834,-75 929.694,-85.7972 1037.36,-112.7 1107.7,-132.336"/>
<polygon fill="#9a32cd" stroke="#9a32cd" points="425.576,-99.7048 416.191,-104.62 426.593,-106.631 425.576,-99.7048"/>
<text text-anchor="middle" x="758" y="-92" font-family="Helvetica,sans-Serif" font-size="10.00"> k</text>
<text text-anchor="middle" x="758" y="-79" font-family="Helvetica,sans-Serif" font-size="10.00">log_k</text>
</g>
<!-- Node6&#45;&gt;Node5 -->
<g id="edge16" class="edge"><title>Node6&#45;&gt;Node5</title>
<path fill="none" stroke="#9a32cd" stroke-dasharray="5,2" d="M426.231,-127.114C464.463,-134.252 510.921,-142.927 545.722,-149.425"/>
<polygon fill="#9a32cd" stroke="#9a32cd" points="426.665,-123.634 416.193,-125.239 425.38,-130.515 426.665,-123.634"/>
<text text-anchor="middle" x="473" y="-145" font-family="Helvetica,sans-Serif" font-size="10.00"> free_blocks_size</text>
</g>
<!-- Node7 -->
<g id="node15" class="node"><title>Node7</title>
<a xlink:href="structstxxl_1_1choose__int__types.html" target="_top" xlink:title="stxxl::choose_int_types\l\&lt; PtrSize \&gt;">
<polygon fill="none" stroke="black" points="17,-97 17,-131 137,-131 137,-97 17,-97"/>
<text text-anchor="start" x="25" y="-118" font-family="Helvetica,sans-Serif" font-size="10.00">stxxl::choose_int_types</text>
<text text-anchor="middle" x="77" y="-105" font-family="Helvetica,sans-Serif" font-size="10.00">&lt; PtrSize &gt;</text>
</a>
</g>
<!-- Node7&#45;&gt;Node6 -->
<g id="edge18" class="edge"><title>Node7&#45;&gt;Node6</title>
<path fill="none" stroke="orange" stroke-dasharray="5,2" d="M147.35,-114C193.165,-114 252.302,-114 295.913,-114"/>
<polygon fill="orange" stroke="orange" points="147.195,-110.5 137.195,-114 147.195,-117.5 147.195,-110.5"/>
<text text-anchor="middle" x="225" y="-118" font-family="Helvetica,sans-Serif" font-size="10.00"> &lt; my_pointer_size &gt;</text>
</g>
<!-- Node8 -->
<g id="node17" class="node"><title>Node8</title>
<a xlink:href="structstxxl_1_1compat__hash__map.html" target="_top" xlink:title="stxxl::compat_hash\l_map\&lt; bid_type, busy\l_entry, bid_hash \&gt;">
<polygon fill="none" stroke="black" points="299.5,-24.5 299.5,-71.5 412.5,-71.5 412.5,-24.5 299.5,-24.5"/>
<text text-anchor="start" x="307.5" y="-58.5" font-family="Helvetica,sans-Serif" font-size="10.00">stxxl::compat_hash</text>
<text text-anchor="start" x="307.5" y="-45.5" font-family="Helvetica,sans-Serif" font-size="10.00">_map&lt; bid_type, busy</text>
<text text-anchor="middle" x="356" y="-32.5" font-family="Helvetica,sans-Serif" font-size="10.00">_entry, bid_hash &gt;</text>
</a>
</g>
<!-- Node8&#45;&gt;Node5 -->
<g id="edge20" class="edge"><title>Node8&#45;&gt;Node5</title>
<path fill="none" stroke="#9a32cd" stroke-dasharray="5,2" d="M422.593,-52.9696C451.319,-57.1602 484.551,-64.8619 512,-79 541.726,-94.3109 568.444,-123.119 583.683,-141.665"/>
<polygon fill="#9a32cd" stroke="#9a32cd" points="423.014,-49.4948 412.637,-51.6289 422.08,-56.4322 423.014,-49.4948"/>
<text text-anchor="middle" x="473" y="-83" font-family="Helvetica,sans-Serif" font-size="10.00"> busy_blocks</text>
</g>
<!-- Node9 -->
<g id="node19" class="node"><title>Node9</title>
<a xlink:href="structstxxl_1_1compat__hash__map.html" target="_top" xlink:title="stxxl::compat_hash\l_map\&lt; KeyType, MappedType,\l HashType \&gt;">
<polygon fill="none" stroke="black" points="0,-24.5 0,-71.5 154,-71.5 154,-24.5 0,-24.5"/>
<text text-anchor="start" x="8" y="-58.5" font-family="Helvetica,sans-Serif" font-size="10.00">stxxl::compat_hash</text>
<text text-anchor="start" x="8" y="-45.5" font-family="Helvetica,sans-Serif" font-size="10.00">_map&lt; KeyType, MappedType,</text>
<text text-anchor="middle" x="77" y="-32.5" font-family="Helvetica,sans-Serif" font-size="10.00"> HashType &gt;</text>
</a>
</g>
<!-- Node9&#45;&gt;Node8 -->
<g id="edge22" class="edge"><title>Node9&#45;&gt;Node8</title>
<path fill="none" stroke="orange" stroke-dasharray="5,2" d="M164.478,-48C208.505,-48 260.6,-48 299.336,-48"/>
<polygon fill="orange" stroke="orange" points="164.347,-44.5001 154.347,-48 164.347,-51.5001 164.347,-44.5001"/>
<text text-anchor="start" x="172" y="-65" font-family="Helvetica,sans-Serif" font-size="10.00"> &lt; bid_type, busy_entry,</text>
<text text-anchor="middle" x="225" y="-52" font-family="Helvetica,sans-Serif" font-size="10.00"> bid_hash &gt;</text>
</g>
<!-- Node10&#45;&gt;Node4 -->
<g id="edge24" class="edge"><title>Node10&#45;&gt;Node4</title>
<path fill="none" stroke="#9a32cd" stroke-dasharray="5,2" d="M654.305,-246.23C715.362,-243.279 811.392,-238.637 871.96,-235.709"/>
<polygon fill="#9a32cd" stroke="#9a32cd" points="653.892,-242.746 644.073,-246.725 654.23,-249.738 653.892,-242.746"/>
<text text-anchor="middle" x="758" y="-248" font-family="Helvetica,sans-Serif" font-size="10.00"> w_pool</text>
</g>
<!-- Node11 -->
<g id="node24" class="node"><title>Node11</title>
<a xlink:href="classstxxl_1_1priority__queue__local_1_1internal__bounded__stack.html" target="_top" xlink:title="stxxl::priority_queue\l_local::internal_bounded\l_stack\&lt; unsigned_type, arity \&gt;">
<polygon fill="none" stroke="black" points="852,-0.5 852,-47.5 1004,-47.5 1004,-0.5 852,-0.5"/>
<text text-anchor="start" x="860" y="-34.5" font-family="Helvetica,sans-Serif" font-size="10.00">stxxl::priority_queue</text>
<text text-anchor="start" x="860" y="-21.5" font-family="Helvetica,sans-Serif" font-size="10.00">_local::internal_bounded</text>
<text text-anchor="middle" x="928" y="-8.5" font-family="Helvetica,sans-Serif" font-size="10.00">_stack&lt; unsigned_type, arity &gt;</text>
</a>
</g>
<!-- Node11&#45;&gt;Node3 -->
<g id="edge28" class="edge"><title>Node11&#45;&gt;Node3</title>
<path fill="none" stroke="#9a32cd" stroke-dasharray="5,2" d="M1014.13,-26.224C1039.74,-29.7395 1067.06,-36.4915 1090,-49 1125.42,-68.3115 1154.03,-106.383 1170.03,-131.252"/>
<polygon fill="#9a32cd" stroke="#9a32cd" points="1014.38,-22.7293 1004.03,-24.9891 1013.53,-29.6775 1014.38,-22.7293"/>
<text text-anchor="middle" x="1056" y="-53" font-family="Helvetica,sans-Serif" font-size="10.00"> free_segments</text>
</g>
<!-- Node12 -->
<g id="node26" class="node"><title>Node12</title>
<a xlink:href="classstxxl_1_1priority__queue__local_1_1internal__bounded__stack.html" target="_top" xlink:title="Similar to std::stack, with the following differences: ">
<polygon fill="none" stroke="black" points="530,-0.5 530,-47.5 664,-47.5 664,-0.5 530,-0.5"/>
<text text-anchor="start" x="538" y="-34.5" font-family="Helvetica,sans-Serif" font-size="10.00">stxxl::priority_queue</text>
<text text-anchor="start" x="538" y="-21.5" font-family="Helvetica,sans-Serif" font-size="10.00">_local::internal_bounded</text>
<text text-anchor="middle" x="597" y="-8.5" font-family="Helvetica,sans-Serif" font-size="10.00">_stack&lt; Tp_, max_size_ &gt;</text>
</a>
</g>
<!-- Node12&#45;&gt;Node11 -->
<g id="edge30" class="edge"><title>Node12&#45;&gt;Node11</title>
<path fill="none" stroke="orange" stroke-dasharray="5,2" d="M674.486,-24C727.909,-24 798.586,-24 851.741,-24"/>
<polygon fill="orange" stroke="orange" points="674.382,-20.5001 664.382,-24 674.382,-27.5001 674.382,-20.5001"/>
<text text-anchor="middle" x="758" y="-28" font-family="Helvetica,sans-Serif" font-size="10.00"> &lt; unsigned_type, arity &gt;</text>
</g>
</g>
</svg>
