<?xml version="1.0" encoding="UTF-8" standalone="no"?>
<!DOCTYPE svg PUBLIC "-//W3C//DTD SVG 1.1//EN"
 "http://www.w3.org/Graphics/SVG/1.1/DTD/svg11.dtd">
<!-- Generated by graphviz version 2.38.0 (20140413.2041)
 -->
<!-- Title: stxxl::striping Pages: 1 -->
<svg width="219pt" height="140pt"
 viewBox="0.00 0.00 218.50 140.00" xmlns="http://www.w3.org/2000/svg" xmlns:xlink="http://www.w3.org/1999/xlink">
<g id="graph0" class="graph" transform="scale(1 1) rotate(0) translate(4 136)">
<title>stxxl::striping</title>
<!-- Node1 -->
<g id="node1" class="node"><title>Node1</title>
<polygon fill="#bfbfbf" stroke="black" points="67,-112.5 67,-131.5 142,-131.5 142,-112.5 67,-112.5"/>
<text text-anchor="middle" x="104.5" y="-119.5" font-family="Helvetica,sans-Serif" font-size="10.00">stxxl::striping</text>
</g>
<!-- Node2 -->
<g id="node2" class="node"><title>Node2</title>
<g id="a_node2"><a xlink:href="structstxxl_1_1FR.html" target="_top" xlink:title="Fully randomized disk allocation scheme functor. ">
<polygon fill="none" stroke="black" points="0,-56.5 0,-75.5 57,-75.5 57,-56.5 0,-56.5"/>
<text text-anchor="middle" x="28.5" y="-63.5" font-family="Helvetica,sans-Serif" font-size="10.00">stxxl::FR</text>
</a>
</g>
</g>
<!-- Node1&#45;&gt;Node2 -->
<g id="edge1" class="edge"><title>Node1&#45;&gt;Node2</title>
<path fill="none" stroke="midnightblue" d="M83.9242,-106.38C70.188,-96.6204 52.5747,-84.1057 40.9329,-75.8339"/>
<polygon fill="midnightblue" stroke="midnightblue" points="82.1102,-109.385 92.2893,-112.324 86.1647,-103.679 82.1102,-109.385"/>
</g>
<!-- Node3 -->
<g id="node3" class="node"><title>Node3</title>
<g id="a_node3"><a xlink:href="structstxxl_1_1RC.html" target="_top" xlink:title="Randomized cycling disk allocation scheme functor. ">
<polygon fill="none" stroke="black" points="75,-56.5 75,-75.5 134,-75.5 134,-56.5 75,-56.5"/>
<text text-anchor="middle" x="104.5" y="-63.5" font-family="Helvetica,sans-Serif" font-size="10.00">stxxl::RC</text>
</a>
</g>
</g>
<!-- Node1&#45;&gt;Node3 -->
<g id="edge2" class="edge"><title>Node1&#45;&gt;Node3</title>
<path fill="none" stroke="midnightblue" d="M104.5,-101.805C104.5,-92.9102 104.5,-82.7798 104.5,-75.7511"/>
<polygon fill="midnightblue" stroke="midnightblue" points="101,-102.083 104.5,-112.083 108,-102.083 101,-102.083"/>
</g>
<!-- Node6 -->
<g id="node6" class="node"><title>Node6</title>
<g id="a_node6"><a xlink:href="structstxxl_1_1SR.html" target="_top" xlink:title="Simple randomized disk allocation scheme functor. ">
<polygon fill="none" stroke="black" points="152.5,-56.5 152.5,-75.5 210.5,-75.5 210.5,-56.5 152.5,-56.5"/>
<text text-anchor="middle" x="181.5" y="-63.5" font-family="Helvetica,sans-Serif" font-size="10.00">stxxl::SR</text>
</a>
</g>
</g>
<!-- Node1&#45;&gt;Node6 -->
<g id="edge5" class="edge"><title>Node1&#45;&gt;Node6</title>
<path fill="none" stroke="midnightblue" d="M125.401,-106.342C139.411,-96.5169 157.383,-83.9132 169.159,-75.6545"/>
<polygon fill="midnightblue" stroke="midnightblue" points="123.049,-103.717 116.871,-112.324 127.068,-109.448 123.049,-103.717"/>
</g>
<!-- Node4 -->
<g id="node4" class="node"><title>Node4</title>
<g id="a_node4"><a xlink:href="structstxxl_1_1RC__disk.html" target="_top" xlink:title="stxxl::RC_disk">
<polygon fill="none" stroke="black" points="12.5,-0.5 12.5,-19.5 94.5,-19.5 94.5,-0.5 12.5,-0.5"/>
<text text-anchor="middle" x="53.5" y="-7.5" font-family="Helvetica,sans-Serif" font-size="10.00">stxxl::RC_disk</text>
</a>
</g>
</g>
<!-- Node3&#45;&gt;Node4 -->
<g id="edge3" class="edge"><title>Node3&#45;&gt;Node4</title>
<path fill="none" stroke="midnightblue" d="M89.1221,-48.7175C80.1331,-39.1997 69.1408,-27.5608 61.7649,-19.7511"/>
<polygon fill="midnightblue" stroke="midnightblue" points="86.6676,-51.216 96.0784,-56.083 91.7567,-46.4096 86.6676,-51.216"/>
</g>
<!-- Node5 -->
<g id="node5" class="node"><title>Node5</title>
<g id="a_node5"><a xlink:href="structstxxl_1_1RC__flash.html" target="_top" xlink:title="stxxl::RC_flash">
<polygon fill="none" stroke="black" points="113,-0.5 113,-19.5 198,-19.5 198,-0.5 113,-0.5"/>
<text text-anchor="middle" x="155.5" y="-7.5" font-family="Helvetica,sans-Serif" font-size="10.00">stxxl::RC_flash</text>
</a>
</g>
</g>
<!-- Node3&#45;&gt;Node5 -->
<g id="edge4" class="edge"><title>Node3&#45;&gt;Node5</title>
<path fill="none" stroke="midnightblue" d="M119.878,-48.7175C128.867,-39.1997 139.859,-27.5608 147.235,-19.7511"/>
<polygon fill="midnightblue" stroke="midnightblue" points="117.243,-46.4096 112.922,-56.083 122.332,-51.216 117.243,-46.4096"/>
</g>
</g>
</svg>
