<?xml version="1.0" encoding="UTF-8" standalone="no"?>
<!DOCTYPE svg PUBLIC "-//W3C//DTD SVG 1.1//EN"
 "http://www.w3.org/Graphics/SVG/1.1/DTD/svg11.dtd">
<!-- Generated by graphviz version 2.38.0 (20140413.2041)
 -->
<!-- Title: stxxl::parallel_priority_queue&lt; ValueType, CompareType, AllocStrategy, BlockSize, DefaultMemSize, MaxItems &gt;::external_min_comparator Pages: 1 -->
<svg width="874pt" height="136pt"
 viewBox="0.00 0.00 874.00 136.00" xmlns="http://www.w3.org/2000/svg" xmlns:xlink="http://www.w3.org/1999/xlink">
<g id="graph0" class="graph" transform="scale(1 1) rotate(0) translate(4 132)">
<title>stxxl::parallel_priority_queue&lt; ValueType, CompareType, AllocStrategy, BlockSize, DefaultMemSize, MaxItems &gt;::external_min_comparator</title>
<!-- Node1 -->
<g id="node1" class="node"><title>Node1</title>
<polygon fill="#bfbfbf" stroke="black" points="656,-51.5 656,-103.5 866,-103.5 866,-51.5 656,-51.5"/>
<text text-anchor="start" x="664" y="-91.5" font-family="Helvetica,sans-Serif" font-size="10.00">stxxl::parallel_priority</text>
<text text-anchor="start" x="664" y="-80.5" font-family="Helvetica,sans-Serif" font-size="10.00">_queue&lt; ValueType, CompareType,</text>
<text text-anchor="start" x="664" y="-69.5" font-family="Helvetica,sans-Serif" font-size="10.00"> AllocStrategy, BlockSize, DefaultMem</text>
<text text-anchor="middle" x="761" y="-58.5" font-family="Helvetica,sans-Serif" font-size="10.00">Size, MaxItems &gt;::external_min_comparator</text>
</g>
<!-- Node2 -->
<g id="node2" class="node"><title>Node2</title>
<g id="a_node2"><a xlink:href="structstxxl_1_1parallel__priority__queue_1_1inv__compare__type.html" target="_top" xlink:title="Inverse comparison functor. ">
<polygon fill="none" stroke="black" points="377,-75.5 377,-127.5 565,-127.5 565,-75.5 377,-75.5"/>
<text text-anchor="start" x="385" y="-115.5" font-family="Helvetica,sans-Serif" font-size="10.00">stxxl::parallel_priority</text>
<text text-anchor="start" x="385" y="-104.5" font-family="Helvetica,sans-Serif" font-size="10.00">_queue&lt; ValueType, CompareType,</text>
<text text-anchor="start" x="385" y="-93.5" font-family="Helvetica,sans-Serif" font-size="10.00"> AllocStrategy, BlockSize, DefaultMem</text>
<text text-anchor="middle" x="471" y="-82.5" font-family="Helvetica,sans-Serif" font-size="10.00">Size, MaxItems &gt;::inv_compare_type</text>
</a>
</g>
</g>
<!-- Node2&#45;&gt;Node1 -->
<g id="edge1" class="edge"><title>Node2&#45;&gt;Node1</title>
<path fill="none" stroke="#9a32cd" stroke-dasharray="5,2" d="M575.079,-92.9101C601.371,-90.7191 629.647,-88.3627 655.985,-86.1679"/>
<polygon fill="#9a32cd" stroke="#9a32cd" points="574.782,-89.4226 565.108,-93.741 575.364,-96.3984 574.782,-89.4226"/>
<text text-anchor="middle" x="610.5" y="-94.5" font-family="Helvetica,sans-Serif" font-size="10.00"> m_compare</text>
</g>
<!-- Node3 -->
<g id="node3" class="node"><title>Node3</title>
<g id="a_node3"><a xlink:href="classstxxl_1_1swap__vector.html" target="_top" xlink:title="stxxl::swap_vector\l\&lt; external_array_type \&gt;">
<polygon fill="none" stroke="black" points="411,-26.5 411,-56.5 531,-56.5 531,-26.5 411,-26.5"/>
<text text-anchor="start" x="419" y="-44.5" font-family="Helvetica,sans-Serif" font-size="10.00">stxxl::swap_vector</text>
<text text-anchor="middle" x="471" y="-33.5" font-family="Helvetica,sans-Serif" font-size="10.00">&lt; external_array_type &gt;</text>
</a>
</g>
</g>
<!-- Node3&#45;&gt;Node1 -->
<g id="edge2" class="edge"><title>Node3&#45;&gt;Node1</title>
<path fill="none" stroke="#9a32cd" stroke-dasharray="5,2" d="M541.252,-50.1565C575.589,-54.4486 617.77,-59.7213 655.9,-64.4875"/>
<polygon fill="#9a32cd" stroke="#9a32cd" points="541.682,-46.683 531.325,-48.9156 540.813,-53.629 541.682,-46.683"/>
<text text-anchor="middle" x="610.5" y="-64.5" font-family="Helvetica,sans-Serif" font-size="10.00"> m_eas</text>
</g>
<!-- Node4 -->
<g id="node4" class="node"><title>Node4</title>
<g id="a_node4"><a xlink:href="classstxxl_1_1noncopyable.html" target="_top" xlink:title="stxxl::noncopyable">
<polygon fill="none" stroke="black" points="0,-33 0,-52 98,-52 98,-33 0,-33"/>
<text text-anchor="middle" x="49" y="-40" font-family="Helvetica,sans-Serif" font-size="10.00">stxxl::noncopyable</text>
</a>
</g>
</g>
<!-- Node4&#45;&gt;Node3 -->
<g id="edge3" class="edge"><title>Node4&#45;&gt;Node3</title>
<path fill="none" stroke="#8b1a1a" d="M108.174,-44.0254C170.29,-45.4294 271.605,-47.0742 359,-45.5 375.87,-45.1961 394.176,-44.6327 410.964,-44.0226"/>
<polygon fill="#8b1a1a" stroke="#8b1a1a" points="108.252,-40.5264 98.1739,-43.7938 108.09,-47.5245 108.252,-40.5264"/>
</g>
<!-- Node5 -->
<g id="node5" class="node"><title>Node5</title>
<g id="a_node5"><a xlink:href="classstxxl_1_1swap__vector.html" target="_top" xlink:title="Vector that avoids copying of ValueType objects in push_back() (here: swap_back()) and resize() opera...">
<polygon fill="none" stroke="black" points="135,-0.5 135,-30.5 234,-30.5 234,-0.5 135,-0.5"/>
<text text-anchor="start" x="143" y="-18.5" font-family="Helvetica,sans-Serif" font-size="10.00">stxxl::swap_vector</text>
<text text-anchor="middle" x="184.5" y="-7.5" font-family="Helvetica,sans-Serif" font-size="10.00">&lt; ValueType &gt;</text>
</a>
</g>
</g>
<!-- Node4&#45;&gt;Node5 -->
<g id="edge5" class="edge"><title>Node4&#45;&gt;Node5</title>
<path fill="none" stroke="#8b1a1a" d="M106.927,-30.9868C116.136,-29.1241 125.601,-27.2098 134.599,-25.39"/>
<polygon fill="#8b1a1a" stroke="#8b1a1a" points="106.175,-27.5679 97.0671,-32.9808 107.563,-34.4289 106.175,-27.5679"/>
</g>
<!-- Node5&#45;&gt;Node3 -->
<g id="edge4" class="edge"><title>Node5&#45;&gt;Node3</title>
<path fill="none" stroke="orange" stroke-dasharray="5,2" d="M244.159,-20.8607C292.883,-25.3136 361.886,-31.6196 410.768,-36.0869"/>
<polygon fill="orange" stroke="orange" points="244.361,-17.3647 234.084,-19.94 243.724,-24.3357 244.361,-17.3647"/>
<text text-anchor="middle" x="305.5" y="-34.5" font-family="Helvetica,sans-Serif" font-size="10.00"> &lt; external_array_type &gt;</text>
</g>
</g>
</svg>
