<?xml version="1.0" encoding="UTF-8" standalone="no"?>
<!DOCTYPE svg PUBLIC "-//W3C//DTD SVG 1.1//EN"
 "http://www.w3.org/Graphics/SVG/1.1/DTD/svg11.dtd">
<!-- Generated by graphviz version 2.38.0 (20140413.2041)
 -->
<!-- Title: stxxl::BID&lt; Size &gt; Pages: 1 -->
<svg width="333pt" height="329pt"
 viewBox="0.00 0.00 333.00 329.00" xmlns="http://www.w3.org/2000/svg" xmlns:xlink="http://www.w3.org/1999/xlink">
<g id="graph0" class="graph" transform="scale(1 1) rotate(0) translate(4 325)">
<title>stxxl::BID&lt; Size &gt;</title>
<!-- Node1 -->
<g id="node1" class="node"><title>Node1</title>
<polygon fill="#bfbfbf" stroke="black" points="6,-0.5 6,-19.5 104,-19.5 104,-0.5 6,-0.5"/>
<text text-anchor="middle" x="55" y="-7.5" font-family="Helvetica,sans-Serif" font-size="10.00">stxxl::BID&lt; Size &gt;</text>
</g>
<!-- Node2 -->
<g id="node2" class="node"><title>Node2</title>
<g id="a_node2"><a xlink:href="classstxxl_1_1file.html" target="_top" xlink:title="Defines interface of file. ">
<polygon fill="none" stroke="black" points="27,-67.5 27,-86.5 83,-86.5 83,-67.5 27,-67.5"/>
<text text-anchor="middle" x="55" y="-74.5" font-family="Helvetica,sans-Serif" font-size="10.00">stxxl::file</text>
</a>
</g>
</g>
<!-- Node2&#45;&gt;Node1 -->
<g id="edge1" class="edge"><title>Node2&#45;&gt;Node1</title>
<path fill="none" stroke="#9a32cd" stroke-dasharray="5,2" d="M55,-57.037C55,-44.6703 55,-29.1198 55,-19.6273"/>
<polygon fill="#9a32cd" stroke="#9a32cd" points="51.5001,-57.2338 55,-67.2338 58.5001,-57.2338 51.5001,-57.2338"/>
<text text-anchor="middle" x="73" y="-41" font-family="Helvetica,sans-Serif" font-size="10.00"> storage</text>
</g>
<!-- Node3 -->
<g id="node3" class="node"><title>Node3</title>
<g id="a_node3"><a xlink:href="classstxxl_1_1noncopyable.html" target="_top" xlink:title="stxxl::noncopyable">
<polygon fill="none" stroke="black" points="0,-296 0,-315 98,-315 98,-296 0,-296"/>
<text text-anchor="middle" x="49" y="-303" font-family="Helvetica,sans-Serif" font-size="10.00">stxxl::noncopyable</text>
</a>
</g>
</g>
<!-- Node3&#45;&gt;Node2 -->
<g id="edge2" class="edge"><title>Node3&#45;&gt;Node2</title>
<path fill="none" stroke="#8b1a1a" d="M47.1856,-285.64C44.4638,-254.154 40.1349,-188.92 45,-134 46.4989,-117.08 50.4978,-97.6166 52.9607,-86.6659"/>
<polygon fill="#8b1a1a" stroke="#8b1a1a" points="43.7332,-286.322 48.1275,-295.963 50.7043,-285.686 43.7332,-286.322"/>
</g>
<!-- Node5 -->
<g id="node5" class="node"><title>Node5</title>
<g id="a_node5"><a xlink:href="classstxxl_1_1mutex.html" target="_top" xlink:title="stxxl::mutex">
<polygon fill="none" stroke="black" points="54.5,-218 54.5,-237 125.5,-237 125.5,-218 54.5,-218"/>
<text text-anchor="middle" x="90" y="-225" font-family="Helvetica,sans-Serif" font-size="10.00">stxxl::mutex</text>
</a>
</g>
</g>
<!-- Node3&#45;&gt;Node5 -->
<g id="edge5" class="edge"><title>Node3&#45;&gt;Node5</title>
<path fill="none" stroke="#8b1a1a" d="M58.6449,-286.622C67.0563,-271.03 78.8943,-249.086 85.3516,-237.116"/>
<polygon fill="#8b1a1a" stroke="#8b1a1a" points="55.3708,-285.319 53.7032,-295.782 61.5315,-288.643 55.3708,-285.319"/>
</g>
<!-- Node4 -->
<g id="node4" class="node"><title>Node4</title>
<g id="a_node4"><a xlink:href="classstxxl_1_1atomic__counted__object.html" target="_top" xlink:title="Provides reference counting abilities for use with counting_ptr with mutex locking. ">
<polygon fill="none" stroke="black" points="54.5,-134.5 54.5,-164.5 167.5,-164.5 167.5,-134.5 54.5,-134.5"/>
<text text-anchor="start" x="62.5" y="-152.5" font-family="Helvetica,sans-Serif" font-size="10.00">stxxl::atomic_counted</text>
<text text-anchor="middle" x="111" y="-141.5" font-family="Helvetica,sans-Serif" font-size="10.00">_object</text>
</a>
</g>
</g>
<!-- Node4&#45;&gt;Node2 -->
<g id="edge3" class="edge"><title>Node4&#45;&gt;Node2</title>
<path fill="none" stroke="#9a32cd" stroke-dasharray="5,2" d="M93.4331,-126.385C82.8301,-113.036 69.8981,-96.7556 62.0641,-86.8932"/>
<polygon fill="#9a32cd" stroke="#9a32cd" points="90.7071,-128.58 99.6676,-134.233 96.1883,-124.226 90.7071,-128.58"/>
<text text-anchor="middle" x="118" y="-108" font-family="Helvetica,sans-Serif" font-size="10.00"> m_request_ref</text>
</g>
<!-- Node5&#45;&gt;Node4 -->
<g id="edge4" class="edge"><title>Node5&#45;&gt;Node4</title>
<path fill="none" stroke="#9a32cd" stroke-dasharray="5,2" d="M88.3017,-207.72C88.1405,-199.929 88.67,-190.885 91,-183 92.915,-176.519 96.479,-170.044 100.074,-164.597"/>
<polygon fill="#9a32cd" stroke="#9a32cd" points="84.8227,-208.181 88.9028,-217.959 91.8106,-207.771 84.8227,-208.181"/>
<text text-anchor="middle" x="150.5" y="-186" font-family="Helvetica,sans-Serif" font-size="10.00"> m_reference_count_mutex</text>
</g>
<!-- Node6 -->
<g id="node6" class="node"><title>Node6</title>
<g id="a_node6"><a xlink:href="structstxxl_1_1choose__int__types.html" target="_top" xlink:title="stxxl::choose_int_types\l\&lt; my_pointer_size \&gt;">
<polygon fill="none" stroke="black" points="172,-212.5 172,-242.5 292,-242.5 292,-212.5 172,-212.5"/>
<text text-anchor="start" x="180" y="-230.5" font-family="Helvetica,sans-Serif" font-size="10.00">stxxl::choose_int_types</text>
<text text-anchor="middle" x="232" y="-219.5" font-family="Helvetica,sans-Serif" font-size="10.00">&lt; my_pointer_size &gt;</text>
</a>
</g>
</g>
<!-- Node6&#45;&gt;Node4 -->
<g id="edge6" class="edge"><title>Node6&#45;&gt;Node4</title>
<path fill="none" stroke="#9a32cd" stroke-dasharray="5,2" d="M224.062,-202.714C220.687,-195.562 216.09,-188.233 210,-183 197.995,-172.684 182.631,-165.623 167.606,-160.797"/>
<polygon fill="#9a32cd" stroke="#9a32cd" points="220.898,-204.223 227.932,-212.145 227.374,-201.565 220.898,-204.223"/>
<text text-anchor="middle" x="262.5" y="-186" font-family="Helvetica,sans-Serif" font-size="10.00"> m_reference_count</text>
</g>
<!-- Node7 -->
<g id="node7" class="node"><title>Node7</title>
<g id="a_node7"><a xlink:href="structstxxl_1_1choose__int__types.html" target="_top" xlink:title="stxxl::choose_int_types\l\&lt; PtrSize \&gt;">
<polygon fill="none" stroke="black" points="172,-290.5 172,-320.5 292,-320.5 292,-290.5 172,-290.5"/>
<text text-anchor="start" x="180" y="-308.5" font-family="Helvetica,sans-Serif" font-size="10.00">stxxl::choose_int_types</text>
<text text-anchor="middle" x="232" y="-297.5" font-family="Helvetica,sans-Serif" font-size="10.00">&lt; PtrSize &gt;</text>
</a>
</g>
</g>
<!-- Node7&#45;&gt;Node6 -->
<g id="edge7" class="edge"><title>Node7&#45;&gt;Node6</title>
<path fill="none" stroke="orange" stroke-dasharray="5,2" d="M232,-280.09C232,-267.757 232,-253.224 232,-242.731"/>
<polygon fill="orange" stroke="orange" points="228.5,-280.205 232,-290.205 235.5,-280.205 228.5,-280.205"/>
<text text-anchor="middle" x="278.5" y="-264" font-family="Helvetica,sans-Serif" font-size="10.00"> &lt; my_pointer_size &gt;</text>
</g>
</g>
</svg>
