<?xml version="1.0" encoding="UTF-8" standalone="no"?>
<!DOCTYPE svg PUBLIC "-//W3C//DTD SVG 1.1//EN"
 "http://www.w3.org/Graphics/SVG/1.1/DTD/svg11.dtd">
<!-- Generated by graphviz version 2.26.3 (20100126.1600)
 -->
<!-- Title: stxxl::priority_queue_local::ext_merger&lt; BlockType_, Cmp_, Arity_, AllocStr_ &gt;::sequence_state Pages: 1 -->
<svg width="1252pt" height="311pt"
 viewBox="0.00 0.00 1252.00 310.55" xmlns="http://www.w3.org/2000/svg" xmlns:xlink="http://www.w3.org/1999/xlink">
<g id="graph1" class="graph" transform="scale(1 1) rotate(0) translate(4 306.553)">
<title>stxxl::priority_queue_local::ext_merger&lt; BlockType_, Cmp_, Arity_, AllocStr_ &gt;::sequence_state</title>
<!-- Node1 -->
<g id="node1" class="node"><title>Node1</title>
<polygon fill="#bfbfbf" stroke="black" points="666,-110 666,-170 818,-170 818,-110 666,-110"/>
<text text-anchor="start" x="674" y="-157" font-family="Helvetica,sans-Serif" font-size="10.00">stxxl::priority_queue</text>
<text text-anchor="start" x="674" y="-144" font-family="Helvetica,sans-Serif" font-size="10.00">_local::ext_merger&lt; BlockType</text>
<text text-anchor="start" x="674" y="-131" font-family="Helvetica,sans-Serif" font-size="10.00">_, Cmp_, Arity_, AllocStr</text>
<text text-anchor="middle" x="742" y="-118" font-family="Helvetica,sans-Serif" font-size="10.00">_ &gt;::sequence_state</text>
</g>
<!-- Node3 -->
<g id="node4" class="node"><title>Node3</title>
<a xlink:href="classstxxl_1_1priority__queue__local_1_1ext__merger.html" target="_top" xlink:title="External merger, based on the loser tree data structure. ">
<polygon fill="none" stroke="black" points="1092,-131.5 1092,-178.5 1244,-178.5 1244,-131.5 1092,-131.5"/>
<text text-anchor="start" x="1100" y="-165.5" font-family="Helvetica,sans-Serif" font-size="10.00">stxxl::priority_queue</text>
<text text-anchor="start" x="1100" y="-152.5" font-family="Helvetica,sans-Serif" font-size="10.00">_local::ext_merger&lt; BlockType</text>
<text text-anchor="middle" x="1168" y="-139.5" font-family="Helvetica,sans-Serif" font-size="10.00">_, Cmp_, Arity_, AllocStr_ &gt;</text>
</a>
</g>
<!-- Node1&#45;&gt;Node3 -->
<g id="edge34" class="edge"><title>Node1&#45;&gt;Node3</title>
<path fill="none" stroke="#9a32cd" stroke-dasharray="5,2" d="M827.928,-157.069C830.646,-157.412 833.341,-157.724 836,-158 923.433,-167.075 1024.51,-164.273 1091.95,-160.525"/>
<polygon fill="#9a32cd" stroke="#9a32cd" points="828.405,-153.601 818.02,-155.702 827.448,-160.536 828.405,-153.601"/>
<text text-anchor="middle" x="912" y="-168" font-family="Helvetica,sans-Serif" font-size="10.00"> states</text>
</g>
<!-- Node2 -->
<g id="node2" class="node"><title>Node2</title>
<a xlink:href="classstxxl_1_1noncopyable.html" target="_top" xlink:title="stxxl::noncopyable">
<polygon fill="none" stroke="black" points="291,-238.5 291,-259.5 389,-259.5 389,-238.5 291,-238.5"/>
<text text-anchor="middle" x="340" y="-246.5" font-family="Helvetica,sans-Serif" font-size="10.00">stxxl::noncopyable</text>
</a>
</g>
<!-- Node2&#45;&gt;Node1 -->
<g id="edge2" class="edge"><title>Node2&#45;&gt;Node1</title>
<path fill="none" stroke="#8b1a1a" d="M399.155,-239.197C475.403,-226.133 603.468,-202.617 648,-185 656.718,-181.551 657.704,-178.368 666,-174 668.43,-172.721 670.918,-171.444 673.442,-170.176"/>
<polygon fill="#8b1a1a" stroke="#8b1a1a" points="398.48,-235.761 389.21,-240.892 399.656,-242.662 398.48,-235.761"/>
</g>
<!-- Node2&#45;&gt;Node3 -->
<g id="edge6" class="edge"><title>Node2&#45;&gt;Node3</title>
<path fill="none" stroke="#8b1a1a" d="M369.92,-263.951C384.157,-270.464 401.616,-277.601 418,-282 459.528,-293.15 471.084,-291.328 514,-294 724.832,-307.126 783.002,-309.972 988,-259 1027.28,-249.232 1038.5,-248.453 1074,-229 1099.32,-215.127 1124.85,-194.503 1142.91,-178.549"/>
<polygon fill="#8b1a1a" stroke="#8b1a1a" points="371.169,-260.671 360.631,-259.583 368.19,-267.006 371.169,-260.671"/>
</g>
<!-- Node4 -->
<g id="node7" class="node"><title>Node4</title>
<a xlink:href="classstxxl_1_1read__write__pool.html" target="_top" xlink:title="Implements dynamically resizable buffered writing and prefetched reading pool. ">
<polygon fill="none" stroke="black" points="856,-216 856,-250 968,-250 968,-216 856,-216"/>
<text text-anchor="start" x="864" y="-237" font-family="Helvetica,sans-Serif" font-size="10.00">stxxl::read_write_pool</text>
<text text-anchor="middle" x="912" y="-224" font-family="Helvetica,sans-Serif" font-size="10.00">&lt; BlockType &gt;</text>
</a>
</g>
<!-- Node2&#45;&gt;Node4 -->
<g id="edge10" class="edge"><title>Node2&#45;&gt;Node4</title>
<path fill="none" stroke="#8b1a1a" d="M399.024,-259.936C405.421,-261.019 411.841,-262.063 418,-263 593.758,-289.739 643.281,-293.848 818,-261 832.392,-258.294 847.723,-254.246 861.737,-250.064"/>
<polygon fill="#8b1a1a" stroke="#8b1a1a" points="399.482,-256.464 389.032,-258.212 398.291,-263.362 399.482,-256.464"/>
</g>
<!-- Node5 -->
<g id="node10" class="node"><title>Node5</title>
<a xlink:href="classstxxl_1_1prefetch__pool.html" target="_top" xlink:title="Implements dynamically resizable prefetching pool. ">
<polygon fill="none" stroke="black" points="530,-142 530,-176 632,-176 632,-142 530,-142"/>
<text text-anchor="start" x="538" y="-163" font-family="Helvetica,sans-Serif" font-size="10.00">stxxl::prefetch_pool</text>
<text text-anchor="middle" x="581" y="-150" font-family="Helvetica,sans-Serif" font-size="10.00">&lt; BlockType &gt;</text>
</a>
</g>
<!-- Node2&#45;&gt;Node5 -->
<g id="edge14" class="edge"><title>Node2&#45;&gt;Node5</title>
<path fill="none" stroke="#8b1a1a" d="M359.437,-231.492C374.413,-218.93 396.185,-202.589 418,-193 453.594,-177.354 496.78,-168.763 529.756,-164.133"/>
<polygon fill="#8b1a1a" stroke="#8b1a1a" points="356.745,-229.192 351.456,-238.373 361.315,-234.494 356.745,-229.192"/>
</g>
<!-- Node10 -->
<g id="node21" class="node"><title>Node10</title>
<a xlink:href="classstxxl_1_1write__pool.html" target="_top" xlink:title="Implements dynamically resizable buffered writing pool. ">
<polygon fill="none" stroke="black" points="534,-232 534,-266 628,-266 628,-232 534,-232"/>
<text text-anchor="start" x="542" y="-253" font-family="Helvetica,sans-Serif" font-size="10.00">stxxl::write_pool&lt;</text>
<text text-anchor="middle" x="581" y="-240" font-family="Helvetica,sans-Serif" font-size="10.00"> BlockType &gt;</text>
</a>
</g>
<!-- Node2&#45;&gt;Node10 -->
<g id="edge26" class="edge"><title>Node2&#45;&gt;Node10</title>
<path fill="none" stroke="#8b1a1a" d="M399.281,-249C440.664,-249 495.164,-249 533.65,-249"/>
<polygon fill="#8b1a1a" stroke="#8b1a1a" points="399.06,-245.5 389.06,-249 399.06,-252.5 399.06,-245.5"/>
</g>
<!-- Node3&#45;&gt;Node1 -->
<g id="edge4" class="edge"><title>Node3&#45;&gt;Node1</title>
<path fill="none" stroke="#9a32cd" stroke-dasharray="5,2" d="M1081.51,-149.577C1051.87,-147.883 1018.5,-146.157 988,-145 931.12,-142.843 866.805,-141.576 818.205,-140.858"/>
<polygon fill="#9a32cd" stroke="#9a32cd" points="1081.64,-153.09 1091.83,-150.174 1082.05,-146.102 1081.64,-153.09"/>
<text text-anchor="middle" x="912" y="-149" font-family="Helvetica,sans-Serif" font-size="10.00"> merger</text>
</g>
<!-- Node4&#45;&gt;Node3 -->
<g id="edge8" class="edge"><title>Node4&#45;&gt;Node3</title>
<path fill="none" stroke="#9a32cd" stroke-dasharray="5,2" d="M977.917,-219.597C1007.58,-212.937 1042.86,-204.138 1074,-194 1087.61,-189.569 1102.02,-184.038 1115.35,-178.546"/>
<polygon fill="#9a32cd" stroke="#9a32cd" points="977.093,-216.195 968.085,-221.773 978.605,-223.03 977.093,-216.195"/>
<text text-anchor="middle" x="1040" y="-216" font-family="Helvetica,sans-Serif" font-size="10.00"> pool</text>
</g>
<!-- Node5&#45;&gt;Node4 -->
<g id="edge12" class="edge"><title>Node5&#45;&gt;Node4</title>
<path fill="none" stroke="#9a32cd" stroke-dasharray="5,2" d="M642.256,-172.695C703.389,-186.362 796.529,-207.185 855.813,-220.439"/>
<polygon fill="#9a32cd" stroke="#9a32cd" points="642.878,-169.247 632.356,-170.481 641.351,-176.079 642.878,-169.247"/>
<text text-anchor="middle" x="742" y="-215" font-family="Helvetica,sans-Serif" font-size="10.00"> p_pool</text>
</g>
<!-- Node6 -->
<g id="node13" class="node"><title>Node6</title>
<a xlink:href="structstxxl_1_1choose__int__types.html" target="_top" xlink:title="stxxl::choose_int_types\l\&lt; my_pointer_size \&gt;">
<polygon fill="none" stroke="black" points="280,-97 280,-131 400,-131 400,-97 280,-97"/>
<text text-anchor="start" x="288" y="-118" font-family="Helvetica,sans-Serif" font-size="10.00">stxxl::choose_int_types</text>
<text text-anchor="middle" x="340" y="-105" font-family="Helvetica,sans-Serif" font-size="10.00">&lt; my_pointer_size &gt;</text>
</a>
</g>
<!-- Node6&#45;&gt;Node1 -->
<g id="edge36" class="edge"><title>Node6&#45;&gt;Node1</title>
<path fill="none" stroke="#9a32cd" stroke-dasharray="5,2" d="M410.236,-112.115C412.857,-112.071 415.452,-112.033 418,-112 452.664,-111.556 461.389,-110.037 496,-112 553.077,-115.238 617.246,-122.669 665.732,-129.062"/>
<polygon fill="#9a32cd" stroke="#9a32cd" points="409.974,-108.619 400.041,-112.305 410.105,-115.618 409.974,-108.619"/>
<text text-anchor="middle" x="457" y="-116" font-family="Helvetica,sans-Serif" font-size="10.00"> current</text>
</g>
<!-- Node6&#45;&gt;Node3 -->
<g id="edge32" class="edge"><title>Node6&#45;&gt;Node3</title>
<path fill="none" stroke="#9a32cd" stroke-dasharray="5,2" d="M410.453,-103.114C476.334,-93.519 577.558,-80.2714 666,-75 733.436,-70.9806 750.87,-67.4257 818,-75 913.694,-85.7972 1021.36,-112.7 1091.7,-132.336"/>
<polygon fill="#9a32cd" stroke="#9a32cd" points="409.576,-99.7048 400.191,-104.62 410.593,-106.631 409.576,-99.7048"/>
<text text-anchor="middle" x="742" y="-92" font-family="Helvetica,sans-Serif" font-size="10.00"> k</text>
<text text-anchor="middle" x="742" y="-79" font-family="Helvetica,sans-Serif" font-size="10.00">log_k</text>
</g>
<!-- Node6&#45;&gt;Node5 -->
<g id="edge16" class="edge"><title>Node6&#45;&gt;Node5</title>
<path fill="none" stroke="#9a32cd" stroke-dasharray="5,2" d="M410.231,-127.114C448.463,-134.252 494.921,-142.927 529.722,-149.425"/>
<polygon fill="#9a32cd" stroke="#9a32cd" points="410.665,-123.634 400.193,-125.239 409.38,-130.515 410.665,-123.634"/>
<text text-anchor="middle" x="457" y="-145" font-family="Helvetica,sans-Serif" font-size="10.00"> free_blocks_size</text>
</g>
<!-- Node7 -->
<g id="node15" class="node"><title>Node7</title>
<a xlink:href="structstxxl_1_1choose__int__types.html" target="_top" xlink:title="stxxl::choose_int_types\l\&lt; PtrSize \&gt;">
<polygon fill="none" stroke="black" points="9,-97 9,-131 129,-131 129,-97 9,-97"/>
<text text-anchor="start" x="17" y="-118" font-family="Helvetica,sans-Serif" font-size="10.00">stxxl::choose_int_types</text>
<text text-anchor="middle" x="69" y="-105" font-family="Helvetica,sans-Serif" font-size="10.00">&lt; PtrSize &gt;</text>
</a>
</g>
<!-- Node7&#45;&gt;Node6 -->
<g id="edge18" class="edge"><title>Node7&#45;&gt;Node6</title>
<path fill="none" stroke="orange" stroke-dasharray="5,2" d="M139.361,-114C182.839,-114 238.058,-114 279.556,-114"/>
<polygon fill="orange" stroke="orange" points="139.144,-110.5 129.144,-114 139.144,-117.5 139.144,-110.5"/>
<text text-anchor="middle" x="209" y="-118" font-family="Helvetica,sans-Serif" font-size="10.00"> &lt; my_pointer_size &gt;</text>
</g>
<!-- Node8 -->
<g id="node17" class="node"><title>Node8</title>
<a xlink:href="structstxxl_1_1compat__hash__map.html" target="_top" xlink:title="stxxl::compat_hash\l_map\&lt; bid_type, busy\l_entry, bid_hash \&gt;">
<polygon fill="none" stroke="black" points="283.5,-24.5 283.5,-71.5 396.5,-71.5 396.5,-24.5 283.5,-24.5"/>
<text text-anchor="start" x="291.5" y="-58.5" font-family="Helvetica,sans-Serif" font-size="10.00">stxxl::compat_hash</text>
<text text-anchor="start" x="291.5" y="-45.5" font-family="Helvetica,sans-Serif" font-size="10.00">_map&lt; bid_type, busy</text>
<text text-anchor="middle" x="340" y="-32.5" font-family="Helvetica,sans-Serif" font-size="10.00">_entry, bid_hash &gt;</text>
</a>
</g>
<!-- Node8&#45;&gt;Node5 -->
<g id="edge20" class="edge"><title>Node8&#45;&gt;Node5</title>
<path fill="none" stroke="#9a32cd" stroke-dasharray="5,2" d="M406.593,-52.9696C435.319,-57.1602 468.551,-64.8619 496,-79 525.726,-94.3109 552.444,-123.119 567.683,-141.665"/>
<polygon fill="#9a32cd" stroke="#9a32cd" points="407.014,-49.4948 396.637,-51.6289 406.08,-56.4322 407.014,-49.4948"/>
<text text-anchor="middle" x="457" y="-83" font-family="Helvetica,sans-Serif" font-size="10.00"> busy_blocks</text>
</g>
<!-- Node9 -->
<g id="node19" class="node"><title>Node9</title>
<a xlink:href="structstxxl_1_1compat__hash__map.html" target="_top" xlink:title="stxxl::compat_hash\l_map\&lt; _Key, _Tp, _Hash \&gt;">
<polygon fill="none" stroke="black" points="0,-31 0,-65 138,-65 138,-31 0,-31"/>
<text text-anchor="start" x="8" y="-52" font-family="Helvetica,sans-Serif" font-size="10.00">stxxl::compat_hash</text>
<text text-anchor="middle" x="69" y="-39" font-family="Helvetica,sans-Serif" font-size="10.00">_map&lt; _Key, _Tp, _Hash &gt;</text>
</a>
</g>
<!-- Node9&#45;&gt;Node8 -->
<g id="edge22" class="edge"><title>Node9&#45;&gt;Node8</title>
<path fill="none" stroke="orange" stroke-dasharray="5,2" d="M148.31,-48C191.614,-48 244.224,-48 283.366,-48"/>
<polygon fill="orange" stroke="orange" points="148.086,-44.5001 138.086,-48 148.086,-51.5001 148.086,-44.5001"/>
<text text-anchor="start" x="156" y="-65" font-family="Helvetica,sans-Serif" font-size="10.00"> &lt; bid_type, busy_entry,</text>
<text text-anchor="middle" x="209" y="-52" font-family="Helvetica,sans-Serif" font-size="10.00"> bid_hash &gt;</text>
</g>
<!-- Node10&#45;&gt;Node4 -->
<g id="edge24" class="edge"><title>Node10&#45;&gt;Node4</title>
<path fill="none" stroke="#9a32cd" stroke-dasharray="5,2" d="M638.305,-246.23C699.362,-243.279 795.392,-238.637 855.96,-235.709"/>
<polygon fill="#9a32cd" stroke="#9a32cd" points="637.892,-242.746 628.073,-246.725 638.23,-249.738 637.892,-242.746"/>
<text text-anchor="middle" x="742" y="-248" font-family="Helvetica,sans-Serif" font-size="10.00"> w_pool</text>
</g>
<!-- Node11 -->
<g id="node24" class="node"><title>Node11</title>
<a xlink:href="classstxxl_1_1priority__queue__local_1_1internal__bounded__stack.html" target="_top" xlink:title="stxxl::priority_queue\l_local::internal_bounded\l_stack\&lt; unsigned_type, arity \&gt;">
<polygon fill="none" stroke="black" points="836,-0.5 836,-47.5 988,-47.5 988,-0.5 836,-0.5"/>
<text text-anchor="start" x="844" y="-34.5" font-family="Helvetica,sans-Serif" font-size="10.00">stxxl::priority_queue</text>
<text text-anchor="start" x="844" y="-21.5" font-family="Helvetica,sans-Serif" font-size="10.00">_local::internal_bounded</text>
<text text-anchor="middle" x="912" y="-8.5" font-family="Helvetica,sans-Serif" font-size="10.00">_stack&lt; unsigned_type, arity &gt;</text>
</a>
</g>
<!-- Node11&#45;&gt;Node3 -->
<g id="edge28" class="edge"><title>Node11&#45;&gt;Node3</title>
<path fill="none" stroke="#9a32cd" stroke-dasharray="5,2" d="M998.127,-26.224C1023.74,-29.7395 1051.06,-36.4915 1074,-49 1109.42,-68.3115 1138.03,-106.383 1154.03,-131.252"/>
<polygon fill="#9a32cd" stroke="#9a32cd" points="998.384,-22.7293 988.033,-24.9891 997.534,-29.6775 998.384,-22.7293"/>
<text text-anchor="middle" x="1040" y="-53" font-family="Helvetica,sans-Serif" font-size="10.00"> free_segments</text>
</g>
<!-- Node12 -->
<g id="node26" class="node"><title>Node12</title>
<a xlink:href="classstxxl_1_1priority__queue__local_1_1internal__bounded__stack.html" target="_top" xlink:title="Similar to std::stack, with the following differences: ">
<polygon fill="none" stroke="black" points="514,-0.5 514,-47.5 648,-47.5 648,-0.5 514,-0.5"/>
<text text-anchor="start" x="522" y="-34.5" font-family="Helvetica,sans-Serif" font-size="10.00">stxxl::priority_queue</text>
<text text-anchor="start" x="522" y="-21.5" font-family="Helvetica,sans-Serif" font-size="10.00">_local::internal_bounded</text>
<text text-anchor="middle" x="581" y="-8.5" font-family="Helvetica,sans-Serif" font-size="10.00">_stack&lt; Tp_, max_size_ &gt;</text>
</a>
</g>
<!-- Node12&#45;&gt;Node11 -->
<g id="edge30" class="edge"><title>Node12&#45;&gt;Node11</title>
<path fill="none" stroke="orange" stroke-dasharray="5,2" d="M658.486,-24C711.909,-24 782.586,-24 835.741,-24"/>
<polygon fill="orange" stroke="orange" points="658.382,-20.5001 648.382,-24 658.382,-27.5001 658.382,-20.5001"/>
<text text-anchor="middle" x="742" y="-28" font-family="Helvetica,sans-Serif" font-size="10.00"> &lt; unsigned_type, arity &gt;</text>
</g>
</g>
</svg>
