<?xml version="1.0" encoding="UTF-8" standalone="no"?>
<!DOCTYPE svg PUBLIC "-//W3C//DTD SVG 1.1//EN"
 "http://www.w3.org/Graphics/SVG/1.1/DTD/svg11.dtd">
<!-- Generated by graphviz version 2.26.3 (20100126.1600)
 -->
<!-- Title: stxxl::runs2bid_array_adaptor&lt; BlockSize, RunType, PosType &gt; Pages: 1 -->
<svg width="682pt" height="120pt"
 viewBox="0.00 0.00 682.00 120.00" xmlns="http://www.w3.org/2000/svg" xmlns:xlink="http://www.w3.org/1999/xlink">
<g id="graph1" class="graph" transform="scale(1 1) rotate(0) translate(4 116)">
<title>stxxl::runs2bid_array_adaptor&lt; BlockSize, RunType, PosType &gt;</title>
<!-- Node1 -->
<g id="node1" class="node"><title>Node1</title>
<polygon fill="#bfbfbf" stroke="black" points="560.5,-29.5 560.5,-76.5 673.5,-76.5 673.5,-29.5 560.5,-29.5"/>
<text text-anchor="start" x="568.5" y="-63.5" font-family="Helvetica,sans-Serif" font-size="10.00">stxxl::runs2bid_array</text>
<text text-anchor="start" x="568.5" y="-50.5" font-family="Helvetica,sans-Serif" font-size="10.00">_adaptor&lt; BlockSize,</text>
<text text-anchor="middle" x="617" y="-37.5" font-family="Helvetica,sans-Serif" font-size="10.00"> RunType, PosType &gt;</text>
</g>
<!-- Node2 -->
<g id="node2" class="node"><title>Node2</title>
<a xlink:href="structstxxl_1_1two2one__dim__array__adapter__base.html" target="_top" xlink:title="stxxl::two2one_dim\l_array_adapter_base\l\&lt; RunType *, BID\&lt; BlockSize\l \&gt;, PosType \&gt;">
<polygon fill="none" stroke="black" points="330.5,-52 330.5,-112 479.5,-112 479.5,-52 330.5,-52"/>
<text text-anchor="start" x="338.5" y="-99" font-family="Helvetica,sans-Serif" font-size="10.00">stxxl::two2one_dim</text>
<text text-anchor="start" x="338.5" y="-86" font-family="Helvetica,sans-Serif" font-size="10.00">_array_adapter_base</text>
<text text-anchor="start" x="338.5" y="-73" font-family="Helvetica,sans-Serif" font-size="10.00">&lt; RunType *, BID&lt; BlockSize</text>
<text text-anchor="middle" x="405" y="-60" font-family="Helvetica,sans-Serif" font-size="10.00"> &gt;, PosType &gt;</text>
</a>
</g>
<!-- Node2&#45;&gt;Node1 -->
<g id="edge2" class="edge"><title>Node2&#45;&gt;Node1</title>
<path fill="none" stroke="midnightblue" d="M489.787,-70.4018C513.466,-67.1626 538.618,-63.722 560.251,-60.7628"/>
<polygon fill="midnightblue" stroke="midnightblue" points="489.177,-66.9526 479.743,-71.7757 490.125,-73.888 489.177,-66.9526"/>
</g>
<!-- Node3 -->
<g id="node4" class="node"><title>Node3</title>
<a xlink:href="structstxxl_1_1two2one__dim__array__adapter__base.html" target="_top" xlink:title="stxxl::two2one_dim\l_array_adapter_base\l\&lt; OneDimArrayType, DataType,\l PosType \&gt;">
<polygon fill="none" stroke="black" points="0,-52 0,-112 158,-112 158,-52 0,-52"/>
<text text-anchor="start" x="8" y="-99" font-family="Helvetica,sans-Serif" font-size="10.00">stxxl::two2one_dim</text>
<text text-anchor="start" x="8" y="-86" font-family="Helvetica,sans-Serif" font-size="10.00">_array_adapter_base</text>
<text text-anchor="start" x="8" y="-73" font-family="Helvetica,sans-Serif" font-size="10.00">&lt; OneDimArrayType, DataType,</text>
<text text-anchor="middle" x="79" y="-60" font-family="Helvetica,sans-Serif" font-size="10.00"> PosType &gt;</text>
</a>
</g>
<!-- Node3&#45;&gt;Node2 -->
<g id="edge4" class="edge"><title>Node3&#45;&gt;Node2</title>
<path fill="none" stroke="orange" stroke-dasharray="5,2" d="M168.333,-82C219.188,-82 282.159,-82 330.358,-82"/>
<polygon fill="orange" stroke="orange" points="168.332,-78.5001 158.332,-82 168.332,-85.5001 168.332,-78.5001"/>
<text text-anchor="start" x="176" y="-99" font-family="Helvetica,sans-Serif" font-size="10.00"> &lt; RunType *, BID&lt; BlockSize</text>
<text text-anchor="middle" x="244" y="-86" font-family="Helvetica,sans-Serif" font-size="10.00"> &gt;, PosType &gt;</text>
</g>
<!-- Node4 -->
<g id="node6" class="node"><title>Node4</title>
<a xlink:href="structstxxl_1_1choose__int__types.html" target="_top" xlink:title="stxxl::choose_int_types\l\&lt; my_pointer_size \&gt;">
<polygon fill="none" stroke="black" points="345,-0 345,-34 465,-34 465,-0 345,-0"/>
<text text-anchor="start" x="353" y="-21" font-family="Helvetica,sans-Serif" font-size="10.00">stxxl::choose_int_types</text>
<text text-anchor="middle" x="405" y="-8" font-family="Helvetica,sans-Serif" font-size="10.00">&lt; my_pointer_size &gt;</text>
</a>
</g>
<!-- Node4&#45;&gt;Node1 -->
<g id="edge6" class="edge"><title>Node4&#45;&gt;Node1</title>
<path fill="none" stroke="#9a32cd" stroke-dasharray="5,2" d="M475.184,-28.918C502.824,-33.6116 534.145,-38.9304 560.31,-43.3734"/>
<polygon fill="#9a32cd" stroke="#9a32cd" points="475.628,-25.4435 465.184,-27.2199 474.457,-32.3447 475.628,-25.4435"/>
<text text-anchor="middle" x="520" y="-43" font-family="Helvetica,sans-Serif" font-size="10.00"> dim_size</text>
</g>
<!-- Node5 -->
<g id="node8" class="node"><title>Node5</title>
<a xlink:href="structstxxl_1_1choose__int__types.html" target="_top" xlink:title="stxxl::choose_int_types\l\&lt; PtrSize \&gt;">
<polygon fill="none" stroke="black" points="19,-0 19,-34 139,-34 139,-0 19,-0"/>
<text text-anchor="start" x="27" y="-21" font-family="Helvetica,sans-Serif" font-size="10.00">stxxl::choose_int_types</text>
<text text-anchor="middle" x="79" y="-8" font-family="Helvetica,sans-Serif" font-size="10.00">&lt; PtrSize &gt;</text>
</a>
</g>
<!-- Node5&#45;&gt;Node4 -->
<g id="edge8" class="edge"><title>Node5&#45;&gt;Node4</title>
<path fill="none" stroke="orange" stroke-dasharray="5,2" d="M149.408,-17C207.706,-17 289.649,-17 344.902,-17"/>
<polygon fill="orange" stroke="orange" points="149.173,-13.5001 139.173,-17 149.173,-20.5001 149.173,-13.5001"/>
<text text-anchor="middle" x="244" y="-21" font-family="Helvetica,sans-Serif" font-size="10.00"> &lt; my_pointer_size &gt;</text>
</g>
</g>
</svg>
