<?xml version="1.0" encoding="UTF-8" standalone="no"?>
<!DOCTYPE svg PUBLIC "-//W3C//DTD SVG 1.1//EN"
 "http://www.w3.org/Graphics/SVG/1.1/DTD/svg11.dtd">
<!-- Generated by graphviz version 2.38.0 (20140413.2041)
 -->
<!-- Title: stxxl::matrix_operation_statistic_data Pages: 1 -->
<svg width="168pt" height="329pt"
 viewBox="0.00 0.00 168.00 329.00" xmlns="http://www.w3.org/2000/svg" xmlns:xlink="http://www.w3.org/1999/xlink">
<g id="graph0" class="graph" transform="scale(1 1) rotate(0) translate(4 325)">
<title>stxxl::matrix_operation_statistic_data</title>
<!-- Node1 -->
<g id="node1" class="node"><title>Node1</title>
<polygon fill="#bfbfbf" stroke="black" points="2,-0.5 2,-30.5 118,-30.5 118,-0.5 2,-0.5"/>
<text text-anchor="start" x="10" y="-18.5" font-family="Helvetica,sans-Serif" font-size="10.00">stxxl::matrix_operation</text>
<text text-anchor="middle" x="60" y="-7.5" font-family="Helvetica,sans-Serif" font-size="10.00">_statistic_data</text>
</g>
<!-- Node2 -->
<g id="node2" class="node"><title>Node2</title>
<g id="a_node2"><a xlink:href="structstxxl_1_1matrix__operation__statistic__dataset.html" target="_top" xlink:title="stxxl::matrix_operation\l_statistic_dataset">
<polygon fill="none" stroke="black" points="2,-68.5 2,-98.5 118,-98.5 118,-68.5 2,-68.5"/>
<text text-anchor="start" x="10" y="-86.5" font-family="Helvetica,sans-Serif" font-size="10.00">stxxl::matrix_operation</text>
<text text-anchor="middle" x="60" y="-75.5" font-family="Helvetica,sans-Serif" font-size="10.00">_statistic_dataset</text>
</a>
</g>
</g>
<!-- Node2&#45;&gt;Node1 -->
<g id="edge1" class="edge"><title>Node2&#45;&gt;Node1</title>
<path fill="none" stroke="midnightblue" d="M60,-58.0322C60,-48.8606 60,-38.7449 60,-30.7931"/>
<polygon fill="midnightblue" stroke="midnightblue" points="56.5001,-58.1789 60,-68.179 63.5001,-58.179 56.5001,-58.1789"/>
</g>
<!-- Node3 -->
<g id="node3" class="node"><title>Node3</title>
<g id="a_node3"><a xlink:href="structstxxl_1_1choose__int__types.html" target="_top" xlink:title="stxxl::choose_int_types\l\&lt; my_pointer_size \&gt;">
<polygon fill="none" stroke="black" points="-7.10543e-15,-212.5 -7.10543e-15,-242.5 120,-242.5 120,-212.5 -7.10543e-15,-212.5"/>
<text text-anchor="start" x="8" y="-230.5" font-family="Helvetica,sans-Serif" font-size="10.00">stxxl::choose_int_types</text>
<text text-anchor="middle" x="60" y="-219.5" font-family="Helvetica,sans-Serif" font-size="10.00">&lt; my_pointer_size &gt;</text>
</a>
</g>
</g>
<!-- Node3&#45;&gt;Node2 -->
<g id="edge2" class="edge"><title>Node3&#45;&gt;Node2</title>
<path fill="none" stroke="#9a32cd" stroke-dasharray="5,2" d="M60,-202.364C60,-172.539 60,-122.779 60,-98.5775"/>
<polygon fill="#9a32cd" stroke="#9a32cd" points="56.5001,-202.365 60,-212.365 63.5001,-202.365 56.5001,-202.365"/>
<text text-anchor="start" x="60" y="-186" font-family="Helvetica,sans-Serif" font-size="10.00"> block_multiplications</text>
<text text-anchor="middle" x="110" y="-175" font-family="Helvetica,sans-Serif" font-size="10.00">_saved_through_zero</text>
<text text-anchor="start" x="60" y="-164" font-family="Helvetica,sans-Serif" font-size="10.00">block_multiplication</text>
<text text-anchor="middle" x="110" y="-153" font-family="Helvetica,sans-Serif" font-size="10.00">_calls</text>
<text text-anchor="start" x="60" y="-142" font-family="Helvetica,sans-Serif" font-size="10.00">block_additions_saved</text>
<text text-anchor="middle" x="110" y="-131" font-family="Helvetica,sans-Serif" font-size="10.00">_through_zero</text>
<text text-anchor="middle" x="110" y="-120" font-family="Helvetica,sans-Serif" font-size="10.00">block_addition_calls</text>
</g>
<!-- Node4 -->
<g id="node4" class="node"><title>Node4</title>
<g id="a_node4"><a xlink:href="structstxxl_1_1choose__int__types.html" target="_top" xlink:title="stxxl::choose_int_types\l\&lt; PtrSize \&gt;">
<polygon fill="none" stroke="black" points="-7.10543e-15,-290.5 -7.10543e-15,-320.5 120,-320.5 120,-290.5 -7.10543e-15,-290.5"/>
<text text-anchor="start" x="8" y="-308.5" font-family="Helvetica,sans-Serif" font-size="10.00">stxxl::choose_int_types</text>
<text text-anchor="middle" x="60" y="-297.5" font-family="Helvetica,sans-Serif" font-size="10.00">&lt; PtrSize &gt;</text>
</a>
</g>
</g>
<!-- Node4&#45;&gt;Node3 -->
<g id="edge3" class="edge"><title>Node4&#45;&gt;Node3</title>
<path fill="none" stroke="orange" stroke-dasharray="5,2" d="M60,-280.09C60,-267.757 60,-253.224 60,-242.731"/>
<polygon fill="orange" stroke="orange" points="56.5001,-280.205 60,-290.205 63.5001,-280.205 56.5001,-280.205"/>
<text text-anchor="middle" x="106.5" y="-264" font-family="Helvetica,sans-Serif" font-size="10.00"> &lt; my_pointer_size &gt;</text>
</g>
</g>
</svg>
