<?xml version="1.0" encoding="UTF-8" standalone="no"?>
<!DOCTYPE svg PUBLIC "-//W3C//DTD SVG 1.1//EN"
 "http://www.w3.org/Graphics/SVG/1.1/DTD/svg11.dtd">
<!-- Generated by graphviz version 2.38.0 (20140413.2041)
 -->
<!-- Title: stxxl::BID&lt; Size &gt; Pages: 1 -->
<svg width="411pt" height="95pt"
 viewBox="0.00 0.00 411.00 95.00" xmlns="http://www.w3.org/2000/svg" xmlns:xlink="http://www.w3.org/1999/xlink">
<g id="graph0" class="graph" transform="scale(1 1) rotate(0) translate(4 91)">
<title>stxxl::BID&lt; Size &gt;</title>
<!-- Node1 -->
<g id="node1" class="node"><title>Node1</title>
<polygon fill="#bfbfbf" stroke="black" points="153.5,-67.5 153.5,-86.5 251.5,-86.5 251.5,-67.5 153.5,-67.5"/>
<text text-anchor="middle" x="202.5" y="-74.5" font-family="Helvetica,sans-Serif" font-size="10.00">stxxl::BID&lt; Size &gt;</text>
</g>
<!-- Node2 -->
<g id="node2" class="node"><title>Node2</title>
<g id="a_node2"><a xlink:href="structstxxl_1_1BID.html" target="_top" xlink:title="stxxl::BID\&lt; block_size \&gt;">
<polygon fill="none" stroke="black" points="0,-0.5 0,-19.5 125,-19.5 125,-0.5 0,-0.5"/>
<text text-anchor="middle" x="62.5" y="-7.5" font-family="Helvetica,sans-Serif" font-size="10.00">stxxl::BID&lt; block_size &gt;</text>
</a>
</g>
</g>
<!-- Node1&#45;&gt;Node2 -->
<g id="edge1" class="edge"><title>Node1&#45;&gt;Node2</title>
<path fill="none" stroke="orange" stroke-dasharray="5,2" d="M167.227,-63.9789C155.396,-59.6297 142.233,-54.4404 130.5,-49 111.238,-40.0682 90.026,-27.7995 76.5009,-19.6462"/>
<polygon fill="orange" stroke="orange" points="166.197,-67.3279 176.792,-67.4217 168.568,-60.7416 166.197,-67.3279"/>
<text text-anchor="middle" x="164.5" y="-41" font-family="Helvetica,sans-Serif" font-size="10.00"> &lt; block_size &gt;</text>
</g>
<!-- Node3 -->
<g id="node3" class="node"><title>Node3</title>
<g id="a_node3"><a xlink:href="structstxxl_1_1BID.html" target="_top" xlink:title="stxxl::BID\&lt; raw_size \&gt;">
<polygon fill="none" stroke="black" points="143.5,-0.5 143.5,-19.5 261.5,-19.5 261.5,-0.5 143.5,-0.5"/>
<text text-anchor="middle" x="202.5" y="-7.5" font-family="Helvetica,sans-Serif" font-size="10.00">stxxl::BID&lt; raw_size &gt;</text>
</a>
</g>
</g>
<!-- Node1&#45;&gt;Node3 -->
<g id="edge2" class="edge"><title>Node1&#45;&gt;Node3</title>
<path fill="none" stroke="orange" stroke-dasharray="5,2" d="M202.5,-57.037C202.5,-44.6703 202.5,-29.1198 202.5,-19.6273"/>
<polygon fill="orange" stroke="orange" points="199,-57.2338 202.5,-67.2338 206,-57.2338 199,-57.2338"/>
<text text-anchor="middle" x="233" y="-41" font-family="Helvetica,sans-Serif" font-size="10.00"> &lt; raw_size &gt;</text>
</g>
<!-- Node4 -->
<g id="node4" class="node"><title>Node4</title>
<g id="a_node4"><a xlink:href="structstxxl_1_1BID.html" target="_top" xlink:title="stxxl::BID\&lt; BlockSize \&gt;">
<polygon fill="none" stroke="black" points="280,-0.5 280,-19.5 403,-19.5 403,-0.5 280,-0.5"/>
<text text-anchor="middle" x="341.5" y="-7.5" font-family="Helvetica,sans-Serif" font-size="10.00">stxxl::BID&lt; BlockSize &gt;</text>
</a>
</g>
</g>
<!-- Node1&#45;&gt;Node4 -->
<g id="edge3" class="edge"><title>Node1&#45;&gt;Node4</title>
<path fill="none" stroke="orange" stroke-dasharray="5,2" d="M233.801,-63.5959C244.563,-59.1732 256.635,-54.0361 267.5,-49 287.941,-39.5252 310.948,-27.487 325.804,-19.5278"/>
<polygon fill="orange" stroke="orange" points="232.304,-60.4262 224.357,-67.4334 234.939,-66.9113 232.304,-60.4262"/>
<text text-anchor="middle" x="323.5" y="-41" font-family="Helvetica,sans-Serif" font-size="10.00"> &lt; BlockSize &gt;</text>
</g>
</g>
</svg>
