<?xml version="1.0" encoding="UTF-8" standalone="no"?>
<!DOCTYPE svg PUBLIC "-//W3C//DTD SVG 1.1//EN"
 "http://www.w3.org/Graphics/SVG/1.1/DTD/svg11.dtd">
<!-- Generated by graphviz version 2.26.3 (20100126.1600)
 -->
<!-- Title: stxxl::matrix_operation_statistic_dataset Pages: 1 -->
<svg width="258pt" height="116pt"
 viewBox="0.00 0.00 258.00 116.00" xmlns="http://www.w3.org/2000/svg" xmlns:xlink="http://www.w3.org/1999/xlink">
<g id="graph1" class="graph" transform="scale(1 1) rotate(0) translate(4 112)">
<title>stxxl::matrix_operation_statistic_dataset</title>
<!-- Node1 -->
<g id="node1" class="node"><title>Node1</title>
<polygon fill="#bfbfbf" stroke="black" points="67,-73 67,-107 183,-107 183,-73 67,-73"/>
<text text-anchor="start" x="75" y="-94" font-family="Helvetica,sans-Serif" font-size="10.00">stxxl::matrix_operation</text>
<text text-anchor="middle" x="125" y="-81" font-family="Helvetica,sans-Serif" font-size="10.00">_statistic_dataset</text>
</g>
<!-- Node2 -->
<g id="node3" class="node"><title>Node2</title>
<a xlink:href="structstxxl_1_1matrix__operation__statistic.html" target="_top" xlink:title="stxxl::matrix_operation\l_statistic">
<polygon fill="none" stroke="black" points="0,-1 0,-35 116,-35 116,-1 0,-1"/>
<text text-anchor="start" x="8" y="-22" font-family="Helvetica,sans-Serif" font-size="10.00">stxxl::matrix_operation</text>
<text text-anchor="middle" x="58" y="-9" font-family="Helvetica,sans-Serif" font-size="10.00">_statistic</text>
</a>
</g>
<!-- Node1&#45;&gt;Node2 -->
<g id="edge2" class="edge"><title>Node1&#45;&gt;Node2</title>
<path fill="none" stroke="midnightblue" d="M102.088,-65.3785C92.9283,-55.5349 82.591,-44.4262 74.2295,-35.4407"/>
<polygon fill="midnightblue" stroke="midnightblue" points="99.7473,-68.0006 109.122,-72.937 104.872,-63.232 99.7473,-68.0006"/>
</g>
<!-- Node3 -->
<g id="node5" class="node"><title>Node3</title>
<a xlink:href="structstxxl_1_1matrix__operation__statistic__data.html" target="_top" xlink:title="stxxl::matrix_operation\l_statistic_data">
<polygon fill="none" stroke="black" points="134,-1 134,-35 250,-35 250,-1 134,-1"/>
<text text-anchor="start" x="142" y="-22" font-family="Helvetica,sans-Serif" font-size="10.00">stxxl::matrix_operation</text>
<text text-anchor="middle" x="192" y="-9" font-family="Helvetica,sans-Serif" font-size="10.00">_statistic_data</text>
</a>
</g>
<!-- Node1&#45;&gt;Node3 -->
<g id="edge4" class="edge"><title>Node1&#45;&gt;Node3</title>
<path fill="none" stroke="midnightblue" d="M147.912,-65.3785C157.072,-55.5349 167.409,-44.4262 175.77,-35.4407"/>
<polygon fill="midnightblue" stroke="midnightblue" points="145.128,-63.232 140.878,-72.937 150.253,-68.0006 145.128,-63.232"/>
</g>
</g>
</svg>
