<?xml version="1.0" encoding="UTF-8" standalone="no"?>
<!DOCTYPE svg PUBLIC "-//W3C//DTD SVG 1.1//EN"
 "http://www.w3.org/Graphics/SVG/1.1/DTD/svg11.dtd">
<!-- Generated by graphviz version 2.26.3 (20100126.1600)
 -->
<!-- Title: stxxl::RC_flash Pages: 1 -->
<svg width="161pt" height="334pt"
 viewBox="0.00 0.00 161.00 334.00" xmlns="http://www.w3.org/2000/svg" xmlns:xlink="http://www.w3.org/1999/xlink">
<g id="graph1" class="graph" transform="scale(1 1) rotate(0) translate(4 330)">
<title>stxxl::RC_flash</title>
<!-- Node1 -->
<g id="node1" class="node"><title>Node1</title>
<polygon fill="#bfbfbf" stroke="black" points="17.5,-0.5 17.5,-21.5 102.5,-21.5 102.5,-0.5 17.5,-0.5"/>
<text text-anchor="middle" x="60" y="-8.5" font-family="Helvetica,sans-Serif" font-size="10.00">stxxl::RC_flash</text>
</g>
<!-- Node2 -->
<g id="node2" class="node"><title>Node2</title>
<a xlink:href="structstxxl_1_1RC.html" target="_top" xlink:title="Randomized cycling disk allocation scheme functor. ">
<polygon fill="none" stroke="black" points="30.5,-60.5 30.5,-81.5 89.5,-81.5 89.5,-60.5 30.5,-60.5"/>
<text text-anchor="middle" x="60" y="-68.5" font-family="Helvetica,sans-Serif" font-size="10.00">stxxl::RC</text>
</a>
</g>
<!-- Node2&#45;&gt;Node1 -->
<g id="edge2" class="edge"><title>Node2&#45;&gt;Node1</title>
<path fill="none" stroke="midnightblue" d="M60,-50.2312C60,-40.5922 60,-29.5444 60,-21.6339"/>
<polygon fill="midnightblue" stroke="midnightblue" points="56.5001,-50.2732 60,-60.2732 63.5001,-50.2732 56.5001,-50.2732"/>
</g>
<!-- Node3 -->
<g id="node4" class="node"><title>Node3</title>
<a xlink:href="structstxxl_1_1striping.html" target="_top" xlink:title="Striping disk allocation scheme functor. ">
<polygon fill="none" stroke="black" points="22.5,-120.5 22.5,-141.5 97.5,-141.5 97.5,-120.5 22.5,-120.5"/>
<text text-anchor="middle" x="60" y="-128.5" font-family="Helvetica,sans-Serif" font-size="10.00">stxxl::striping</text>
</a>
</g>
<!-- Node3&#45;&gt;Node2 -->
<g id="edge4" class="edge"><title>Node3&#45;&gt;Node2</title>
<path fill="none" stroke="midnightblue" d="M60,-110.231C60,-100.592 60,-89.5444 60,-81.6339"/>
<polygon fill="midnightblue" stroke="midnightblue" points="56.5001,-110.273 60,-120.273 63.5001,-110.273 56.5001,-110.273"/>
</g>
<!-- Node4 -->
<g id="node6" class="node"><title>Node4</title>
<a xlink:href="structstxxl_1_1choose__int__types.html" target="_top" xlink:title="stxxl::choose_int_types\l\&lt; my_pointer_size \&gt;">
<polygon fill="none" stroke="black" points="0,-205 0,-239 120,-239 120,-205 0,-205"/>
<text text-anchor="start" x="8" y="-226" font-family="Helvetica,sans-Serif" font-size="10.00">stxxl::choose_int_types</text>
<text text-anchor="middle" x="60" y="-213" font-family="Helvetica,sans-Serif" font-size="10.00">&lt; my_pointer_size &gt;</text>
</a>
</g>
<!-- Node4&#45;&gt;Node3 -->
<g id="edge6" class="edge"><title>Node4&#45;&gt;Node3</title>
<path fill="none" stroke="#9a32cd" stroke-dasharray="5,2" d="M60,-194.712C60,-176.817 60,-154.422 60,-141.51"/>
<polygon fill="#9a32cd" stroke="#9a32cd" points="56.5001,-194.884 60,-204.884 63.5001,-194.884 56.5001,-194.884"/>
<text text-anchor="middle" x="73.5" y="-177" font-family="Helvetica,sans-Serif" font-size="10.00"> begin</text>
<text text-anchor="middle" x="73.5" y="-164" font-family="Helvetica,sans-Serif" font-size="10.00">diff</text>
</g>
<!-- Node5 -->
<g id="node8" class="node"><title>Node5</title>
<a xlink:href="structstxxl_1_1choose__int__types.html" target="_top" xlink:title="stxxl::choose_int_types\l\&lt; PtrSize \&gt;">
<polygon fill="none" stroke="black" points="0,-291 0,-325 120,-325 120,-291 0,-291"/>
<text text-anchor="start" x="8" y="-312" font-family="Helvetica,sans-Serif" font-size="10.00">stxxl::choose_int_types</text>
<text text-anchor="middle" x="60" y="-299" font-family="Helvetica,sans-Serif" font-size="10.00">&lt; PtrSize &gt;</text>
</a>
</g>
<!-- Node5&#45;&gt;Node4 -->
<g id="edge8" class="edge"><title>Node5&#45;&gt;Node4</title>
<path fill="none" stroke="orange" stroke-dasharray="5,2" d="M60,-280.342C60,-266.774 60,-250.861 60,-239.084"/>
<polygon fill="orange" stroke="orange" points="56.5001,-280.597 60,-290.597 63.5001,-280.597 56.5001,-280.597"/>
<text text-anchor="middle" x="106.5" y="-262.5" font-family="Helvetica,sans-Serif" font-size="10.00"> &lt; my_pointer_size &gt;</text>
</g>
</g>
</svg>
