<?xml version="1.0" encoding="UTF-8" standalone="no"?>
<!DOCTYPE svg PUBLIC "-//W3C//DTD SVG 1.1//EN"
 "http://www.w3.org/Graphics/SVG/1.1/DTD/svg11.dtd">
<!-- Generated by graphviz version 2.38.0 (20140413.2041)
 -->
<!-- Title: stxxl::matrix_operation_statistic Pages: 1 -->
<svg width="811pt" height="162pt"
 viewBox="0.00 0.00 811.00 162.17" xmlns="http://www.w3.org/2000/svg" xmlns:xlink="http://www.w3.org/1999/xlink">
<g id="graph0" class="graph" transform="scale(1 1) rotate(0) translate(4 158.173)">
<title>stxxl::matrix_operation_statistic</title>
<!-- Node1 -->
<g id="node1" class="node"><title>Node1</title>
<polygon fill="#bfbfbf" stroke="black" points="687,-68.5 687,-98.5 803,-98.5 803,-68.5 687,-68.5"/>
<text text-anchor="start" x="695" y="-86.5" font-family="Helvetica,sans-Serif" font-size="10.00">stxxl::matrix_operation</text>
<text text-anchor="middle" x="745" y="-75.5" font-family="Helvetica,sans-Serif" font-size="10.00">_statistic</text>
</g>
<!-- Node2 -->
<g id="node2" class="node"><title>Node2</title>
<g id="a_node2"><a xlink:href="classstxxl_1_1singleton.html" target="_top" xlink:title="stxxl::singleton\&lt; matrix\l_operation_statistic \&gt;">
<polygon fill="none" stroke="black" points="531,-100.5 531,-130.5 650,-130.5 650,-100.5 531,-100.5"/>
<text text-anchor="start" x="539" y="-118.5" font-family="Helvetica,sans-Serif" font-size="10.00">stxxl::singleton&lt; matrix</text>
<text text-anchor="middle" x="590.5" y="-107.5" font-family="Helvetica,sans-Serif" font-size="10.00">_operation_statistic &gt;</text>
</a>
</g>
</g>
<!-- Node2&#45;&gt;Node1 -->
<g id="edge1" class="edge"><title>Node2&#45;&gt;Node1</title>
<path fill="none" stroke="midnightblue" d="M660.061,-101.113C669.028,-99.2318 678.138,-97.3201 686.889,-95.4839"/>
<polygon fill="midnightblue" stroke="midnightblue" points="659.092,-97.7404 650.024,-103.219 660.53,-104.591 659.092,-97.7404"/>
</g>
<!-- Node3 -->
<g id="node3" class="node"><title>Node3</title>
<g id="a_node3"><a xlink:href="classstxxl_1_1noncopyable.html" target="_top" xlink:title="stxxl::noncopyable">
<polygon fill="none" stroke="black" points="11,-133 11,-152 109,-152 109,-133 11,-133"/>
<text text-anchor="middle" x="60" y="-140" font-family="Helvetica,sans-Serif" font-size="10.00">stxxl::noncopyable</text>
</a>
</g>
</g>
<!-- Node3&#45;&gt;Node2 -->
<g id="edge2" class="edge"><title>Node3&#45;&gt;Node2</title>
<path fill="none" stroke="#8b1a1a" d="M119.359,-147.598C205.908,-153.923 373.125,-161.402 513,-139.5 524.964,-137.627 537.632,-134.255 549.143,-130.619"/>
<polygon fill="#8b1a1a" stroke="#8b1a1a" points="119.446,-144.094 109.212,-146.834 118.921,-151.075 119.446,-144.094"/>
</g>
<!-- Node4 -->
<g id="node4" class="node"><title>Node4</title>
<g id="a_node4"><a xlink:href="classstxxl_1_1singleton.html" target="_top" xlink:title="stxxl::singleton\&lt; INSTANCE,\l destroy_on_exit \&gt;">
<polygon fill="none" stroke="black" points="249,-96.5 249,-126.5 395,-126.5 395,-96.5 249,-96.5"/>
<text text-anchor="start" x="257" y="-114.5" font-family="Helvetica,sans-Serif" font-size="10.00">stxxl::singleton&lt; INSTANCE,</text>
<text text-anchor="middle" x="322" y="-103.5" font-family="Helvetica,sans-Serif" font-size="10.00"> destroy_on_exit &gt;</text>
</a>
</g>
</g>
<!-- Node3&#45;&gt;Node4 -->
<g id="edge4" class="edge"><title>Node3&#45;&gt;Node4</title>
<path fill="none" stroke="#8b1a1a" d="M119.265,-135.553C157.598,-130.983 208.044,-124.968 248.901,-120.096"/>
<polygon fill="#8b1a1a" stroke="#8b1a1a" points="118.81,-132.082 109.295,-136.742 119.639,-139.033 118.81,-132.082"/>
</g>
<!-- Node4&#45;&gt;Node2 -->
<g id="edge3" class="edge"><title>Node4&#45;&gt;Node2</title>
<path fill="none" stroke="orange" stroke-dasharray="5,2" d="M405.273,-112.735C445.89,-113.345 493.948,-114.066 530.794,-114.619"/>
<polygon fill="orange" stroke="orange" points="405.17,-109.233 395.119,-112.582 405.065,-116.232 405.17,-109.233"/>
<text text-anchor="start" x="420.5" y="-127.5" font-family="Helvetica,sans-Serif" font-size="10.00"> &lt; matrix_operation</text>
<text text-anchor="middle" x="463" y="-116.5" font-family="Helvetica,sans-Serif" font-size="10.00">_statistic &gt;</text>
</g>
<!-- Node5 -->
<g id="node5" class="node"><title>Node5</title>
<g id="a_node5"><a xlink:href="structstxxl_1_1matrix__operation__statistic__dataset.html" target="_top" xlink:title="stxxl::matrix_operation\l_statistic_dataset">
<polygon fill="none" stroke="black" points="532.5,-26.5 532.5,-56.5 648.5,-56.5 648.5,-26.5 532.5,-26.5"/>
<text text-anchor="start" x="540.5" y="-44.5" font-family="Helvetica,sans-Serif" font-size="10.00">stxxl::matrix_operation</text>
<text text-anchor="middle" x="590.5" y="-33.5" font-family="Helvetica,sans-Serif" font-size="10.00">_statistic_dataset</text>
</a>
</g>
</g>
<!-- Node5&#45;&gt;Node1 -->
<g id="edge5" class="edge"><title>Node5&#45;&gt;Node1</title>
<path fill="none" stroke="midnightblue" d="M655.851,-59.2228C667.049,-62.3069 678.598,-65.4877 689.5,-68.4902"/>
<polygon fill="midnightblue" stroke="midnightblue" points="656.696,-55.8253 646.125,-56.5443 654.837,-62.574 656.696,-55.8253"/>
</g>
<!-- Node6 -->
<g id="node6" class="node"><title>Node6</title>
<g id="a_node6"><a xlink:href="structstxxl_1_1choose__int__types.html" target="_top" xlink:title="stxxl::choose_int_types\l\&lt; my_pointer_size \&gt;">
<polygon fill="none" stroke="black" points="262,-0.5 262,-30.5 382,-30.5 382,-0.5 262,-0.5"/>
<text text-anchor="start" x="270" y="-18.5" font-family="Helvetica,sans-Serif" font-size="10.00">stxxl::choose_int_types</text>
<text text-anchor="middle" x="322" y="-7.5" font-family="Helvetica,sans-Serif" font-size="10.00">&lt; my_pointer_size &gt;</text>
</a>
</g>
</g>
<!-- Node6&#45;&gt;Node5 -->
<g id="edge6" class="edge"><title>Node6&#45;&gt;Node5</title>
<path fill="none" stroke="#9a32cd" stroke-dasharray="5,2" d="M392.515,-20.5834C428.512,-23.4109 473.158,-27.2207 513,-31.5 519.259,-32.1723 525.799,-32.9348 532.305,-33.7317"/>
<polygon fill="#9a32cd" stroke="#9a32cd" points="392.361,-17.061 382.12,-19.7753 391.819,-24.0399 392.361,-17.061"/>
<text text-anchor="start" x="413" y="-100.5" font-family="Helvetica,sans-Serif" font-size="10.00"> block_multiplications</text>
<text text-anchor="middle" x="463" y="-89.5" font-family="Helvetica,sans-Serif" font-size="10.00">_saved_through_zero</text>
<text text-anchor="start" x="413" y="-78.5" font-family="Helvetica,sans-Serif" font-size="10.00">block_multiplication</text>
<text text-anchor="middle" x="463" y="-67.5" font-family="Helvetica,sans-Serif" font-size="10.00">_calls</text>
<text text-anchor="start" x="413" y="-56.5" font-family="Helvetica,sans-Serif" font-size="10.00">block_additions_saved</text>
<text text-anchor="middle" x="463" y="-45.5" font-family="Helvetica,sans-Serif" font-size="10.00">_through_zero</text>
<text text-anchor="middle" x="463" y="-34.5" font-family="Helvetica,sans-Serif" font-size="10.00">block_addition_calls</text>
</g>
<!-- Node7 -->
<g id="node7" class="node"><title>Node7</title>
<g id="a_node7"><a xlink:href="structstxxl_1_1choose__int__types.html" target="_top" xlink:title="stxxl::choose_int_types\l\&lt; PtrSize \&gt;">
<polygon fill="none" stroke="black" points="0,-0.5 0,-30.5 120,-30.5 120,-0.5 0,-0.5"/>
<text text-anchor="start" x="8" y="-18.5" font-family="Helvetica,sans-Serif" font-size="10.00">stxxl::choose_int_types</text>
<text text-anchor="middle" x="60" y="-7.5" font-family="Helvetica,sans-Serif" font-size="10.00">&lt; PtrSize &gt;</text>
</a>
</g>
</g>
<!-- Node7&#45;&gt;Node6 -->
<g id="edge7" class="edge"><title>Node7&#45;&gt;Node6</title>
<path fill="none" stroke="orange" stroke-dasharray="5,2" d="M130.515,-15.5C171.531,-15.5 222.884,-15.5 261.931,-15.5"/>
<polygon fill="orange" stroke="orange" points="130.323,-12.0001 120.323,-15.5 130.323,-19.0001 130.323,-12.0001"/>
<text text-anchor="middle" x="184.5" y="-18.5" font-family="Helvetica,sans-Serif" font-size="10.00"> &lt; my_pointer_size &gt;</text>
</g>
</g>
</svg>
