<?xml version="1.0" encoding="UTF-8" standalone="no"?>
<!DOCTYPE svg PUBLIC "-//W3C//DTD SVG 1.1//EN"
 "http://www.w3.org/Graphics/SVG/1.1/DTD/svg11.dtd">
<!-- Generated by graphviz version 2.26.3 (20100126.1600)
 -->
<!-- Title: stxxl::interleaved_SR Pages: 1 -->
<svg width="161pt" height="302pt"
 viewBox="0.00 0.00 161.00 302.00" xmlns="http://www.w3.org/2000/svg" xmlns:xlink="http://www.w3.org/1999/xlink">
<g id="graph1" class="graph" transform="scale(1 1) rotate(0) translate(4 298)">
<title>stxxl::interleaved_SR</title>
<!-- Node1 -->
<g id="node1" class="node"><title>Node1</title>
<polygon fill="#bfbfbf" stroke="black" points="5,-0.5 5,-21.5 115,-21.5 115,-0.5 5,-0.5"/>
<text text-anchor="middle" x="60" y="-8.5" font-family="Helvetica,sans-Serif" font-size="10.00">stxxl::interleaved_SR</text>
</g>
<!-- Node2 -->
<g id="node2" class="node"><title>Node2</title>
<a xlink:href="structstxxl_1_1interleaved__striping.html" target="_top" xlink:title="stxxl::interleaved\l_striping">
<polygon fill="none" stroke="black" points="14.5,-61 14.5,-95 105.5,-95 105.5,-61 14.5,-61"/>
<text text-anchor="start" x="22.5" y="-82" font-family="Helvetica,sans-Serif" font-size="10.00">stxxl::interleaved</text>
<text text-anchor="middle" x="60" y="-69" font-family="Helvetica,sans-Serif" font-size="10.00">_striping</text>
</a>
</g>
<!-- Node2&#45;&gt;Node1 -->
<g id="edge2" class="edge"><title>Node2&#45;&gt;Node1</title>
<path fill="none" stroke="midnightblue" d="M60,-50.5344C60,-40.3057 60,-29.3007 60,-21.5056"/>
<polygon fill="midnightblue" stroke="midnightblue" points="56.5001,-50.7458 60,-60.7458 63.5001,-50.7459 56.5001,-50.7458"/>
</g>
<!-- Node3 -->
<g id="node4" class="node"><title>Node3</title>
<a xlink:href="structstxxl_1_1choose__int__types.html" target="_top" xlink:title="stxxl::choose_int_types\l\&lt; my_pointer_size \&gt;">
<polygon fill="none" stroke="black" points="0,-173 0,-207 120,-207 120,-173 0,-173"/>
<text text-anchor="start" x="8" y="-194" font-family="Helvetica,sans-Serif" font-size="10.00">stxxl::choose_int_types</text>
<text text-anchor="middle" x="60" y="-181" font-family="Helvetica,sans-Serif" font-size="10.00">&lt; my_pointer_size &gt;</text>
</a>
</g>
<!-- Node3&#45;&gt;Node2 -->
<g id="edge4" class="edge"><title>Node3&#45;&gt;Node2</title>
<path fill="none" stroke="#9a32cd" stroke-dasharray="5,2" d="M60,-162.746C60,-141.677 60,-113.159 60,-95.1705"/>
<polygon fill="#9a32cd" stroke="#9a32cd" points="56.5001,-162.99 60,-172.99 63.5001,-162.99 56.5001,-162.99"/>
<text text-anchor="middle" x="81" y="-144.5" font-family="Helvetica,sans-Serif" font-size="10.00"> diff</text>
<text text-anchor="middle" x="81" y="-131.5" font-family="Helvetica,sans-Serif" font-size="10.00">begindisk</text>
<text text-anchor="middle" x="81" y="-118.5" font-family="Helvetica,sans-Serif" font-size="10.00">nruns</text>
</g>
<!-- Node4 -->
<g id="node6" class="node"><title>Node4</title>
<a xlink:href="structstxxl_1_1choose__int__types.html" target="_top" xlink:title="stxxl::choose_int_types\l\&lt; PtrSize \&gt;">
<polygon fill="none" stroke="black" points="0,-259 0,-293 120,-293 120,-259 0,-259"/>
<text text-anchor="start" x="8" y="-280" font-family="Helvetica,sans-Serif" font-size="10.00">stxxl::choose_int_types</text>
<text text-anchor="middle" x="60" y="-267" font-family="Helvetica,sans-Serif" font-size="10.00">&lt; PtrSize &gt;</text>
</a>
</g>
<!-- Node4&#45;&gt;Node3 -->
<g id="edge6" class="edge"><title>Node4&#45;&gt;Node3</title>
<path fill="none" stroke="orange" stroke-dasharray="5,2" d="M60,-248.342C60,-234.774 60,-218.861 60,-207.084"/>
<polygon fill="orange" stroke="orange" points="56.5001,-248.597 60,-258.597 63.5001,-248.597 56.5001,-248.597"/>
<text text-anchor="middle" x="106.5" y="-230.5" font-family="Helvetica,sans-Serif" font-size="10.00"> &lt; my_pointer_size &gt;</text>
</g>
</g>
</svg>
