<?xml version="1.0" encoding="UTF-8" standalone="no"?>
<!DOCTYPE svg PUBLIC "-//W3C//DTD SVG 1.1//EN"
 "http://www.w3.org/Graphics/SVG/1.1/DTD/svg11.dtd">
<!-- Generated by graphviz version 2.26.3 (20100126.1600)
 -->
<!-- Title: stxxl::btree::normal_leaf&lt; KeyType, DataType, KeyCmp, LogNElem, BTreeType &gt;::metainfo_type Pages: 1 -->
<svg width="341pt" height="570pt"
 viewBox="0.00 0.00 341.00 570.00" xmlns="http://www.w3.org/2000/svg" xmlns:xlink="http://www.w3.org/1999/xlink">
<g id="graph1" class="graph" transform="scale(1 1) rotate(0) translate(4 566)">
<title>stxxl::btree::normal_leaf&lt; KeyType, DataType, KeyCmp, LogNElem, BTreeType &gt;::metainfo_type</title>
<!-- Node1 -->
<g id="node1" class="node"><title>Node1</title>
<polygon fill="#bfbfbf" stroke="black" points="0,-1 0,-61 164,-61 164,-1 0,-1"/>
<text text-anchor="start" x="8" y="-48" font-family="Helvetica,sans-Serif" font-size="10.00">stxxl::btree::normal</text>
<text text-anchor="start" x="8" y="-35" font-family="Helvetica,sans-Serif" font-size="10.00">_leaf&lt; KeyType, DataType,</text>
<text text-anchor="start" x="8" y="-22" font-family="Helvetica,sans-Serif" font-size="10.00"> KeyCmp, LogNElem, BTreeType</text>
<text text-anchor="middle" x="82" y="-9" font-family="Helvetica,sans-Serif" font-size="10.00"> &gt;::metainfo_type</text>
</g>
<!-- Node2 -->
<g id="node2" class="node"><title>Node2</title>
<a xlink:href="structstxxl_1_1BID.html" target="_top" xlink:title="stxxl::BID\&lt; raw_size \&gt;">
<polygon fill="none" stroke="black" points="23,-138.5 23,-159.5 141,-159.5 141,-138.5 23,-138.5"/>
<text text-anchor="middle" x="82" y="-146.5" font-family="Helvetica,sans-Serif" font-size="10.00">stxxl::BID&lt; raw_size &gt;</text>
</a>
</g>
<!-- Node2&#45;&gt;Node1 -->
<g id="edge2" class="edge"><title>Node2&#45;&gt;Node1</title>
<path fill="none" stroke="#9a32cd" stroke-dasharray="5,2" d="M82,-128.043C82,-109.436 82,-82.0286 82,-61.0817"/>
<polygon fill="#9a32cd" stroke="#9a32cd" points="78.5001,-128.11 82,-138.11 85.5001,-128.11 78.5001,-128.11"/>
<text text-anchor="middle" x="93" y="-110.5" font-family="Helvetica,sans-Serif" font-size="10.00"> pred</text>
<text text-anchor="middle" x="93" y="-97.5" font-family="Helvetica,sans-Serif" font-size="10.00">succ</text>
<text text-anchor="middle" x="93" y="-84.5" font-family="Helvetica,sans-Serif" font-size="10.00">me</text>
</g>
<!-- Node3 -->
<g id="node4" class="node"><title>Node3</title>
<a xlink:href="classstxxl_1_1file.html" target="_top" xlink:title="Defines interface of file. ">
<polygon fill="none" stroke="black" points="36,-282.5 36,-303.5 92,-303.5 92,-282.5 36,-282.5"/>
<text text-anchor="middle" x="64" y="-290.5" font-family="Helvetica,sans-Serif" font-size="10.00">stxxl::file</text>
</a>
</g>
<!-- Node3&#45;&gt;Node2 -->
<g id="edge4" class="edge"><title>Node3&#45;&gt;Node2</title>
<path fill="none" stroke="#9a32cd" stroke-dasharray="5,2" d="M59.1367,-272.522C55.8691,-255.616 52.8506,-231.066 57,-210 60.6274,-191.584 69.8672,-171.729 76.0398,-159.837"/>
<polygon fill="#9a32cd" stroke="#9a32cd" points="55.7377,-273.365 61.2471,-282.415 62.5836,-271.905 55.7377,-273.365"/>
<text text-anchor="middle" x="75" y="-218.5" font-family="Helvetica,sans-Serif" font-size="10.00"> storage</text>
</g>
<!-- Node9 -->
<g id="node17" class="node"><title>Node9</title>
<a xlink:href="structstxxl_1_1BID.html" target="_top" xlink:title="Block identifier class. ">
<polygon fill="none" stroke="black" points="101.5,-210.5 101.5,-231.5 202.5,-231.5 202.5,-210.5 101.5,-210.5"/>
<text text-anchor="middle" x="152" y="-218.5" font-family="Helvetica,sans-Serif" font-size="10.00">stxxl::BID&lt; SIZE &gt;</text>
</a>
</g>
<!-- Node3&#45;&gt;Node9 -->
<g id="edge20" class="edge"><title>Node3&#45;&gt;Node9</title>
<path fill="none" stroke="#9a32cd" stroke-dasharray="5,2" d="M85.1108,-275.728C101.871,-262.015 124.772,-243.277 138.962,-231.667"/>
<polygon fill="#9a32cd" stroke="#9a32cd" points="82.508,-273.335 76.9847,-282.376 86.9406,-278.753 82.508,-273.335"/>
<text text-anchor="middle" x="134" y="-254.5" font-family="Helvetica,sans-Serif" font-size="10.00"> storage</text>
</g>
<!-- Node4 -->
<g id="node6" class="node"><title>Node4</title>
<a xlink:href="classstxxl_1_1noncopyable.html" target="_top" xlink:title="stxxl::noncopyable">
<polygon fill="none" stroke="black" points="8,-533.5 8,-554.5 106,-554.5 106,-533.5 8,-533.5"/>
<text text-anchor="middle" x="57" y="-541.5" font-family="Helvetica,sans-Serif" font-size="10.00">stxxl::noncopyable</text>
</a>
</g>
<!-- Node4&#45;&gt;Node3 -->
<g id="edge6" class="edge"><title>Node4&#45;&gt;Node3</title>
<path fill="none" stroke="#8b1a1a" d="M55.3318,-522.856C52.8594,-487.728 49.0208,-415.152 54,-354 55.4457,-336.244 59.2212,-315.867 61.6972,-303.733"/>
<polygon fill="#8b1a1a" stroke="#8b1a1a" points="51.8735,-523.549 56.1032,-533.263 58.8543,-523.032 51.8735,-523.549"/>
</g>
<!-- Node6 -->
<g id="node10" class="node"><title>Node6</title>
<a xlink:href="classstxxl_1_1mutex.html" target="_top" xlink:title="stxxl::mutex">
<polygon fill="none" stroke="black" points="62.5,-447.5 62.5,-468.5 133.5,-468.5 133.5,-447.5 62.5,-447.5"/>
<text text-anchor="middle" x="98" y="-455.5" font-family="Helvetica,sans-Serif" font-size="10.00">stxxl::mutex</text>
</a>
</g>
<!-- Node4&#45;&gt;Node6 -->
<g id="edge12" class="edge"><title>Node4&#45;&gt;Node6</title>
<path fill="none" stroke="#8b1a1a" d="M66.4235,-524.234C74.6694,-506.937 86.3324,-482.474 92.9315,-468.632"/>
<polygon fill="#8b1a1a" stroke="#8b1a1a" points="63.1715,-522.922 62.0274,-533.455 69.4902,-525.934 63.1715,-522.922"/>
</g>
<!-- Node5 -->
<g id="node8" class="node"><title>Node5</title>
<a xlink:href="classstxxl_1_1atomic__counted__object.html" target="_top" xlink:title="Provides reference counting abilities for use with counting_ptr with mutex locking. ">
<polygon fill="none" stroke="black" points="62.5,-355 62.5,-389 175.5,-389 175.5,-355 62.5,-355"/>
<text text-anchor="start" x="70.5" y="-376" font-family="Helvetica,sans-Serif" font-size="10.00">stxxl::atomic_counted</text>
<text text-anchor="middle" x="119" y="-363" font-family="Helvetica,sans-Serif" font-size="10.00">_object</text>
</a>
</g>
<!-- Node5&#45;&gt;Node3 -->
<g id="edge8" class="edge"><title>Node5&#45;&gt;Node3</title>
<path fill="none" stroke="#9a32cd" stroke-dasharray="5,2" d="M101.091,-346.276C90.9932,-331.772 78.9227,-314.434 71.3569,-303.567"/>
<polygon fill="#9a32cd" stroke="#9a32cd" points="98.4797,-348.651 107.066,-354.858 104.225,-344.651 98.4797,-348.651"/>
<text text-anchor="middle" x="127" y="-326.5" font-family="Helvetica,sans-Serif" font-size="10.00"> m_request_ref</text>
</g>
<!-- Node6&#45;&gt;Node5 -->
<g id="edge10" class="edge"><title>Node6&#45;&gt;Node5</title>
<path fill="none" stroke="#9a32cd" stroke-dasharray="5,2" d="M96.1907,-437.329C95.9558,-428.195 96.4594,-417.416 99,-408 100.751,-401.511 103.912,-394.934 107.213,-389.208"/>
<polygon fill="#9a32cd" stroke="#9a32cd" points="92.7038,-437.662 96.7563,-447.451 99.6929,-437.271 92.7038,-437.662"/>
<text text-anchor="middle" x="158.5" y="-412.5" font-family="Helvetica,sans-Serif" font-size="10.00"> m_reference_count_mutex</text>
</g>
<!-- Node7 -->
<g id="node13" class="node"><title>Node7</title>
<a xlink:href="structstxxl_1_1choose__int__types.html" target="_top" xlink:title="stxxl::choose_int_types\l\&lt; my_pointer_size \&gt;">
<polygon fill="none" stroke="black" points="180,-441 180,-475 300,-475 300,-441 180,-441"/>
<text text-anchor="start" x="188" y="-462" font-family="Helvetica,sans-Serif" font-size="10.00">stxxl::choose_int_types</text>
<text text-anchor="middle" x="240" y="-449" font-family="Helvetica,sans-Serif" font-size="10.00">&lt; my_pointer_size &gt;</text>
</a>
</g>
<!-- Node7&#45;&gt;Node5 -->
<g id="edge14" class="edge"><title>Node7&#45;&gt;Node5</title>
<path fill="none" stroke="#9a32cd" stroke-dasharray="5,2" d="M232.782,-431.194C229.432,-422.866 224.667,-414.243 218,-408 206.185,-396.937 190.708,-389.221 175.512,-383.86"/>
<polygon fill="#9a32cd" stroke="#9a32cd" points="229.491,-432.388 236.093,-440.675 236.1,-430.08 229.491,-432.388"/>
<text text-anchor="middle" x="270.5" y="-412.5" font-family="Helvetica,sans-Serif" font-size="10.00"> m_reference_count</text>
</g>
<!-- Node8 -->
<g id="node15" class="node"><title>Node8</title>
<a xlink:href="structstxxl_1_1choose__int__types.html" target="_top" xlink:title="stxxl::choose_int_types\l\&lt; PtrSize \&gt;">
<polygon fill="none" stroke="black" points="180,-527 180,-561 300,-561 300,-527 180,-527"/>
<text text-anchor="start" x="188" y="-548" font-family="Helvetica,sans-Serif" font-size="10.00">stxxl::choose_int_types</text>
<text text-anchor="middle" x="240" y="-535" font-family="Helvetica,sans-Serif" font-size="10.00">&lt; PtrSize &gt;</text>
</a>
</g>
<!-- Node8&#45;&gt;Node7 -->
<g id="edge16" class="edge"><title>Node8&#45;&gt;Node7</title>
<path fill="none" stroke="orange" stroke-dasharray="5,2" d="M240,-516.342C240,-502.774 240,-486.861 240,-475.084"/>
<polygon fill="orange" stroke="orange" points="236.5,-516.597 240,-526.597 243.5,-516.597 236.5,-516.597"/>
<text text-anchor="middle" x="286.5" y="-498.5" font-family="Helvetica,sans-Serif" font-size="10.00"> &lt; my_pointer_size &gt;</text>
</g>
<!-- Node9&#45;&gt;Node2 -->
<g id="edge18" class="edge"><title>Node9&#45;&gt;Node2</title>
<path fill="none" stroke="orange" stroke-dasharray="5,2" d="M134.469,-202.968C121.209,-189.329 103.452,-171.064 92.3711,-159.667"/>
<polygon fill="orange" stroke="orange" points="132.191,-205.646 141.671,-210.376 137.21,-200.766 132.191,-205.646"/>
<text text-anchor="middle" x="154.5" y="-182.5" font-family="Helvetica,sans-Serif" font-size="10.00"> &lt; raw_size &gt;</text>
</g>
</g>
</svg>
