<?xml version="1.0" encoding="UTF-8" standalone="no"?>
<!DOCTYPE svg PUBLIC "-//W3C//DTD SVG 1.1//EN"
 "http://www.w3.org/Graphics/SVG/1.1/DTD/svg11.dtd">
<!-- Generated by graphviz version 2.26.3 (20100126.1600)
 -->
<!-- Title: stxxl::matrix_operation_statistic Pages: 1 -->
<svg width="814pt" height="184pt"
 viewBox="0.00 0.00 814.00 184.37" xmlns="http://www.w3.org/2000/svg" xmlns:xlink="http://www.w3.org/1999/xlink">
<g id="graph1" class="graph" transform="scale(1 1) rotate(0) translate(4 180.369)">
<title>stxxl::matrix_operation_statistic</title>
<!-- Node1 -->
<g id="node1" class="node"><title>Node1</title>
<polygon fill="#bfbfbf" stroke="black" points="690,-79 690,-113 806,-113 806,-79 690,-79"/>
<text text-anchor="start" x="698" y="-100" font-family="Helvetica,sans-Serif" font-size="10.00">stxxl::matrix_operation</text>
<text text-anchor="middle" x="748" y="-87" font-family="Helvetica,sans-Serif" font-size="10.00">_statistic</text>
</g>
<!-- Node2 -->
<g id="node2" class="node"><title>Node2</title>
<a xlink:href="classstxxl_1_1singleton.html" target="_top" xlink:title="stxxl::singleton\&lt; matrix\l_operation_statistic \&gt;">
<polygon fill="none" stroke="black" points="532.5,-114 532.5,-148 651.5,-148 651.5,-114 532.5,-114"/>
<text text-anchor="start" x="540.5" y="-135" font-family="Helvetica,sans-Serif" font-size="10.00">stxxl::singleton&lt; matrix</text>
<text text-anchor="middle" x="592" y="-122" font-family="Helvetica,sans-Serif" font-size="10.00">_operation_statistic &gt;</text>
</a>
</g>
<!-- Node2&#45;&gt;Node1 -->
<g id="edge2" class="edge"><title>Node2&#45;&gt;Node1</title>
<path fill="none" stroke="midnightblue" d="M661.908,-115.315C671.242,-113.221 680.732,-111.092 689.835,-109.05"/>
<polygon fill="midnightblue" stroke="midnightblue" points="660.859,-111.964 651.868,-117.568 662.391,-118.794 660.859,-111.964"/>
</g>
<!-- Node3 -->
<g id="node4" class="node"><title>Node3</title>
<a xlink:href="classstxxl_1_1noncopyable.html" target="_top" xlink:title="stxxl::noncopyable">
<polygon fill="none" stroke="black" points="11,-150.5 11,-171.5 109,-171.5 109,-150.5 11,-150.5"/>
<text text-anchor="middle" x="60" y="-158.5" font-family="Helvetica,sans-Serif" font-size="10.00">stxxl::noncopyable</text>
</a>
</g>
<!-- Node3&#45;&gt;Node2 -->
<g id="edge4" class="edge"><title>Node3&#45;&gt;Node2</title>
<path fill="none" stroke="#8b1a1a" d="M119.197,-167.454C206.437,-175.486 374.302,-185.288 514,-160 527.505,-157.555 541.729,-152.931 554.277,-148.082"/>
<polygon fill="#8b1a1a" stroke="#8b1a1a" points="119.506,-163.968 109.22,-166.51 118.846,-170.937 119.506,-163.968"/>
</g>
<!-- Node4 -->
<g id="node6" class="node"><title>Node4</title>
<a xlink:href="classstxxl_1_1singleton.html" target="_top" xlink:title="stxxl::singleton\&lt; INSTANCE,\l destroy_on_exit \&gt;">
<polygon fill="none" stroke="black" points="250,-112 250,-146 396,-146 396,-112 250,-112"/>
<text text-anchor="start" x="258" y="-133" font-family="Helvetica,sans-Serif" font-size="10.00">stxxl::singleton&lt; INSTANCE,</text>
<text text-anchor="middle" x="323" y="-120" font-family="Helvetica,sans-Serif" font-size="10.00"> destroy_on_exit &gt;</text>
</a>
</g>
<!-- Node3&#45;&gt;Node4 -->
<g id="edge8" class="edge"><title>Node3&#45;&gt;Node4</title>
<path fill="none" stroke="#8b1a1a" d="M119.232,-153.793C157.943,-149.083 208.774,-142.898 249.983,-137.884"/>
<polygon fill="#8b1a1a" stroke="#8b1a1a" points="118.664,-150.336 109.16,-155.019 119.509,-157.285 118.664,-150.336"/>
</g>
<!-- Node4&#45;&gt;Node2 -->
<g id="edge6" class="edge"><title>Node4&#45;&gt;Node2</title>
<path fill="none" stroke="orange" stroke-dasharray="5,2" d="M406.359,-129.62C447.186,-129.923 495.399,-130.282 532.459,-130.557"/>
<polygon fill="orange" stroke="orange" points="406.176,-126.118 396.15,-129.544 406.124,-133.118 406.176,-126.118"/>
<text text-anchor="start" x="421.5" y="-147" font-family="Helvetica,sans-Serif" font-size="10.00"> &lt; matrix_operation</text>
<text text-anchor="middle" x="464" y="-134" font-family="Helvetica,sans-Serif" font-size="10.00">_statistic &gt;</text>
</g>
<!-- Node5 -->
<g id="node9" class="node"><title>Node5</title>
<a xlink:href="structstxxl_1_1matrix__operation__statistic__dataset.html" target="_top" xlink:title="stxxl::matrix_operation\l_statistic_dataset">
<polygon fill="none" stroke="black" points="534,-31 534,-65 650,-65 650,-31 534,-31"/>
<text text-anchor="start" x="542" y="-52" font-family="Helvetica,sans-Serif" font-size="10.00">stxxl::matrix_operation</text>
<text text-anchor="middle" x="592" y="-39" font-family="Helvetica,sans-Serif" font-size="10.00">_statistic_dataset</text>
</a>
</g>
<!-- Node5&#45;&gt;Node1 -->
<g id="edge10" class="edge"><title>Node5&#45;&gt;Node1</title>
<path fill="none" stroke="midnightblue" d="M657.238,-68.0732C669.045,-71.7061 681.253,-75.4623 692.74,-78.9968"/>
<polygon fill="midnightblue" stroke="midnightblue" points="658.026,-64.6539 647.439,-65.0582 655.967,-71.3443 658.026,-64.6539"/>
</g>
<!-- Node6 -->
<g id="node11" class="node"><title>Node6</title>
<a xlink:href="structstxxl_1_1choose__int__types.html" target="_top" xlink:title="stxxl::choose_int_types\l\&lt; my_pointer_size \&gt;">
<polygon fill="none" stroke="black" points="263,-0 263,-34 383,-34 383,-0 263,-0"/>
<text text-anchor="start" x="271" y="-21" font-family="Helvetica,sans-Serif" font-size="10.00">stxxl::choose_int_types</text>
<text text-anchor="middle" x="323" y="-8" font-family="Helvetica,sans-Serif" font-size="10.00">&lt; my_pointer_size &gt;</text>
</a>
</g>
<!-- Node6&#45;&gt;Node5 -->
<g id="edge12" class="edge"><title>Node6&#45;&gt;Node5</title>
<path fill="none" stroke="#9a32cd" stroke-dasharray="5,2" d="M393.79,-21.7944C429.858,-24.6187 474.358,-28.6889 514,-34 520.409,-34.8587 527.094,-35.8739 533.737,-36.9593"/>
<polygon fill="#9a32cd" stroke="#9a32cd" points="393.607,-18.2701 383.369,-20.9945 393.071,-25.2496 393.607,-18.2701"/>
<text text-anchor="start" x="414" y="-116" font-family="Helvetica,sans-Serif" font-size="10.00"> block_multiplications</text>
<text text-anchor="middle" x="464" y="-103" font-family="Helvetica,sans-Serif" font-size="10.00">_saved_through_zero</text>
<text text-anchor="start" x="414" y="-90" font-family="Helvetica,sans-Serif" font-size="10.00">block_multiplication</text>
<text text-anchor="middle" x="464" y="-77" font-family="Helvetica,sans-Serif" font-size="10.00">_calls</text>
<text text-anchor="start" x="414" y="-64" font-family="Helvetica,sans-Serif" font-size="10.00">block_additions_saved</text>
<text text-anchor="middle" x="464" y="-51" font-family="Helvetica,sans-Serif" font-size="10.00">_through_zero</text>
<text text-anchor="middle" x="464" y="-38" font-family="Helvetica,sans-Serif" font-size="10.00">block_addition_calls</text>
</g>
<!-- Node7 -->
<g id="node13" class="node"><title>Node7</title>
<a xlink:href="structstxxl_1_1choose__int__types.html" target="_top" xlink:title="stxxl::choose_int_types\l\&lt; PtrSize \&gt;">
<polygon fill="none" stroke="black" points="0,-0 0,-34 120,-34 120,-0 0,-0"/>
<text text-anchor="start" x="8" y="-21" font-family="Helvetica,sans-Serif" font-size="10.00">stxxl::choose_int_types</text>
<text text-anchor="middle" x="60" y="-8" font-family="Helvetica,sans-Serif" font-size="10.00">&lt; PtrSize &gt;</text>
</a>
</g>
<!-- Node7&#45;&gt;Node6 -->
<g id="edge14" class="edge"><title>Node7&#45;&gt;Node6</title>
<path fill="none" stroke="orange" stroke-dasharray="5,2" d="M130.017,-17C171.397,-17 223.258,-17 262.795,-17"/>
<polygon fill="orange" stroke="orange" points="130.008,-13.5001 120.008,-17 130.008,-20.5001 130.008,-13.5001"/>
<text text-anchor="middle" x="185" y="-21" font-family="Helvetica,sans-Serif" font-size="10.00"> &lt; my_pointer_size &gt;</text>
</g>
</g>
</svg>
