<?xml version="1.0" encoding="UTF-8" standalone="no"?>
<!DOCTYPE svg PUBLIC "-//W3C//DTD SVG 1.1//EN"
 "http://www.w3.org/Graphics/SVG/1.1/DTD/svg11.dtd">
<!-- Generated by graphviz version 2.26.3 (20100126.1600)
 -->
<!-- Title: stxxl::matrix_local::matrix_operations&lt; ValueType, BlockSideLength &gt;::swappable_block_matrix_padding_quarterer Pages: 1 -->
<svg width="1862pt" height="374pt"
 viewBox="0.00 0.00 1862.00 374.00" xmlns="http://www.w3.org/2000/svg" xmlns:xlink="http://www.w3.org/1999/xlink">
<g id="graph1" class="graph" transform="scale(1 1) rotate(0) translate(4 370)">
<title>stxxl::matrix_local::matrix_operations&lt; ValueType, BlockSideLength &gt;::swappable_block_matrix_padding_quarterer</title>
<!-- Node1 -->
<g id="node1" class="node"><title>Node1</title>
<polygon fill="#bfbfbf" stroke="black" points="1702,-222.5 1702,-295.5 1854,-295.5 1854,-222.5 1702,-222.5"/>
<text text-anchor="start" x="1710" y="-282.5" font-family="Helvetica,sans-Serif" font-size="10.00">stxxl::matrix_local</text>
<text text-anchor="start" x="1710" y="-269.5" font-family="Helvetica,sans-Serif" font-size="10.00">::matrix_operations</text>
<text text-anchor="start" x="1710" y="-256.5" font-family="Helvetica,sans-Serif" font-size="10.00">&lt; ValueType, BlockSideLength</text>
<text text-anchor="start" x="1710" y="-243.5" font-family="Helvetica,sans-Serif" font-size="10.00"> &gt;::swappable_block_matrix</text>
<text text-anchor="middle" x="1778" y="-230.5" font-family="Helvetica,sans-Serif" font-size="10.00">_padding_quarterer</text>
</g>
<!-- Node2 -->
<g id="node2" class="node"><title>Node2</title>
<a xlink:href="classstxxl_1_1swappable__block__matrix.html" target="_top" xlink:title="External container for a (sub)matrix. Not intended for direct use. ">
<polygon fill="none" stroke="black" points="1498.5,-235.5 1498.5,-282.5 1653.5,-282.5 1653.5,-235.5 1498.5,-235.5"/>
<text text-anchor="start" x="1506.5" y="-269.5" font-family="Helvetica,sans-Serif" font-size="10.00">stxxl::swappable_block</text>
<text text-anchor="start" x="1506.5" y="-256.5" font-family="Helvetica,sans-Serif" font-size="10.00">_matrix&lt; ValueType, BlockSide</text>
<text text-anchor="middle" x="1576" y="-243.5" font-family="Helvetica,sans-Serif" font-size="10.00">Length &gt;</text>
</a>
</g>
<!-- Node2&#45;&gt;Node1 -->
<g id="edge2" class="edge"><title>Node2&#45;&gt;Node1</title>
<path fill="none" stroke="#9a32cd" stroke-dasharray="5,2" d="M1663.61,-259C1676.29,-259 1689.25,-259 1701.69,-259"/>
<polygon fill="#9a32cd" stroke="#9a32cd" points="1663.52,-255.5 1653.52,-259 1663.52,-262.5 1663.52,-255.5"/>
<text text-anchor="middle" x="1678" y="-302" font-family="Helvetica,sans-Serif" font-size="10.00"> dl</text>
<text text-anchor="middle" x="1678" y="-289" font-family="Helvetica,sans-Serif" font-size="10.00">ul</text>
<text text-anchor="middle" x="1678" y="-276" font-family="Helvetica,sans-Serif" font-size="10.00">dr</text>
<text text-anchor="middle" x="1678" y="-263" font-family="Helvetica,sans-Serif" font-size="10.00">ur</text>
</g>
<!-- Node3 -->
<g id="node4" class="node"><title>Node3</title>
<a xlink:href="classstxxl_1_1atomic__counted__object.html" target="_top" xlink:title="Provides reference counting abilities for use with counting_ptr with mutex locking. ">
<polygon fill="none" stroke="black" points="553.5,-228 553.5,-262 666.5,-262 666.5,-228 553.5,-228"/>
<text text-anchor="start" x="561.5" y="-249" font-family="Helvetica,sans-Serif" font-size="10.00">stxxl::atomic_counted</text>
<text text-anchor="middle" x="610" y="-236" font-family="Helvetica,sans-Serif" font-size="10.00">_object</text>
</a>
</g>
<!-- Node3&#45;&gt;Node2 -->
<g id="edge4" class="edge"><title>Node3&#45;&gt;Node2</title>
<path fill="none" stroke="midnightblue" d="M677.088,-241.29C712.951,-239.613 757.868,-238 798,-238 798,-238 798,-238 1383,-238 1421.09,-238 1463.15,-242.092 1498.27,-246.663"/>
<polygon fill="midnightblue" stroke="midnightblue" points="676.565,-237.811 666.745,-241.787 676.902,-244.803 676.565,-237.811"/>
</g>
<!-- Node12 -->
<g id="node25" class="node"><title>Node12</title>
<a xlink:href="classstxxl_1_1file.html" target="_top" xlink:title="Defines interface of file. ">
<polygon fill="none" stroke="black" points="770,-128.5 770,-149.5 826,-149.5 826,-128.5 770,-128.5"/>
<text text-anchor="middle" x="798" y="-136.5" font-family="Helvetica,sans-Serif" font-size="10.00">stxxl::file</text>
</a>
</g>
<!-- Node3&#45;&gt;Node12 -->
<g id="edge32" class="edge"><title>Node3&#45;&gt;Node12</title>
<path fill="none" stroke="#9a32cd" stroke-dasharray="5,2" d="M627.802,-219.494C641.645,-201.577 662.421,-178.487 686,-165 711.991,-150.134 745.976,-143.762 769.664,-141.035"/>
<polygon fill="#9a32cd" stroke="#9a32cd" points="624.769,-217.706 621.581,-227.81 630.374,-221.899 624.769,-217.706"/>
<text text-anchor="middle" x="719" y="-169" font-family="Helvetica,sans-Serif" font-size="10.00"> m_request_ref</text>
</g>
<!-- Node4 -->
<g id="node6" class="node"><title>Node4</title>
<a xlink:href="classstxxl_1_1mutex.html" target="_top" xlink:title="stxxl::mutex">
<polygon fill="none" stroke="black" points="287.5,-189.5 287.5,-210.5 358.5,-210.5 358.5,-189.5 287.5,-189.5"/>
<text text-anchor="middle" x="323" y="-197.5" font-family="Helvetica,sans-Serif" font-size="10.00">stxxl::mutex</text>
</a>
</g>
<!-- Node4&#45;&gt;Node3 -->
<g id="edge6" class="edge"><title>Node4&#45;&gt;Node3</title>
<path fill="none" stroke="#9a32cd" stroke-dasharray="5,2" d="M368.682,-207.163C418.831,-215.026 499.396,-227.658 553.484,-236.139"/>
<polygon fill="#9a32cd" stroke="#9a32cd" points="369.19,-203.7 358.768,-205.608 368.106,-210.615 369.19,-203.7"/>
<text text-anchor="middle" x="474" y="-237" font-family="Helvetica,sans-Serif" font-size="10.00"> m_reference_count_mutex</text>
</g>
<!-- Node13 -->
<g id="node29" class="node"><title>Node13</title>
<a xlink:href="classstxxl_1_1disk__allocator.html" target="_top" xlink:title="stxxl::disk_allocator">
<polygon fill="none" stroke="black" points="944,-117.5 944,-138.5 1048,-138.5 1048,-117.5 944,-117.5"/>
<text text-anchor="middle" x="996" y="-125.5" font-family="Helvetica,sans-Serif" font-size="10.00">stxxl::disk_allocator</text>
</a>
</g>
<!-- Node4&#45;&gt;Node13 -->
<g id="edge40" class="edge"><title>Node4&#45;&gt;Node13</title>
<path fill="none" stroke="#9a32cd" stroke-dasharray="5,2" d="M368.926,-201.744C470.89,-204.485 723.17,-205.003 926,-154 941.464,-150.111 958.228,-143.957 971.472,-138.613"/>
<polygon fill="#9a32cd" stroke="#9a32cd" points="368.772,-198.238 358.675,-201.447 368.569,-205.235 368.772,-198.238"/>
<text text-anchor="middle" x="719" y="-197" font-family="Helvetica,sans-Serif" font-size="10.00"> mutex</text>
</g>
<!-- Node5 -->
<g id="node8" class="node"><title>Node5</title>
<a xlink:href="classstxxl_1_1noncopyable.html" target="_top" xlink:title="stxxl::noncopyable">
<polygon fill="none" stroke="black" points="11,-108.5 11,-129.5 109,-129.5 109,-108.5 11,-108.5"/>
<text text-anchor="middle" x="60" y="-116.5" font-family="Helvetica,sans-Serif" font-size="10.00">stxxl::noncopyable</text>
</a>
</g>
<!-- Node5&#45;&gt;Node4 -->
<g id="edge8" class="edge"><title>Node5&#45;&gt;Node4</title>
<path fill="none" stroke="#8b1a1a" d="M91.7302,-133.67C105.733,-139.817 122.5,-146.742 138,-152 189.062,-169.322 249.841,-183.994 287.426,-192.4"/>
<polygon fill="#8b1a1a" stroke="#8b1a1a" points="93.0861,-130.442 82.5275,-129.568 90.2362,-136.836 93.0861,-130.442"/>
</g>
<!-- Node8 -->
<g id="node14" class="node"><title>Node8</title>
<a xlink:href="classstxxl_1_1block__scheduler.html" target="_top" xlink:title="Schedules swapping of blocks and provides blocks for temporary storage. ">
<polygon fill="none" stroke="black" points="1318.5,-274 1318.5,-308 1447.5,-308 1447.5,-274 1318.5,-274"/>
<text text-anchor="start" x="1326.5" y="-295" font-family="Helvetica,sans-Serif" font-size="10.00">stxxl::block_scheduler</text>
<text text-anchor="middle" x="1383" y="-282" font-family="Helvetica,sans-Serif" font-size="10.00">&lt; SwappableBlockType &gt;</text>
</a>
</g>
<!-- Node5&#45;&gt;Node8 -->
<g id="edge16" class="edge"><title>Node5&#45;&gt;Node8</title>
<path fill="none" stroke="#8b1a1a" d="M73.7538,-137.719C109.353,-183.799 209.684,-299 323,-299 323,-299 323,-299 1209,-299 1245.14,-299 1285.45,-297.257 1318.17,-295.398"/>
<polygon fill="#8b1a1a" stroke="#8b1a1a" points="76.521,-135.576 67.6912,-129.721 70.9423,-139.804 76.521,-135.576"/>
</g>
<!-- Node10 -->
<g id="node19" class="node"><title>Node10</title>
<a xlink:href="classstxxl_1_1singleton.html" target="_top" xlink:title="stxxl::singleton\&lt; block\l_manager \&gt;">
<polygon fill="none" stroke="black" points="552.5,-14 552.5,-48 667.5,-48 667.5,-14 552.5,-14"/>
<text text-anchor="start" x="560.5" y="-35" font-family="Helvetica,sans-Serif" font-size="10.00">stxxl::singleton&lt; block</text>
<text text-anchor="middle" x="610" y="-22" font-family="Helvetica,sans-Serif" font-size="10.00">_manager &gt;</text>
</a>
</g>
<!-- Node5&#45;&gt;Node10 -->
<g id="edge22" class="edge"><title>Node5&#45;&gt;Node10</title>
<path fill="none" stroke="#8b1a1a" d="M89.5781,-104.03C103.861,-97.445 121.454,-90.2548 138,-86 309.365,-41.932 358.857,-70.1582 534,-45 539.976,-44.1416 546.199,-43.1524 552.399,-42.1048"/>
<polygon fill="#8b1a1a" stroke="#8b1a1a" points="87.805,-100.997 80.2729,-108.448 90.8076,-107.32 87.805,-100.997"/>
</g>
<!-- Node11 -->
<g id="node22" class="node"><title>Node11</title>
<a xlink:href="classstxxl_1_1singleton.html" target="_top" xlink:title="stxxl::singleton\&lt; INSTANCE,\l destroy_on_exit \&gt;">
<polygon fill="none" stroke="black" points="250,-0 250,-34 396,-34 396,-0 250,-0"/>
<text text-anchor="start" x="258" y="-21" font-family="Helvetica,sans-Serif" font-size="10.00">stxxl::singleton&lt; INSTANCE,</text>
<text text-anchor="middle" x="323" y="-8" font-family="Helvetica,sans-Serif" font-size="10.00"> destroy_on_exit &gt;</text>
</a>
</g>
<!-- Node5&#45;&gt;Node11 -->
<g id="edge26" class="edge"><title>Node5&#45;&gt;Node11</title>
<path fill="none" stroke="#8b1a1a" d="M74.926,-100.353C89.2659,-83.81 112.473,-60.4016 138,-48 172.565,-31.2078 214.571,-23.3096 249.814,-19.6739"/>
<polygon fill="#8b1a1a" stroke="#8b1a1a" points="72.0181,-98.3729 68.2701,-108.283 77.3799,-102.873 72.0181,-98.3729"/>
</g>
<!-- Node5&#45;&gt;Node12 -->
<g id="edge30" class="edge"><title>Node5&#45;&gt;Node12</title>
<path fill="none" stroke="#8b1a1a" d="M119.701,-120.618C270.301,-124.699 661.36,-135.297 769.771,-138.235"/>
<polygon fill="#8b1a1a" stroke="#8b1a1a" points="119.372,-117.108 109.281,-120.336 119.182,-124.105 119.372,-117.108"/>
</g>
<!-- Node5&#45;&gt;Node13 -->
<g id="edge36" class="edge"><title>Node5&#45;&gt;Node13</title>
<path fill="none" stroke="#8b1a1a" d="M119.313,-112.262C172.559,-106.798 252.899,-100 323,-100 323,-100 323,-100 719,-100 797.666,-100 888.264,-111.317 943.828,-119.561"/>
<polygon fill="#8b1a1a" stroke="#8b1a1a" points="118.948,-108.781 109.365,-113.299 119.675,-115.743 118.948,-108.781"/>
</g>
<!-- Node6 -->
<g id="node10" class="node"><title>Node6</title>
<a xlink:href="structstxxl_1_1choose__int__types.html" target="_top" xlink:title="stxxl::choose_int_types\l\&lt; my_pointer_size \&gt;">
<polygon fill="none" stroke="black" points="263,-327 263,-361 383,-361 383,-327 263,-327"/>
<text text-anchor="start" x="271" y="-348" font-family="Helvetica,sans-Serif" font-size="10.00">stxxl::choose_int_types</text>
<text text-anchor="middle" x="323" y="-335" font-family="Helvetica,sans-Serif" font-size="10.00">&lt; my_pointer_size &gt;</text>
</a>
</g>
<!-- Node6&#45;&gt;Node3 -->
<g id="edge10" class="edge"><title>Node6&#45;&gt;Node3</title>
<path fill="none" stroke="#9a32cd" stroke-dasharray="5,2" d="M381.876,-323.691C434.499,-305.539 510.745,-279.238 560.346,-262.128"/>
<polygon fill="#9a32cd" stroke="#9a32cd" points="380.649,-320.412 372.337,-326.981 382.932,-327.029 380.649,-320.412"/>
<text text-anchor="middle" x="474" y="-316" font-family="Helvetica,sans-Serif" font-size="10.00"> m_reference_count</text>
</g>
<!-- Node6&#45;&gt;Node8 -->
<g id="edge42" class="edge"><title>Node6&#45;&gt;Node8</title>
<path fill="none" stroke="#9a32cd" stroke-dasharray="5,2" d="M393.359,-342.473C451.458,-341.343 536.079,-340 610,-340 610,-340 610,-340 1209,-340 1257.49,-340 1310.83,-322.153 1345.5,-308"/>
<polygon fill="#9a32cd" stroke="#9a32cd" points="393.118,-338.977 383.189,-342.674 393.256,-345.975 393.118,-338.977"/>
<text text-anchor="start" x="844" y="-357" font-family="Helvetica,sans-Serif" font-size="10.00"> remaining_internal</text>
<text text-anchor="middle" x="885" y="-344" font-family="Helvetica,sans-Serif" font-size="10.00">_blocks</text>
</g>
<!-- Node7 -->
<g id="node12" class="node"><title>Node7</title>
<a xlink:href="structstxxl_1_1choose__int__types.html" target="_top" xlink:title="stxxl::choose_int_types\l\&lt; PtrSize \&gt;">
<polygon fill="none" stroke="black" points="0,-327 0,-361 120,-361 120,-327 0,-327"/>
<text text-anchor="start" x="8" y="-348" font-family="Helvetica,sans-Serif" font-size="10.00">stxxl::choose_int_types</text>
<text text-anchor="middle" x="60" y="-335" font-family="Helvetica,sans-Serif" font-size="10.00">&lt; PtrSize &gt;</text>
</a>
</g>
<!-- Node7&#45;&gt;Node6 -->
<g id="edge12" class="edge"><title>Node7&#45;&gt;Node6</title>
<path fill="none" stroke="orange" stroke-dasharray="5,2" d="M130.017,-344C171.397,-344 223.258,-344 262.795,-344"/>
<polygon fill="orange" stroke="orange" points="130.008,-340.5 120.008,-344 130.008,-347.5 130.008,-340.5"/>
<text text-anchor="middle" x="185" y="-348" font-family="Helvetica,sans-Serif" font-size="10.00"> &lt; my_pointer_size &gt;</text>
</g>
<!-- Node8&#45;&gt;Node2 -->
<g id="edge14" class="edge"><title>Node8&#45;&gt;Node2</title>
<path fill="none" stroke="#9a32cd" stroke-dasharray="5,2" d="M1457.64,-278.625C1471.02,-276.406 1485,-274.088 1498.46,-271.856"/>
<polygon fill="#9a32cd" stroke="#9a32cd" points="1456.83,-275.211 1447.53,-280.3 1457.97,-282.117 1456.83,-275.211"/>
<text text-anchor="middle" x="1473" y="-281" font-family="Helvetica,sans-Serif" font-size="10.00"> bs</text>
</g>
<!-- Node9 -->
<g id="node17" class="node"><title>Node9</title>
<a xlink:href="classstxxl_1_1block__manager.html" target="_top" xlink:title="Block manager class. ">
<polygon fill="none" stroke="black" points="1154,-83.5 1154,-104.5 1264,-104.5 1264,-83.5 1154,-83.5"/>
<text text-anchor="middle" x="1209" y="-91.5" font-family="Helvetica,sans-Serif" font-size="10.00">stxxl::block_manager</text>
</a>
</g>
<!-- Node9&#45;&gt;Node8 -->
<g id="edge18" class="edge"><title>Node9&#45;&gt;Node8</title>
<path fill="none" stroke="#9a32cd" stroke-dasharray="5,2" d="M1225.19,-112.325C1258.72,-150.29 1335.36,-237.062 1367.92,-273.926"/>
<polygon fill="#9a32cd" stroke="#9a32cd" points="1227.6,-109.77 1218.35,-104.592 1222.35,-114.404 1227.6,-109.77"/>
<text text-anchor="middle" x="1291" y="-197" font-family="Helvetica,sans-Serif" font-size="10.00"> bm</text>
</g>
<!-- Node10&#45;&gt;Node9 -->
<g id="edge20" class="edge"><title>Node10&#45;&gt;Node9</title>
<path fill="none" stroke="midnightblue" d="M677.661,-37.0385C777.886,-46.1598 971.667,-64.4715 1136,-84 1141.72,-84.6793 1147.68,-85.4287 1153.62,-86.2027"/>
<polygon fill="midnightblue" stroke="midnightblue" points="677.946,-33.5501 667.671,-36.1316 677.313,-40.5215 677.946,-33.5501"/>
</g>
<!-- Node11&#45;&gt;Node10 -->
<g id="edge24" class="edge"><title>Node11&#45;&gt;Node10</title>
<path fill="none" stroke="orange" stroke-dasharray="5,2" d="M406.299,-21.0634C453.153,-23.3489 510.464,-26.1446 552.347,-28.1877"/>
<polygon fill="orange" stroke="orange" points="406.323,-17.5605 396.165,-20.569 405.982,-24.5522 406.323,-17.5605"/>
<text text-anchor="middle" x="474" y="-32" font-family="Helvetica,sans-Serif" font-size="10.00"> &lt; block_manager &gt;</text>
</g>
<!-- Node12&#45;&gt;Node9 -->
<g id="edge28" class="edge"><title>Node12&#45;&gt;Node9</title>
<path fill="none" stroke="#9a32cd" stroke-dasharray="5,2" d="M834.376,-124.828C863.514,-114.265 905.706,-100.719 944,-95 1015.89,-84.2634 1099.99,-86.3989 1153.84,-89.6072"/>
<polygon fill="#9a32cd" stroke="#9a32cd" points="832.811,-121.675 824.642,-128.422 835.236,-128.241 832.811,-121.675"/>
<text text-anchor="middle" x="996" y="-99" font-family="Helvetica,sans-Serif" font-size="10.00"> disk_files</text>
</g>
<!-- Node12&#45;&gt;Node13 -->
<g id="edge38" class="edge"><title>Node12&#45;&gt;Node13</title>
<path fill="none" stroke="#9a32cd" stroke-dasharray="5,2" d="M836.635,-136.854C867.229,-135.154 910.263,-132.763 943.901,-130.894"/>
<polygon fill="#9a32cd" stroke="#9a32cd" points="836.159,-133.375 826.369,-137.424 836.547,-140.364 836.159,-133.375"/>
<text text-anchor="middle" x="885" y="-141" font-family="Helvetica,sans-Serif" font-size="10.00"> storage</text>
</g>
<!-- Node13&#45;&gt;Node9 -->
<g id="edge34" class="edge"><title>Node13&#45;&gt;Node9</title>
<path fill="none" stroke="#9a32cd" stroke-dasharray="5,2" d="M1058.12,-118.084C1088.37,-113.256 1124.43,-107.5 1153.71,-102.826"/>
<polygon fill="#9a32cd" stroke="#9a32cd" points="1057.43,-114.65 1048.11,-119.683 1058.53,-121.563 1057.43,-114.65"/>
<text text-anchor="middle" x="1101" y="-121" font-family="Helvetica,sans-Serif" font-size="10.00"> disk_allocators</text>
</g>
</g>
</svg>
