<?xml version="1.0" encoding="UTF-8" standalone="no"?>
<!DOCTYPE svg PUBLIC "-//W3C//DTD SVG 1.1//EN"
 "http://www.w3.org/Graphics/SVG/1.1/DTD/svg11.dtd">
<!-- Generated by graphviz version 2.38.0 (20140413.2041)
 -->
<!-- Title: stxxl::priority_queue_local::ext_merger&lt; BlockType, CompareType, Arity, AllocStr &gt;::sequence_state Pages: 1 -->
<svg width="1765pt" height="727pt"
 viewBox="0.00 0.00 1765.00 727.00" xmlns="http://www.w3.org/2000/svg" xmlns:xlink="http://www.w3.org/1999/xlink">
<g id="graph0" class="graph" transform="scale(1 1) rotate(0) translate(4 723)">
<title>stxxl::priority_queue_local::ext_merger&lt; BlockType, CompareType, Arity, AllocStr &gt;::sequence_state</title>
<!-- Node1 -->
<g id="node1" class="node"><title>Node1</title>
<polygon fill="#bfbfbf" stroke="black" points="1009,-400 1009,-452 1164,-452 1164,-400 1009,-400"/>
<text text-anchor="start" x="1017" y="-440" font-family="Helvetica,sans-Serif" font-size="10.00">stxxl::priority_queue</text>
<text text-anchor="start" x="1017" y="-429" font-family="Helvetica,sans-Serif" font-size="10.00">_local::ext_merger&lt; BlockType,</text>
<text text-anchor="start" x="1017" y="-418" font-family="Helvetica,sans-Serif" font-size="10.00"> CompareType, Arity, AllocStr</text>
<text text-anchor="middle" x="1086.5" y="-407" font-family="Helvetica,sans-Serif" font-size="10.00"> &gt;::sequence_state</text>
</g>
<!-- Node3 -->
<g id="node3" class="node"><title>Node3</title>
<g id="a_node3"><a xlink:href="classstxxl_1_1priority__queue__local_1_1ext__merger.html" target="_top" xlink:title="External merger, based on the loser tree data structure. ">
<polygon fill="none" stroke="black" points="1600,-409.5 1600,-450.5 1757,-450.5 1757,-409.5 1600,-409.5"/>
<text text-anchor="start" x="1608" y="-438.5" font-family="Helvetica,sans-Serif" font-size="10.00">stxxl::priority_queue</text>
<text text-anchor="start" x="1608" y="-427.5" font-family="Helvetica,sans-Serif" font-size="10.00">_local::ext_merger&lt; BlockType,</text>
<text text-anchor="middle" x="1678.5" y="-416.5" font-family="Helvetica,sans-Serif" font-size="10.00"> CompareType, Arity, AllocStr &gt;</text>
</a>
</g>
</g>
<!-- Node1&#45;&gt;Node3 -->
<g id="edge35" class="edge"><title>Node1&#45;&gt;Node3</title>
<path fill="none" stroke="#9a32cd" stroke-dasharray="5,2" d="M1174.18,-426.588C1288.94,-427.366 1489.59,-428.726 1599.7,-429.473"/>
<polygon fill="#9a32cd" stroke="#9a32cd" points="1174.05,-423.087 1164.03,-426.519 1174,-430.087 1174.05,-423.087"/>
<text text-anchor="middle" x="1377.5" y="-432" font-family="Helvetica,sans-Serif" font-size="10.00"> states</text>
</g>
<!-- Node2 -->
<g id="node2" class="node"><title>Node2</title>
<g id="a_node2"><a xlink:href="classstxxl_1_1noncopyable.html" target="_top" xlink:title="stxxl::noncopyable">
<polygon fill="none" stroke="black" points="607,-439.5 607,-458.5 705,-458.5 705,-439.5 607,-439.5"/>
<text text-anchor="middle" x="656" y="-446.5" font-family="Helvetica,sans-Serif" font-size="10.00">stxxl::noncopyable</text>
</a>
</g>
</g>
<!-- Node2&#45;&gt;Node1 -->
<g id="edge1" class="edge"><title>Node2&#45;&gt;Node1</title>
<path fill="none" stroke="#8b1a1a" d="M715.676,-445.851C791.812,-441.764 924.821,-434.625 1008.86,-430.114"/>
<polygon fill="#8b1a1a" stroke="#8b1a1a" points="715.119,-442.375 705.321,-446.406 715.495,-449.365 715.119,-442.375"/>
</g>
<!-- Node2&#45;&gt;Node3 -->
<g id="edge3" class="edge"><title>Node2&#45;&gt;Node3</title>
<path fill="none" stroke="#8b1a1a" d="M715.141,-455.722C767.473,-461.188 846.524,-468 915.5,-468 915.5,-468 915.5,-468 1487,-468 1527.81,-468 1572.6,-459.511 1608.49,-450.557"/>
<polygon fill="#8b1a1a" stroke="#8b1a1a" points="715.355,-452.225 705.042,-454.649 714.616,-459.186 715.355,-452.225"/>
</g>
<!-- Node4 -->
<g id="node4" class="node"><title>Node4</title>
<g id="a_node4"><a xlink:href="classstxxl_1_1priority__queue__local_1_1loser__tree.html" target="_top" xlink:title="stxxl::priority_queue\l_local::loser_tree\&lt; self\l_type, CompareType, Arity \&gt;">
<polygon fill="none" stroke="black" points="1182,-195.5 1182,-236.5 1325,-236.5 1325,-195.5 1182,-195.5"/>
<text text-anchor="start" x="1190" y="-224.5" font-family="Helvetica,sans-Serif" font-size="10.00">stxxl::priority_queue</text>
<text text-anchor="start" x="1190" y="-213.5" font-family="Helvetica,sans-Serif" font-size="10.00">_local::loser_tree&lt; self</text>
<text text-anchor="middle" x="1253.5" y="-202.5" font-family="Helvetica,sans-Serif" font-size="10.00">_type, CompareType, Arity &gt;</text>
</a>
</g>
</g>
<!-- Node2&#45;&gt;Node4 -->
<g id="edge5" class="edge"><title>Node2&#45;&gt;Node4</title>
<path fill="none" stroke="#8b1a1a" d="M684.381,-435.243C774.024,-395.716 1060.32,-283.257 1188.91,-236.515"/>
<polygon fill="#8b1a1a" stroke="#8b1a1a" points="682.846,-432.095 675.147,-439.373 685.705,-438.485 682.846,-432.095"/>
</g>
<!-- Node2&#45;&gt;Node4 -->
<g id="edge6" class="edge"><title>Node2&#45;&gt;Node4</title>
<path fill="none" stroke="#8b1a1a" d="M699.572,-436.036C808.976,-397.297 1099.07,-283.8 1209.24,-236.647"/>
<polygon fill="#8b1a1a" stroke="#8b1a1a" points="698.142,-432.829 689.865,-439.442 700.46,-439.434 698.142,-432.829"/>
</g>
<!-- Node11 -->
<g id="node11" class="node"><title>Node11</title>
<g id="a_node11"><a xlink:href="classstxxl_1_1priority__queue__local_1_1loser__tree.html" target="_top" xlink:title="Loser tree from Knuth, &quot;Sorting and Searching&quot;, Section 5.4.1. ">
<polygon fill="none" stroke="black" points="842,-119.5 842,-160.5 991,-160.5 991,-119.5 842,-119.5"/>
<text text-anchor="start" x="850" y="-148.5" font-family="Helvetica,sans-Serif" font-size="10.00">stxxl::priority_queue</text>
<text text-anchor="start" x="850" y="-137.5" font-family="Helvetica,sans-Serif" font-size="10.00">_local::loser_tree&lt; ValueType,</text>
<text text-anchor="middle" x="916.5" y="-126.5" font-family="Helvetica,sans-Serif" font-size="10.00"> CompareType, MaxArity &gt;</text>
</a>
</g>
</g>
<!-- Node2&#45;&gt;Node11 -->
<g id="edge16" class="edge"><title>Node2&#45;&gt;Node11</title>
<path fill="none" stroke="#8b1a1a" d="M671.812,-431.853C710.883,-392.854 814.397,-301.246 824,-283 848.502,-236.442 810.601,-208.215 842,-166 843.434,-164.072 845.002,-162.246 846.679,-160.519"/>
<polygon fill="#8b1a1a" stroke="#8b1a1a" points="668.993,-429.731 664.51,-439.331 674.001,-434.621 668.993,-429.731"/>
</g>
<!-- Node2&#45;&gt;Node11 -->
<g id="edge17" class="edge"><title>Node2&#45;&gt;Node11</title>
<path fill="none" stroke="#8b1a1a" d="M681.021,-433.162C725.066,-398.254 815.077,-317.955 824,-301 848.502,-254.442 810.601,-226.215 842,-184 849.676,-173.68 861.182,-166.275 872.825,-160.611"/>
<polygon fill="#8b1a1a" stroke="#8b1a1a" points="678.855,-430.413 673.112,-439.317 683.154,-435.938 678.855,-430.413"/>
</g>
<!-- Node12 -->
<g id="node12" class="node"><title>Node12</title>
<g id="a_node12"><a xlink:href="classstxxl_1_1read__write__pool.html" target="_top" xlink:title="stxxl::read_write_pool\l\&lt; block_type \&gt;">
<polygon fill="none" stroke="black" points="1430,-537 1430,-567 1542,-567 1542,-537 1430,-537"/>
<text text-anchor="start" x="1438" y="-555" font-family="Helvetica,sans-Serif" font-size="10.00">stxxl::read_write_pool</text>
<text text-anchor="middle" x="1486" y="-544" font-family="Helvetica,sans-Serif" font-size="10.00">&lt; block_type &gt;</text>
</a>
</g>
</g>
<!-- Node2&#45;&gt;Node12 -->
<g id="edge23" class="edge"><title>Node2&#45;&gt;Node12</title>
<path fill="none" stroke="#8b1a1a" d="M691.094,-461.951C710.925,-468.97 736.558,-477.171 760,-482 888.265,-508.422 1283.57,-537.912 1429.84,-548.209"/>
<polygon fill="#8b1a1a" stroke="#8b1a1a" points="692.173,-458.62 681.578,-458.517 689.796,-465.204 692.173,-458.62"/>
</g>
<!-- Node13 -->
<g id="node13" class="node"><title>Node13</title>
<g id="a_node13"><a xlink:href="classstxxl_1_1prefetch__pool.html" target="_top" xlink:title="Implements dynamically resizable prefetching pool. ">
<polygon fill="none" stroke="black" points="865.5,-632 865.5,-662 967.5,-662 967.5,-632 865.5,-632"/>
<text text-anchor="start" x="873.5" y="-650" font-family="Helvetica,sans-Serif" font-size="10.00">stxxl::prefetch_pool</text>
<text text-anchor="middle" x="916.5" y="-639" font-family="Helvetica,sans-Serif" font-size="10.00">&lt; BlockType &gt;</text>
</a>
</g>
</g>
<!-- Node2&#45;&gt;Node13 -->
<g id="edge25" class="edge"><title>Node2&#45;&gt;Node13</title>
<path fill="none" stroke="#8b1a1a" d="M663.979,-468.277C677.226,-502.045 709.307,-571.744 760,-608 790.788,-630.02 832.75,-639.65 865.325,-643.841"/>
<polygon fill="#8b1a1a" stroke="#8b1a1a" points="667.154,-466.778 660.34,-458.664 660.607,-469.256 667.154,-466.778"/>
</g>
<!-- Node16 -->
<g id="node16" class="node"><title>Node16</title>
<g id="a_node16"><a xlink:href="classstxxl_1_1write__pool.html" target="_top" xlink:title="Implements dynamically resizable buffered writing pool. ">
<polygon fill="none" stroke="black" points="869.5,-535 869.5,-565 963.5,-565 963.5,-535 869.5,-535"/>
<text text-anchor="start" x="877.5" y="-553" font-family="Helvetica,sans-Serif" font-size="10.00">stxxl::write_pool&lt;</text>
<text text-anchor="middle" x="916.5" y="-542" font-family="Helvetica,sans-Serif" font-size="10.00"> BlockType &gt;</text>
</a>
</g>
</g>
<!-- Node2&#45;&gt;Node16 -->
<g id="edge30" class="edge"><title>Node2&#45;&gt;Node16</title>
<path fill="none" stroke="#8b1a1a" d="M675.33,-465.178C694.916,-481.569 727.548,-506.392 760,-520 795.117,-534.726 837.751,-542.298 869.49,-546.148"/>
<polygon fill="#8b1a1a" stroke="#8b1a1a" points="677.412,-462.353 667.536,-458.519 672.865,-467.675 677.412,-462.353"/>
</g>
<!-- Node17 -->
<g id="node17" class="node"><title>Node17</title>
<g id="a_node17"><a xlink:href="classstxxl_1_1read__write__pool.html" target="_top" xlink:title="Implements dynamically resizable buffered writing and prefetched reading pool. ">
<polygon fill="none" stroke="black" points="1197.5,-582 1197.5,-612 1309.5,-612 1309.5,-582 1197.5,-582"/>
<text text-anchor="start" x="1205.5" y="-600" font-family="Helvetica,sans-Serif" font-size="10.00">stxxl::read_write_pool</text>
<text text-anchor="middle" x="1253.5" y="-589" font-family="Helvetica,sans-Serif" font-size="10.00">&lt; BlockType &gt;</text>
</a>
</g>
</g>
<!-- Node2&#45;&gt;Node17 -->
<g id="edge32" class="edge"><title>Node2&#45;&gt;Node17</title>
<path fill="none" stroke="#8b1a1a" d="M671.942,-466.48C690.658,-487.426 724.592,-522.395 760,-544 793.127,-564.213 803.993,-566.163 842,-574 967.136,-599.803 1117.97,-600.767 1197.39,-599.012"/>
<polygon fill="#8b1a1a" stroke="#8b1a1a" points="674.335,-463.9 665.109,-458.692 669.074,-468.517 674.335,-463.9"/>
</g>
<!-- Node3&#45;&gt;Node1 -->
<g id="edge2" class="edge"><title>Node3&#45;&gt;Node1</title>
<path fill="none" stroke="#9a32cd" stroke-dasharray="5,2" d="M1589.73,-417.016C1587.13,-416.668 1584.54,-416.329 1582,-416 1476.32,-402.352 1449.39,-390.982 1343,-397 1282.72,-400.41 1214.82,-408.312 1164.17,-415.007"/>
<polygon fill="#9a32cd" stroke="#9a32cd" points="1589.49,-420.515 1599.87,-418.393 1590.43,-413.579 1589.49,-420.515"/>
<text text-anchor="middle" x="1377.5" y="-400" font-family="Helvetica,sans-Serif" font-size="10.00"> merger</text>
</g>
<!-- Node4&#45;&gt;Node3 -->
<g id="edge4" class="edge"><title>Node4&#45;&gt;Node3</title>
<path fill="none" stroke="#9a32cd" stroke-dasharray="5,2" d="M1306.63,-241.007C1371.52,-272.31 1485.55,-327.913 1582,-378 1601.43,-388.093 1622.86,-399.716 1640.49,-409.41"/>
<polygon fill="#9a32cd" stroke="#9a32cd" points="1307.95,-237.757 1297.42,-236.568 1304.91,-244.063 1307.95,-237.757"/>
<text text-anchor="middle" x="1486" y="-359" font-family="Helvetica,sans-Serif" font-size="10.00"> tree</text>
</g>
<!-- Node5 -->
<g id="node5" class="node"><title>Node5</title>
<g id="a_node5"><a xlink:href="classstxxl_1_1priority__queue__local_1_1internal__bounded__stack.html" target="_top" xlink:title="stxxl::priority_queue\l_local::internal_bounded\l_stack\&lt; unsigned_type, arity \&gt;">
<polygon fill="none" stroke="black" points="580,-0.5 580,-41.5 732,-41.5 732,-0.5 580,-0.5"/>
<text text-anchor="start" x="588" y="-29.5" font-family="Helvetica,sans-Serif" font-size="10.00">stxxl::priority_queue</text>
<text text-anchor="start" x="588" y="-18.5" font-family="Helvetica,sans-Serif" font-size="10.00">_local::internal_bounded</text>
<text text-anchor="middle" x="656" y="-7.5" font-family="Helvetica,sans-Serif" font-size="10.00">_stack&lt; unsigned_type, arity &gt;</text>
</a>
</g>
</g>
<!-- Node5&#45;&gt;Node4 -->
<g id="edge7" class="edge"><title>Node5&#45;&gt;Node4</title>
<path fill="none" stroke="#9a32cd" stroke-dasharray="5,2" d="M742.281,-9.57341C849.586,0.2867 1035.36,1.93738 1164,-81 1206.75,-108.563 1233.37,-164.901 1245.24,-195.358"/>
<polygon fill="#9a32cd" stroke="#9a32cd" points="741.764,-6.10693 732.146,-10.5507 742.436,-13.0746 741.764,-6.10693"/>
<text text-anchor="middle" x="916.5" y="-20" font-family="Helvetica,sans-Serif" font-size="10.00"> free_slots</text>
</g>
<!-- Node5&#45;&gt;Node11 -->
<g id="edge18" class="edge"><title>Node5&#45;&gt;Node11</title>
<path fill="none" stroke="#9a32cd" stroke-dasharray="5,2" d="M726.234,-45.0865C731.581,-47.0533 736.886,-49.0389 742,-51 778.837,-65.126 788.774,-67.2329 824,-85 844.52,-95.3499 866.629,-108.577 883.973,-119.466"/>
<polygon fill="#9a32cd" stroke="#9a32cd" points="727.189,-41.7093 716.595,-41.576 724.793,-48.2867 727.189,-41.7093"/>
<text text-anchor="middle" x="792" y="-88" font-family="Helvetica,sans-Serif" font-size="10.00"> free_slots</text>
</g>
<!-- Node6 -->
<g id="node6" class="node"><title>Node6</title>
<g id="a_node6"><a xlink:href="classstxxl_1_1priority__queue__local_1_1internal__bounded__stack.html" target="_top" xlink:title="Similar to std::stack, with the following differences: ">
<polygon fill="none" stroke="black" points="249,-27.5 249,-68.5 404,-68.5 404,-27.5 249,-27.5"/>
<text text-anchor="start" x="257" y="-56.5" font-family="Helvetica,sans-Serif" font-size="10.00">stxxl::priority_queue</text>
<text text-anchor="start" x="257" y="-45.5" font-family="Helvetica,sans-Serif" font-size="10.00">_local::internal_bounded</text>
<text text-anchor="middle" x="326.5" y="-34.5" font-family="Helvetica,sans-Serif" font-size="10.00">_stack&lt; ValueType, MaxSize &gt;</text>
</a>
</g>
</g>
<!-- Node6&#45;&gt;Node5 -->
<g id="edge8" class="edge"><title>Node6&#45;&gt;Node5</title>
<path fill="none" stroke="orange" stroke-dasharray="5,2" d="M414.223,-35.8063C416.843,-35.5224 419.44,-35.2526 422,-35 474.629,-29.8066 534.148,-26.27 579.857,-24.0506"/>
<polygon fill="orange" stroke="orange" points="413.571,-32.3579 404.031,-36.9656 414.362,-39.313 413.571,-32.3579"/>
<text text-anchor="middle" x="487" y="-38" font-family="Helvetica,sans-Serif" font-size="10.00"> &lt; unsigned_type, arity &gt;</text>
</g>
<!-- Node10 -->
<g id="node10" class="node"><title>Node10</title>
<g id="a_node10"><a xlink:href="classstxxl_1_1priority__queue__local_1_1internal__bounded__stack.html" target="_top" xlink:title="stxxl::priority_queue\l_local::internal_bounded\l_stack\&lt; unsigned_type, MaxArity \&gt;">
<polygon fill="none" stroke="black" points="570,-60.5 570,-101.5 742,-101.5 742,-60.5 570,-60.5"/>
<text text-anchor="start" x="578" y="-89.5" font-family="Helvetica,sans-Serif" font-size="10.00">stxxl::priority_queue</text>
<text text-anchor="start" x="578" y="-78.5" font-family="Helvetica,sans-Serif" font-size="10.00">_local::internal_bounded</text>
<text text-anchor="middle" x="656" y="-67.5" font-family="Helvetica,sans-Serif" font-size="10.00">_stack&lt; unsigned_type, MaxArity &gt;</text>
</a>
</g>
</g>
<!-- Node6&#45;&gt;Node10 -->
<g id="edge14" class="edge"><title>Node6&#45;&gt;Node10</title>
<path fill="none" stroke="orange" stroke-dasharray="5,2" d="M414.361,-56.7524C462.439,-61.5969 521.956,-67.594 569.771,-72.412"/>
<polygon fill="orange" stroke="orange" points="414.585,-53.2573 404.284,-55.737 413.883,-60.222 414.585,-53.2573"/>
<text text-anchor="middle" x="487" y="-74" font-family="Helvetica,sans-Serif" font-size="10.00"> &lt; unsigned_type, MaxArity &gt;</text>
</g>
<!-- Node7 -->
<g id="node7" class="node"><title>Node7</title>
<g id="a_node7"><a xlink:href="structstxxl_1_1priority__queue__local_1_1loser__tree_1_1Entry.html" target="_top" xlink:title="type of nodes in the loser tree ">
<polygon fill="none" stroke="black" points="574,-211.5 574,-252.5 738,-252.5 738,-211.5 574,-211.5"/>
<text text-anchor="start" x="582" y="-240.5" font-family="Helvetica,sans-Serif" font-size="10.00">stxxl::priority_queue</text>
<text text-anchor="start" x="582" y="-229.5" font-family="Helvetica,sans-Serif" font-size="10.00">_local::loser_tree&lt; ValueType,</text>
<text text-anchor="middle" x="656" y="-218.5" font-family="Helvetica,sans-Serif" font-size="10.00"> CompareType, MaxArity &gt;::Entry</text>
</a>
</g>
</g>
<!-- Node7&#45;&gt;Node4 -->
<g id="edge9" class="edge"><title>Node7&#45;&gt;Node4</title>
<path fill="none" stroke="#9a32cd" stroke-dasharray="5,2" d="M748.115,-215.394C752.125,-214.879 756.1,-214.41 760,-214 909.449,-198.282 1085.82,-205.088 1181.71,-210.9"/>
<polygon fill="#9a32cd" stroke="#9a32cd" points="747.534,-211.941 738.099,-216.763 748.481,-218.877 747.534,-211.941"/>
<text text-anchor="middle" x="916.5" y="-211" font-family="Helvetica,sans-Serif" font-size="10.00"> entry</text>
</g>
<!-- Node7&#45;&gt;Node11 -->
<g id="edge19" class="edge"><title>Node7&#45;&gt;Node11</title>
<path fill="none" stroke="#9a32cd" stroke-dasharray="5,2" d="M727.869,-206.526C732.844,-203.633 737.617,-200.463 742,-197 752.743,-188.512 748.509,-179.444 760,-172 773.821,-163.046 808.623,-155.478 841.805,-149.954"/>
<polygon fill="#9a32cd" stroke="#9a32cd" points="725.887,-203.618 718.737,-211.437 729.202,-209.783 725.887,-203.618"/>
<text text-anchor="middle" x="792" y="-175" font-family="Helvetica,sans-Serif" font-size="10.00"> entry</text>
</g>
<!-- Node8 -->
<g id="node8" class="node"><title>Node8</title>
<g id="a_node8"><a xlink:href="structstxxl_1_1choose__int__types.html" target="_top" xlink:title="stxxl::choose_int_types\l\&lt; my_pointer_size \&gt;">
<polygon fill="none" stroke="black" points="266.5,-266 266.5,-296 386.5,-296 386.5,-266 266.5,-266"/>
<text text-anchor="start" x="274.5" y="-284" font-family="Helvetica,sans-Serif" font-size="10.00">stxxl::choose_int_types</text>
<text text-anchor="middle" x="326.5" y="-273" font-family="Helvetica,sans-Serif" font-size="10.00">&lt; my_pointer_size &gt;</text>
</a>
</g>
</g>
<!-- Node8&#45;&gt;Node1 -->
<g id="edge36" class="edge"><title>Node8&#45;&gt;Node1</title>
<path fill="none" stroke="#9a32cd" stroke-dasharray="5,2" d="M396.546,-294.208C538.224,-321.31 860.876,-383.031 1008.81,-411.33"/>
<polygon fill="#9a32cd" stroke="#9a32cd" points="397.143,-290.759 386.663,-292.318 395.828,-297.634 397.143,-290.759"/>
<text text-anchor="middle" x="656" y="-363" font-family="Helvetica,sans-Serif" font-size="10.00"> current</text>
</g>
<!-- Node8&#45;&gt;Node4 -->
<g id="edge12" class="edge"><title>Node8&#45;&gt;Node4</title>
<path fill="none" stroke="#9a32cd" stroke-dasharray="5,2" d="M396.814,-278.756C479.168,-275.875 620.694,-270.242 742,-262 899.368,-251.308 1083.55,-233.37 1181.97,-223.345"/>
<polygon fill="#9a32cd" stroke="#9a32cd" points="396.45,-275.267 386.578,-279.111 396.693,-282.263 396.45,-275.267"/>
<text text-anchor="middle" x="792" y="-308" font-family="Helvetica,sans-Serif" font-size="10.00"> segment_size</text>
<text text-anchor="middle" x="792" y="-297" font-family="Helvetica,sans-Serif" font-size="10.00">mem_cons_</text>
<text text-anchor="middle" x="792" y="-286" font-family="Helvetica,sans-Serif" font-size="10.00">k</text>
<text text-anchor="middle" x="792" y="-275" font-family="Helvetica,sans-Serif" font-size="10.00">size_</text>
<text text-anchor="middle" x="792" y="-264" font-family="Helvetica,sans-Serif" font-size="10.00">logK</text>
</g>
<!-- Node8&#45;&gt;Node7 -->
<g id="edge10" class="edge"><title>Node8&#45;&gt;Node7</title>
<path fill="none" stroke="#9a32cd" stroke-dasharray="5,2" d="M388.656,-263.336C399.688,-260.575 411.136,-257.984 422,-256 472.105,-246.85 528.955,-240.908 573.957,-237.226"/>
<polygon fill="#9a32cd" stroke="#9a32cd" points="387.481,-260.024 378.669,-265.907 389.226,-266.803 387.481,-260.024"/>
<text text-anchor="middle" x="487" y="-259" font-family="Helvetica,sans-Serif" font-size="10.00"> index</text>
</g>
<!-- Node8&#45;&gt;Node11 -->
<g id="edge20" class="edge"><title>Node8&#45;&gt;Node11</title>
<path fill="none" stroke="#9a32cd" stroke-dasharray="5,2" d="M355.074,-259.804C398.144,-228.139 485.256,-169.774 570,-147 661.254,-122.476 770.999,-125.479 841.942,-131.42"/>
<polygon fill="#9a32cd" stroke="#9a32cd" points="352.75,-257.171 346.815,-265.948 356.928,-262.787 352.75,-257.171"/>
<text text-anchor="middle" x="656" y="-194" font-family="Helvetica,sans-Serif" font-size="10.00"> segment_size</text>
<text text-anchor="middle" x="656" y="-183" font-family="Helvetica,sans-Serif" font-size="10.00">mem_cons_</text>
<text text-anchor="middle" x="656" y="-172" font-family="Helvetica,sans-Serif" font-size="10.00">k</text>
<text text-anchor="middle" x="656" y="-161" font-family="Helvetica,sans-Serif" font-size="10.00">size_</text>
<text text-anchor="middle" x="656" y="-150" font-family="Helvetica,sans-Serif" font-size="10.00">logK</text>
</g>
<!-- Node8&#45;&gt;Node13 -->
<g id="edge26" class="edge"><title>Node8&#45;&gt;Node13</title>
<path fill="none" stroke="#9a32cd" stroke-dasharray="5,2" d="M346.466,-304.104C401.915,-369.733 571.756,-557.397 760,-633 793.453,-646.436 834.118,-649.69 865.472,-649.715"/>
<polygon fill="#9a32cd" stroke="#9a32cd" points="349.092,-301.789 339.986,-296.372 343.726,-306.284 349.092,-301.789"/>
<text text-anchor="middle" x="656" y="-627" font-family="Helvetica,sans-Serif" font-size="10.00"> free_blocks_size</text>
</g>
<!-- Node9 -->
<g id="node9" class="node"><title>Node9</title>
<g id="a_node9"><a xlink:href="structstxxl_1_1choose__int__types.html" target="_top" xlink:title="stxxl::choose_int_types\l\&lt; PtrSize \&gt;">
<polygon fill="none" stroke="black" points="0,-266 0,-296 120,-296 120,-266 0,-266"/>
<text text-anchor="start" x="8" y="-284" font-family="Helvetica,sans-Serif" font-size="10.00">stxxl::choose_int_types</text>
<text text-anchor="middle" x="60" y="-273" font-family="Helvetica,sans-Serif" font-size="10.00">&lt; PtrSize &gt;</text>
</a>
</g>
</g>
<!-- Node9&#45;&gt;Node8 -->
<g id="edge11" class="edge"><title>Node9&#45;&gt;Node8</title>
<path fill="none" stroke="orange" stroke-dasharray="5,2" d="M130.236,-281C172.475,-281 225.906,-281 266.194,-281"/>
<polygon fill="orange" stroke="orange" points="130.03,-277.5 120.03,-281 130.03,-284.5 130.03,-277.5"/>
<text text-anchor="middle" x="184.5" y="-284" font-family="Helvetica,sans-Serif" font-size="10.00"> &lt; my_pointer_size &gt;</text>
</g>
<!-- Node10&#45;&gt;Node4 -->
<g id="edge13" class="edge"><title>Node10&#45;&gt;Node4</title>
<path fill="none" stroke="#9a32cd" stroke-dasharray="5,2" d="M752.179,-71.225C858.592,-64.6114 1033.14,-66.9572 1164,-134 1193.27,-148.995 1219.92,-176.439 1236.16,-195.423"/>
<polygon fill="#9a32cd" stroke="#9a32cd" points="751.844,-67.7394 742.097,-71.8911 752.306,-74.7241 751.844,-67.7394"/>
<text text-anchor="middle" x="916.5" y="-84" font-family="Helvetica,sans-Serif" font-size="10.00"> free_slots</text>
</g>
<!-- Node10&#45;&gt;Node11 -->
<g id="edge21" class="edge"><title>Node10&#45;&gt;Node11</title>
<path fill="none" stroke="#9a32cd" stroke-dasharray="5,2" d="M752.286,-97.5939C775.824,-102.15 800.907,-107.394 824,-113 832.048,-114.953 840.442,-117.174 848.741,-119.482"/>
<polygon fill="#9a32cd" stroke="#9a32cd" points="752.783,-94.1256 742.303,-95.6844 751.468,-101.001 752.783,-94.1256"/>
<text text-anchor="middle" x="792" y="-116" font-family="Helvetica,sans-Serif" font-size="10.00"> free_slots</text>
</g>
<!-- Node11&#45;&gt;Node4 -->
<g id="edge15" class="edge"><title>Node11&#45;&gt;Node4</title>
<path fill="none" stroke="orange" stroke-dasharray="5,2" d="M1001.2,-137.501C1049.84,-138.399 1111.67,-143.629 1164,-161 1186.83,-168.58 1209.83,-183.129 1226.66,-195.36"/>
<polygon fill="orange" stroke="orange" points="1001.07,-134 991.026,-137.373 1000.98,-140.999 1001.07,-134"/>
<text text-anchor="start" x="1025" y="-175" font-family="Helvetica,sans-Serif" font-size="10.00"> &lt; self_type, CompareType,</text>
<text text-anchor="middle" x="1086.5" y="-164" font-family="Helvetica,sans-Serif" font-size="10.00"> Arity &gt;</text>
</g>
<!-- Node12&#45;&gt;Node3 -->
<g id="edge22" class="edge"><title>Node12&#45;&gt;Node3</title>
<path fill="none" stroke="#9a32cd" stroke-dasharray="5,2" d="M1519.19,-531.387C1554.26,-508.928 1610.04,-473.203 1645.17,-450.706"/>
<polygon fill="#9a32cd" stroke="#9a32cd" points="1517.28,-528.455 1510.74,-536.795 1521.05,-534.35 1517.28,-528.455"/>
<text text-anchor="middle" x="1571" y="-505" font-family="Helvetica,sans-Serif" font-size="10.00"> pool</text>
</g>
<!-- Node13&#45;&gt;Node12 -->
<g id="edge24" class="edge"><title>Node13&#45;&gt;Node12</title>
<path fill="none" stroke="#9a32cd" stroke-dasharray="5,2" d="M978.143,-648.805C1058.45,-649.913 1204.04,-647.453 1325,-621 1364.55,-612.35 1374.89,-610.194 1412,-594 1429.29,-586.455 1447.69,-575.85 1461.69,-567.184"/>
<polygon fill="#9a32cd" stroke="#9a32cd" points="977.785,-645.299 967.729,-648.637 977.671,-652.298 977.785,-645.299"/>
<text text-anchor="middle" x="1253.5" y="-645" font-family="Helvetica,sans-Serif" font-size="10.00"> p_pool</text>
</g>
<!-- Node13&#45;&gt;Node17 -->
<g id="edge33" class="edge"><title>Node13&#45;&gt;Node17</title>
<path fill="none" stroke="#9a32cd" stroke-dasharray="5,2" d="M977.667,-636.176C988.104,-634.385 998.859,-632.594 1009,-631 1073.51,-620.858 1147.89,-610.695 1197.3,-604.158"/>
<polygon fill="#9a32cd" stroke="#9a32cd" points="977.044,-632.731 967.788,-637.886 978.239,-639.629 977.044,-632.731"/>
<text text-anchor="middle" x="1086.5" y="-634" font-family="Helvetica,sans-Serif" font-size="10.00"> p_pool</text>
</g>
<!-- Node14 -->
<g id="node14" class="node"><title>Node14</title>
<g id="a_node14"><a xlink:href="structstxxl_1_1compat__hash__map.html" target="_top" xlink:title="stxxl::compat_hash\l_map\&lt; bid_type, busy\l_entry, bid_hash \&gt;">
<polygon fill="none" stroke="black" points="599.5,-676.5 599.5,-717.5 712.5,-717.5 712.5,-676.5 599.5,-676.5"/>
<text text-anchor="start" x="607.5" y="-705.5" font-family="Helvetica,sans-Serif" font-size="10.00">stxxl::compat_hash</text>
<text text-anchor="start" x="607.5" y="-694.5" font-family="Helvetica,sans-Serif" font-size="10.00">_map&lt; bid_type, busy</text>
<text text-anchor="middle" x="656" y="-683.5" font-family="Helvetica,sans-Serif" font-size="10.00">_entry, bid_hash &gt;</text>
</a>
</g>
</g>
<!-- Node14&#45;&gt;Node13 -->
<g id="edge27" class="edge"><title>Node14&#45;&gt;Node13</title>
<path fill="none" stroke="#9a32cd" stroke-dasharray="5,2" d="M722.854,-684.262C767.084,-675.707 824.479,-664.606 865.082,-656.752"/>
<polygon fill="#9a32cd" stroke="#9a32cd" points="721.926,-680.877 712.772,-686.212 723.255,-687.749 721.926,-680.877"/>
<text text-anchor="middle" x="792" y="-680" font-family="Helvetica,sans-Serif" font-size="10.00"> busy_blocks</text>
</g>
<!-- Node15 -->
<g id="node15" class="node"><title>Node15</title>
<g id="a_node15"><a xlink:href="structstxxl_1_1compat__hash__map.html" target="_top" xlink:title="stxxl::compat_hash\l_map\&lt; KeyType, MappedType,\l HashType \&gt;">
<polygon fill="none" stroke="black" points="249.5,-676.5 249.5,-717.5 403.5,-717.5 403.5,-676.5 249.5,-676.5"/>
<text text-anchor="start" x="257.5" y="-705.5" font-family="Helvetica,sans-Serif" font-size="10.00">stxxl::compat_hash</text>
<text text-anchor="start" x="257.5" y="-694.5" font-family="Helvetica,sans-Serif" font-size="10.00">_map&lt; KeyType, MappedType,</text>
<text text-anchor="middle" x="326.5" y="-683.5" font-family="Helvetica,sans-Serif" font-size="10.00"> HashType &gt;</text>
</a>
</g>
</g>
<!-- Node15&#45;&gt;Node14 -->
<g id="edge28" class="edge"><title>Node15&#45;&gt;Node14</title>
<path fill="none" stroke="orange" stroke-dasharray="5,2" d="M413.875,-697C472.559,-697 548.459,-697 599.284,-697"/>
<polygon fill="orange" stroke="orange" points="413.871,-693.5 403.871,-697 413.871,-700.5 413.871,-693.5"/>
<text text-anchor="start" x="434" y="-711" font-family="Helvetica,sans-Serif" font-size="10.00"> &lt; bid_type, busy_entry,</text>
<text text-anchor="middle" x="487" y="-700" font-family="Helvetica,sans-Serif" font-size="10.00"> bid_hash &gt;</text>
</g>
<!-- Node16&#45;&gt;Node12 -->
<g id="edge29" class="edge"><title>Node16&#45;&gt;Node12</title>
<path fill="none" stroke="#9a32cd" stroke-dasharray="5,2" d="M974.09,-550.199C1083.22,-550.584 1321.51,-551.424 1429.65,-551.805"/>
<polygon fill="#9a32cd" stroke="#9a32cd" points="973.953,-546.699 963.941,-550.164 973.928,-553.699 973.953,-546.699"/>
<text text-anchor="middle" x="1253.5" y="-555" font-family="Helvetica,sans-Serif" font-size="10.00"> w_pool</text>
</g>
<!-- Node16&#45;&gt;Node17 -->
<g id="edge34" class="edge"><title>Node16&#45;&gt;Node17</title>
<path fill="none" stroke="#9a32cd" stroke-dasharray="5,2" d="M973.742,-552.037C1023.97,-554.562 1099.37,-560.094 1164,-572 1177.66,-574.516 1192.26,-578.21 1205.58,-581.989"/>
<polygon fill="#9a32cd" stroke="#9a32cd" points="973.888,-548.54 963.732,-551.557 973.552,-555.532 973.888,-548.54"/>
<text text-anchor="middle" x="1086.5" y="-575" font-family="Helvetica,sans-Serif" font-size="10.00"> w_pool</text>
</g>
<!-- Node17&#45;&gt;Node12 -->
<g id="edge31" class="edge"><title>Node17&#45;&gt;Node12</title>
<path fill="none" stroke="orange" stroke-dasharray="5,2" d="M1319.76,-584.259C1354.5,-577.477 1396.76,-569.227 1429.84,-562.769"/>
<polygon fill="orange" stroke="orange" points="1318.85,-580.87 1309.71,-586.221 1320.2,-587.74 1318.85,-580.87"/>
<text text-anchor="middle" x="1377.5" y="-582" font-family="Helvetica,sans-Serif" font-size="10.00"> &lt; block_type &gt;</text>
</g>
</g>
</svg>
