<?xml version="1.0" encoding="UTF-8" standalone="no"?>
<!DOCTYPE svg PUBLIC "-//W3C//DTD SVG 1.1//EN"
 "http://www.w3.org/Graphics/SVG/1.1/DTD/svg11.dtd">
<!-- Generated by graphviz version 2.38.0 (20140413.2041)
 -->
<!-- Title: stxxl::ppq_local::minima_tree&lt; ParentType &gt;::head_comp Pages: 1 -->
<svg width="1105pt" height="463pt"
 viewBox="0.00 0.00 1105.00 463.06" xmlns="http://www.w3.org/2000/svg" xmlns:xlink="http://www.w3.org/1999/xlink">
<g id="graph0" class="graph" transform="scale(1 1) rotate(0) translate(4 459.06)">
<title>stxxl::ppq_local::minima_tree&lt; ParentType &gt;::head_comp</title>
<!-- Node1 -->
<g id="node1" class="node"><title>Node1</title>
<polygon fill="#bfbfbf" stroke="black" points="442.5,-396.06 442.5,-426.06 605.5,-426.06 605.5,-396.06 442.5,-396.06"/>
<text text-anchor="start" x="450.5" y="-414.06" font-family="Helvetica,sans-Serif" font-size="10.00">stxxl::ppq_local::minima</text>
<text text-anchor="middle" x="524" y="-403.06" font-family="Helvetica,sans-Serif" font-size="10.00">_tree&lt; ParentType &gt;::head_comp</text>
</g>
<!-- Node2 -->
<g id="node2" class="node"><title>Node2</title>
<g id="a_node2"><a xlink:href="classstxxl_1_1ppq__local_1_1minima__tree.html" target="_top" xlink:title="The minima_tree contains minima from all sources inside the PPQ. ">
<polygon fill="none" stroke="black" points="975,-267.06 975,-297.06 1097,-297.06 1097,-267.06 975,-267.06"/>
<text text-anchor="start" x="983" y="-285.06" font-family="Helvetica,sans-Serif" font-size="10.00">stxxl::ppq_local::minima</text>
<text text-anchor="middle" x="1036" y="-274.06" font-family="Helvetica,sans-Serif" font-size="10.00">_tree&lt; ParentType &gt;</text>
</a>
</g>
</g>
<!-- Node1&#45;&gt;Node2 -->
<g id="edge18" class="edge"><title>Node1&#45;&gt;Node2</title>
<path fill="none" stroke="#9a32cd" stroke-dasharray="5,2" d="M593.884,-428.201C670.43,-443.824 796.372,-459.201 896,-421.06 958.469,-397.145 1006.76,-328.371 1025.97,-297.447"/>
<polygon fill="#9a32cd" stroke="#9a32cd" points="594.385,-424.73 583.879,-426.1 592.946,-431.581 594.385,-424.73"/>
<text text-anchor="middle" x="826" y="-447.06" font-family="Helvetica,sans-Serif" font-size="10.00"> m_head_comp</text>
</g>
<!-- Node8 -->
<g id="node8" class="node"><title>Node8</title>
<g id="a_node8"><a xlink:href="classstxxl_1_1winner__tree.html" target="_top" xlink:title="stxxl::winner_tree\l\&lt; stxxl::ppq_local::\lminima_tree::head_comp \&gt;">
<polygon fill="none" stroke="black" points="758.5,-179.56 758.5,-220.56 893.5,-220.56 893.5,-179.56 758.5,-179.56"/>
<text text-anchor="start" x="766.5" y="-208.56" font-family="Helvetica,sans-Serif" font-size="10.00">stxxl::winner_tree</text>
<text text-anchor="start" x="766.5" y="-197.56" font-family="Helvetica,sans-Serif" font-size="10.00">&lt; stxxl::ppq_local::</text>
<text text-anchor="middle" x="826" y="-186.56" font-family="Helvetica,sans-Serif" font-size="10.00">minima_tree::head_comp &gt;</text>
</a>
</g>
</g>
<!-- Node1&#45;&gt;Node8 -->
<g id="edge11" class="edge"><title>Node1&#45;&gt;Node8</title>
<path fill="none" stroke="#9a32cd" stroke-dasharray="5,2" d="M588.672,-393.071C643.798,-376.265 717.77,-350.343 738,-327.06 760.484,-301.184 737.206,-280.729 756,-252.06 764.141,-239.641 776.305,-229.051 788.162,-220.732"/>
<polygon fill="#9a32cd" stroke="#9a32cd" points="587.527,-389.761 578.963,-395.997 589.547,-396.463 587.527,-389.761"/>
<text text-anchor="middle" x="682" y="-383.06" font-family="Helvetica,sans-Serif" font-size="10.00"> m_less</text>
</g>
<!-- Node2&#45;&gt;Node1 -->
<g id="edge1" class="edge"><title>Node2&#45;&gt;Node1</title>
<path fill="none" stroke="#9a32cd" stroke-dasharray="5,2" d="M1010.17,-303.998C983.836,-325.865 940.034,-358.383 896,-374.06 800.262,-408.146 682.414,-414.34 605.584,-414.033"/>
<polygon fill="#9a32cd" stroke="#9a32cd" points="1012.71,-306.436 1018.08,-297.307 1008.19,-301.091 1012.71,-306.436"/>
<text text-anchor="middle" x="826" y="-409.06" font-family="Helvetica,sans-Serif" font-size="10.00"> m_parent</text>
</g>
<!-- Node3 -->
<g id="node3" class="node"><title>Node3</title>
<g id="a_node3"><a xlink:href="classstxxl_1_1winner__tree.html" target="_top" xlink:title="stxxl::winner_tree\l\&lt; stxxl::ppq_local::\lminima_tree::heaps_comp \&gt;">
<polygon fill="none" stroke="black" points="756,-261.56 756,-302.56 896,-302.56 896,-261.56 756,-261.56"/>
<text text-anchor="start" x="764" y="-290.56" font-family="Helvetica,sans-Serif" font-size="10.00">stxxl::winner_tree</text>
<text text-anchor="start" x="764" y="-279.56" font-family="Helvetica,sans-Serif" font-size="10.00">&lt; stxxl::ppq_local::</text>
<text text-anchor="middle" x="826" y="-268.56" font-family="Helvetica,sans-Serif" font-size="10.00">minima_tree::heaps_comp &gt;</text>
</a>
</g>
</g>
<!-- Node3&#45;&gt;Node2 -->
<g id="edge2" class="edge"><title>Node3&#45;&gt;Node2</title>
<path fill="none" stroke="#9a32cd" stroke-dasharray="5,2" d="M906.533,-282.06C929.178,-282.06 953.464,-282.06 974.757,-282.06"/>
<polygon fill="#9a32cd" stroke="#9a32cd" points="906.261,-278.56 896.261,-282.06 906.261,-285.56 906.261,-278.56"/>
<text text-anchor="middle" x="935.5" y="-285.06" font-family="Helvetica,sans-Serif" font-size="10.00"> m_heaps</text>
</g>
<!-- Node4 -->
<g id="node4" class="node"><title>Node4</title>
<g id="a_node4"><a xlink:href="structstxxl_1_1ppq__local_1_1minima__tree_1_1heaps__comp.html" target="_top" xlink:title="Comparator for the insertion heaps winner tree. ">
<polygon fill="none" stroke="black" points="440,-335.06 440,-365.06 608,-365.06 608,-335.06 440,-335.06"/>
<text text-anchor="start" x="448" y="-353.06" font-family="Helvetica,sans-Serif" font-size="10.00">stxxl::ppq_local::minima</text>
<text text-anchor="middle" x="524" y="-342.06" font-family="Helvetica,sans-Serif" font-size="10.00">_tree&lt; ParentType &gt;::heaps_comp</text>
</a>
</g>
</g>
<!-- Node4&#45;&gt;Node2 -->
<g id="edge8" class="edge"><title>Node4&#45;&gt;Node2</title>
<path fill="none" stroke="#9a32cd" stroke-dasharray="5,2" d="M618.28,-360.591C620.88,-360.765 623.457,-360.922 626,-361.06 675.705,-363.759 688.642,-367.513 738,-361.06 830.584,-348.957 935.377,-316.485 992.422,-297.147"/>
<polygon fill="#9a32cd" stroke="#9a32cd" points="618.398,-357.09 608.167,-359.841 617.881,-364.071 618.398,-357.09"/>
<text text-anchor="middle" x="826" y="-362.06" font-family="Helvetica,sans-Serif" font-size="10.00"> m_heaps_comp</text>
</g>
<!-- Node4&#45;&gt;Node3 -->
<g id="edge3" class="edge"><title>Node4&#45;&gt;Node3</title>
<path fill="none" stroke="#9a32cd" stroke-dasharray="5,2" d="M574.679,-331.626C590.883,-326.075 609.063,-320.33 626,-316.06 668.652,-305.307 717.311,-296.926 755.836,-291.175"/>
<polygon fill="#9a32cd" stroke="#9a32cd" points="573.166,-328.446 564.874,-335.042 575.469,-335.057 573.166,-328.446"/>
<text text-anchor="middle" x="682" y="-319.06" font-family="Helvetica,sans-Serif" font-size="10.00"> m_less</text>
</g>
<!-- Node5 -->
<g id="node5" class="node"><title>Node5</title>
<g id="a_node5"><a xlink:href="structstxxl_1_1winner__tree_1_1stats__type.html" target="_top" xlink:title="Collection of stats from the winner_tree. ">
<polygon fill="none" stroke="black" points="228,-152.06 228,-182.06 365,-182.06 365,-152.06 228,-152.06"/>
<text text-anchor="start" x="236" y="-170.06" font-family="Helvetica,sans-Serif" font-size="10.00">stxxl::winner_tree</text>
<text text-anchor="middle" x="296.5" y="-159.06" font-family="Helvetica,sans-Serif" font-size="10.00">&lt; Comparator &gt;::stats_type</text>
</a>
</g>
</g>
<!-- Node5&#45;&gt;Node3 -->
<g id="edge4" class="edge"><title>Node5&#45;&gt;Node3</title>
<path fill="none" stroke="#9a32cd" stroke-dasharray="5,2" d="M351.18,-185.272C377.818,-194.18 410.526,-204.924 440,-214.06 522.221,-239.546 541.256,-252.955 626,-268.06 668.791,-275.688 717.453,-279.201 755.945,-280.802"/>
<polygon fill="#9a32cd" stroke="#9a32cd" points="352.252,-181.94 341.658,-182.08 350.027,-188.577 352.252,-181.94"/>
<text text-anchor="middle" x="524" y="-268.06" font-family="Helvetica,sans-Serif" font-size="10.00"> m_stats</text>
</g>
<!-- Node7 -->
<g id="node7" class="node"><title>Node7</title>
<g id="a_node7"><a xlink:href="classstxxl_1_1winner__tree.html" target="_top" xlink:title="The class winner_tree is a binary tournament tree. ">
<polygon fill="none" stroke="black" points="477,-175.06 477,-205.06 571,-205.06 571,-175.06 477,-175.06"/>
<text text-anchor="start" x="485" y="-193.06" font-family="Helvetica,sans-Serif" font-size="10.00">stxxl::winner_tree</text>
<text text-anchor="middle" x="524" y="-182.06" font-family="Helvetica,sans-Serif" font-size="10.00">&lt; Comparator &gt;</text>
</a>
</g>
</g>
<!-- Node5&#45;&gt;Node7 -->
<g id="edge7" class="edge"><title>Node5&#45;&gt;Node7</title>
<path fill="none" stroke="#9a32cd" stroke-dasharray="5,2" d="M375.48,-175.014C409.268,-178.46 447.674,-182.377 476.827,-185.351"/>
<polygon fill="#9a32cd" stroke="#9a32cd" points="375.461,-171.494 365.157,-173.961 374.751,-178.458 375.461,-171.494"/>
<text text-anchor="middle" x="402.5" y="-183.06" font-family="Helvetica,sans-Serif" font-size="10.00"> m_stats</text>
</g>
<!-- Node5&#45;&gt;Node8 -->
<g id="edge10" class="edge"><title>Node5&#45;&gt;Node8</title>
<path fill="none" stroke="#9a32cd" stroke-dasharray="5,2" d="M375.328,-158.67C396.298,-156.762 418.993,-155.017 440,-154.06 572.549,-148.027 608.643,-142.525 738,-172.06 747.127,-174.144 756.668,-176.755 765.947,-179.539"/>
<polygon fill="#9a32cd" stroke="#9a32cd" points="374.819,-155.202 365.188,-159.617 375.47,-162.172 374.819,-155.202"/>
<text text-anchor="middle" x="524" y="-157.06" font-family="Helvetica,sans-Serif" font-size="10.00"> m_stats</text>
</g>
<!-- Node9 -->
<g id="node9" class="node"><title>Node9</title>
<g id="a_node9"><a xlink:href="classstxxl_1_1winner__tree.html" target="_top" xlink:title="stxxl::winner_tree\l\&lt; stxxl::ppq_local::\lminima_tree::ia_comp \&gt;">
<polygon fill="none" stroke="black" points="765,-71.5604 765,-112.56 887,-112.56 887,-71.5604 765,-71.5604"/>
<text text-anchor="start" x="773" y="-100.56" font-family="Helvetica,sans-Serif" font-size="10.00">stxxl::winner_tree</text>
<text text-anchor="start" x="773" y="-89.5604" font-family="Helvetica,sans-Serif" font-size="10.00">&lt; stxxl::ppq_local::</text>
<text text-anchor="middle" x="826" y="-78.5604" font-family="Helvetica,sans-Serif" font-size="10.00">minima_tree::ia_comp &gt;</text>
</a>
</g>
</g>
<!-- Node5&#45;&gt;Node9 -->
<g id="edge14" class="edge"><title>Node5&#45;&gt;Node9</title>
<path fill="none" stroke="#9a32cd" stroke-dasharray="5,2" d="M369.195,-149.755C391.773,-144.63 416.857,-139.269 440,-135.06 553.979,-114.333 688.877,-102.031 764.941,-96.2003"/>
<polygon fill="#9a32cd" stroke="#9a32cd" points="368.317,-146.366 359.351,-152.01 369.88,-153.189 368.317,-146.366"/>
<text text-anchor="middle" x="524" y="-138.06" font-family="Helvetica,sans-Serif" font-size="10.00"> m_stats</text>
</g>
<!-- Node6 -->
<g id="node6" class="node"><title>Node6</title>
<g id="a_node6"><a xlink:href="classstxxl_1_1fake__timer.html" target="_top" xlink:title="Class fake_timer is a drop&#45;in replacement for timer, which does nothing. ">
<polygon fill="none" stroke="black" points="0,-157.56 0,-176.56 89,-176.56 89,-157.56 0,-157.56"/>
<text text-anchor="middle" x="44.5" y="-164.56" font-family="Helvetica,sans-Serif" font-size="10.00">stxxl::fake_timer</text>
</a>
</g>
</g>
<!-- Node6&#45;&gt;Node5 -->
<g id="edge5" class="edge"><title>Node6&#45;&gt;Node5</title>
<path fill="none" stroke="#9a32cd" stroke-dasharray="5,2" d="M99.3108,-167.06C136.987,-167.06 187.606,-167.06 227.991,-167.06"/>
<polygon fill="#9a32cd" stroke="#9a32cd" points="99.0467,-163.56 89.0467,-167.06 99.0466,-170.56 99.0467,-163.56"/>
<text text-anchor="middle" x="158.5" y="-192.06" font-family="Helvetica,sans-Serif" font-size="10.00"> remove_player_time</text>
<text text-anchor="middle" x="158.5" y="-181.06" font-family="Helvetica,sans-Serif" font-size="10.00">replay_time</text>
<text text-anchor="middle" x="158.5" y="-170.06" font-family="Helvetica,sans-Serif" font-size="10.00">double_num_slots_time</text>
</g>
<!-- Node7&#45;&gt;Node3 -->
<g id="edge6" class="edge"><title>Node7&#45;&gt;Node3</title>
<path fill="none" stroke="orange" stroke-dasharray="5,2" d="M581.135,-202.412C595.735,-205.591 611.449,-208.982 626,-212.06 675.716,-222.579 690.246,-217.687 738,-235.06 756.714,-241.869 776.332,-252.157 792.191,-261.374"/>
<polygon fill="orange" stroke="orange" points="581.749,-198.964 571.233,-200.252 580.257,-205.803 581.749,-198.964"/>
<text text-anchor="start" x="636" y="-260.06" font-family="Helvetica,sans-Serif" font-size="10.00"> &lt; stxxl::ppq_local</text>
<text text-anchor="start" x="636" y="-249.06" font-family="Helvetica,sans-Serif" font-size="10.00">::minima_tree::heaps</text>
<text text-anchor="middle" x="682" y="-238.06" font-family="Helvetica,sans-Serif" font-size="10.00">_comp &gt;</text>
</g>
<!-- Node7&#45;&gt;Node8 -->
<g id="edge12" class="edge"><title>Node7&#45;&gt;Node8</title>
<path fill="none" stroke="orange" stroke-dasharray="5,2" d="M581.269,-181.965C624.311,-177.026 685.068,-172.762 738,-179.06 744.635,-179.85 751.495,-180.966 758.318,-182.278"/>
<polygon fill="orange" stroke="orange" points="580.785,-178.497 571.271,-183.16 581.616,-185.448 580.785,-178.497"/>
<text text-anchor="start" x="638.5" y="-204.06" font-family="Helvetica,sans-Serif" font-size="10.00"> &lt; stxxl::ppq_local</text>
<text text-anchor="start" x="638.5" y="-193.06" font-family="Helvetica,sans-Serif" font-size="10.00">::minima_tree::head</text>
<text text-anchor="middle" x="682" y="-182.06" font-family="Helvetica,sans-Serif" font-size="10.00">_comp &gt;</text>
</g>
<!-- Node7&#45;&gt;Node9 -->
<g id="edge16" class="edge"><title>Node7&#45;&gt;Node9</title>
<path fill="none" stroke="orange" stroke-dasharray="5,2" d="M580.374,-171.447C589.699,-167.915 599.202,-164.063 608,-160.06 616.33,-156.271 617.554,-153.585 626,-150.06 671.166,-131.212 724.506,-116.021 764.588,-105.92"/>
<polygon fill="orange" stroke="orange" points="578.922,-168.253 570.758,-175.005 581.351,-174.818 578.922,-168.253"/>
<text text-anchor="start" x="626" y="-164.06" font-family="Helvetica,sans-Serif" font-size="10.00"> &lt; stxxl::ppq_local</text>
<text text-anchor="middle" x="682" y="-153.06" font-family="Helvetica,sans-Serif" font-size="10.00">::minima_tree::ia_comp &gt;</text>
</g>
<!-- Node8&#45;&gt;Node2 -->
<g id="edge9" class="edge"><title>Node8&#45;&gt;Node2</title>
<path fill="none" stroke="#9a32cd" stroke-dasharray="5,2" d="M888.888,-224.458C923.951,-238.281 966.698,-255.134 996.872,-267.029"/>
<polygon fill="#9a32cd" stroke="#9a32cd" points="889.806,-221.058 879.219,-220.647 887.238,-227.57 889.806,-221.058"/>
<text text-anchor="middle" x="935.5" y="-254.06" font-family="Helvetica,sans-Serif" font-size="10.00"> m_head</text>
</g>
<!-- Node9&#45;&gt;Node2 -->
<g id="edge13" class="edge"><title>Node9&#45;&gt;Node2</title>
<path fill="none" stroke="#9a32cd" stroke-dasharray="5,2" d="M857.249,-119.692C901.735,-160.328 983.309,-234.843 1018.32,-266.823"/>
<polygon fill="#9a32cd" stroke="#9a32cd" points="859.399,-116.916 849.656,-112.755 854.678,-122.084 859.399,-116.916"/>
<text text-anchor="middle" x="935.5" y="-213.06" font-family="Helvetica,sans-Serif" font-size="10.00"> m_ia</text>
</g>
<!-- Node10 -->
<g id="node10" class="node"><title>Node10</title>
<g id="a_node10"><a xlink:href="structstxxl_1_1ppq__local_1_1minima__tree_1_1ia__comp.html" target="_top" xlink:title="Comparator for the internal arrays winner tree. ">
<polygon fill="none" stroke="black" points="449.5,-4.06039 449.5,-34.0604 598.5,-34.0604 598.5,-4.06039 449.5,-4.06039"/>
<text text-anchor="start" x="457.5" y="-22.0604" font-family="Helvetica,sans-Serif" font-size="10.00">stxxl::ppq_local::minima</text>
<text text-anchor="middle" x="524" y="-11.0604" font-family="Helvetica,sans-Serif" font-size="10.00">_tree&lt; ParentType &gt;::ia_comp</text>
</a>
</g>
</g>
<!-- Node10&#45;&gt;Node2 -->
<g id="edge17" class="edge"><title>Node10&#45;&gt;Node2</title>
<path fill="none" stroke="#9a32cd" stroke-dasharray="5,2" d="M608.943,-4.90387C689.301,4.02792 810.598,4.96806 896,-51.0604 977.791,-104.72 1018.68,-224.729 1030.94,-266.987"/>
<polygon fill="#9a32cd" stroke="#9a32cd" points="608.385,-1.44524 598.863,-6.08993 609.203,-8.39728 608.385,-1.44524"/>
<text text-anchor="middle" x="826" y="-54.0604" font-family="Helvetica,sans-Serif" font-size="10.00"> m_ia_comp</text>
</g>
<!-- Node10&#45;&gt;Node9 -->
<g id="edge15" class="edge"><title>Node10&#45;&gt;Node9</title>
<path fill="none" stroke="#9a32cd" stroke-dasharray="5,2" d="M608.865,-25.3038C648.629,-29.7656 696.42,-37.3282 738,-50.0604 755.32,-55.3639 773.51,-63.6677 788.754,-71.4964"/>
<polygon fill="#9a32cd" stroke="#9a32cd" points="608.99,-21.7971 598.673,-24.2077 608.241,-28.757 608.99,-21.7971"/>
<text text-anchor="middle" x="682" y="-53.0604" font-family="Helvetica,sans-Serif" font-size="10.00"> m_less</text>
</g>
</g>
</svg>
