<?xml version="1.0" encoding="UTF-8" standalone="no"?>
<!DOCTYPE svg PUBLIC "-//W3C//DTD SVG 1.1//EN"
 "http://www.w3.org/Graphics/SVG/1.1/DTD/svg11.dtd">
<!-- Generated by graphviz version 2.26.3 (20100126.1600)
 -->
<!-- Title: stxxl::RC Pages: 1 -->
<svg width="192pt" height="146pt"
 viewBox="0.00 0.00 192.00 146.00" xmlns="http://www.w3.org/2000/svg" xmlns:xlink="http://www.w3.org/1999/xlink">
<g id="graph1" class="graph" transform="scale(1 1) rotate(0) translate(4 142)">
<title>stxxl::RC</title>
<!-- Node1 -->
<g id="node1" class="node"><title>Node1</title>
<polygon fill="#bfbfbf" stroke="black" points="61.5,-58.5 61.5,-79.5 120.5,-79.5 120.5,-58.5 61.5,-58.5"/>
<text text-anchor="middle" x="91" y="-66.5" font-family="Helvetica,sans-Serif" font-size="10.00">stxxl::RC</text>
</g>
<!-- Node3 -->
<g id="node5" class="node"><title>Node3</title>
<a xlink:href="structstxxl_1_1RC__disk.html" target="_top" xlink:title="stxxl::RC_disk">
<polygon fill="none" stroke="black" points="0,-0.5 0,-21.5 82,-21.5 82,-0.5 0,-0.5"/>
<text text-anchor="middle" x="41" y="-8.5" font-family="Helvetica,sans-Serif" font-size="10.00">stxxl::RC_disk</text>
</a>
</g>
<!-- Node1&#45;&gt;Node3 -->
<g id="edge4" class="edge"><title>Node1&#45;&gt;Node3</title>
<path fill="none" stroke="midnightblue" d="M75.0868,-50.5407C66.8436,-40.9786 57.0747,-29.6467 50.1126,-21.5707"/>
<polygon fill="midnightblue" stroke="midnightblue" points="72.6489,-53.0731 81.8292,-58.3619 77.9507,-48.5025 72.6489,-53.0731"/>
</g>
<!-- Node4 -->
<g id="node7" class="node"><title>Node4</title>
<a xlink:href="structstxxl_1_1RC__flash.html" target="_top" xlink:title="stxxl::RC_flash">
<polygon fill="none" stroke="black" points="99.5,-0.5 99.5,-21.5 184.5,-21.5 184.5,-0.5 99.5,-0.5"/>
<text text-anchor="middle" x="142" y="-8.5" font-family="Helvetica,sans-Serif" font-size="10.00">stxxl::RC_flash</text>
</a>
</g>
<!-- Node1&#45;&gt;Node4 -->
<g id="edge6" class="edge"><title>Node1&#45;&gt;Node4</title>
<path fill="none" stroke="midnightblue" d="M106.977,-50.8299C115.438,-41.2078 125.532,-29.7282 132.705,-21.5707"/>
<polygon fill="midnightblue" stroke="midnightblue" points="104.329,-48.541 100.354,-58.3619 109.586,-53.1634 104.329,-48.541"/>
</g>
<!-- Node2 -->
<g id="node2" class="node"><title>Node2</title>
<a xlink:href="structstxxl_1_1striping.html" target="_top" xlink:title="Striping disk allocation scheme functor. ">
<polygon fill="none" stroke="black" points="53.5,-116.5 53.5,-137.5 128.5,-137.5 128.5,-116.5 53.5,-116.5"/>
<text text-anchor="middle" x="91" y="-124.5" font-family="Helvetica,sans-Serif" font-size="10.00">stxxl::striping</text>
</a>
</g>
<!-- Node2&#45;&gt;Node1 -->
<g id="edge2" class="edge"><title>Node2&#45;&gt;Node1</title>
<path fill="none" stroke="midnightblue" d="M91,-106.191C91,-97.1684 91,-86.9941 91,-79.5707"/>
<polygon fill="midnightblue" stroke="midnightblue" points="87.5001,-106.362 91,-116.362 94.5001,-106.362 87.5001,-106.362"/>
</g>
</g>
</svg>
