<?xml version="1.0" encoding="UTF-8" standalone="no"?>
<!DOCTYPE svg PUBLIC "-//W3C//DTD SVG 1.1//EN"
 "http://www.w3.org/Graphics/SVG/1.1/DTD/svg11.dtd">
<!-- Generated by graphviz version 2.38.0 (20140413.2041)
 -->
<!-- Title: stxxl::cmdline_parser::argument Pages: 1 -->
<svg width="264pt" height="382pt"
 viewBox="0.00 0.00 264.00 382.00" xmlns="http://www.w3.org/2000/svg" xmlns:xlink="http://www.w3.org/1999/xlink">
<g id="graph0" class="graph" transform="scale(1 1) rotate(0) translate(4 378)">
<title>stxxl::cmdline_parser::argument</title>
<!-- Node1 -->
<g id="node1" class="node"><title>Node1</title>
<polygon fill="#bfbfbf" stroke="black" points="0,-171.5 0,-201.5 110,-201.5 110,-171.5 0,-171.5"/>
<text text-anchor="start" x="8" y="-189.5" font-family="Helvetica,sans-Serif" font-size="10.00">stxxl::cmdline_parser</text>
<text text-anchor="middle" x="55" y="-178.5" font-family="Helvetica,sans-Serif" font-size="10.00">::argument</text>
</g>
<!-- Node2 -->
<g id="node2" class="node"><title>Node2</title>
<g id="a_node2"><a xlink:href="structstxxl_1_1cmdline__parser_1_1argument__bytes32.html" target="_top" xlink:title="specialization of argument for SI/IEC suffixes byte size options or parameters ">
<polygon fill="none" stroke="black" points="146,-343.5 146,-373.5 256,-373.5 256,-343.5 146,-343.5"/>
<text text-anchor="start" x="154" y="-361.5" font-family="Helvetica,sans-Serif" font-size="10.00">stxxl::cmdline_parser</text>
<text text-anchor="middle" x="201" y="-350.5" font-family="Helvetica,sans-Serif" font-size="10.00">::argument_bytes32</text>
</a>
</g>
</g>
<!-- Node1&#45;&gt;Node2 -->
<g id="edge1" class="edge"><title>Node1&#45;&gt;Node2</title>
<path fill="none" stroke="midnightblue" d="M65.4471,-211.106C78.9178,-243.312 106.469,-299.735 146,-334.5 149.852,-337.888 154.259,-340.867 158.858,-343.469"/>
<polygon fill="midnightblue" stroke="midnightblue" points="68.5757,-209.507 61.5709,-201.559 62.0898,-212.141 68.5757,-209.507"/>
</g>
<!-- Node3 -->
<g id="node3" class="node"><title>Node3</title>
<g id="a_node3"><a xlink:href="structstxxl_1_1cmdline__parser_1_1argument__bytes64.html" target="_top" xlink:title="specialization of argument for SI/IEC suffixes byte size options or parameters ">
<polygon fill="none" stroke="black" points="146,-294.5 146,-324.5 256,-324.5 256,-294.5 146,-294.5"/>
<text text-anchor="start" x="154" y="-312.5" font-family="Helvetica,sans-Serif" font-size="10.00">stxxl::cmdline_parser</text>
<text text-anchor="middle" x="201" y="-301.5" font-family="Helvetica,sans-Serif" font-size="10.00">::argument_bytes64</text>
</a>
</g>
</g>
<!-- Node1&#45;&gt;Node3 -->
<g id="edge2" class="edge"><title>Node1&#45;&gt;Node3</title>
<path fill="none" stroke="midnightblue" d="M72.6612,-209.826C89.2371,-231.69 116.412,-264.126 146,-285.5 150.574,-288.804 155.675,-291.796 160.866,-294.458"/>
<polygon fill="midnightblue" stroke="midnightblue" points="75.4156,-207.664 66.6397,-201.728 69.7984,-211.841 75.4156,-207.664"/>
</g>
<!-- Node4 -->
<g id="node4" class="node"><title>Node4</title>
<g id="a_node4"><a xlink:href="structstxxl_1_1cmdline__parser_1_1argument__double.html" target="_top" xlink:title="specialization of argument for double options or parameters ">
<polygon fill="none" stroke="black" points="146,-245.5 146,-275.5 256,-275.5 256,-245.5 146,-245.5"/>
<text text-anchor="start" x="154" y="-263.5" font-family="Helvetica,sans-Serif" font-size="10.00">stxxl::cmdline_parser</text>
<text text-anchor="middle" x="201" y="-252.5" font-family="Helvetica,sans-Serif" font-size="10.00">::argument_double</text>
</a>
</g>
</g>
<!-- Node1&#45;&gt;Node4 -->
<g id="edge3" class="edge"><title>Node1&#45;&gt;Node4</title>
<path fill="none" stroke="midnightblue" d="M90.475,-206.596C107.075,-216.028 127.376,-227.211 146,-236.5 152.059,-239.522 158.583,-242.581 164.93,-245.457"/>
<polygon fill="midnightblue" stroke="midnightblue" points="92.0862,-203.485 81.668,-201.559 88.611,-209.562 92.0862,-203.485"/>
</g>
<!-- Node5 -->
<g id="node5" class="node"><title>Node5</title>
<g id="a_node5"><a xlink:href="structstxxl_1_1cmdline__parser_1_1argument__flag.html" target="_top" xlink:title="specialization of argument for boolean flags (can only be set to true). ">
<polygon fill="none" stroke="black" points="146,-196.5 146,-226.5 256,-226.5 256,-196.5 146,-196.5"/>
<text text-anchor="start" x="154" y="-214.5" font-family="Helvetica,sans-Serif" font-size="10.00">stxxl::cmdline_parser</text>
<text text-anchor="middle" x="201" y="-203.5" font-family="Helvetica,sans-Serif" font-size="10.00">::argument_flag</text>
</a>
</g>
</g>
<!-- Node1&#45;&gt;Node5 -->
<g id="edge4" class="edge"><title>Node1&#45;&gt;Node5</title>
<path fill="none" stroke="midnightblue" d="M119.991,-197.609C128.561,-199.097 137.284,-200.612 145.667,-202.067"/>
<polygon fill="midnightblue" stroke="midnightblue" points="120.481,-194.142 110.03,-195.88 119.284,-201.039 120.481,-194.142"/>
</g>
<!-- Node6 -->
<g id="node6" class="node"><title>Node6</title>
<g id="a_node6"><a xlink:href="structstxxl_1_1cmdline__parser_1_1argument__int.html" target="_top" xlink:title="specialization of argument for integer options or parameters ">
<polygon fill="none" stroke="black" points="146,-147.5 146,-177.5 256,-177.5 256,-147.5 146,-147.5"/>
<text text-anchor="start" x="154" y="-165.5" font-family="Helvetica,sans-Serif" font-size="10.00">stxxl::cmdline_parser</text>
<text text-anchor="middle" x="201" y="-154.5" font-family="Helvetica,sans-Serif" font-size="10.00">::argument_int</text>
</a>
</g>
</g>
<!-- Node1&#45;&gt;Node6 -->
<g id="edge5" class="edge"><title>Node1&#45;&gt;Node6</title>
<path fill="none" stroke="midnightblue" d="M119.991,-175.835C128.561,-174.407 137.284,-172.953 145.667,-171.555"/>
<polygon fill="midnightblue" stroke="midnightblue" points="119.318,-172.399 110.03,-177.495 120.469,-179.303 119.318,-172.399"/>
</g>
<!-- Node7 -->
<g id="node7" class="node"><title>Node7</title>
<g id="a_node7"><a xlink:href="structstxxl_1_1cmdline__parser_1_1argument__string.html" target="_top" xlink:title="specialization of argument for string options or parameters ">
<polygon fill="none" stroke="black" points="146,-98.5 146,-128.5 256,-128.5 256,-98.5 146,-98.5"/>
<text text-anchor="start" x="154" y="-116.5" font-family="Helvetica,sans-Serif" font-size="10.00">stxxl::cmdline_parser</text>
<text text-anchor="middle" x="201" y="-105.5" font-family="Helvetica,sans-Serif" font-size="10.00">::argument_string</text>
</a>
</g>
</g>
<!-- Node1&#45;&gt;Node7 -->
<g id="edge6" class="edge"><title>Node1&#45;&gt;Node7</title>
<path fill="none" stroke="midnightblue" d="M92.5323,-166.415C108.792,-157.631 128.241,-147.338 146,-138.5 152.659,-135.186 159.844,-131.759 166.732,-128.544"/>
<polygon fill="midnightblue" stroke="midnightblue" points="90.4843,-163.544 83.364,-171.389 93.8228,-169.697 90.4843,-163.544"/>
</g>
<!-- Node8 -->
<g id="node8" class="node"><title>Node8</title>
<g id="a_node8"><a xlink:href="structstxxl_1_1cmdline__parser_1_1argument__stringlist.html" target="_top" xlink:title="specialization of argument for multiple string options or parameters ">
<polygon fill="none" stroke="black" points="146,-49.5 146,-79.5 256,-79.5 256,-49.5 146,-49.5"/>
<text text-anchor="start" x="154" y="-67.5" font-family="Helvetica,sans-Serif" font-size="10.00">stxxl::cmdline_parser</text>
<text text-anchor="middle" x="201" y="-56.5" font-family="Helvetica,sans-Serif" font-size="10.00">::argument_stringlist</text>
</a>
</g>
</g>
<!-- Node1&#45;&gt;Node8 -->
<g id="edge7" class="edge"><title>Node1&#45;&gt;Node8</title>
<path fill="none" stroke="midnightblue" d="M73.3366,-163.123C90.0775,-141.799 117.085,-110.502 146,-89.5 151.015,-85.8572 156.646,-82.5486 162.328,-79.6178"/>
<polygon fill="midnightblue" stroke="midnightblue" points="70.3548,-161.259 67.0236,-171.316 75.8997,-165.531 70.3548,-161.259"/>
</g>
<!-- Node9 -->
<g id="node9" class="node"><title>Node9</title>
<g id="a_node9"><a xlink:href="structstxxl_1_1cmdline__parser_1_1argument__uint.html" target="_top" xlink:title="specialization of argument for unsigned integer options or parameters ">
<polygon fill="none" stroke="black" points="146,-0.5 146,-30.5 256,-30.5 256,-0.5 146,-0.5"/>
<text text-anchor="start" x="154" y="-18.5" font-family="Helvetica,sans-Serif" font-size="10.00">stxxl::cmdline_parser</text>
<text text-anchor="middle" x="201" y="-7.5" font-family="Helvetica,sans-Serif" font-size="10.00">::argument_uint</text>
</a>
</g>
</g>
<!-- Node1&#45;&gt;Node9 -->
<g id="edge8" class="edge"><title>Node1&#45;&gt;Node9</title>
<path fill="none" stroke="midnightblue" d="M65.8242,-161.828C79.5518,-130.079 107.22,-74.9255 146,-40.5 150.249,-36.7279 155.165,-33.4227 160.265,-30.5578"/>
<polygon fill="midnightblue" stroke="midnightblue" points="62.5091,-160.682 61.8606,-171.257 68.9622,-163.395 62.5091,-160.682"/>
</g>
</g>
</svg>
