<?xml version="1.0" encoding="UTF-8" standalone="no"?>
<!DOCTYPE svg PUBLIC "-//W3C//DTD SVG 1.1//EN"
 "http://www.w3.org/Graphics/SVG/1.1/DTD/svg11.dtd">
<!-- Generated by graphviz version 2.26.3 (20100126.1600)
 -->
<!-- Title: stxxl::two2one_dim_array_adapter_base&lt; one_dim_array_type, data_type, pos_type &gt; Pages: 1 -->
<svg width="602pt" height="122pt"
 viewBox="0.00 0.00 602.00 122.00" xmlns="http://www.w3.org/2000/svg" xmlns:xlink="http://www.w3.org/1999/xlink">
<g id="graph1" class="graph" transform="scale(1 1) rotate(0) translate(4 118)">
<title>stxxl::two2one_dim_array_adapter_base&lt; one_dim_array_type, data_type, pos_type &gt;</title>
<!-- Node1 -->
<g id="node1" class="node"><title>Node1</title>
<polygon fill="#bfbfbf" stroke="black" points="0.5,-27 0.5,-87 117.5,-87 117.5,-27 0.5,-27"/>
<text text-anchor="start" x="8.5" y="-74" font-family="Helvetica,sans-Serif" font-size="10.00">stxxl::two2one_dim</text>
<text text-anchor="start" x="8.5" y="-61" font-family="Helvetica,sans-Serif" font-size="10.00">_array_adapter_base</text>
<text text-anchor="start" x="8.5" y="-48" font-family="Helvetica,sans-Serif" font-size="10.00">&lt; one_dim_array_type,</text>
<text text-anchor="middle" x="59" y="-35" font-family="Helvetica,sans-Serif" font-size="10.00"> data_type, pos_type &gt;</text>
</g>
<!-- Node2 -->
<g id="node3" class="node"><title>Node2</title>
<a xlink:href="structstxxl_1_1two2one__dim__array__adapter__base.html" target="_top" xlink:title="stxxl::two2one_dim\l_array_adapter_base\l\&lt; RunType *, BID\&lt; BlockSize\l \&gt;, PosType \&gt;">
<polygon fill="none" stroke="black" points="290.5,-27 290.5,-87 439.5,-87 439.5,-27 290.5,-27"/>
<text text-anchor="start" x="298.5" y="-74" font-family="Helvetica,sans-Serif" font-size="10.00">stxxl::two2one_dim</text>
<text text-anchor="start" x="298.5" y="-61" font-family="Helvetica,sans-Serif" font-size="10.00">_array_adapter_base</text>
<text text-anchor="start" x="298.5" y="-48" font-family="Helvetica,sans-Serif" font-size="10.00">&lt; RunType *, BID&lt; BlockSize</text>
<text text-anchor="middle" x="365" y="-35" font-family="Helvetica,sans-Serif" font-size="10.00"> &gt;, PosType &gt;</text>
</a>
</g>
<!-- Node1&#45;&gt;Node2 -->
<g id="edge2" class="edge"><title>Node1&#45;&gt;Node2</title>
<path fill="none" stroke="orange" stroke-dasharray="5,2" d="M127.692,-57C176.023,-57 240.672,-57 290.287,-57"/>
<polygon fill="orange" stroke="orange" points="127.638,-53.5001 117.638,-57 127.638,-60.5001 127.638,-53.5001"/>
<text text-anchor="start" x="136" y="-74" font-family="Helvetica,sans-Serif" font-size="10.00"> &lt; RunType *, BID&lt; BlockSize</text>
<text text-anchor="middle" x="204" y="-61" font-family="Helvetica,sans-Serif" font-size="10.00"> &gt;, PosType &gt;</text>
</g>
<!-- Node3 -->
<g id="node5" class="node"><title>Node3</title>
<a xlink:href="structstxxl_1_1runs2bid__array__adaptor.html" target="_top" xlink:title="stxxl::runs2bid_array\l_adaptor\&lt; BlockSize,\l RunType, PosType \&gt;">
<polygon fill="none" stroke="black" points="479.5,-66.5 479.5,-113.5 592.5,-113.5 592.5,-66.5 479.5,-66.5"/>
<text text-anchor="start" x="487.5" y="-100.5" font-family="Helvetica,sans-Serif" font-size="10.00">stxxl::runs2bid_array</text>
<text text-anchor="start" x="487.5" y="-87.5" font-family="Helvetica,sans-Serif" font-size="10.00">_adaptor&lt; BlockSize,</text>
<text text-anchor="middle" x="536" y="-74.5" font-family="Helvetica,sans-Serif" font-size="10.00"> RunType, PosType &gt;</text>
</a>
</g>
<!-- Node2&#45;&gt;Node3 -->
<g id="edge4" class="edge"><title>Node2&#45;&gt;Node3</title>
<path fill="none" stroke="midnightblue" d="M449.611,-73.3285C459.743,-75.2838 469.892,-77.2423 479.488,-79.0942"/>
<polygon fill="midnightblue" stroke="midnightblue" points="449.988,-69.8366 439.506,-71.3783 448.661,-76.7098 449.988,-69.8366"/>
</g>
<!-- Node4 -->
<g id="node7" class="node"><title>Node4</title>
<a xlink:href="structstxxl_1_1runs2bid__array__adaptor2.html" target="_top" xlink:title="stxxl::runs2bid_array\l_adaptor2\&lt; BlockSize,\l RunType, PosType \&gt;">
<polygon fill="none" stroke="black" points="478,-0.5 478,-47.5 594,-47.5 594,-0.5 478,-0.5"/>
<text text-anchor="start" x="486" y="-34.5" font-family="Helvetica,sans-Serif" font-size="10.00">stxxl::runs2bid_array</text>
<text text-anchor="start" x="486" y="-21.5" font-family="Helvetica,sans-Serif" font-size="10.00">_adaptor2&lt; BlockSize,</text>
<text text-anchor="middle" x="536" y="-8.5" font-family="Helvetica,sans-Serif" font-size="10.00"> RunType, PosType &gt;</text>
</a>
</g>
<!-- Node2&#45;&gt;Node4 -->
<g id="edge6" class="edge"><title>Node2&#45;&gt;Node4</title>
<path fill="none" stroke="midnightblue" d="M449.507,-40.6916C459.13,-38.8346 468.769,-36.9744 477.938,-35.205"/>
<polygon fill="midnightblue" stroke="midnightblue" points="448.661,-37.2902 439.506,-42.6217 449.988,-44.1634 448.661,-37.2902"/>
</g>
</g>
</svg>
