<?xml version="1.0" encoding="UTF-8" standalone="no"?>
<!DOCTYPE svg PUBLIC "-//W3C//DTD SVG 1.1//EN"
 "http://www.w3.org/Graphics/SVG/1.1/DTD/svg11.dtd">
<!-- Generated by graphviz version 2.26.3 (20100126.1600)
 -->
<!-- Title: stxxl::btree::normal_node&lt; KeyType, KeyCmp, RawSize, BTreeType &gt;::metainfo_type Pages: 1 -->
<svg width="333pt" height="544pt"
 viewBox="0.00 0.00 333.00 544.00" xmlns="http://www.w3.org/2000/svg" xmlns:xlink="http://www.w3.org/1999/xlink">
<g id="graph1" class="graph" transform="scale(1 1) rotate(0) translate(4 540)">
<title>stxxl::btree::normal_node&lt; KeyType, KeyCmp, RawSize, BTreeType &gt;::metainfo_type</title>
<!-- Node1 -->
<g id="node1" class="node"><title>Node1</title>
<polygon fill="#bfbfbf" stroke="black" points="5,-1 5,-61 143,-61 143,-1 5,-1"/>
<text text-anchor="start" x="13" y="-48" font-family="Helvetica,sans-Serif" font-size="10.00">stxxl::btree::normal</text>
<text text-anchor="start" x="13" y="-35" font-family="Helvetica,sans-Serif" font-size="10.00">_node&lt; KeyType, KeyCmp,</text>
<text text-anchor="start" x="13" y="-22" font-family="Helvetica,sans-Serif" font-size="10.00"> RawSize, BTreeType &gt;::</text>
<text text-anchor="middle" x="74" y="-9" font-family="Helvetica,sans-Serif" font-size="10.00">metainfo_type</text>
</g>
<!-- Node2 -->
<g id="node2" class="node"><title>Node2</title>
<a xlink:href="structstxxl_1_1BID.html" target="_top" xlink:title="stxxl::BID\&lt; raw_size \&gt;">
<polygon fill="none" stroke="black" points="15,-112.5 15,-133.5 133,-133.5 133,-112.5 15,-112.5"/>
<text text-anchor="middle" x="74" y="-120.5" font-family="Helvetica,sans-Serif" font-size="10.00">stxxl::BID&lt; raw_size &gt;</text>
</a>
</g>
<!-- Node2&#45;&gt;Node1 -->
<g id="edge2" class="edge"><title>Node2&#45;&gt;Node1</title>
<path fill="none" stroke="#9a32cd" stroke-dasharray="5,2" d="M74,-102.394C74,-90.2154 74,-74.5784 74,-61.0447"/>
<polygon fill="#9a32cd" stroke="#9a32cd" points="70.5001,-102.446 74,-112.446 77.5001,-102.446 70.5001,-102.446"/>
<text text-anchor="middle" x="82.5" y="-84.5" font-family="Helvetica,sans-Serif" font-size="10.00"> me</text>
</g>
<!-- Node3 -->
<g id="node4" class="node"><title>Node3</title>
<a xlink:href="classstxxl_1_1file.html" target="_top" xlink:title="Defines interface of file. ">
<polygon fill="none" stroke="black" points="28,-256.5 28,-277.5 84,-277.5 84,-256.5 28,-256.5"/>
<text text-anchor="middle" x="56" y="-264.5" font-family="Helvetica,sans-Serif" font-size="10.00">stxxl::file</text>
</a>
</g>
<!-- Node3&#45;&gt;Node2 -->
<g id="edge4" class="edge"><title>Node3&#45;&gt;Node2</title>
<path fill="none" stroke="#9a32cd" stroke-dasharray="5,2" d="M51.1367,-246.522C47.8691,-229.616 44.8506,-205.066 49,-184 52.6274,-165.584 61.8672,-145.729 68.0398,-133.837"/>
<polygon fill="#9a32cd" stroke="#9a32cd" points="47.7377,-247.365 53.2471,-256.415 54.5836,-245.905 47.7377,-247.365"/>
<text text-anchor="middle" x="67" y="-192.5" font-family="Helvetica,sans-Serif" font-size="10.00"> storage</text>
</g>
<!-- Node9 -->
<g id="node17" class="node"><title>Node9</title>
<a xlink:href="structstxxl_1_1BID.html" target="_top" xlink:title="Block identifier class. ">
<polygon fill="none" stroke="black" points="94,-184.5 94,-205.5 192,-205.5 192,-184.5 94,-184.5"/>
<text text-anchor="middle" x="143" y="-192.5" font-family="Helvetica,sans-Serif" font-size="10.00">stxxl::BID&lt; Size &gt;</text>
</a>
</g>
<!-- Node3&#45;&gt;Node9 -->
<g id="edge20" class="edge"><title>Node3&#45;&gt;Node9</title>
<path fill="none" stroke="#9a32cd" stroke-dasharray="5,2" d="M76.8709,-249.728C93.4407,-236.015 116.081,-217.277 130.11,-205.667"/>
<polygon fill="#9a32cd" stroke="#9a32cd" points="74.3096,-247.304 68.8371,-256.376 78.7726,-252.697 74.3096,-247.304"/>
<text text-anchor="middle" x="126" y="-228.5" font-family="Helvetica,sans-Serif" font-size="10.00"> storage</text>
</g>
<!-- Node4 -->
<g id="node6" class="node"><title>Node4</title>
<a xlink:href="classstxxl_1_1noncopyable.html" target="_top" xlink:title="stxxl::noncopyable">
<polygon fill="none" stroke="black" points="0,-507.5 0,-528.5 98,-528.5 98,-507.5 0,-507.5"/>
<text text-anchor="middle" x="49" y="-515.5" font-family="Helvetica,sans-Serif" font-size="10.00">stxxl::noncopyable</text>
</a>
</g>
<!-- Node4&#45;&gt;Node3 -->
<g id="edge6" class="edge"><title>Node4&#45;&gt;Node3</title>
<path fill="none" stroke="#8b1a1a" d="M47.3318,-496.856C44.8594,-461.728 41.0208,-389.152 46,-328 47.4457,-310.244 51.2212,-289.867 53.6972,-277.733"/>
<polygon fill="#8b1a1a" stroke="#8b1a1a" points="43.8735,-497.549 48.1032,-507.263 50.8543,-497.032 43.8735,-497.549"/>
</g>
<!-- Node6 -->
<g id="node10" class="node"><title>Node6</title>
<a xlink:href="classstxxl_1_1mutex.html" target="_top" xlink:title="stxxl::mutex">
<polygon fill="none" stroke="black" points="54.5,-421.5 54.5,-442.5 125.5,-442.5 125.5,-421.5 54.5,-421.5"/>
<text text-anchor="middle" x="90" y="-429.5" font-family="Helvetica,sans-Serif" font-size="10.00">stxxl::mutex</text>
</a>
</g>
<!-- Node4&#45;&gt;Node6 -->
<g id="edge12" class="edge"><title>Node4&#45;&gt;Node6</title>
<path fill="none" stroke="#8b1a1a" d="M58.4235,-498.234C66.6694,-480.937 78.3324,-456.474 84.9315,-442.632"/>
<polygon fill="#8b1a1a" stroke="#8b1a1a" points="55.1715,-496.922 54.0274,-507.455 61.4902,-499.934 55.1715,-496.922"/>
</g>
<!-- Node5 -->
<g id="node8" class="node"><title>Node5</title>
<a xlink:href="classstxxl_1_1atomic__counted__object.html" target="_top" xlink:title="Provides reference counting abilities for use with counting_ptr with mutex locking. ">
<polygon fill="none" stroke="black" points="54.5,-329 54.5,-363 167.5,-363 167.5,-329 54.5,-329"/>
<text text-anchor="start" x="62.5" y="-350" font-family="Helvetica,sans-Serif" font-size="10.00">stxxl::atomic_counted</text>
<text text-anchor="middle" x="111" y="-337" font-family="Helvetica,sans-Serif" font-size="10.00">_object</text>
</a>
</g>
<!-- Node5&#45;&gt;Node3 -->
<g id="edge8" class="edge"><title>Node5&#45;&gt;Node3</title>
<path fill="none" stroke="#9a32cd" stroke-dasharray="5,2" d="M93.0912,-320.276C82.9932,-305.772 70.9227,-288.434 63.3569,-277.567"/>
<polygon fill="#9a32cd" stroke="#9a32cd" points="90.4797,-322.651 99.0658,-328.858 96.2245,-318.651 90.4797,-322.651"/>
<text text-anchor="middle" x="119" y="-300.5" font-family="Helvetica,sans-Serif" font-size="10.00"> m_request_ref</text>
</g>
<!-- Node6&#45;&gt;Node5 -->
<g id="edge10" class="edge"><title>Node6&#45;&gt;Node5</title>
<path fill="none" stroke="#9a32cd" stroke-dasharray="5,2" d="M88.1907,-411.329C87.9558,-402.195 88.4594,-391.416 91,-382 92.7508,-375.511 95.9124,-368.934 99.2127,-363.208"/>
<polygon fill="#9a32cd" stroke="#9a32cd" points="84.7038,-411.662 88.7563,-421.451 91.6929,-411.271 84.7038,-411.662"/>
<text text-anchor="middle" x="150.5" y="-386.5" font-family="Helvetica,sans-Serif" font-size="10.00"> m_reference_count_mutex</text>
</g>
<!-- Node7 -->
<g id="node13" class="node"><title>Node7</title>
<a xlink:href="structstxxl_1_1choose__int__types.html" target="_top" xlink:title="stxxl::choose_int_types\l\&lt; my_pointer_size \&gt;">
<polygon fill="none" stroke="black" points="172,-415 172,-449 292,-449 292,-415 172,-415"/>
<text text-anchor="start" x="180" y="-436" font-family="Helvetica,sans-Serif" font-size="10.00">stxxl::choose_int_types</text>
<text text-anchor="middle" x="232" y="-423" font-family="Helvetica,sans-Serif" font-size="10.00">&lt; my_pointer_size &gt;</text>
</a>
</g>
<!-- Node7&#45;&gt;Node5 -->
<g id="edge14" class="edge"><title>Node7&#45;&gt;Node5</title>
<path fill="none" stroke="#9a32cd" stroke-dasharray="5,2" d="M224.782,-405.194C221.432,-396.866 216.667,-388.243 210,-382 198.185,-370.937 182.708,-363.221 167.512,-357.86"/>
<polygon fill="#9a32cd" stroke="#9a32cd" points="221.491,-406.388 228.093,-414.675 228.1,-404.08 221.491,-406.388"/>
<text text-anchor="middle" x="262.5" y="-386.5" font-family="Helvetica,sans-Serif" font-size="10.00"> m_reference_count</text>
</g>
<!-- Node8 -->
<g id="node15" class="node"><title>Node8</title>
<a xlink:href="structstxxl_1_1choose__int__types.html" target="_top" xlink:title="stxxl::choose_int_types\l\&lt; PtrSize \&gt;">
<polygon fill="none" stroke="black" points="172,-501 172,-535 292,-535 292,-501 172,-501"/>
<text text-anchor="start" x="180" y="-522" font-family="Helvetica,sans-Serif" font-size="10.00">stxxl::choose_int_types</text>
<text text-anchor="middle" x="232" y="-509" font-family="Helvetica,sans-Serif" font-size="10.00">&lt; PtrSize &gt;</text>
</a>
</g>
<!-- Node8&#45;&gt;Node7 -->
<g id="edge16" class="edge"><title>Node8&#45;&gt;Node7</title>
<path fill="none" stroke="orange" stroke-dasharray="5,2" d="M232,-490.342C232,-476.774 232,-460.861 232,-449.084"/>
<polygon fill="orange" stroke="orange" points="228.5,-490.597 232,-500.597 235.5,-490.597 228.5,-490.597"/>
<text text-anchor="middle" x="278.5" y="-472.5" font-family="Helvetica,sans-Serif" font-size="10.00"> &lt; my_pointer_size &gt;</text>
</g>
<!-- Node9&#45;&gt;Node2 -->
<g id="edge18" class="edge"><title>Node9&#45;&gt;Node2</title>
<path fill="none" stroke="orange" stroke-dasharray="5,2" d="M125.719,-176.968C112.649,-163.329 95.1451,-145.064 84.223,-133.667"/>
<polygon fill="orange" stroke="orange" points="123.373,-179.578 132.819,-184.376 128.427,-174.735 123.373,-179.578"/>
<text text-anchor="middle" x="145.5" y="-156.5" font-family="Helvetica,sans-Serif" font-size="10.00"> &lt; raw_size &gt;</text>
</g>
</g>
</svg>
