<?xml version="1.0" encoding="UTF-8" standalone="no"?>
<!DOCTYPE svg PUBLIC "-//W3C//DTD SVG 1.1//EN"
 "http://www.w3.org/Graphics/SVG/1.1/DTD/svg11.dtd">
<!-- Generated by graphviz version 2.26.3 (20100126.1600)
 -->
<!-- Title: stxxl::two2one_dim_array_adapter_base&lt; OneDimArrayType, DataType, PosType &gt; Pages: 1 -->
<svg width="642pt" height="122pt"
 viewBox="0.00 0.00 642.00 122.00" xmlns="http://www.w3.org/2000/svg" xmlns:xlink="http://www.w3.org/1999/xlink">
<g id="graph1" class="graph" transform="scale(1 1) rotate(0) translate(4 118)">
<title>stxxl::two2one_dim_array_adapter_base&lt; OneDimArrayType, DataType, PosType &gt;</title>
<!-- Node1 -->
<g id="node1" class="node"><title>Node1</title>
<polygon fill="#bfbfbf" stroke="black" points="0,-27 0,-87 158,-87 158,-27 0,-27"/>
<text text-anchor="start" x="8" y="-74" font-family="Helvetica,sans-Serif" font-size="10.00">stxxl::two2one_dim</text>
<text text-anchor="start" x="8" y="-61" font-family="Helvetica,sans-Serif" font-size="10.00">_array_adapter_base</text>
<text text-anchor="start" x="8" y="-48" font-family="Helvetica,sans-Serif" font-size="10.00">&lt; OneDimArrayType, DataType,</text>
<text text-anchor="middle" x="79" y="-35" font-family="Helvetica,sans-Serif" font-size="10.00"> PosType &gt;</text>
</g>
<!-- Node2 -->
<g id="node3" class="node"><title>Node2</title>
<a xlink:href="structstxxl_1_1two2one__dim__array__adapter__base.html" target="_top" xlink:title="stxxl::two2one_dim\l_array_adapter_base\l\&lt; RunType *, BID\&lt; BlockSize\l \&gt;, PosType \&gt;">
<polygon fill="none" stroke="black" points="330.5,-27 330.5,-87 479.5,-87 479.5,-27 330.5,-27"/>
<text text-anchor="start" x="338.5" y="-74" font-family="Helvetica,sans-Serif" font-size="10.00">stxxl::two2one_dim</text>
<text text-anchor="start" x="338.5" y="-61" font-family="Helvetica,sans-Serif" font-size="10.00">_array_adapter_base</text>
<text text-anchor="start" x="338.5" y="-48" font-family="Helvetica,sans-Serif" font-size="10.00">&lt; RunType *, BID&lt; BlockSize</text>
<text text-anchor="middle" x="405" y="-35" font-family="Helvetica,sans-Serif" font-size="10.00"> &gt;, PosType &gt;</text>
</a>
</g>
<!-- Node1&#45;&gt;Node2 -->
<g id="edge2" class="edge"><title>Node1&#45;&gt;Node2</title>
<path fill="none" stroke="orange" stroke-dasharray="5,2" d="M168.333,-57C219.188,-57 282.159,-57 330.358,-57"/>
<polygon fill="orange" stroke="orange" points="168.332,-53.5001 158.332,-57 168.332,-60.5001 168.332,-53.5001"/>
<text text-anchor="start" x="176" y="-74" font-family="Helvetica,sans-Serif" font-size="10.00"> &lt; RunType *, BID&lt; BlockSize</text>
<text text-anchor="middle" x="244" y="-61" font-family="Helvetica,sans-Serif" font-size="10.00"> &gt;, PosType &gt;</text>
</g>
<!-- Node3 -->
<g id="node5" class="node"><title>Node3</title>
<a xlink:href="structstxxl_1_1runs2bid__array__adaptor.html" target="_top" xlink:title="stxxl::runs2bid_array\l_adaptor\&lt; BlockSize,\l RunType, PosType \&gt;">
<polygon fill="none" stroke="black" points="519.5,-66.5 519.5,-113.5 632.5,-113.5 632.5,-66.5 519.5,-66.5"/>
<text text-anchor="start" x="527.5" y="-100.5" font-family="Helvetica,sans-Serif" font-size="10.00">stxxl::runs2bid_array</text>
<text text-anchor="start" x="527.5" y="-87.5" font-family="Helvetica,sans-Serif" font-size="10.00">_adaptor&lt; BlockSize,</text>
<text text-anchor="middle" x="576" y="-74.5" font-family="Helvetica,sans-Serif" font-size="10.00"> RunType, PosType &gt;</text>
</a>
</g>
<!-- Node2&#45;&gt;Node3 -->
<g id="edge4" class="edge"><title>Node2&#45;&gt;Node3</title>
<path fill="none" stroke="midnightblue" d="M489.611,-73.3285C499.743,-75.2838 509.892,-77.2423 519.488,-79.0942"/>
<polygon fill="midnightblue" stroke="midnightblue" points="489.988,-69.8366 479.506,-71.3783 488.661,-76.7098 489.988,-69.8366"/>
</g>
<!-- Node4 -->
<g id="node7" class="node"><title>Node4</title>
<a xlink:href="structstxxl_1_1runs2bid__array__adaptor2.html" target="_top" xlink:title="stxxl::runs2bid_array\l_adaptor2\&lt; BlockSize,\l RunType, PosType \&gt;">
<polygon fill="none" stroke="black" points="518,-0.5 518,-47.5 634,-47.5 634,-0.5 518,-0.5"/>
<text text-anchor="start" x="526" y="-34.5" font-family="Helvetica,sans-Serif" font-size="10.00">stxxl::runs2bid_array</text>
<text text-anchor="start" x="526" y="-21.5" font-family="Helvetica,sans-Serif" font-size="10.00">_adaptor2&lt; BlockSize,</text>
<text text-anchor="middle" x="576" y="-8.5" font-family="Helvetica,sans-Serif" font-size="10.00"> RunType, PosType &gt;</text>
</a>
</g>
<!-- Node2&#45;&gt;Node4 -->
<g id="edge6" class="edge"><title>Node2&#45;&gt;Node4</title>
<path fill="none" stroke="midnightblue" d="M489.507,-40.6916C499.13,-38.8346 508.769,-36.9744 517.938,-35.205"/>
<polygon fill="midnightblue" stroke="midnightblue" points="488.661,-37.2902 479.506,-42.6217 489.988,-44.1634 488.661,-37.2902"/>
</g>
</g>
</svg>
