<?xml version="1.0" encoding="UTF-8" standalone="no"?>
<!DOCTYPE svg PUBLIC "-//W3C//DTD SVG 1.1//EN"
 "http://www.w3.org/Graphics/SVG/1.1/DTD/svg11.dtd">
<!-- Generated by graphviz version 2.38.0 (20140413.2041)
 -->
<!-- Title: stxxl::interleaved_RC Pages: 1 -->
<svg width="161pt" height="274pt"
 viewBox="0.00 0.00 161.00 274.00" xmlns="http://www.w3.org/2000/svg" xmlns:xlink="http://www.w3.org/1999/xlink">
<g id="graph0" class="graph" transform="scale(1 1) rotate(0) translate(4 270)">
<title>stxxl::interleaved_RC</title>
<!-- Node1 -->
<g id="node1" class="node"><title>Node1</title>
<polygon fill="#bfbfbf" stroke="black" points="4.5,-0.5 4.5,-19.5 115.5,-19.5 115.5,-0.5 4.5,-0.5"/>
<text text-anchor="middle" x="60" y="-7.5" font-family="Helvetica,sans-Serif" font-size="10.00">stxxl::interleaved_RC</text>
</g>
<!-- Node2 -->
<g id="node2" class="node"><title>Node2</title>
<g id="a_node2"><a xlink:href="structstxxl_1_1interleaved__striping.html" target="_top" xlink:title="stxxl::interleaved\l_striping">
<polygon fill="none" stroke="black" points="14.5,-57.5 14.5,-87.5 105.5,-87.5 105.5,-57.5 14.5,-57.5"/>
<text text-anchor="start" x="22.5" y="-75.5" font-family="Helvetica,sans-Serif" font-size="10.00">stxxl::interleaved</text>
<text text-anchor="middle" x="60" y="-64.5" font-family="Helvetica,sans-Serif" font-size="10.00">_striping</text>
</a>
</g>
</g>
<!-- Node2&#45;&gt;Node1 -->
<g id="edge1" class="edge"><title>Node2&#45;&gt;Node1</title>
<path fill="none" stroke="midnightblue" d="M60,-47.3524C60,-37.5132 60,-26.7753 60,-19.5399"/>
<polygon fill="midnightblue" stroke="midnightblue" points="56.5001,-47.468 60,-57.468 63.5001,-47.4681 56.5001,-47.468"/>
</g>
<!-- Node3 -->
<g id="node3" class="node"><title>Node3</title>
<g id="a_node3"><a xlink:href="structstxxl_1_1choose__int__types.html" target="_top" xlink:title="stxxl::choose_int_types\l\&lt; my_pointer_size \&gt;">
<polygon fill="none" stroke="black" points="-7.10543e-15,-157.5 -7.10543e-15,-187.5 120,-187.5 120,-157.5 -7.10543e-15,-157.5"/>
<text text-anchor="start" x="8" y="-175.5" font-family="Helvetica,sans-Serif" font-size="10.00">stxxl::choose_int_types</text>
<text text-anchor="middle" x="60" y="-164.5" font-family="Helvetica,sans-Serif" font-size="10.00">&lt; my_pointer_size &gt;</text>
</a>
</g>
</g>
<!-- Node3&#45;&gt;Node2 -->
<g id="edge2" class="edge"><title>Node3&#45;&gt;Node2</title>
<path fill="none" stroke="#9a32cd" stroke-dasharray="5,2" d="M60,-147.278C60,-128.479 60,-103.077 60,-87.515"/>
<polygon fill="#9a32cd" stroke="#9a32cd" points="56.5001,-147.459 60,-157.459 63.5001,-147.459 56.5001,-147.459"/>
<text text-anchor="middle" x="81" y="-131" font-family="Helvetica,sans-Serif" font-size="10.00"> diff</text>
<text text-anchor="middle" x="81" y="-120" font-family="Helvetica,sans-Serif" font-size="10.00">begindisk</text>
<text text-anchor="middle" x="81" y="-109" font-family="Helvetica,sans-Serif" font-size="10.00">nruns</text>
</g>
<!-- Node4 -->
<g id="node4" class="node"><title>Node4</title>
<g id="a_node4"><a xlink:href="structstxxl_1_1choose__int__types.html" target="_top" xlink:title="stxxl::choose_int_types\l\&lt; PtrSize \&gt;">
<polygon fill="none" stroke="black" points="-7.10543e-15,-235.5 -7.10543e-15,-265.5 120,-265.5 120,-235.5 -7.10543e-15,-235.5"/>
<text text-anchor="start" x="8" y="-253.5" font-family="Helvetica,sans-Serif" font-size="10.00">stxxl::choose_int_types</text>
<text text-anchor="middle" x="60" y="-242.5" font-family="Helvetica,sans-Serif" font-size="10.00">&lt; PtrSize &gt;</text>
</a>
</g>
</g>
<!-- Node4&#45;&gt;Node3 -->
<g id="edge3" class="edge"><title>Node4&#45;&gt;Node3</title>
<path fill="none" stroke="orange" stroke-dasharray="5,2" d="M60,-225.09C60,-212.757 60,-198.224 60,-187.731"/>
<polygon fill="orange" stroke="orange" points="56.5001,-225.205 60,-235.205 63.5001,-225.205 56.5001,-225.205"/>
<text text-anchor="middle" x="106.5" y="-209" font-family="Helvetica,sans-Serif" font-size="10.00"> &lt; my_pointer_size &gt;</text>
</g>
</g>
</svg>
