<?xml version="1.0" encoding="UTF-8" standalone="no"?>
<!DOCTYPE svg PUBLIC "-//W3C//DTD SVG 1.1//EN"
 "http://www.w3.org/Graphics/SVG/1.1/DTD/svg11.dtd">
<!-- Generated by graphviz version 2.38.0 (20140413.2041)
 -->
<!-- Title: stxxl::RC Pages: 1 -->
<svg width="194pt" height="140pt"
 viewBox="0.00 0.00 193.50 140.00" xmlns="http://www.w3.org/2000/svg" xmlns:xlink="http://www.w3.org/1999/xlink">
<g id="graph0" class="graph" transform="scale(1 1) rotate(0) translate(4 136)">
<title>stxxl::RC</title>
<!-- Node1 -->
<g id="node1" class="node"><title>Node1</title>
<polygon fill="#bfbfbf" stroke="black" points="62.5,-56.5 62.5,-75.5 121.5,-75.5 121.5,-56.5 62.5,-56.5"/>
<text text-anchor="middle" x="92" y="-63.5" font-family="Helvetica,sans-Serif" font-size="10.00">stxxl::RC</text>
</g>
<!-- Node3 -->
<g id="node3" class="node"><title>Node3</title>
<g id="a_node3"><a xlink:href="structstxxl_1_1RC__disk.html" target="_top" xlink:title="stxxl::RC_disk">
<polygon fill="none" stroke="black" points="0,-0.5 0,-19.5 82,-19.5 82,-0.5 0,-0.5"/>
<text text-anchor="middle" x="41" y="-7.5" font-family="Helvetica,sans-Serif" font-size="10.00">stxxl::RC_disk</text>
</a>
</g>
</g>
<!-- Node1&#45;&gt;Node3 -->
<g id="edge2" class="edge"><title>Node1&#45;&gt;Node3</title>
<path fill="none" stroke="midnightblue" d="M76.6221,-48.7175C67.6331,-39.1997 56.6408,-27.5608 49.2649,-19.7511"/>
<polygon fill="midnightblue" stroke="midnightblue" points="74.1676,-51.216 83.5784,-56.083 79.2567,-46.4096 74.1676,-51.216"/>
</g>
<!-- Node4 -->
<g id="node4" class="node"><title>Node4</title>
<g id="a_node4"><a xlink:href="structstxxl_1_1RC__flash.html" target="_top" xlink:title="stxxl::RC_flash">
<polygon fill="none" stroke="black" points="100.5,-0.5 100.5,-19.5 185.5,-19.5 185.5,-0.5 100.5,-0.5"/>
<text text-anchor="middle" x="143" y="-7.5" font-family="Helvetica,sans-Serif" font-size="10.00">stxxl::RC_flash</text>
</a>
</g>
</g>
<!-- Node1&#45;&gt;Node4 -->
<g id="edge3" class="edge"><title>Node1&#45;&gt;Node4</title>
<path fill="none" stroke="midnightblue" d="M107.378,-48.7175C116.367,-39.1997 127.359,-27.5608 134.735,-19.7511"/>
<polygon fill="midnightblue" stroke="midnightblue" points="104.743,-46.4096 100.422,-56.083 109.832,-51.216 104.743,-46.4096"/>
</g>
<!-- Node2 -->
<g id="node2" class="node"><title>Node2</title>
<g id="a_node2"><a xlink:href="structstxxl_1_1striping.html" target="_top" xlink:title="Striping disk allocation scheme functor. ">
<polygon fill="none" stroke="black" points="54.5,-112.5 54.5,-131.5 129.5,-131.5 129.5,-112.5 54.5,-112.5"/>
<text text-anchor="middle" x="92" y="-119.5" font-family="Helvetica,sans-Serif" font-size="10.00">stxxl::striping</text>
</a>
</g>
</g>
<!-- Node2&#45;&gt;Node1 -->
<g id="edge1" class="edge"><title>Node2&#45;&gt;Node1</title>
<path fill="none" stroke="midnightblue" d="M92,-101.805C92,-92.9102 92,-82.7798 92,-75.7511"/>
<polygon fill="midnightblue" stroke="midnightblue" points="88.5001,-102.083 92,-112.083 95.5001,-102.083 88.5001,-102.083"/>
</g>
</g>
</svg>
