<?xml version="1.0" encoding="UTF-8" standalone="no"?>
<!DOCTYPE svg PUBLIC "-//W3C//DTD SVG 1.1//EN"
 "http://www.w3.org/Graphics/SVG/1.1/DTD/svg11.dtd">
<!-- Generated by graphviz version 2.38.0 (20140413.2041)
 -->
<!-- Title: stxxl::interleaved_FR Pages: 1 -->
<svg width="834pt" height="147pt"
 viewBox="0.00 0.00 834.00 146.50" xmlns="http://www.w3.org/2000/svg" xmlns:xlink="http://www.w3.org/1999/xlink">
<g id="graph0" class="graph" transform="scale(1 1) rotate(0) translate(4 142.5)">
<title>stxxl::interleaved_FR</title>
<!-- Node1 -->
<g id="node1" class="node"><title>Node1</title>
<polygon fill="#bfbfbf" stroke="black" points="716,-74 716,-93 826,-93 826,-74 716,-74"/>
<text text-anchor="middle" x="771" y="-81" font-family="Helvetica,sans-Serif" font-size="10.00">stxxl::interleaved_FR</text>
</g>
<!-- Node2 -->
<g id="node2" class="node"><title>Node2</title>
<g id="a_node2"><a xlink:href="structstxxl_1_1interleaved__striping.html" target="_top" xlink:title="stxxl::interleaved\l_striping">
<polygon fill="none" stroke="black" points="554.5,-90.5 554.5,-120.5 645.5,-120.5 645.5,-90.5 554.5,-90.5"/>
<text text-anchor="start" x="562.5" y="-108.5" font-family="Helvetica,sans-Serif" font-size="10.00">stxxl::interleaved</text>
<text text-anchor="middle" x="600" y="-97.5" font-family="Helvetica,sans-Serif" font-size="10.00">_striping</text>
</a>
</g>
</g>
<!-- Node2&#45;&gt;Node1 -->
<g id="edge1" class="edge"><title>Node2&#45;&gt;Node1</title>
<path fill="none" stroke="midnightblue" d="M655.959,-98.3456C675.187,-95.8426 696.75,-93.0356 715.906,-90.5418"/>
<polygon fill="midnightblue" stroke="midnightblue" points="655.31,-94.9005 645.845,-99.6622 656.213,-101.842 655.31,-94.9005"/>
</g>
<!-- Node3 -->
<g id="node3" class="node"><title>Node3</title>
<g id="a_node3"><a xlink:href="structstxxl_1_1choose__int__types.html" target="_top" xlink:title="stxxl::choose_int_types\l\&lt; my_pointer_size \&gt;">
<polygon fill="none" stroke="black" points="260.5,-90.5 260.5,-120.5 380.5,-120.5 380.5,-90.5 260.5,-90.5"/>
<text text-anchor="start" x="268.5" y="-108.5" font-family="Helvetica,sans-Serif" font-size="10.00">stxxl::choose_int_types</text>
<text text-anchor="middle" x="320.5" y="-97.5" font-family="Helvetica,sans-Serif" font-size="10.00">&lt; my_pointer_size &gt;</text>
</a>
</g>
</g>
<!-- Node3&#45;&gt;Node2 -->
<g id="edge2" class="edge"><title>Node3&#45;&gt;Node2</title>
<path fill="none" stroke="#9a32cd" stroke-dasharray="5,2" d="M390.702,-105.5C441.961,-105.5 510.299,-105.5 554.478,-105.5"/>
<polygon fill="#9a32cd" stroke="#9a32cd" points="390.69,-102 380.69,-105.5 390.69,-109 390.69,-102"/>
<text text-anchor="middle" x="462.5" y="-130.5" font-family="Helvetica,sans-Serif" font-size="10.00"> diff</text>
<text text-anchor="middle" x="462.5" y="-119.5" font-family="Helvetica,sans-Serif" font-size="10.00">begindisk</text>
<text text-anchor="middle" x="462.5" y="-108.5" font-family="Helvetica,sans-Serif" font-size="10.00">nruns</text>
</g>
<!-- Node4 -->
<g id="node4" class="node"><title>Node4</title>
<g id="a_node4"><a xlink:href="structstxxl_1_1choose__int__types.html" target="_top" xlink:title="stxxl::choose_int_types\l\&lt; PtrSize \&gt;">
<polygon fill="none" stroke="black" points="2,-90.5 2,-120.5 122,-120.5 122,-90.5 2,-90.5"/>
<text text-anchor="start" x="10" y="-108.5" font-family="Helvetica,sans-Serif" font-size="10.00">stxxl::choose_int_types</text>
<text text-anchor="middle" x="62" y="-97.5" font-family="Helvetica,sans-Serif" font-size="10.00">&lt; PtrSize &gt;</text>
</a>
</g>
</g>
<!-- Node4&#45;&gt;Node3 -->
<g id="edge3" class="edge"><title>Node4&#45;&gt;Node3</title>
<path fill="none" stroke="orange" stroke-dasharray="5,2" d="M132.37,-105.5C172.337,-105.5 222.047,-105.5 260.186,-105.5"/>
<polygon fill="orange" stroke="orange" points="132.168,-102 122.168,-105.5 132.168,-109 132.168,-102"/>
<text text-anchor="middle" x="188.5" y="-108.5" font-family="Helvetica,sans-Serif" font-size="10.00"> &lt; my_pointer_size &gt;</text>
</g>
<!-- Node5 -->
<g id="node5" class="node"><title>Node5</title>
<g id="a_node5"><a xlink:href="structstxxl_1_1random__number.html" target="_top" xlink:title="stxxl::random_number\l\&lt; random_uniform_fast \&gt;">
<polygon fill="none" stroke="black" points="537,-41.5 537,-71.5 663,-71.5 663,-41.5 537,-41.5"/>
<text text-anchor="start" x="545" y="-59.5" font-family="Helvetica,sans-Serif" font-size="10.00">stxxl::random_number</text>
<text text-anchor="middle" x="600" y="-48.5" font-family="Helvetica,sans-Serif" font-size="10.00">&lt; random_uniform_fast &gt;</text>
</a>
</g>
</g>
<!-- Node5&#45;&gt;Node1 -->
<g id="edge4" class="edge"><title>Node5&#45;&gt;Node1</title>
<path fill="none" stroke="#9a32cd" stroke-dasharray="5,2" d="M673.658,-68.1081C687.82,-70.3707 702.435,-72.7056 715.869,-74.8519"/>
<polygon fill="#9a32cd" stroke="#9a32cd" points="673.876,-64.5986 663.449,-66.4771 672.772,-71.511 673.876,-64.5986"/>
<text text-anchor="middle" x="689.5" y="-75.5" font-family="Helvetica,sans-Serif" font-size="10.00"> rnd</text>
</g>
<!-- Node6 -->
<g id="node6" class="node"><title>Node6</title>
<g id="a_node6"><a xlink:href="structstxxl_1_1random__uniform__fast.html" target="_top" xlink:title="Fast uniform [0.0, 1.0) pseudo&#45;random generator. ">
<polygon fill="none" stroke="black" points="253,-50 253,-69 388,-69 388,-50 253,-50"/>
<text text-anchor="middle" x="320.5" y="-57" font-family="Helvetica,sans-Serif" font-size="10.00">stxxl::random_uniform_fast</text>
</a>
</g>
</g>
<!-- Node6&#45;&gt;Node5 -->
<g id="edge5" class="edge"><title>Node6&#45;&gt;Node5</title>
<path fill="none" stroke="#9a32cd" stroke-dasharray="5,2" d="M398.575,-58.6668C442.071,-58.1965 495.719,-57.6166 536.562,-57.175"/>
<polygon fill="#9a32cd" stroke="#9a32cd" points="398.283,-55.1696 388.321,-58.7776 398.359,-62.1692 398.283,-55.1696"/>
<text text-anchor="middle" x="462.5" y="-62.5" font-family="Helvetica,sans-Serif" font-size="10.00"> uniform</text>
</g>
<!-- Node7 -->
<g id="node7" class="node"><title>Node7</title>
<g id="a_node7"><a xlink:href="structstxxl_1_1random__number32.html" target="_top" xlink:title="Fast uniform [0, 2^32) pseudo&#45;random generator with period 2^32, random bits: 32. ...">
<polygon fill="none" stroke="black" points="0,-50 0,-69 124,-69 124,-50 0,-50"/>
<text text-anchor="middle" x="62" y="-57" font-family="Helvetica,sans-Serif" font-size="10.00">stxxl::random_number32</text>
</a>
</g>
</g>
<!-- Node7&#45;&gt;Node6 -->
<g id="edge6" class="edge"><title>Node7&#45;&gt;Node6</title>
<path fill="none" stroke="#9a32cd" stroke-dasharray="5,2" d="M134.321,-59.5C171.308,-59.5 216.221,-59.5 252.552,-59.5"/>
<polygon fill="#9a32cd" stroke="#9a32cd" points="134.112,-56.0001 124.112,-59.5 134.112,-63.0001 134.112,-56.0001"/>
<text text-anchor="middle" x="188.5" y="-62.5" font-family="Helvetica,sans-Serif" font-size="10.00"> rnd32</text>
</g>
<!-- Node8 -->
<g id="node8" class="node"><title>Node8</title>
<g id="a_node8"><a xlink:href="structstxxl_1_1random__number.html" target="_top" xlink:title="Uniform [0, N) pseudo&#45;random generator. ">
<polygon fill="none" stroke="black" points="264,-0.5 264,-30.5 377,-30.5 377,-0.5 264,-0.5"/>
<text text-anchor="start" x="272" y="-18.5" font-family="Helvetica,sans-Serif" font-size="10.00">stxxl::random_number</text>
<text text-anchor="middle" x="320.5" y="-7.5" font-family="Helvetica,sans-Serif" font-size="10.00">&lt; UniformRGen &gt;</text>
</a>
</g>
</g>
<!-- Node8&#45;&gt;Node5 -->
<g id="edge7" class="edge"><title>Node8&#45;&gt;Node5</title>
<path fill="none" stroke="orange" stroke-dasharray="5,2" d="M387.372,-23.8789C425.812,-28.9249 475.212,-35.6778 519,-42.5 524.712,-43.3899 530.647,-44.3539 536.586,-45.3454"/>
<polygon fill="orange" stroke="orange" points="387.711,-20.3935 377.341,-22.5683 386.804,-27.3345 387.711,-20.3935"/>
<text text-anchor="middle" x="462.5" y="-45.5" font-family="Helvetica,sans-Serif" font-size="10.00"> &lt; random_uniform_fast &gt;</text>
</g>
</g>
</svg>
