<?xml version="1.0" encoding="UTF-8" standalone="no"?>
<!DOCTYPE svg PUBLIC "-//W3C//DTD SVG 1.1//EN"
 "http://www.w3.org/Graphics/SVG/1.1/DTD/svg11.dtd">
<!-- Generated by graphviz version 2.26.3 (20100126.1600)
 -->
<!-- Title: stxxl::BID&lt; Size &gt; Pages: 1 -->
<svg width="268pt" height="102pt"
 viewBox="0.00 0.00 268.00 102.00" xmlns="http://www.w3.org/2000/svg" xmlns:xlink="http://www.w3.org/1999/xlink">
<g id="graph1" class="graph" transform="scale(1 1) rotate(0) translate(4 98)">
<title>stxxl::BID&lt; Size &gt;</title>
<!-- Node1 -->
<g id="node1" class="node"><title>Node1</title>
<polygon fill="#bfbfbf" stroke="black" points="82,-72.5 82,-93.5 180,-93.5 180,-72.5 82,-72.5"/>
<text text-anchor="middle" x="131" y="-80.5" font-family="Helvetica,sans-Serif" font-size="10.00">stxxl::BID&lt; Size &gt;</text>
</g>
<!-- Node2 -->
<g id="node3" class="node"><title>Node2</title>
<a xlink:href="structstxxl_1_1BID.html" target="_top" xlink:title="stxxl::BID\&lt; block_size \&gt;">
<polygon fill="none" stroke="black" points="-0.5,-0.5 -0.5,-21.5 124.5,-21.5 124.5,-0.5 -0.5,-0.5"/>
<text text-anchor="middle" x="62" y="-8.5" font-family="Helvetica,sans-Serif" font-size="10.00">stxxl::BID&lt; block_size &gt;</text>
</a>
</g>
<!-- Node1&#45;&gt;Node2 -->
<g id="edge2" class="edge"><title>Node1&#45;&gt;Node2</title>
<path fill="none" stroke="orange" stroke-dasharray="5,2" d="M113.719,-64.9677C100.649,-51.3294 83.1451,-33.0644 72.223,-21.6674"/>
<polygon fill="orange" stroke="orange" points="111.373,-67.5779 120.819,-72.3762 116.427,-62.7346 111.373,-67.5779"/>
<text text-anchor="middle" x="137" y="-44.5" font-family="Helvetica,sans-Serif" font-size="10.00"> &lt; block_size &gt;</text>
</g>
<!-- Node3 -->
<g id="node5" class="node"><title>Node3</title>
<a xlink:href="structstxxl_1_1BID.html" target="_top" xlink:title="stxxl::BID\&lt; raw_size \&gt;">
<polygon fill="none" stroke="black" points="142,-0.5 142,-21.5 260,-21.5 260,-0.5 142,-0.5"/>
<text text-anchor="middle" x="201" y="-8.5" font-family="Helvetica,sans-Serif" font-size="10.00">stxxl::BID&lt; raw_size &gt;</text>
</a>
</g>
<!-- Node1&#45;&gt;Node3 -->
<g id="edge4" class="edge"><title>Node1&#45;&gt;Node3</title>
<path fill="none" stroke="orange" stroke-dasharray="5,2" d="M159.698,-66.7693C165.126,-62.9819 170.505,-58.6734 175,-54 184.192,-44.443 191.635,-31.0757 196.165,-21.7921"/>
<polygon fill="orange" stroke="orange" points="157.719,-63.8815 151.246,-72.2697 161.537,-69.7484 157.719,-63.8815"/>
<text text-anchor="middle" x="215.5" y="-44.5" font-family="Helvetica,sans-Serif" font-size="10.00"> &lt; raw_size &gt;</text>
</g>
</g>
</svg>
