<?xml version="1.0" encoding="UTF-8" standalone="no"?>
<!DOCTYPE svg PUBLIC "-//W3C//DTD SVG 1.1//EN"
 "http://www.w3.org/Graphics/SVG/1.1/DTD/svg11.dtd">
<!-- Generated by graphviz version 2.38.0 (20140413.2041)
 -->
<!-- Title: stxxl::hash_map::hash_map&lt; KeyType, MappedType, HashType, KeyCompareType, SubBlockSize, SubBlocksPerBlock, AllocatorType &gt;::equal_to Pages: 1 -->
<svg width="569pt" height="72pt"
 viewBox="0.00 0.00 569.00 72.00" xmlns="http://www.w3.org/2000/svg" xmlns:xlink="http://www.w3.org/1999/xlink">
<g id="graph0" class="graph" transform="scale(1 1) rotate(0) translate(4 68)">
<title>stxxl::hash_map::hash_map&lt; KeyType, MappedType, HashType, KeyCompareType, SubBlockSize, SubBlocksPerBlock, AllocatorType &gt;::equal_to</title>
<!-- Node1 -->
<g id="node1" class="node"><title>Node1</title>
<polygon fill="#bfbfbf" stroke="black" points="384,-0.5 384,-63.5 561,-63.5 561,-0.5 384,-0.5"/>
<text text-anchor="start" x="392" y="-51.5" font-family="Helvetica,sans-Serif" font-size="10.00">stxxl::hash_map::hash</text>
<text text-anchor="start" x="392" y="-40.5" font-family="Helvetica,sans-Serif" font-size="10.00">_map&lt; KeyType, MappedType,</text>
<text text-anchor="start" x="392" y="-29.5" font-family="Helvetica,sans-Serif" font-size="10.00"> HashType, KeyCompareType,</text>
<text text-anchor="start" x="392" y="-18.5" font-family="Helvetica,sans-Serif" font-size="10.00"> SubBlockSize, SubBlocksPerBlock,</text>
<text text-anchor="middle" x="472.5" y="-7.5" font-family="Helvetica,sans-Serif" font-size="10.00"> AllocatorType &gt;::equal_to</text>
</g>
<!-- Node2 -->
<g id="node2" class="node"><title>Node2</title>
<g id="a_node2"><a xlink:href="classstxxl_1_1hash__map_1_1hash__map.html" target="_top" xlink:title="Main implementation of external memory hash map. ">
<polygon fill="none" stroke="black" points="135,-0.5 135,-63.5 312,-63.5 312,-0.5 135,-0.5"/>
<text text-anchor="start" x="143" y="-51.5" font-family="Helvetica,sans-Serif" font-size="10.00">stxxl::hash_map::hash</text>
<text text-anchor="start" x="143" y="-40.5" font-family="Helvetica,sans-Serif" font-size="10.00">_map&lt; KeyType, MappedType,</text>
<text text-anchor="start" x="143" y="-29.5" font-family="Helvetica,sans-Serif" font-size="10.00"> HashType, KeyCompareType,</text>
<text text-anchor="start" x="143" y="-18.5" font-family="Helvetica,sans-Serif" font-size="10.00"> SubBlockSize, SubBlocksPerBlock,</text>
<text text-anchor="middle" x="223.5" y="-7.5" font-family="Helvetica,sans-Serif" font-size="10.00"> AllocatorType &gt;</text>
</a>
</g>
</g>
<!-- Node2&#45;&gt;Node1 -->
<g id="edge1" class="edge"><title>Node2&#45;&gt;Node1</title>
<path fill="none" stroke="#9a32cd" stroke-dasharray="5,2" d="M322.423,-32C342.62,-32 363.773,-32 383.588,-32"/>
<polygon fill="#9a32cd" stroke="#9a32cd" points="322.278,-28.5001 312.278,-32 322.278,-35.5001 322.278,-28.5001"/>
<text text-anchor="middle" x="348" y="-35" font-family="Helvetica,sans-Serif" font-size="10.00"> m_map</text>
</g>
<!-- Node3 -->
<g id="node3" class="node"><title>Node3</title>
<g id="a_node3"><a xlink:href="classstxxl_1_1noncopyable.html" target="_top" xlink:title="stxxl::noncopyable">
<polygon fill="none" stroke="black" points="-5.68434e-14,-22.5 -5.68434e-14,-41.5 98,-41.5 98,-22.5 -5.68434e-14,-22.5"/>
<text text-anchor="middle" x="49" y="-29.5" font-family="Helvetica,sans-Serif" font-size="10.00">stxxl::noncopyable</text>
</a>
</g>
</g>
<!-- Node3&#45;&gt;Node2 -->
<g id="edge2" class="edge"><title>Node3&#45;&gt;Node2</title>
<path fill="none" stroke="#8b1a1a" d="M108.249,-32C116.799,-32 125.761,-32 134.744,-32"/>
<polygon fill="#8b1a1a" stroke="#8b1a1a" points="108.051,-28.5001 98.0509,-32 108.051,-35.5001 108.051,-28.5001"/>
</g>
</g>
</svg>
