<?xml version="1.0" encoding="UTF-8" standalone="no"?>
<!DOCTYPE svg PUBLIC "-//W3C//DTD SVG 1.1//EN"
 "http://www.w3.org/Graphics/SVG/1.1/DTD/svg11.dtd">
<!-- Generated by graphviz version 2.26.3 (20100126.1600)
 -->
<!-- Title: stxxl::interleaved_FR Pages: 1 -->
<svg width="838pt" height="159pt"
 viewBox="0.00 0.00 838.00 159.00" xmlns="http://www.w3.org/2000/svg" xmlns:xlink="http://www.w3.org/1999/xlink">
<g id="graph1" class="graph" transform="scale(1 1) rotate(0) translate(4 155)">
<title>stxxl::interleaved_FR</title>
<!-- Node1 -->
<g id="node1" class="node"><title>Node1</title>
<polygon fill="#bfbfbf" stroke="black" points="720,-78.5 720,-99.5 830,-99.5 830,-78.5 720,-78.5"/>
<text text-anchor="middle" x="775" y="-86.5" font-family="Helvetica,sans-Serif" font-size="10.00">stxxl::interleaved_FR</text>
</g>
<!-- Node2 -->
<g id="node2" class="node"><title>Node2</title>
<a xlink:href="structstxxl_1_1interleaved__striping.html" target="_top" xlink:title="stxxl::interleaved\l_striping">
<polygon fill="none" stroke="black" points="557.5,-95 557.5,-129 648.5,-129 648.5,-95 557.5,-95"/>
<text text-anchor="start" x="565.5" y="-116" font-family="Helvetica,sans-Serif" font-size="10.00">stxxl::interleaved</text>
<text text-anchor="middle" x="603" y="-103" font-family="Helvetica,sans-Serif" font-size="10.00">_striping</text>
</a>
</g>
<!-- Node2&#45;&gt;Node1 -->
<g id="edge2" class="edge"><title>Node2&#45;&gt;Node1</title>
<path fill="none" stroke="midnightblue" d="M658.664,-104.557C678.301,-101.931 700.359,-98.981 719.946,-96.3619"/>
<polygon fill="midnightblue" stroke="midnightblue" points="658.089,-101.102 648.641,-105.897 659.017,-108.04 658.089,-101.102"/>
</g>
<!-- Node3 -->
<g id="node4" class="node"><title>Node3</title>
<a xlink:href="structstxxl_1_1choose__int__types.html" target="_top" xlink:title="stxxl::choose_int_types\l\&lt; my_pointer_size \&gt;">
<polygon fill="none" stroke="black" points="262,-95 262,-129 382,-129 382,-95 262,-95"/>
<text text-anchor="start" x="270" y="-116" font-family="Helvetica,sans-Serif" font-size="10.00">stxxl::choose_int_types</text>
<text text-anchor="middle" x="322" y="-103" font-family="Helvetica,sans-Serif" font-size="10.00">&lt; my_pointer_size &gt;</text>
</a>
</g>
<!-- Node3&#45;&gt;Node2 -->
<g id="edge4" class="edge"><title>Node3&#45;&gt;Node2</title>
<path fill="none" stroke="#9a32cd" stroke-dasharray="5,2" d="M392.359,-112C443.937,-112 512.478,-112 557.152,-112"/>
<polygon fill="#9a32cd" stroke="#9a32cd" points="392.282,-108.5 382.282,-112 392.282,-115.5 392.282,-108.5"/>
<text text-anchor="middle" x="465" y="-142" font-family="Helvetica,sans-Serif" font-size="10.00"> diff</text>
<text text-anchor="middle" x="465" y="-129" font-family="Helvetica,sans-Serif" font-size="10.00">begindisk</text>
<text text-anchor="middle" x="465" y="-116" font-family="Helvetica,sans-Serif" font-size="10.00">nruns</text>
</g>
<!-- Node4 -->
<g id="node6" class="node"><title>Node4</title>
<a xlink:href="structstxxl_1_1choose__int__types.html" target="_top" xlink:title="stxxl::choose_int_types\l\&lt; PtrSize \&gt;">
<polygon fill="none" stroke="black" points="2,-95 2,-129 122,-129 122,-95 2,-95"/>
<text text-anchor="start" x="10" y="-116" font-family="Helvetica,sans-Serif" font-size="10.00">stxxl::choose_int_types</text>
<text text-anchor="middle" x="62" y="-103" font-family="Helvetica,sans-Serif" font-size="10.00">&lt; PtrSize &gt;</text>
</a>
</g>
<!-- Node4&#45;&gt;Node3 -->
<g id="edge6" class="edge"><title>Node4&#45;&gt;Node3</title>
<path fill="none" stroke="orange" stroke-dasharray="5,2" d="M132.35,-112C172.751,-112 222.966,-112 261.574,-112"/>
<polygon fill="orange" stroke="orange" points="132.303,-108.5 122.303,-112 132.303,-115.5 132.303,-108.5"/>
<text text-anchor="middle" x="189" y="-116" font-family="Helvetica,sans-Serif" font-size="10.00"> &lt; my_pointer_size &gt;</text>
</g>
<!-- Node5 -->
<g id="node8" class="node"><title>Node5</title>
<a xlink:href="structstxxl_1_1random__number.html" target="_top" xlink:title="stxxl::random_number\l\&lt; random_uniform_fast \&gt;">
<polygon fill="none" stroke="black" points="540,-43 540,-77 666,-77 666,-43 540,-43"/>
<text text-anchor="start" x="548" y="-64" font-family="Helvetica,sans-Serif" font-size="10.00">stxxl::random_number</text>
<text text-anchor="middle" x="603" y="-51" font-family="Helvetica,sans-Serif" font-size="10.00">&lt; random_uniform_fast &gt;</text>
</a>
</g>
<!-- Node5&#45;&gt;Node1 -->
<g id="edge8" class="edge"><title>Node5&#45;&gt;Node1</title>
<path fill="none" stroke="#9a32cd" stroke-dasharray="5,2" d="M676.118,-72.328C690.781,-74.8003 705.955,-77.3587 719.883,-79.7071"/>
<polygon fill="#9a32cd" stroke="#9a32cd" points="676.513,-68.8452 666.07,-70.6339 675.349,-75.7478 676.513,-68.8452"/>
<text text-anchor="middle" x="693" y="-80" font-family="Helvetica,sans-Serif" font-size="10.00"> rnd</text>
</g>
<!-- Node6 -->
<g id="node10" class="node"><title>Node6</title>
<a xlink:href="structstxxl_1_1random__uniform__fast.html" target="_top" xlink:title="Fast uniform [0.0, 1.0) pseudo&#45;random generator. ">
<polygon fill="none" stroke="black" points="254.5,-52.5 254.5,-73.5 389.5,-73.5 389.5,-52.5 254.5,-52.5"/>
<text text-anchor="middle" x="322" y="-60.5" font-family="Helvetica,sans-Serif" font-size="10.00">stxxl::random_uniform_fast</text>
</a>
</g>
<!-- Node6&#45;&gt;Node5 -->
<g id="edge10" class="edge"><title>Node6&#45;&gt;Node5</title>
<path fill="none" stroke="#9a32cd" stroke-dasharray="5,2" d="M399.768,-62.1697C443.862,-61.699 498.329,-61.1175 539.775,-60.675"/>
<polygon fill="#9a32cd" stroke="#9a32cd" points="399.626,-58.671 389.664,-62.2776 399.701,-65.6706 399.626,-58.671"/>
<text text-anchor="middle" x="465" y="-67" font-family="Helvetica,sans-Serif" font-size="10.00"> uniform</text>
</g>
<!-- Node7 -->
<g id="node12" class="node"><title>Node7</title>
<a xlink:href="structstxxl_1_1random__number32.html" target="_top" xlink:title="Fast uniform [0, 2^32) pseudo&#45;random generator with period 2^32, random bits: 32. ...">
<polygon fill="none" stroke="black" points="0,-52.5 0,-73.5 124,-73.5 124,-52.5 0,-52.5"/>
<text text-anchor="middle" x="62" y="-60.5" font-family="Helvetica,sans-Serif" font-size="10.00">stxxl::random_number32</text>
</a>
</g>
<!-- Node7&#45;&gt;Node6 -->
<g id="edge12" class="edge"><title>Node7&#45;&gt;Node6</title>
<path fill="none" stroke="#9a32cd" stroke-dasharray="5,2" d="M134.624,-63C172.11,-63 217.557,-63 254.305,-63"/>
<polygon fill="#9a32cd" stroke="#9a32cd" points="134.277,-59.5001 124.276,-63 134.276,-66.5001 134.277,-59.5001"/>
<text text-anchor="middle" x="189" y="-67" font-family="Helvetica,sans-Serif" font-size="10.00"> rnd32</text>
</g>
<!-- Node8 -->
<g id="node14" class="node"><title>Node8</title>
<a xlink:href="structstxxl_1_1random__number.html" target="_top" xlink:title="Uniform [0, N) pseudo&#45;random generator. ">
<polygon fill="none" stroke="black" points="265.5,-0 265.5,-34 378.5,-34 378.5,-0 265.5,-0"/>
<text text-anchor="start" x="273.5" y="-21" font-family="Helvetica,sans-Serif" font-size="10.00">stxxl::random_number</text>
<text text-anchor="middle" x="322" y="-8" font-family="Helvetica,sans-Serif" font-size="10.00">&lt; UniformRGen &gt;</text>
</a>
</g>
<!-- Node8&#45;&gt;Node5 -->
<g id="edge14" class="edge"><title>Node8&#45;&gt;Node5</title>
<path fill="none" stroke="orange" stroke-dasharray="5,2" d="M388.767,-24.9819C427.714,-29.8952 477.739,-36.6479 522,-44 527.798,-44.963 533.816,-46.028 539.835,-47.1375"/>
<polygon fill="orange" stroke="orange" points="388.961,-21.4789 378.604,-23.7096 388.091,-28.4247 388.961,-21.4789"/>
<text text-anchor="middle" x="465" y="-48" font-family="Helvetica,sans-Serif" font-size="10.00"> &lt; random_uniform_fast &gt;</text>
</g>
</g>
</svg>
