<?xml version="1.0" encoding="UTF-8" standalone="no"?>
<!DOCTYPE svg PUBLIC "-//W3C//DTD SVG 1.1//EN"
 "http://www.w3.org/Graphics/SVG/1.1/DTD/svg11.dtd">
<!-- Generated by graphviz version 2.38.0 (20140413.2041)
 -->
<!-- Title: stxxl::compat_hash_map&lt; KeyType, MappedType, HashType &gt; Pages: 1 -->
<svg width="435pt" height="110pt"
 viewBox="0.00 0.00 435.00 110.00" xmlns="http://www.w3.org/2000/svg" xmlns:xlink="http://www.w3.org/1999/xlink">
<g id="graph0" class="graph" transform="scale(1 1) rotate(0) translate(4 106)">
<title>stxxl::compat_hash_map&lt; KeyType, MappedType, HashType &gt;</title>
<!-- Node1 -->
<g id="node1" class="node"><title>Node1</title>
<polygon fill="#bfbfbf" stroke="black" points="0,-30.5 0,-71.5 154,-71.5 154,-30.5 0,-30.5"/>
<text text-anchor="start" x="8" y="-59.5" font-family="Helvetica,sans-Serif" font-size="10.00">stxxl::compat_hash</text>
<text text-anchor="start" x="8" y="-48.5" font-family="Helvetica,sans-Serif" font-size="10.00">_map&lt; KeyType, MappedType,</text>
<text text-anchor="middle" x="77" y="-37.5" font-family="Helvetica,sans-Serif" font-size="10.00"> HashType &gt;</text>
</g>
<!-- Node2 -->
<g id="node2" class="node"><title>Node2</title>
<g id="a_node2"><a xlink:href="structstxxl_1_1compat__hash__map.html" target="_top" xlink:title="stxxl::compat_hash\l_map\&lt; bid_type, unsigned\l_type, bid_hash \&gt;">
<polygon fill="none" stroke="black" points="296,-60.5 296,-101.5 427,-101.5 427,-60.5 296,-60.5"/>
<text text-anchor="start" x="304" y="-89.5" font-family="Helvetica,sans-Serif" font-size="10.00">stxxl::compat_hash</text>
<text text-anchor="start" x="304" y="-78.5" font-family="Helvetica,sans-Serif" font-size="10.00">_map&lt; bid_type, unsigned</text>
<text text-anchor="middle" x="361.5" y="-67.5" font-family="Helvetica,sans-Serif" font-size="10.00">_type, bid_hash &gt;</text>
</a>
</g>
</g>
<!-- Node1&#45;&gt;Node2 -->
<g id="edge1" class="edge"><title>Node1&#45;&gt;Node2</title>
<path fill="none" stroke="orange" stroke-dasharray="5,2" d="M164.108,-60.1443C206.491,-64.6451 256.731,-69.9802 295.786,-74.1278"/>
<polygon fill="orange" stroke="orange" points="164.39,-56.6546 154.076,-59.0789 163.651,-63.6154 164.39,-56.6546"/>
<text text-anchor="start" x="178" y="-86" font-family="Helvetica,sans-Serif" font-size="10.00"> &lt; bid_type, unsigned</text>
<text text-anchor="middle" x="225" y="-75" font-family="Helvetica,sans-Serif" font-size="10.00">_type, bid_hash &gt;</text>
</g>
<!-- Node3 -->
<g id="node3" class="node"><title>Node3</title>
<g id="a_node3"><a xlink:href="structstxxl_1_1compat__hash__map.html" target="_top" xlink:title="stxxl::compat_hash\l_map\&lt; bid_type, busy\l_entry, bid_hash \&gt;">
<polygon fill="none" stroke="black" points="305,-0.5 305,-41.5 418,-41.5 418,-0.5 305,-0.5"/>
<text text-anchor="start" x="313" y="-29.5" font-family="Helvetica,sans-Serif" font-size="10.00">stxxl::compat_hash</text>
<text text-anchor="start" x="313" y="-18.5" font-family="Helvetica,sans-Serif" font-size="10.00">_map&lt; bid_type, busy</text>
<text text-anchor="middle" x="361.5" y="-7.5" font-family="Helvetica,sans-Serif" font-size="10.00">_entry, bid_hash &gt;</text>
</a>
</g>
</g>
<!-- Node1&#45;&gt;Node3 -->
<g id="edge2" class="edge"><title>Node1&#45;&gt;Node3</title>
<path fill="none" stroke="orange" stroke-dasharray="5,2" d="M164.258,-36.9643C166.866,-36.6268 169.451,-36.3043 172,-36 216.496,-30.6878 267.133,-26.776 304.711,-24.2814"/>
<polygon fill="orange" stroke="orange" points="163.555,-33.5273 154.113,-38.3332 164.492,-40.4644 163.555,-33.5273"/>
<text text-anchor="start" x="172" y="-50" font-family="Helvetica,sans-Serif" font-size="10.00"> &lt; bid_type, busy_entry,</text>
<text text-anchor="middle" x="225" y="-39" font-family="Helvetica,sans-Serif" font-size="10.00"> bid_hash &gt;</text>
</g>
</g>
</svg>
