<?xml version="1.0" encoding="UTF-8" standalone="no"?>
<!DOCTYPE svg PUBLIC "-//W3C//DTD SVG 1.1//EN"
 "http://www.w3.org/Graphics/SVG/1.1/DTD/svg11.dtd">
<!-- Generated by graphviz version 2.26.3 (20100126.1600)
 -->
<!-- Title: stxxl::BID&lt; Size &gt; Pages: 1 -->
<svg width="408pt" height="102pt"
 viewBox="0.00 0.00 408.00 102.00" xmlns="http://www.w3.org/2000/svg" xmlns:xlink="http://www.w3.org/1999/xlink">
<g id="graph1" class="graph" transform="scale(1 1) rotate(0) translate(4 98)">
<title>stxxl::BID&lt; Size &gt;</title>
<!-- Node1 -->
<g id="node1" class="node"><title>Node1</title>
<polygon fill="#bfbfbf" stroke="black" points="152,-72.5 152,-93.5 250,-93.5 250,-72.5 152,-72.5"/>
<text text-anchor="middle" x="201" y="-80.5" font-family="Helvetica,sans-Serif" font-size="10.00">stxxl::BID&lt; Size &gt;</text>
</g>
<!-- Node2 -->
<g id="node3" class="node"><title>Node2</title>
<a xlink:href="structstxxl_1_1BID.html" target="_top" xlink:title="stxxl::BID\&lt; block_size \&gt;">
<polygon fill="none" stroke="black" points="-0.5,-0.5 -0.5,-21.5 124.5,-21.5 124.5,-0.5 -0.5,-0.5"/>
<text text-anchor="middle" x="62" y="-8.5" font-family="Helvetica,sans-Serif" font-size="10.00">stxxl::BID&lt; block_size &gt;</text>
</a>
</g>
<!-- Node1&#45;&gt;Node2 -->
<g id="edge2" class="edge"><title>Node1&#45;&gt;Node2</title>
<path fill="none" stroke="orange" stroke-dasharray="5,2" d="M161.446,-68.6173C150.734,-64.3067 139.267,-59.3027 129,-54 110.211,-44.296 89.9489,-30.832 76.6857,-21.5686"/>
<polygon fill="orange" stroke="orange" points="160.427,-71.9771 171.014,-72.3696 162.982,-65.4603 160.427,-71.9771"/>
<text text-anchor="middle" x="163" y="-44.5" font-family="Helvetica,sans-Serif" font-size="10.00"> &lt; block_size &gt;</text>
</g>
<!-- Node3 -->
<g id="node5" class="node"><title>Node3</title>
<a xlink:href="structstxxl_1_1BID.html" target="_top" xlink:title="stxxl::BID\&lt; raw_size \&gt;">
<polygon fill="none" stroke="black" points="142,-0.5 142,-21.5 260,-21.5 260,-0.5 142,-0.5"/>
<text text-anchor="middle" x="201" y="-8.5" font-family="Helvetica,sans-Serif" font-size="10.00">stxxl::BID&lt; raw_size &gt;</text>
</a>
</g>
<!-- Node1&#45;&gt;Node3 -->
<g id="edge4" class="edge"><title>Node1&#45;&gt;Node3</title>
<path fill="none" stroke="orange" stroke-dasharray="5,2" d="M201,-62.2348C201,-48.969 201,-32.3188 201,-21.6674"/>
<polygon fill="orange" stroke="orange" points="197.5,-62.3761 201,-72.3762 204.5,-62.3762 197.5,-62.3761"/>
<text text-anchor="middle" x="231.5" y="-44.5" font-family="Helvetica,sans-Serif" font-size="10.00"> &lt; raw_size &gt;</text>
</g>
<!-- Node4 -->
<g id="node7" class="node"><title>Node4</title>
<a xlink:href="structstxxl_1_1BID.html" target="_top" xlink:title="stxxl::BID\&lt; BlockSize \&gt;">
<polygon fill="none" stroke="black" points="277.5,-0.5 277.5,-21.5 400.5,-21.5 400.5,-0.5 277.5,-0.5"/>
<text text-anchor="middle" x="339" y="-8.5" font-family="Helvetica,sans-Serif" font-size="10.00">stxxl::BID&lt; BlockSize &gt;</text>
</a>
</g>
<!-- Node1&#45;&gt;Node4 -->
<g id="edge6" class="edge"><title>Node1&#45;&gt;Node4</title>
<path fill="none" stroke="orange" stroke-dasharray="5,2" d="M235.527,-68.4614C245.472,-64.0417 256.262,-59.0203 266,-54 285.742,-43.8229 307.592,-30.6912 322.195,-21.6312"/>
<polygon fill="orange" stroke="orange" points="234.071,-65.2782 226.314,-72.4946 236.878,-71.6908 234.071,-65.2782"/>
<text text-anchor="middle" x="323" y="-44.5" font-family="Helvetica,sans-Serif" font-size="10.00"> &lt; BlockSize &gt;</text>
</g>
</g>
</svg>
