<?xml version="1.0" encoding="UTF-8" standalone="no"?>
<!DOCTYPE svg PUBLIC "-//W3C//DTD SVG 1.1//EN"
 "http://www.w3.org/Graphics/SVG/1.1/DTD/svg11.dtd">
<!-- Generated by graphviz version 2.26.3 (20100126.1600)
 -->
<!-- Title: stxxl::interleaved_striping Pages: 1 -->
<svg width="248pt" height="150pt"
 viewBox="0.00 0.00 248.00 150.00" xmlns="http://www.w3.org/2000/svg" xmlns:xlink="http://www.w3.org/1999/xlink">
<g id="graph1" class="graph" transform="scale(1 1) rotate(0) translate(4 146)">
<title>stxxl::interleaved_striping</title>
<!-- Node1 -->
<g id="node1" class="node"><title>Node1</title>
<polygon fill="#bfbfbf" stroke="black" points="0.5,-54 0.5,-88 91.5,-88 91.5,-54 0.5,-54"/>
<text text-anchor="start" x="8.5" y="-75" font-family="Helvetica,sans-Serif" font-size="10.00">stxxl::interleaved</text>
<text text-anchor="middle" x="46" y="-62" font-family="Helvetica,sans-Serif" font-size="10.00">_striping</text>
</g>
<!-- Node2 -->
<g id="node3" class="node"><title>Node2</title>
<a xlink:href="structstxxl_1_1first__disk__only.html" target="_top" xlink:title="stxxl::first_disk_only">
<polygon fill="none" stroke="black" points="130.5,-120.5 130.5,-141.5 237.5,-141.5 237.5,-120.5 130.5,-120.5"/>
<text text-anchor="middle" x="184" y="-128.5" font-family="Helvetica,sans-Serif" font-size="10.00">stxxl::first_disk_only</text>
</a>
</g>
<!-- Node1&#45;&gt;Node2 -->
<g id="edge2" class="edge"><title>Node1&#45;&gt;Node2</title>
<path fill="none" stroke="midnightblue" d="M88.0949,-92.642C100.787,-98.8651 114.843,-105.461 128,-111 135.897,-114.324 144.56,-117.596 152.663,-120.498"/>
<polygon fill="midnightblue" stroke="midnightblue" points="89.6412,-89.5022 79.1271,-88.1972 86.5326,-95.7741 89.6412,-89.5022"/>
</g>
<!-- Node3 -->
<g id="node5" class="node"><title>Node3</title>
<a xlink:href="structstxxl_1_1interleaved__FR.html" target="_top" xlink:title="stxxl::interleaved_FR">
<polygon fill="none" stroke="black" points="129,-80.5 129,-101.5 239,-101.5 239,-80.5 129,-80.5"/>
<text text-anchor="middle" x="184" y="-88.5" font-family="Helvetica,sans-Serif" font-size="10.00">stxxl::interleaved_FR</text>
</a>
</g>
<!-- Node1&#45;&gt;Node3 -->
<g id="edge4" class="edge"><title>Node1&#45;&gt;Node3</title>
<path fill="none" stroke="midnightblue" d="M101.561,-79.0524C110.562,-80.3568 119.88,-81.7072 128.87,-83.0101"/>
<polygon fill="midnightblue" stroke="midnightblue" points="101.967,-75.5747 91.5688,-77.6042 100.963,-82.5024 101.967,-75.5747"/>
</g>
<!-- Node4 -->
<g id="node7" class="node"><title>Node4</title>
<a xlink:href="structstxxl_1_1interleaved__RC.html" target="_top" xlink:title="stxxl::interleaved_RC">
<polygon fill="none" stroke="black" points="128.5,-40.5 128.5,-61.5 239.5,-61.5 239.5,-40.5 128.5,-40.5"/>
<text text-anchor="middle" x="184" y="-48.5" font-family="Helvetica,sans-Serif" font-size="10.00">stxxl::interleaved_RC</text>
</a>
</g>
<!-- Node1&#45;&gt;Node4 -->
<g id="edge6" class="edge"><title>Node1&#45;&gt;Node4</title>
<path fill="none" stroke="midnightblue" d="M101.714,-62.9255C110.504,-61.6515 119.593,-60.3343 128.381,-59.0607"/>
<polygon fill="midnightblue" stroke="midnightblue" points="100.963,-59.4976 91.5688,-64.3958 101.967,-66.4253 100.963,-59.4976"/>
</g>
<!-- Node5 -->
<g id="node9" class="node"><title>Node5</title>
<a xlink:href="structstxxl_1_1interleaved__SR.html" target="_top" xlink:title="stxxl::interleaved_SR">
<polygon fill="none" stroke="black" points="129,-0.5 129,-21.5 239,-21.5 239,-0.5 129,-0.5"/>
<text text-anchor="middle" x="184" y="-8.5" font-family="Helvetica,sans-Serif" font-size="10.00">stxxl::interleaved_SR</text>
</a>
</g>
<!-- Node1&#45;&gt;Node5 -->
<g id="edge8" class="edge"><title>Node1&#45;&gt;Node5</title>
<path fill="none" stroke="midnightblue" d="M88.0949,-49.358C100.787,-43.1349 114.843,-36.5385 128,-31 135.897,-27.6756 144.56,-24.4045 152.663,-21.5016"/>
<polygon fill="midnightblue" stroke="midnightblue" points="86.5326,-46.2259 79.1271,-53.8028 89.6412,-52.4978 86.5326,-46.2259"/>
</g>
</g>
</svg>
