<?xml version="1.0" encoding="UTF-8" standalone="no"?>
<!DOCTYPE svg PUBLIC "-//W3C//DTD SVG 1.1//EN"
 "http://www.w3.org/Graphics/SVG/1.1/DTD/svg11.dtd">
<!-- Generated by graphviz version 2.26.3 (20100126.1600)
 -->
<!-- Title: stxxl::cmdline_parser::argument Pages: 1 -->
<svg width="264pt" height="302pt"
 viewBox="0.00 0.00 264.00 302.00" xmlns="http://www.w3.org/2000/svg" xmlns:xlink="http://www.w3.org/1999/xlink">
<g id="graph1" class="graph" transform="scale(1 1) rotate(0) translate(4 298)">
<title>stxxl::cmdline_parser::argument</title>
<!-- Node1 -->
<g id="node1" class="node"><title>Node1</title>
<polygon fill="#bfbfbf" stroke="black" points="0,-130 0,-164 110,-164 110,-130 0,-130"/>
<text text-anchor="start" x="8" y="-151" font-family="Helvetica,sans-Serif" font-size="10.00">stxxl::cmdline_parser</text>
<text text-anchor="middle" x="55" y="-138" font-family="Helvetica,sans-Serif" font-size="10.00">::argument</text>
</g>
<!-- Node2 -->
<g id="node3" class="node"><title>Node2</title>
<a xlink:href="structstxxl_1_1cmdline__parser_1_1argument__bytes.html" target="_top" xlink:title="specialization of argument for SI/IEC suffixes byte size options or parameters ">
<polygon fill="none" stroke="black" points="146,-260 146,-294 256,-294 256,-260 146,-260"/>
<text text-anchor="start" x="154" y="-281" font-family="Helvetica,sans-Serif" font-size="10.00">stxxl::cmdline_parser</text>
<text text-anchor="middle" x="201" y="-268" font-family="Helvetica,sans-Serif" font-size="10.00">::argument_bytes</text>
</a>
</g>
<!-- Node1&#45;&gt;Node2 -->
<g id="edge2" class="edge"><title>Node1&#45;&gt;Node2</title>
<path fill="none" stroke="midnightblue" d="M72.4022,-172.249C89.1621,-195.116 116.29,-228.565 146,-251 150.299,-254.246 155.067,-257.231 159.948,-259.929"/>
<polygon fill="midnightblue" stroke="midnightblue" points="75.1836,-170.122 66.5027,-164.048 69.5012,-174.209 75.1836,-170.122"/>
</g>
<!-- Node3 -->
<g id="node5" class="node"><title>Node3</title>
<a xlink:href="structstxxl_1_1cmdline__parser_1_1argument__flag.html" target="_top" xlink:title="specialization of argument for boolean flags (can only be set to true). ">
<polygon fill="none" stroke="black" points="146,-208 146,-242 256,-242 256,-208 146,-208"/>
<text text-anchor="start" x="154" y="-229" font-family="Helvetica,sans-Serif" font-size="10.00">stxxl::cmdline_parser</text>
<text text-anchor="middle" x="201" y="-216" font-family="Helvetica,sans-Serif" font-size="10.00">::argument_flag</text>
</a>
</g>
<!-- Node1&#45;&gt;Node3 -->
<g id="edge4" class="edge"><title>Node1&#45;&gt;Node3</title>
<path fill="none" stroke="midnightblue" d="M92.4791,-169.286C108.766,-178.744 128.164,-189.706 146,-199 151.714,-201.977 157.827,-205.012 163.825,-207.907"/>
<polygon fill="midnightblue" stroke="midnightblue" points="94.1813,-166.228 83.7808,-164.207 90.6515,-172.272 94.1813,-166.228"/>
</g>
<!-- Node4 -->
<g id="node7" class="node"><title>Node4</title>
<a xlink:href="structstxxl_1_1cmdline__parser_1_1argument__int.html" target="_top" xlink:title="specialization of argument for integer options or parameters ">
<polygon fill="none" stroke="black" points="146,-156 146,-190 256,-190 256,-156 146,-156"/>
<text text-anchor="start" x="154" y="-177" font-family="Helvetica,sans-Serif" font-size="10.00">stxxl::cmdline_parser</text>
<text text-anchor="middle" x="201" y="-164" font-family="Helvetica,sans-Serif" font-size="10.00">::argument_int</text>
</a>
</g>
<!-- Node1&#45;&gt;Node4 -->
<g id="edge6" class="edge"><title>Node1&#45;&gt;Node4</title>
<path fill="none" stroke="midnightblue" d="M120.131,-158.599C128.676,-160.12 137.366,-161.668 145.726,-163.157"/>
<polygon fill="midnightblue" stroke="midnightblue" points="120.655,-155.137 110.196,-156.829 119.428,-162.029 120.655,-155.137"/>
</g>
<!-- Node5 -->
<g id="node9" class="node"><title>Node5</title>
<a xlink:href="structstxxl_1_1cmdline__parser_1_1argument__string.html" target="_top" xlink:title="specialization of argument for string options or parameters ">
<polygon fill="none" stroke="black" points="146,-104 146,-138 256,-138 256,-104 146,-104"/>
<text text-anchor="start" x="154" y="-125" font-family="Helvetica,sans-Serif" font-size="10.00">stxxl::cmdline_parser</text>
<text text-anchor="middle" x="201" y="-112" font-family="Helvetica,sans-Serif" font-size="10.00">::argument_string</text>
</a>
</g>
<!-- Node1&#45;&gt;Node5 -->
<g id="edge8" class="edge"><title>Node1&#45;&gt;Node5</title>
<path fill="none" stroke="midnightblue" d="M120.131,-135.401C128.676,-133.88 137.366,-132.332 145.726,-130.843"/>
<polygon fill="midnightblue" stroke="midnightblue" points="119.428,-131.971 110.196,-137.171 120.655,-138.863 119.428,-131.971"/>
</g>
<!-- Node6 -->
<g id="node11" class="node"><title>Node6</title>
<a xlink:href="structstxxl_1_1cmdline__parser_1_1argument__stringlist.html" target="_top" xlink:title="specialization of argument for multiple string options or parameters ">
<polygon fill="none" stroke="black" points="146,-52 146,-86 256,-86 256,-52 146,-52"/>
<text text-anchor="start" x="154" y="-73" font-family="Helvetica,sans-Serif" font-size="10.00">stxxl::cmdline_parser</text>
<text text-anchor="middle" x="201" y="-60" font-family="Helvetica,sans-Serif" font-size="10.00">::argument_stringlist</text>
</a>
</g>
<!-- Node1&#45;&gt;Node6 -->
<g id="edge10" class="edge"><title>Node1&#45;&gt;Node6</title>
<path fill="none" stroke="midnightblue" d="M92.4791,-124.714C108.766,-115.256 128.164,-104.294 146,-95 151.714,-92.0228 157.827,-88.9882 163.825,-86.0926"/>
<polygon fill="midnightblue" stroke="midnightblue" points="90.6515,-121.728 83.7808,-129.793 94.1813,-127.772 90.6515,-121.728"/>
</g>
<!-- Node7 -->
<g id="node13" class="node"><title>Node7</title>
<a xlink:href="structstxxl_1_1cmdline__parser_1_1argument__uint.html" target="_top" xlink:title="specialization of argument for unsigned integer options or parameters ">
<polygon fill="none" stroke="black" points="146,-0 146,-34 256,-34 256,-0 146,-0"/>
<text text-anchor="start" x="154" y="-21" font-family="Helvetica,sans-Serif" font-size="10.00">stxxl::cmdline_parser</text>
<text text-anchor="middle" x="201" y="-8" font-family="Helvetica,sans-Serif" font-size="10.00">::argument_uint</text>
</a>
</g>
<!-- Node1&#45;&gt;Node7 -->
<g id="edge12" class="edge"><title>Node1&#45;&gt;Node7</title>
<path fill="none" stroke="midnightblue" d="M72.4022,-121.751C89.1621,-98.884 116.29,-65.4351 146,-43 150.299,-39.754 155.067,-36.7694 159.948,-34.0709"/>
<polygon fill="midnightblue" stroke="midnightblue" points="69.5012,-119.791 66.5027,-129.952 75.1836,-123.878 69.5012,-119.791"/>
</g>
</g>
</svg>
