<?xml version="1.0" encoding="UTF-8" standalone="no"?>
<!DOCTYPE svg PUBLIC "-//W3C//DTD SVG 1.1//EN"
 "http://www.w3.org/Graphics/SVG/1.1/DTD/svg11.dtd">
<!-- Generated by graphviz version 2.26.3 (20100126.1600)
 -->
<!-- Title: stxxl::FR Pages: 1 -->
<svg width="786pt" height="143pt"
 viewBox="0.00 0.00 786.00 143.00" xmlns="http://www.w3.org/2000/svg" xmlns:xlink="http://www.w3.org/1999/xlink">
<g id="graph1" class="graph" transform="scale(1 1) rotate(0) translate(4 139)">
<title>stxxl::FR</title>
<!-- Node1 -->
<g id="node1" class="node"><title>Node1</title>
<polygon fill="#bfbfbf" stroke="black" points="720.5,-77.5 720.5,-98.5 777.5,-98.5 777.5,-77.5 720.5,-77.5"/>
<text text-anchor="middle" x="749" y="-85.5" font-family="Helvetica,sans-Serif" font-size="10.00">stxxl::FR</text>
</g>
<!-- Node2 -->
<g id="node2" class="node"><title>Node2</title>
<a xlink:href="structstxxl_1_1striping.html" target="_top" xlink:title="Striping disk allocation scheme functor. ">
<polygon fill="none" stroke="black" points="565.5,-98.5 565.5,-119.5 640.5,-119.5 640.5,-98.5 565.5,-98.5"/>
<text text-anchor="middle" x="603" y="-106.5" font-family="Helvetica,sans-Serif" font-size="10.00">stxxl::striping</text>
</a>
</g>
<!-- Node2&#45;&gt;Node1 -->
<g id="edge2" class="edge"><title>Node2&#45;&gt;Node1</title>
<path fill="none" stroke="midnightblue" d="M650.529,-102.164C673.549,-98.8525 700.433,-94.9857 720.289,-92.1297"/>
<polygon fill="midnightblue" stroke="midnightblue" points="649.998,-98.7038 640.599,-103.592 650.995,-105.633 649.998,-98.7038"/>
</g>
<!-- Node3 -->
<g id="node4" class="node"><title>Node3</title>
<a xlink:href="structstxxl_1_1choose__int__types.html" target="_top" xlink:title="stxxl::choose_int_types\l\&lt; my_pointer_size \&gt;">
<polygon fill="none" stroke="black" points="262,-92 262,-126 382,-126 382,-92 262,-92"/>
<text text-anchor="start" x="270" y="-113" font-family="Helvetica,sans-Serif" font-size="10.00">stxxl::choose_int_types</text>
<text text-anchor="middle" x="322" y="-100" font-family="Helvetica,sans-Serif" font-size="10.00">&lt; my_pointer_size &gt;</text>
</a>
</g>
<!-- Node3&#45;&gt;Node2 -->
<g id="edge4" class="edge"><title>Node3&#45;&gt;Node2</title>
<path fill="none" stroke="#9a32cd" stroke-dasharray="5,2" d="M392.621,-109C447.389,-109 521.162,-109 565.222,-109"/>
<polygon fill="#9a32cd" stroke="#9a32cd" points="392.282,-105.5 382.282,-109 392.282,-112.5 392.282,-105.5"/>
<text text-anchor="middle" x="465" y="-126" font-family="Helvetica,sans-Serif" font-size="10.00"> begin</text>
<text text-anchor="middle" x="465" y="-113" font-family="Helvetica,sans-Serif" font-size="10.00">diff</text>
</g>
<!-- Node4 -->
<g id="node6" class="node"><title>Node4</title>
<a xlink:href="structstxxl_1_1choose__int__types.html" target="_top" xlink:title="stxxl::choose_int_types\l\&lt; PtrSize \&gt;">
<polygon fill="none" stroke="black" points="2,-92 2,-126 122,-126 122,-92 2,-92"/>
<text text-anchor="start" x="10" y="-113" font-family="Helvetica,sans-Serif" font-size="10.00">stxxl::choose_int_types</text>
<text text-anchor="middle" x="62" y="-100" font-family="Helvetica,sans-Serif" font-size="10.00">&lt; PtrSize &gt;</text>
</a>
</g>
<!-- Node4&#45;&gt;Node3 -->
<g id="edge6" class="edge"><title>Node4&#45;&gt;Node3</title>
<path fill="none" stroke="orange" stroke-dasharray="5,2" d="M132.35,-109C172.751,-109 222.966,-109 261.574,-109"/>
<polygon fill="orange" stroke="orange" points="132.303,-105.5 122.303,-109 132.303,-112.5 132.303,-105.5"/>
<text text-anchor="middle" x="189" y="-113" font-family="Helvetica,sans-Serif" font-size="10.00"> &lt; my_pointer_size &gt;</text>
</g>
<!-- Node5 -->
<g id="node8" class="node"><title>Node5</title>
<a xlink:href="structstxxl_1_1random__number.html" target="_top" xlink:title="stxxl::random_number\l\&lt; random_uniform_fast \&gt;">
<polygon fill="none" stroke="black" points="540,-46 540,-80 666,-80 666,-46 540,-46"/>
<text text-anchor="start" x="548" y="-67" font-family="Helvetica,sans-Serif" font-size="10.00">stxxl::random_number</text>
<text text-anchor="middle" x="603" y="-54" font-family="Helvetica,sans-Serif" font-size="10.00">&lt; random_uniform_fast &gt;</text>
</a>
</g>
<!-- Node5&#45;&gt;Node1 -->
<g id="edge8" class="edge"><title>Node5&#45;&gt;Node1</title>
<path fill="none" stroke="#9a32cd" stroke-dasharray="5,2" d="M676.368,-72.6262C685.027,-73.9835 693.722,-75.4493 702,-77 707.931,-78.111 714.243,-79.4672 720.253,-80.8428"/>
<polygon fill="#9a32cd" stroke="#9a32cd" points="676.662,-69.1306 666.249,-71.084 675.608,-76.0507 676.662,-69.1306"/>
<text text-anchor="middle" x="693" y="-81" font-family="Helvetica,sans-Serif" font-size="10.00"> rnd</text>
</g>
<!-- Node6 -->
<g id="node10" class="node"><title>Node6</title>
<a xlink:href="structstxxl_1_1random__uniform__fast.html" target="_top" xlink:title="Fast uniform [0.0, 1.0) pseudo&#45;random generator. ">
<polygon fill="none" stroke="black" points="254.5,-52.5 254.5,-73.5 389.5,-73.5 389.5,-52.5 254.5,-52.5"/>
<text text-anchor="middle" x="322" y="-60.5" font-family="Helvetica,sans-Serif" font-size="10.00">stxxl::random_uniform_fast</text>
</a>
</g>
<!-- Node6&#45;&gt;Node5 -->
<g id="edge10" class="edge"><title>Node6&#45;&gt;Node5</title>
<path fill="none" stroke="#9a32cd" stroke-dasharray="5,2" d="M399.768,-63C443.862,-63 498.329,-63 539.775,-63"/>
<polygon fill="#9a32cd" stroke="#9a32cd" points="399.664,-59.5001 389.664,-63 399.664,-66.5001 399.664,-59.5001"/>
<text text-anchor="middle" x="465" y="-67" font-family="Helvetica,sans-Serif" font-size="10.00"> uniform</text>
</g>
<!-- Node7 -->
<g id="node12" class="node"><title>Node7</title>
<a xlink:href="structstxxl_1_1random__number32.html" target="_top" xlink:title="Fast uniform [0, 2^32) pseudo&#45;random generator with period 2^32, random bits: 32. ...">
<polygon fill="none" stroke="black" points="0,-52.5 0,-73.5 124,-73.5 124,-52.5 0,-52.5"/>
<text text-anchor="middle" x="62" y="-60.5" font-family="Helvetica,sans-Serif" font-size="10.00">stxxl::random_number32</text>
</a>
</g>
<!-- Node7&#45;&gt;Node6 -->
<g id="edge12" class="edge"><title>Node7&#45;&gt;Node6</title>
<path fill="none" stroke="#9a32cd" stroke-dasharray="5,2" d="M134.624,-63C172.11,-63 217.557,-63 254.305,-63"/>
<polygon fill="#9a32cd" stroke="#9a32cd" points="134.277,-59.5001 124.276,-63 134.276,-66.5001 134.277,-59.5001"/>
<text text-anchor="middle" x="189" y="-67" font-family="Helvetica,sans-Serif" font-size="10.00"> rnd32</text>
</g>
<!-- Node8 -->
<g id="node14" class="node"><title>Node8</title>
<a xlink:href="structstxxl_1_1random__number.html" target="_top" xlink:title="Uniform [0, N) pseudo&#45;random generator. ">
<polygon fill="none" stroke="black" points="265.5,-0 265.5,-34 378.5,-34 378.5,-0 265.5,-0"/>
<text text-anchor="start" x="273.5" y="-21" font-family="Helvetica,sans-Serif" font-size="10.00">stxxl::random_number</text>
<text text-anchor="middle" x="322" y="-8" font-family="Helvetica,sans-Serif" font-size="10.00">&lt; UniformRGen &gt;</text>
</a>
</g>
<!-- Node8&#45;&gt;Node5 -->
<g id="edge14" class="edge"><title>Node8&#45;&gt;Node5</title>
<path fill="none" stroke="orange" stroke-dasharray="5,2" d="M388.783,-25.6142C427.736,-30.9053 477.761,-38.1582 522,-46 527.801,-47.0282 533.821,-48.1632 539.842,-49.3442"/>
<polygon fill="orange" stroke="orange" points="388.996,-22.1113 378.618,-24.2438 388.061,-29.0486 388.996,-22.1113"/>
<text text-anchor="middle" x="465" y="-50" font-family="Helvetica,sans-Serif" font-size="10.00"> &lt; random_uniform_fast &gt;</text>
</g>
</g>
</svg>
