<?xml version="1.0" encoding="UTF-8" standalone="no"?>
<!DOCTYPE svg PUBLIC "-//W3C//DTD SVG 1.1//EN"
 "http://www.w3.org/Graphics/SVG/1.1/DTD/svg11.dtd">
<!-- Generated by graphviz version 2.26.3 (20100126.1600)
 -->
<!-- Title: stxxl::priority_queue_local::ext_merger&lt; BlockType, Cmp, Arity, AllocStr &gt;::sequence_state Pages: 1 -->
<svg width="1334pt" height="312pt"
 viewBox="0.00 0.00 1334.00 312.48" xmlns="http://www.w3.org/2000/svg" xmlns:xlink="http://www.w3.org/1999/xlink">
<g id="graph1" class="graph" transform="scale(1 1) rotate(0) translate(4 308.484)">
<title>stxxl::priority_queue_local::ext_merger&lt; BlockType, Cmp, Arity, AllocStr &gt;::sequence_state</title>
<!-- Node1 -->
<g id="node1" class="node"><title>Node1</title>
<polygon fill="#bfbfbf" stroke="black" points="704.5,-112.5 704.5,-159.5 895.5,-159.5 895.5,-112.5 704.5,-112.5"/>
<text text-anchor="start" x="712.5" y="-146.5" font-family="Helvetica,sans-Serif" font-size="10.00">stxxl::priority_queue</text>
<text text-anchor="start" x="712.5" y="-133.5" font-family="Helvetica,sans-Serif" font-size="10.00">_local::ext_merger&lt; BlockType,</text>
<text text-anchor="middle" x="800" y="-120.5" font-family="Helvetica,sans-Serif" font-size="10.00"> Cmp, Arity, AllocStr &gt;::sequence_state</text>
</g>
<!-- Node3 -->
<g id="node4" class="node"><title>Node3</title>
<a xlink:href="classstxxl_1_1priority__queue__local_1_1ext__merger.html" target="_top" xlink:title="External merger, based on the loser tree data structure. ">
<polygon fill="none" stroke="black" points="1170.5,-131.5 1170.5,-178.5 1325.5,-178.5 1325.5,-131.5 1170.5,-131.5"/>
<text text-anchor="start" x="1178.5" y="-165.5" font-family="Helvetica,sans-Serif" font-size="10.00">stxxl::priority_queue</text>
<text text-anchor="start" x="1178.5" y="-152.5" font-family="Helvetica,sans-Serif" font-size="10.00">_local::ext_merger&lt; BlockType,</text>
<text text-anchor="middle" x="1248" y="-139.5" font-family="Helvetica,sans-Serif" font-size="10.00"> Cmp, Arity, AllocStr &gt;</text>
</a>
</g>
<!-- Node1&#45;&gt;Node3 -->
<g id="edge34" class="edge"><title>Node1&#45;&gt;Node3</title>
<path fill="none" stroke="#9a32cd" stroke-dasharray="5,2" d="M905.739,-157.054C908.518,-157.399 911.275,-157.715 914,-158 1001.52,-167.148 1102.64,-164.396 1170.49,-160.638"/>
<polygon fill="#9a32cd" stroke="#9a32cd" points="905.985,-153.556 895.608,-155.695 905.054,-160.494 905.985,-153.556"/>
<text text-anchor="middle" x="990" y="-168" font-family="Helvetica,sans-Serif" font-size="10.00"> states</text>
</g>
<!-- Node2 -->
<g id="node2" class="node"><title>Node2</title>
<a xlink:href="classstxxl_1_1noncopyable.html" target="_top" xlink:title="stxxl::noncopyable">
<polygon fill="none" stroke="black" points="307,-238.5 307,-259.5 405,-259.5 405,-238.5 307,-238.5"/>
<text text-anchor="middle" x="356" y="-246.5" font-family="Helvetica,sans-Serif" font-size="10.00">stxxl::noncopyable</text>
</a>
</g>
<!-- Node2&#45;&gt;Node1 -->
<g id="edge2" class="edge"><title>Node2&#45;&gt;Node1</title>
<path fill="none" stroke="#8b1a1a" d="M415.14,-239.828C496.133,-226.875 637.096,-202.814 686,-185 694.599,-181.868 695.745,-178.952 704,-175 715.115,-169.679 727.155,-164.413 738.829,-159.554"/>
<polygon fill="#8b1a1a" stroke="#8b1a1a" points="414.414,-236.4 405.088,-241.428 415.514,-243.313 414.414,-236.4"/>
</g>
<!-- Node2&#45;&gt;Node3 -->
<g id="edge6" class="edge"><title>Node2&#45;&gt;Node3</title>
<path fill="none" stroke="#8b1a1a" d="M385.579,-263.966C399.862,-270.549 417.456,-277.74 434,-282 475.542,-292.697 487.16,-289.775 530,-292 768.274,-304.377 834.718,-320.621 1066,-262 1105.53,-251.98 1116.4,-249.899 1152,-230 1177.66,-215.656 1203.76,-194.777 1222.25,-178.689"/>
<polygon fill="#8b1a1a" stroke="#8b1a1a" points="386.809,-260.675 376.274,-259.548 383.807,-266.999 386.809,-260.675"/>
</g>
<!-- Node4 -->
<g id="node7" class="node"><title>Node4</title>
<a xlink:href="classstxxl_1_1read__write__pool.html" target="_top" xlink:title="Implements dynamically resizable buffered writing and prefetched reading pool. ">
<polygon fill="none" stroke="black" points="934,-219 934,-253 1046,-253 1046,-219 934,-219"/>
<text text-anchor="start" x="942" y="-240" font-family="Helvetica,sans-Serif" font-size="10.00">stxxl::read_write_pool</text>
<text text-anchor="middle" x="990" y="-227" font-family="Helvetica,sans-Serif" font-size="10.00">&lt; BlockType &gt;</text>
</a>
</g>
<!-- Node2&#45;&gt;Node4 -->
<g id="edge10" class="edge"><title>Node2&#45;&gt;Node4</title>
<path fill="none" stroke="#8b1a1a" d="M415.349,-260.459C448.859,-266.276 491.599,-272.609 530,-275 692.455,-285.114 735.464,-288.87 896,-262 909.026,-259.82 922.841,-256.554 935.754,-253.068"/>
<polygon fill="#8b1a1a" stroke="#8b1a1a" points="415.717,-256.97 405.26,-258.675 414.498,-263.863 415.717,-256.97"/>
</g>
<!-- Node5 -->
<g id="node10" class="node"><title>Node5</title>
<a xlink:href="classstxxl_1_1prefetch__pool.html" target="_top" xlink:title="Implements dynamically resizable prefetching pool. ">
<polygon fill="none" stroke="black" points="557,-142 557,-176 659,-176 659,-142 557,-142"/>
<text text-anchor="start" x="565" y="-163" font-family="Helvetica,sans-Serif" font-size="10.00">stxxl::prefetch_pool</text>
<text text-anchor="middle" x="608" y="-150" font-family="Helvetica,sans-Serif" font-size="10.00">&lt; BlockType &gt;</text>
</a>
</g>
<!-- Node2&#45;&gt;Node5 -->
<g id="edge14" class="edge"><title>Node2&#45;&gt;Node5</title>
<path fill="none" stroke="#8b1a1a" d="M375.402,-231.411C390.36,-218.808 412.125,-202.451 434,-193 473.275,-176.032 521.198,-167.466 556.798,-163.181"/>
<polygon fill="#8b1a1a" stroke="#8b1a1a" points="372.697,-229.124 367.432,-238.318 377.281,-234.414 372.697,-229.124"/>
</g>
<!-- Node10 -->
<g id="node21" class="node"><title>Node10</title>
<a xlink:href="classstxxl_1_1write__pool.html" target="_top" xlink:title="Implements dynamically resizable buffered writing pool. ">
<polygon fill="none" stroke="black" points="561,-232 561,-266 655,-266 655,-232 561,-232"/>
<text text-anchor="start" x="569" y="-253" font-family="Helvetica,sans-Serif" font-size="10.00">stxxl::write_pool&lt;</text>
<text text-anchor="middle" x="608" y="-240" font-family="Helvetica,sans-Serif" font-size="10.00"> BlockType &gt;</text>
</a>
</g>
<!-- Node2&#45;&gt;Node10 -->
<g id="edge26" class="edge"><title>Node2&#45;&gt;Node10</title>
<path fill="none" stroke="#8b1a1a" d="M415.252,-249C459.601,-249 519.461,-249 560.645,-249"/>
<polygon fill="#8b1a1a" stroke="#8b1a1a" points="415.186,-245.5 405.186,-249 415.186,-252.5 415.186,-245.5"/>
</g>
<!-- Node3&#45;&gt;Node1 -->
<g id="edge4" class="edge"><title>Node3&#45;&gt;Node1</title>
<path fill="none" stroke="#9a32cd" stroke-dasharray="5,2" d="M1159.72,-149.774C1129.95,-148.112 1096.54,-146.356 1066,-145 1009.57,-142.495 946.373,-140.33 895.744,-138.752"/>
<polygon fill="#9a32cd" stroke="#9a32cd" points="1159.9,-153.29 1170.08,-150.357 1160.29,-146.301 1159.9,-153.29"/>
<text text-anchor="middle" x="990" y="-149" font-family="Helvetica,sans-Serif" font-size="10.00"> merger</text>
</g>
<!-- Node4&#45;&gt;Node3 -->
<g id="edge8" class="edge"><title>Node4&#45;&gt;Node3</title>
<path fill="none" stroke="#9a32cd" stroke-dasharray="5,2" d="M1055.84,-221.026C1085.49,-213.747 1120.78,-204.339 1152,-194 1165.66,-189.476 1180.16,-183.971 1193.64,-178.54"/>
<polygon fill="#9a32cd" stroke="#9a32cd" points="1054.9,-217.651 1046.01,-223.411 1056.56,-224.453 1054.9,-217.651"/>
<text text-anchor="middle" x="1118" y="-217" font-family="Helvetica,sans-Serif" font-size="10.00"> pool</text>
</g>
<!-- Node5&#45;&gt;Node4 -->
<g id="edge12" class="edge"><title>Node5&#45;&gt;Node4</title>
<path fill="none" stroke="#9a32cd" stroke-dasharray="5,2" d="M669.092,-171.314C742.087,-186.028 863.198,-210.44 933.908,-224.694"/>
<polygon fill="#9a32cd" stroke="#9a32cd" points="669.616,-167.85 659.122,-169.305 668.233,-174.712 669.616,-167.85"/>
<text text-anchor="middle" x="800" y="-219" font-family="Helvetica,sans-Serif" font-size="10.00"> p_pool</text>
</g>
<!-- Node6 -->
<g id="node13" class="node"><title>Node6</title>
<a xlink:href="structstxxl_1_1choose__int__types.html" target="_top" xlink:title="stxxl::choose_int_types\l\&lt; my_pointer_size \&gt;">
<polygon fill="none" stroke="black" points="296,-97 296,-131 416,-131 416,-97 296,-97"/>
<text text-anchor="start" x="304" y="-118" font-family="Helvetica,sans-Serif" font-size="10.00">stxxl::choose_int_types</text>
<text text-anchor="middle" x="356" y="-105" font-family="Helvetica,sans-Serif" font-size="10.00">&lt; my_pointer_size &gt;</text>
</a>
</g>
<!-- Node6&#45;&gt;Node1 -->
<g id="edge36" class="edge"><title>Node6&#45;&gt;Node1</title>
<path fill="none" stroke="#9a32cd" stroke-dasharray="5,2" d="M426.234,-111.172C428.856,-111.107 431.451,-111.049 434,-111 468.66,-110.334 477.366,-109.5 512,-111 576.306,-113.786 648.462,-120.055 704.463,-125.618"/>
<polygon fill="#9a32cd" stroke="#9a32cd" points="425.935,-107.679 416.037,-111.458 426.132,-114.677 425.935,-107.679"/>
<text text-anchor="middle" x="473" y="-115" font-family="Helvetica,sans-Serif" font-size="10.00"> current</text>
</g>
<!-- Node6&#45;&gt;Node3 -->
<g id="edge32" class="edge"><title>Node6&#45;&gt;Node3</title>
<path fill="none" stroke="#9a32cd" stroke-dasharray="5,2" d="M426.053,-101.288C529.185,-84.3653 727.853,-58.5934 896,-77 991.666,-87.4723 1099.39,-113.5 1170.18,-132.622"/>
<polygon fill="#9a32cd" stroke="#9a32cd" points="425.363,-97.8548 416.072,-102.947 426.511,-104.76 425.363,-97.8548"/>
<text text-anchor="middle" x="800" y="-94" font-family="Helvetica,sans-Serif" font-size="10.00"> k</text>
<text text-anchor="middle" x="800" y="-81" font-family="Helvetica,sans-Serif" font-size="10.00">log_k</text>
</g>
<!-- Node6&#45;&gt;Node5 -->
<g id="edge16" class="edge"><title>Node6&#45;&gt;Node5</title>
<path fill="none" stroke="#9a32cd" stroke-dasharray="5,2" d="M425.956,-126.561C428.672,-127.047 431.361,-127.528 434,-128 475.381,-135.4 522.303,-143.758 556.985,-149.929"/>
<polygon fill="#9a32cd" stroke="#9a32cd" points="426.503,-123.103 416.043,-124.785 425.269,-129.993 426.503,-123.103"/>
<text text-anchor="middle" x="473" y="-145" font-family="Helvetica,sans-Serif" font-size="10.00"> free_blocks_size</text>
</g>
<!-- Node7 -->
<g id="node15" class="node"><title>Node7</title>
<a xlink:href="structstxxl_1_1choose__int__types.html" target="_top" xlink:title="stxxl::choose_int_types\l\&lt; PtrSize \&gt;">
<polygon fill="none" stroke="black" points="17,-97 17,-131 137,-131 137,-97 17,-97"/>
<text text-anchor="start" x="25" y="-118" font-family="Helvetica,sans-Serif" font-size="10.00">stxxl::choose_int_types</text>
<text text-anchor="middle" x="77" y="-105" font-family="Helvetica,sans-Serif" font-size="10.00">&lt; PtrSize &gt;</text>
</a>
</g>
<!-- Node7&#45;&gt;Node6 -->
<g id="edge18" class="edge"><title>Node7&#45;&gt;Node6</title>
<path fill="none" stroke="orange" stroke-dasharray="5,2" d="M147.35,-114C193.165,-114 252.302,-114 295.913,-114"/>
<polygon fill="orange" stroke="orange" points="147.195,-110.5 137.195,-114 147.195,-117.5 147.195,-110.5"/>
<text text-anchor="middle" x="225" y="-118" font-family="Helvetica,sans-Serif" font-size="10.00"> &lt; my_pointer_size &gt;</text>
</g>
<!-- Node8 -->
<g id="node17" class="node"><title>Node8</title>
<a xlink:href="structstxxl_1_1compat__hash__map.html" target="_top" xlink:title="stxxl::compat_hash\l_map\&lt; bid_type, busy\l_entry, bid_hash \&gt;">
<polygon fill="none" stroke="black" points="299.5,-24.5 299.5,-71.5 412.5,-71.5 412.5,-24.5 299.5,-24.5"/>
<text text-anchor="start" x="307.5" y="-58.5" font-family="Helvetica,sans-Serif" font-size="10.00">stxxl::compat_hash</text>
<text text-anchor="start" x="307.5" y="-45.5" font-family="Helvetica,sans-Serif" font-size="10.00">_map&lt; bid_type, busy</text>
<text text-anchor="middle" x="356" y="-32.5" font-family="Helvetica,sans-Serif" font-size="10.00">_entry, bid_hash &gt;</text>
</a>
</g>
<!-- Node8&#45;&gt;Node5 -->
<g id="edge20" class="edge"><title>Node8&#45;&gt;Node5</title>
<path fill="none" stroke="#9a32cd" stroke-dasharray="5,2" d="M422.543,-53.8162C451.119,-58.1615 484.249,-65.75 512,-79 544.304,-94.4236 574.846,-123.199 592.478,-141.707"/>
<polygon fill="#9a32cd" stroke="#9a32cd" points="423.034,-50.3509 412.641,-52.4105 422.05,-57.2814 423.034,-50.3509"/>
<text text-anchor="middle" x="473" y="-83" font-family="Helvetica,sans-Serif" font-size="10.00"> busy_blocks</text>
</g>
<!-- Node9 -->
<g id="node19" class="node"><title>Node9</title>
<a xlink:href="structstxxl_1_1compat__hash__map.html" target="_top" xlink:title="stxxl::compat_hash\l_map\&lt; KeyType, MappedType,\l HashType \&gt;">
<polygon fill="none" stroke="black" points="0,-24.5 0,-71.5 154,-71.5 154,-24.5 0,-24.5"/>
<text text-anchor="start" x="8" y="-58.5" font-family="Helvetica,sans-Serif" font-size="10.00">stxxl::compat_hash</text>
<text text-anchor="start" x="8" y="-45.5" font-family="Helvetica,sans-Serif" font-size="10.00">_map&lt; KeyType, MappedType,</text>
<text text-anchor="middle" x="77" y="-32.5" font-family="Helvetica,sans-Serif" font-size="10.00"> HashType &gt;</text>
</a>
</g>
<!-- Node9&#45;&gt;Node8 -->
<g id="edge22" class="edge"><title>Node9&#45;&gt;Node8</title>
<path fill="none" stroke="orange" stroke-dasharray="5,2" d="M164.478,-48C208.505,-48 260.6,-48 299.336,-48"/>
<polygon fill="orange" stroke="orange" points="164.347,-44.5001 154.347,-48 164.347,-51.5001 164.347,-44.5001"/>
<text text-anchor="start" x="172" y="-65" font-family="Helvetica,sans-Serif" font-size="10.00"> &lt; bid_type, busy_entry,</text>
<text text-anchor="middle" x="225" y="-52" font-family="Helvetica,sans-Serif" font-size="10.00"> bid_hash &gt;</text>
</g>
<!-- Node10&#45;&gt;Node4 -->
<g id="edge24" class="edge"><title>Node10&#45;&gt;Node4</title>
<path fill="none" stroke="#9a32cd" stroke-dasharray="5,2" d="M665.544,-247.042C738.104,-244.572 862.034,-240.355 933.903,-237.909"/>
<polygon fill="#9a32cd" stroke="#9a32cd" points="665.099,-243.555 655.224,-247.393 665.337,-250.551 665.099,-243.555"/>
<text text-anchor="middle" x="800" y="-249" font-family="Helvetica,sans-Serif" font-size="10.00"> w_pool</text>
</g>
<!-- Node11 -->
<g id="node24" class="node"><title>Node11</title>
<a xlink:href="classstxxl_1_1priority__queue__local_1_1internal__bounded__stack.html" target="_top" xlink:title="stxxl::priority_queue\l_local::internal_bounded\l_stack\&lt; unsigned_type, arity \&gt;">
<polygon fill="none" stroke="black" points="914,-0.5 914,-47.5 1066,-47.5 1066,-0.5 914,-0.5"/>
<text text-anchor="start" x="922" y="-34.5" font-family="Helvetica,sans-Serif" font-size="10.00">stxxl::priority_queue</text>
<text text-anchor="start" x="922" y="-21.5" font-family="Helvetica,sans-Serif" font-size="10.00">_local::internal_bounded</text>
<text text-anchor="middle" x="990" y="-8.5" font-family="Helvetica,sans-Serif" font-size="10.00">_stack&lt; unsigned_type, arity &gt;</text>
</a>
</g>
<!-- Node11&#45;&gt;Node3 -->
<g id="edge28" class="edge"><title>Node11&#45;&gt;Node3</title>
<path fill="none" stroke="#9a32cd" stroke-dasharray="5,2" d="M1076.42,-26.4233C1101.92,-29.9584 1129.11,-36.6712 1152,-49 1187.85,-68.3062 1217.17,-106.379 1233.61,-131.25"/>
<polygon fill="#9a32cd" stroke="#9a32cd" points="1076.72,-22.9341 1066.36,-25.1777 1075.86,-29.8809 1076.72,-22.9341"/>
<text text-anchor="middle" x="1118" y="-53" font-family="Helvetica,sans-Serif" font-size="10.00"> free_segments</text>
</g>
<!-- Node12 -->
<g id="node26" class="node"><title>Node12</title>
<a xlink:href="classstxxl_1_1priority__queue__local_1_1internal__bounded__stack.html" target="_top" xlink:title="Similar to std::stack, with the following differences: ">
<polygon fill="none" stroke="black" points="530.5,-0.5 530.5,-47.5 685.5,-47.5 685.5,-0.5 530.5,-0.5"/>
<text text-anchor="start" x="538.5" y="-34.5" font-family="Helvetica,sans-Serif" font-size="10.00">stxxl::priority_queue</text>
<text text-anchor="start" x="538.5" y="-21.5" font-family="Helvetica,sans-Serif" font-size="10.00">_local::internal_bounded</text>
<text text-anchor="middle" x="608" y="-8.5" font-family="Helvetica,sans-Serif" font-size="10.00">_stack&lt; ValueType, MaxSize &gt;</text>
</a>
</g>
<!-- Node12&#45;&gt;Node11 -->
<g id="edge30" class="edge"><title>Node12&#45;&gt;Node11</title>
<path fill="none" stroke="orange" stroke-dasharray="5,2" d="M696.132,-24C762.024,-24 851.196,-24 913.975,-24"/>
<polygon fill="orange" stroke="orange" points="695.764,-20.5001 685.764,-24 695.764,-27.5001 695.764,-20.5001"/>
<text text-anchor="middle" x="800" y="-28" font-family="Helvetica,sans-Serif" font-size="10.00"> &lt; unsigned_type, arity &gt;</text>
</g>
</g>
</svg>
