<?xml version="1.0" encoding="UTF-8" standalone="no"?>
<!DOCTYPE svg PUBLIC "-//W3C//DTD SVG 1.1//EN"
 "http://www.w3.org/Graphics/SVG/1.1/DTD/svg11.dtd">
<!-- Generated by graphviz version 2.26.3 (20100126.1600)
 -->
<!-- Title: stxxl::cmdline_parser::argument Pages: 1 -->
<svg width="264pt" height="354pt"
 viewBox="0.00 0.00 264.00 354.00" xmlns="http://www.w3.org/2000/svg" xmlns:xlink="http://www.w3.org/1999/xlink">
<g id="graph1" class="graph" transform="scale(1 1) rotate(0) translate(4 350)">
<title>stxxl::cmdline_parser::argument</title>
<!-- Node1 -->
<g id="node1" class="node"><title>Node1</title>
<polygon fill="#bfbfbf" stroke="black" points="0,-156 0,-190 110,-190 110,-156 0,-156"/>
<text text-anchor="start" x="8" y="-177" font-family="Helvetica,sans-Serif" font-size="10.00">stxxl::cmdline_parser</text>
<text text-anchor="middle" x="55" y="-164" font-family="Helvetica,sans-Serif" font-size="10.00">::argument</text>
</g>
<!-- Node2 -->
<g id="node3" class="node"><title>Node2</title>
<a xlink:href="structstxxl_1_1cmdline__parser_1_1argument__bytes32.html" target="_top" xlink:title="specialization of argument for SI/IEC suffixes byte size options or parameters ">
<polygon fill="none" stroke="black" points="146,-312 146,-346 256,-346 256,-312 146,-312"/>
<text text-anchor="start" x="154" y="-333" font-family="Helvetica,sans-Serif" font-size="10.00">stxxl::cmdline_parser</text>
<text text-anchor="middle" x="201" y="-320" font-family="Helvetica,sans-Serif" font-size="10.00">::argument_bytes32</text>
</a>
</g>
<!-- Node1&#45;&gt;Node2 -->
<g id="edge2" class="edge"><title>Node1&#45;&gt;Node2</title>
<path fill="none" stroke="midnightblue" d="M68.0638,-199.327C83.3916,-227.983 111.191,-273.632 146,-303 149.875,-306.269 154.23,-309.226 158.75,-311.874"/>
<polygon fill="midnightblue" stroke="midnightblue" points="71.0847,-197.551 63.3517,-190.308 64.8805,-200.792 71.0847,-197.551"/>
</g>
<!-- Node3 -->
<g id="node5" class="node"><title>Node3</title>
<a xlink:href="structstxxl_1_1cmdline__parser_1_1argument__bytes64.html" target="_top" xlink:title="specialization of argument for SI/IEC suffixes byte size options or parameters ">
<polygon fill="none" stroke="black" points="146,-260 146,-294 256,-294 256,-260 146,-260"/>
<text text-anchor="start" x="154" y="-281" font-family="Helvetica,sans-Serif" font-size="10.00">stxxl::cmdline_parser</text>
<text text-anchor="middle" x="201" y="-268" font-family="Helvetica,sans-Serif" font-size="10.00">::argument_bytes64</text>
</a>
</g>
<!-- Node1&#45;&gt;Node3 -->
<g id="edge4" class="edge"><title>Node1&#45;&gt;Node3</title>
<path fill="none" stroke="midnightblue" d="M79.5354,-197.216C97.0762,-213.702 121.773,-235.296 146,-251 150.875,-254.16 156.193,-257.162 161.54,-259.928"/>
<polygon fill="midnightblue" stroke="midnightblue" points="81.6604,-194.406 72.007,-190.04 76.8307,-199.473 81.6604,-194.406"/>
</g>
<!-- Node4 -->
<g id="node7" class="node"><title>Node4</title>
<a xlink:href="structstxxl_1_1cmdline__parser_1_1argument__flag.html" target="_top" xlink:title="specialization of argument for boolean flags (can only be set to true). ">
<polygon fill="none" stroke="black" points="146,-208 146,-242 256,-242 256,-208 146,-208"/>
<text text-anchor="start" x="154" y="-229" font-family="Helvetica,sans-Serif" font-size="10.00">stxxl::cmdline_parser</text>
<text text-anchor="middle" x="201" y="-216" font-family="Helvetica,sans-Serif" font-size="10.00">::argument_flag</text>
</a>
</g>
<!-- Node1&#45;&gt;Node4 -->
<g id="edge6" class="edge"><title>Node1&#45;&gt;Node4</title>
<path fill="none" stroke="midnightblue" d="M112.446,-193.46C125.902,-198.253 140.097,-203.309 153.087,-207.935"/>
<polygon fill="midnightblue" stroke="midnightblue" points="113.401,-190.085 102.806,-190.027 111.052,-196.679 113.401,-190.085"/>
</g>
<!-- Node5 -->
<g id="node9" class="node"><title>Node5</title>
<a xlink:href="structstxxl_1_1cmdline__parser_1_1argument__int.html" target="_top" xlink:title="specialization of argument for integer options or parameters ">
<polygon fill="none" stroke="black" points="146,-156 146,-190 256,-190 256,-156 146,-156"/>
<text text-anchor="start" x="154" y="-177" font-family="Helvetica,sans-Serif" font-size="10.00">stxxl::cmdline_parser</text>
<text text-anchor="middle" x="201" y="-164" font-family="Helvetica,sans-Serif" font-size="10.00">::argument_int</text>
</a>
</g>
<!-- Node1&#45;&gt;Node5 -->
<g id="edge8" class="edge"><title>Node1&#45;&gt;Node5</title>
<path fill="none" stroke="midnightblue" d="M120.41,-173C128.865,-173 137.457,-173 145.726,-173"/>
<polygon fill="midnightblue" stroke="midnightblue" points="120.196,-169.5 110.196,-173 120.196,-176.5 120.196,-169.5"/>
</g>
<!-- Node6 -->
<g id="node11" class="node"><title>Node6</title>
<a xlink:href="structstxxl_1_1cmdline__parser_1_1argument__string.html" target="_top" xlink:title="specialization of argument for string options or parameters ">
<polygon fill="none" stroke="black" points="146,-104 146,-138 256,-138 256,-104 146,-104"/>
<text text-anchor="start" x="154" y="-125" font-family="Helvetica,sans-Serif" font-size="10.00">stxxl::cmdline_parser</text>
<text text-anchor="middle" x="201" y="-112" font-family="Helvetica,sans-Serif" font-size="10.00">::argument_string</text>
</a>
</g>
<!-- Node1&#45;&gt;Node6 -->
<g id="edge10" class="edge"><title>Node1&#45;&gt;Node6</title>
<path fill="none" stroke="midnightblue" d="M112.446,-152.54C125.902,-147.747 140.097,-142.691 153.087,-138.065"/>
<polygon fill="midnightblue" stroke="midnightblue" points="111.052,-149.321 102.806,-155.973 113.401,-155.915 111.052,-149.321"/>
</g>
<!-- Node7 -->
<g id="node13" class="node"><title>Node7</title>
<a xlink:href="structstxxl_1_1cmdline__parser_1_1argument__stringlist.html" target="_top" xlink:title="specialization of argument for multiple string options or parameters ">
<polygon fill="none" stroke="black" points="146,-52 146,-86 256,-86 256,-52 146,-52"/>
<text text-anchor="start" x="154" y="-73" font-family="Helvetica,sans-Serif" font-size="10.00">stxxl::cmdline_parser</text>
<text text-anchor="middle" x="201" y="-60" font-family="Helvetica,sans-Serif" font-size="10.00">::argument_stringlist</text>
</a>
</g>
<!-- Node1&#45;&gt;Node7 -->
<g id="edge12" class="edge"><title>Node1&#45;&gt;Node7</title>
<path fill="none" stroke="midnightblue" d="M79.5354,-148.784C97.0762,-132.298 121.773,-110.704 146,-95 150.875,-91.8403 156.193,-88.8382 161.54,-86.0719"/>
<polygon fill="midnightblue" stroke="midnightblue" points="76.8307,-146.527 72.007,-155.96 81.6604,-151.594 76.8307,-146.527"/>
</g>
<!-- Node8 -->
<g id="node15" class="node"><title>Node8</title>
<a xlink:href="structstxxl_1_1cmdline__parser_1_1argument__uint.html" target="_top" xlink:title="specialization of argument for unsigned integer options or parameters ">
<polygon fill="none" stroke="black" points="146,-0 146,-34 256,-34 256,-0 146,-0"/>
<text text-anchor="start" x="154" y="-21" font-family="Helvetica,sans-Serif" font-size="10.00">stxxl::cmdline_parser</text>
<text text-anchor="middle" x="201" y="-8" font-family="Helvetica,sans-Serif" font-size="10.00">::argument_uint</text>
</a>
</g>
<!-- Node1&#45;&gt;Node8 -->
<g id="edge14" class="edge"><title>Node1&#45;&gt;Node8</title>
<path fill="none" stroke="midnightblue" d="M68.0638,-146.673C83.3916,-118.017 111.191,-72.3684 146,-43 149.875,-39.7308 154.23,-36.7735 158.75,-34.1261"/>
<polygon fill="midnightblue" stroke="midnightblue" points="64.8805,-145.208 63.3517,-155.692 71.0847,-148.449 64.8805,-145.208"/>
</g>
</g>
</svg>
