<?xml version="1.0" encoding="UTF-8" standalone="no"?>
<!DOCTYPE svg PUBLIC "-//W3C//DTD SVG 1.1//EN"
 "http://www.w3.org/Graphics/SVG/1.1/DTD/svg11.dtd">
<!-- Generated by graphviz version 2.38.0 (20140413.2041)
 -->
<!-- Title: stxxl::btree::normal_node&lt; KeyType, KeyCmp, RawSize, BTreeType &gt;::metainfo_type Pages: 1 -->
<svg width="333pt" height="496pt"
 viewBox="0.00 0.00 333.00 496.00" xmlns="http://www.w3.org/2000/svg" xmlns:xlink="http://www.w3.org/1999/xlink">
<g id="graph0" class="graph" transform="scale(1 1) rotate(0) translate(4 492)">
<title>stxxl::btree::normal_node&lt; KeyType, KeyCmp, RawSize, BTreeType &gt;::metainfo_type</title>
<!-- Node1 -->
<g id="node1" class="node"><title>Node1</title>
<polygon fill="#bfbfbf" stroke="black" points="4,-0.5 4,-52.5 142,-52.5 142,-0.5 4,-0.5"/>
<text text-anchor="start" x="12" y="-40.5" font-family="Helvetica,sans-Serif" font-size="10.00">stxxl::btree::normal</text>
<text text-anchor="start" x="12" y="-29.5" font-family="Helvetica,sans-Serif" font-size="10.00">_node&lt; KeyType, KeyCmp,</text>
<text text-anchor="start" x="12" y="-18.5" font-family="Helvetica,sans-Serif" font-size="10.00"> RawSize, BTreeType &gt;::</text>
<text text-anchor="middle" x="73" y="-7.5" font-family="Helvetica,sans-Serif" font-size="10.00">metainfo_type</text>
</g>
<!-- Node2 -->
<g id="node2" class="node"><title>Node2</title>
<g id="a_node2"><a xlink:href="structstxxl_1_1BID.html" target="_top" xlink:title="stxxl::BID\&lt; raw_size \&gt;">
<polygon fill="none" stroke="black" points="14,-100.5 14,-119.5 132,-119.5 132,-100.5 14,-100.5"/>
<text text-anchor="middle" x="73" y="-107.5" font-family="Helvetica,sans-Serif" font-size="10.00">stxxl::BID&lt; raw_size &gt;</text>
</a>
</g>
</g>
<!-- Node2&#45;&gt;Node1 -->
<g id="edge1" class="edge"><title>Node2&#45;&gt;Node1</title>
<path fill="none" stroke="#9a32cd" stroke-dasharray="5,2" d="M73,-90.0375C73,-78.9426 73,-64.7952 73,-52.7638"/>
<polygon fill="#9a32cd" stroke="#9a32cd" points="69.5001,-90.278 73,-100.278 76.5001,-90.2781 69.5001,-90.278"/>
<text text-anchor="middle" x="81.5" y="-74" font-family="Helvetica,sans-Serif" font-size="10.00"> me</text>
</g>
<!-- Node3 -->
<g id="node3" class="node"><title>Node3</title>
<g id="a_node3"><a xlink:href="classstxxl_1_1file.html" target="_top" xlink:title="Defines interface of file. ">
<polygon fill="none" stroke="black" points="27,-234.5 27,-253.5 83,-253.5 83,-234.5 27,-234.5"/>
<text text-anchor="middle" x="55" y="-241.5" font-family="Helvetica,sans-Serif" font-size="10.00">stxxl::file</text>
</a>
</g>
</g>
<!-- Node3&#45;&gt;Node2 -->
<g id="edge2" class="edge"><title>Node3&#45;&gt;Node2</title>
<path fill="none" stroke="#9a32cd" stroke-dasharray="5,2" d="M50.2414,-224.597C46.9595,-209.091 43.867,-186.397 48,-167 51.7721,-149.297 61.5588,-130.411 67.7086,-119.72"/>
<polygon fill="#9a32cd" stroke="#9a32cd" points="46.8664,-225.535 52.564,-234.467 53.6803,-223.931 46.8664,-225.535"/>
<text text-anchor="middle" x="66" y="-174.5" font-family="Helvetica,sans-Serif" font-size="10.00"> storage</text>
</g>
<!-- Node9 -->
<g id="node9" class="node"><title>Node9</title>
<g id="a_node9"><a xlink:href="structstxxl_1_1BID.html" target="_top" xlink:title="Block identifier class. ">
<polygon fill="none" stroke="black" points="93,-167.5 93,-186.5 191,-186.5 191,-167.5 93,-167.5"/>
<text text-anchor="middle" x="142" y="-174.5" font-family="Helvetica,sans-Serif" font-size="10.00">stxxl::BID&lt; Size &gt;</text>
</a>
</g>
</g>
<!-- Node3&#45;&gt;Node9 -->
<g id="edge10" class="edge"><title>Node3&#45;&gt;Node9</title>
<path fill="none" stroke="#9a32cd" stroke-dasharray="5,2" d="M74.9862,-228.068C92.1589,-215.238 116.321,-197.185 130.453,-186.627"/>
<polygon fill="#9a32cd" stroke="#9a32cd" points="72.6494,-225.445 66.7332,-234.234 76.8391,-231.052 72.6494,-225.445"/>
<text text-anchor="middle" x="122" y="-208" font-family="Helvetica,sans-Serif" font-size="10.00"> storage</text>
</g>
<!-- Node4 -->
<g id="node4" class="node"><title>Node4</title>
<g id="a_node4"><a xlink:href="classstxxl_1_1noncopyable.html" target="_top" xlink:title="stxxl::noncopyable">
<polygon fill="none" stroke="black" points="0,-463 0,-482 98,-482 98,-463 0,-463"/>
<text text-anchor="middle" x="49" y="-470" font-family="Helvetica,sans-Serif" font-size="10.00">stxxl::noncopyable</text>
</a>
</g>
</g>
<!-- Node4&#45;&gt;Node3 -->
<g id="edge3" class="edge"><title>Node4&#45;&gt;Node3</title>
<path fill="none" stroke="#8b1a1a" d="M47.1856,-452.64C44.4638,-421.154 40.1349,-355.92 45,-301 46.4989,-284.08 50.4978,-264.617 52.9607,-253.666"/>
<polygon fill="#8b1a1a" stroke="#8b1a1a" points="43.7332,-453.322 48.1275,-462.963 50.7043,-452.686 43.7332,-453.322"/>
</g>
<!-- Node6 -->
<g id="node6" class="node"><title>Node6</title>
<g id="a_node6"><a xlink:href="classstxxl_1_1mutex.html" target="_top" xlink:title="stxxl::mutex">
<polygon fill="none" stroke="black" points="54.5,-385 54.5,-404 125.5,-404 125.5,-385 54.5,-385"/>
<text text-anchor="middle" x="90" y="-392" font-family="Helvetica,sans-Serif" font-size="10.00">stxxl::mutex</text>
</a>
</g>
</g>
<!-- Node4&#45;&gt;Node6 -->
<g id="edge6" class="edge"><title>Node4&#45;&gt;Node6</title>
<path fill="none" stroke="#8b1a1a" d="M58.6449,-453.622C67.0563,-438.03 78.8943,-416.086 85.3516,-404.116"/>
<polygon fill="#8b1a1a" stroke="#8b1a1a" points="55.3708,-452.319 53.7032,-462.782 61.5315,-455.643 55.3708,-452.319"/>
</g>
<!-- Node5 -->
<g id="node5" class="node"><title>Node5</title>
<g id="a_node5"><a xlink:href="classstxxl_1_1atomic__counted__object.html" target="_top" xlink:title="Provides reference counting abilities for use with counting_ptr with mutex locking. ">
<polygon fill="none" stroke="black" points="54.5,-301.5 54.5,-331.5 167.5,-331.5 167.5,-301.5 54.5,-301.5"/>
<text text-anchor="start" x="62.5" y="-319.5" font-family="Helvetica,sans-Serif" font-size="10.00">stxxl::atomic_counted</text>
<text text-anchor="middle" x="111" y="-308.5" font-family="Helvetica,sans-Serif" font-size="10.00">_object</text>
</a>
</g>
</g>
<!-- Node5&#45;&gt;Node3 -->
<g id="edge4" class="edge"><title>Node5&#45;&gt;Node3</title>
<path fill="none" stroke="#9a32cd" stroke-dasharray="5,2" d="M93.4331,-293.385C82.8301,-280.036 69.8981,-263.756 62.0641,-253.893"/>
<polygon fill="#9a32cd" stroke="#9a32cd" points="90.7071,-295.58 99.6676,-301.233 96.1883,-291.226 90.7071,-295.58"/>
<text text-anchor="middle" x="118" y="-275" font-family="Helvetica,sans-Serif" font-size="10.00"> m_request_ref</text>
</g>
<!-- Node6&#45;&gt;Node5 -->
<g id="edge5" class="edge"><title>Node6&#45;&gt;Node5</title>
<path fill="none" stroke="#9a32cd" stroke-dasharray="5,2" d="M88.3017,-374.72C88.1405,-366.929 88.67,-357.885 91,-350 92.915,-343.519 96.479,-337.044 100.074,-331.597"/>
<polygon fill="#9a32cd" stroke="#9a32cd" points="84.8227,-375.181 88.9028,-384.959 91.8106,-374.771 84.8227,-375.181"/>
<text text-anchor="middle" x="150.5" y="-353" font-family="Helvetica,sans-Serif" font-size="10.00"> m_reference_count_mutex</text>
</g>
<!-- Node7 -->
<g id="node7" class="node"><title>Node7</title>
<g id="a_node7"><a xlink:href="structstxxl_1_1choose__int__types.html" target="_top" xlink:title="stxxl::choose_int_types\l\&lt; my_pointer_size \&gt;">
<polygon fill="none" stroke="black" points="172,-379.5 172,-409.5 292,-409.5 292,-379.5 172,-379.5"/>
<text text-anchor="start" x="180" y="-397.5" font-family="Helvetica,sans-Serif" font-size="10.00">stxxl::choose_int_types</text>
<text text-anchor="middle" x="232" y="-386.5" font-family="Helvetica,sans-Serif" font-size="10.00">&lt; my_pointer_size &gt;</text>
</a>
</g>
</g>
<!-- Node7&#45;&gt;Node5 -->
<g id="edge7" class="edge"><title>Node7&#45;&gt;Node5</title>
<path fill="none" stroke="#9a32cd" stroke-dasharray="5,2" d="M224.062,-369.714C220.687,-362.562 216.09,-355.233 210,-350 197.995,-339.684 182.631,-332.623 167.606,-327.797"/>
<polygon fill="#9a32cd" stroke="#9a32cd" points="220.898,-371.223 227.932,-379.145 227.374,-368.565 220.898,-371.223"/>
<text text-anchor="middle" x="262.5" y="-353" font-family="Helvetica,sans-Serif" font-size="10.00"> m_reference_count</text>
</g>
<!-- Node8 -->
<g id="node8" class="node"><title>Node8</title>
<g id="a_node8"><a xlink:href="structstxxl_1_1choose__int__types.html" target="_top" xlink:title="stxxl::choose_int_types\l\&lt; PtrSize \&gt;">
<polygon fill="none" stroke="black" points="172,-457.5 172,-487.5 292,-487.5 292,-457.5 172,-457.5"/>
<text text-anchor="start" x="180" y="-475.5" font-family="Helvetica,sans-Serif" font-size="10.00">stxxl::choose_int_types</text>
<text text-anchor="middle" x="232" y="-464.5" font-family="Helvetica,sans-Serif" font-size="10.00">&lt; PtrSize &gt;</text>
</a>
</g>
</g>
<!-- Node8&#45;&gt;Node7 -->
<g id="edge8" class="edge"><title>Node8&#45;&gt;Node7</title>
<path fill="none" stroke="orange" stroke-dasharray="5,2" d="M232,-447.09C232,-434.757 232,-420.224 232,-409.731"/>
<polygon fill="orange" stroke="orange" points="228.5,-447.205 232,-457.205 235.5,-447.205 228.5,-447.205"/>
<text text-anchor="middle" x="278.5" y="-431" font-family="Helvetica,sans-Serif" font-size="10.00"> &lt; my_pointer_size &gt;</text>
</g>
<!-- Node9&#45;&gt;Node2 -->
<g id="edge9" class="edge"><title>Node9&#45;&gt;Node2</title>
<path fill="none" stroke="orange" stroke-dasharray="5,2" d="M125.394,-160.356C111.829,-147.578 93.1602,-129.992 82.1582,-119.627"/>
<polygon fill="orange" stroke="orange" points="123.015,-162.924 132.694,-167.234 127.815,-157.829 123.015,-162.924"/>
<text text-anchor="middle" x="142.5" y="-141" font-family="Helvetica,sans-Serif" font-size="10.00"> &lt; raw_size &gt;</text>
</g>
</g>
</svg>
