<?xml version="1.0" encoding="UTF-8" standalone="no"?>
<!DOCTYPE svg PUBLIC "-//W3C//DTD SVG 1.1//EN"
 "http://www.w3.org/Graphics/SVG/1.1/DTD/svg11.dtd">
<!-- Generated by graphviz version 2.38.0 (20140413.2041)
 -->
<!-- Title: stxxl::block_scheduler_algorithm_offline_lru_prefetching&lt; SwappableBlockType &gt;::scheduled_block_meta Pages: 1 -->
<svg width="1565pt" height="237pt"
 viewBox="0.00 0.00 1565.00 237.00" xmlns="http://www.w3.org/2000/svg" xmlns:xlink="http://www.w3.org/1999/xlink">
<g id="graph0" class="graph" transform="scale(1 1) rotate(0) translate(4 233)">
<title>stxxl::block_scheduler_algorithm_offline_lru_prefetching&lt; SwappableBlockType &gt;::scheduled_block_meta</title>
<!-- Node1 -->
<g id="node1" class="node"><title>Node1</title>
<polygon fill="#bfbfbf" stroke="black" points="1384,-68 1384,-120 1557,-120 1557,-68 1384,-68"/>
<text text-anchor="start" x="1392" y="-108" font-family="Helvetica,sans-Serif" font-size="10.00">stxxl::block_scheduler</text>
<text text-anchor="start" x="1392" y="-97" font-family="Helvetica,sans-Serif" font-size="10.00">_algorithm_offline_lru</text>
<text text-anchor="start" x="1392" y="-86" font-family="Helvetica,sans-Serif" font-size="10.00">_prefetching&lt; SwappableBlockType</text>
<text text-anchor="middle" x="1470.5" y="-75" font-family="Helvetica,sans-Serif" font-size="10.00"> &gt;::scheduled_block_meta</text>
</g>
<!-- Node2 -->
<g id="node2" class="node"><title>Node2</title>
<g id="a_node2"><a xlink:href="classstxxl_1_1counting__ptr.html" target="_top" xlink:title="stxxl::counting_ptr\l\&lt; request \&gt;">
<polygon fill="none" stroke="black" points="1210,-79 1210,-109 1307,-109 1307,-79 1210,-79"/>
<text text-anchor="start" x="1218" y="-97" font-family="Helvetica,sans-Serif" font-size="10.00">stxxl::counting_ptr</text>
<text text-anchor="middle" x="1258.5" y="-86" font-family="Helvetica,sans-Serif" font-size="10.00">&lt; request &gt;</text>
</a>
</g>
</g>
<!-- Node2&#45;&gt;Node1 -->
<g id="edge1" class="edge"><title>Node2&#45;&gt;Node1</title>
<path fill="none" stroke="#9a32cd" stroke-dasharray="5,2" d="M1317.27,-94C1337.77,-94 1361.31,-94 1383.66,-94"/>
<polygon fill="#9a32cd" stroke="#9a32cd" points="1317.15,-90.5001 1307.15,-94 1317.15,-97.5001 1317.15,-90.5001"/>
<text text-anchor="middle" x="1345.5" y="-97" font-family="Helvetica,sans-Serif" font-size="10.00"> read_req</text>
</g>
<!-- Node3 -->
<g id="node3" class="node"><title>Node3</title>
<g id="a_node3"><a xlink:href="classstxxl_1_1request.html" target="_top" xlink:title="Request object encapsulating basic properties like file and offset. ">
<polygon fill="none" stroke="black" points="1033.5,-109.5 1033.5,-128.5 1109.5,-128.5 1109.5,-109.5 1033.5,-109.5"/>
<text text-anchor="middle" x="1071.5" y="-116.5" font-family="Helvetica,sans-Serif" font-size="10.00">stxxl::request</text>
</a>
</g>
</g>
<!-- Node3&#45;&gt;Node2 -->
<g id="edge2" class="edge"><title>Node3&#45;&gt;Node2</title>
<path fill="none" stroke="#9a32cd" stroke-dasharray="5,2" d="M1120.14,-112.563C1147.72,-108.835 1182.32,-104.159 1209.9,-100.433"/>
<polygon fill="#9a32cd" stroke="#9a32cd" points="1119.38,-109.133 1109.94,-113.941 1120.32,-116.07 1119.38,-109.133"/>
<text text-anchor="middle" x="1165" y="-113" font-family="Helvetica,sans-Serif" font-size="10.00"> m_ptr</text>
</g>
<!-- Node4 -->
<g id="node4" class="node"><title>Node4</title>
<g id="a_node4"><a xlink:href="classstxxl_1_1request__interface.html" target="_top" xlink:title="Functional interface of a request. ">
<polygon fill="none" stroke="black" points="387,-209.5 387,-228.5 506,-228.5 506,-209.5 387,-209.5"/>
<text text-anchor="middle" x="446.5" y="-216.5" font-family="Helvetica,sans-Serif" font-size="10.00">stxxl::request_interface</text>
</a>
</g>
</g>
<!-- Node4&#45;&gt;Node3 -->
<g id="edge3" class="edge"><title>Node4&#45;&gt;Node3</title>
<path fill="none" stroke="midnightblue" d="M516.185,-214.947C581.148,-210.855 681.327,-203.878 768,-195 833.095,-188.332 849.264,-185.545 914,-176 954.552,-170.021 966.736,-175.699 1005,-161 1025.43,-153.152 1046.23,-138.418 1058.75,-128.655"/>
<polygon fill="midnightblue" stroke="midnightblue" points="515.831,-211.462 506.069,-215.578 516.267,-218.448 515.831,-211.462"/>
</g>
<!-- Node5 -->
<g id="node5" class="node"><title>Node5</title>
<g id="a_node5"><a xlink:href="classstxxl_1_1noncopyable.html" target="_top" xlink:title="stxxl::noncopyable">
<polygon fill="none" stroke="black" points="11,-171.5 11,-190.5 109,-190.5 109,-171.5 11,-171.5"/>
<text text-anchor="middle" x="60" y="-178.5" font-family="Helvetica,sans-Serif" font-size="10.00">stxxl::noncopyable</text>
</a>
</g>
</g>
<!-- Node5&#45;&gt;Node4 -->
<g id="edge4" class="edge"><title>Node5&#45;&gt;Node4</title>
<path fill="none" stroke="#8b1a1a" d="M119.223,-192.234C125.546,-193.26 131.899,-194.209 138,-195 224.294,-206.183 324.935,-212.839 386.939,-216.209"/>
<polygon fill="#8b1a1a" stroke="#8b1a1a" points="119.794,-188.781 109.351,-190.568 118.629,-195.683 119.794,-188.781"/>
</g>
<!-- Node7 -->
<g id="node7" class="node"><title>Node7</title>
<g id="a_node7"><a xlink:href="classstxxl_1_1mutex.html" target="_top" xlink:title="stxxl::mutex">
<polygon fill="none" stroke="black" points="273.5,-133.5 273.5,-152.5 344.5,-152.5 344.5,-133.5 273.5,-133.5"/>
<text text-anchor="middle" x="309" y="-140.5" font-family="Helvetica,sans-Serif" font-size="10.00">stxxl::mutex</text>
</a>
</g>
</g>
<!-- Node5&#45;&gt;Node7 -->
<g id="edge7" class="edge"><title>Node5&#45;&gt;Node7</title>
<path fill="none" stroke="#8b1a1a" d="M119.005,-170.2C125.408,-169.083 131.838,-167.995 138,-167 184.787,-159.447 239.034,-152.018 273.427,-147.473"/>
<polygon fill="#8b1a1a" stroke="#8b1a1a" points="118.245,-166.78 109.007,-171.968 119.464,-173.673 118.245,-166.78"/>
</g>
<!-- Node10 -->
<g id="node10" class="node"><title>Node10</title>
<g id="a_node10"><a xlink:href="classstxxl_1_1file.html" target="_top" xlink:title="Defines interface of file. ">
<polygon fill="none" stroke="black" points="822,-147.5 822,-166.5 878,-166.5 878,-147.5 822,-147.5"/>
<text text-anchor="middle" x="850" y="-154.5" font-family="Helvetica,sans-Serif" font-size="10.00">stxxl::file</text>
</a>
</g>
</g>
<!-- Node5&#45;&gt;Node10 -->
<g id="edge11" class="edge"><title>Node5&#45;&gt;Node10</title>
<path fill="none" stroke="#8b1a1a" d="M119.179,-180.473C240.085,-179.167 527.3,-174.972 768,-163 785.886,-162.11 805.961,-160.627 821.65,-159.357"/>
<polygon fill="#8b1a1a" stroke="#8b1a1a" points="118.998,-176.974 109.036,-180.58 119.072,-183.974 118.998,-176.974"/>
</g>
<!-- Node6 -->
<g id="node6" class="node"><title>Node6</title>
<g id="a_node6"><a xlink:href="classstxxl_1_1atomic__counted__object.html" target="_top" xlink:title="Provides reference counting abilities for use with counting_ptr with mutex locking. ">
<polygon fill="none" stroke="black" points="525.5,-114 525.5,-144 638.5,-144 638.5,-114 525.5,-114"/>
<text text-anchor="start" x="533.5" y="-132" font-family="Helvetica,sans-Serif" font-size="10.00">stxxl::atomic_counted</text>
<text text-anchor="middle" x="582" y="-121" font-family="Helvetica,sans-Serif" font-size="10.00">_object</text>
</a>
</g>
</g>
<!-- Node6&#45;&gt;Node3 -->
<g id="edge5" class="edge"><title>Node6&#45;&gt;Node3</title>
<path fill="none" stroke="midnightblue" d="M648.972,-127.647C752.786,-125.517 950.918,-121.453 1033.22,-119.765"/>
<polygon fill="midnightblue" stroke="midnightblue" points="648.849,-124.148 638.922,-127.853 648.992,-131.147 648.849,-124.148"/>
</g>
<!-- Node6&#45;&gt;Node10 -->
<g id="edge12" class="edge"><title>Node6&#45;&gt;Node10</title>
<path fill="none" stroke="#9a32cd" stroke-dasharray="5,2" d="M648.892,-135.936C704.536,-141.793 781.418,-149.886 821.768,-154.133"/>
<polygon fill="#9a32cd" stroke="#9a32cd" points="649.074,-132.436 638.762,-134.87 648.341,-139.397 649.074,-132.436"/>
<text text-anchor="middle" x="713" y="-151" font-family="Helvetica,sans-Serif" font-size="10.00"> m_request_ref</text>
</g>
<!-- Node7&#45;&gt;Node6 -->
<g id="edge6" class="edge"><title>Node7&#45;&gt;Node6</title>
<path fill="none" stroke="#9a32cd" stroke-dasharray="5,2" d="M354.731,-140.689C401.508,-138.273 475.005,-134.476 525.464,-131.869"/>
<polygon fill="#9a32cd" stroke="#9a32cd" points="354.404,-137.201 344.598,-141.213 354.765,-144.192 354.404,-137.201"/>
<text text-anchor="middle" x="446.5" y="-142" font-family="Helvetica,sans-Serif" font-size="10.00"> m_reference_count_mutex</text>
</g>
<!-- Node8 -->
<g id="node8" class="node"><title>Node8</title>
<g id="a_node8"><a xlink:href="structstxxl_1_1choose__int__types.html" target="_top" xlink:title="stxxl::choose_int_types\l\&lt; my_pointer_size \&gt;">
<polygon fill="none" stroke="black" points="249,-84 249,-114 369,-114 369,-84 249,-84"/>
<text text-anchor="start" x="257" y="-102" font-family="Helvetica,sans-Serif" font-size="10.00">stxxl::choose_int_types</text>
<text text-anchor="middle" x="309" y="-91" font-family="Helvetica,sans-Serif" font-size="10.00">&lt; my_pointer_size &gt;</text>
</a>
</g>
</g>
<!-- Node8&#45;&gt;Node6 -->
<g id="edge8" class="edge"><title>Node8&#45;&gt;Node6</title>
<path fill="none" stroke="#9a32cd" stroke-dasharray="5,2" d="M379.542,-105.569C417.034,-109.244 464.081,-114.068 506,-119 512.262,-119.737 518.813,-120.549 525.323,-121.382"/>
<polygon fill="#9a32cd" stroke="#9a32cd" points="379.526,-102.051 369.233,-104.564 378.846,-109.018 379.526,-102.051"/>
<text text-anchor="middle" x="446.5" y="-122" font-family="Helvetica,sans-Serif" font-size="10.00"> m_reference_count</text>
</g>
<!-- Node9 -->
<g id="node9" class="node"><title>Node9</title>
<g id="a_node9"><a xlink:href="structstxxl_1_1choose__int__types.html" target="_top" xlink:title="stxxl::choose_int_types\l\&lt; PtrSize \&gt;">
<polygon fill="none" stroke="black" points="0,-84 0,-114 120,-114 120,-84 0,-84"/>
<text text-anchor="start" x="8" y="-102" font-family="Helvetica,sans-Serif" font-size="10.00">stxxl::choose_int_types</text>
<text text-anchor="middle" x="60" y="-91" font-family="Helvetica,sans-Serif" font-size="10.00">&lt; PtrSize &gt;</text>
</a>
</g>
</g>
<!-- Node9&#45;&gt;Node8 -->
<g id="edge9" class="edge"><title>Node9&#45;&gt;Node8</title>
<path fill="none" stroke="orange" stroke-dasharray="5,2" d="M130.455,-99C167.772,-99 213.289,-99 248.893,-99"/>
<polygon fill="orange" stroke="orange" points="130.163,-95.5001 120.163,-99 130.163,-102.5 130.163,-95.5001"/>
<text text-anchor="middle" x="184.5" y="-102" font-family="Helvetica,sans-Serif" font-size="10.00"> &lt; my_pointer_size &gt;</text>
</g>
<!-- Node10&#45;&gt;Node3 -->
<g id="edge10" class="edge"><title>Node10&#45;&gt;Node3</title>
<path fill="none" stroke="#9a32cd" stroke-dasharray="5,2" d="M888.071,-151.817C919.326,-147.305 965.196,-140.35 1005,-133 1014.15,-131.311 1023.98,-129.31 1033.16,-127.358"/>
<polygon fill="#9a32cd" stroke="#9a32cd" points="887.465,-148.368 878.062,-153.25 888.457,-155.297 887.465,-148.368"/>
<text text-anchor="middle" x="968.5" y="-149" font-family="Helvetica,sans-Serif" font-size="10.00"> m_file</text>
</g>
<!-- Node11 -->
<g id="node11" class="node"><title>Node11</title>
<g id="a_node11"><a xlink:href="structstxxl_1_1compat__unique__ptr.html" target="_top" xlink:title="stxxl::compat_unique\l_ptr\&lt; stxxl::stxxl::io\l_error \&gt;">
<polygon fill="none" stroke="black" points="658,-56.5 658,-97.5 768,-97.5 768,-56.5 658,-56.5"/>
<text text-anchor="start" x="666" y="-85.5" font-family="Helvetica,sans-Serif" font-size="10.00">stxxl::compat_unique</text>
<text text-anchor="start" x="666" y="-74.5" font-family="Helvetica,sans-Serif" font-size="10.00">_ptr&lt; stxxl::stxxl::io</text>
<text text-anchor="middle" x="713" y="-63.5" font-family="Helvetica,sans-Serif" font-size="10.00">_error &gt;</text>
</a>
</g>
</g>
<!-- Node11&#45;&gt;Node3 -->
<g id="edge13" class="edge"><title>Node11&#45;&gt;Node3</title>
<path fill="none" stroke="#9a32cd" stroke-dasharray="5,2" d="M778.514,-80.6264C837.706,-84.564 927.668,-92.0887 1005,-105 1014.18,-106.532 1024.01,-108.474 1033.2,-110.419"/>
<polygon fill="#9a32cd" stroke="#9a32cd" points="778.4,-77.1117 768.194,-79.9555 777.946,-84.097 778.4,-77.1117"/>
<text text-anchor="middle" x="850" y="-95" font-family="Helvetica,sans-Serif" font-size="10.00"> m_error</text>
</g>
<!-- Node12 -->
<g id="node12" class="node"><title>Node12</title>
<g id="a_node12"><a xlink:href="structstxxl_1_1compat__unique__ptr.html" target="_top" xlink:title="stxxl::compat_unique\l_ptr\&lt; Type \&gt;">
<polygon fill="none" stroke="black" points="254,-21 254,-51 364,-51 364,-21 254,-21"/>
<text text-anchor="start" x="262" y="-39" font-family="Helvetica,sans-Serif" font-size="10.00">stxxl::compat_unique</text>
<text text-anchor="middle" x="309" y="-28" font-family="Helvetica,sans-Serif" font-size="10.00">_ptr&lt; Type &gt;</text>
</a>
</g>
</g>
<!-- Node12&#45;&gt;Node11 -->
<g id="edge14" class="edge"><title>Node12&#45;&gt;Node11</title>
<path fill="none" stroke="orange" stroke-dasharray="5,2" d="M374.265,-46.3374C378.57,-46.9306 382.845,-47.4915 387,-48 482.026,-59.6315 593.225,-68.5442 657.831,-73.2586"/>
<polygon fill="orange" stroke="orange" points="374.599,-42.8497 364.205,-44.9043 373.611,-49.7798 374.599,-42.8497"/>
<text text-anchor="start" x="409.5" y="-75" font-family="Helvetica,sans-Serif" font-size="10.00"> &lt; stxxl::stxxl::io</text>
<text text-anchor="middle" x="446.5" y="-64" font-family="Helvetica,sans-Serif" font-size="10.00">_error &gt;</text>
</g>
<!-- Node14 -->
<g id="node14" class="node"><title>Node14</title>
<g id="a_node14"><a xlink:href="structstxxl_1_1compat__unique__ptr.html" target="_top" xlink:title="stxxl::compat_unique\l_ptr\&lt; stxxl::completion\l_handler_impl \&gt;">
<polygon fill="none" stroke="black" points="524,-0.5 524,-41.5 640,-41.5 640,-0.5 524,-0.5"/>
<text text-anchor="start" x="532" y="-29.5" font-family="Helvetica,sans-Serif" font-size="10.00">stxxl::compat_unique</text>
<text text-anchor="start" x="532" y="-18.5" font-family="Helvetica,sans-Serif" font-size="10.00">_ptr&lt; stxxl::completion</text>
<text text-anchor="middle" x="582" y="-7.5" font-family="Helvetica,sans-Serif" font-size="10.00">_handler_impl &gt;</text>
</a>
</g>
</g>
<!-- Node12&#45;&gt;Node14 -->
<g id="edge17" class="edge"><title>Node12&#45;&gt;Node14</title>
<path fill="none" stroke="orange" stroke-dasharray="5,2" d="M374.257,-27.1511C378.564,-26.7135 382.842,-26.3227 387,-26 432.851,-22.4414 484.962,-21.2561 523.621,-20.9251"/>
<polygon fill="orange" stroke="orange" points="373.756,-23.6849 364.194,-28.2474 374.514,-30.6437 373.756,-23.6849"/>
<text text-anchor="start" x="403" y="-40" font-family="Helvetica,sans-Serif" font-size="10.00"> &lt; stxxl::completion</text>
<text text-anchor="middle" x="446.5" y="-29" font-family="Helvetica,sans-Serif" font-size="10.00">_handler_impl &gt;</text>
</g>
<!-- Node13 -->
<g id="node13" class="node"><title>Node13</title>
<g id="a_node13"><a xlink:href="classstxxl_1_1completion__handler.html" target="_top" xlink:title="Completion handler class (Loki&#45;style). ">
<polygon fill="none" stroke="black" points="786,-14.5 786,-33.5 914,-33.5 914,-14.5 786,-14.5"/>
<text text-anchor="middle" x="850" y="-21.5" font-family="Helvetica,sans-Serif" font-size="10.00">stxxl::completion_handler</text>
</a>
</g>
</g>
<!-- Node13&#45;&gt;Node3 -->
<g id="edge15" class="edge"><title>Node13&#45;&gt;Node3</title>
<path fill="none" stroke="#9a32cd" stroke-dasharray="5,2" d="M924.483,-22.5965C952.371,-25.5846 982.739,-33.5357 1005,-52 1022.22,-66.2806 1007.44,-82.9261 1023,-99 1027.11,-103.244 1032.25,-106.629 1037.63,-109.315"/>
<polygon fill="#9a32cd" stroke="#9a32cd" points="924.607,-19.0941 914.341,-21.7099 923.998,-26.0675 924.607,-19.0941"/>
<text text-anchor="middle" x="968.5" y="-55" font-family="Helvetica,sans-Serif" font-size="10.00"> m_on_complete</text>
</g>
<!-- Node14&#45;&gt;Node13 -->
<g id="edge16" class="edge"><title>Node14&#45;&gt;Node13</title>
<path fill="none" stroke="#9a32cd" stroke-dasharray="5,2" d="M650.129,-21.7571C691.825,-22.2274 745.078,-22.8279 785.981,-23.2893"/>
<polygon fill="#9a32cd" stroke="#9a32cd" points="650.103,-18.2567 640.064,-21.6436 650.024,-25.2562 650.103,-18.2567"/>
<text text-anchor="middle" x="713" y="-27" font-family="Helvetica,sans-Serif" font-size="10.00"> m_ptr</text>
</g>
<!-- Node15 -->
<g id="node15" class="node"><title>Node15</title>
<g id="a_node15"><a xlink:href="classstxxl_1_1counting__ptr.html" target="_top" xlink:title="High&#45;performance smart pointer used as a wrapping reference counting pointer. ">
<polygon fill="none" stroke="black" points="1023,-60 1023,-90 1120,-90 1120,-60 1023,-60"/>
<text text-anchor="start" x="1031" y="-78" font-family="Helvetica,sans-Serif" font-size="10.00">stxxl::counting_ptr</text>
<text text-anchor="middle" x="1071.5" y="-67" font-family="Helvetica,sans-Serif" font-size="10.00">&lt; Type &gt;</text>
</a>
</g>
</g>
<!-- Node15&#45;&gt;Node2 -->
<g id="edge18" class="edge"><title>Node15&#45;&gt;Node2</title>
<path fill="none" stroke="orange" stroke-dasharray="5,2" d="M1130.08,-76.1931C1149.77,-77.0514 1171.9,-78.5141 1192,-81 1197.75,-81.7115 1203.76,-82.6409 1209.7,-83.6761"/>
<polygon fill="orange" stroke="orange" points="1130.16,-72.6936 1120.03,-75.7972 1129.89,-79.6882 1130.16,-72.6936"/>
<text text-anchor="middle" x="1165" y="-84" font-family="Helvetica,sans-Serif" font-size="10.00"> &lt; request &gt;</text>
</g>
</g>
</svg>
