<?xml version="1.0" encoding="UTF-8" standalone="no"?>
<!DOCTYPE svg PUBLIC "-//W3C//DTD SVG 1.1//EN"
 "http://www.w3.org/Graphics/SVG/1.1/DTD/svg11.dtd">
<!-- Generated by graphviz version 2.38.0 (20140413.2041)
 -->
<!-- Title: stxxl::matrix_operation_statistic Pages: 1 -->
<svg width="682pt" height="88pt"
 viewBox="0.00 0.00 682.00 88.00" xmlns="http://www.w3.org/2000/svg" xmlns:xlink="http://www.w3.org/1999/xlink">
<g id="graph0" class="graph" transform="scale(1 1) rotate(0) translate(4 84)">
<title>stxxl::matrix_operation_statistic</title>
<!-- Node1 -->
<g id="node1" class="node"><title>Node1</title>
<polygon fill="#bfbfbf" stroke="black" points="558,-18.5 558,-48.5 674,-48.5 674,-18.5 558,-18.5"/>
<text text-anchor="start" x="566" y="-36.5" font-family="Helvetica,sans-Serif" font-size="10.00">stxxl::matrix_operation</text>
<text text-anchor="middle" x="616" y="-25.5" font-family="Helvetica,sans-Serif" font-size="10.00">_statistic</text>
</g>
<!-- Node2 -->
<g id="node2" class="node"><title>Node2</title>
<g id="a_node2"><a xlink:href="classstxxl_1_1singleton.html" target="_top" xlink:title="stxxl::singleton\&lt; matrix\l_operation_statistic \&gt;">
<polygon fill="none" stroke="black" points="402,-49.5 402,-79.5 521,-79.5 521,-49.5 402,-49.5"/>
<text text-anchor="start" x="410" y="-67.5" font-family="Helvetica,sans-Serif" font-size="10.00">stxxl::singleton&lt; matrix</text>
<text text-anchor="middle" x="461.5" y="-56.5" font-family="Helvetica,sans-Serif" font-size="10.00">_operation_statistic &gt;</text>
</a>
</g>
</g>
<!-- Node2&#45;&gt;Node1 -->
<g id="edge1" class="edge"><title>Node2&#45;&gt;Node1</title>
<path fill="none" stroke="midnightblue" d="M531.061,-50.563C540.028,-48.7402 549.138,-46.8883 557.889,-45.1094"/>
<polygon fill="midnightblue" stroke="midnightblue" points="530.127,-47.1813 521.024,-52.6032 531.521,-54.041 530.127,-47.1813"/>
</g>
<!-- Node3 -->
<g id="node3" class="node"><title>Node3</title>
<g id="a_node3"><a xlink:href="classstxxl_1_1noncopyable.html" target="_top" xlink:title="stxxl::noncopyable">
<polygon fill="none" stroke="black" points="0,-57 0,-76 98,-76 98,-57 0,-57"/>
<text text-anchor="middle" x="49" y="-64" font-family="Helvetica,sans-Serif" font-size="10.00">stxxl::noncopyable</text>
</a>
</g>
</g>
<!-- Node3&#45;&gt;Node2 -->
<g id="edge2" class="edge"><title>Node3&#45;&gt;Node2</title>
<path fill="none" stroke="#8b1a1a" d="M108.342,-69.2951C110.93,-69.3739 113.492,-69.443 116,-69.5 235.08,-72.205 264.952,-73.3863 384,-69.5 389.72,-69.3133 395.677,-69.0482 401.63,-68.7364"/>
<polygon fill="#8b1a1a" stroke="#8b1a1a" points="108.407,-65.7953 98.2925,-68.9484 108.166,-72.7911 108.407,-65.7953"/>
</g>
<!-- Node4 -->
<g id="node4" class="node"><title>Node4</title>
<g id="a_node4"><a xlink:href="classstxxl_1_1singleton.html" target="_top" xlink:title="stxxl::singleton\&lt; INSTANCE,\l destroy_on_exit \&gt;">
<polygon fill="none" stroke="black" points="135,-24.5 135,-54.5 281,-54.5 281,-24.5 135,-24.5"/>
<text text-anchor="start" x="143" y="-42.5" font-family="Helvetica,sans-Serif" font-size="10.00">stxxl::singleton&lt; INSTANCE,</text>
<text text-anchor="middle" x="208" y="-31.5" font-family="Helvetica,sans-Serif" font-size="10.00"> destroy_on_exit &gt;</text>
</a>
</g>
</g>
<!-- Node3&#45;&gt;Node4 -->
<g id="edge4" class="edge"><title>Node3&#45;&gt;Node4</title>
<path fill="none" stroke="#8b1a1a" d="M108.332,-56.4684C116.964,-54.9839 125.945,-53.4393 134.818,-51.9134"/>
<polygon fill="#8b1a1a" stroke="#8b1a1a" points="107.648,-53.0345 98.3862,-58.1788 108.835,-59.9332 107.648,-53.0345"/>
</g>
<!-- Node4&#45;&gt;Node2 -->
<g id="edge3" class="edge"><title>Node4&#45;&gt;Node2</title>
<path fill="none" stroke="orange" stroke-dasharray="5,2" d="M291.396,-40.3347C320.727,-41.4051 353.93,-43.5022 384,-47.5 389.799,-48.271 395.809,-49.2626 401.794,-50.379"/>
<polygon fill="orange" stroke="orange" points="291.305,-36.8298 281.195,-39.9974 291.074,-43.826 291.305,-36.8298"/>
<text text-anchor="start" x="299" y="-61.5" font-family="Helvetica,sans-Serif" font-size="10.00"> &lt; matrix_operation</text>
<text text-anchor="middle" x="341.5" y="-50.5" font-family="Helvetica,sans-Serif" font-size="10.00">_statistic &gt;</text>
</g>
<!-- Node5 -->
<g id="node5" class="node"><title>Node5</title>
<g id="a_node5"><a xlink:href="structstxxl_1_1matrix__operation__statistic__dataset.html" target="_top" xlink:title="stxxl::matrix_operation\l_statistic_dataset">
<polygon fill="none" stroke="black" points="403.5,-0.5 403.5,-30.5 519.5,-30.5 519.5,-0.5 403.5,-0.5"/>
<text text-anchor="start" x="411.5" y="-18.5" font-family="Helvetica,sans-Serif" font-size="10.00">stxxl::matrix_operation</text>
<text text-anchor="middle" x="461.5" y="-7.5" font-family="Helvetica,sans-Serif" font-size="10.00">_statistic_dataset</text>
</a>
</g>
</g>
<!-- Node5&#45;&gt;Node1 -->
<g id="edge5" class="edge"><title>Node5&#45;&gt;Node1</title>
<path fill="none" stroke="midnightblue" d="M529.814,-23.4453C539.209,-24.5541 548.787,-25.6847 557.967,-26.7683"/>
<polygon fill="midnightblue" stroke="midnightblue" points="530.061,-19.9502 519.719,-22.2537 529.24,-26.9019 530.061,-19.9502"/>
</g>
</g>
</svg>
