<?xml version="1.0" encoding="UTF-8" standalone="no"?>
<!DOCTYPE svg PUBLIC "-//W3C//DTD SVG 1.1//EN"
 "http://www.w3.org/Graphics/SVG/1.1/DTD/svg11.dtd">
<!-- Generated by graphviz version 2.26.3 (20100126.1600)
 -->
<!-- Title: stxxl::SR Pages: 1 -->
<svg width="172pt" height="274pt"
 viewBox="0.00 0.00 172.00 274.00" xmlns="http://www.w3.org/2000/svg" xmlns:xlink="http://www.w3.org/1999/xlink">
<g id="graph1" class="graph" transform="scale(1 1) rotate(0) translate(4 270)">
<title>stxxl::SR</title>
<!-- Node1 -->
<g id="node1" class="node"><title>Node1</title>
<polygon fill="#bfbfbf" stroke="black" points="42,-0.5 42,-21.5 100,-21.5 100,-0.5 42,-0.5"/>
<text text-anchor="middle" x="71" y="-8.5" font-family="Helvetica,sans-Serif" font-size="10.00">stxxl::SR</text>
</g>
<!-- Node2 -->
<g id="node2" class="node"><title>Node2</title>
<a xlink:href="structstxxl_1_1striping.html" target="_top" xlink:title="Striping disk allocation scheme functor. ">
<polygon fill="none" stroke="black" points="89.5,-60.5 89.5,-81.5 164.5,-81.5 164.5,-60.5 89.5,-60.5"/>
<text text-anchor="middle" x="127" y="-68.5" font-family="Helvetica,sans-Serif" font-size="10.00">stxxl::striping</text>
</a>
</g>
<!-- Node2&#45;&gt;Node1 -->
<g id="edge2" class="edge"><title>Node2&#45;&gt;Node1</title>
<path fill="none" stroke="midnightblue" d="M109.906,-52.6846C100.415,-42.5161 88.9432,-30.2249 80.925,-21.6339"/>
<polygon fill="midnightblue" stroke="midnightblue" points="107.606,-55.3507 116.988,-60.2732 112.724,-50.5745 107.606,-55.3507"/>
</g>
<!-- Node3 -->
<g id="node4" class="node"><title>Node3</title>
<a xlink:href="structstxxl_1_1choose__int__types.html" target="_top" xlink:title="stxxl::choose_int_types\l\&lt; my_pointer_size \&gt;">
<polygon fill="none" stroke="black" points="0,-145 0,-179 120,-179 120,-145 0,-145"/>
<text text-anchor="start" x="8" y="-166" font-family="Helvetica,sans-Serif" font-size="10.00">stxxl::choose_int_types</text>
<text text-anchor="middle" x="60" y="-153" font-family="Helvetica,sans-Serif" font-size="10.00">&lt; my_pointer_size &gt;</text>
</a>
</g>
<!-- Node3&#45;&gt;Node1 -->
<g id="edge8" class="edge"><title>Node3&#45;&gt;Node1</title>
<path fill="none" stroke="#9a32cd" stroke-dasharray="5,2" d="M54.5768,-134.926C51.2951,-114.258 48.5267,-85.15 53,-60 55.444,-46.259 61.4614,-31.3181 65.8685,-21.5936"/>
<polygon fill="#9a32cd" stroke="#9a32cd" points="51.1488,-135.643 56.3041,-144.899 58.0461,-134.448 51.1488,-135.643"/>
<text text-anchor="middle" x="67" y="-68.5" font-family="Helvetica,sans-Serif" font-size="10.00"> offset</text>
</g>
<!-- Node3&#45;&gt;Node2 -->
<g id="edge4" class="edge"><title>Node3&#45;&gt;Node2</title>
<path fill="none" stroke="#9a32cd" stroke-dasharray="5,2" d="M78.8036,-136.461C92.175,-118.3 109.443,-94.8467 119.262,-81.5097"/>
<polygon fill="#9a32cd" stroke="#9a32cd" points="75.7127,-134.756 72.6022,-144.884 81.3497,-138.906 75.7127,-134.756"/>
<text text-anchor="middle" x="118.5" y="-117" font-family="Helvetica,sans-Serif" font-size="10.00"> begin</text>
<text text-anchor="middle" x="118.5" y="-104" font-family="Helvetica,sans-Serif" font-size="10.00">diff</text>
</g>
<!-- Node4 -->
<g id="node6" class="node"><title>Node4</title>
<a xlink:href="structstxxl_1_1choose__int__types.html" target="_top" xlink:title="stxxl::choose_int_types\l\&lt; PtrSize \&gt;">
<polygon fill="none" stroke="black" points="0,-231 0,-265 120,-265 120,-231 0,-231"/>
<text text-anchor="start" x="8" y="-252" font-family="Helvetica,sans-Serif" font-size="10.00">stxxl::choose_int_types</text>
<text text-anchor="middle" x="60" y="-239" font-family="Helvetica,sans-Serif" font-size="10.00">&lt; PtrSize &gt;</text>
</a>
</g>
<!-- Node4&#45;&gt;Node3 -->
<g id="edge6" class="edge"><title>Node4&#45;&gt;Node3</title>
<path fill="none" stroke="orange" stroke-dasharray="5,2" d="M60,-220.342C60,-206.774 60,-190.861 60,-179.084"/>
<polygon fill="orange" stroke="orange" points="56.5001,-220.597 60,-230.597 63.5001,-220.597 56.5001,-220.597"/>
<text text-anchor="middle" x="106.5" y="-202.5" font-family="Helvetica,sans-Serif" font-size="10.00"> &lt; my_pointer_size &gt;</text>
</g>
</g>
</svg>
