<?xml version="1.0" encoding="UTF-8" standalone="no"?>
<!DOCTYPE svg PUBLIC "-//W3C//DTD SVG 1.1//EN"
 "http://www.w3.org/Graphics/SVG/1.1/DTD/svg11.dtd">
<!-- Generated by graphviz version 2.26.3 (20100126.1600)
 -->
<!-- Title: stxxl::stream::sorted_runs&lt; TriggerEntryType, CompareType &gt; Pages: 1 -->
<svg width="234pt" height="114pt"
 viewBox="0.00 0.00 234.00 114.00" xmlns="http://www.w3.org/2000/svg" xmlns:xlink="http://www.w3.org/1999/xlink">
<g id="graph1" class="graph" transform="scale(1 1) rotate(0) translate(4 110)">
<title>stxxl::stream::sorted_runs&lt; TriggerEntryType, CompareType &gt;</title>
<!-- Node1 -->
<g id="node1" class="node"><title>Node1</title>
<polygon fill="#bfbfbf" stroke="black" points="46,-0.5 46,-47.5 174,-47.5 174,-0.5 46,-0.5"/>
<text text-anchor="start" x="54" y="-34.5" font-family="Helvetica,sans-Serif" font-size="10.00">stxxl::stream::sorted</text>
<text text-anchor="start" x="54" y="-21.5" font-family="Helvetica,sans-Serif" font-size="10.00">_runs&lt; TriggerEntryType,</text>
<text text-anchor="middle" x="110" y="-8.5" font-family="Helvetica,sans-Serif" font-size="10.00"> CompareType &gt;</text>
</g>
<!-- Node2 -->
<g id="node2" class="node"><title>Node2</title>
<a xlink:href="classstxxl_1_1noncopyable.html" target="_top" xlink:title="stxxl::noncopyable">
<polygon fill="none" stroke="black" points="0,-84.5 0,-105.5 98,-105.5 98,-84.5 0,-84.5"/>
<text text-anchor="middle" x="49" y="-92.5" font-family="Helvetica,sans-Serif" font-size="10.00">stxxl::noncopyable</text>
</a>
</g>
<!-- Node2&#45;&gt;Node1 -->
<g id="edge2" class="edge"><title>Node2&#45;&gt;Node1</title>
<path fill="none" stroke="#8b1a1a" d="M64.9707,-76.4111C72.5553,-67.5831 81.7042,-56.9345 89.7686,-47.548"/>
<polygon fill="#8b1a1a" stroke="#8b1a1a" points="62.1266,-74.3507 58.2646,-84.2166 67.4361,-78.9124 62.1266,-74.3507"/>
</g>
<!-- Node3 -->
<g id="node4" class="node"><title>Node3</title>
<a xlink:href="classstxxl_1_1counted__object.html" target="_top" xlink:title="Provides reference counting abilities for use with counting_ptr. ">
<polygon fill="none" stroke="black" points="116,-84.5 116,-105.5 226,-105.5 226,-84.5 116,-84.5"/>
<text text-anchor="middle" x="171" y="-92.5" font-family="Helvetica,sans-Serif" font-size="10.00">stxxl::counted_object</text>
</a>
</g>
<!-- Node3&#45;&gt;Node1 -->
<g id="edge4" class="edge"><title>Node3&#45;&gt;Node1</title>
<path fill="none" stroke="midnightblue" d="M155.029,-76.4111C147.445,-67.5831 138.296,-56.9345 130.231,-47.548"/>
<polygon fill="midnightblue" stroke="midnightblue" points="152.564,-78.9124 161.735,-84.2166 157.873,-74.3507 152.564,-78.9124"/>
</g>
</g>
</svg>
