<?xml version="1.0" encoding="UTF-8" standalone="no"?>
<!DOCTYPE svg PUBLIC "-//W3C//DTD SVG 1.1//EN"
 "http://www.w3.org/Graphics/SVG/1.1/DTD/svg11.dtd">
<!-- Generated by graphviz version 2.26.3 (20100126.1600)
 -->
<!-- Title: stxxl::interleaved_striping Pages: 1 -->
<svg width="161pt" height="242pt"
 viewBox="0.00 0.00 161.00 242.00" xmlns="http://www.w3.org/2000/svg" xmlns:xlink="http://www.w3.org/1999/xlink">
<g id="graph1" class="graph" transform="scale(1 1) rotate(0) translate(4 238)">
<title>stxxl::interleaved_striping</title>
<!-- Node1 -->
<g id="node1" class="node"><title>Node1</title>
<polygon fill="#bfbfbf" stroke="black" points="14.5,-1 14.5,-35 105.5,-35 105.5,-1 14.5,-1"/>
<text text-anchor="start" x="22.5" y="-22" font-family="Helvetica,sans-Serif" font-size="10.00">stxxl::interleaved</text>
<text text-anchor="middle" x="60" y="-9" font-family="Helvetica,sans-Serif" font-size="10.00">_striping</text>
</g>
<!-- Node2 -->
<g id="node2" class="node"><title>Node2</title>
<a xlink:href="structstxxl_1_1choose__int__types.html" target="_top" xlink:title="stxxl::choose_int_types\l\&lt; my_pointer_size \&gt;">
<polygon fill="none" stroke="black" points="0,-113 0,-147 120,-147 120,-113 0,-113"/>
<text text-anchor="start" x="8" y="-134" font-family="Helvetica,sans-Serif" font-size="10.00">stxxl::choose_int_types</text>
<text text-anchor="middle" x="60" y="-121" font-family="Helvetica,sans-Serif" font-size="10.00">&lt; my_pointer_size &gt;</text>
</a>
</g>
<!-- Node2&#45;&gt;Node1 -->
<g id="edge2" class="edge"><title>Node2&#45;&gt;Node1</title>
<path fill="none" stroke="#9a32cd" stroke-dasharray="5,2" d="M60,-102.746C60,-81.6769 60,-53.1594 60,-35.1705"/>
<polygon fill="#9a32cd" stroke="#9a32cd" points="56.5001,-102.99 60,-112.99 63.5001,-102.99 56.5001,-102.99"/>
<text text-anchor="middle" x="81" y="-84.5" font-family="Helvetica,sans-Serif" font-size="10.00"> diff</text>
<text text-anchor="middle" x="81" y="-71.5" font-family="Helvetica,sans-Serif" font-size="10.00">begindisk</text>
<text text-anchor="middle" x="81" y="-58.5" font-family="Helvetica,sans-Serif" font-size="10.00">nruns</text>
</g>
<!-- Node3 -->
<g id="node4" class="node"><title>Node3</title>
<a xlink:href="structstxxl_1_1choose__int__types.html" target="_top" xlink:title="stxxl::choose_int_types\l\&lt; PtrSize \&gt;">
<polygon fill="none" stroke="black" points="0,-199 0,-233 120,-233 120,-199 0,-199"/>
<text text-anchor="start" x="8" y="-220" font-family="Helvetica,sans-Serif" font-size="10.00">stxxl::choose_int_types</text>
<text text-anchor="middle" x="60" y="-207" font-family="Helvetica,sans-Serif" font-size="10.00">&lt; PtrSize &gt;</text>
</a>
</g>
<!-- Node3&#45;&gt;Node2 -->
<g id="edge4" class="edge"><title>Node3&#45;&gt;Node2</title>
<path fill="none" stroke="orange" stroke-dasharray="5,2" d="M60,-188.342C60,-174.774 60,-158.861 60,-147.084"/>
<polygon fill="orange" stroke="orange" points="56.5001,-188.597 60,-198.597 63.5001,-188.597 56.5001,-188.597"/>
<text text-anchor="middle" x="106.5" y="-170.5" font-family="Helvetica,sans-Serif" font-size="10.00"> &lt; my_pointer_size &gt;</text>
</g>
</g>
</svg>
