<?xml version="1.0" encoding="UTF-8" standalone="no"?>
<!DOCTYPE svg PUBLIC "-//W3C//DTD SVG 1.1//EN"
 "http://www.w3.org/Graphics/SVG/1.1/DTD/svg11.dtd">
<!-- Generated by graphviz version 2.26.3 (20100126.1600)
 -->
<!-- Title: stxxl::hash_map::hash_map&lt; KeyType, MappedType, HashType, KeyCompareType, SubBlockSize, SubBlocksPerBlock, AllocatorType &gt;::Cmp Pages: 1 -->
<svg width="564pt" height="82pt"
 viewBox="0.00 0.00 564.00 82.00" xmlns="http://www.w3.org/2000/svg" xmlns:xlink="http://www.w3.org/1999/xlink">
<g id="graph1" class="graph" transform="scale(1 1) rotate(0) translate(4 78)">
<title>stxxl::hash_map::hash_map&lt; KeyType, MappedType, HashType, KeyCompareType, SubBlockSize, SubBlocksPerBlock, AllocatorType &gt;::Cmp</title>
<!-- Node1 -->
<g id="node1" class="node"><title>Node1</title>
<polygon fill="#bfbfbf" stroke="black" points="378.5,-0.5 378.5,-73.5 555.5,-73.5 555.5,-0.5 378.5,-0.5"/>
<text text-anchor="start" x="386.5" y="-60.5" font-family="Helvetica,sans-Serif" font-size="10.00">stxxl::hash_map::hash</text>
<text text-anchor="start" x="386.5" y="-47.5" font-family="Helvetica,sans-Serif" font-size="10.00">_map&lt; KeyType, MappedType,</text>
<text text-anchor="start" x="386.5" y="-34.5" font-family="Helvetica,sans-Serif" font-size="10.00"> HashType, KeyCompareType,</text>
<text text-anchor="start" x="386.5" y="-21.5" font-family="Helvetica,sans-Serif" font-size="10.00"> SubBlockSize, SubBlocksPerBlock,</text>
<text text-anchor="middle" x="467" y="-8.5" font-family="Helvetica,sans-Serif" font-size="10.00"> AllocatorType &gt;::Cmp</text>
</g>
<!-- Node2 -->
<g id="node2" class="node"><title>Node2</title>
<a xlink:href="classstxxl_1_1hash__map_1_1hash__map.html" target="_top" xlink:title="Main implementation of external memory hash map. ">
<polygon fill="none" stroke="black" points="136.5,-0.5 136.5,-73.5 313.5,-73.5 313.5,-0.5 136.5,-0.5"/>
<text text-anchor="start" x="144.5" y="-60.5" font-family="Helvetica,sans-Serif" font-size="10.00">stxxl::hash_map::hash</text>
<text text-anchor="start" x="144.5" y="-47.5" font-family="Helvetica,sans-Serif" font-size="10.00">_map&lt; KeyType, MappedType,</text>
<text text-anchor="start" x="144.5" y="-34.5" font-family="Helvetica,sans-Serif" font-size="10.00"> HashType, KeyCompareType,</text>
<text text-anchor="start" x="144.5" y="-21.5" font-family="Helvetica,sans-Serif" font-size="10.00"> SubBlockSize, SubBlocksPerBlock,</text>
<text text-anchor="middle" x="225" y="-8.5" font-family="Helvetica,sans-Serif" font-size="10.00"> AllocatorType &gt;</text>
</a>
</g>
<!-- Node2&#45;&gt;Node1 -->
<g id="edge2" class="edge"><title>Node2&#45;&gt;Node1</title>
<path fill="none" stroke="#9a32cd" stroke-dasharray="5,2" d="M323.945,-37C341.936,-37 360.6,-37 378.273,-37"/>
<polygon fill="#9a32cd" stroke="#9a32cd" points="323.738,-33.5001 313.738,-37 323.738,-40.5001 323.738,-33.5001"/>
<text text-anchor="middle" x="346" y="-41" font-family="Helvetica,sans-Serif" font-size="10.00"> map_</text>
</g>
<!-- Node3 -->
<g id="node4" class="node"><title>Node3</title>
<a xlink:href="classstxxl_1_1noncopyable.html" target="_top" xlink:title="stxxl::noncopyable">
<polygon fill="none" stroke="black" points="0,-26.5 0,-47.5 98,-47.5 98,-26.5 0,-26.5"/>
<text text-anchor="middle" x="49" y="-34.5" font-family="Helvetica,sans-Serif" font-size="10.00">stxxl::noncopyable</text>
</a>
</g>
<!-- Node3&#45;&gt;Node2 -->
<g id="edge4" class="edge"><title>Node3&#45;&gt;Node2</title>
<path fill="none" stroke="#8b1a1a" d="M108.119,-37C117.256,-37 126.86,-37 136.472,-37"/>
<polygon fill="#8b1a1a" stroke="#8b1a1a" points="108.026,-33.5001 98.0258,-37 108.026,-40.5001 108.026,-33.5001"/>
</g>
</g>
</svg>
