<?xml version="1.0" encoding="UTF-8" standalone="no"?>
<!DOCTYPE svg PUBLIC "-//W3C//DTD SVG 1.1//EN"
 "http://www.w3.org/Graphics/SVG/1.1/DTD/svg11.dtd">
<!-- Generated by graphviz version 2.38.0 (20140413.2041)
 -->
<!-- Title: stxxl::interleaved_striping Pages: 1 -->
<svg width="246pt" height="142pt"
 viewBox="0.00 0.00 246.00 142.00" xmlns="http://www.w3.org/2000/svg" xmlns:xlink="http://www.w3.org/1999/xlink">
<g id="graph0" class="graph" transform="scale(1 1) rotate(0) translate(4 138)">
<title>stxxl::interleaved_striping</title>
<!-- Node1 -->
<g id="node1" class="node"><title>Node1</title>
<polygon fill="#bfbfbf" stroke="black" points="0,-52 0,-82 91,-82 91,-52 0,-52"/>
<text text-anchor="start" x="8" y="-70" font-family="Helvetica,sans-Serif" font-size="10.00">stxxl::interleaved</text>
<text text-anchor="middle" x="45.5" y="-59" font-family="Helvetica,sans-Serif" font-size="10.00">_striping</text>
</g>
<!-- Node2 -->
<g id="node2" class="node"><title>Node2</title>
<g id="a_node2"><a xlink:href="structstxxl_1_1first__disk__only.html" target="_top" xlink:title="stxxl::first_disk_only">
<polygon fill="none" stroke="black" points="129,-114.5 129,-133.5 236,-133.5 236,-114.5 129,-114.5"/>
<text text-anchor="middle" x="182.5" y="-121.5" font-family="Helvetica,sans-Serif" font-size="10.00">stxxl::first_disk_only</text>
</a>
</g>
</g>
<!-- Node1&#45;&gt;Node2 -->
<g id="edge1" class="edge"><title>Node1&#45;&gt;Node2</title>
<path fill="none" stroke="midnightblue" d="M85.5359,-86.442C98.5889,-92.6697 113.302,-99.3977 127,-105 135.069,-108.3 143.948,-111.552 152.154,-114.406"/>
<polygon fill="midnightblue" stroke="midnightblue" points="86.8908,-83.2097 76.3631,-82.0189 83.8504,-89.5149 86.8908,-83.2097"/>
</g>
<!-- Node3 -->
<g id="node3" class="node"><title>Node3</title>
<g id="a_node3"><a xlink:href="structstxxl_1_1interleaved__FR.html" target="_top" xlink:title="stxxl::interleaved_FR">
<polygon fill="none" stroke="black" points="127.5,-76.5 127.5,-95.5 237.5,-95.5 237.5,-76.5 127.5,-76.5"/>
<text text-anchor="middle" x="182.5" y="-83.5" font-family="Helvetica,sans-Serif" font-size="10.00">stxxl::interleaved_FR</text>
</a>
</g>
</g>
<!-- Node1&#45;&gt;Node3 -->
<g id="edge2" class="edge"><title>Node1&#45;&gt;Node3</title>
<path fill="none" stroke="midnightblue" d="M101.003,-74.6708C109.602,-75.881 118.494,-77.1324 127.09,-78.3423"/>
<polygon fill="midnightblue" stroke="midnightblue" points="101.468,-71.2019 91.0782,-73.274 100.493,-78.1336 101.468,-71.2019"/>
</g>
<!-- Node4 -->
<g id="node4" class="node"><title>Node4</title>
<g id="a_node4"><a xlink:href="structstxxl_1_1interleaved__RC.html" target="_top" xlink:title="stxxl::interleaved_RC">
<polygon fill="none" stroke="black" points="127,-38.5 127,-57.5 238,-57.5 238,-38.5 127,-38.5"/>
<text text-anchor="middle" x="182.5" y="-45.5" font-family="Helvetica,sans-Serif" font-size="10.00">stxxl::interleaved_RC</text>
</a>
</g>
</g>
<!-- Node1&#45;&gt;Node4 -->
<g id="edge3" class="edge"><title>Node1&#45;&gt;Node4</title>
<path fill="none" stroke="midnightblue" d="M101.145,-59.3092C109.54,-58.1276 118.211,-56.9073 126.612,-55.725"/>
<polygon fill="midnightblue" stroke="midnightblue" points="100.493,-55.8664 91.0782,-60.726 101.468,-62.7981 100.493,-55.8664"/>
</g>
<!-- Node5 -->
<g id="node5" class="node"><title>Node5</title>
<g id="a_node5"><a xlink:href="structstxxl_1_1interleaved__SR.html" target="_top" xlink:title="stxxl::interleaved_SR">
<polygon fill="none" stroke="black" points="127.5,-0.5 127.5,-19.5 237.5,-19.5 237.5,-0.5 127.5,-0.5"/>
<text text-anchor="middle" x="182.5" y="-7.5" font-family="Helvetica,sans-Serif" font-size="10.00">stxxl::interleaved_SR</text>
</a>
</g>
</g>
<!-- Node1&#45;&gt;Node5 -->
<g id="edge4" class="edge"><title>Node1&#45;&gt;Node5</title>
<path fill="none" stroke="midnightblue" d="M85.5359,-47.558C98.5889,-41.3303 113.302,-34.6023 127,-29 135.069,-25.6998 143.948,-22.4483 152.154,-19.5936"/>
<polygon fill="midnightblue" stroke="midnightblue" points="83.8504,-44.4851 76.3631,-51.9811 86.8908,-50.7903 83.8504,-44.4851"/>
</g>
</g>
</svg>
