<?xml version="1.0" encoding="UTF-8" standalone="no"?>
<!DOCTYPE svg PUBLIC "-//W3C//DTD SVG 1.1//EN"
 "http://www.w3.org/Graphics/SVG/1.1/DTD/svg11.dtd">
<!-- Generated by graphviz version 2.26.3 (20100126.1600)
 -->
<!-- Title: stxxl::priority_queue_local::loser_tree&lt; ValueType, CompareType, MaxArity &gt;::Entry Pages: 1 -->
<svg width="183pt" height="228pt"
 viewBox="0.00 0.00 183.00 228.00" xmlns="http://www.w3.org/2000/svg" xmlns:xlink="http://www.w3.org/1999/xlink">
<g id="graph1" class="graph" transform="scale(1 1) rotate(0) translate(4 224)">
<title>stxxl::priority_queue_local::loser_tree&lt; ValueType, CompareType, MaxArity &gt;::Entry</title>
<!-- Node1 -->
<g id="node1" class="node"><title>Node1</title>
<polygon fill="#bfbfbf" stroke="black" points="0,-0.5 0,-47.5 164,-47.5 164,-0.5 0,-0.5"/>
<text text-anchor="start" x="8" y="-34.5" font-family="Helvetica,sans-Serif" font-size="10.00">stxxl::priority_queue</text>
<text text-anchor="start" x="8" y="-21.5" font-family="Helvetica,sans-Serif" font-size="10.00">_local::loser_tree&lt; ValueType,</text>
<text text-anchor="middle" x="82" y="-8.5" font-family="Helvetica,sans-Serif" font-size="10.00"> CompareType, MaxArity &gt;::Entry</text>
</g>
<!-- Node2 -->
<g id="node2" class="node"><title>Node2</title>
<a xlink:href="structstxxl_1_1choose__int__types.html" target="_top" xlink:title="stxxl::choose_int_types\l\&lt; my_pointer_size \&gt;">
<polygon fill="none" stroke="black" points="22,-99 22,-133 142,-133 142,-99 22,-99"/>
<text text-anchor="start" x="30" y="-120" font-family="Helvetica,sans-Serif" font-size="10.00">stxxl::choose_int_types</text>
<text text-anchor="middle" x="82" y="-107" font-family="Helvetica,sans-Serif" font-size="10.00">&lt; my_pointer_size &gt;</text>
</a>
</g>
<!-- Node2&#45;&gt;Node1 -->
<g id="edge2" class="edge"><title>Node2&#45;&gt;Node1</title>
<path fill="none" stroke="#9a32cd" stroke-dasharray="5,2" d="M82,-88.4891C82,-75.5472 82,-60.263 82,-47.8232"/>
<polygon fill="#9a32cd" stroke="#9a32cd" points="78.5001,-88.6955 82,-98.6955 85.5001,-88.6955 78.5001,-88.6955"/>
<text text-anchor="middle" x="95.5" y="-70.5" font-family="Helvetica,sans-Serif" font-size="10.00"> index</text>
</g>
<!-- Node3 -->
<g id="node4" class="node"><title>Node3</title>
<a xlink:href="structstxxl_1_1choose__int__types.html" target="_top" xlink:title="stxxl::choose_int_types\l\&lt; PtrSize \&gt;">
<polygon fill="none" stroke="black" points="22,-185 22,-219 142,-219 142,-185 22,-185"/>
<text text-anchor="start" x="30" y="-206" font-family="Helvetica,sans-Serif" font-size="10.00">stxxl::choose_int_types</text>
<text text-anchor="middle" x="82" y="-193" font-family="Helvetica,sans-Serif" font-size="10.00">&lt; PtrSize &gt;</text>
</a>
</g>
<!-- Node3&#45;&gt;Node2 -->
<g id="edge4" class="edge"><title>Node3&#45;&gt;Node2</title>
<path fill="none" stroke="orange" stroke-dasharray="5,2" d="M82,-174.342C82,-160.774 82,-144.861 82,-133.084"/>
<polygon fill="orange" stroke="orange" points="78.5001,-174.597 82,-184.597 85.5001,-174.597 78.5001,-174.597"/>
<text text-anchor="middle" x="128.5" y="-156.5" font-family="Helvetica,sans-Serif" font-size="10.00"> &lt; my_pointer_size &gt;</text>
</g>
</g>
</svg>
