<?xml version="1.0" encoding="UTF-8" standalone="no"?>
<!DOCTYPE svg PUBLIC "-//W3C//DTD SVG 1.1//EN"
 "http://www.w3.org/Graphics/SVG/1.1/DTD/svg11.dtd">
<!-- Generated by graphviz version 2.26.3 (20100126.1600)
 -->
<!-- Title: stxxl::priority_queue_local::ext_merger&lt; BlockType, CompareType, Arity, AllocStr &gt;::sequence_state Pages: 1 -->
<svg width="1772pt" height="765pt"
 viewBox="0.00 0.00 1772.00 765.00" xmlns="http://www.w3.org/2000/svg" xmlns:xlink="http://www.w3.org/1999/xlink">
<g id="graph1" class="graph" transform="scale(1 1) rotate(0) translate(4 761)">
<title>stxxl::priority_queue_local::ext_merger&lt; BlockType, CompareType, Arity, AllocStr &gt;::sequence_state</title>
<!-- Node1 -->
<g id="node1" class="node"><title>Node1</title>
<polygon fill="#bfbfbf" stroke="black" points="1012.5,-419 1012.5,-479 1167.5,-479 1167.5,-419 1012.5,-419"/>
<text text-anchor="start" x="1020.5" y="-466" font-family="Helvetica,sans-Serif" font-size="10.00">stxxl::priority_queue</text>
<text text-anchor="start" x="1020.5" y="-453" font-family="Helvetica,sans-Serif" font-size="10.00">_local::ext_merger&lt; BlockType,</text>
<text text-anchor="start" x="1020.5" y="-440" font-family="Helvetica,sans-Serif" font-size="10.00"> CompareType, Arity, AllocStr</text>
<text text-anchor="middle" x="1090" y="-427" font-family="Helvetica,sans-Serif" font-size="10.00"> &gt;::sequence_state</text>
</g>
<!-- Node3 -->
<g id="node4" class="node"><title>Node3</title>
<a xlink:href="classstxxl_1_1priority__queue__local_1_1ext__merger.html" target="_top" xlink:title="External merger, based on the loser tree data structure. ">
<polygon fill="none" stroke="black" points="1606.5,-432.5 1606.5,-479.5 1763.5,-479.5 1763.5,-432.5 1606.5,-432.5"/>
<text text-anchor="start" x="1614.5" y="-466.5" font-family="Helvetica,sans-Serif" font-size="10.00">stxxl::priority_queue</text>
<text text-anchor="start" x="1614.5" y="-453.5" font-family="Helvetica,sans-Serif" font-size="10.00">_local::ext_merger&lt; BlockType,</text>
<text text-anchor="middle" x="1685" y="-440.5" font-family="Helvetica,sans-Serif" font-size="10.00"> CompareType, Arity, AllocStr &gt;</text>
</a>
</g>
<!-- Node1&#45;&gt;Node3 -->
<g id="edge70" class="edge"><title>Node1&#45;&gt;Node3</title>
<path fill="none" stroke="#9a32cd" stroke-dasharray="5,2" d="M1178.02,-450.036C1293.75,-451.397 1495.33,-453.769 1606.25,-455.074"/>
<polygon fill="#9a32cd" stroke="#9a32cd" points="1177.83,-446.533 1167.79,-449.915 1177.74,-453.533 1177.83,-446.533"/>
<text text-anchor="middle" x="1383" y="-456" font-family="Helvetica,sans-Serif" font-size="10.00"> states</text>
</g>
<!-- Node2 -->
<g id="node2" class="node"><title>Node2</title>
<a xlink:href="classstxxl_1_1noncopyable.html" target="_top" xlink:title="stxxl::noncopyable">
<polygon fill="none" stroke="black" points="609,-464.5 609,-485.5 707,-485.5 707,-464.5 609,-464.5"/>
<text text-anchor="middle" x="658" y="-472.5" font-family="Helvetica,sans-Serif" font-size="10.00">stxxl::noncopyable</text>
</a>
</g>
<!-- Node2&#45;&gt;Node1 -->
<g id="edge2" class="edge"><title>Node2&#45;&gt;Node1</title>
<path fill="none" stroke="#8b1a1a" d="M717.562,-471.415C794.199,-466.803 927.507,-458.78 1012.12,-453.687"/>
<polygon fill="#8b1a1a" stroke="#8b1a1a" points="716.907,-467.948 707.135,-472.043 717.328,-474.936 716.907,-467.948"/>
</g>
<!-- Node2&#45;&gt;Node3 -->
<g id="edge6" class="edge"><title>Node2&#45;&gt;Node3</title>
<path fill="none" stroke="#8b1a1a" d="M717.677,-481.823C770.521,-487.271 849.787,-494 919,-494 919,-494 919,-494 1492,-494 1530.08,-494 1571.6,-486.791 1606.34,-478.653"/>
<polygon fill="#8b1a1a" stroke="#8b1a1a" points="717.782,-478.314 707.472,-480.752 717.052,-485.276 717.782,-478.314"/>
</g>
<!-- Node4 -->
<g id="node7" class="node"><title>Node4</title>
<a xlink:href="classstxxl_1_1priority__queue__local_1_1loser__tree.html" target="_top" xlink:title="stxxl::priority_queue\l_local::loser_tree\&lt; self\l_type, CompareType, Arity \&gt;">
<polygon fill="none" stroke="black" points="1186.5,-208.5 1186.5,-255.5 1329.5,-255.5 1329.5,-208.5 1186.5,-208.5"/>
<text text-anchor="start" x="1194.5" y="-242.5" font-family="Helvetica,sans-Serif" font-size="10.00">stxxl::priority_queue</text>
<text text-anchor="start" x="1194.5" y="-229.5" font-family="Helvetica,sans-Serif" font-size="10.00">_local::loser_tree&lt; self</text>
<text text-anchor="middle" x="1258" y="-216.5" font-family="Helvetica,sans-Serif" font-size="10.00">_type, CompareType, Arity &gt;</text>
</a>
</g>
<!-- Node2&#45;&gt;Node4 -->
<g id="edge10" class="edge"><title>Node2&#45;&gt;Node4</title>
<path fill="none" stroke="#8b1a1a" d="M686.729,-460.265C777.116,-419.316 1057.45,-305.314 1188.79,-255.528"/>
<polygon fill="#8b1a1a" stroke="#8b1a1a" points="685.251,-457.092 677.622,-464.444 688.171,-463.455 685.251,-457.092"/>
</g>
<!-- Node2&#45;&gt;Node4 -->
<g id="edge12" class="edge"><title>Node2&#45;&gt;Node4</title>
<path fill="none" stroke="#8b1a1a" d="M701.817,-460.981C811.044,-420.716 1094.83,-305.842 1209.18,-255.673"/>
<polygon fill="#8b1a1a" stroke="#8b1a1a" points="700.604,-457.698 692.414,-464.42 703.007,-464.273 700.604,-457.698"/>
</g>
<!-- Node11 -->
<g id="node25" class="node"><title>Node11</title>
<a xlink:href="classstxxl_1_1priority__queue__local_1_1loser__tree.html" target="_top" xlink:title="Loser tree from Knuth, &quot;Sorting and Searching&quot;, Section 5.4.1. ">
<polygon fill="none" stroke="black" points="844.5,-127.5 844.5,-174.5 993.5,-174.5 993.5,-127.5 844.5,-127.5"/>
<text text-anchor="start" x="852.5" y="-161.5" font-family="Helvetica,sans-Serif" font-size="10.00">stxxl::priority_queue</text>
<text text-anchor="start" x="852.5" y="-148.5" font-family="Helvetica,sans-Serif" font-size="10.00">_local::loser_tree&lt; ValueType,</text>
<text text-anchor="middle" x="919" y="-135.5" font-family="Helvetica,sans-Serif" font-size="10.00"> CompareType, MaxArity &gt;</text>
</a>
</g>
<!-- Node2&#45;&gt;Node11 -->
<g id="edge32" class="edge"><title>Node2&#45;&gt;Node11</title>
<path fill="none" stroke="#8b1a1a" d="M673.494,-457.293C713.265,-418.008 816.514,-327.268 826,-309 852.677,-257.625 810.354,-227.107 844,-180 845.357,-178.1 846.838,-176.288 848.421,-174.564"/>
<polygon fill="#8b1a1a" stroke="#8b1a1a" points="670.979,-454.858 666.432,-464.427 675.954,-459.782 670.979,-454.858"/>
</g>
<!-- Node2&#45;&gt;Node11 -->
<g id="edge34" class="edge"><title>Node2&#45;&gt;Node11</title>
<path fill="none" stroke="#8b1a1a" d="M683.498,-458.147C728.293,-422.745 817.229,-343.891 826,-327 852.677,-275.625 810.354,-245.107 844,-198 851.127,-188.022 861.651,-180.501 872.577,-174.581"/>
<polygon fill="#8b1a1a" stroke="#8b1a1a" points="681.17,-455.524 675.42,-464.423 685.465,-461.052 681.17,-455.524"/>
</g>
<!-- Node12 -->
<g id="node33" class="node"><title>Node12</title>
<a xlink:href="classstxxl_1_1read__write__pool.html" target="_top" xlink:title="stxxl::read_write_pool\l\&lt; block_type \&gt;">
<polygon fill="none" stroke="black" points="1436,-561 1436,-595 1548,-595 1548,-561 1436,-561"/>
<text text-anchor="start" x="1444" y="-582" font-family="Helvetica,sans-Serif" font-size="10.00">stxxl::read_write_pool</text>
<text text-anchor="middle" x="1492" y="-569" font-family="Helvetica,sans-Serif" font-size="10.00">&lt; block_type &gt;</text>
</a>
</g>
<!-- Node2&#45;&gt;Node12 -->
<g id="edge46" class="edge"><title>Node2&#45;&gt;Node12</title>
<path fill="none" stroke="#8b1a1a" d="M695.295,-488.947C714.888,-495.731 739.454,-503.396 762,-508 891.031,-534.348 1288.24,-563.824 1435.93,-574.167"/>
<polygon fill="#8b1a1a" stroke="#8b1a1a" points="696.419,-485.632 685.824,-485.602 694.088,-492.232 696.419,-485.632"/>
</g>
<!-- Node13 -->
<g id="node36" class="node"><title>Node13</title>
<a xlink:href="classstxxl_1_1prefetch__pool.html" target="_top" xlink:title="Implements dynamically resizable prefetching pool. ">
<polygon fill="none" stroke="black" points="868,-659 868,-693 970,-693 970,-659 868,-659"/>
<text text-anchor="start" x="876" y="-680" font-family="Helvetica,sans-Serif" font-size="10.00">stxxl::prefetch_pool</text>
<text text-anchor="middle" x="919" y="-667" font-family="Helvetica,sans-Serif" font-size="10.00">&lt; BlockType &gt;</text>
</a>
</g>
<!-- Node2&#45;&gt;Node13 -->
<g id="edge50" class="edge"><title>Node2&#45;&gt;Node13</title>
<path fill="none" stroke="#8b1a1a" d="M665.198,-495.195C678.609,-529.815 710.791,-600.303 762,-637 778.893,-649.106 828.728,-660.249 867.769,-667.497"/>
<polygon fill="#8b1a1a" stroke="#8b1a1a" points="668.42,-493.819 661.638,-485.679 661.864,-496.272 668.42,-493.819"/>
</g>
<!-- Node16 -->
<g id="node44" class="node"><title>Node16</title>
<a xlink:href="classstxxl_1_1write__pool.html" target="_top" xlink:title="Implements dynamically resizable buffered writing pool. ">
<polygon fill="none" stroke="black" points="872,-560 872,-594 966,-594 966,-560 872,-560"/>
<text text-anchor="start" x="880" y="-581" font-family="Helvetica,sans-Serif" font-size="10.00">stxxl::write_pool&lt;</text>
<text text-anchor="middle" x="919" y="-568" font-family="Helvetica,sans-Serif" font-size="10.00"> BlockType &gt;</text>
</a>
</g>
<!-- Node2&#45;&gt;Node16 -->
<g id="edge60" class="edge"><title>Node2&#45;&gt;Node16</title>
<path fill="none" stroke="#8b1a1a" d="M677.578,-491.99C697.486,-508.351 729.892,-532.539 762,-546 797.231,-560.77 839.909,-568.617 871.87,-572.717"/>
<polygon fill="#8b1a1a" stroke="#8b1a1a" points="679.76,-489.253 669.848,-485.512 675.264,-494.618 679.76,-489.253"/>
</g>
<!-- Node17 -->
<g id="node47" class="node"><title>Node17</title>
<a xlink:href="classstxxl_1_1read__write__pool.html" target="_top" xlink:title="Implements dynamically resizable buffered writing and prefetched reading pool. ">
<polygon fill="none" stroke="black" points="1202,-609 1202,-643 1314,-643 1314,-609 1202,-609"/>
<text text-anchor="start" x="1210" y="-630" font-family="Helvetica,sans-Serif" font-size="10.00">stxxl::read_write_pool</text>
<text text-anchor="middle" x="1258" y="-617" font-family="Helvetica,sans-Serif" font-size="10.00">&lt; BlockType &gt;</text>
</a>
</g>
<!-- Node2&#45;&gt;Node17 -->
<g id="edge64" class="edge"><title>Node2&#45;&gt;Node17</title>
<path fill="none" stroke="#8b1a1a" d="M674.261,-493.035C693.562,-513.597 727.5,-547.177 762,-569 795.343,-590.09 805.535,-594.226 844,-603 969.452,-631.618 1121.55,-631.485 1201.93,-628.799"/>
<polygon fill="#8b1a1a" stroke="#8b1a1a" points="676.739,-490.56 667.381,-485.593 671.599,-495.312 676.739,-490.56"/>
</g>
<!-- Node3&#45;&gt;Node1 -->
<g id="edge4" class="edge"><title>Node3&#45;&gt;Node1</title>
<path fill="none" stroke="#9a32cd" stroke-dasharray="5,2" d="M1596.25,-443.116C1593.47,-442.736 1590.71,-442.363 1588,-442 1481.87,-427.788 1454.92,-415.215 1348,-421 1287.27,-424.286 1218.84,-431.893 1167.72,-438.35"/>
<polygon fill="#9a32cd" stroke="#9a32cd" points="1596.02,-446.617 1606.4,-444.517 1596.98,-439.683 1596.02,-446.617"/>
<text text-anchor="middle" x="1383" y="-425" font-family="Helvetica,sans-Serif" font-size="10.00"> merger</text>
</g>
<!-- Node4&#45;&gt;Node3 -->
<g id="edge8" class="edge"><title>Node4&#45;&gt;Node3</title>
<path fill="none" stroke="#9a32cd" stroke-dasharray="5,2" d="M1312.65,-260.24C1378.19,-294.159 1491.31,-352.886 1588,-404 1605.4,-413.198 1624.5,-423.412 1641.12,-432.336"/>
<polygon fill="#9a32cd" stroke="#9a32cd" points="1314.22,-257.109 1303.73,-255.622 1311,-263.326 1314.22,-257.109"/>
<text text-anchor="middle" x="1492" y="-385" font-family="Helvetica,sans-Serif" font-size="10.00"> tree</text>
</g>
<!-- Node5 -->
<g id="node11" class="node"><title>Node5</title>
<a xlink:href="classstxxl_1_1priority__queue__local_1_1internal__bounded__stack.html" target="_top" xlink:title="stxxl::priority_queue\l_local::internal_bounded\l_stack\&lt; unsigned_type, arity \&gt;">
<polygon fill="none" stroke="black" points="582,-0.5 582,-47.5 734,-47.5 734,-0.5 582,-0.5"/>
<text text-anchor="start" x="590" y="-34.5" font-family="Helvetica,sans-Serif" font-size="10.00">stxxl::priority_queue</text>
<text text-anchor="start" x="590" y="-21.5" font-family="Helvetica,sans-Serif" font-size="10.00">_local::internal_bounded</text>
<text text-anchor="middle" x="658" y="-8.5" font-family="Helvetica,sans-Serif" font-size="10.00">_stack&lt; unsigned_type, arity &gt;</text>
</a>
</g>
<!-- Node5&#45;&gt;Node4 -->
<g id="edge14" class="edge"><title>Node5&#45;&gt;Node4</title>
<path fill="none" stroke="#9a32cd" stroke-dasharray="5,2" d="M744.56,-12.8094C852.903,-3.41753 1039.79,-2.91734 1168,-88 1211.85,-117.097 1238.3,-175.627 1250.3,-208.399"/>
<polygon fill="#9a32cd" stroke="#9a32cd" points="743.966,-9.34902 734.326,-13.7435 744.602,-16.3201 743.966,-9.34902"/>
<text text-anchor="middle" x="919" y="-26" font-family="Helvetica,sans-Serif" font-size="10.00"> free_slots</text>
</g>
<!-- Node5&#45;&gt;Node11 -->
<g id="edge36" class="edge"><title>Node5&#45;&gt;Node11</title>
<path fill="none" stroke="#9a32cd" stroke-dasharray="5,2" d="M730.229,-51.4297C734.899,-53.2913 739.521,-55.1587 744,-57 780.813,-72.1338 791.451,-73.2374 826,-93 834.566,-97.8998 835.762,-100.568 844,-106 854.902,-113.189 866.943,-120.626 878.128,-127.334"/>
<polygon fill="#9a32cd" stroke="#9a32cd" points="731.195,-48.0482 720.609,-47.627 728.622,-54.5581 731.195,-48.0482"/>
<text text-anchor="middle" x="794" y="-97" font-family="Helvetica,sans-Serif" font-size="10.00"> free_slots</text>
</g>
<!-- Node6 -->
<g id="node13" class="node"><title>Node6</title>
<a xlink:href="classstxxl_1_1priority__queue__local_1_1internal__bounded__stack.html" target="_top" xlink:title="Similar to std::stack, with the following differences: ">
<polygon fill="none" stroke="black" points="250.5,-30.5 250.5,-77.5 405.5,-77.5 405.5,-30.5 250.5,-30.5"/>
<text text-anchor="start" x="258.5" y="-64.5" font-family="Helvetica,sans-Serif" font-size="10.00">stxxl::priority_queue</text>
<text text-anchor="start" x="258.5" y="-51.5" font-family="Helvetica,sans-Serif" font-size="10.00">_local::internal_bounded</text>
<text text-anchor="middle" x="328" y="-38.5" font-family="Helvetica,sans-Serif" font-size="10.00">_stack&lt; ValueType, MaxSize &gt;</text>
</a>
</g>
<!-- Node6&#45;&gt;Node5 -->
<g id="edge16" class="edge"><title>Node6&#45;&gt;Node5</title>
<path fill="none" stroke="orange" stroke-dasharray="5,2" d="M415.812,-40.918C418.572,-40.5953 421.306,-40.2881 424,-40 476.636,-34.3708 536.156,-30.3328 581.995,-27.7215"/>
<polygon fill="orange" stroke="orange" points="415.243,-37.4614 405.741,-42.1481 416.092,-44.4098 415.243,-37.4614"/>
<text text-anchor="middle" x="489" y="-44" font-family="Helvetica,sans-Serif" font-size="10.00"> &lt; unsigned_type, arity &gt;</text>
</g>
<!-- Node10 -->
<g id="node22" class="node"><title>Node10</title>
<a xlink:href="classstxxl_1_1priority__queue__local_1_1internal__bounded__stack.html" target="_top" xlink:title="stxxl::priority_queue\l_local::internal_bounded\l_stack\&lt; unsigned_type, MaxArity \&gt;">
<polygon fill="none" stroke="black" points="572,-66.5 572,-113.5 744,-113.5 744,-66.5 572,-66.5"/>
<text text-anchor="start" x="580" y="-100.5" font-family="Helvetica,sans-Serif" font-size="10.00">stxxl::priority_queue</text>
<text text-anchor="start" x="580" y="-87.5" font-family="Helvetica,sans-Serif" font-size="10.00">_local::internal_bounded</text>
<text text-anchor="middle" x="658" y="-74.5" font-family="Helvetica,sans-Serif" font-size="10.00">_stack&lt; unsigned_type, MaxArity &gt;</text>
</a>
</g>
<!-- Node6&#45;&gt;Node10 -->
<g id="edge28" class="edge"><title>Node6&#45;&gt;Node10</title>
<path fill="none" stroke="orange" stroke-dasharray="5,2" d="M415.903,-63.5894C464.154,-68.8531 523.751,-75.3547 571.74,-80.5899"/>
<polygon fill="orange" stroke="orange" points="416.108,-60.0911 405.788,-62.4859 415.349,-67.0498 416.108,-60.0911"/>
<text text-anchor="middle" x="489" y="-83" font-family="Helvetica,sans-Serif" font-size="10.00"> &lt; unsigned_type, MaxArity &gt;</text>
</g>
<!-- Node7 -->
<g id="node15" class="node"><title>Node7</title>
<a xlink:href="structstxxl_1_1priority__queue__local_1_1loser__tree_1_1Entry.html" target="_top" xlink:title="type of nodes in the loser tree ">
<polygon fill="none" stroke="black" points="576,-233.5 576,-280.5 740,-280.5 740,-233.5 576,-233.5"/>
<text text-anchor="start" x="584" y="-267.5" font-family="Helvetica,sans-Serif" font-size="10.00">stxxl::priority_queue</text>
<text text-anchor="start" x="584" y="-254.5" font-family="Helvetica,sans-Serif" font-size="10.00">_local::loser_tree&lt; ValueType,</text>
<text text-anchor="middle" x="658" y="-241.5" font-family="Helvetica,sans-Serif" font-size="10.00"> CompareType, MaxArity &gt;::Entry</text>
</a>
</g>
<!-- Node7&#45;&gt;Node4 -->
<g id="edge18" class="edge"><title>Node7&#45;&gt;Node4</title>
<path fill="none" stroke="#9a32cd" stroke-dasharray="5,2" d="M750.049,-232.104C754.074,-231.331 758.071,-230.624 762,-230 911.469,-206.269 1089.48,-216.064 1186.4,-224.538"/>
<polygon fill="#9a32cd" stroke="#9a32cd" points="749.107,-228.724 740.006,-234.148 750.504,-235.583 749.107,-228.724"/>
<text text-anchor="middle" x="919" y="-224" font-family="Helvetica,sans-Serif" font-size="10.00"> entry</text>
</g>
<!-- Node7&#45;&gt;Node11 -->
<g id="edge38" class="edge"><title>Node7&#45;&gt;Node11</title>
<path fill="none" stroke="#9a32cd" stroke-dasharray="5,2" d="M733.09,-227.819C736.962,-225.107 740.635,-222.172 744,-219 756.728,-207.001 748.09,-194.607 762,-184 775.289,-173.867 810.616,-165.982 844.402,-160.465"/>
<polygon fill="#9a32cd" stroke="#9a32cd" points="730.885,-225.075 724.338,-233.405 734.651,-230.975 730.885,-225.075"/>
<text text-anchor="middle" x="794" y="-188" font-family="Helvetica,sans-Serif" font-size="10.00"> entry</text>
</g>
<!-- Node8 -->
<g id="node17" class="node"><title>Node8</title>
<a xlink:href="structstxxl_1_1choose__int__types.html" target="_top" xlink:title="stxxl::choose_int_types\l\&lt; my_pointer_size \&gt;">
<polygon fill="none" stroke="black" points="268,-292 268,-326 388,-326 388,-292 268,-292"/>
<text text-anchor="start" x="276" y="-313" font-family="Helvetica,sans-Serif" font-size="10.00">stxxl::choose_int_types</text>
<text text-anchor="middle" x="328" y="-300" font-family="Helvetica,sans-Serif" font-size="10.00">&lt; my_pointer_size &gt;</text>
</a>
</g>
<!-- Node8&#45;&gt;Node1 -->
<g id="edge72" class="edge"><title>Node8&#45;&gt;Node1</title>
<path fill="none" stroke="#9a32cd" stroke-dasharray="5,2" d="M398.063,-321.873C540.691,-348.077 863.813,-407.443 1012.49,-434.759"/>
<polygon fill="#9a32cd" stroke="#9a32cd" points="398.579,-318.409 388.111,-320.044 397.314,-325.293 398.579,-318.409"/>
<text text-anchor="middle" x="658" y="-389" font-family="Helvetica,sans-Serif" font-size="10.00"> current</text>
</g>
<!-- Node8&#45;&gt;Node4 -->
<g id="edge24" class="edge"><title>Node8&#45;&gt;Node4</title>
<path fill="none" stroke="#9a32cd" stroke-dasharray="5,2" d="M398.053,-307.227C480.804,-304.802 622.578,-299.613 744,-290 902.231,-277.473 1086.99,-254.596 1186.21,-241.632"/>
<polygon fill="#9a32cd" stroke="#9a32cd" points="397.907,-303.729 388.012,-307.516 398.109,-310.726 397.907,-303.729"/>
<text text-anchor="middle" x="794" y="-345" font-family="Helvetica,sans-Serif" font-size="10.00"> segment_size</text>
<text text-anchor="middle" x="794" y="-332" font-family="Helvetica,sans-Serif" font-size="10.00">mem_cons_</text>
<text text-anchor="middle" x="794" y="-319" font-family="Helvetica,sans-Serif" font-size="10.00">k</text>
<text text-anchor="middle" x="794" y="-306" font-family="Helvetica,sans-Serif" font-size="10.00">size_</text>
<text text-anchor="middle" x="794" y="-293" font-family="Helvetica,sans-Serif" font-size="10.00">logK</text>
</g>
<!-- Node8&#45;&gt;Node7 -->
<g id="edge20" class="edge"><title>Node8&#45;&gt;Node7</title>
<path fill="none" stroke="#9a32cd" stroke-dasharray="5,2" d="M392.389,-289.295C402.884,-286.545 413.693,-283.985 424,-282 473.948,-272.378 530.658,-266.203 575.74,-262.396"/>
<polygon fill="#9a32cd" stroke="#9a32cd" points="391.192,-285.992 382.449,-291.977 393.016,-292.751 391.192,-285.992"/>
<text text-anchor="middle" x="489" y="-286" font-family="Helvetica,sans-Serif" font-size="10.00"> index</text>
</g>
<!-- Node8&#45;&gt;Node11 -->
<g id="edge40" class="edge"><title>Node8&#45;&gt;Node11</title>
<path fill="none" stroke="#9a32cd" stroke-dasharray="5,2" d="M355.111,-285.491C397.806,-250.149 484.859,-184.731 572,-159 662.734,-132.208 772.688,-135.269 844.162,-141.643"/>
<polygon fill="#9a32cd" stroke="#9a32cd" points="352.84,-282.827 347.42,-291.931 357.334,-288.194 352.84,-282.827"/>
<text text-anchor="middle" x="658" y="-215" font-family="Helvetica,sans-Serif" font-size="10.00"> segment_size</text>
<text text-anchor="middle" x="658" y="-202" font-family="Helvetica,sans-Serif" font-size="10.00">mem_cons_</text>
<text text-anchor="middle" x="658" y="-189" font-family="Helvetica,sans-Serif" font-size="10.00">k</text>
<text text-anchor="middle" x="658" y="-176" font-family="Helvetica,sans-Serif" font-size="10.00">size_</text>
<text text-anchor="middle" x="658" y="-163" font-family="Helvetica,sans-Serif" font-size="10.00">logK</text>
</g>
<!-- Node8&#45;&gt;Node13 -->
<g id="edge52" class="edge"><title>Node8&#45;&gt;Node13</title>
<path fill="none" stroke="#9a32cd" stroke-dasharray="5,2" d="M349.052,-334.295C406.804,-401.631 575.863,-585.262 762,-661 795.478,-674.622 836.173,-678.184 867.742,-678.439"/>
<polygon fill="#9a32cd" stroke="#9a32cd" points="351.405,-331.66 342.26,-326.311 346.073,-336.196 351.405,-331.66"/>
<text text-anchor="middle" x="658" y="-655" font-family="Helvetica,sans-Serif" font-size="10.00"> free_blocks_size</text>
</g>
<!-- Node9 -->
<g id="node19" class="node"><title>Node9</title>
<a xlink:href="structstxxl_1_1choose__int__types.html" target="_top" xlink:title="stxxl::choose_int_types\l\&lt; PtrSize \&gt;">
<polygon fill="none" stroke="black" points="0,-292 0,-326 120,-326 120,-292 0,-292"/>
<text text-anchor="start" x="8" y="-313" font-family="Helvetica,sans-Serif" font-size="10.00">stxxl::choose_int_types</text>
<text text-anchor="middle" x="60" y="-300" font-family="Helvetica,sans-Serif" font-size="10.00">&lt; PtrSize &gt;</text>
</a>
</g>
<!-- Node9&#45;&gt;Node8 -->
<g id="edge22" class="edge"><title>Node9&#45;&gt;Node8</title>
<path fill="none" stroke="orange" stroke-dasharray="5,2" d="M130.18,-309C172.863,-309 226.818,-309 267.593,-309"/>
<polygon fill="orange" stroke="orange" points="130.144,-305.5 120.144,-309 130.144,-312.5 130.144,-305.5"/>
<text text-anchor="middle" x="185" y="-313" font-family="Helvetica,sans-Serif" font-size="10.00"> &lt; my_pointer_size &gt;</text>
</g>
<!-- Node10&#45;&gt;Node4 -->
<g id="edge26" class="edge"><title>Node10&#45;&gt;Node4</title>
<path fill="none" stroke="#9a32cd" stroke-dasharray="5,2" d="M754.344,-79.2035C861.928,-71.7124 1037.99,-73.4276 1168,-144 1197.38,-159.951 1223.79,-188.269 1240.29,-208.473"/>
<polygon fill="#9a32cd" stroke="#9a32cd" points="753.866,-75.7292 744.15,-79.9552 754.381,-82.7102 753.866,-75.7292"/>
<text text-anchor="middle" x="919" y="-92" font-family="Helvetica,sans-Serif" font-size="10.00"> free_slots</text>
</g>
<!-- Node10&#45;&gt;Node11 -->
<g id="edge42" class="edge"><title>Node10&#45;&gt;Node11</title>
<path fill="none" stroke="#9a32cd" stroke-dasharray="5,2" d="M754.254,-107.216C777.82,-111.895 802.903,-117.269 826,-123 831.973,-124.482 838.134,-126.111 844.307,-127.814"/>
<polygon fill="#9a32cd" stroke="#9a32cd" points="754.744,-103.745 744.257,-105.253 753.396,-110.614 754.744,-103.745"/>
<text text-anchor="middle" x="794" y="-127" font-family="Helvetica,sans-Serif" font-size="10.00"> free_slots</text>
</g>
<!-- Node11&#45;&gt;Node4 -->
<g id="edge30" class="edge"><title>Node11&#45;&gt;Node4</title>
<path fill="none" stroke="orange" stroke-dasharray="5,2" d="M1003.8,-147.195C1053.02,-147.569 1115.48,-152.544 1168,-171 1191.33,-179.197 1214.35,-194.978 1231.27,-208.435"/>
<polygon fill="orange" stroke="orange" points="1003.51,-143.694 993.501,-147.182 1003.5,-150.694 1003.51,-143.694"/>
<text text-anchor="start" x="1028.5" y="-188" font-family="Helvetica,sans-Serif" font-size="10.00"> &lt; self_type, CompareType,</text>
<text text-anchor="middle" x="1090" y="-175" font-family="Helvetica,sans-Serif" font-size="10.00"> Arity &gt;</text>
</g>
<!-- Node12&#45;&gt;Node3 -->
<g id="edge44" class="edge"><title>Node12&#45;&gt;Node3</title>
<path fill="none" stroke="#9a32cd" stroke-dasharray="5,2" d="M1527.96,-555.272C1562.06,-533.716 1613.08,-501.464 1647.63,-479.619"/>
<polygon fill="#9a32cd" stroke="#9a32cd" points="1525.83,-552.477 1519.24,-560.779 1529.57,-558.394 1525.83,-552.477"/>
<text text-anchor="middle" x="1577" y="-531" font-family="Helvetica,sans-Serif" font-size="10.00"> pool</text>
</g>
<!-- Node13&#45;&gt;Node12 -->
<g id="edge48" class="edge"><title>Node13&#45;&gt;Node12</title>
<path fill="none" stroke="#9a32cd" stroke-dasharray="5,2" d="M980.082,-678.652C1061.14,-680.766 1208.19,-679.703 1330,-652 1370.15,-642.868 1380.61,-640.255 1418,-623 1435.07,-615.125 1453.11,-604.211 1467.11,-595.104"/>
<polygon fill="#9a32cd" stroke="#9a32cd" points="980.148,-675.152 970.052,-678.365 979.948,-682.149 980.148,-675.152"/>
<text text-anchor="middle" x="1258" y="-677" font-family="Helvetica,sans-Serif" font-size="10.00"> p_pool</text>
</g>
<!-- Node13&#45;&gt;Node17 -->
<g id="edge66" class="edge"><title>Node13&#45;&gt;Node17</title>
<path fill="none" stroke="#9a32cd" stroke-dasharray="5,2" d="M980.156,-665.183C990.764,-663.391 1001.69,-661.598 1012,-660 1076.97,-649.924 1151.83,-639.787 1201.74,-633.238"/>
<polygon fill="#9a32cd" stroke="#9a32cd" points="979.385,-661.763 970.115,-666.894 980.561,-668.664 979.385,-661.763"/>
<text text-anchor="middle" x="1090" y="-664" font-family="Helvetica,sans-Serif" font-size="10.00"> p_pool</text>
</g>
<!-- Node14 -->
<g id="node40" class="node"><title>Node14</title>
<a xlink:href="structstxxl_1_1compat__hash__map.html" target="_top" xlink:title="stxxl::compat_hash\l_map\&lt; bid_type, busy\l_entry, bid_hash \&gt;">
<polygon fill="none" stroke="black" points="601.5,-707.5 601.5,-754.5 714.5,-754.5 714.5,-707.5 601.5,-707.5"/>
<text text-anchor="start" x="609.5" y="-741.5" font-family="Helvetica,sans-Serif" font-size="10.00">stxxl::compat_hash</text>
<text text-anchor="start" x="609.5" y="-728.5" font-family="Helvetica,sans-Serif" font-size="10.00">_map&lt; bid_type, busy</text>
<text text-anchor="middle" x="658" y="-715.5" font-family="Helvetica,sans-Serif" font-size="10.00">_entry, bid_hash &gt;</text>
</a>
</g>
<!-- Node14&#45;&gt;Node13 -->
<g id="edge54" class="edge"><title>Node14&#45;&gt;Node13</title>
<path fill="none" stroke="#9a32cd" stroke-dasharray="5,2" d="M724.5,-716.987C769.045,-707.6 826.811,-695.427 867.785,-686.792"/>
<polygon fill="#9a32cd" stroke="#9a32cd" points="723.696,-713.579 714.633,-719.066 725.14,-720.429 723.696,-713.579"/>
<text text-anchor="middle" x="794" y="-712" font-family="Helvetica,sans-Serif" font-size="10.00"> busy_blocks</text>
</g>
<!-- Node15 -->
<g id="node42" class="node"><title>Node15</title>
<a xlink:href="structstxxl_1_1compat__hash__map.html" target="_top" xlink:title="stxxl::compat_hash\l_map\&lt; KeyType, MappedType,\l HashType \&gt;">
<polygon fill="none" stroke="black" points="251,-707.5 251,-754.5 405,-754.5 405,-707.5 251,-707.5"/>
<text text-anchor="start" x="259" y="-741.5" font-family="Helvetica,sans-Serif" font-size="10.00">stxxl::compat_hash</text>
<text text-anchor="start" x="259" y="-728.5" font-family="Helvetica,sans-Serif" font-size="10.00">_map&lt; KeyType, MappedType,</text>
<text text-anchor="middle" x="328" y="-715.5" font-family="Helvetica,sans-Serif" font-size="10.00"> HashType &gt;</text>
</a>
</g>
<!-- Node15&#45;&gt;Node14 -->
<g id="edge56" class="edge"><title>Node15&#45;&gt;Node14</title>
<path fill="none" stroke="orange" stroke-dasharray="5,2" d="M415.419,-731C474.355,-731 550.389,-731 601.489,-731"/>
<polygon fill="orange" stroke="orange" points="415.37,-727.5 405.37,-731 415.37,-734.5 415.37,-727.5"/>
<text text-anchor="start" x="436" y="-748" font-family="Helvetica,sans-Serif" font-size="10.00"> &lt; bid_type, busy_entry,</text>
<text text-anchor="middle" x="489" y="-735" font-family="Helvetica,sans-Serif" font-size="10.00"> bid_hash &gt;</text>
</g>
<!-- Node16&#45;&gt;Node12 -->
<g id="edge58" class="edge"><title>Node16&#45;&gt;Node12</title>
<path fill="none" stroke="#9a32cd" stroke-dasharray="5,2" d="M976.641,-577.101C1086.95,-577.293 1326.64,-577.711 1435.8,-577.902"/>
<polygon fill="#9a32cd" stroke="#9a32cd" points="976.385,-573.6 966.378,-577.083 976.372,-580.6 976.385,-573.6"/>
<text text-anchor="middle" x="1258" y="-581" font-family="Helvetica,sans-Serif" font-size="10.00"> w_pool</text>
</g>
<!-- Node16&#45;&gt;Node17 -->
<g id="edge68" class="edge"><title>Node16&#45;&gt;Node17</title>
<path fill="none" stroke="#9a32cd" stroke-dasharray="5,2" d="M976.327,-578.758C1027.09,-581.098 1103.01,-586.515 1168,-599 1180.98,-601.493 1194.75,-605.111 1207.52,-608.893"/>
<polygon fill="#9a32cd" stroke="#9a32cd" points="976.347,-575.256 966.205,-578.317 976.043,-582.249 976.347,-575.256"/>
<text text-anchor="middle" x="1090" y="-603" font-family="Helvetica,sans-Serif" font-size="10.00"> w_pool</text>
</g>
<!-- Node17&#45;&gt;Node12 -->
<g id="edge62" class="edge"><title>Node17&#45;&gt;Node12</title>
<path fill="none" stroke="orange" stroke-dasharray="5,2" d="M1324.22,-612.417C1359.35,-605.211 1402.06,-596.449 1435.6,-589.57"/>
<polygon fill="orange" stroke="orange" points="1323.14,-609.065 1314.05,-614.503 1324.55,-615.922 1323.14,-609.065"/>
<text text-anchor="middle" x="1383" y="-610" font-family="Helvetica,sans-Serif" font-size="10.00"> &lt; block_type &gt;</text>
</g>
</g>
</svg>
