<?xml version="1.0" encoding="UTF-8" standalone="no"?>
<!DOCTYPE svg PUBLIC "-//W3C//DTD SVG 1.1//EN"
 "http://www.w3.org/Graphics/SVG/1.1/DTD/svg11.dtd">
<!-- Generated by graphviz version 2.26.3 (20100126.1600)
 -->
<!-- Title: stxxl::BID&lt; SIZE &gt; Pages: 1 -->
<svg width="333pt" height="360pt"
 viewBox="0.00 0.00 333.00 360.00" xmlns="http://www.w3.org/2000/svg" xmlns:xlink="http://www.w3.org/1999/xlink">
<g id="graph1" class="graph" transform="scale(1 1) rotate(0) translate(4 356)">
<title>stxxl::BID&lt; SIZE &gt;</title>
<!-- Node1 -->
<g id="node1" class="node"><title>Node1</title>
<polygon fill="#bfbfbf" stroke="black" points="5.5,-0.5 5.5,-21.5 106.5,-21.5 106.5,-0.5 5.5,-0.5"/>
<text text-anchor="middle" x="56" y="-8.5" font-family="Helvetica,sans-Serif" font-size="10.00">stxxl::BID&lt; SIZE &gt;</text>
</g>
<!-- Node2 -->
<g id="node2" class="node"><title>Node2</title>
<a xlink:href="classstxxl_1_1file.html" target="_top" xlink:title="Defines interface of file. ">
<polygon fill="none" stroke="black" points="28,-72.5 28,-93.5 84,-93.5 84,-72.5 28,-72.5"/>
<text text-anchor="middle" x="56" y="-80.5" font-family="Helvetica,sans-Serif" font-size="10.00">stxxl::file</text>
</a>
</g>
<!-- Node2&#45;&gt;Node1 -->
<g id="edge2" class="edge"><title>Node2&#45;&gt;Node1</title>
<path fill="none" stroke="#9a32cd" stroke-dasharray="5,2" d="M56,-62.2348C56,-48.969 56,-32.3188 56,-21.6674"/>
<polygon fill="#9a32cd" stroke="#9a32cd" points="52.5001,-62.3761 56,-72.3762 59.5001,-62.3762 52.5001,-62.3761"/>
<text text-anchor="middle" x="74" y="-44.5" font-family="Helvetica,sans-Serif" font-size="10.00"> storage</text>
</g>
<!-- Node3 -->
<g id="node4" class="node"><title>Node3</title>
<a xlink:href="classstxxl_1_1noncopyable.html" target="_top" xlink:title="stxxl::noncopyable">
<polygon fill="none" stroke="black" points="0,-323.5 0,-344.5 98,-344.5 98,-323.5 0,-323.5"/>
<text text-anchor="middle" x="49" y="-331.5" font-family="Helvetica,sans-Serif" font-size="10.00">stxxl::noncopyable</text>
</a>
</g>
<!-- Node3&#45;&gt;Node2 -->
<g id="edge4" class="edge"><title>Node3&#45;&gt;Node2</title>
<path fill="none" stroke="#8b1a1a" d="M47.3318,-312.856C44.8594,-277.728 41.0208,-205.152 46,-144 47.4457,-126.244 51.2212,-105.867 53.6972,-93.7334"/>
<polygon fill="#8b1a1a" stroke="#8b1a1a" points="43.8735,-313.549 48.1032,-323.263 50.8543,-313.032 43.8735,-313.549"/>
</g>
<!-- Node5 -->
<g id="node8" class="node"><title>Node5</title>
<a xlink:href="classstxxl_1_1mutex.html" target="_top" xlink:title="stxxl::mutex">
<polygon fill="none" stroke="black" points="54.5,-237.5 54.5,-258.5 125.5,-258.5 125.5,-237.5 54.5,-237.5"/>
<text text-anchor="middle" x="90" y="-245.5" font-family="Helvetica,sans-Serif" font-size="10.00">stxxl::mutex</text>
</a>
</g>
<!-- Node3&#45;&gt;Node5 -->
<g id="edge10" class="edge"><title>Node3&#45;&gt;Node5</title>
<path fill="none" stroke="#8b1a1a" d="M58.4235,-314.234C66.6694,-296.937 78.3324,-272.474 84.9315,-258.632"/>
<polygon fill="#8b1a1a" stroke="#8b1a1a" points="55.1715,-312.922 54.0274,-323.455 61.4902,-315.934 55.1715,-312.922"/>
</g>
<!-- Node4 -->
<g id="node6" class="node"><title>Node4</title>
<a xlink:href="classstxxl_1_1atomic__counted__object.html" target="_top" xlink:title="Provides reference counting abilities for use with counting_ptr with mutex locking. ">
<polygon fill="none" stroke="black" points="54.5,-145 54.5,-179 167.5,-179 167.5,-145 54.5,-145"/>
<text text-anchor="start" x="62.5" y="-166" font-family="Helvetica,sans-Serif" font-size="10.00">stxxl::atomic_counted</text>
<text text-anchor="middle" x="111" y="-153" font-family="Helvetica,sans-Serif" font-size="10.00">_object</text>
</a>
</g>
<!-- Node4&#45;&gt;Node2 -->
<g id="edge6" class="edge"><title>Node4&#45;&gt;Node2</title>
<path fill="none" stroke="#9a32cd" stroke-dasharray="5,2" d="M93.0912,-136.276C82.9932,-121.772 70.9227,-104.434 63.3569,-93.5672"/>
<polygon fill="#9a32cd" stroke="#9a32cd" points="90.4797,-138.651 99.0658,-144.858 96.2245,-134.651 90.4797,-138.651"/>
<text text-anchor="middle" x="119" y="-116.5" font-family="Helvetica,sans-Serif" font-size="10.00"> m_request_ref</text>
</g>
<!-- Node5&#45;&gt;Node4 -->
<g id="edge8" class="edge"><title>Node5&#45;&gt;Node4</title>
<path fill="none" stroke="#9a32cd" stroke-dasharray="5,2" d="M88.1907,-227.329C87.9558,-218.195 88.4594,-207.416 91,-198 92.7508,-191.511 95.9124,-184.934 99.2127,-179.208"/>
<polygon fill="#9a32cd" stroke="#9a32cd" points="84.7038,-227.662 88.7563,-237.451 91.6929,-227.271 84.7038,-227.662"/>
<text text-anchor="middle" x="150.5" y="-202.5" font-family="Helvetica,sans-Serif" font-size="10.00"> m_reference_count_mutex</text>
</g>
<!-- Node6 -->
<g id="node11" class="node"><title>Node6</title>
<a xlink:href="structstxxl_1_1choose__int__types.html" target="_top" xlink:title="stxxl::choose_int_types\l\&lt; my_pointer_size \&gt;">
<polygon fill="none" stroke="black" points="172,-231 172,-265 292,-265 292,-231 172,-231"/>
<text text-anchor="start" x="180" y="-252" font-family="Helvetica,sans-Serif" font-size="10.00">stxxl::choose_int_types</text>
<text text-anchor="middle" x="232" y="-239" font-family="Helvetica,sans-Serif" font-size="10.00">&lt; my_pointer_size &gt;</text>
</a>
</g>
<!-- Node6&#45;&gt;Node4 -->
<g id="edge12" class="edge"><title>Node6&#45;&gt;Node4</title>
<path fill="none" stroke="#9a32cd" stroke-dasharray="5,2" d="M224.782,-221.194C221.432,-212.866 216.667,-204.243 210,-198 198.185,-186.937 182.708,-179.221 167.512,-173.86"/>
<polygon fill="#9a32cd" stroke="#9a32cd" points="221.491,-222.388 228.093,-230.675 228.1,-220.08 221.491,-222.388"/>
<text text-anchor="middle" x="262.5" y="-202.5" font-family="Helvetica,sans-Serif" font-size="10.00"> m_reference_count</text>
</g>
<!-- Node7 -->
<g id="node13" class="node"><title>Node7</title>
<a xlink:href="structstxxl_1_1choose__int__types.html" target="_top" xlink:title="stxxl::choose_int_types\l\&lt; PtrSize \&gt;">
<polygon fill="none" stroke="black" points="172,-317 172,-351 292,-351 292,-317 172,-317"/>
<text text-anchor="start" x="180" y="-338" font-family="Helvetica,sans-Serif" font-size="10.00">stxxl::choose_int_types</text>
<text text-anchor="middle" x="232" y="-325" font-family="Helvetica,sans-Serif" font-size="10.00">&lt; PtrSize &gt;</text>
</a>
</g>
<!-- Node7&#45;&gt;Node6 -->
<g id="edge14" class="edge"><title>Node7&#45;&gt;Node6</title>
<path fill="none" stroke="orange" stroke-dasharray="5,2" d="M232,-306.342C232,-292.774 232,-276.861 232,-265.084"/>
<polygon fill="orange" stroke="orange" points="228.5,-306.597 232,-316.597 235.5,-306.597 228.5,-306.597"/>
<text text-anchor="middle" x="278.5" y="-288.5" font-family="Helvetica,sans-Serif" font-size="10.00"> &lt; my_pointer_size &gt;</text>
</g>
</g>
</svg>
