<?xml version="1.0" encoding="UTF-8" standalone="no"?>
<!DOCTYPE svg PUBLIC "-//W3C//DTD SVG 1.1//EN"
 "http://www.w3.org/Graphics/SVG/1.1/DTD/svg11.dtd">
<!-- Generated by graphviz version 2.38.0 (20140413.2041)
 -->
<!-- Title: stxxl::two2one_dim_array_adapter_base&lt; OneDimArrayType, DataType, PosType &gt; Pages: 1 -->
<svg width="640pt" height="110pt"
 viewBox="0.00 0.00 640.00 110.00" xmlns="http://www.w3.org/2000/svg" xmlns:xlink="http://www.w3.org/1999/xlink">
<g id="graph0" class="graph" transform="scale(1 1) rotate(0) translate(4 106)">
<title>stxxl::two2one_dim_array_adapter_base&lt; OneDimArrayType, DataType, PosType &gt;</title>
<!-- Node1 -->
<g id="node1" class="node"><title>Node1</title>
<polygon fill="#bfbfbf" stroke="black" points="0,-25 0,-77 158,-77 158,-25 0,-25"/>
<text text-anchor="start" x="8" y="-65" font-family="Helvetica,sans-Serif" font-size="10.00">stxxl::two2one_dim</text>
<text text-anchor="start" x="8" y="-54" font-family="Helvetica,sans-Serif" font-size="10.00">_array_adapter_base</text>
<text text-anchor="start" x="8" y="-43" font-family="Helvetica,sans-Serif" font-size="10.00">&lt; OneDimArrayType, DataType,</text>
<text text-anchor="middle" x="79" y="-32" font-family="Helvetica,sans-Serif" font-size="10.00"> PosType &gt;</text>
</g>
<!-- Node2 -->
<g id="node2" class="node"><title>Node2</title>
<g id="a_node2"><a xlink:href="structstxxl_1_1two2one__dim__array__adapter__base.html" target="_top" xlink:title="stxxl::two2one_dim\l_array_adapter_base\l\&lt; RunType *, BID\&lt; BlockSize\l \&gt;, PosType \&gt;">
<polygon fill="none" stroke="black" points="330,-25 330,-77 479,-77 479,-25 330,-25"/>
<text text-anchor="start" x="338" y="-65" font-family="Helvetica,sans-Serif" font-size="10.00">stxxl::two2one_dim</text>
<text text-anchor="start" x="338" y="-54" font-family="Helvetica,sans-Serif" font-size="10.00">_array_adapter_base</text>
<text text-anchor="start" x="338" y="-43" font-family="Helvetica,sans-Serif" font-size="10.00">&lt; RunType *, BID&lt; BlockSize</text>
<text text-anchor="middle" x="404.5" y="-32" font-family="Helvetica,sans-Serif" font-size="10.00"> &gt;, PosType &gt;</text>
</a>
</g>
</g>
<!-- Node1&#45;&gt;Node2 -->
<g id="edge1" class="edge"><title>Node1&#45;&gt;Node2</title>
<path fill="none" stroke="orange" stroke-dasharray="5,2" d="M168.588,-51C219.192,-51 281.901,-51 329.796,-51"/>
<polygon fill="orange" stroke="orange" points="168.31,-47.5001 158.31,-51 168.31,-54.5001 168.31,-47.5001"/>
<text text-anchor="start" x="176" y="-65" font-family="Helvetica,sans-Serif" font-size="10.00"> &lt; RunType *, BID&lt; BlockSize</text>
<text text-anchor="middle" x="244" y="-54" font-family="Helvetica,sans-Serif" font-size="10.00"> &gt;, PosType &gt;</text>
</g>
<!-- Node3 -->
<g id="node3" class="node"><title>Node3</title>
<g id="a_node3"><a xlink:href="structstxxl_1_1runs2bid__array__adaptor.html" target="_top" xlink:title="stxxl::runs2bid_array\l_adaptor\&lt; BlockSize,\l RunType, PosType \&gt;">
<polygon fill="none" stroke="black" points="517.5,-60.5 517.5,-101.5 630.5,-101.5 630.5,-60.5 517.5,-60.5"/>
<text text-anchor="start" x="525.5" y="-89.5" font-family="Helvetica,sans-Serif" font-size="10.00">stxxl::runs2bid_array</text>
<text text-anchor="start" x="525.5" y="-78.5" font-family="Helvetica,sans-Serif" font-size="10.00">_adaptor&lt; BlockSize,</text>
<text text-anchor="middle" x="574" y="-67.5" font-family="Helvetica,sans-Serif" font-size="10.00"> RunType, PosType &gt;</text>
</a>
</g>
</g>
<!-- Node2&#45;&gt;Node3 -->
<g id="edge2" class="edge"><title>Node2&#45;&gt;Node3</title>
<path fill="none" stroke="midnightblue" d="M489.324,-66.0133C498.814,-67.7129 508.302,-69.4123 517.301,-71.0241"/>
<polygon fill="midnightblue" stroke="midnightblue" points="489.916,-62.5637 479.456,-64.2458 488.682,-69.454 489.916,-62.5637"/>
</g>
<!-- Node4 -->
<g id="node4" class="node"><title>Node4</title>
<g id="a_node4"><a xlink:href="structstxxl_1_1runs2bid__array__adaptor2.html" target="_top" xlink:title="stxxl::runs2bid_array\l_adaptor2\&lt; BlockSize,\l RunType, PosType \&gt;">
<polygon fill="none" stroke="black" points="516,-0.5 516,-41.5 632,-41.5 632,-0.5 516,-0.5"/>
<text text-anchor="start" x="524" y="-29.5" font-family="Helvetica,sans-Serif" font-size="10.00">stxxl::runs2bid_array</text>
<text text-anchor="start" x="524" y="-18.5" font-family="Helvetica,sans-Serif" font-size="10.00">_adaptor2&lt; BlockSize,</text>
<text text-anchor="middle" x="574" y="-7.5" font-family="Helvetica,sans-Serif" font-size="10.00"> RunType, PosType &gt;</text>
</a>
</g>
</g>
<!-- Node2&#45;&gt;Node4 -->
<g id="edge3" class="edge"><title>Node2&#45;&gt;Node4</title>
<path fill="none" stroke="midnightblue" d="M489.49,-35.9571C498.395,-34.3621 507.296,-32.7678 515.792,-31.2463"/>
<polygon fill="midnightblue" stroke="midnightblue" points="488.682,-32.546 479.456,-37.7542 489.916,-39.4363 488.682,-32.546"/>
</g>
</g>
</svg>
