<?xml version="1.0" encoding="UTF-8" standalone="no"?>
<!DOCTYPE svg PUBLIC "-//W3C//DTD SVG 1.1//EN"
 "http://www.w3.org/Graphics/SVG/1.1/DTD/svg11.dtd">
<!-- Generated by graphviz version 2.26.3 (20100126.1600)
 -->
<!-- Title: stxxl::parallel_priority_queue&lt; ValueType, CompareType, AllocStrategy, BlockSize, DefaultMemSize, MaxItems &gt;::hint_comparator Pages: 1 -->
<svg width="856pt" height="146pt"
 viewBox="0.00 0.00 856.00 146.00" xmlns="http://www.w3.org/2000/svg" xmlns:xlink="http://www.w3.org/1999/xlink">
<g id="graph1" class="graph" transform="scale(1 1) rotate(0) translate(4 142)">
<title>stxxl::parallel_priority_queue&lt; ValueType, CompareType, AllocStrategy, BlockSize, DefaultMemSize, MaxItems &gt;::hint_comparator</title>
<!-- Node1 -->
<g id="node1" class="node"><title>Node1</title>
<polygon fill="#bfbfbf" stroke="black" points="660,-53 660,-113 848,-113 848,-53 660,-53"/>
<text text-anchor="start" x="668" y="-100" font-family="Helvetica,sans-Serif" font-size="10.00">stxxl::parallel_priority</text>
<text text-anchor="start" x="668" y="-87" font-family="Helvetica,sans-Serif" font-size="10.00">_queue&lt; ValueType, CompareType,</text>
<text text-anchor="start" x="668" y="-74" font-family="Helvetica,sans-Serif" font-size="10.00"> AllocStrategy, BlockSize, DefaultMem</text>
<text text-anchor="middle" x="754" y="-61" font-family="Helvetica,sans-Serif" font-size="10.00">Size, MaxItems &gt;::hint_comparator</text>
</g>
<!-- Node2 -->
<g id="node2" class="node"><title>Node2</title>
<a xlink:href="structstxxl_1_1parallel__priority__queue_1_1inv__compare__type.html" target="_top" xlink:title="Inverse comparison functor. ">
<polygon fill="none" stroke="black" points="380,-78 380,-138 568,-138 568,-78 380,-78"/>
<text text-anchor="start" x="388" y="-125" font-family="Helvetica,sans-Serif" font-size="10.00">stxxl::parallel_priority</text>
<text text-anchor="start" x="388" y="-112" font-family="Helvetica,sans-Serif" font-size="10.00">_queue&lt; ValueType, CompareType,</text>
<text text-anchor="start" x="388" y="-99" font-family="Helvetica,sans-Serif" font-size="10.00"> AllocStrategy, BlockSize, DefaultMem</text>
<text text-anchor="middle" x="474" y="-86" font-family="Helvetica,sans-Serif" font-size="10.00">Size, MaxItems &gt;::inv_compare_type</text>
</a>
</g>
<!-- Node2&#45;&gt;Node1 -->
<g id="edge2" class="edge"><title>Node2&#45;&gt;Node1</title>
<path fill="none" stroke="#9a32cd" stroke-dasharray="5,2" d="M578.167,-98.6994C604.918,-96.3109 633.54,-93.7554 659.757,-91.4146"/>
<polygon fill="#9a32cd" stroke="#9a32cd" points="577.664,-95.2303 568.015,-99.6058 578.287,-102.203 577.664,-95.2303"/>
<text text-anchor="middle" x="614" y="-101" font-family="Helvetica,sans-Serif" font-size="10.00"> m_compare</text>
</g>
<!-- Node3 -->
<g id="node4" class="node"><title>Node3</title>
<a xlink:href="classstxxl_1_1swap__vector.html" target="_top" xlink:title="stxxl::swap_vector\l\&lt; external_array_type \&gt;">
<polygon fill="none" stroke="black" points="414,-26 414,-60 534,-60 534,-26 414,-26"/>
<text text-anchor="start" x="422" y="-47" font-family="Helvetica,sans-Serif" font-size="10.00">stxxl::swap_vector</text>
<text text-anchor="middle" x="474" y="-34" font-family="Helvetica,sans-Serif" font-size="10.00">&lt; external_array_type &gt;</text>
</a>
</g>
<!-- Node3&#45;&gt;Node1 -->
<g id="edge4" class="edge"><title>Node3&#45;&gt;Node1</title>
<path fill="none" stroke="#9a32cd" stroke-dasharray="5,2" d="M544.196,-53.0279C579.212,-58.0303 622.059,-64.1512 659.882,-69.5545"/>
<polygon fill="#9a32cd" stroke="#9a32cd" points="544.462,-49.5305 534.067,-51.581 543.472,-56.4601 544.462,-49.5305"/>
<text text-anchor="middle" x="614" y="-70" font-family="Helvetica,sans-Serif" font-size="10.00"> m_eas</text>
</g>
<!-- Node4 -->
<g id="node6" class="node"><title>Node4</title>
<a xlink:href="classstxxl_1_1noncopyable.html" target="_top" xlink:title="stxxl::noncopyable">
<polygon fill="none" stroke="black" points="0,-33.5 0,-54.5 98,-54.5 98,-33.5 0,-33.5"/>
<text text-anchor="middle" x="49" y="-41.5" font-family="Helvetica,sans-Serif" font-size="10.00">stxxl::noncopyable</text>
</a>
</g>
<!-- Node4&#45;&gt;Node3 -->
<g id="edge6" class="edge"><title>Node4&#45;&gt;Node3</title>
<path fill="none" stroke="#8b1a1a" d="M108.204,-45.9927C171.149,-47.822 273.607,-49.9721 362,-48 378.832,-47.6245 397.076,-46.9319 413.857,-46.1793"/>
<polygon fill="#8b1a1a" stroke="#8b1a1a" points="108.168,-42.4902 98.0679,-45.691 107.959,-49.4871 108.168,-42.4902"/>
</g>
<!-- Node5 -->
<g id="node8" class="node"><title>Node5</title>
<a xlink:href="classstxxl_1_1swap__vector.html" target="_top" xlink:title="Vector that avoids copying of ValueType objects in push_back() (here: swap_back()) and resize() opera...">
<polygon fill="none" stroke="black" points="136.5,-0 136.5,-34 235.5,-34 235.5,-0 136.5,-0"/>
<text text-anchor="start" x="144.5" y="-21" font-family="Helvetica,sans-Serif" font-size="10.00">stxxl::swap_vector</text>
<text text-anchor="middle" x="186" y="-8" font-family="Helvetica,sans-Serif" font-size="10.00">&lt; ValueType &gt;</text>
</a>
</g>
<!-- Node4&#45;&gt;Node5 -->
<g id="edge10" class="edge"><title>Node4&#45;&gt;Node5</title>
<path fill="none" stroke="#8b1a1a" d="M108.148,-32.3432C117.55,-30.4901 127.193,-28.5898 136.348,-26.7855"/>
<polygon fill="#8b1a1a" stroke="#8b1a1a" points="107.208,-28.961 98.0732,-34.3286 108.561,-35.8289 107.208,-28.961"/>
</g>
<!-- Node5&#45;&gt;Node3 -->
<g id="edge8" class="edge"><title>Node5&#45;&gt;Node3</title>
<path fill="none" stroke="orange" stroke-dasharray="5,2" d="M245.699,-22.3895C294.965,-26.8371 364.551,-33.1192 413.921,-37.5762"/>
<polygon fill="orange" stroke="orange" points="245.783,-18.8829 235.509,-21.4696 245.154,-25.8546 245.783,-18.8829"/>
<text text-anchor="middle" x="308" y="-36" font-family="Helvetica,sans-Serif" font-size="10.00"> &lt; external_array_type &gt;</text>
</g>
</g>
</svg>
