<?xml version="1.0" encoding="UTF-8" standalone="no"?>
<!DOCTYPE svg PUBLIC "-//W3C//DTD SVG 1.1//EN"
 "http://www.w3.org/Graphics/SVG/1.1/DTD/svg11.dtd">
<!-- Generated by graphviz version 2.26.3 (20100126.1600)
 -->
<!-- Title: stxxl::ppq_local::minima_tree&lt; ParentType &gt;::head_comp Pages: 1 -->
<svg width="1110pt" height="492pt"
 viewBox="0.00 0.00 1110.00 492.04" xmlns="http://www.w3.org/2000/svg" xmlns:xlink="http://www.w3.org/1999/xlink">
<g id="graph1" class="graph" transform="scale(1 1) rotate(0) translate(4 488.044)">
<title>stxxl::ppq_local::minima_tree&lt; ParentType &gt;::head_comp</title>
<!-- Node1 -->
<g id="node1" class="node"><title>Node1</title>
<polygon fill="#bfbfbf" stroke="black" points="446.5,-419.044 446.5,-453.044 609.5,-453.044 609.5,-419.044 446.5,-419.044"/>
<text text-anchor="start" x="454.5" y="-440.044" font-family="Helvetica,sans-Serif" font-size="10.00">stxxl::ppq_local::minima</text>
<text text-anchor="middle" x="528" y="-427.044" font-family="Helvetica,sans-Serif" font-size="10.00">_tree&lt; ParentType &gt;::head_comp</text>
</g>
<!-- Node2 -->
<g id="node2" class="node"><title>Node2</title>
<a xlink:href="classstxxl_1_1ppq__local_1_1minima__tree.html" target="_top" xlink:title="The minima_tree contains minima from all sources inside the PPQ. ">
<polygon fill="none" stroke="black" points="980,-285.044 980,-319.044 1102,-319.044 1102,-285.044 980,-285.044"/>
<text text-anchor="start" x="988" y="-306.044" font-family="Helvetica,sans-Serif" font-size="10.00">stxxl::ppq_local::minima</text>
<text text-anchor="middle" x="1041" y="-293.044" font-family="Helvetica,sans-Serif" font-size="10.00">_tree&lt; ParentType &gt;</text>
</a>
</g>
<!-- Node1&#45;&gt;Node2 -->
<g id="edge36" class="edge"><title>Node1&#45;&gt;Node2</title>
<path fill="none" stroke="#9a32cd" stroke-dasharray="5,2" d="M603.948,-455.161C681.281,-470.817 803.234,-484.834 900,-447.044 963.453,-422.264 1011.71,-351.771 1031.36,-319.079"/>
<polygon fill="#9a32cd" stroke="#9a32cd" points="604.312,-451.662 593.808,-453.047 602.883,-458.515 604.312,-451.662"/>
<text text-anchor="middle" x="830" y="-475.044" font-family="Helvetica,sans-Serif" font-size="10.00"> m_head_comp</text>
</g>
<!-- Node8 -->
<g id="node16" class="node"><title>Node8</title>
<a xlink:href="classstxxl_1_1winner__tree.html" target="_top" xlink:title="stxxl::winner_tree\l\&lt; stxxl::ppq_local::\lminima_tree::head_comp \&gt;">
<polygon fill="none" stroke="black" points="762.5,-187.544 762.5,-234.544 897.5,-234.544 897.5,-187.544 762.5,-187.544"/>
<text text-anchor="start" x="770.5" y="-221.544" font-family="Helvetica,sans-Serif" font-size="10.00">stxxl::winner_tree</text>
<text text-anchor="start" x="770.5" y="-208.544" font-family="Helvetica,sans-Serif" font-size="10.00">&lt; stxxl::ppq_local::</text>
<text text-anchor="middle" x="830" y="-195.544" font-family="Helvetica,sans-Serif" font-size="10.00">minima_tree::head_comp &gt;</text>
</a>
</g>
<!-- Node1&#45;&gt;Node8 -->
<g id="edge22" class="edge"><title>Node1&#45;&gt;Node8</title>
<path fill="none" stroke="#9a32cd" stroke-dasharray="5,2" d="M596.145,-415.943C651.103,-398.404 722.371,-372.207 742,-349.044 765.561,-321.24 740.948,-300.112 760,-269.044 768.168,-255.724 780.487,-244.033 792.525,-234.702"/>
<polygon fill="#9a32cd" stroke="#9a32cd" points="594.92,-412.66 586.437,-419.007 597.027,-419.335 594.92,-412.66"/>
<text text-anchor="middle" x="686" y="-407.044" font-family="Helvetica,sans-Serif" font-size="10.00"> m_less</text>
</g>
<!-- Node2&#45;&gt;Node1 -->
<g id="edge2" class="edge"><title>Node2&#45;&gt;Node1</title>
<path fill="none" stroke="#9a32cd" stroke-dasharray="5,2" d="M1014.97,-326.059C988.286,-349.11 944.504,-382.755 900,-399.044 804.616,-433.955 686.83,-440.01 609.678,-439.442"/>
<polygon fill="#9a32cd" stroke="#9a32cd" points="1017.49,-328.507 1022.68,-319.276 1012.86,-323.25 1017.49,-328.507"/>
<text text-anchor="middle" x="830" y="-434.044" font-family="Helvetica,sans-Serif" font-size="10.00"> m_parent</text>
</g>
<!-- Node3 -->
<g id="node4" class="node"><title>Node3</title>
<a xlink:href="classstxxl_1_1winner__tree.html" target="_top" xlink:title="stxxl::winner_tree\l\&lt; stxxl::ppq_local::\lminima_tree::heaps_comp \&gt;">
<polygon fill="none" stroke="black" points="760,-278.544 760,-325.544 900,-325.544 900,-278.544 760,-278.544"/>
<text text-anchor="start" x="768" y="-312.544" font-family="Helvetica,sans-Serif" font-size="10.00">stxxl::winner_tree</text>
<text text-anchor="start" x="768" y="-299.544" font-family="Helvetica,sans-Serif" font-size="10.00">&lt; stxxl::ppq_local::</text>
<text text-anchor="middle" x="830" y="-286.544" font-family="Helvetica,sans-Serif" font-size="10.00">minima_tree::heaps_comp &gt;</text>
</a>
</g>
<!-- Node3&#45;&gt;Node2 -->
<g id="edge4" class="edge"><title>Node3&#45;&gt;Node2</title>
<path fill="none" stroke="#9a32cd" stroke-dasharray="5,2" d="M910.37,-302.044C933.43,-302.044 958.191,-302.044 979.888,-302.044"/>
<polygon fill="#9a32cd" stroke="#9a32cd" points="910.26,-298.544 900.26,-302.044 910.26,-305.544 910.26,-298.544"/>
<text text-anchor="middle" x="940" y="-306.044" font-family="Helvetica,sans-Serif" font-size="10.00"> m_heaps</text>
</g>
<!-- Node4 -->
<g id="node6" class="node"><title>Node4</title>
<a xlink:href="structstxxl_1_1ppq__local_1_1minima__tree_1_1heaps__comp.html" target="_top" xlink:title="Comparator for the insertion heaps winner tree. ">
<polygon fill="none" stroke="black" points="444,-356.044 444,-390.044 612,-390.044 612,-356.044 444,-356.044"/>
<text text-anchor="start" x="452" y="-377.044" font-family="Helvetica,sans-Serif" font-size="10.00">stxxl::ppq_local::minima</text>
<text text-anchor="middle" x="528" y="-364.044" font-family="Helvetica,sans-Serif" font-size="10.00">_tree&lt; ParentType &gt;::heaps_comp</text>
</a>
</g>
<!-- Node4&#45;&gt;Node2 -->
<g id="edge16" class="edge"><title>Node4&#45;&gt;Node2</title>
<path fill="none" stroke="#9a32cd" stroke-dasharray="5,2" d="M622.318,-384.54C624.905,-384.727 627.469,-384.896 630,-385.044 679.692,-387.957 692.678,-391.763 742,-385.044 833.546,-372.574 936.625,-339.562 994.698,-319.127"/>
<polygon fill="#9a32cd" stroke="#9a32cd" points="622.504,-381.044 612.257,-383.737 621.947,-388.022 622.504,-381.044"/>
<text text-anchor="middle" x="830" y="-386.044" font-family="Helvetica,sans-Serif" font-size="10.00"> m_heaps_comp</text>
</g>
<!-- Node4&#45;&gt;Node3 -->
<g id="edge6" class="edge"><title>Node4&#45;&gt;Node3</title>
<path fill="none" stroke="#9a32cd" stroke-dasharray="5,2" d="M579.359,-352.378C595.388,-346.482 613.258,-340.465 630,-336.044 672.566,-324.803 721.248,-316.433 759.924,-310.811"/>
<polygon fill="#9a32cd" stroke="#9a32cd" points="577.779,-349.232 569.643,-356.018 580.235,-355.787 577.779,-349.232"/>
<text text-anchor="middle" x="686" y="-340.044" font-family="Helvetica,sans-Serif" font-size="10.00"> m_less</text>
</g>
<!-- Node5 -->
<g id="node8" class="node"><title>Node5</title>
<a xlink:href="structstxxl_1_1winner__tree_1_1stats__type.html" target="_top" xlink:title="Collection of stats from the winner_tree. ">
<polygon fill="none" stroke="black" points="230.5,-160.044 230.5,-194.044 367.5,-194.044 367.5,-160.044 230.5,-160.044"/>
<text text-anchor="start" x="238.5" y="-181.044" font-family="Helvetica,sans-Serif" font-size="10.00">stxxl::winner_tree</text>
<text text-anchor="middle" x="299" y="-168.044" font-family="Helvetica,sans-Serif" font-size="10.00">&lt; Comparator &gt;::stats_type</text>
</a>
</g>
<!-- Node5&#45;&gt;Node3 -->
<g id="edge8" class="edge"><title>Node5&#45;&gt;Node3</title>
<path fill="none" stroke="#9a32cd" stroke-dasharray="5,2" d="M357.412,-197.412C383.825,-206.564 415.453,-217.442 444,-227.044 526.459,-254.781 544.623,-271.324 630,-288.044 672.527,-296.373 720.993,-299.912 759.563,-301.35"/>
<polygon fill="#9a32cd" stroke="#9a32cd" points="358.527,-194.094 347.933,-194.124 356.234,-200.708 358.527,-194.094"/>
<text text-anchor="middle" x="528" y="-288.044" font-family="Helvetica,sans-Serif" font-size="10.00"> m_stats</text>
</g>
<!-- Node7 -->
<g id="node12" class="node"><title>Node7</title>
<a xlink:href="classstxxl_1_1winner__tree.html" target="_top" xlink:title="The class winner_tree is a binary tournament tree. ">
<polygon fill="none" stroke="black" points="481,-184.044 481,-218.044 575,-218.044 575,-184.044 481,-184.044"/>
<text text-anchor="start" x="489" y="-205.044" font-family="Helvetica,sans-Serif" font-size="10.00">stxxl::winner_tree</text>
<text text-anchor="middle" x="528" y="-192.044" font-family="Helvetica,sans-Serif" font-size="10.00">&lt; Comparator &gt;</text>
</a>
</g>
<!-- Node5&#45;&gt;Node7 -->
<g id="edge14" class="edge"><title>Node5&#45;&gt;Node7</title>
<path fill="none" stroke="#9a32cd" stroke-dasharray="5,2" d="M377.71,-185.293C412.002,-188.887 451.056,-192.98 480.757,-196.093"/>
<polygon fill="#9a32cd" stroke="#9a32cd" points="378.018,-181.806 367.708,-184.245 377.288,-188.768 378.018,-181.806"/>
<text text-anchor="middle" x="406" y="-193.044" font-family="Helvetica,sans-Serif" font-size="10.00"> m_stats</text>
</g>
<!-- Node5&#45;&gt;Node8 -->
<g id="edge20" class="edge"><title>Node5&#45;&gt;Node8</title>
<path fill="none" stroke="#9a32cd" stroke-dasharray="5,2" d="M377.833,-166.486C467.478,-156.974 617.536,-148.665 742,-179.044 751.318,-181.318 761.015,-184.244 770.421,-187.4"/>
<polygon fill="#9a32cd" stroke="#9a32cd" points="377.303,-163.023 367.743,-167.589 378.064,-169.982 377.303,-163.023"/>
<text text-anchor="middle" x="528" y="-164.044" font-family="Helvetica,sans-Serif" font-size="10.00"> m_stats</text>
</g>
<!-- Node9 -->
<g id="node21" class="node"><title>Node9</title>
<a xlink:href="classstxxl_1_1winner__tree.html" target="_top" xlink:title="stxxl::winner_tree\l\&lt; stxxl::ppq_local::\lminima_tree::ia_comp \&gt;">
<polygon fill="none" stroke="black" points="769,-72.544 769,-119.544 891,-119.544 891,-72.544 769,-72.544"/>
<text text-anchor="start" x="777" y="-106.544" font-family="Helvetica,sans-Serif" font-size="10.00">stxxl::winner_tree</text>
<text text-anchor="start" x="777" y="-93.544" font-family="Helvetica,sans-Serif" font-size="10.00">&lt; stxxl::ppq_local::</text>
<text text-anchor="middle" x="830" y="-80.544" font-family="Helvetica,sans-Serif" font-size="10.00">minima_tree::ia_comp &gt;</text>
</a>
</g>
<!-- Node5&#45;&gt;Node9 -->
<g id="edge28" class="edge"><title>Node5&#45;&gt;Node9</title>
<path fill="none" stroke="#9a32cd" stroke-dasharray="5,2" d="M370.967,-157.477C394.187,-151.487 420.1,-145.141 444,-140.044 526.036,-122.549 546.674,-117.682 630,-108.044 676.303,-102.688 728.93,-99.6517 768.574,-97.9735"/>
<polygon fill="#9a32cd" stroke="#9a32cd" points="369.992,-154.114 361.195,-160.018 371.754,-160.889 369.992,-154.114"/>
<text text-anchor="middle" x="528" y="-144.044" font-family="Helvetica,sans-Serif" font-size="10.00"> m_stats</text>
</g>
<!-- Node6 -->
<g id="node10" class="node"><title>Node6</title>
<a xlink:href="classstxxl_1_1fake__timer.html" target="_top" xlink:title="Class fake_timer is a drop&#45;in replacement for timer, which does nothing. ">
<polygon fill="none" stroke="black" points="0.5,-166.544 0.5,-187.544 89.5,-187.544 89.5,-166.544 0.5,-166.544"/>
<text text-anchor="middle" x="45" y="-174.544" font-family="Helvetica,sans-Serif" font-size="10.00">stxxl::fake_timer</text>
</a>
</g>
<!-- Node6&#45;&gt;Node5 -->
<g id="edge10" class="edge"><title>Node6&#45;&gt;Node5</title>
<path fill="none" stroke="#9a32cd" stroke-dasharray="5,2" d="M99.9304,-177.044C138.078,-177.044 189.192,-177.044 230.075,-177.044"/>
<polygon fill="#9a32cd" stroke="#9a32cd" points="99.5341,-173.544 89.5341,-177.044 99.534,-180.544 99.5341,-173.544"/>
<text text-anchor="middle" x="160" y="-207.044" font-family="Helvetica,sans-Serif" font-size="10.00"> remove_player_time</text>
<text text-anchor="middle" x="160" y="-194.044" font-family="Helvetica,sans-Serif" font-size="10.00">replay_time</text>
<text text-anchor="middle" x="160" y="-181.044" font-family="Helvetica,sans-Serif" font-size="10.00">double_num_slots_time</text>
</g>
<!-- Node7&#45;&gt;Node3 -->
<g id="edge12" class="edge"><title>Node7&#45;&gt;Node3</title>
<path fill="none" stroke="orange" stroke-dasharray="5,2" d="M585.061,-215.433C599.684,-219.009 615.403,-222.758 630,-226.044 679.576,-237.206 694.665,-230.558 742,-249.044 761.105,-256.505 780.803,-267.958 796.707,-278.311"/>
<polygon fill="orange" stroke="orange" points="585.686,-211.983 575.14,-212.992 584.014,-218.78 585.686,-211.983"/>
<text text-anchor="start" x="640" y="-279.044" font-family="Helvetica,sans-Serif" font-size="10.00"> &lt; stxxl::ppq_local</text>
<text text-anchor="start" x="640" y="-266.044" font-family="Helvetica,sans-Serif" font-size="10.00">::minima_tree::heaps</text>
<text text-anchor="middle" x="686" y="-253.044" font-family="Helvetica,sans-Serif" font-size="10.00">_comp &gt;</text>
</g>
<!-- Node7&#45;&gt;Node8 -->
<g id="edge24" class="edge"><title>Node7&#45;&gt;Node8</title>
<path fill="none" stroke="orange" stroke-dasharray="5,2" d="M585.402,-191.142C628.611,-185.176 689.217,-179.975 742,-187.044 748.592,-187.927 755.39,-189.166 762.148,-190.621"/>
<polygon fill="orange" stroke="orange" points="584.758,-187.699 575.358,-192.586 585.754,-194.627 584.758,-187.699"/>
<text text-anchor="start" x="642.5" y="-217.044" font-family="Helvetica,sans-Serif" font-size="10.00"> &lt; stxxl::ppq_local</text>
<text text-anchor="start" x="642.5" y="-204.044" font-family="Helvetica,sans-Serif" font-size="10.00">::minima_tree::head</text>
<text text-anchor="middle" x="686" y="-191.044" font-family="Helvetica,sans-Serif" font-size="10.00">_comp &gt;</text>
</g>
<!-- Node7&#45;&gt;Node9 -->
<g id="edge32" class="edge"><title>Node7&#45;&gt;Node9</title>
<path fill="none" stroke="orange" stroke-dasharray="5,2" d="M584.719,-183.691C594.142,-179.812 603.579,-175.267 612,-170.044 621.351,-164.244 620.436,-158.485 630,-153.044 673.15,-128.496 727.645,-113.874 768.849,-105.597"/>
<polygon fill="orange" stroke="orange" points="583.383,-180.456 575.338,-187.35 585.926,-186.977 583.383,-180.456"/>
<text text-anchor="start" x="630" y="-170.044" font-family="Helvetica,sans-Serif" font-size="10.00"> &lt; stxxl::ppq_local</text>
<text text-anchor="middle" x="686" y="-157.044" font-family="Helvetica,sans-Serif" font-size="10.00">::minima_tree::ia_comp &gt;</text>
</g>
<!-- Node8&#45;&gt;Node2 -->
<g id="edge18" class="edge"><title>Node8&#45;&gt;Node2</title>
<path fill="none" stroke="#9a32cd" stroke-dasharray="5,2" d="M893.799,-238.559C928.77,-253.642 971.027,-271.866 1001.28,-284.913"/>
<polygon fill="#9a32cd" stroke="#9a32cd" points="895.181,-235.344 884.612,-234.597 892.408,-241.771 895.181,-235.344"/>
<text text-anchor="middle" x="940" y="-271.044" font-family="Helvetica,sans-Serif" font-size="10.00"> m_head</text>
</g>
<!-- Node9&#45;&gt;Node2 -->
<g id="edge26" class="edge"><title>Node9&#45;&gt;Node2</title>
<path fill="none" stroke="#9a32cd" stroke-dasharray="5,2" d="M861.37,-126.67C906.385,-170.619 987.802,-250.107 1023.47,-284.926"/>
<polygon fill="#9a32cd" stroke="#9a32cd" points="863.805,-124.156 854.204,-119.675 858.915,-129.165 863.805,-124.156"/>
<text text-anchor="middle" x="940" y="-227.044" font-family="Helvetica,sans-Serif" font-size="10.00"> m_ia</text>
</g>
<!-- Node10 -->
<g id="node24" class="node"><title>Node10</title>
<a xlink:href="structstxxl_1_1ppq__local_1_1minima__tree_1_1ia__comp.html" target="_top" xlink:title="Comparator for the internal arrays winner tree. ">
<polygon fill="none" stroke="black" points="453.5,-5.04401 453.5,-39.044 602.5,-39.044 602.5,-5.04401 453.5,-5.04401"/>
<text text-anchor="start" x="461.5" y="-26.044" font-family="Helvetica,sans-Serif" font-size="10.00">stxxl::ppq_local::minima</text>
<text text-anchor="middle" x="528" y="-13.044" font-family="Helvetica,sans-Serif" font-size="10.00">_tree&lt; ParentType &gt;::ia_comp</text>
</a>
</g>
<!-- Node10&#45;&gt;Node2 -->
<g id="edge34" class="edge"><title>Node10&#45;&gt;Node2</title>
<path fill="none" stroke="#9a32cd" stroke-dasharray="5,2" d="M612.73,-6.24459C693.449,4.02677 814.935,6.5491 900,-50.044 986.818,-107.804 1025.64,-238.063 1037.14,-284.88"/>
<polygon fill="#9a32cd" stroke="#9a32cd" points="612.049,-2.80438 602.602,-7.60101 612.979,-9.74243 612.049,-2.80438"/>
<text text-anchor="middle" x="830" y="-54.044" font-family="Helvetica,sans-Serif" font-size="10.00"> m_ia_comp</text>
</g>
<!-- Node10&#45;&gt;Node9 -->
<g id="edge30" class="edge"><title>Node10&#45;&gt;Node9</title>
<path fill="none" stroke="#9a32cd" stroke-dasharray="5,2" d="M612.557,-27.5369C652.48,-31.7316 700.388,-39.1051 742,-52.044 758.148,-57.065 774.967,-64.7828 789.523,-72.3607"/>
<polygon fill="#9a32cd" stroke="#9a32cd" points="612.887,-24.0525 602.588,-26.5375 612.189,-31.0176 612.887,-24.0525"/>
<text text-anchor="middle" x="686" y="-56.044" font-family="Helvetica,sans-Serif" font-size="10.00"> m_less</text>
</g>
</g>
</svg>
