<?xml version="1.0" encoding="UTF-8" standalone="no"?>
<!DOCTYPE svg PUBLIC "-//W3C//DTD SVG 1.1//EN"
 "http://www.w3.org/Graphics/SVG/1.1/DTD/svg11.dtd">
<!-- Generated by graphviz version 2.38.0 (20140413.2041)
 -->
<!-- Title: stxxl::stream::sorted_runs&lt; TriggerEntryType, CompareType &gt; Pages: 1 -->
<svg width="272pt" height="263pt"
 viewBox="0.00 0.00 272.00 263.00" xmlns="http://www.w3.org/2000/svg" xmlns:xlink="http://www.w3.org/1999/xlink">
<g id="graph0" class="graph" transform="scale(1 1) rotate(0) translate(4 259)">
<title>stxxl::stream::sorted_runs&lt; TriggerEntryType, CompareType &gt;</title>
<!-- Node1 -->
<g id="node1" class="node"><title>Node1</title>
<polygon fill="#bfbfbf" stroke="black" points="21,-0.5 21,-41.5 149,-41.5 149,-0.5 21,-0.5"/>
<text text-anchor="start" x="29" y="-29.5" font-family="Helvetica,sans-Serif" font-size="10.00">stxxl::stream::sorted</text>
<text text-anchor="start" x="29" y="-18.5" font-family="Helvetica,sans-Serif" font-size="10.00">_runs&lt; TriggerEntryType,</text>
<text text-anchor="middle" x="85" y="-7.5" font-family="Helvetica,sans-Serif" font-size="10.00"> CompareType &gt;</text>
</g>
<!-- Node2 -->
<g id="node2" class="node"><title>Node2</title>
<g id="a_node2"><a xlink:href="classstxxl_1_1noncopyable.html" target="_top" xlink:title="stxxl::noncopyable">
<polygon fill="none" stroke="black" points="-7.10543e-15,-79.5 -7.10543e-15,-98.5 98,-98.5 98,-79.5 -7.10543e-15,-79.5"/>
<text text-anchor="middle" x="49" y="-86.5" font-family="Helvetica,sans-Serif" font-size="10.00">stxxl::noncopyable</text>
</a>
</g>
</g>
<!-- Node2&#45;&gt;Node1 -->
<g id="edge1" class="edge"><title>Node2&#45;&gt;Node1</title>
<path fill="none" stroke="#8b1a1a" d="M58.6024,-70.3957C63.4183,-61.5665 69.2678,-50.8423 74.2354,-41.7351"/>
<polygon fill="#8b1a1a" stroke="#8b1a1a" points="55.4223,-68.9167 53.7064,-79.3717 61.5676,-72.2687 55.4223,-68.9167"/>
</g>
<!-- Node3 -->
<g id="node3" class="node"><title>Node3</title>
<g id="a_node3"><a xlink:href="classstxxl_1_1counted__object.html" target="_top" xlink:title="Provides reference counting abilities for use with counting_ptr. ">
<polygon fill="none" stroke="black" points="116,-79.5 116,-98.5 226,-98.5 226,-79.5 116,-79.5"/>
<text text-anchor="middle" x="171" y="-86.5" font-family="Helvetica,sans-Serif" font-size="10.00">stxxl::counted_object</text>
</a>
</g>
</g>
<!-- Node3&#45;&gt;Node1 -->
<g id="edge2" class="edge"><title>Node3&#45;&gt;Node1</title>
<path fill="none" stroke="midnightblue" d="M151.681,-73.1737C139.586,-63.8915 123.858,-51.8216 110.715,-41.7351"/>
<polygon fill="midnightblue" stroke="midnightblue" points="149.693,-76.06 159.757,-79.3717 153.955,-70.5068 149.693,-76.06"/>
</g>
<!-- Node4 -->
<g id="node4" class="node"><title>Node4</title>
<g id="a_node4"><a xlink:href="structstxxl_1_1choose__int__types.html" target="_top" xlink:title="stxxl::choose_int_types\l\&lt; my_pointer_size \&gt;">
<polygon fill="none" stroke="black" points="111,-146.5 111,-176.5 231,-176.5 231,-146.5 111,-146.5"/>
<text text-anchor="start" x="119" y="-164.5" font-family="Helvetica,sans-Serif" font-size="10.00">stxxl::choose_int_types</text>
<text text-anchor="middle" x="171" y="-153.5" font-family="Helvetica,sans-Serif" font-size="10.00">&lt; my_pointer_size &gt;</text>
</a>
</g>
</g>
<!-- Node4&#45;&gt;Node3 -->
<g id="edge3" class="edge"><title>Node4&#45;&gt;Node3</title>
<path fill="none" stroke="#9a32cd" stroke-dasharray="5,2" d="M171,-136.091C171,-123.214 171,-108.197 171,-98.8932"/>
<polygon fill="#9a32cd" stroke="#9a32cd" points="167.5,-136.233 171,-146.233 174.5,-136.233 167.5,-136.233"/>
<text text-anchor="middle" x="214.5" y="-120" font-family="Helvetica,sans-Serif" font-size="10.00"> m_reference_count</text>
</g>
<!-- Node5 -->
<g id="node5" class="node"><title>Node5</title>
<g id="a_node5"><a xlink:href="structstxxl_1_1choose__int__types.html" target="_top" xlink:title="stxxl::choose_int_types\l\&lt; PtrSize \&gt;">
<polygon fill="none" stroke="black" points="111,-224.5 111,-254.5 231,-254.5 231,-224.5 111,-224.5"/>
<text text-anchor="start" x="119" y="-242.5" font-family="Helvetica,sans-Serif" font-size="10.00">stxxl::choose_int_types</text>
<text text-anchor="middle" x="171" y="-231.5" font-family="Helvetica,sans-Serif" font-size="10.00">&lt; PtrSize &gt;</text>
</a>
</g>
</g>
<!-- Node5&#45;&gt;Node4 -->
<g id="edge4" class="edge"><title>Node5&#45;&gt;Node4</title>
<path fill="none" stroke="orange" stroke-dasharray="5,2" d="M171,-214.09C171,-201.757 171,-187.224 171,-176.731"/>
<polygon fill="orange" stroke="orange" points="167.5,-214.205 171,-224.205 174.5,-214.205 167.5,-214.205"/>
<text text-anchor="middle" x="217.5" y="-198" font-family="Helvetica,sans-Serif" font-size="10.00"> &lt; my_pointer_size &gt;</text>
</g>
</g>
</svg>
